<svg xmlns="http://www.w3.org/2000/svg" height="480" width="640"><defs><clipPath id="a"><path fill-opacity=".67" d="M0 0h640v480H0z"/></clipPath></defs><g clip-path="url(#a)"><path fill-rule="evenodd" fill="#fff" d="M.426.42H403.1v240.067H.427z"/><path d="M41.573.422l116.494 73.046V.422H41.573z" fill="#006"/><path d="M173.607.422v93.25H.423v53.288h173.184v93.25h53.286v-93.25h173.185V93.673H226.893V.423h-53.286z" fill="#c00"/><path d="M242.435.422V69.25L356.407.955 242.435.422zM401.34 21.09l-95.12 56.62 93.853.42v84.37h-79.93l79.19 51.51 1.163 26.2-42.297-.605-115.763-68.222v68.828h-84.37v-68.827l-108.59 68.643-49.046.185v239.794h799.294V.426l-397.537-.43M.43 27.06l-.42 49.8 84.146 1.266L.43 27.06zM.426 162.497v51.066l79.93-50.533-79.93-.533z" fill="#006"/><g><path d="M457.892 255.536c0 52.457-6.046 111.57 33.052 152.65 8.043 8.453 23.345 27.725 36.462 26.986 13.732-.773 31.39-21.093 39.246-31.045 34.034-44.77 28.624-98.17 29.78-150.134-15.368 6.902-23.022 9.176-36.462 9.136-9.954 1.022-25.31-5.67-34.493-10.045-6 4.007-14.706 8.786-30.35 9.323-18.07.795-23.795-2.267-37.235-6.872z" fill="#cc3"/><path d="M462.054 261.24c-1.092 27.557-.254 58.587 4.054 88.07 4.763 15.404 4.126 23.866 11.203 33.098l99.07-.772c5.97-9.712 10.397-24.44 10.968-30.295 5.532-29.776 5.664-62.636 5.796-92.028-9.962 5.296-23.008 9.05-35.67 7.402-10.152-.774-19.53-3.09-30.454-9.264-9.475 5.676-12.778 8.268-28.423 8.93-12.18.6-22.048 1.588-36.543-5.14z" fill="#fff"/><path d="M509.134 266.073l4.06 4.06v-4.06h-4.06z" fill="#fef8f1"/><path d="M477.524 381.794c7.05 14.84 31.99 49.848 51.04 49.166 18.5-.662 39.393-34.82 47.567-49.166h-98.606z" fill="#0cf"/><path d="M529.382 302.6c3.132 7.366 13.175 15.502 15.935 19.49-3.513 3.986-4.216 3.552-3.755 10.96 6.11-6.394 6.22-7.06 10.15-6.09 8.61 8.59 1.54 27.04-5.574 31.052-7.114 4.28-5.822-.148-16.484 5.215 4.888 4.18 10.552-.613 15.18.668 2.516 2.984-1.195 8.422.76 13.544 4.09-.395 3.6-8.653 4.55-11.647 2.99-10.97 20.954-18.62 21.868-28.684 3.788-1.78 7.574-.557 12.18 2.03-2.294-9.428-9.882-9.327-11.916-12.27-4.842-7.4-9.133-15.84-19.474-18.03-7.85-1.662-7.263.5-12.294-2.93-3.126-2.44-12.646-7.053-11.124-3.312z" fill="#f90"/><path d="M551.95 310.97c0 .903-.73 1.635-1.635 1.635-.904 0-1.636-.732-1.636-1.636 0-.905.73-1.637 1.635-1.637.904 0 1.636.732 1.636 1.636z" fill-rule="evenodd" fill="#fff"/><path d="M504.44 333.924c5.052-6.21 7.556-18.89 9.792-23.193 5.167 1.247 5.11 2.07 11.445-1.796-8.506-2.417-9.147-2.203-10.125-6.13 3.576-11.626 23.192-13.992 30.06-9.573 7.107 4.292 2.59 5.218 12.31 12.14 1.414-6.274-5.47-9.044-6.498-13.734 1.464-3.618 8.006-2.876 11.622-6.997-2.26-3.434-9.332.857-12.424 1.414-11.095 2.48-26.25-9.832-35.575-5.94-3.34-2.52-4.03-6.438-3.893-11.72-7.265 6.432-3.63 13.094-5.285 16.268-4.282 7.736-9.74 15.472-6.848 25.638 2.196 7.718 3.834 6.19 3.15 12.24-.7 3.904-.33 14.476 2.266 11.383z" fill="#f90"/><path d="M501.3 310.058c.8-.422 1.79-.116 2.21.683.423.8.118 1.79-.68 2.212-.8.422-1.79.116-2.212-.683-.422-.8-.116-1.79.683-2.212z" fill-rule="evenodd" fill="#fff"/><g><path d="M545.295 338.142c-7.93-1.11-20.077 3.304-24.917 3.616-1.607-5.066-.873-5.444-7.46-8.866 2.332 8.532 2.847 8.97-.01 11.838-11.8 2.953-23.97-12.613-23.743-20.78-.003-8.3 3.126-4.913 4.023-16.815-6.1 2.037-4.912 9.36-8.394 12.668-3.854.618-6.604-5.365-12-6.328-1.77 3.71 5.56 7.543 7.636 9.902 7.864 8.214 5.165 27.555 13.32 33.523-.43 4.163-3.427 6.78-8.017 9.394 9.263 2.89 13.085-3.665 16.657-3.89 8.837-.34 18.282.332 25.487-7.404 5.47-5.872 3.315-6.483 8.848-9.027 3.702-1.422 12.56-7.206 8.57-7.83z" fill="#f90"/><path d="M526.49 353.175c-.773-.466-1.024-1.47-.558-2.245.465-.775 1.47-1.025 2.245-.56.775.466 1.025 1.47.56 2.246-.466.774-1.47 1.025-2.246.56z" fill-rule="evenodd" fill="#fff"/></g></g></g></svg>