<svg xmlns="http://www.w3.org/2000/svg" height="480" width="640"><g fill-rule="evenodd" stroke-width="1pt"><path fill="#00c4ff" d="M0-.01h640.003v160.43H0z"/><path fill="#fff" d="M0 159.763h640.003v160.43H0z"/><path fill="#00c4ff" d="M0 319.536h640.003v160.43H0z"/></g><path d="M382.49 221.33c0 14.564-11.864 26.37-26.5 26.37s-26.498-11.806-26.498-26.37 11.864-26.37 26.5-26.37 26.498 11.806 26.498 26.37z" stroke-opacity=".387" fill-rule="evenodd" transform="matrix(1.6 0 0 1.6 -265.9 -116.6)" stroke="#000" stroke-width=".625" fill="#ffd600"/><path d="M364.43 195.28c-4.34-1.05-8.785.422-10.185.318-1.925 0-6.79-1.68-10.185 0M338.71 200.49c4.305-3.01 9.115 1.086 10.394.315 3.492-2.294 6.736-1.868 10.08.21 2.155 1.272 5.914-3.71 10.29.315" stroke-opacity=".387" transform="matrix(1.3 0 0 1.2 -130.9 -28.9)" stroke="#000" stroke-width=".5" fill="none"/><path d="M333.88 205.63c2.275-1.855 9.694-1.925 17.324 2.414 1.155-.28 1.89-1.084.945-2.204-5.74-1.995-12.425-4.515-18.585-2.625-1.68 1.19-1.26 1.96.315 2.415z" stroke-opacity=".387" fill-rule="evenodd" transform="matrix(1.3 0 0 1.2 -130.9 -28.9)" stroke="#000" stroke-width=".5" fill="#efc000"/><path d="M333.88 205.63c2.275-1.855 9.694-1.925 17.324 2.414 1.155-.28 1.89-1.084.945-2.204-5.74-1.995-12.425-4.515-18.585-2.625-1.68 1.19-1.26 1.96.315 2.415z" stroke-opacity=".387" fill-rule="evenodd" transform="matrix(-1.3 0 0 1.2 769 -28.9)" stroke="#000" stroke-width=".5" fill="#efc000"/><path stroke-linejoin="round" d="M330.84 211.83c7.525-4.83 17.464-2.31 21.63.315-6.09-1.155-6.196-1.68-10.606-1.785-3.115.106-7.7-.21-11.024 1.47z" stroke-opacity=".387" fill-rule="evenodd" transform="matrix(1.3 0 0 1.2 -130.9 -28.9)" stroke="#000" stroke-width=".625" fill="#f0bf00"/><path d="M348.06 211.3c-3.675 7.665-10.08 7.77-14.594-.42" stroke-opacity=".387" transform="matrix(1.3 0 0 1.2 -130.9 -28.9)" stroke="#000" stroke-width=".625" fill="none"/><path d="M308.78 234.09c-1.383 1.514-4.77 2.413-7.564 2.01s-3.937-1.96-2.553-3.474c1.384-1.514 4.77-2.413 7.565-2.01s3.937 1.96 2.553 3.474z" fill-rule="evenodd" fill-opacity=".368"/><path d="M301.898 232.147c.143.353-.297.82-.984 1.045s-1.358.12-1.5-.23c-.144-.354.297-.822.983-1.046s1.36-.12 1.5.23z" fill-rule="evenodd" fill="gold"/><path d="M349.18 224.5c-4.24 7.127 1.537 2.1 2.475 4.164 1.65 1.913 3.3 1.462 4.276 0 .977-1.65 7.128 3.113 2.927-3.938" stroke-opacity=".387" transform="matrix(1.3 0 0 1.2 -130.9 -28.9)" stroke="#000" stroke-width=".625" fill="none"/><path stroke-linejoin="round" d="M341.64 236.31c3.638-.413 9.753-3.188 11.93-.9 1.874-2.063 8.476.6 12.714.9-3.076 1.875-9.302.6-12.265 2.588-2.89-1.763-9.267-.15-12.38-2.588z" stroke-opacity=".387" transform="matrix(1.3 0 0 1.2 -130.9 -28.9)" stroke="#000" stroke-linecap="round" stroke-width=".625" fill="none"/><path stroke-linejoin="round" d="M347.5 239.58c5.514 2.25 6.752 1.913 12.716.225-1.238 3.264-4.398 3.95-6.19 3.826-1.857-.12-4.388.114-6.526-4.05z" stroke-opacity=".387" transform="matrix(1.3 0 0 1.2 -130.9 -28.9)" stroke="#000" stroke-width=".625" fill="none"/><path stroke-linejoin="round" d="M343.17 258.06c-3.977 10.41.38 15.358-1.567 20.964-1.874 5.398-10.025 18.776-3.82 24.59 4.93.227-.853-7.377 9.01-21.456 4.576-6.595-1.195-10.77 3.626-23.707.448-1.106-6.623-2.03-7.25-.39z" stroke-opacity=".387" fill-rule="evenodd" transform="matrix(1.3 0 0 1.2 -130.9 -28.9)" stroke="#000" stroke-width=".625" fill="gold"/><path stroke-linejoin="round" d="M342.97 258.16c-1.528 11.683-.62 47.577 3.037 46.14 4.05 1.306 4.583-35.162 4.212-45.945-.053-1.194-7.037-1.938-7.25-.195z" stroke-opacity=".387" fill-rule="evenodd" transform="matrix(1.3 0 0 1.2 -119.9 -28.1)" stroke="#000" stroke-width=".625" fill="gold"/><path stroke-linejoin="round" d="M343.17 258.06c-3.977 10.41.38 15.358-1.567 20.964-1.874 5.398-10.025 18.776-3.82 24.59 4.93.227-.853-7.377 9.01-21.456 4.576-6.595-1.195-10.77 3.626-23.707.448-1.106-6.623-2.03-7.25-.39z" stroke-opacity=".387" transform="matrix(-.9 -.9 -.9 .9 837 353.2)" stroke="#000" stroke-width=".625" fill="none"/><path stroke-linejoin="round" d="M343.17 258.06c-3.977 10.41.38 15.358-1.567 20.964-1.874 5.398-10.025 18.776-3.82 24.59 4.93.227-.853-7.377 9.01-21.456 4.576-6.595-1.195-10.77 3.626-23.707.448-1.106-6.623-2.03-7.25-.39z" stroke-opacity=".387" transform="matrix(.9 .9 -.9 .9 204.6 -258.7)" stroke="#000" stroke-width=".625" fill="none"/><path stroke-linejoin="round" d="M343.17 258.06c-3.977 10.41.38 15.358-1.567 20.964-1.874 5.398-10.025 18.776-3.82 24.59 4.93.227-.853-7.377 9.01-21.456 4.576-6.595-1.195-10.77 3.626-23.707.448-1.106-6.623-2.03-7.25-.39z" stroke-opacity=".387" transform="matrix(0 -1.2 -1.3 0 601.7 676.9)" stroke="#000" stroke-width=".625" fill="none"/><path stroke-linejoin="round" d="M342.97 258.16c-1.528 11.683-.62 47.577 3.037 46.14 4.05 1.306 4.583-35.162 4.212-45.945-.053-1.194-7.037-1.938-7.25-.195z" stroke-opacity=".387" transform="matrix(-1.2 -.5 -.5 1.1 835.8 164.2)" stroke="#000" stroke-width=".625" fill="none"/><path stroke-linejoin="round" d="M342.97 258.16c-1.528 11.683-.62 47.577 3.037 46.14 4.05 1.306 4.583-35.162 4.212-45.945-.053-1.194-7.037-1.938-7.25-.195z" stroke-opacity=".387" transform="matrix(-.9 -.9 -.9 .9 827.9 348.8)" stroke="#000" stroke-width=".625" fill="none"/><path stroke-linejoin="round" d="M342.97 258.16c-1.528 11.683-.62 47.577 3.037 46.14 4.05 1.306 4.583-35.162 4.212-45.945-.053-1.194-7.037-1.938-7.25-.195z" stroke-opacity=".387" transform="matrix(-.5 -1.1 -1.2 .5 748.1 528.5)" stroke="#000" stroke-width=".625" fill="none"/><path d="M349.18 224.5c-4.24 7.127 1.537 2.1 2.475 4.164 1.65 1.913 3.3 1.462 4.276 0 .977-1.65 7.128 3.113 2.927-3.938" stroke-opacity=".082" transform="matrix(1.3 0 0 1.2 -130.9 -28.9)" stroke="#000" stroke-width=".625" fill="none"/><path stroke-linejoin="round" d="M341.64 236.31c3.638-.413 9.753-3.188 11.93-.9 1.874-2.063 8.476.6 12.714.9-3.076 1.875-9.302.6-12.265 2.588-2.89-1.763-9.267-.15-12.38-2.588z" stroke-opacity=".082" fill-rule="evenodd" transform="matrix(1.3 0 0 1.2 -130.9 -28.9)" stroke="#000" stroke-linecap="round" stroke-width=".625" fill="#f0bf00"/><path stroke-linejoin="round" d="M347.5 239.58c5.514 2.25 6.752 1.913 12.716.225-1.238 3.264-4.398 3.95-6.19 3.826-1.857-.12-4.388.114-6.526-4.05z" stroke-opacity=".082" fill-rule="evenodd" transform="matrix(1.3 0 0 1.2 -130.9 -28.9)" stroke="#000" stroke-width=".625" fill="#f0bf00"/><path stroke-linejoin="round" d="M343.17 258.06c-3.977 10.41.38 15.358-1.567 20.964-1.874 5.398-10.025 18.776-3.82 24.59 4.93.227-.853-7.377 9.01-21.456 4.576-6.595-1.195-10.77 3.626-23.707.448-1.106-6.623-2.03-7.25-.39z" stroke-opacity=".149" fill-rule="evenodd" transform="matrix(-.9 -.9 -.9 .9 837 353.2)" stroke="#000" stroke-width=".625" fill="gold"/><path stroke-linejoin="round" d="M343.17 258.06c-3.977 10.41.38 15.358-1.567 20.964-1.874 5.398-10.025 18.776-3.82 24.59 4.93.227-.853-7.377 9.01-21.456 4.576-6.595-1.195-10.77 3.626-23.707.448-1.106-6.623-2.03-7.25-.39z" stroke-opacity=".149" fill-rule="evenodd" transform="matrix(.9 .9 -.9 .9 204.6 -258.7)" stroke="#000" stroke-width=".625" fill="gold"/><path stroke-linejoin="round" d="M343.17 258.06c-3.977 10.41.38 15.358-1.567 20.964-1.874 5.398-10.025 18.776-3.82 24.59 4.93.227-.853-7.377 9.01-21.456 4.576-6.595-1.195-10.77 3.626-23.707.448-1.106-6.623-2.03-7.25-.39z" stroke-opacity=".149" fill-rule="evenodd" transform="matrix(0 -1.2 -1.3 0 601.7 676.9)" stroke="#000" stroke-width=".625" fill="gold"/><path stroke-linejoin="round" d="M342.97 258.16c-1.528 11.683-.62 47.577 3.037 46.14 4.05 1.306 4.583-35.162 4.212-45.945-.053-1.194-7.037-1.938-7.25-.195z" stroke-opacity=".149" fill-rule="evenodd" transform="matrix(-1.2 -.5 -.5 1.1 835.8 164.2)" stroke="#000" stroke-width=".625" fill="gold"/><path stroke-linejoin="round" d="M342.97 258.16c-1.528 11.683-.62 47.577 3.037 46.14 4.05 1.306 4.583-35.162 4.212-45.945-.053-1.194-7.037-1.938-7.25-.195z" stroke-opacity=".149" fill-rule="evenodd" transform="matrix(-.9 -.9 -.9 .9 827.9 348.8)" stroke="#000" stroke-width=".625" fill="gold"/><path stroke-linejoin="round" d="M342.97 258.16c-1.528 11.683-.62 47.577 3.037 46.14 4.05 1.306 4.583-35.162 4.212-45.945-.053-1.194-7.037-1.938-7.25-.195z" stroke-opacity=".149" fill-rule="evenodd" transform="matrix(-.5 -1.1 -1.2 .5 748.1 528.5)" stroke="#000" stroke-width=".625" fill="gold"/><path stroke-linejoin="round" d="M342.97 258.16c-1.528 11.683-.62 47.577 3.037 46.14 4.05 1.306 4.583-35.162 4.212-45.945-.053-1.194-7.037-1.938-7.25-.195z" stroke-opacity=".387" fill-rule="evenodd" transform="matrix(0 -1.2 1.3 0 41.2 668.4)" stroke="#000" stroke-width=".625" fill="gold"/><path stroke-linejoin="round" d="M343.17 258.06c-3.977 10.41.38 15.358-1.567 20.964-1.874 5.398-10.025 18.776-3.82 24.59 4.93.227-.853-7.377 9.01-21.456 4.576-6.595-1.195-10.77 3.626-23.707.448-1.106-6.623-2.03-7.25-.39z" stroke-opacity=".387" fill-rule="evenodd" transform="matrix(-1.3 0 0 1.2 770.7 -28.3)" stroke="#000" stroke-width=".625" fill="gold"/><path stroke-linejoin="round" d="M343.17 258.06c-3.977 10.41.38 15.358-1.567 20.964-1.874 5.398-10.025 18.776-3.82 24.59 4.93.227-.853-7.377 9.01-21.456 4.576-6.595-1.195-10.77 3.626-23.707.448-1.106-6.623-2.03-7.25-.39z" stroke-opacity=".387" fill-rule="evenodd" transform="matrix(.9 -.9 .9 .9 -196.8 353.8)" stroke="#000" stroke-width=".625" fill="gold"/><path stroke-linejoin="round" d="M343.17 258.06c-3.977 10.41.38 15.358-1.567 20.964-1.874 5.398-10.025 18.776-3.82 24.59 4.93.227-.853-7.377 9.01-21.456 4.576-6.595-1.195-10.77 3.626-23.707.448-1.106-6.623-2.03-7.25-.39z" stroke-opacity=".387" fill-rule="evenodd" transform="matrix(-.9 .9 .9 .9 435.6 -258.4)" stroke="#000" stroke-width=".625" fill="gold"/><path stroke-linejoin="round" d="M343.17 258.06c-3.977 10.41.38 15.358-1.567 20.964-1.874 5.398-10.025 18.776-3.82 24.59 4.93.227-.853-7.377 9.01-21.456 4.576-6.595-1.195-10.77 3.626-23.707.448-1.106-6.623-2.03-7.25-.39z" stroke-opacity=".387" fill-rule="evenodd" transform="matrix(0 -1.2 1.3 0 38.1 676.9)" stroke="#000" stroke-width=".625" fill="gold"/><path stroke-linejoin="round" d="M342.97 258.16c-1.528 11.683-.62 47.577 3.037 46.14 4.05 1.306 4.583-35.162 4.212-45.945-.053-1.194-7.037-1.938-7.25-.195z" stroke-opacity=".387" fill-rule="evenodd" transform="matrix(1.2 -.5 .5 1.1 -195.7 164.9)" stroke="#000" stroke-width=".625" fill="gold"/><path stroke-linejoin="round" d="M342.97 258.16c-1.528 11.683-.62 47.577 3.037 46.14 4.05 1.306 4.583-35.162 4.212-45.945-.053-1.194-7.037-1.938-7.25-.195z" stroke-opacity=".387" fill-rule="evenodd" transform="matrix(.9 -.9 .9 .9 -188.6 348.8)" stroke="#000" stroke-width=".625" fill="gold"/><path stroke-linejoin="round" d="M342.97 258.16c-1.528 11.683-.62 47.577 3.037 46.14 4.05 1.306 4.583-35.162 4.212-45.945-.053-1.194-7.037-1.938-7.25-.195z" stroke-opacity=".387" fill-rule="evenodd" transform="matrix(.5 -1.1 1.2 .5 -107.8 528.5)" stroke="#000" stroke-width=".625" fill="gold"/><path stroke-linejoin="round" d="M343.17 258.06c-3.977 10.41.38 15.358-1.567 20.964-1.874 5.398-10.025 18.776-3.82 24.59 4.93.227-.853-7.377 9.01-21.456 4.576-6.595-1.195-10.77 3.626-23.707.448-1.106-6.623-2.03-7.25-.39z" stroke-opacity=".149" fill-rule="evenodd" transform="matrix(.9 -.9 .9 .9 -196.8 353.8)" stroke="#000" stroke-width=".625" fill="gold"/><path stroke-linejoin="round" d="M343.17 258.06c-3.977 10.41.38 15.358-1.567 20.964-1.874 5.398-10.025 18.776-3.82 24.59 4.93.227-.853-7.377 9.01-21.456 4.576-6.595-1.195-10.77 3.626-23.707.448-1.106-6.623-2.03-7.25-.39z" stroke-opacity=".149" fill-rule="evenodd" transform="matrix(-.9 .9 .9 .9 435.6 -258.4)" stroke="#000" stroke-width=".625" fill="gold"/><path stroke-linejoin="round" d="M343.17 258.06c-3.977 10.41.38 15.358-1.567 20.964-1.874 5.398-10.025 18.776-3.82 24.59 4.93.227-.853-7.377 9.01-21.456 4.576-6.595-1.195-10.77 3.626-23.707.448-1.106-6.623-2.03-7.25-.39z" stroke-opacity=".149" fill-rule="evenodd" transform="matrix(0 -1.2 1.3 0 38.1 676.9)" stroke="#000" stroke-width=".625" fill="gold"/><path stroke-linejoin="round" d="M342.97 258.16c-1.528 11.683-.62 47.577 3.037 46.14 4.05 1.306 4.583-35.162 4.212-45.945-.053-1.194-7.037-1.938-7.25-.195z" stroke-opacity=".149" fill-rule="evenodd" transform="matrix(1.2 -.5 .5 1.1 -195.7 164.9)" stroke="#000" stroke-width=".625" fill="gold"/><path stroke-linejoin="round" d="M342.97 258.16c-1.528 11.683-.62 47.577 3.037 46.14 4.05 1.306 4.583-35.162 4.212-45.945-.053-1.194-7.037-1.938-7.25-.195z" stroke-opacity=".149" fill-rule="evenodd" transform="matrix(.9 -.9 .9 .9 -188.6 348.8)" stroke="#000" stroke-width=".625" fill="gold"/><path stroke-linejoin="round" d="M342.97 258.16c-1.528 11.683-.62 47.577 3.037 46.14 4.05 1.306 4.583-35.162 4.212-45.945-.053-1.194-7.037-1.938-7.25-.195z" stroke-opacity=".149" fill-rule="evenodd" transform="matrix(.5 -1.1 1.2 .5 -107.8 528.5)" stroke="#000" stroke-width=".625" fill="gold"/><path stroke-linejoin="round" d="M342.97 258.16c-1.528 11.683-.62 47.577 3.037 46.14 4.05 1.306 4.583-35.162 4.212-45.945-.053-1.194-7.037-1.938-7.25-.195z" stroke-opacity=".387" fill-rule="evenodd" transform="matrix(0 1.2 -1.3 0 598.5 -184.4)" stroke="#000" stroke-width=".625" fill="gold"/><path stroke-linejoin="round" d="M343.17 258.06c-3.977 10.41.38 15.358-1.567 20.964-1.874 5.398-10.025 18.776-3.82 24.59 4.93.227-.853-7.377 9.01-21.456 4.576-6.595-1.195-10.77 3.626-23.707.448-1.106-6.623-2.03-7.25-.39z" stroke-opacity=".387" fill-rule="evenodd" transform="matrix(1.3 0 0 -1.2 -131 512.2)" stroke="#000" stroke-width=".625" fill="gold"/><path stroke-linejoin="round" d="M343.17 258.06c-3.977 10.41.38 15.358-1.567 20.964-1.874 5.398-10.025 18.776-3.82 24.59 4.93.227-.853-7.377 9.01-21.456 4.576-6.595-1.195-10.77 3.626-23.707.448-1.106-6.623-2.03-7.25-.39z" stroke-opacity=".387" fill-rule="evenodd" transform="matrix(-.9 .9 -.9 -.9 836.5 130.1)" stroke="#000" stroke-width=".625" fill="gold"/><path stroke-linejoin="round" d="M343.17 258.06c-3.977 10.41.38 15.358-1.567 20.964-1.874 5.398-10.025 18.776-3.82 24.59 4.93.227-.853-7.377 9.01-21.456 4.576-6.595-1.195-10.77 3.626-23.707.448-1.106-6.623-2.03-7.25-.39z" stroke-opacity=".387" fill-rule="evenodd" transform="matrix(.9 -.9 -.9 -.9 204.1 742.3)" stroke="#000" stroke-width=".625" fill="gold"/><path stroke-linejoin="round" d="M343.17 258.06c-3.977 10.41.38 15.358-1.567 20.964-1.874 5.398-10.025 18.776-3.82 24.59 4.93.227-.853-7.377 9.01-21.456 4.576-6.595-1.195-10.77 3.626-23.707.448-1.106-6.623-2.03-7.25-.39z" stroke-opacity=".387" fill-rule="evenodd" transform="matrix(0 1.2 -1.3 0 601.6 -193)" stroke="#000" stroke-width=".625" fill="gold"/><path stroke-linejoin="round" d="M342.97 258.16c-1.528 11.683-.62 47.577 3.037 46.14 4.05 1.306 4.583-35.162 4.212-45.945-.053-1.194-7.037-1.938-7.25-.195z" stroke-opacity=".387" fill-rule="evenodd" transform="matrix(-1.2 .5 -.5 -1.1 835.4 319.1)" stroke="#000" stroke-width=".625" fill="gold"/><path stroke-linejoin="round" d="M342.97 258.16c-1.528 11.683-.62 47.577 3.037 46.14 4.05 1.306 4.583-35.162 4.212-45.945-.053-1.194-7.037-1.938-7.25-.195z" stroke-opacity=".387" fill-rule="evenodd" transform="matrix(-.9 .9 -.9 -.9 828.3 135.2)" stroke="#000" stroke-width=".625" fill="gold"/><path stroke-linejoin="round" d="M342.97 258.16c-1.528 11.683-.62 47.577 3.037 46.14 4.05 1.306 4.583-35.162 4.212-45.945-.053-1.194-7.037-1.938-7.25-.195z" stroke-opacity=".387" fill-rule="evenodd" transform="matrix(-.5 1.1 -1.2 -.5 747.4 -44.5)" stroke="#000" stroke-width=".625" fill="gold"/><path stroke-linejoin="round" d="M343.17 258.06c-3.977 10.41.38 15.358-1.567 20.964-1.874 5.398-10.025 18.776-3.82 24.59 4.93.227-.853-7.377 9.01-21.456 4.576-6.595-1.195-10.77 3.626-23.707.448-1.106-6.623-2.03-7.25-.39z" stroke-opacity=".149" fill-rule="evenodd" transform="matrix(-.9 .9 -.9 -.9 836.5 130.1)" stroke="#000" stroke-width=".625" fill="gold"/><path stroke-linejoin="round" d="M343.17 258.06c-3.977 10.41.38 15.358-1.567 20.964-1.874 5.398-10.025 18.776-3.82 24.59 4.93.227-.853-7.377 9.01-21.456 4.576-6.595-1.195-10.77 3.626-23.707.448-1.106-6.623-2.03-7.25-.39z" stroke-opacity=".149" fill-rule="evenodd" transform="matrix(.9 -.9 -.9 -.9 204.1 742.3)" stroke="#000" stroke-width=".625" fill="gold"/><path stroke-linejoin="round" d="M343.17 258.06c-3.977 10.41.38 15.358-1.567 20.964-1.874 5.398-10.025 18.776-3.82 24.59 4.93.227-.853-7.377 9.01-21.456 4.576-6.595-1.195-10.77 3.626-23.707.448-1.106-6.623-2.03-7.25-.39z" stroke-opacity=".149" fill-rule="evenodd" transform="matrix(0 1.2 -1.3 0 601.6 -193)" stroke="#000" stroke-width=".625" fill="gold"/><path stroke-linejoin="round" d="M342.97 258.16c-1.528 11.683-.62 47.577 3.037 46.14 4.05 1.306 4.583-35.162 4.212-45.945-.053-1.194-7.037-1.938-7.25-.195z" stroke-opacity=".149" fill-rule="evenodd" transform="matrix(-1.2 .5 -.5 -1.1 835.4 319.1)" stroke="#000" stroke-width=".625" fill="gold"/><path stroke-linejoin="round" d="M342.97 258.16c-1.528 11.683-.62 47.577 3.037 46.14 4.05 1.306 4.583-35.162 4.212-45.945-.053-1.194-7.037-1.938-7.25-.195z" stroke-opacity=".149" fill-rule="evenodd" transform="matrix(-.9 .9 -.9 -.9 828.3 135.2)" stroke="#000" stroke-width=".625" fill="gold"/><path stroke-linejoin="round" d="M342.97 258.16c-1.528 11.683-.62 47.577 3.037 46.14 4.05 1.306 4.583-35.162 4.212-45.945-.053-1.194-7.037-1.938-7.25-.195z" stroke-opacity=".149" fill-rule="evenodd" transform="matrix(-.5 1.1 -1.2 -.5 747.4 -44.5)" stroke="#000" stroke-width=".625" fill="gold"/><path stroke-linejoin="round" d="M342.97 258.16c-1.528 11.683-.62 47.577 3.037 46.14 4.05 1.306 4.583-35.162 4.212-45.945-.053-1.194-7.037-1.938-7.25-.195z" stroke-opacity=".387" fill-rule="evenodd" transform="matrix(-1.3 0 0 -1.2 759.5 512)" stroke="#000" stroke-width=".625" fill="gold"/><path stroke-linejoin="round" d="M343.17 258.06c-3.977 10.41.38 15.358-1.567 20.964-1.874 5.398-10.025 18.776-3.82 24.59 4.93.227-.853-7.377 9.01-21.456 4.576-6.595-1.195-10.77 3.626-23.707.448-1.106-6.623-2.03-7.25-.39z" stroke-opacity=".387" fill-rule="evenodd" transform="matrix(0 1.2 1.3 0 40.6 -194.9)" stroke="#000" stroke-width=".625" fill="gold"/><path stroke-linejoin="round" d="M343.17 258.06c-3.977 10.41.38 15.358-1.567 20.964-1.874 5.398-10.025 18.776-3.82 24.59 4.93.227-.853-7.377 9.01-21.456 4.576-6.595-1.195-10.77 3.626-23.707.448-1.106-6.623-2.03-7.25-.39z" stroke-opacity=".387" fill-rule="evenodd" transform="matrix(-.9 -.9 .9 -.9 434.9 742.7)" stroke="#000" stroke-width=".625" fill="gold"/><path stroke-linejoin="round" d="M343.17 258.06c-3.977 10.41.38 15.358-1.567 20.964-1.874 5.398-10.025 18.776-3.82 24.59 4.93.227-.853-7.377 9.01-21.456 4.576-6.595-1.195-10.77 3.626-23.707.448-1.106-6.623-2.03-7.25-.39z" stroke-opacity=".387" fill-rule="evenodd" transform="matrix(.9 .9 .9 -.9 -196.8 129.8)" stroke="#000" stroke-width=".625" fill="gold"/><path stroke-linejoin="round" d="M343.17 258.06c-3.977 10.41.38 15.358-1.567 20.964-1.874 5.398-10.025 18.776-3.82 24.59 4.93.227-.853-7.377 9.01-21.456 4.576-6.595-1.195-10.77 3.626-23.707.448-1.106-6.623-2.03-7.25-.39z" stroke-opacity=".387" fill-rule="evenodd" transform="matrix(-1.3 0 0 -1.2 768.3 515)" stroke="#000" stroke-width=".625" fill="gold"/><path stroke-linejoin="round" d="M342.97 258.16c-1.528 11.683-.62 47.577 3.037 46.14 4.05 1.306 4.583-35.162 4.212-45.945-.053-1.194-7.037-1.938-7.25-.195z" stroke-opacity=".387" fill-rule="evenodd" transform="matrix(-.5 -1.1 1.2 -.5 239.9 741.5)" stroke="#000" stroke-width=".625" fill="gold"/><path stroke-linejoin="round" d="M342.97 258.16c-1.528 11.683-.62 47.577 3.037 46.14 4.05 1.306 4.583-35.162 4.212-45.945-.053-1.194-7.037-1.938-7.25-.195z" stroke-opacity=".387" fill-rule="evenodd" transform="matrix(-.9 -.9 .9 -.9 429.7 734.7)" stroke="#000" stroke-width=".625" fill="gold"/><path stroke-linejoin="round" d="M342.97 258.16c-1.528 11.683-.62 47.577 3.037 46.14 4.05 1.306 4.583-35.162 4.212-45.945-.053-1.194-7.037-1.938-7.25-.195z" stroke-opacity=".387" fill-rule="evenodd" transform="matrix(-1.2 -.5 .5 -1.1 615.2 656.3)" stroke="#000" stroke-width=".625" fill="gold"/><path stroke-linejoin="round" d="M343.17 258.06c-3.977 10.41.38 15.358-1.567 20.964-1.874 5.398-10.025 18.776-3.82 24.59 4.93.227-.853-7.377 9.01-21.456 4.576-6.595-1.195-10.77 3.626-23.707.448-1.106-6.623-2.03-7.25-.39z" stroke-opacity=".149" fill-rule="evenodd" transform="matrix(-.9 -.9 .9 -.9 434.9 742.7)" stroke="#000" stroke-width=".625" fill="gold"/><path stroke-linejoin="round" d="M343.17 258.06c-3.977 10.41.38 15.358-1.567 20.964-1.874 5.398-10.025 18.776-3.82 24.59 4.93.227-.853-7.377 9.01-21.456 4.576-6.595-1.195-10.77 3.626-23.707.448-1.106-6.623-2.03-7.25-.39z" stroke-opacity=".149" fill-rule="evenodd" transform="matrix(.9 .9 .9 -.9 -196.8 129.8)" stroke="#000" stroke-width=".625" fill="gold"/><path stroke-linejoin="round" d="M343.17 258.06c-3.977 10.41.38 15.358-1.567 20.964-1.874 5.398-10.025 18.776-3.82 24.59 4.93.227-.853-7.377 9.01-21.456 4.576-6.595-1.195-10.77 3.626-23.707.448-1.106-6.623-2.03-7.25-.39z" stroke-opacity=".149" fill-rule="evenodd" transform="matrix(-1.3 0 0 -1.2 768.3 515)" stroke="#000" stroke-width=".625" fill="gold"/><path stroke-linejoin="round" d="M342.97 258.16c-1.528 11.683-.62 47.577 3.037 46.14 4.05 1.306 4.583-35.162 4.212-45.945-.053-1.194-7.037-1.938-7.25-.195z" stroke-opacity=".149" fill-rule="evenodd" transform="matrix(-.5 -1.1 1.2 -.5 239.9 741.5)" stroke="#000" stroke-width=".625" fill="gold"/><path stroke-linejoin="round" d="M342.97 258.16c-1.528 11.683-.62 47.577 3.037 46.14 4.05 1.306 4.583-35.162 4.212-45.945-.053-1.194-7.037-1.938-7.25-.195z" stroke-opacity=".149" fill-rule="evenodd" transform="matrix(-.9 -.9 .9 -.9 429.7 734.7)" stroke="#000" stroke-width=".625" fill="gold"/><path stroke-linejoin="round" d="M342.97 258.16c-1.528 11.683-.62 47.577 3.037 46.14 4.05 1.306 4.583-35.162 4.212-45.945-.053-1.194-7.037-1.938-7.25-.195z" stroke-opacity=".149" fill-rule="evenodd" transform="matrix(-1.2 -.5 .5 -1.1 615.2 656.3)" stroke="#000" stroke-width=".625" fill="gold"/><path d="M328.14 202.55h-3.15" stroke-opacity=".171" transform="matrix(1.3 0 0 1.2 -130.2 -28)" stroke="#000" stroke-width="1pt" fill="none"/><path d="M328.14 202.55h-3.15" stroke-opacity=".171" transform="matrix(1.3 0 0 1.2 -131.2 -25.5)" stroke="#000" stroke-width="1pt" fill="none"/><path d="M328.14 202.55h-3.15" stroke-opacity=".171" transform="matrix(1.4 0 0 1.2 -176.3 -23.1)" stroke="#000" stroke-width="1pt" fill="none"/><path d="M328.14 202.55h-3.15" stroke-opacity=".171" transform="matrix(1.4 0 0 1.2 -177.6 -20.9)" stroke="#000" stroke-width="1pt" fill="none"/><path d="M328.14 202.55h-3.15" stroke-opacity=".171" transform="matrix(1.7 0 0 1.2 -267.2 -18.5)" stroke="#000" stroke-width="1pt" fill="none"/><path d="M328.14 202.55h-3.15" stroke-opacity=".171" transform="matrix(1.9 0 0 1.2 -326.6 -16.2)" stroke="#000" stroke-width="1pt" fill="none"/><path d="M328.14 202.55h-3.15" stroke-opacity=".171" transform="matrix(1.8 0 0 1.2 -297.7 -13.6)" stroke="#000" stroke-width="1pt" fill="none"/><path d="M328.14 202.55h-3.15" stroke-opacity=".171" transform="matrix(1.7 0 0 1.2 -282.5 -10.9)" stroke="#000" stroke-width="1pt" fill="none"/><path d="M328.14 202.55h-3.15" stroke-opacity=".171" transform="matrix(1.8 0 0 1.2 -297.4 -8.4)" stroke="#000" stroke-width="1pt" fill="none"/><path d="M328.14 202.55h-3.15" stroke-opacity=".171" transform="matrix(2.2 0 0 1.2 -444.8 -5.5)" stroke="#000" stroke-width="1pt" fill="none"/><path d="M328.14 202.55h-3.15" stroke-opacity=".171" transform="matrix(1.9 0 0 1.2 -341.2 -2.2)" stroke="#000" stroke-width="1pt" fill="none"/><path d="M328.14 202.55h-3.15" stroke-opacity=".078" transform="matrix(1.9 0 0 1.2 -341 .2)" stroke="#000" stroke-width="1pt" fill="none"/><path d="M328.14 202.55h-3.15" stroke-opacity=".078" transform="matrix(1.9 0 0 1.2 -340 3.3)" stroke="#000" stroke-width="1pt" fill="none"/><path d="M328.14 202.55h-3.15" stroke-opacity=".078" transform="matrix(1.9 0 0 1.2 -339.9 6.1)" stroke="#000" stroke-width="1pt" fill="none"/><path d="M328.14 202.55h-3.15" stroke-opacity=".078" transform="matrix(1.9 0 0 1.2 -338.2 9.2)" stroke="#000" stroke-width="1pt" fill="none"/><path d="M328.14 202.55h-3.15" stroke-opacity=".078" transform="matrix(1.9 0 0 1.2 -336.5 11.7)" stroke="#000" stroke-width="1pt" fill="none"/><path d="M328.14 202.55h-3.15" stroke-opacity=".078" transform="matrix(1.9 0 0 1.2 -334.9 14.6)" stroke="#000" stroke-width="1pt" fill="none"/><path d="M328.14 202.55h-3.15" stroke-opacity=".078" transform="matrix(1.9 0 0 1.2 -333 17.3)" stroke="#000" stroke-width="1pt" fill="none"/><path d="M328.14 202.55h-3.15" stroke-opacity=".078" transform="matrix(1.9 0 0 1.2 -331.8 20)" stroke="#000" stroke-width="1pt" fill="none"/><path d="M328.14 202.55h-3.15" stroke-opacity=".078" transform="matrix(1.9 0 0 1.2 -329 23.2)" stroke="#000" stroke-width="1pt" fill="none"/><path d="M328.14 202.55h-3.15" stroke-opacity=".078" transform="matrix(1.2 0 0 1.2 -104.6 26.1)" stroke="#000" stroke-width="1pt" fill="none"/><path d="M328.14 202.55h-3.15" stroke-opacity=".078" transform="matrix(1.9 0 0 1.2 -341 .2)" stroke="#000" stroke-width="1pt" fill="none"/><path d="M328.14 202.55h-3.15" stroke-opacity=".078" transform="matrix(1.9 0 0 1.2 -340 3.3)" stroke="#000" stroke-width="1pt" fill="none"/><path d="M328.14 202.55h-3.15" stroke-opacity=".078" transform="matrix(1.9 0 0 1.2 -339.9 6.1)" stroke="#000" stroke-width="1pt" fill="none"/><path d="M328.14 202.55h-3.15" stroke-opacity=".078" transform="matrix(1.9 0 0 1.2 -338.2 9.2)" stroke="#000" stroke-width="1pt" fill="none"/><path d="M328.14 202.55h-3.15" stroke-opacity=".078" transform="matrix(1.9 0 0 1.2 -336.5 11.7)" stroke="#000" stroke-width="1pt" fill="none"/><path d="M328.14 202.55h-3.15" stroke-opacity=".078" transform="matrix(1.9 0 0 1.2 -334.9 14.6)" stroke="#000" stroke-width="1pt" fill="none"/><path d="M328.14 202.55h-3.15" stroke-opacity=".078" transform="matrix(1.9 0 0 1.2 -333 17.3)" stroke="#000" stroke-width="1pt" fill="none"/><path d="M328.14 202.55h-3.15" stroke-opacity=".078" transform="matrix(1.9 0 0 1.2 -331.8 20)" stroke="#000" stroke-width="1pt" fill="none"/><path d="M328.14 202.55h-3.15" stroke-opacity=".078" transform="matrix(1.9 0 0 1.2 -329 23.2)" stroke="#000" stroke-width="1pt" fill="none"/><path d="M328.14 202.55h-3.15" stroke-opacity=".078" transform="matrix(1.2 0 0 1.2 -104 25.8)" stroke="#000" stroke-width="1pt" fill="none"/><path d="M328.14 202.55h-3.15" stroke-opacity=".134" fill-rule="evenodd" fill-opacity=".867" transform="matrix(-1.3 0 0 1.2 769.7 -28.6)" stroke="#000" stroke-width="1pt" fill="#00699d"/><path d="M328.14 202.55h-3.15" stroke-opacity=".134" fill-rule="evenodd" fill-opacity=".867" transform="matrix(-1.3 0 0 1.2 770.7 -26.1)" stroke="#000" stroke-width="1pt" fill="#00699d"/><path d="M328.14 202.55h-3.15" stroke-opacity=".134" fill-rule="evenodd" fill-opacity=".867" transform="matrix(-1.4 0 0 1.2 815.8 -23.7)" stroke="#000" stroke-width="1pt" fill="#00699d"/><path d="M328.14 202.55h-3.15" stroke-opacity=".134" fill-rule="evenodd" fill-opacity=".867" transform="matrix(-1.4 0 0 1.2 817.1 -21.5)" stroke="#000" stroke-width="1pt" fill="#00699d"/><path d="M328.14 202.55h-3.15" stroke-opacity=".134" fill-rule="evenodd" fill-opacity=".867" transform="matrix(-1.7 0 0 1.2 906.7 -19.2)" stroke="#000" stroke-width="1pt" fill="#00699d"/><path d="M328.14 202.55h-3.15" stroke-opacity=".134" fill-rule="evenodd" fill-opacity=".867" transform="matrix(-1.9 0 0 1.2 966.1 -16.8)" stroke="#000" stroke-width="1pt" fill="#00699d"/><path d="M328.14 202.55h-3.15" stroke-opacity=".134" fill-rule="evenodd" fill-opacity=".867" transform="matrix(-1.8 0 0 1.2 937.2 -14.2)" stroke="#000" stroke-width="1pt" fill="#00699d"/><path d="M328.14 202.55h-3.15" stroke-opacity=".134" fill-rule="evenodd" fill-opacity=".867" transform="matrix(-1.7 0 0 1.2 922 -11.6)" stroke="#000" stroke-width="1pt" fill="#00699d"/><path d="M328.14 202.55h-3.15" stroke-opacity=".134" fill-rule="evenodd" fill-opacity=".867" transform="matrix(-1.8 0 0 1.2 936.9 -9.1)" stroke="#000" stroke-width="1pt" fill="#00699d"/><path d="M328.14 202.55h-3.15" stroke-opacity=".134" fill-rule="evenodd" fill-opacity=".867" transform="matrix(-2.2 0 0 1.2 1084.3 -6.2)" stroke="#000" stroke-width="1pt" fill="#00699d"/><path d="M328.14 202.55h-3.15" stroke-opacity=".134" fill-rule="evenodd" fill-opacity=".867" transform="matrix(-1.9 0 0 1.2 980.7 -2.8)" stroke="#000" stroke-width="1pt" fill="#00699d"/><path d="M328.14 202.55h-3.15" stroke-opacity=".063" fill-rule="evenodd" fill-opacity=".867" transform="matrix(-1.9 0 0 1.2 980.5 -.5)" stroke="#000" stroke-width="1pt" fill="#00699d"/><path d="M328.14 202.55h-3.15" stroke-opacity=".063" fill-rule="evenodd" fill-opacity=".867" transform="matrix(-1.9 0 0 1.2 979.5 2.7)" stroke="#000" stroke-width="1pt" fill="#00699d"/><path d="M328.14 202.55h-3.15" stroke-opacity=".063" fill-rule="evenodd" fill-opacity=".867" transform="matrix(-1.9 0 0 1.2 979.4 5.5)" stroke="#000" stroke-width="1pt" fill="#00699d"/><path d="M328.14 202.55h-3.15" stroke-opacity=".063" fill-rule="evenodd" fill-opacity=".867" transform="matrix(-1.9 0 0 1.2 977.7 8.5)" stroke="#000" stroke-width="1pt" fill="#00699d"/><path d="M328.14 202.55h-3.15" stroke-opacity=".063" fill-rule="evenodd" fill-opacity=".867" transform="matrix(-1.9 0 0 1.2 976 11)" stroke="#000" stroke-width="1pt" fill="#00699d"/><path d="M328.14 202.55h-3.15" stroke-opacity=".063" fill-rule="evenodd" fill-opacity=".867" transform="matrix(-1.9 0 0 1.2 974.4 13.9)" stroke="#000" stroke-width="1pt" fill="#00699d"/><path d="M328.14 202.55h-3.15" stroke-opacity=".063" fill-rule="evenodd" fill-opacity=".867" transform="matrix(-1.9 0 0 1.2 972.5 16.7)" stroke="#000" stroke-width="1pt" fill="#00699d"/><path d="M328.14 202.55h-3.15" stroke-opacity=".063" fill-rule="evenodd" fill-opacity=".867" transform="matrix(-1.9 0 0 1.2 971.3 19.3)" stroke="#000" stroke-width="1pt" fill="#00699d"/><path d="M328.14 202.55h-3.15" stroke-opacity=".063" fill-rule="evenodd" fill-opacity=".867" transform="matrix(-1.9 0 0 1.2 968.5 22.5)" stroke="#000" stroke-width="1pt" fill="#00699d"/><path d="M328.14 202.55h-3.15" stroke-opacity=".063" fill-rule="evenodd" fill-opacity=".867" transform="matrix(-1.2 0 0 1.2 744.1 25.4)" stroke="#000" stroke-width="1pt" fill="#00699d"/><path d="M328.14 202.55h-3.15" stroke-opacity=".063" transform="matrix(-1.9 0 0 1.2 980.5 -.5)" stroke="#000" stroke-width="1pt" fill="none"/><path d="M328.14 202.55h-3.15" stroke-opacity=".063" transform="matrix(-1.9 0 0 1.2 979.5 2.7)" stroke="#000" stroke-width="1pt" fill="none"/><path d="M328.14 202.55h-3.15" stroke-opacity=".063" transform="matrix(-1.9 0 0 1.2 979.4 5.5)" stroke="#000" stroke-width="1pt" fill="none"/><path d="M328.14 202.55h-3.15" stroke-opacity=".063" transform="matrix(-1.9 0 0 1.2 977.7 8.5)" stroke="#000" stroke-width="1pt" fill="none"/><path d="M328.14 202.55h-3.15" stroke-opacity=".063" transform="matrix(-1.9 0 0 1.2 976 11)" stroke="#000" stroke-width="1pt" fill="none"/><path d="M328.14 202.55h-3.15" stroke-opacity=".063" transform="matrix(-1.9 0 0 1.2 974.4 13.9)" stroke="#000" stroke-width="1pt" fill="none"/><path d="M328.14 202.55h-3.15" stroke-opacity=".063" transform="matrix(-1.9 0 0 1.2 972.5 16.7)" stroke="#000" stroke-width="1pt" fill="none"/><path d="M328.14 202.55h-3.15" stroke-opacity=".063" transform="matrix(-1.9 0 0 1.2 971.3 19.3)" stroke="#000" stroke-width="1pt" fill="none"/><path d="M328.14 202.55h-3.15" stroke-opacity=".063" transform="matrix(-1.9 0 0 1.2 968.5 22.5)" stroke="#000" stroke-width="1pt" fill="none"/><path d="M328.14 202.55h-3.15" stroke-opacity=".063" transform="matrix(-1.2 0 0 1.2 744.1 25.4)" stroke="#000" stroke-width="1pt" fill="none"/><path stroke-linejoin="round" d="M330.84 211.83c7.525-4.83 17.464-2.31 21.63.315-6.09-1.155-6.196-1.68-10.606-1.785-3.115.106-7.7-.21-11.024 1.47z" stroke-opacity=".387" fill-rule="evenodd" transform="matrix(-1.3 0 0 1.2 770.3 -29.2)" stroke="#000" stroke-width=".625" fill="#f0bf00"/><path d="M348.06 211.3c-3.675 7.665-10.08 7.77-14.594-.42" stroke-opacity=".387" transform="matrix(1.3 0 0 1.2 -97.7 -29.5)" stroke="#000" stroke-width=".625" fill="none"/><path d="M341.925 233.537c-1.43 1.45-4.93 2.31-7.815 1.924s-4.067-1.874-2.637-3.324c1.43-1.45 4.928-2.31 7.815-1.924s4.067 1.876 2.637 3.325z" fill-rule="evenodd" fill-opacity=".368"/><path d="M335.073 231.518c.142.352-.298.82-.985 1.045s-1.358.12-1.5-.232c-.144-.35.297-.82.983-1.044s1.36-.12 1.503.232z" fill-rule="evenodd" fill="gold"/></svg>