<svg xmlns="http://www.w3.org/2000/svg" height="480" width="640"><defs><clipPath id="a"><path fill-opacity=".67" d="M0 0h640v480H0z"/></clipPath></defs><g clip-path="url(#a)"><path fill-rule="evenodd" fill="#c60000" d="M-40 0h720v480H-40z"/><path fill-rule="evenodd" fill="#003bb2" d="M-40 68.57h720v342.86H-40z"/><path d="M456.81 239.737c0 75.654-61.33 136.98-136.98 136.98-75.655 0-136.982-61.33-136.982-136.98 0-75.653 61.33-136.98 136.98-136.98 75.655 0 136.98 61.33 136.98 136.98z" fill-rule="evenodd" fill="#fff"/><g stroke="#000" fill-rule="evenodd"><path d="M0 318.04c6.927 1.02 14.39 1.206 23.312 0 7.405 1.994 12.863 5.647 18.317 8.326 3.056 5.665 7.338 14 11.655 18.316 1.874 6.872 4.64 9.755 8.326 16.652.92 6.795 3.183 13.617 0 19.98-3.795 4.746-9.757 7.516-14.985 9.992-6.902 3.688-10.937 5.046-19.982 6.66-7.444 1.33-15.03 1.666-23.312 1.666-8.012-1.43-14.19-2.757-21.646-3.33-7.414-1.324-15.898-2.007-23.312-3.33-4.813-2.816-11.026-5.127-16.65-6.66-3.908-3.726-9.56-7.954-14.987-11.657-4.19-7.502-8.004-10.206-11.656-16.652-3.318-4.876-4.892-11.17-4.997-19.98 2.625-5.345 6.96-10.53 9.99-14.987 5.198-3.433 11.073-7.99 18.317-11.656 9.784-.346 13.604-3.214 23.312-3.33h24.977c5.65.565 8.44 5.583 13.32 9.99z" transform="matrix(.199 0 0 .17 344.942 141.495)" stroke-width="3.75" fill="#030"/><path d="M273.08 659.39c-6.66-38.298-16.652-133.21-16.652-174.84 1.665-31.64 121.56-139.87 124.89-151.53 3.33-11.656 64.94-99.91 74.93-126.55-24.976 18.316-66.605 98.243-74.93 106.57-8.326 8.326 18.316-83.257 9.99-111.56-8.325 33.303-21.646 118.22-31.637 126.55-4.994 4.996-91.582 104.9-101.57 101.57-9.99-3.33-36.632-19.98-31.636-29.972 4.995-9.99 71.6-71.6 74.93-93.248s8.327-73.266 14.987-78.26c6.662-4.997 16.653-29.974 24.978-49.956-21.646 9.99-24.977 39.964-33.302 41.63-8.326 1.664-28.308-33.304-28.308-33.304s13.32 38.298 14.986 46.624c1.666 8.326-6.66 63.275-11.656 69.936-4.995 6.66-41.628 53.284-48.29 54.95-6.66 1.665-24.976-76.597-24.976-91.583s13.32-73.266 0-76.597c-8.326 0-9.99 68.27-14.986 68.27s-16.652-68.27-16.652-68.27-6.66 31.638-3.33 53.284c-9.99 1.666-36.633-39.962-36.633-39.962s49.955 86.587 59.947 89.917c9.99 4.994 19.98 68.27 18.316 71.6s-49.954-16.65-59.945-23.312c-9.99-6.66-29.973-79.927-29.973-79.927s9.99 71.602-1.665 61.612c-11.656-9.99-29.972-18.317-39.963-33.303-9.99-14.987-4.995-76.598-4.995-76.598s-16.65 54.95-23.312 54.95c-6.66 0-28.307-73.266-28.307-73.266s3.33 79.927 13.32 84.922c9.99 4.995 159.85 104.9 161.52 114.9 1.666 9.99 19.983 48.288 29.974 59.944-1.666 21.647 6.66 161.52 9.99 194.82l29.973 9.99z" transform="matrix(.199 0 0 .17 278.669 126.209)" stroke-width="1pt" fill="#520900"/><path d="M-338.02 133.21c1.85 6.416 2.528 12.146 11.656 14.986 5.054 1.925 15.007 4.53 19.982 6.66 5.242 2.484 11.14 5.594 18.316 6.66 5.394 1.8 14.58 3.65 21.647 4.997 7.444 1.33 15.03 1.665 23.313 1.665 9.557-1.707 13.81-3.43 19.98-8.326 1.852-6.786 4.344-9.832 4.997-18.317.567-7.944 1.665-14.82 1.665-23.31-1.54-4.624-1.79-15.36-3.33-19.983-5.577-5.466-7.05-8.65-16.652-11.656-7.476-3.382-14.307-3.33-23.312-3.33-6.96 2.32-15.343 1.665-23.31 1.665h-23.312c-6.973 1.517-12.292 2.763-18.317 6.66-8.132 3.674-9.337 6.318-13.32 14.988-2.934 8.8-3.036 15.415 0 26.642z" transform="matrix(.199 0 0 .17 342.954 135.833)" stroke-width="3.75" fill="#030"/><path d="M-329.7 191.49c0-2.78-6.02 2.69-8.326 4.995-5.392 3.774-7.647 8.815-8.326 18.317-2.502 5.19 0 13.714 0 21.646 0 9.18.062 15.585 4.996 19.982 5.598 3.445 8.29 4.995 18.316 4.995h46.624c5.896-1.965 13.09-2.953 19.982-4.995 7.705-4.085 13.07-4.517 21.646-6.66 4.883-4.238 11.635-8.6 19.982-9.99 9.547-.456 15.257-3.79 21.647-8.327 8.217-2.054 15.636-6.365 21.648-9.99 4.837-3.29 8.31-7.416 11.656-13.322 3.396-7.924 4.482-12.894-1.665-21.646-12.144-4.415-6.11-9.19-14.988-13.32-4.062-2.454-13.524-5.674-18.316-8.327-8.293.615-14.192 2.68-23.312 3.33-4.71 2.356-14.368 1.666-21.647 1.666h-26.642c-7.968 0-16.35-.656-23.312 1.665-6.667 1.818-9.985 4.842-16.65 6.66-4.394 2.987-11.508 5.41-16.653 8.326l16.652-8.326c-4.393 2.987-11.507 5.41-23.312 13.322z" transform="matrix(.199 0 0 .17 341.96 137.532)" stroke-width="3.75" fill="#030"/><path d="M-186.5 49.95c3.314 0-5.2 3.98-8.326 6.66-4.01 7.063-4.474 13.422-6.66 19.98-2.566 5.773-5.727 13.067-6.66 19.983-3.14 7.494-4.88 10.226-4.997 19.982 0 7.677-.09 16.38 1.665 21.646 5.05 6.363 9.9 9.977 18.317 14.987 7.206 2.495 12.49 3.984 19.98 4.996h23.313c5.267 1.756 13.97 1.665 21.646 1.665 8.492-3.172 11.708-7.208 19.98-8.326 9.116-.828 10.688-4.642 14.987-11.656 3.998-5.168 5.674-11.013 6.66-18.316 0-8.4-.75-15.628-1.665-23.312-4.006-4.494-7.052-10.696-9.99-18.316-5.146-8.82-5.152-12.74-13.32-16.65-3.977-5.43-10.85-8.07-14.988-11.657-8.65-.618-15.218-1.694-21.646-4.995-7.678 0-16.38-.09-21.647 1.665-6.03 0-10.446.57-16.65 1.665z" transform="matrix(.199 0 0 .145 343.617 140.962)" stroke-width="3.75" fill="#030"/><path d="M-58.28 64.935c-.987 0-4.077 4.824-6.66 9.99-4.344 6.916-4.925 13.316-8.326 18.317-1.33 7.443-1.665 15.028-1.665 23.312.754 8.314 3.195 11.323 8.324 14.987 7.713 4.38 11.367 6.412 19.982 8.326 7.447.573 12.8 1.665 21.647 1.665 7.968 0 16.35.657 23.312-1.664 8.283 0 15.87-.336 23.312-1.665 3.823-3.24 12.04-6.14 16.65-8.324 5.483-6.642 8.107-13.245 11.657-18.317 0-9.823.078-15.565-4.995-23.313-3.622-6.388-7.962-9.32-13.323-14.986-6.718-2.336-12.38-7.195-19.982-8.325H-58.28z" transform="matrix(.199 0 0 .17 342.291 135.267)" stroke-width="3.75" fill="#030"/><path d="M76.596 76.59c-6.286 2.62-8.59 3.3-11.656 9.992-4.62 7.115-7.342 10.462-11.656 14.986-.99 6.664-3.643 13.88-6.66 18.317-.915 7.684-1.666 14.913-1.666 23.312 4.222 6.486 10.085 12.603 16.65 16.65 6.792 2.352 13.95 5.933 19.983 8.327 7.767 2.033 14.952 4.398 23.313 4.995 7.217 1.804 15.164 1.664 23.312 1.664 7.404-1.61 13.75-3.478 19.98-8.325 3.334-5.197 7.157-11.046 8.327-19.983 2.754-8.263.54-19.06-3.33-26.642-2.04-7.477-5.016-10.373-13.32-14.987-4.596-4.854-10.703-10.322-14.988-13.32-5.28-4.585-12.142-5.154-19.98-8.327-8.493-1.886-11.338-4.33-19.983-4.994l19.983 4.995c-8.488-1.885-11.333-4.33-28.304-6.66z" transform="matrix(.199 0 0 .17 340.303 141.778)" stroke-width="3.75" fill="#030"/><path d="M-51.62 146.53c-7.617 3.463-11.16 7.635-16.65 13.32 0 8.847 1.092 14.2 1.665 21.648 3.466 4.734 7.144 14.25 9.99 18.316 2.173 6.812 6.922 12.137 9.992 16.652 7.69 3.112 15.495 5.44 23.312 8.325 9.197 0 15.097 2.06 23.31 3.332 6.963 2.32 15.345 1.665 23.313 1.665 8.147 0 16.094-.14 23.312 1.665 7.703 1.37 13.396 4.36 21.647 4.995 4.74-.45 13.136-1.138 19.982-1.665 7.667-3.485 10.982-5.707 14.987-11.656 3.753-4.542 3.33-11.267 3.33-19.98 1.603-8.973 2.093-15.008-1.664-23.313-.108-8.96-1.817-13.172-3.33-21.647-3.006-6.01-5.647-8.65-11.657-11.656-5.465-3.808-12.864-5.998-18.317-9.99-7.433-.886-15.76-2.05-21.647-3.33-6.51-4.342-11.933-6.546-21.647-6.662-9.515-1.132-13.997-2.263-21.648 1.665-7.99.57-15.15 2.17-19.982 4.996-6.144.47-15.283.98-19.982 3.33-7.414 0-9.987 1.287-16.65 1.664l16.65-1.665c-7.414 0-9.987 1.287-18.316 9.99z" transform="matrix(.252 0 0 .132 337.605 146.862)" stroke-width="3.75" fill="#030"/><path d="M-123.22 278.07c-4.3-.632-17.278-1.665-26.642-1.665-8.747 0-15.86.58-23.312 3.33-7.975 1.537-13.883 4.047-19.982 6.66-5.053 2.394-10.953 4.83-14.986 8.326-4.955 3.37-9.13 6.336-13.32 13.322-4.477 6.422-4.945 10.56-8.327 18.317v23.31c.588 7.634 1.64 14.23 4.996 21.648 5.022 4.017 11.977 5.282 18.317 6.66 6.03 1.31 13.875 2.775 21.647 3.33 9.24 0 14.16.466 21.646 3.33 9.747-.36 11.606-2.627 19.982-6.66 9.314-3.692 14.86-5.06 23.312-9.99 5.173-4.08 8.578-10.985 11.656-18.317 4.69-7.574 7.91-14.885 11.656-21.646 1.804-7.218 1.665-15.164 1.665-23.312-2.22-6.258-5.752-8.905-9.99-14.986-4.617-5.05-6.673-8.946-9.992-13.32l9.99 13.32c-4.615-5.05-6.67-8.946-18.315-11.656z" transform="matrix(.199 0 0 .17 343.948 138.664)" stroke-width="3.75" fill="#030"/><path d="M0 318.04c6.927 1.02 14.39 1.206 23.312 0 7.405 1.994 12.863 5.647 18.317 8.326 3.056 5.665 7.338 14 11.655 18.316 1.874 6.872 4.64 9.755 8.326 16.652.92 6.795 3.183 13.617 0 19.98-3.795 4.746-9.757 7.516-14.985 9.992-6.902 3.688-10.937 5.046-19.982 6.66-7.444 1.33-15.03 1.666-23.312 1.666-8.012-1.43-14.19-2.757-21.646-3.33-7.414-1.324-15.898-2.007-23.312-3.33-4.813-2.816-11.026-5.127-16.65-6.66-3.908-3.726-9.56-7.954-14.987-11.657-4.19-7.502-8.004-10.206-11.656-16.652-3.318-4.876-4.892-11.17-4.997-19.98 2.625-5.345 6.96-10.53 9.99-14.987 5.198-3.433 11.073-7.99 18.317-11.656 9.784-.346 13.604-3.214 23.312-3.33h24.977c5.65.565 8.44 5.583 13.32 9.99z" transform="matrix(.255 0 0 .142 350.331 136.476)" stroke-width="3.75" fill="#030"/></g><g fill-rule="evenodd" stroke="#000" stroke-width="3.711" fill="#006a00"><path d="M200.16 613.18l4.71-7.064-12.952-2.355 9.42-9.418-12.952-4.71 12.952-9.42-12.952-7.064 14.13-5.887-7.065-11.773 14.13 2.355-5.887-14.13 16.484 7.065v-18.84l11.774 12.953 9.42-16.484 7.065 15.306 14.13-16.484 4.71 12.952 21.192-10.597-5.887 16.484 22.37-9.42-4.71 18.84 21.195-9.42-8.242 17.662 21.194 1.176-17.662 10.597 17.662 7.064-16.484 9.42 14.13 11.774c-45.136 20.802-79.674 27.474-131.87 9.42z" transform="matrix(.164 -.012 .008 .152 293.963 194.255)"/><path d="M200.16 613.18l4.71-7.064-12.952-2.355 9.42-9.418-12.952-4.71 12.952-9.42-12.952-7.064 14.13-5.887-7.065-11.773 14.13 2.355-5.887-14.13 16.484 7.065v-18.84l11.774 12.953 9.42-16.484 7.065 15.306 14.13-16.484 4.71 12.952 21.192-10.597-5.887 16.484 22.37-9.42-4.71 18.84 21.195-9.42-8.242 17.662 21.194 1.176-17.662 10.597 17.662 7.064-16.484 9.42 14.13 11.774c-45.136 20.802-79.674 27.474-131.87 9.42z" transform="matrix(.164 -.012 .008 .152 255.036 193.122)"/><path d="M200.16 613.18l4.71-7.064-12.952-2.355 9.42-9.418-12.952-4.71 12.952-9.42-12.952-7.064 14.13-5.887-7.065-11.773 14.13 2.355-5.887-14.13 16.484 7.065v-18.84l11.774 12.953 9.42-16.484 7.065 15.306 14.13-16.484 4.71 12.952 21.192-10.597-5.887 16.484 22.37-9.42-4.71 18.84 21.195-9.42-8.242 17.662 21.194 1.176-17.662 10.597 17.662 7.064-16.484 9.42 14.13 11.774c-45.136 20.802-79.674 27.474-131.87 9.42z" transform="matrix(.164 -.012 .008 .152 315.59 193.687)"/><path d="M200.16 613.18l4.71-7.064-12.952-2.355 9.42-9.418-12.952-4.71 12.952-9.42-12.952-7.064 14.13-5.887-7.065-11.773 14.13 2.355-5.887-14.13 16.484 7.065v-18.84l11.774 12.953 9.42-16.484 7.065 15.306 14.13-16.484 4.71 12.952 21.192-10.597-5.887 16.484 22.37-9.42-4.71 18.84 21.195-9.42-8.242 17.662 21.194 1.176-17.662 10.597 17.662 7.064-16.484 9.42 14.13 11.774c-45.136 20.802-79.674 27.474-131.87 9.42z" transform="matrix(.16 -.047 .031 .148 288.71 212.446)"/><path d="M200.16 613.18l4.71-7.064-12.952-2.355 9.42-9.418-12.952-4.71 12.952-9.42-12.952-7.064 14.13-5.887-7.065-11.773 14.13 2.355-5.887-14.13 16.484 7.065v-18.84l11.774 12.953 9.42-16.484 7.065 15.306 14.13-16.484 4.71 12.952 21.192-10.597-5.887 16.484 22.37-9.42-4.71 18.84 21.195-9.42-8.242 17.662 21.194 1.176-17.662 10.597 17.662 7.064-16.484 9.42 14.13 11.774c-45.136 20.802-79.674 27.474-131.87 9.42z" transform="matrix(.164 -.012 .008 .152 330.009 202.751)"/><path d="M200.16 613.18l4.71-7.064-12.952-2.355 9.42-9.418-12.952-4.71 12.952-9.42-12.952-7.064 14.13-5.887-7.065-11.773 14.13 2.355-5.887-14.13 16.484 7.065v-18.84l11.774 12.953 9.42-16.484 7.065 15.306 14.13-16.484 4.71 12.952 21.192-10.597-5.887 16.484 22.37-9.42-4.71 18.84 21.195-9.42-8.242 17.662 21.194 1.176-17.662 10.597 17.662 7.064-16.484 9.42 14.13 11.774c-45.136 20.802-79.674 27.474-131.87 9.42z" transform="matrix(.164 -.012 .008 .152 313.67 204.453)"/><path d="M200.16 613.18l4.71-7.064-12.952-2.355 9.42-9.418-12.952-4.71 12.952-9.42-12.952-7.064 14.13-5.887-7.065-11.773 14.13 2.355-5.887-14.13 16.484 7.065v-18.84l11.774 12.953 9.42-16.484 7.065 15.306 14.13-16.484 4.71 12.952 21.192-10.597-5.887 16.484 22.37-9.42-4.71 18.84 21.195-9.42-8.242 17.662 21.194 1.176-17.662 10.597 17.662 7.064-16.484 9.42 14.13 11.774c-45.136 20.802-79.674 27.474-131.87 9.42z" transform="matrix(.164 -.012 .008 .152 238.696 193.122)"/><path d="M200.16 613.18l4.71-7.064-12.952-2.355 9.42-9.418-12.952-4.71 12.952-9.42-12.952-7.064 14.13-5.887-7.065-11.773 14.13 2.355-5.887-14.13 16.484 7.065v-18.84l11.774 12.953 9.42-16.484 7.065 15.306 14.13-16.484 4.71 12.952 21.192-10.597-5.887 16.484 22.37-9.42-4.71 18.84 21.195-9.42-8.242 17.662 21.194 1.176-17.662 10.597 17.662 7.064-16.484 9.42 14.13 11.774c-45.136 20.802-79.674 27.474-131.87 9.42z" transform="matrix(.16 -.047 .031 .148 211.813 211.881)"/><path d="M200.16 613.18l4.71-7.064-12.952-2.355 9.42-9.418-12.952-4.71 12.952-9.42-12.952-7.064 14.13-5.887-7.065-11.773 14.13 2.355-5.887-14.13 16.484 7.065v-18.84l11.774 12.953 9.42-16.484 7.065 15.306 14.13-16.484 4.71 12.952 21.192-10.597-5.887 16.484 22.37-9.42-4.71 18.84 21.195-9.42-8.242 17.662 21.194 1.176-17.662 10.597 17.662 7.064-16.484 9.42 14.13 11.774c-45.136 20.802-79.674 27.474-131.87 9.42z" transform="matrix(.164 -.012 .008 .152 253.116 202.186)"/><path d="M200.16 613.18l4.71-7.064-12.952-2.355 9.42-9.418-12.952-4.71 12.952-9.42-12.952-7.064 14.13-5.887-7.065-11.773 14.13 2.355-5.887-14.13 16.484 7.065v-18.84l11.774 12.953 9.42-16.484 7.065 15.306 14.13-16.484 4.71 12.952 21.192-10.597-5.887 16.484 22.37-9.42-4.71 18.84 21.195-9.42-8.242 17.662 21.194 1.176-17.662 10.597 17.662 7.064-16.484 9.42 14.13 11.774c-45.136 20.802-79.674 27.474-131.87 9.42z" transform="matrix(.164 -.012 .008 .152 236.774 203.884)"/><path d="M200.16 613.18l4.71-7.064-12.952-2.355 9.42-9.418-12.952-4.71 12.952-9.42-12.952-7.064 14.13-5.887-7.065-11.773 14.13 2.355-5.887-14.13 16.484 7.065v-18.84l11.774 12.953 9.42-16.484 7.065 15.306 14.13-16.484 4.71 12.952 21.192-10.597-5.887 16.484 22.37-9.42-4.71 18.84 21.195-9.42-8.242 17.662 21.194 1.176-17.662 10.597 17.662 7.064-16.484 9.42 14.13 11.774c-45.136 20.802-79.674 27.474-131.87 9.42z" transform="matrix(-.334 -.014 .019 -.152 399.234 380.272)"/></g><path d="M356.34 196.48c0 22.512-18.995 6.66-38.298 6.66-19.302 0-36.632 17.517-39.962 0 0-9.19 25.655-23.312 44.957-23.312 14.308 1.666 36.634-4.196 33.303 16.652z" fill-rule="evenodd" transform="matrix(.273 0 0 .3 278.39 210.836)" stroke="#000" stroke-width="2.5" fill="#510800"/><path d="M356.34 196.48c0 22.512-18.995 6.66-38.298 6.66-19.302 0-36.632 17.517-39.962 0 0-9.19 25.655-23.312 44.957-23.312 14.308 1.666 36.634-4.196 33.303 16.652z" fill-rule="evenodd" transform="matrix(-.273 0 0 .3 369.376 209.47)" stroke="#000" stroke-width="2.5" fill="#ffc600"/><path d="M349.68 188.16c0 13.794-7.082 24.977-15.82 24.977-8.736 0-15.818-11.183-15.818-24.977s7.082-24.977 15.82-24.977c8.735 0 15.818 11.183 15.818 24.977z" fill-rule="evenodd" transform="matrix(.336 0 0 .328 277.66 205.155)" stroke="#000" stroke-width="2.5" fill="#520900"/><g fill-rule="evenodd" stroke="#000" stroke-width="1pt" transform="matrix(-.623 -.117 -.37 .623 523.129 93.618)"><path d="M273.75 383.58c-2.737 4.56 42.976 12.952 57.694 22.37 14.72 9.42 14.718 10.01 21.194 14.72l1.765-2.945C350.87 414.193 315.91 391.37 292 383.58c-6.805-2.273-10.3-13.248-12.95-8.83l-5.3 8.83z" transform="matrix(-.723 -.545 .52 -.758 322.39 677.92)" fill="#af8000"/><path d="M319.08 369.45l-25.315-5.887s-5.887 2.354-6.475 11.185c-.59 8.83 4.71 14.13 4.71 14.13l27.08-9.42V369.45z" transform="matrix(.844 -.297 .284 .885 -89.238 -64.18)" fill="gray"/><rect ry="3.532" rx="3.532" transform="matrix(.844 -.297 .284 .885 -19.207 -255.61)" height="19.428" width="7.064" y="534.62" x="175.71" fill="gray"/></g><path d="M244.77 87.42c7.322-5.948 11.157-3.72 17.65 3.1 9.322 9.815 41.317 58.855 46.312 63.019s4.24-6.418 10.344-1.388c3.032 3.727-10.437 17.026-13.737 14.57-6.412-5.022 3.914-5.376-.355-9.645-4.925-5.133-51.215-40.497-60.282-50.57-5.92-6.578-6.314-13.97.067-19.088z" fill-rule="evenodd" transform="matrix(.713 .16 .332 .528 132.518 68.139)" stroke="#000" stroke-width="1.25" fill="#923d09"/><g stroke="#000"><path d="M193.63 88.25c15.546 4.423 43.275 46.12 53.766 45.79 16.652-.48 83.233-77.56 72.564-88.252-7.4-8.246-67.94 41.192-71.852 44.126-.67-8.6-15.95-51.042-28.31-59.945-14.62-9.31-32.21-4.158-47.82-6.662-7.3-2.843-18.84-14.056-23.78-24.976 8.182-3.544 15.323-2.48 23.31-10.65 5.68-6.643 2.382-46.914.37-51.06-13.29-14.268 5.43-7.327-39.023-9.082-64.268-2.446-75.878 49.582-31.653 70.792-3.462 15.928-14.22 19.594-22.94 21.646-8.776.106-38.825-.763-55.545 12.49-33.403 24.55-8.925 30.903-15.352 35.8C.192 73.91-10.503 88.093-14.523 96.573c-10.472 4.996-99.485-4.995-116.5-1.664-16.42.965-56.467 15.818-73.15 26.64 3.565 14.143 241.51-7.602 249.27-2.496 5.946 3.345-2.705 51.237 2.01 54.95 1.66 9.062 116.54 5.828 125.6 5.828 7.558-18.86 15.39-81.558 20.926-91.583z" fill-rule="evenodd" transform="matrix(-.128 0 0 .204 281.764 185.974)" stroke-width="4.702" fill="#ffc600"/><path d="M174.9-96.568c1.543 25.457-7.118 3.304-38.37 3.304C75.97-98.3 97.246 5.932 97.246-26.24 71.018-39.95 52.41-126.53 126.86-123.17c23.54 0 44.96 7.858 48.045 26.603z" fill-rule="evenodd" transform="matrix(-.154 0 0 .143 285.371 186.831)" stroke-width="5.125"/><path d="M387.98 96.574c0 1.68-.172 7.957-.833 11.656-.445 3.74-1.54 8.077-2.498 10.823-.343 4.452-2.092 5.174-2.498 9.99-1.544 2.27-2.21 5.945-2.498 9.992 0 4.27.686 7.558.833 11.656.48 3.56 1.612 6.367 1.665 10.824 0 4.365-.005 7.55-1.665 9.99v5.83" transform="matrix(-.202 0 0 .204 352.795 179.603)" stroke-width="3.75" fill="none"/><path d="M383.81 76.592c.58 0 1.03 20.13 5.828 24.978 1.04 3.212 4.574 7.343 5.828 9.99 1.672 2.46 3.98 5.368 8.326 6.66h11.656c4.634 0 7.473.056 10.823-1.664 1.486-.8 2.532-1.846 3.33-3.33M442.09 115.72h.832c-2.327 0-1.092-.104 3.33 1.665 1.726 2.537 3.77 3.625 6.66 4.996 2.983 1.468 6.392 1.666 10.824 1.666 4.198-.354 6.74-1.686 9.16-3.33 4.042-1.31 4.814-2.936 5.827-7.494v-11.656c-.478-3.53-1.384-6.372-2.498-9.158-.42-1.258-.833-.705-.833-2.497M510.36 121.55c-.425 0-2.65 2.575-4.163 4.995-2.568.918-3.233 3.716-4.162 5.828-.67 2.675-1.666 2.86-1.666 6.66-1.678 3.71-2.205 7.008-2.498 10.824l2.497-10.823c-1.678 3.708-2.205 7.007-2.498 10.823M461.24 54.946h-.833c2.25 0 1.1-.053-3.33.833-1.817 2.27-4.807 4.304-7.493 5.826-2.977 1.825-5.367 4.01-8.326 4.996l8.326-4.996c-2.977 1.825-5.367 4.01-8.326 4.996M402.13 51.615h.833c-2.248 0-1.105-.054 3.33.833 2.936 1.39 4.752 2.89 7.493 4.995 1.29 1.935 3.257 2.305 4.163 5.828 1.573.848 2.123 1.67 2.497 4.164M427.11 29.968h4.163c4.53 0 6.733.68 10.824.833 3.538-.424 4.382-1.737 7.493-2.497M442.93 133.21c.14.66 1.652 4.256 2.498 5.828 1.517 2.512 3.538 4.914 4.163 8.326.97 2.905 1.527 6.23 1.666 9.99.76 3.503 1.264 6.62-.833 9.16-.898 3.29-2.57 5.69-4.162 9.157-1.11 0-.832-.277-.832.834M416.28 134.87v.833c0-2.248.055-1.105-.832 3.33-1.147 4.013-2.15 7.388-4.163 9.99-1.098 3.295-2.326 4.505-2.498 9.16.662 1.543.833 3.262.833 5.827M412.12 169.01v4.163c.908 1.21.55 1.294 1.665 1.665M343.02 128.21v.832c0-2.327-.258-.936 4.163.833 3.572.638 7.937 1.037 10.823 1.665 2.672 1.312 5.265 3.48 7.493 4.995 1.993 1.728 4.818 3.48 7.493 4.996 3.004 1.503 4.325 2.824 5.828 5.83.908 1.21.55 1.292 1.666 1.664" transform="matrix(-.202 0 0 .204 352.795 179.603)" stroke-width="3.75" fill="none"/><path d="M423.78-16.655c.123-.184 2.467-1.914 4.996-2.498 1.805-1.354 4.812-.74 6.66 0" transform="matrix(-.315 0 0 .204 402.691 180.325)" stroke-width="3" fill="none"/><path d="M445.42-19.153h.833c-2.248 0-1.106.054 3.33-.833 3.48-1.16 7.672-.832 11.656-.832 1.173.39.83.242.83 1.665M444.59-7.497v.833c0-2.327-.103-1.09 1.666 3.33.643 2.962 1.76 7.05.832 9.158-2.184 0-2.86-.274-4.163-.833" transform="matrix(-.245 0 0 .204 373.051 180.325)" stroke-width="3.402" fill="none"/><path d="M371.33-24.98c0 3.218-4.1 5.827-9.158 5.827s-9.158-2.61-9.158-5.828 4.1-5.83 9.158-5.83 9.158 2.61 9.158 5.83z" fill-rule="evenodd" transform="matrix(-.241 -.035 -.024 .115 350.237 198.762)" stroke-width="4.501"/><path d="M371.33-24.98c0 3.218-4.1 5.827-9.158 5.827s-9.158-2.61-9.158-5.828 4.1-5.83 9.158-5.83 9.158 2.61 9.158 5.83z" fill-rule="evenodd" transform="matrix(-.175 -.023 -.017 .075 330.146 187.225)" stroke-width="6.528"/><path d="M371.33-24.98c0 3.218-4.1 5.827-9.158 5.827s-9.158-2.61-9.158-5.828 4.1-5.83 9.158-5.83 9.158 2.61 9.158 5.83z" fill-rule="evenodd" transform="matrix(-.175 -.023 -.017 .075 324.847 186.712)" stroke-width="6.528"/><path d="M412.95 113.64c0 2.07-1.864 3.747-4.163 3.747-2.3 0-4.163-1.678-4.163-3.747s1.864-3.747 4.163-3.747c2.3 0 4.163 1.678 4.163 3.747zM469.57 119.89c0 1.38-1.305 2.498-2.914 2.498-1.61 0-2.914-1.12-2.914-2.498s1.305-2.498 2.914-2.498c1.61 0 2.914 1.12 2.914 2.498z" fill-rule="evenodd" transform="matrix(-.202 0 0 .204 352.795 179.603)" stroke-width="3.75"/><path d="M447.09 31.634v.833c0-2.796.197-1.03-4.163 3.33-3.724 1.785-5.164 3.667-6.66 6.66-1.742 3.85-2.342 6.613-2.498 10.824v6.662M419.61 30.8c.577 0 1.477 2.274 2.498 4.996 1.856 2.19 3.037 5.35 3.33 9.16 0 4.517.78 6.452.833 10.823v3.33M504.54 129.04c0 .48-2.6 1.455-4.163 3.33-3.16.428-5.964.833-9.99.833-.61-.916-1.836-1.217-3.33-1.665" transform="matrix(-.202 0 0 .204 352.795 179.603)" stroke-width="3.75" fill="none"/></g><g fill-rule="evenodd" stroke="#000" stroke-width="3.75" fill="#fff"><path d="M276.41 36.63l88.253 1.665V49.95s8.325 14.987 13.32 48.29c4.996 33.303 9.992 158.19 9.992 158.19l21.646 141.54s-13.32 21.647-23.31 19.982c-9.99-1.666-39.964-13.32-39.964-14.987 0-1.665-1.665-79.926-4.995-133.21-3.33-53.285-9.99-81.592-24.976-104.9-19.982 48.288-21.647 98.243-19.982 98.243s1.665 39.963 3.33 69.936c1.666 29.972-1.665 71.6-1.665 71.6l-58.28-3.33s1.665-36.633 3.33-64.94c1.666-28.307 6.745-41.625 8.327-73.266 1.748-34.963 4.202-53.32 6.66-109.9 3.238-45.74 14.687-75.258 17.9-103.24.87-7.133-.416-12.488.416-13.32z" transform="matrix(-.208 0 0 .132 334.227 211.166)"/><path d="M316.38 166.51s-8.326-13.32-11.656-36.633-3.33-28.307-3.33-28.307M318.04 164.84c0-1.665 4.995-29.972 4.995-29.972" transform="matrix(-.208 0 0 .132 334.227 211.166)"/></g><path d="M435.436 239.834c0 63.42-51.416 114.837-114.838 114.837S205.76 303.256 205.76 239.835s51.417-114.838 114.838-114.838 114.838 51.416 114.838 114.838z" stroke="#006a00" stroke-width="2.8937500000000003" fill="none"/><g stroke-width="1pt"><path d="M446.313 215.39c14.457 12.33-2.862 24.66-10.842 24.66s-25.3-12.33-10.842-24.66c-3.614 12.33 10.843 15.413 10.843 21.58 0-6.166 14.458-9.25 10.843-21.58z" fill-rule="evenodd" fill="#006a00"/><path d="M336.61 432.28c35.433 124.02-53.15 106.3-53.15 141.73 0-35.433-88.582-17.717-53.15-141.73" stroke="#000" fill="none" transform="matrix(.203 0 0 .174 377.225 140.224)"/></g><g stroke-width="1pt"><path d="M310.714 111.728c13.89-13.04 24.197 5.542 23.297 13.483-.898 7.942-15.11 23.83-25.74 8.097 11.852 4.943 16.547-9.106 22.678-8.433-6.13-.673-7.565-15.396-20.234-13.146z" fill-rule="evenodd" fill="#006a00"/><path d="M336.61 432.28c35.433 124.02-53.15 106.3-53.15 141.73 0-35.433-88.582-17.717-53.15-141.73" stroke="#000" fill="none" transform="matrix(.023 -.203 .172 .019 228.092 171.898)"/></g><g stroke-width="1pt"><path d="M346.842 361.683c-10.063 16.157-24.798.85-25.972-7.052-1.173-7.9 8.468-26.893 22.783-14.42-12.72-1.736-13.642 13.04-19.737 13.96 6.095-.92 11.268 12.934 22.926 7.513z" fill-rule="evenodd" fill="#006a00"/><path d="M336.61 432.28c35.433 124.02-53.15 106.3-53.15 141.73 0-35.433-88.582-17.717-53.15-141.73" stroke="#000" fill="none" transform="matrix(.03 .201 -.171 .026 410.605 282.499)"/></g><g stroke-width="1pt"><path d="M194.345 246.875c-13.606-13.182 4.408-24.337 12.35-23.83 7.94.51 24.395 13.873 9.23 25.212 4.375-12.03-9.816-16.016-9.426-22.147-.39 6.13-14.972 8.274-12.155 20.765z" fill-rule="evenodd" fill="#006a00"/><path d="M336.61 432.28c35.433 124.02-53.15 106.3-53.15 141.73 0-35.433-88.582-17.717-53.15-141.73" stroke="#000" fill="none" transform="matrix(-.203 -.013 .011 -.173 257.761 326.086)"/></g><g stroke-width="1pt"><path d="M435.504 183.972c16.866 8.645 2.89 24.61-4.854 26.45-7.746 1.84-27.39-6.147-16.193-21.454-.674 12.81 14.067 12.472 15.484 18.46-1.416-5.987 11.907-12.312 5.564-23.456z" fill-rule="evenodd" fill="#006a00"/><path d="M336.61 432.28c35.433 124.02-53.15 106.3-53.15 141.73 0-35.433-88.582-17.717-53.15-141.73" stroke="#000" fill="none" transform="matrix(.198 -.047 .04 .169 351.201 126.788)"/></g><g stroke-width="1pt"><path d="M275.88 120.258c9-16.724 24.697-2.452 26.38 5.333 1.68 7.786-6.715 27.303-21.81 15.822 12.81.903 12.774-13.854 18.798-15.166-6.023 1.31-12.082-12.136-23.37-5.988z" fill-rule="evenodd" fill="#006a00"/><path d="M336.61 432.28c35.433 124.02-53.15 106.3-53.15 141.73 0-35.433-88.582-17.717-53.15-141.73" stroke="#000" fill="none" transform="matrix(-.043 -.199 .169 -.037 216.794 203.289)"/></g><g stroke-width="1pt"><path d="M383.8 347.304c-3.97 18.567-23.046 9.252-26.84 2.25-3.795-7.002-1.188-28.08 16.528-21.277-12.56 2.71-8.397 16.866-13.82 19.807 5.422-2.94 15.007 8.274 24.13-.78z" fill-rule="evenodd" fill="#006a00"/><path d="M336.61 432.28c35.433 124.02-53.15 106.3-53.15 141.73 0-35.433-88.582-17.717-53.15-141.73" stroke="#000" fill="none" transform="matrix(.097 .179 -.152 .082 416.782 251.223)"/></g><g stroke-width="1pt"><path d="M200.988 279.044c-17.15-8.15-3.614-24.554 4.093-26.627 7.707-2.074 27.622 5.332 16.85 20.993.3-12.844-14.457-12.065-16.052-18.018 1.594 5.953-11.57 12.685-4.89 23.652z" fill-rule="evenodd" fill="#006a00"/><path d="M336.61 432.28c35.433 124.02-53.15 106.3-53.15 141.73 0-35.433-88.582-17.717-53.15-141.73" stroke="#000" fill="none" transform="matrix(-.196 .053 -.045 -.168 286.53 333.878)"/></g><g stroke-width="1pt"><path d="M418.313 160.412c18.78 2.693 10.768 22.363 4.04 26.627-6.73 4.263-27.923 3.1-22.323-15.042 3.543 12.35 17.38 7.23 20.675 12.438-3.295-5.21 7.246-15.537-2.392-24.024z" fill-rule="evenodd" fill="#006a00"/><path d="M336.61 432.28c35.433 124.02-53.15 106.3-53.15 141.73 0-35.433-88.582-17.717-53.15-141.73" stroke="#000" fill="none" transform="matrix(.172 -.109 .093 .147 319.919 133.608)"/></g><g stroke-width="1pt"><path d="M246.135 137.426c4.75-18.354 23.36-8.204 26.84-1.045 3.482 7.16-.017 28.082-17.38 20.5 12.633-2.145 9.09-16.46 14.618-19.153-5.528 2.693-14.6-8.93-24.078-.3z" fill-rule="evenodd" fill="#006a00"/><path d="M336.61 432.28c35.433 124.02-53.15 106.3-53.15 141.73 0-35.433-88.582-17.717-53.15-141.73" stroke="#000" fill="none" transform="matrix(-.089 -.183 .156 -.076 208.604 231.93)"/></g><g stroke-width="1pt"><path d="M410.115 327.687c1.488 18.922-19.453 15.413-25.086 9.78-5.634-5.634-9.143-26.576 9.778-25.087-11.268 6.166-3.242 18.55-7.6 22.908 4.358-4.358 16.742 3.668 22.907-7.6z" fill-rule="evenodd" fill="#006a00"/><path d="M336.61 432.28c35.433 124.02-53.15 106.3-53.15 141.73 0-35.433-88.582-17.717-53.15-141.73" stroke="#000" fill="none" transform="matrix(.144 .144 -.122 .123 414.315 226.096)"/></g><g stroke-width="1pt"><path d="M213.57 305.965c-18.638-3.827-9.393-22.918-2.39-26.75 7-3.835 28.15-1.384 21.418 16.333-2.782-12.508-16.955-8.256-19.932-13.642 2.977 5.385-8.22 15.023.904 24.06z" fill-rule="evenodd" fill="#006a00"/><path d="M336.61 432.28c35.433 124.02-53.15 106.3-53.15 141.73 0-35.433-88.582-17.717-53.15-141.73" stroke="#000" fill="none" transform="matrix(-.178 .098 -.084 -.152 309.861 338.735)"/></g><g stroke-width="1pt"><path d="M393.51 137.857c18.85-2.41 16.205 18.7 10.807 24.608-5.4 5.907-26.186 10.435-25.476-8.557 6.627 10.967 18.674 2.34 23.21 6.484-4.536-4.145 2.976-16.92-8.54-22.535z" fill-rule="evenodd" fill="#006a00"/><path d="M336.61 432.28c35.433 124.02-53.15 106.3-53.15 141.73 0-35.433-88.582-17.717-53.15-141.73" stroke="#000" fill="none" transform="matrix(.137 -.15 .128 .117 291.492 138.159)"/></g><g stroke-width="1pt"><path d="M221.98 159.79c-.214-18.922 20.446-14.01 25.688-8.026 5.24 5.986 7.335 27.054-11.445 24.29 11.658-5.37 4.482-18.23 9.125-22.27-4.642 4.04-16.46-4.784-23.37 6.006z" fill-rule="evenodd" fill="#006a00"/><path d="M336.61 432.28c35.433 124.02-53.15 106.3-53.15 141.73 0-35.433-88.582-17.717-53.15-141.73" stroke="#000" fill="none" transform="matrix(-.134 -.153 .13 -.114 210.398 260.622)"/></g><g stroke-width="1pt"><path d="M428.233 300.775c5.953 18-15.197 19.49-22.004 15.342-6.807-4.146-15.202-23.634 3.507-26.61-9.46 8.61 1.275 18.744-1.914 23.99 3.19-5.245 17.114-.355 20.41-12.722z" fill-rule="evenodd" fill="#006a00"/><path d="M336.61 432.28c35.433 124.02-53.15 106.3-53.15 141.73 0-35.433-88.582-17.717-53.15-141.73" stroke="#000" fill="none" transform="matrix(.174 .106 -.09 .148 408.082 201.168)"/></g><g stroke-width="1pt"><path d="M234.488 329.934c-18.992 1.204-15.086-19.71-9.336-25.264 5.75-5.555 26.806-8.752 24.962 10.17-5.97-11.375-18.53-3.527-22.82-7.956 4.288 4.43-3.985 16.707 7.194 23.05z" fill-rule="evenodd" fill="#006a00"/><path d="M336.61 432.28c35.433 124.02-53.15 106.3-53.15 141.73 0-35.433-88.582-17.717-53.15-141.73" stroke="#000" fill="none" transform="matrix(-.146 .142 -.121 -.125 335.945 336.221)"/></g><g stroke-width="1pt"><path d="M367.85 121.37c18.072-5.954 19.632 15.196 15.485 22.003-4.146 6.806-23.705 15.2-26.75-3.508 8.68 9.46 18.83-1.275 24.112 1.914-5.28-3.19-.408-17.115-12.846-20.41z" fill-rule="evenodd" fill="#006a00"/><path d="M336.61 432.28c35.433 124.02-53.15 106.3-53.15 141.73 0-35.433-88.582-17.717-53.15-141.73" stroke="#000" fill="none" transform="matrix(.105 -.175 .148 .09 267.579 141.085)"/></g><g stroke-width="1pt"><path d="M204.72 190.144c-6.59-17.787 14.544-20.154 21.507-16.28 6.963 3.872 16.052 23.048-2.587 26.804 9.178-9.018-1.93-18.727 1.08-24.113-3.01 5.386-17.13 1.063-20 13.59z" fill-rule="evenodd" fill="#006a00"/><path d="M336.61 432.28c35.433 124.02-53.15 106.3-53.15 141.73 0-35.433-88.582-17.717-53.15-141.73" stroke="#000" fill="none" transform="matrix(-.178 -.099 .085 -.152 227.796 289.226)"/></g><g stroke-width="1pt"><path d="M440.553 278.184c7.937 17.29-12.942 21.186-20.178 17.822-7.237-3.364-17.77-21.862.513-26.964-8.45 9.673 3.366 18.567.78 24.166 2.586-5.598 16.99-2.303 18.885-15.024z" fill-rule="evenodd" fill="#006a00"/><path d="M336.61 432.28c35.433 124.02-53.15 106.3-53.15 141.73 0-35.433-88.582-17.717-53.15-141.73" stroke="#000" fill="none" transform="matrix(.185 .086 -.073 .157 409.348 180.986)"/></g><g stroke-width="1pt"><path d="M270.08 353.79c-17.434 7.51-20.848-13.482-17.327-20.64 3.52-7.16 22.217-17.24 26.893 1.186-9.46-8.7-18.602 2.906-24.13.177 5.527 2.728 1.913 17.06 14.563 19.276z" fill-rule="evenodd" fill="#006a00"/><path d="M336.61 432.28c35.433 124.02-53.15 106.3-53.15 141.73 0-35.433-88.582-17.717-53.15-141.73" stroke="#000" fill="none" transform="matrix(-.09 .183 -.155 -.077 367.412 325.526)"/></g><g stroke-width="1pt"><path d="M447.904 248.962c11.41 15.095-8.178 23.335-15.963 21.614-7.783-1.72-21.986-17.433-5.19-26.29-6.218 11.196 7.21 17.308 5.864 23.297 1.347-5.988 16.122-5.864 15.29-18.62z" fill-rule="evenodd" fill="#006a00"/><path d="M336.61 432.28c35.433 124.02-53.15 106.3-53.15 141.73 0-35.433-88.582-17.717-53.15-141.73" stroke="#000" fill="none" transform="matrix(.199 .044 -.038 .169 396.883 161.147)"/></g><g stroke-width="1pt"><path d="M339.23 114.018c16.3-9.71 22.318 10.645 19.736 18.195-2.582 7.55-19.807 19.967-26.752 2.32 10.453 7.39 18.036-5.296 23.848-3.312-5.81-1.983-4.04-16.653-16.832-17.202z" fill-rule="evenodd" fill="#006a00"/><path d="M336.61 432.28c35.433 124.02-53.15 106.3-53.15 141.73 0-35.433-88.582-17.717-53.15-141.73" stroke="#000" fill="none" transform="matrix(.066 -.193 .164 .056 245.985 154.827)"/></g><g stroke-width="1pt"><path d="M306.097 364.007c-15.52 10.842-23.095-9-21.1-16.707 1.995-7.706 18.23-21.313 26.52-4.234-11-6.608-17.59 6.573-23.545 5.014 5.953 1.558 5.315 16.3 18.125 15.927z" fill-rule="evenodd" fill="#006a00"/><path d="M336.61 432.28c35.433 124.02-53.15 106.3-53.15 141.73 0-35.433-88.582-17.717-53.15-141.73" stroke="#000" fill="none" transform="matrix(-.051 .197 -.168 -.044 395.428 316.766)"/></g><g stroke-width="1pt"><path d="M195.843 216.54c-10.488-15.874 9.553-22.87 17.22-20.64 7.667 2.23 20.906 18.905 3.614 26.7 6.875-10.825-6.165-17.823-4.464-23.74-1.7 5.916-16.44 4.835-16.37 17.68z" fill-rule="evenodd" fill="#006a00"/><path d="M336.61 432.28c35.433 124.02-53.15 106.3-53.15 141.73 0-35.433-88.582-17.717-53.15-141.73" stroke="#000" fill="none" transform="matrix(-.195 -.057 .048 -.167 240.944 307.969)"/></g><g stroke="#000"><path d="M193.63 88.25c15.546 4.423 43.275 46.12 53.766 45.79 16.652-.48 83.233-77.56 72.564-88.252-7.4-8.246-67.94 41.192-71.852 44.126-.67-8.6-15.95-51.042-28.31-59.945-14.62-9.31-32.21-4.158-47.82-6.662-7.3-2.843-18.84-14.056-23.78-24.976 8.182-3.544 15.323-2.48 23.31-10.65 5.68-6.643 2.382-46.914.37-51.06-13.29-14.268 5.43-7.327-39.023-9.082-64.268-2.446-75.878 49.582-31.653 70.792-3.462 15.928-14.22 19.594-22.94 21.646-8.776.106-38.825-.763-55.545 12.49-33.403 24.55-8.925 30.903-15.352 35.8C.192 73.91-10.503 88.093-14.523 96.573c-10.472 4.996-99.485-4.995-116.5-1.664-16.42.965-56.467 15.818-73.15 26.64 3.565 14.143 241.51-7.602 249.27-2.496 5.946 3.345-2.705 51.237 2.01 54.95 1.66 9.062 116.54 5.828 125.6 5.828 7.558-18.86 15.39-81.558 20.926-91.583z" fill-rule="evenodd" transform="matrix(.128 0 0 .204 363.373 187.113)" stroke-width="4.702" fill="#520900"/><path d="M174.9-96.568c1.543 25.457-7.118 3.304-38.37 3.304C75.97-98.3 97.246 5.932 97.246-26.24 71.018-39.95 52.41-126.53 126.86-123.17c23.54 0 44.96 7.858 48.045 26.603z" fill-rule="evenodd" transform="matrix(.154 0 0 .143 359.765 187.971)" stroke-width="5.125"/><path d="M387.98 96.574c0 1.68-.172 7.957-.833 11.656-.445 3.74-1.54 8.077-2.498 10.823-.343 4.452-2.092 5.174-2.498 9.99-1.544 2.27-2.21 5.945-2.498 9.992 0 4.27.686 7.558.833 11.656.48 3.56 1.612 6.367 1.665 10.824 0 4.365-.005 7.55-1.665 9.99v5.83" transform="matrix(.202 0 0 .204 292.253 180.743)" stroke-width="3.75" fill="none"/><path d="M383.81 76.592c.58 0 1.03 20.13 5.828 24.978 1.04 3.212 4.574 7.343 5.828 9.99 1.672 2.46 3.98 5.368 8.326 6.66h11.656c4.634 0 7.473.056 10.823-1.664 1.486-.8 2.532-1.846 3.33-3.33M442.09 115.72h.832c-2.327 0-1.092-.104 3.33 1.665 1.726 2.537 3.77 3.625 6.66 4.996 2.983 1.468 6.392 1.666 10.824 1.666 4.198-.354 6.74-1.686 9.16-3.33 4.042-1.31 4.814-2.936 5.827-7.494v-11.656c-.478-3.53-1.384-6.372-2.498-9.158-.42-1.258-.833-.705-.833-2.497M510.36 121.55c-.425 0-2.65 2.575-4.163 4.995-2.568.918-3.233 3.716-4.162 5.828-.67 2.675-1.666 2.86-1.666 6.66-1.678 3.71-2.205 7.008-2.498 10.824l2.497-10.823c-1.678 3.708-2.205 7.007-2.498 10.823M461.24 54.946h-.833c2.25 0 1.1-.053-3.33.833-1.817 2.27-4.807 4.304-7.493 5.826-2.977 1.825-5.367 4.01-8.326 4.996l8.326-4.996c-2.977 1.825-5.367 4.01-8.326 4.996M402.13 51.615h.833c-2.248 0-1.105-.054 3.33.833 2.936 1.39 4.752 2.89 7.493 4.995 1.29 1.935 3.257 2.305 4.163 5.828 1.573.848 2.123 1.67 2.497 4.164M427.11 29.968h4.163c4.53 0 6.733.68 10.824.833 3.538-.424 4.382-1.737 7.493-2.497M442.93 133.21c.14.66 1.652 4.256 2.498 5.828 1.517 2.512 3.538 4.914 4.163 8.326.97 2.905 1.527 6.23 1.666 9.99.76 3.503 1.264 6.62-.833 9.16-.898 3.29-2.57 5.69-4.162 9.157-1.11 0-.832-.277-.832.834M416.28 134.87v.833c0-2.248.055-1.105-.832 3.33-1.147 4.013-2.15 7.388-4.163 9.99-1.098 3.295-2.326 4.505-2.498 9.16.662 1.543.833 3.262.833 5.827M412.12 169.01v4.163c.908 1.21.55 1.294 1.665 1.665M343.02 128.21v.832c0-2.327-.258-.936 4.163.833 3.572.638 7.937 1.037 10.823 1.665 2.672 1.312 5.265 3.48 7.493 4.995 1.993 1.728 4.818 3.48 7.493 4.996 3.004 1.503 4.325 2.824 5.828 5.83.908 1.21.55 1.292 1.666 1.664" transform="matrix(.202 0 0 .204 292.253 180.743)" stroke-width="3.75" fill="none"/><path d="M423.78-16.655c.123-.184 2.467-1.914 4.996-2.498 1.805-1.354 4.812-.74 6.66 0" transform="matrix(.315 0 0 .204 242.296 181.461)" stroke-width="3" fill="none"/><path d="M445.42-19.153h.833c-2.248 0-1.106.054 3.33-.833 3.48-1.16 7.672-.832 11.656-.832 1.173.39.83.242.83 1.665M444.59-7.497v.833c0-2.327-.103-1.09 1.666 3.33.643 2.962 1.76 7.05.832 9.158-2.184 0-2.86-.274-4.163-.833" transform="matrix(.245 0 0 .204 271.975 181.461)" stroke-width="3.402" fill="none"/><path d="M371.33-24.98c0 3.218-4.1 5.827-9.158 5.827s-9.158-2.61-9.158-5.828 4.1-5.83 9.158-5.83 9.158 2.61 9.158 5.83z" fill-rule="evenodd" transform="matrix(.242 -.035 .024 .115 294.817 199.9)" stroke-width="4.501"/><path d="M371.33-24.98c0 3.218-4.1 5.827-9.158 5.827s-9.158-2.61-9.158-5.828 4.1-5.83 9.158-5.83 9.158 2.61 9.158 5.83z" fill-rule="evenodd" transform="matrix(.175 -.023 .017 .075 314.933 188.361)" stroke-width="6.528"/><path d="M371.33-24.98c0 3.218-4.1 5.827-9.158 5.827s-9.158-2.61-9.158-5.828 4.1-5.83 9.158-5.83 9.158 2.61 9.158 5.83z" fill-rule="evenodd" transform="matrix(.175 -.023 .017 .075 320.241 187.851)" stroke-width="6.528"/><path d="M412.95 113.64c0 2.07-1.864 3.747-4.163 3.747-2.3 0-4.163-1.678-4.163-3.747s1.864-3.747 4.163-3.747c2.3 0 4.163 1.678 4.163 3.747zM469.57 119.89c0 1.38-1.305 2.498-2.914 2.498-1.61 0-2.914-1.12-2.914-2.498s1.305-2.498 2.914-2.498c1.61 0 2.914 1.12 2.914 2.498z" fill-rule="evenodd" transform="matrix(.202 0 0 .204 292.253 180.743)" stroke-width="3.75"/><path d="M447.09 31.634v.833c0-2.796.197-1.03-4.163 3.33-3.724 1.785-5.164 3.667-6.66 6.66-1.742 3.85-2.342 6.613-2.498 10.824v6.662M419.61 30.8c.577 0 1.477 2.274 2.498 4.996 1.856 2.19 3.037 5.35 3.33 9.16 0 4.517.78 6.452.833 10.823v3.33M504.54 129.04c0 .48-2.6 1.455-4.163 3.33-3.16.428-5.964.833-9.99.833-.61-.916-1.836-1.217-3.33-1.665" transform="matrix(.202 0 0 .204 292.253 180.743)" stroke-width="3.75" fill="none"/></g><g fill-rule="evenodd" stroke="#000" stroke-width="3.75" fill="#fff"><path d="M276.41 36.63l88.253 1.665V49.95s8.325 14.987 13.32 48.29c4.996 33.303 9.992 158.19 9.992 158.19l21.646 141.54s-13.32 21.647-23.31 19.982c-9.99-1.666-39.964-13.32-39.964-14.987 0-1.665-1.665-79.926-4.995-133.21-3.33-53.285-9.99-81.592-24.976-104.9-19.982 48.288-21.647 98.243-19.982 98.243s1.665 39.963 3.33 69.936c1.666 29.972-1.665 71.6-1.665 71.6l-58.28-3.33s1.665-36.633 3.33-64.94c1.666-28.307 6.745-41.625 8.327-73.266 1.748-34.963 4.202-53.32 6.66-109.9 3.238-45.74 14.687-75.258 17.9-103.24.87-7.133-.416-12.488.416-13.32z" transform="matrix(.208 0 0 .132 310.878 212.375)"/><path d="M316.38 166.51s-8.326-13.32-11.656-36.633-3.33-28.307-3.33-28.307M318.04 164.84c0-1.665 4.995-29.972 4.995-29.972" transform="matrix(.208 0 0 .132 310.878 212.375)"/></g><path d="M349.68 188.16c0 13.794-7.082 24.977-15.82 24.977-8.736 0-15.818-11.183-15.818-24.977s7.082-24.977 15.82-24.977c8.735 0 15.818 11.183 15.818 24.977z" fill-rule="evenodd" transform="matrix(.336 0 0 .328 143.172 205.84)" stroke="#000" stroke-width="2.5" fill="#ffc600"/><g stroke-width="1pt"><g fill-rule="evenodd" stroke="#000"><path d="M212.6 892.91s53.15-17.716 70.867-17.716c17.716 0 17.716 17.716 19.135 18.212l-1.42 34.937H212.6V892.91z" transform="matrix(.203 0 0 .241 239.919 90.338)" fill="#00cfe6"/><path d="M265.75 892.91s0-17.716 17.717-17.716c17.716 0 35.433-.496 53.15 0v53.15H265.75V892.91z" transform="matrix(.203 0 0 -.241 247.112 542.073)" fill="#00cfe6"/><path d="M212.6 892.91s53.15-17.716 70.867-17.716c17.716 0 17.716 17.716 19.135 18.212l-1.42 34.937H212.6V892.91z" transform="matrix(-.203 0 0 .241 412.549 90.391)" fill="#00cfe6"/><path d="M265.75 892.91s0-17.716 17.717-17.716c17.716 0 35.433-.496 53.15 0v53.15H265.75V892.91z" transform="matrix(-.203 0 0 -.241 405.357 542.121)" fill="#00cfe6"/><path d="M249.45 875.2s0-17.717-17.716-17.717h53.15L249.45 875.2z" transform="matrix(-.203 0 0 -.241 394.855 537.856)" fill="#fff"/><path d="M159.45 892.91l106.3 53.15s-36.04 33.3-70.866 35.433c-17.717 0-35.433-35.433-35.433-35.433v-53.15z" transform="matrix(-.237 0 0 .241 417.945 90.39)" fill="#00cfe6"/><path d="M249.45 892.91c.71-8.858-2.214-35.434-19.93-35.434h55.363c17.717 0 35.434 17.717 35.434 35.434l-1.42 35.432H249.45V892.91z" transform="matrix(-.203 0 0 .241 402.048 94.661)" fill="#fff"/><path d="M249.45 875.2s0-17.717-17.716-17.717h53.15L249.45 875.2z" transform="matrix(.203 0 0 -.241 257.613 537.808)" fill="#fff"/><path d="M159.45 892.91l106.3 53.15s-36.04 33.3-70.866 35.433c-17.717 0-35.433-35.433-35.433-35.433v-53.15z" transform="matrix(.237 0 0 .241 234.524 90.337)" fill="#00cfe6"/><path d="M249.45 892.91c.71-8.858-2.214-35.434-19.93-35.434h55.363c17.717 0 35.434 17.717 35.434 35.434l-1.42 35.432H249.45V892.91z" transform="matrix(.203 0 0 .241 250.42 94.608)" fill="#fff"/><path d="M88.802 891.9c-.11 1.012 17.607-34.42 53.04-34.42s177.16 70.865 247.92 70.865c70.975 0 196.65-72.56 230.42-70.866 33.773 1.693 53.52 37.16 53.15 35.432-.374-1.728-17.717 53.15-17.717 53.15 0-17.716-17.717-35.433-35.433-35.433-17.717 0-106.3 70.865-230.42 70.865-123.91 0-212.49-70.866-230.21-70.866-17.717 0-35.433 17.715-35.433 35.432l-35.32-54.16z" transform="matrix(.203 0 0 .241 247.09 90.391)" fill="#fff"/></g><path d="M363.117 314.156l-3.17-9.638 3.24-1.477.373 1.14-2.646 1.205.97 2.952 2.48-1.13.37 1.13-2.478 1.13 1.08 3.28 2.75-1.254.374 1.14-3.343 1.523zM349.534 320.44l-3.17-9.637.593-.27 2.796 8.5 2.206-1.007.374 1.14-2.8 1.275zM345.423 322.36l-3.17-9.638 3.022-1.378.375 1.138-2.43 1.107.982 2.983 2.102-.96.375 1.14-2.104.958 1.44 4.38-.593.27zM308.287 322.397l2.1-9.938 1.217.357-.04 7.46c-.003.695-.01 1.215-.017 1.558.146-.34.367-.84.662-1.496l2.922-6.486 1.09.32-2.1 9.94-.78-.23 1.757-8.32-3.534 7.797-.73-.214.018-8.98-1.787 8.46-.78-.23zM308.732 311.718l.77.38-1.906 5.468c-.33.95-.66 1.674-.988 2.17-.327.494-.725.832-1.195 1.015-.465.18-.977.13-1.538-.145-.544-.267-.937-.637-1.177-1.114-.24-.475-.333-1.038-.28-1.688.054-.654.256-1.482.605-2.485l1.906-5.47.768.38-1.903 5.462c-.286.82-.452 1.45-.496 1.888-.04.434.017.81.17 1.136.158.323.4.567.73.73.567.277 1.043.268 1.43-.032.385-.3.785-1.042 1.2-2.23l1.902-5.464zM292.526 304.888l.576.316-2.128 5.42c-.37.94-.714 1.663-1.03 2.165-.317.5-.674.852-1.072 1.06-.392.206-.798.19-1.218-.04-.41-.222-.684-.553-.824-1-.14-.444-.154-.983-.04-1.615.114-.637.367-1.45.757-2.446l2.13-5.42.575.315-2.126 5.413c-.32.815-.52 1.436-.604 1.862-.08.422-.075.783.013 1.087.09.302.26.522.507.658.424.232.808.19 1.15-.124.343-.315.745-1.06 1.208-2.24l2.126-5.412zM282.225 306.572l.585.194c-.16.485-.25.903-.278 1.258-.022.35.03.674.154.97.127.29.314.504.56.64.22.12.443.156.666.108.224-.048.424-.172.6-.37.18-.203.33-.45.442-.74.116-.294.177-.572.183-.833.008-.265-.05-.523-.174-.77-.078-.164-.277-.456-.597-.88-.318-.428-.522-.776-.61-1.048-.116-.348-.157-.724-.125-1.127.037-.403.14-.823.31-1.252.185-.475.42-.882.707-1.223.287-.345.592-.56.916-.64.324-.084.632-.044.925.116.323.177.563.445.72.805.16.358.222.79.184 1.298-.038.51-.16 1.04-.367 1.596l-.588-.213c.203-.608.278-1.11.225-1.508-.052-.397-.245-.685-.58-.868-.35-.19-.657-.193-.927-.003-.265.187-.474.474-.628.863-.13.336-.184.645-.156.923.026.28.228.662.604 1.15.38.482.626.855.733 1.12.155.392.216.814.185 1.268-.03.45-.144.926-.342 1.43-.196.5-.447.934-.754 1.306-.305.365-.63.605-.978.716-.343.107-.67.075-.98-.095-.395-.215-.678-.518-.848-.912-.17-.393-.232-.877-.19-1.456.045-.58.187-1.188.425-1.82zM366.23 306.836c-.524-1.598-.737-2.942-.634-4.026.1-1.09.467-1.778 1.1-2.066.412-.188.855-.146 1.327.128s.92.752 1.344 1.437c.424.677.795 1.497 1.112 2.462.32.976.517 1.893.587 2.75.07.852.003 1.558-.202 2.11-.207.546-.505.907-.894 1.085-.42.192-.87.145-1.346-.142-.475-.285-.924-.77-1.344-1.45s-.77-1.443-1.05-2.29zm.62-.26c.38 1.162.827 2.012 1.336 2.55.51.536.986.703 1.424.503.446-.205.702-.71.766-1.517.068-.805-.103-1.83-.51-3.07-.26-.784-.546-1.44-.862-1.966-.315-.532-.644-.903-.988-1.114-.342-.216-.662-.258-.957-.123-.42.192-.68.668-.78 1.428-.097.756.092 1.86.57 3.31zM357.914 316.418l-3.17-9.638 1.986-.905c.4-.182.732-.233.998-.153.263.077.53.305.798.687.27.38.49.836.664 1.367.225.684.312 1.307.26 1.87-.05.563-.272 1.005-.66 1.33.21.09.383.195.516.315.286.263.59.616.914 1.058l1.642 2.27-.746.34-1.252-1.736c-.364-.502-.652-.877-.865-1.135-.214-.256-.386-.426-.515-.506-.128-.082-.246-.13-.353-.134-.078 0-.193.033-.346.103l-.687.313 1.407 4.282-.593.27zm-1.178-5.654l1.274-.58c.27-.124.463-.282.577-.47.113-.192.166-.436.16-.736-.01-.304-.066-.612-.168-.922-.15-.455-.35-.795-.603-1.018-.25-.225-.54-.26-.872-.11l-1.418.647 1.05 3.19zM351.14 314.022c-.526-1.598-.74-2.942-.636-4.025.1-1.09.467-1.78 1.1-2.066.412-.188.855-.146 1.327.128.473.274.92.752 1.345 1.437.424.678.795 1.498 1.112 2.463.32.977.518 1.894.588 2.75.07.852.003 1.558-.202 2.11-.207.546-.505.907-.894 1.085-.423.192-.87.146-1.348-.142-.475-.284-.924-.768-1.344-1.448-.42-.68-.77-1.445-1.048-2.29zm.617-.26c.382 1.162.828 2.012 1.338 2.55.51.536.985.703 1.423.503.446-.203.702-.708.766-1.516.068-.806-.102-1.83-.51-3.07-.258-.785-.546-1.44-.862-1.967-.314-.532-.644-.902-.987-1.113-.343-.217-.663-.258-.958-.124-.42.192-.68.668-.778 1.428-.1.756.09 1.86.567 3.31zM316.738 324.726l1.2-10.152 2.34.383c.476.078.845.244 1.107.5.265.25.452.602.564 1.058.114.452.143.91.088 1.377-.05.434-.172.83-.362 1.19s-.445.632-.765.822c.357.242.61.595.76 1.06.153.468.194 1 .125 1.59-.056.474-.17.907-.345 1.298-.17.386-.358.676-.566.867-.208.192-.456.323-.744.392-.286.066-.627.068-1.024.003l-2.378-.39zm1.52-5.752l1.35.22c.365.06.632.063.8.014.222-.068.4-.213.532-.43.136-.217.225-.505.267-.86.04-.337.024-.64-.045-.91-.068-.275-.19-.474-.363-.596-.174-.127-.485-.227-.933-.3l-1.246-.205-.36 3.067zm-.553 4.688l1.552.254c.267.044.456.058.568.045.196-.025.366-.09.51-.2.142-.108.27-.278.38-.51.112-.234.187-.514.225-.836.044-.38.024-.716-.063-1.013-.086-.3-.228-.525-.428-.668-.197-.15-.494-.258-.89-.323l-1.443-.237-.412 3.49zM324.47 325.71v-10.24h2.796c.56 0 .99.094 1.28.28.293.182.528.505.702.97.175.467.262.98.262 1.544 0 .727-.144 1.34-.434 1.838-.29.497-.736.813-1.342.95.22.17.39.34.504.508.243.363.474.817.692 1.362l1.097 2.787h-1.05l-.834-2.13c-.244-.617-.445-1.085-.602-1.413-.157-.325-.3-.554-.424-.683-.124-.13-.25-.223-.38-.273-.094-.032-.25-.05-.464-.05h-.967v4.55h-.834zm.835-5.72h1.793c.382 0 .68-.065.895-.19.215-.13.377-.334.49-.613.11-.285.167-.593.167-.923 0-.483-.108-.88-.326-1.194-.215-.312-.557-.468-1.024-.468h-1.995v3.388zM331.524 325.18l.886-10.565.885-.184 4.04 9.538-.936.195-1.18-2.9-2.595.542-.228 3.192-.872.182zm1.176-4.508l2.105-.44-1.063-2.65c-.324-.808-.574-1.473-.75-1.998.016.662 0 1.327-.05 1.992l-.242 3.096zM292.056 315.497l3.684-9.382 1.634.894c.333.18.562.423.687.725.13.298.17.676.13 1.134-.04.455-.144.897-.314 1.33-.157.4-.356.748-.596 1.048s-.505.5-.795.608c.198.31.29.704.273 1.18-.015.48-.13.994-.344 1.54-.172.438-.377.824-.614 1.157-.232.328-.452.56-.66.695-.207.137-.427.205-.66.205-.23 0-.486-.076-.763-.228l-1.66-.908zm2.712-5.125l.943.515c.256.14.454.203.592.194.184-.013.356-.11.514-.288.16-.175.306-.428.435-.757.123-.31.196-.604.218-.875.025-.278-.01-.493-.106-.65-.093-.16-.297-.325-.61-.496l-.87-.476-1.114 2.834zm-1.7 4.332l1.084.593c.186.102.323.158.41.17.153.02.297-.004.433-.073.137-.072.278-.205.424-.4.147-.198.28-.447.396-.745.138-.35.215-.676.232-.978.02-.306-.025-.55-.134-.733-.104-.19-.296-.357-.573-.51l-1.007-.55-1.266 3.224z"/></g><g><path d="M212.6 432.28v106.3c0 70.866 88.583 106.3 88.583 106.3s88.583-35.433 88.583-106.3v-106.3h-177.17z" fill-rule="evenodd" transform="matrix(.406 0 0 .383 201.06 45.179)" stroke="#000" stroke-width="1pt" fill="#00daec"/><path d="M212.6 432.28v106.3c0 8.858 1.384 17.163 3.806 24.914l84.777-42.63V432.28H212.6z" fill-rule="evenodd" transform="matrix(.406 0 0 .383 201.06 45.179)" stroke="#000" stroke-width="1pt" fill="#fff"/><path d="M212.6 432.28v106.3c0 8.858 1.384 17.163 3.806 24.914l84.777-42.63V432.28H212.6z" fill-rule="evenodd" transform="matrix(-.406 0 0 .383 445.829 45.179)" stroke="#000" stroke-width="1pt" fill="#fff300"/><g fill-rule="evenodd" transform="matrix(.406 0 0 .383 201.06 45.179)" stroke="#000" stroke-width="1.25"><path d="M244.77 87.42c7.322-5.948 11.157-3.72 17.65 3.1 9.322 9.815 41.317 58.855 46.312 63.019s4.24-6.418 10.344-1.388c3.032 3.727-10.437 17.026-13.737 14.57-6.412-5.022 3.914-5.376-.355-9.645-4.925-5.133-51.215-40.497-60.282-50.57-5.92-6.578-6.314-13.97.067-19.088z" transform="matrix(.639 .237 .142 .702 58.901 338.88)" fill="#923d09"/><rect ry="1.293" rx="2.606" transform="matrix(.756 .655 -.586 .81 0 0)" height="66.045" width="5.212" y="181.35" x="495.52" fill="#af8000"/><path fill="#b0b0d4" d="M266.77 451.975l24.416 16.333-12.096 14.48-24.415-16.332z"/></g><g stroke="#000" fill-rule="evenodd" transform="matrix(.406 0 0 .383 201.06 45.179)"><path d="M385.112 528.567c4.885-2.105-27.333-35.603-33.785-51.842-6.452-16.24-6.108-16.717-8.617-24.322l-3.15 1.36c.805 4.93 15.87 43.87 30.735 64.15 4.198 5.82.63 16.77 5.36 14.73l9.457-4.076z" stroke-width="1pt" fill="#af8000"/><path d="M341.548 453.55l-25.872 2.485s-4.83 4.107-2.573 12.665c2.255 8.558 8.965 11.892 8.965 11.892l22.668-17.557-3.188-9.486z" stroke-width="1pt" fill="gray"/><rect ry="3.532" rx="3.532" transform="rotate(-18.579)" height="19.428" width="7.064" y="534.62" x="175.71" stroke-width="1pt" fill="gray"/><path d="M239.61 381.52c0 7.316-1.58 13.246-3.532 13.246-1.95 0-3.533-5.93-3.533-13.246 0-7.316 1.582-13.246 3.533-13.246s3.532 5.93 3.532 13.246z" transform="matrix(.745 -.716 .635 .393 -105.9 523.83)" stroke-width="1pt" fill="#cf0000"/><path d="M239.61 381.52c0 7.316-1.58 13.246-3.532 13.246-1.95 0-3.533-5.93-3.533-13.246 0-7.316 1.582-13.246 3.533-13.246s3.532 5.93 3.532 13.246z" transform="matrix(-.978 .311 .027 .755 595.47 104.78)" stroke-width="1pt" fill="#cf0000"/><path stroke-width="1.153" fill="#b0b0d4" d="M310.69 508.867l67.746-40.383 8.887 15.42-67.746 40.38z"/></g><path d="M231.36 591.4l8.83-7.065s1.767 8.83 7.065 8.83 8.83-7.652 8.83-7.652 0 7.653 5.888 7.653 10.597-7.653 10.597-7.064c0 .588.588 7.064 5.298 7.064s10.597-6.476 10.597-6.476.59 7.654 5.887 7.065c5.3-.59 7.065-8.242 7.653-7.653.59.588 4.12 7.653 8.242 7.064s10.01-6.476 10.01-6.476 1.176 7.065 5.886 7.065 6.476-6.476 6.476-6.476 2.353 5.297 6.474 5.297 10.597-5.887 10.597-5.887" transform="matrix(.388 0 0 .383 211.251 51.722)" stroke="#0072ff" stroke-width="1pt" fill="none"/><path d="M231.95 591.4c3.14-1.374 5.69.196 9.418-7.654 0 4.12 2.945 9.42 8.243 9.42s8.832-7.653 8.832-7.653 0 7.653 5.887 7.653 10.596-7.653 10.596-7.064c0 .588.588 7.064 5.298 7.064s10.597-6.476 10.597-6.476.59 7.654 5.888 7.065c5.3-.59 7.065-8.242 7.653-7.653.59.588 4.122 7.653 8.243 7.064 2.943-.59 10.01-7.065 10.01-7.065" transform="matrix(.406 0 0 .383 212.064 55.782)" stroke="#0072ff" stroke-width="1pt" fill="none"/><g fill-rule="evenodd"><path d="M305.54 350.62v18.84h14.717l-5.298-18.84h-9.42z" transform="matrix(.321 0 0 .286 236.521 162.175)" stroke="#000" stroke-width="1pt" fill="#fff"/><path d="M341.455 265.263c-.19.17-7.583 3.705-17.25 3.705s-13.46-1.01-14.407-1.684c-.948-.673-2.086-2.02-3.223-2.02-1.138 0-2.085.84-2.085.84s1.895.843 3.222 1.853 1.706 2.863 1.706 2.863l31.28.336s-.19-1.852-.19-2.862 1.137-2.525.947-3.03z"/><path d="M314.16 253.31h.757v15.657h-.758zM324.395 251.287h.76v17.847h-.76zM334.442 254.318h.758v14.65h-.758z"/><path stroke="#000" stroke-width="1.024" fill="#fff" d="M299.07 342.37h18.84v8.83h-18.84z" transform="matrix(.321 0 0 .286 235.198 157.461)"/><path stroke="#000" stroke-width="1.101" fill="#fff" d="M297.89 350.61h21.782v8.83H297.89z" transform="matrix(.321 0 0 .286 235.198 157.461)"/><path stroke="#000" stroke-width="1.159" fill="#fff" d="M296.71 358.86h24.137v8.83H296.71z" transform="matrix(.321 0 0 .286 235.198 157.461)"/><path stroke="#000" stroke-width="1.372" fill="#fff" d="M266.17 334.72h23.837v12.527H266.17z" transform="matrix(.321 0 0 .286 235.198 157.461)"/><path stroke="#000" stroke-width="1.475" fill="#fff" d="M264.68 346.41h27.56v12.527h-27.56z" transform="matrix(.321 0 0 .286 235.198 157.461)"/><path stroke="#000" stroke-width="1.553" fill="#fff" d="M263.19 358.1h30.54v12.527h-30.54z" transform="matrix(.321 0 0 .286 235.198 157.461)"/><path stroke="#000" stroke-width="1.312" fill="#fff" d="M260.21 368.28h36.5v15.307h-36.5z" transform="matrix(.321 0 0 .286 235.198 157.461)"/><path stroke="#000" stroke-width="1.017" fill="#fff" d="M238.25 342.37h15.763v10.414H238.25z" transform="matrix(.321 0 0 .286 235.198 157.461)"/><path stroke="#000" stroke-width="1.094" fill="#fff" d="M237.26 352.09h18.226v10.414H237.26z" transform="matrix(.321 0 0 .286 235.198 157.461)"/><path stroke="#000" stroke-width="1.151" fill="#fff" d="M236.28 361.81h20.197v10.414H236.28z" transform="matrix(.321 0 0 .286 235.198 157.461)"/><path stroke="#000" stroke-width=".973" fill="#fff" d="M234.31 370.27h24.137v12.725H234.31z" transform="matrix(.321 0 0 .286 235.198 157.461)"/><path d="M220 377.51h9.876l10.597-33.374L220 377.51z" stroke="#000" stroke-width="1.017" fill="#fff" transform="matrix(.321 0 0 .286 235.198 157.461)"/><path d="M314.388 253.575l.702.31-9.214 12.634-.7-.31z"/></g><path d="M231.36 591.4l8.83-7.065s1.767 8.83 7.065 8.83 8.83-7.652 8.83-7.652 0 7.653 5.888 7.653 10.597-7.653 10.597-7.064c0 .588.588 7.064 5.298 7.064s10.597-6.476 10.597-6.476.59 7.654 5.887 7.065c5.3-.59 7.065-8.242 7.653-7.653.59.588 4.12 7.653 8.242 7.064s10.01-6.476 10.01-6.476 1.176 7.065 5.886 7.065 6.476-6.476 6.476-6.476 2.353 5.297 6.474 5.297 7.065-7.064 7.065-7.064 1.176 6.476 4.12 6.476c2.943 0 6.476-6.477 6.476-6.477s1.177 8.242 4.12 7.653c2.944-.59 4.122-8.242 4.71-7.653.59.59 4.71 7.064 4.12 7.064" transform="matrix(.384 0 0 .383 207.933 46.985)" stroke="#0072ff" stroke-width="1pt" fill="none"/></g></g></svg>