<svg xmlns="http://www.w3.org/2000/svg" height="480" width="640"><desc>The United States of America flag, produced by Daniel McRae</desc><defs><clipPath id="a"><path fill-opacity=".67" d="M-222.55-115.23H735.4v718.46h-957.95z"/></clipPath></defs><g clip-path="url(#a)" transform="matrix(.668 0 0 .668 148.68 76.986)"><path fill-rule="evenodd" fill="#00319c" d="M322.04 328.99H768.5v273.89H322.04z"/><path fill-rule="evenodd" fill="#d62918" d="M-256.67 329.84h445.19v273.04h-445.19z"/><path fill-rule="evenodd" fill="#00319c" d="M-255.82-115.23h445.19v305.39h-445.19z"/><path fill-rule="evenodd" fill="#d62918" d="M324.6-112.67h443.04v305.7H324.6z"/><path fill-rule="evenodd" fill="#fff" d="M-256.41 190.12h1025.9v141.69h-1025.9zM187.42-113.73h138.27v716.96H187.42z"/><path fill="#003994" d="M235.73 201.47c-8.315.163-19.44.722-26.72 4.93-4.847 2.8-4.324 10.662 2.098 10.466v.67H209.7v.67l10.553-2.68v-.668h-4.22v-.67h4.923l-1.407-2.677 25.325-2.677-1.407-4.686c9.453-1.136 16.938-.302 26.03 2.01v.668l-5.63-1.34c.654 2.9 3.945 2.17 6.333 1.34l-7.034 1.34v.668l16.18 1.453 16.884 3.902v.67l-9.146-1.34v.67l11.256 3.347-2.11-2.008v-.67l2.814 3.348c4.464.185 7.817 1.192 10.552 4.685l-9.85-4.016 5.63 12.718h.703v-2.008h.702v2.008l6.33-1.34c-1.638-6.74-4.457-14.707-11.255-18.073.6-2.57-.006-3.685-2.11-5.356 2.61 5.14-1.745 7.274-5.628 3.347l-1.408 1.34 1.407-4.686-4.222 4.016.703-4.685h-.702l-.704 4.016-2.11-2.007-.704 2.008-11.256-1.338v-6.024l1.407 2.008h.705v-2.008l3.517 2.008h.704l14.07.67.703 5.354h.703l2.11-4.685c-8.132-3.426-17.9-4.513-26.733-4.686.46-4.552-4.547-5.375-8.44-5.936-6.717-.966-27.388-3.33-28.14 5.935z"/><path fill="#003994" d="M221.84 205.66v2.678h1.407v-2.678h-1.407z"/><path fill="#00184a" d="M239.72 206.6v1.613h3.322l-3.322-1.613z"/><path fill="#003994" d="M214.8 207v2.678h.703L214.8 207zM299.22 209l-.703 2.678h.703V209zM204.25 213.02c-2.02 2.108-4.886 4.447-3.518 7.363-3.733 2.017-4.397 6.38-5.628 10.04l7.74 1.34 5.627-12.718-7.738.67v-.67l7.035-.67-3.517-5.354z"/><path fill="#bdbdbd" d="M214.1 221.05v.67h80.902l-24.622-.67H214.1m86.53 0l.703.67-.703-.67z"/><path fill="#003994" d="M214.8 221.72l5.907 7.363.424 26.106h6.333c0-8.335 1.86-16.855-4.22-23.43l8.44 5.355-3.517-10.04 19.698 18.742-14.773-22.76 14.07 18.075h.705V221.72H214.8z"/><path fill="#00184a" d="M247.87 221.72v20.082h.703l-.703-20.082z"/><path fill="#631808" d="M259.83 221.72v20.082h.704l-.704-20.082z"/><path fill="#de2110" d="M260.53 221.72v18.743l14.773-17.404-14.773 22.758 20.4-18.743-4.22 9.371 8.442-5.355c-4.55 8.335-4.22 14.558-4.22 24.1h6.33l.424-26.107 5.908-7.363H260.53z"/><path fill="#42425a" d="M220.43 228.42v27.445h.704c0-7.83 2.47-20.25-.704-27.445z"/><path fill="#631808" d="M287.26 228.42v26.776h.703c0-7.654 2.4-19.74-.703-26.776z"/><path fill="#00184a" d="M231.69 232.43v4.686h.703l-.703-4.686z"/><path fill="#428c00" d="M204.96 233.1l-1.407 5.355h-.703l1.407-4.686h-.704l-.703 5.354 2.814-1.338-3.518 5.355 2.814-2.007-3.517 2.677-.704 3.347h.703l7.035-8.032-2.11.67v-.67l2.11-.67v-.67h-2.814l-.704-4.685z"/><path fill="#003994" d="M232.39 233.1c.067 5.37 3.225 7.87 7.738 10.71-.357-4.51-4.177-7.979-7.738-10.71zM275.31 233.1l-7.035 10.71c3.894-2.317 9.184-5.778 7.035-10.71z"/><path fill="#319400" d="M306.26 233.1l.703 14.057h.704l2.11-12.05h-.703l-1.407 8.034h-.703l-.704-10.04z"/><path fill="#cecece" d="M194.4 233.77l.703 2.008h.704l-1.407-2.008z"/><path fill="#bd9408" d="M253.5 234.44v.67l1.407 2.677h.703l-2.11-3.347z"/><path fill="#4a6342" d="M306.96 234.44v3.347h.703l-.703-3.347z"/><path fill="#397b00" d="M199.33 235.11v2.008l2.11-.67v-.67l-2.11-.668z"/><path fill="#7b5a00" d="M252.79 235.11v2.678h.704l-.704-2.678z"/><path fill="#ffce08" d="M253.5 235.11v3.347h-2.814v2.008h2.814v8.033h.704l.703-8.033h3.517v-2.008h-3.517v-3.347H253.5z"/><path fill="#428c00" d="M198.62 235.78c-1.91 4.1-1.667 6.585 0 10.71h1.407l1.407-10.04h-.703l-.703 8.032h-1.407v-8.702z"/><path fill="#002984" d="M227.47 236.45v18.743h-6.33v.67l7.034-.67v3.347h.703c0-5.777 2.308-17.424-1.407-22.09z"/><path fill="#631808" d="M280.23 236.45v18.743h.704l-.704-18.743z"/><path fill="#319400" d="M302.04 236.45l2.814 16.735h.703c1.165-5.97.057-11.613-3.517-16.735z"/><path fill="#003994" d="M228.87 237.12c0 5.062-2.5 18.23.723 22.29 1.415 1.782 4.9 1.956 7.015 2.478 0-10.244 2.075-18.383-7.738-24.767zM271.79 261.89c2.29-.565 5.6-.767 7.314-2.48 3.624-3.615 1.128-17.412 1.128-22.288-10.98 4.843-8.442 15.064-8.442 24.767z"/><path fill="#319400" d="M298.52 237.12l5.628 21.42h-.703c-1.12-3.75-5.566-18.02-11.256-12.718 7.536.308 10.027 13.084 11.255 18.743h.703l9.145-26.776h-.703l-7.035 17.403h-.704c-1.9-5.697-1.75-13.722-6.33-18.074z"/><path fill="#397b00" d="M204.25 237.79l-2.814.67v.67l2.814-1.34z"/><path fill="#bdb584" d="M256.31 237.79v.67h2.11l-2.11-.67z"/><path fill="#294200" d="M199.33 238.46v2.008h.704l-.704-2.008m4.925 0l.703.67-.704-.67m3.284.223l.468.223-.468-.223z"/><path fill="#211800" d="M231.69 238.46v.67l2.11.67-2.11-1.34z"/><path fill="#bd9408" d="M249.98 238.46v2.008h.704l-.704-2.008z"/><path fill="#184a00" d="M306.96 238.46v4.016h.703l-.703-4.016z"/><path fill="#103900" d="M202.85 239.8l-.704 2.008h.704V239.8m2.814 0l-.704 1.34.704-1.34z"/><path fill="#397b00" d="M198.62 241.14v3.347h1.407v-3.347h-1.407z"/><path fill="#7b5a00" d="M252.79 241.14v7.363h.704l-.704-7.363z"/><path fill="#319400" d="M295.71 241.14l3.518 6.024h.703l-4.22-6.024z"/><path fill="#428c00" d="M214.1 251.85h-.704v-7.363h-.703l-.703 3.347h-.704v-3.347h-.703l-4.22 15.396h.702l1.407-2.678h.704l-1.407 3.347h.702l3.518-4.686-2.814 6.025h.703l7.11-10.04 1.33-10.04c-4.6 2.11-4.22 5.718-4.22 10.04z"/><path fill="#184a00" d="M302.04 242.47v2.008h.704l-.704-2.008z"/><path fill="#397b00" d="M200.73 243.14v.67h2.11l-2.11-.67zM210.58 243.81v.67l2.11.67v-2.01l-2.11.67z"/><path fill="#297b00" d="M312.59 243.14l.703.67-.703-.67m1.407 0l-4.22 2.678v.67l1.406.668 2.814-4.016z"/><path fill="#294200" d="M216.45 244.26l.235.446-.235-.446m1.173-.446v4.685h.703l-.704-4.686z"/><path d="M236.61 243.81v18.074h.703l-.703-18.074z" fill-opacity=".481" fill="#8c8c8c"/><path fill="#8c8c8c" d="M271.08 243.81v18.074h.703l-.703-18.074m21.105 0l.703.67-.703-.67z"/><path fill="#00184a" d="M247.87 244.48v2.008h.703l-.703-2.008z"/><path fill="#294200" d="M213.4 245.15v6.024h.704l-.704-6.024z"/><path fill="#428c00" d="M206.36 245.82l.703 6.024h.704l-1.407-6.024z"/><path fill="#211800" d="M240.83 245.82l2.11 1.34v-.67l-2.11-.67z"/><path fill="#428c00" d="M204.96 246.49c-.15 3.57-.888 6.695 2.814 8.702l-2.814-8.702z"/><path fill="#296300" d="M306.26 247.16v2.008h.703l-.703-2.008m1.407 0l.703.67-.703-.67z"/><path fill="#294200" d="M195.11 248.5v1.34l1.407-1.34h-1.407z"/><path fill="#428c00" d="M196.51 248.5l1.407 2.678-2.11-1.34c.688 2.7 1.413 4.337 4.22 5.356v.67l-2.813-.67 1.407 2.008-2.11-.67 6.332 6.025.703-2.677 2.11 1.338-4.22-4.016v-.67l2.11.67c-1.027-4.063-3.114-6.76-7.035-8.702z"/><path fill="#294200" d="M207.77 248.5v6.024h.704l-.704-6.024m3.05.446l.233.447-.234-.447z"/><path d="M242.24 248.5v14.727h.703l-.703-14.727z" fill-opacity=".575" fill="#734a42"/><path fill="#de2110" d="M247.17 248.5v1.34h1.407l-1.407-1.34z"/><path fill="#8c8c8c" d="M259.83 248.5l-2.814 1.34v.668l3.517-1.34-.703-.668z"/><path fill="#734a42" d="M265.46 248.5l-.703 15.396h.703c1.27-4.087 1.75-11.427 0-15.396z"/><path fill="#297b00" d="M315.4 248.5l-1.407.67v.67l1.407-1.34z"/><path fill="#de2110" d="M242.94 249.17v14.057l7.738 1.34c-1.69-4.943-2.716-12.724-7.738-15.397z"/><path fill="#184a00" d="M303.45 249.17v2.008h.703l-.703-2.008z"/><path fill="#63636b" d="M314.7 249.84v.67h2.11l-2.11-.67z"/><path fill="#211800" d="M245.76 249.84l1.407 1.34v-1.34h-1.407z"/><path fill="#8c8c8c" d="M250.68 249.84v.67h2.11l-2.11-.67z"/><path d="M247.17 250.51l3.518 13.388c4.284-1.497 10.863-2.087 13.366-6.025l-12.663 4.017-4.22-11.38z"/><path fill="#319400" d="M295 250.51l5.628 21.42h-.704v-1.34h-.703l.704 6.026h-.703v-1.34h-.702v5.356h-.704c-.06-6.818-2.76-12.92-6.33-18.743l-1.408 1.338v.67c5.153 4.894 6.732 15.39 7.034 22.09h-1.407l-2.814-14.058h-.704l2.11 18.743h-.703l-2.814-14.057h-.705l2.11 21.42h-.703l-1.407-17.404h-.703l1.407 17.404h-.705l-.703-9.37h-.704l.704 11.38h-.704l-.703-9.373h-.704l-2.11 12.718 7.74-.668v-.67l-4.925-.67v-.668l18.29 4.685v-.67l-8.44-2.678v-.67l12.662 2.68c-3.97-4.813-9.023-4.04-14.773-3.348v-.67l16.18.67v-.67l-11.256-2.677v-.67l11.256.67v-.67c-8.045-1.75-12.078-.742-18.29 4.686L295 294.69h-.704l-.703 2.007h-.704l3.517-10.04h.703l-.703 7.362 16.18-6.025v-.67l-14.773 4.017c5.638-4.407 13.79-8.15 21.105-8.702v-.67c-8.423 0-12.94 1.932-19.7 6.694 5.294-6.566 13.515-7.24 21.106-10.04v-.67c-9.55.717-14.09 2.88-21.808 8.033 4.773-4.54 12.924-12.457 20.4-10.71l-1.406-3.347c-6.478 1.464-12.116 5.04-16.884 9.37 3.276-4.387 14.795-16.512 20.4-16.064-5.69-4.97-16.608 10.185-20.4 13.388l15.477-16.735-13.366 11.38 14.772-18.744v-.67c-7 2.46-9.068 10.783-14.07 15.397l10.552-16.735c-4.702 3.227-8.536 9.358-9.85 14.727-3.236.387-2.11 5.495-2.11 8.032h-.703c0-8.138-.98-18.033-6.33-24.767z"/><path fill="#185200" d="M313.29 250.51l-4.22 3.347v.67l4.22-4.017z"/><path fill="#8c8c8c" d="M251.39 251.18v.67h2.11l-2.11-.67z"/><path fill="#efefef" d="M257.01 251.85l1.407 4.016h.704l-2.11-4.016m2.11 0l.704.67-.704-.67z"/><path fill="#8c8c8c" d="M258.42 253.85v.67h2.11l-2.11-.67zM261.94 254.52l-2.814.67v.67l3.518-.67-.704-.67z"/><path fill="#319400" d="M298.52 254.52l2.814 11.38h.703c-.035-4.11-.55-8.216-3.517-11.38z"/><path fill="#397b00" d="M206.36 255.19v.67h2.11l-2.11-.67z"/><path fill="#ad1810" d="M280.93 255.19v.67h6.33l-6.33-.67z"/><path d="M221.14 255.86v.67h6.33v10.04c3.817-6.062.247-10.705-6.33-10.71z" fill-opacity=".309" fill="#bdbdbd"/><path fill="#8c8c8c" d="M250.68 256.53v.67l3.518-.67h-3.518m7.035-.67l.703.67-.703-.67z"/><path fill="#bdbdbd" d="M280.93 255.86v.67h6.33l-6.33-.67z"/><path fill="#8c8c8c" d="M220.43 256.53v5.355h.704l-.704-5.355zM280.23 256.53v8.702h.704l-.704-8.702m7.035 0v10.04h.703l-.703-10.04z"/><path fill="#319400" d="M295 256.53l3.518 12.05h.703L295 256.53z"/><path fill="#8c8c8c" d="M253.5 257.2v.67h2.11l-2.11-.67m2.814 0l-2.11 1.34v.668l2.11-2.008m2.11 0l.704.67-.703-.67z"/><path fill="#efefef" d="M317.4 260.45l-2.814 4.686c1.887-1.316 3.672-2.43 2.814-4.686z"/><path fill="#319400" d="M292.89 258.54l4.925 16.065h.703c-.05-5.603-1.818-11.69-5.628-16.065z"/><path fill="#397b00" d="M208.47 259.88v1.34h1.407l-1.407-1.34z"/><path fill="#428c00" d="M209.72 267.39h-.703c-.13-3.835-1.626-6.29-5.628-7.363.097 2.042 1.564 10.015 4.923 7.363h.704l-1.407 6.024c2.1-2.215 10.778-10.023 7.017-13.46-3.22-2.943-4.87 5.967-4.907 7.436z"/><path fill="#297b00" d="M316.81 260.55l-2.11 3.347 3.517-3.347h-1.407z"/><path fill="#397b00" d="M202.85 261.22v.67h2.11l-2.11-.67z"/><path fill="#297b00" d="M311.18 261.22v.67h2.814v-.67h-2.814z"/><path fill="#de2110" d="M254.2 262.56v.67h2.11c-5.4 8.378-1.462 19.627-.703 28.783h.704c1.97-8.2 2.16-19.985 0-28.114l2.814 1.338.704-2.677-.703-.67-4.925.67z"/><path fill="#428c00" d="M191.59 262.56l1.407 4.016h.703l.704-2.677-2.814-1.34z"/><path fill="#295200" d="M207.07 263.23l1.407 1.34v-1.34h-1.407z"/><path fill="#428c00" d="M214.8 268.58l1.407-.67v.67l-4.924 4.016c4.37-1.655 6.58-3.93 8.44-8.032l-2.11 1.338 1.408-2.677-4.22 5.355z"/><path fill="#397b00" d="M195.11 263.89v.67l2.11.67-2.11-1.34z"/><path fill="#428c00" d="M198.62 263.89v3.347h-.703l-.704-2.008h-.703l.703 6.693h-.703l-.704-7.364h-.703l-.704 5.354h-.704l-3.518-2.677 2.11 4.016h-.703l-2.814-3.347c2.364 7.92 5.74 6.83 11.362 11.28 2.092 1.654 3.414 5.24 4.82 7.464l-2.815-2.01 1.407 2.01-3.517-2.01 4.22 4.018.704-2.008h.705c-1.768 3.205-4.893 3.58-8.442 4.016v-.67l1.407-1.338 3.517.67c-2.53-2.53-5.68-2.957-9.145-2.01l4.22 3.348v.67l-4.22 4.685 8.442-1.338-.704 1.34h.704l4.22-2.01-8.44 4.017v.668c7.115-.874 7.968-3.24 11.958-8.032-.554 2.154-.553 3.365 1.407 4.685l-1.1-7.994 9.54-10.747-3.517 2.676 2.814-4.016c-3.983.784-5.715 3.588-5.628 7.363l-4.222 4.016h-.703c1.5-4.21 5.582-6.61 4.22-11.38-3.67 2.603-4.73 5.793-4.924 10.04l-2.813-13.388.704 2.678h-.703v-1.34h-.703l.703 9.373h-.703c-2.2-5.128-.277-15.42-4.925-18.743z"/><path fill="#003994" d="M249.98 287.32h.704c-1.136-8.55-.665-15.642 3.517-23.43-8.294 4.046-7.8 16.764-4.22 23.43z"/><path fill="#294200" d="M193.7 265.9l-.703 2.008.703-2.008m2.11 0v2.008h.704l-.704-2.008z"/><path fill="#de2110" d="M228.87 265.9v10.71h-.703l-.704-9.372h-6.33v19.412l2.813-1.338 1.407 4.685 3.517-2.008.704 7.362 6.33-2.008c2.962 2.01 4.85 2.025 6.333-1.34h1.407l4.22 4.018-.703-12.718-12.662-.67v-.67l11.96.67v-2.008c-8.865-.198-9.85-5.54-9.85-12.718l-7.738-2.008zM271.79 267.91c0 6.753-.655 12.3-9.145 12.718 1.878 5.082 10.972 1.852 13.994-.82 4.19-3.706 3.592-8.948 3.592-13.907l-8.442 2.01z"/><path fill="#297b00" d="M304.15 271.93l6.33-6.024c-3.48.84-4.903 3.057-6.33 6.024z"/><path fill="#294200" d="M209.18 266.57v2.008h.703l-.703-2.008m3.048.446l.235.446-.235-.446m2.58-.446l.703.67-.702-.67z"/><path fill="#42425a" d="M280.93 266.57v.67h6.33l-6.33-.67z"/><path fill="#dedede" d="M290.08 266.57l2.11 1.34v-.67l-2.11-.67z"/><path fill="#00184a" d="M280.23 267.24v5.355h.704l-.704-5.355z"/><path fill="#003994" d="M280.93 267.24c0 12.41-7.252 16.998-19.698 16.065l-.704 12.718c2.66-.043 6.397.155 7.035-2.678l2.815 2.01 2.814-2.68-.704 2.68 1.407-1.34h.704l4.22-.67-.704 2.01 2.11-2.68 1.408 1.34h2.11v-2.008l1.407.67.705-6.025c3.57-2.97 1.407-14.982 1.407-19.412h-6.332z"/><path fill="#184a00" d="M297.82 267.24v2.008h.703l-.703-2.008zM301.33 267.24v3.347h.703l-.703-3.347z"/><path fill="#397b00" d="M193.7 267.91l.704.67-.704-.67m2.11 0v1.34h1.407v-1.34h-1.407z"/><path d="M236.61 267.91v6.024h.703l-.703-6.024z" fill-opacity=".475" fill="#8c7373"/><path fill="#636b7b" d="M252.09 267.91l.703.67-.7-.67z"/><path fill="#397b00" d="M209.18 268.58l.703.67-.703-.67m4.22.67v.67h2.112l-2.11-.67m2.11-.67l.703.67-.704-.67m1.41 0l.702.67-.704-.67z"/><path fill="#003994" d="M242.94 269.25c.042 3.358.415 5.073 4.22 5.355.59-3.62-.563-4.587-4.22-5.355zM259.12 270.59c1.647 5.808 6.266 3.942 6.33-1.34l-6.33 1.34z"/><path fill="#397b00" d="M195.11 271.93l.703.67-.703-.67m3.518 0l-.704 1.34h1.407l-.702-1.34z"/><path fill="#184a00" d="M301.33 271.93v2.678h.703l-.703-2.678z"/><path fill="#297b00" d="M310.48 271.93l-1.407 3.347h.703l.704-3.347z"/><path fill="#397b00" d="M209.18 272.6v2.008l2.11-2.008h-2.11zM207.07 273.94l-.703 3.347h.703v-3.347z"/><path fill="#294200" d="M217.62 274.6v2.008h.704l-.704-2.008z"/><path fill="#397b00" d="M191.59 275.27l1.407 1.34-1.407-1.34m2.11 0l2.11 1.34v-.67l-2.11-.67z"/><path fill="#294200" d="M204.96 275.27v2.008h.704l-.704-2.008z"/><path fill="#184a00" d="M295 275.94v2.008h.703L295 275.94z"/><path fill="#42425a" d="M249.98 276.61v5.355h.704l-.704-5.355z"/><path fill="#de2110" d="M258.42 277.95v9.371h2.11l-2.11-9.37z"/><path fill="#297b00" d="M288.67 279.29v.67h2.11v-.67h-2.11z"/><path fill="#184a00" d="M295.71 279.96v2.008h.704l-.704-2.008z"/><path fill="#295200" d="M207.07 280.63l.703.67-.703-.67m2.11 0l.704.67-.704-.67m2.11 0l-1.406 2.678h.703l.704-2.678z"/><path fill="#184a00" d="M310.48 281.3v.67h2.814l-2.814-.67zM314.7 281.3v.67h2.11l-2.11-.67z"/><path fill="#4a6342" d="M316.81 281.3v.67h2.11l-2.11-.67z"/><path fill="#184a00" d="M290.78 281.97v2.008h.703l-.703-2.008z"/><path fill="#296300" d="M295.71 281.97v3.347h1.407l-1.407-3.347z"/><path fill="#ce1810" d="M239.43 282.64v.67h5.628l-5.628-.67z"/><path fill="#002984" d="M264.05 283.31v.67h4.924l-4.924-.67z"/><path fill="#397b00" d="M200.73 283.98l1.407 1.34v-1.34h-1.407z"/><path fill="#294200" d="M203.55 284.65l.703 2.008h.704l-1.407-2.008z"/><path fill="#397b00" d="M212.69 285.98v2.678h.703l-.703-2.678z"/><path fill="#319400" d="M287.97 285.98v2.008h.703l-.703-2.008z"/><path fill="#428c00" d="M219.03 286.65c-2.28 4.675-4.734 9.722 1.407 12.718 0-3.93 1.482-9.69-1.407-12.718z"/><path fill="#397b00" d="M223.25 286.65l-.703 1.34h1.407l-.704-1.34z"/><path fill="#296300" d="M312.59 286.65v.67h3.518l-3.518-.67z"/><path fill="#397b00" d="M204.96 287.32l-.703 2.008h.703v-2.008m3.518 0l.703.67-.702-.67z"/><path fill="#428c00" d="M211.99 287.32c-1.65 4.31-1.22 6.867 1.407 10.71h.704v-10.71h-.703v8.033h-1.407v-8.033z"/><path fill="#184a00" d="M291.49 287.32v2.008h.704l-.704-2.008zM304.15 287.32v.67h2.11l-2.11-.67z"/><path fill="#428c00" d="M221.84 287.99l-.703 10.71 2.11-2.008h.704l-.703 2.677c5.504-1.57 6.518-5.128 4.925-10.042l-3.518 7.364h-.703v-8.702h-.703l-1.407 7.363v-7.363z"/><path fill="#397b00" d="M202.14 288.66l1.407 1.34v-1.34h-1.407z"/><path fill="#294200" d="M212.69 288.66v3.347h.703l-.703-3.347zM222.54 288.66v2.678h.703l-.703-2.678z"/><path fill="#296300" d="M291.49 289.33l.704 2.678h.703l-1.407-2.678z"/><path fill="#184a00" d="M306.26 289.33v.67l2.814.67V290l-2.814-.67z"/><path fill="#319400" d="M308.37 289.33v.67h2.11l-2.11-.67z"/><path fill="#296300" d="M311.18 289.33v.67l2.814.67V290l-2.814-.67z"/><path fill="#294200" d="M220.43 290.67v2.008h.704l-.704-2.008z"/><path fill="#397b00" d="M224.65 290.67v1.34h1.407l-1.407-1.34z"/><path fill="#319400" d="M295 298.7c6.744-3.558 11.844-6.024 19.698-6.024-6.507-3.734-17.534-1.503-19.698 6.024z"/><path fill="#397b00" d="M218.79 291.56l.47.224-.47-.224m3.752-.223v2.008h.703l-.703-2.008zM211.99 292.68v2.678h1.407v-2.678h-1.407z"/><path fill="#294200" d="M218.32 292.68v3.347h.703l-.703-3.347z"/><path fill="#00184a" d="M280.93 292.68l2.814 2.008v-.67l-2.814-1.338z"/><path fill="#297b00" d="M297.11 293.35v.67h2.11l-2.11-.67z"/><path fill="#184a00" d="M308.37 292.68l-1.407.67v.67l1.407-1.34z"/><path fill="#4a6342" d="M309.78 292.68v.67h4.925l-4.925-.67z"/><path fill="#002984" d="M277.42 293.35l1.407 1.34v-1.34h-1.407z"/><path fill="#297b00" d="M293.6 293.35v.67l3.518 1.338v-.67l-3.518-1.338z"/><path fill="#428c00" d="M242.24 294.02l-1.407 4.016-2.11-1.338 2.11 5.355h.703v-2.678h.704v4.686c3.403-2.147 2.963-5.962 2.11-9.37h-.703v6.693h-.703l-.704-7.363z"/><path fill="#319400" d="M285.15 294.02l-4.22 12.05c4.018-2.114 6.002-8 4.22-12.05z"/><path fill="#184a00" d="M302.74 294.69v.67h3.518l-3.518-.67z"/><path fill="#319400" d="M305.56 294.02v.67h4.925l-4.925-.67z"/><path fill="#397b00" d="M195.11 294.69l.703.67-.703-.67m4.925 0v2.008h.703l-.704-2.008zM235.91 294.69l1.407 3.347h2.11l-3.517-3.347z"/><path fill="#294200" d="M242.94 294.69v2.678h.703l-.703-2.678z"/><path fill="#319400" d="M271.08 294.69l-.703 6.024h.703v-6.024z"/><path fill="#082108" d="M306.96 294.69v.67h2.11l-2.11-.67z"/><path fill="#397b00" d="M197.22 295.36l.703 2.678h.704l-1.407-2.678z"/><path fill="#319400" d="M268.27 295.36l-.703 8.702c2.614-2.436 2.55-5.768.703-8.702z"/><path fill="#295200" d="M211.99 296.03l.703 2.678h.704l-1.407-2.678z"/><path fill="#428c00" d="M196.51 299.37l1.407-2.008c-1.82-.4-2.914.654-1.407 2.008zM230.99 296.69l.703 4.686 3.518 2.677 4.925.67.704-.67c-.52-1.812-6.268-9.642-7.036-5.355l-1.407-2.008h-1.407z"/><path fill="#397b00" d="M232.39 296.69v1.34l1.407-1.34h-1.407z"/><path fill="#319400" d="M276.71 296.69l-4.925 8.033c5.518-.063 7.887-2.874 8.442-8.033h-.703l-4.925 7.363 2.11-7.363zM283.04 296.69l-4.924 8.702c3.275-1.536 5.708-5.148 4.924-8.702z"/><path fill="#184a00" d="M302.74 296.69v.67h2.11l-2.11-.67z"/><path fill="#397b00" d="M196.51 297.36l-.703 1.34h1.407l-.704-1.34z"/><path fill="#297b00" d="M295.71 298.03v.67h2.11l-2.11-.67z"/><path fill="#428c00" d="M205.66 298.7v.67h6.33v.67h-6.33v.668h1.407v.67c-3.843.2-5.79 1.557-7.738 4.685l11.958-.67v.67c-3.244.98-7.965.63-9.146 4.017 4.49-1.744 10.988-2.342 13.366-6.694l-4.22 2.008 2.11-2.678-6.332-.67v-.67l11.256.67v.67h-2.11v.67l9.145-.67v-.67h-2.11v-.67h4.22v-.668l-5.627 1.34-16.18-3.348z"/><path fill="#295200" d="M238.02 298.03l2.11 1.34v-.67l-2.11-.67z"/><path fill="#319400" d="M273.19 298.03l-4.22 6.694c2.666-1.298 5.056-3.697 4.22-6.694z"/><path fill="#294200" d="M242.94 298.7v2.678h.703l-.703-2.678zM204.96 299.37v.67h3.518l-3.518-.67z"/><path fill="#184a00" d="M298.52 299.37v.67h2.11l-2.11-.67zM301.33 299.37v.67h3.518l-3.518-.67z"/><path fill="#efefef" d="M195.11 300.04l-1.407.67v.67l1.407-1.34z"/><path fill="#397b00" d="M223.25 300.04v.67h2.814l-2.814-.67z"/><path fill="#294200" d="M235.21 300.04l.703.67-.703-.67m4.22 0l.704 2.008h.704l-1.407-2.008zM228.17 300.71v1.34h1.407l-1.407-1.34zM223.25 301.38v.67h2.11l-2.11-.67z"/><path fill="#295200" d="M237.32 301.38v1.34h1.407l-1.407-1.34z"/><path fill="#296300" d="M299.22 301.38v1.34h1.407l-1.407-1.34z"/><path fill="#294200" d="M209.88 302.05v.67h2.814l-2.814-.67z"/><path fill="#397b00" d="M213.4 302.05v2.008l2.814-2.008H213.4z"/><path fill="#bdbdbd" d="M228.17 302.05v1.34h1.407l-1.407-1.34z"/><path fill="#184a00" d="M300.63 302.05v.67h2.11l-2.11-.67z"/><path fill="#185200" d="M302.74 302.05l1.407 1.34v-1.34h-1.407z"/><path fill="#397b00" d="M223.25 302.72l2.814 1.34v-.67l-2.814-.67z"/><path fill="#184a00" d="M285.86 303.39v.67l6.332-.67h-6.332z"/><path fill="#397b00" d="M218.32 303.39v.67h2.814l-2.814-.67z"/><path fill="#428c00" d="M219.73 306.74l14.773-2.008c-4.594-1.838-11.355-1.68-14.773 2.008z"/><path fill="#397b00" d="M228.17 303.39v.67h2.11l-2.11-.67z"/><path fill="#294200" d="M230.28 303.39v.67h2.11l-2.11-.67z"/><path fill="#297b00" d="M277.42 303.39l-1.407 2.008h2.11l-.703-2.008z"/><path fill="#319400" d="M292.89 303.39v.67l9.85 2.677v-.67l-9.85-2.677z"/><path fill="#397b00" d="M200.03 304.06l.703.67-.703-.67m2.814 0v1.34h2.11v-1.34h-2.11z"/><path fill="#bdbdbd" d="M218.32 304.06v.67h2.814l-2.814-.67z"/><path fill="#292100" d="M235.91 304.06v.67h2.11l-2.11-.67z"/><path fill="#319400" d="M283.75 306.07l17.587 2.678v2.677c1.992-5.878-14.25-9.76-17.587-5.355z"/><path fill="#631808" d="M237.32 304.73v.67h2.11l-2.11-.67z"/><path fill="#ad1810" d="M239.43 304.73v.67h2.11l-2.11-.67z"/><path fill="#de2110" d="M225.36 316.78v-.67l-4.22.67v-.67c19.037-5.743 47.093-5.743 66.128 0v.67l-3.517-.67c3.472 5.038 12.97 1.915 9.817-3.945-2.688-4.997-12.483-5.588-17.555-6.277-14.296-1.94-30.052-2.1-44.32.128-5.08.793-11.26 1.215-15.316 4.598-2.888 2.41-1.836 7.29 2.015 8.37 2.38.667 5.028-1.13 6.97-2.204z"/><path fill="#397b00" d="M202.85 306.07v1.34h1.407v-1.34h-1.407m5.16.446l.233.446-.234-.446z"/><path fill="#184a00" d="M287.97 306.07v.67h2.11l-2.11-.67z"/><path fill="#294200" d="M218.32 308.07v.67l4.22-1.34-4.22.67z"/><path fill="#319400" d="M287.26 306.74v.67l7.035 1.338-7.035-2.008z"/><path fill="#de2110" d="M255.61 308.07v2.008h.704l-.704-2.008zM276.01 308.74v2.678l2.814-.67-2.814-2.008z"/><path fill="#185200" d="M292.89 310.08l1.407 1.34v-1.34h-1.407z"/><path fill="#de3110" d="M264.75 311.42v.67h2.11l-2.11-.67m3.518 0l.703.67-.703-.67z"/><path fill="#ad1810" d="M242.94 312.76v.67h4.22l-4.22-.67z"/><path fill="#631808" d="M247.87 312.76v.67h13.366l-13.366-.67z"/><path fill="#ad1810" d="M261.24 312.76v.67h4.22l-4.22-.67z"/><path fill="#8c8c8c" d="M239.43 313.43v.67h2.814l-2.814-.67z"/><path fill="#bdbdbd" d="M242.94 313.43v.67h2.11l-2.11-.67z"/><path fill="#428c00" d="M247.17 313.43c1.85 2.222 3.342 3.202 6.332 2.678l-6.332-2.678z"/><path fill="#397b00" d="M251.39 313.43l1.407 3.347h1.408l-2.814-3.347z"/><path fill="#319400" d="M256.31 316.78l5.628-2.678c-2.867-1.142-6.19-.818-5.628 2.678z"/><path fill="#de2110" d="M204.96 320.12c7.344-4.21 16.793 7.4 22.512-2.008l-.704-.67c-2.337.82-5.164 2.753-7.735 2.393-1.72-.24-19.48-11.747-14.073.285zM282.34 317.45c-.974 9.363 16.566.076 21.105 2.678 2.42-5.114-3.23-7.393-7.61-4.728-2.097 1.277-3.144 3.904-5.784 4.367-2.602.456-5.402-1.404-7.71-2.317z"/><path fill="#734a42" d="M247.17 316.11v.67h2.11l-2.11-.67z"/><path fill="#de2110" d="M245.76 320.12l5.628.67c-.344-4.107-4.818-5.11-5.628-.67z"/><path fill="#ad1810" d="M253.5 316.78v.67h2.11l-2.11-.67z"/><path fill="#de2110" d="M257.01 317.45l.704 3.347 4.924-.67c-.576-3.284-2.52-3.348-5.628-2.677zM244.35 317.45l-2.814.67v4.016c2.433-.982 3.837-2.122 2.814-4.686zM252.09 317.45v4.016h4.22v-4.016h-4.22z"/><path fill="#631808" d="M245.06 318.12v2.678h.703l-.703-2.678m6.33 0v2.678h.705l-.704-2.678z"/><path fill="#ad1810" d="M262.64 318.12l-2.11 3.347h2.11v-1.34l1.407.67v-2.677h-1.407z"/><path fill="#de2110" d="M264.05 318.12v3.347l2.814.67.703-3.348-3.517-.67z"/><path fill="#ad1810" d="M240.83 318.78l.703.67-.703-.67m15.477 0v1.34h1.407v-1.34h-1.407z"/><path fill="#de2110" d="M194.4 321.46c2.827 5.764 17.61 7.367 21.105 1.34-8.182.983-13.45-5.158-21.105-1.34z"/><path fill="#de2110" d="M214.8 322.13c-6.6-5.067-10.878 1.308 0 0zM293.6 321.46v.67c3.633.437 7.668 1.733 8.442-2.678l-8.442 2.008z"/><path fill="#de2110" d="M292.89 322.8c3.475 5.997 18.307 4.366 21.105-1.34-7.655-3.817-12.922 2.324-21.105 1.34z"/><path fill="#ad1810" d="M245.76 320.12v.67l2.814.67-2.814-1.34z"/><path fill="#631808" d="M257.72 320.79v.67h2.11l-2.11-.67z"/><path fill="#de2110" d="M246.46 321.46v.67h2.814l-2.814-.67zM259.12 321.46v.67h2.814l-2.814-.67z"/><path fill="#184a00" d="M246.46 322.13v.67h2.814l-2.814-.67z"/><path fill="#428c00" d="M257.01 322.13c2.57 3 6.954 6.73 10.552 3.347l-10.552-3.347z"/><path fill="#294200" d="M259.12 322.13v.67h2.814l-2.814-.67z"/><path fill="#319400" d="M241.54 325.48c3.306 3.105 6.798.214 9.145-2.678l-9.145 2.678z"/><path fill="#631808" d="M299.22 322.8v.67h2.11l-2.11-.67z"/><path opacity=".99" d="M230.89 207.51l1.132-.302c.077.208.197.358.362.452.164.092.38.122.65.09.298-.034.515-.112.652-.233.09-.084.13-.188.114-.31-.012-.083-.047-.148-.11-.196-.063-.045-.197-.078-.402-.1-.952-.086-1.563-.195-1.832-.327-.372-.184-.584-.474-.635-.87-.045-.36.065-.677.33-.956.267-.28.713-.454 1.337-.527.595-.07 1.05-.028 1.36.123.314.15.548.4.704.748l-1.06.318c-.066-.156-.17-.27-.313-.34-.14-.07-.328-.092-.568-.064-.304.036-.516.1-.636.197-.08.068-.115.147-.103.238.01.078.058.14.14.185.114.06.485.122 1.113.183.63.06 1.08.174 1.347.337.265.167.42.424.464.772.05.38-.076.724-.373 1.036-.297.312-.772.505-1.424.58-.592.07-1.076.01-1.452-.178-.373-.19-.637-.473-.794-.852zm-5.1-.368c-.048-.363.002-.725.146-1.087.145-.362.377-.653.698-.872.323-.22.698-.353 1.123-.403.658-.076 1.223.065 1.695.424.472.356.748.844.828 1.464.08.626-.066 1.17-.44 1.632-.37.46-.876.726-1.52.8-.398.047-.79.005-1.174-.124-.382-.13-.69-.348-.92-.656-.23-.31-.376-.703-.437-1.178zm1.185-.078c.053.41.195.712.428.907.232.195.5.275.8.24.3-.035.536-.173.71-.415.176-.242.238-.57.185-.985-.052-.405-.195-.705-.427-.9-.23-.194-.494-.274-.794-.24-.3.036-.538.174-.715.416-.176.242-.238.568-.185.978zm-3.578-2.25l-.13-1.014 1.15-.133.13 1.012-1.15.133zm.603 4.694l-.53-4.135 1.15-.133.53 4.134-1.15.134zm-6.78-5.005l2.213-.257c.5-.058.885-.066 1.156-.024.364.058.687.198.97.42.284.223.514.51.692.86.178.35.3.79.37 1.325.06.47.05.882-.028 1.236-.097.433-.268.794-.513 1.083-.185.22-.45.404-.792.555-.257.112-.61.194-1.057.246l-2.278.265-.732-5.707zm1.335.825l.485 3.78.904-.105c.338-.04.58-.086.726-.14.19-.07.342-.167.456-.294.117-.127.2-.323.25-.587.047-.266.044-.62-.013-1.06-.056-.442-.14-.776-.253-1.003-.112-.227-.25-.398-.414-.513-.165-.115-.363-.183-.595-.204-.173-.016-.507.004-1 .06l-.545.065z" fill="#ecca5e"/><path fill-rule="evenodd" fill="#ecca5e" d="M233.383 223.395l17.104 21.387-.83.96-17.103-21.387zM277.4 221.768l-19.112 25.276-1.465-.506 19.113-25.276zM228.973 227.626l20.24 18.744-.67 1.065-20.24-18.744zM224.286 231.96l22.225 16.585-.547 1.128-22.225-16.585zM280.275 228.716l-20.037 18.942-1.108-.656 20.036-18.943zM284.71 232.226l-22.435 16.328-1.01-.787L283.7 231.44z"/><path fill="#428c00" d="M213.63 288.63h-.703c-.13-3.835-1.626-6.29-5.628-7.363.097 2.042 1.564 10.015 4.923 7.363h.703l-1.407 6.024c2.1-2.215 10.777-10.023 7.017-13.46-3.22-2.943-4.87 5.967-4.907 7.436zM208.25 240.72h-.704c-.13-3.835-1.625-6.29-5.627-7.363.097 2.042 1.564 10.015 4.923 7.363h.703l-1.407 6.024c2.1-2.215 10.777-10.023 7.017-13.46-3.22-2.943-4.87 5.967-4.907 7.436z"/><path opacity=".99" d="M299.51 210.84l-1.068-.118.074-.608c-.206.216-.438.37-.695.46-.254.088-.504.118-.75.09-.5-.055-.904-.293-1.215-.715-.307-.424-.42-.98-.336-1.665.085-.7.324-1.214.715-1.54.39-.327.852-.462 1.38-.403.487.054.884.293 1.192.716l.252-2.057 1.15.13-.7 5.71zm-2.806-2.498c-.054.44-.03.768.075.98.15.305.39.477.724.514.265.03.504-.052.715-.245.21-.194.343-.504.395-.93.058-.475.01-.827-.145-1.055-.154-.23-.372-.36-.653-.392-.273-.03-.515.048-.726.236-.207.183-.336.48-.386.89zm-4.633-1.24l-1.02-.295c.165-.387.403-.66.713-.822s.747-.21 1.313-.146c.513.056.888.156 1.125.3.238.143.396.31.475.5.082.188.094.52.036.995l-.167 1.276c-.045.365-.06.636-.046.814.017.175.064.368.14.576l-1.137-.126c-.02-.076-.045-.188-.072-.336-.01-.067-.02-.11-.025-.133-.218.16-.445.273-.68.34-.235.066-.48.085-.734.057-.448-.05-.787-.205-1.018-.465-.23-.26-.32-.566-.278-.92.03-.233.113-.434.253-.603.14-.17.32-.293.542-.366.224-.075.54-.127.948-.156.55-.036.933-.084 1.15-.145l.014-.11c.026-.21-.01-.364-.108-.465-.1-.103-.3-.17-.602-.205-.205-.022-.37 0-.494.064-.123.064-.233.187-.327.372zm1.43 1.058c-.152.03-.392.06-.72.09-.327.03-.543.07-.65.122-.16.084-.253.205-.272.36-.02.154.025.293.132.418.106.125.253.198.438.218.207.023.413-.02.618-.13.15-.082.257-.193.32-.33.04-.09.076-.267.11-.53l.025-.218zm-2.933-2.505l-.107.873-.786-.087-.204 1.668c-.04.338-.06.536-.052.595.01.056.038.105.086.148.05.043.113.068.19.077.106.01.264-.006.475-.054l-.007.86c-.28.08-.59.1-.93.063-.207-.023-.39-.076-.548-.16-.16-.086-.27-.185-.337-.297-.064-.117-.1-.265-.108-.448-.008-.13.01-.388.058-.775l.22-1.804-.527-.06.107-.87.528.057.1-.822 1.234-.51-.18 1.46.786.087zm-4.662 3.677l-1.15-.127.505-4.138 1.07.12-.073.587c.217-.258.403-.423.558-.495.16-.073.33-.1.516-.078.263.03.508.126.733.29l-.472.916c-.18-.14-.352-.22-.518-.24-.16-.017-.303.01-.425.084-.122.07-.23.213-.322.426-.09.214-.178.673-.264 1.377l-.155 1.277zm-3.086-1.676l1.123.31c-.196.384-.467.663-.812.838-.34.173-.75.232-1.23.18-.755-.084-1.286-.38-1.59-.892-.242-.408-.327-.9-.257-1.473.084-.687.34-1.202.763-1.548.424-.348.924-.49 1.5-.426.647.072 1.132.332 1.456.782.325.446.427 1.088.31 1.925l-2.884-.32c-.032.326.03.59.185.79.156.2.366.314.63.344.18.02.338-.01.473-.09.133-.08.245-.22.333-.42zm.2-1.1c.03-.317-.026-.567-.17-.75-.143-.183-.332-.288-.567-.314-.25-.028-.47.036-.654.192-.187.155-.296.383-.33.682l1.72.19zm-8.052 1.564l.7-5.71 1.15.127-.25 2.057c.4-.346.844-.49 1.33-.437.53.058.945.29 1.247.695.302.402.41.944.328 1.627-.087.706-.33 1.23-.732 1.573-.398.342-.85.486-1.355.43-.248-.028-.487-.113-.715-.257-.226-.146-.412-.345-.56-.595l-.073.61-1.068-.12zm1.407-2.03c-.052.427-.02.752.097.973.163.313.41.488.74.524.255.028.482-.05.685-.236.206-.187.336-.503.39-.947.058-.472.01-.823-.145-1.05-.155-.23-.373-.362-.654-.393-.276-.03-.517.047-.725.232-.208.182-.337.48-.388.897zm-3.112-2.92l.124-1.014 1.15.128-.123 1.013-1.15-.128zm-.575 4.698l.506-4.138 1.15.128-.506 4.137-1.15-.127zm-5.08-.563l.692-5.665 1.212.134-.576 4.703 3.014.334-.118.963-4.225-.468z" fill="#ecca5e"/><path fill="#428c00" d="M201.08 254.06h-.704c-.13-3.835-1.625-6.29-5.627-7.363.097 2.042 1.564 10.015 4.923 7.363h.703l-1.407 6.024c2.1-2.215 10.777-10.023 7.017-13.46-3.22-2.943-4.87 5.967-4.907 7.436z"/><path d="M225.94 232.795c0 .514-.583.93-1.303.93s-1.303-.416-1.303-.93c0-.513.583-.93 1.303-.93s1.304.417 1.304.93zM230.34 228.135c0 .514-.583.93-1.303.93s-1.303-.416-1.303-.93c0-.513.583-.93 1.303-.93s1.304.417 1.304.93zM234.41 223.795c0 .514-.583.93-1.303.93s-1.303-.416-1.303-.93c0-.513.583-.93 1.303-.93s1.304.417 1.304.93zM277.75 222.095c0 .514-.583.93-1.303.93s-1.303-.416-1.303-.93c0-.513.583-.93 1.303-.93s1.304.417 1.304.93zM280.84 228.135c0 .514-.583.93-1.303.93s-1.303-.416-1.303-.93c0-.513.583-.93 1.303-.93s1.304.417 1.304.93zM285.41 232.015c0 .514-.583.93-1.303.93s-1.303-.416-1.303-.93c0-.513.583-.93 1.303-.93s1.304.417 1.304.93z" fill-rule="evenodd" fill="#fac349"/><path opacity=".99" d="M262.6 199.3l-1.05-.19c.122-.402.33-.698.62-.89.29-.19.72-.282 1.288-.277.517.004.9.067 1.152.187.252.117.428.267.528.448.103.18.152.507.147.986l-.026 1.286c-.005.366.01.637.045.812.036.173.105.36.204.56l-1.147-.01c-.03-.074-.065-.183-.108-.327-.018-.066-.032-.11-.04-.13-.2.18-.412.316-.638.406-.226.09-.467.134-.723.132-.45-.004-.805-.124-1.064-.36-.256-.234-.382-.53-.378-.885.003-.236.063-.444.183-.626.12-.184.286-.323.5-.418.214-.098.523-.18.925-.25.542-.092.918-.18 1.128-.26v-.11c.004-.213-.05-.363-.16-.453-.11-.094-.316-.142-.62-.144-.206 0-.368.036-.484.113-.116.074-.21.207-.284.4zm1.54.908c-.148.046-.384.1-.706.163-.322.063-.533.125-.633.187-.15.1-.228.23-.23.386 0 .155.058.288.178.402.12.113.273.17.46.173.21 0 .41-.062.6-.19.14-.1.234-.22.28-.363.03-.094.048-.273.05-.537l.003-.22zm-4.733-2.773l.01-1.02 1.16.012-.01 1.02-1.16-.012zm-.047 4.73l.04-4.165 1.16.01-.042 4.167-1.158-.012zm-2.177-.02l-1.158-.01.042-4.166 1.076.01-.006.59c.187-.277.353-.46.5-.547.15-.088.318-.13.504-.13.265.004.518.075.76.216l-.367.956c-.194-.122-.375-.183-.542-.185-.162 0-.3.042-.413.127-.113.083-.204.235-.272.456-.066.222-.102.687-.11 1.396l-.012 1.285zm-1.87-4.182l-.008.878-.792-.006-.017 1.68c-.003.34 0 .538.015.595.017.054.05.1.103.138.054.037.12.056.197.056.107 0 .263-.033.467-.1l.09.855c-.27.106-.576.158-.917.155-.208 0-.396-.036-.563-.103-.167-.07-.29-.157-.37-.262-.074-.108-.127-.253-.155-.433-.023-.13-.033-.388-.03-.777l.02-1.816-.533-.004.007-.88.532.005.007-.827 1.17-.633-.016 1.47.793.008zm-5.85 1.217l-1.05-.19c.123-.4.33-.697.62-.888.29-.19.72-.284 1.29-.28.516.005.9.068 1.15.188.253.118.43.267.53.448.1.18.15.508.145.986l-.025 1.286c-.004.367.01.637.046.813.035.173.103.36.203.56l-1.146-.01c-.03-.075-.065-.184-.108-.328l-.04-.13c-.2.182-.413.317-.64.406-.226.09-.467.134-.722.132-.45-.004-.806-.124-1.065-.36-.255-.234-.382-.53-.378-.885.003-.235.063-.444.183-.626.12-.183.287-.323.5-.418.215-.097.523-.18.925-.25.543-.092.92-.18 1.128-.26l.002-.11c.003-.212-.05-.363-.16-.453-.11-.093-.316-.14-.62-.144-.207 0-.368.036-.485.113-.116.074-.21.208-.284.4zm1.54.91c-.148.044-.383.1-.705.16-.323.063-.533.126-.633.187-.152.1-.23.23-.23.387-.002.154.057.288.177.4.12.115.273.173.46.174.21 0 .408-.06.6-.19.14-.1.234-.22.28-.363.03-.094.047-.272.05-.537l.003-.22zm-8.057 1.926l.058-5.75 1.958.018c.742.007 1.225.04 1.45.1.345.09.633.28.864.572.23.29.344.664.34 1.12-.005.354-.075.65-.212.89s-.31.427-.52.564c-.208.134-.42.222-.634.265-.292.052-.714.075-1.266.07l-.796-.007-.02 2.17-1.222-.012zm1.27-4.766l-.018 1.632.668.006c.48.004.802-.023.965-.082s.29-.15.383-.28c.095-.126.143-.275.145-.445.003-.208-.06-.38-.19-.518-.126-.137-.29-.224-.487-.26-.144-.027-.436-.043-.876-.047l-.59-.006zM246.62 307.91l-.8-.02c.04-.312.155-.555.346-.73.19-.174.497-.292.92-.353.382-.055.674-.052.876.007.2.06.35.15.446.272.1.12.176.36.233.714l.144.954c.044.272.09.47.136.597.05.125.123.255.222.39l-.85.124c-.03-.05-.07-.128-.12-.23-.023-.046-.038-.076-.047-.09-.125.156-.265.28-.422.373-.156.09-.33.152-.518.18-.334.047-.612 0-.833-.146-.22-.143-.35-.348-.392-.61-.028-.176-.008-.337.057-.485.066-.15.17-.274.317-.368.147-.096.365-.193.654-.29.39-.13.657-.238.802-.322l-.013-.08c-.025-.16-.083-.264-.175-.318-.092-.056-.252-.068-.478-.036-.153.023-.267.07-.344.14-.076.07-.13.18-.16.33zm1.255.497c-.104.05-.272.118-.503.2-.23.083-.38.154-.444.21-.1.092-.14.196-.123.313.02.114.08.206.182.277.103.07.224.095.363.075.154-.022.294-.092.42-.21.092-.088.146-.188.16-.3.012-.072.002-.206-.03-.402l-.025-.163zm-2.552-.34l-.824.27c-.055-.158-.14-.27-.255-.337-.112-.067-.25-.088-.41-.065-.214.03-.374.126-.48.287-.104.157-.13.4-.077.73.058.367.164.617.317.75.154.132.34.182.558.15.163-.023.29-.086.38-.19.09-.102.14-.265.147-.487l.865.015c-.028.38-.152.683-.37.907-.22.224-.537.367-.955.427-.475.07-.877-.02-1.205-.263-.327-.243-.53-.617-.61-1.122-.083-.51-.004-.927.234-1.25.237-.327.597-.524 1.08-.594.395-.057.722-.02.98.108.26.127.468.35.622.666zm-4.783-.67l-.12-.757.86-.124.12.756-.86.124zm.56 3.507l-.493-3.09.86-.123.492 3.09-.86.124zm-1.74.25l-.68-4.262.86-.124.68 4.263-.86.125zm-3.86.56l-.68-4.264.86-.124.244 1.535c.22-.324.51-.513.873-.565.395-.057.744.032 1.047.268.302.234.494.606.575 1.116.083.526.016.95-.204 1.275-.217.323-.514.512-.89.566-.187.028-.377.01-.572-.05-.194-.064-.37-.172-.528-.325l.073.453-.8.115zm.597-1.736c.05.32.14.55.272.688.182.195.397.275.644.24.19-.028.338-.128.446-.3.11-.175.138-.428.085-.76-.056-.352-.164-.596-.323-.732-.16-.138-.345-.192-.554-.16-.206.028-.365.13-.477.303-.112.17-.143.412-.093.72zm-2.246 1.974l-.073-.463c-.092.18-.227.334-.406.457-.175.123-.37.2-.584.23-.218.032-.42.015-.61-.052-.187-.066-.332-.176-.436-.33-.104-.153-.18-.375-.225-.666l-.312-1.955.86-.125.225 1.42c.07.434.127.7.174.793.048.092.118.16.21.208.094.045.204.057.332.04.147-.022.272-.08.377-.17.104-.096.17-.202.193-.32.025-.122 0-.403-.07-.845l-.207-1.303.86-.124.492 3.088-.797.116zm-6.477-2.224l.8-.115.073.454c.08-.17.2-.317.362-.44.16-.122.35-.2.566-.23.377-.055.72.04 1.027.283.31.243.503.615.583 1.117.083.516.014.937-.205 1.262-.22.322-.517.51-.894.566-.18.026-.348.015-.506-.03-.155-.05-.327-.143-.514-.284l.25 1.556-.86.124-.68-4.264zm1.088 1.37c.056.347.17.593.34.74.172.143.36.2.57.17.2-.03.353-.13.46-.3.11-.172.135-.43.08-.778-.052-.324-.158-.555-.32-.692-.162-.137-.343-.19-.545-.162-.21.03-.372.133-.485.308-.115.173-.147.41-.1.713zm-2.328.964l.878.013c-.063.314-.2.568-.414.76-.212.188-.496.31-.852.36-.565.082-1.01-.034-1.337-.345-.26-.25-.423-.59-.49-1.018-.083-.512-.007-.933.23-1.262.233-.332.566-.528.996-.59.483-.07.888.027 1.216.29.326.263.534.708.622 1.336l-2.152.31c.045.243.144.42.298.538.154.115.33.158.527.13.135-.02.242-.07.323-.155.08-.084.132-.206.154-.368zm-.083-.833c-.045-.237-.138-.407-.28-.51-.142-.108-.3-.148-.475-.123-.188.027-.332.115-.434.262-.1.147-.132.332-.095.555l1.284-.186zm-6.152 2.74l-.68-4.264 1.903-.276c.48-.07.834-.08 1.062-.035.23.045.426.156.588.333.162.177.262.39.303.643.05.32-.006.6-.17.838-.165.236-.44.41-.824.52.212.08.392.177.54.288.15.112.357.317.626.618l.68.753-1.082.156-.802-.833c-.285-.298-.477-.484-.577-.557-.1-.074-.2-.12-.3-.138-.1-.018-.255-.012-.463.017l-.183.026.283 1.78-.905.13zm.512-2.592l.67-.097c.433-.062.7-.118.804-.17.102-.05.177-.122.225-.216.046-.094.06-.205.04-.333-.024-.142-.083-.252-.178-.328-.094-.077-.216-.117-.366-.12-.075.002-.296.03-.663.082l-.706.102.173 1.08zM287.46 311.83l-.76-.24c.13-.286.315-.487.55-.602.236-.115.565-.145.987-.088.384.05.663.133.838.245.175.11.29.238.347.382.058.143.06.392.008.747l-.15.954c-.04.272-.056.474-.05.61.01.13.042.275.096.433l-.85-.112c-.016-.058-.03-.142-.05-.253-.006-.05-.01-.085-.015-.1-.165.116-.338.197-.515.242-.178.046-.36.056-.55.03-.336-.044-.587-.165-.756-.364-.167-.2-.23-.43-.192-.694.025-.176.092-.326.2-.45.108-.126.246-.214.414-.265.17-.053.408-.086.714-.1.413-.02.7-.05.866-.09l.012-.082c.023-.157 0-.274-.073-.35-.07-.08-.22-.135-.447-.165-.152-.02-.276-.007-.37.04-.094.045-.178.135-.253.272zm1.054.818c-.115.02-.296.038-.543.055-.244.017-.408.044-.488.08-.123.06-.194.15-.21.266-.018.114.013.22.09.314.078.096.186.153.325.17.155.022.31-.007.465-.085.115-.06.197-.142.245-.245.033-.067.064-.198.093-.394l.024-.162zm-2.886 1.13l-.86-.115.232-1.58c.05-.333.063-.55.04-.653-.022-.104-.07-.19-.146-.254-.074-.066-.168-.106-.285-.122-.15-.02-.29 0-.42.064-.13.06-.226.153-.29.276-.06.122-.118.356-.17.702l-.205 1.4-.86-.113.455-3.094.8.105-.068.454c.335-.312.718-.44 1.15-.382.19.025.358.082.505.17.148.083.254.182.32.294.065.112.105.233.117.366.014.132.003.318-.033.557l-.282 1.923zm-5.485-2.924l-.76-.24c.13-.286.315-.487.55-.602.236-.115.565-.145.987-.088.384.05.663.133.838.245.175.11.29.237.347.38.058.144.06.393.008.748l-.15.954c-.04.272-.057.475-.05.61.01.13.042.275.096.433l-.853-.113c-.014-.058-.03-.142-.047-.253-.007-.052-.012-.086-.016-.1-.167.115-.34.196-.516.24-.177.047-.362.057-.55.032-.336-.045-.587-.166-.756-.365-.166-.2-.23-.43-.19-.694.024-.175.09-.324.2-.45.107-.125.245-.213.413-.264.17-.054.408-.087.714-.102.41-.018.7-.048.865-.09l.012-.08c.023-.158 0-.275-.073-.352-.07-.08-.22-.134-.447-.164-.153-.02-.277-.007-.372.04-.094.045-.177.136-.25.273zm1.054.818c-.116.02-.297.038-.543.055-.245.017-.41.044-.49.08-.122.06-.193.15-.21.266-.017.115.014.22.09.315.08.096.187.153.325.17.155.022.31-.007.465-.085.114-.06.197-.14.245-.243.033-.068.063-.2.092-.395l.024-.163zm-2.344-1.02l-.87.032c-.004-.165-.052-.295-.143-.39-.087-.095-.212-.153-.373-.175-.215-.03-.396.02-.546.143-.146.123-.244.35-.293.68-.054.367-.028.635.08.804.107.17.27.268.49.297.162.022.302-.004.42-.078.116-.075.212-.218.287-.428l.825.25c-.144.357-.353.614-.63.77-.276.154-.624.203-1.042.148-.476-.064-.834-.257-1.076-.58-.24-.323-.322-.738-.248-1.242.075-.51.275-.89.6-1.135.327-.25.732-.34 1.215-.276.395.053.698.176.907.37.21.193.342.462.396.808zm-4.38-1.945l.11-.757.86.114-.11.758-.86-.115zm-.52 3.514l.457-3.093.86.115-.455 3.093-.86-.114zm-.872-.116l-.86-.115.234-1.58c.05-.334.063-.552.04-.654-.022-.103-.07-.19-.147-.254-.073-.065-.168-.106-.284-.12-.15-.02-.29 0-.42.062s-.225.154-.29.276c-.06.123-.117.356-.168.702l-.207 1.402-.86-.115.456-3.095.8.107-.068.454c.335-.31.718-.44 1.15-.38.19.024.357.08.505.167.148.085.255.184.32.295.066.112.105.234.117.367.014.132.003.318-.032.556l-.284 1.924zm-4.18-4.14l.112-.758.86.115-.112.76-.86-.116zm-.518 3.513l.456-3.093.86.114-.455 3.094-.86-.115zm-5.184-3.846l.793.107-.06.422c.33-.29.693-.41 1.085-.358.21.028.383.093.524.195.14.102.248.242.32.42.168-.146.34-.25.518-.308.177-.06.36-.078.548-.053.24.032.434.106.585.22.153.114.257.266.312.455.04.14.038.358-.006.653l-.29 1.978-.862-.115.26-1.768c.046-.307.046-.51 0-.606-.062-.127-.176-.202-.342-.224-.12-.016-.24.004-.355.06-.116.055-.208.148-.275.277-.067.128-.122.338-.165.63l-.22 1.485-.86-.115.25-1.696c.045-.3.058-.496.04-.587-.017-.092-.055-.163-.114-.214-.057-.053-.14-.086-.25-.1-.134-.018-.258 0-.374.054-.117.053-.208.14-.274.264-.064.122-.118.33-.16.628l-.223 1.504-.86-.115.455-3.094zm-4.186.975c.04-.27.15-.525.328-.76.178-.236.406-.404.682-.503.28-.1.578-.13.897-.086.49.065.872.272 1.14.618.27.345.37.75.303 1.214-.07.468-.286.835-.65 1.102-.36.264-.783.364-1.264.3-.3-.04-.575-.14-.827-.306-.25-.164-.43-.38-.533-.644-.104-.268-.13-.58-.078-.935zm.876.162c-.045.307-.003.552.125.736.13.183.306.29.53.32.226.03.425-.027.6-.17.177-.142.288-.37.334-.68.045-.303.003-.546-.126-.73-.126-.183-.302-.29-.527-.32-.224-.03-.425.027-.602.17-.176.142-.287.367-.332.674zm-4.807-3.42l1.657.222c.374.05.655.114.843.195.252.11.458.27.618.484.16.212.27.462.327.75.058.284.057.627 0 1.026-.053.352-.143.65-.273.89-.158.297-.355.527-.592.69-.18.126-.407.21-.687.258-.208.033-.48.027-.816-.017l-1.704-.228.63-4.272zm.8.845l-.416 2.828.677.09c.254.034.44.045.555.033.152-.015.282-.058.39-.13.11-.07.21-.196.3-.378.09-.184.16-.44.207-.77.05-.33.055-.59.02-.774-.035-.184-.1-.333-.196-.447-.095-.113-.225-.2-.39-.257-.122-.044-.368-.09-.738-.14l-.407-.054z" fill="#ecca5e"/></g></svg>