<svg xmlns="http://www.w3.org/2000/svg" height="480" width="640" version="1"><g fill-rule="evenodd" stroke-width="1pt"><path fill="#ffe800" d="M0 0h640v480H0z"/><path fill="#00148e" d="M0 240h640v240H0z"/><path fill="#da0010" d="M0 360h640v120H0z"/></g><g fill-rule="evenodd"><path d="M269.55 290.834l-72.424 76.485-1.277-1.644 72.422-76.485 1.277 1.644zM320.002 303.334l-94.777 99.908-1.662-1.572 94.777-99.91 1.662 1.574z"/><path d="M478.35 60.236v88.583l17.717 88.582 17.717-88.583V60.235H478.35z" transform="matrix(-.06855 -.0679 -.0888 .09015 265.03 429.55)" stroke="#000" stroke-width="4.104" fill="gray"/><path d="M478.35 60.236v88.583l17.717 88.582 17.717-88.583V60.235H478.35z" transform="matrix(-.06855 -.0679 -.0888 .09015 240.59 390.524)" stroke="#000" stroke-width="4.104" fill="gray"/></g><path d="M301.18 272.84s-17.716 336.61 53.15 336.61 106.3-35.433 106.3-35.433l-.86-185.03-158.59-116.15z" fill-rule="evenodd" transform="matrix(.4486 0 0 .64428 72.367 -59.764)" stroke="#000" stroke-width="1pt" fill="#ffdf00"/><path d="M344.46 304.2c0 17.717-7.846 269.82 27.587 269.82s88.583-17.717 88.583-17.717l-.86-167.31-115.31-84.79z" fill-rule="evenodd" transform="matrix(.4486 0 0 .64428 72.367 -59.764)" stroke="#000" stroke-width="1pt" fill="#0000c4"/><path d="M367.52 321.16c0 17.717 4.525 217.42 39.958 217.42h53.15l-.86-149.59-92.248-67.833z" fill-rule="evenodd" transform="matrix(.4486 0 0 .64428 72.367 -59.764)" stroke="#000" stroke-width="1pt" fill="#e10000"/><path d="M206.202 116.02l72.422 76.485 1.277-1.642-72.422-76.485-1.276 1.642z" fill-rule="evenodd"/><path d="M301.18 272.84s-35.433 336.61 70.866 336.61c88.583 0 88.583-53.15 106.3-53.15l-17.72-124.02-159.45-159.44z" fill-rule="evenodd" stroke="#000" stroke-width="1pt" fill="#ffdf00" transform="matrix(.58397 0 0 .6167 9.63 -10.178)"/><g stroke="#000"><path d="M269.59 155.24c1.133 0 28.318-94.016 118.94-147.25" transform="matrix(.38515 -.02706 -.0501 .35088 135.137 147.365)" stroke-width="2.305" fill="none"/><path d="M421.37-20.327c0 18.133-4.567 31.716-11.328 45.31-5.627-18.125-9.06-27.177-9.06-45.31s6.83-35.114 12.458-48.707c2.23 12.46 7.93 30.574 7.93 48.707z" fill-rule="evenodd" transform="matrix(.13855 -.2199 .29107 .13976 175.87 257.358)" stroke-width="1pt" fill="#005b00"/><path d="M454.22-169.28c0 4.066-3.804 7.363-8.495 7.363s-8.496-3.297-8.496-7.363 3.803-7.363 8.495-7.363 8.495 3.297 8.495 7.363z" fill-rule="evenodd" transform="matrix(.18086 -.1006 .08832 .17474 177.613 256.677)" stroke-width="1pt" fill="red"/><path d="M421.37-20.327c0 18.133-4.567 31.716-11.328 45.31-5.627-18.125-9.06-27.177-9.06-45.31s6.83-35.114 12.458-48.707c2.23 12.46 7.93 30.574 7.93 48.707z" fill-rule="evenodd" transform="matrix(.1766 .11884 -.1271 .33225 181 96.407)" stroke-width="1pt" fill="#005b00"/><path d="M421.37-20.327c0 18.133-4.567 31.716-11.328 45.31-5.627-18.125-9.06-27.177-9.06-45.31s6.83-35.114 12.458-48.707c2.23 12.46 7.93 30.574 7.93 48.707z" fill-rule="evenodd" transform="matrix(.17455 -.03076 -.03103 .32504 179.315 159.265)" stroke-width="1pt" fill="#005b00"/><path d="M421.37-20.327c0 18.133-4.567 31.716-11.328 45.31-5.627-18.125-9.06-27.177-9.06-45.31s6.83-35.114 12.458-48.707c2.23 12.46 7.93 30.574 7.93 48.707z" fill-rule="evenodd" transform="matrix(.06327 .2524 -.1726 .1931 227.98 45.455)" stroke-width="1pt" fill="#005b00"/><path d="M421.37-20.327c0 18.133-4.567 31.716-11.328 45.31-5.627-18.125-9.06-27.177-9.06-45.31s6.83-35.114 12.458-48.707c2.23 12.46 7.93 30.574 7.93 48.707z" fill-rule="evenodd" transform="matrix(.20655 -.18572 .18722 .23533 150.267 241.083)" stroke-width="1pt" fill="#005b00"/><path d="M421.37-20.327c0 18.133-4.567 31.716-11.328 45.31-5.627-18.125-9.06-27.177-9.06-45.31s6.83-35.114 12.458-48.707c2.23 12.46 7.93 30.574 7.93 48.707z" fill-rule="evenodd" transform="matrix(.21683 -.22434 .25125 .20276 135.566 282.11)" stroke-width="1pt" fill="#005b00"/><path d="M421.37-20.327c0 18.133-4.567 31.716-11.328 45.31-5.627-18.125-9.06-27.177-9.06-45.31s6.83-35.114 12.458-48.707c2.23 12.46 7.93 30.574 7.93 48.707z" fill-rule="evenodd" transform="matrix(.25665 .09553 -.19233 .31933 130.78 147.656)" stroke-width="1pt" fill="#005b00"/><path d="M421.37-20.327c0 18.133-4.567 31.716-11.328 45.31-5.627-18.125-9.06-27.177-9.06-45.31s6.83-35.114 12.458-48.707c2.23 12.46 7.93 30.574 7.93 48.707z" fill-rule="evenodd" transform="matrix(.1511 .2088 -.32015 .22153 178.5 103.35)" stroke-width="1pt" fill="#005b00"/><path d="M421.37-20.327c0 18.133-4.567 31.716-11.328 45.31-5.627-18.125-9.06-27.177-9.06-45.31s6.83-35.114 12.458-48.707c2.23 12.46 7.93 30.574 7.93 48.707z" fill-rule="evenodd" transform="matrix(.08064 .08696 -.13518 .1633 250.677 102.64)" stroke-width="1pt" fill="#005b00"/><path d="M421.37-20.327c0 18.133-4.567 31.716-11.328 45.31-5.627-18.125-9.06-27.177-9.06-45.31s6.83-35.114 12.458-48.707c2.23 12.46 7.93 30.574 7.93 48.707z" fill-rule="evenodd" transform="matrix(.10706 .0058 -.07804 .17177 238.095 136.41)" stroke-width="1pt" fill="#005b00"/><path d="M421.37-20.327c0 18.133-4.567 31.716-11.328 45.31-5.627-18.125-9.06-27.177-9.06-45.31s6.83-35.114 12.458-48.707c2.23 12.46 7.93 30.574 7.93 48.707z" fill-rule="evenodd" transform="matrix(-.00985 .1446 -.1359 .08223 287.376 81.127)" stroke-width="1pt" fill="#005b00"/><path d="M421.37-20.327c0 18.133-4.567 31.716-11.328 45.31-5.627-18.125-9.06-27.177-9.06-45.31s6.83-35.114 12.458-48.707c2.23 12.46 7.93 30.574 7.93 48.707z" fill-rule="evenodd" transform="matrix(.06685 .1146 -.25067 .15258 220.686 115.6)" stroke-width="1pt" fill="#005b00"/><path d="M421.37-20.327c0 18.133-4.567 31.716-11.328 45.31-5.627-18.125-9.06-27.177-9.06-45.31s6.83-35.114 12.458-48.707c2.23 12.46 7.93 30.574 7.93 48.707z" fill-rule="evenodd" transform="matrix(.13006 .22263 -.33376 .2001 207.033 70.112)" stroke-width="1pt" fill="#005b00"/><path d="M269.59 155.24c1.133 0 28.318-94.016 118.94-147.25" transform="matrix(.3531 -.1964 .1413 .2796 111.763 227.82)" stroke-width="2.37" fill="none"/><path d="M454.22-169.28c0 4.066-3.804 7.363-8.495 7.363s-8.496-3.297-8.496-7.363 3.803-7.363 8.495-7.363 8.495 3.297 8.495 7.363z" fill-rule="evenodd" transform="matrix(.18086 -.1006 .08832 .17475 200.34 224.62)" stroke-width="1pt" fill="red"/><path d="M454.22-169.28c0 4.066-3.804 7.363-8.495 7.363s-8.496-3.297-8.496-7.363 3.803-7.363 8.495-7.363 8.495 3.297 8.495 7.363z" fill-rule="evenodd" transform="matrix(.18086 -.1006 .08832 .17475 211.123 218.258)" stroke-width="1pt" fill="red"/><path d="M454.22-169.28c0 4.066-3.804 7.363-8.495 7.363s-8.496-3.297-8.496-7.363 3.803-7.363 8.495-7.363 8.495 3.297 8.495 7.363z" fill-rule="evenodd" transform="matrix(.1871 -.10406 .06634 .13125 166.81 232.696)" stroke-width="1pt" fill="red"/><path d="M454.22-169.28c0 4.066-3.804 7.363-8.495 7.363s-8.496-3.297-8.496-7.363 3.803-7.363 8.495-7.363 8.495 3.297 8.495 7.363z" fill-rule="evenodd" transform="matrix(.1871 -.10406 .06634 .13125 169.928 231.343)" stroke-width="1pt" fill="red"/><path d="M454.22-169.28c0 4.066-3.804 7.363-8.495 7.363s-8.496-3.297-8.496-7.363 3.803-7.363 8.495-7.363 8.495 3.297 8.495 7.363z" fill-rule="evenodd" transform="matrix(.1871 -.10406 .06634 .13125 168.137 234.245)" stroke-width="1pt" fill="red"/><path d="M454.22-169.28c0 4.066-3.804 7.363-8.495 7.363s-8.496-3.297-8.496-7.363 3.803-7.363 8.495-7.363 8.495 3.297 8.495 7.363z" fill-rule="evenodd" transform="matrix(.20095 -.11177 .09813 .19416 178.726 246.532)" stroke-width="1pt" fill="red"/><path d="M454.22-169.28c0 4.066-3.804 7.363-8.495 7.363s-8.496-3.297-8.496-7.363 3.803-7.363 8.495-7.363 8.495 3.297 8.495 7.363z" fill-rule="evenodd" transform="matrix(.20095 -.11177 .09813 .19416 181.023 244.154)" stroke-width="1pt" fill="red"/><path d="M454.22-169.28c0 4.066-3.804 7.363-8.495 7.363s-8.496-3.297-8.496-7.363 3.803-7.363 8.495-7.363 8.495 3.297 8.495 7.363z" fill-rule="evenodd" transform="matrix(.20095 -.11177 .09813 .19416 181.6 245.298)" stroke-width="1pt" fill="red"/></g><path d="M336.61 308.27c0 17.717-35.433 212.6 53.15 265.75 35.433 17.716 88.582-17.717 88.582 0l-17.71-141.74-124.02-124.01z" fill-rule="evenodd" transform="matrix(.58397 0 0 .6167 9.63 -10.178)" stroke="#000" stroke-width="1pt" fill="#0000c4"/><path d="M372.05 343.7c0 17.717-17.716 159.45 35.433 194.88 35.433 35.433 124.02 25.822 124.02 25.822l-70.87-132.12-88.58-88.58z" fill-rule="evenodd" stroke="#000" stroke-width="1pt" fill="#e10000" transform="matrix(.58397 0 0 .6167 9.63 -10.178)"/><path d="M183.85 158.08l94.775 99.91 1.662-1.573-94.776-99.91-1.66 1.574z" fill-rule="evenodd"/><path d="M460.63 184.25l17.716 35.433V237.4c-.865-1.305 0 17.716-17.716 17.716-17.717 0-17.717-35.433-17.717-35.433s-17.716 35.433-17.716 70.866 17.716 53.15 17.716 53.15-2.61-36.704 17.717-35.434c20.328 1.27 17.716 17.716 17.716 17.716v35.433h17.717v-141.73l17.717-35.433-27.136-53.15-26.014 53.15z" fill-rule="evenodd" transform="matrix(.13547 -.14145 .1042 .10908 86.353 192.154)" stroke="#000" stroke-width="1pt" fill="#cececc"/><path d="M557.82 95.67l-26.323 70.865 17.717 53.15-35.433-17.716 35.434 53.148v35.433h17.716V255.12l35.433-53.15-35.433 17.717 17.717-53.15L557.82 95.67z" fill-rule="evenodd" transform="matrix(.1043 -.15996 .13947 .09256 113.987 183.828)" stroke="#000" stroke-width="1pt" fill="#cececc"/><path d="M422.53 136.96c0 2.068-1.958 3.746-4.37 3.746-2.413 0-4.372-1.678-4.372-3.746s1.96-3.747 4.37-3.747c2.414 0 4.372 1.68 4.372 3.747zm-6.244 7.91c0 35.8 20.917 187.81 22.582 191.56.14 4.44-4.718 6.382-7.077.832-6.55-17.342-20.743-159.91-21.332-193.22-.244-13.734 3.76-14.8 8.326-14.57 3.76.21 8.325 3.725 8.325 7.91 0 4.995-5.83 8.74-10.824 7.492z" fill-rule="evenodd" transform="matrix(.40084 0 0 .31023 43.75 69.797)" stroke="#000" stroke-width="1pt" fill="#e10000"/><path d="M422.53 136.96c0 2.068-1.958 3.746-4.37 3.746-2.413 0-4.372-1.678-4.372-3.746s1.96-3.747 4.37-3.747c2.414 0 4.372 1.68 4.372 3.747zm-6.244 7.91c31.488 61.414 48.722 166.77 50.387 170.52.14 4.44-4.718 6.382-7.077.832-2.48-3.315-12.667-100.18-49.138-172.18-.244-13.734 3.76-14.8 8.326-14.57 3.76.21 8.325 3.725 8.325 7.91 0 4.995-5.83 8.74-10.824 7.492z" fill-rule="evenodd" transform="matrix(.37814 .09083 -.15072 .29265 76.052 38.157)" stroke="#000" stroke-width="1pt" fill="#0000c4"/><path d="M422.53 136.96c0 2.068-1.958 3.746-4.37 3.746-2.413 0-4.372-1.678-4.372-3.746s1.96-3.747 4.37-3.747c2.414 0 4.372 1.68 4.372 3.747zm-6.244 7.91c0 35.8 20.917 187.81 22.582 191.56.14 4.44-4.718 6.382-7.077.832-6.55-17.342-20.743-159.91-21.332-193.22-.244-13.734 3.76-14.8 8.326-14.57 3.76.21 8.325 3.725 8.325 7.91 0 4.995-5.83 8.74-10.824 7.492z" fill-rule="evenodd" transform="matrix(.5122 0 0 .5047 -24.608 83.057)" stroke="#000" stroke-width="1pt" fill="#e10000"/><path d="M422.53 136.96c0 2.068-1.958 3.746-4.37 3.746-2.413 0-4.372-1.678-4.372-3.746s1.96-3.747 4.37-3.747c2.414 0 4.372 1.68 4.372 3.747zm-6.244 7.91c31.488 61.414 48.722 166.77 50.387 170.52.14 4.44-4.718 6.382-7.077.832-2.48-3.315-12.667-100.18-49.138-172.18-.244-13.734 3.76-14.8 8.326-14.57 3.76.21 8.325 3.725 8.325 7.91 0 4.995-5.83 8.74-10.824 7.492z" fill-rule="evenodd" transform="matrix(.4832 .14777 -.1926 .4761 16.668 31.577)" stroke="#000" stroke-width="1pt" fill="#0000c4"/><g fill-rule="evenodd"><path d="M370.454 290.834l72.423 76.485 1.277-1.644-72.423-76.485-1.276 1.644zM320 303.334l94.778 99.908 1.662-1.572-94.777-99.91-1.662 1.574z"/><path d="M478.35 60.236v88.583l17.717 88.582 17.717-88.583V60.235H478.35z" transform="matrix(.06855 -.0679 .0888 .09015 374.974 429.55)" stroke="#000" stroke-width="4.104" fill="gray"/><path d="M478.35 60.236v88.583l17.717 88.582 17.717-88.583V60.235H478.35z" transform="matrix(.06855 -.0679 .0888 .09015 399.413 390.524)" stroke="#000" stroke-width="4.104" fill="gray"/></g><g fill-rule="evenodd" stroke-width="1pt"><path d="M301.18 272.84s-17.716 336.61 53.15 336.61 106.3-35.433 106.3-35.433l-.86-185.03-158.59-116.15z" transform="matrix(-.4486 0 0 .64428 567.648 -59.764)" stroke="#000" fill="#ffdf00"/><path d="M344.46 304.2c0 17.717-7.846 269.82 27.587 269.82s88.583-17.717 88.583-17.717l-.86-167.31-115.31-84.79z" transform="matrix(-.4486 0 0 .64428 567.648 -59.764)" stroke="#000" fill="#0000c4"/><path d="M367.52 321.16c0 17.717 4.525 217.42 39.958 217.42h53.15l-.86-149.59-92.248-67.833z" transform="matrix(-.4486 0 0 .64428 567.648 -59.764)" stroke="#000" fill="#e10000"/><path d="M433.814 116.02l-72.423 76.485-1.276-1.642 72.423-76.485 1.277 1.642z"/><g stroke="#000" fill="#005b00"><path d="M428.17-16.928s81.556 90.618 111.01 154.05c29.45 63.432 54.37 156.32 54.37 156.32s2.266-86.086-36.246-163.11c-52.1-97.42-131.4-142.73-129.13-147.26z" transform="matrix(.16363 -.0737 .08124 .35234 309.515 210.983)"/><path d="M428.17-16.928s81.556 90.618 111.01 154.05c29.45 63.432 54.37 156.32 54.37 156.32s2.266-86.086-36.246-163.11c-52.1-97.42-131.4-142.73-129.13-147.26z" transform="matrix(.19615 -.05114 .06894 .3895 291.488 182.575)"/><path d="M428.17-16.928s81.556 90.618 111.01 154.05c29.45 63.432 54.37 156.32 54.37 156.32s2.266-86.086-36.246-163.11c-52.1-97.42-131.4-142.73-129.13-147.26z" transform="matrix(.23154 .14132 -.02875 .3974 296.476 69.407)"/><path d="M428.17-16.928s81.556 90.618 111.01 154.05c29.45 63.432 54.37 156.32 54.37 156.32s2.266-86.086-36.246-163.11c-52.1-97.42-131.4-142.73-129.13-147.26z" transform="matrix(.2459 .0299 .0165 .4407 274.402 114.91)"/><path d="M428.17-16.928s81.556 90.618 111.01 154.05c29.45 63.432 54.37 156.32 54.37 156.32s2.266-86.086-36.246-163.11c-52.1-97.42-131.4-142.73-129.13-147.26z" transform="matrix(.18078 .16752 -.03688 .3549 329.99 66.977)"/><path d="M428.17-16.928s81.556 90.618 111.01 154.05c29.45 63.432 54.37 156.32 54.37 156.32s2.266-86.086-36.246-163.11c-52.1-97.42-131.4-142.73-129.13-147.26z" transform="matrix(.22642 .0014 .03432 .4028 280.582 141.86)"/><path d="M428.17-16.928s81.556 90.618 111.01 154.05c29.45 63.432 54.37 156.32 54.37 156.32s2.266-86.086-36.246-163.11c-52.1-97.42-131.4-142.73-129.13-147.26z" transform="matrix(.1978 -.071 .06663 .385 290.136 196.837)"/><path d="M428.17-16.928s81.556 90.618 111.01 154.05c29.45 63.432 54.37 156.32 54.37 156.32s2.266-86.086-36.246-163.11c-52.1-97.42-131.4-142.73-129.13-147.26z" transform="matrix(.19816 -.03267 .05012 .39507 292.685 166.778)"/><path d="M428.17-16.928s81.556 90.618 111.01 154.05c29.45 63.432 54.37 156.32 54.37 156.32s2.266-86.086-36.246-163.11c-52.1-97.42-131.4-142.73-129.13-147.26z" transform="matrix(.22235 .15205 -.0507 .3772 305.082 65.513)"/><path d="M428.17-16.928s81.556 90.618 111.01 154.05c29.45 63.432 54.37 156.32 54.37 156.32s2.266-86.086-36.246-163.11c-52.1-97.42-131.4-142.73-129.13-147.26z" transform="matrix(.2439 .05283 -.00466 .44124 278.88 97.666)"/><path d="M428.17-16.928s81.556 90.618 111.01 154.05c29.45 63.432 54.37 156.32 54.37 156.32s2.266-86.086-36.246-163.11c-52.1-97.42-131.4-142.73-129.13-147.26z" transform="matrix(.17007 .16924 -.0571 .32964 338.96 70)"/><path d="M428.17-16.928s81.556 90.618 111.01 154.05c29.45 63.432 54.37 156.32 54.37 156.32s2.266-86.086-36.246-163.11c-52.1-97.42-131.4-142.73-129.13-147.26z" transform="matrix(.24033 .01517 .0085 .41137 276.427 128.016)"/></g><path d="M301.18 272.84s-35.433 336.61 70.866 336.61c88.583 0 88.583-53.15 106.3-53.15l-17.72-124.02-159.45-159.44z" transform="matrix(-.58397 0 0 .6167 630.39 -10.178)" stroke="#000" fill="#ffdf00"/><path d="M336.61 308.27c0 17.717-35.433 212.6 53.15 265.75 35.433 17.716 88.582-17.717 88.582 0l-17.71-141.74-124.02-124.01z" transform="matrix(-.58397 0 0 .6167 630.39 -10.178)" stroke="#000" fill="#0000c4"/><path d="M372.05 343.7c0 17.717-17.716 159.45 35.433 194.88 35.433 35.433 124.02 25.822 124.02 25.822l-70.87-132.12-88.58-88.58z" transform="matrix(-.58397 0 0 .6167 630.39 -10.178)" stroke="#000" fill="#e10000"/><path d="M456.172 158.08l-94.777 99.91-1.66-1.573 94.775-99.91 1.662 1.574z"/><path d="M460.63 184.25l17.716 35.433V237.4c-.865-1.305 0 17.716-17.716 17.716-17.717 0-17.717-35.433-17.717-35.433s-17.716 35.433-17.716 70.866 17.716 53.15 17.716 53.15-2.61-36.704 17.717-35.434c20.328 1.27 17.716 17.716 17.716 17.716v35.433h17.717v-141.73l17.717-35.433-27.136-53.15-26.014 53.15z" transform="matrix(-.13547 -.14145 -.1042 .10908 553.662 192.154)" stroke="#000" fill="#cececc"/><path d="M557.82 95.67l-26.323 70.865 17.717 53.15-35.433-17.716 35.434 53.148v35.433h17.716V255.12l35.433-53.15-35.433 17.717 17.717-53.15L557.82 95.67z" transform="matrix(-.1043 -.15996 -.13947 .09256 526.034 183.828)" stroke="#000" fill="#cececc"/><path d="M422.53 136.96c0 2.068-1.958 3.746-4.37 3.746-2.413 0-4.372-1.678-4.372-3.746s1.96-3.747 4.37-3.747c2.414 0 4.372 1.68 4.372 3.747zm-6.244 7.91c0 35.8 20.917 187.81 22.582 191.56.14 4.44-4.718 6.382-7.077.832-6.55-17.342-20.743-159.91-21.332-193.22-.244-13.734 3.76-14.8 8.326-14.57 3.76.21 8.325 3.725 8.325 7.91 0 4.995-5.83 8.74-10.824 7.492z" transform="matrix(-.40084 0 0 .31023 596.286 69.797)" stroke="#000" fill="#e10000"/><path d="M422.53 136.96c0 2.068-1.958 3.746-4.37 3.746-2.413 0-4.372-1.678-4.372-3.746s1.96-3.747 4.37-3.747c2.414 0 4.372 1.68 4.372 3.747zm-6.244 7.91c31.488 61.414 48.722 166.77 50.387 170.52.14 4.44-4.718 6.382-7.077.832-2.48-3.315-12.667-100.18-49.138-172.18-.244-13.734 3.76-14.8 8.326-14.57 3.76.21 8.325 3.725 8.325 7.91 0 4.995-5.83 8.74-10.824 7.492z" transform="matrix(-.37814 .09083 .15072 .29265 563.963 38.157)" stroke="#000" fill="#0000c4"/><path d="M422.53 136.96c0 2.068-1.958 3.746-4.37 3.746-2.413 0-4.372-1.678-4.372-3.746s1.96-3.747 4.37-3.747c2.414 0 4.372 1.68 4.372 3.747zm-6.244 7.91c0 35.8 20.917 187.81 22.582 191.56.14 4.44-4.718 6.382-7.077.832-6.55-17.342-20.743-159.91-21.332-193.22-.244-13.734 3.76-14.8 8.326-14.57 3.76.21 8.325 3.725 8.325 7.91 0 4.995-5.83 8.74-10.824 7.492z" transform="matrix(-.5122 0 0 .5047 664.61 83.057)" stroke="#000" fill="#e10000"/><path d="M422.53 136.96c0 2.068-1.958 3.746-4.37 3.746-2.413 0-4.372-1.678-4.372-3.746s1.96-3.747 4.37-3.747c2.414 0 4.372 1.68 4.372 3.747zm-6.244 7.91c31.488 61.414 48.722 166.77 50.387 170.52.14 4.44-4.718 6.382-7.077.832-2.48-3.315-12.667-100.18-49.138-172.18-.244-13.734 3.76-14.8 8.326-14.57 3.76.21 8.325 3.725 8.325 7.91 0 4.995-5.83 8.74-10.824 7.492z" transform="matrix(-.4832 .14777 .1926 .4761 623.323 31.577)" stroke="#000" fill="#0000c4"/></g><g fill-rule="evenodd" stroke="#000" stroke-width="1pt"><path d="M478.35 698.03c17.717 10.652 37.09 8.268 53.15 0V556.3h-35.433c17.717 53.15 17.717 106.3-17.717 141.73z" fill="#e10000" transform="matrix(.58397 0 0 .6167 9.63 -10.178)"/><path d="M513.78 609.45c0 88.582-42.466 108.27-42.466 125.98 17.716 0 29.465-8.248 42.466-19.685 17.716-17.717 19.426-107.68 17.716-106.3H513.78z" transform="matrix(.35112 0 0 .6938 123.482 -89.932)" fill="#0000c4"/><path d="M478.35 609.45c-.81 51.77-44.794 99.64-36.497 110.24 9.474 9.475 36.497-21.654 71.93-3.937 17.717-17.717 19.427-107.68 17.717-106.3h-53.15z" transform="matrix(.35112 0 0 .6938 123.482 -89.932)" fill="#0000c4"/><path d="M513.78 609.45c0 88.582-40.696 94.47-40.696 118.09 17.717 0 40.603-12.912 40.696-11.79 17.716-17.718 19.426-107.68 17.716-106.3H513.78z" transform="matrix(.35112 0 0 .46255 112.515 51.004)" fill="#ffdf00"/><path d="M478.35 609.45c-.81 51.77-43.73 95.702-35.433 106.3 9.474 9.475 35.433-17.717 70.867 0 17.716-17.717 19.426-107.68 17.716-106.3h-53.15z" transform="matrix(.35112 0 0 .46255 112.515 51.004)" fill="#ffdf00"/><path d="M478.35 698.03c17.717 10.652 37.09 8.252 53.15-.015v-141.72h-35.433c17.717 53.15 17.717 106.3-17.717 141.73z" transform="matrix(-.58397 0 0 .6167 630.39 -10.168)" fill="#e10000"/><path d="M513.78 609.45c0 88.582-42.466 108.27-42.466 125.98 17.716 0 29.465-8.248 42.466-19.685 17.716-17.717 19.426-107.68 17.716-106.3H513.78z" transform="matrix(-.35112 0 0 .6938 516.533 -89.925)" fill="#0000c4"/><path d="M478.35 609.45c-.81 51.77-44.794 99.64-36.497 110.24 9.474 9.475 36.497-21.654 71.93-3.937 17.717-17.717 19.427-107.68 17.717-106.3h-53.15z" transform="matrix(-.35112 0 0 .6938 516.533 -89.925)" fill="#0000c4"/><path d="M513.78 609.45c0 88.582-40.696 94.47-40.696 118.09 17.717 0 40.603-12.912 40.696-11.79 17.716-17.718 19.426-107.68 17.716-106.3H513.78z" transform="matrix(-.35112 0 0 .46255 527.506 51.014)" fill="#ffdf00"/><path d="M478.35 609.45c-.81 51.77-43.73 95.702-35.433 106.3 9.474 9.475 35.433-17.717 70.867 0 17.716-17.717 19.426-107.68 17.716-106.3h-53.15z" transform="matrix(-.35112 0 0 .46255 527.506 51.004)" fill="#ffdf00"/></g><g stroke="#000" fill-rule="evenodd"><path d="M198.56 77.952l-89.676 35.434 89.676 35.434 44.837-17.717 22.42 17.717 22.418 35.433 22.42-35.433 22.418-17.717 1201.9-.002V95.668l-1201.9.002-22.42-17.718c0-17.716 4.704-35.433 22.42-35.433 17.717 0 54.242-.003 89.675-.003 0-17.716-44.838-53.15-134.51-53.15-89.675 0-134.51 35.434-134.51 53.15l89.675.002c17.716 0 22.42 17.716 22.42 35.432l-22.44 17.717-44.84-17.717z" transform="matrix(.1205 0 0 .22426 217.804 324.36)" stroke-width="4.467" fill="#908f8a"/><path transform="matrix(.27808 0 0 .2741 216.058 334.596)" stroke-width="1.838" fill="#b74d00" d="M204.35 95.67h336.61v17.718H204.35z"/><path transform="matrix(.27808 0 0 .2741 216.058 334.596)" stroke-width="1.838" fill="#b74d00" d="M204.35 77.955h336.61v17.717H204.35zM204.35 60.237h336.61v17.717H204.35z"/><path transform="matrix(.27808 0 0 .2741 216.058 334.596)" stroke-width="1.838" fill="#b74d00" d="M204.35 42.522h336.61V60.24H204.35zM204.35 24.805h336.61v17.717H204.35z"/><path transform="matrix(.27808 0 0 .2741 216.058 334.596)" stroke-width="1.838" fill="#b74d00" d="M204.35 7.09h336.61v17.716H204.35zM204.35-10.628h336.61V7.09H204.35z"/><path d="M423.23 60.236l137.8 124.02h19.686l-137.8-124.02H423.23z" transform="matrix(.25027 0 0 .2741 171.893 315.176)" stroke-width="3.255" fill="#908f8a"/><path d="M423.23 60.236l137.8 124.02h19.686l-137.8-124.02H423.23z" transform="matrix(.25027 0 0 -.2741 171.893 382.188)" stroke-width="3.255" fill="#908f8a"/><path d="M425.2 60.236v124.02h17.716V60.236H425.2z" transform="matrix(.2781 0 0 .2741 159.565 315.176)" stroke-width="3.087" fill="#908f8a"/><path d="M423.23 60.236l137.8 124.02h19.686l-137.8-124.02H423.23z" transform="matrix(.25027 0 0 .2741 216.234 315.176)" stroke-width="3.255" fill="#908f8a"/><path d="M423.23 60.236l137.8 124.02h19.686l-137.8-124.02H423.23z" transform="matrix(.25027 0 0 -.2741 216.234 382.188)" stroke-width="3.255" fill="#908f8a"/><path d="M425.2 60.236v124.02h17.716V60.236H425.2z" transform="matrix(.2781 0 0 .2741 238.395 315.176)" stroke-width="3.087" fill="#908f8a"/><path d="M425.2 60.236v124.02h17.716V60.236H425.2z" transform="matrix(.2781 0 0 .2741 203.906 315.176)" stroke-width="3.087" fill="#908f8a"/><path d="M425.2 60.236v124.02h17.716V60.236H425.2z" transform="matrix(.2781 0 0 .2741 194.054 315.176)" stroke-width="3.087" fill="#908f8a"/></g><g><g stroke="#000" stroke-width="1pt" fill="#ffdf00" fill-rule="evenodd"><path d="M655.51 396.85c0 88.016-55.56 159.45-124.02 159.45-68.456 0-124.02-71.433-124.02-159.45 0-88.015 55.56-159.45 124.02-159.45 68.457 0 124.02 71.433 124.02 159.45zm-17.717 0c0 78.237-47.622 141.73-106.3 141.73-58.677 0-106.3-63.495-106.3-141.73 0-78.236 47.622-141.73 106.3-141.73 58.677 0 106.3 63.497 106.3 141.73z" transform="matrix(.58397 0 0 .6167 9.63 -10.178)"/><path d="M579.75 249.94c-14.836-8.072-31.144-12.537-48.258-12.537s-33.422 4.465-48.257 12.537l6.893 16.323c12.716-7.175 26.695-11.144 41.364-11.144s28.648 3.968 41.364 11.143l6.894-16.323z" transform="matrix(.58397 0 0 .6167 9.63 -10.178)"/><path d="M579.75 249.94c-14.836-8.072-31.144-12.537-48.258-12.537s-33.422 4.465-48.257 12.537l6.893 16.323c12.716-7.175 26.695-11.144 41.364-11.144s28.648 3.968 41.364 11.143l6.894-16.323z" transform="matrix(.58397 0 0 -.6167 9.75 479.308)"/></g><path d="M382.086 234.56c0 48.273-27.792 87.404-62.076 87.404-34.283 0-62.076-39.133-62.076-87.405 0-48.274 27.792-87.405 62.076-87.405 34.283 0 62.076 39.133 62.076 87.404z" fill-rule="evenodd" fill="#a7cfff"/><path d="M637.8 396.85c1.133 26.658-4.634 39.635-11.89 67.356-1.912 2.98-10.966-6.537-16.447-11.236s-7.812 4.24-14.537-3.046c-6.725-7.284-11.05 2.058-15.983-4.095s-51.3-7.057-51.366-7.586c4.59-2.276 28.27.152 24.474-11.193-4.3-11.72-31.093-.35-34.69-15.364-2.44-14.907-53.567-15.543-57.22-19.225 1.444 5.665 39.728 8.05 38.814 22.57-.833 5.916-37.693 7.645-41.247 12.652-3.045 6.295 28.927-1.707 30.114 6.032-.077 3.185-4.704.068-21.357 4.99-8.326 2.46 15.454 10.33 6.41 14.637-9.045 4.308-28.26 6.188-27.433 7.998 2.94 8.908 44.693 19.536 40.535 21.065-14.754 6.56-22.552 10.872-29.627 14.652-19.24-25.653-31.146-61.087-31.146-100.2 31.716-11.405 24.968-13.735 83.645-13.735s77.98 2.33 128.95 13.735z" fill-rule="evenodd" stroke="#000" stroke-width="1pt" fill="#afff7b" transform="matrix(.58397 0 0 .6167 9.63 -10.178)"/><path d="M637.8 396.85c-8.07 0-16.454 3.4-25.07 3.4-8.617 0-17.465-3.4-26.466-3.4s-19.287 4.532-28.512 4.532c-9.224 0-17.388-4.53-26.676-4.53-9.287 0-18.566 3.397-27.755 3.397s-18.288-3.4-27.218-3.4-17.69 3.4-26.2 3.4-16.77-3.4-24.7-3.4c0-19.56 2.976-38.197 8.358-55.15 27.075 2 11.042-15.716 27.075-15.716 8.655 0 17.434 1.86 25.238 9.788 2.447 0 14.48-11.373 27.912-9.788 13.432 1.586 8.492 27.272 26.37 28.637 9.063 6.797 14.393 11.134 26.78 13.872 17.716 1.606 68.35-2.5 68.704-.194a188.08 188.08 0 0 1 2.16 28.552z" fill-rule="evenodd" stroke="#000" stroke-width="1pt" fill="#fff" transform="matrix(.58397 0 0 .6167 9.63 -10.178)"/><path d="M549.85 473.94c0-5.664 13.512-9.462 13.512-18.524s-11.914-9.35-12.38-17.86c-.2-3.46 10.32-7.046 14.915-7.335s8.493 7.42 8.493 9.12-4.662-4.192-8.578-4.378-12.313.63-12.313 2.33c0 3.4 14.85 7.598 13.717 18.925-1.132 11.327-12.71 14.657-12.71 18.055s5.056 12.86 5.056 12.86-9.713-7.53-9.713-13.192z" fill-rule="evenodd" transform="matrix(.20502 0 0 .48127 217.226 59.504)" stroke="#000" stroke-width="1pt"/><path d="M549.85 473.94c0-5.664 13.512-9.462 13.512-18.524s-11.95-9.348-12.38-17.86c-.946-3.962 11.814-6.544 16.41-6.833s9.985 7.92 9.985 9.62-5.41-5.195-9.325-5.38-14.553.63-14.553 2.33c0 3.398 14.85 7.597 13.717 18.924-1.132 11.327-12.71 14.657-12.71 18.055s5.056 12.86 5.056 12.86-9.713-7.53-9.713-13.192z" fill-rule="evenodd" transform="matrix(-.20502 0 0 .48127 445.826 59.116)" stroke="#000" stroke-width="1pt"/><path d="M332.965 264.846c0 1.333-.65 2.413-1.454 2.413-.803 0-1.454-1.08-1.454-2.414s.65-2.413 1.455-2.413c.804 0 1.455 1.08 1.455 2.413zM352.245 272.3h.468v19.513h-.468zM356.456 270.82h.467v19.513h-.467z" fill-rule="evenodd"/><path fill-rule="evenodd" d="M352.597 281.23l.004-.493 3.978.684-.004.495z"/><path d="M497.26 478.07s26.052 11.328 31.716 18.124c5.664 6.797 3.398 6.796 3.398 6.796l57.77 2.266c0-3.398 10.193-3.4 12.46-11.328 2.264-7.93 2.264-10.194 2.264-10.194l-18.123 5.664 1.132-10.194H572.02l-2.266 10.194-33.982-1.133 2.266-27.186-6.796 1.132-1.133 26.053c-1.134 0-31.718-7.93-32.85-10.195z" fill-rule="evenodd" transform="matrix(.58397 0 0 .6167 6.986 -9.48)" stroke="#000" stroke-width="1pt" fill="#b74d00"/><path d="M440.53 316.28s37.645-11.214 92.11-10.413 92.11 12.815 91.31 12.815-10.414-18.422-10.414-18.422-38.446-10.412-81.697-11.213c-43.253-.8-80.898 8.01-80.097 8.81L440.53 316.28z" fill-rule="evenodd" stroke="#fede00" stroke-width="1pt" fill="#fede00" transform="matrix(.58397 0 0 .6167 9.63 -10.178)"/><path fill-rule="evenodd" fill="#38a9f9" d="M306.072 169.855l13.562-.262.137 7.9-13.56.264zM274.775 174.155l-4.783 7.784 16.165-1.992-1.297-7.783-10.085 1.99zM288.553 171.16l13.518-1.187.62 7.876-13.516 1.187zM337.39 170.354l-13.538-.91-.475 7.888 13.537.91zM366.572 175.307l4.918 9.69-14.642-3.614 1.63-7.714 8.094 1.637zM354.836 172.49l-13.453-1.83-.957 7.837 13.453 1.832z"/><path fill-rule="evenodd" stroke="#000" stroke-width="1pt" fill="#ffdf00" d="M532.64 323.49l-2.58-13.47-7.54 11.46 2.77-13.43-11.34 7.7 7.7-11.35-13.43 2.78 11.45-7.54-13.47-2.58 13.47-2.58-11.45-7.53 13.43 2.77-7.7-11.35 11.34 7.7-2.77-13.43 7.54 11.46 2.58-13.47 2.57 13.47 7.54-11.46-2.77 13.43 11.35-7.7-7.71 11.35 13.44-2.77-11.46 7.53 13.47 2.58-13.47 2.58 11.46 7.54-13.44-2.78 7.71 11.35-11.35-7.7 2.77 13.43-7.54-11.46z" transform="matrix(.58397 0 0 .6167 9.63 -10.178)"/><path d="M547.05 293.86c0 9.29-6.634 16.82-14.818 16.82s-14.818-7.53-14.818-16.82 6.634-16.82 14.818-16.82 14.818 7.53 14.818 16.82z" fill-rule="evenodd" transform="matrix(.56818 0 0 .51393 18.266 21.755)" stroke="#000" stroke-width="1pt" fill="#ffdf00"/><path d="M320.676 170.552c0 .545-1.257.988-2.807.988s-2.807-.443-2.807-.988 1.256-.988 2.806-.988 2.806.442 2.806.988zM326.755 170.55c0 .547-.943.99-2.105.99s-2.105-.443-2.105-.99c0-.544.942-.987 2.105-.987s2.105.443 2.105.988z" fill-rule="evenodd"/><path d="M529.43 297.86l.8.8c-1.9-1.9-.995-1.125 1.603 3.204 2.393-.495 3.09-1.39 4.806-2.403" transform="matrix(.5599 -.17518 .16588 .5913 -26.715 90.63)" stroke="#000" stroke-width="1pt" fill="none"/><path d="M527.83 304.27l.8.8c-1.9-1.9-1.123-.994 3.205 1.603 4.027.544 8.092-1.196 10.412-4.005" transform="matrix(.58397 0 0 .6167 8.696 -10.178)" stroke="#000" stroke-width="1pt" fill="none"/><path d="M283.255 193.765s.936 7.903-5.145 17.782c-6.08 9.88-5.145 6.42-5.145 6.42s2.806 5.434 2.34 5.434-4.678-4.938-4.678-4.938l-5.146 5.433s4.68-8.397 4.21-8.397-1.402-2.963-1.402-2.963l3.74-1.482s5.614-10.373 5.614-9.88-16.838 11.362-16.838 11.362l22.45-18.77zM286.998 196.73c-.468 0 2.34 7.905 4.678 11.856 2.338 3.952 2.338 8.89 2.338 8.89l7.952 3.953-10.29-15.313 6.548 2.47-11.226-11.856zM286.998 217.477s5.613 5.927 6.08 7.903.468 6.42.468 6.42l-2.338-4.938-3.274 4.445s2.34-6.915 1.87-7.41-3.74 2.47-3.74 2.47 1.402-3.95 1.402-4.445 0-2.964-.468-4.445zM258.933 231.303c1.87-1.48 5.612-2.47 5.612-2.47s-2.34 3.952-2.806 3.952-1.872 0-2.807-1.482zM323.48 209.57s12.16 7.41 12.16 7.904-7.952-3.457-7.952-3.457l-4.21-4.446zM301.498 194.258c.936.494 17.774 14.324 17.306 14.324s-7.483-3.95-7.483-3.457v3.457l-3.74-7.903-.937 2.963-5.145-9.385zM305.703 216.484l4.677 9.385 4.677-.99s-8.886-8.396-9.354-8.396zM320.21 210.557c0 1.482.466 8.89.466 8.89s2.807 2.47 2.807 1.977-2.807-10.373-3.274-10.867z" fill-rule="evenodd" fill="#b7e1ff"/></g><g><path d="M182.612 89.522s20.98-11.61 44.87-20.254c23.886-8.644 50.68-14.325 54.222-14.325 7.077 0 19.21 17.783 21.233 17.783 2.022 0 10.11-4.94 20.223-4.94s16.178 7.904 18.2 7.904h18.2c2.023 0-6.066-19.76 0-18.77 3.034.493 28.817 4.445 52.833 12.225 24.014 7.78 58.103 21.515 58.103 21.515s-55.714 7.44-70.488 5.24c-2.022.988-.1 13.07-2.933 7.754-4.656-1.063-21.744-3.727-24.778-3.727s-8.69 3.427-16.78 5.402c-8.088 1.976-18.2 4.94-18.2 4.94l13.146 20.747-16.178 7.903s-10.11-23.71-14.156-23.71-6.067 16.795-11.123 15.807c-5.056-.988-7.078-15.808-11.123-19.76-4.044-3.95-25.368-5.39-33.458-7.366-8.09-1.975-21.144-3.5-28.222-5.476-7.078-1.976-14.155 4.94-17.19 4.94-3.032 0 4.046-5.928 1.012-6.916s-5.055 2.964-7.078 2.964c-2.022 0-23.256-3.952-25.278-4.94-2.022-.988 5.056-4.94 3.034-4.94h-8.09z" fill-rule="evenodd" fill="#984000"/><path d="M462.91-64.94c0 21.15-20.5 38.298-45.79 38.298S371.327-43.79 371.327-64.94s20.5-38.298 45.79-38.298S462.91-86.09 462.91-64.94z" fill-rule="evenodd" transform="matrix(.21884 0 0 .26368 231.628 96.518)" stroke="#772600" stroke-width="3.706" fill="gray"/><path d="M284.74-59.945c6.66-6.66 14.987-16.65 36.633-16.65 4.996-1.666 4.996-11.657 16.65-11.657 11.657 0 8.327 9.99 16.653 13.32 8.325 3.33 76.596-3.33 76.596-3.33s6.66 4.996 6.66 11.657c0 6.66-4.995 11.656-6.66 11.656s-68.27-4.995-73.266-3.33c-4.995 1.666-8.326 3.33-19.982 3.33-11.655 0-14.986-11.655-23.31-11.655-8.327 0-16.653-1.665-29.974 6.66z" fill-rule="evenodd" transform="matrix(.27356 0 0 .3192 205.39 100.652)" stroke="#772600" stroke-width="5.25" fill="#984000"/><path d="M487.88-76.597h26.642c9.572.114 12.873 3.005 21.647 3.33h23.31c8.476-.314 12.952-2.295 21.648-3.33 14.504-.175 9.555-1.306 6.66-9.99-2.625-6.565-2.95-9.61-6.66-13.322-1.396-7.944-4.655-10.77-4.996-19.98-1.527-7.027-4.342-11.753-1.665-19.983 3.84 5.647 5.387 7.97 14.986 8.326 10.045 0 13.937-.206 19.982 3.33 4.663 4.89 10.886 3.33 19.982 3.33 7.677 1.406 8.96 5.313 14.986 8.326 7.103 3.935 11.694 4.995 21.646 4.995 7.967 1.422 14.88 2.578 19.98 4.995 4.25 5.08 10.952 6.338 19.983 6.66 5.05 0 8.95-.524 13.32-1.665 7.678.37 15.474 0 24.978 0 6.163 7.21 7.587 9.862 18.317 9.99 7.338 5.155 13.527 6.037 19.982 8.327h24.976c8.928.687 11.79 4.35 19.98 6.66 8.115 3.768 15.722 6.35 21.648 8.326 5.89 1.28 13.574 1.665 21.646 1.665 6.183 3.175 13.61 3.46 18.317 6.66 6.89 1.477 16.302 3.215 21.647 4.996 8.816 1.168 12.187 3.94 19.98 4.995 6.704 1.915-2.223 3.56-6.66 4.995-9.826-.364-10.536-3.946-19.98-4.995-5.024-2.94-12.64-2.548-19.982-4.996h-1.666c6.6 3.903 12.948 6.422 9.99 13.32-8.49 0-15.366-1.097-23.31-1.665-8.385-1.616-12.227-3.33-21.647-3.33 9.394-2.264 11.854.27 18.315 3.33 2.396 8.06-2.725 4.996-11.656 4.996-7.61-2.73-12.174-5.983-21.648-6.66h-19.98c9.89.366 11.976 4.1 18.315 8.326.518 2.59-.132 2.472-4.995 3.33-5.16-4.478-11.89-6.013-19.982-8.326-7.88-.28-16.217-.965-23.31-3.33-4.868-.304-4.117-6.177 6.66 3.33 6.532 3.843 8.832 6.946 8.325 9.99-8.576-2.143-12.825-5.58-18.317-8.324-7.736-2.855-14.128-3.33-23.312-3.33-8.61-2.266.894-3.574 6.66 4.995 12.38 8.77-1.632 5.007-6.66 3.33-7.507-2.144-15.284-5.184-21.646-6.66-5.046-1.44-9.44-2.855-14.986-3.33 8.63.785 11.57 3.823 14.986 9.99 8.755 6.032-.384 3.1-8.326 1.666-5.07-4.402-11.487-6.658-14.986-11.656-8.35-4.176-8.563-8.982-3.33 1.665 1.363 3.407 1.11 10.795 1.665 11.656-6.136-6.625-4.825-8.325-11.656-8.325-4.634-3.244-11.496-5.765-14.986-9.99-6.435-.604-6.84-2.9-13.32-4.996 5.34 6.273 12.39 12.478 16.65 18.315 7.598 4.242 9.7 8.06 14.987 11.656 2.14 3.64 7.904 6.657 1.665 1.666-7.144-7.043-12.46-8.67-23.312-13.32-6.15-4.96-8.37-7.045-14.986-11.657-9.003-2.905-5.508-4.543 0 4.995 6.318 5.77 11.17 12.23 16.652 16.65 3.767 4.908 10.136 10.12 14.986 13.322 1.5 2.25 5.99 2.664 0 3.33-5.09-4.598-12.398-7.53-18.317-11.656-8.302-2.34-12.19-6.652-18.316-11.655-3.9-5.85-10.383-10.38-14.987-14.986-9.63-3.77 1.9 3.636 4.995 8.325 2.153 6.068 4.788 11.035 6.66 16.65 2.78 5.56-8.47-1.327-11.655-3.33-7.32-4.157-12.674-6.937-21.647-8.325-5.98-1.3-13.602-2.468-19.982-3.33-7.614-2.05 4.042 4.8 8.326 11.656 8.418 7.908-8.332 1.425-13.32 0-8.224-1.645-16.288-1.666-24.978-1.666-10.67.628-3.05 1.947 0 6.66 3.287 2.53 5.637 7.855 4.995 9.992-7.032-.95-13.025-3.023-21.646-3.33-6.96 2.32-15.344 1.665-23.31 1.665-.382 4.19 1.443.654 4.994 4.995 5.763 2.34 9.585 5.177 8.326 8.326H497.87c-5.29 1.447 1.14.704 5 6.663-2.16 5.403-4.95 3.332-11.655 3.332-4.545-1.818-13.598-2.636-18.317-4.996-4.69 0-4.336-1.22-8.325-1.665 14.035 9.93 7.073 7.45 14.986 14.987 1.366.456 4.523 1.665 1.664 1.665M371.32 73.265c-.997 0-3.2-5.375-6.66-9.99-2.327-6.05-5.392-2.59-8.326-11.657.348-9.402.684-11.094 0-19.982-6.863-4.783-9.714-6.27-14.986-14.986-8.46-7.078 1.236-19.063 2.845-27.85-7.375-1.638-11 11.477-22.34 16.194-8.156 5.492-.912-11.354-4.892-21.188-2.774-13.872-10.825 6.956-13.91 12.862-5.467 3.718-7.128 8.542-14.986 1.665 0-5.144 4.937-19.49 2.845-22.28-7.815 3.815-18.088 15.49-26.158 17.284-8.13-1.767 1.77-14.828 1.77-24.518-2.938-.98-14.696 25.755-19.52 26.002-4.824.248-2.713-25.993-4.972-25.428-3.542 4.96-10.65 15.43-15.576 18.948-9.454-1.22 1.398-17.435 2.845-23.427 1.628-7.168-8.905 13.75-14.502 15.102-4.1 3.554-12.237 6.072-14.986 6.66 3.24-6.13 19.076-18.712 17.935-22.278-9.21.34-23.31 12.556-31.256 13.952-5.19 0-12.387 1.758-13.32 1.665.448-7.926 19.418-14.65 22.445-19.465-9.306 1.494-27.186 9.706-32.436 16.135-6.146 1.336-13.944 3.02-19.983 0 .897-7.475 14.856-21.998 17.936-26.758-8.396 3.697-12.642 6.59-21.647 8.325-1.652 1.652-6.524 5.23-4.995 1.665 2.656-6.945 6.676-10.11 9.99-14.986-7.45 1.364-10.28 5.634-18.315 9.99-5.094.222-19.646 14.855-24.596 15.103-11.45 8.382-16.01 9.807-28.308 13.32-7.587 1.356-11.26 2.934-14.986 6.66 3.796-6.687 9.597-13.092 14.986-16.65 3.677-5.567 7.12-10.195 14.986-13.32 1.897-2.32 7.188-2.906 1.665-3.33-4.746 4.236-12.696 8.965-16.65 11.655-5.102 3.207-11.01 6.48-13.322 4.995 2.62-7.197 7.438-8.902 11.657-14.986 8.81-5.604.042-1.914-6.66 0-4.338 3.868-12.122 6.727-18.316 9.992-7.113 1.856-11.703 6.132-19.98 8.326 0 2.375 2.364-4.25 3.33-6.66 6.83-7.41 8.656-9.476 16.65-11.657 1.912-2.866 4.42-1.664-1.665-1.664-4.514 4.024-10.81 6.212-16.65 9.99-5.892 1.282-13.575 1.666-21.648 1.666-10.355 1.243-9.46 2.025 0-3.33 5.357-5.042 9.77-3.775 9.99-9.99C10.394-40.43 2.78-37.1-4.998-33.304c-6.434.19-8.133 1.665-14.985 1.665 3.298-3.415 5.277-7.633 9.99-9.99 6.896-7.663-4.377-1.478-6.66 0h-24.977c-4.465 5.58-.23.05 3.33-3.33 4.306-2.24 8.756-5.155 8.326-6.66-4.972 4.314-10.726 6.297-14.986 9.99-4.64 1.39-9.99 2.084-9.99 3.33 3.626-5.346 9.524-8.576 13.32-13.32 5.612-1.22 10.396-2.936 11.656-4.996h-23.312 16.65c8.4 0 15.63-.75 23.313-1.665 13.263-2.21-1.16-3.33-8.326-3.33-1.39-2.548 4.11-3.987 9.99-4.995 5.024-2.38 11.233-4.493 16.65-6.66 5.257-1.434 12.707-5.81 13.322-6.66-5.015.263-4.975 1.4-9.99 1.664 7.446-.574 12.8-1.666 21.646-1.666 8.028-2.58 14.906-5.41 21.647-8.326 2.936-3.588 4.24-3.33-3.33-3.33 6.713-2.158 16.238-3.193 21.647-4.995 7.872-1.687 14.9-4.253 19.982-6.66 4.876-3.316 7.69-7.176 13.32-9.99 6.528 4.437 6.602 4.994 18.318 4.994 9.41-.112 15.17-2.373 19.98-6.66 7.208-1.966 8.483-5.43 16.652-6.66 7.444 1.328 15.03 1.664 23.312 1.664 8.096-2.12 15.677-6.01 21.647-9.99 5.093-2.502 11.14-6.12 16.65-8.326 6.07 3.133 10.844 5.65 18.318 6.66 7.728-1.148 11.747-4.868 18.317-6.66 3.577-4.33 8.777-6.632 14.986-8.325 9.67-4.75 8.913 1.573 13.32 6.66 4.896 5.132 11.374 2.68 18.318 4.995 3.83 5.893 6.647 9.914 11.657 13.32 3.89 4.71 8.508 6.035 16.65 6.66 2.968 3.958.602 6.812 6.662 8.327 2.387 2.53 6.517 3.606 9.99 4.995" transform="matrix(.27356 0 0 .3192 205.39 104.902)" stroke="#772600" stroke-width="3.5" fill="none"/><path d="M468.74 30.803v.833c0-2.327-.103-1.09 1.665 3.33.595 3.64-.81 3.22-2.498 5.828-.286 3.723-.832 6.4-.832 10.823-.537 3.612-2.57 7.04-4.163 9.99-1.604 3.133-8.555 4.87-8.326 9.16-3.99 1.14-4.084-1.445-4.162-5.83-2.386-2.726-3.212-6.466-4.996-9.99-1.108-3.476-3.47-6.032-4.995-9.99-2.46-3.787-4.546-4.876-6.66-9.16-.827-2.065-.683-4.617-2.498-5.827-2.72-3.438-4.49-3.99-9.16-4.163-3.59.845-4.97 2.416-8.324 3.33-2.57.857-7.57.58-10.823 1.666-.808 1.314 1.6 1.94 2.498 4.995-2.135 1.764-2.926 4.883-4.163 7.493-1.965 2.487-3.283 3.706-4.163 7.494 1.362 2.316.2 5.387-1.666 7.493-.574 3.864-2.434 5.874-3.33 9.16-2.686 1.825-3.652 3.537-5.828 6.66-1.914 2.678-3.636 2.497-8.326 2.497-3.667-1-4.18-2.988-7.493-4.163-.352-1.056-.608-1.312-1.665-1.664" transform="matrix(.27356 0 0 .3192 205.39 104.902)" stroke="#782600" stroke-width="3.125" fill="none"/><path d="M307.65 125.534s-.455 4.955-3.643 8.258-9.794 7.157-9.794 7.157 8.882-4.222 9.793-3.304c.91.917-5.694 8.258-5.694 8.258s8.655-7.708 9.794-7.708 3.644 7.524 4.555 7.34c.912-.183-2.05-9.542-1.593-11.01.455-1.468 0-9.36 0-9.36l-3.416.368zM328.146 124.862s-.456 5.297-3.644 8.828-9.794 7.65-9.794 7.65 8.882-4.512 9.793-3.53c.913.98-5.692 8.827-5.692 8.827s8.654-8.24 9.793-8.24 3.645 8.043 4.556 7.847c.91-.196-2.05-10.2-1.594-11.77.455-1.57 0-10.004 0-10.004l-3.416.392zM299.453 76.817c0 .987-.967 1.788-2.16 1.788s-2.158-.8-2.158-1.788.966-1.787 2.16-1.787 2.158.8 2.158 1.787z" fill-rule="evenodd" fill="#812e00"/></g></svg>