<svg xmlns="http://www.w3.org/2000/svg" height="480" width="640" version="1" xmlns:xlink="http://www.w3.org/1999/xlink"><defs><linearGradient id="a"><stop stop-color="#a43907" stop-opacity=".996" offset="0"/><stop stop-color="#fff" offset="1"/></linearGradient><linearGradient id="b" y2="577.14" xlink:href="#a" gradientUnits="userSpaceOnUse" x2="470.9" gradientTransform="scale(1.003 .997)" y1="592.2" x1="444.4"/><linearGradient id="c" y2="552.83" xlink:href="#a" gradientUnits="userSpaceOnUse" x2="520.55" gradientTransform="scale(.936 1.068)" y1="562.51" x1="458.24"/><linearGradient id="d" y2="580.2" xlink:href="#a" gradientUnits="userSpaceOnUse" x2="445.28" gradientTransform="scale(1.003 .997)" y1="578.68" x1="472.38"/><linearGradient id="e" y2="558.12" xlink:href="#a" gradientUnits="userSpaceOnUse" x2="456.44" gradientTransform="scale(.936 1.068)" y1="553.74" x1="517.97"/><linearGradient id="f" y2="369.94" xlink:href="#a" gradientUnits="userSpaceOnUse" x2="646.19" y1="369.94" x1="851.78"/><linearGradient id="g" y2="508.75" xlink:href="#a" gradientUnits="userSpaceOnUse" x2="677.4" gradientTransform="scale(.823 1.215)" y1="507.23" x1="388.53"/><linearGradient id="h" y2="505.86" xlink:href="#a" gradientUnits="userSpaceOnUse" x2="556.8" gradientTransform="scale(.835 1.198)" y1="504.94" x1="579.84"/><linearGradient id="i" y2="514.33" xlink:href="#a" gradientUnits="userSpaceOnUse" x2="558.88" gradientTransform="scale(.823 1.215)" y1="512.01" x1="581.43"/><linearGradient id="j" y2="503.9" xlink:href="#a" gradientUnits="userSpaceOnUse" x2="589.77" gradientTransform="scale(.835 1.198)" y1="517.88" x1="552"/></defs><path fill="#006" d="M0 0h640v480H0z"/><path fill-rule="evenodd" fill="#006" d="M0 0h400v200H0z"/><g stroke-width="1pt"><path d="M0 0v25.563l317.14 203.07h39.92V203.07L39.92.003H0zm357.06 0v25.562L39.92 228.632H0V203.07L317.14 0h39.92z" fill="#fff"/><path d="M148.775 0v228.63h59.51V0h-59.51zM0 76.21v76.21h357.06V76.21H0z" fill="#fff"/><path d="M0 91.453v45.726h357.06V91.452H0zM160.677 0v228.63h35.706V0h-35.706zM0 228.63l119.02-76.21h26.613l-119.02 76.21H0zM0 0l119.02 76.21H92.407L0 17.043V.002zm211.427 76.21L330.447 0h26.613L238.04 76.21h-26.613zM357.06 228.63l-119.02-76.21h26.613l92.407 59.17v17.04z" fill="#c00"/></g><g><path d="M670.97 321.56c-.734.012-1.438.084-2.03.188-3.39.59-8.734 11.63-11.69 18.094-4.62 5.644-7.088 10.03-9.03 13.28-.755 1.263-1.92 2.728-1.563 4.407-6.996 1.718-7.344 7.724-7.344 10.06 0 2.48.782 3.72.782 3.72l4.187 7.843.03.094c4.458 9.216 11.058 21.626 14.75 22.656 5.244 1.462 18.822-3.55 29-12.156 16.69 6.875 38.073 12.562 61.97 12.562 23.896 0 45.248-5.69 61.938-12.563 10.18 8.606 23.758 13.618 29 12.156 3.705-1.033 10.324-13.525 14.78-22.75l4.19-7.844s.78-1.24.78-3.72c0-2.338-.377-8.344-7.375-10.062.35-1.678-.776-3.143-1.53-4.406-1.958-3.274-4.42-7.7-9.095-13.406-2.966-6.48-8.29-17.382-11.656-17.97-4.742-.825-14.97 1.58-14.97 2.407 0 .02-.057.45-.062.5l-20.54 19.4c0 .557 1.09 14.594 4.938 27-13.75 5.006-30.626 8.532-50.406 8.532-19.793 0-36.715-3.52-50.47-8.532 3.85-12.406 4.97-26.443 4.97-27l-20.53-19.4c-.005-.05-.063-.48-.063-.5 0-.723-7.83-2.675-12.968-2.593zm5.25 24.094c2.582-.032 5.332 2.095 7.594 4.47-.078.465-.157.943-.25 1.374-.624 2.872-1.696 6.663-3.188 10.625-5.87-3.43-10.66-6.996-14.312-10.312 2.228-2.37 5.806-5.596 9.594-6.124.185-.026.375-.03.563-.03zm147.56 0c.187.002.377.005.563.03 3.788.53 7.397 3.757 9.625 6.126-3.66 3.324-8.457 6.91-14.344 10.344-1.498-3.97-2.563-7.778-3.188-10.656-.094-.432-.172-.907-.25-1.375 2.265-2.38 5.006-4.5 7.594-4.47zm-166 27.375c2.73 2.09 6.296 4.475 10.594 7-1.19.755-2.456 1.316-3.78 1.624-1.766.41-3.622.33-5.5-.063-.588-1.45-1.083-3.274-1.22-5.717-.057-1.018-.08-1.966-.094-2.844zm184.47 0c-.014.877-.068 1.825-.125 2.843-.137 2.443-.6 4.267-1.188 5.72-1.88.392-3.766.47-5.53.06-1.326-.307-2.56-.868-3.75-1.624 4.3-2.525 7.862-4.908 10.593-7z" fill-rule="evenodd" transform="matrix(1.168 0 0 1.168 -389.229 -21.963)" stroke="#fff" stroke-width="10" fill="url(#b)"/><path d="M445.63 595.48s5.625-8.75 10.313-8.125c4.687.625 9.062 6.25 9.375 6.562.312.313 7.187-7.187 6.875-7.5-.313-.312-7.188-16.562-10.938-17.187s-11.847 1.196-11.847 1.82-3.778 24.43-3.778 24.43z" fill-rule="evenodd" transform="matrix(-1.478 0 0 1.544 1073.36 -525.342)" stroke="#000" stroke-width="1.16" fill="url(#b)"/><path d="M433.13 586.11c0 .625 1.875 23.75 10 31.875s21.25 13.125 25.938 11.875c4.687-1.25 15.312-24.687 15.312-24.687s-11.25 11.25-19.687 9.375c-8.438-1.875-13.438-15.938-15-22.813-1.563-6.875-.313-20.313-.313-20.313l-16.25 14.688z" fill-rule="evenodd" transform="matrix(-1.478 0 0 1.544 1073.36 -525.342)" stroke="#000" stroke-width="1.16" fill="url(#c)"/><path d="M445.63 595.48s5.625-8.75 10.313-8.125c4.687.625 9.062 6.25 9.375 6.562.312.313 7.187-7.187 6.875-7.5-.313-.312-7.188-16.562-10.938-17.187s-11.847 1.196-11.847 1.82-3.778 24.43-3.778 24.43z" fill-rule="evenodd" transform="matrix(1.478 0 0 1.544 -99.826 -525.342)" stroke="#000" stroke-width="1.16" fill="url(#d)"/><path d="M433.13 586.11c0 .625 1.875 23.75 10 31.875s21.25 13.125 25.938 11.875c4.687-1.25 15.312-24.687 15.312-24.687s-11.25 11.25-19.687 9.375c-8.438-1.875-13.438-15.938-15-22.813-1.563-6.875-.313-20.313-.313-20.313l-16.25 14.688z" fill-rule="evenodd" transform="matrix(1.478 0 0 1.544 -99.826 -525.342)" stroke="#000" stroke-width="1.16" fill="url(#e)"/><path d="M656.44 338.56c-4.742 5.785-7.274 10.257-9.25 13.562-1.976 3.306-.814 7.906 3.75 14.47 4.92 7.072 45.374 34.718 98.062 34.718 52.69 0 93.142-27.646 98.062-34.72 4.564-6.562 5.695-11.162 3.72-14.468-1.977-3.306-4.478-7.777-9.22-13.562 0 8.677-33.512 40.03-92.562 40.03s-92.562-31.353-92.562-40.03z" fill-rule="evenodd" transform="matrix(1.168 0 0 1.168 -388.04 -20.789)" stroke="#000" stroke-width="1.5" fill="url(#f)"/><path d="M467.82 625.48c.625-.937 7.187-11.875 7.187-11.875l-3.598-2.538c-1.106 3.094-5.153 4.1-5.778 7.85s2.813 7.5 2.188 6.563z" fill-rule="evenodd" transform="matrix(1.478 0 0 1.544 -98.845 -523.975)" stroke="#000" stroke-width="1.16" fill="url(#g)"/><path d="M475 622.98s1.25-5.312-2.812-5.937c-4.063-.625-6.214 2.973-5.625 1.562.654-1.567 3.125-3.125 3.437-8.437.313-5.313-.312-8.125-.312-8.125s1.562-6.876 8.125-5.938c6.562.938 6.875 5.938 6.875 7.813s-.625 2.812-.625 2.812L475 622.98z" fill-rule="evenodd" transform="matrix(1.478 0 0 1.544 -99.826 -525.342)" stroke="#000" stroke-width="1.16" fill="url(#h)"/><path d="M568.502 406.357l1.975 3.453 1.332-.832-.885-2.28.164-.447 2.317-1.446 6.07 10.61-.15.517-1.2.882.545.956 5.777-3.608-.548-.955-1.31.687-.507-.107-6.07-10.61 2.32-1.45.435.074 1.52 1.882 1.335-.833-1.975-3.454-11.148 6.96zM553.626 414.282l.48.993 1.214-.513.48.154 5.204 10.764-.164.493-1.117.716.48.992 5.685-3.002-.48-.993-1.255.537-.478-.155-2.47-5.11 5.804-3.064 2.47 5.108-.144.482-1.158.738.48.993 5.665-2.99-.48-.994-1.215.515-.478-.155-5.206-10.763.165-.494 1.115-.717-.48-.994-5.664 2.99.48.994 1.256-.535.458.165 2.147 4.44-5.804 3.065-2.147-4.44.164-.493 1.157-.74-.48-.992-5.684 3.002zM550.78 423.643l.305 1.066 1.628-.39.433.197 1.274 4.437c-.55.218-.952.368-1.168.436-3.32 1.037-6.004-.613-7.128-4.53-1.093-3.806.24-6.687 3.456-7.69.625-.197 1.238-.27 1.89-.213l.435.29 1.072 2.178 1.574-.492-1.06-3.697c-1.735.02-3.333.26-4.758.704-4.787 1.495-7.015 5.438-5.735 9.897 1.3 4.524 5.26 6.7 9.79 5.287 1.574-.492 3.083-1.296 4.575-2.402l-1.455-5.067.257-.413 1.22-.5-.306-1.066-6.3 1.967zM537.74 436.086l6.43-2.025-.32-1.063-1.474.346-.45-.24-3.485-11.578.253-.413 1.408-.563-.32-1.065-6.43 2.025.322 1.064 1.452-.337.435.196 3.485 11.58-.24.454-1.385.555.32 1.064zM502.5 441.98l11.316-1.036-.345-4.048-1.432.132-.155 2.43-.243.387-4.888.447-.5-5.882 2.738-.25.322.29.35 1.61 1.242-.115-.446-5.248-1.243.114-.072 1.65-.27.342-2.738.25-.458-5.383 4.194-.384.3.27.485 1.96 1.475-.134-.302-3.552-10.62.972.094 1.108 1.295-.004.364.286 1.028 12.057-.307.392-1.275.23.094 1.108zM485.655 426.676l.02 1.112 1.228.093.345.358.21 12.05-.332.37-1.224.133.02 1.113 5.983-.104-.02-1.113-1.27-.09-.344-.357-.1-5.72 6.112-.106.1 5.72-.31.368-1.267.134.02 1.112 5.964-.104-.02-1.11-1.23-.093-.344-.356-.21-12.05.33-.37 1.226-.135-.02-1.113-5.964.104.02 1.113 1.27.092.323.357.088 4.97-6.11.107-.088-4.97.332-.37 1.267-.136-.02-1.112-5.985.104zM472.43 426.804l-.04 4.02 1.46.017.36-2.425.343-.29 2.538.03-.12 12.353-.362.36-1.376.095-.01 1.113 6.323.076.01-1.113-1.373-.13-.357-.368.12-12.353 2.54.03.313.298.337 2.435 1.458.017.04-4.02-12.203-.146zM453.276 439.242l11.065.545.18-4.058-1.402-.07-.457 2.387-.283.35-4.78-.236.26-5.897 2.68.132.274.332.135 1.643 1.215.06.232-5.262-1.215-.06-.278 1.624-.304.302-2.678-.132.238-5.397 4.1.202.255.308.222 2.012 1.442.07.157-3.56-10.383-.512-.05 1.11 1.253.177.316.334-.533 12.088-.346.346-1.262.05-.05 1.112zM428.454 432.817l5.872 1.98.324-1.06-1.283-.55-.208-.45 3.532-11.517.407-.197 1.35.335.323-1.06-5.87-1.98-.326 1.06 1.262.546.22.408-3.532 11.516-.42.24-1.33-.33-.324 1.06zM418.015 428.76c1.072.887 2.315 1.568 3.572 1.992 3.22 1.087 5.774-.103 6.563-2.674.39-1.274.12-2.653-.773-3.837-.907-1.21-1.85-1.886-2.33-2.5-.83-1.043-1.182-1.877-.877-2.87.365-1.19 1.514-1.755 2.947-1.272.63.212 1.048.472 1.34.785l.184.396-.354 2.36 1.413.476 1.073-3.5c-1.09-.894-2.25-1.57-3.467-1.98-2.808-.947-5.205.295-5.94 2.693-.325 1.058-.18 2.275.466 3.423.62 1.09 1.43 1.77 2.082 2.467 1.156 1.248 1.625 2.264 1.268 3.43-.365 1.19-1.573 1.735-3.164 1.198-.61-.205-1.145-.506-1.635-.885l-.156-.41.48-2.698-1.493-.504-1.2 3.91zM403.93 422.752l9.993 4.994 1.673-3.664-1.265-.632-1.306 2.012-.392.207-4.317-2.16 2.43-5.323 2.42 1.21.13.416-.488 1.567 1.1.55 2.167-4.752-1.1-.55-.857 1.384-.39.155-2.42-1.208 2.224-4.874 3.704 1.85.12.387-.542 1.943 1.302.65 1.468-3.215-9.38-4.686-.46 1.003 1.09.67.166.436-4.982 10.913-.448.178-1.18-.465-.46 1.002zM402.84 405.394l-5.03-3.467-.585.93.99.82.086.492-6.33 10.067-.465.113-1.11-.63-.584.93 5.03 3.466c1.724 1.188 3.194 1.794 4.834 1.62 2.136-.213 3.956-1.458 5.363-3.695 2.503-3.98 1.8-7.89-2.198-10.646zm-2.1.076l1 .69c2.74 1.887 2.982 4.527.74 8.092s-4.663 4.393-7.402 2.505l-1-.688 6.663-10.6zM440.79 420.548l-.224 1.088 1.167.375.26.384-2.437 11.837-.396.285-1.213-.153-.224 1.088 5.686 1.256.222-1.088-1.207-.382-.25-.426 1.03-4.997.343.075c2.035.45 2.363 1.52 2.553 3.768.104 1.137.08 2.177.946 3.297.397.53 1.088.96 1.956 1.15.624.14 1.323.224 2.05.27l.22-1.068-.262-.057c-1.35-.3-1.886-.765-2.06-2.08-.153-1.194-.067-2.43-.492-3.545-.316-.813-.915-1.386-1.833-1.845 2.375.037 3.83-.988 4.25-3.03.508-2.466-.83-4.155-3.956-4.846l-6.13-1.354zm3.873 2.18l.928.205c1.955.43 2.773 1.68 2.398 3.5-.42 2.045-1.64 2.75-3.797 2.274-.22-.05-.463-.103-.72-.183l1.193-5.796zM518.245 424.62l.173 1.097 1.33-.11.404.253 1.88 11.946-.3.42-1.293.335.172 1.1 6.265-1.07-.173-1.1-1.373.12-.41-.297-.794-5.043.378-.064c2.243-.383 2.973.482 3.996 2.493.524 1.013.885 1.99 2.18 2.688.6.335 1.464.463 2.42.3.688-.118 1.433-.314 2.192-.558l-.17-1.077-.288.05c-1.488.254-2.206.032-2.868-1.122-.598-1.046-.966-2.227-1.81-3.096-.623-.63-1.447-.926-2.55-.99 2.435-.9 3.542-2.424 3.217-4.486-.39-2.49-2.38-3.53-5.824-2.942l-6.755 1.153zm4.756.5l1.023-.175c2.154-.368 3.45.47 3.738 2.307.326 2.063-.66 3.198-3.035 3.604-.245.04-.51.087-.804.113l-.92-5.85z"/><path d="M467.82 625.48c.625-.937 7.187-11.875 7.187-11.875l-3.598-2.538c-1.106 3.094-5.153 4.1-5.778 7.85s2.813 7.5 2.188 6.563z" fill-rule="evenodd" transform="matrix(-1.478 0 0 1.544 1072.425 -523.975)" stroke="#000" stroke-width="1.16" fill="url(#i)"/><path d="M475 622.98s1.25-5.312-2.812-5.937c-4.063-.625-6.214 2.973-5.625 1.562.654-1.567 3.125-3.125 3.437-8.437.313-5.313-.312-8.125-.312-8.125s1.562-6.876 8.125-5.938c6.562.938 6.875 5.938 6.875 7.813s-.625 2.812-.625 2.812L475 622.98z" fill-rule="evenodd" transform="matrix(-1.478 0 0 1.544 1073.36 -525.342)" stroke="#000" stroke-width="1.16" fill="url(#j)"/><path d="M396.85 605.91s-75.43-21.26-74.99-102.14l.58-106.91h148.82l.584 106.3c.44 80.882-74.993 102.76-74.993 102.76z" fill-rule="evenodd" fill-opacity=".996" transform="matrix(1.478 0 0 1.544 -99.382 -521.37)" stroke="#fff" stroke-width="3.867" fill="#0072c4"/><g fill-rule="evenodd"><path d="M392.202 129.085c.183 0 1.533-1.283 2.77-2.414 1.726-.864 3.323-2.08 5.077-2.896 1.307-.757 3.89-1.344 5.076-1.93 1.555-.815 2.824-1.753 4.155-3.38.16-2.16.463-3.712.463-6.277 1.836-.884 3.465-1.74 5.076-2.415 2.31-.65 2.81-1.574 5.077-1.93 1.46-.51 3.872-.485 6-.485 2.297 0 3.746 1.633 5.81 2.02 2.445.987 3.587 1.67 5.538 3.38 1.102 1.395 1.787 2.53 3.666 3.58 1.488.763 2.88 1.92 4.616 2.413 1.906 1.105 3.597 1.744 5.077 3.38 1.356.965 1.915 2.397 3.23 3.38 1.526 1.265 2.972 2.404 4.617 3.38 1.978 1.326 3.938 2.333 7.14 2.044 1.697-.1 3.522-.295 5.54.082 2.258 0 4.462-.04 6.462.483 2.354 0 4.26.318 6.462.482 2.063.386 4.166.483 6.462.483 2 .522 4.203.482 6.462.482H509.9c2.353 0 4.734.096 6.463.484 2.33 0 4.332-.217 6.462-.483 2.507 0 4.418-.46 6.924-.482h7.847c2.014.552 4.59.93 6 1.93 1.847.528 2.767 1.404 4.615 1.933 1.415.726 3.564 1.875 4.615 3.38 1.303 1.36 2.64 3.313 3.693 5.31 1.285 1.854 1.774 3.974 2.77 6.276.527 2.206.894 4.304.922 6.76.5 2.093.463 4.396.463 6.76-.528 2.2-.643 4.65-1.386 6.758-.08 2.356-.552 4.488-.924 6.277-.41 1.976-.893 3.247-.923 5.793v6.76c-.162 2.217-.647 3.845-.923 6.275-1.117 2.11-2.186 4.575-3.23 7.243-1.536 1.072-2.87 2.595-3.693 3.864-.985.61-1.555 1.533-1.385 1.93 1.845.644 1.385 1.928 1.385 4.346.24 1.86.42 4.17.923 6.277.17 2.305.662 3.714 1.384 5.31.728.952.87.484-.923.484-1.333 1.047-2.683.5-3.23-1.448-1.076-1.3-1.43-2.873-1.845-5.31-.256-2.236-.613-4.415-1.386-5.794-.237-2.72-.96-2.693-3.693-2.897-1.3-1.152-3.016-1.448-5.54-1.448-2.51 0-2.723-.257-2.768 2.414v6.76c-.436 1.96-1.388 3.547-1.848 5.31-1.376 1.01-2.093 2.702-3.692 3.862-.762 2.193-1.87 2.574-4.155 2.897-.8-.998-2.102-2.3-2.77-3.38 1.293-2.168 2.42-2.495 3.232-4.827.98-1.922 1.557-3.17 2.307-4.828-.985-1.517-1.87-2.202-2.77-4.346-.758-1.168-1.81-3.682-2.306-5.31-1.515-.53-3.902-.614-5.078-1.45-2.24-.52-2.865 1.932-5.537 1.932h-6.462c-2.857 0-3.57 1.596-6 1.45-.714.23-2.445-.103-5.078 0-1.93.67-4.252.48-6.462.48-2.34-.028-4.257-.567-6-.964-2.12-.58-4.23-1.17-6.46-1.448-2.712 0-3.72.216-5.54 1.448-1.44.854-3.527 2.807-5.078 3.862-.656 1.602-.997 4.314-1.846 6.277-.49 1.885-1.288 3.08-1.847 4.83-.625 1.633-1.216 3.314-1.385 5.793-.156 3.254-.867 2.855-2.77 1.93-.792-1.346-2.056-2.827-2.768-4.345.42-2.456.892-3.678.923-6.275-.45-1.874-1.498-1.814-2.77-.484 0 2.527.117 4.476-.923 5.793-.52 1.994-1.356 2.856-2.77 3.862-.69 1.792-2.225 2.613-3.692 3.38-.234-.08 0-.647 0-1.93-1.106-2.208-.08-4.04-.08-6.76.03-2.438-.11-4.054.597-6.277 0-2.34-1.085-4.567-1.44-6.276-.858-1.794-1.353-2.68-3.692-3.38-1.644-.654-4.013-1.538-5.078-2.897-1.34-1.738-2.195-2.454-4.153-3.38-2.125-.77-3.156-1.473-4.617-2.414-1.427-1.573-2.586-2.256-3.232-4.344-.962-1.484-1.127-4.242-1.845-6.277-.157-2.12-.764-4.09-1.384-5.795-.274-2.12-.607-3.67-1.384-5.793-.257-1.986-.83-4.062-1.384-6.276 0-2.363.038-4.668-.463-6.76v-6.76c-.333-1.95-.455-4.807-.924-6.276 0-2.627-.28-4.11-.923-5.794-1.056-1.706-1.142-2.47-2.77-2.897-1.175 1.5-3.113 2.11-5.538 2.414-1.694-.386-4.085-.638-6-1.45-1.852-.455-3.117-1.187-4.617-1.93-.82-1.263-1.8-2.692-2.77-3.863-.286-2.52-.835-3.818-.922-6.275 0-1.843.044-.865 1.846-3.38z" fill="#bcbcbc"/><path d="M419.54 146.48c.11-.11.22-.226.328-.34-.742.775-.47.402 1.305-.342.993-.625 2.88-1.727 3.59-2.39.853-.39 2.21-.9 2.937-1.705.91-.97 1.82-1.776 2.938-2.732 1.292-1.096 2.498-1.456 3.917-2.39 1.846-.137 2.515-.928 4.242-.34 1.62.367 2.292.378 3.59-1.025 1.31-.84 2.752-1.654 3.265-3.073v-2.047c-.025 2.23-.427 2.954-1.96 3.754-1.067 1.223-2.397 2.607-2.936 3.755-1.037 1.502-1.257 2.343-2.285 3.073-.843 1.076-2.29 1.644-2.61 3.413.466.814.04 1.26.98 1.367.944.813 1.928.467 3.263 0 1.328-1.537 1.924-2.53 2.61-4.096 1.097-1.496 1.71-2.208 2.286-3.413 1.133-.824 1.854-1.465 2.284-2.732 1.313-.768 2.393-1.577 3.263-2.39.976-.627 1.493-1.137 2.937-1.366-.02 1.833-.292 2.7-.98 3.755-.324 1.902-.26 2.803.328 4.098.937.58.77 1.084 1.305 2.39.532-1.13.802-3.415.98-4.78v-.342c0 1.493.135 3.474-.327 4.44.022 1.99.464 2.878.98 4.437.55.752.937 1.24 1.63 1.707.066-1.97.558-3.267.654-5.12.455 1.43.303 3.32.653 4.78.118 1.606.7 2.85 1.306 4.096.743.46.995 1.814 1.304.683.772-2.402.792-5.03 1.306-7.512.093-1.258.193-3.132.652-4.095l-.652 4.096c.093-1.258.193-3.132.652-4.095v-.34c.305 1.797.593 3.534.653 5.46 0 1.538-.1 3.103.327 4.44 1.085-.503 1.714-1.682 2.285-3.074.87-1.65 1.465-2.38 2.61-3.753l-2.61 3.754c.87-1.65 1.465-2.38 2.61-3.753v-.34c-.18 1.573-.326 3.056-.326 4.777 0 1.575-.017 3.36.327 4.44.385 1.81.91 2.145.98 4.095 0 .95-.124 1.92.327 2.39 1.406.367 1.41-.452 1.632-2.39.016-2.203.58-3.705.65-5.804 0-2.59.366.315.653 1.366.66 1.52.864 2.872.98 4.437 0 .95-.124 1.92.325 2.39 1.262-.523 1.76-1.997 2.612-2.733.65-1.617 1.322-2.33 1.958-3.413 1.69-.353 1.61-1.05 1.632-3.073 0-1.632-.128-3.35.327-4.78.523-1.482 1.016-3.134 1.305-4.436.61-.365 1.27.538 1.63 1.366.716 1.1.654 2.705.654 4.437.315 1.51.942 2.69 1.632 4.097.818 1.578 1.483 2.534 2.285 3.415.344 1.08.326 2.863.326 4.436 1.27-1.445 1.515-3.598 1.63-5.803-.17-1.5-.2-3.368-.65-4.78-.053-1.503-.322-3.056-.654-4.096-1.102-.53-1.276-1-.327-2.39 1.05-.91 2.184-.558 3.916-.342.876.917 1.237 1.406 1.306 3.413 0 1.82.077 3.217.653 4.44.638.982 1.272 1.657 1.63 3.414.5.428.888 1.12 1.633.34.41-1 .65-3.06.98-4.096.318-1.297.892-1.933 1.63-2.39 0 1.9-.02 3.065.654 4.438.64 1.525 1.082 2.098 1.632 3.756.695.485.784 1.53 1.632 2.047.2-1.603.326-3.44.326-5.46v-4.78c.12-1.628.514-2.543.98-3.756 1.05 1.31.98 1.854.98 3.756 1.073-.4 1.253-1.172 1.63-2.39.766-.674.976-.99 1.305.682.23 1.786.665 3.395.98 5.122.67.788 1.447 2.696 2.284 3.414.576.977 1.22 1.92 1.96 2.732.508 1.123.638 1.71 1.958 2.047 0-2.31.077-4.627-.326-6.827 0-1.962-.428-2.662-.653-4.44-.545-1.176-.865-2.91-.654-3.412 1.53 1.517 2.22 2.398 2.938 4.096.765 1.64 1.41 2.744 1.957 4.44.756.646 2.092 2.59 2.612 3.413 1.166 1.04 1.733 2.126 2.938 3.072.623.587 1.94.914 2.285.682-.06-2.002-.365-3.72-.98-5.46-.02-1.912-.46-2.95-.98-4.098-1.282-1.11-2.255-1.865-2.936-3.416-.506-.432-.605-.755-.654-1.706 1.876 1.553 3.186 2.937 4.57 4.78.935 1.212 1.41 1.762 2.61 2.39.65.728 2.546 1.637 3.917 2.048.822 1.09 1.92 1.718 3.264 2.05l-3.264-2.05c.822 1.09 1.92 1.718 3.264 2.05v.34c-.164-2.135-.948-3.696-1.96-5.463-.85-1.868-1.628-2.56-2.937-3.756-.853-1.352-1.81-2.15-3.262-3.07-.9-1.06-2.25-2.82-2.938-3.416 1.39-.873 3.026.593 4.57 1.367 1.273 1.38 2.464 3.18 3.263 4.096.87 1.755 1.536 2.84 2.937 4.438 1.406.836 2.383 1.66 3.59 2.733 1.87.518 1.125-.167.654-1.707-.646-1.927-.07-1.958 1.305-.683.908.647 1.92 1.726 3.262 2.39.58.752 1.456 1.17 2.285.683.346-.482.326-.428.326-1.024-.686-2.12-1.324-3.77-2.937-4.44-.74-.942-1.94-2.063-2.937-3.072-.65-1-1.408-1.576-1.96-2.73l1.96 2.73c-.65-1-1.408-1.576-1.96-2.73h-.325c1.97.072 2.67.573 4.24 1.366 1.12.407 2.328 1.475 2.94 2.388.636.845 1.655 1.754 2.284 2.732 1.002.772 2.11 1.65 3.263 2.39 1.086 1.424 1.28 2.35 1.306 4.44.625.964.737 2.94.977 4.094-.24 1.878-.882.404-.978-.683-.277-1.507-.852-1.43-1.96-1.024 0 2.063.228 2.627.98 4.097-.204 1.41-.672 2.44-1.306 3.415-.762.454-.926-1.004-1.632-1.707-.075-2.112-.67-2.344-1.96-3.415v1.366c.73 1.456 1.498 2.785 1.634 4.78.503 1.52.652 2.482.652 4.437 0 1.67.027 3.3-.326 4.78 0 1.852-.306 2.646-.326 4.44v9.557c-.252 1.21-.327 2.783-.327 4.438l.326-4.438c-.252 1.21-.327 2.783-.327 4.438v.34c-.62-1.714-1.296-3.267-1.633-5.12-1.057-1.047-1.73-2.126-2.285-3.413-.25-1.466-.406-3.255-.653-4.44-.46-1.202-.947-2.486-1.96-1.706-.4 2.545.106 4.06.98 6.486.513 1.608.456 2.872.98 4.44.756 1.803 1.364 2.063 0 4.095-.674 1.083-1.035 1.426-1.306 2.73-1.207.633-1.51.914-1.63 2.39-.407-1.327-1.394-2.883-1.96-4.438-.584-1.634-1.307-3.314-1.632-4.778-.79-1.145-1.72-2.994-2.61-3.757-.82-1.103-1.998-2.942-2.612-4.097-1.25-1.457-1.526-2.3-2.61-3.072-.28-.68-.612-1.533-1.306-1.024 0 1.633-.128 3.35.327 4.778.33 2.014.91 3.13.98 5.122v3.756c-.784-1.924-1.622-3.64-2.285-5.463-.713-1.02-1.41-3.005-2.285-3.756-.555-1.324-.988-2.423-1.632-3.413-.167-.992-.606-.98-.98-1.707.023 1.936.61 2.614.98 4.096.637 1.3.84 3.48.653 4.097-.822-2.393-1.566-5.01-2.61-7.17-.99-1.402-1.956-3.205-2.612-4.438-.97-1.172-1.97-1.21-2.936-2.048-.882-.437-1.725-.926-2.285-1.707.257 1.8.927 2.924 1.306 4.438.214 1.717.97 3.092 1.305 4.44-.363 2.335-.89-.648-1.305-1.708-.345-1.922-.98-2.99-1.632-4.097-.874-.623-1.67-1.728-2.61-2.39-.917-.368-.654.066-.654 1.365 0 2.112.077 3.507.653 4.78.65 1.002.652 2.307.652 4.096-.058 1.682-.326 3.03-.326 4.78v2.733c-.75-1.452-1.46-2.276-1.96-4.097-1.132-1.55-1.467-2.69-2.284-4.438-.724-.304-1.902-.556-2.61 0 .127 1.728.89 2.488.98 4.438-1.302 1.333-1.067 1.713-1.96-.342-.743-1.556-1.61-1.483-2.61-2.39-1.638-.213-1.118-1.262-1.632-2.73 0-1.315.13-2.642-.327-3.756-1.788 0-2.815-.065-3.915 1.025-.52 1.08-.336 3.034 0 4.437v4.78c-.373 1.196-1.11 1.26-1.306 2.732-.63 1.456-.84 3.065-1.306 4.097-1.162 1.048-.657 1.18-1.305-.684V180.28c0-1.856.268-2.76.327-4.437-.676-1.416-.86-1.68-2.938-1.708-.506.883-.314 2.52 0 3.415 0 1.654.075 3.23.326 4.437 0 1.814.214 2.912.326 4.44-.062 1.808-.4 3.25-1.305 4.096-1.178.308-.13 1.057-1.306 1.366-1.18-.593-2.566-1.398-3.588-2.39-1.27-.406-2.465-.684-4.244-.684-2.163-.028-2.2-.29-2.937-2.05-.66-1.88-.973-3.515-1.305-5.462-.718-1.597-.886-2.687-1.306-4.437-.55-1.043-1.134-1.83-1.958-2.39-.472 1.726-.917 3.17-.98 5.12-.382.8-.46 2.835-.652 3.756-.656-1.01-.913-2.998-1.306-4.437-.618-2.07-1.147-3.415-3.264-2.732-2.196.028-2.258.09-2.285 2.39.946 1.482 1.956 2.92 2.612 4.096v4.78c0 1.973.115 2.545-1.306 3.073-.54-2.05-1.687-4.005-2.937-5.804-.17-1.393-.6-1.026-1.957-1.026-.908 0-1.836-.128-2.285.342 0 1.19.1 2.84 0 3.073-.786.144-1.103-.01-1.63-.684-.57.993-.14 2.393 0 3.756-.416 1.518-.91 2.906-1.633 3.754-.145-.454-.47-.34 0-.34-2.24-.862-3.992-1.393-5.874-2.05-1.133.148-1.955 1.19-2.61 2.05-1.66.556-2.394 1-4.245 1.023-1.775 0-2.64.28-4.243.34-1.154.263-2.66.342-4.242.342-.877-.26-2.41-.27-2.938-.683.674-1.007 1.424-1.515 1.96-3.073.892-.636 1.73-1.452 2.61-2.39.86-.613 1.87-1.883 2.61-2.73.51-1.645 1.21-1.93 2.285-2.733 1.94.076 2.32.692 4.243 1.025 1.88.71 2.92.92 3.917-.343 1.56-.66 2.882-1.69 4.57-2.05 1.306-.652 2.143-1.287 3.263-2.047 1.388-.836 2.05-1.695 3.264-2.73.347-1.392 1.33-2.468.98-4.098-1.767-.462-2.888-.276-3.918.683-1.43 1.178-1.7 1.667-3.265 2.732-1.35.385-1.93.98-3.59 1.366-1.364.476-3.008.34-4.57.34-1.426 0-3.32-.14-4.242.343 1.452-.978 3.196-1.995 4.57-2.39 1.317-.886 1.815-1.334 3.59-1.366.824-1.08 1.674-1.105 1.957-2.732.553-2.02-1.204-1.38-2.61-.683-1.326.244-2.79 1.184-3.917 1.707-1.088.38-2.68.663-4.243.683-.412-.615.322-1.106.653-2.048 1.524-.54 1.77-.74 1.958-2.39-1.727.24-2.387.808-3.916 1.024-1.666.437-3.394.63-5.22.684h-4.57c-1.605-.062-2.47-.342-4.243-.342-1.3-.68-1.304-1.002-1.304-3.073 1.023-1.178 2.02-1.023 3.915-1.023 1.462-.72 2.598-1.1 3.592-1.708 1.18-.256 1.988-.76 1.632-1.366h-4.57c-1.76-.745-.08-1.087.98-1.708 1.587 0 3.225.095 4.243.683 1.963-.077 2.646-.698 4.242-2.05 1.25-1.03 1.863-1.688 3.263-2.39 1.006-1.11 1.955-1.722 2.61-2.73 1.344-1.28 2.233-1.988 2.94-3.073.863-.475 1.39-1.09.978-1.707-2.045.25-2.872.994-4.242 2.05-.796.79-1.57 1.502-2.612 2.047-1.47.873-2.385 1.227-4.242 1.365-1.675 0-2.963-.28-4.57-.342-1.772-.185-.14-.598.327-1.364.686-.48 1.22-1.542.654-2.39-1.365-.476-3.007-.342-4.57-.342h-4.568c-1.726-.066-2.455-.46-3.59-1.024-.353-.958.062-.683 1.305-.683 1.574-.062 2.69-.276 4.244-.683 1.535-.437 1.727-.948 1.957-2.73-1.504 0-3.208.017-4.24-.343h-2.94zM391.272 138.74c-.287-2.52-.836-3.818-.924-6.275 0-1.843.045-.865 1.847-3.38.183 0 1.533-1.283 2.77-2.414 1.726-.864 3.322-2.08 5.077-2.896 1.307-.757 3.89-1.344 5.076-1.93 1.556-.815 2.825-1.753 4.155-3.38.16-2.16.463-3.712.463-6.277 1.836-.884 3.465-1.74 5.076-2.415 2.31-.65 2.81-1.574 5.078-1.93 1.46-.51 3.87-.485 6-.485 2.296 0 3.745 1.633 5.81 2.02 2.444.987 3.586 1.67 5.537 3.38 1.102 1.395 1.788 2.53 3.666 3.58 1.488.763 2.88 1.92 4.616 2.413.014 1.743.384 1.442-.86 1.442-.13 1.786-.558 1.674-2.284 1.707-1.324-.72-2.267-1.69-2.938-2.733.653-1.773.22 1.436 0 2.05-.84.69-1.338 1.425-2.285.682-.53-1.667-.978-2.818-.978-4.78-.248-2.133-.844-.585-1.305.342-.442 1.72-.24 2.343.326 3.754-1.664 0-2.94-.158-4.243-.34-1.21-.303-2.572.068-3.917.68-1.71 1.075-1.177 1.083-.327 2.392 1.507.444 2.59 1.28 3.916 2.048 1.507-.3 3.08-.635 4.57-1.024 1.555-.542 2.98-.198 4.568 0 .79.412 1.826.496 2.285 1.024 0 1.055.084 2.16-.327 2.732-.68.45-1.323 1.7-2.285 2.047-1.44.825-2.948 1.344-4.568 1.707-2 .076-2.73.515-4.244 1.366-.248 1.726-.752 2.212-2.285 2.73-1.524.667-2.737 1.026-4.567 1.026-.908 0-1.836.128-2.285-.342 1.453-1.66 1.89-2.44 2.61-4.097.284-.69.874-1.134.328-1.707-1.934.075-2.44.063-2.61 2.048-.22 1.8-.91 2.1-2.286 2.732.37-1.666.432-2.945.98-4.44-1.156.264-2.66.343-4.245.343-.988.628-1.4.872-.98 2.05-1.31.457-2.907.175-4.567 0-1.387-.076-.622-.705-1.632-1.366-.662-1.3-1.423-1.617-2.938-1.708-.752.94-2.145 1.33-2.938 2.05-1.43.498-2.34.084-3.59-.684-1.63.05-1.41.576-.978 1.707.622.433-.04.906.98 1.024.937.85 1.74 1.024 3.588 1.024 1.415-.37 2.973-.34 4.57-.34 1.61.048 1.306.43 1.306 2.047-1.053.746-2.588.683-4.244.683-1.574-.196-2.782-.604-3.915-1.024-1.53-.115-2.752-.407-3.917 0-.526.582-2.11.837-.327 1.024.702.66 4.48.342 4.747 1.466.89.99.693 2.29-.83 2.29-.924-.484-1.638-.365-2.285 0-1.087.284-2.378.077-4.274.22 2.478.203-1.798-2.692-2.768-3.863z" fill="#fefefe"/><path d="M401.58 127.37c-.107 0-1.082.678-1.957 1.365-1.435.768-2.966 2.075-3.917 2.732-.75.6-.745.86-1.63 1.024 1.554-.22 2.247-.615 3.588-1.364 1.696-.204 3.338-.564 4.243-1.366.85-.297-.063-1.658-.326-2.39zM416.602 111.317c.188 0 .57 1.068 1.304 1.707.47 1.31.903 2.236.98 3.756.4-1.668 1.084-3.01 1.305-4.78-.507-.9-.54-1.32-1.957-1.366 0 .923.108.32-1.63.683z" fill="#bcbcbc"/><path d="M349.36 417.73c-.494 0 .87-.492 1.326-.663.364-.767.653-1.31 1.326-1.767 1.107.085 1.65.404 2.21 1.104.93.254 1.265.697 2.43.884.434.366 1.02.408 0 .663-.692.367-1.563.443-2.65.443-1.14.082-1.955.333-2.653.663-1.48 0-1.243.05-1.99-1.326z" transform="matrix(1.478 0 0 1.544 -109.567 -519.992)" stroke="#000" stroke-width=".875" fill="#c4c4c2"/><path d="M422.466 111.657v.34c0-.92-.02-.45.326 1.367.54 1.145.653 2.373.653 4.098.857-.64 1.572-1.916 1.96-3.073 0-2.697-.366-2.538-2.94-2.733zM434.548 150.916h.326c-.96 0-.42.058 1.306-1.025 1.116-.778 2.03-1.93 3.59-2.39 1.51-1.24 2.674-1.82 4.242-2.388.765-.367 1.44-1.005 2.285-.34-.242 1.683-.52 2.32-1.958 3.07-.744.974-1.914 1.542-2.938 2.05-1.06.487-2.23.512-2.61 1.706-1.776.818-1.995.68-4.244-.682zM440.75 160.82c.583-.46 2.627-2.594 3.59-3.414 1.09-1.503 2.192-2.653 3.264-3.414.952-1.465 2.17-2.446 2.938-3.756.907-1.148 1.575-2.12 2.61-3.413 0 1.492-.134 3.47.326 4.437 0 2.063-.227 2.627-.977 4.097-.74 1.21-1.293 2.01-2.937 2.732-1.483.82-2.372 1.11-3.59 2.046-.93.598-1.897 1.193-2.938 1.707-.934.42-.506.237-2.284-1.024zM430.634 168.668h.326c-.96 0-.42.058 1.306-1.025 1.393-1.457 2.502-1.963 4.243-2.73 1.324-.108 2.927-.452 3.916-1.026.79-.145 1.338-.647 1.957 0 1.025 1.45 1.307 1.86-.326 2.732-.782.693-2.16 1.39-3.263 1.706-.815.703-2.428.746-3.917 1.024-1.334 0-2.075.158-2.61-.682l2.61.682c-1.334 0-2.075.158-4.243-.682zM444.665 168.668v-.342c0 .953-.04.448.653-1.366 1.223-1.91 1.684-2.963 3.264-3.414.74-.936 2.022-1.18 3.59-1.707.59 1.025.137 2.22 0 3.413-.426 1.275-1.59 2.174-2.284 3.073-1.018.723-1.433 1.418-2.938 1.707-1.245 0-.585-.032-2.285-1.365z" fill="#bcbcbc"/><path d="M412.746 124.246c0 .943-.73 1.707-1.632 1.707-.9 0-1.632-.764-1.632-1.707 0-.943.73-1.707 1.632-1.707.9 0 1.632.763 1.632 1.706z"/></g><g stroke-opacity=".996" fill-rule="evenodd" fill-opacity=".996" stroke="#002b0d" stroke-width="1pt" fill="#005120"><path d="M351.79 479.6h.884c-2.77 0-1.115-.185 3.535 3.535 1.947-1.623 1.924-1.842 3.535.884.93 1.55 1.203-.16 2.65-1.768.7 3.21 1.146 6.578 3.537 3.535 2.73 0 5.59-.227 7.07.884 1.79 3.326 1.205-.563 2.653.885 3.892.467 3.818-3.338 8.057-4.322 2.635 3.293 3.79.76 7.072-.883 2.438.682 4.736 4.38 5.2.785 1.996-3.256 2.17-2.98 3.536 0 1.94 1.748 2.76-.874 4.42-1.767 2.958 1.73 6.258 1.97 10.606.884.736 2.944 2.592 1.667 4.42.883 3.91 1.643 5.273 2.146 9.722 0 2.204-2.604.956.073 2.65 1.768 3.297-1.023 2.387-1.24 6.19-.884 3.82 0 4.13-.093 5.302-2.652 1.92 1.92 2.614 3.304 5.303.884 4.12.12 2.846.52 5.304-.884 1.818 4.026 2.245 1.117 4.42 2.65-1.433 3.632-3.633 5.335-6.188 7.072-1.7 2.816-2.764 5.857-6.188 7.072-2.498 2.548-5.16 4.025-7.955 6.187-3.832.957-8.05.883-12.375.883H388.03c-2.64 1.32-6.96 1.948-10.608 2.65-4.075 0-8.694.05-11.49-.883-1.895-1.894-5.22-4.01-7.07-6.187-1.875-1.51-1.93-4.46-3.537-6.187-1.48-2.53-1.936-6.486-3.535-8.84V479.6z" transform="matrix(1.477 0 0 1.544 -103.105 -521.247)"/><path d="M437.52 487.56v.884c0-2.47.11-1.158-1.768 3.535-.38 1.14-1.212 1.407-2.652 1.767M429.57 491.09h.884c-3.273 3.09-5.476 4.515-6.188 7.955l6.188-7.955c-3.273 3.09-5.476 4.515-6.188 7.955M417.19 486.68c0 .08-.124 3.153-.884 4.42M413.66 492.86v.884-.884zM406.59 487.56h.884-.884c.294 0 .59 0 0 0zM357.09 487.56c.422 0 2.16 2.806 4.42 4.42-.563 2.585-1.427 5.577 0 7.954M364.16 492.86c.422 0 2.16 2.807 4.42 4.42l-4.42-4.42c.422 0 2.16 2.807 4.42 4.42v.884c0-2.73-.227-5.59.883-7.072.983 1.663 2.224 4.337 2.652 1.768 4.978-.178 7.38-1.576 10.607-2.65 0 1.3-.21.674.884 1.766M443.71 488.44h.884c-1.667 1.39-2.946 4.222-4.42 6.187M407.47 485.79h7.07" transform="matrix(1.477 0 0 1.544 -103.105 -521.247)"/></g><path d="M413.313 239.25c-15.698 0-20.9 16.404-36.598 16.404-.302 0-.588-.025-.883-.037v.993c-.06 11.37.835 21.963 2.465 31.852 14.48-1.057 19.86-16.405 35.016-16.405 15.697 0 20.936 16.442 36.634 16.442s20.936-16.443 36.634-16.443 20.937 16.442 36.635 16.442 20.936-16.443 36.634-16.443c15.115 0 20.51 15.24 34.904 16.367 1.725-10.154 2.636-21.063 2.575-32.772v-.037c-.296.012-.582.037-.884.037-15.698 0-20.9-16.405-36.598-16.405s-20.936 16.405-36.634 16.405-20.936-16.405-36.634-16.405-20.936 16.405-36.634 16.405-20.936-16.405-36.634-16.405zM413.313 303.29c-12.212 0-18.086 9.898-27.476 14.307 3.28 9.044 7.245 17.277 11.66 24.828 4.46-3.372 9.2-6.29 15.816-6.29 15.69-.012 20.927 16.396 36.628 16.396 15.7 0 20.938-16.404 36.635-16.404 15.698 0 20.937 16.405 36.634 16.405s20.936-16.404 36.634-16.404c6.47 0 11.147 2.792 15.522 6.068 4.413-7.515 8.394-15.734 11.696-24.717-9.242-4.467-15.118-14.197-27.218-14.197-15.697 0-20.936 16.405-36.634 16.405s-20.936-16.405-36.634-16.405-20.937 16.405-36.634 16.405-20.937-16.405-36.634-16.405zM486.57 367.318c-15.698 0-20.937 16.442-36.635 16.442-14.845 0-20.34-14.698-34.17-16.295 18.484 20.59 39.444 33.056 53.738 39.908 4.834-3.752 9.84 4.56 17.066 4.56 7.174 0 12.153-8.355 16.955-4.634 14.136-6.883 34.84-19.368 53.223-39.76-13.378 1.955-18.924 16.22-33.545 16.22-15.697 0-20.936-16.442-36.634-16.442z" fill-rule="evenodd" fill="#fff"/><g transform="matrix(1.177 0 0 1.177 -406.912 -18.221)"><path d="M332.54 541.35c1.744-.58 10.173-3.197 10.464-2.907.29.29 16.278 15.697 16.278 15.697l-13.37 2.616-13.372-15.406z" stroke-opacity=".996" transform="matrix(1.255 0 0 1.312 259.35 -430)" stroke="#512007" stroke-width=".475" fill="none"/><path d="M413.64 471.01c.29-4.65 8.72-31.103 8.72-31.103M416.54 471.32c0-.29 6.686-31.127 6.686-31.127M418.83 471.37c.29-1.744 5.558-31.175 5.558-31.175M413.93 467.23c1.453-.872 5.813-2.035 5.813-2.035M415.96 462.58c1.453 0 4.36-1.163 4.36-1.163M416.83 459.09c0-.29 4.36-1.163 4.36-1.163M419.45 450.95c0 .29 3.197.29 3.197.29M420.32 447.46c.58 0 3.197.58 3.197.58" stroke-opacity=".996" transform="matrix(1.063 0 0 1.029 276.8 -177.96)" stroke="#512007" stroke-width=".594" fill="none"/><path d="M413.64 471.01c.29-4.65 8.72-31.103 8.72-31.103M416.54 470.13c0-.29 6.686-29.94 6.686-29.94M419.45 467.81c.29-1.744 4.94-27.614 4.94-27.614M413.93 467.23c1.453-.872 5.813-2.035 5.813-2.035M415.96 462.58c1.453 0 4.36-1.163 4.36-1.163M416.83 459.09c0-.29 4.36-1.163 4.36-1.163M419.45 450.95c0 .29 3.197.29 3.197.29M420.32 447.46c.58 0 3.197.58 3.197.58" stroke-opacity=".996" transform="matrix(-1.255 0 0 1.762 1290.4 -502.06)" stroke="#512007" stroke-width=".41" fill="none"/><path d="M413.64 471.01c.29-4.65 8.72-31.103 8.72-31.103M416.54 470.13c0-.29 6.686-29.94 6.686-29.94M419.45 467.81c.29-1.744 4.94-27.614 4.94-27.614M413.93 467.23c1.453-.872 5.813-2.035 5.813-2.035M415.96 462.58c1.453 0 4.36-1.163 4.36-1.163M416.83 459.09c0-.29 4.36-1.163 4.36-1.163M419.45 450.95c0 .29 3.197.29 3.197.29M420.32 447.46c.58 0 3.197.58 3.197.58" stroke-opacity=".996" transform="matrix(-1.255 0 0 1.312 1321.3 -301.92)" stroke="#512007" stroke-width=".475" fill="none"/><path d="M395.32 572.16c0-.29.872-72.96.872-72.96s2.616-.29 2.616 0-.29 72.67-.58 72.96-3.2.58-2.908 0zM423.81 502.4c0 .582-.582 61.333-.582 61.333l-2.035 2.326.582-63.66h2.035z" stroke-opacity=".996" fill-rule="evenodd" transform="matrix(1.255 0 0 1.312 259.35 -430)" stroke="#512007" stroke-width=".475" fill="#dd8b59"/><path d="M363.06 560.24s2.907 29.94 36.335 29.068 42.73-30.23 42.73-30.23-14.244-.582-14.535-.582c-.29 0-11.627 13.953-26.16 13.662s-19.185-3.78-22.383-6.685c-3.197-2.907-6.104-7.267-6.104-7.267l-16.86-6.686.873 6.395 6.104 2.325zM453.3 557.13c-.29-.872-1.007-3.866-1.007-3.866v-3.488l1.61-3.532s-25.29 3.623-25.29 3.914c0-.335-.156 6.885-.156 6.885l24.843.087z" stroke-opacity=".996" fill-rule="evenodd" transform="matrix(1.255 0 0 1.312 259.35 -430)" stroke="#512007" stroke-width=".475" fill="#dd8b59"/><path d="M448.52 549.78l-.58 6.104h4.068l-.29-6.104h-3.198zM444.16 550.07l-.29 6.394 2.615-.29.29-6.104h-2.615zM439.8 556.46v-4.94l2.616-.873.29 4.94-2.906.873zM429.33 556.18l.29-3.78 2.908-.29v4.36l-3.198-.29zM361.89 559.95c.872 0 7.558 1.453 7.558 1.453l6.976 9.302" stroke-opacity=".996" transform="matrix(1.255 0 0 1.312 259.35 -430)" stroke="#512007" stroke-width=".475" fill="none"/><path d="M366.84 561.12c.29.29 6.104 19.766 34.01 19.766s34.59-22.09 34.59-22.09" stroke-opacity=".996" transform="matrix(1.255 0 0 1.312 259.35 -430)" stroke="#512007" stroke-width=".475" fill="none"/><path d="M439.8 559.37s-13.37 29.068-38.95 27.033c-25.58-2.034-29.65-11.627-31.685-16.568-2.035-4.942-3.197-9.01-3.197-9.01" stroke-opacity=".996" transform="matrix(1.255 0 0 1.312 259.35 -430)" stroke="#512007" stroke-width=".475" fill="none"/><path d="M373.23 558.21c.29-1.745.29-54.357.29-54.357l-1.744-.29-.29 53.775 1.744.872zM331.66 541.06l22.09 10.755-.58 1.453s-21.22-9.883-21.22-10.174c0-.29.29-1.453-.29-2.034z" stroke-opacity=".996" fill-rule="evenodd" transform="matrix(1.255 0 0 1.312 259.35 -430)" stroke="#512007" stroke-width=".475" fill="#dd8b59"/><path d="M341.84 537.86c0 .872 3.198 18.603 3.198 18.603s2.035.29 2.035 0-3.49-18.312-3.49-18.312l-1.743-.29zM362.18 538.44c1.163 0 20.93-3.197 20.93-3.197l-.292 3.197-19.475 2.035-1.163-2.035z" stroke-opacity=".996" fill-rule="evenodd" transform="matrix(1.255 0 0 1.312 259.35 -430)" stroke="#512007" stroke-width=".475" fill="#dd8b59"/><path d="M365.09 514.32c.58 0 6.976 3.198 9.592 2.326s.872-2.907 1.453-2.907c.582 0 2.616 1.452 3.78.29 1.162-1.163 2.034-4.65 1.453-4.36-.582.29-15.988 5.813-16.278 4.65z" stroke-opacity=".996" fill-rule="evenodd" transform="matrix(1.255 0 0 1.312 259.35 -430)" stroke="#512007" stroke-width=".475" fill="#fecf3e"/><path d="M362.48 521.58c1.163.29 23.836-6.104 23.836-6.104s0 2.035-.29 2.035-23.546 6.105-23.546 6.105v-2.035z" stroke-opacity=".996" fill-rule="evenodd" transform="matrix(1.255 0 0 1.312 259.35 -430)" stroke="#512007" stroke-width=".475" fill="#dd8b59"/><path d="M415.09 512.57s1.454 3.488 2.907 2.907 2.907-1.744 2.907-1.744 1.163 2.907 3.197 2.325c2.036-.58 3.2-3.78 3.2-3.78s2.033.583 2.905.292c.873-.29 2.035-4.94 2.035-4.94l-17.15 4.94zM413.34 540.77c-.29.58 1.454 2.035 2.907 2.035s2.035-2.035 2.325-1.454c.29.583.29 3.2 4.07 2.327s3.78-3.488 3.78-3.488-1.164.87 1.452 1.16c2.616.292 5.232-3.778 4.942-3.778-.29 0-18.894 3.49-19.476 3.198z" stroke-opacity=".996" fill-rule="evenodd" transform="matrix(1.255 0 0 1.312 259.35 -430)" stroke="#512007" stroke-width=".475" fill="#fecf3e"/><path d="M363.35 513.15c-.29 1.163.29 2.617.29 2.617l18.894-6.395s.872-1.454 0-1.454-19.475 5.814-19.184 5.232zM388.35 509.08c.58 0 19.475-6.104 19.475-6.104s.29 2.616 0 2.616-17.73 5.232-17.73 5.232l-1.745-1.744z" stroke-opacity=".996" fill-rule="evenodd" transform="matrix(1.255 0 0 1.312 259.35 -430)" stroke="#512007" stroke-width=".475" fill="#dd8b59"/><path d="M413.34 521.88s-2.907 3.197-2.035 7.557c.872 4.36 2.035 8.14 2.326 8.14s3.49-5.814 6.977-6.105 9.883 3.198 9.883 3.198-.872-6.977-.58-10.174c.29-3.198 5.23-8.72 5.23-8.72l-21.8 6.104z" stroke-opacity=".996" fill-rule="evenodd" transform="matrix(1.255 0 0 1.312 259.35 -430)" stroke="#512007" stroke-width=".475" fill="#fecf3e"/><path d="M386.89 516.64s-.58 2.616-.29 2.616 24.707-6.395 24.707-6.395v-1.743l-24.417 5.523z" stroke-opacity=".996" fill-rule="evenodd" transform="matrix(1.255 0 0 1.312 259.35 -430)" stroke="#512007" stroke-width=".475" fill="#dd8b59"/><path d="M355.5 551.82s-5.813-.872-5.523.58c.29 1.454 2.907 2.908 3.198 3.78.29.872-.872 4.07.872 3.78 1.744-.292 3.488-1.455 3.488-2.327s-.29-4.94-.29-4.94l-1.745-.873z" stroke-opacity=".996" fill-rule="evenodd" fill-opacity=".996" transform="matrix(1.255 0 0 1.312 259.35 -430)" stroke="#512007" stroke-width=".475" fill="#b6b6b4"/><path d="M387.76 537.28v2.034l20.93-2.906-.582-1.454-20.348 2.326z" stroke-opacity=".996" fill-rule="evenodd" transform="matrix(1.255 0 0 1.312 259.35 -430)" stroke="#512007" stroke-width=".475" fill="#dd8b59"/><path d="M363.06 540.77c.29 0 0 2.616 2.325 2.035 2.326-.582 2.907-2.035 2.907-2.035s.58 3.197 3.78 2.907c3.196-.29 4.94-3.78 4.94-3.78s.29 2.617 2.326 1.745 2.616-2.907 2.616-2.907l-18.313 2.616-.58-.58zM363.06 523.62s-2.616.872-1.744 6.104 2.907 8.14 3.197 8.14c.29 0 2.616-4.942 6.104-5.814 3.49-.873 9.593 2.616 9.593 2.616s-.582-4.65.29-9.01c.873-4.362 3.78-7.56 3.78-7.56s-20.348 5.524-21.22 5.524z" stroke-opacity=".996" fill-rule="evenodd" transform="matrix(1.255 0 0 1.312 259.35 -430)" stroke="#512007" stroke-width=".475" fill="#fecf3e"/><path d="M411.89 538.73l.29 1.744s20.93-2.616 20.93-2.907c0-.29 0-2.034-.29-2.034-.292 0-20.64 3.488-20.93 3.197zM411.6 520.13l.29 2.034 24.708-6.685s.582-1.745.29-1.745-24.707 7.267-25.288 6.395z" stroke-opacity=".996" fill-rule="evenodd" transform="matrix(1.255 0 0 1.312 259.35 -430)" stroke="#512007" stroke-width=".475" fill="#dd8b59"/><path d="M414.22 510.83s-.29 1.744 0 1.744 18.313-4.36 18.313-4.65c0-.29 1.744-2.036.29-1.745-1.453.29-18.02 5.522-18.603 4.65zM432.53 535.83c.29-.872 1.163-18.312 1.163-18.312" stroke-opacity=".996" transform="matrix(1.255 0 0 1.312 259.35 -430)" stroke="#512007" stroke-width=".475" fill="none"/><path d="M388.93 509.96c1.163.29 3.198 3.197 4.36 2.616 1.163-.58 2.907-2.325 2.907-2.325s-.29 3.49 2.035 2.907c2.325-.58 2.616-2.906 2.616-2.906s1.744.873 3.197 0c1.454-.87 2.907-5.232 2.326-5.232s-16.858 5.233-17.44 4.942zM388.35 518.39c0 .58-2.907 5.232-2.035 9.592s2.616 8.43 2.907 8.43 4.65-4.65 8.43-5.523c3.778-.873 9.3 2.906 9.01 2.906-.29 0-1.453-4.36-1.453-7.558 0-3.198 4.36-13.08 4.36-13.08l-21.22 5.232zM388.35 539.32c0 .29.872 2.326 2.907 2.326 2.034 0 2.325-2.035 2.325-2.035s-.29 3.49 2.907 3.2c3.196-.292 4.36-3.49 4.36-3.49s.29 1.745 2.906.873c2.616-.873 6.104-3.78 5.813-3.78-.29 0-20.93 3.78-21.22 2.907z" stroke-opacity=".996" fill-rule="evenodd" transform="matrix(1.255 0 0 1.312 259.35 -430)" stroke="#512007" stroke-width=".475" fill="#fecf3e"/><use xlink:href="#k" transform="translate(-6.564 7.275)" height="496.063" width="992.126"/><use xlink:href="#k" transform="translate(6.564 3.758)" height="496.063" width="992.126"/><use xlink:href="#k" transform="translate(0 11.033)" height="496.063" width="992.126"/><path id="k" d="M408.98 476.96c0 1.044-.846 1.89-1.89 1.89s-1.89-.847-1.89-1.89.847-1.89 1.89-1.89 1.89.847 1.89 1.89z" stroke-opacity=".996" fill-rule="evenodd" fill-opacity=".996" transform="matrix(.041 -1.072 1.024 .043 251.6 667.92)" stroke="#512007" stroke-width=".581" fill="#be0f17"/><path d="M398.23 500.07c0-.29 9.01 3.78 9.01 4.07 0 .29 31.975 42.73 32.266 42.73M372.94 503.56c-.29 0 9.01 6.976 9.01 6.976l1.164 5.814M341.26 546c4.07-1.744 32.265-26.452 32.265-26.452M333.7 541.35c3.49-2.907 31.684-26.742 31.684-26.742M413.01 539.23s3.532 11.71 7.02 13.455 7.557 4.65 7.557 4.65" stroke-opacity=".996" transform="matrix(1.255 0 0 1.312 259.35 -430)" stroke="#512007" stroke-width=".475" fill="none"/><path d="M412.61 539.48s2.48 13.793 5.97 16.41 6.976 5.522 6.976 5.522" stroke-opacity=".996" transform="matrix(1.255 0 0 1.312 259.35 -430)" stroke="#512007" stroke-width=".475" fill="none"/><path d="M390.96 439.03s3.488 19.185 10.465 23.545c6.976 4.36 12.79 8.14 12.79 8.14" stroke-opacity=".996" transform="matrix(1.255 0 0 1.312 256.26 -299.49)" stroke="#512007" stroke-width=".475" fill="none"/><path d="M390.67 438.74s7.557 15.116 13.952 19.767c6.395 4.65 15.115 9.01 15.115 9.01M366.26 439.9c2.034 3.488 1.744 10.174 4.07 12.5 2.324 2.325 5.813 7.557 5.813 7.557" stroke-opacity=".996" transform="matrix(1.255 0 0 1.312 256.26 -299.49)" stroke="#512007" stroke-width=".475" fill="none"/><path d="M366.84 440.19c1.163 1.744 4.406 10.428 6.395 13.08 1.454 2.326 16.278 17.15 16.278 17.15" stroke-opacity=".996" transform="matrix(1.255 0 0 1.312 256.26 -299.49)" stroke="#512007" stroke-width=".475" fill="none"/><path d="M384.57 471.15c0 1.204-.976 2.18-2.18 2.18s-2.18-.976-2.18-2.18.976-2.18 2.18-2.18 2.18.976 2.18 2.18zM395.32 475.8c0 1.044-.846 1.89-1.89 1.89s-1.89-.847-1.89-1.89.847-1.89 1.89-1.89 1.89.847 1.89 1.89zM408.98 476.96c0 1.044-.846 1.89-1.89 1.89s-1.89-.847-1.89-1.89.847-1.89 1.89-1.89 1.89.847 1.89 1.89zM420.9 472.46c0 .963-.716 1.744-1.6 1.744-.882 0-1.597-.78-1.597-1.744 0-.963.715-1.744 1.598-1.744.884 0 1.6.78 1.6 1.744zM430.49 466.79c0 .883-.846 1.6-1.89 1.6s-1.89-.717-1.89-1.6c0-.883.847-1.6 1.89-1.6s1.89.717 1.89 1.6z" stroke-opacity=".996" fill-rule="evenodd" transform="matrix(1.255 0 0 1.312 256.26 -299.49)" stroke="#512007" stroke-width=".475"/><path d="M374.1 404.44c-.872.582-15.406 4.07-13.37 3.78 2.033-.29 13.66 2.906 13.37 2.034s0-5.232 0-5.814zM398.81 400.08c-.582 0-9.012 3.198-8.72 3.198s9.592 2.616 9.3 2.034c-.29-.58-.29-4.36-.58-5.232zM424.1 402.99c-.582.29-10.465 2.616-8.72 2.907s8.43 2.616 8.43 2.035c0-.582 0-4.65.29-4.942z" stroke-opacity=".996" fill-rule="evenodd" fill-opacity=".996" transform="matrix(1.255 0 0 1.312 256.26 -299.49)" stroke="#512007" stroke-width=".475" fill="red"/><path d="M413.64 471.01c.29-4.65 8.72-31.103 8.72-31.103M416.54 470.13c0-.29 6.686-29.94 6.686-29.94M419.45 467.81c.29-1.744 4.94-27.614 4.94-27.614M413.93 467.23c1.453-.872 5.813-2.035 5.813-2.035M415.96 462.58c1.453 0 4.36-1.163 4.36-1.163M416.83 459.09c0-.29 4.36-1.163 4.36-1.163M419.45 450.95c0 .29 3.197.29 3.197.29M420.32 447.46c.58 0 3.197.58 3.197.58" stroke-opacity=".996" transform="matrix(1.255 0 0 1.312 256.26 -299.49)" stroke="#512007" stroke-width=".475" fill="none"/><path d="M413.64 471.01c.29-4.65 8.72-31.103 8.72-31.103M416.54 471.32c0-.29 6.686-31.127 6.686-31.127M418.83 471.37c.29-1.744 5.558-31.175 5.558-31.175M413.93 467.23c1.453-.872 5.813-2.035 5.813-2.035M415.96 462.58c1.453 0 4.36-1.163 4.36-1.163M416.83 459.09c0-.29 4.36-1.163 4.36-1.163M419.45 450.95c0 .29 3.197.29 3.197.29M420.32 447.46c.58 0 3.197.58 3.197.58" stroke-opacity=".996" transform="matrix(1.255 0 0 1.363 225.31 -323.36)" stroke="#512007" stroke-width=".475" fill="none"/><path d="M413.64 471.01c.29-4.65 8.72-31.103 8.72-31.103M416.54 470.13c0-.29 6.686-29.94 6.686-29.94M419.45 467.81c.29-1.744 4.94-27.614 4.94-27.614M413.93 467.23c1.453-.872 5.813-2.035 5.813-2.035M415.96 462.58c1.453 0 4.36-1.163 4.36-1.163M416.83 459.09c0-.29 4.36-1.163 4.36-1.163M419.45 450.95c0 .29 3.197.29 3.197.29M420.32 447.46c.58 0 3.197.58 3.197.58" stroke-opacity=".996" transform="matrix(-1.255 0 0 1.32 1259.2 -307.28)" stroke="#512007" stroke-width=".474" fill="none"/><path d="M427.59 551.23c3.198 0 27.324-4.65 27.324-4.65s.872-2.907 0-2.907-27.324 5.523-27.324 5.523v2.034z" stroke-opacity=".996" fill-rule="evenodd" transform="matrix(1.255 0 0 1.312 259.35 -430)" stroke="#512007" stroke-width=".475" fill="#dd8b59"/><use xlink:href="#k" transform="translate(0 5.516)" height="496.063" width="992.126"/></g></g></svg>