<svg xmlns="http://www.w3.org/2000/svg" height="480" width="640" version="1"><defs><clipPath id="a"><path fill-opacity=".67" d="M0 0h682.67v512H0z"/></clipPath></defs><g clip-path="url(#a)" transform="matrix(.938 0 0 .938 0 0)"><g fill-rule="evenodd" stroke-width="1pt"><path fill="#3e9a00" d="M0 0h767.975v171.886H0z"/><path fill="#fff" d="M0 171.886h767.975v168.222H0z"/><path fill="#e32118" d="M0 340.108h767.975v171.886H0z"/><path d="M0 0v511.934l255.917-255.967L0 0z" fill="#5567e4"/></g><path d="M283.46 148.82v442.91c0 35.433 17.716 70.866 53.15 70.866h70.865c17.717 0 35.433 35.433 35.433 35.433s16.938-35.434 35.433-35.434h70.868c35.433 0 53.15-35.433 53.15-70.866V148.82h-318.9z" fill-rule="evenodd" transform="matrix(.239 0 0 .186 269.493 179.77)" stroke="#000" stroke-width="3.791" fill="#ccc"/><path d="M215.38 731.79c-18.02 0-35.738-17.717-35.738-35.433v-88.583c15.502 15.502 88.583 70.866 70.867 88.583-17.718 17.716-35.738 0-35.434 0s.304 35.433.304 35.433z" fill-rule="evenodd" transform="matrix(.24 0 0 .186 267.792 160.312)" stroke="#000" stroke-width="1pt" fill="#ccc"/><path d="M319.426 289.835c4.252-3.295 4.252 3.295 8.504 0l-4.252 19.772c-4.126-.62-4.267 0-6.65-3.295 0-3.296 0-13.826 2.398-16.477z" fill-rule="evenodd" fill="#ccc"/><path d="M215.38 731.79c-18.02 0-35.738-17.717-35.738-35.433v-88.583c15.502 15.502 88.583 70.866 70.867 88.583-17.718 17.716-35.738 0-35.434 0s.304 35.433.304 35.433z" fill-rule="evenodd" transform="matrix(-.24 0 0 .186 482.241 160.312)" stroke="#000" stroke-width="1pt" fill="#ccc"/><path d="M429.976 289.835c-4.252-3.295-4.252 3.295-8.504 0l4.252 19.772c4.126-.62 4.267 0 6.65-3.295 0-3.296 0-13.826-2.398-16.477z" fill-rule="evenodd" fill="#ccc"/><path d="M513.78 1140.9c0-17.71-35.433-53.14-35.433-70.86s35.433 17.72 106.3 17.72c70.866 0 106.3-88.588 88.582-106.3 17.716 35.434 17.716 70.864 17.716 88.584 0 35.43-35.433 70.86-106.3 70.86H513.78z" fill-rule="evenodd" transform="matrix(.24 0 0 .186 268.387 107.276)" stroke="#000" stroke-width="1pt" fill="#ccc"/><path d="M513.78 1140.9c0-17.71-35.433-53.14-35.433-70.86s35.433 17.72 106.3 17.72c70.866 0 106.3-88.588 88.582-106.3 17.716 35.434 17.716 70.864 17.716 88.584 0 35.43-35.433 70.86-106.3 70.86H513.78z" fill-rule="evenodd" transform="matrix(-.24 0 0 .186 480.986 107.276)" stroke="#000" stroke-width="1pt" fill="#ccc"/><path d="M357.693 316.19c0-3.293 8.504-6.59 8.504-9.885v16.476h-8.504v-6.59zM391.707 316.19c0-3.293-8.504-6.59-8.504-9.885v16.476h8.504v-6.59z" fill-rule="evenodd" fill="#ccc"/><path d="M371.17 1034.6c0 17.71 141.73 17.71 141.73 0v70.87c0 17.71-141.73 17.71-141.73 0v-70.87z" fill-rule="evenodd" transform="matrix(.24 0 0 .186 268.597 123.75)" stroke="#000" stroke-width="1pt" fill="#ccc"/><path d="M249.63 696.36c-17.717 17.716-17.717-17.717-35.433 0-17.717 17.716 17.717 106.3 88.583 106.3s106.3-35.433 106.3-17.717c0 17.717-35.433 35.433-35.433 53.15s141.73 17.717 141.73 0-35.433-35.433-35.433-53.15c0-17.716 35.433 17.717 106.3 17.717 70.866 0 106.3-88.583 88.583-106.3-17.716-17.717-17.716 17.716-35.433 0" transform="matrix(.24 0 0 .186 268.002 160.312)" stroke="#000" stroke-width="1.25" fill="none"/><path d="M426.68 314.212l-4.35-7.312.764-.308 4.348 7.312-.763.308zM424.453 312.4l.915-.01c.237.876.246 1.603.026 2.18-.218.573-.638.963-1.26 1.17-.644.215-1.25.224-1.816.03-.565-.2-1.108-.58-1.628-1.137-.518-.56-.954-1.2-1.307-1.922-.386-.787-.604-1.512-.654-2.175-.05-.668.07-1.226.36-1.674.29-.45.697-.766 1.224-.94.597-.2 1.194-.175 1.79.074.597.25 1.146.696 1.648 1.34l-.665.49c-.408-.503-.805-.836-1.19-1-.388-.162-.78-.176-1.18-.043-.46.154-.775.42-.948.802-.17.38-.204.827-.098 1.34.105.51.28 1.014.523 1.512.315.642.664 1.18 1.046 1.612.385.43.79.71 1.22.842.43.133.825.14 1.19.018.44-.148.737-.435.886-.86.148-.425.12-.974-.083-1.647zM419.016 317.364l-2.865-7.807.813-.203 2.866 7.807-.814.204zM413.28 318.077l-.74-7.146-2.108.15-.1-.955 5.073-.36.1.955-2.118.15.74 7.147-.846.06zM405.374 316.268l.802-.088c.038.407.126.743.263 1.006.14.26.356.47.648.634.293.16.622.24.987.24.324 0 .61-.062.86-.184.247-.123.43-.29.552-.5.123-.216.184-.45.184-.702 0-.255-.057-.478-.175-.667-.117-.193-.31-.354-.578-.484-.173-.085-.554-.216-1.144-.395-.592-.18-1.005-.352-1.242-.51-.306-.205-.535-.457-.687-.758-.15-.303-.223-.642-.223-1.017 0-.412.092-.795.276-1.15.184-.36.453-.633.807-.818.353-.185.746-.278 1.18-.278.475 0 .894.097 1.257.294.366.194.646.48.842.858.196.377.3.805.316 1.284l-.816.078c-.044-.516-.193-.905-.447-1.168-.25-.264-.624-.395-1.118-.395-.515 0-.89.12-1.127.362-.233.236-.35.523-.35.86 0 .293.083.534.25.724.163.19.59.383 1.28.584.692.196 1.167.368 1.424.517.374.218.65.496.83.834.177.332.266.717.266 1.155 0 .434-.098.844-.293 1.23-.196.38-.478.68-.846.895-.364.21-.777.317-1.235.317-.583 0-1.07-.108-1.465-.323-.392-.215-.7-.538-.926-.968-.222-.434-.338-.922-.35-1.468zM403.244 310.606l.85.03-.256 4.71c-.045.82-.154 1.468-.326 1.945-.173.478-.46.86-.858 1.152-.397.286-.905.42-1.525.397-.603-.022-1.088-.17-1.456-.448-.37-.277-.62-.666-.758-1.17-.137-.506-.18-1.19-.134-2.054l.257-4.71.85.03-.257 4.704c-.04.708-.016 1.233.068 1.574.088.337.252.6.493.792.245.19.55.292.915.305.625.022 1.08-.14 1.367-.492.286-.35.456-1.036.512-2.06l.257-4.704zM392.56 316.11l.768-.134c.02.622.113 1.05.277 1.28.163.23.39.343.68.343.213 0 .397-.06.552-.184.155-.126.262-.295.32-.507.06-.215.088-.557.088-1.024v-5.616h.85v5.556c0 .682-.065 1.21-.197 1.585-.13.374-.335.66-.618.857-.28.196-.612.295-.99.295-.565 0-.998-.206-1.3-.618-.297-.41-.44-1.023-.43-1.835zM378.104 329.517v-1.13l3.293-5.884c.233-.418.455-.782.666-1.09h-3.586v-1.086h4.603v1.085l-3.608 6.375-.39.646h4.104v1.084h-5.082zM331.27 318.346l2.024-9.04.835.126-2.027 9.042-.834-.128zM322.14 314.794l5.286-8.103.768.34-1.178 7.677 4.15-6.362.718.318-5.286 8.103-.77-.34 1.183-7.682-4.153 6.367-.718-.316zM326.445 305.876l.602.493-4.567 3.767c-.795.656-1.477 1.134-2.048 1.435-.572.3-1.14.462-1.705.483-.56.02-1.06-.15-1.5-.51-.425-.348-.646-.74-.662-1.17-.015-.434.16-.896.525-1.39.37-.494.973-1.087 1.81-1.778l4.568-3.768.603.492-4.56 3.764c-.688.566-1.16 1.014-1.414 1.344-.25.327-.372.637-.37.928.003.292.135.544.394.756.442.363.932.477 1.47.344.536-.134 1.3-.61 2.293-1.428l4.562-3.764zM336.053 318.962l.297-9.19 2.214.05c.5.01.88.063 1.14.156.365.13.672.357.92.68.328.416.563.947.71 1.59.15.64.21 1.368.183 2.187-.022.698-.1 1.315-.23 1.852-.132.537-.292.98-.483 1.332-.19.346-.394.62-.614.82-.217.195-.477.342-.782.44-.302.097-.647.142-1.035.133l-2.32-.05zm.886-1.065l1.37.03c.425.01.76-.04 1.002-.147.246-.107.444-.263.595-.464.21-.284.38-.667.506-1.15.13-.485.206-1.076.228-1.77.032-.96-.055-1.7-.26-2.22-.203-.523-.46-.875-.77-1.058-.223-.13-.588-.2-1.094-.212l-1.35-.03-.227 7.02zM341.746 318.986l2.47-9.19h.915l2.632 9.19h-.97l-.75-2.783h-2.687l-.705 2.783h-.904zm1.855-3.773h2.18l-.67-2.545c-.205-.774-.357-1.408-.457-1.906-.082.59-.197 1.174-.346 1.755l-.706 2.696zM348.44 318.986v-9.19h2.214c.5 0 .882.044 1.145.132.368.122.682.34.94.66.34.407.593.933.76 1.57.17.637.255 1.364.255 2.183 0 .7-.057 1.318-.172 1.857-.113.54-.26.986-.438 1.34-.178.352-.374.63-.588.835-.21.2-.466.353-.767.458-.298.104-.642.156-1.03.156h-2.32zm.85-1.084h1.373c.424 0 .756-.057.996-.17.24-.112.434-.272.577-.476.202-.29.358-.675.47-1.16.114-.49.17-1.08.17-1.773 0-.962-.11-1.7-.332-2.214-.22-.52-.488-.865-.803-1.04-.228-.126-.595-.19-1.1-.19h-1.35v7.022zM366.64 329.517v-9.19h2.425c.426 0 .752.03.977.088.316.076.58.22.794.433.213.21.384.503.512.884.132.38.198.798.198 1.254 0 .78-.174 1.443-.522 1.986-.348.54-.976.81-1.885.81h-1.65v3.735h-.85zm.85-4.82h1.662c.55 0 .94-.146 1.17-.44.232-.29.347-.703.347-1.234 0-.385-.07-.712-.207-.984-.134-.277-.313-.46-.535-.547-.144-.054-.408-.08-.794-.08h-1.644v3.283zM371.923 329.517l2.47-9.19h.915l2.63 9.19h-.968l-.75-2.783h-2.688l-.705 2.783h-.904zm1.855-3.773h2.178l-.67-2.545c-.204-.775-.357-1.41-.456-1.907-.082.59-.197 1.174-.346 1.755l-.706 2.696zM428.943 313.62l-4.302-7.872.678-.41 8.07 5.593-.716.434-2.41-1.714-1.985 1.2 1.334 2.366-.667.403zm-1.145-3.608l1.61-.974-2.192-1.575c-.667-.478-1.203-.878-1.607-1.2.33.47.635.953.913 1.447l1.275 2.302z"/><path d="M419.16 331.78c.065 32.968 19.893 131.63-37.678 284.94-4.262 11.127 7.064 16.484 16.484 18.84 9.42 2.354 14.13-9.42 14.13-11.775s2.354 18.84 11.773 16.484c9.42-2.356 18.838-16.485 18.838-16.485s4.71 21.194 16.484 21.194 11.774-25.905 11.774-25.905c0 2.355 8.164 22.235 17.583 22.235 9.42 0 23.928-8.76 15.547-23.144-59.832-100.72-56.68-267.54-56.68-286.38 0-18.84 27.784-53.068 55.418-53.89l-10.675-16.755c-6.96 2.136-15.28 3.67-29.41 15.444s-22.397 24.59-22.397 24.59v-80.066h-23.548l2.355 73s-8.05-9.438-20.095-19.93c-11.4-9.935-31.972-9.2-44.637-7.12l-1.204 15.99c14.97 3.123 34.067-3.068 43.487 11.06 11.775 11.775 22.415 21.26 22.45 37.678z" fill-rule="evenodd" transform="matrix(.147 0 0 .149 312.157 202.086)" stroke="#000" stroke-width="5.029" fill="#682900"/><path d="M310.55 312.21v-.832c0 1.976-.067 1.1.833-2.498.777-2.848 2.407-5.523 4.163-7.493 3.04-1.014 7.44.053 10.823-.833 2.277-3.268 5.827 4.267 5.827-.833 4.343-.31 4.4-4.558 5.828-6.66 4.054-.5 4.963-5.44 8.326-2.496 2.757 1.305.407-.833 4.997-.833 2.713.664 4.13 2.32 6.66.833.62-2.85 1.4-6.268 1.665-9.99-1.177-2.356-.832-7.184-.832-10.824 2.274-3.033 6.262 2.475 9.99 1.664 1.018-3.562 4.146-3.466 2.498-6.66-.308-4.007-1.08-6.503 0-10.823 1.314-3.703 3.228-3.606 6.66-5.827 1.093-3.277-.122-6.03.833-9.99 3.902-.116 3.833-1.133 4.164-4.996 1.26-2.66 2.858-5.356 4.995-7.493 1.967-2.382 4.302-2.147 5.827-5.828 1.308-3.27 1.31-4.75 4.995-5.828 2.696-1.27 4.833-1.41 6.66-3.33 1.733-3.057 3.175-5.487 5.83-9.16 2.63-1.77 15.236 1.666 19.148 1.666 2.118-2.67 5.397-6.86 7.493-8.326 3.587-1.916 4.96-2.497 9.99-2.497 4.288 1.27 6.082 2.795 10.824 1.666 1.932-2.706 3.816-3.965 8.325-2.498 3.433 2.22 5.347 2.124 6.66 5.828 1.947 4.615 1.51 6.192 6.662 6.66 5.18.186 5.71 1.443 9.158 4.163 5.248 2.25 4.995.98 4.995 5.827 3.72 0 4.052-.44 4.163 3.33 2.294.714 4.907 2.72 6.66 4.163 2.094 2.416 2.63 3.93 7.494 4.163 3.59-1.508 4.75-1.496 4.995-5.828 2.75-.982 3.21-3.635 4.162-6.66 2.108-2.885 3.474-3.33 8.325-3.33 4.28 1.772 4.14 3.567 3.33 7.493 2.665.55 3.765.24 4.164 3.33 1.408 2.346 1.04 5.15-.832 6.66 2.132 1.568 3.37 4.256 4.163 7.493-1.41 2.353-.546 5.81 0 8.327 2.913 1.456 4.416 2.81 8.326 4.163 1.983 1.68 6.2 3.44 9.99 4.163 4.482-.606 5.962-.568 9.992 1.665 2.084 2.993 2.235 6.77 4.163 8.326 2.176 1.843 5.82 2.65 7.494 4.995 2.778 2.03 3.594 4.28 7.493 4.994 1.47 2.228 4.634 5.896 5.828 8.326.94 2.694 1.36 7.413 2.498 10.823v11.656c-.158 4.303-.833 6.915-.833 11.655-.74 2.384-1.665 3.3-1.665 6.66-1.582 3.527-2.93 6.49-4.995 9.16-.94 4.234-2.473 6.222-4.163 9.99.052 4.37.832 6.304.832 10.823-1.81 2.69-3.888 4.647-7.494 6.66-2.724 3.188-4.368 4.427-4.995 9.16-1.565 2.704-1.442 2.497-4.994 2.497-4.2 0-7.814.375-11.656.832-3.378 0-4.64.356-6.66-1.665-3.99-1.804-7.346-1.91-11.657-.833-2.325-1.595-3.258-2.498-7.493-2.498-3.16.427-5.965.832-9.99.832-2.496-2.79-3.898-3.33-8.326-3.33-2.356 1.178-7.184.833-10.824.833-3.82-1.043-4.313-2.63-5.828-5.828-2.605-1.236-3.635-3.04-7.493-3.332-3.64 0-8.47.345-10.824-.832-2.723-.327-5.586-1.027-7.493-2.498-1.556-2.288-3.54-4.272-5.828-5.828-3.698 0-5.864.355-7.493-1.665-2.732-2.157-4.89-5.564-8.326-7.493-3.062-2.43-5.136-3.916-6.66-8.326 0-3.943.78-4.874-3.33-4.995-2.756 2.813-4.01 3.33-9.16 3.33-3.388 0-6.93-.017-9.157-.83-3.682-2.09-5.03-3.014-9.16-3.332-2.584 1.645-6.007 3.547-9.99 4.163-3.405 1.967-5.437 2.38-6.66 5.83-3.146 2.567-4.99 4.077-9.16 5.827-2.315 2.21-4.525 2.59-5.827 6.66-.792 3.367-1.665 5.37-1.665 9.99.59 4.37.36 6.238-1.665 9.992-1.74 2.485-4.757 3.7-7.493 5.827-4.116.494-4.548.186-7.493-1.665-2.933-.977-6.266-1.78-9.99-2.498-4.497-.866-6.018-1.96-8.327-4.162l8.326 4.162c-4.496-.866-6.017-1.96-8.326-4.162-5.064-3.583-6.063-5.398-11.656-5.828-5.198.06-7.43.318-8.325 4.995 2.96.788.608 2.553-.834 3.33-2.078 1.85-5.41 3.367-8.326 4.162-1.328 1.328-1.072-1.1-3.33-1.665-3.448-1.842-4.89-3.226-8.326-4.163-1.683-2.97-3.584-5.274-5.828-8.326-1.734-2.818-3.382-3.838-5.828-6.66-1.17-1.754-4.16-1.83-5.827-3.33-1-3.002-3.168-8.57-2.497-11.656 1.68-1.586 2.632-7.243 4.995-8.326 3.367-2.525 4.635-.223 9.16 0 4.258 0-5.867-6.71-1.666-6.66 3.92-.666 4.387-2.595 5.827-4.996h9.99z" fill-rule="evenodd" transform="matrix(.204 0 0 .153 285.641 190.071)" stroke="#000" stroke-width="4.464" fill="#009200"/><path d="M382.98 253.1c.878.713 4.684 2.498 8.326 2.498 3.976.728 4.843 2.216 5.828 5.828 2.174 1.304 3.55 1.665 7.493 1.665 4.36.872 4.322 2.213 7.493 4.996M358.84 299.72c1.812.266 8.154.832 12.488.832 3.333-1.924 4.912-3.24 7.493-4.995 3.944 0 5.32.36 7.495 1.665 2.105.702 7.052.963 9.158 1.665 0 1.11-.278.833.832.833M391.31 286.4c.065-.025 3.252-1.946 5.828-2.498 2.835-1.976 5.946-2.94 9.158-4.163 2.117-.46 7.102-.45 8.326-.833M432.1 273.91v.833c0-2.327-.104-1.09 1.665 3.33.874 4.078 1.95 7.526 3.33 10.823 2.455 3.83 4.058 5.547 7.493 7.493 2.94 2.315 5.164 4.723 8.326 5.827 2.202 1.963 5.106 3.584 8.325 4.996 4.27 0 7.557.686 11.655.832h2.498M477.06 227.29v.833c0-2.247.055-1.105-.832 3.33-1.257 2.654-2.705 5.124-4.163 7.493-3.915 1.42-5.374 4.277-6.66 7.493-1.373 2.23-3.506 5.17-4.996 7.492-2.59 3.21-3.623 4.242-8.327 5.828M510.36 244.77c0 .244-1.537 2.434-2.498 4.996-1.653 2.436-2.075 6.86-2.497 9.99 0 3.618.02 7.557.832 9.99 2.516 3.122 3.158 4.765 7.493 6.662l-7.49-6.66c2.516 3.12 3.158 4.764 7.493 6.66M571.14 273.91v.833c0-2.61.217-1.006-4.163 2.497-3.252 3-5.572 5.416-8.325 7.493-4.732 1.255-5.455 1.182-9.99.833h-7.494M582.8 337.19h-.832c2.327 0 1.09-.103-3.33 1.665-3.693.923-7.88.982-10.824 0-2.966-1.68-5.955-3.055-8.326-5.828-1.24-.93-1.42-1.306-2.497-1.665M553.66 363v-.833c0 2.61.217 1.006-4.163-2.498-1.872-2.754-3.748-3.795-7.493-6.66-3.236-3.914-3.66-5.482-4.995-9.992-.357-3.323-1.456-6.734 0-9.158M492.05 348.84c1.81 0 8.56-.16 11.656-.833 2.418-1.643 5.094-2.746 8.326-4.162 1.764-4.36 3.27-5.81 3.33-10.824M441.26 323.87c-.652-1.483-3.544-7.436-4.995-10.823-.065-3.638-.833-6.285-.833-9.99M328.86 350.51c.84.126 4.375.403 6.66 0 3.635-1.86 7.022-2.205 10.823-2.498 1.933-1.16 5.086-1.03 6.66-2.497 3.475-2.316 3.938-4.645 5.83-8.326.166-1.674.664-2.49.83-4.164M383.81 338.02c-1.828 0-8.658.125-12.49-.833-1.966-1.273-3.362-3.364-4.994-4.995 1.11 0 .833.277.833-.833M393.8 313.88c.353-.106 4.485-1.665 7.493-1.665 1.79-1.158 4.76-2.237 7.493-3.33 1.48-.797 2.504-1.787 4.163-2.498M293.06 347.18h.833c-2.25 0-1.1.053 3.33-.833 5.18-.32 8.666-2.11 12.49-3.33 2.495-2.318 5.938-4.635 8.324-5.828 0-1.424-.34-1.275.833-1.666M504.54 301.39h.833c-2.328 0-1.09-.103 3.33 1.665 3.517 1.346 6.695 1.78 9.99 2.498 2.994.73 4.128 1.665 8.326 1.665 4.19 1.826 5.103 2.397 8.325 4.995 2.465 1.168 4.22 1.665 8.326 1.665 2.18-1.206 6.162-2.61 8.326-3.33 1.21-.908 1.293-.55 1.665-1.665" transform="matrix(.204 0 0 .186 285.641 179.151)" stroke="#006800" stroke-width="4.05" fill="none"/><path d="M430.94 469.54v18.84c0 6.016-.557 11.276-2.355 16.483 0 5.875-.077 11.554-2.355 15.306-.4 5.617-1.177 10.478-1.177 16.483-1.705 5.116-1.504 12.044-2.355 17.662-.738 5.508-1.393 12.06-2.355 16.484-1.754 3.683-4.745 10.348-7.064 12.95-.29 5.085-1.533 7.588 0 11.775 1.64 4.922 1.176 10.85 1.176 16.484 1.537 4.61 1.178 10.003 1.178 15.305M436.82 493.08c.358 2.36 2.118 10.873 2.355 16.484v25.904c0 6.3.532 11.85 1.178 17.66-.084 6.944-1.346 9.54-4.71 15.308-.662 5.56-1.693 10.924-2.355 16.484-1.64 4.923-1.177 10.85-1.177 16.484 1.405 6.322 3.704 7.453 4.71 12.95 0 3.36.32 5.067 1.178 7.066M447.42 535.47c0 2.155-.14 12.532 1.178 16.484 0 6.023 1.106 10.544 1.177 16.484-.714 5.28-1.453 9.084-4.71 11.774-2.144 4.358-3.314 8.235-3.532 14.13 3.043 2.13 6.35 8.078 9.42 10.596 2.566 5.36 4.955 5.59 5.887 11.774 2.458 2.732-1.733 4.154 0 5.887 1.91 2.547.687 1.468 0 3.532" transform="matrix(.204 0 0 .186 288.359 178.531)" stroke="#000" stroke-width="1pt" fill="none"/><path fill-rule="evenodd" transform="matrix(.162 0 0 .147 369.671 198.582)" stroke="#000" stroke-width="3.125" fill="#ffd100" d="M93.248-106.57l15.982 25.596 30.16 1.046-14.17 26.642 14.17 26.642-30.16 1.045L93.248 0 77.262-25.6l-30.16-1.044 14.175-26.642-14.175-26.642 30.16-1.046z"/><path fill-rule="evenodd" transform="matrix(.162 0 0 .147 349.771 198.582)" stroke="#000" stroke-width="3.125" fill="#ffd100" d="M93.248-106.57l15.982 25.596 30.16 1.046-14.17 26.642 14.17 26.642-30.16 1.045L93.248 0 77.262-25.6l-30.16-1.044 14.175-26.642-14.175-26.642 30.16-1.046z"/><path fill-rule="evenodd" transform="matrix(.16 -.019 .021 .146 332.725 203.734)" stroke="#000" stroke-width="3.125" fill="#ffd100" d="M93.248-106.57l15.982 25.596 30.16 1.046-14.17 26.642 14.17 26.642-30.16 1.045L93.248 0 77.262-25.6l-30.16-1.044 14.175-26.642-14.175-26.642 30.16-1.046z"/><path fill-rule="evenodd" transform="matrix(-.16 -.019 -.021 .146 418.451 203.243)" stroke="#000" stroke-width="3.125" fill="#ffd100" d="M93.248-106.57l15.982 25.596 30.16 1.046-14.17 26.642 14.17 26.642-30.16 1.045L93.248 0 77.262-25.6l-30.16-1.044 14.175-26.642-14.175-26.642 30.16-1.046z"/><path fill-rule="evenodd" transform="matrix(-.152 -.049 -.053 .139 433.749 213.492)" stroke="#000" stroke-width="3.125" fill="#ffd100" d="M93.248-106.57l15.982 25.596 30.16 1.046-14.17 26.642 14.17 26.642-30.16 1.045L93.248 0 77.262-25.6l-30.16-1.044 14.175-26.642-14.175-26.642 30.16-1.046z"/><path fill-rule="evenodd" transform="matrix(.152 -.049 .053 .139 316.888 212.51)" stroke="#000" stroke-width="3.125" fill="#ffd100" d="M93.248-106.57l15.982 25.596 30.16 1.046-14.17 26.642 14.17 26.642-30.16 1.045L93.248 0 77.262-25.6l-30.16-1.044 14.175-26.642-14.175-26.642 30.16-1.046z"/></g></svg>