<svg xmlns="http://www.w3.org/2000/svg" height="480" width="640" version="1" xmlns:xlink="http://www.w3.org/1999/xlink"><defs><linearGradient id="b"><stop stop-color="#d5dfff" offset="0"/><stop stop-color="#fff" offset="1"/></linearGradient><linearGradient id="a"><stop stop-color="#474747" offset="0"/><stop stop-color="#f50" offset="1"/></linearGradient><linearGradient id="c" y2="173.45" xlink:href="#a" gradientUnits="userSpaceOnUse" x2="110.94" gradientTransform="matrix(1.5101 0 0 .65184 40.513 .006)" y1="218.47" x1="109.34"/><linearGradient id="d" y2="337.23" gradientUnits="userSpaceOnUse" x2="126.02" gradientTransform="matrix(1.2315 0 0 .79928 40.513 .006)" y1="316.38" x1="125.91"><stop stop-color="#b50000" offset="0"/><stop stop-color="#ffc500" offset="1"/></linearGradient><linearGradient id="e" y2="147.35" xlink:href="#b" gradientUnits="userSpaceOnUse" x2="456.4" gradientTransform="matrix(.55904 0 0 1.7607 40.513 .006)" y1="149.38" x1="407.87"/><linearGradient id="f" y2="102.99" xlink:href="#a" gradientUnits="userSpaceOnUse" x2="228.97" gradientTransform="matrix(.74087 0 0 1.3286 40.513 .006)" y1="102.99" x1="215.83"/><linearGradient id="g" y2="1003.7" xlink:href="#b" gradientUnits="userSpaceOnUse" x2="78.221" gradientTransform="matrix(2.5627 0 0 .3841 40.513 .006)" y1="1040.4" x1="117.6"/><linearGradient id="h" y2="226.38" xlink:href="#b" gradientUnits="userSpaceOnUse" x2="255.03" gradientTransform="matrix(.88634 0 0 1.1105 40.513 .006)" y1="245.98" x1="264.72"/></defs><path fill="#006" d="M0 0h640v480H0z"/><g stroke-width="1pt"><path fill="#fff" d="M0 0v32.946l403.223 261.736h50.755v-32.945L50.755 0H0zm453.978 0v32.945L50.755 294.68H0v-32.944L403.223 0h50.755z"/><path fill="#fff" d="M189.157 0v294.68h75.663V0h-75.663zM0 98.227v98.227h453.978V98.227H0z"/><path fill="#c00" d="M0 117.872v58.937h453.978V117.87H0zM204.29 0v294.68h45.398V0H204.29zM0 294.68l151.326-98.226h33.836L33.836 294.68H0zM0 0l151.326 98.227H117.49L0 21.965V0zm268.816 98.227L420.142 0h33.836L302.652 98.227h-33.836zM453.978 294.68l-151.326-98.226h33.836l117.49 76.263v21.964z"/></g><path d="M463.75 349.947s-2.878 7.61-4.523 7.61c-1.646 0-7.61-3.29-7.61-3.29s-4.32 6.99-6.58 7.403c-2.263.41-8.227-1.03-8.227-1.03s-5.758 0-5.964-.82c-.206-.824.206-2.47.206-2.47s-8.227 6.582-10.078 6.17c-1.85-.41-8.02-8.226-8.02-8.226l-1.03 4.123-11.723-.413-10.283-6.584s-5.758 9.46-5.964 9.255c-.205-.206-10.077 2.262-10.077 2.262l-.617-1.85-6.582-3.908s5.14-7.2 5.14-7.405c0-.205-2.467-1.028-2.467-1.028l-3.7 3.085-7.61 4.935-7.61-3.496 3.292-6.168.41-4.525 5.965-9.05 73.008-70.95 35.99 66.427-5.347 19.948z" fill-rule="evenodd" stroke="#000" stroke-width=".86059pt" fill="#6a4c2d"/><path d="M515.62 354.25l19.003-.682-8.09-3.996 72.41-2.73-10.232-3.897-9.063-12.28-37.52-2.826s-2.827-2.145-7.407-1.073c-.195-2.923-3.704-6.724-3.704-6.724l-23.097-1.754-14.425 9.842 9.746 24.948 12.378 1.17z" fill-rule="evenodd" stroke="#000" stroke-width=".86059pt" fill="#fff"/><path d="M121.32 150.76l2.224-7.561s3.892-6.562 3.892-9.453c0-2.892 2.89-6.34 2.89-6.34s8.897-2.557 10.787 2.892c9.563-14.457 20.794-.668 20.794-.668l3.114-3.67 6.34-7.783s9.006 8.45 9.117 9.895 1.557.445 1.557.445l9.786-.778s4.644 3.635 3.67 10.564c3.448 2.034 6.56 14.01 6.56 14.01l-80.73-1.556z" fill-rule="evenodd" stroke="#000" stroke-width="1pt" fill="url(#c)" transform="translate(337.27 11.7) scale(.8606)"/><path d="M515.63 218.864c1.45-.893 6.027-2.344 5.47-9.04-.56-6.698-6.364-7.48-9.6-7.256-3.237.223-6.14 3.014-6.14 3.014l-10.715-6.81s5.358-33.82 11.05-35.94c5.406-3.895 6.363-5.58 6.363-6.473s-2.01-3.126-2.01-3.126l-34.936-4.13-33.038 3.906s-2.567 3.907-2.232 5.47.446 3.236 6.362 7.813c6.545 5.034 11.05 33.93 11.05 33.93s-9.264 4.578-9.822 4.02c-.558-.558-3.35-1.116-4.8-.893-1.45.223-6.25 2.68-6.25 9.04 0 6.363 4.8 10.046 4.8 10.046s31.587-3.683 36.275 5.023c4.576-10.493 34.6-6.81 38.172-8.596z" fill-rule="evenodd" stroke="#000" stroke-width=".8606pt" fill="#656263"/><path stroke-linejoin="round" d="M549.657 183.708s.35-3.67 2.972-5.42c2.62-1.747 20.102-2.62 24.297 0s5.77 15.56 5.77 15.56 2.62 4.544 2.796 7.865.524 5.594.524 5.594 13.985 18.18 14.16 34.61c1.573 11.19 1.223 41.08-3.147 52.443-.175 14.158-6.118 23.424-6.118 23.424s1.4 2.446 1.224 5.07c-.176 2.62-1.574 5.068-1.574 5.068l20.452 10.14-7.517-2.798s7.693 6.467 7.517 6.293c-.175-.175-8.565-4.02-8.565-4.02l5.068 5.07c-.175-.177-12.41-5.595-12.41-5.595s5.767 5.42 5.418 5.244c-.35-.175-9.265-4.37-9.265-4.37s5.595 5.943 5.42 5.593-8.04-3.496-8.04-3.496l.35 2.97s-6.294-.348-6.294-5.07c-3.146-1.746-5.245-4.194-5.245-4.194l-14.507-2.447-16.432-49.12 3.847-83.033 1.05-4.195-1.75-11.187z" stroke-opacity=".979" fill-rule="evenodd" stroke="#000" stroke-width="1.07575"/><path d="M538.676 449.057s-8.416-17.71-12.613-17.958c-3.786-7.22 13.16-66.235 45.94-69.6 18.022 1.486 1.482 20.777-10.368 14.84 1.48 5.194 7.406 12.614 7.406 12.614s-23.452 10.14-30.364 60.103z" fill-rule="evenodd" stroke="#000" stroke-width="1.1394344" fill="#fb0"/><path d="M425.834 451.64s6.966-20.153 11.196-20.402c4.23-.25-11.196-67.172-44.78-67.67-18.163 1.493-1.494 20.898 10.448 14.927-1.493 5.225-7.464 12.688-7.464 12.688s23.635 10.2 30.6 60.456z" fill-rule="evenodd" stroke="#000" stroke-width=".8606pt" fill="#fb0"/><path d="M456.644 325.76c-.08-.163-8.336 2.588-2.994 11.572.404-3.48 4.127-5.584 4.127-5.584s-5.665 6.717.324 12.382c.73-5.34 4.128-7.04 4.128-7.04s-4.208 12.382.08 14.89c.487-4.937 3.643-7.122 3.643-7.122s-3.803 11.088-.403 13.597c.404-4.21 3.236-6.07 3.236-6.07s-1.7 11.492 2.753 12.3c.08-4.044 3.317-8.01 3.317-8.01s-1.457 9.387 5.504 9.792c.08-3.56 1.376-7.608 1.376-7.608s3.156 9.954 7.77 8.335c-.082-2.913.08-8.417 0-8.417s2.913 9.47 8.415 7.69c-.81-2.672.325-5.828.325-5.828s2.913 5.908 8.174 3.965c.89-1.78-.244-5.26-.244-5.26s7.69 7.932 10.036 3.156c2.346-4.773-6.152-6.392-6.152-6.392h5.746s-1.86-4.856-9.63-5.908c2.67-1.214 5.422-.324 5.422-.324s-1.62-6.07-9.55-6.717c3.075-1.053 6.475-.325 6.475-.325s-1.052-5.746-9.792-7.364c1.376-1.537 5.098-1.052 5.098-1.052s-3.48-5.422-7.445-5.098-39.817-3.642-39.736-3.56z" fill-rule="evenodd" stroke="#000" stroke-width=".8606pt" fill="#00713d"/><g stroke="#3ec26d" stroke-linecap="round" stroke-width="1.25" fill="none"><path d="M492.006 354.976s3.156 1.538 3.075 2.914M493.873 352.472s4.047 2.832 3.966 4.936M497.428 351.01s3.237 2.022 3.4 5.18M502.85 352.308s1.618 3.48 1.05 4.128M506.094 354.167c.243 2.752-.244 2.994-.244 2.994M466.188 336.766s3.804 2.428 3.48 5.827M465.947 339.683s1.78 1.7 1.376 2.833M470.646 336.852s2.508 3.48 1.7 5.908M474.932 339.115s1.133 2.185.08 3.4M476.954 340.165s1.376 2.185.162 2.913M475.422 347.368s3.56.81 4.047 3.48M477.522 344.942s3.722.242 4.127 4.208M482.462 343.565c.08 0 2.508 4.29 2.104 5.664M487.238 343.97s.972 4.126.243 5.42M490.31 345.587c0 .08.08 4.775.08 4.775M485.62 339.115s2.347.89 2.185 3.157M487.798 337.007s2.994 1.7 2.67 4.937M491.283 335.638s2.59 3.075 1.62 6.475M495.81 336.36s-.972 3.805-.567 5.343M498.564 338.952s-1.7 1.295-.81 2.914M483.84 353.763s.565 2.913 0 3.398M480.112 352.067s1.862 3.237 1.214 4.856M476.145 351.904s2.104 2.428 2.023 4.37M472.91 352.386s1.942 1.86 1.78 2.913M471.214 355.217s1.86 1.942 1.78 2.347" stroke-width="1.07575"/></g><path d="M430.955 222.358c8.923-.16 17.844-.32 26.767-.478 0 0 17.686 0 19.6 5.736 3.344-7.648 18.64-7.17 18.64-7.17l27.723-.956.48 66.92c-5.42 25.97-24.22 44.294-44.933 52.1-24.696-7.966-40.31-28.838-45.41-52.58-.956-21.19-1.91-42.38-2.867-63.572z" fill-rule="evenodd" stroke="#000" stroke-width=".8606pt" fill="#fff"/><path d="M440.49 222.108l38.992 103.91 35.224-106.173c-10.926.705-34.372-1.72-37.284 8.25-4.506-8.923-29.17-5.326-36.932-5.986z" fill-rule="evenodd" stroke="#000" stroke-width=".8606pt" fill="#006b00"/><path d="M467.03 278.366c1.5.784 1.46-28.2 3.43-29.1.562-2.4.844-3.45 1.547-6-1.688-3-9.286-2.85-12.1-.3 1.266 4.05 1.83 5.4 1.83 5.4 3.8 6.15 3.044 30.654 5.294 30z" fill-rule="evenodd" stroke="#006b00" stroke-linecap="round" stroke-width=".5929534" fill="#ffc900"/><path stroke-linejoin="round" d="M456.584 54.34s2.754-3.13 2.88-3.88c.125-.752 12.52-1.252 19.907-15.025 4.132-7.26 0-3.004 0-3.004l-.25-3.505s5.134-4.883 3.256-7.512c-1.878-2.63-1.252 3.38-4.258 3.255-3.004-.125-1.377-6.51-1.377-6.51s-.248-.752-1.125-1.127c-1.252.126-.877 2.38-2.004 2.63-1.125.25-2.127-5.26-2.127-5.26s-1.878-2.503-3.506 5.385c.877 8.39 6.26 6.76 6.26 12.27s-4.757 9.766-6.134 9.89c-1.378.126-.877-4.632-.877-4.632s-.75-2.254-1.252-2.254 2.754-.5 2.254-6.762c-1.127-7.512-2.003 1.753-4.007 1.378s-.5-6.886.252-7.638-.877-3.88-5.26 4.132c-.375 3.88-.875-1.002-1.75-.75-1.504 3.13-1.254 5.382.875 8.262 3.13 2.88 5.133 5.76 5.007 7.262-.124 1.502-1.752 4.883-4.006 4.883s.125-4.132 0-5.51c-.125-1.376-3.88-6.384-3.88-6.384s-2.63-4.257-2.38-4.383c.25-.125-.25-.75-1.502 3.63s-2.755-2.878-2.755-2.878-1.75 5.383 2.004 8.638c-2.88-.375-3.13.752-3.13.752 0 1.502 3.882 2.128 4.383 4.757s-4.006 4.13-4.006 4.13 1.878 2.63 7.137-2.503c.125 3.255-2.004 5.51-2.004 5.51 1.753.792 3.13.708 3.38 2.753z" fill-rule="evenodd" stroke="#000" stroke-width="1.07575" fill="#cdad56"/><path stroke-linejoin="round" d="M439.406 54.34s-2.34-3.473-2.446-4.157c-.106-.683-11.51.864-16.907-13.045-3.51-6.607 0-2.734 0-2.734l.212-3.19s-3.733-4.568-2.138-6.96c1.594-2.393.938 3.075 2.99 3.087 2.55-.113 1.17-5.924 1.17-5.924s.21-.683.956-1.025c1.062.115 1.495 3.543 2.453 3.77.956.23 2.933-4.033 3.56-4.91.876-.125.843-3.53 2.226 3.647-.744 7.634-7.07 6.153-7.07 11.165 0 5.013 4.042 8.887 5.21 9 1.17.114.745-4.215.745-4.215s.637-2.05 1.063-2.05c.426 0-3.716.796-3.29-4.9.956-5.334 3.078.342 4.778 0 1.703-.34-.198-5.64.29-6.448.112-.81 2.62-4.284 3.59 3.383.318 3.53 2.245-3.04 2.99-2.812 1.276 2.85-.565 6.652-2.372 9.273-2.658 2.62-3.86 5.49-3.752 6.858.106 1.368.736 3.067 2.65 3.067 1.915 0 .646-2.382.752-3.636.106-1.252 3.297-5.308 3.297-5.308.625-1.002.105-2.872.768-3.737 1.04.01 1.466-1.435 2.53 2.552 1.062 3.988 2.338-2.62 2.338-2.62s1.49 4.9-1.7 7.86c2.445-.34 2.657.685 2.657.685 0 1.367-1.167 1.936-1.593 4.33-.426 2.39 1.273 3.76 1.273 3.76s-1.594 2.39-6.06-2.28c-.107 2.962 1.702 5.013 1.702 5.013-1.49.72-2.658.645-2.87 2.506z" fill-rule="evenodd" stroke="#000" stroke-width=".9457994000000001" fill="#cdad56"/><path d="M508.202 237.607c-2.332-2.116-2.61-.267-3.756-.74-.562-.236-1.003-.763-1.492-1.24-.425-.438-.93-.62-1.492-.855l-.636 1.88c-.212.627.59 1.665.572 2.605-.16 1.4-.728 2.555-2.482 3.035.5-.992.784-1.04.63-2.25-.074-.603-1.765-1.675-1.557-2.248.31-.92.838-1.983.447-2.9-.72.49-1.66.233-2.38.533-.605.27-.647 1.395-1.488 1.863-.864.404-2.766.204-4.354-.698.97-.736 1.773-.24 2.743-.976.485-.368.462-1.945.948-2.313s1.648-.76 2.133-1.13c-.435-.497-.412-1.284-.848-1.78-.437-.498-2.373-.39-2.81-.888-.873-.994-.707-2.303-1.58-3.297 2.26.81 1.932 1.912 2.5 1.83 1.07-.514 2.14-.617 2.7-.38.562.236 1.63 1.633 2.192 1.87.212-.627.52-1.423.734-2.05.212-.627-.954-1.713-.74-2.34.423-1.253 1.476-2.36 1.9-3.615.153 1.21.353 2.225.506 3.435.076.604 1.264.918 1.34 1.523.076.605-.62 2.008-.544 2.612.65-.13 1.588-.04 2.236-.17.65-.13 1.08-1.638 1.73-1.767 1.296-.26 2.23-.18 3.553.07-.972.904-1.725.843-2.333 1.676-.486.37.19 1.583-1.215 2.435-.527.306-1.914-.062-2.4.307l1.31 1.49c.436.497 2.398.73 2.834 1.227.873.994 1.336 2.18 1.096 3.248zM448.244 238.632c2.333-2.117 2.61-.27 3.757-.74.562-.238 1.003-.765 1.492-1.242.425-.438.93-.618 1.492-.855l.637 1.88c.214.626-.59 1.665-.572 2.606.16 1.4.728 2.556 2.482 3.036-.5-.992-.783-1.04-.63-2.25.075-.604 1.765-1.675 1.557-2.248-.31-.92-.838-1.982-.447-2.902.72.493 1.66.235 2.38.534.605.27.646 1.395 1.488 1.863.862.405 2.765.204 4.353-.697-.97-.737-1.773-.24-2.743-.977-.485-.37-.463-1.946-.948-2.314-.487-.368-1.65-.76-2.135-1.13.437-.496.414-1.283.85-1.78.437-.497 2.373-.39 2.81-.888.872-.994.706-2.303 1.58-3.297-2.26.813-1.932 1.913-2.5 1.83-1.07-.513-2.14-.615-2.7-.38-.562.237-1.63 1.635-2.193 1.87-.212-.626-.52-1.422-.733-2.05-.214-.625.953-1.71.74-2.338-.424-1.254-1.478-2.362-1.902-3.615-.152 1.21-.353 2.225-.505 3.434-.077.605-1.265.92-1.342 1.524-.074.605.623 2.007.547 2.612-.65-.13-1.588-.042-2.237-.17-.648-.13-1.08-1.638-1.73-1.768-1.297-.26-2.23-.18-3.553.07.97.905 1.725.843 2.333 1.676.485.368-.19 1.583 1.214 2.435.527.304 1.914-.062 2.4.306l-1.31 1.49c-.436.498-2.397.73-2.833 1.227-.873.994-1.335 2.18-1.096 3.25z" fill-rule="evenodd" fill="#ffc900"/><path stroke-linejoin="round" d="M506.11 244.303c-2.11 1.65-15.757 5.1-15.898 16.95-.14 11.85 2.393 14.55-.14 14.85-4.925 0-5.628-13.2-5.487-19.05.14-5.85.28-4.95.28-4.95s3.377.9 3.096 3.75c-.28 2.85 3.377-7.05 2.112-9.75 2.25 2.25 5.205 1.35 5.205 1.2 0-.15-1.688-1.95-2.392-3.3-.703-1.35 2.533.75 2.533.75s.14-2.25-2.674-2.1c-3.657 0 .564-1.2.564-1.2s2.11 1.95 3.517-.15c-1.548-1.65-3.798-2.55-3.798-2.55s-1.97-3.75-4.643-4.5c-3.096-.75-2.674 1.35-6.192 1.05-.703 1.35-.703 1.5.704 1.95-2.39 1.65-1.125 4.95-1.125 4.95s3.8-1.65 3.658 1.05c-.14 2.7-2.25 2.25-3.657.6-1.265-.75-1.688.75-1.688.75l1.97 2.1s-3.8-.15-4.784 2.4c2.11-.15 3.237.45 3.237.45s-4.363 1.95-4.785 3c-.42 1.05-.562-1.2-.703-1.2-.14 0-4.22-1.5-4.22-1.5l-1.41 6.486s2.816 2.813 4.364 1.912c1.55-.9 4.362-3.6 6.05-2.85-4.924 3.75-9.848 9.15-12.52 9.9-.705-.6-3.096-3-4.08-1.8-.986 1.2-.283 2.7.984 2.55 1.265-.15-4.08 1.2-2.955 3.45s.984 2.1 1.97 1.5c.984-.6-.845-.75 2.812-1.8 3.66-1.05 3.518-2.1 3.518-2.1s-.704 1.65-2.673 2.1c-1.97.45-3.518.45-3.095 1.05.422.6 1.265 1.65.984 2.25-.28.6 4.08-3.15 5.206-.15 2.955-.15 4.924-3.75 3.517-5.85.14 2.25 1.547 3 .703 4.05s6.612-3.45 2.954-6.15c.986 2.25 1.126 4.05 1.126 4.05s1.688-.15 2.11-.75c.422-.6-.844 1.65-.28 2.1.56.45 3.235 3 2.11 4.8-.704-1.05-.845-2.7-1.688-2.55-.845.15-4.363 2.7-6.473 2.85s2.533 7.8 2.533 7.8-3.237-.45-3.658-.15c-.422.3-2.532-2.7-2.955-.9-.704 2.25.703 1.35.703 1.35s-1.83-.9-2.813.15c-.985 1.05-1.97 2.1-1.267 2.55.704.45 3.8.45 4.22.3s-3.516.3-3.797.75c-.283.45-.845 2.1 0 2.7s2.954-.3 3.094-.75c.142-.45.283 1.65.283 1.65s3.657.3 3.657-3.45.283 2.7.283 2.7 3.657.6 3.797-3.15.422 2.55.422 2.55 2.393-.75 2.393-1.35c0-.6-.142 7.5-1.83 9.75-2.673-1.8-4.362 1.2-4.362 1.2s.14 4.35-.14 5.4c-.28 1.05 1.83-.6 1.97-1.05.14-.45 2.673-1.65 2.814-1.95l.843-1.8s-.563 2.1-1.548 2.4-1.97 1.35-1.548 2.25c.423.9 1.97 1.5 2.533 2.4.563.9 2.532-5.25 2.532-5.25l.14 1.35s2.533-.6 2.815-1.8c.28-1.2-2.673-2.25-.282-4.2 2.392-1.95 0 1.8 0 1.8s.845 2.85 1.408 2.85 1.97-5.4.562-6.75c-1.407-1.35 2.11 1.65 2.11 1.65s1.97-5.55-.14-6.3-3.095-1.05-3.095-1.05 1.125-1.5.563-1.65 2.954 3.3 3.517 2.4 1.407-3.6-2.672-5.1c-4.08-1.5-.14-5.7-.14-5.7s2.53 3 4.36 1.35c1.83-1.65-.14-1.65-.14-1.65s5.205-3.3 5.345-4.95c-.985-.15-2.673.15-2.673.15s2.955-1.95 2.252-5.1c-1.126 1.65-2.674 1.65-2.674 1.65s2.533-2.55 2.11-4.95c-1.547 1.2-1.407 2.1-2.39 1.8s-2.674-9.75 1.265-10.35c3.94-.6 1.83 4.65 1.97 4.65.14 0 5.91-2.4 0-6.3 1.407-.45 4.36 2.25 4.36 2.25s-1.265-6.6-7.596-2.55c1.548-1.65 2.533-2.7 3.8-2.4 1.265.3 5.768-.15 5.768-1.5-1.126-.9-3.518.45-4.785 0-1.266-.45 9.005-1.2 8.16-6.3z" fill-rule="evenodd" stroke="#006b00" stroke-linecap="round" stroke-width=".5929534" fill="#ffc900"/><path d="M481.3 118.54s12.247-6.43 18.37 1.53M504.57 132.32c-.306 0-4.286 3.98-5.205 3.98M512.84 145.18s11.328.918 18.676-10.41" transform="matrix(.45953 0 0 .48992 240.333 190.12)" stroke="#006b00" stroke-linecap="round" stroke-width="1.25" fill="none"/><path d="M525.08 141.81s.92 6.123 2.756 6.123-3.062 1.53-4.9.306c2.144 2.755 3.37 7.654 0 9.49" transform="matrix(.45953 0 0 .48992 240.333 190.12)" stroke="#006b00" stroke-linecap="round" stroke-width="1.25" fill="none"/><path d="M519.26 218.97s-3.98 4.286-8.88 4.592" fill-rule="evenodd" transform="matrix(.45953 0 0 .48992 240.333 190.12)" stroke="#006b00" stroke-linecap="round" stroke-width="1.25" fill="#e80000"/><path d="M523.86 199.37s-2.45-12.247-.92-15.31c.92-3.978 4.9-5.51 7.962-10.715M522.63 190.49s-3.062 7.348-16.533 4.9M526.31 172.12s.92 9.797-11.328 6.123M511.3 128.04s-4.9 4.287-3.062 10.104" transform="matrix(.45953 0 0 .48992 240.333 190.12)" stroke="#006b00" stroke-linecap="round" stroke-width="1.25" fill="none"/><path d="M483.732 247.596s2.955-1.2 3.517-1.8c.562-.6 1.547-1.8 1.828-2.7.282-.9-1.97-2.25-.844-4.2.704-.9 1.688-1.05 3.377 0 1.69 1.05-1.547-3.3-3.235-3.45s-2.814 1.2-3.236.9c-.423-.3.14 1.2-.564 1.2s1.407 1.2 1.267 1.95c-.14.75 2.25 3.3 2.11 3.9-.14.6-3.517 4.05-4.22 4.2z" fill-rule="evenodd" fill="#006b00"/><path stroke-linejoin="round" d="M534.27 97.112c2.794-.636 3.243.07 2.755 2.45-1.31-.66-1.79-1.218-2.755-2.45z" fill-rule="evenodd" transform="matrix(.45953 0 0 .48992 240.333 190.12)" stroke="#ffc900" stroke-linecap="round" stroke-width="1.25" fill="#ffc900"/><path stroke-linejoin="round" d="M514.71 233.52s-1.033 6.41 1.49 6.946c-.125-2.48.537-4.176 1.157-4.837-.538-.25-2.522-2.068-2.647-2.11zM509.03 225.63c-2.316-.33-6.23 1.59-5.105 3.91 1.88-1.62 3.626.135 4.94-1.518.405-.453.29-1.812.165-2.392zM509.01 221.05s-3.65-.58-4.157 1.948c2.52-.32 3.274-.59 4.11-.06.24-.54.007-1.762.047-1.888z" fill-rule="evenodd" transform="matrix(.45953 0 0 .48992 240.333 190.12)" stroke="#006b00" stroke-width="1.25" fill="#e80000"/><path stroke-linejoin="round" d="M493.54 184.94s2.19.828 2.81 3.06c1.737-1.075 2.565-5.83-2.81-3.06zM488.12 190.39c.083-.04 4.59-2.77 5.045-.165-.952.95-1.365 1.57-2.11 1.778-.578 0-1.736-1.778-2.935-1.613zM487.67 199.24c.082-.042 2.894-2.522 3.97-.868 1.074 1.653-.87 1.57-.87 1.57s-.992-.454-3.1-.702zM483.7 149.96c-.04 0-3.597-1.364-5.085 1.116 2.357.29 3.184 1.117 4.258 1.944-.29-1.034-.785-2.605.827-3.06zM476.8 168.52s.165-4.176 2.15-5.87c1.116.62 1.446 1.61 2.19 2.852-1.487.33-3.472.413-4.34 3.018zM486.3 165.54s-3.928 1.82-2.646 3.804c1.282-1.364 2.688-.95 2.688-.992s0-2.77-.042-2.812z" fill-rule="evenodd" transform="matrix(.45953 0 0 .48992 240.333 190.12)" stroke="#006b00" stroke-width="1pt" fill="#e80000"/><path stroke-linejoin="round" d="M480.64 125.6c-1.406 1.57 1.736 5.003 5.044 4.507.827-3.72-4.217-5.664-5.044-4.507z" fill-rule="evenodd" transform="matrix(.45953 0 0 .48992 240.333 190.12)" stroke="#006b00" stroke-width="1pt" fill="#ffc900"/><path d="M461.183 248.13c-.317.857.943 2.06 1.672 1.72.297-.877-1.343-2.402-1.672-1.72z" fill="none"/><path stroke-linejoin="round" d="M484.28 122.75s.62 2.936 3.473 2.15c-.455-2.274-2.44-3.97-2.44-3.97-.123.663.414 1.696-1.033 1.82zM486.18 131.27s1.57 1.695 4.672-1.778c-1.405.413-3.886-.827-3.886-.827s0 2.398-.786 2.605z" fill-rule="evenodd" transform="matrix(.45953 0 0 .48992 240.333 190.12)" stroke="#006b00" stroke-width="1pt" fill="#e80000"/><path stroke-linejoin="round" d="M480.46 118.86c-1.406 1.57.583 3.762 3.89 3.266.828-3.72-3.063-4.423-3.89-3.266z" fill-rule="evenodd" transform="matrix(.45953 0 0 .48992 240.333 190.12)" stroke="#006b00" stroke-width="1pt" fill="#ffc900"/><path d="M144.62 266.62s7.037-2.01 10.77 1.005 3.735.287 3.735.287 5.457 2.01 7.037 1.58-1.148.144 1.006-1.15c2.154-1.29-4.31.29-4.883-2.44-1.006-1.724.143-3.878-2.154-3.16-1.58-2.01 1.006-3.446.43-5.6-1.578 1.148-2.44-.432-3.733 2.44-3.015-.574-.43-4.74-3.734-5.17 0 3.016-2.442 3.16-2.585 4.883-1.436 1.006-7.755 4.74-5.888 7.325z" fill-rule="evenodd" fill="url(#d)" transform="translate(337.27 11.7) scale(.8606)"/><path d="M392.025 438.196c3.93-.948 25.22 4.7 33.43 13.502-1.743-15.674-6.086-27.682-6.086-27.682s-12.688-3.62-14.43-1.877c-2.555 2.69-10.228 10.75-12.915 16.056zM385.534 365.802c-1.493.25-2.985 1.245-4.478 3.732-1.74 4.23-2.985 14.927-5.473 17.415-2.488 2.487-4.727 2.736-4.727 4.975 0 2.24.25 7.463 6.966 9.454 6.717.248 17.415-10.7 17.415-10.7s5.473-5.97 7.712-12.438c-12.937 4.478-22.142-7.464-17.416-12.44z" fill-rule="evenodd" stroke="#000" stroke-width=".8606pt" fill="#c01500"/><path d="M572.635 435.7c-3.9-.943-25.435 4.673-33.58 13.423 1.73-15.582 6.038-27.52 6.038-27.52 1.503-.41 12.453-3.597 14.182-1.866 2.534 2.675 10.693 10.688 13.36 15.963zM578.668 363.728c1.482.247 2.005 2.194 3.215 4.667 1.727 4.204 3.508 10.33 5.977 12.802 2.47 2.474 4.69 6.138 4.69 8.364 0 2.226-.52 5.234-7.185 7.212-6.666.248-16.324-8.31-16.324-8.31s-5.43-5.937-7.653-12.368c12.838 4.453 21.152-7.01 17.28-12.366z" fill-rule="evenodd" stroke="#000" stroke-width="1.1394344" fill="#c01500"/><path d="M378.07 424.52s13.435 9.206 13.685 13.435c36.074-53.49 128.126-70.158 180.622-3.73 6.966-9.206 14.18-12.192 14.18-12.192-55.232-72.152-165.2-63.194-208.488 2.487z" fill-rule="evenodd" stroke="#000" stroke-width=".8606pt" fill="#fb0"/><g stroke="#000" fill-rule="evenodd" fill="#1e5aa6"><path d="M514.93 219.86l5.258-.124-9.39 11.893 11.27 13.145-22.162 27.92 20.91 25.166c-2.296 5.635-4.968 10.77-8.515 15.4l-12.018-13.27 21.785-27.17-17.904-20.282 10.767-32.677zM439.81 222.236l-5.634.125 10.516 11.394-11.143 13.898 23.16 25.165-19.155 25.666c2.296 5.634 5.593 11.894 9.14 16.526l11.393-14.4-23.412-26.04 17.152-21.785-12.02-30.55z" stroke-width=".86059pt"/><path d="M465.85 289.844l-8.263 11.018 29.548 34.18c5.217-2.63 9.307-5.634 13.772-9.265l-15.4-17.78 6.26-18.404 9.015 10.392-28.17 35.933c-4.716-2.003-9.933-5.133-14.65-9.015l14.9-18.905-7.01-18.154zM456.71 272.692l5.385 6.76-3.505-9.14-1.88 2.38z" stroke-width=".86059pt"/><path d="M495.274 278.673c.118-.125 4.345-5.76 4.345-5.76l-1.645-2.253-2.7 8.013z" stroke-width="1.1110216899999998"/></g><text font-weight="bold" transform="rotate(-49.557 181.31 -359.47) scale(.8606)" font-size="14" y="362.397" x="-328.344" font-family="Timmons"><tspan y="362.397" x="-328.344">L</tspan></text><text font-weight="bold" transform="rotate(-45.392 182.624 -397.364) scale(.8606)" font-size="14" y="384.266" x="-292.335" font-family="Timmons"><tspan y="384.266" x="-292.335">E</tspan></text><text font-weight="bold" transform="matrix(.65646 -.4687 .48855 .64907 337.27 11.7)" font-size="14" y="451.681" x="-239.78" font-family="Timmons"><tspan y="451.681" x="-239.78">O</tspan></text><text font-weight="bold" transform="matrix(.71295 -.482 .482 .71295 337.27 11.7)" font-size="14" y="429.958" x="-188.526" font-family="Timmons"><tspan y="429.958" x="-188.526">T</tspan></text><text font-weight="bold" transform="rotate(-25.55 194.44 -737.93) scale(.8606)" font-size="14" y="451.479" x="-115.426" font-family="Timmons"><tspan y="451.479" x="-115.426">E</tspan></text><text font-weight="bold" transform="rotate(-23.988 196.174 -787.924) scale(.8606)" font-size="14" y="453.046" x="-94.111" font-family="Timmons"><tspan y="453.046" x="-94.111">R</tspan></text><text font-weight="bold" transform="rotate(-21.91 198.86 -865.313) scale(.8606)" font-size="14" y="454.982" x="-68.371" font-family="Timmons"><tspan y="454.982" x="-68.371">R</tspan></text><text font-weight="bold" transform="rotate(-4.763 309.32 -4049.292) scale(.8606)" font-size="14" y="445.666" x="112.016" font-family="Timmons"><tspan y="445.666" x="112.016">R</tspan></text><text font-weight="bold" transform="rotate(.856 -614.1 22567.454) scale(.8606)" font-size="14" y="430.793" x="180.225" font-family="Timmons"><tspan y="430.793" x="180.225">R</tspan></text><text font-weight="bold" transform="rotate(29.645 146.527 643.095) scale(.8606)" font-size="14" y="275.217" x="414.759" font-family="Timmons"><tspan y="275.217" x="414.759">R</tspan></text><text font-weight="bold" transform="rotate(39.802 152.474 471.674) scale(.8606)" font-size="14" y="193.05" x="483.878" font-family="Timmons"><tspan y="193.05" x="483.878">E</tspan></text><text font-weight="bold" transform="matrix(.82923 .15587 -.13366 .81914 337.27 11.7)" font-size="14" y="414.028" x="309.116" font-family="Timmons"><tspan y="414.028" x="309.116">O</tspan></text><text font-weight="bold" transform="matrix(.77615 -.11325 .11745 .83908 337.27 11.7)" font-size="14" y="459.272" x="105.058" font-family="Timmons"><tspan y="459.272" x="105.058">O</tspan></text><text font-weight="bold" transform="rotate(-20.292 201.327 -936.478) scale(.8606)" font-size="14" y="455.835" x="-45.708" font-family="Timmons"><tspan y="455.835" x="-45.708">A</tspan></text><text font-weight="bold" transform="matrix(.60644 .6106 -.6106 .60644 337.27 11.7)" font-size="14" y="144.724" x="518.35" font-family="Timmons"><tspan y="144.724" x="518.35">A</tspan></text><text font-weight="bold" transform="rotate(11.357 109.807 1701.894) scale(.8606)" font-size="14" y="388.298" x="271.188" font-family="Timmons"><tspan y="388.298" x="271.188">A</tspan></text><text font-weight="bold" transform="rotate(-10.645 231.433 -1804.25) scale(.8606)" font-size="14" y="455.168" x="40.322" font-family="Timmons"><tspan y="455.168" x="40.322">M</tspan></text><text font-weight="bold" transform="rotate(-5.94 281.395 -3244.35) scale(.8606)" font-size="14" y="448.079" x="94.429" font-family="Timmons"><tspan y="448.079" x="94.429">P</tspan></text><text font-weight="bold" transform="rotate(-1.463 626.984 -13205.62) scale(.8606)" font-size="14" y="437.607" x="155.088" font-family="Timmons"><tspan y="437.607" x="155.088">P</tspan></text><text font-weight="bold" transform="rotate(29.5 146.412 646.394) scale(.8606)" font-size="14" y="276.665" x="405.134" font-family="Timmons"><tspan y="276.665" x="405.134">P</tspan></text><text font-weight="bold" transform="rotate(6.586 67.003 2937.11) scale(.8606)" font-size="14" y="409.793" x="232.095" font-family="Timmons"><tspan y="409.793" x="232.095">I</tspan></text><text font-weight="bold" transform="rotate(46.586 155.046 397.548) scale(.8606)" font-size="14" y="132.089" x="530.392" font-family="Timmons"><tspan y="132.089" x="530.392">T</tspan></text><text font-weight="bold" transform="rotate(36.816 151.056 512.55) scale(.8606)" font-size="14" y="218.519" x="464.158" font-family="Timmons"><tspan y="218.519" x="464.158">T</tspan></text><text font-weight="bold" transform="rotate(16.412 128.065 1175.23) scale(.8606)" font-size="14" y="361.961" x="313.725" font-family="Timmons"><tspan y="361.961" x="313.725">M</tspan></text><text font-weight="bold" transform="rotate(47.66 155.39 387.656) scale(.8606)" font-size="14" y="123.248" x="513.704" font-family="Timmons"><tspan y="123.248" x="513.704">G</tspan></text><g stroke="#fff700" stroke-linecap="round" stroke-width="1pt" fill="none"><path d="M557.532 184.63s5.19-4.45 8.9-4.575M558.28 184.01c.124-.124 31.025-4.45 32.014-5.44M558.4 184.26c.125-.125 34.61-2.968 34.61-2.968M558.28 184.38s36.71-1.73 38.936.123M558.152 184.26s35.97.246 36.587 1.11M558.28 184.26l34.61 2.84M557.91 184.508c.124 0 35.228 3.09 38.69 7.54M598.445 198.347c-.123-.123-11.99-14.215-40.666-13.968M557.91 184.63s19.9 1.358 26.205 8.28M558.28 184.38s12.855-2.472 26.328 13.72" stroke-width=".8606pt"/></g><path d="M247.4 217.74s20.718.813 20.718 2.844-15.437 5.89-15.64 14.422c-.203 8.53 11.78 9.14 12.593 19.905.814 10.767-9.342 12.39-11.374 15.235-2.03 1.422-6.906 16.656-6.296 25.593.61 8.938 3.25 39.203 7.92 45.296 3.658 2.844 9.142 11.984 15.032 9.14 5.89-2.843 1.828-13.202 1.22-16.046s2.436-7.516 2.436-11.78c0-4.267-2.234-7.72-2.03-8.735.202-1.016 16.452 3.86 15.436 19.906-1.015 16.045-7.515 11.17-7.515 11.17s2.03 19.703-3.048 22.343c-9.14 4.875-15.843-1.015-15.843-1.015l.858 4.007-6.953-3.6s-8.937-12.798-10.968-18.485-4.47-31.077-3.656-36.56c.813-5.486 1.422-37.58 1.016-39.204s-2.03-28.436-1.015-32.5c1.016-4.06 7.313-21.936 7.11-21.936z" fill-rule="evenodd" stroke="#000" stroke-width="1pt" fill="url(#e)" transform="translate(337.27 11.7) scale(.8606)"/><path d="M530.957 194.543s12.41-12.06 19.577-10.663c3.672 0 .175 2.622.175 2.622s6.292.525 7.166 3.322c.175 1.223-2.97 1.573-2.97 1.573s2.62.524 2.796 2.797-26.57.524-26.745.35z" fill-rule="evenodd" stroke="#000" stroke-width=".8606pt" fill="#ff7000"/><path d="M531.654 194.018s13.285-1.748 18.88-7.342M545.114 190.352s9.79-.35 9.79 1.05" stroke="#000" stroke-width=".8606pt" fill="none"/><path stroke-linejoin="round" d="M579.9 333.34s8.39-1.922 10.662-4.894c1.4-1.05 8.74 11.013-10.663 4.895z" fill-rule="evenodd" stroke="#000" stroke-width="1.07575" fill="#fff"/><path d="M577.627 263.942s1.05 6.467-1.923 10.837c-1.574 1.747-6.293 4.72-6.293 6.817 0 2.097 1.75 4.894 1.4 7.342s-2.972 4.894-2.798 6.99c0 2.1 2.972 13.286 2.623 13.46M562.248 242.97s-6.642 2.272-8.04 8.915" stroke="#fff" stroke-linecap="round" stroke-width="1.07575" fill="none"/><path d="M559.442 190.352s2.273 6.294 9.615.35c-4.72-6.467-9.615-.175-9.615-.35z" fill-rule="evenodd" stroke="#000" stroke-width=".8606pt" fill="#c75b00"/><path d="M564.865 190.086c0 .338-.352.612-.787.612s-.786-.274-.786-.612c0-.338.352-.612.786-.612s.787.274.787.612z" fill-rule="evenodd"/><path d="M499.416 175.748s13.922 15.068 22.93 14.904c1.637 4.422-4.09 8.536-6.383 10.5-4.586-1.473-8.73.27-19.376-12.833.655-8.354 2.992-12.245 2.83-12.572zM518.254 140.695c1.802-5.568 5.405-9.99 8.517-10.482-.818-4.258 6.552-23.093 28.008-30.3 1.31 9.663-9.172 19.163-9.172 19.163s31.61-5.405 37.998-13.43c-.655 3.603-7.043 26.04-40.782 25.878 12.776 12.12-4.094 21.783-11.3 18.835 13.266-10.156-3.768-16.216-13.268-9.665z" fill-rule="evenodd" stroke="#000" stroke-width=".8606pt" fill="#fff"/><path d="M529.063 132.838c6.388-4.095 8.68-4.095 13.922-3.276-3.767.492-3.767.656-3.767.656s-.327.49 1.966 2.62c-2.62-.655-4.914-2.13-12.12 0z" fill-rule="evenodd" stroke="#ccc" stroke-width=".8606pt" fill="#cccccd"/><path d="M526.602 130.213s12.61-6.715 19.654-11.3" stroke="#000" stroke-width=".8606pt" fill="none"/><path d="M515.793 201.135s17.36 4.75 19.326-20.146c-3.768-10.81-9.01-34.067-.983-40.783-7.37-5.077-15.396.164-15.396.164-.49 1.148-7.042 10.483 1.802 26.862-20.964-5.568-12.448 14.25-12.448 14.25.82-3.113 11.957-6.06 14.74 9.826 1.147 3.93-7.533 9.99-7.042 9.828z" fill-rule="evenodd" stroke="#000" stroke-width=".8606pt" fill="#00f"/><path d="M535.285 181.152s18.344-9.827 17.853-32.92c-15.56.327-21.128 20.472-21.128 20.472l3.276 12.448z" fill-rule="evenodd" stroke="#000" stroke-width=".8606pt" fill="#00f"/><path d="M453.064 180.008s-13.594 11.792-21.292 8.025c-5.733 3.44-12.448-2.62-12.448-2.62s7.862 28.99 36.032 8.025c-.49-6.388-1.965-12.94-2.293-13.43z" fill-rule="evenodd" stroke="#000" stroke-width=".8606pt" fill="#fff"/><path d="M431.61 187.538c1.145-6.06 5.895-9.008 9.663-3.276 5.077.983 10.155-19.818-7.862-16.378 5.078-27.188-10.153-37.343-10.153-37.343s-5.405 30.137-2.948 35.706c2.455 5.57-3.605-10.318-23.095-14.74-.327 22.766 21.784 33.412 21.784 33.412s6.223 5.732 12.61 2.62z" fill-rule="evenodd" stroke="#000" stroke-width=".8606pt" fill="#00f"/><path d="M433.408 167.718s-8.517 7.207-6.552 17.034M420.473 166.737s-1.966 7.043 2.293 17.034M419.162 186.066s3.93-6.387 12.448 1.802" stroke="#000" stroke-width=".8606pt" fill="none"/><path d="M420.8 141.84c0-.164-12.94 0-5.24 13.103-5.734 1.8-18.51-6.552-9.665-17.69-28.99-.654-40.782-14.576-40.782-27.35 8.517 8.844 28.826 5.24 36.032 10.645-8.844-8.19-7.042-19.49-7.042-19.49s24.732 7.37 29.153 29.317c-1.474 4.258-2.13 11.793-2.456 11.465z" fill-rule="evenodd" stroke="#000" stroke-width=".8606pt" fill="#fff"/><path d="M400.904 119.98c4.773 4.857 17.037 6.308 23.26 11.713" stroke="#000" stroke-width=".8606pt" fill="none"/><path d="M406.55 134.31s10.153-1.31 13.096 2.293c-3.973 0-5.297-.983-11.036 1.146 1.62-.82 1.177-2.294 2.06-2.294s-3.678-1.146-4.12-1.146z" fill-rule="evenodd" stroke="#ccc" stroke-width=".8158488" fill="#cccccd"/><path d="M457.16 54.873s5.57-4.914 11.63-.492c-2.74 8.183-12.613 5.08-12.613 5.08s.328 4.093-.655 6.06c1.977 1.484 3.604 6.386 3.604 6.386s10.155-2.456 12.284 1.966c3.89-.537 6.715 0 6.715 0s7.862-1.966 10.646-1.966c2.785 0 11.63 2.293 12.448 3.93.82 1.64 3.767 12.612 5.733 12.45 1.966-.165-4.75 2.62-6.55-.165-1.802-2.783-1.31 3.604-1.31 3.604s5.568 5.897 6.223 7.207c.655 1.31-3.44 11.957-.328 19.327-2.726.252-2.948 3.112-2.948 3.112-.15 3.244-4.258 4.094-4.258 4.094l-.984-4.422-2.784 1.638 1.146-3.44s3.767-9.172 4.095-12.12c.327-2.948-3.44-8.19-6.388-8.19s-5.077 9.337-5.077 9.337-1.474 7.042-.983 7.698c.492.655-1.965-2.293-1.965-2.293s-1.31 4.258-2.293 5.568c-.983 1.31-3.112 1.802-3.112 1.802s-1.474-4.258-.983-5.896c.492-1.638 8.026-8.026 7.37-12.612-.655-4.585 0-3.44-.163-3.603-.165-.163-3.932-3.438-4.096-5.24-.164-1.8-4.913 2.293-11.137.983-1.905 3.328-2.13 11.628-2.13 11.628s-.654 9.992.656 11.138c1.31 1.147-3.276 3.604-3.276 3.604l-3.275 4.422s-1.147-2.785-1.147-2.62c0 .163-2.293 1.637-2.293 1.637l1.31-3.275c-.08-2.48 3.185-9.25 3.185-14.984 0-5.732.42-11.876.42-11.876s-6.06-.327-5.898 5.896c.163 6.224-1.475 6.552-1.147 8.354.328 1.8 1.965 6.878 1.474 8.353-.49 1.474-2.457 1.965-2.457 1.965l-.49.82s-6.06 2.783-5.897 3.93c.163 1.146-.164-3.276-.164-3.276l-.33-4.75s3.605-2.293 3.605-8.025-.83-6.547-.667-7.857c.164-1.31.994-6.064.83-6.555-.163-.492-3.44 1.31-4.422 1.31s1.802-3.44 2.13-5.896c.327-2.457-3.276 2.293-6.224-.492 1.37-3.024 3.44-3.93 3.767-6.223s-2.294 1.965-4.587.327c.186-2.198 2.456-4.095 2.456-4.095s-1.867-.23-2.62 0c-1.475-.492 1.637-2.785 1.8-6.06.164-3.276-1.8-4.587-1.8-4.75 0-.164-3.277-2.948-3.768-4.095-.492-1.146-.492-2.457-.492-2.457s-5.404 3.93-11.792-4.422c5.85-4.994 12.12-1.31 12.12-1.31s1.637-4.586 9.172-4.26c7.534.33 9.008 4.587 8.68 4.096z" fill-rule="evenodd" stroke="#000" stroke-width=".8606pt" fill="#923f00"/><path d="M498.366 139.594c.136 0 13.913.41 14.05 7.775.135 7.364-4.23 5.455-4.366 5.455s-10.094-1.228-10.094-1.228l.41-12.003z" fill-rule="evenodd" stroke="#000" stroke-width=".8606pt" fill="#00f"/><path d="M484.992 137.546s17.187-.137 16.232 7.365c-.955 7.503-5.32 6.003-5.32 6.003l-8.32-.682-2.592-12.684z" fill-rule="evenodd" stroke="#000" stroke-width=".8606pt" fill="#fffeff"/><path d="M475.31 136.728l9.957.818s6.002.82 5.73 6.548c-.274 5.73-6.14 5.865-6.14 5.865l-9.683-.547.136-12.685z" fill-rule="evenodd" stroke="#000" stroke-width=".8606pt" fill="#00f"/><path d="M451.988 139.594c-.136 0-13.913.41-14.05 7.775-.136 7.364 4.23 5.455 4.366 5.455s10.094-1.228 10.094-1.228l-.413-12.005z" fill-rule="evenodd" stroke="#000" stroke-width=".8606pt" fill="#fff"/><path d="M465.353 137.546s-17.187-.137-16.232 7.365c.956 7.503 5.32 6.003 5.32 6.003l8.322-.682 2.59-12.684z" fill-rule="evenodd" stroke="#000" stroke-width=".8606pt" fill="#00f"/><path d="M475.043 136.728l-9.957.818s-6 .82-5.73 6.548c.274 5.73 6.14 5.865 6.14 5.865l9.684-.547-.137-12.685z" fill-rule="evenodd" stroke="#000" stroke-width=".8606pt" fill="#fff"/><path d="M501.705 219.544s7.16-10.552 10.175-9.422c2.638.88.628 9.045-.628 9.798l-9.548-.376zM452.625 221.428c-2.26-3.14-5.527-11.808-8.542-9.422-2.638.88-.628 9.045.628 9.8l7.915-.378z" fill-rule="evenodd" stroke="#000" stroke-width=".8606pt" fill="#5e0043"/><path d="M457.367 200.56s13.952 8.593 18.528 8.816c4.577.224 19.087-11.162 19.087-11.162" stroke="#000" stroke-width=".8606pt" fill="none"/><path d="M458.71 166.858l2.678-3.35 13.394 6.81 13.618-6.028 2.678 2.79-15.18 10.716-17.188-10.938z" fill-rule="evenodd" stroke="#000" stroke-width=".8606pt" fill="#5e0043"/><path stroke-linejoin="round" d="M448.072 166.677c1.088 1.374 9.745 11.9 11.308 20.606 1.562 8.706-.893-11.943-.893-11.943s10.715 5.246 11.05 8.594c.335 3.35 5.123-.226 5.352-.8l-31.024-20.15 4.206 3.693zM501.008 166.074s-11.273 14.846-9.934 31.03c-2.325-7.75-.447-20.538-.447-20.538l-2.455 1.563s-2.567 10.937-5.804 12.612c-.546-1.303-.447-1.786-.447-1.786s-3.46 4.464-4.13 4.91c-.668.447.225 15.07.225 15.07s1.162 10.596 2.5 10.485c-1.523.75-3.393 1.908-3.393 1.908l-1.39-28.3 3.176-3.18s4.24-5.133 4.576-10.156c-1.84 1.562-3.907 2.01-3.907 2.01s-.558 7.143-2.232 8.147c-1.674 1.004-1.72 2.867-1.72 2.867l-.398-9.335 25.78-17.307z" fill-rule="evenodd" stroke="#474747" stroke-width="1.07575" fill="#474747"/><path d="M475.224 183.26l2.178 44.642" stroke="#000" stroke-linecap="round" stroke-width="1.07575" fill="none"/><path d="M447.77 204.578s5.135 3.013 7.033 12.166c16.742-1.228 21.988 4.688 21.988 4.688s13.73-6.585 20.092-5.358c2.232-4.688 8.594-10.715 8.594-10.715" stroke="#000" stroke-width=".8606pt" fill="none"/><path d="M440.766 160.825l34.462 22.547 31.03-20.873s6.474-3.572 5.916-6.14-2.79-1.562-3.907-1.116c-1.116.447-32.48 22.658-32.48 22.658l-33.374-21.095s-2.455-.78-2.902.782.92 2.454 1.255 3.235z" fill-rule="evenodd" stroke="#000" stroke-width=".8606pt" fill="#b4b6b9"/><path stroke-linejoin="round" d="M502.393 154.973s-8.817-3.744-8.817-.5c0 3.245.25 3.577 1.663 5.657s-1.082 3.41-1.082 3.41-.333-.914-.832-2.328c-.5-1.415-5.24-2.413-5.657-4.076-.417-1.664.998-4.326-1.83-4.66-2.83-.332-5.574 1.166-6.156 4.41-.583 3.244-4.243 10.814-4.243 10.814l.5-17.22c6.21.444 17.747 1.803 26.62 2.83-2.662-.417.998.165.915 1.08-.25.75-1.165.832-1.082.583zM471.197 150.644c-1.58 0-9.483.915-11.48 2.08-1.996 1.164 3.244 2.994 2.58 4.575-.667 1.58-.75 4.74-3.245 4.075-2.496-.666-10.897-4.825-11.147-6.24-.25-1.413-1.996-1.496-1.996-1.496s24.122-3.246 25.287-2.996z" fill-rule="evenodd" stroke="#474747" stroke-width="1.07575" fill="#474747"/><path d="M475 148.664l-.06 21.156M458.71 123.742s-9.666 15.694-9.858 16.173" stroke="#000" stroke-width=".8606pt" fill="none"/><path d="M161.8 129.74s4.893 6.672 4.337 8.562c2 1.557 4.225 7.784 4.225 7.784" fill-rule="evenodd" stroke="#000" stroke-width="1pt" fill="url(#f)" transform="translate(337.27 11.7) scale(.8606)"/><path d="M492.78 122.4s-9.09 12.823-8.804 13.78" stroke="#000" stroke-width=".8606pt" fill="none"/><path d="M446.213 61.426c-.206.717-1.364.995-2.588.62s-2.048-1.26-1.842-1.976c.206-.717 1.365-.995 2.588-.62s2.05 1.26 1.843 1.976zM449.886 61.173c.206.717 1.364.995 2.588.62s2.047-1.26 1.842-1.976c-.206-.717-1.365-.995-2.588-.62s-2.048 1.26-1.842 1.976z" fill-rule="evenodd"/><path stroke-linejoin="round" d="M556.284 326.79s-3.37.634-3.266.95-9.797.632-10.008.316c-.21-.316-1.474 1.685-1.474 1.685l1.58-.947s2.423 2.528 3.16 2.318c.738-.21-.316.95-.105 1.16.212.21.95-.422.95-.422l16.37-.274-7.206-4.783z" fill-rule="evenodd" stroke="#000" stroke-width=".8606pt" fill="#ff7000"/><path stroke-linejoin="round" d="M562.386 331.886l-13.37.387s-3.372 3.055-3.583 3.793 2.212.948 2.212.948l.738 2.528 1.685-.632s11.37 1.69 21.807-.632c5.267-1.843 6.19-4.056 2.502-5.4-3.687-1.342-11.886-.94-11.99-.992z" fill-rule="evenodd" stroke="#000" stroke-width="1.07575" fill="#ff7000"/><path d="M208.37 403.93l27.97-1.246-5.208-4.416 75.647-3.058-2.606-6.002-84.707 3.398 10.192 4.756-22.876.68.68 2.377-6.002-.227s6.68 2.605 6.908 3.737z" fill-rule="evenodd" stroke="#000" stroke-width="1pt" fill="url(#g)" transform="translate(337.27 11.7) scale(.8606)"/><path d="M239.73 249.42c-2.222-1.11-11.998-2.444-22.884 4.666l.444 25.106s15.997-8.665 23.773-6.666c-.444-7.776-.444-17.774-1.333-23.106z" fill-rule="evenodd" stroke="#000" stroke-width="1pt" fill="url(#h)" transform="translate(337.27 11.7) scale(.8606)"/><path d="M410.485 291.954l-56.762 56.35M435.783 292.367l-46.07 60.673M433.726 276.532l-61.494 74.45M370.38 349.95l5.965-6.992M445.447 313.96l-23.857 32.91M420.56 351.19l.618 12.538M456.343 325.475l-25.296 31.672M451.824 354.684l10.284-16.865M455.732 334.528l-12.34 13.985M452.03 321.37l-8.43 10.283M441.127 306.352s-25.707 37.636-25.295 40.72M438.45 301.42c-.616.412-22.21 29-22.21 29M415.01 339.46l-3.91 4.73M406.165 351.396l-5.964 7.814" stroke="#000" stroke-width=".8606pt" fill="none"/><path d="M407.677 205.335s-1.742 5.473 0 8.21 12.687 24.878 12.687 24.878 7.464-9.205 10.2-9.453c2.738-.25 1.493 23.883 1.493 23.883s-4.477 4.23-7.214 3.98c-2.737-.248 6.717 9.455 6.468 17.665s-12.438 49.01-16.916 49.757c-4.48.746 1.99-7.464 1.74-9.703-.248-2.238-1.492-.746-2.487-3.234-.995-2.488 1.493-6.22.995-8.708s-2.736-1.99-2.985-3.73 1.493-2.24 1.244-4.23c-.248-1.99-2.985-1.493-2.736-3.235.25-1.74.498-.995.25-4.23-.25-3.233-.747 2.24-3.484 2.49-2.737.248-4.976 6.467-4.976 6.467s-5.473 7.713-10.947 4.23c3.235 6.966.747 9.95-.497 10.2s.995 5.473-1.99 5.722 2.24 11.693-1.244 12.688c3.73 1.742.746 3.98.746 3.98s-8.624.717-6.717 11.943c-25.377-8.942-37.816-24.364-37.567-40.036.25-15.674 5.224-29.855 17.415-35.08 3.483-12.937 9.454-26.868 9.454-26.868s-.995-5.722-.25-9.455c.747-3.73 4.23-7.463 4.23-7.463s-.497-8.956-.25-13.434c.25-4.478 1.992-6.47 2.24-8.956.25-2.488-.746-15.177 1.742-17.415 2.487-2.24 7.214-1.992 9.7-3.485 2.49-1.492 5.724-4.23 8.958-3.98s5.97 2.488 5.97 2.488 12.19 0 12.937 4.727c.747 4.726-2.488 6.468-2.488 6.468s1.742 6.717-5.722 12.937z" fill-rule="evenodd" stroke="#2b2b2b" stroke-width=".8606pt" fill="#8a9396"/><path d="M396.852 188.097c.39.722-.5 1.96-1.986 2.764s-3.01.875-3.4.153c-.39-.72.498-1.958 1.986-2.764s3.01-.874 3.4-.153z" fill-rule="evenodd" stroke="#2b2b2b" stroke-width=".86059pt" fill="#cecfcf"/><path d="M394.787 189.354c0 .455-.414.824-.925.824-.51 0-.924-.37-.924-.824 0-.454.414-.823.924-.823s.925.37.925.824z" fill-rule="evenodd"/><path d="M412.978 197.59s3.02 13.49-.592 22.81M413.907 191.686s5.895 7.797 5.135 17.495M414.478 189.973c.19 0 4.944 4.184 4.754 7.037M415.62 188.26s3.232 2.283 3.993 4.565" stroke="#2b2b2b" stroke-width=".537875" fill="none"/><path d="M414.097 186.927s-11.6 18.826-10.078 30.616" stroke="#000" stroke-width=".8606pt" fill="none"/><path d="M414.858 186.36s-15.404 9.127-18.256 38.983" stroke="#2b2b2b" stroke-width=".537875" fill="none"/><path d="M413.147 191.875l-6.086 4.564" stroke="#000" stroke-width=".8606pt" fill="none"/><path d="M390.897 227.057s8.558-35.562 23.77-40.697" stroke="#2b2b2b" stroke-width=".537875" fill="none"/><path d="M420.563 239.036s8.177-10.27 10.08-9.888c1.9.38 1.33 23.77 1.33 23.77s-6.086 4.564-7.417 4.374c-1.33-.19 6.846 11.03 6.656 15.214-.19 4.184-.38 4.184-.38 4.184s0-2.473-1.902-6.466c-1.9-3.994-.76-8.558-13.12-18.636-3.044-6.276 6.084 3.803 7.986 2.282 1.9-1.522-3.423-14.644-3.233-14.834z" fill-rule="evenodd" stroke="#2b2b2b" stroke-width=".8606pt" fill="#2b2b2b"/><path d="M406.026 181.204s-3.438.937-3.907 2.344c-.47 1.406-2.5 2.812-3.595 2.344-1.094-.47-3.125-2.188-3.125-2.188" stroke="#2b2b2b" stroke-width=".8606pt" fill="none"/><path stroke-linejoin="round" d="M386.493 193.235s-5.157 5.157-2.657 5.782 5.157-4.063 5.157-4.063 0 7.97 2.188 6.72 8.595-5.783 8.595-5.783 2.188-.155 2.657 0c.47.158 5.938 4.846 9.532 3.127-2.032 5.313-4.375 5.938-4.375 5.938s-3.752 4.844-8.596 3.75c-4.844-1.094-6.094-3.125-6.094-3.125s-4.063.312-5.313-1.563-1.72-2.97-1.72-2.97-2.343 2.345-2.968 1.25c-.626-1.093 0-7.5 3.593-9.062z" fill-rule="evenodd" stroke="#2b2b2b" stroke-width="1.07575" fill="#2b2b2b"/><path d="M415.715 186.05s-9.532-2.814-12.814 1.874c-3.28 4.688-2.5 7.345-.78 7.813" stroke="#2b2b2b" stroke-width=".8606pt" fill="none"/><path d="M417.185 185.782c0 1.124-.804 2.035-1.797 2.035s-1.797-.91-1.797-2.035.806-2.035 1.798-2.035 1.797.91 1.797 2.035z" fill-rule="evenodd"/><path d="M389.443 210.103s3.887 5.98 8.52 7.624-3.213 3.065-7.847-.075c-3.364-4.56-2.467-7.848-2.467-7.848s.896-.897 1.793.3zM422.706 245.387s-10.913-15.173-14.053-15.996c-3.14-.82 2.392-1.494 5.756 1.72 3.362 3.215-.898-5.232-.898-5.232l9.194 19.51z" fill-rule="evenodd" stroke="#2b2b2b" stroke-width=".8606pt" fill="#2b2b2b"/><path stroke-linejoin="round" d="M388.397 333.065c4.186-1.12 22.424 10.465 26.535 13.38 4.11 2.915 12.707 1.046 12.707 1.046s-3.963 2.393-6.43 2.99 7.326.6 7.326.6-23.32 6.428-47.016-6.055c-2.168-9.717 5.083-11.885 6.876-11.96z" fill-rule="evenodd" stroke="#2b2b2b" stroke-width="1.07575" fill="#2b2b2b"/><path d="M415.082 249.122s-3.065-.598-4.634-2.392c-1.57-1.794-3.812-6.204-6.13-8.072s-13.903-8.223-18.09-7.774c-4.184.45-5.455-.448-5.978-.972-.524-.523-2.243.225-1.944 2.392.3 2.168-3.214 6.952-1.943 9.194 1.27 2.242 7.25 11.362 8.446 11.66 1.195.3.448 5.307.448 5.307s5.307 5.382 6.652 5.68c1.346.3 2.69 1.272 2.542 2.542-.15 1.27-5.83 8.223-5.83 8.223s-6.13 3.214-6.205 5.008c-.074 1.794 1.495 5.53 6.354 6.727 4.86 1.196 17.94.224 18.613-.897.673-1.12 1.72-7.848 1.27-8.52-.448-.674-3.662-2.692-5.306-2.393-1.645.3-3.14 1.644-2.99 1.943.15.3-2.317 1.57-2.317.374 0-1.196 4.858-6.578 5.307-6.13.448.45 7.325 1.122 8.596 4.56s1.27 5.905 4.858 5.532c3.59-.374 8.597-3.663 9.045-10.54.45-6.876-4.036-11.51-5.157-12.183-1.122-.672-4.86-2.914-5.158-3.96-.3-1.047-1.047-4.485-.45-5.307z" fill-rule="evenodd" stroke="#2b2b2b" stroke-width=".8606pt" fill="#2b2b2b"/><path d="M350.425 279.476s11.586-2.99 14.576-2.915c2.99.075 14.278 5.308 17.567 8.522 3.29 3.214 10.015 10.838 14.426 10.165 4.41-.673 5.68-1.57 5.68-1.57l-1.718 3.29s-3.588.97-5.382.523c-1.794-.45-5.307-1.57-8.82-5.008-3.514-3.44-14.352-12.707-23.546-12.035-9.193.673-14.5 9.717-14.5 9.717s.074-4.41.448-5.382c.374-.972-1.944 2.093-1.944 2.093l3.216-7.4z" fill-rule="evenodd" stroke="#2b2b2b" stroke-width=".8606pt" fill="#2b2b2b"/><path d="M393.106 288.443c.074.075 2.915.822 7.7.822s7.324-2.093 7.324-2.093l-.3-1.868.748-2.616s3.663 3.737 3.588 4.484c-.075.748-1.495 1.047-1.495 1.047l-.522-1.795-1.27 1.57s-6.952 5.53-10.764 4.71c-3.812-.824-7.325-3.29-6.354-3.888s1.495-.374 1.346-.374zM376.213 298.237s-4.186-.075-6.054.822c-1.87.896-2.543 2.017-3.814 1.868-1.27-.15-2.242-1.794-1.868-2.467.523-1.046 2.99-2.39 7.7-2.017s4.035 1.794 4.035 1.794zM390.864 309.597c0-.224-.3-6.13-2.616-8.52s-5.158-2.393-6.43-2.094c-1.27.3 4.71 2.915 5.31 4.634.597 1.72 2.54 6.503 2.017 7.7-.524 1.195-1.495-3.365-5.158-4.635s-8.745-.598-7.7 1.046 5.16.15 7.252 3.663 3.66 7.25 3.66 7.25l.674-2.54 1.87-.524.223-4.858.897-1.12z" fill-rule="evenodd" stroke="#2b2b2b" stroke-width=".8606pt" fill="#2b2b2b"/><path stroke-linejoin="round" d="M387.874 328.728l-3.812-7.624s-1.196-4.86-4.41-6.204c-3.214-1.346-7.475-1.122-7.55.523-.074 1.644 6.877 3.737 7.326 4.634.448.897.224 2.392-.374 2.467-.598.075-3.663-1.12-5.232-.748-1.57.374-2.467 2.392-4.784 1.794-2.317-.598-4.26-7.998-3.364-8.745.897-.748-1.72 1.345-2.242-.598-.523-1.944.747-7.998-.15-8.746-.897-.746-5.232-3.362-5.307-3.885-.074-.524.225-29.75 24.667-5.532-10.465-12.408-14.576-11.062-16.52-11.137-1.42 0-10.913.822-13.304 12.932-2.392 12.108-5.232 4.56-5.232 4.56s-.524 5.232 2.018 6.727c2.54 1.494-1.196 5.83-1.196 5.83s-4.56-11.137-3.887-15.996c-.896 3.886-.82 13.528 4.934 24.067 6.727 7.1 13.08 13.68 29.974 21.08 8.895-13.606 8.447-15.25 8.447-15.4z" fill-rule="evenodd" stroke="#2b2b2b" stroke-width="1.07575" fill="#2b2b2b"/><path stroke-linejoin="round" d="M371.878 328.805s4.933.598 6.28 3.14c1.344 2.54 1.942 6.428 1.942 6.428.823-1.644 1.196-3.065 2.84-4.26s2.84-1.346 2.766-2.243c-.074-.897-5.232-6.354-7.848-6.653-2.616-.3-7.176 2.84-7.176 2.84s-.822 1.197 1.196.748z" fill-rule="evenodd" stroke="#2b2b2b" stroke-width="1.07575" fill="#8a9396"/><path d="M383.146 341.663s12.785 5.828 33.843 6.204" stroke="#8a9396" stroke-linecap="round" stroke-width="1.07575" fill="none"/><path d="M425.826 282.316s-1.1 10.726-9.352 31.903" stroke="#2b2b2b" stroke-linecap="round" stroke-width="1.07575" fill="none"/><path d="M424.182 288.916s-2.475 7.7-9.35 13.477" stroke="#2b2b2b" stroke-width=".8606pt" fill="none"/></svg>