<svg xmlns="http://www.w3.org/2000/svg" height="480" width="640"><path fill-rule="evenodd" fill="#be0027" d="M0 0h640v480H0z"/><path fill-rule="evenodd" fill="#3b5aa3" d="M25.6 27.343h589.54v428.37H25.6z"/><path d="M314.345 413.235c2.423 1.33 6.257 1.26 8.414.105 137.788-73.3 137.868-274.325.2-346.592-2.557-1.348-6.275-1.275-8.816.104-134.27 73.46-134.63 272.206.2 346.393z" fill-rule="evenodd" fill="#cbe0e5"/><path d="M314.345 416.86c2.142 1.748 6.462 1.58 8.414.106 101.54-76.02 102.134-123.41 97.634-123.407l-200.965.103c-3.073.003 1.77 48.107 94.914 123.198z" fill-rule="evenodd" fill="#add2d9"/><path d="M235.345 331.223c8.713-2.267 19.238-2.866 27.813 1.715 7.618 3.98 12.032 3.942 20.24 4.05 8.59.117 15.344 6.43 24.633 6.676 17.104.448 24.31 8.93 11.014 8.946-6.286.01-19.76-4.19-26.262-3.287-13.587 1.402-22.21 4.41-34.994 18.632l14.777 10.125c12.782-5.21 14.924-11.07 22.002-11.303 7.996-.257 10.713-5.21 19.96-5.222 10.505 1.91 24.734-1.304 33.07-3.17 14.783-3.44 7.75-13.77-1.21-17.516-7.246-3.085-20.81-.114-29.232-3.174-6.375-2.475-1.13-6.454 2.293-7.304 3.46-.638 7.17.494 11.474 1.186 7.68.664 17.33-.074 24.073-1.13 13.944-2.16 13.356-6.25 20.09-6.36 4.91-.235 8.647-1.703 11.99-4.106 3.932-2.632 8.02-8.026 12.785-7.823l12.755.54-17.966 40.405-50.756 51.662-26.286 9.97-57.78-37.613-29.136-44.69 4.654-1.21z" fill-rule="evenodd" fill="#fdf9a1"/><path d="M301.747 291.937l116.016-.54 2.04-10.28s-4.14-.617-7.48-.813c-4.164-.255-11.304 4.357-16.087 4.33-3.383-.025-7.26-6.08-10.647-5.954-5.914-.055-6.44 5.267-12.012 5.413-4.497-.154-6.413-3.588-12.236-3.247-6.107.345-5.652 3.706-13.367 3.515-10.19-.254-14.28-9.096-22.433-9.195-13.607-.162-14.05 12.985-23.795 16.77z" fill-rule="evenodd" fill="#179a3b"/><path d="M301.747 294.416l119.414-.608v-3.244l-122.13.608 2.717 3.244z" fill-rule="evenodd" fill="#fdf9a1"/><path d="M350.818 330.303c1.84 7.053 3.78 9.45 11.196 11.25 7.326 1.8 18.502-5.342 11.557-12.237-6.613-6.415-13.562-8.044-19.487-13.82-12.47-12.32-31.255-42.503-31.273-63.79-.015-18.278-1.778-55.796-1.79-91.33.01-2.303-6.944 6.455-6.933 8.795.32 31.35.27 55.043 1.544 86.655 1.975 23.108 13.003 38.668 22.685 52.712 4.338 6.73 10.608 13.987 12.502 21.767z" fill-rule="evenodd" fill="#a79270"/><text font-family="helvetica" font-size="25.614" stroke="#fff" y="269.487" x="465.114" stroke-width="1.638" fill="#bd0728" transform="matrix(1.3 0 0 1.3 -363.1 -108.1)"><tspan>G</tspan></text><text font-family="helvetica" font-size="25.614" stroke="#fff" y="269.607" x="488.065" stroke-width="1.638" fill="#bd0728" transform="matrix(1.3 0 0 1.3 -363.1 -108.1)"><tspan>U</tspan></text><text font-family="helvetica" font-size="25.614" stroke="#fff" y="269.59" x="516.053" stroke-width="1.638" fill="#bd0728" transform="matrix(1.3 0 0 1.3 -363.1 -108.1)"><tspan>A</tspan></text><text font-family="helvetica" font-size="25.614" stroke="#fff" y="269.542" x="539.532" stroke-width="1.638" fill="#bd0728" transform="matrix(1.3 0 0 1.3 -363.1 -108.1)"><tspan>M</tspan></text><path d="M245.547 154.786c-1.506 2.905 3.525-.848 4.665-1.252 6.52-2.32 9.073-10.556 20.304-5.598 8.842 3.82 20.71 1.6 14.506 5.468-7.666 4.588-22.934 9.672-23.234 32.428 1.276 2.226 1.368 1.875 2.435-.51 2.32-5.304 13.384-19.71 18.86-18.51 2.204.57 8.677-6.51 8.828-4.488.587 5.683-8.79 17.178-8.69 32.566.025 3.564 4.408 4.718 6.52 2.21 2.1-2.21 3.283-4.495 6.962-7.4 6.502-5.336 4.707-27.965 5.51-26.9 4.602 5.958 5.31 22.766 12.166 29.66 5.697 5.73 10.304 2.986 9.06-4.972-2.474-15.95-10.014-11.39-13.603-27.888-.728-3.215-.907-6.118 3.346-4.774 5.203 1.508 8.255 3.924 12.136 9.792 3.878 5.595 11.152 10.958 15.356 14.252 7.334 5.635 9.91.715 6.41-6.518-3.875-8.115-12.608-14.843-20.55-17.787-6.017-2.078-8.162-2.276-13.462-3.295-1.474-.313-2.997-3.33-.377-4.998 5.614-3.432 12.332-7.308 19.143-7.504 6.558-.166 11.753 5.09 16.352 6.407 9.17 2.404 9.124-3.417 5.082-7.734-3.32-3.645-10.345-9.758-16.903-8.947-13.23 1.623-12.396 1.253-20.513 6.637-2.977 1.755-6.283 3.69-5.05 1.563 2.97-5.342.203-4.424 4.79-9.86 3.568-3.982 6.188-6.85 9.724-7.844 3.36-.81 7.795-4.378 9.17-6.188 3.294-4.558.453-7.16-4.64-5.634-4.42 1.216-6.796 4.158-9.834 4.97-7.126 2.246-12.877 18.55-13.755 20.86-1.136 2.76-2.393 1.392-2.16-.945 1.028-11.512 2-30.786-2.065-38.72-6.12-11.7-5.552-6.245-7.902-.694-3.537 8.82-2.308 17.04-.08 25.686.973 4.315 4.587 9.225 5.235 12.61.466 2.662-1.544-.827-2.714-2.422-3.842-5.88-6.65-9.858-12.91-13.06-4.274-2.706-15.79-3.07-19.8-1.837-1.735.535 1.926 3.012 3.477 4.243 4.196 3.335 12.148 4.375 17.497 7.663 4.594 2.825 8.092 4.64 9.615 8.546.634 2.898 1.576 7.2-.335 7.096-5.01-.288-12.8-4.624-28.792-2.842-8.166 1.08-15.257 8.066-19.777 16.462z" fill-rule="evenodd" fill="#239e46"/><path fill-rule="evenodd" d="M280.4 301.075h4.64v7.734h-4.64z"/><path d="M257.364 249.556c18.4 25.48 47.893 40.332 48.483 51.904-18.634-.075-38.832.01-57.467-.064 13.202-15.874 21.25-26.592 8.984-51.84z" fill-rule="evenodd" fill="#fdf9ff"/><path d="M240.633 302.037c25 5.574 54.843 8.645 73.906-.78.155 5.572-6.2 13.593-11.41 13.593h-47.966c5.572-.798 8.75-2.498 17.815-2.97l-25.468.314c-2.813.105-7.814-7.45-6.877-10.157z" fill-rule="evenodd" fill="#a68861"/><path d="M297.326 412.992c2.54 1.393 6.558 1.318 8.82.11 144.43-76.875 144.508-287.69.21-363.492-2.68-1.413-6.576-1.337-9.24.11-140.74 77.04-141.116 285.466.21 363.27zm.718-17.355c2.22 1.23 5.725 1.165 7.7.096 120.896-71.15 122.376-259.116.183-326.495-2.34-1.718-5.74-1.18-8.066.097-115.786 68.473-122.244 248.69.184 326.3z" fill-rule="evenodd" fill="#be0027"/><text font-size="25.614" y="269.487" x="465.114" font-family="helvetica" fill="#bd0728" transform="matrix(1.3 0 0 1.3 -363.1 -108.1)"><tspan>G</tspan></text><text font-size="25.614" y="269.607" x="488.065" font-family="helvetica" fill="#bd0728" transform="matrix(1.3 0 0 1.3 -363.1 -108.1)"><tspan>U</tspan></text><text font-size="25.614" y="269.59" x="516.053" font-family="helvetica" fill="#bd0728" transform="matrix(1.3 0 0 1.3 -363.1 -108.1)"><tspan>A</tspan></text><text font-size="25.614" y="269.542" x="539.532" font-family="helvetica" fill="#bd0728" transform="matrix(1.3 0 0 1.3 -363.1 -108.1)"><tspan>M</tspan></text></svg>