<svg xmlns="http://www.w3.org/2000/svg" height="480" width="640"><defs><clipPath id="a"><path fill-opacity=".67" d="M-85.31 0h682.67v512H-85.31z"/></clipPath></defs><g clip-path="url(#a)" fill-rule="evenodd" transform="matrix(.9 0 0 .9 80 0)"><path fill="#fff" d="M-191.96 0h896v512h-896z"/><path fill="#da0000" d="M-191.96 343.84h896V512h-896z"/><g stroke-width="1pt" fill="#fff"><path d="M-21.628 350.958h49.07v3.377h-49.07zM-14.312 367.842h3.377v3.28h-3.377zM27.57 367.736v3.377h-9.807v-3.377zM32.844 350.958h3.377v20.16h-3.376z"/><path d="M52.38 367.736v3.377H33.793v-3.377zM17.763 359.85h3.377v11.27h-3.377z"/><path d="M49.614 350.958h3.377v20.16h-3.376zM41.172 350.958h3.377v20.16H41.17zM-3.627 358.982v3.377h-17.91v-3.378zM35.673 358.982v3.377h-17.91v-3.378z"/><path d="M17.763 359.85h3.377v11.27h-3.377z"/><path d="M17.763 359.85h3.377v11.27h-3.377z"/><path d="M17.763 359.85h3.377v11.27h-3.377zM-21.537 359.85h3.377v11.27h-3.377zM7.27 359.85h3.376v11.27H7.27zM-7.002 359.85h3.377v11.27h-3.377z"/><path d="M9.64 367.736v3.377H-5.5v-3.377zM10.646 358.982v3.377H1.048v-3.378z"/></g><g stroke-width="1pt" fill="#fff"><path d="M-102.228 350.958h49.07v3.377h-49.07zM-94.912 367.842h3.377v3.28h-3.377zM-53.03 367.736v3.377h-9.807v-3.377zM-47.756 350.958h3.377v20.16h-3.376z"/><path d="M-28.22 367.736v3.377h-18.586v-3.377zM-62.837 359.85h3.377v11.27h-3.377z"/><path d="M-30.986 350.958h3.377v20.16h-3.376zM-39.428 350.958h3.377v20.16h-3.378zM-84.227 358.982v3.377h-17.91v-3.378zM-44.927 358.982v3.377h-17.91v-3.378z"/><path d="M-62.837 359.85h3.377v11.27h-3.377z"/><path d="M-62.837 359.85h3.377v11.27h-3.377z"/><path d="M-62.837 359.85h3.377v11.27h-3.377zM-102.137 359.85h3.377v11.27h-3.377zM-73.33 359.85h3.376v11.27h-3.377zM-87.602 359.85h3.377v11.27h-3.377z"/><path d="M-70.96 367.736v3.377H-86.1v-3.377zM-69.954 358.982v3.377h-9.598v-3.378z"/></g><g stroke-width="1pt" fill="#fff"><path d="M58.297 350.958h49.07v3.377h-49.07zM65.613 367.842h3.376v3.28h-3.377zM107.494 367.736v3.377h-9.807v-3.377zM112.77 350.958h3.376v20.16h-3.377z"/><path d="M132.303 367.736v3.377H113.72v-3.377zM97.687 359.85h3.377v11.27h-3.377z"/><path d="M129.54 350.958h3.376v20.16h-3.377zM121.097 350.958h3.377v20.16h-3.377zM76.298 358.982v3.377h-17.91v-3.378zM115.597 358.982v3.377h-17.91v-3.378z"/><path d="M97.687 359.85h3.377v11.27h-3.377z"/><path d="M97.687 359.85h3.377v11.27h-3.377z"/><path d="M97.687 359.85h3.377v11.27h-3.377zM58.388 359.85h3.377v11.27h-3.377zM87.194 359.85h3.377v11.27h-3.376zM72.922 359.85H76.3v11.27H72.92z"/><path d="M89.563 367.736v3.377h-15.14v-3.377zM90.57 358.982v3.377h-9.598v-3.378z"/></g><g stroke-width="1pt" fill="#fff"><path d="M622.682 350.958h49.07v3.377h-49.07zM629.998 367.842h3.377v3.28h-3.377zM671.88 367.736v3.377h-9.807v-3.377zM677.154 350.958h3.377v20.16h-3.376z"/><path d="M696.69 367.736v3.377h-18.586v-3.377zM662.073 359.85h3.377v11.27h-3.377z"/><path d="M693.924 350.958h3.377v20.16h-3.376zM685.482 350.958h3.377v20.16h-3.378zM640.683 358.982v3.377h-17.91v-3.378zM679.983 358.982v3.377h-17.91v-3.378z"/><path d="M662.073 359.85h3.377v11.27h-3.377z"/><path d="M662.073 359.85h3.377v11.27h-3.377z"/><path d="M662.073 359.85h3.377v11.27h-3.377zM622.773 359.85h3.377v11.27h-3.377zM651.58 359.85h3.376v11.27h-3.377zM637.308 359.85h3.377v11.27h-3.377z"/><path d="M653.95 367.736v3.377h-15.14v-3.377zM654.956 358.982v3.377h-9.598v-3.378z"/></g><g stroke-width="1pt" fill="#fff"><path d="M138.742 350.958h49.07v3.377h-49.07zM146.058 367.842h3.377v3.28h-3.377zM187.94 367.736v3.377h-9.807v-3.377zM193.214 350.958h3.377v20.16h-3.376z"/><path d="M212.75 367.736v3.377h-18.586v-3.377zM178.133 359.85h3.377v11.27h-3.377z"/><path d="M209.984 350.958h3.377v20.16h-3.376zM201.542 350.958h3.377v20.16h-3.378zM156.743 358.982v3.377h-17.91v-3.378zM196.043 358.982v3.377h-17.91v-3.378z"/><path d="M178.133 359.85h3.377v11.27h-3.377z"/><path d="M178.133 359.85h3.377v11.27h-3.377z"/><path d="M178.133 359.85h3.377v11.27h-3.377zM138.833 359.85h3.377v11.27h-3.377zM167.64 359.85h3.376v11.27h-3.377zM153.368 359.85h3.377v11.27h-3.377z"/><path d="M170.01 367.736v3.377h-15.14v-3.377zM171.016 358.982v3.377h-9.598v-3.378z"/></g><g stroke-width="1pt" fill="#fff"><path d="M219.482 350.958h49.07v3.377h-49.07zM226.798 367.842h3.377v3.28h-3.377zM268.68 367.736v3.377h-9.807v-3.377zM273.954 350.958h3.377v20.16h-3.376z"/><path d="M293.49 367.736v3.377h-18.586v-3.377zM258.873 359.85h3.377v11.27h-3.377z"/><path d="M290.724 350.958h3.377v20.16h-3.376zM282.282 350.958h3.377v20.16h-3.378zM237.483 358.982v3.377h-17.91v-3.378zM276.783 358.982v3.377h-17.91v-3.378z"/><path d="M258.873 359.85h3.377v11.27h-3.377z"/><path d="M258.873 359.85h3.377v11.27h-3.377z"/><path d="M258.873 359.85h3.377v11.27h-3.377zM219.573 359.85h3.377v11.27h-3.377zM248.38 359.85h3.376v11.27h-3.377zM234.108 359.85h3.377v11.27h-3.377z"/><path d="M250.75 367.736v3.377h-15.14v-3.377zM251.756 358.982v3.377h-9.598v-3.378z"/></g><path fill="#239f40" d="M-191.96 0h896v168.16h-896z"/><g stroke-width="1pt" fill="#fff"><path d="M300.692 350.958h49.07v3.377h-49.07zM308.008 367.842h3.377v3.28h-3.377zM349.89 367.736v3.377h-9.807v-3.377zM355.164 350.958h3.377v20.16h-3.376z"/><path d="M374.7 367.736v3.377h-18.586v-3.377zM340.083 359.85h3.377v11.27h-3.377z"/><path d="M371.934 350.958h3.377v20.16h-3.376zM363.492 350.958h3.377v20.16h-3.378zM318.693 358.982v3.377h-17.91v-3.378zM357.993 358.982v3.377h-17.91v-3.378z"/><path d="M340.083 359.85h3.377v11.27h-3.377z"/><path d="M340.083 359.85h3.377v11.27h-3.377z"/><path d="M340.083 359.85h3.377v11.27h-3.377zM300.783 359.85h3.377v11.27h-3.377zM329.59 359.85h3.376v11.27h-3.377zM315.318 359.85h3.377v11.27h-3.377z"/><path d="M331.96 367.736v3.377h-15.14v-3.377zM332.966 358.982v3.377h-9.598v-3.378z"/></g><g stroke-width="1pt" fill="#fff"><path d="M381.422 350.958h49.07v3.377h-49.07zM388.738 367.842h3.377v3.28h-3.377zM430.62 367.736v3.377h-9.807v-3.377zM435.894 350.958h3.377v20.16h-3.376z"/><path d="M455.43 367.736v3.377h-18.586v-3.377zM420.813 359.85h3.377v11.27h-3.377z"/><path d="M452.664 350.958h3.377v20.16h-3.376zM444.222 350.958h3.377v20.16h-3.378zM399.423 358.982v3.377h-17.91v-3.378zM438.723 358.982v3.377h-17.91v-3.378z"/><path d="M420.813 359.85h3.377v11.27h-3.377z"/><path d="M420.813 359.85h3.377v11.27h-3.377z"/><path d="M420.813 359.85h3.377v11.27h-3.377zM381.513 359.85h3.377v11.27h-3.377zM410.32 359.85h3.376v11.27h-3.377zM396.048 359.85h3.377v11.27h-3.377z"/><path d="M412.69 367.736v3.377h-15.14v-3.377zM413.696 358.982v3.377h-9.598v-3.378z"/></g><g stroke-width="1pt" fill="#fff"><path d="M462.162 350.958h49.07v3.377h-49.07zM469.478 367.842h3.377v3.28h-3.377zM511.36 367.736v3.377h-9.807v-3.377zM516.634 350.958h3.377v20.16h-3.376z"/><path d="M536.17 367.736v3.377h-18.586v-3.377zM501.553 359.85h3.377v11.27h-3.377z"/><path d="M533.404 350.958h3.377v20.16h-3.376zM524.962 350.958h3.377v20.16h-3.378zM480.163 358.982v3.377h-17.91v-3.378zM519.463 358.982v3.377h-17.91v-3.378z"/><path d="M501.553 359.85h3.377v11.27h-3.377z"/><path d="M501.553 359.85h3.377v11.27h-3.377z"/><path d="M501.553 359.85h3.377v11.27h-3.377zM462.253 359.85h3.377v11.27h-3.377zM491.06 359.85h3.376v11.27h-3.377zM476.788 359.85h3.377v11.27h-3.377z"/><path d="M493.43 367.736v3.377h-15.14v-3.377zM494.436 358.982v3.377h-9.598v-3.378z"/></g><g stroke-width="1pt" fill="#fff"><path d="M543.372 350.958h49.07v3.377h-49.07zM550.688 367.842h3.377v3.28h-3.377zM592.57 367.736v3.377h-9.807v-3.377zM597.844 350.958h3.377v20.16h-3.376z"/><path d="M617.38 367.736v3.377h-18.586v-3.377zM582.763 359.85h3.377v11.27h-3.377z"/><path d="M614.614 350.958h3.377v20.16h-3.376zM606.172 350.958h3.377v20.16h-3.378zM561.373 358.982v3.377h-17.91v-3.378zM600.673 358.982v3.377h-17.91v-3.378z"/><path d="M582.763 359.85h3.377v11.27h-3.377z"/><path d="M582.763 359.85h3.377v11.27h-3.377z"/><path d="M582.763 359.85h3.377v11.27h-3.377zM543.463 359.85h3.377v11.27h-3.377zM572.27 359.85h3.376v11.27h-3.377zM557.998 359.85h3.377v11.27h-3.377z"/><path d="M574.64 367.736v3.377H559.5v-3.377zM575.646 358.982v3.377h-9.598v-3.378z"/></g><g stroke-width="1pt" fill="#fff"><path d="M-183.788 350.958h49.07v3.377h-49.07zM-176.472 367.842h3.377v3.28h-3.377zM-134.59 367.736v3.377h-9.807v-3.377zM-129.316 350.958h3.377v20.16h-3.376z"/><path d="M-109.78 367.736v3.377h-18.586v-3.377zM-144.397 359.85h3.377v11.27h-3.377z"/><path d="M-112.546 350.958h3.377v20.16h-3.376zM-120.988 350.958h3.377v20.16h-3.378zM-165.787 358.982v3.377h-17.91v-3.378zM-126.487 358.982v3.377h-17.91v-3.378z"/><path d="M-144.397 359.85h3.377v11.27h-3.377z"/><path d="M-144.397 359.85h3.377v11.27h-3.377z"/><path d="M-144.397 359.85h3.377v11.27h-3.377zM-183.697 359.85h3.377v11.27h-3.377zM-154.89 359.85h3.376v11.27h-3.377zM-169.162 359.85h3.377v11.27h-3.377z"/><path d="M-152.52 367.736v3.377h-15.14v-3.377zM-151.514 358.982v3.377h-9.598v-3.378z"/></g><g stroke-width="1pt" fill="#fff"><path d="M-21.628 143.442h49.07v3.377h-49.07zM-14.312 160.326h3.377v3.28h-3.377zM27.57 160.22v3.377h-9.807v-3.377zM32.844 143.442h3.377v20.16h-3.376z"/><path d="M52.38 160.22v3.377H33.793v-3.377zM17.763 152.333h3.377v11.27h-3.377z"/><path d="M49.614 143.442h3.377v20.16h-3.376zM41.172 143.442h3.377v20.16H41.17zM-3.627 151.466v3.377h-17.91v-3.377zM35.673 151.466v3.377h-17.91v-3.377z"/><path d="M17.763 152.333h3.377v11.27h-3.377z"/><path d="M17.763 152.333h3.377v11.27h-3.377z"/><path d="M17.763 152.333h3.377v11.27h-3.377zM-21.537 152.333h3.377v11.27h-3.377zM7.27 152.333h3.376v11.27H7.27zM-7.002 152.333h3.377v11.27h-3.377z"/><path d="M9.64 160.22v3.377H-5.5v-3.377zM10.646 151.466v3.377H1.048v-3.377z"/></g><g stroke-width="1pt" fill="#fff"><path d="M-102.228 143.442h49.07v3.377h-49.07zM-94.912 160.326h3.377v3.28h-3.377zM-53.03 160.22v3.377h-9.807v-3.377zM-47.756 143.442h3.377v20.16h-3.376z"/><path d="M-28.22 160.22v3.377h-18.586v-3.377zM-62.837 152.333h3.377v11.27h-3.377z"/><path d="M-30.986 143.442h3.377v20.16h-3.376zM-39.428 143.442h3.377v20.16h-3.378zM-84.227 151.466v3.377h-17.91v-3.377zM-44.927 151.466v3.377h-17.91v-3.377z"/><path d="M-62.837 152.333h3.377v11.27h-3.377z"/><path d="M-62.837 152.333h3.377v11.27h-3.377z"/><path d="M-62.837 152.333h3.377v11.27h-3.377zM-102.137 152.333h3.377v11.27h-3.377zM-73.33 152.333h3.376v11.27h-3.377zM-87.602 152.333h3.377v11.27h-3.377z"/><path d="M-70.96 160.22v3.377H-86.1v-3.377zM-69.954 151.466v3.377h-9.598v-3.377z"/></g><g stroke-width="1pt" fill="#fff"><path d="M58.297 143.442h49.07v3.377h-49.07zM65.613 160.326h3.376v3.28h-3.377zM107.494 160.22v3.377h-9.807v-3.377zM112.77 143.442h3.376v20.16h-3.377z"/><path d="M132.303 160.22v3.377H113.72v-3.377zM97.687 152.333h3.377v11.27h-3.377z"/><path d="M129.54 143.442h3.376v20.16h-3.377zM121.097 143.442h3.377v20.16h-3.377zM76.298 151.466v3.377h-17.91v-3.377zM115.597 151.466v3.377h-17.91v-3.377z"/><path d="M97.687 152.333h3.377v11.27h-3.377z"/><path d="M97.687 152.333h3.377v11.27h-3.377z"/><path d="M97.687 152.333h3.377v11.27h-3.377zM58.388 152.333h3.377v11.27h-3.377zM87.194 152.333h3.377v11.27h-3.376zM72.922 152.333H76.3v11.27H72.92z"/><path d="M89.563 160.22v3.377h-15.14v-3.377zM90.57 151.466v3.377h-9.598v-3.377z"/></g><g stroke-width="1pt" fill="#fff"><path d="M622.682 143.442h49.07v3.377h-49.07zM629.998 160.326h3.377v3.28h-3.377zM671.88 160.22v3.377h-9.807v-3.377zM677.154 143.442h3.377v20.16h-3.376z"/><path d="M696.69 160.22v3.377h-18.586v-3.377zM662.073 152.333h3.377v11.27h-3.377z"/><path d="M693.924 143.442h3.377v20.16h-3.376zM685.482 143.442h3.377v20.16h-3.378zM640.683 151.466v3.377h-17.91v-3.377zM679.983 151.466v3.377h-17.91v-3.377z"/><path d="M662.073 152.333h3.377v11.27h-3.377z"/><path d="M662.073 152.333h3.377v11.27h-3.377z"/><path d="M662.073 152.333h3.377v11.27h-3.377zM622.773 152.333h3.377v11.27h-3.377zM651.58 152.333h3.376v11.27h-3.377zM637.308 152.333h3.377v11.27h-3.377z"/><path d="M653.95 160.22v3.377h-15.14v-3.377zM654.956 151.466v3.377h-9.598v-3.377z"/></g><g stroke-width="1pt" fill="#fff"><path d="M138.742 143.442h49.07v3.377h-49.07zM146.058 160.326h3.377v3.28h-3.377zM187.94 160.22v3.377h-9.807v-3.377zM193.214 143.442h3.377v20.16h-3.376z"/><path d="M212.75 160.22v3.377h-18.586v-3.377zM178.133 152.333h3.377v11.27h-3.377z"/><path d="M209.984 143.442h3.377v20.16h-3.376zM201.542 143.442h3.377v20.16h-3.378zM156.743 151.466v3.377h-17.91v-3.377zM196.043 151.466v3.377h-17.91v-3.377z"/><path d="M178.133 152.333h3.377v11.27h-3.377z"/><path d="M178.133 152.333h3.377v11.27h-3.377z"/><path d="M178.133 152.333h3.377v11.27h-3.377zM138.833 152.333h3.377v11.27h-3.377zM167.64 152.333h3.376v11.27h-3.377zM153.368 152.333h3.377v11.27h-3.377z"/><path d="M170.01 160.22v3.377h-15.14v-3.377zM171.016 151.466v3.377h-9.598v-3.377z"/></g><g stroke-width="1pt" fill="#fff"><path d="M219.482 143.442h49.07v3.377h-49.07zM226.798 160.326h3.377v3.28h-3.377zM268.68 160.22v3.377h-9.807v-3.377zM273.954 143.442h3.377v20.16h-3.376z"/><path d="M293.49 160.22v3.377h-18.586v-3.377zM258.873 152.333h3.377v11.27h-3.377z"/><path d="M290.724 143.442h3.377v20.16h-3.376zM282.282 143.442h3.377v20.16h-3.378zM237.483 151.466v3.377h-17.91v-3.377zM276.783 151.466v3.377h-17.91v-3.377z"/><path d="M258.873 152.333h3.377v11.27h-3.377z"/><path d="M258.873 152.333h3.377v11.27h-3.377z"/><path d="M258.873 152.333h3.377v11.27h-3.377zM219.573 152.333h3.377v11.27h-3.377zM248.38 152.333h3.376v11.27h-3.377zM234.108 152.333h3.377v11.27h-3.377z"/><path d="M250.75 160.22v3.377h-15.14v-3.377zM251.756 151.466v3.377h-9.598v-3.377z"/></g><g stroke-width="1pt" fill="#fff"><path d="M300.692 143.442h49.07v3.377h-49.07zM308.008 160.326h3.377v3.28h-3.377zM349.89 160.22v3.377h-9.807v-3.377zM355.164 143.442h3.377v20.16h-3.376z"/><path d="M374.7 160.22v3.377h-18.586v-3.377zM340.083 152.333h3.377v11.27h-3.377z"/><path d="M371.934 143.442h3.377v20.16h-3.376zM363.492 143.442h3.377v20.16h-3.378zM318.693 151.466v3.377h-17.91v-3.377zM357.993 151.466v3.377h-17.91v-3.377z"/><path d="M340.083 152.333h3.377v11.27h-3.377z"/><path d="M340.083 152.333h3.377v11.27h-3.377z"/><path d="M340.083 152.333h3.377v11.27h-3.377zM300.783 152.333h3.377v11.27h-3.377zM329.59 152.333h3.376v11.27h-3.377zM315.318 152.333h3.377v11.27h-3.377z"/><path d="M331.96 160.22v3.377h-15.14v-3.377zM332.966 151.466v3.377h-9.598v-3.377z"/></g><g stroke-width="1pt" fill="#fff"><path d="M381.422 143.442h49.07v3.377h-49.07zM388.738 160.326h3.377v3.28h-3.377zM430.62 160.22v3.377h-9.807v-3.377zM435.894 143.442h3.377v20.16h-3.376z"/><path d="M455.43 160.22v3.377h-18.586v-3.377zM420.813 152.333h3.377v11.27h-3.377z"/><path d="M452.664 143.442h3.377v20.16h-3.376zM444.222 143.442h3.377v20.16h-3.378zM399.423 151.466v3.377h-17.91v-3.377zM438.723 151.466v3.377h-17.91v-3.377z"/><path d="M420.813 152.333h3.377v11.27h-3.377z"/><path d="M420.813 152.333h3.377v11.27h-3.377z"/><path d="M420.813 152.333h3.377v11.27h-3.377zM381.513 152.333h3.377v11.27h-3.377zM410.32 152.333h3.376v11.27h-3.377zM396.048 152.333h3.377v11.27h-3.377z"/><path d="M412.69 160.22v3.377h-15.14v-3.377zM413.696 151.466v3.377h-9.598v-3.377z"/></g><g stroke-width="1pt" fill="#fff"><path d="M462.162 143.442h49.07v3.377h-49.07zM469.478 160.326h3.377v3.28h-3.377zM511.36 160.22v3.377h-9.807v-3.377zM516.634 143.442h3.377v20.16h-3.376z"/><path d="M536.17 160.22v3.377h-18.586v-3.377zM501.553 152.333h3.377v11.27h-3.377z"/><path d="M533.404 143.442h3.377v20.16h-3.376zM524.962 143.442h3.377v20.16h-3.378zM480.163 151.466v3.377h-17.91v-3.377zM519.463 151.466v3.377h-17.91v-3.377z"/><path d="M501.553 152.333h3.377v11.27h-3.377z"/><path d="M501.553 152.333h3.377v11.27h-3.377z"/><path d="M501.553 152.333h3.377v11.27h-3.377zM462.253 152.333h3.377v11.27h-3.377zM491.06 152.333h3.376v11.27h-3.377zM476.788 152.333h3.377v11.27h-3.377z"/><path d="M493.43 160.22v3.377h-15.14v-3.377zM494.436 151.466v3.377h-9.598v-3.377z"/></g><g stroke-width="1pt" fill="#fff"><path d="M543.372 143.442h49.07v3.377h-49.07zM550.688 160.326h3.377v3.28h-3.377zM592.57 160.22v3.377h-9.807v-3.377zM597.844 143.442h3.377v20.16h-3.376z"/><path d="M617.38 160.22v3.377h-18.586v-3.377zM582.763 152.333h3.377v11.27h-3.377z"/><path d="M614.614 143.442h3.377v20.16h-3.376zM606.172 143.442h3.377v20.16h-3.378zM561.373 151.466v3.377h-17.91v-3.377zM600.673 151.466v3.377h-17.91v-3.377z"/><path d="M582.763 152.333h3.377v11.27h-3.377z"/><path d="M582.763 152.333h3.377v11.27h-3.377z"/><path d="M582.763 152.333h3.377v11.27h-3.377zM543.463 152.333h3.377v11.27h-3.377zM572.27 152.333h3.376v11.27h-3.377zM557.998 152.333h3.377v11.27h-3.377z"/><path d="M574.64 160.22v3.377H559.5v-3.377zM575.646 151.466v3.377h-9.598v-3.377z"/></g><g stroke-width="1pt" fill="#fff"><path d="M-183.788 143.442h49.07v3.377h-49.07zM-176.472 160.326h3.377v3.28h-3.377zM-134.59 160.22v3.377h-9.807v-3.377zM-129.316 143.442h3.377v20.16h-3.376z"/><path d="M-109.78 160.22v3.377h-18.586v-3.377zM-144.397 152.333h3.377v11.27h-3.377z"/><path d="M-112.546 143.442h3.377v20.16h-3.376zM-120.988 143.442h3.377v20.16h-3.378zM-165.787 151.466v3.377h-17.91v-3.377zM-126.487 151.466v3.377h-17.91v-3.377z"/><path d="M-144.397 152.333h3.377v11.27h-3.377z"/><path d="M-144.397 152.333h3.377v11.27h-3.377z"/><path d="M-144.397 152.333h3.377v11.27h-3.377zM-183.697 152.333h3.377v11.27h-3.377zM-154.89 152.333h3.376v11.27h-3.377zM-169.162 152.333h3.377v11.27h-3.377z"/><path d="M-152.52 160.22v3.377h-15.14v-3.377zM-151.514 151.466v3.377h-9.598v-3.377z"/></g><g stroke-width="1pt" fill="#d90000"><path d="M-68.83 339.507h6.048v10.505h-6.048zM91.702 339.507h6.048v10.505h-6.048zM-192.003 339.507h6.048v10.505h-6.048zM-110.528 339.507h6.048v10.505h-6.048zM-29.633 339.507h6.048v10.505h-6.048zM10.39 339.507h6.05v10.505h-6.05zM51.252 339.507H57.3v10.505h-6.048zM131.727 339.507h6.048v10.505h-6.048zM334.783 339.507h6.048v10.505h-6.047zM172.586 339.507h6.048v10.505h-6.048zM212.62 339.507h6.05v10.505h-6.05zM253.06 339.507h6.047v10.505h-6.048zM293.507 339.507h6.048v10.505h-6.048zM616.65 339.507h6.047v10.505h-6.048zM373.98 339.507h6.048v10.505h-6.048zM414.84 339.507h6.05v10.505h-6.05zM456.124 339.507h6.05v10.505h-6.05zM494.9 339.507h6.05v10.505h-6.05zM536.174 339.507h6.048v10.505h-6.048zM576.622 339.507h6.048v10.505h-6.048zM696.296 339.507h6.048v10.505h-6.048zM657.518 339.507h6.048v10.505h-6.048zM-151.39 339.507h6.048v10.505h-6.048z"/></g><g stroke-width="1pt" fill="#239e3f"><path d="M-68.83 162.607h6.048v10.505h-6.048zM91.702 162.607h6.048v10.505h-6.048zM-192.003 162.607h6.048v10.505h-6.048zM-110.528 162.607h6.048v10.505h-6.048zM-29.633 162.607h6.048v10.505h-6.048zM10.39 162.607h6.05v10.505h-6.05zM51.252 162.607H57.3v10.505h-6.048zM131.727 162.607h6.048v10.505h-6.048zM334.783 162.607h6.048v10.505h-6.047zM172.586 162.607h6.048v10.505h-6.048zM212.62 162.607h6.05v10.505h-6.05zM253.06 162.607h6.047v10.505h-6.048zM293.507 162.607h6.048v10.505h-6.048zM616.65 162.607h6.047v10.505h-6.048zM373.98 162.607h6.048v10.505h-6.048zM414.84 162.607h6.05v10.505h-6.05zM456.124 162.607h6.05v10.505h-6.05zM494.9 162.607h6.05v10.505h-6.05zM536.174 162.607h6.048v10.505h-6.048zM576.622 162.607h6.048v10.505h-6.048zM696.296 162.607h6.048v10.505h-6.048zM657.518 162.607h6.048v10.505h-6.048zM-151.39 162.607h6.048v10.505h-6.048z"/></g><g fill="#da0000"><path d="M279.8 197.49c8.453 10.36 34.51 67.65-15.73 105.18-23.62 17.776-8.994 18.674-8.296 21.662 37.966-20.167 50.366-47.49 50.078-71.966-.29-24.476-13.266-46.102-26.052-54.873z"/><path d="M284.826 194.826c18.75 9.6 59.553 57.88 15.635 112.344 27.29-6.056 61.982-86.417-15.634-112.344zM227.245 194.826c-18.75 9.6-59.553 57.88-15.635 112.344-27.288-6.056-61.98-86.417 15.635-112.344z"/><path d="M232.2 197.49c-8.454 10.36-34.512 67.65 15.73 105.18 23.618 17.776 8.993 18.674 8.294 21.662-37.965-20.167-50.365-47.49-50.077-71.966.29-24.476 13.265-46.102 26.052-54.873z"/><path d="M304.198 319.11c-14.86.237-33.593-2.046-47.486-9.266 2.288 4.45 4.19 7.252 6.477 11.7 13.25 1.223 31.534 2.735 41.008-2.433zM209.225 319.11c14.86.237 33.593-2.046 47.487-9.266-2.29 4.45-4.19 7.252-6.478 11.7-13.25 1.223-31.535 2.735-41.01-2.433zM236.482 180.397c3.01 8.002 10.91 9.165 19.365 4.454 6.16 3.698 15.69 3.932 18.976-4.066 2.5 19.784-18.305 15.104-19.08 11.23-7.745 7.488-22.165 3.164-19.26-11.617z"/><path d="M256.402 331.57l7.813-8.93 1.117-120.18-9.302-8.184-9.3 7.813 1.86 120.92 7.812 8.557z"/></g></g></svg>