<svg xmlns="http://www.w3.org/2000/svg" height="480" width="640" version="1"><defs><clipPath id="a"><path fill-opacity=".67" d="M-85.333 0h682.67v512h-682.67z"/></clipPath></defs><g fill-rule="evenodd" clip-path="url(#a)" transform="matrix(.9 0 0 .9 80 0)"><path fill="#1b0073" d="M-128 0h768v512h-768z"/><path fill="#e60006" d="M-128 128h768v256h-768z"/><g stroke="#e60000" fill="#fff"><path stroke-width="1.207557" d="M93.25 248.065h325.474v52.63H93.25z"/><path d="M220 280l-5 15h320l-5-15H220z" transform="matrix(1.1 0 0 .8 -138.3 69.5)" stroke-width="1.25"/><path d="M245 280l-5 15h60l-5-15h-50z" transform="matrix(1.3 0 0 .8 37.6 69.5)" stroke-width="1.123"/><path d="M245 280l-5 15h60l-5-15h-50z" transform="matrix(.6 0 0 .8 211.2 69.5)" stroke-width="1.52"/><path d="M245 280l-5 15h60l-5-15h-50z" transform="matrix(.4 0 0 .8 272.6 69.5)" stroke-width="2.024"/><path d="M245 280l-5 15h60l-5-15h-50z" transform="matrix(1.3 0 0 .8 -106.1 69.5)" stroke-width="1.098"/><path stroke-width="1.3056065" d="M91.424 247.27H420.56v12.384H91.425z"/><path stroke-width="1.2292311" d="M349.646 248.18h64.506v52.42h-64.506z"/><path stroke-width=".8308405000000001" d="M395.79 272.745h6.45v27.852h-6.45zM367.408 272.745h6.45v27.852h-6.45z"/><path d="M245 280l-5 15h60l-5-15h-50z" transform="matrix(.7 0 0 .8 73.9 69.5)" stroke-width="1.554"/><path d="M245 280l-5 15h60l-5-15h-50z" transform="matrix(.4 0 0 .8 141.9 69.5)" stroke-width="1.956"/><path stroke-width="1.2643225" d="M221.675 248.065h67.968v52.63h-67.968z"/><path stroke-width="1.0733840000000001" d="M275.83 272.74h6.45v27.853h-6.45zM230.944 272.738h6.454v27.852h-6.454z"/><path stroke-width=".980495" d="M239.53 235.33h32.914v65.352H239.53z"/><path stroke-width="1.0733840000000001" d="M264.22 272.74h6.45v27.85h-6.45zM242.555 272.74h6.455v27.852h-6.455z"/><path d="M358.18 217.13l13.47 22.98 14.265-22.98H358.18z" transform="matrix(1 0 0 .9 -128 56.1)" stroke-width="1pt"/><path stroke-width="1.2168459" d="M375.242 248.065h18.285v65.012h-18.285z"/><path stroke-width="1.2158138" d="M378.286 248.065h12.178v65.012h-12.178z"/><g><path d="M245 280l-5 15h60l-5-15h-50z" transform="matrix(1.3 0 0 .8 -215.2 69.5)" stroke-width="1.123"/><path d="M245 280l-5 15h60l-5-15h-50z" transform="matrix(.6 0 0 .8 -34.2 69.5)" stroke-width="1.637"/><path d="M245 280l-5 15h60l-5-15h-50z" transform="matrix(.4 0 0 .8 24.3 69.5)" stroke-width="2.049"/><path stroke-width="1.2271669" d="M96.905 248.065h63.998v52.63H96.905z"/><path stroke-width=".8308405000000001" d="M109.383 272.747h6.45V300.6h-6.45zM139.056 272.748h6.45V300.6h-6.45z"/><path stroke-width="1.2168459" d="M118.847 248.065h18.286v65.012h-18.286z"/><path stroke-width="1.2158138" d="M121.882 248.065h12.177v65.012H121.88z"/></g><path stroke-width="1.3200558999999998" d="M87.77 235.68h336.445v12.383H87.77z"/><g><path stroke-width="1pt" d="M187.5 328.56h406.25v17.5H187.5z" transform="matrix(1.1 0 0 .9 -166 50.9)"/><path stroke-width="1.197" d="M226.25 284.81h327.5v17.5h-327.5z" transform="matrix(1.1 0 0 .9 -166 50.9)"/><path stroke-width="1.215" d="M221.25 288.56h337.5v17.5h-337.5z" transform="matrix(1.1 0 0 .9 -166 50.9)"/><path stroke-width="1pt" d="M187.5 328.56h406.25v17.5H187.5z" transform="matrix(1.1 0 0 .9 -166 50.9)"/><path stroke-width="1.249" d="M212.5 298.56h356.25v17.5H212.5z" transform="matrix(1.1 0 0 .9 -166 50.9)"/><path stroke-width="1.292" d="M200 311.06h381.25v17.5H200z" transform="matrix(1.1 0 0 .9 -166 50.9)"/><g><path stroke-width="1.373" d="M287.5 283.56h18.75v62.5H287.5z" transform="matrix(1 0 0 .9 -161.5 57.2)"/><path stroke-width="1.121" d="M290.62 283.56h12.5v62.5h-12.5z" transform="matrix(1 0 0 .9 -161.5 57.2)"/></g><g><path stroke-width="1.373" d="M287.5 283.56h18.75v62.5H287.5z" transform="matrix(1 0 0 .9 94.5 57.2)"/><path stroke-width="1.121" d="M290.62 283.56h12.5v62.5h-12.5z" transform="matrix(1 0 0 .9 94.5 57.2)"/></g></g><path stroke-width="1.2395521" d="M249.233 248.065h14.696v117.64h-14.697z"/><g><path d="M217.92 220.3l.184-36.915s3.362 7.236 29.512 8.82c24.75-.936 28.848-5.36 29.97-9.283l-1.026 37.515-58.64-.137z" transform="matrix(1 0 0 .9 141.6 56.1)" stroke-width="1pt"/><path d="M330.92 208.56l-18.42-20.45c6.14-5.303 17.543 3.79 17.543 3.79s6.14-23.486 32.457-33.335c26.316 9.85 32.456 33.334 32.456 33.334s11.403-9.093 17.544-3.79l-18.422 20.455H330.92z" transform="matrix(.4 0 0 .3 228.7 146.3)" stroke-width="3.528"/><path d="M330.92 208.56l-18.42-20.45c6.14-5.303 17.543 3.79 17.543 3.79s6.14-23.486 32.457-33.335c26.316 9.85 32.456 33.334 32.456 33.334s11.403-9.093 17.544-3.79l-18.422 20.455H330.92z" transform="matrix(.6 0 0 .4 182.1 136.8)" stroke-width="2.615"/><g><path d="M0 280.52c.792 0 30.112 52.3 0 53.093-30.112.793 0-51.508 0-53.093z" transform="matrix(.4 0 0 .4 384 46.9)" stroke-width="3.383"/><path d="M330.92 208.56l-18.42-20.45c6.14-5.303 17.543 3.79 17.543 3.79s6.14-23.486 32.457-33.335c26.316 9.85 32.456 33.334 32.456 33.334s11.403-9.093 17.544-3.79l-18.422 20.455H330.92z" transform="matrix(.3 0 0 .2 264.7 154.6)" stroke-width="5.963"/><path d="M330.92 208.56l-.878-16.666s6.14-23.485 32.457-33.334c26.315 9.85 32.455 33.334 32.455 33.334l-.878 16.666H330.92z" transform="matrix(.2 0 0 .2 322.7 157.3)" stroke-width="8.321"/><path d="M330.92 208.56l-.878-16.666s6.14-23.485 32.457-33.334c26.315 9.85 32.455 33.334 32.455 33.334l-.878 16.666H330.92z" transform="matrix(.3 0 0 .2 261.5 154.1)" stroke-width="5.096"/><path d="M330.92 208.56l-.878-16.666s6.14-23.485 32.457-33.334c26.315 9.85 32.455 33.334 32.455 33.334l-.878 16.666H330.92z" transform="matrix(.3 0 0 .2 261.5 159.5)" stroke-width="5.096"/><path d="M330.92 208.56l-18.42-20.45c6.14-5.303 17.543 3.79 17.543 3.79s6.14-23.486 32.457-33.335c26.316 9.85 32.456 33.334 32.456 33.334s11.403-9.093 17.544-3.79l-18.422 20.455H330.92z" transform="matrix(.3 0 0 .4 264.7 130.6)" stroke-width="3.651"/><path d="M330.92 208.56l-18.42-20.45c6.14-5.303 17.543 3.79 17.543 3.79s6.14-23.486 32.457-33.335c26.316 9.85 32.456 33.334 32.456 33.334s11.403-9.093 17.544-3.79l-18.422 20.455H330.92z" transform="matrix(.3 0 0 .4 264.7 141.4)" stroke-width="3.651"/><path d="M330.92 208.56l-.878-16.666s6.14-23.485 32.457-33.334c26.315 9.85 32.455 33.334 32.455 33.334l-.878 16.666H330.92z" transform="matrix(.3 0 0 .5 261.5 135.1)" stroke-width="3.223"/><path d="M330.92 208.56l-18.42-20.45c6.14-5.303 17.543 3.79 17.543 3.79s6.14-23.486 32.457-33.335c26.316 9.85 32.456 33.334 32.456 33.334s11.403-9.093 17.544-3.79l-18.422 20.455H330.92z" transform="matrix(.3 0 0 .3 264.7 180.3)" stroke-width="4.216"/></g></g><g><path d="M330.92 208.56l-18.42-20.45c6.14-5.303 17.543 3.79 17.543 3.79s6.14-23.486 32.457-33.335c26.316 9.85 32.456 33.334 32.456 33.334s11.403-9.093 17.544-3.79l-18.422 20.455H330.92z" transform="matrix(.4 0 0 .3 -27 144)" stroke-width="3.528"/><path d="M330.92 208.56l-18.42-20.45c6.14-5.303 17.543 3.79 17.543 3.79s6.14-23.486 32.457-33.335c26.316 9.85 32.456 33.334 32.456 33.334s11.403-9.093 17.544-3.79l-18.422 20.455H330.92z" transform="matrix(.6 0 0 .4 -73.5 134.5)" stroke-width="2.615"/><path d="M217.92 220.3l.184-36.915s3.362 7.236 29.512 8.82c24.75-.936 28.848-5.36 29.97-9.283l-1.026 37.515-58.64-.137z" transform="matrix(1 0 0 .9 -111.9 56.1)" stroke-width="1pt"/><g><path d="M0 280.52c.792 0 30.112 52.3 0 53.093-30.112.793 0-51.508 0-53.093z" transform="matrix(.4 0 0 .4 128 46.9)" stroke-width="3.383"/><path d="M330.92 208.56l-18.42-20.45c6.14-5.303 17.543 3.79 17.543 3.79s6.14-23.486 32.457-33.335c26.316 9.85 32.456 33.334 32.456 33.334s11.403-9.093 17.544-3.79l-18.422 20.455H330.92z" transform="matrix(.3 0 0 .2 8.7 154.6)" stroke-width="5.963"/><path d="M330.92 208.56l-.878-16.666s6.14-23.485 32.457-33.334c26.315 9.85 32.455 33.334 32.455 33.334l-.878 16.666H330.92z" transform="matrix(.2 0 0 .2 66.7 157.3)" stroke-width="8.321"/><path d="M330.92 208.56l-.878-16.666s6.14-23.485 32.457-33.334c26.315 9.85 32.455 33.334 32.455 33.334l-.878 16.666H330.92z" transform="matrix(.3 0 0 .2 5.5 154.1)" stroke-width="5.096"/><path d="M330.92 208.56l-.878-16.666s6.14-23.485 32.457-33.334c26.315 9.85 32.455 33.334 32.455 33.334l-.878 16.666H330.92z" transform="matrix(.3 0 0 .2 5.5 159.5)" stroke-width="5.096"/><path d="M330.92 208.56l-18.42-20.45c6.14-5.303 17.543 3.79 17.543 3.79s6.14-23.486 32.457-33.335c26.316 9.85 32.456 33.334 32.456 33.334s11.403-9.093 17.544-3.79l-18.422 20.455H330.92z" transform="matrix(.3 0 0 .4 8.7 130.6)" stroke-width="3.651"/><path d="M330.92 208.56l-18.42-20.45c6.14-5.303 17.543 3.79 17.543 3.79s6.14-23.486 32.457-33.335c26.316 9.85 32.456 33.334 32.456 33.334s11.403-9.093 17.544-3.79l-18.422 20.455H330.92z" transform="matrix(.3 0 0 .4 8.7 141.4)" stroke-width="3.651"/><path d="M330.92 208.56l-.878-16.666s6.14-23.485 32.457-33.334c26.315 9.85 32.455 33.334 32.455 33.334l-.878 16.666H330.92z" transform="matrix(.3 0 0 .5 5.5 135.1)" stroke-width="3.223"/><path d="M330.92 208.56l-18.42-20.45c6.14-5.303 17.543 3.79 17.543 3.79s6.14-23.486 32.457-33.335c26.316 9.85 32.456 33.334 32.456 33.334s11.403-9.093 17.544-3.79l-18.422 20.455H330.92z" transform="matrix(.3 0 0 .3 8.7 180.3)" stroke-width="4.216"/></g></g><g transform="matrix(1 0 0 1 -128 0)"><rect ry="6.449" height="12.898" width="85.039" y="226.28" x="329.53" stroke-width="1.226"/><path d="M353.24-212.6l1.093-56.693s-3.28 13.906-13.123 13.906H190.29c-9.843 0-13.124-13.906-13.124-13.906l1.093 56.693h174.98z" transform="matrix(.5 0 0 .8 239.2 393.3)" stroke-width="1.579"/><path d="M510.49 70.22l.41-25.61s23.557-2.998 20.288-9.332c-3.27-6.333-31.604 7.986-31.604 7.986h-113.34s-28.335-14.32-31.604-7.986c-3.27 6.334 20.288 9.332 20.288 9.332l.408 25.61h135.15z" transform="matrix(.4 0 0 .6 194.9 174.2)" stroke-width="2.4"/><path d="M510.49 70.22l.41-25.61s23.557-2.998 20.288-9.332c-3.27-6.333-31.604 7.986-31.604 7.986h-113.34s-28.335-14.32-31.604-7.986c-3.27 6.334 20.288 9.332 20.288 9.332l.408 25.61h135.15z" transform="matrix(.5 0 0 .6 159.4 186.2)" stroke-width="2.19"/><path d="M510.49 70.22l.41-25.61s23.557-3 20.288-9.332c-3.27-6.333-27.29-18.36-61.81-31.08-24.29-5.905 31.26-26.346-21.07-27.71-48.02.758-5.42 23.32-21.07 28.62-38.84 11.81-69.33 23.837-72.6 30.17-3.27 6.334 20.29 9.332 20.29 9.332l.408 25.61h135.15z" transform="matrix(.1 0 0 .3 314.2 134.1)" stroke-width="6.247"/><path d="M510.49 70.22l.41-25.61s23.557-2.998 20.288-9.332c-3.27-6.333-31.604 7.986-31.604 7.986h-113.34s-28.335-14.32-31.604-7.986c-3.27 6.334 20.288 9.332 20.288 9.332l.408 25.61h135.15z" transform="matrix(.3 0 0 .5 246.6 156.8)" stroke-width="3.152"/><path d="M510.49 70.22l.41-25.61s23.557-2.998 20.288-9.332c-3.27-6.333-31.604 7.986-31.604 7.986h-113.34s-28.335-14.32-31.604-7.986c-3.27 6.334 20.288 9.332 20.288 9.332l.408 25.61h135.15z" transform="matrix(.3 0 0 .5 221.5 166.6)" stroke-width="2.877"/><path d="M510.49 70.22l.41-25.61s23.557-2.998 20.288-9.332c-3.27-6.333-31.604 7.986-31.604 7.986h-113.34s-28.335-14.32-31.604-7.986c-3.27 6.334 20.288 9.332 20.288 9.332l.408 25.61h135.15z" transform="matrix(.2 0 0 .3 290.9 149.5)" stroke-width="4.755"/><path d="M510.49 70.22l.41-25.61s23.557-2.998 20.288-9.332c-3.27-6.333-31.604 7.986-31.604 7.986h-113.34s-28.335-14.32-31.604-7.986c-3.27 6.334 20.288 9.332 20.288 9.332l.408 25.61h135.15z" transform="matrix(.2 0 0 .3 274.6 156.2)" stroke-width="4.341"/><path d="M510.49 70.22l.41-25.61s23.557-2.998 20.288-9.332c-3.27-6.333-31.604 7.986-31.604 7.986h-113.34s-28.335-14.32-31.604-7.986c-3.27 6.334 20.288 9.332 20.288 9.332l.408 25.61h135.15z" transform="matrix(.1 0 0 .3 314.5 139.8)" stroke-width="6.247"/><path d="M510.49 70.22l.41-25.61s23.557-2.998 20.288-9.332c-3.27-6.333-31.604 7.986-31.604 7.986h-113.34s-28.335-14.32-31.604-7.986c-3.27 6.334 20.288 9.332 20.288 9.332l.408 25.61h135.15z" transform="matrix(.2 0 0 .3 303 145.2)" stroke-width="5.702"/><g><path d="M330.92 208.56l-18.42-20.45c6.14-5.303 17.543 3.79 17.543 3.79s6.14-23.486 32.457-33.335c26.316 9.85 32.456 33.334 32.456 33.334s11.403-9.093 17.544-3.79l-18.422 20.455H330.92z" transform="matrix(.2 0 0 .2 307.8 126.3)" stroke-width="5.444"/><path d="M330.92 208.56l-18.42-20.45c6.14-5.303 17.543 3.79 17.543 3.79s6.14-23.486 32.457-33.335c26.316 9.85 32.456 33.334 32.456 33.334s11.403-9.093 17.544-3.79l-18.422 20.455H330.92z" transform="matrix(.2 0 0 .2 282.1 132.3)" stroke-width="5.444"/><path d="M330.92 208.56l-18.42-20.45c6.14-5.303 17.543 3.79 17.543 3.79s6.14-23.486 32.457-33.335c26.316 9.85 32.456 33.334 32.456 33.334s11.403-9.093 17.544-3.79l-18.422 20.455H330.92z" transform="matrix(.3 0 0 .2 269.3 130.3)" stroke-width="4.41"/><path d="M330.92 208.56l-18.42-20.45c6.14-5.303 17.543 3.79 17.543 3.79s6.14-23.486 32.457-33.335c26.316 9.85 32.456 33.334 32.456 33.334s11.403-9.093 17.544-3.79l-18.422 20.455H330.92z" transform="matrix(.4 0 0 .3 243.6 130.7)" stroke-width="3.528"/><path d="M358.18 217.13l13.47 22.98 14.265-22.98H358.18z" transform="matrix(.9 0 0 .7 28.6 57.6)" stroke-width="1.458"/><path d="M330.92 208.56l-18.42-20.45c6.14-5.303 17.543 3.79 17.543 3.79s6.14-23.486 32.457-33.335c26.316 9.85 32.456 33.334 32.456 33.334s11.403-9.093 17.544-3.79l-18.422 20.455H330.92z" transform="matrix(.4 0 0 .3 217.9 135.9)" stroke-width="3.051"/><path d="M358.18 217.13l13.47 22.98 14.265-22.98H358.18z" transform="matrix(1 0 0 .8 0 37.1)" stroke-width="1.25"/><path d="M330.92 208.56l-18.42-20.45c6.14-5.303 17.543 3.79 17.543 3.79s6.14-23.486 32.457-33.335c26.316 9.85 32.456 33.334 32.456 33.334s11.403-9.093 17.544-3.79l-18.422 20.455H330.92z" transform="matrix(.5 0 0 .4 205.1 135.5)" stroke-width="2.615"/><path d="M330.92 208.56l-18.42-20.45c6.14-5.303 17.543 3.79 17.543 3.79s6.14-23.486 32.457-33.335c26.316 9.85 32.456 33.334 32.456 33.334s11.403-9.093 17.544-3.79l-18.422 20.455H330.92z" transform="matrix(.5 0 0 .4 205.1 152.8)" stroke-width="2.615"/></g></g><g stroke-width="1.04"><path d="M166.5 272.743h6.45v27.852h-6.45zM188.432 272.74h6.45v27.853h-6.45zM178.11 272.74h6.45v27.852h-6.45zM295.305 272.742h6.45v27.852h-6.45zM339.17 272.74h6.45v27.852h-6.45zM317.238 272.74h6.45v27.85h-6.45zM306.917 272.738h6.45v27.852h-6.45zM327.56 272.738h6.45v27.852h-6.45zM210.364 272.742h6.45v27.852h-6.45zM198.753 272.74h6.45v27.852h-6.45z" stroke-width="1.0733840000000001"/></g></g></g></svg>