<svg xmlns="http://www.w3.org/2000/svg" height="480" width="640"><defs><clipPath id="a"><path fill-opacity=".67" d="M0 0h640v480H0z"/></clipPath></defs><g clip-path="url(#a)"><g fill-rule="evenodd" stroke-width="1pt"><path fill="#e4104d" d="M0 239.827h720.51v240.17H0z"/><path fill="#8a85ff" d="M0 0h720.51v239.83H0z"/></g><g fill-rule="evenodd"><path d="M149.727 167.59l82.356-.313s30.413-36.542 14.312-60.484c-16.1-23.942-79.226-.757-79.48-.757-.256 0-.512-12.852-16.102-13.105-15.59.254-15.845 13.106-16.1 13.106-.256 0-63.382-23.185-79.48.757-16.102 23.942 14.31 60.484 14.31 60.484l80.19.313z" fill="#f3ef7d"/><path d="M149.77 167.584l79.062-.303s29.197-35.498 13.74-58.755c-15.458-23.258-76.058-.736-76.302-.736-.245 0-.49-12.486-15.457-12.73-14.966.244-15.21 12.73-15.457 12.73-.245 0-60.846-22.523-76.3.735-15.458 23.257 13.74 58.756 13.74 58.756l76.98.304z"/><g stroke-width="1pt" fill="#f3ef7d"><path d="M241.687 117.92h-.938v11.24h.937zM238.28 111.82h-.938v23.113h.937zM235.024 108.657h-1.1v30.406h1.1zM230.854 106.435h-1.192V142.8h1.192zM226.124 105.133h-1.192v40.757h1.192zM221.292 103.555h-1.18v44.41h1.18zM217.19 103.21h-1.192v46.284h1.192zM213.07 103.21h-1.192v47.586h1.192zM207.916 103.312h-1.1v49.634h1.1zM203.085 103.79h-1.355v49.66h1.355zM197.795 105.01h-1.354v48.927h1.355zM192.625 106.908h-1.274v47.377h1.275zM187.217 109.08h-1.192v44.857h1.192zM182.74 110.543h-1.19v41.85h1.19zM177.977 113.372h-1.02v37.743h1.02zM173.807 117.034h-.856v32.253h.857zM170.06 120.613h-1.02v26.235h1.02zM166.398 126.095h-.915v16.748h.915z"/></g><g stroke-width="1pt" fill="#f3ef7d"><path d="M59.46 116.795h.936v11.24h-.937zM62.866 110.695h.938v23.114h-.938zM66.12 107.534h1.102v30.405h-1.1zM70.292 105.31h1.192v36.367h-1.192zM75.022 104.01h1.19v40.756h-1.19zM79.853 102.43h1.182v44.41h-1.182zM83.956 102.087h1.192v46.283h-1.192zM88.075 102.087h1.192v47.585h-1.192zM93.23 102.188h1.1v49.634h-1.1zM98.06 102.666h1.355v49.66H98.06zM103.35 103.885h1.355v48.928h-1.355zM108.52 105.784h1.274v47.377h-1.273zM113.93 107.956h1.19v44.857h-1.19zM118.404 109.42h1.192v41.85h-1.192zM123.168 112.248h1.02v37.743h-1.02zM127.34 115.91h.855v32.253h-.856zM131.085 119.49h1.02v26.234h-1.02zM134.747 124.97h.916v16.75h-.916z"/></g><path d="M149.406 65.776l-.108-1.7c0-.34-2.39-2.267-2.39-7.14 0-4.874 2.064-6.8 3.15-6.8s3.474 1.586 3.582 6.686c.11 5.1-2.388 7.027-2.388 7.027l-.217 2.04s1.737.113 1.845.113c.11 0 2.39-2.04 8.25-1.814s6.19 2.72 6.298 3.513c.108.793-.87 3.173-6.73 3.173-5.864 0-7.6-2.833-7.71-2.833-.108 0-1.845-.113-1.845-.113v1.473s2.28 1.813 2.172 7.82c-.11 6.007-2.39 6.347-3.04 6.347-.87 0-2.714-.34-2.823-6.233.217-6.007 1.737-7.707 1.737-7.82v-1.474h-1.63s-1.736 1.473-7.707 1.587c-5.97.113-6.297-1.7-6.406-2.72-.108-1.02 1.086-2.834 6.297-2.947 5.21-.114 7.708 1.813 7.708 1.813h1.954z" fill="#f3ef7d"/><g transform="matrix(.6 0 0 .6 21.8 33.7)" stroke-width="1pt" fill="#f3ef7d"><rect rx="5.828" ry="5.828" height="11.656" width="11.656" y="105.59" x="188.99"/><rect rx="5.828" ry="5.828" height="11.656" width="11.656" y="103.23" x="177.22"/><rect rx="5.828" ry="5.828" height="11.656" width="11.656" y="99.703" x="164.86"/><rect rx="5.828" ry="5.828" height="11.656" width="11.656" y="96.759" x="152.49"/><rect rx="5.828" ry="5.828" height="11.656" width="11.656" y="94.404" x="139.54"/><rect rx="5.828" ry="5.828" height="11.656" width="11.656" y="92.638" x="126.59"/><rect rx="5.828" ry="5.828" height="11.656" width="11.656" y="91.461" x="114.23"/><rect rx="5.828" ry="5.828" height="11.656" width="11.656" y="90.872" x="101.27"/><rect rx="5.828" ry="5.828" height="11.656" width="11.656" y="92.638" x="88.911"/><rect rx="5.828" ry="5.828" height="11.656" width="11.656" y="94.404" x="75.96"/><rect rx="5.828" ry="5.828" height="11.656" width="11.656" y="98.525" x="64.185"/><rect rx="5.828" ry="5.828" height="11.656" width="11.656" y="106.18" x="53"/><rect rx="5.828" ry="5.828" height="11.656" width="11.656" y="116.78" x="45.346"/><rect rx="5.828" ry="5.828" height="11.656" width="11.656" y="127.96" x="40.637"/><rect rx="5.828" ry="5.828" height="11.656" width="11.656" y="140.32" x="38.871"/><rect rx="5.828" ry="5.828" height="11.656" width="11.656" y="153.28" x="39.459"/><rect rx="5.828" ry="5.828" height="11.656" width="11.656" y="165.64" x="42.403"/><rect rx="5.828" ry="5.828" height="11.656" width="11.656" y="178" x="47.113"/><rect rx="5.828" ry="5.828" height="11.656" width="11.656" y="188.6" x="52.411"/></g><g transform="matrix(-.6 0 0 .6 280 33.7)" stroke-width="1pt" fill="#f3ef7d"><rect rx="5.828" ry="5.828" height="11.656" width="11.656" y="105.59" x="188.99"/><rect rx="5.828" ry="5.828" height="11.656" width="11.656" y="103.23" x="177.22"/><rect rx="5.828" ry="5.828" height="11.656" width="11.656" y="99.703" x="164.86"/><rect rx="5.828" ry="5.828" height="11.656" width="11.656" y="96.759" x="152.49"/><rect rx="5.828" ry="5.828" height="11.656" width="11.656" y="94.404" x="139.54"/><rect rx="5.828" ry="5.828" height="11.656" width="11.656" y="92.638" x="126.59"/><rect rx="5.828" ry="5.828" height="11.656" width="11.656" y="91.461" x="114.23"/><rect rx="5.828" ry="5.828" height="11.656" width="11.656" y="90.872" x="101.27"/><rect rx="5.828" ry="5.828" height="11.656" width="11.656" y="92.638" x="88.911"/><rect rx="5.828" ry="5.828" height="11.656" width="11.656" y="94.404" x="75.96"/><rect rx="5.828" ry="5.828" height="11.656" width="11.656" y="98.525" x="64.185"/><rect rx="5.828" ry="5.828" height="11.656" width="11.656" y="106.18" x="53"/><rect rx="5.828" ry="5.828" height="11.656" width="11.656" y="116.78" x="45.346"/><rect rx="5.828" ry="5.828" height="11.656" width="11.656" y="127.96" x="40.637"/><rect rx="5.828" ry="5.828" height="11.656" width="11.656" y="140.32" x="38.871"/><rect rx="5.828" ry="5.828" height="11.656" width="11.656" y="153.28" x="39.459"/><rect rx="5.828" ry="5.828" height="11.656" width="11.656" y="165.64" x="42.403"/><rect rx="5.828" ry="5.828" height="11.656" width="11.656" y="178" x="47.113"/><rect rx="5.828" ry="5.828" height="11.656" width="11.656" y="188.6" x="52.411"/></g><g stroke-width="1pt" transform="matrix(1.7 0 0 1.7 -124.2 288.5)"><path d="M227.04-79.384L215.936-46.58s-18.36-7.677-52.782-7.677c-34.424 0-50.108 6.716-50.108 6.716l-16.15-32.235c14.367-2.67 18.746 9.57 18.746 9.57s.978-14.295 12.26-16.832c9.532-1.652 17.954 10.712 17.954 10.712s1.985-13.914 16.07-14.296c14.085.38 16.07 14.295 16.07 14.295s8.422-12.363 17.953-10.712c11.282 2.537 12.26 16.834 12.26 16.834s4.38-12.243 18.83-9.182z" fill="#f3ef7d"/><rect transform="translate(13.3 -218.3)" rx="51.429" ry="8.13" height="16.261" width="102.86" y="162.27" x="100.1"/><g transform="matrix(.3 0 0 .4 86.1 -150.3)"><rect rx="3.434" ry="4.651" height="9.301" width="6.868" y="175.06" x="228.46"/><rect rx="3.434" ry="4.651" height="9.301" width="6.868" y="177.41" x="237.82"/><rect rx="3.434" ry="4.651" height="9.301" width="6.868" y="175.06" x="219.87"/><rect rx="3.434" ry="4.651" height="9.301" width="6.868" y="182.12" x="203.48"/><rect rx="3.434" ry="4.651" height="9.301" width="6.868" y="177.41" x="211.28"/><rect rx="3.434" ry="4.651" height="9.301" width="6.868" y="189.19" x="197.23"/><rect rx="3.434" ry="4.651" height="9.301" width="6.868" y="182.71" x="245.63"/><rect rx="3.434" ry="4.651" height="9.301" width="6.868" y="189.19" x="252.65"/></g><g transform="matrix(.3 .1 -.1 .4 129.4 -157.7)"><rect rx="3.434" ry="4.651" height="9.301" width="6.868" y="175.06" x="228.46"/><rect rx="3.434" ry="4.651" height="9.301" width="6.868" y="177.41" x="237.82"/><rect rx="3.434" ry="4.651" height="9.301" width="6.868" y="175.06" x="219.87"/><rect rx="3.434" ry="4.651" height="9.301" width="6.868" y="182.12" x="203.48"/><rect rx="3.434" ry="4.651" height="9.301" width="6.868" y="177.41" x="211.28"/><rect rx="3.434" ry="4.651" height="9.301" width="6.868" y="189.19" x="197.23"/><rect rx="3.434" ry="4.651" height="9.301" width="6.868" y="182.71" x="245.63"/><rect rx="3.434" ry="4.651" height="9.301" width="6.868" y="189.19" x="252.65"/></g><g transform="matrix(.3 -.1 .1 .3 42.9 -131)"><rect rx="3.434" ry="4.651" height="9.301" width="6.868" y="175.06" x="228.46"/><rect rx="3.434" ry="4.651" height="9.301" width="6.868" y="177.41" x="237.82"/><rect rx="3.434" ry="4.651" height="9.301" width="6.868" y="175.06" x="219.87"/><rect rx="3.434" ry="4.651" height="9.301" width="6.868" y="182.12" x="203.48"/><rect rx="3.434" ry="4.651" height="9.301" width="6.868" y="177.41" x="211.28"/><rect rx="3.434" ry="4.651" height="9.301" width="6.868" y="189.19" x="197.23"/><rect rx="3.434" ry="4.651" height="9.301" width="6.868" y="182.71" x="245.63"/><rect rx="3.434" ry="4.651" height="9.301" width="6.868" y="189.19" x="252.65"/></g><rect transform="matrix(1 -.2 .2 1 13.3 -218.3)" rx="1.15" ry="1.647" height="3.295" width="2.299" y="155.25" x="57.043"/><rect transform="matrix(1 -.2 .2 1 13.3 -218.3)" rx="1.15" ry="1.647" height="3.295" width="2.299" y="156.09" x="60.179"/><rect transform="matrix(1 -.2 .2 1 13.3 -218.3)" rx="1.15" ry="1.647" height="3.295" width="2.299" y="157.96" x="62.792"/><rect transform="matrix(1 -.2 .2 1 13.3 -218.3)" rx="1.15" ry="1.647" height="3.295" width="2.299" y="160.26" x="65.144"/><g transform="matrix(.3 .1 -.1 .3 148.9 -220.3)"><rect rx="3.434" ry="4.651" height="9.301" width="6.868" y="285.4" x="359.08"/><rect rx="3.434" ry="4.651" height="9.301" width="6.868" y="292.46" x="342.69"/><rect rx="3.434" ry="4.651" height="9.301" width="6.868" y="287.75" x="350.49"/><rect rx="3.434" ry="4.651" height="9.301" width="6.868" y="299.53" x="336.44"/></g><path d="M154.13-76.395c8.052 6.397 8.196 18.41 8.196 18.41s-1.295-12.637 7.333-17.786c-4.458 1.404-4.315 1.092-6.76.936l-.574-4.057s-.432 2.027-1.294 3.9c-1.87.623-2.3.623-6.902-1.405zM122.316-71.72c9.24 4.202 12.04 15.84 12.04 15.84S130.3-67.836 137.546-75c-4.02 2.48-3.95 2.14-6.36 2.6l-1.457-3.797s.03 2.08-.395 4.114c-1.68 1.075-2.098 1.183-7.02.363zM187.687-75.48c6.304 8.325 3.635 20 3.635 20s1.7-12.584 11.26-15.29c-4.645.182-4.433-.082-6.764-.88l.39-4.08s-.89 1.85-2.164 3.435c-1.957.11-2.374-.004-6.357-3.185zM104.92-65.762c6.946 3.425 10.553 13.58 10.553 13.58s-4.514-10.4-.584-16.91c-2.4 2.3-2.4 2-3.986 2.474l-1.55-3.298s.322 1.828.326 3.63c-.995.994-1.267 1.1-4.76.524zM211.656-70.23c1.328 8.02-4.446 16.97-4.446 16.97s5.443-9.882 12.713-10.172c-3.144-.78-2.913-.952-4.186-2.065l1.66-3.237s-1.228 1.325-2.616 2.36c-1.335-.302-1.573-.478-3.124-3.856z"/></g><g stroke-width="1pt" transform="matrix(1.7 0 0 1.7 -124.2 288.5)"><rect transform="translate(13.3 -218.3)" rx="3.362" ry="3.51" height="7.02" width="6.724" y="97.304" x="145.26" fill="#f3ef7d"/><path d="M161.658-121.016h.704v7.02h-.704z"/><rect transform="translate(13.3 -218.3)" rx="1.553" ry="1.756" height="3.512" width="3.106" y="119.51" x="147.36" fill="#f3ef7d"/><rect transform="translate(13.3 -218.3)" rx="1.454" ry="1.651" height="3.303" width="2.909" y="115.96" x="147.36" fill="#f3ef7d"/><rect transform="translate(13.3 -218.3)" rx="1.454" ry="1.547" height="3.094" width="2.909" y="112.61" x="147.36" fill="#f3ef7d"/><rect transform="translate(13.3 -218.3)" rx="1.258" ry="1.233" height="2.467" width="2.516" y="109.9" x="147.56" fill="#f3ef7d"/><rect transform="translate(13.3 -218.3)" rx="1.258" ry="1.442" height="2.885" width="2.516" y="106.76" x="147.56" fill="#f3ef7d"/><rect transform="translate(13.3 -218.3)" rx="1.061" ry="1.024" height="2.049" width="2.123" y="104.46" x="147.76" fill="#f3ef7d"/><path d="M165.368-117.9l.004.735-6.724.04-.004-.734z"/><rect transform="translate(13.3 -218.3)" rx="1.946" ry="2.07" height="4.139" width="3.892" y="123.07" x="146.97" fill="#f3ef7d"/></g></g></g></svg>