<svg xmlns="http://www.w3.org/2000/svg" height="480" width="640"><g fill-rule="evenodd" stroke-width="1pt"><path fill="#00319c" d="M0 0h213.337v480H0z"/><path fill="#ffde00" d="M213.337 0h213.338v480H213.337z"/><path fill="#de2110" d="M426.662 0H640v480H426.662z"/></g><path d="M360.376 320.377l24.267 35.012c1.348 1.944 2.696 3.89.66 5.177-2.035 1.29-1.374 6.467-.026 8.412 2.696 3.89 6.08 4.546 8.116 3.258l18.32-11.594c2.035-1.288 2.722-4.522.026-8.412-1.55-1.96-6.08-4.547-8.117-3.26-2.036 1.29-3.384-.655-4.732-2.6-1.347-1.946-21.57-31.123-24.266-35.013" fill-rule="evenodd" stroke="#000" stroke-width=".7295678999999999" fill="#ff1900"/><path d="M177.17 696.26c0 24.46-9.518 44.29-21.26 44.29-11.74 0-21.26-19.83-21.26-44.29s9.518-44.29 21.26-44.29c11.74 0 21.26 19.83 21.26 44.29z" fill-rule="evenodd" transform="matrix(.5 -.4 .4 .5 -32.4 19.9)" stroke="#000" stroke-width="2.54" fill="#a77b3b"/><path d="M261.952 306.142L240.53 342.81c-1.192 2.036-2.382 4.073-4.513 2.936-2.132-1.138-6.645 1.8-7.835 3.836-2.38 4.075-1.44 7.25.693 8.386l19.186 10.236c2.133 1.137 5.455.238 7.835-3.837 1.114-2.213 1.44-7.248-.693-8.386-2.132-1.136-.94-3.173.25-5.21l21.422-36.667" fill-rule="evenodd" stroke="#000" stroke-width=".7295678999999999" fill="#ff1900"/><path d="M331.17 280.577h-19.533c-.646.617-6.2 35.598-12.208 48.993-7.325 16.33-29.26 30.74-29.26 30.74s13.14 3.98 17.052 6.587c.972-.273 21.936-4.665 24.377-30.33 2.44 25.665-14.612 37.33-14.612 37.33s24.416 7 24.416 23.33c0-16.33 24.415-23.33 24.415-23.33s-12.247-11.665-14.688-37.33c4.882 25.665 23.48 30.057 24.453 30.33 3.91-2.606 17.053-6.586 17.053-6.586s-21.936-14.41-29.26-30.74c-6.007-13.395-11.562-48.376-12.207-48.993zM248.124 163.907l36.623 11.665c12.207 0 24.415-11.652 24.415-23.318.406-25.95-9.766-35.007-12.208-35.007l4.884-4.666-7.325-6.998s2.45-12.103 26.856-11.653c24.406.45 24.415 11.664 24.415 23.33 0 11.664-12.208 11.664-12.208 34.995 0 11.665 12.208 23.33 24.416 23.33l36.623-11.665v116.65H248.124V163.91z" fill-rule="evenodd" stroke="#000" stroke-width="1.7113473" fill="#a77b3b"/><g stroke="#000" fill="none"><path d="M302.16 292.24l14.645 14.964 14.644-14.964 14.644 14.964 29.29-14.964 14.26 15.81 15.03-15.81 21.604 15.81 22.33-15.81 14.644 14.964 14.645-14.964" transform="matrix(.2 0 0 .5 253.9 31.9)" stroke-width=".49"/><path d="M432.28 435.83l-7.086 38.976M435.83 435.83v38.976M442.91 435.83v38.976M450 435.83l3.543 38.976" transform="matrix(.7 0 0 .7 16.2 -144)" stroke-width=".203"/><path d="M336.163 161.08l2.48 27.284" stroke-width=".1421"/></g><g stroke="#000" stroke-width="2.54"><path d="M318.9 361.42c35.433 17.717 35.433 53.15 35.433 70.866-1.25 16.117 0 354.33 0 354.33s-2.306-20.022-17.717-35.433L318.9 733.467l-17.717-17.717c-12.95-11.774-17.716-35.433-17.716-53.15V414.57s0-17.717 35.433-53.15z" fill-rule="evenodd" transform="matrix(-.7 0 0 .7 443.4 -144)" fill="#a77b3b"/><path d="M283.46 574.02c.417 0 17.716-17.717 17.716-17.717l17.717 17.717 17.716-17.717 17.716 17.717" transform="matrix(-.7 0 0 .7 443.4 -237.4)" fill="none"/><path d="M283.46 574.02c.417 0 17.716-17.717 17.716-17.717l17.717 17.717 17.716-17.717 17.716 17.717" transform="matrix(-.7 0 0 -.7 443.4 530.2)" fill="none"/><path d="M283.46 574.02c.417 0 17.716-17.717 17.716-17.717l17.717 17.717 17.716-17.717 17.716 17.717" transform="matrix(-.7 0 0 .7 443.4 -190.7)" fill="none"/><path d="M301.39 556.99l-.208 158.76" transform="matrix(-.7 0 0 1.2 443.4 -566.8)" fill="none"/><path d="M301.39 539.27l-.208 176.48" transform="matrix(-.7 0 0 1.1 431.4 -464)" fill="none"/><path d="M301.39 539.27l-.208 176.48" transform="matrix(-.7 0 0 1.3 419.2 -548.3)" fill="none"/></g><g stroke="#000" stroke-width="2.54"><path d="M318.9 361.42c35.433 17.717 35.433 53.15 35.433 70.866-1.25 16.117 0 354.33 0 354.33s-2.306-20.022-17.717-35.433L318.9 733.467l-17.717-17.717c-12.95-11.774-17.716-35.433-17.716-53.15V414.57s0-17.717 35.433-53.15z" fill-rule="evenodd" transform="matrix(.7 0 0 .7 199.3 -144)" fill="#a77b3b"/><path d="M283.46 574.02c.417 0 17.716-17.717 17.716-17.717l17.717 17.717 17.716-17.717 17.716 17.717" transform="matrix(.7 0 0 .7 199.3 -237.4)" fill="none"/><path d="M283.46 574.02c.417 0 17.716-17.717 17.716-17.717l17.717 17.717 17.716-17.717 17.716 17.717" transform="matrix(.7 0 0 -.7 199.3 530.2)" fill="none"/><path d="M283.46 574.02c.417 0 17.716-17.717 17.716-17.717l17.717 17.717 17.716-17.717 17.716 17.717" transform="matrix(.7 0 0 .7 199.3 -190.7)" fill="none"/><path d="M301.39 556.99l-.208 158.76" transform="matrix(.7 0 0 1.2 199.3 -566.8)" fill="none"/><path d="M301.39 539.27l-.208 176.48" transform="matrix(.7 0 0 1.1 211.4 -464)" fill="none"/><path d="M301.39 539.27l-.208 176.48" transform="matrix(.7 0 0 1.3 223.6 -548.3)" fill="none"/></g><path d="M177.17 696.26c0 24.46-9.518 44.29-21.26 44.29-11.74 0-21.26-19.83-21.26-44.29s9.518-44.29 21.26-44.29c11.74 0 21.26 19.83 21.26 44.29z" fill-rule="evenodd" transform="matrix(.6 .3 -.3 .6 361.1 -165.2)" stroke="#000" stroke-width="2.54" fill="#a77b3b"/><path fill-rule="evenodd" fill="red" d="M248.12 175.588H394.61v69.99H248.12z"/><path d="M248.12 245.58H394.61v34.996c0 23.33-36.623 23.33-73.246 46.66-36.624-23.33-73.247-23.33-73.247-46.66V245.58z" fill-rule="evenodd" fill="#564dff"/><path d="M336.61 485.43h212.6v159.45c0 35.433-53.15 35.433-106.3 70.866-53.15-35.433-106.3-35.433-106.3-70.866V485.43z" transform="matrix(.7 0 0 .7 16.2 -144)" stroke="#ff0" stroke-width="2.032" fill="none"/><path d="M385.59 129.9s-50.618 55.447-50.618 108.6c0 53.15 53.15 70.866 53.15 70.866s-17.718 0-17.718 70.866c0 35.433 53.15 17.717 53.15 35.433 0 17.717-.75 60.578 0 88.583 0 17.716-35.433 0-35.433 17.716 0 8.86 26.576 53.15 53.15 53.15 26.575 0 53.15-44.29 53.15-53.15 0-17.716-35.433 0-35.433-17.716v-88.583c0-17.716 53.15 0 53.15-35.433 0-70.866-17.717-70.866-17.717-70.866s53.15-17.717 53.15-70.866-50.62-108.6-50.62-108.6 28.474 73.163 28.474 108.6c0 17.717-13.287 53.15-48.72 53.15 0 0-8.96-17.717-17.717 0 0 0-10.19-17.717-17.716 0-2.597 6.114-7.206-17.717-17.716 0-4.465 4.696-7.984-17.717-17.717 0-17.716 0-53.148-17.717-53.15-53.15 0-35.433 32.903-108.6 32.903-108.6z" fill-rule="evenodd" transform="matrix(.5 0 0 .3 108.5 140.1)" stroke="#000" stroke-width="2.448" fill="#ff0"/><path d="M382.68 248.03c-3.543 3.543 4.58 61.274 7.087 63.78 3.543 3.542 24.803 3.542 28.346 0 2.525-2.526 0-56.694-3.543-60.237-3.543-3.544-29.384-6.05-31.89-3.543z" fill-rule="evenodd" transform="matrix(.5 0 0 .3 110.4 201.6)" stroke="#000" stroke-width="2.448" fill="#ff0"/><path d="M382.68 248.03c-3.543 3.543 4.58 61.274 7.087 63.78 3.543 3.542 24.803 3.542 28.346 0 2.525-2.526 0-56.694-3.543-60.237-3.543-3.544-29.384-6.05-31.89-3.543z" fill-rule="evenodd" transform="matrix(-.5 0 0 .3 532.4 201.6)" stroke="#000" stroke-width="2.448" fill="#ff0"/><path d="M414.57 228.54c0 8.806-7.14 15.945-15.945 15.945-8.806 0-15.945-7.14-15.945-15.945 0-8.806 7.14-15.945 15.945-15.945 8.806 0 15.945 7.14 15.945 15.945z" fill-rule="evenodd" transform="matrix(.6 0 0 .4 82.7 183.7)" stroke="#000" stroke-width="2.448" fill="#ff0"/><path d="M414.57 228.54c0 8.806-7.14 15.945-15.945 15.945-8.806 0-15.945-7.14-15.945-15.945 0-8.806 7.14-15.945 15.945-15.945 8.806 0 15.945 7.14 15.945 15.945z" fill-rule="evenodd" transform="matrix(.6 0 0 .4 118 183.7)" stroke="#000" stroke-width="2.448" fill="#ff0"/><path d="M336.753 307.498c0 1.513-1.913 2.74-4.273 2.74-2.36 0-4.272-1.227-4.272-2.74 0-1.513 1.913-2.74 4.272-2.74 2.36 0 4.273 1.227 4.273 2.74zM314.53 307.498c0 1.513-1.912 2.74-4.272 2.74-2.36 0-4.272-1.227-4.272-2.74 0-1.513 1.913-2.74 4.272-2.74 2.36 0 4.273 1.227 4.273 2.74z" fill-rule="evenodd"/><path fill-rule="evenodd" transform="matrix(.7 0 0 .6 26 -133.3)" stroke="#000" stroke-width="1.084" fill="#ff0" d="M439.37 549.92l-7.78-10.26-12.77 1.75 1.76-12.76-10.26-7.78 10.26-7.79-1.76-12.76 12.77 1.76 7.78-10.27 7.78 10.27 12.77-1.76-1.76 12.76 10.26 7.79-10.26 7.78 1.76 12.76-12.77-1.75z"/><path d="M496.06 591.73l21.26 10.63 21.26-10.63-21.26-10.63-21.26 10.63z" fill-rule="evenodd" transform="matrix(.7 0 0 .7 16.2 -144)" stroke="#000" stroke-width="1.084" fill="#ff0"/><path d="M496.06 591.73l21.26 10.63 21.26-10.63-21.26-10.63-21.26 10.63z" fill-rule="evenodd" transform="matrix(.7 0 0 .7 -88.8 -144)" stroke="#000" stroke-width="1.084" fill="#ff0"/><path d="M535.04 659.06c-3.543-7.086-14.173-10.63-21.26-10.63-7.086 0-14.173 0-21.26 10.63 0-14.173 10.503-21.26 21.26-21.26 10.757 0 21.26 10.503 21.26 21.26z" fill-rule="evenodd" transform="matrix(.6 -.3 .3 .6 -165.2 86.5)" stroke="#000" stroke-width="1.084" fill="#ff0"/><path d="M386.22 651.97c0 3.914-3.173 7.087-7.087 7.087s-7.086-3.173-7.086-7.087 3.173-7.087 7.086-7.087 7.087 3.173 7.087 7.087z" fill-rule="evenodd" transform="matrix(.7 0 0 .7 13.7 -155.7)" stroke="#000" stroke-width="1.084" fill="#ff0"/><path d="M386.22 651.97c0 3.914-3.173 7.087-7.087 7.087s-7.086-3.173-7.086-7.087 3.173-7.087 7.086-7.087 7.087 3.173 7.087 7.087z" fill-rule="evenodd" transform="matrix(.7 0 0 .7 8.8 -139.4)" stroke="#000" stroke-width="1.084" fill="#ff0"/><path d="M386.22 651.97c0 3.914-3.173 7.087-7.087 7.087s-7.086-3.173-7.086-7.087 3.173-7.087 7.086-7.087 7.087 3.173 7.087 7.087z" fill-rule="evenodd" transform="matrix(.7 0 0 .7 6.4 -148.7)" stroke="#000" stroke-width="1.084" fill="#ff0"/><path d="M386.22 651.97c0 3.914-3.173 7.087-7.087 7.087s-7.086-3.173-7.086-7.087 3.173-7.087 7.086-7.087 7.087 3.173 7.087 7.087z" fill-rule="evenodd" transform="matrix(.7 0 0 .7 18.6 -139.4)" stroke="#000" stroke-width="1.084" fill="#ff0"/><path d="M386.22 651.97c0 3.914-3.173 7.087-7.087 7.087s-7.086-3.173-7.086-7.087 3.173-7.087 7.086-7.087 7.087 3.173 7.087 7.087z" fill-rule="evenodd" transform="matrix(.7 0 0 .7 21.1 -148.7)" stroke="#000" stroke-width="1.084" fill="#ff0"/><path d="M386.22 651.97c0 3.914-3.173 7.087-7.087 7.087s-7.086-3.173-7.086-7.087 3.173-7.087 7.086-7.087 7.087 3.173 7.087 7.087z" fill-rule="evenodd" transform="matrix(.7 0 0 .7 13.7 -146.4)" stroke="#000" stroke-width="1.084" fill="#ff0"/><g fill-rule="evenodd"><path d="M297.774 120.38c-12.323 0-13.952 1.945-19.533 3.89 0-5.366 13.723-11.666 26.045-11.666 0 3.89-3.256 7.778-6.51 7.777z" fill="#da4500"/><path d="M316.484 107.932c0 2.577-2.186 4.666-4.883 4.666s-4.882-2.09-4.882-4.666 2.186-4.666 4.883-4.666 4.884 2.09 4.884 4.666z" fill="#cac9c7"/><path d="M361.42 357.87v10.63h17.717v53.15h10.63V368.5h17.716v-10.63h-17.716v-14.173h-10.63v14.173H361.42z" stroke="#000" stroke-width="1.084" fill="#ff0" transform="matrix(.7 0 0 .7 16.2 -144)"/><path d="M304.263 112.607c-14.375 0-22.787 1.294-29.298 3.887 0-7.155 8.412-15.553 22.787-15.553 3.255 0 6.51 7.777 6.51 11.667z" fill="#da4500"/></g><g fill-rule="evenodd"><path d="M67.323 612.99c-14.173-14.17-16.634-21.36 3.543-10.1l283.75 247.5-3.366 6.968-283.93-244.37z" transform="matrix(.4 .3 -.1 .2 237.5 71.3)" stroke="#000" stroke-width=".711" fill="#008500"/><path d="M228.398 330.405c.77-10.585-18.61-22.036-19.377-21.292-.766.744 1.18 6.907 4.855 10.12-7.038-3.627-14.41-5.86-14.564-4.286-.573 2.122 10.938 7.19 11.894 9.148.156 1.4-8.454 1.216-8.297 2.615.156 1.4 24.25 13.573 25.49 3.694zM209.035 299.57c.77-10.584-18.61-22.035-19.378-21.29-.767.743 1.178 6.906 4.854 10.117-7.037-3.625-14.408-5.858-14.563-4.284-.574 2.122 10.938 7.19 11.893 9.147.156 1.4-8.453 1.217-8.297 2.616.156 1.4 24.25 13.573 25.49 3.694zM194.217 271.574c.77-10.585-18.61-22.035-19.377-21.29-.767.742 1.178 6.905 4.853 10.117-7.038-3.625-14.41-5.858-14.563-4.284-.574 2.123 10.937 7.19 11.893 9.148.156 1.4-8.454 1.216-8.298 2.615.157 1.398 24.25 13.572 25.492 3.694zM179.568 241.24c.77-10.585-18.61-22.035-19.378-21.29-.767.742 1.18 6.905 4.854 10.117-7.038-3.626-14.41-5.86-14.564-4.285-.574 2.123 10.938 7.19 11.894 9.148.156 1.4-8.454 1.216-8.298 2.615.156 1.4 24.25 13.573 25.49 3.695z" fill="#008f00"/><path d="M184.603 239.866c9.377-5.682 7.54-27.385 6.46-27.533-1.082-.15-5.124 5-5.652 9.733-1.115-7.565-3.602-14.562-5.02-13.748-2.13.816.422 12.68-.66 14.575-1.088.95-6.037-5.784-7.124-4.835-1.086.95 2.935 26.71 11.997 21.808zM198.185 266.497c10.825-2.365 16.676-23.408 15.71-23.893-.968-.486-6.577 3.08-8.73 7.372 1.593-7.487 1.693-14.876.072-14.56-2.292.09-4.032 12.086-5.715 13.527-1.356.55-3.67-7.378-5.025-6.83-1.356.55-6.565 26.112 3.69 24.384zM214.41 293.74c9.872-4.858 10.078-26.63 9.015-26.87-1.063-.242-5.57 4.54-6.54 9.21-.403-7.63-2.224-14.813-3.713-14.123-2.197.63-.767 12.665-2.024 14.46-1.17.853-5.47-6.278-6.64-5.426-1.172.854.418 26.854 9.902 22.748zM231.972 329.307c10.336-3.878 12.845-25.52 11.813-25.86-1.032-.344-6.023 3.98-7.482 8.53.408-7.63-.644-14.95-2.198-14.41-2.253.416-2.105 12.527-3.545 14.19-1.255.736-4.776-6.774-6.032-6.04-1.255.737-2.426 26.757 7.444 23.59z" fill="#008f00"/></g><path d="M209.06 775.98c0 7.828-10.312 14.173-23.03 14.173-12.72 0-23.032-6.346-23.032-14.173 0-7.828 10.312-14.173 23.03-14.173 12.72 0 23.032 6.346 23.032 14.173z" fill-rule="evenodd" transform="matrix(.6 .3 -.3 .6 389.6 -146.8)" stroke="#000" stroke-width="1.084" fill="#ff1900"/><g stroke="#000" fill-rule="evenodd" fill="#ff0"><path d="M155.91 414.57v-7.087h7.086v-7.086h7.087v7.086h7.086v7.087h-7.087v17.716h-7.087V414.57h-7.086z" transform="matrix(.5 .2 -.2 .5 451.4 -3.7)" stroke-width=".508"/><path stroke-width=".512" d="M162.99 474.8h7.087v205.51h-7.087z" transform="matrix(.5 .2 -.2 .5 451.4 -3.7)"/><path stroke-width=".27356816" d="M395.77 366.575l7.087 2.835-11.338 28.346-7.088-2.834zM441.48 247.167l10.63 4.252c7.087 2.834-9.566 18.778-9.566 18.778l-7.087-2.834s-1.063-23.032 6.024-20.197z"/><path d="M451.398 248.054c-.587 1.468-2.65 2.023-4.606 1.24s-3.068-2.607-2.48-4.075 2.65-2.024 4.606-1.24 3.067 2.606 2.48 4.074z" stroke-width=".27356816"/></g><path d="M209.06 775.98c0 7.828-10.312 14.173-23.03 14.173-12.72 0-23.032-6.346-23.032-14.173 0-7.828 10.312-14.173 23.03-14.173 12.72 0 23.032 6.346 23.032 14.173z" fill-rule="evenodd" transform="matrix(.6 -.4 .4 .5 -2.3 4.2)" stroke="#000" stroke-width="1.084" fill="#ff1900"/></svg>