<svg xmlns="http://www.w3.org/2000/svg" height="480" width="640"><defs><clipPath id="a"><path fill-opacity=".67" d="M-85.687-1.46h684.61V512h-684.61z"/></clipPath></defs><g clip-path="url(#a)" fill-rule="evenodd" transform="matrix(.935 0 0 .935 80.104 1.365)"><path fill="#ed3d00" d="M-126.62-.364h767.07v512h-767.07z"/><path d="M346.43 255.814c0 48.336-40.14 87.52-89.655 87.52s-89.655-39.184-89.655-87.52 40.14-87.52 89.655-87.52 89.655 39.183 89.655 87.52z" fill="#ed3d00"/><path d="M339.506 255.814c0 45.408-37.04 82.218-82.734 82.218-45.693 0-82.735-36.81-82.735-82.218 0-45.407 37.04-82.217 82.735-82.217 45.692 0 82.734 36.81 82.734 82.217z" fill="#ffd100"/></g></svg>