<svg xmlns="http://www.w3.org/2000/svg" height="480" width="640" version="1"><defs><clipPath id="a"><path fill-opacity=".67" d="M0 0h640v480H0z"/></clipPath></defs><g clip-path="url(#a)"><path fill-rule="evenodd" fill="#0071bc" d="M-160 0h960v480h-960z"/><path d="M369.927 365.66s15.223-16.1 29.86-13.026c4.392-16.98 20.932-18.297 20.932-18.297s-1.61-18.736 19.614-22.834c.585-12.735 13.467-23.274 13.467-23.274s-2.634-19.76 10.833-24.3c-8.198-15.66 2.78-27.08 2.634-27.37-.146-.294-13.905-24.74-1.61-31.765-13.027-10.978-8.782-23.42-8.782-23.42s-14.2-3.66-9.076-20.64c-11.71-2.05-14.053-20.93-14.053-20.93s-18.004 3.658-20.2-12.005c-11.856 1.903-13.174-9.806-13.32-9.806-.146 0-23.567 6.294-28.25-11.418-9.075 4.684-13.028-3.66-13.028-3.66s-13.028 6.44-20.786-6c-15.516 9.66-24.152-.44-24.152-.44s-20.346 13.467-27.08 3.074c-12.003 12.15-22.688 6.88-22.688 6.88s-9.075 16.1-23.713 12.002c-3.365 14.93-20.2 15.223-20.2 15.223s1.758 13.174-18.442 16.687c-2.634 15.516-13.173 18.15-13.173 18.15s1.024 15.078-8.49 19.907c3.366 8.49-5.416 18.882-5.416 18.882s9.367 11.71-3.368 24.884c12.296 3.22 3.367 24.445 3.367 24.445s16.978 7.612 6.293 21.664c12.15 3.953 8.343 13.613 8.49 19.322 7.758 3.513 14.637 1.757 11.27 17.42 23.86 2.634 12.59 15.808 12.59 15.808s11.123.44 6.733 9.222c20.346-.44 23.273 15.223 23.273 15.223s18.882-4.978 21.37 2.34c2.49 7.32-8.196 56.648-8.196 56.648s-15.955 0-27.812-12.734c-27.81-.732-21.663-19.03-22.103-19.03-.44 0-9.223 3.368-13.76-11.855-18.59 3.805-18.005-11.857-18.15-12.003-.147-.147-8.344-3.806-5.27-11.564-19.175 1.756-17.71-16.98-17.71-16.98-4.198-1.707-5.76-5.61-5.125-9.514-2.488-.88-19.468-1.172-10.685-23.567-16.248-9.807-6.148-21.078-6.148-21.078s-22.396-11.563-5.123-24.883c-12.883-19.03 1.023-28.543 1.023-28.543s-17.858-18.152.293-31.033c-2.927-27.52 13.467-34.106 13.467-34.106s-8.636-22.394 14.784-31.763c1.463-22.688 17.858-23.273 17.858-23.273s.44-18.005 26.2-16.248c4.978-16.1 22.543-12.88 22.543-12.88s5.416-19.47 29.275-10.1c12.15-23.714 30.154-11.565 30.154-11.565s11.417-7.464 17.126-5.122c7.25-12.457 22.68-.483 32.66 1.928 3.615-1.406 16.522-11.15 26.476 1.146 13.173-8.636 24.444 6.88 24.444 6.88s18.15-9.22 26.64 11.856c38.498-3.513 32.935 21.664 32.935 21.664s30.3-6.88 23.712 23.273c27.52 1.903 24.738 20.054 24.738 20.054s17.418 13.173 9.806 25.03c15.516.73 9.807 15.66 9.807 15.66s11.856 4.54 2.05 22.983c22.687 18.15 4.39 36.155 4.244 36.01-.146-.148 12.15 14.636 1.025 31.616 3.367 26.932-10.246 33.812-10.246 33.812s3.513 17.42-11.71 22.396c-.293 20.492-19.615 22.98-19.615 22.98s5.125 8.903-14.05 18.27c-.757 13.713-20.786 14.813-20.786 14.813s-1.903 25.177-27.373 18.444c-6.18 20.2-36.007 14.198-36.592 13.905-.586-.294-5.71-43.328-5.71-43.475z" fill-rule="evenodd" stroke="#000" stroke-width="1.85658" fill="#fff"/><path stroke-linejoin="round" d="M184.94 124.083c.074 0 6.455 5.534 5.264 13.875-1.192 8.34-6.01 19.935-5.04 28.573.59 3.464.367 9.67.367 9.67s-5.783-8.22-5.858-17.008 6.264-17.13 6.264-23.61-1.145-11.648-.996-11.5zM181.772 126.572s-8.373 7.993-9.45 15.76c-.798 4.005-1.107 22.663-1.2 30.944-.19 2.54-1.242 12.57-1.465 16.218-.224 3.65 6.16-6.23 6.524-14.272-.2-8.325-.2-25.86.647-28.496.753-3.387.59-7.13 1.754-10.528 1.542-4.715 3.267-9.552 3.192-9.626z" fill-rule="evenodd" stroke="#000" stroke-width="1.85658" fill="#217900"/><g fill-rule="evenodd" stroke="#ef8a10" fill="#ffd200"><path d="M366.04 100.474s10.86-5.01 13.964-14.34-9.398-9.418-11.05-6.452c-1.65 2.965 1.41 10.348.62 12.3-.788 1.952-5.205 6.664-3.534 8.492z" stroke-width="1.8581520000000002"/><path d="M269.793 103.877s7.05-9.66 5.22-19.32c-1.826-9.662-12.792-3.657-12.792-.262 0 3.394 6.267 8.355 6.528 10.443.26 2.09-1.305 8.355 1.045 9.14zM250.733 109.622s7.05-9.66 5.222-19.32c-1.828-9.662-12.794-3.657-12.794-.263s6.268 8.355 6.53 10.443c.26 2.09-1.307 8.355 1.043 9.14zM229.585 116.15s7.05-9.66 5.222-19.323c-1.828-9.66-12.794-3.655-12.794-.26 0 3.394 6.266 8.355 6.528 10.443.262 2.09-1.305 8.355 1.045 9.14zM214.703 131.03s7.05-9.66 5.222-19.32c-1.828-9.66-12.794-3.656-12.794-.262 0 3.395 6.267 8.355 6.53 10.444.26 2.09-1.307 8.355 1.043 9.14zM199.037 145.392s7.05-9.66 5.222-19.322c-1.828-9.66-12.794-3.656-12.794-.26 0 3.393 6.266 8.354 6.527 10.443.26 2.09-1.306 8.355 1.044 9.138z" stroke-width="2.4780930000000003"/><path d="M235.056 61.736s-9.388 7.41-10.226 17.205c-.837 9.797 11.34 6.962 12.252 3.693.913-3.27-3.788-9.732-3.478-11.814.31-2.083 3.504-7.697 1.452-9.084zM266.387 52.075S257 59.485 256.162 69.28c-.838 9.795 11.34 6.96 12.252 3.69.912-3.268-3.79-9.73-3.48-11.813.312-2.082 3.506-7.696 1.453-9.083zM149.63 136.654s1.982 11.794 10.17 17.238c8.187 5.444 11.555-6.596 9.127-8.968s-10.355-1.357-12.032-2.63c-1.676-1.273-5.063-6.773-7.266-5.64zM133.982 176.7s.097 11.958 7.322 18.626c7.226 6.668 12.452-4.69 10.43-7.415s-10.012-2.974-11.467-4.495c-1.455-1.522-3.93-7.487-6.285-6.716zM170.082 221.437s-4.268-11.172-13.367-14.895c-9.1-3.724-10.03 8.744-7.182 10.59 2.848 1.848 10.42-.71 12.314.208 1.895.918 6.3 5.642 8.235 4.097zM162.583 202.104s7.236-9.522 5.597-19.217c-1.64-9.694-12.72-3.903-12.786-.51-.066 3.394 6.102 8.476 6.323 10.57.22 2.093-1.468 8.327.866 9.156zM388.23 110.134s10.86-5.01 13.965-14.34-9.398-9.418-11.05-6.452c-1.652 2.965 1.41 10.348.62 12.3-.788 1.952-5.205 6.664-3.534 8.492zM421.067 126.513s6.387-10.11 3.918-19.628c-2.47-9.516-13.01-2.792-12.783.595.227 3.387 6.81 7.918 7.21 9.984.4 2.067-.743 8.424 1.655 9.048zM510.7 219.566s-4.285-11.166-13.39-14.877c-9.104-3.713-10.016 8.756-7.166 10.6 2.85 1.843 10.418-.725 12.314.19 1.896.915 6.307 5.634 8.24 4.086zM466.87 226.5s.247-11.956 7.556-18.533c7.31-6.576 12.392 4.847 10.334 7.547-2.057 2.7-10.048 2.847-11.522 4.35-1.474 1.504-4.025 7.437-6.37 6.636zM459.817 99.705s-11.18-4.247-20.014.068c-8.834 4.316-.145 13.305 3.13 12.408 3.272-.895 6.4-8.25 8.347-9.053 1.946-.804 8.403-.948 8.538-3.422zM434.234 78.294s-11.18-4.246-20.014.07c-8.834 4.314-.145 13.304 3.13 12.407 3.272-.896 6.4-8.25 8.347-9.054 1.946-.803 8.403-.948 8.537-3.422zM396.085 57.878s-9.478 7.293-10.436 17.078c-.958 9.785 11.252 7.1 12.205 3.842.953-3.258-3.668-9.778-3.333-11.857.336-2.077 3.6-7.65 1.563-9.063zM371.237 51.9s-4.322 11.152-.066 20.015c4.256 8.863 13.304.235 12.43-3.045-.875-3.28-8.208-6.458-9-8.41-.79-1.95-.89-8.408-3.363-8.56zM300.77 94.87s7.732-9.124 6.61-18.892c-1.125-9.767-12.496-4.572-12.742-1.187-.246 3.387 5.644 8.788 5.753 10.89.11 2.103-1.906 8.24.38 9.19z" stroke-width="1.8581520000000002"/></g><path d="M342.775 114.432s18.526 1.166 19.433 11.79-4.405 17.1-4.405 17.1 2.332 22.93-15.805 29.667c-19.433 2.33-49.877.518-49.877.518s-8.938 2.202-12.565-16.324c-3.628-18.525-4.664-31.61-4.664-31.61s1.815-10.365 14.9-11.012c13.084-.648 52.856.13 52.986-.13z" fill-rule="evenodd" stroke="#000" stroke-width="1.85658" fill="#8c8a8c"/><path d="M357.674 143.193s-9.976 12.437-8.94 17.49" stroke="#000" stroke-linecap="round" stroke-width="1.85658" fill="none"/><path d="M344.333 172.337c2.462 2.073 4.793 4.405 5.312 12.05l1.036 15.286 12.956 116.595 11.4 84.34.778 13.084s-2.72 9.586-10.364 10.363c-5.57 11.66-35.756 15.028-38.736 14.9-2.72-.13-12.308-4.147-18.138-3.63-5.83.52-15.935 4.406-20.47 3.758-4.533-.647-14.767-4.145-16.58-11.53-12.697-4.016-14.77-13.732-14.77-13.732l13.733-97.553 13.342-123.33s1.555-16.453 8.162-18.915c6.866-.648 42.363.648 52.338-1.684z" fill-rule="evenodd" stroke="#000" stroke-width="1.85658" fill="#8c8a8c"/><path stroke-linejoin="round" d="M126.965 179.83s5.675 7.86 6.694 12.37c1.018 4.512 2.91 13.39 5.384 17.028 2.474 3.638 16.59 23.868 17.32 32.308.144 5.53-5.823 14.99-14.7 15.136-5.53-.146-19.793-3.784-20.376-16.01-.582-12.225 4.366-12.515 4.95-19.937.58-7.423.726-40.75.726-40.896z" stroke="#6b18b5" stroke-width="1.85658" fill="none"/><path stroke-linejoin="round" d="M224.466 72.814s-5.876.42-10.4 2.872c-3.505 2.16-9.443 5.27-13.592 11.024-10.554 8.227-26.43 12.066-31.438 18.9-2.997 4.65-2.813 15.834 4.697 20.57 4.8 2.75 18.878 7.05 25.726-3.094 6.848-10.144 2.77-12.963 6.13-19.608 5.54-15.23 18.8-30.54 18.877-30.664zM367.012 57.968s-4.39-3.93-9.298-5.474c-3.99-1.015-10.638-.573-17.516-1.248-13.25-1.86-26.913-11.442-35.306-10.285-5.425 1.082-13.33 8.994-11.51 17.684 1.365 5.36 7.36 16.203 19.412 14.068 12.05-2.136 11.947-4.765 19.056-6.974 17.34-9.724 35.02-7.738 35.162-7.77zM508.373 195.364c.99-2.26-.832-6.512-2.127-11.492-1.256-3.922-3.132-10.01-7.72-15.42-5.452-12.22-4.517-28.977-9.95-35.48-3.793-4.026-14.693-6.533-21.094-.38-3.822 4-11.377 16.632-3.175 25.716 8.202 9.084 11.776 5.663 17.42 10.518 13.454 9.038 20.043 24.88 26.646 26.537zM503.552 302.116c1.838-2.544 5.127-7.446 4.736-11.53-.31-3.233 1.482-13.037 1.678-17.315 1.216-13.325 9.557-24.14 7.29-35.718-1.343-5.367-9.204-13.023-17.795-10.784-5.288 1.623-17.064 8.103-14.348 20.036 2.716 11.934 6.572 11.736 9.122 18.73 7.32 14.46 2.636 31.637 9.318 36.58z" stroke="#6b18b5" stroke-width=".9674400000000001" fill="none"/><path d="M405.485 386.834s-2.26 4.344 6.777 8.167M423.56 376.583s10.078-2.433 16.855 0M453.618 351.207c0 .174-1.39 4.518 6.603 10.773M459.353 339.92s5.908 4.344 15.812 4.17M399.75 352.6s.348 11.467-5.56 16.854M419.557 334.872s9.73 2.433 17.724-1.564M481.944 318.024s2.085 2.954 12.86 2.433M439.894 311.245c.348.174 12.685 4.17 20.505.522M464.566 263.982s.52-.695 4.344 12.685M474.12 226.275s-.52 7.124-6.255 10.252M510.784 197.078s-8.34 6.777-6.777 9.557M469.256 192.214s4.344 7.298-2.78 12.337M448.23 160.937s7.473-.347 10.775 6.082M463.87 113.675c0 .173 1.563 1.563-1.39 4.517M410.524 114.37s3.996 6.256 3.3 13.902M433.637 93.17c1.738-.174 7.646-2.78 7.646-2.78M407.922 68.32c-.174 0-2.26 7.82 1.564 10.6M398.358 103.944c0 8.34 6.603 6.255 2.085 14.248M382.197 96.992c-.173 0-10.425 7.993-10.425 9.383M355.437 92.65s4.344 4.343 3.302 10.25M342.758 89.173s-2.26 6.603-5.213 8.34M319.644 87.435c-.173.348-3.65 7.82-6.08 9.21M288.02 87.61c.174 0 3.475 6.95-.87 11.99M280.72 51.64c.172.173.694 5.386-2.608 9.904M249.442 63.456c0 .173 1.39 5.908-7.82 7.82M231.724 116.45c.174.348 8.862 1.738 8.862 1.738M210.003 136.614c.174-.174 10.6-3.3 10.6-3.3M193.146 149.642c.348 0 7.298 1.216 9.036.347M188.282 156.073s2.26 1.216.347 12.858M140.15 157.64c0-.175 4.17 6.254 9.73 7.47M172.992 190.308c.173 0 6.776-1.39 7.82-2.085M170.033 213.935c.174 0-.174-4.344 5.213-7.298M162.906 224.71c0 .172 5.04 6.428 8.514 7.297M159.955 236.7c.522-.173 5.908-4.865 12.164-4.518M158.215 252.86s.174 5.388 16.16 3.998M159.78 271.797c0-.174 4.693-10.773 14.25-14.77M172.644 285.356s1.39-4.518 9.382-7.646M181.503 303.248s5.734-4.692 7.82-5.387M188.63 317.154s3.475 3.65 12.163-2.606M146.745 320.104c1.043-.174 13.727-3.127 18.072 3.476M151.793 330.53s13.38-1.738 15.117-.348M199.577 333.314s-1.737 3.65 14.77-2.432M220.08 339.92c-2.954 5.04.695 9.035-3.128 11.294M169.86 346.864c.52-.347 6.08-2.26 5.212-10.252M174.897 358.856c.696-.174 9.905-4.17 11.817-2.085M192.972 370.5s1.217-8.167 3.823-9.036M206.87 382.83s7.646-.173 10.948-2.605M221.638 355.21c.174.173 7.124 3.822 21.894.173M227.2 388.392s2.084 10.6 1.91 13.033" stroke="#000" stroke-width="1.85658" fill="none"/><g fill-rule="evenodd" stroke="#000" stroke-width="1.483" fill="#de2010"><path d="M232.84 119.03c.002-2.11-.794-4.058-2.087-5.114-1.294-1.055-2.888-1.055-4.18 0s-2.09 3.005-2.088 5.114c-.002 2.11.794 4.058 2.087 5.114 1.293 1.055 2.887 1.055 4.18 0s2.09-3.005 2.088-5.114z" transform="matrix(1.608 -.2 .207 1.657 94.74 74.911)"/><path d="M232.84 119.03c.002-2.11-.794-4.058-2.087-5.114-1.294-1.055-2.888-1.055-4.18 0s-2.09 3.005-2.088 5.114c-.002 2.11.794 4.058 2.087 5.114 1.293 1.055 2.887 1.055 4.18 0s2.09-3.005 2.088-5.114z" transform="matrix(1.608 -.2 .207 1.657 93.302 57.265)"/><path d="M232.84 119.03c.002-2.11-.794-4.058-2.087-5.114-1.294-1.055-2.888-1.055-4.18 0s-2.09 3.005-2.088 5.114c-.002 2.11.794 4.058 2.087 5.114 1.293 1.055 2.887 1.055 4.18 0s2.09-3.005 2.088-5.114z" transform="matrix(1.585 -.342 .352 1.633 78.038 74.073)"/><path d="M232.84 119.03c.002-2.11-.794-4.058-2.087-5.114-1.294-1.055-2.888-1.055-4.18 0s-2.09 3.005-2.088 5.114c-.002 2.11.794 4.058 2.087 5.114 1.293 1.055 2.887 1.055 4.18 0s2.09-3.005 2.088-5.114z" transform="matrix(1.445 -.735 .757 1.49 55.818 162.895)"/><path d="M232.84 119.03c.002-2.11-.794-4.058-2.087-5.114-1.294-1.055-2.888-1.055-4.18 0s-2.09 3.005-2.088 5.114c-.002 2.11.794 4.058 2.087 5.114 1.293 1.055 2.887 1.055 4.18 0s2.09-3.005 2.088-5.114z" transform="matrix(1.445 -.735 .757 1.49 48.843 147.096)"/><path d="M232.84 119.03c.002-2.11-.794-4.058-2.087-5.114-1.294-1.055-2.888-1.055-4.18 0s-2.09 3.005-2.088 5.114c-.002 2.11.794 4.058 2.087 5.114 1.293 1.055 2.887 1.055 4.18 0s2.09-3.005 2.088-5.114z" transform="matrix(1.378 -.853 .88 1.419 39.918 167.346)"/><path d="M232.84 119.03c.002-2.11-.794-4.058-2.087-5.114-1.294-1.055-2.888-1.055-4.18 0s-2.09 3.005-2.088 5.114c-.002 2.11.794 4.058 2.087 5.114 1.293 1.055 2.887 1.055 4.18 0s2.09-3.005 2.088-5.114z" transform="matrix(1.289 -.984 1.014 1.328 33.758 193.029)"/><path d="M232.84 119.03c.002-2.11-.794-4.058-2.087-5.114-1.294-1.055-2.888-1.055-4.18 0s-2.09 3.005-2.088 5.114c-.002 2.11.794 4.058 2.087 5.114 1.293 1.055 2.887 1.055 4.18 0s2.09-3.005 2.088-5.114z" transform="matrix(1.132 -1.159 1.194 1.167 35.308 238.977)"/><path d="M232.84 119.03c.002-2.11-.794-4.058-2.087-5.114-1.294-1.055-2.888-1.055-4.18 0s-2.09 3.005-2.088 5.114c-.002 2.11.794 4.058 2.087 5.114 1.293 1.055 2.887 1.055 4.18 0s2.09-3.005 2.088-5.114z" transform="matrix(1.02 -1.259 1.298 1.052 34.257 262.625)"/><path d="M232.84 119.03c.002-2.11-.794-4.058-2.087-5.114-1.294-1.055-2.888-1.055-4.18 0s-2.09 3.005-2.088 5.114c-.002 2.11.794 4.058 2.087 5.114 1.293 1.055 2.887 1.055 4.18 0s2.09-3.005 2.088-5.114z" transform="matrix(.798 -1.411 1.453 .822 51.864 314.912)"/><path d="M232.84 119.03c.002-2.11-.794-4.058-2.087-5.114-1.294-1.055-2.888-1.055-4.18 0s-2.09 3.005-2.088 5.114c-.002 2.11.794 4.058 2.087 5.114 1.293 1.055 2.887 1.055 4.18 0s2.09-3.005 2.088-5.114z" transform="matrix(.666 -1.478 1.523 .686 56.764 337.29)"/><path d="M232.84 119.03c.002-2.11-.794-4.058-2.087-5.114-1.294-1.055-2.888-1.055-4.18 0s-2.09 3.005-2.088 5.114c-.002 2.11.794 4.058 2.087 5.114 1.293 1.055 2.887 1.055 4.18 0s2.09-3.005 2.088-5.114z" transform="matrix(.566 -1.52 1.565 .583 57.863 352.303)"/><path d="M232.84 119.03c.002-2.11-.794-4.058-2.087-5.114-1.294-1.055-2.888-1.055-4.18 0s-2.09 3.005-2.088 5.114c-.002 2.11.794 4.058 2.087 5.114 1.293 1.055 2.887 1.055 4.18 0s2.09-3.005 2.088-5.114z" transform="matrix(.448 -1.558 1.605 .461 62.966 370.256)"/><path d="M232.84 119.03c.002-2.11-.794-4.058-2.087-5.114-1.294-1.055-2.888-1.055-4.18 0s-2.09 3.005-2.088 5.114c-.002 2.11.794 4.058 2.087 5.114 1.293 1.055 2.887 1.055 4.18 0s2.09-3.005 2.088-5.114z" transform="matrix(.202 -1.608 1.657 .209 94.601 408.783)"/><path d="M232.84 119.03c.002-2.11-.794-4.058-2.087-5.114-1.294-1.055-2.888-1.055-4.18 0s-2.09 3.005-2.088 5.114c-.002 2.11.794 4.058 2.087 5.114 1.293 1.055 2.887 1.055 4.18 0s2.09-3.005 2.088-5.114z" transform="matrix(.065 -1.62 1.668 .067 106.236 427.27)"/><path d="M232.84 119.03c.002-2.11-.794-4.058-2.087-5.114-1.294-1.055-2.888-1.055-4.18 0s-2.09 3.005-2.088 5.114c-.002 2.11.794 4.058 2.087 5.114 1.293 1.055 2.887 1.055 4.18 0s2.09-3.005 2.088-5.114z" transform="matrix(.065 -1.62 1.668 .067 88.794 427.888)"/><path d="M232.84 119.03c.002-2.11-.794-4.058-2.087-5.114-1.294-1.055-2.888-1.055-4.18 0s-2.09 3.005-2.088 5.114c-.002 2.11.794 4.058 2.087 5.114 1.293 1.055 2.887 1.055 4.18 0s2.09-3.005 2.088-5.114z" transform="matrix(-.361 -1.58 1.628 -.372 172.425 473.395)"/><path d="M232.84 119.03c.002-2.11-.794-4.058-2.087-5.114-1.294-1.055-2.888-1.055-4.18 0s-2.09 3.005-2.088 5.114c-.002 2.11.794 4.058 2.087 5.114 1.293 1.055 2.887 1.055 4.18 0s2.09-3.005 2.088-5.114z" transform="matrix(-.491 -1.545 1.592 -.504 188.201 485.686)"/><path d="M232.84 119.03c.002-2.11-.794-4.058-2.087-5.114-1.294-1.055-2.888-1.055-4.18 0s-2.09 3.005-2.088 5.114c-.002 2.11.794 4.058 2.087 5.114 1.293 1.055 2.887 1.055 4.18 0s2.09-3.005 2.088-5.114z" transform="matrix(-.671 -1.476 1.52 -.691 221.781 498.946)"/><path d="M232.84 119.03c.002-2.11-.794-4.058-2.087-5.114-1.294-1.055-2.888-1.055-4.18 0s-2.09 3.005-2.088 5.114c-.002 2.11.794 4.058 2.087 5.114 1.293 1.055 2.887 1.055 4.18 0s2.09-3.005 2.088-5.114z" transform="matrix(-.795 -1.413 1.456 -.818 241.27 508.181)"/><path d="M232.84 119.03c.002-2.11-.794-4.058-2.087-5.114-1.294-1.055-2.888-1.055-4.18 0s-2.09 3.005-2.088 5.114c-.002 2.11.794 4.058 2.087 5.114 1.293 1.055 2.887 1.055 4.18 0s2.09-3.005 2.088-5.114z" transform="matrix(-.944 -1.318 1.358 -.972 271.526 515.245)"/><path d="M232.84 119.03c.002-2.11-.794-4.058-2.087-5.114-1.294-1.055-2.888-1.055-4.18 0s-2.09 3.005-2.088 5.114c-.002 2.11.794 4.058 2.087 5.114 1.293 1.055 2.887 1.055 4.18 0s2.09-3.005 2.088-5.114z" transform="matrix(-1.05 -1.234 1.271 -1.084 292.262 520.055)"/><path d="M232.84 119.03c.002-2.11-.794-4.058-2.087-5.114-1.294-1.055-2.888-1.055-4.18 0s-2.09 3.005-2.088 5.114c-.002 2.11.794 4.058 2.087 5.114 1.293 1.055 2.887 1.055 4.18 0s2.09-3.005 2.088-5.114z" transform="matrix(-1.137 -1.156 1.191 -1.171 308.778 525.95)"/><path d="M232.84 119.03c.002-2.11-.794-4.058-2.087-5.114-1.294-1.055-2.888-1.055-4.18 0s-2.09 3.005-2.088 5.114c-.002 2.11.794 4.058 2.087 5.114 1.293 1.055 2.887 1.055 4.18 0s2.09-3.005 2.088-5.114z" transform="matrix(-1.229 -1.055 1.087 -1.268 331.273 529.407)"/><path d="M232.84 119.03c.002-2.11-.794-4.058-2.087-5.114-1.294-1.055-2.888-1.055-4.18 0s-2.09 3.005-2.088 5.114c-.002 2.11.794 4.058 2.087 5.114 1.293 1.055 2.887 1.055 4.18 0s2.09-3.005 2.088-5.114z" transform="matrix(-1.336 -.918 .947 -1.376 362.385 525.967)"/><path d="M232.84 119.03c.002-2.11-.794-4.058-2.087-5.114-1.294-1.055-2.888-1.055-4.18 0s-2.09 3.005-2.088 5.114c-.002 2.11.794 4.058 2.087 5.114 1.293 1.055 2.887 1.055 4.18 0s2.09-3.005 2.088-5.114z" transform="matrix(-1.473 -.676 .696 -1.518 415.742 503.94)"/><path d="M232.84 119.03c.002-2.11-.794-4.058-2.087-5.114-1.294-1.055-2.888-1.055-4.18 0s-2.09 3.005-2.088 5.114c-.002 2.11.794 4.058 2.087 5.114 1.293 1.055 2.887 1.055 4.18 0s2.09-3.005 2.088-5.114z" transform="matrix(-1.528 -.539 .556 -1.575 438.521 497.376)"/><path d="M232.84 119.03c.002-2.11-.794-4.058-2.087-5.114-1.294-1.055-2.888-1.055-4.18 0s-2.09 3.005-2.088 5.114c-.002 2.11.794 4.058 2.087 5.114 1.293 1.055 2.887 1.055 4.18 0s2.09-3.005 2.088-5.114z" transform="matrix(-1.613 -.12 .154 -1.333 500.311 405.844)"/><path d="M232.84 119.03c.002-2.11-.794-4.058-2.087-5.114-1.294-1.055-2.888-1.055-4.18 0s-2.09 3.005-2.088 5.114c-.002 2.11.794 4.058 2.087 5.114 1.293 1.055 2.887 1.055 4.18 0s2.09-3.005 2.088-5.114z" transform="matrix(-1.58 -.361 .371 -1.628 468.247 480.626)"/></g><path d="M480.012 194.65c2.146-2.297 4.143-2.946 6.67-2.11-.892-6.06-2.81-8.115-5.146-7.385-2.336.73-3.393 3.845-1.524 9.496zM483.293 212.934c2.313-2.13 4.353-2.626 6.81-1.6-.433-6.11-2.19-8.305-4.575-7.754-2.384.552-3.673 3.58-2.235 9.354zM475.53 177.95c1.493-2.766 3.26-3.902 5.915-3.733-2.4-5.635-4.778-7.137-6.852-5.838-2.074 1.298-2.305 4.58.938 9.57zM467.394 161.312c1.492-2.767 3.258-3.903 5.914-3.734-2.4-5.635-4.777-7.137-6.852-5.838-2.074 1.3-2.305 4.58.938 9.572zM447.874 130.818c1.028-2.97 2.59-4.375 5.238-4.635-3.275-5.176-5.863-6.277-7.7-4.66s-1.54 4.89 2.462 9.295zM435.117 117.53c.915-3.008 2.42-4.47 5.058-4.83-3.468-5.05-6.095-6.05-7.87-4.367-1.778 1.684-1.355 4.947 2.812 9.197zM408.287 94.895c-.056-3.143.927-5 3.325-6.154-4.855-3.734-7.663-3.877-8.834-1.728-1.17 2.15.236 5.123 5.51 7.883zM422.246 105.36c.49-3.105 1.78-4.762 4.34-5.484-4.135-4.52-6.875-5.147-8.4-3.234-1.526 1.914-.656 5.087 4.06 8.718zM392.362 86.106c-.38-3.12.406-5.067 2.672-6.463-5.214-3.215-8.022-3.068-8.965-.81-.944 2.26.762 5.072 6.292 7.273zM376.088 79.002c-.822-3.035-.323-5.074 1.72-6.78-5.62-2.435-8.378-1.888-8.99.482-.61 2.37 1.482 4.91 7.27 6.298zM358.553 73.57c-1.076-2.955-.75-5.03 1.14-6.902-5.807-1.95-8.51-1.172-8.916 1.24-.408 2.415 1.89 4.768 7.776 5.66zM341.33 70.234c-1.286-2.868-1.112-4.96.638-6.965-5.932-1.527-8.57-.555-8.802 1.882-.232 2.436 2.23 4.617 8.165 5.082zM323.09 68.836c-1.577-2.72-1.62-4.818-.087-6.993-6.06-.902-8.582.338-8.56 2.785.022 2.447 2.698 4.362 8.648 4.208zM287.376 71.526c-2.186-2.258-2.735-4.285-1.772-6.766-6.097.585-8.247 2.397-7.635 4.767.61 2.37 3.67 3.582 9.406 2zM304.955 69.212c-1.86-2.534-2.13-4.616-.84-6.943-6.12-.247-8.495 1.258-8.21 3.688.285 2.43 3.15 4.046 9.05 3.254zM270.128 75.253c-2.488-1.922-3.32-3.85-2.723-6.443-5.95 1.454-7.82 3.555-6.874 5.813.946 2.257 4.147 3.02 9.598.63zM237.102 90.437c-2.808-1.413-3.992-3.147-3.9-5.806-5.564 2.56-6.998 4.978-5.64 7.014 1.356 2.037 4.643 2.176 9.54-1.207zM253.028 82.302c-2.616-1.744-3.58-3.608-3.165-6.237-5.835 1.864-7.552 4.09-6.452 6.277 1.1 2.186 4.346 2.723 9.618-.04zM207.48 111.06c-3.04-.796-4.56-2.245-5.024-4.865-4.91 3.662-5.808 6.326-4.057 8.035 1.75 1.71 4.995 1.16 9.08-3.17zM221.612 99.495c-2.97-1.033-4.37-2.596-4.627-5.245-5.182 3.267-6.286 5.852-4.673 7.693 1.612 1.84 4.89 1.548 9.3-2.448zM194.922 123.43c-3.1-.518-4.746-1.822-5.445-4.39-4.557 4.094-5.21 6.83-3.31 8.37 1.9 1.544 5.08.702 8.755-3.98zM183.67 138.033c-3.135-.234-4.892-1.384-5.822-3.878-4.166 4.49-4.567 7.273-2.535 8.637 2.032 1.364 5.123.237 8.356-4.76zM174.253 152.966c-3.133.25-5.045-.618-6.346-2.94-3.43 5.075-3.4 7.886-1.183 8.923 2.217 1.036 5.1-.55 7.53-5.984zM165.986 168.917c-3.075.654-5.083.042-6.674-2.09-2.742 5.476-2.348 8.26-.015 9 2.333.74 4.984-1.208 6.69-6.91zM159.372 185.287c-2.932 1.132-5.012.846-6.92-1.008-1.84 5.84-1.01 8.527 1.41 8.89 2.42.36 4.73-1.983 5.51-7.883zM154.943 203.518c-2.85 1.326-4.945 1.18-6.973-.542-1.444 5.952-.437 8.577 2.003 8.775 2.44.2 4.586-2.293 4.97-8.232zM153.14 218.704c-2.682 1.42-4.773 1.59-6.966.515-.798 4.85.48 6.767 2.918 6.594 2.438-.173 4.3-2.412 4.05-7.11zM460.127 146.483c1.073-2.955 2.655-4.336 5.307-4.556-3.196-5.225-5.766-6.364-7.63-4.777-1.862 1.587-1.612 4.868 2.323 9.332zM485.295 231.47c2.313-2.13 4.352-2.626 6.808-1.6-.43-6.11-2.19-8.305-4.573-7.753-2.384.55-3.673 3.578-2.235 9.353z" fill-rule="evenodd" fill="#ffe300"/><path stroke-linejoin="round" d="M461.32 132.01c-.075 0-6.926 6.852-5.735 15.192 1.192 8.34 6.48 18.618 5.51 27.257-.967 8.638-2.53 14.372-2.53 14.372s8.042-9.16 8.117-17.948c.074-8.788-5.51-20.33-5.51-26.81s.297-12.212.148-12.063zM474.05 160.006s-5.36 3.947-4.84 13.033c.522 9.084 9.905 25.766 9.905 25.766s6.85 14.075 6.628 17.724c-.224 3.65 1.266-3.5.596-11.543-.672-8.043-11.023-25.767-11.023-25.767s-2.234-3.65-2.01-9.68c.223-6.033.818-9.46.744-9.534z" fill-rule="evenodd" stroke="#000" stroke-width="1.85658" fill="#217900"/><path d="M312.926 47.43c0-1.88-2.114-3.405-4.724-3.405s-4.724 1.525-4.723 3.405c-.002 1.88 2.113 3.405 4.722 3.405s4.725-1.524 4.724-3.405zM314.945 55.35c0-1.804-2.177-3.266-4.863-3.266-2.685 0-4.862 1.462-4.862 3.265s2.177 3.264 4.862 3.264c2.686 0 4.863-1.46 4.863-3.265zM320.985 45.972s-5.558 4.168-3.265 5.835c2.292 1.667 8.614-3.612 8.614-3.612l-5.35-2.223zM484.32 141.4c.002-1.184-.554-2.28-1.457-2.873-.902-.593-2.015-.593-2.918 0-.902.593-1.458 1.69-1.456 2.873-.003 1.185.553 2.28 1.455 2.874.903.593 2.016.593 2.918 0 .903-.593 1.46-1.69 1.457-2.874zM482.197 133.455c0-1.976-1.365-3.578-3.048-3.578s-3.05 1.602-3.05 3.578 1.365 3.578 3.05 3.578 3.047-1.602 3.047-3.578zM483.66 149.616c0-1.025-.535-1.856-1.194-1.856-.66 0-1.193.83-1.193 1.856s.534 1.855 1.193 1.855c.66 0 1.193-.83 1.193-1.854zM488.558 135.17c0-1.172-.534-2.12-1.193-2.12-.658 0-1.192.948-1.192 2.12s.534 2.12 1.192 2.12c.66 0 1.193-.95 1.193-2.12zM475.174 136.632c0-.952-.534-1.723-1.193-1.723-.658 0-1.192.77-1.192 1.722 0 .95.534 1.722 1.193 1.722.66 0 1.194-.77 1.194-1.722zM477.297 148.032c0-1.538-1.127-2.784-2.518-2.784s-2.52 1.246-2.52 2.784c0 1.537 1.128 2.784 2.52 2.784s2.518-1.247 2.517-2.784zM470.666 142.993c0-1.317-.95-2.385-2.12-2.385-1.172 0-2.12 1.068-2.12 2.385s.948 2.385 2.12 2.385c1.17 0 2.12-1.068 2.12-2.385zM469.613 136.23c0-.71-.353-1.367-.927-1.723-.574-.355-1.282-.355-1.857 0-.575.356-.93 1.013-.928 1.724 0 .712.353 1.37.927 1.725.574.356 1.282.356 1.856 0 .574-.356.928-1.013.927-1.724zM499.82 170.597c-2.738-3.613-7.12-5.135-9.79-3.4-2.668 1.735-2.612 6.07.125 9.682s7.12 5.134 9.79 3.4c2.667-1.736 2.61-6.07-.126-9.683zM507.6 237.25c.53-4.434-1.633-8.338-4.83-8.72-3.198-.384-6.22 2.9-6.75 7.333-.53 4.433 1.63 8.337 4.83 8.72 3.196.382 6.218-2.9 6.75-7.334zM509.244 276.044c.91-4.37-.906-8.447-4.06-9.104-3.15-.657-6.446 2.353-7.357 6.724-.91 4.37.906 8.447 4.058 9.104 3.153.657 6.447-2.353 7.36-6.724zM516.72 239.73c0-1.758-1.188-3.182-2.65-3.182s-2.652 1.424-2.652 3.18c0 1.757 1.187 3.18 2.65 3.18s2.65-1.423 2.65-3.18zM510.227 247.02l-5.433 6.164s-5.102.132-4.837 1.79c.265 1.655 7.023 6.625 6.957 8.613-.066 1.988 4.506-.464 4.506-.464s3.644-11.066 3.644-11.132c0-.065-.2-7.686-2.186-7.553-1.988.133-2.527 2.444-2.65 2.585zM152.837 244.585c0-1.428-1.158-2.586-2.586-2.586-1.427 0-2.585 1.157-2.585 2.585s1.158 2.586 2.586 2.586 2.587-1.157 2.587-2.585zM155.274 236.683c0-1.508-1.158-2.73-2.586-2.73s-2.586 1.222-2.586 2.73 1.157 2.73 2.586 2.73c1.428 0 2.586-1.222 2.586-2.73zM134.04 199.106c-.97-2.174-2.99-3.386-4.512-2.707-1.52.678-1.968 2.99-1 5.165.97 2.173 2.99 3.385 4.513 2.706 1.522-.678 1.97-2.99 1-5.164zM140.453 222.516c-1.332-2.818-4.106-4.39-6.197-3.51s-2.705 3.88-1.372 6.696 4.107 4.388 6.197 3.508 2.706-3.877 1.373-6.694zM147.32 239.685c.43-3.52-1.027-6.75-3.257-7.22-2.23-.468-4.39 2.004-4.82 5.523-.432 3.52 1.026 6.752 3.256 7.22 2.23.47 4.388-2.004 4.82-5.523zM136.302 242.192c1.38-3.266.863-6.775-1.153-7.837s-4.77.725-6.15 3.99-.863 6.776 1.153 7.837 4.77-.724 6.15-3.99z" fill-rule="evenodd" fill="#6b18b5"/><path d="M131.28 234.812c0-1.666-1.285-3.017-2.872-3.017s-2.874 1.35-2.874 3.017 1.287 3.017 2.874 3.017 2.873-1.352 2.873-3.018zM128.984 227.345c0-1.507-1.158-2.73-2.586-2.73-1.43 0-2.586 1.223-2.586 2.73 0 1.508 1.157 2.73 2.586 2.73s2.586-1.222 2.586-2.73zM131.43 212.978c0-2.54-1.127-4.598-2.515-4.598-1.39 0-2.514 2.06-2.514 4.598 0 2.54 1.126 4.597 2.515 4.597s2.514-2.058 2.514-4.597zM139.165 211.872c.335-2.516-.51-4.705-1.885-4.888-1.377-.184-2.764 1.708-3.1 4.225-.334 2.516.51 4.705 1.887 4.888 1.376.183 2.763-1.71 3.098-4.226zM194.286 101.894c1.025-3.564-.032-7.147-2.36-8-2.328-.856-5.047 1.34-6.07 4.905-1.026 3.564.03 7.146 2.36 8 2.328.855 5.046-1.342 6.07-4.906zM183.817 117.756c3.07-2.613 4.383-6.227 2.93-8.07-1.452-1.846-5.12-1.222-8.19 1.39s-4.382 6.228-2.93 8.073c1.453 1.843 5.12 1.22 8.19-1.394zM177.708 108.952c3.037-2.244 4.334-5.346 2.898-6.93s-5.063-1.047-8.1 1.196c-3.036 2.244-4.333 5.346-2.897 6.93s5.062 1.047 8.098-1.196zM201.257 93.467c2.048-1.566 2.923-3.73 1.954-4.835-.968-1.105-3.413-.73-5.46.834s-2.923 3.73-1.955 4.835c.97 1.106 3.414.732 5.462-.833z" fill-rule="evenodd" fill="#6b18b5"/><path d="M188.978 108.47c1.4-2.163 1.494-4.496.21-5.21-1.284-.713-3.46.462-4.86 2.626s-1.495 4.497-.21 5.21c1.283.714 3.46-.46 4.86-2.625zM206.696 99.198c2.202-1.856 3.06-4.314 1.916-5.49-1.143-1.178-3.856-.627-6.058 1.23s-3.06 4.313-1.916 5.49c1.143 1.177 3.856.626 6.058-1.23zM174.68 120.828c2.06-.103 3.612-1.128 3.47-2.29-.14-1.163-1.925-2.022-3.983-1.92-2.06.104-3.613 1.13-3.47 2.292.14 1.162 1.924 2.02 3.983 1.918zM213.44 87.703c1.4-2.164 1.495-4.497.21-5.21-1.284-.714-3.46.462-4.86 2.626s-1.495 4.496-.21 5.21c1.284.713 3.46-.463 4.86-2.627z" fill-rule="evenodd" fill="#6b18b5"/><path d="M446.83 153.375s6.386-10.108 3.917-19.62c-2.47-9.516-13.006-2.792-12.78.594.228 3.384 6.81 7.914 7.21 9.98.4 2.066-.744 8.422 1.653 9.045z" fill-rule="evenodd" stroke="#ef8a10" stroke-width=".9674400000000001" fill="#ffd200"/><path stroke-linejoin="round" d="M324.883 69.303s23.012.894 23.16 15.788c-.074 2.31 0 5.065-.818 11.692 4.542-2.457 7.596-9.31 7-13.702.074-15.118-20.554-25.47-29.342-13.778z" fill-rule="evenodd" stroke="#000" stroke-width="2.3211600000000003" fill="#217900"/><path stroke-linejoin="round" d="M310.29 68.633s18.542-3.873 18.69 11.02c.15 14.895-5.882 17.278-5.882 17.278s14.224-3.052 14.298-18.17c.075-15.117-18.32-21.82-27.107-10.127z" fill-rule="evenodd" stroke="#000" stroke-width="2.3211600000000003" fill="#217900"/><path stroke-linejoin="round" d="M373.36 390.058s86.82-24.525 113.038-131.08c-15.223 109.374-110.22 144.047-110.22 144.047l-2.818-12.967z" fill-rule="evenodd" stroke="#000" stroke-width="2.4780930000000003" fill="#f7df73"/><path d="M382.266 396.692c2.684 0 9.322-7.345 13.136-8.193 3.813-.848 4.237-4.662-.142-4.803-4.378-.14-8.192 4.944-8.192 4.944s-3.813 3.25-7.768 3.673c-3.955.424-1.413 5.367 2.966 4.38z" fill-rule="evenodd" fill="#8c1800"/><path d="M432.262 359.395s-9.04 5.226-7.768 6.497c1.27 1.27 9.322-4.943 9.463-5.084.14-.142 3.39-4.097-1.695-1.413z" fill-rule="evenodd" stroke="#8c1800" stroke-width="2.4780930000000003" fill="#8c1800"/><path d="M400.764 383.14s-2.684-.99 4.237-3.672c6.922-2.684 6.498-5.79 8.758-7.063 2.26-1.27 7.063-4.66 8.05-2.683s-5.084 5.932-6.496 6.356c-1.412.424-8.334 6.78-10.31 7.344-1.978.565-3.39.283-4.238-.282z" fill-rule="evenodd" fill="#8c1800"/><path d="M445.68 346.127c-5.932 6.64-5.932 6.498-5.932 6.498" stroke="#8c1800" stroke-linecap="round" stroke-width="3.019497" fill="none"/><path stroke-linejoin="round" d="M160.26 215.97s51.958-14.677 67.647-78.444c-9.11 65.454-65.96 86.204-65.96 86.204l-1.687-7.76z" fill-rule="evenodd" stroke="#000" stroke-width="1.483" fill="#f7df73" transform="matrix(-1.655 0 0 1.7 524.619 20.383)"/><path d="M250.568 394.28c-2.658 0-9.233-7.47-13.01-8.333-3.778-.862-4.197-4.743.14-4.886 4.336-.143 8.113 5.03 8.113 5.03s3.778 3.305 7.695 3.736c3.917.432 1.4 5.46-2.937 4.455z" fill-rule="evenodd" fill="#8c1800"/><path d="M195.51 197.62s-5.41 3.127-4.65 3.888c.762.76 5.58-2.958 5.664-3.043.085-.084 2.03-2.45-1.014-.845z" fill-rule="evenodd" stroke="#8c1800" stroke-width="1.483" fill="#8c1800" transform="matrix(-1.655 0 0 1.7 524.619 20.383)"/><path d="M232.247 380.494s2.658-1.006-4.197-3.736c-6.855-2.73-6.435-5.892-8.673-7.185-2.24-1.293-6.995-4.742-7.974-2.73s5.036 6.035 6.435 6.466c1.4.43 8.254 6.897 10.212 7.47 1.958.576 3.357.29 4.197-.286z" fill-rule="evenodd" fill="#8c1800"/><path d="M203.54 189.68c-3.55 3.973-3.55 3.888-3.55 3.888" stroke="#8c1800" stroke-linecap="round" stroke-width="1.807" fill="none" transform="matrix(-1.655 0 0 1.7 524.619 20.383)"/><path stroke-linejoin="round" d="M490.42 239.302c.427 6.682 6.967 13.08 4.408 24.738-3.27 13.22-14.786 44.64-12.795 50.186-3.412-4.692-2.844-9.1-3.128-15.64-.285-6.54 9.525-30.85 10.378-39.096 0-7.392.71-17.486 1.137-20.188z" fill-rule="evenodd" stroke="#000" stroke-width="2.3211600000000003" fill="#217900"/><path stroke-linejoin="round" d="M490.42 239.442s10.663 13.506 10.094 24.17c-.568 10.662-6.54 23.172-4.55 28.717-3.41-4.693-4.264-7.68-4.55-14.218-.283-6.54 5.262-13.79 4.124-20.9-1.137-7.108-5.26-17.77-5.118-17.77zM141.123 242.427c-.426 6.682-5.402 12.652-2.843 24.31 3.27 13.222 14.928 30 13.08 49.192 3.412-4.693 4.407-9.953 4.69-16.493.286-6.54-12.937-28.576-13.79-36.822 0-7.392-.71-17.486-1.137-20.188z" fill-rule="evenodd" stroke="#000" stroke-width="2.3211600000000003" fill="#217900"/><path stroke-linejoin="round" d="M141.123 242.575s-10.378 13.08-9.81 23.742c.142 7.11 13.222 36.822 11.232 42.367 3.412-4.69 4.407-4.123 4.264-11.23-3.84-18.2-10.664-29.857-9.526-36.966 1.137-7.108 3.98-17.913 3.84-17.913z" fill-rule="evenodd" stroke="#000" stroke-width="2.3211600000000003" fill="#217900"/><path stroke-linejoin="round" fill="#fff" stroke-dashoffset="1" stroke="#000" stroke-linecap="square" stroke-width="1.935065" d="M318.423 122.916l25.83 79.49 83.58.002-67.615 49.13 25.824 79.492-67.618-49.105-67.62 49.117 25.825-79.488-67.618-49.128h83.58z"/></g></svg>