<svg xmlns="http://www.w3.org/2000/svg" height="480" width="640"><path fill="#006" d="M0 0h640v480H0z"/><g fill-rule="evenodd"><path d="M408.303 192.25h214.293l-.255 153.44c1.783 61.683-36.422 99.958-106.72 117.215-49.925-12.476-107.488-38.28-107.572-115.464l.255-155.192z" fill="#fff"/><path d="M44.07 22.713h169.3l-.202 120.79c1.408 48.558-28.777 78.69-84.317 92.276-39.436-9.82-84.915-30.13-84.98-90.9l.2-122.17z" stroke="#000" stroke-width="1pt" fill="#00a2bd" transform="matrix(1.2 0 0 1.2 359.7 169.2)"/><path d="M614.172 358.584c-7.39 55.62-50.227 79.924-99.85 92.822-43.926-11.782-91.182-30.594-100.34-92.542l200.195-.28z" fill="#a53d08"/></g><g stroke="#000" fill-rule="evenodd"><path stroke-linejoin="round" d="M546.624 405.804c.113.113.79 11.154-5.183 17.915 5.297 1.69 8.903-.34 10.592-2.48 1.69-2.14 2.255-4.845 2.255-4.845s1.464-.9 1.69-2.93c.113-2.817-1.127-2.817-2.14-3.38l.223-6.31s-6.084-3.718-7.436 2.03z" stroke-width="1.5" fill="#ffc6b5"/><path d="M546.288 421.584l-1.804-1.465" stroke-linecap="round" stroke-width="1.2pt" fill="#ff9a08"/></g><path d="M529.668 252.472s.14 6.75-.282 7.453c-.42.703-4.265 2.484-4.265 2.484l3.282 6.984s9.234-1.313 9.28-1.313 3.986-10.452 3.986-10.452-2.063-3.47-1.547-7.078c-3.092-9.797-10.312 1.97-10.452 1.922z" fill-rule="evenodd" stroke="#000" stroke-width="1.2pt" fill="#ffc6b5"/><path stroke-linejoin="round" d="M517.44 412.908s5.183 5.183 11.154 4.507c13.522-1.464 17.465-13.52 21.634-13.633s6.76 7.324 10.704 6.422c-3.38-6.196-6.986-19.942-6.423-29.632.563-9.69.563-50.478.563-50.478s-6.76-21.07-9.915-24.563c3.154-3.38 5.295-9.35 5.182-15.886-.112-6.535 0-13.746 0-13.746s1.577-1.803 1.466-6.873c-.113-5.07-8.564-12.394-9.69-12.056-1.127.337-11.718 9.463-12.62 11.604-.902 2.14-2.14-7.775-.112-8.676 2.028-.9-4.733-1.465-9.015 3.606-4.282 5.07-3.043 149.628-2.93 149.4z" fill-rule="evenodd" stroke="#000" stroke-width="1.5" fill="#005121"/><path d="M466.622 223.316l39.653.142-.283-18.27 14.446.143.14 18.128h39.512l.142 14.162-39.653.142-.318 167.016-14.09.09-.18-167.245-39.378.142.008-14.446z" fill-rule="evenodd"/><path d="M506.136 267.55s-2.71-.477-4.78.16 3.186-23.503 3.186-25.495c1.833-.877 10.995-2.55 10.756-9.003-.637-3.904-14.182.24-13.943 5.18-.876 2.47-9.72 27.644-7.967 35.93 3.107 2.47 8.844 1.992 12.748 1.355v-8.127z" fill-rule="evenodd" stroke="#000" stroke-width="1.2pt" fill="#ffc6b5"/><path d="M508.764 233.053s-.797 4.462 3.266 5.1" stroke="#000" stroke-linecap="round" stroke-width=".75" fill="none"/><path d="M514.74 232.973c-.16.08-5.258 3.266-5.258 3.266M514.428 234.965l-3.586 2.63M513.072 232.018l-3.984 2.39" stroke="#000" stroke-width=".44999999999999996" fill="none"/><path d="M474.288 365.472l36.168 37.52c12.506-13.746 3.832-65.126-12.618-74.59-1.972 6.085-5.324 13.38-8.888 15.732-7.84 5.343-27.056 11.59-20.633 15.59 1.465-2.027 5.295-3.942 7.098.565 2.14 7.097-8 7.548-8 7.548s-6.422-.79-7.55-7.324c-1.125-6.534 9.567-12.5 10.48-12.957.9-.338 14.873-4.056 17.24-16.45 2.928-12.17 5.97-10.366 6.534-10.592 18.25 1.803 30.195 34.48 30.872 57.463.675 22.985-9.352 38.196-11.155 39.21-1.803 1.014-43.492-49.462-43.492-49.462l3.943-2.254z" fill-rule="evenodd" stroke="#000" stroke-width="1.2pt" fill="#ff9a08"/><path d="M500.652 330.54l.224 67.716M496.596 331.776l.224 61.52M492.204 340.68l.224 48.9M488.604 344.172l.226 40.45M484.764 345.984v34.14M480.6 348.684v27.04M476.993 350.82v20.73" stroke="#000" stroke-width="1.2pt" fill="none"/><path d="M473.725 369.756l37.295 42.696M512.82 342.828s16.902 36.958 1.24 67.38M469.33 361.98s1.24-3.268 2.818-1.915M466.402 352.512s-6.76 5.97-3.043 9.803" stroke="#ffdf00" stroke-linecap="round" stroke-width="1.5" fill="none"/><path d="M528.936 268.8s.564 5.182-.563 9.125 4.282 14.873 2.253 17.127M531.192 305.64l14.197-.113" stroke="#000" stroke-width="1.2pt" fill="none"/><path d="M526.008 311.388c.113.224 1.69 7.436 1.238 12.394M530.628 313.98c-.45 1.465-6.31 18.14-6.084 18.816M534.12 306.432c.113.338-.45 10.59-2.028 12.056M541.332 305.64s9.24 21.408 9.127 29.858 3.154 25.577 1.013 33.126M544.26 335.28s-.677 15.887-7.324 22.084c-6.648 6.198 15.887 23.887 15.887 23.887" stroke="#000" stroke-linecap="round" stroke-width="1.2pt" fill="none"/><path d="M544.032 380.232s2.48 21.858 6.648 23.436M523.644 343.608c.113.226-2.254 14.76-.338 17.126 1.916 2.367 17.803 24.563 17.126 47.55M535.92 401.412s-.45 13.86-13.296 14.986M532.092 392.292s3.832 14.422-9.24 23.55" stroke="#000" stroke-linecap="round" stroke-width="1.5" fill="none"/><path d="M537.156 357.468s14.76 15.324 15.437 22.085M541.44 305.976s2.592 10.928 1.578 12.845" stroke="#000" stroke-linecap="round" stroke-width="1.2pt" fill="none"/><path d="M495.912 328.428s-1.58-2.766-1.382-5.828-.495-7.803 9.384-11.656c6.025-6.124 12.74-9.78 16.395-11.654 5.333-3.458 8.792-2.668 11.95-3.854 2.076-2.37 1.976-7.605 4.15-12.247 2.173-4.643 6.025-14.224 10.173-12.742 4.15 1.48.89 13.927-.69 18.273-1.58 4.347-2.964 8.89-5.73 11.558-2.766 2.667-15.31 7.506-17.78 8.395s-13.728 3.458-16.593 7.41c-2.865 3.95-2.667 9.778-9.878 12.346z" fill-rule="evenodd" stroke="#000" stroke-width="1.2pt" fill="#ffc6b5"/><path d="M495.12 320.136c.296-.098 4.938-1.58 7.11 2.57" stroke="#000" stroke-width="1.2pt" fill="none"/><path stroke-linejoin="round" d="M529.992 235.44s-2.088 3.404-2.666 5.473c-.45 1.547-1.896-.104-2.662 3.25l1.242.217c-.494.988-.655 2.657-.754 3.052-.1.395-.794 2.2-.69 3.556.054.7 1.382 3.754 12.148-.89 10.766-4.64-3.457-17.82-6.618-14.658z" fill-rule="evenodd" stroke="#000" stroke-width="1.5" fill="#ffc6b5"/><path stroke-linejoin="round" d="M528.78 235.876c1.105-.593 8.948-1.284 7.642 14.025 1.508-.196 2.413-.394 3.316 1.088.905 1.48.806 3.26 2.414 3.26 1.61 0 1.81-.297 2.212-1.482.4-1.186 6.636 1.382 8.243-4.15-.278-1.076-3.82-2.765-4.223-4.74.906-2.766-.402-11.754-11.862-12.25-5.932-.097-7.137 2.372-7.742 4.25z" fill-rule="evenodd" stroke="#000" stroke-linecap="round" stroke-width="1.5131999999999999" fill="#c59200"/><path d="M528.204 238.938c.1.1 3.557 1.087 3.952 2.766" stroke="#000" stroke-linecap="round" stroke-width="1.2pt" fill="none"/><path d="M530.328 243.004c0 .517-.4.937-.89.937s-.89-.42-.89-.936.397-.938.89-.938.89.42.89.938z" fill-rule="evenodd"/><path stroke-linejoin="round" d="M544.956 243.05s-1.266 6.094 4.313 8.485M540.828 243.8s2.066.094 2.066 2.016-1.696 2.156-1.555 3.703c.14 1.546 2.91 2.062 3.003 3.374M531.78 232.55c.094 0 9.892 1.125 9.33 3.563-.564 2.437-2.11 1.453-2.064 3.562s3.937.844 3.937.844.235-1.782 1.876-1.642.89 2.016 3.14 1.97" stroke="#000" stroke-linecap="round" stroke-width="1.5" fill="none"/><path d="M525.792 247.75l2.323-.077" stroke="#000" stroke-linecap="round" stroke-width="1.5" fill="none"/><path d="M531.84 257.635s.864 4.03-2.4 3.647" stroke="#000" stroke-linecap="round" stroke-width="1.2pt" fill="none"/><g stroke-width="1pt"><path fill="#fff" d="M0 .063v28.44l343.648 225.93h43.256v-28.438L43.256.065H0zm386.904 0v28.44L43.256 254.432H0v-28.44L343.648.064h43.256z"/><path fill="#fff" d="M161.21.063v254.37h64.484V.063H161.21zM0 84.853v84.79h386.904v-84.79H0z"/><path fill="#c00" d="M0 101.81v50.875h386.904V101.81H0zM174.107.064v254.37h38.69V.063h-38.69zM0 254.433l128.968-84.79h28.837l-128.968 84.79H0zM0 .063l128.968 84.79H100.13L0 19.023V.063zm229.1 84.79L358.066.063h28.837l-128.968 84.79H229.1zm157.804 169.58l-128.968-84.79h28.837l100.13 65.83v18.96z"/></g></svg>