<svg xmlns="http://www.w3.org/2000/svg" height="480" width="640" version="1"><g stroke-width="1pt" fill-rule="evenodd"><path fill="#e80008" d="M.9 0h640v480H.9z"/><path fill="#fff" d="M.9 34.286h640v34.286H.9zM.9 102.86h640v34.286H.9zM.9 171.43h640v34.286H.9zM.9 240h640v34.286H.9zM.9 308.57h640v34.286H.9zM.9 377.14h640v34.286H.9zM.9 445.71h640v34.286H.9z"/><path fill="#000689" d="M0 0h245.17v141.39H0z"/><g fill="#fe0"><path d="M124.467 120.178c-26.378 14.678-59.355 4.76-73.61-21.827-14.253-26.585-4.412-59.823 21.966-74.188 16.31-8.883 34.224-9.06 50.5-.322-9.185-2.21-17.386-2.092-26.297.555-25.96 7.712-40.882 35.425-33.31 61.862 7.574 26.435 34.79 41.63 60.747 33.92z"/><path d="M168.97 54.265l27.854-15.825-22.13 23.163 31.963-2.17-29.988 11.27 29.737 11.91-31.905-2.857 21.624 23.63-27.506-16.415 9.226 30.675L160.19 90.92l-4.998 31.637-4.31-31.74-18.23 26.343 9.887-30.472-27.856 15.825 22.13-23.164-31.963 2.17 29.99-11.27-29.74-11.91 31.907 2.857-21.625-23.63 27.506 16.415-9.226-30.673 17.656 26.724 4.998-31.64 4.31 31.743 18.23-26.342"/></g></g></svg>