<svg xmlns="http://www.w3.org/2000/svg" height="480" width="640" version="1"><defs><clipPath id="a"><path fill-opacity=".67" d="M0 0h640v480H0z"/></clipPath></defs><g fill-rule="evenodd" clip-path="url(#a)"><path fill="#fff" d="M0 0h640v480H0z"/><path fill="#ffe700" d="M219.59 171.765l-21.73-13.103-12.55 22.095-12.245-22.225-21.908 12.885.518-25.39-25.398.212 13.144-21.752-22.077-12.513 22.247-12.28-12.844-21.887 25.39.474-.168-25.393 21.73 13.104 12.55-22.097 12.244 22.225 21.91-12.882-.52 25.39 25.395-.214-13.14 21.753 22.074 12.51-22.246 12.282 12.85 21.885-25.392-.474"/><path d="M232.438 112.363c0 25.53-20.875 46.23-46.626 46.23s-46.627-20.7-46.627-46.23 20.876-46.23 46.627-46.23 46.626 20.698 46.626 46.23z" fill="#3662a2"/><path d="M222.22 112.4c0 20.15-16.334 36.486-36.484 36.486S149.25 132.55 149.25 112.4s16.336-36.484 36.486-36.484S222.22 92.25 222.22 112.4z" fill="#ffe700"/></g></svg>