<svg xmlns="http://www.w3.org/2000/svg" height="480" width="640"><defs><clipPath id="a"><path fill-opacity=".67" d="M0 0h496.06v372.05H0z"/></clipPath></defs><g transform="matrix(1.29 0 0 1.29 0 0)" clip-path="url(#a)"><path fill-rule="evenodd" fill="#fff" d="M.013 0h499.55v248.1H.013z"/><path d="M51.054 0l144.53 75.49V0H51.064z" fill="#006"/><path fill="#c00" d="M214.86 0v96.372H.02v55.07h214.84v96.372h66.106v-96.372h214.84v-55.07h-214.84V0H214.86z"/><path d="M300.24 0v71.132L441.63.552 300.24 0zM.013 167.5v52.775l99.16-52.22-99.16-.56zM497.9 21.795l-118 58.515 116.43.436v87.194h-99.16l98.243 53.23 1.442 27.08-52.474-.627-143.62-70.505v71.132H196.09v-71.132l-134.72 70.94-60.843.192v247.81h991.59V.43L498.947 0M.537 27.97L.014 79.44l104.39 1.308L.544 27.97z" fill="#006"/><g fill-rule="evenodd" stroke-width="1pt" fill="#ffd900"><path d="M496.06 0h496.06v496.06H496.06z"/><path d="M0 248.03h523.49v248.03H0z"/></g><g fill-rule="evenodd"><path d="M290.9 125.29c0 23.62-19.148 42.767-42.768 42.767s-42.767-19.147-42.767-42.767 19.147-42.767 42.767-42.767c23.62 0 42.767 19.147 42.767 42.767z" fill="#000067"/><path fill="#fff40d" d="M240.312 114.332l8.23-24.594 8.23 24.594 26.703-.018-21.617 15.177 8.27 24.583-21.59-15.213-21.59 15.21 8.275-24.58-21.614-15.183M388.88 118.392l4.083-11.522 4.082 11.522 13.245-.01-10.722 7.112 4.102 11.516-10.71-7.127-10.708 7.126 4.104-11.516-10.72-7.114M244.2 203.932l4.083-11.522 4.082 11.522 13.245-.01-10.722 7.112 4.102 11.516-10.71-7.127-10.708 7.126 4.104-11.516-10.72-7.114M244.2 36.882l4.083-11.522 4.082 11.522 13.245-.01-10.722 7.112L258.99 55.5l-10.71-7.127-10.708 7.126 4.104-11.516-10.72-7.114M99.073 118.392l4.082-11.522 4.082 11.522 13.245-.01-10.722 7.112 4.102 11.516-10.71-7.127-10.71 7.126 4.106-11.516-10.72-7.114"/></g></g></svg>