<svg xmlns="http://www.w3.org/2000/svg" height="480" width="640" version="1"><defs><clipPath id="a"><path fill-opacity=".67" d="M0 0h640v480H0z"/></clipPath></defs><g clip-path="url(#a)"><path fill-rule="evenodd" fill="#ef2d29" d="M-3.3-21.61h702.27v553.02H-3.3z"/><path fill-rule="evenodd" fill="#009025" d="M174.57 317.33h535.76v207.56H174.57z"/><path fill-rule="evenodd" fill="#fff" d="M174.57-35.415h564.88v190.08H174.57z"/><g stroke-width=".983" stroke="#ef2d28"><g fill-rule="evenodd" transform="matrix(.198 0 0 .177 111.037 -13.446)" fill="#fff"><rect rx="11.298" ry="11.851" height="85.039" width="138.19" y="467.72" x="17.717" stroke-width="1.406"/><rect rx="10.719" ry="10.864" height="77.953" width="131.1" y="471.26" x="21.26" stroke-width="1.311"/><path d="M64.966 396.07l9.723.443.44 5.745 7.956 5.303 6.187-6.628 7.513 5.303-7.07 5.746 1.767 7.956 8.838-.442V430.1l-7.07-.44-3.535 6.628 7.955 7.513-6.187 6.188-6.63-6.63-9.722 2.653.443 9.724-10.607.884-1.326-9.28-8.84-4.863-4.86 6.63-7.514-4.862 4.42-7.513-5.304-4.862H34.03l-.443-13.7 7.513.884 5.304-7.955-6.187-6.187 7.955-7.07 5.745 5.744 9.723-1.768 1.326-5.746z" transform="matrix(.681 0 0 .585 37.972 260.74)" stroke-width="1.311"/><ellipse transform="matrix(.658 0 0 .702 38.845 209.62)" cx="68.944" rx="11.049" cy="426.78" ry="9.944" stroke-width="1.311"/></g><g fill-rule="evenodd" fill="#fff" transform="matrix(.198 0 0 .177 19.131 -14.073)"><rect rx="11.298" ry="11.851" height="85.039" width="138.19" y="467.72" x="17.717" stroke-width="1.406"/><rect rx="10.719" ry="10.864" height="77.953" width="131.1" y="471.26" x="21.26" stroke-width="1.311"/><path d="M64.966 396.07l9.723.443.44 5.745 7.956 5.303 6.187-6.628 7.513 5.303-7.07 5.746 1.767 7.956 8.838-.442V430.1l-7.07-.44-3.535 6.628 7.955 7.513-6.187 6.188-6.63-6.63-9.722 2.653.443 9.724-10.607.884-1.326-9.28-8.84-4.863-4.86 6.63-7.514-4.862 4.42-7.513-5.304-4.862H34.03l-.443-13.7 7.513.884 5.304-7.955-6.187-6.187 7.955-7.07 5.745 5.744 9.723-1.768 1.326-5.746z" transform="matrix(.681 0 0 .585 37.972 260.74)" stroke-width="1.311"/><ellipse transform="matrix(.658 0 0 .702 38.845 209.62)" cx="68.944" rx="11.049" cy="426.78" ry="9.944" stroke-width="1.311"/></g><path d="M538.58 531.5c1.717 166.56 24.803 201.97 3.543 201.97s-31.89-92.07-31.89-205.51 14.173-205.51 35.433-205.51-8.913 31.91-7.086 209.06z" fill-rule="evenodd" transform="matrix(-.321 -.127 -.201 .202 345.1 61.205)" stroke-width="1.311" fill="#fff"/><path d="M545.67 779.53l-60.236 17.716c56.693 60.236 120.47 85.04 138.19 74.41 17.717-10.63-31.89-35.434-77.953-92.126z" fill-rule="evenodd" stroke-width="1.229" fill="#fff" transform="matrix(-.198 0 0 .177 144.942 -13.447)"/><path d="M547.27 786.9l-50.926 14.74c56.693 60.236 112.77 77.385 127.28 70.015 14.59-7.37-30.287-28.063-76.35-84.755z" fill-rule="evenodd" transform="matrix(-.193 0 0 .17 142.45 -8.141)" stroke-width="1.27" fill="#fff"/><path d="M353.13 634.23c.187 1.273.748 7.068 1.25 9.375 0 3.186.288 5.632.625 8.125.796 2.177.66 4.198 3.125 5 1.694 2.632 2.76 3.314 5 4.376 1.527 1.323 3.84 2.642 6.25 3.75 2.5 1.07 4.77 1.218 7.5.625 2.19-1.525 3.804-3.1 5.625-4.374.43-1.973.822-4.903 1.25-6.875-.674 2.025-1.147 5.266-1.25 8.126.24 3.12 1.265 4.48 2.5 6.875" transform="matrix(-.139 0 0 .124 122.776 20.277)" stroke-width="1.751" fill="none"/><path d="M389.38 681.73l.625-.625c-1.484 1.484-.878.776 2.5-1.25 2.426-1.246 5.015-1.908 8.125-2.5h8.75c3.405 0 5.696.51 8.125 1.25 1.762 1.762 4.393 2.763 6.25 4.375 1.905 1.295 2.722 2.83 3.75 5 1.7 1.7 2.803 4.326 4.375 5.625.704 2.87 2.14 2.773 3.125 5-2.948.227-5.31.63-6.875 2.5-2.597 1.344 2.18-1.317 3.125-2.5 2.046-.618 2.576-1.25 5.625-1.25 2.85-.904 4.58.737 7.5 1.25 1.705.987 2.178 1.25 4.376 1.25" transform="matrix(-.139 0 0 .124 124.607 19.579)" stroke-width="1.751" fill="none"/><path d="M438.13 724.86c1.273.075 7.083 1.146 9.376 0 2.552-.696 4.068-2.04 5.625-4.375.768-1.69 0 2.998 0 5 .284 3.68 1.367 3.714 3.126 6.25 1.814 1.163 3.725 2.8 5.625 3.75 1.577 1.366 3.514 2.28 5.626 3.125 1.896.898 4.11 1.813 5.625 3.125 2.09 1.493 1.89 3.278 3.126 5.625-.235 3.057-.733 4.79-2.5 6.25-.738 2.113-2.395 4.205-3.75 5.625-1.545 2.87-3.256 4.224.625 5 2.133.914 3.328.197 5.626 0" transform="matrix(-.139 0 0 .124 126.698 18.11)" stroke-width="1.751" fill="none"/><path d="M480.63 771.73c1.536-.39 6.983-2.213 9.375-3.125h8.75c3.39.26 4.037 1.256 6.876 2.5 1.833 1.87 3.09 3.162 5.626 4.376 1.34 1.734 3.953 4.678 5 6.876.745 2.133 1.25 5.018 1.25 8.125-.044 3.65-1.002 4.272-1.25 7.5-.7 2.685-1.84 5.144-3.75 7.5-.265.794-.457.987-1.25 1.25" transform="matrix(-.139 0 0 .124 127.134 17.723)" stroke-width="1.751" fill="none"/><path d="M538.13 817.98c.374 0 1.2 2.018 2.5 3.75 2.828 2.906 3.192 3.125 7.5 3.125 3.884-.143 3.522-1.532 6.25-2.5 1.29-2.008 2.896-3.6 4.375-6.25 1.006-1.634 1.89-4.13 3.125-5.625 1.14-1.854 2.563-3.254 3.75-5 1.172-.502 1.618-.984 3.126-1.25-3.6.578-3.915 1.867-6.25 3.75-1.095 1.78-2.182 3.633-3.126 5.625-.36 2.673-1.21 4.78-1.25 8.125 0 3.457.017 5.872 1.25 8.75 1.473 1.545 2.563 3.143 4.375 4.376 1.44 1.405 3.244 3.336 4.376 5 1.96 1.206 3.386 2.19 5.626 3.75 1.884 1.102 3.915 2.234 6.875 2.5 3.67-.262 4.756-1.297 7.5-2.5 2.33-1.713 4.164-2.838 6.25-4.375 1.63-1.14 3.29-3.402 4.376-5 3.382-.845 5.53-.507 7.5 1.25 1.718 1.168 3.207 2.658 4.375 4.376 1.02.51 2.73 1.99 3.75 2.5" transform="matrix(-.099 0 0 .098 109.239 38.676)" stroke-width="2.339" fill="none"/><path d="M503.76 836.11c-.802.334-3.717 2.367-5 3.125-.8 2.63-2.077 4.07-2.5 6.875-.677 2.71-.625 5.692-.625 8.75.685 3.194 2.015 5.557 3.125 8.125 1.974 1.342 2.967 2.33 5.625 3.75 2.494.337 4.94.625 8.126.625 1.905.635 5.616.942 7.5 0 2.784-.376 4.855-1.507 6.876-2.5 2.306-1.307 3.728-2.542 6.25-3.75 1.225-1.8 3.13-3.46 5-5.625 1.556-2.105 2.7-3.286 3.75-5.625-.924 2.67-2.327 5-3.125 7.5-1.42 2.66-2.247 3.604-2.5 6.875-.87 2.613-.624 5.76-.624 8.75.274 2.03.418 5.837 1.25 7.5v1.875" transform="matrix(-.123 0 0 .122 111.151 19.165)" stroke-width="1.878" fill="none"/><path d="M541.26 799.23v.625c0-1.687.04-.83-.625 2.5-1.18 1.462-3.944 1.868-6.25 1.25-2.022-1.67-1.96-2.935-5.625-3.75-3.542.253-4.892 1.28-6.875 2.5-2.354 1.177-3.438 1.77-5 4.375-.776 2.12-1.21 3.555 1.25 4.375 1.954 1.386 4.277 2.15 6.875 2.5 2.887 0 4.968-.34 6.25 1.25 1.983 2.055 1.875 3.277 1.875 6.875.667 1.112.8 4.394 1.25 5.625 1.736.823 2.755 1.25 5.625 1.25.674-1.93 1.423-5.42 1.875-7.5.49-2.248.64-5.38 1.875-6.875 1.168-1.717 2.658-3.207 4.375-4.375.766-1.073 2.223-1.965 3.75-2.5-2.452 1.25-2.8 2.603-3.125 5.625 2.155 1.078 2.73 1.833 6.25 1.875 3.46-.29 4.295-1.17 5.625-3.125.242 3.136 1.243 4.186 1.875 6.875 1.286 1.89 1.832 3.828 3.125 6.25-.55 3.012-1.737 3.163-1.875 6.875-.81 2.435-.723 4.783-2.5 6.25-.792.97-1.384 1.16-3.125 1.25 3.618 0 5.727-.39 8.125-1.874 1.854-1.14 3.255-2.563 5-3.75 2.213-1.603 4.948-3.085 7.5-3.75 2.888 0 4.97-.34 6.25 1.25 1.77 1.264 2.96 3.446 3.75 6.25.58 3.244.8 5.404-.624 7.5-1.057 2.408-1.297 3.346 0 6.25 1.452 2.033 3.617 2.272 6.875 3.125 2.38-.127 4.67-.67 6.25-1.25" stroke-width="1.229" fill="none" transform="matrix(-.198 0 0 .177 144.942 -13.447)"/><g fill-rule="evenodd" stroke-width="1.311" transform="matrix(-.198 0 0 .177 144.942 -13.447)"><path d="M531.5 359.64c0-165.27 7.937-299.41 17.717-299.41 9.78 0 17.716 134.13 17.716 299.41H531.5z" transform="matrix(1.422 -.734 .462 .894 -716.84 541.07)" fill="#fff"/><path d="M531.5 359.64c0-165.27 7.937-299.41 17.717-299.41 9.78 0 17.716 134.13 17.716 299.41" transform="matrix(1.137 -.587 .445 .862 -554.83 471.77)" fill="#fff"/><path d="M563.39 301.18c.19 18.908 0 40.188 0 60.236h-28.347c0-20.048-.19-41.328 0-60.236h28.347z" transform="matrix(1.422 -.734 .459 .888 -716.67 541.39)" fill="#fff"/><path d="M559.84 304.72c.19 18.908 0 33.102 0 53.15h-21.26c0-20.048-.19-34.242 0-53.15h21.26z" transform="matrix(1.422 -.734 .459 .888 -716.67 541.39)" fill="#fff"/><path transform="matrix(1.422 -.734 .459 .888 -716.67 541.39)" fill="#fff" d="M542.13 311.81h14.173v38.976H542.13zM542.13 113.39h14.173"/><ellipse fill="#ef0000" transform="matrix(1.605 .454 -.362 1.579 -734.9 -170.85)" cx="545.67" rx="3.543" cy="92.126" ry="3.543"/></g><g><path d="M538.58 531.5c1.717 166.56 24.803 201.97 3.543 201.97s-31.89-92.07-31.89-205.51 14.173-205.51 35.433-205.51-8.913 31.91-7.086 209.06z" fill-rule="evenodd" transform="matrix(.321 -.127 .201 .202 -181.027 60.579)" stroke-width="1.311" fill="#fff"/><path d="M545.67 779.53l-60.236 17.716c56.693 60.236 120.47 85.04 138.19 74.41 17.717-10.63-31.89-35.434-77.953-92.126z" fill-rule="evenodd" stroke-width="1.229" fill="#fff" transform="matrix(.198 0 0 .177 19.131 -14.073)"/><path d="M547.27 786.9l-50.926 14.74c56.693 60.236 112.77 77.385 127.28 70.015 14.59-7.37-30.287-28.063-76.35-84.755z" fill-rule="evenodd" transform="matrix(.193 0 0 .17 21.623 -8.767)" stroke-width="1.27" fill="#fff"/><path d="M353.13 634.23c.187 1.273.748 7.068 1.25 9.375 0 3.186.288 5.632.625 8.125.796 2.177.66 4.198 3.125 5 1.694 2.632 2.76 3.314 5 4.376 1.527 1.323 3.84 2.642 6.25 3.75 2.5 1.07 4.77 1.218 7.5.625 2.19-1.525 3.804-3.1 5.625-4.374.43-1.973.822-4.903 1.25-6.875-.674 2.025-1.147 5.266-1.25 8.126.24 3.12 1.265 4.48 2.5 6.875" transform="matrix(.139 0 0 .124 41.297 19.651)" stroke-width="1.751" fill="none"/><path d="M389.38 681.73l.625-.625c-1.484 1.484-.878.776 2.5-1.25 2.426-1.246 5.015-1.908 8.125-2.5h8.75c3.405 0 5.696.51 8.125 1.25 1.762 1.762 4.393 2.763 6.25 4.375 1.905 1.295 2.722 2.83 3.75 5 1.7 1.7 2.803 4.326 4.375 5.625.704 2.87 2.14 2.773 3.125 5-2.948.227-5.31.63-6.875 2.5-2.597 1.344 2.18-1.317 3.125-2.5 2.046-.618 2.576-1.25 5.625-1.25 2.85-.904 4.58.737 7.5 1.25 1.705.987 2.178 1.25 4.376 1.25" transform="matrix(.139 0 0 .124 39.466 18.953)" stroke-width="1.751" fill="none"/><path d="M438.13 724.86c1.273.075 7.083 1.146 9.376 0 2.552-.696 4.068-2.04 5.625-4.375.768-1.69 0 2.998 0 5 .284 3.68 1.367 3.714 3.126 6.25 1.814 1.163 3.725 2.8 5.625 3.75 1.577 1.366 3.514 2.28 5.626 3.125 1.896.898 4.11 1.813 5.625 3.125 2.09 1.493 1.89 3.278 3.126 5.625-.235 3.057-.733 4.79-2.5 6.25-.738 2.113-2.395 4.205-3.75 5.625-1.545 2.87-3.256 4.224.625 5 2.133.914 3.328.197 5.626 0" transform="matrix(.139 0 0 .124 37.375 17.484)" stroke-width="1.751" fill="none"/><path d="M480.63 771.73c1.536-.39 6.983-2.213 9.375-3.125h8.75c3.39.26 4.037 1.256 6.876 2.5 1.833 1.87 3.09 3.162 5.626 4.376 1.34 1.734 3.953 4.678 5 6.876.745 2.133 1.25 5.018 1.25 8.125-.044 3.65-1.002 4.272-1.25 7.5-.7 2.685-1.84 5.144-3.75 7.5-.265.794-.457.987-1.25 1.25" transform="matrix(.139 0 0 .124 36.939 17.097)" stroke-width="1.751" fill="none"/><path d="M538.13 817.98c.374 0 1.2 2.018 2.5 3.75 2.828 2.906 3.192 3.125 7.5 3.125 3.884-.143 3.522-1.532 6.25-2.5 1.29-2.008 2.896-3.6 4.375-6.25 1.006-1.634 1.89-4.13 3.125-5.625 1.14-1.854 2.563-3.254 3.75-5 1.172-.502 1.618-.984 3.126-1.25-3.6.578-3.915 1.867-6.25 3.75-1.095 1.78-2.182 3.633-3.126 5.625-.36 2.673-1.21 4.78-1.25 8.125 0 3.457.017 5.872 1.25 8.75 1.473 1.545 2.563 3.143 4.375 4.376 1.44 1.405 3.244 3.336 4.376 5 1.96 1.206 3.386 2.19 5.626 3.75 1.884 1.102 3.915 2.234 6.875 2.5 3.67-.262 4.756-1.297 7.5-2.5 2.33-1.713 4.164-2.838 6.25-4.375 1.63-1.14 3.29-3.402 4.376-5 3.382-.845 5.53-.507 7.5 1.25 1.718 1.168 3.207 2.658 4.375 4.376 1.02.51 2.73 1.99 3.75 2.5" transform="matrix(.099 0 0 .098 54.834 38.05)" stroke-width="2.339" fill="none"/><path d="M503.76 836.11c-.802.334-3.717 2.367-5 3.125-.8 2.63-2.077 4.07-2.5 6.875-.677 2.71-.625 5.692-.625 8.75.685 3.194 2.015 5.557 3.125 8.125 1.974 1.342 2.967 2.33 5.625 3.75 2.494.337 4.94.625 8.126.625 1.905.635 5.616.942 7.5 0 2.784-.376 4.855-1.507 6.876-2.5 2.306-1.307 3.728-2.542 6.25-3.75 1.225-1.8 3.13-3.46 5-5.625 1.556-2.105 2.7-3.286 3.75-5.625-.924 2.67-2.327 5-3.125 7.5-1.42 2.66-2.247 3.604-2.5 6.875-.87 2.613-.624 5.76-.624 8.75.274 2.03.418 5.837 1.25 7.5v1.875" transform="matrix(.123 0 0 .122 52.922 18.539)" stroke-width="1.878" fill="none"/><path d="M541.26 799.23v.625c0-1.687.04-.83-.625 2.5-1.18 1.462-3.944 1.868-6.25 1.25-2.022-1.67-1.96-2.935-5.625-3.75-3.542.253-4.892 1.28-6.875 2.5-2.354 1.177-3.438 1.77-5 4.375-.776 2.12-1.21 3.555 1.25 4.375 1.954 1.386 4.277 2.15 6.875 2.5 2.887 0 4.968-.34 6.25 1.25 1.983 2.055 1.875 3.277 1.875 6.875.667 1.112.8 4.394 1.25 5.625 1.736.823 2.755 1.25 5.625 1.25.674-1.93 1.423-5.42 1.875-7.5.49-2.248.64-5.38 1.875-6.875 1.168-1.717 2.658-3.207 4.375-4.375.766-1.073 2.223-1.965 3.75-2.5-2.452 1.25-2.8 2.603-3.125 5.625 2.155 1.078 2.73 1.833 6.25 1.875 3.46-.29 4.295-1.17 5.625-3.125.242 3.136 1.243 4.186 1.875 6.875 1.286 1.89 1.832 3.828 3.125 6.25-.55 3.012-1.737 3.163-1.875 6.875-.81 2.435-.723 4.783-2.5 6.25-.792.97-1.384 1.16-3.125 1.25 3.618 0 5.727-.39 8.125-1.874 1.854-1.14 3.255-2.563 5-3.75 2.213-1.603 4.948-3.085 7.5-3.75 2.888 0 4.97-.34 6.25 1.25 1.77 1.264 2.96 3.446 3.75 6.25.58 3.244.8 5.404-.624 7.5-1.057 2.408-1.297 3.346 0 6.25 1.452 2.033 3.617 2.272 6.875 3.125 2.38-.127 4.67-.67 6.25-1.25" stroke-width="1.229" fill="none" transform="matrix(.198 0 0 .177 19.131 -14.073)"/></g><g stroke-width="1.311" fill-rule="evenodd" transform="matrix(.198 0 0 .177 19.131 -14.073)"><path d="M531.5 359.64c0-165.27 7.937-299.41 17.717-299.41 9.78 0 17.716 134.13 17.716 299.41H531.5z" transform="matrix(1.422 -.734 .462 .894 -716.84 541.07)" fill="#fff"/><path d="M531.5 359.64c0-165.27 7.937-299.41 17.717-299.41 9.78 0 17.716 134.13 17.716 299.41" transform="matrix(1.137 -.587 .445 .862 -554.83 471.77)" fill="#fff"/><path d="M563.39 301.18c.19 18.908 0 40.188 0 60.236h-28.347c0-20.048-.19-41.328 0-60.236h28.347z" transform="matrix(1.422 -.734 .459 .888 -716.67 541.39)" fill="#fff"/><path d="M559.84 304.72c.19 18.908 0 33.102 0 53.15h-21.26c0-20.048-.19-34.242 0-53.15h21.26z" transform="matrix(1.422 -.734 .459 .888 -716.67 541.39)" fill="#fff"/><path transform="matrix(1.422 -.734 .459 .888 -716.67 541.39)" fill="#fff" d="M542.13 311.81h14.173v38.976H542.13zM542.13 113.39h14.173"/><ellipse fill="#ef0000" transform="matrix(1.605 .454 -.362 1.579 -734.9 -170.85)" cx="545.67" rx="3.543" cy="92.126" ry="3.543"/></g><g fill-rule="evenodd" fill="#fff" transform="matrix(.198 0 0 .177 19.131 -14.073)"><path d="M305.61 396.85c0 124.02.49 170.76-5.62 177.17-5.79 6.857-167.12 0-167.12 35.433s132.87 70.867 172.74 70.866c53.15 0 79.723-35.434 79.723-106.3V396.85H305.61z" transform="matrix(1.333 0 0 1 -141.74 0)" stroke-width="1.311"/><path d="M265.75 432.283V450c35.433 5.906 70.866 5.906 106.3 0v-17.717c-35.433 5.906-70.866 5.906-106.3 0zM265.75 396.85v17.717c35.433 5.906 70.866 5.906 106.3 0V396.85c-35.433 5.906-70.866 5.906-106.3 0z" stroke-width="1.311"/><path d="M265.75 414.567v17.717c35.433 5.906 70.866 5.906 106.3 0v-17.717c-35.433 5.906-70.866 5.906-106.3 0zM265.75 450v17.717c35.433 5.906 70.866 5.906 106.3 0V450c-35.433 5.906-70.866 5.906-106.3 0z" stroke-width="1.311"/><ellipse transform="matrix(.545 0 0 .144 130.46 394.32)" cx="256.89" rx="8.858" cy="210.83" ry="26.575" stroke-width="4.388"/><ellipse transform="matrix(.545 0 0 .144 130.46 391.13)" cx="292.32" rx="8.858" cy="246.26" ry="26.575" stroke-width="4.388"/><ellipse transform="matrix(.545 0 0 .144 130.46 390.49)" cx="327.76" rx="8.858" cy="263.98" ry="26.575" stroke-width="4.388"/><ellipse transform="matrix(.545 0 0 .144 130.46 390.49)" cx="363.19" rx="8.858" cy="263.98" ry="26.575" stroke-width="4.388"/><ellipse transform="matrix(.545 0 0 .144 130.46 391.13)" cx="398.62" rx="8.858" cy="246.26" ry="26.575" stroke-width="4.388"/><ellipse transform="matrix(.545 0 0 .144 130.46 394.32)" cx="434.06" rx="8.858" cy="210.83" ry="26.575" stroke-width="4.388"/><path d="M265.75 467.716v17.717c35.433 5.906 70.866 5.906 106.3 0v-17.717c-35.433 5.906-70.866 5.906-106.3 0z" stroke-width="1.311"/><ellipse transform="matrix(.545 0 0 .144 130.46 447.47)" cx="256.89" rx="8.858" cy="210.83" ry="26.575" stroke-width="4.388"/><ellipse transform="matrix(.545 0 0 .144 130.46 444.28)" cx="292.32" rx="8.858" cy="246.26" ry="26.575" stroke-width="4.388"/><ellipse transform="matrix(.545 0 0 .144 130.46 443.64)" cx="327.76" rx="8.858" cy="263.98" ry="26.575" stroke-width="4.388"/><ellipse transform="matrix(.545 0 0 .144 130.46 443.64)" cx="363.19" rx="8.858" cy="263.98" ry="26.575" stroke-width="4.388"/><ellipse transform="matrix(.545 0 0 .144 130.46 444.28)" cx="398.62" rx="8.858" cy="246.26" ry="26.575" stroke-width="4.388"/><ellipse transform="matrix(.545 0 0 .144 130.46 447.47)" cx="434.06" rx="8.858" cy="210.83" ry="26.575" stroke-width="4.388"/><path d="M258.664 574.02h-17.717c-5.906 35.433-5.906 70.866 0 106.3h17.717c-5.906-35.433-5.906-70.866 0-106.3z" stroke-width="1.311"/><path d="M260.15 387.99l5.595 26.575c35.433 5.906 65.27 5.906 100.7 0l11.19-26.575c-35.433 5.906-82.056 5.906-117.49 0z" transform="matrix(0 .633 -.8 0 423.78 416.34)" stroke-width="1.311"/><path d="M258.66 350.79v-17.865c-10.63.15-17.716-10.48-17.717-21.26l-35.432.15c0 10.63-7.086 21.26-17.716 21.26v17.715h70.866z" transform="matrix(1.498 0 0 1 -15.633 53.149)" stroke-width="1.311"/><path stroke-width="1.356" d="M296.09 343.7h45.506v21.26H296.09zM299.88 322.44h37.922v21.26H299.88zM299.88 301.18h37.922v21.26H299.88zM303.67 272.83h30.337v28.346H303.67z"/><path stroke-width="1.413" d="M302.36 248.03h32.953v24.803H302.36z"/><ellipse transform="matrix(1.033 0 0 1 75.354 63.779)" cx="237.4" rx="42.52" cy="161.22" ry="33.661" stroke-width="1.311"/><path d="M258.66 159.45c0 9.29 10.63 24.803 10.63 24.803-7.696 6.093-20.154 10.63-31.89 10.63s-26.348-2.528-31.89-10.63c0 0 10.63-15.512 10.63-24.803s-10.63-21.26-10.63-21.26c7.697-6.093 20.155-10.63 31.89-10.63 11.736 0 24.194 4.537 31.89 10.63 0 0-10.63 11.97-10.63 21.26z" transform="matrix(1.033 0 0 1 75.354 63.779)" stroke-width="1.311"/><path d="M251.58 159.45c0 9.29 10.63 28.346 10.63 28.346-7.696 6.093-13.068 7.087-24.803 7.087s-19.262 1.015-24.803-7.087c0 0 10.63-19.055 10.63-28.346s-10.63-24.803-10.63-24.803c7.696-6.093 13.067-7.087 24.803-7.087 11.735 0 17.107.994 24.803 7.087 0 0-10.63 15.512-10.63 24.803z" transform="matrix(1.033 0 0 1 75.354 63.779)" stroke-width="1.311"/><ellipse transform="matrix(1.033 0 0 1 75.354 60.236)" cx="194.88" rx="10.63" cy="166.54" ry="10.63" stroke-width="1.311"/><ellipse transform="matrix(1.033 0 0 1 163.23 60.236)" cx="194.88" rx="10.63" cy="166.54" ry="10.63" stroke-width="1.311"/><ellipse transform="matrix(1.033 0 0 1 119.29 60.236)" cx="194.88" rx="10.63" cy="166.54" ry="10.63" stroke-width="1.311"/><ellipse transform="matrix(1.033 0 0 1 119.29 24.803)" cx="194.88" rx="10.63" cy="166.54" ry="10.63" stroke-width="1.311"/><ellipse transform="matrix(1.07 0 0 1 79.931 226.77)" cx="194.88" rx="10.63" cy="166.54" ry="10.63" stroke-width="1.311"/><ellipse transform="matrix(1.07 0 0 1 140.61 226.77)" cx="194.88" rx="10.63" cy="166.54" ry="10.63" stroke-width="1.311"/><path d="M212.6 311.81h49.607l-24.803 31.89-24.804-31.89z" transform="matrix(1.07 0 0 1 64.762 53.149)" stroke-width="1.311"/><ellipse transform="matrix(1.427 0 0 1.333 40.745 167.72)" cx="194.88" rx="10.63" cy="166.54" ry="10.63" stroke-width="1.311"/></g><g fill-rule="evenodd" transform="matrix(.198 0 0 .177 18.781 -19.082)" fill="#fff"><rect rx="4.349" ry="3.687" height="21.26" width="81.496" y="524.41" x="262.2" stroke-width="1.229"/><path d="M368.51 506.69c-9.814 0-17.716 8.26-17.716 18.52v16.11c0 10.26 7.902 18.52 17.716 18.52 9.815 0 17.717-8.26 17.717-18.52v-16.11c0-10.26-7.902-18.52-17.717-18.52zm0 7.087c-5.888 0-10.63 6.608-10.63 14.816v9.345c0 8.208 4.742 14.816 10.63 14.816 5.89 0 10.63-6.608 10.63-14.816v-9.345c0-8.208-4.74-14.816-10.63-14.816zM276.38 510.24c-5.888 0-10.63 6.608-10.63 14.816v16.432c0 8.208 4.742 14.816 10.63 14.816 5.89 0 10.63-6.608 10.63-14.816v-16.432c0-8.208-4.74-14.816-10.63-14.816zm0-7.087c-9.814 0-17.716 8.26-17.716 18.52v23.197c0 10.26 7.902 18.52 17.716 18.52 9.815 0 17.717-8.26 17.717-18.52v-23.198c0-10.26-7.902-18.52-17.717-18.52z" stroke-width="1.229"/><path d="M248.03 517.32c-5.888 0-10.63 6.608-10.63 14.816V536c0 8.208 4.74 14.816 10.63 14.816 5.888 0 10.63-6.608 10.63-14.816v-3.864c0-8.208-4.74-14.816-10.63-14.816zm0-7.087c-9.814 0-17.716 8.26-17.716 18.52v10.63c0 10.26 7.9 18.52 17.715 18.52 9.814 0 17.716-8.26 17.716-18.52v-10.63c0-10.26-7.9-18.52-17.716-18.52z" stroke-width="1.229"/><path d="M478.35 237.4c-5.888 0-10.63 6.608-10.63 14.816v16.432c0 8.208 4.742 14.816 10.63 14.816 5.89 0 10.63-6.608 10.63-14.816v-16.432c0-8.208-4.74-14.816-10.63-14.816zm0-7.087c-9.814 0-17.716 8.26-17.716 18.52v23.197c0 10.26 7.902 18.52 17.716 18.52 9.815 0 17.717-8.26 17.717-18.52v-23.198c0-10.26-7.902-18.52-17.717-18.52z" transform="matrix(1.8 0 0 1.118 -655.51 242.2)" stroke-width=".867"/><path d="M478.35 237.4c-5.888 0-10.63 6.608-10.63 14.816v16.432c0 8.208 4.742 14.816 10.63 14.816 5.89 0 10.63-6.608 10.63-14.816v-16.432c0-8.208-4.74-14.816-10.63-14.816zm0-7.087c-9.814 0-17.716 8.26-17.716 18.52v23.197c0 10.26 7.902 18.52 17.716 18.52 9.815 0 17.717-8.26 17.717-18.52v-23.198c0-10.26-7.902-18.52-17.717-18.52z" transform="matrix(1.8 0 0 1.118 -425.2 245.74)" stroke-width=".867"/><rect rx="2.269" ry="3.687" height="21.26" width="42.52" y="524.41" x="375.59" stroke-width="1.229"/><rect rx="1.324" ry="4.916" height="28.346" width="24.803" y="520.87" x="336.61" stroke-width="1.229"/><rect rx="1.324" ry="4.916" height="28.346" width="24.803" y="520.87" x="219.69" stroke-width="1.229"/><rect rx="2.647" ry="6.145" height="35.433" width="49.606" y="517.32" x="141.73" stroke-width="1.229"/><rect rx="2.458" ry="6.145" height="35.433" width="46.063" y="520.87" x="450" stroke-width="1.229"/></g></g></g></svg>