<svg xmlns="http://www.w3.org/2000/svg" height="480" width="640"><g fill-rule="evenodd"><path d="M1.644 0l-.5 479.985H641.13L1.64 0z"/><path d="M640.63 479.984L641.13 0H1.145l639.49 479.984z" fill="red"/></g><path d="M178 54l-3.84-.2c-1.18-2.78-4.513-3.823-6.563-2.653-1.86.16-11.6-.147-11.6-.147l7.12 3.12c1.76 4.76 7.88 5.88 7.88 5.88-.543 8.774-8.88-1.133-15.88 3.867-5 3-5.06 6.583-7.762 12.37-.84 1.61-4.36 5.762-4.36 5.762l5.88-.5-1.88 2.5 7-1s-.94.784-1.5 1.38c1.037.202 8-1.63 8-1.63l-.5 2.25c3.57-1.43 8-2.88 8-2.88s1.57 1.31 3 1.88l1-4 4 1 1-4c6 8 8 16 19 18l-1-4c3.06 1.31 8.74 4.09 8.74 4.09l.86-1.83c4.77 3.42 8.73 3.36 11.4 3.74 0 0-1.99-4.98-2-5 .13.05 1.99 1.01 2 1l-3-8 3 1-4-6 1.5-1-.5-3c6 2 14 5 15 12 1 11-11 14-19 13 6 5 17 3 22-2 2-2 3-5 4-8 1 3 3 7 3 11-1 9-13 12-21 13 9 5 25-1 26-14 0-11-7-16-10-21-.45-1.82-1-5.38-1-5.38.388.114 3 1.39 3 1.39s-1.77-3.31-2-4.01c0 0-3.12-8.5-4.25-10.38.186-.106 2.25.35 2.25.35l-8.19-10.27s1.976-.18 2.32-.24c0 0-9.52-7.51-12.13-8.46l3-1c-6-3-13-1-19 3l1-3-1.83.17v-3.43l1.83-2.74-3-1 2-5-3 1 1-5s-2.24 1.04-3.6.89c.05.11 1.59-3.42 1.59-3.42-.95-1.49.01-4.47.01-4.47-7 1-8 2-12 8-6 11-4 16-3 27z" stroke="#fc0" stroke-width="1.065" fill="#fc0" transform="matrix(2.2 0 0 2.2 1.1 0)"/><path d="M475.816 154.964c1.146 1.89 13.633 7.906 23.03 13.234-2.522-10.14-20.854-12.375-23.03-13.234z" fill-rule="evenodd" stroke="red" stroke-width="3.124" fill="red"/><path fill-rule="evenodd" fill="#fff" d="M173.347 396.88l-13.992-8.932-18.782 8.998 4.165-16.06-14.357-15.092 16.57-1.012 9.906-18.304 6.072 15.444 20.482 3.762-12.813 10.56M209.257 318.362l-6.492-3.102-6.24 3.586.95-7.15-5.338-4.818 7.077-1.298 2.94-6.578 3.425 6.336 7.156.77-4.96 5.214M240.9 273.328l-14.234-6.952-13.798 7.788 2.202-15.686-11.68-10.714 15.605-2.75 6.57-14.41 7.46 13.992 15.73 1.804-11 11.396M175.782 210.628l-16.768-8.402-16.425 9.05 2.808-18.543-13.684-12.826 18.504-3.058 7.97-16.978 8.627 16.654 18.608 2.334-13.172 13.35M116.605 277.244l-17.062-10.087-17.016 10.308 4.362-19.288-15.11-12.918 19.758-1.837 7.676-18.315 7.85 18.16 19.854 1.615-14.906 13.05"/></svg>