<svg xmlns="http://www.w3.org/2000/svg" height="480" width="640"><g fill-rule="evenodd"><path d="M1.644 0l-.5 480.187h639.94L1.64 0z"/><path d="M640.584 480.186L641.084 0H1.143L640.59 480.185z" fill="red"/></g><path d="M178 54l-3.84-.2c-1.18-2.78-4.513-3.823-6.563-2.653-1.86.16-11.6-.147-11.6-.147l7.12 3.12c1.76 4.76 7.88 5.88 7.88 5.88-.543 8.774-8.88-1.133-15.88 3.867-5 3-5.06 6.583-7.762 12.37-.84 1.61-4.36 5.762-4.36 5.762l5.88-.5-1.88 2.5 7-1s-.94.784-1.5 1.38c1.037.202 8-1.63 8-1.63l-.5 2.25c3.57-1.43 8-2.88 8-2.88s1.57 1.31 3 1.88l1-4 4 1 1-4c6 8 8 16 19 18l-1-4c3.06 1.31 8.74 4.09 8.74 4.09l.86-1.83c4.77 3.42 8.73 3.36 11.4 3.74 0 0-1.99-4.98-2-5 .13.05 1.99 1.01 2 1l-3-8 3 1-4-6 1.5-1-.5-3c6 2 14 5 15 12 1 11-11 14-19 13 6 5 17 3 22-2 2-2 3-5 4-8 1 3 3 7 3 11-1 9-13 12-21 13 9 5 25-1 26-14 0-11-7-16-10-21-.45-1.82-1-5.38-1-5.38.388.114 3 1.39 3 1.39s-1.77-3.31-2-4.01c0 0-3.12-8.5-4.25-10.38.186-.106 2.25.35 2.25.35l-8.19-10.27s1.976-.18 2.32-.24c0 0-9.52-7.51-12.13-8.46l3-1c-6-3-13-1-19 3l1-3-1.83.17v-3.43l1.83-2.74-3-1 2-5-3 1 1-5s-2.24 1.04-3.6.89c.05.11 1.59-3.42 1.59-3.42-.95-1.49.01-4.47.01-4.47-7 1-8 2-12 8-6 11-4 16-3 27z" stroke="#fc0" stroke-width="1.065" fill="#fc0" transform="matrix(2.22 0 0 2.213 1.134 0)"/><path d="M215.78 70.438c.52.86 6.197 3.594 10.468 6.016-1.146-4.61-9.48-5.625-10.468-6.016z" fill-rule="evenodd" stroke="red" stroke-width="1.42" fill="red" transform="matrix(2.22 0 0 2.213 1.134 0)"/><path fill-rule="evenodd" fill="#fff" d="M174.947 399.225l-14.12-8.985-18.952 9.052 4.203-16.155-14.488-15.18 16.72-1.02 9.996-18.412 6.127 15.536 20.668 3.785-12.928 10.622M211.184 320.243l-6.55-3.12-6.297 3.607.96-7.192-5.39-4.847 7.142-1.304 2.965-6.617 3.457 6.372 7.222.775-5.007 5.245M243.114 274.943l-14.363-6.993-13.923 7.834 2.222-15.78-11.787-10.776 15.746-2.766 6.63-14.495 7.526 14.074 15.873 1.816-11.1 11.463M177.404 211.873l-16.92-8.452-16.575 9.103 2.834-18.65-13.81-12.903 18.674-3.076 8.043-17.078 8.705 16.753 18.777 2.347-13.29 13.428M116.61 277.252L99.55 267.165l-17.016 10.308 4.362-19.288-15.11-12.918 19.76-1.836 7.676-18.315 7.85 18.16 19.855 1.616-14.907 13.05"/></svg>