<svg xmlns="http://www.w3.org/2000/svg" height="480" width="640" version="1"><defs><clipPath id="a"><path fill-opacity=".67" d="M-52.334 0h682.67v512h-682.67z"/></clipPath></defs><g fill-rule="evenodd" clip-path="url(#a)" transform="matrix(.938 0 0 .938 49.063 0)" stroke-width="1pt"><path fill="#0c590b" d="M-95 0h768v512H-95z"/><path fill="#fff" d="M-95 0H97.52v512H-95zM415.455 306.086c-27.665 60.96-100.277 87.588-161.41 59.27-61.142-28.326-87.777-100.93-59.45-162.07 14.446-31.185 38.088-52.615 71.46-64.31-3.838 3.245-7.636 6.612-11.798 10.907-43.11 44.49-41.99 115.592 2.5 158.7 44.49 43.11 115.59 41.99 158.697-2.5z"/></g></svg>