<svg xmlns="http://www.w3.org/2000/svg" height="480" width="640"><defs><clipPath id="a"><path fill-opacity=".67" d="M-64 0h640v512H-64z"/></clipPath></defs><g clip-path="url(#a)" transform="matrix(1 0 0 .938 64 0)"><g fill-rule="evenodd" stroke-width="1pt"><path fill="#fff" d="M-256 171.886H767.977v168.222H-256z"/><path fill="#3d25ca" d="M-256 340.108H767.977v171.886H-256z"/><path fill="#d60000" d="M-256 0H767.977v171.886H-256z"/></g><path d="M744.14 567.26c0 192.48-157.09 348.52-350.87 348.52S42.4 759.74 42.4 567.26s157.09-348.52 350.87-348.52 350.87 156.04 350.87 348.52z" fill-rule="evenodd" transform="matrix(.187 0 0 .189 182.222 148.871)" stroke="#000" stroke-width="12.91" fill="#fff"/><g stroke="#000" stroke-width="2.637"><g fill-rule="evenodd" fill="#006700"><path d="M259.03 105.71s400.32 70.645 414.45 395.62c14.13 324.97-188.39 367.36-259.03 419.16-70.645 51.807-113.03 113.03-146 113.03-32.968 0-80.065-14.13-80.065-14.13s9.42 51.81 75.355 47.1c65.936-4.71 127.16-113.03 164.84-131.87s277.88-98.9 259.04-428.58c-14.13-353.23-423.88-390.91-428.59-400.33z" transform="matrix(.065 .015 -.016 .069 249.288 214.132)"/><path d="M277.757 229.923c.48 1.855.495 3.393.038 3.436s-1.217-1.427-1.696-3.28c-.48-1.856-.496-3.394-.04-3.437s1.218 1.426 1.697 3.28z" stroke-width=".084384"/><path d="M320.26 487.2c0 59.825-11.597 108.32-25.903 108.32s-25.903-48.498-25.903-108.32c0-59.825 11.597-108.32 25.903-108.32s25.903 48.498 25.903 108.32z" transform="matrix(.029 -.011 .015 .03 259.944 219.297)"/><path d="M320.26 487.2c0 59.825-11.597 108.32-25.903 108.32s-25.903-48.498-25.903-108.32c0-59.825 11.597-108.32 25.903-108.32s25.903 48.498 25.903 108.32z" transform="matrix(.003 -.033 .03 .009 258.391 238.531)"/><path d="M320.26 487.2c0 59.825-11.597 108.32-25.903 108.32s-25.903-48.498-25.903-108.32c0-59.825 11.597-108.32 25.903-108.32s25.903 48.498 25.903 108.32z" transform="matrix(.014 -.028 .027 .019 256.548 231.21)"/><path d="M320.26 487.2c0 59.825-11.597 108.32-25.903 108.32s-25.903-48.498-25.903-108.32c0-59.825 11.597-108.32 25.903-108.32s25.903 48.498 25.903 108.32z" transform="matrix(.021 -.022 .023 .024 257.281 225.941)"/><path d="M151.53 682.7c0 1.665-41.628-24.978-49.954-33.303-8.333-8.33-6.668-46.62-33.31-64.94s-54.95-9.99-68.27 1.66c-13.32 11.656-8.326 38.298 23.312 61.61s53.284 1.666 69.936 9.99c16.65 8.327 43.294 24.977 56.615 38.298 13.32-9.99 46.622-21.646 64.94-29.972 18.315-8.325 64.94 11.656 96.577-11.656 26.642-18.316 38.297-56.614 19.98-68.27-18.316-11.656-51.618-6.66-71.6 4.996-19.98 11.656-29.97 58.28-49.954 66.605-14.986 4.995-56.614 28.307-58.28 24.977z" transform="matrix(.018 -.019 .009 .009 268.277 230.564)"/><path d="M320.26 487.2c0 59.825-11.597 108.32-25.903 108.32s-25.903-48.498-25.903-108.32c0-59.825 11.597-108.32 25.903-108.32s25.903 48.498 25.903 108.32z" transform="matrix(.045 .011 .001 .048 269.935 209.385)"/><path d="M320.26 487.2c0 59.825-11.597 108.32-25.903 108.32s-25.903-48.498-25.903-108.32c0-59.825 11.597-108.32 25.903-108.32s25.903 48.498 25.903 108.32z" transform="matrix(.043 -.002 .01 .049 264.415 213.106)"/><path d="M320.26 487.2c0 59.825-11.597 108.32-25.903 108.32s-25.903-48.498-25.903-108.32c0-59.825 11.597-108.32 25.903-108.32s25.903 48.498 25.903 108.32z" transform="matrix(.015 -.046 .038 .026 255.896 239.822)"/><path d="M320.26 487.2c0 59.825-11.597 108.32-25.903 108.32s-25.903-48.498-25.903-108.32c0-59.825 11.597-108.32 25.903-108.32s25.903 48.498 25.903 108.32z" transform="matrix(.028 -.034 .031 .039 255.768 228.557)"/><path d="M320.26 487.2c0 59.825-11.597 108.32-25.903 108.32s-25.903-48.498-25.903-108.32c0-59.825 11.597-108.32 25.903-108.32s25.903 48.498 25.903 108.32z" transform="matrix(.036 -.022 .024 .045 258.528 221.377)"/><path d="M151.53 682.7c0 1.665-41.628-24.978-49.954-33.303-8.333-8.33-6.668-46.62-33.31-64.94s-54.95-9.99-68.27 1.66c-13.32 11.656-8.326 38.298 23.312 61.61s53.284 1.666 69.936 9.99c16.65 8.327 43.294 24.977 56.615 38.298 13.32-9.99 46.622-21.646 64.94-29.972 18.315-8.325 64.94 11.656 96.577-11.656 26.642-18.316 38.297-56.614 19.98-68.27-18.316-11.656-51.618-6.66-71.6 4.996-19.98 11.656-29.97 58.28-49.954 66.605-14.986 4.995-56.614 28.307-58.28 24.977z" transform="matrix(.031 -.019 .009 .017 272.224 232.919)"/><g><path d="M320.26 487.2c0 59.825-11.597 108.32-25.903 108.32s-25.903-48.498-25.903-108.32c0-59.825 11.597-108.32 25.903-108.32s25.903 48.498 25.903 108.32z" transform="matrix(.042 .02 -.008 .048 279.152 217.408)"/><path d="M320.26 487.2c0 59.825-11.597 108.32-25.903 108.32s-25.903-48.498-25.903-108.32c0-59.825 11.597-108.32 25.903-108.32s25.903 48.498 25.903 108.32z" transform="matrix(.043 .006 .002 .051 273.104 220.004)"/><path d="M320.26 487.2c0 59.825-11.597 108.32-25.903 108.32s-25.903-48.498-25.903-108.32c0-59.825 11.597-108.32 25.903-108.32s25.903 48.498 25.903 108.32z" transform="matrix(.023 -.043 .033 .033 260.199 244.852)"/><path d="M320.26 487.2c0 59.825-11.597 108.32-25.903 108.32s-25.903-48.498-25.903-108.32c0-59.825 11.597-108.32 25.903-108.32s25.903 48.498 25.903 108.32z" transform="matrix(.034 -.028 .024 .045 261.991 233.633)"/><path d="M320.26 487.2c0 59.825-11.597 108.32-25.903 108.32s-25.903-48.498-25.903-108.32c0-59.825 11.597-108.32 25.903-108.32s25.903 48.498 25.903 108.32z" transform="matrix(.039 -.015 .016 .05 265.921 227.048)"/><path d="M151.53 682.7c0 1.665-41.628-24.978-49.954-33.303-8.333-8.33-6.668-46.62-33.31-64.94s-54.95-9.99-68.27 1.66c-13.32 11.656-8.326 38.298 23.312 61.61s53.284 1.666 69.936 9.99c16.65 8.327 43.294 24.977 56.615 38.298 13.32-9.99 46.622-21.646 64.94-29.972 18.315-8.325 64.94 11.656 96.577-11.656 26.642-18.316 38.297-56.614 19.98-68.27-18.316-11.656-51.618-6.66-71.6 4.996-19.98 11.656-29.97 58.28-49.954 66.605-14.986 4.995-56.614 28.307-58.28 24.977z" transform="matrix(.034 -.013 .006 .019 277.389 241.251)"/></g><g><path d="M320.26 487.2c0 59.825-11.597 108.32-25.903 108.32s-25.903-48.498-25.903-108.32c0-59.825 11.597-108.32 25.903-108.32s25.903 48.498 25.903 108.32z" transform="matrix(.031 .035 -.025 .041 291.614 227.295)"/><path d="M320.26 487.2c0 59.825-11.597 108.32-25.903 108.32s-25.903-48.498-25.903-108.32c0-59.825 11.597-108.32 25.903-108.32s25.903 48.498 25.903 108.32z" transform="matrix(.037 .024 -.018 .047 285.159 227.121)"/><path d="M320.26 487.2c0 59.825-11.597 108.32-25.903 108.32s-25.903-48.498-25.903-108.32c0-59.825 11.597-108.32 25.903-108.32s25.903 48.498 25.903 108.32z" transform="matrix(.037 -.03 .017 .044 264.172 244.38)"/><path d="M320.26 487.2c0 59.825-11.597 108.32-25.903 108.32s-25.903-48.498-25.903-108.32c0-59.825 11.597-108.32 25.903-108.32s25.903 48.498 25.903 108.32z" transform="matrix(.041 -.012 .005 .051 269.99 234.891)"/><path d="M320.26 487.2c0 59.825-11.597 108.32-25.903 108.32s-25.903-48.498-25.903-108.32c0-59.825 11.597-108.32 25.903-108.32s25.903 48.498 25.903 108.32z" transform="matrix(.041 .003 -.004 .052 276.014 230.532)"/><path d="M151.53 682.7c0 1.665-41.628-24.978-49.954-33.303-8.333-8.33-6.668-46.62-33.31-64.94s-54.95-9.99-68.27 1.66c-13.32 11.656-8.326 38.298 23.312 61.61s53.284 1.666 69.936 9.99c16.65 8.327 43.294 24.977 56.615 38.298 13.32-9.99 46.622-21.646 64.94-29.972 18.315-8.325 64.94 11.656 96.577-11.656 26.642-18.316 38.297-56.614 19.98-68.27-18.316-11.656-51.618-6.66-71.6 4.996-19.98 11.656-29.97 58.28-49.954 66.605-14.986 4.995-56.614 28.307-58.28 24.977z" transform="matrix(.035 .003 -.002 .019 281.104 248.321)"/></g><g><path d="M286.372 270.496c-2.512 2.154-4.804 3.32-5.12 2.605s1.468-3.04 3.98-5.194c2.513-2.154 4.805-3.32 5.12-2.604s-1.467 3.04-3.98 5.194z" stroke-width=".145035"/><path d="M320.26 487.2c0 59.825-11.597 108.32-25.903 108.32s-25.903-48.498-25.903-108.32c0-59.825 11.597-108.32 25.903-108.32s25.903 48.498 25.903 108.32z" transform="matrix(.032 .039 -.035 .046 291.742 234.312)"/><path d="M320.26 487.2c0 59.825-11.597 108.32-25.903 108.32s-25.903-48.498-25.903-108.32c0-59.825 11.597-108.32 25.903-108.32s25.903 48.498 25.903 108.32z" transform="matrix(.05 -.019 .004 .055 262.894 245.674)"/><path d="M320.26 487.2c0 59.825-11.597 108.32-25.903 108.32s-25.903-48.498-25.903-108.32c0-59.825 11.597-108.32 25.903-108.32s25.903 48.498 25.903 108.32z" transform="matrix(.049 .002 -.011 .058 272.464 237.336)"/><path d="M320.26 487.2c0 59.825-11.597 108.32-25.903 108.32s-25.903-48.498-25.903-108.32c0-59.825 11.597-108.32 25.903-108.32s25.903 48.498 25.903 108.32z" transform="matrix(.044 .018 -.022 .055 280.546 234.73)"/><path d="M151.53 682.7c0 1.665-41.628-24.978-49.954-33.303-8.333-8.33-6.668-46.62-33.31-64.94s-54.95-9.99-68.27 1.66c-13.32 11.656-8.326 38.298 23.312 61.61s53.284 1.666 69.936 9.99c16.65 8.327 43.294 24.977 56.615 38.298 13.32-9.99 46.622-21.646 64.94-29.972 18.315-8.325 64.94 11.656 96.577-11.656 26.642-18.316 38.297-56.614 19.98-68.27-18.316-11.656-51.618-6.66-71.6 4.996-19.98 11.656-29.97 58.28-49.954 66.605-14.986 4.995-56.614 28.307-58.28 24.977z" transform="matrix(.038 .016 -.008 .021 280.196 256.207)"/></g><g><path d="M277.635 281.106c-3.59.598-6.418.376-6.318-.497s3.092-2.066 6.68-2.664c3.59-.6 6.42-.376 6.32.497s-3.093 2.065-6.682 2.663z" stroke-width=".160857"/><path d="M320.26 487.2c0 59.825-11.597 108.32-25.903 108.32s-25.903-48.498-25.903-108.32c0-59.825 11.597-108.32 25.903-108.32s25.903 48.498 25.903 108.32z" transform="matrix(.01 .057 -.058 .023 302.876 250.04)"/><path d="M275.468 274.33c-1.615 3.29-3.62 5.83-4.48 5.672s-.243-2.953 1.372-6.243c1.615-3.29 3.62-5.83 4.48-5.674s.243 2.953-1.372 6.243z" stroke-width=".160857"/><path d="M320.26 487.2c0 59.825-11.597 108.32-25.903 108.32s-25.903-48.498-25.903-108.32c0-59.825 11.597-108.32 25.903-108.32s25.903 48.498 25.903 108.32z" transform="matrix(.046 .031 -.042 .049 282.758 241.592)"/><path d="M320.26 487.2c0 59.825-11.597 108.32-25.903 108.32s-25.903-48.498-25.903-108.32c0-59.825 11.597-108.32 25.903-108.32s25.903 48.498 25.903 108.32z" transform="matrix(.032 .044 -.051 .04 291.909 243.856)"/><path d="M151.53 682.7c0 1.665-41.628-24.978-49.954-33.303-8.333-8.33-6.668-46.62-33.31-64.94s-54.95-9.99-68.27 1.66c-13.32 11.656-8.326 38.298 23.312 61.61s53.284 1.666 69.936 9.99c16.65 8.327 43.294 24.977 56.615 38.298 13.32-9.99 46.622-21.646 64.94-29.972 18.315-8.325 64.94 11.656 96.577-11.656 26.642-18.316 38.297-56.614 19.98-68.27-18.316-11.656-51.618-6.66-71.6 4.996-19.98 11.656-29.97 58.28-49.954 66.605-14.986 4.995-56.614 28.307-58.28 24.977z" transform="matrix(.028 .037 -.019 .015 280.057 264.166)"/></g><g><path d="M314.71 506.2c0 45.062-10.064 81.59-22.48 81.59s-22.478-36.53-22.478-81.59c0-45.062 10.064-81.59 22.48-81.59s22.478 36.53 22.478 81.59z" transform="matrix(0 .086 -.08 .001 308.009 259.428)"/><path d="M314.71 506.2c0 45.062-10.064 81.59-22.48 81.59s-22.478-36.53-22.478-81.59c0-45.062 10.064-81.59 22.48-81.59s22.478 36.53 22.478 81.59z" transform="matrix(.062 .053 -.05 .067 272.605 230.303)"/><path d="M314.71 506.2c0 45.062-10.064 81.59-22.48 81.59s-22.478-36.53-22.478-81.59c0-45.062 10.064-81.59 22.48-81.59s22.478 36.53 22.478 81.59z" transform="matrix(.03 .079 -.074 .033 295.764 242.522)"/></g><g><path d="M314.71 506.2c0 45.062-10.064 81.59-22.48 81.59s-22.478-36.53-22.478-81.59c0-45.062 10.064-81.59 22.48-81.59s22.478 36.53 22.478 81.59z" transform="matrix(.034 -.019 .037 .033 239.6 214.895)"/><path d="M314.71 506.2c0 45.062-10.064 81.59-22.48 81.59s-22.478-36.53-22.478-81.59c0-45.062 10.064-81.59 22.48-81.59s22.478 36.53 22.478 81.59z" transform="matrix(-.007 -.038 .05 .006 244.072 236.232)"/><path d="M314.71 506.2c0 45.062-10.064 81.59-22.48 81.59s-22.478-36.53-22.478-81.59c0-45.062 10.064-81.59 22.48-81.59s22.478 36.53 22.478 81.59z" transform="matrix(.018 -.03 .047 .024 238.406 223.774)"/></g></g><g fill-rule="evenodd" fill="#006700"><path d="M339.1 586.1s113.03 32.968 211.94 89.484c98.904 56.516 252.16 272.38 292.21 280.92 44.682-1.342 105.85-37.846 126.48-164.27-67.86 43.25-107.82 101.54-174.96 40.06-23.55-14.13-102.44-137.87-187.22-199.09-84.77-61.23-254.32-122.45-254.32-122.45L339.1 586.11z" transform="matrix(.049 .003 -.001 .026 222.136 264.312)"/><path d="M244.618 229.608c-.02-.048 6.398-3.342 6.398-3.342l-7.06 1.75-.817 1.243 1.478.348z" stroke-width=".11602799999999999"/><path d="M250.687 231.692c-2.48-.434-6.293-1.245-8.72-1.42 1.676-1.907 3.986-5.126 5.41-7.103-.94 1.88-2.415 4.363-2.997 6.16 1.71.922 4.397 1.63 6.308 2.362z" stroke-width=".11602799999999999"/><path d="M332.03 604.94c1.177 0 21.194-164.84 21.194-164.84l17.66 164.84-20.015 28.258-18.84-28.258z" transform="matrix(-.023 -.038 -.037 .022 273.4 229.348)"/><path d="M248.44 462.47c29.436 48.274 77.71 121.28 101.26 170.73 26.295-51.807 74.962-128.34 104.79-175.44-31.79 36.107-71.822 88.7-104.79 116.56-33.36-27.866-70.253-78.103-101.26-111.86z" transform="matrix(-.018 -.042 -.041 .016 272.217 234.514)"/><path d="M332.03 604.94c1.177 0 21.194-164.84 21.194-164.84l17.66 164.84-20.015 28.258-18.84-28.258z" transform="matrix(-.013 -.042 -.042 .012 271.888 237.427)"/><path d="M248.44 462.47c29.436 48.274 77.71 121.28 101.26 170.73 26.295-51.807 74.962-128.34 104.79-175.44-31.79 36.107-71.822 88.7-104.79 116.56-33.36-27.866-70.253-78.103-101.26-111.86z" transform="matrix(-.022 -.041 -.038 .021 271.596 232.062)"/><path d="M332.03 604.94c1.177 0 21.194-164.84 21.194-164.84l17.66 164.84-20.015 28.258-18.84-28.258z" transform="matrix(-.031 -.032 -.031 .03 270.699 223.246)"/><path d="M248.44 462.47c29.436 48.274 77.71 121.28 101.26 170.73 26.295-51.807 74.962-128.34 104.79-175.44-31.79 36.107-71.822 88.7-104.79 116.56-33.36-27.866-70.253-78.103-101.26-111.86z" transform="matrix(-.028 -.043 -.039 .025 273.091 230.821)"/><path d="M332.03 604.94c1.177 0 21.194-164.84 21.194-164.84l17.66 164.84-20.015 28.258-18.84-28.258z" transform="matrix(-.029 -.041 -.037 .027 272.733 229.379)"/><path d="M248.44 462.47c29.436 48.274 77.71 121.28 101.26 170.73 26.295-51.807 74.962-128.34 104.79-175.44-31.79 36.107-71.822 88.7-104.79 116.56-33.36-27.866-70.253-78.103-101.26-111.86z" transform="matrix(-.021 -.047 -.047 .029 274.04 230.273)"/><path d="M332.03 604.94c1.177 0 21.194-164.84 21.194-164.84l17.66 164.84-20.015 28.258-18.84-28.258z" transform="matrix(-.023 -.045 -.046 .031 273.949 228.694)"/><path d="M248.44 462.47c29.436 48.274 77.71 121.28 101.26 170.73 26.295-51.807 74.962-128.34 104.79-175.44-31.79 36.107-71.822 88.7-104.79 116.56-33.36-27.866-70.253-78.103-101.26-111.86z" transform="matrix(-.027 -.043 -.043 .035 272.524 226.691)"/><path d="M332.03 604.94c1.177 0 21.194-164.84 21.194-164.84l17.66 164.84-20.015 28.258-18.84-28.258z" transform="matrix(-.034 -.036 -.037 .041 271.643 220.541)"/><path d="M248.44 462.47c29.436 48.274 77.71 121.28 101.26 170.73 26.295-51.807 74.962-128.34 104.79-175.44-31.79 36.107-71.822 88.7-104.79 116.56-33.36-27.866-70.253-78.103-101.26-111.86z" transform="matrix(-.025 -.044 -.044 .032 271.206 228.946)"/><path d="M332.03 604.94c1.177 0 21.194-164.84 21.194-164.84l17.66 164.84-20.015 28.258-18.84-28.258z" transform="matrix(-.024 -.045 -.045 .031 271.671 230.865)"/><path d="M248.44 462.47c29.436 48.274 77.71 121.28 101.26 170.73 26.295-51.807 74.962-128.34 104.79-175.44-31.79 36.107-71.822 88.7-104.79 116.56-33.36-27.866-70.253-78.103-101.26-111.86z" transform="matrix(-.03 -.04 -.041 .037 270.128 226.108)"/><path d="M332.03 604.94c1.177 0 21.194-164.84 21.194-164.84l17.66 164.84-20.015 28.258-18.84-28.258z" transform="matrix(-.04 -.029 -.032 .046 268.093 216.123)"/><path d="M248.44 462.47c29.436 48.274 77.71 121.28 101.26 170.73 26.295-51.807 74.962-128.34 104.79-175.44-31.79 36.107-71.822 88.7-104.79 116.56-33.36-27.866-70.253-78.103-101.26-111.86z" transform="matrix(-.038 -.043 -.041 .043 271.879 224.554)"/><path d="M332.03 604.94c1.177 0 21.194-164.84 21.194-164.84l17.66 164.84-20.015 28.258-18.84-28.258z" transform="matrix(-.039 -.041 -.039 .045 271.27 222.917)"/><path d="M248.44 462.47c29.436 48.274 77.71 121.28 101.26 170.73 26.295-51.807 74.962-128.34 104.79-175.44-31.79 36.107-71.822 88.7-104.79 116.56-33.36-27.866-70.253-78.103-101.26-111.86z" transform="matrix(-.039 -.041 -.039 .045 270.095 224.069)"/><path d="M332.03 604.94c1.177 0 21.194-164.84 21.194-164.84l17.66 164.84-20.015 28.258-18.84-28.258z" transform="matrix(-.045 -.033 -.031 .051 267.765 217.616)"/><path d="M248.44 462.47c29.436 48.274 77.71 121.28 101.26 170.73 26.295-51.807 74.962-128.34 104.79-175.44-31.79 36.107-71.822 88.7-104.79 116.56-33.36-27.866-70.253-78.103-101.26-111.86z" transform="matrix(-.036 -.044 -.043 .042 269.765 227.642)"/><path d="M332.03 604.94c1.177 0 21.194-164.84 21.194-164.84l17.66 164.84-20.015 28.258-18.84-28.258z" transform="matrix(-.031 -.048 -.046 .037 270.746 231.983)"/><path d="M248.44 462.47c29.436 48.274 77.71 121.28 101.26 170.73 26.295-51.807 74.962-128.34 104.79-175.44-31.79 36.107-71.822 88.7-104.79 116.56-33.36-27.866-70.253-78.103-101.26-111.86z" transform="matrix(-.032 -.048 -.044 .038 268.205 231.601)"/><path d="M332.03 604.94c1.177 0 21.194-164.84 21.194-164.84l17.66 164.84-20.015 28.258-18.84-28.258z" transform="matrix(-.043 -.036 -.034 .05 265.995 220.068)"/><path d="M248.44 462.47c29.436 48.274 77.71 121.28 101.26 170.73 26.295-51.807 74.962-128.34 104.79-175.44-31.79 36.107-71.822 88.7-104.79 116.56-33.36-27.866-70.253-78.103-101.26-111.86z" transform="matrix(-.044 -.044 -.042 .055 270.807 221.396)"/><path d="M332.03 604.94c1.177 0 21.194-164.84 21.194-164.84l17.66 164.84-20.015 28.258-18.84-28.258z" transform="matrix(-.046 -.041 -.04 .057 270.039 219.621)"/><path d="M248.44 462.47c29.436 48.274 77.71 121.28 101.26 170.73 26.295-51.807 74.962-128.34 104.79-175.44-31.79 36.107-71.822 88.7-104.79 116.56-33.36-27.866-70.253-78.103-101.26-111.86z" transform="matrix(-.046 -.041 -.04 .057 268.814 221.111)"/><path d="M332.03 604.94c1.177 0 21.194-164.84 21.194-164.84l17.66 164.84-20.015 28.258-18.84-28.258z" transform="matrix(-.052 -.03 -.032 .063 265.865 214.104)"/><path d="M248.44 462.47c29.436 48.274 77.71 121.28 101.26 170.73 26.295-51.807 74.962-128.34 104.79-175.44-31.79 36.107-71.822 88.7-104.79 116.56-33.36-27.866-70.253-78.103-101.26-111.86z" transform="matrix(-.046 -.04 -.04 .057 267.301 221.795)"/><path d="M332.03 604.94c1.177 0 21.194-164.84 21.194-164.84l17.66 164.84-20.015 28.258-18.84-28.258z" transform="matrix(-.042 -.045 -.044 .053 269.087 226.405)"/><path d="M248.44 462.47c29.436 48.274 77.71 121.28 101.26 170.73 26.295-51.807 74.962-128.34 104.79-175.44-31.79 36.107-71.822 88.7-104.79 116.56-33.36-27.866-70.253-78.103-101.26-111.86z" transform="matrix(-.054 -.026 -.028 .065 263.369 214.363)"/><path d="M332.03 604.94c1.177 0 21.194-164.84 21.194-164.84l17.66 164.84-20.015 28.258-18.84-28.258z" transform="matrix(-.059 -.008 -.012 .07 256.009 204.573)"/><path d="M248.44 462.47c29.436 48.274 77.71 121.28 101.26 170.73 26.295-51.807 74.962-128.34 104.79-175.44-31.79 36.107-71.822 88.7-104.79 116.56-33.36-27.866-70.253-78.103-101.26-111.86z" transform="matrix(-.054 -.027 -.028 .065 262.625 215.576)"/><path d="M332.03 604.94c1.177 0 21.194-164.84 21.194-164.84l17.66 164.84-20.015 28.258-18.84-28.258z" transform="matrix(-.055 -.024 -.025 .066 261.643 213.773)"/><path d="M248.44 462.47c29.436 48.274 77.71 121.28 101.26 170.73 26.295-51.807 74.962-128.34 104.79-175.44-31.79 36.107-71.822 88.7-104.79 116.56-33.36-27.866-70.253-78.103-101.26-111.86z" transform="matrix(-.059 -.021 -.022 .07 260.617 212.074)"/><path d="M332.03 604.94c1.177 0 21.194-164.84 21.194-164.84l17.66 164.84-20.015 28.258-18.84-28.258z" transform="matrix(-.061 -.009 -.012 .072 255.458 206.536)"/><path d="M248.44 462.47c29.436 48.274 77.71 121.28 101.26 170.73 26.295-51.807 74.962-128.34 104.79-175.44-31.79 36.107-71.822 88.7-104.79 116.56-33.36-27.866-70.253-78.103-101.26-111.86z" transform="matrix(-.056 -.027 -.027 .068 261.657 216.572)"/><path d="M332.03 604.94c1.177 0 21.194-164.84 21.194-164.84l17.66 164.84-20.015 28.258-18.84-28.258z" transform="matrix(-.053 -.033 -.032 .065 264.538 220.647)"/><path d="M248.44 462.47c29.436 48.274 77.71 121.28 101.26 170.73 26.295-51.807 74.962-128.34 104.79-175.44-31.79 36.107-71.822 88.7-104.79 116.56-33.36-27.866-70.253-78.103-101.26-111.86z" transform="matrix(-.056 -.021 -.021 .071 258.392 213.682)"/><path d="M332.03 604.94c1.177 0 21.194-164.84 21.194-164.84l17.66 164.84-20.015 28.258-18.84-28.258z" transform="matrix(-.062 -.001 -.005 .073 251.248 205.64)"/><path d="M248.44 462.47c29.436 48.274 77.71 121.28 101.26 170.73 26.295-51.807 74.962-128.34 104.79-175.44-31.79 36.107-71.822 88.7-104.79 116.56-33.36-27.866-70.253-78.103-101.26-111.86z" transform="matrix(-.056 -.021 -.018 .071 256.277 214.355)"/><path d="M332.03 604.94c1.177 0 21.194-164.84 21.194-164.84l17.66 164.84-20.015 28.258-18.84-28.258z" transform="matrix(-.057 -.017 -.016 .072 255.078 212.615)"/><path d="M248.44 462.47c29.436 48.274 77.71 121.28 101.26 170.73 26.295-51.807 74.962-128.34 104.79-175.44-31.79 36.107-71.822 88.7-104.79 116.56-33.36-27.866-70.253-78.103-101.26-111.86z" transform="matrix(-.057 -.015 -.013 .073 253.614 212.778)"/><path d="M332.03 604.94c1.177 0 21.194-164.84 21.194-164.84l17.66 164.84-20.015 28.258-18.84-28.258z" transform="matrix(-.059 -.002 -.003 .074 248.157 207.744)"/><path d="M248.44 462.47c29.436 48.274 77.71 121.28 101.26 170.73 26.295-51.807 74.962-128.34 104.79-175.44-31.79 36.107-71.822 88.7-104.79 116.56-33.36-27.866-70.253-78.103-101.26-111.86z" transform="matrix(-.059 -.012 -.01 .074 251.984 212.202)"/><path d="M332.03 604.94c1.177 0 21.194-164.84 21.194-164.84l17.66 164.84-20.015 28.258-18.84-28.258z" transform="matrix(-.057 -.019 -.015 .072 255.604 215.461)"/><path d="M248.44 462.47c29.436 48.274 77.71 121.28 101.26 170.73 26.295-51.807 74.962-128.34 104.79-175.44-31.79 36.107-71.822 88.7-104.79 116.56-33.36-27.866-70.253-78.103-101.26-111.86z" transform="matrix(-.059 -.004 -.003 .075 248.657 210.869)"/><path d="M332.03 604.94c1.177 0 21.194-164.84 21.194-164.84l17.66 164.84-20.015 28.258-18.84-28.258z" transform="matrix(-.058 .016 .013 .073 238.423 204.362)"/><path d="M248.44 462.47c29.436 48.274 77.71 121.28 101.26 170.73 26.295-51.807 74.962-128.34 104.79-175.44-31.79 36.107-71.822 88.7-104.79 116.56-33.36-27.866-70.253-78.103-101.26-111.86z" transform="matrix(-.061 -.004 -.004 .074 249.282 212.335)"/><path d="M332.03 604.94c1.177 0 21.194-164.84 21.194-164.84l17.66 164.84-20.015 28.258-18.84-28.258z" transform="matrix(-.061 0 -.001 .075 247.706 210.997)"/><path d="M248.44 462.47c29.436 48.274 77.71 121.28 101.26 170.73 26.295-51.807 74.962-128.34 104.79-175.44-31.79 36.107-71.822 88.7-104.79 116.56-33.36-27.866-70.253-78.103-101.26-111.86z" transform="matrix(-.061 -.005 -.005 .074 250.002 213.808)"/><path d="M332.03 604.94c1.177 0 21.194-164.84 21.194-164.84l17.66 164.84-20.015 28.258-18.84-28.258z" transform="matrix(-.061 .008 .006 .074 243.805 209.734)"/><path d="M248.44 462.47c29.436 48.274 77.71 121.28 101.26 170.73 26.295-51.807 74.962-128.34 104.79-175.44-31.79 36.107-71.822 88.7-104.79 116.56-33.36-27.866-70.253-78.103-101.26-111.86z" transform="matrix(-.06 -.009 -.008 .074 250.651 216.798)"/><path d="M332.03 604.94c1.177 0 21.194-164.84 21.194-164.84l17.66 164.84-20.015 28.258-18.84-28.258z" transform="matrix(-.059 -.016 -.014 .073 254.134 219.896)"/><path d="M248.44 462.47c29.436 48.274 77.71 121.28 101.26 170.73 26.295-51.807 74.962-128.34 104.79-175.44-31.79 36.107-71.822 88.7-104.79 116.56-33.36-27.866-70.253-78.103-101.26-111.86z" transform="matrix(-.061 -.001 -.001 .075 247.768 214.773)"/><path d="M332.03 604.94c1.177 0 21.194-164.84 21.194-164.84l17.66 164.84-20.015 28.258-18.84-28.258z" transform="matrix(-.059 .019 .015 .072 236.251 209.598)"/><path d="M248.44 462.47c29.436 48.274 77.71 121.28 101.26 170.73 26.295-51.807 74.962-128.34 104.79-175.44-31.79 36.107-71.822 88.7-104.79 116.56-33.36-27.866-70.253-78.103-101.26-111.86z" transform="matrix(-.06 .013 .01 .073 241.952 212.82)"/><path d="M332.03 604.94c1.177 0 21.194-164.84 21.194-164.84l17.66 164.84-20.015 28.258-18.84-28.258z" transform="matrix(-.059 .021 .017 .071 238.224 210.146)"/><path d="M248.44 462.47c29.436 48.274 77.71 121.28 101.26 170.73 26.295-51.807 74.962-128.34 104.79-175.44-31.79 36.107-71.822 88.7-104.79 116.56-33.36-27.866-70.253-78.103-101.26-111.86z" transform="matrix(-.06 .013 .01 .073 241.655 213.906)"/><path d="M332.03 604.94c1.177 0 21.194-164.84 21.194-164.84l17.66 164.84-20.015 28.258-18.84-28.258z" transform="matrix(-.056 .03 .024 .068 232.913 211.095)"/><path d="M248.44 462.47c29.436 48.274 77.71 121.28 101.26 170.73 26.295-51.807 74.962-128.34 104.79-175.44-31.79 36.107-71.822 88.7-104.79 116.56-33.36-27.866-70.253-78.103-101.26-111.86z" transform="matrix(-.058 .022 .018 .071 236.965 213.759)"/><path d="M332.03 604.94c1.177 0 21.194-164.84 21.194-164.84l17.66 164.84-20.015 28.258-18.84-28.258z" transform="matrix(-.06 .012 .009 .074 243.811 215.579)"/><path d="M248.44 462.47c29.436 48.274 77.71 121.28 101.26 170.73 26.295-51.807 74.962-128.34 104.79-175.44-31.79 36.107-71.822 88.7-104.79 116.56-33.36-27.866-70.253-78.103-101.26-111.86z" transform="matrix(-.056 .03 .025 .068 233.418 214.416)"/><path d="M332.03 604.94c1.177 0 21.194-164.84 21.194-164.84l17.66 164.84-20.015 28.258-18.84-28.258z" transform="matrix(-.047 .047 .039 .058 221.625 214.285)"/><path d="M248.44 462.47c29.436 48.274 77.71 121.28 101.26 170.73 26.295-51.807 74.962-128.34 104.79-175.44-31.79 36.107-71.822 88.7-104.79 116.56-33.36-27.866-70.253-78.103-101.26-111.86z" transform="matrix(-.056 .029 .025 .068 233.719 215.892)"/><path d="M332.03 604.94c1.177 0 21.194-164.84 21.194-164.84l17.66 164.84-20.015 28.258-18.84-28.258z" transform="matrix(-.055 .033 .027 .067 231.809 215.539)"/><path d="M248.44 462.47c29.436 48.274 77.71 121.28 101.26 170.73 26.295-51.807 74.962-128.34 104.79-175.44-31.79 36.107-71.822 88.7-104.79 116.56-33.36-27.866-70.253-78.103-101.26-111.86z" transform="matrix(-.055 .033 .027 .067 232.434 217.481)"/><path d="M332.03 604.94c1.177 0 21.194-164.84 21.194-164.84l17.66 164.84-20.015 28.258-18.84-28.258z" transform="matrix(-.049 .044 .036 .06 225.367 217.758)"/><path d="M248.44 462.47c29.436 48.274 77.71 121.28 101.26 170.73 26.295-51.807 74.962-128.34 104.79-175.44-31.79 36.107-71.822 88.7-104.79 116.56-33.36-27.866-70.253-78.103-101.26-111.86z" transform="matrix(-.054 .033 .028 .067 232.271 219.401)"/><path d="M332.03 604.94c1.177 0 21.194-164.84 21.194-164.84l17.66 164.84-20.015 28.258-18.84-28.258z" transform="matrix(-.057 .027 .022 .07 236.847 219.385)"/><path d="M248.44 462.47c29.436 48.274 77.71 121.28 101.26 170.73 26.295-51.807 74.962-128.34 104.79-175.44-31.79 36.107-71.822 88.7-104.79 116.56-33.36-27.866-70.253-78.103-101.26-111.86z" transform="matrix(-.051 .04 .034 .063 228.865 220.761)"/><path d="M332.03 604.94c1.177 0 21.194-164.84 21.194-164.84l17.66 164.84-20.015 28.258-18.84-28.258z" transform="matrix(-.035 .059 .05 .045 213.984 222.908)"/><path d="M248.44 462.47c29.436 48.274 77.71 121.28 101.26 170.73 26.295-51.807 74.962-128.34 104.79-175.44-31.79 36.107-71.822 88.7-104.79 116.56-33.36-27.866-70.253-78.103-101.26-111.86z" transform="matrix(-.049 .042 .037 .061 227.135 221.466)"/><path d="M332.03 604.94c1.177 0 21.194-164.84 21.194-164.84l17.66 164.84-20.015 28.258-18.84-28.258z" transform="matrix(-.047 .045 .039 .059 225.206 221.586)"/><path d="M248.44 462.47c29.436 48.274 77.71 121.28 101.26 170.73 26.295-51.807 74.962-128.34 104.79-175.44-31.79 36.107-71.822 88.7-104.79 116.56-33.36-27.866-70.253-78.103-101.26-111.86z" transform="matrix(-.047 .045 .039 .059 226.183 223.334)"/><path d="M332.03 604.94c1.177 0 21.194-164.84 21.194-164.84l17.66 164.84-20.015 28.258-18.84-28.258z" transform="matrix(-.036 .058 .049 .046 216.985 226.418)"/><path d="M248.44 462.47c29.436 48.274 77.71 121.28 101.26 170.73 26.295-51.807 74.962-128.34 104.79-175.44-31.79 36.107-71.822 88.7-104.79 116.56-33.36-27.866-70.253-78.103-101.26-111.86z" transform="matrix(-.044 .05 .043 .055 223.985 225.73)"/><path d="M332.03 604.94c1.177 0 21.194-164.84 21.194-164.84l17.66 164.84-20.015 28.258-18.84-28.258z" transform="matrix(-.048 .044 .039 .06 228.352 224.21)"/><path d="M248.44 462.47c29.436 48.274 77.71 121.28 101.26 170.73 26.295-51.807 74.962-128.34 104.79-175.44-31.79 36.107-71.822 88.7-104.79 116.56-33.36-27.866-70.253-78.103-101.26-111.86z" transform="matrix(-.039 .056 .048 .049 221.067 228.158)"/><path d="M332.03 604.94c1.177 0 21.194-164.84 21.194-164.84l17.66 164.84-20.015 28.258-18.84-28.258z" transform="matrix(-.013 .07 .061 .022 203.813 238.21)"/><path d="M248.44 462.47c29.436 48.274 77.71 121.28 101.26 170.73 26.295-51.807 74.962-128.34 104.79-175.44-31.79 36.107-71.822 88.7-104.79 116.56-33.36-27.866-70.253-78.103-101.26-111.86z" transform="matrix(-.039 .055 .047 .049 221.884 229.34)"/><path d="M332.03 604.94c1.177 0 21.194-164.84 21.194-164.84l17.66 164.84-20.015 28.258-18.84-28.258z" transform="matrix(-.026 .063 .056 .037 212.565 232.533)"/><path d="M248.44 462.47c29.436 48.274 77.71 121.28 101.26 170.73 26.295-51.807 74.962-128.34 104.79-175.44-31.79 36.107-71.822 88.7-104.79 116.56-33.36-27.866-70.253-78.103-101.26-111.86z" transform="matrix(-.026 .063 .056 .037 214.069 233.728)"/><path d="M332.03 604.94c1.177 0 21.194-164.84 21.194-164.84l17.66 164.84-20.015 28.258-18.84-28.258z" transform="matrix(-.016 .068 .06 .026 208.592 238.616)"/><path d="M234.687 268.268c1.987 3.64 4.893 9.383 7.1 12.697-3.637-.26-9.265-.026-12.725.11 2.884-.667 6.923-1.243 9.368-2.29-.72-3.132-2.625-7.315-3.743-10.517z" stroke-width=".179316"/><path d="M332.03 604.94c1.177 0 21.194-164.84 21.194-164.84l17.66 164.84-20.015 28.258-18.84-28.258z" transform="matrix(-.031 .059 .054 .043 218.567 232.393)"/><path d="M248.44 462.47c29.436 48.274 77.71 121.28 101.26 170.73 26.295-51.807 74.962-128.34 104.79-175.44-31.79 36.107-71.822 88.7-104.79 116.56-33.36-27.866-70.253-78.103-101.26-111.86z" transform="matrix(-.02 .067 .059 .03 212.933 238.794)"/><path d="M332.03 604.94c1.177 0 21.194-164.84 21.194-164.84l17.66 164.84-20.015 28.258-18.84-28.258z" transform="matrix(-.003 .072 .062 .011 204.839 248.314)"/><path d="M332.03 604.94c1.177 0 21.194-164.84 21.194-164.84l17.66 164.84-20.015 28.258-18.84-28.258z" transform="matrix(.001 -.028 -.045 .004 274.458 234.893)"/><path d="M248.44 462.47c29.436 48.274 77.71 121.28 101.26 170.73 26.295-51.807 74.962-128.34 104.79-175.44-31.79 36.107-71.822 88.7-104.79 116.56-33.36-27.866-70.253-78.103-101.26-111.86z" transform="matrix(.001 -.029 -.045 .004 272.346 235.073)"/><path d="M332.03 604.94c1.177 0 21.194-164.84 21.194-164.84l17.66 164.84-20.015 28.258-18.84-28.258z" transform="matrix(-.007 -.027 -.044 .009 276.389 231.967)"/><path d="M248.44 462.47c29.436 48.274 77.71 121.28 101.26 170.73 26.295-51.807 74.962-128.34 104.79-175.44-31.79 36.107-71.822 88.7-104.79 116.56-33.36-27.866-70.253-78.103-101.26-111.86z" transform="matrix(-.014 -.033 -.043 .015 275.676 231.407)"/><path d="M332.03 604.94c1.177 0 21.194-164.84 21.194-164.84l17.66 164.84-20.015 28.258-18.84-28.258z" transform="matrix(.005 -.028 -.045 .002 269.989 237.246)"/><path d="M248.44 462.47c29.436 48.274 77.71 121.28 101.26 170.73 26.295-51.807 74.962-128.34 104.79-175.44-31.79 36.107-71.822 88.7-104.79 116.56-33.36-27.866-70.253-78.103-101.26-111.86z" transform="matrix(-.004 -.027 -.045 .007 271.928 233.863)"/><path d="M332.03 604.94c1.177 0 21.194-164.84 21.194-164.84l17.66 164.84-20.015 28.258-18.84-28.258z" transform="matrix(-.016 -.024 -.042 .014 274.715 228.189)"/><path d="M248.44 462.47c29.436 48.274 77.71 121.28 101.26 170.73 26.295-51.807 74.962-128.34 104.79-175.44-31.79 36.107-71.822 88.7-104.79 116.56-33.36-27.866-70.253-78.103-101.26-111.86z" transform="matrix(-.01 -.039 -.033 .007 267.825 237.727)"/><path d="M332.03 604.94c1.177 0 21.194-164.84 21.194-164.84l17.66 164.84-20.015 28.258-18.84-28.258z" transform="matrix(-.012 -.038 -.033 .009 267.897 236.596)"/><path d="M332.03 604.94c1.177 0 21.194-164.84 21.194-164.84l17.66 164.84-20.015 28.258-18.84-28.258z" transform="matrix(.003 .071 .065 .009 199.693 249.321)"/><path d="M332.03 604.94c1.177 0 21.194-164.84 21.194-164.84l17.66 164.84-20.015 28.258-18.84-28.258z" transform="matrix(-.011 .067 .064 .024 206.932 241.891)"/><path d="M332.03 604.94c1.177 0 21.194-164.84 21.194-164.84l17.66 164.84-20.015 28.258-18.84-28.258z" transform="matrix(0 .07 .065 .012 204.458 248.668)"/><path d="M248.44 462.47c29.436 48.274 77.71 121.28 101.26 170.73 26.295-51.807 74.962-128.34 104.79-175.44-31.79 36.107-71.822 88.7-104.79 116.56-33.36-27.866-70.253-78.103-101.26-111.86z" transform="matrix(-.011 .067 .064 .023 209.919 244.177)"/><path d="M332.03 604.94c1.177 0 21.194-164.84 21.194-164.84l17.66 164.84-20.015 28.258-18.84-28.258z" transform="matrix(-.017 .065 .063 .03 212.768 240.438)"/><path d="M248.44 462.47c29.436 48.274 77.71 121.28 101.26 170.73 26.295-51.807 74.962-128.34 104.79-175.44-31.79 36.107-71.822 88.7-104.79 116.56-33.36-27.866-70.253-78.103-101.26-111.86z" transform="matrix(-.004 .069 .065 .016 208.742 247.889)"/><path d="M332.03 604.94c1.177 0 21.194-164.84 21.194-164.84l17.66 164.84-20.015 28.258-18.84-28.258z" transform="matrix(.014 .071 .063 -.003 203.036 258.907)"/><path d="M332.03 604.94c1.177 0 21.194-164.84 21.194-164.84l17.66 164.84-20.015 28.258-18.84-28.258z" transform="matrix(.008 .07 .065 .004 201.534 254.238)"/><path d="M332.03 604.94c1.177 0 21.194-164.84 21.194-164.84l17.66 164.84-20.015 28.258-18.84-28.258z" transform="matrix(-.006 .068 .065 .019 208.213 246.328)"/><path d="M332.03 604.94c1.177 0 21.194-164.84 21.194-164.84l17.66 164.84-20.015 28.258-18.84-28.258z" transform="matrix(.005 .07 .066 .008 206.244 253.253)"/><path d="M248.44 462.47c29.436 48.274 77.71 121.28 101.26 170.73 26.295-51.807 74.962-128.34 104.79-175.44-31.79 36.107-71.822 88.7-104.79 116.56-33.36-27.866-70.253-78.103-101.26-111.86z" transform="matrix(-.006 .068 .066 .019 211.365 248.397)"/><path d="M332.03 604.94c1.177 0 21.194-164.84 21.194-164.84l17.66 164.84-20.015 28.258-18.84-28.258z" transform="matrix(-.012 .066 .065 .025 213.932 244.472)"/><path d="M248.44 462.47c29.436 48.274 77.71 121.28 101.26 170.73 26.295-51.807 74.962-128.34 104.79-175.44-31.79 36.107-71.822 88.7-104.79 116.56-33.36-27.866-70.253-78.103-101.26-111.86z" transform="matrix(.002 .069 .066 .011 210.464 252.178)"/><path d="M332.03 604.94c1.177 0 21.194-164.84 21.194-164.84l17.66 164.84-20.015 28.258-18.84-28.258z" transform="matrix(.019 .07 .063 -.008 205.581 263.556)"/></g><path d="M374.65 434.6c0 66.213-53.676 119.89-119.89 119.89-66.213 0-119.89-53.676-119.89-119.89 0-66.213 53.676-119.89 119.89-119.89 66.213 0 119.89 53.676 119.89 119.89z" fill-rule="evenodd" transform="matrix(.171 0 0 .177 212.464 177.723)" fill="#3d25ca"/><path d="M353.57 628.49l-130.85-89.51-130.85 89.51 49.07-143.21-114.5-89.51h147.21l49.07-143.21 49.068 143.21h147.21l-114.49 89.507 49.07 143.21z" fill-rule="evenodd" transform="matrix(.087 0 0 .079 237.544 217.785)" fill="#ffd900"/><path d="M230.32 237.4v194.88" fill="none" transform="matrix(.08 0 0 .08 238.418 218.789)"/><path d="M256.844 253.37v7.088" fill="none" stroke-width=".21096"/></g><path d="M297.99 255.925c0 23.237-18.858 42.095-42.094 42.095S213.8 279.162 213.8 255.925c0-23.235 18.86-42.095 42.096-42.095 23.235 0 42.094 18.86 42.094 42.095zm14.032 0c0 30.98-25.144 56.125-56.125 56.125s-56.125-25.144-56.125-56.125 25.144-56.125 56.125-56.125 56.125 25.144 56.125 56.125z" fill-rule="evenodd" stroke="#000" stroke-width=".272646" fill="#d60000"/><path d="M298.747 266.07l3.7 1.372 6.143-1.12-.462 1.248-3.2.55c-.597.1-1.187.18-1.77.24.37.4.78.874 1.23 1.417l2.014 2.453-.443 1.193-3.892-4.956-3.7-1.372.38-1.025zM309.464 251.8l.12 1.085-5.344.593c-.93.104-1.68.092-2.247-.033-.567-.127-1.05-.414-1.45-.865-.395-.447-.636-1.065-.724-1.856-.086-.768-.007-1.413.238-1.934.244-.522.637-.918 1.177-1.19.545-.272 1.308-.462 2.288-.57l5.345-.595.12 1.084-5.34.593c-.802.09-1.388.22-1.756.394-.364.176-.63.435-.802.78-.17.347-.23.753-.177 1.22.09.797.356 1.343.802 1.638.446.293 1.25.376 2.41.247l5.34-.593zM301.7 241.27l1.074-.216.7 3.433-3.394.686c-.58-.43-1.05-.902-1.404-1.414-.35-.514-.585-1.065-.704-1.655-.162-.797-.117-1.56.134-2.29.256-.728.714-1.33 1.375-1.81.662-.48 1.442-.81 2.34-.99.89-.18 1.754-.185 2.59-.012.84.175 1.51.535 2.01 1.078.5.545.832 1.22.995 2.03.12.585.118 1.136-.003 1.65-.116.52-.338.953-.666 1.3-.33.346-.787.652-1.374.916l-.495-.907c.44-.217.777-.442 1.006-.676.23-.235.39-.536.48-.904.095-.368.1-.757.018-1.166-.1-.49-.27-.897-.513-1.22-.238-.325-.517-.57-.837-.736-.318-.16-.654-.27-1.008-.326-.607-.092-1.242-.07-1.903.063-.817.165-1.474.427-1.973.784-.498.362-.833.807-1.003 1.337-.17.53-.2 1.062-.093 1.596.095.464.287.898.576 1.3.293.4.578.694.853.876l1.702-.346-.482-2.383zM262.96 211.568l1.594-9.2 1.08.187-1.406 8.114 4.016.695-.188 1.085-5.095-.882zM253.547 210.93v-9.303h5.963v1.098h-4.87v2.85h4.56v1.09h-4.56v3.167h5.06v1.098h-6.153zM227.934 216.81l1.034-.475c.485.92.674 1.778.567 2.572-.107.79-.488 1.465-1.142 2.024-.678.58-1.362.898-2.053.952-.69.05-1.4-.126-2.128-.526-.725-.402-1.376-.942-1.956-1.62-.63-.738-1.057-1.488-1.278-2.248-.22-.767-.22-1.49-.003-2.166.218-.683.604-1.263 1.158-1.736.63-.54 1.313-.81 2.05-.815.738-.005 1.47.248 2.2.758l-.633.918c-.587-.39-1.12-.586-1.598-.585-.48.003-.93.184-1.35.543-.482.413-.775.89-.877 1.43-.1.538-.027 1.083.22 1.638.243.552.565 1.06.965 1.53.516.602 1.044 1.063 1.584 1.383.54.314 1.07.44 1.59.383.52-.06.97-.252 1.353-.58.466-.398.73-.887.795-1.466.064-.58-.103-1.216-.498-1.91zM223.945 224.962l-6.938-6.22.73-.813 6.938 6.218-.73.814zM219.44 230.177l-7.402-5.653.664-.87 6.527 4.988 2.467-3.23.873.666-3.13 4.1zM205.695 235.786l.404-1.02 5.018 1.99c.873.347 1.53.71 1.976 1.087.443.38.737.862.88 1.45.138.58.06 1.243-.233 1.986-.286.72-.66 1.254-1.122 1.602-.462.347-.997.514-1.604.5-.61-.015-1.376-.206-2.297-.57l-5.018-1.99.402-1.018 5.013 1.987c.755.3 1.336.46 1.744.48.404.014.763-.09 1.076-.315.315-.228.56-.56.732-.998.297-.75.317-1.36.06-1.83-.256-.47-.93-.922-2.02-1.354l-5.013-1.987zM211 258.253l-9.304.103-.066-5.963 1.098-.012.054 4.873 2.85-.03-.05-4.563 1.09-.012.05 4.562 3.167-.035-.057-5.063 1.098-.012.07 6.153zM245.967 212.313l-1.85-9.15 2.793-.564c.63-.13 1.12-.182 1.47-.162.49.027.93.165 1.322.415.51.32.935.78 1.273 1.373.342.59.595 1.29.76 2.106.14.695.194 1.326.16 1.89-.037.567-.13 1.05-.284 1.45-.153.394-.345.72-.573.98-.225.252-.517.47-.876.65-.354.18-.776.32-1.267.42l-2.926.59zm.854-1.297l1.733-.35c.535-.108.942-.25 1.22-.423.285-.174.496-.38.636-.622.195-.337.314-.762.357-1.273.045-.516-.002-1.12-.142-1.81-.193-.956-.482-1.662-.865-2.117-.38-.46-.788-.738-1.222-.832-.313-.066-.788-.035-1.426.094l-1.704.345 1.413 6.99zM276.045 216.152l4.318-8.275 2.767 1.444c.487.255.845.475 1.074.66.325.257.56.545.703.864.145.315.202.682.17 1.1-.03.42-.15.837-.364 1.247-.367.705-.876 1.198-1.53 1.48-.65.278-1.493.147-2.53-.395l-1.882-.98-1.754 3.363-.97-.506zm3.236-3.835l1.897.99c.627.327 1.142.428 1.542.302.4-.127.725-.43.975-.907.18-.346.256-.683.227-1.01-.024-.327-.142-.597-.354-.808-.138-.134-.427-.316-.868-.546l-1.876-.98-1.543 2.957zM280.76 218.46l8.58-4.822.878.786-3.702 9.195-.927-.832 1.165-2.745-2.572-2.305-2.56 1.496-.863-.774zm4.328-1.26l2.086 1.87 1.08-2.497c.328-.76.612-1.37.854-1.83-.478.374-.984.717-1.52 1.028l-2.5 1.43zM287.127 224.78l7.4-5.653 2.223 2.91c.447.583.72 1.08.817 1.486.1.405.053.827-.144 1.266-.198.438-.5.813-.908 1.124-.525.402-1.082.59-1.673.563-.59-.026-1.175-.317-1.753-.872.05.325.06.593.03.805-.068.454-.213.945-.434 1.473l-1.142 2.68-.835-1.093.876-2.044c.25-.593.43-1.06.54-1.406.112-.343.164-.617.158-.82-.004-.2-.04-.382-.104-.544-.052-.117-.163-.287-.334-.51l-.77-1.007-3.285 2.51-.663-.87zm4.798-2.29l1.426 1.867c.303.396.586.672.848.826.265.152.543.21.834.17.294-.04.56-.15.8-.334.35-.268.55-.6.603-1 .055-.396-.104-.837-.475-1.324l-1.586-2.076-2.45 1.87zM292.156 230.878l9.66-1.758.57 1.025-6.478 7.47-.605-1.086 1.992-2.21-1.676-3.01-2.9.58-.564-1.012zm4.49.22l1.36 2.44 1.83-2.004c.557-.61 1.023-1.093 1.4-1.448-.57.198-1.16.357-1.767.476l-2.823.535zM300.472 254.985l8.92 4.126-.124 1.17-9.606 2.38.13-1.237 2.903-.66.362-3.43-2.707-1.196.122-1.152zm3.55 2.767l-.294 2.78 2.652-.585c.806-.18 1.466-.306 1.98-.38-.582-.167-1.155-.376-1.72-.627l-2.62-1.188zM212.513 266.914l-9.097 2.005-.788-3.576c-.158-.72-.196-1.284-.113-1.694.08-.41.3-.772.665-1.087.364-.315.797-.527 1.298-.638.645-.142 1.23-.077 1.754.197.524.272.932.783 1.222 1.53.09-.317.195-.564.31-.744.255-.383.594-.767 1.016-1.152l2.167-1.948.296 1.342-1.658 1.484c-.477.432-.838.78-1.083 1.047-.246.265-.408.492-.49.68-.08.182-.125.362-.134.536-.002.127.027.33.087.604l.273 1.237 4.04-.89.235 1.067zm-5.317.053l-.506-2.294c-.107-.487-.247-.857-.42-1.107-.176-.25-.404-.418-.684-.507-.284-.088-.572-.1-.866-.034-.43.094-.753.31-.97.65-.216.337-.258.804-.126 1.402l.562 2.552 3.01-.663zM211.474 250.168l-9.303-.822.276-3.11c.05-.55.115-.964.2-1.247.112-.4.288-.726.528-.98.236-.256.553-.448.953-.58.4-.135.83-.182 1.29-.14.793.07 1.443.352 1.954.846.507.495.71 1.325.606 2.492l-.187 2.114 3.78.335-.096 1.09zm-4.783-1.523l.19-2.132c.062-.704-.042-1.218-.312-1.54-.27-.323-.674-.508-1.21-.555-.39-.035-.73.024-1.02.175-.295.15-.5.36-.613.638-.07.18-.13.517-.173 1.012l-.186 2.11 3.325.293zM215.364 236.388l-7.76-5.19 1.726-2.582c.35-.526.712-.893 1.082-1.103.37-.215.777-.302 1.225-.26.446.035.847.172 1.203.41.332.222.59.51.778.866.186.355.26.753.225 1.196.416-.324.864-.486 1.345-.486.482-.003.95.146 1.4.448.365.243.658.538.88.886.22.342.348.67.384.984s-.005.652-.12 1.014c-.115.357-.32.755-.613 1.192l-1.756 2.624zm-3.89-3.92l.994-1.488c.27-.403.434-.713.49-.928.078-.283.066-.543-.037-.78-.1-.24-.286-.45-.557-.63-.258-.173-.52-.27-.788-.29-.27-.023-.51.044-.716.2-.21.154-.48.478-.812.972l-.92 1.375 2.346 1.567zm3.584 2.397l1.146-1.713c.196-.294.322-.51.377-.644.1-.238.145-.46.14-.667-.005-.206-.07-.418-.196-.634-.13-.218-.32-.41-.566-.575-.29-.192-.583-.294-.883-.305-.303-.012-.576.07-.817.25-.244.17-.512.477-.805.915l-1.063 1.59 2.668 1.785zM230.422 218.476l-2.257-9.544.994-.623 7.785 6.073-1.05.658-2.308-1.87-2.914 1.83.728 2.86-.978.616zm-.015-4.492l2.363-1.482-2.094-1.722c-.637-.522-1.143-.962-1.518-1.32.228.56.417 1.14.567 1.738l.682 2.786z" fill="#ffe600"/></g></svg>