<svg xmlns="http://www.w3.org/2000/svg" height="480" width="640"><defs><clipPath id="a"><path fill-opacity=".67" d="M-64 0h640v512H-64z"/></clipPath></defs><g clip-path="url(#a)" transform="matrix(1 0 0 .9 64 0)"><g fill-rule="evenodd" stroke-width="1pt"><path fill="#fff" d="M-256 171.886H767.977v168.222H-256z"/><path fill="#3d25ca" d="M-256 340.108H767.977v171.886H-256z"/><path fill="#d60000" d="M-256 0H767.977v171.886H-256z"/></g><path d="M744.14 567.26c0 192.48-157.09 348.52-350.87 348.52S42.4 759.74 42.4 567.26s157.09-348.52 350.87-348.52 350.87 156.04 350.87 348.52z" fill-rule="evenodd" transform="matrix(.2 0 0 .2 182.2 148.9)" stroke="#000" stroke-width="12.91" fill="#fff"/><g stroke="#000" stroke-width="2.637"><g fill-rule="evenodd" fill="#006700"><path d="M259.03 105.71s400.32 70.645 414.45 395.62c14.13 324.97-188.39 367.36-259.03 419.16-70.645 51.807-113.03 113.03-146 113.03-32.968 0-80.065-14.13-80.065-14.13s9.42 51.81 75.355 47.1c65.936-4.71 127.16-113.03 164.84-131.87s277.88-98.9 259.04-428.58c-14.13-353.23-423.88-390.91-428.59-400.33z" transform="matrix(.1 0 0 .1 249.5 214.2)"/><path d="M320.26 487.2c0 59.825-11.597 108.32-25.903 108.32s-25.903-48.498-25.903-108.32c0-59.825 11.597-108.32 25.903-108.32s25.903 48.498 25.903 108.32z" transform="matrix(0 0 0 0 263.5 215.9)"/><path d="M320.26 487.2c0 59.825-11.597 108.32-25.903 108.32s-25.903-48.498-25.903-108.32c0-59.825 11.597-108.32 25.903-108.32s25.903 48.498 25.903 108.32z" transform="matrix(0 0 0 0 260.3 219.4)"/><path d="M320.26 487.2c0 59.825-11.597 108.32-25.903 108.32s-25.903-48.498-25.903-108.32c0-59.825 11.597-108.32 25.903-108.32s25.903 48.498 25.903 108.32z" transform="matrix(0 0 0 0 258.7 238.4)"/><path d="M320.26 487.2c0 59.825-11.597 108.32-25.903 108.32s-25.903-48.498-25.903-108.32c0-59.825 11.597-108.32 25.903-108.32s25.903 48.498 25.903 108.32z" transform="matrix(0 0 0 0 256.8 231.2)"/><path d="M320.26 487.2c0 59.825-11.597 108.32-25.903 108.32s-25.903-48.498-25.903-108.32c0-59.825 11.597-108.32 25.903-108.32s25.903 48.498 25.903 108.32z" transform="matrix(0 0 0 0 257.6 226)"/><path d="M151.53 682.7c0 1.665-41.628-24.978-49.954-33.303-8.333-8.33-6.668-46.62-33.31-64.94s-54.95-9.99-68.27 1.66c-13.32 11.656-8.326 38.298 23.312 61.61s53.284 1.666 69.936 9.99c16.65 8.327 43.294 24.977 56.615 38.298 13.32-9.99 46.622-21.646 64.94-29.972 18.315-8.325 64.94 11.656 96.577-11.656 26.642-18.316 38.297-56.614 19.98-68.27-18.316-11.656-51.618-6.66-71.6 4.996-19.98 11.656-29.97 58.28-49.954 66.605-14.986 4.995-56.614 28.307-58.28 24.977z" transform="matrix(0 0 0 0 268.7 230.5)"/><path d="M320.26 487.2c0 59.825-11.597 108.32-25.903 108.32s-25.903-48.498-25.903-108.32c0-59.825 11.597-108.32 25.903-108.32s25.903 48.498 25.903 108.32z" transform="matrix(0 0 0 0 270.4 209.7)"/><path d="M320.26 487.2c0 59.825-11.597 108.32-25.903 108.32s-25.903-48.498-25.903-108.32c0-59.825 11.597-108.32 25.903-108.32s25.903 48.498 25.903 108.32z" transform="matrix(0 0 0 0 264.8 213.3)"/><path d="M320.26 487.2c0 59.825-11.597 108.32-25.903 108.32s-25.903-48.498-25.903-108.32c0-59.825 11.597-108.32 25.903-108.32s25.903 48.498 25.903 108.32z" transform="matrix(0 0 0 0 256.3 239.7)"/><path d="M320.26 487.2c0 59.825-11.597 108.32-25.903 108.32s-25.903-48.498-25.903-108.32c0-59.825 11.597-108.32 25.903-108.32s25.903 48.498 25.903 108.32z" transform="matrix(0 0 0 0 256.1 228.6)"/><path d="M320.26 487.2c0 59.825-11.597 108.32-25.903 108.32s-25.903-48.498-25.903-108.32c0-59.825 11.597-108.32 25.903-108.32s25.903 48.498 25.903 108.32z" transform="matrix(0 0 0 0 258.9 221.5)"/><path d="M151.53 682.7c0 1.665-41.628-24.978-49.954-33.303-8.333-8.33-6.668-46.62-33.31-64.94s-54.95-9.99-68.27 1.66c-13.32 11.656-8.326 38.298 23.312 61.61s53.284 1.666 69.936 9.99c16.65 8.327 43.294 24.977 56.615 38.298 13.32-9.99 46.622-21.646 64.94-29.972 18.315-8.325 64.94 11.656 96.577-11.656 26.642-18.316 38.297-56.614 19.98-68.27-18.316-11.656-51.618-6.66-71.6 4.996-19.98 11.656-29.97 58.28-49.954 66.605-14.986 4.995-56.614 28.307-58.28 24.977z" transform="matrix(0 0 0 0 272.8 233)"/><g><path d="M320.26 487.2c0 59.825-11.597 108.32-25.903 108.32s-25.903-48.498-25.903-108.32c0-59.825 11.597-108.32 25.903-108.32s25.903 48.498 25.903 108.32z" transform="matrix(0 0 0 0 279.7 217.6)"/><path d="M320.26 487.2c0 59.825-11.597 108.32-25.903 108.32s-25.903-48.498-25.903-108.32c0-59.825 11.597-108.32 25.903-108.32s25.903 48.498 25.903 108.32z" transform="matrix(0 0 0 .1 273.6 220.1)"/><path d="M320.26 487.2c0 59.825-11.597 108.32-25.903 108.32s-25.903-48.498-25.903-108.32c0-59.825 11.597-108.32 25.903-108.32s25.903 48.498 25.903 108.32z" transform="matrix(0 0 0 0 260.4 244.6)"/><path d="M320.26 487.2c0 59.825-11.597 108.32-25.903 108.32s-25.903-48.498-25.903-108.32c0-59.825 11.597-108.32 25.903-108.32s25.903 48.498 25.903 108.32z" transform="matrix(0 0 0 0 262.3 233.5)"/><path d="M320.26 487.2c0 59.825-11.597 108.32-25.903 108.32s-25.903-48.498-25.903-108.32c0-59.825 11.597-108.32 25.903-108.32s25.903 48.498 25.903 108.32z" transform="matrix(0 0 0 0 266.3 227.1)"/><path d="M151.53 682.7c0 1.665-41.628-24.978-49.954-33.303-8.333-8.33-6.668-46.62-33.31-64.94s-54.95-9.99-68.27 1.66c-13.32 11.656-8.326 38.298 23.312 61.61s53.284 1.666 69.936 9.99c16.65 8.327 43.294 24.977 56.615 38.298 13.32-9.99 46.622-21.646 64.94-29.972 18.315-8.325 64.94 11.656 96.577-11.656 26.642-18.316 38.297-56.614 19.98-68.27-18.316-11.656-51.618-6.66-71.6 4.996-19.98 11.656-29.97 58.28-49.954 66.605-14.986 4.995-56.614 28.307-58.28 24.977z" transform="matrix(0 0 0 0 277.8 241.1)"/></g><g><path d="M320.26 487.2c0 59.825-11.597 108.32-25.903 108.32s-25.903-48.498-25.903-108.32c0-59.825 11.597-108.32 25.903-108.32s25.903 48.498 25.903 108.32z" transform="matrix(0 0 0 0 292.3 227.4)"/><path d="M320.26 487.2c0 59.825-11.597 108.32-25.903 108.32s-25.903-48.498-25.903-108.32c0-59.825 11.597-108.32 25.903-108.32s25.903 48.498 25.903 108.32z" transform="matrix(0 0 0 0 285.8 227.3)"/><path d="M320.26 487.2c0 59.825-11.597 108.32-25.903 108.32s-25.903-48.498-25.903-108.32c0-59.825 11.597-108.32 25.903-108.32s25.903 48.498 25.903 108.32z" transform="matrix(0 0 0 0 264.4 244.5)"/><path d="M320.26 487.2c0 59.825-11.597 108.32-25.903 108.32s-25.903-48.498-25.903-108.32c0-59.825 11.597-108.32 25.903-108.32s25.903 48.498 25.903 108.32z" transform="matrix(0 0 0 .1 270.4 235)"/><path d="M320.26 487.2c0 59.825-11.597 108.32-25.903 108.32s-25.903-48.498-25.903-108.32c0-59.825 11.597-108.32 25.903-108.32s25.903 48.498 25.903 108.32z" transform="matrix(0 0 0 .1 276.5 230.7)"/><path d="M151.53 682.7c0 1.665-41.628-24.978-49.954-33.303-8.333-8.33-6.668-46.62-33.31-64.94s-54.95-9.99-68.27 1.66c-13.32 11.656-8.326 38.298 23.312 61.61s53.284 1.666 69.936 9.99c16.65 8.327 43.294 24.977 56.615 38.298 13.32-9.99 46.622-21.646 64.94-29.972 18.315-8.325 64.94 11.656 96.577-11.656 26.642-18.316 38.297-56.614 19.98-68.27-18.316-11.656-51.618-6.66-71.6 4.996-19.98 11.656-29.97 58.28-49.954 66.605-14.986 4.995-56.614 28.307-58.28 24.977z" transform="matrix(0 0 0 0 281.5 248.5)"/></g><g><path d="M320.26 487.2c0 59.825-11.597 108.32-25.903 108.32s-25.903-48.498-25.903-108.32c0-59.825 11.597-108.32 25.903-108.32s25.903 48.498 25.903 108.32z" transform="matrix(0 .1 0 0 299.7 237)"/><path d="M320.26 487.2c0 59.825-11.597 108.32-25.903 108.32s-25.903-48.498-25.903-108.32c0-59.825 11.597-108.32 25.903-108.32s25.903 48.498 25.903 108.32z" transform="matrix(0 0 0 0 292.6 234.4)"/><path d="M320.26 487.2c0 59.825-11.597 108.32-25.903 108.32s-25.903-48.498-25.903-108.32c0-59.825 11.597-108.32 25.903-108.32s25.903 48.498 25.903 108.32z" transform="matrix(.1 0 0 .1 263.3 245.8)"/><path d="M320.26 487.2c0 59.825-11.597 108.32-25.903 108.32s-25.903-48.498-25.903-108.32c0-59.825 11.597-108.32 25.903-108.32s25.903 48.498 25.903 108.32z" transform="matrix(0 0 0 .1 273 237.4)"/><path d="M320.26 487.2c0 59.825-11.597 108.32-25.903 108.32s-25.903-48.498-25.903-108.32c0-59.825 11.597-108.32 25.903-108.32s25.903 48.498 25.903 108.32z" transform="matrix(0 0 0 .1 281.2 234.8)"/><path d="M151.53 682.7c0 1.665-41.628-24.978-49.954-33.303-8.333-8.33-6.668-46.62-33.31-64.94s-54.95-9.99-68.27 1.66c-13.32 11.656-8.326 38.298 23.312 61.61s53.284 1.666 69.936 9.99c16.65 8.327 43.294 24.977 56.615 38.298 13.32-9.99 46.622-21.646 64.94-29.972 18.315-8.325 64.94 11.656 96.577-11.656 26.642-18.316 38.297-56.614 19.98-68.27-18.316-11.656-51.618-6.66-71.6 4.996-19.98 11.656-29.97 58.28-49.954 66.605-14.986 4.995-56.614 28.307-58.28 24.977z" transform="matrix(0 0 0 0 280.9 256.3)"/></g><g><path d="M320.26 487.2c0 59.825-11.597 108.32-25.903 108.32s-25.903-48.498-25.903-108.32c0-59.825 11.597-108.32 25.903-108.32s25.903 48.498 25.903 108.32z" transform="matrix(0 .1 -.1 0 309.4 256.6)"/><path d="M320.26 487.2c0 59.825-11.597 108.32-25.903 108.32s-25.903-48.498-25.903-108.32c0-59.825 11.597-108.32 25.903-108.32s25.903 48.498 25.903 108.32z" transform="matrix(0 .1 -.1 0 303.9 250.1)"/><path d="M320.26 487.2c0 59.825-11.597 108.32-25.903 108.32s-25.903-48.498-25.903-108.32c0-59.825 11.597-108.32 25.903-108.32s25.903 48.498 25.903 108.32z" transform="matrix(.1 0 0 .1 269.5 243.9)"/><path d="M320.26 487.2c0 59.825-11.597 108.32-25.903 108.32s-25.903-48.498-25.903-108.32c0-59.825 11.597-108.32 25.903-108.32s25.903 48.498 25.903 108.32z" transform="matrix(0 0 0 0 283.4 241.6)"/><path d="M320.26 487.2c0 59.825-11.597 108.32-25.903 108.32s-25.903-48.498-25.903-108.32c0-59.825 11.597-108.32 25.903-108.32s25.903 48.498 25.903 108.32z" transform="matrix(0 0 -.1 0 292.8 243.9)"/><path d="M151.53 682.7c0 1.665-41.628-24.978-49.954-33.303-8.333-8.33-6.668-46.62-33.31-64.94s-54.95-9.99-68.27 1.66c-13.32 11.656-8.326 38.298 23.312 61.61s53.284 1.666 69.936 9.99c16.65 8.327 43.294 24.977 56.615 38.298 13.32-9.99 46.622-21.646 64.94-29.972 18.315-8.325 64.94 11.656 96.577-11.656 26.642-18.316 38.297-56.614 19.98-68.27-18.316-11.656-51.618-6.66-71.6 4.996-19.98 11.656-29.97 58.28-49.954 66.605-14.986 4.995-56.614 28.307-58.28 24.977z" transform="matrix(0 0 0 0 280.7 264.1)"/></g><g><path d="M314.71 506.2c0 45.062-10.064 81.59-22.48 81.59s-22.478-36.53-22.478-81.59c0-45.062 10.064-81.59 22.48-81.59s22.478 36.53 22.478 81.59z" transform="matrix(0 .1 -.1 0 309 259.4)"/><path d="M314.71 506.2c0 45.062-10.064 81.59-22.48 81.59s-22.478-36.53-22.478-81.59c0-45.062 10.064-81.59 22.48-81.59s22.478 36.53 22.478 81.59z" transform="matrix(.1 .1 -.1 .1 273.1 230.4)"/><path d="M314.71 506.2c0 45.062-10.064 81.59-22.48 81.59s-22.478-36.53-22.478-81.59c0-45.062 10.064-81.59 22.48-81.59s22.478 36.53 22.478 81.59z" transform="matrix(0 .1 -.1 0 296.6 242.6)"/></g><g><path d="M314.71 506.2c0 45.062-10.064 81.59-22.48 81.59s-22.478-36.53-22.478-81.59c0-45.062 10.064-81.59 22.48-81.59s22.478 36.53 22.478 81.59z" transform="matrix(0 0 0 0 239.7 214.8)"/><path d="M314.71 506.2c0 45.062-10.064 81.59-22.48 81.59s-22.478-36.53-22.478-81.59c0-45.062 10.064-81.59 22.48-81.59s22.478 36.53 22.478 81.59z" transform="matrix(0 0 .1 0 244.1 236.3)"/><path d="M314.71 506.2c0 45.062-10.064 81.59-22.48 81.59s-22.478-36.53-22.478-81.59c0-45.062 10.064-81.59 22.48-81.59s22.478 36.53 22.478 81.59z" transform="matrix(0 0 0 0 238.4 223.8)"/></g></g><g fill-rule="evenodd" fill="#006700"><path d="M339.1 586.1s113.03 32.968 211.94 89.484c98.904 56.516 252.16 272.38 292.21 280.92 44.682-1.342 105.85-37.846 126.48-164.27-67.86 43.25-107.82 101.54-174.96 40.06-23.55-14.13-102.44-137.87-187.22-199.09-84.77-61.23-254.32-122.45-254.32-122.45L339.1 586.11z" transform="matrix(0 0 0 0 222.3 264)"/><path d="M332.03 604.94c1.177 0 21.194-164.84 21.194-164.84l17.66 164.84-20.015 28.258-18.84-28.258z" transform="matrix(0 0 0 0 274.8 234.1)"/><path d="M248.44 462.47c29.436 48.274 77.71 121.28 101.26 170.73 26.295-51.807 74.962-128.34 104.79-175.44-31.79 36.107-71.822 88.7-104.79 116.56-33.36-27.866-70.253-78.103-101.26-111.86z" transform="matrix(0 0 0 0 273.6 234.4)"/><path d="M332.03 604.94c1.177 0 21.194-164.84 21.194-164.84l17.66 164.84-20.015 28.258-18.84-28.258z" transform="matrix(0 0 0 0 273.8 229.4)"/><path d="M248.44 462.47c29.436 48.274 77.71 121.28 101.26 170.73 26.295-51.807 74.962-128.34 104.79-175.44-31.79 36.107-71.822 88.7-104.79 116.56-33.36-27.866-70.253-78.103-101.26-111.86z" transform="matrix(0 0 0 0 272.6 234.5)"/><path d="M332.03 604.94c1.177 0 21.194-164.84 21.194-164.84l17.66 164.84-20.015 28.258-18.84-28.258z" transform="matrix(0 0 0 0 272.3 237.4)"/><path d="M248.44 462.47c29.436 48.274 77.71 121.28 101.26 170.73 26.295-51.807 74.962-128.34 104.79-175.44-31.79 36.107-71.822 88.7-104.79 116.56-33.36-27.866-70.253-78.103-101.26-111.86z" transform="matrix(0 0 0 0 272 232.1)"/><path d="M332.03 604.94c1.177 0 21.194-164.84 21.194-164.84l17.66 164.84-20.015 28.258-18.84-28.258z" transform="matrix(0 0 0 0 271.1 223.3)"/><path d="M248.44 462.47c29.436 48.274 77.71 121.28 101.26 170.73 26.295-51.807 74.962-128.34 104.79-175.44-31.79 36.107-71.822 88.7-104.79 116.56-33.36-27.866-70.253-78.103-101.26-111.86z" transform="matrix(0 0 0 0 273.5 230.9)"/><path d="M332.03 604.94c1.177 0 21.194-164.84 21.194-164.84l17.66 164.84-20.015 28.258-18.84-28.258z" transform="matrix(0 0 0 0 273.1 229.4)"/><path d="M248.44 462.47c29.436 48.274 77.71 121.28 101.26 170.73 26.295-51.807 74.962-128.34 104.79-175.44-31.79 36.107-71.822 88.7-104.79 116.56-33.36-27.866-70.253-78.103-101.26-111.86z" transform="matrix(0 0 0 0 274.4 230.3)"/><path d="M332.03 604.94c1.177 0 21.194-164.84 21.194-164.84l17.66 164.84-20.015 28.258-18.84-28.258z" transform="matrix(0 0 0 0 274.4 228.8)"/><path d="M248.44 462.47c29.436 48.274 77.71 121.28 101.26 170.73 26.295-51.807 74.962-128.34 104.79-175.44-31.79 36.107-71.822 88.7-104.79 116.56-33.36-27.866-70.253-78.103-101.26-111.86z" transform="matrix(0 0 0 0 272.9 226.8)"/><path d="M332.03 604.94c1.177 0 21.194-164.84 21.194-164.84l17.66 164.84-20.015 28.258-18.84-28.258z" transform="matrix(0 0 0 0 272 220.7)"/><path d="M248.44 462.47c29.436 48.274 77.71 121.28 101.26 170.73 26.295-51.807 74.962-128.34 104.79-175.44-31.79 36.107-71.822 88.7-104.79 116.56-33.36-27.866-70.253-78.103-101.26-111.86z" transform="matrix(0 0 0 0 271.6 229)"/><path d="M332.03 604.94c1.177 0 21.194-164.84 21.194-164.84l17.66 164.84-20.015 28.258-18.84-28.258z" transform="matrix(0 0 0 0 272.1 230.9)"/><path d="M248.44 462.47c29.436 48.274 77.71 121.28 101.26 170.73 26.295-51.807 74.962-128.34 104.79-175.44-31.79 36.107-71.822 88.7-104.79 116.56-33.36-27.866-70.253-78.103-101.26-111.86z" transform="matrix(0 0 0 0 270.5 226.2)"/><path d="M332.03 604.94c1.177 0 21.194-164.84 21.194-164.84l17.66 164.84-20.015 28.258-18.84-28.258z" transform="matrix(0 0 0 0 268.4 216.3)"/><path d="M248.44 462.47c29.436 48.274 77.71 121.28 101.26 170.73 26.295-51.807 74.962-128.34 104.79-175.44-31.79 36.107-71.822 88.7-104.79 116.56-33.36-27.866-70.253-78.103-101.26-111.86z" transform="matrix(0 0 0 0 272.3 224.6)"/><path d="M332.03 604.94c1.177 0 21.194-164.84 21.194-164.84l17.66 164.84-20.015 28.258-18.84-28.258z" transform="matrix(0 0 0 0 271.6 223)"/><path d="M248.44 462.47c29.436 48.274 77.71 121.28 101.26 170.73 26.295-51.807 74.962-128.34 104.79-175.44-31.79 36.107-71.822 88.7-104.79 116.56-33.36-27.866-70.253-78.103-101.26-111.86z" transform="matrix(0 0 0 0 270.4 224.2)"/><path d="M332.03 604.94c1.177 0 21.194-164.84 21.194-164.84l17.66 164.84-20.015 28.258-18.84-28.258z" transform="matrix(0 0 0 .1 268.1 217.8)"/><path d="M248.44 462.47c29.436 48.274 77.71 121.28 101.26 170.73 26.295-51.807 74.962-128.34 104.79-175.44-31.79 36.107-71.822 88.7-104.79 116.56-33.36-27.866-70.253-78.103-101.26-111.86z" transform="matrix(0 0 0 0 270.1 227.7)"/><path d="M332.03 604.94c1.177 0 21.194-164.84 21.194-164.84l17.66 164.84-20.015 28.258-18.84-28.258z" transform="matrix(0 0 0 0 271.1 232)"/><path d="M248.44 462.47c29.436 48.274 77.71 121.28 101.26 170.73 26.295-51.807 74.962-128.34 104.79-175.44-31.79 36.107-71.822 88.7-104.79 116.56-33.36-27.866-70.253-78.103-101.26-111.86z" transform="matrix(0 0 0 0 268.6 231.6)"/><path d="M332.03 604.94c1.177 0 21.194-164.84 21.194-164.84l17.66 164.84-20.015 28.258-18.84-28.258z" transform="matrix(0 0 0 0 266.3 220.2)"/><path d="M248.44 462.47c29.436 48.274 77.71 121.28 101.26 170.73 26.295-51.807 74.962-128.34 104.79-175.44-31.79 36.107-71.822 88.7-104.79 116.56-33.36-27.866-70.253-78.103-101.26-111.86z" transform="matrix(0 0 0 .1 271.2 221.5)"/><path d="M332.03 604.94c1.177 0 21.194-164.84 21.194-164.84l17.66 164.84-20.015 28.258-18.84-28.258z" transform="matrix(0 0 0 .1 270.4 219.7)"/><path d="M248.44 462.47c29.436 48.274 77.71 121.28 101.26 170.73 26.295-51.807 74.962-128.34 104.79-175.44-31.79 36.107-71.822 88.7-104.79 116.56-33.36-27.866-70.253-78.103-101.26-111.86z" transform="matrix(0 0 0 .1 269.1 221.2)"/><path d="M332.03 604.94c1.177 0 21.194-164.84 21.194-164.84l17.66 164.84-20.015 28.258-18.84-28.258z" transform="matrix(-.1 0 0 .1 266.1 214.3)"/><path d="M248.44 462.47c29.436 48.274 77.71 121.28 101.26 170.73 26.295-51.807 74.962-128.34 104.79-175.44-31.79 36.107-71.822 88.7-104.79 116.56-33.36-27.866-70.253-78.103-101.26-111.86z" transform="matrix(0 0 0 .1 267.6 221.9)"/><path d="M332.03 604.94c1.177 0 21.194-164.84 21.194-164.84l17.66 164.84-20.015 28.258-18.84-28.258z" transform="matrix(0 0 0 .1 269.4 226.5)"/><path d="M248.44 462.47c29.436 48.274 77.71 121.28 101.26 170.73 26.295-51.807 74.962-128.34 104.79-175.44-31.79 36.107-71.822 88.7-104.79 116.56-33.36-27.866-70.253-78.103-101.26-111.86z" transform="matrix(-.1 0 0 .1 263.6 214.5)"/><path d="M332.03 604.94c1.177 0 21.194-164.84 21.194-164.84l17.66 164.84-20.015 28.258-18.84-28.258z" transform="matrix(-.1 0 0 .1 256.2 204.8)"/><path d="M248.44 462.47c29.436 48.274 77.71 121.28 101.26 170.73 26.295-51.807 74.962-128.34 104.79-175.44-31.79 36.107-71.822 88.7-104.79 116.56-33.36-27.866-70.253-78.103-101.26-111.86z" transform="matrix(-.1 0 0 .1 262.9 215.7)"/><path d="M332.03 604.94c1.177 0 21.194-164.84 21.194-164.84l17.66 164.84-20.015 28.258-18.84-28.258z" transform="matrix(-.1 0 0 .1 261.9 213.9)"/><path d="M248.44 462.47c29.436 48.274 77.71 121.28 101.26 170.73 26.295-51.807 74.962-128.34 104.79-175.44-31.79 36.107-71.822 88.7-104.79 116.56-33.36-27.866-70.253-78.103-101.26-111.86z" transform="matrix(-.1 0 0 .1 260.9 212.2)"/><path d="M332.03 604.94c1.177 0 21.194-164.84 21.194-164.84l17.66 164.84-20.015 28.258-18.84-28.258z" transform="matrix(-.1 0 0 .1 255.6 206.7)"/><path d="M248.44 462.47c29.436 48.274 77.71 121.28 101.26 170.73 26.295-51.807 74.962-128.34 104.79-175.44-31.79 36.107-71.822 88.7-104.79 116.56-33.36-27.866-70.253-78.103-101.26-111.86z" transform="matrix(-.1 0 0 .1 261.9 216.7)"/><path d="M332.03 604.94c1.177 0 21.194-164.84 21.194-164.84l17.66 164.84-20.015 28.258-18.84-28.258z" transform="matrix(-.1 0 0 .1 264.8 220.8)"/><path d="M248.44 462.47c29.436 48.274 77.71 121.28 101.26 170.73 26.295-51.807 74.962-128.34 104.79-175.44-31.79 36.107-71.822 88.7-104.79 116.56-33.36-27.866-70.253-78.103-101.26-111.86z" transform="matrix(-.1 0 0 .1 258.6 213.8)"/><path d="M332.03 604.94c1.177 0 21.194-164.84 21.194-164.84l17.66 164.84-20.015 28.258-18.84-28.258z" transform="matrix(-.1 0 0 .1 251.4 205.8)"/><path d="M248.44 462.47c29.436 48.274 77.71 121.28 101.26 170.73 26.295-51.807 74.962-128.34 104.79-175.44-31.79 36.107-71.822 88.7-104.79 116.56-33.36-27.866-70.253-78.103-101.26-111.86z" transform="matrix(-.1 0 0 .1 256.5 214.5)"/><path d="M332.03 604.94c1.177 0 21.194-164.84 21.194-164.84l17.66 164.84-20.015 28.258-18.84-28.258z" transform="matrix(-.1 0 0 .1 255.3 212.8)"/><path d="M248.44 462.47c29.436 48.274 77.71 121.28 101.26 170.73 26.295-51.807 74.962-128.34 104.79-175.44-31.79 36.107-71.822 88.7-104.79 116.56-33.36-27.866-70.253-78.103-101.26-111.86z" transform="matrix(-.1 0 0 .1 253.8 212.9)"/><path d="M332.03 604.94c1.177 0 21.194-164.84 21.194-164.84l17.66 164.84-20.015 28.258-18.84-28.258z" transform="matrix(-.1 0 0 .1 248.3 207.9)"/><path d="M248.44 462.47c29.436 48.274 77.71 121.28 101.26 170.73 26.295-51.807 74.962-128.34 104.79-175.44-31.79 36.107-71.822 88.7-104.79 116.56-33.36-27.866-70.253-78.103-101.26-111.86z" transform="matrix(-.1 0 0 .1 252.2 212.4)"/><path d="M332.03 604.94c1.177 0 21.194-164.84 21.194-164.84l17.66 164.84-20.015 28.258-18.84-28.258z" transform="matrix(-.1 0 0 .1 255.8 215.6)"/><path d="M248.44 462.47c29.436 48.274 77.71 121.28 101.26 170.73 26.295-51.807 74.962-128.34 104.79-175.44-31.79 36.107-71.822 88.7-104.79 116.56-33.36-27.866-70.253-78.103-101.26-111.86z" transform="matrix(-.1 0 0 .1 248.8 211)"/><path d="M332.03 604.94c1.177 0 21.194-164.84 21.194-164.84l17.66 164.84-20.015 28.258-18.84-28.258z" transform="matrix(-.1 0 0 .1 238.5 204.6)"/><path d="M248.44 462.47c29.436 48.274 77.71 121.28 101.26 170.73 26.295-51.807 74.962-128.34 104.79-175.44-31.79 36.107-71.822 88.7-104.79 116.56-33.36-27.866-70.253-78.103-101.26-111.86z" transform="matrix(-.1 0 0 .1 249.4 212.5)"/><path d="M332.03 604.94c1.177 0 21.194-164.84 21.194-164.84l17.66 164.84-20.015 28.258-18.84-28.258z" transform="matrix(-.1 0 0 .1 247.8 211.2)"/><path d="M248.44 462.47c29.436 48.274 77.71 121.28 101.26 170.73 26.295-51.807 74.962-128.34 104.79-175.44-31.79 36.107-71.822 88.7-104.79 116.56-33.36-27.866-70.253-78.103-101.26-111.86z" transform="matrix(-.1 0 0 .1 250.2 214)"/><path d="M332.03 604.94c1.177 0 21.194-164.84 21.194-164.84l17.66 164.84-20.015 28.258-18.84-28.258z" transform="matrix(-.1 0 0 .1 243.9 209.9)"/><path d="M248.44 462.47c29.436 48.274 77.71 121.28 101.26 170.73 26.295-51.807 74.962-128.34 104.79-175.44-31.79 36.107-71.822 88.7-104.79 116.56-33.36-27.866-70.253-78.103-101.26-111.86z" transform="matrix(-.1 0 0 .1 250.8 216.9)"/><path d="M332.03 604.94c1.177 0 21.194-164.84 21.194-164.84l17.66 164.84-20.015 28.258-18.84-28.258z" transform="matrix(-.1 0 0 .1 254.4 220)"/><path d="M248.44 462.47c29.436 48.274 77.71 121.28 101.26 170.73 26.295-51.807 74.962-128.34 104.79-175.44-31.79 36.107-71.822 88.7-104.79 116.56-33.36-27.866-70.253-78.103-101.26-111.86z" transform="matrix(-.1 0 0 .1 247.9 214.9)"/><path d="M332.03 604.94c1.177 0 21.194-164.84 21.194-164.84l17.66 164.84-20.015 28.258-18.84-28.258z" transform="matrix(-.1 0 0 .1 236.3 209.8)"/><path d="M248.44 462.47c29.436 48.274 77.71 121.28 101.26 170.73 26.295-51.807 74.962-128.34 104.79-175.44-31.79 36.107-71.822 88.7-104.79 116.56-33.36-27.866-70.253-78.103-101.26-111.86z" transform="matrix(-.1 0 0 .1 242.1 213)"/><path d="M332.03 604.94c1.177 0 21.194-164.84 21.194-164.84l17.66 164.84-20.015 28.258-18.84-28.258z" transform="matrix(-.1 0 0 .1 238.3 210.3)"/><path d="M248.44 462.47c29.436 48.274 77.71 121.28 101.26 170.73 26.295-51.807 74.962-128.34 104.79-175.44-31.79 36.107-71.822 88.7-104.79 116.56-33.36-27.866-70.253-78.103-101.26-111.86z" transform="matrix(-.1 0 0 .1 241.8 214)"/><path d="M332.03 604.94c1.177 0 21.194-164.84 21.194-164.84l17.66 164.84-20.015 28.258-18.84-28.258z" transform="matrix(-.1 0 0 .1 232.9 211.2)"/><path d="M248.44 462.47c29.436 48.274 77.71 121.28 101.26 170.73 26.295-51.807 74.962-128.34 104.79-175.44-31.79 36.107-71.822 88.7-104.79 116.56-33.36-27.866-70.253-78.103-101.26-111.86z" transform="matrix(-.1 0 0 .1 237 213.9)"/><path d="M332.03 604.94c1.177 0 21.194-164.84 21.194-164.84l17.66 164.84-20.015 28.258-18.84-28.258z" transform="matrix(-.1 0 0 .1 243.9 215.7)"/><path d="M248.44 462.47c29.436 48.274 77.71 121.28 101.26 170.73 26.295-51.807 74.962-128.34 104.79-175.44-31.79 36.107-71.822 88.7-104.79 116.56-33.36-27.866-70.253-78.103-101.26-111.86z" transform="matrix(-.1 0 0 .1 233.5 214.5)"/><path d="M332.03 604.94c1.177 0 21.194-164.84 21.194-164.84l17.66 164.84-20.015 28.258-18.84-28.258z" transform="matrix(0 0 0 .1 221.6 214.4)"/><path d="M248.44 462.47c29.436 48.274 77.71 121.28 101.26 170.73 26.295-51.807 74.962-128.34 104.79-175.44-31.79 36.107-71.822 88.7-104.79 116.56-33.36-27.866-70.253-78.103-101.26-111.86z" transform="matrix(-.1 0 0 .1 233.8 216)"/><path d="M332.03 604.94c1.177 0 21.194-164.84 21.194-164.84l17.66 164.84-20.015 28.258-18.84-28.258z" transform="matrix(-.1 0 0 .1 231.9 215.7)"/><path d="M248.44 462.47c29.436 48.274 77.71 121.28 101.26 170.73 26.295-51.807 74.962-128.34 104.79-175.44-31.79 36.107-71.822 88.7-104.79 116.56-33.36-27.866-70.253-78.103-101.26-111.86z" transform="matrix(-.1 0 0 .1 232.5 217.6)"/><path d="M332.03 604.94c1.177 0 21.194-164.84 21.194-164.84l17.66 164.84-20.015 28.258-18.84-28.258z" transform="matrix(0 0 0 .1 225.4 217.8)"/><path d="M248.44 462.47c29.436 48.274 77.71 121.28 101.26 170.73 26.295-51.807 74.962-128.34 104.79-175.44-31.79 36.107-71.822 88.7-104.79 116.56-33.36-27.866-70.253-78.103-101.26-111.86z" transform="matrix(-.1 0 0 .1 232.3 219.5)"/><path d="M332.03 604.94c1.177 0 21.194-164.84 21.194-164.84l17.66 164.84-20.015 28.258-18.84-28.258z" transform="matrix(-.1 0 0 .1 236.9 219.5)"/><path d="M248.44 462.47c29.436 48.274 77.71 121.28 101.26 170.73 26.295-51.807 74.962-128.34 104.79-175.44-31.79 36.107-71.822 88.7-104.79 116.56-33.36-27.866-70.253-78.103-101.26-111.86z" transform="matrix(-.1 0 0 .1 228.9 220.8)"/><path d="M332.03 604.94c1.177 0 21.194-164.84 21.194-164.84l17.66 164.84-20.015 28.258-18.84-28.258z" transform="matrix(0 .1 .1 0 213.9 222.9)"/><path d="M248.44 462.47c29.436 48.274 77.71 121.28 101.26 170.73 26.295-51.807 74.962-128.34 104.79-175.44-31.79 36.107-71.822 88.7-104.79 116.56-33.36-27.866-70.253-78.103-101.26-111.86z" transform="matrix(0 0 0 .1 227.2 221.5)"/><path d="M332.03 604.94c1.177 0 21.194-164.84 21.194-164.84l17.66 164.84-20.015 28.258-18.84-28.258z" transform="matrix(0 0 0 .1 225.2 221.6)"/><path d="M248.44 462.47c29.436 48.274 77.71 121.28 101.26 170.73 26.295-51.807 74.962-128.34 104.79-175.44-31.79 36.107-71.822 88.7-104.79 116.56-33.36-27.866-70.253-78.103-101.26-111.86z" transform="matrix(0 0 0 .1 226.2 223.4)"/><path d="M332.03 604.94c1.177 0 21.194-164.84 21.194-164.84l17.66 164.84-20.015 28.258-18.84-28.258z" transform="matrix(0 .1 0 0 217 226.4)"/><path d="M248.44 462.47c29.436 48.274 77.71 121.28 101.26 170.73 26.295-51.807 74.962-128.34 104.79-175.44-31.79 36.107-71.822 88.7-104.79 116.56-33.36-27.866-70.253-78.103-101.26-111.86z" transform="matrix(0 0 0 .1 224 225.8)"/><path d="M332.03 604.94c1.177 0 21.194-164.84 21.194-164.84l17.66 164.84-20.015 28.258-18.84-28.258z" transform="matrix(0 0 0 .1 228.4 224.3)"/><path d="M248.44 462.47c29.436 48.274 77.71 121.28 101.26 170.73 26.295-51.807 74.962-128.34 104.79-175.44-31.79 36.107-71.822 88.7-104.79 116.56-33.36-27.866-70.253-78.103-101.26-111.86z" transform="matrix(0 .1 0 0 221.1 228.2)"/><path d="M332.03 604.94c1.177 0 21.194-164.84 21.194-164.84l17.66 164.84-20.015 28.258-18.84-28.258z" transform="matrix(0 .1 .1 0 203.7 238.1)"/><path d="M248.44 462.47c29.436 48.274 77.71 121.28 101.26 170.73 26.295-51.807 74.962-128.34 104.79-175.44-31.79 36.107-71.822 88.7-104.79 116.56-33.36-27.866-70.253-78.103-101.26-111.86z" transform="matrix(0 .1 0 0 221.9 229.3)"/><path d="M332.03 604.94c1.177 0 21.194-164.84 21.194-164.84l17.66 164.84-20.015 28.258-18.84-28.258z" transform="matrix(0 .1 .1 0 212.5 232.5)"/><path d="M248.44 462.47c29.436 48.274 77.71 121.28 101.26 170.73 26.295-51.807 74.962-128.34 104.79-175.44-31.79 36.107-71.822 88.7-104.79 116.56-33.36-27.866-70.253-78.103-101.26-111.86z" transform="matrix(0 .1 .1 0 214.1 233.7)"/><path d="M332.03 604.94c1.177 0 21.194-164.84 21.194-164.84l17.66 164.84-20.015 28.258-18.84-28.258z" transform="matrix(0 .1 .1 0 208.6 238.5)"/><path d="M248.44 462.47c29.436 48.274 77.71 121.28 101.26 170.73 26.295-51.807 74.962-128.34 104.79-175.44-31.79 36.107-71.822 88.7-104.79 116.56-33.36-27.866-70.253-78.103-101.26-111.86z" transform="matrix(0 .1 .1 0 214.9 235.4)"/><path d="M332.03 604.94c1.177 0 21.194-164.84 21.194-164.84l17.66 164.84-20.015 28.258-18.84-28.258z" transform="matrix(0 .1 .1 0 218.6 232.4)"/><path d="M248.44 462.47c29.436 48.274 77.71 121.28 101.26 170.73 26.295-51.807 74.962-128.34 104.79-175.44-31.79 36.107-71.822 88.7-104.79 116.56-33.36-27.866-70.253-78.103-101.26-111.86z" transform="matrix(0 .1 .1 0 212.9 238.7)"/><path d="M332.03 604.94c1.177 0 21.194-164.84 21.194-164.84l17.66 164.84-20.015 28.258-18.84-28.258z" transform="matrix(0 .1 .1 0 204.8 248.2)"/><path d="M332.03 604.94c1.177 0 21.194-164.84 21.194-164.84l17.66 164.84-20.015 28.258-18.84-28.258z" transform="matrix(0 0 0 0 274.9 234.9)"/><path d="M248.44 462.47c29.436 48.274 77.71 121.28 101.26 170.73 26.295-51.807 74.962-128.34 104.79-175.44-31.79 36.107-71.822 88.7-104.79 116.56-33.36-27.866-70.253-78.103-101.26-111.86z" transform="matrix(0 0 0 0 272.8 235.1)"/><path d="M332.03 604.94c1.177 0 21.194-164.84 21.194-164.84l17.66 164.84-20.015 28.258-18.84-28.258z" transform="matrix(0 0 0 0 276.8 232)"/><path d="M248.44 462.47c29.436 48.274 77.71 121.28 101.26 170.73 26.295-51.807 74.962-128.34 104.79-175.44-31.79 36.107-71.822 88.7-104.79 116.56-33.36-27.866-70.253-78.103-101.26-111.86z" transform="matrix(0 0 0 0 276.1 231.4)"/><path d="M332.03 604.94c1.177 0 21.194-164.84 21.194-164.84l17.66 164.84-20.015 28.258-18.84-28.258z" transform="matrix(0 0 0 0 270.4 237.2)"/><path d="M248.44 462.47c29.436 48.274 77.71 121.28 101.26 170.73 26.295-51.807 74.962-128.34 104.79-175.44-31.79 36.107-71.822 88.7-104.79 116.56-33.36-27.866-70.253-78.103-101.26-111.86z" transform="matrix(0 0 0 0 272.3 233.9)"/><path d="M332.03 604.94c1.177 0 21.194-164.84 21.194-164.84l17.66 164.84-20.015 28.258-18.84-28.258z" transform="matrix(0 0 0 0 275.1 228.3)"/><path d="M248.44 462.47c29.436 48.274 77.71 121.28 101.26 170.73 26.295-51.807 74.962-128.34 104.79-175.44-31.79 36.107-71.822 88.7-104.79 116.56-33.36-27.866-70.253-78.103-101.26-111.86z" transform="matrix(0 0 0 0 268.2 237.7)"/><path d="M332.03 604.94c1.177 0 21.194-164.84 21.194-164.84l17.66 164.84-20.015 28.258-18.84-28.258z" transform="matrix(0 0 0 0 268.3 236.6)"/><path d="M332.03 604.94c1.177 0 21.194-164.84 21.194-164.84l17.66 164.84-20.015 28.258-18.84-28.258z" transform="matrix(0 .1 .1 0 199.6 249.1)"/><path d="M332.03 604.94c1.177 0 21.194-164.84 21.194-164.84l17.66 164.84-20.015 28.258-18.84-28.258z" transform="matrix(0 .1 .1 0 206.9 241.8)"/><path d="M332.03 604.94c1.177 0 21.194-164.84 21.194-164.84l17.66 164.84-20.015 28.258-18.84-28.258z" transform="matrix(0 .1 .1 0 204.4 248.5)"/><path d="M248.44 462.47c29.436 48.274 77.71 121.28 101.26 170.73 26.295-51.807 74.962-128.34 104.79-175.44-31.79 36.107-71.822 88.7-104.79 116.56-33.36-27.866-70.253-78.103-101.26-111.86z" transform="matrix(0 .1 .1 0 209.9 244.1)"/><path d="M332.03 604.94c1.177 0 21.194-164.84 21.194-164.84l17.66 164.84-20.015 28.258-18.84-28.258z" transform="matrix(0 .1 .1 0 212.8 240.3)"/><path d="M248.44 462.47c29.436 48.274 77.71 121.28 101.26 170.73 26.295-51.807 74.962-128.34 104.79-175.44-31.79 36.107-71.822 88.7-104.79 116.56-33.36-27.866-70.253-78.103-101.26-111.86z" transform="matrix(0 .1 .1 0 208.7 247.7)"/><path d="M332.03 604.94c1.177 0 21.194-164.84 21.194-164.84l17.66 164.84-20.015 28.258-18.84-28.258z" transform="matrix(0 .1 .1 0 203 258.7)"/><path d="M332.03 604.94c1.177 0 21.194-164.84 21.194-164.84l17.66 164.84-20.015 28.258-18.84-28.258z" transform="matrix(0 .1 .1 0 201.5 254)"/><path d="M332.03 604.94c1.177 0 21.194-164.84 21.194-164.84l17.66 164.84-20.015 28.258-18.84-28.258z" transform="matrix(0 .1 .1 0 208.2 246.2)"/><path d="M332.03 604.94c1.177 0 21.194-164.84 21.194-164.84l17.66 164.84-20.015 28.258-18.84-28.258z" transform="matrix(0 .1 .1 0 206.3 253.1)"/><path d="M248.44 462.47c29.436 48.274 77.71 121.28 101.26 170.73 26.295-51.807 74.962-128.34 104.79-175.44-31.79 36.107-71.822 88.7-104.79 116.56-33.36-27.866-70.253-78.103-101.26-111.86z" transform="matrix(0 .1 .1 0 211.4 248.2)"/><path d="M332.03 604.94c1.177 0 21.194-164.84 21.194-164.84l17.66 164.84-20.015 28.258-18.84-28.258z" transform="matrix(0 .1 .1 0 214 244.3)"/><path d="M248.44 462.47c29.436 48.274 77.71 121.28 101.26 170.73 26.295-51.807 74.962-128.34 104.79-175.44-31.79 36.107-71.822 88.7-104.79 116.56-33.36-27.866-70.253-78.103-101.26-111.86z" transform="matrix(0 .1 .1 0 210.5 252)"/><path d="M332.03 604.94c1.177 0 21.194-164.84 21.194-164.84l17.66 164.84-20.015 28.258-18.84-28.258z" transform="matrix(0 .1 .1 0 205.6 263.3)"/></g><path d="M374.65 434.6c0 66.213-53.676 119.89-119.89 119.89-66.213 0-119.89-53.676-119.89-119.89 0-66.213 53.676-119.89 119.89-119.89 66.213 0 119.89 53.676 119.89 119.89z" fill-rule="evenodd" transform="matrix(.2 0 0 .2 212.3 178)" fill="#3d25ca"/><path d="M353.57 628.49l-130.85-89.51-130.85 89.51 49.07-143.21-114.5-89.51h147.21l49.07-143.21 49.068 143.21h147.21l-114.49 89.507 49.07 143.21z" fill-rule="evenodd" transform="matrix(.1 0 0 .1 237.7 217.9)" fill="#ffd900"/><path d="M17.716 379.13l212.6 53.15" fill="none" transform="matrix(.1 0 0 .1 238.5 218.9)"/><path d="M261.532 242.64v19.488M261.532 262.128v8.858M261.532 262.128l8.858 3.543M256.216 256.813l5.315 5.315M261.532 262.128l5.315-5.315M282.79 256.813l-21.258 5.315M261.532 262.128l14.173 17.717M261.532 262.128l-14.174 17.717M252.673 265.672l8.858-3.543" fill="none" stroke-width=".2637"/></g><path d="M298.15 256.007c0 23.266-18.88 42.148-42.147 42.148s-42.148-18.882-42.148-42.148c0-23.265 18.882-42.15 42.148-42.15 23.265 0 42.148 18.884 42.148 42.15zm14.05 0c0 31.02-25.175 56.196-56.196 56.196s-56.196-25.176-56.196-56.196 25.176-56.197 56.196-56.197 56.196 25.176 56.196 56.197z" fill-rule="evenodd" stroke="#000" stroke-width=".27299025" fill="#d60000"/><path d="M298.836 266.082l3.7 1.37 6.14-1.123-.46 1.246-3.2.553c-.596.098-1.186.178-1.77.24.372.4.783.872 1.232 1.415l2.014 2.45-.442 1.194-3.893-4.954-3.7-1.37.38-1.024zM309.243 251.886l.12 1.087-5.352.585c-.93.102-1.68.09-2.246-.037-.57-.126-1.052-.415-1.45-.866-.395-.448-.635-1.068-.722-1.86-.084-.77-.004-1.414.242-1.935.245-.523.64-.92 1.18-1.19.546-.27 1.31-.46 2.29-.568l5.35-.585.12 1.085-5.344.585c-.805.088-1.39.22-1.76.392-.364.174-.632.434-.804.777-.17.348-.23.755-.18 1.222.09.797.355 1.344.8 1.64.446.294 1.25.378 2.413.25l5.343-.584zM301.77 241.032l1.072-.217.7 3.426-3.387.688c-.58-.43-1.047-.9-1.4-1.41-.35-.513-.586-1.062-.706-1.65-.162-.796-.118-1.56.133-2.287.254-.726.71-1.327 1.37-1.806.66-.478 1.438-.808 2.335-.99.89-.18 1.75-.184 2.585-.012.84.174 1.508.533 2.007 1.075.5.542.83 1.216.994 2.023.12.585.118 1.134-.003 1.65-.114.517-.336.95-.663 1.295-.328.346-.785.652-1.37.916l-.495-.904c.44-.216.775-.44 1.004-.675.23-.234.39-.534.478-.9.094-.368.1-.757.017-1.165-.098-.49-.27-.895-.512-1.218-.238-.324-.517-.568-.835-.733-.318-.16-.654-.27-1.006-.325-.607-.093-1.24-.07-1.9.063-.814.165-1.47.426-1.968.783-.498.362-.832.807-1 1.336-.17.53-.2 1.06-.093 1.593.094.463.285.896.574 1.298.294.4.578.69.852.873l1.7-.345-.482-2.378zM262.714 211.594l1.608-9.176 1.075.19-1.417 8.092 4.006.702-.19 1.083-5.082-.89zM253.64 210.977v-9.315h5.97v1.1h-4.876v2.852h4.568v1.093h-4.568v3.17h5.07v1.1h-6.163zM227.838 216.828l1.032-.473c.484.92.672 1.775.565 2.568-.107.788-.487 1.462-1.14 2.02-.677.58-1.36.895-2.05.95-.69.048-1.396-.127-2.123-.526-.724-.4-1.374-.94-1.952-1.617-.63-.737-1.056-1.486-1.276-2.245-.22-.766-.22-1.486-.003-2.162.218-.682.605-1.26 1.158-1.733.628-.537 1.31-.808 2.046-.813.737-.006 1.468.247 2.196.756l-.632.916c-.586-.392-1.118-.586-1.595-.585-.478.002-.927.183-1.347.54-.482.413-.775.89-.877 1.428-.1.537-.027 1.08.218 1.635.243.55.565 1.058.964 1.525.515.603 1.04 1.063 1.58 1.383.54.313 1.07.44 1.588.382.518-.058.968-.25 1.35-.578.466-.398.73-.886.794-1.464.064-.58-.102-1.214-.496-1.908zM223.94 225.025l-6.93-6.226.73-.814 6.93 6.226-.73.813zM219.46 230.315l-7.387-5.678.666-.866 6.513 5.008 2.478-3.224.873.67-3.144 4.09zM205.602 235.808l.403-1.015 5.003 1.983c.87.345 1.528.705 1.97 1.082.443.378.736.86.877 1.445.14.58.062 1.24-.23 1.98-.286.72-.66 1.252-1.12 1.6-.46.345-.994.512-1.6.498-.608-.014-1.37-.204-2.29-.568l-5.003-1.983.403-1.016 4.998 1.98c.752.3 1.332.457 1.738.478.406.014.763-.09 1.076-.314.313-.227.556-.56.73-.995.295-.747.315-1.355.06-1.825-.257-.47-.93-.92-2.016-1.35l-4.998-1.98zM211.042 258.35l-9.315.077-.05-5.97 1.1-.01.04 4.878 2.853-.023-.038-4.568 1.093-.01.038 4.57 3.17-.028-.04-5.07 1.098-.008.052 6.16zM245.832 212.297l-1.843-9.132 2.787-.563c.63-.127 1.118-.18 1.468-.16.488.027.927.165 1.32.415.508.32.932.777 1.27 1.37.34.59.593 1.29.757 2.104.14.694.192 1.323.157 1.888-.037.564-.13 1.046-.284 1.444-.154.394-.345.72-.573.978-.225.253-.516.47-.875.65-.354.18-.776.318-1.266.417l-2.92.59zm.853-1.294l1.728-.35c.535-.107.94-.247 1.22-.42.283-.174.494-.38.633-.62.196-.338.316-.762.36-1.272.044-.514-.003-1.116-.142-1.805-.193-.955-.48-1.66-.863-2.114-.38-.46-.785-.735-1.218-.83-.313-.066-.787-.035-1.424.093l-1.7.344 1.407 6.976zM275.94 216.013l4.308-8.26 2.762 1.44c.486.255.844.475 1.072.66.325.256.56.543.702.86.145.316.202.682.17 1.1-.03.42-.15.835-.364 1.244-.366.703-.874 1.195-1.525 1.476-.65.278-1.492.147-2.527-.393l-1.878-.98-1.75 3.358-.97-.505zm3.23-3.827l1.89.987c.627.326 1.14.427 1.54.3.4-.125.725-.426.974-.903.18-.345.255-.68.227-1.007-.023-.328-.14-.597-.353-.808-.137-.133-.426-.315-.866-.545l-1.872-.976-1.54 2.952zM280.698 218.468l8.582-4.815.876.786-3.706 9.19-.927-.832 1.168-2.743-2.57-2.306-2.558 1.493-.864-.775zm4.328-1.256l2.084 1.87 1.08-2.496c.33-.758.614-1.368.856-1.828-.478.374-.984.716-1.52 1.027l-2.5 1.427zM287.356 224.73l7.39-5.67 2.23 2.903c.447.584.72 1.08.82 1.487.1.405.054.826-.142 1.266-.197.44-.5.816-.905 1.128-.526.402-1.083.59-1.674.566-.59-.025-1.176-.315-1.755-.868.053.325.063.593.034.805-.068.455-.212.945-.43 1.474l-1.138 2.684-.837-1.09.872-2.047c.25-.594.428-1.063.538-1.408.11-.344.16-.62.154-.822-.004-.2-.04-.382-.104-.544-.052-.116-.164-.286-.336-.51l-.77-1.005-3.283 2.518-.664-.868zm4.794-2.3l1.43 1.863c.303.395.587.67.85.825.265.15.543.207.834.17.294-.043.56-.155.8-.338.348-.268.55-.602.6-1 .054-.397-.106-.838-.478-1.324l-1.59-2.073-2.446 1.876zM292.337 231.093l9.68-1.774.573 1.027-6.485 7.493-.607-1.087 1.994-2.216-1.684-3.015-2.905.584-.566-1.013zm4.502.215l1.364 2.444 1.832-2.01c.556-.612 1.023-1.097 1.4-1.453-.572.198-1.162.357-1.77.477l-2.827.54zM300.53 255.21l8.936 4.122-.122 1.17-9.617 2.393.13-1.238 2.906-.665.36-3.434-2.713-1.195.12-1.154zm3.558 2.766l-.29 2.784 2.654-.588c.807-.18 1.468-.308 1.982-.38-.583-.17-1.157-.378-1.723-.63l-2.622-1.186zM212.513 266.912l-9.097 2.005-.788-3.575c-.158-.72-.196-1.283-.113-1.693.08-.41.3-.773.665-1.09.364-.313.797-.526 1.297-.636.646-.142 1.23-.077 1.755.196.524.272.932.783 1.222 1.53.09-.316.195-.564.31-.744.255-.383.594-.766 1.016-1.152l2.167-1.948.296 1.342-1.658 1.484c-.477.432-.838.78-1.083 1.047-.246.264-.408.49-.488.677-.082.184-.127.363-.136.537-.002.128.027.33.087.604l.273 1.237 4.04-.89.235 1.067zm-5.317.053l-.506-2.293c-.107-.488-.247-.857-.42-1.108-.176-.25-.404-.418-.684-.507-.284-.087-.572-.098-.866-.033-.43.095-.753.312-.97.65-.216.338-.258.805-.126 1.403l.562 2.55 3.01-.662zM211.38 250.095l-9.283-.8.267-3.102c.047-.547.113-.96.197-1.244.112-.398.286-.724.525-.98.235-.254.55-.447.95-.58.398-.134.827-.182 1.287-.143.79.068 1.44.35 1.95.84.506.493.71 1.32.61 2.485l-.183 2.11 3.772.324-.093 1.09zm-4.776-1.508l.183-2.127c.06-.703-.044-1.215-.314-1.536-.27-.32-.673-.505-1.21-.55-.388-.034-.727.025-1.016.177-.293.15-.497.362-.61.638-.07.18-.127.515-.17 1.01l-.18 2.104 3.317.285zM215.27 236.326l-7.75-5.168 1.72-2.578c.35-.524.708-.89 1.078-1.102.367-.214.774-.302 1.22-.262.446.035.846.172 1.202.41.332.22.59.507.777.86.186.356.262.754.227 1.196.415-.324.86-.486 1.34-.488.482-.004.95.144 1.4.445.363.24.655.536.877.882.222.342.35.67.386.98s-.003.652-.117 1.014c-.117.356-.32.753-.612 1.19l-1.747 2.62zm-3.886-3.906l.99-1.485c.27-.403.432-.713.488-.927.077-.283.064-.542-.038-.778-.1-.238-.287-.448-.56-.63-.256-.17-.518-.266-.785-.286-.27-.023-.51.045-.715.2-.21.155-.48.478-.808.97l-.915 1.375 2.342 1.56zm3.58 2.387l1.14-1.71c.196-.295.32-.51.375-.644.096-.238.142-.46.137-.666-.005-.206-.07-.418-.196-.633-.13-.217-.318-.408-.564-.573-.29-.19-.583-.292-.882-.302-.303-.013-.575.07-.815.25-.244.17-.51.476-.802.914l-1.06 1.588 2.665 1.777zM230.624 218.47l-2.268-9.576.997-.626 7.815 6.092-1.053.662-2.316-1.878-2.926 1.837.732 2.873-.982.617zm-.016-4.507l2.37-1.49-2.1-1.726c-.64-.523-1.15-.965-1.525-1.324.23.562.42 1.143.57 1.744l.685 2.796z" fill="#ffe600"/></g></svg>