<svg xmlns="http://www.w3.org/2000/svg" height="480" width="640"><defs><clipPath id="a"><path fill-opacity=".67" d="M-64 0h640v512H-64z"/></clipPath></defs><g clip-path="url(#a)" transform="matrix(1 0 0 .9375 64 0)"><g fill-rule="evenodd" stroke-width="1pt"><path fill="#fff" d="M-256 171.886H767.977v168.222H-256z"/><path fill="#3d25ca" d="M-256 340.108H767.977v171.886H-256z"/><path fill="#d60000" d="M-256 0H767.977v171.886H-256z"/></g><path d="M744.14 567.26c0 192.48-157.09 348.52-350.87 348.52S42.4 759.74 42.4 567.26s157.09-348.52 350.87-348.52 350.87 156.04 350.87 348.52z" fill-rule="evenodd" transform="matrix(.1876 0 0 .18888 182.22 148.86)" stroke="#000" stroke-width="12.91" fill="#fff"/><g stroke="#000" stroke-width="2.637"><g fill-rule="evenodd" fill="#006700"><path d="M259.03 105.71s400.32 70.645 414.45 395.62c14.13 324.97-188.39 367.36-259.03 419.16-70.645 51.807-113.03 113.03-146 113.03-32.968 0-80.065-14.13-80.065-14.13s9.42 51.81 75.355 47.1c65.936-4.71 127.16-113.03 164.84-131.87s277.88-98.9 259.04-428.58c-14.13-353.23-423.88-390.91-428.59-400.33z" transform="matrix(.066 .0151 -.01645 .06856 249.5 214.222)"/><path d="M320.26 487.2c0 59.825-11.597 108.32-25.903 108.32s-25.903-48.498-25.903-108.32c0-59.825 11.597-108.32 25.903-108.32s25.903 48.498 25.903 108.32z" transform="matrix(.03212 -.00246 .0079 .031 263.486 215.854)"/><path d="M320.26 487.2c0 59.825-11.597 108.32-25.903 108.32s-25.903-48.498-25.903-108.32c0-59.825 11.597-108.32 25.903-108.32s25.903 48.498 25.903 108.32z" transform="matrix(.02908 -.01062 .01463 .02956 260.3 219.402)"/><path d="M320.26 487.2c0 59.825-11.597 108.32-25.903 108.32s-25.903-48.498-25.903-108.32c0-59.825 11.597-108.32 25.903-108.32s25.903 48.498 25.903 108.32z" transform="matrix(.00305 -.033 .02994 .00876 258.657 238.372)"/><path d="M320.26 487.2c0 59.825-11.597 108.32-25.903 108.32s-25.903-48.498-25.903-108.32c0-59.825 11.597-108.32 25.903-108.32s25.903 48.498 25.903 108.32z" transform="matrix(.01403 -.02782 .02727 .0183 256.813 231.15)"/><path d="M320.26 487.2c0 59.825-11.597 108.32-25.903 108.32s-25.903-48.498-25.903-108.32c0-59.825 11.597-108.32 25.903-108.32s25.903 48.498 25.903 108.32z" transform="matrix(.02123 -.02176 .02316 .02407 257.576 225.953)"/><path d="M151.53 682.7c0 1.665-41.628-24.978-49.954-33.303-8.333-8.33-6.668-46.62-33.31-64.94s-54.95-9.99-68.27 1.66c-13.32 11.656-8.326 38.298 23.312 61.61s53.284 1.666 69.936 9.99c16.65 8.327 43.294 24.977 56.615 38.298 13.32-9.99 46.622-21.646 64.94-29.972 18.315-8.325 64.94 11.656 96.577-11.656 26.642-18.316 38.297-56.614 19.98-68.27-18.316-11.656-51.618-6.66-71.6 4.996-19.98 11.656-29.97 58.28-49.954 66.605-14.986 4.995-56.614 28.307-58.28 24.977z" transform="matrix(.01818 -.01864 .00872 .00906 268.716 230.52)"/><path d="M320.26 487.2c0 59.825-11.597 108.32-25.903 108.32s-25.903-48.498-25.903-108.32c0-59.825 11.597-108.32 25.903-108.32s25.903 48.498 25.903 108.32z" transform="matrix(.0453 .01085 .00068 .04793 270.406 209.65)"/><path d="M320.26 487.2c0 59.825-11.597 108.32-25.903 108.32s-25.903-48.498-25.903-108.32c0-59.825 11.597-108.32 25.903-108.32s25.903 48.498 25.903 108.32z" transform="matrix(.0438 -.0022 .01047 .04888 264.82 213.304)"/><path d="M320.26 487.2c0 59.825-11.597 108.32-25.903 108.32s-25.903-48.498-25.903-108.32c0-59.825 11.597-108.32 25.903-108.32s25.903 48.498 25.903 108.32z" transform="matrix(.01515 -.0459 .03857 .02595 256.26 239.736)"/><path d="M320.26 487.2c0 59.825-11.597 108.32-25.903 108.32s-25.903-48.498-25.903-108.32c0-59.825 11.597-108.32 25.903-108.32s25.903 48.498 25.903 108.32z" transform="matrix(.02863 -.03356 .0317 .0384 256.1 228.57)"/><path d="M320.26 487.2c0 59.825-11.597 108.32-25.903 108.32s-25.903-48.498-25.903-108.32c0-59.825 11.597-108.32 25.903-108.32s25.903 48.498 25.903 108.32z" transform="matrix(.0366 -.02166 .0241 .04484 258.877 221.467)"/><path d="M151.53 682.7c0 1.665-41.628-24.978-49.954-33.303-8.333-8.33-6.668-46.62-33.31-64.94s-54.95-9.99-68.27 1.66c-13.32 11.656-8.326 38.298 23.312 61.61s53.284 1.666 69.936 9.99c16.65 8.327 43.294 24.977 56.615 38.298 13.32-9.99 46.622-21.646 64.94-29.972 18.315-8.325 64.94 11.656 96.577-11.656 26.642-18.316 38.297-56.614 19.98-68.27-18.316-11.656-51.618-6.66-71.6 4.996-19.98 11.656-29.97 58.28-49.954 66.605-14.986 4.995-56.614 28.307-58.28 24.977z" transform="matrix(.03135 -.01855 .00907 .01688 272.792 232.992)"/><g><path d="M320.26 487.2c0 59.825-11.597 108.32-25.903 108.32s-25.903-48.498-25.903-108.32c0-59.825 11.597-108.32 25.903-108.32s25.903 48.498 25.903 108.32z" transform="matrix(.04232 .0194 -.00798 .04747 279.7 217.6)"/><path d="M320.26 487.2c0 59.825-11.597 108.32-25.903 108.32s-25.903-48.498-25.903-108.32c0-59.825 11.597-108.32 25.903-108.32s25.903 48.498 25.903 108.32z" transform="matrix(.0432 .00624 .00142 .0503 273.58 220.136)"/><path d="M320.26 487.2c0 59.825-11.597 108.32-25.903 108.32s-25.903-48.498-25.903-108.32c0-59.825 11.597-108.32 25.903-108.32s25.903 48.498 25.903 108.32z" transform="matrix(.0231 -.04243 .033 .03304 260.445 244.597)"/><path d="M320.26 487.2c0 59.825-11.597 108.32-25.903 108.32s-25.903-48.498-25.903-108.32c0-59.825 11.597-108.32 25.903-108.32s25.903 48.498 25.903 108.32z" transform="matrix(.03404 -.02764 .02407 .044 262.302 233.537)"/><path d="M320.26 487.2c0 59.825-11.597 108.32-25.903 108.32s-25.903-48.498-25.903-108.32c0-59.825 11.597-108.32 25.903-108.32s25.903 48.498 25.903 108.32z" transform="matrix(.0397 -.01436 .01547 .0489 266.298 227.056)"/><path d="M151.53 682.7c0 1.665-41.628-24.978-49.954-33.303-8.333-8.33-6.668-46.62-33.31-64.94s-54.95-9.99-68.27 1.66c-13.32 11.656-8.326 38.298 23.312 61.61s53.284 1.666 69.936 9.99c16.65 8.327 43.294 24.977 56.615 38.298 13.32-9.99 46.622-21.646 64.94-29.972 18.315-8.325 64.94 11.656 96.577-11.656 26.642-18.316 38.297-56.614 19.98-68.27-18.316-11.656-51.618-6.66-71.6 4.996-19.98 11.656-29.97 58.28-49.954 66.605-14.986 4.995-56.614 28.307-58.28 24.977z" transform="matrix(.034 -.0123 .00582 .0184 277.82 241.112)"/></g><g><path d="M320.26 487.2c0 59.825-11.597 108.32-25.903 108.32s-25.903-48.498-25.903-108.32c0-59.825 11.597-108.32 25.903-108.32s25.903 48.498 25.903 108.32z" transform="matrix(.03077 .0355 -.02566 .04072 292.31 227.428)"/><path d="M320.26 487.2c0 59.825-11.597 108.32-25.903 108.32s-25.903-48.498-25.903-108.32c0-59.825 11.597-108.32 25.903-108.32s25.903 48.498 25.903 108.32z" transform="matrix(.0367 .02365 -.01824 .04722 285.787 227.25)"/><path d="M320.26 487.2c0 59.825-11.597 108.32-25.903 108.32s-25.903-48.498-25.903-108.32c0-59.825 11.597-108.32 25.903-108.32s25.903 48.498 25.903 108.32z" transform="matrix(.03738 -.0298 .01706 .0443 264.4 244.504)"/><path d="M320.26 487.2c0 59.825-11.597 108.32-25.903 108.32s-25.903-48.498-25.903-108.32c0-59.825 11.597-108.32 25.903-108.32s25.903 48.498 25.903 108.32z" transform="matrix(.04155 -.01156 .0047 .05077 270.375 235.015)"/><path d="M320.26 487.2c0 59.825-11.597 108.32-25.903 108.32s-25.903-48.498-25.903-108.32c0-59.825 11.597-108.32 25.903-108.32s25.903 48.498 25.903 108.32z" transform="matrix(.0415 .0031 -.005 .05175 276.508 230.658)"/><path d="M151.53 682.7c0 1.665-41.628-24.978-49.954-33.303-8.333-8.33-6.668-46.62-33.31-64.94s-54.95-9.99-68.27 1.66c-13.32 11.656-8.326 38.298 23.312 61.61s53.284 1.666 69.936 9.99c16.65 8.327 43.294 24.977 56.615 38.298 13.32-9.99 46.622-21.646 64.94-29.972 18.315-8.325 64.94 11.656 96.577-11.656 26.642-18.316 38.297-56.614 19.98-68.27-18.316-11.656-51.618-6.66-71.6 4.996-19.98 11.656-29.97 58.28-49.954 66.605-14.986 4.995-56.614 28.307-58.28 24.977z" transform="matrix(.03555 .00265 -.00188 .01948 281.482 248.455)"/></g><g><path d="M320.26 487.2c0 59.825-11.597 108.32-25.903 108.32s-25.903-48.498-25.903-108.32c0-59.825 11.597-108.32 25.903-108.32s25.903 48.498 25.903 108.32z" transform="matrix(.0222 .0503 -.04163 .03566 299.684 237)"/><path d="M320.26 487.2c0 59.825-11.597 108.32-25.903 108.32s-25.903-48.498-25.903-108.32c0-59.825 11.597-108.32 25.903-108.32s25.903 48.498 25.903 108.32z" transform="matrix(.0326 .03937 -.0356 .04552 292.56 234.443)"/><path d="M320.26 487.2c0 59.825-11.597 108.32-25.903 108.32s-25.903-48.498-25.903-108.32c0-59.825 11.597-108.32 25.903-108.32s25.903 48.498 25.903 108.32z" transform="matrix(.05094 -.01937 .00422 .05506 263.347 245.75)"/><path d="M320.26 487.2c0 59.825-11.597 108.32-25.903 108.32s-25.903-48.498-25.903-108.32c0-59.825 11.597-108.32 25.903-108.32s25.903 48.498 25.903 108.32z" transform="matrix(.04954 .00227 -.0115 .05774 273.043 237.437)"/><path d="M320.26 487.2c0 59.825-11.597 108.32-25.903 108.32s-25.903-48.498-25.903-108.32c0-59.825 11.597-108.32 25.903-108.32s25.903 48.498 25.903 108.32z" transform="matrix(.04468 .01843 -.0225 .05532 281.226 234.846)"/><path d="M151.53 682.7c0 1.665-41.628-24.978-49.954-33.303-8.333-8.33-6.668-46.62-33.31-64.94s-54.95-9.99-68.27 1.66c-13.32 11.656-8.326 38.298 23.312 61.61s53.284 1.666 69.936 9.99c16.65 8.327 43.294 24.977 56.615 38.298 13.32-9.99 46.622-21.646 64.94-29.972 18.315-8.325 64.94 11.656 96.577-11.656 26.642-18.316 38.297-56.614 19.98-68.27-18.316-11.656-51.618-6.66-71.6 4.996-19.98 11.656-29.97 58.28-49.954 66.605-14.986 4.995-56.614 28.307-58.28 24.977z" transform="matrix(.03826 .01578 -.00847 .02082 280.852 256.29)"/></g><g><path d="M320.26 487.2c0 59.825-11.597 108.32-25.903 108.32s-25.903-48.498-25.903-108.32c0-59.825 11.597-108.32 25.903-108.32s25.903 48.498 25.903 108.32z" transform="matrix(-.00605 .0607 -.05965 .00984 309.392 256.624)"/><path d="M320.26 487.2c0 59.825-11.597 108.32-25.903 108.32s-25.903-48.498-25.903-108.32c0-59.825 11.597-108.32 25.903-108.32s25.903 48.498 25.903 108.32z" transform="matrix(.00997 .0563 -.05922 .0227 303.913 250.074)"/><path d="M320.26 487.2c0 59.825-11.597 108.32-25.903 108.32s-25.903-48.498-25.903-108.32c0-59.825 11.597-108.32 25.903-108.32s25.903 48.498 25.903 108.32z" transform="matrix(.05974 .01104 -.026 .0548 269.542 243.93)"/><path d="M320.26 487.2c0 59.825-11.597 108.32-25.903 108.32s-25.903-48.498-25.903-108.32c0-59.825 11.597-108.32 25.903-108.32s25.903 48.498 25.903 108.32z" transform="matrix(.04657 .0308 -.04264 .04825 283.44 241.633)"/><path d="M320.26 487.2c0 59.825-11.597 108.32-25.903 108.32s-25.903-48.498-25.903-108.32c0-59.825 11.597-108.32 25.903-108.32s25.903 48.498 25.903 108.32z" transform="matrix(.03306 .04336 -.05193 .0396 292.753 243.902)"/><path d="M151.53 682.7c0 1.665-41.628-24.978-49.954-33.303-8.333-8.33-6.668-46.62-33.31-64.94s-54.95-9.99-68.27 1.66c-13.32 11.656-8.326 38.298 23.312 61.61s53.284 1.666 69.936 9.99c16.65 8.327 43.294 24.977 56.615 38.298 13.32-9.99 46.622-21.646 64.94-29.972 18.315-8.325 64.94 11.656 96.577-11.656 26.642-18.316 38.297-56.614 19.98-68.27-18.316-11.656-51.618-6.66-71.6 4.996-19.98 11.656-29.97 58.28-49.954 66.605-14.986 4.995-56.614 28.307-58.28 24.977z" transform="matrix(.0283 .03714 -.01955 .0149 280.68 264.08)"/></g><g><path d="M314.71 506.2c0 45.062-10.064 81.59-22.48 81.59s-22.478-36.53-22.478-81.59c0-45.062 10.064-81.59 22.48-81.59s22.478 36.53 22.478 81.59z" transform="matrix(-.00024 .08488 -.08138 .0012 308.997 259.352)"/><path d="M314.71 506.2c0 45.062-10.064 81.59-22.48 81.59s-22.478-36.53-22.478-81.59c0-45.062 10.064-81.59 22.48-81.59s22.478 36.53 22.478 81.59z" transform="matrix(.06296 .05265 -.05156 .06658 273.132 230.43)"/><path d="M314.71 506.2c0 45.062-10.064 81.59-22.48 81.59s-22.478-36.53-22.478-81.59c0-45.062 10.064-81.59 22.48-81.59s22.478 36.53 22.478 81.59z" transform="matrix(.03 .07837 -.07565 .03262 296.642 242.574)"/></g><g><path d="M314.71 506.2c0 45.062-10.064 81.59-22.48 81.59s-22.478-36.53-22.478-81.59c0-45.062 10.064-81.59 22.48-81.59s22.478 36.53 22.478 81.59z" transform="matrix(.03483 -.01897 .03747 .03374 239.666 214.846)"/><path d="M314.71 506.2c0 45.062-10.064 81.59-22.48 81.59s-22.478-36.53-22.478-81.59c0-45.062 10.064-81.59 22.48-81.59s22.478 36.53 22.478 81.59z" transform="matrix(-.00707 -.03814 .05066 .00658 244.13 236.333)"/><path d="M314.71 506.2c0 45.062-10.064 81.59-22.48 81.59s-22.478-36.53-22.478-81.59c0-45.062 10.064-81.59 22.48-81.59s22.478 36.53 22.478 81.59z" transform="matrix(.01843 -.03014 .04772 .02428 238.417 223.78)"/></g></g><g fill-rule="evenodd" fill="#006700"><path d="M339.1 586.1s113.03 32.968 211.94 89.484c98.904 56.516 252.16 272.38 292.21 280.92 44.682-1.342 105.85-37.846 126.48-164.27-67.86 43.25-107.82 101.54-174.96 40.06-23.55-14.13-102.44-137.87-187.22-199.09-84.77-61.23-254.32-122.45-254.32-122.45L339.1 586.11z" transform="matrix(.04956 .00303 -.00114 .0258 222.3 264.048)"/><path d="M332.03 604.94c1.177 0 21.194-164.84 21.194-164.84l17.66 164.84-20.015 28.258-18.84-28.258z" transform="matrix(-.01694 -.0405 -.04104 .0153 274.825 234.085)"/><path d="M248.44 462.47c29.436 48.274 77.71 121.28 101.26 170.73 26.295-51.807 74.962-128.34 104.79-175.44-31.79 36.107-71.822 88.7-104.79 116.56-33.36-27.866-70.253-78.103-101.26-111.86z" transform="matrix(-.01698 -.04048 -.04102 .01534 273.642 234.412)"/><path d="M332.03 604.94c1.177 0 21.194-164.84 21.194-164.84l17.66 164.84-20.015 28.258-18.84-28.258z" transform="matrix(-.02365 -.0373 -.03757 .02194 273.8 229.402)"/><path d="M248.44 462.47c29.436 48.274 77.71 121.28 101.26 170.73 26.295-51.807 74.962-128.34 104.79-175.44-31.79 36.107-71.822 88.7-104.79 116.56-33.36-27.866-70.253-78.103-101.26-111.86z" transform="matrix(-.0178 -.0419 -.04087 .0157 272.63 234.528)"/><path d="M332.03 604.94c1.177 0 21.194-164.84 21.194-164.84l17.66 164.84-20.015 28.258-18.84-28.258z" transform="matrix(-.01326 -.04168 -.04237 .01167 272.308 237.418)"/><path d="M248.44 462.47c29.436 48.274 77.71 121.28 101.26 170.73 26.295-51.807 74.962-128.34 104.79-175.44-31.79 36.107-71.822 88.7-104.79 116.56-33.36-27.866-70.253-78.103-101.26-111.86z" transform="matrix(-.02254 -.04064 -.03858 .02042 271.993 232.093)"/><path d="M332.03 604.94c1.177 0 21.194-164.84 21.194-164.84l17.66 164.84-20.015 28.258-18.84-28.258z" transform="matrix(-.03122 -.03168 -.03156 .0295 271.056 223.343)"/><path d="M248.44 462.47c29.436 48.274 77.71 121.28 101.26 170.73 26.295-51.807 74.962-128.34 104.79-175.44-31.79 36.107-71.822 88.7-104.79 116.56-33.36-27.866-70.253-78.103-101.26-111.86z" transform="matrix(-.02805 -.04276 -.03896 .025 273.494 230.863)"/><path d="M332.03 604.94c1.177 0 21.194-164.84 21.194-164.84l17.66 164.84-20.015 28.258-18.84-28.258z" transform="matrix(-.0298 -.04116 -.0373 .0268 273.128 229.43)"/><path d="M248.44 462.47c29.436 48.274 77.71 121.28 101.26 170.73 26.295-51.807 74.962-128.34 104.79-175.44-31.79 36.107-71.822 88.7-104.79 116.56-33.36-27.866-70.253-78.103-101.26-111.86z" transform="matrix(-.0214 -.0464 -.0472 .02852 274.448 230.32)"/><path d="M332.03 604.94c1.177 0 21.194-164.84 21.194-164.84l17.66 164.84-20.015 28.258-18.84-28.258z" transform="matrix(-.02362 -.0446 -.04577 .03046 274.35 228.753)"/><path d="M248.44 462.47c29.436 48.274 77.71 121.28 101.26 170.73 26.295-51.807 74.962-128.34 104.79-175.44-31.79 36.107-71.822 88.7-104.79 116.56-33.36-27.866-70.253-78.103-101.26-111.86z" transform="matrix(-.02785 -.04226 -.04268 .03437 272.907 226.763)"/><path d="M332.03 604.94c1.177 0 21.194-164.84 21.194-164.84l17.66 164.84-20.015 28.258-18.84-28.258z" transform="matrix(-.03464 -.03587 -.03738 .041 271.995 220.658)"/><path d="M248.44 462.47c29.436 48.274 77.71 121.28 101.26 170.73 26.295-51.807 74.962-128.34 104.79-175.44-31.79 36.107-71.822 88.7-104.79 116.56-33.36-27.866-70.253-78.103-101.26-111.86z" transform="matrix(-.02544 -.0436 -.04456 .03217 271.588 229)"/><path d="M332.03 604.94c1.177 0 21.194-164.84 21.194-164.84l17.66 164.84-20.015 28.258-18.84-28.258z" transform="matrix(-.02393 -.04515 -.045 .03047 272.064 230.905)"/><path d="M248.44 462.47c29.436 48.274 77.71 121.28 101.26 170.73 26.295-51.807 74.962-128.34 104.79-175.44-31.79 36.107-71.822 88.7-104.79 116.56-33.36-27.866-70.253-78.103-101.26-111.86z" transform="matrix(-.03027 -.0397 -.04144 .03685 270.49 226.183)"/><path d="M332.03 604.94c1.177 0 21.194-164.84 21.194-164.84l17.66 164.84-20.015 28.258-18.84-28.258z" transform="matrix(-.04016 -.02854 -.03194 .04605 268.402 216.27)"/><path d="M248.44 462.47c29.436 48.274 77.71 121.28 101.26 170.73 26.295-51.807 74.962-128.34 104.79-175.44-31.79 36.107-71.822 88.7-104.79 116.56-33.36-27.866-70.253-78.103-101.26-111.86z" transform="matrix(-.0381 -.04304 -.04103 .04296 272.25 224.642)"/><path d="M332.03 604.94c1.177 0 21.194-164.84 21.194-164.84l17.66 164.84-20.015 28.258-18.84-28.258z" transform="matrix(-.03988 -.04053 -.03886 .04462 271.63 223.017)"/><path d="M248.44 462.47c29.436 48.274 77.71 121.28 101.26 170.73 26.295-51.807 74.962-128.34 104.79-175.44-31.79 36.107-71.822 88.7-104.79 116.56-33.36-27.866-70.253-78.103-101.26-111.86z" transform="matrix(-.03992 -.04048 -.03882 .04466 270.45 224.16)"/><path d="M332.03 604.94c1.177 0 21.194-164.84 21.194-164.84l17.66 164.84-20.015 28.258-18.84-28.258z" transform="matrix(-.0459 -.03238 -.03154 .05084 268.078 217.752)"/><path d="M248.44 462.47c29.436 48.274 77.71 121.28 101.26 170.73 26.295-51.807 74.962-128.34 104.79-175.44-31.79 36.107-71.822 88.7-104.79 116.56-33.36-27.866-70.253-78.103-101.26-111.86z" transform="matrix(-.03608 -.04362 -.0427 .04134 270.132 227.704)"/><path d="M332.03 604.94c1.177 0 21.194-164.84 21.194-164.84l17.66 164.84-20.015 28.258-18.84-28.258z" transform="matrix(-.0318 -.0474 -.046 .03695 271.137 232.014)"/><path d="M248.44 462.47c29.436 48.274 77.71 121.28 101.26 170.73 26.295-51.807 74.962-128.34 104.79-175.44-31.79 36.107-71.822 88.7-104.79 116.56-33.36-27.866-70.253-78.103-101.26-111.86z" transform="matrix(-.03255 -.04796 -.04425 .03785 268.576 231.633)"/><path d="M332.03 604.94c1.177 0 21.194-164.84 21.194-164.84l17.66 164.84-20.015 28.258-18.84-28.258z" transform="matrix(-.0431 -.03623 -.03405 .0492 266.304 220.184)"/><path d="M248.44 462.47c29.436 48.274 77.71 121.28 101.26 170.73 26.295-51.807 74.962-128.34 104.79-175.44-31.79 36.107-71.822 88.7-104.79 116.56-33.36-27.866-70.253-78.103-101.26-111.86z" transform="matrix(-.04453 -.04347 -.04256 .05505 271.157 221.506)"/><path d="M332.03 604.94c1.177 0 21.194-164.84 21.194-164.84l17.66 164.84-20.015 28.258-18.84-28.258z" transform="matrix(-.04633 -.04034 -.04008 .05662 270.376 219.744)"/><path d="M248.44 462.47c29.436 48.274 77.71 121.28 101.26 170.73 26.295-51.807 74.962-128.34 104.79-175.44-31.79 36.107-71.822 88.7-104.79 116.56-33.36-27.866-70.253-78.103-101.26-111.86z" transform="matrix(-.04638 -.04028 -.04003 .05667 269.148 221.22)"/><path d="M332.03 604.94c1.177 0 21.194-164.84 21.194-164.84l17.66 164.84-20.015 28.258-18.84-28.258z" transform="matrix(-.05246 -.03016 -.03164 .06264 266.15 214.264)"/><path d="M248.44 462.47c29.436 48.274 77.71 121.28 101.26 170.73 26.295-51.807 74.962-128.34 104.79-175.44-31.79 36.107-71.822 88.7-104.79 116.56-33.36-27.866-70.253-78.103-101.26-111.86z" transform="matrix(-.04667 -.03987 -.0397 .05695 267.626 221.9)"/><path d="M332.03 604.94c1.177 0 21.194-164.84 21.194-164.84l17.66 164.84-20.015 28.258-18.84-28.258z" transform="matrix(-.04263 -.04517 -.044 .05285 269.444 226.476)"/><path d="M248.44 462.47c29.436 48.274 77.71 121.28 101.26 170.73 26.295-51.807 74.962-128.34 104.79-175.44-31.79 36.107-71.822 88.7-104.79 116.56-33.36-27.866-70.253-78.103-101.26-111.86z" transform="matrix(-.05445 -.02632 -.02756 .06456 263.637 214.52)"/><path d="M332.03 604.94c1.177 0 21.194-164.84 21.194-164.84l17.66 164.84-20.015 28.258-18.84-28.258z" transform="matrix(-.0598 -.00828 -.01215 .06922 256.185 204.795)"/><path d="M248.44 462.47c29.436 48.274 77.71 121.28 101.26 170.73 26.295-51.807 74.962-128.34 104.79-175.44-31.79 36.107-71.822 88.7-104.79 116.56-33.36-27.866-70.253-78.103-101.26-111.86z" transform="matrix(-.05432 -.02663 -.0278 .06443 262.893 215.72)"/><path d="M332.03 604.94c1.177 0 21.194-164.84 21.194-164.84l17.66 164.84-20.015 28.258-18.84-28.258z" transform="matrix(-.05562 -.02342 -.0251 .06566 261.896 213.93)"/><path d="M248.44 462.47c29.436 48.274 77.71 121.28 101.26 170.73 26.295-51.807 74.962-128.34 104.79-175.44-31.79 36.107-71.822 88.7-104.79 116.56-33.36-27.866-70.253-78.103-101.26-111.86z" transform="matrix(-.05906 -.02078 -.02157 .0694 260.856 212.244)"/><path d="M332.03 604.94c1.177 0 21.194-164.84 21.194-164.84l17.66 164.84-20.015 28.258-18.84-28.258z" transform="matrix(-.06185 -.0088 -.0113 .0719 255.638 206.743)"/><path d="M248.44 462.47c29.436 48.274 77.71 121.28 101.26 170.73 26.295-51.807 74.962-128.34 104.79-175.44-31.79 36.107-71.822 88.7-104.79 116.56-33.36-27.866-70.253-78.103-101.26-111.86z" transform="matrix(-.05676 -.02686 -.027 .06733 261.922 216.71)"/><path d="M332.03 604.94c1.177 0 21.194-164.84 21.194-164.84l17.66 164.84-20.015 28.258-18.84-28.258z" transform="matrix(-.0539 -.03322 -.03236 .06443 264.84 220.757)"/><path d="M248.44 462.47c29.436 48.274 77.71 121.28 101.26 170.73 26.295-51.807 74.962-128.34 104.79-175.44-31.79 36.107-71.822 88.7-104.79 116.56-33.36-27.866-70.253-78.103-101.26-111.86z" transform="matrix(-.056 -.0209 -.0204 .07044 258.62 213.837)"/><path d="M332.03 604.94c1.177 0 21.194-164.84 21.194-164.84l17.66 164.84-20.015 28.258-18.84-28.258z" transform="matrix(-.06266 -.00124 -.00505 .07247 251.394 205.848)"/><path d="M248.44 462.47c29.436 48.274 77.71 121.28 101.26 170.73 26.295-51.807 74.962-128.34 104.79-175.44-31.79 36.107-71.822 88.7-104.79 116.56-33.36-27.866-70.253-78.103-101.26-111.86z" transform="matrix(-.05654 -.02045 -.0183 .07068 256.493 214.504)"/><path d="M332.03 604.94c1.177 0 21.194-164.84 21.194-164.84l17.66 164.84-20.015 28.258-18.84-28.258z" transform="matrix(-.05737 -.01694 -.0155 .0716 255.28 212.775)"/><path d="M248.44 462.47c29.436 48.274 77.71 121.28 101.26 170.73 26.295-51.807 74.962-128.34 104.79-175.44-31.79 36.107-71.822 88.7-104.79 116.56-33.36-27.866-70.253-78.103-101.26-111.86z" transform="matrix(-.05798 -.01483 -.0129 .07208 253.805 212.935)"/><path d="M332.03 604.94c1.177 0 21.194-164.84 21.194-164.84l17.66 164.84-20.015 28.258-18.84-28.258z" transform="matrix(-.05932 -.00248 -.00295 .07355 248.29 207.934)"/><path d="M248.44 462.47c29.436 48.274 77.71 121.28 101.26 170.73 26.295-51.807 74.962-128.34 104.79-175.44-31.79 36.107-71.822 88.7-104.79 116.56-33.36-27.866-70.253-78.103-101.26-111.86z" transform="matrix(-.059 -.0119 -.0093 .07326 252.16 212.36)"/><path d="M332.03 604.94c1.177 0 21.194-164.84 21.194-164.84l17.66 164.84-20.015 28.258-18.84-28.258z" transform="matrix(-.05783 -.0189 -.01495 .07178 255.82 215.6)"/><path d="M248.44 462.47c29.436 48.274 77.71 121.28 101.26 170.73 26.295-51.807 74.962-128.34 104.79-175.44-31.79 36.107-71.822 88.7-104.79 116.56-33.36-27.866-70.253-78.103-101.26-111.86z" transform="matrix(-.05967 -.00362 -.00265 .07414 248.804 211.035)"/><path d="M332.03 604.94c1.177 0 21.194-164.84 21.194-164.84l17.66 164.84-20.015 28.258-18.84-28.258z" transform="matrix(-.05824 .01614 .01325 .07245 238.47 204.567)"/><path d="M248.44 462.47c29.436 48.274 77.71 121.28 101.26 170.73 26.295-51.807 74.962-128.34 104.79-175.44-31.79 36.107-71.822 88.7-104.79 116.56-33.36-27.866-70.253-78.103-101.26-111.86z" transform="matrix(-.0613 -.0036 -.0033 .0739 249.44 212.49)"/><path d="M332.03 604.94c1.177 0 21.194-164.84 21.194-164.84l17.66 164.84-20.015 28.258-18.84-28.258z" transform="matrix(-.06138 .00003 -.00028 .074 247.847 211.16)"/><path d="M248.44 462.47c29.436 48.274 77.71 121.28 101.26 170.73 26.295-51.807 74.962-128.34 104.79-175.44-31.79 36.107-71.822 88.7-104.79 116.56-33.36-27.866-70.253-78.103-101.26-111.86z" transform="matrix(-.0612 -.00506 -.0045 .07383 250.17 213.954)"/><path d="M332.03 604.94c1.177 0 21.194-164.84 21.194-164.84l17.66 164.84-20.015 28.258-18.84-28.258z" transform="matrix(-.0611 .00745 .00587 .07362 243.913 209.904)"/><path d="M248.44 462.47c29.436 48.274 77.71 121.28 101.26 170.73 26.295-51.807 74.962-128.34 104.79-175.44-31.79 36.107-71.822 88.7-104.79 116.56-33.36-27.866-70.253-78.103-101.26-111.86z" transform="matrix(-.06085 -.0093 -.008 .07342 250.837 216.922)"/><path d="M332.03 604.94c1.177 0 21.194-164.84 21.194-164.84l17.66 164.84-20.015 28.258-18.84-28.258z" transform="matrix(-.0598 -.01632 -.01383 .07218 254.357 220)"/><path d="M248.44 462.47c29.436 48.274 77.71 121.28 101.26 170.73 26.295-51.807 74.962-128.34 104.79-175.44-31.79 36.107-71.822 88.7-104.79 116.56-33.36-27.866-70.253-78.103-101.26-111.86z" transform="matrix(-.06137 -.001 -.00115 .074 247.925 214.91)"/><path d="M332.03 604.94c1.177 0 21.194-164.84 21.194-164.84l17.66 164.84-20.015 28.258-18.84-28.258z" transform="matrix(-.05948 .01862 .01515 .07162 236.304 209.76)"/><path d="M248.44 462.47c29.436 48.274 77.71 121.28 101.26 170.73 26.295-51.807 74.962-128.34 104.79-175.44-31.79 36.107-71.822 88.7-104.79 116.56-33.36-27.866-70.253-78.103-101.26-111.86z" transform="matrix(-.06056 .01242 .01 .07295 242.06 212.965)"/><path d="M332.03 604.94c1.177 0 21.194-164.84 21.194-164.84l17.66 164.84-20.015 28.258-18.84-28.258z" transform="matrix(-.05895 .02097 .0171 .07097 238.292 210.307)"/><path d="M248.44 462.47c29.436 48.274 77.71 121.28 101.26 170.73 26.295-51.807 74.962-128.34 104.79-175.44-31.79 36.107-71.822 88.7-104.79 116.56-33.36-27.866-70.253-78.103-101.26-111.86z" transform="matrix(-.06047 .01305 .01052 .07284 241.764 214.043)"/><path d="M332.03 604.94c1.177 0 21.194-164.84 21.194-164.84l17.66 164.84-20.015 28.258-18.84-28.258z" transform="matrix(-.05627 .0299 .02452 .0677 232.947 211.244)"/><path d="M248.44 462.47c29.436 48.274 77.71 121.28 101.26 170.73 26.295-51.807 74.962-128.34 104.79-175.44-31.79 36.107-71.822 88.7-104.79 116.56-33.36-27.866-70.253-78.103-101.26-111.86z" transform="matrix(-.0585 .0216 .01882 .0707 237.04 213.892)"/><path d="M332.03 604.94c1.177 0 21.194-164.84 21.194-164.84l17.66 164.84-20.015 28.258-18.84-28.258z" transform="matrix(-.06066 .0116 .00932 .0731 243.942 215.705)"/><path d="M248.44 462.47c29.436 48.274 77.71 121.28 101.26 170.73 26.295-51.807 74.962-128.34 104.79-175.44-31.79 36.107-71.822 88.7-104.79 116.56-33.36-27.866-70.253-78.103-101.26-111.86z" transform="matrix(-.056 .02938 .02524 .06784 233.47 214.54)"/><path d="M332.03 604.94c1.177 0 21.194-164.84 21.194-164.84l17.66 164.84-20.015 28.258-18.84-28.258z" transform="matrix(-.04733 .0463 .03918 .05764 221.59 214.397)"/><path d="M248.44 462.47c29.436 48.274 77.71 121.28 101.26 170.73 26.295-51.807 74.962-128.34 104.79-175.44-31.79 36.107-71.822 88.7-104.79 116.56-33.36-27.866-70.253-78.103-101.26-111.86z" transform="matrix(-.05613 .02906 .02498 .06798 233.777 216.005)"/><path d="M332.03 604.94c1.177 0 21.194-164.84 21.194-164.84l17.66 164.84-20.015 28.258-18.84-28.258z" transform="matrix(-.05483 .03238 .0277 .06646 231.852 215.653)"/><path d="M248.44 462.47c29.436 48.274 77.71 121.28 101.26 170.73 26.295-51.807 74.962-128.34 104.79-175.44-31.79 36.107-71.822 88.7-104.79 116.56-33.36-27.866-70.253-78.103-101.26-111.86z" transform="matrix(-.0548 .03245 .02778 .06643 232.49 217.58)"/><path d="M332.03 604.94c1.177 0 21.194-164.84 21.194-164.84l17.66 164.84-20.015 28.258-18.84-28.258z" transform="matrix(-.04934 .04317 .0366 .06 225.373 217.848)"/><path d="M248.44 462.47c29.436 48.274 77.71 121.28 101.26 170.73 26.295-51.807 74.962-128.34 104.79-175.44-31.79 36.107-71.822 88.7-104.79 116.56-33.36-27.866-70.253-78.103-101.26-111.86z" transform="matrix(-.0546 .03293 .02817 .0662 232.333 219.486)"/><path d="M332.03 604.94c1.177 0 21.194-164.84 21.194-164.84l17.66 164.84-20.015 28.258-18.84-28.258z" transform="matrix(-.05706 .0264 .02278 .06906 236.943 219.475)"/><path d="M248.44 462.47c29.436 48.274 77.71 121.28 101.26 170.73 26.295-51.807 74.962-128.34 104.79-175.44-31.79 36.107-71.822 88.7-104.79 116.56-33.36-27.866-70.253-78.103-101.26-111.86z" transform="matrix(-.0511 .04013 .0341 .0621 228.908 220.832)"/><path d="M332.03 604.94c1.177 0 21.194-164.84 21.194-164.84l17.66 164.84-20.015 28.258-18.84-28.258z" transform="matrix(-.03553 .05823 .05044 .04515 213.927 222.948)"/><path d="M248.44 462.47c29.436 48.274 77.71 121.28 101.26 170.73 26.295-51.807 74.962-128.34 104.79-175.44-31.79 36.107-71.822 88.7-104.79 116.56-33.36-27.866-70.253-78.103-101.26-111.86z" transform="matrix(-.04907 .04193 .0374 .0606 227.168 221.53)"/><path d="M332.03 604.94c1.177 0 21.194-164.84 21.194-164.84l17.66 164.84-20.015 28.258-18.84-28.258z" transform="matrix(-.04717 .04486 .03977 .05846 225.225 221.647)"/><path d="M248.44 462.47c29.436 48.274 77.71 121.28 101.26 170.73 26.295-51.807 74.962-128.34 104.79-175.44-31.79 36.107-71.822 88.7-104.79 116.56-33.36-27.866-70.253-78.103-101.26-111.86z" transform="matrix(-.04713 .04493 .03982 .0584 226.217 223.383)"/><path d="M332.03 604.94c1.177 0 21.194-164.84 21.194-164.84l17.66 164.84-20.015 28.258-18.84-28.258z" transform="matrix(-.03625 .05758 .04993 .04598 216.964 226.434)"/><path d="M248.44 462.47c29.436 48.274 77.71 121.28 101.26 170.73 26.295-51.807 74.962-128.34 104.79-175.44-31.79 36.107-71.822 88.7-104.79 116.56-33.36-27.866-70.253-78.103-101.26-111.86z" transform="matrix(-.04382 .0494 .04343 .05467 224.01 225.758)"/><path d="M332.03 604.94c1.177 0 21.194-164.84 21.194-164.84l17.66 164.84-20.015 28.258-18.84-28.258z" transform="matrix(-.0478 .04392 .039 .05917 228.404 224.255)"/><path d="M248.44 462.47c29.436 48.274 77.71 121.28 101.26 170.73 26.295-51.807 74.962-128.34 104.79-175.44-31.79 36.107-71.822 88.7-104.79 116.56-33.36-27.866-70.253-78.103-101.26-111.86z" transform="matrix(-.0387 .05522 .04806 .0488 221.082 228.165)"/><path d="M332.03 604.94c1.177 0 21.194-164.84 21.194-164.84l17.66 164.84-20.015 28.258-18.84-28.258z" transform="matrix(-.01312 .0692 .0614 .0224 203.742 238.123)"/><path d="M248.44 462.47c29.436 48.274 77.71 121.28 101.26 170.73 26.295-51.807 74.962-128.34 104.79-175.44-31.79 36.107-71.822 88.7-104.79 116.56-33.36-27.866-70.253-78.103-101.26-111.86z" transform="matrix(-.03892 .055 .04788 .04905 221.91 229.34)"/><path d="M332.03 604.94c1.177 0 21.194-164.84 21.194-164.84l17.66 164.84-20.015 28.258-18.84-28.258z" transform="matrix(-.0264 .0625 .05696 .03718 212.535 232.5)"/><path d="M248.44 462.47c29.436 48.274 77.71 121.28 101.26 170.73 26.295-51.807 74.962-128.34 104.79-175.44-31.79 36.107-71.822 88.7-104.79 116.56-33.36-27.866-70.253-78.103-101.26-111.86z" transform="matrix(-.02633 .06255 .057 .03712 214.055 233.686)"/><path d="M332.03 604.94c1.177 0 21.194-164.84 21.194-164.84l17.66 164.84-20.015 28.258-18.84-28.258z" transform="matrix(-.01636 .0679 .0606 .02605 208.558 238.53)"/><path d="M248.44 462.47c29.436 48.274 77.71 121.28 101.26 170.73 26.295-51.807 74.962-128.34 104.79-175.44-31.79 36.107-71.822 88.7-104.79 116.56-33.36-27.866-70.253-78.103-101.26-111.86z" transform="matrix(-.02592 .0628 .05718 .03666 214.934 235.37)"/><path d="M332.03 604.94c1.177 0 21.194-164.84 21.194-164.84l17.66 164.84-20.015 28.258-18.84-28.258z" transform="matrix(-.0313 .059 .0544 .04254 218.58 232.366)"/><path d="M248.44 462.47c29.436 48.274 77.71 121.28 101.26 170.73 26.295-51.807 74.962-128.34 104.79-175.44-31.79 36.107-71.822 88.7-104.79 116.56-33.36-27.866-70.253-78.103-101.26-111.86z" transform="matrix(-.01936 .06652 .05972 .0294 212.93 238.713)"/><path d="M332.03 604.94c1.177 0 21.194-164.84 21.194-164.84l17.66 164.84-20.015 28.258-18.84-28.258z" transform="matrix(-.00285 .07194 .0627 .01073 204.816 248.152)"/><path d="M332.03 604.94c1.177 0 21.194-164.84 21.194-164.84l17.66 164.84-20.015 28.258-18.84-28.258z" transform="matrix(.00098 -.02765 -.04526 .00402 274.887 234.906)"/><path d="M248.44 462.47c29.436 48.274 77.71 121.28 101.26 170.73 26.295-51.807 74.962-128.34 104.79-175.44-31.79 36.107-71.822 88.7-104.79 116.56-33.36-27.866-70.253-78.103-101.26-111.86z" transform="matrix(.00066 -.02842 -.04537 .00374 272.76 235.083)"/><path d="M332.03 604.94c1.177 0 21.194-164.84 21.194-164.84l17.66 164.84-20.015 28.258-18.84-28.258z" transform="matrix(-.0067 -.02657 -.04477 .00865 276.82 232.004)"/><path d="M248.44 462.47c29.436 48.274 77.71 121.28 101.26 170.73 26.295-51.807 74.962-128.34 104.79-175.44-31.79 36.107-71.822 88.7-104.79 116.56-33.36-27.866-70.253-78.103-101.26-111.86z" transform="matrix(-.01445 -.03327 -.04373 .01534 276.1 231.447)"/><path d="M332.03 604.94c1.177 0 21.194-164.84 21.194-164.84l17.66 164.84-20.015 28.258-18.84-28.258z" transform="matrix(.00496 -.0279 -.045 .00157 270.395 237.237)"/><path d="M248.44 462.47c29.436 48.274 77.71 121.28 101.26 170.73 26.295-51.807 74.962-128.34 104.79-175.44-31.79 36.107-71.822 88.7-104.79 116.56-33.36-27.866-70.253-78.103-101.26-111.86z" transform="matrix(-.00447 -.02697 -.04505 .0073 272.335 233.88)"/><path d="M332.03 604.94c1.177 0 21.194-164.84 21.194-164.84l17.66 164.84-20.015 28.258-18.84-28.258z" transform="matrix(-.01624 -.02407 -.04226 .0142 275.12 228.253)"/><path d="M248.44 462.47c29.436 48.274 77.71 121.28 101.26 170.73 26.295-51.807 74.962-128.34 104.79-175.44-31.79 36.107-71.822 88.7-104.79 116.56-33.36-27.866-70.253-78.103-101.26-111.86z" transform="matrix(-.01018 -.03832 -.03355 .00695 268.217 237.712)"/><path d="M332.03 604.94c1.177 0 21.194-164.84 21.194-164.84l17.66 164.84-20.015 28.258-18.84-28.258z" transform="matrix(-.0118 -.03767 -.03277 .0087 268.285 236.59)"/><path d="M332.03 604.94c1.177 0 21.194-164.84 21.194-164.84l17.66 164.84-20.015 28.258-18.84-28.258z" transform="matrix(.00345 .0701 .0652 .00852 199.635 249.147)"/><path d="M332.03 604.94c1.177 0 21.194-164.84 21.194-164.84l17.66 164.84-20.015 28.258-18.84-28.258z" transform="matrix(-.01108 .06646 .06435 .02385 206.9 241.78)"/><path d="M332.03 604.94c1.177 0 21.194-164.84 21.194-164.84l17.66 164.84-20.015 28.258-18.84-28.258z" transform="matrix(0 .06954 .0653 .01223 204.433 248.504)"/><path d="M248.44 462.47c29.436 48.274 77.71 121.28 101.26 170.73 26.295-51.807 74.962-128.34 104.79-175.44-31.79 36.107-71.822 88.7-104.79 116.56-33.36-27.866-70.253-78.103-101.26-111.86z" transform="matrix(-.01055 .06666 .06445 .0233 209.916 244.052)"/><path d="M332.03 604.94c1.177 0 21.194-164.84 21.194-164.84l17.66 164.84-20.015 28.258-18.84-28.258z" transform="matrix(-.0167 .0641 .06313 .0296 212.77 240.345)"/><path d="M248.44 462.47c29.436 48.274 77.71 121.28 101.26 170.73 26.295-51.807 74.962-128.34 104.79-175.44-31.79 36.107-71.822 88.7-104.79 116.56-33.36-27.866-70.253-78.103-101.26-111.86z" transform="matrix(-.00327 .06885 .06522 .01568 208.745 247.735)"/><path d="M332.03 604.94c1.177 0 21.194-164.84 21.194-164.84l17.66 164.84-20.015 28.258-18.84-28.258z" transform="matrix(.01412 .07054 .06376 -.0031 203.04 258.664)"/><path d="M332.03 604.94c1.177 0 21.194-164.84 21.194-164.84l17.66 164.84-20.015 28.258-18.84-28.258z" transform="matrix(.0087 .06963 .06573 .004 201.51 254.03)"/><path d="M332.03 604.94c1.177 0 21.194-164.84 21.194-164.84l17.66 164.84-20.015 28.258-18.84-28.258z" transform="matrix(-.00607 .067 .06602 .01933 208.206 246.185)"/><path d="M332.03 604.94c1.177 0 21.194-164.84 21.194-164.84l17.66 164.84-20.015 28.258-18.84-28.258z" transform="matrix(.0052 .06932 .0661 .0077 206.25 253.057)"/><path d="M248.44 462.47c29.436 48.274 77.71 121.28 101.26 170.73 26.295-51.807 74.962-128.34 104.79-175.44-31.79 36.107-71.822 88.7-104.79 116.56-33.36-27.866-70.253-78.103-101.26-111.86z" transform="matrix(-.00552 .06717 .06607 .01877 211.39 248.242)"/><path d="M332.03 604.94c1.177 0 21.194-164.84 21.194-164.84l17.66 164.84-20.015 28.258-18.84-28.258z" transform="matrix(-.01186 .06505 .06523 .02515 213.96 244.35)"/><path d="M248.44 462.47c29.436 48.274 77.71 121.28 101.26 170.73 26.295-51.807 74.962-128.34 104.79-175.44-31.79 36.107-71.822 88.7-104.79 116.56-33.36-27.866-70.253-78.103-101.26-111.86z" transform="matrix(.0019 .06885 .06627 .01113 210.496 251.993)"/><path d="M332.03 604.94c1.177 0 21.194-164.84 21.194-164.84l17.66 164.84-20.015 28.258-18.84-28.258z" transform="matrix(.0194 .06934 .0634 -.0075 205.623 263.28)"/></g><path d="M374.65 434.6c0 66.213-53.676 119.89-119.89 119.89-66.213 0-119.89-53.676-119.89-119.89 0-66.213 53.676-119.89 119.89-119.89 66.213 0 119.89 53.676 119.89 119.89z" fill-rule="evenodd" transform="matrix(.17353 0 0 .17648 212.272 177.992)" fill="#3d25ca"/><path d="M353.57 628.49l-130.85-89.51-130.85 89.51 49.07-143.21-114.5-89.51h147.21l49.07-143.21 49.068 143.21h147.21l-114.49 89.507 49.07 143.21z" fill-rule="evenodd" transform="matrix(.08772 0 0 .0788 237.66 217.863)" fill="#ffd900"/><path d="M17.716 379.13l212.6 53.15M230.32 237.4v194.88M230.32 432.28v88.583M230.32 432.28l88.583 35.434M177.16 379.13l53.15 53.15M230.32 432.28l53.15-53.15M442.91 379.13l-212.59 53.15M230.32 432.28l141.73 177.17M230.32 432.28L88.58 609.45M141.73 467.72l88.583-35.434" fill="none" transform="matrix(.081 0 0 .07962 238.546 218.863)"/></g><path d="M298.15 256.007c0 23.266-18.88 42.148-42.147 42.148s-42.148-18.882-42.148-42.148c0-23.265 18.882-42.15 42.148-42.15 23.265 0 42.148 18.884 42.148 42.15zm14.05 0c0 31.02-25.175 56.196-56.196 56.196s-56.196-25.176-56.196-56.196 25.176-56.197 56.196-56.197 56.196 25.176 56.196 56.197z" fill-rule="evenodd" stroke="#000" stroke-width=".27299025" fill="#d60000"/><path d="M298.836 266.082l3.7 1.37 6.14-1.123-.46 1.246-3.2.553c-.596.098-1.186.178-1.77.24.372.4.783.872 1.232 1.415l2.014 2.45-.442 1.194-3.893-4.954-3.7-1.37.38-1.024zM309.243 251.886l.12 1.087-5.352.585c-.93.102-1.68.09-2.246-.037a2.676 2.676 0 0 1-1.45-.866c-.395-.448-.635-1.068-.722-1.86-.084-.77-.004-1.414.242-1.935a2.49 2.49 0 0 1 1.18-1.19c.546-.27 1.31-.46 2.29-.568l5.35-.585.12 1.085-5.344.585c-.805.088-1.39.22-1.76.392a1.68 1.68 0 0 0-.804.777c-.17.348-.23.755-.18 1.222.09.797.355 1.344.8 1.64.446.294 1.25.378 2.413.25l5.343-.584zM301.77 241.032l1.072-.217.7 3.426-3.387.688c-.58-.43-1.047-.9-1.4-1.41a4.47 4.47 0 0 1-.706-1.65 4.293 4.293 0 0 1 .133-2.287c.254-.726.71-1.327 1.37-1.806.66-.478 1.438-.808 2.335-.99a6.39 6.39 0 0 1 2.585-.012c.84.174 1.508.533 2.007 1.075.5.542.83 1.216.994 2.023.12.585.118 1.134-.003 1.65-.114.517-.336.95-.663 1.295-.328.346-.785.652-1.37.916l-.495-.904c.44-.216.775-.44 1.004-.675.23-.234.39-.534.478-.9.094-.368.1-.757.017-1.165-.098-.49-.27-.895-.512-1.218a2.424 2.424 0 0 0-.835-.733 3.364 3.364 0 0 0-1.006-.325 5.424 5.424 0 0 0-1.9.063c-.814.165-1.47.426-1.968.783-.498.362-.832.807-1 1.336-.17.53-.2 1.06-.093 1.593.094.463.285.896.574 1.298.294.4.578.69.852.873l1.7-.345-.482-2.378zM262.714 211.594l1.608-9.176 1.075.19-1.417 8.092 4.006.702-.19 1.083-5.082-.89zM253.64 210.977v-9.315h5.97v1.1h-4.876v2.852h4.568v1.093h-4.568v3.17h5.07v1.1h-6.163zM227.838 216.828l1.032-.473c.484.92.672 1.775.565 2.568-.107.788-.487 1.462-1.14 2.02-.677.58-1.36.895-2.05.95-.69.048-1.396-.127-2.123-.526a7.086 7.086 0 0 1-1.952-1.617c-.63-.737-1.056-1.486-1.276-2.245-.22-.766-.22-1.486-.003-2.162a3.735 3.735 0 0 1 1.158-1.733c.628-.537 1.31-.808 2.046-.813.737-.006 1.468.247 2.196.756l-.632.916c-.586-.392-1.118-.586-1.595-.585-.478.002-.927.183-1.347.54-.482.413-.775.89-.877 1.428-.1.537-.027 1.08.218 1.635a6.17 6.17 0 0 0 .964 1.525c.515.603 1.04 1.063 1.58 1.383.54.313 1.07.44 1.588.382.518-.058.968-.25 1.35-.578.466-.398.73-.886.794-1.464.064-.58-.102-1.214-.496-1.908zM223.94 225.025l-6.93-6.226.73-.814 6.93 6.226-.73.813zM219.46 230.315l-7.387-5.678.666-.866 6.513 5.008 2.478-3.224.873.67-3.144 4.09zM205.602 235.808l.403-1.015 5.003 1.983c.87.345 1.528.705 1.97 1.082.443.378.736.86.877 1.445.14.58.062 1.24-.23 1.98-.286.72-.66 1.252-1.12 1.6a2.49 2.49 0 0 1-1.6.498c-.608-.014-1.37-.204-2.29-.568l-5.003-1.983.403-1.016 4.998 1.98c.752.3 1.332.457 1.738.478.406.014.763-.09 1.076-.314.313-.227.556-.56.73-.995.295-.747.315-1.355.06-1.825-.257-.47-.93-.92-2.016-1.35l-4.998-1.98zM211.042 258.35l-9.315.077-.05-5.97 1.1-.01.04 4.878 2.853-.023-.038-4.568 1.093-.01.038 4.57 3.17-.028-.04-5.07 1.098-.008.052 6.16zM245.832 212.297l-1.843-9.132 2.787-.563c.63-.127 1.118-.18 1.468-.16.488.027.927.165 1.32.415.508.32.932.777 1.27 1.37.34.59.593 1.29.757 2.104.14.694.192 1.323.157 1.888-.037.564-.13 1.046-.284 1.444-.154.394-.345.72-.573.978a2.9 2.9 0 0 1-.875.65 4.98 4.98 0 0 1-1.266.417l-2.92.59zm.853-1.294l1.728-.35c.535-.107.94-.247 1.22-.42.283-.174.494-.38.633-.62.196-.338.316-.762.36-1.272.044-.514-.003-1.116-.142-1.805-.193-.955-.48-1.66-.863-2.114-.38-.46-.785-.735-1.218-.83-.313-.066-.787-.035-1.424.093l-1.7.344 1.407 6.976zM275.94 216.013l4.308-8.26 2.762 1.44c.486.255.844.475 1.072.66.325.256.56.543.702.86.145.316.202.682.17 1.1a3.13 3.13 0 0 1-.364 1.244c-.366.703-.874 1.195-1.525 1.476-.65.278-1.492.147-2.527-.393l-1.878-.98-1.75 3.358-.97-.505zm3.23-3.827l1.89.987c.627.326 1.14.427 1.54.3.4-.125.725-.426.974-.903.18-.345.255-.68.227-1.007a1.224 1.224 0 0 0-.353-.808c-.137-.133-.426-.315-.866-.545l-1.872-.976-1.54 2.952zM280.698 218.468l8.582-4.815.876.786-3.706 9.19-.927-.832 1.168-2.743-2.57-2.306-2.558 1.493-.864-.775zm4.328-1.256l2.084 1.87 1.08-2.496c.33-.758.614-1.368.856-1.828-.478.374-.984.716-1.52 1.027l-2.5 1.427zM287.356 224.73l7.39-5.67 2.23 2.903c.447.584.72 1.08.82 1.487.1.405.054.826-.142 1.266-.197.44-.5.816-.905 1.128-.526.402-1.083.59-1.674.566-.59-.025-1.176-.315-1.755-.868.053.325.063.593.034.805a6.3 6.3 0 0 1-.43 1.474l-1.138 2.684-.837-1.09.872-2.047c.25-.594.428-1.063.538-1.408.11-.344.16-.62.154-.822-.004-.2-.04-.382-.104-.544a2.912 2.912 0 0 0-.336-.51l-.77-1.005-3.283 2.518-.664-.868zm4.794-2.3l1.43 1.863c.303.395.587.67.85.825.265.15.543.207.834.17.294-.043.56-.155.8-.338.348-.268.55-.602.6-1 .054-.397-.106-.838-.478-1.324l-1.59-2.073-2.446 1.876zM292.337 231.093l9.68-1.774.573 1.027-6.485 7.493-.607-1.087 1.994-2.216-1.684-3.015-2.905.584-.566-1.013zm4.502.215l1.364 2.444 1.832-2.01a27.542 27.542 0 0 1 1.4-1.453c-.572.198-1.162.357-1.77.477l-2.827.54zM300.53 255.21l8.936 4.122-.122 1.17-9.617 2.393.13-1.238 2.906-.665.36-3.434-2.713-1.195.12-1.154zm3.558 2.766l-.29 2.784 2.654-.588c.807-.18 1.468-.308 1.982-.38a13.23 13.23 0 0 1-1.723-.63l-2.622-1.186zM212.513 266.912l-9.097 2.005-.788-3.575c-.158-.72-.196-1.283-.113-1.693.08-.41.3-.773.665-1.09a2.907 2.907 0 0 1 1.297-.636c.646-.142 1.23-.077 1.755.196.524.272.932.783 1.222 1.53.09-.316.195-.564.31-.744a6.303 6.303 0 0 1 1.016-1.152l2.167-1.948.296 1.342-1.658 1.484c-.477.432-.838.78-1.083 1.047-.246.264-.408.49-.488.677-.082.184-.127.363-.136.537-.002.128.027.33.087.604l.273 1.237 4.04-.89.235 1.067zm-5.317.053l-.506-2.293c-.107-.488-.247-.857-.42-1.108a1.303 1.303 0 0 0-.684-.507 1.676 1.676 0 0 0-.866-.033c-.43.095-.753.312-.97.65-.216.338-.258.805-.126 1.403l.562 2.55 3.01-.662zM211.38 250.095l-9.283-.8.267-3.102c.047-.547.113-.96.197-1.244.112-.398.286-.724.525-.98.235-.254.55-.447.95-.58a3.13 3.13 0 0 1 1.287-.143c.79.068 1.44.35 1.95.84.506.493.71 1.32.61 2.485l-.183 2.11 3.772.324-.093 1.09zm-4.776-1.508l.183-2.127c.06-.703-.044-1.215-.314-1.536-.27-.32-.673-.505-1.21-.55-.388-.034-.727.025-1.016.177-.293.15-.497.362-.61.638-.07.18-.127.515-.17 1.01l-.18 2.104 3.317.285zM215.27 236.326l-7.75-5.168 1.72-2.578c.35-.524.708-.89 1.078-1.102a2.005 2.005 0 0 1 1.22-.262c.446.035.846.172 1.202.41.332.22.59.507.777.86.186.356.262.754.227 1.196.415-.324.86-.486 1.34-.488.482-.004.95.144 1.4.445.363.24.655.536.877.882.222.342.35.67.386.98s-.003.652-.117 1.014c-.117.356-.32.753-.612 1.19l-1.747 2.62zm-3.886-3.906l.99-1.485c.27-.403.432-.713.488-.927a1.15 1.15 0 0 0-.038-.778c-.1-.238-.287-.448-.56-.63a1.623 1.623 0 0 0-.785-.286c-.27-.023-.51.045-.715.2-.21.155-.48.478-.808.97l-.915 1.375 2.342 1.56zm3.58 2.387l1.14-1.71c.196-.295.32-.51.375-.644.096-.238.142-.46.137-.666a1.307 1.307 0 0 0-.196-.633 1.817 1.817 0 0 0-.564-.573 1.677 1.677 0 0 0-.882-.302 1.248 1.248 0 0 0-.815.25c-.244.17-.51.476-.802.914l-1.06 1.588 2.665 1.777zM230.624 218.47l-2.268-9.576.997-.626 7.815 6.092-1.053.662-2.316-1.878-2.926 1.837.732 2.873-.982.617zm-.016-4.507l2.37-1.49-2.1-1.726a27.624 27.624 0 0 1-1.525-1.324c.23.562.42 1.143.57 1.744l.685 2.796z" fill="#ffe600"/></g></svg>