<svg xmlns="http://www.w3.org/2000/svg" xmlns:xlink="http://www.w3.org/1999/xlink" width="640" height="480"><defs><clipPath id="a"><path fill-rule="evenodd" d="M60 0h1200v900H60z"/></clipPath></defs><g transform="matrix(.533 0 0 .533 -32 0)" clip-path="url(#a)"><path fill="#fff" d="M0 0h1350v900H0z"/><path fill="#0c4076" d="M0 0h1350v600H0z"/><path fill="#c6363c" d="M0 0h1350v300H0z"/><g transform="matrix(1 0 0 1.004 0 -.328)"><path d="M583.45 264.21c3.272-6.6 6.71-13.075 11.297-18.682-11.747 8.742-17.928 7.423-18.788-3.96-.697-.247-1.64-.247-2.58-.247-8.963 13.98-17.682 12.043-26.155-5.814-11.543 18.35-21.448 18.022-29.225-1.113-13.313 16.726-24.528 16.772-33.646.353v-2.085c.506.227.16.3-1.035.133l-.195-.38c-.355.07-.682.134-.982.19-.3-.056-.628-.12-.982-.19l-.193.38c-1.197.166-1.542.094-1.035-.132v2.087c-9.117 16.417-20.333 16.372-33.646-.354-7.777 19.135-17.683 19.465-29.226 1.113-8.47 17.857-17.192 19.794-26.155 5.815-.94 0-1.882 0-2.58.25-.858 11.38-7.038 12.7-18.785 3.958 4.587 5.607 8.025 12.082 11.297 18.682 33.848-1.413 67.58-3.18 101.31-4.956 33.728 1.775 67.457 3.543 101.31 4.956zM459.402 276.178l22.74-11.455 22.74 11.455-22.74 11.455" fill="#edb92e"/><path d="M473.89 259.19l-.006.176c-17.488.78-48.477 2.522-93.12 5.366l6.533 31.05c29.65-.836 64.257-2.138 94.845-3.062 30.588.924 65.195 2.226 94.846 3.063l6.535-31.05c-44.64-2.86-75.63-4.6-93.12-5.38l-.006-.178c1.766-.348-.976-.408-8.254-.156-7.278-.254-10.018-.193-8.25.155zM597.33 236.74l-3.684-.62c-7.075 17.39-13.417 17.813-14.61 1.27 1.58-.568.957-3.334 2.748-2.228.94.58 2.13-1.07 1.354-1.977-2.005-1.482-3.788-1.252-5.54.398-.826-2.64-2.852-3.872-5.376-2.76-1.09.48-.717 2.458.378 2.345 1.768-.184 1.058 1.666 1.608 2.902-12.548 16.482-18.963 14.52-17.4-7.124-2.988-.62-6.466-1.238-9.577-2.352-11.547 23.346-19.764 24.35-26.417 3.4 1.425-1.07 1.02-3.752 3.102-2.89 1.174.486 2.16-1.6 1.11-2.49-2.43-2.06-5.07-1.364-6.838 1.285-1.42-2.855-3.95-3.884-6.62-2.15-1.152.748-.437 2.943.788 2.61 2.352-.635 1.296 2.475 3.076 3.542-5.1 19.695-30.866 21.02-26.65-8.13-2.364.078-4.5.16-6.63.238-2.13-.08-4.265-.16-6.63-.24 4.216 29.152-21.55 27.827-26.65 8.132 1.778-1.067.722-4.176 3.075-3.54 1.224.33 1.94-1.864.788-2.612-2.672-1.734-5.2-.705-6.62 2.15-1.768-2.65-4.408-3.347-6.838-1.285-1.05.89-.065 2.975 1.11 2.49 2.082-.863 1.676 1.82 3.1 2.888-6.65 20.95-14.868 19.947-26.415-3.4-3.11 1.115-6.59 1.733-9.578 2.353 1.563 21.644-4.85 23.607-17.4 7.124.55-1.236-.16-3.086 1.608-2.902 1.094.113 1.47-1.865.38-2.345-2.526-1.114-4.55.12-5.376 2.76-1.753-1.65-3.537-1.878-5.542-.398-.777.908.415 2.556 1.354 1.977 1.792-1.106 1.167 1.66 2.75 2.23-1.194 16.54-7.537 16.12-14.61-1.27l-3.685.618c-.112 4.087 1.307 8.434 3.808 11.63 10.608 13.554 18.5 10.48 18.788-4.7 13.89 16.39 24.394 14.318 26.278-2.972 11.685 21.81 30.433 11.372 30.82-1.855 5.147 19.226 33.666 19.09 35.49-3.007 1.822 22.096 30.34 22.232 35.487 3.007.39 13.227 19.137 23.665 30.822 1.855 1.883 17.29 12.388 19.363 26.278 2.97.287 15.18 8.178 18.256 18.788 4.702 2.5-3.194 3.92-7.543 3.806-11.63h-.002z" fill="#edb92e"/><path d="M482.14 262.87c-1.203 0-2.404.002-3.605.006l-1.2.006-.616.002-1.116.006-.67.005-.433.002-.764.006-1.198.012-1.054.01h-.225l-.883.01c-.876.01-1.75.022-2.623.034l-.29.004-.166.002-1.117.018-.34.004-.474.008-1.15.02h-.044l-1.192.023-.386.006-.804.015-.264.007-.927.02-1.19.025-.054.002-1.136.027-.48.01-.037.002c-1.412.035-2.823.072-4.233.112l-.575.017-1.612.05-.182.005-1.427.046-.94.03-.668.023-.186.007-1.423.05h-.086l-1.18.044-.052.002-1.128.044-.763.028-1.593.064h-.01c-2.095.086-4.188.177-6.277.274l-.298.014c-3.075.145-6.14.304-9.194.476l-.175.01-.454.025c-6.118.35-12.2.757-18.247 1.215l-.228.017-.075.007c-8.86.673-17.637 1.466-26.328 2.368-4.948.465-5.893-5.41 0-5.956 8.69-.903 17.47-1.693 26.327-2.368l.075-.006c12.155-.925 24.46-1.632 36.897-2.11l1.026-.038.156-.007.34-.012 1.18-.042.087-.004c5.087-.18 10.2-.323 15.33-.427l.806-.017h.04l1.365-.026.175-.004h.043l1.15-.02.473-.008.72-.01.904-.014.29-.005.425-.006c1.052-.015 2.107-.028 3.16-.04l1.004-.01.195-.002 1.197-.01c1.165-.008 2.333-.017 3.5-.023h.098l1.2-.005c1.202-.004 2.404-.007 3.606-.007 1.204 0 2.406.002 3.606.007l1.202.005h.097c1.167.006 2.335.015 3.5.024l1.2.01h.193l1.002.012c1.056.012 2.11.024 3.162.04l.427.005.287.005.904.013.722.012.473.008 1.15.02h.043l.172.004 1.366.025h.04l.805.017c5.134.104 10.244.247 15.334.427l.086.004 1.18.043.34.013.156.007 1.028.04c12.437.476 24.742 1.183 36.897 2.108l.076.006c8.857.675 17.636 1.465 26.327 2.368 5.893.547 4.947 6.422 0 5.956-8.69-.902-17.47-1.695-26.327-2.37l-.075-.006-.226-.017c-6.046-.458-12.13-.865-18.247-1.214l-.455-.025-.175-.01c-3.056-.17-6.12-.33-9.193-.475l-.3-.014c-2.087-.097-4.18-.188-6.277-.274h-.01l-1.592-.064-.763-.028-1.128-.044-.052-.002-1.18-.043h-.087l-1.422-.05-.186-.007-.67-.022-.938-.03-1.43-.045-.18-.005-1.613-.05-.575-.016c-1.41-.04-2.82-.077-4.232-.112h-.036l-.48-.01-1.137-.028-.054-.002-1.19-.025-.927-.02-.263-.006-.806-.014-.385-.007-1.193-.024h-.044l-1.15-.02-.473-.008-.342-.004-1.115-.018-.167-.002-.29-.005c-.874-.013-1.748-.025-2.622-.035l-.884-.01h-.223l-1.055-.01-1.2-.012-.764-.006-.433-.002-.67-.005-1.113-.006-.615-.002-1.203-.006c-1.2-.004-2.402-.006-3.605-.006z" fill="#edb92e"/><path d="M482.14 105.07c9.483 0 17.17 7.744 17.17 17.298 0 9.553-7.687 17.298-17.17 17.298-9.482 0-17.168-7.744-17.168-17.298 0-9.554 7.686-17.298 17.168-17.298z" fill="#0c4076"/><path d="M485.26 84.894c1.678-.046 3.026-1.43 3.026-3.133s-1.35-3.09-3.03-3.133c-.01-1.723-1.4-3.117-3.112-3.117-1.71 0-3.1 1.395-3.11 3.118-1.68.043-3.03 1.43-3.03 3.133s1.348 3.088 3.026 3.134v6.425h-5.49c-.01-1.724-1.4-3.117-3.112-3.117-1.69 0-3.068 1.36-3.11 3.054-1.71.01-3.095 1.408-3.095 3.133 0 1.726 1.385 3.126 3.096 3.134.042 1.694 1.417 3.055 3.108 3.055 1.667 0 3.03-1.324 3.107-2.984h5.494v21.372h6.23V97.596h5.493c.08 1.66 1.44 2.983 3.108 2.983 1.692 0 3.068-1.362 3.11-3.056 1.71-.008 3.095-1.408 3.095-3.134 0-1.724-1.384-3.124-3.094-3.133-.042-1.693-1.42-3.055-3.11-3.055-1.71 0-3.1 1.394-3.11 3.117h-5.49v-6.426zM498.96 118.85c.232 1.135.355 2.31.355 3.514 0 .83-.06 1.65-.174 2.45-5.642-.197-11.3-.33-16.994-.33-5.692 0-11.35.133-16.996.33-.113-.8-.173-1.62-.173-2.45 0-1.204.123-2.38.356-3.514 5.584-.19 11.183-.324 16.813-.324 5.63 0 11.23.133 16.813.324zM468.82 133.18c-3.635-2.257-4.27 1.236-4.178 4.75.346 13.233 2.865 25.826-.674 42.03-1.416 6.485-3.697 10.132-1.475 11.382 5.67 3.187 8.27 6.103 7.37 7.67 1.675 3.22 5.855 2.597 12.277 1.565 6.422 1.032 10.604 1.654 12.28-1.564-.9-1.568 1.7-4.484 7.37-7.67 2.222-1.25-.06-4.898-1.476-11.383-3.538-16.205-1.02-28.797-.674-42.03.092-3.514-.542-7.007-4.177-4.75-7.156 4.445-19.404 4.495-26.643 0z" fill="#edb92e"/><g id="b"><path d="M363.03 212.12c-1.897-4.143-.366-9.927.253-11.235.314-.663-.616-2.118-1.02-2.688-12.906-18.28-13.127-19.903-4.23-26.753 8.03-6.18 26.16-12.19 39.133-16.235 2.7-2.063 4.42-4.868 6.876-7.177-24.928 1.793-51.946 11.92-65.572 23.754-7.2 6.254 1.555 18.89 12.28 38.106 6.63 4.784 9.742 7.01 12.28 2.227z" fill="#edb92e"/><path d="M359.11 213.58c-.562-1.645-.967-3.232-1.245-4.72-.543-2.71-.31-5.516.59-8.15-2.974-4.21-6.31-8.784-8.72-13.33-1.72-3.244-3.05-6.856-2.038-10.557 1.08-3.947 4.494-6.636 7.58-9.01 3.696-2.847 8.625-5.34 13.613-7.467 11.172-4.634 20.054-6.902 26.563-7.108l-4.13 3.835c-12.113 3.917-26.407 9.084-33.284 14.38-8.9 6.85-8.678 8.47 4.23 26.752.402.57 1.333 2.026 1.02 2.688-.62 1.31-1.763 7.34.135 11.483-1.115 2.1-2.73 1.003-4.317 1.204z" fill="#edb92e"/><path d="M468.14 132.2c.112-2.315-.044-1.924-.39 1.648-.373-.716-.862-1.044-1.454-1.032-1.047.02-1.68 1.615-1.78 5.22.06.93.124 1.848.186 2.76-33.058-.736-52.66 4.283-57.715 13.92-4.16 7.932 2.913 21.063 13.584 36.056 1.292 1.814 1.25 1.66.002 3.155-1.805 2.162-3.75 5.823-2.288 9.04-6.466 3.566-14.16 4.432-20.874 1.484-1.114-2.96-3.532-4.37-5.488-5.71-.397-.276-1.835-.98-1.98-1.442-3.526-11.35-7.067-21.843-10.106-31.615-9.536-30.687 75.242-33.5 88.304-33.483z" fill="#edb92e"/><path d="M404.99 190.16c3.517 0 6.367 2.872 6.367 6.415 0 3.544-2.85 6.416-6.367 6.416s-6.367-2.87-6.367-6.415c0-3.542 2.85-6.415 6.367-6.415z" fill="#fff"/><path d="M411.87 196.57h-1.012c.027-2.2-1.296-4.34-3.275-5.3-.8-.4-1.693-.606-2.586-.605v-1.02c2.333-.02 4.61 1.26 5.824 3.25.688 1.095 1.048 2.384 1.05 3.675zm-6.873 6.926v-1.02c2.17.027 4.27-1.287 5.225-3.23.42-.825.636-1.75.636-2.676h1.012c.02 2.352-1.253 4.66-3.26 5.89-1.076.677-2.343 1.035-3.613 1.036zm-6.874-6.926h1.013c-.026 2.186 1.278 4.317 3.24 5.283.808.41 1.714.623 2.62.623v1.02c-2.332.02-4.61-1.26-5.824-3.25-.686-1.096-1.048-2.383-1.05-3.676zm6.874-6.925v1.02c-2.17-.026-4.27 1.287-5.226 3.23-.42.824-.634 1.75-.634 2.675h-1.012c-.02-2.352 1.254-4.66 3.258-5.89 1.077-.676 2.344-1.034 3.615-1.035z" fill="#21231e"/><path d="M350.75 203.61c3.265 0 5.912 2.666 5.912 5.957 0 3.29-2.647 5.956-5.912 5.956-3.266 0-5.914-2.667-5.914-5.956 0-3.29 2.648-5.957 5.914-5.957z" fill="#fff"/><path d="M357.17 209.56h-1.012c.02-1.94-1.09-3.837-2.793-4.77-.794-.444-1.704-.677-2.613-.677v-1.02c2.178-.018 4.305 1.178 5.44 3.034.64 1.023.976 2.227.978 3.433zm-6.418 6.467v-1.02c1.99.023 3.915-1.173 4.804-2.948.397-.77.602-1.635.602-2.5h1.012c.017 2.183-1.156 4.33-3.013 5.48-1.012.645-2.207.984-3.405.987zm-6.42-6.467h1.012c-.023 2.005 1.167 3.96 2.96 4.858.753.387 1.6.59 2.447.59v1.02c-2.177.016-4.306-1.18-5.44-3.037-.64-1.02-.977-2.225-.978-3.43zm6.42-6.467v1.02c-2.002-.023-3.94 1.188-4.822 2.98-.387.76-.585 1.615-.586 2.467h-1.012c-.017-2.196 1.17-4.352 3.044-5.5 1.006-.63 2.19-.964 3.376-.967z" fill="#21231e"/><path d="M345.1 192.72c3.265 0 5.912 2.667 5.912 5.958 0 3.29-2.647 5.957-5.912 5.957-3.266 0-5.912-2.668-5.912-5.957 0-3.29 2.646-5.958 5.912-5.958z" fill="#fff"/><path d="M351.52 198.68h-1.012c.023-2.005-1.166-3.96-2.96-4.858-.752-.39-1.6-.59-2.446-.59v-1.02c2.178-.017 4.306 1.178 5.44 3.036.64 1.022.976 2.227.978 3.432zm-6.418 6.467v-1.02c1.937.022 3.816-1.11 4.733-2.813.443-.802.672-1.718.673-2.634h1.012c.017 2.196-1.17 4.352-3.044 5.5-1.006.63-2.188.965-3.375.967zm-6.42-6.467h1.013c-.023 2.005 1.166 3.96 2.96 4.858.752.387 1.6.59 2.447.59v1.02c-2.166.016-4.284-1.165-5.42-3.006-.655-1.03-.996-2.245-1-3.462zm6.42-6.468v1.02c-1.938-.02-3.818 1.11-4.733 2.813-.445.802-.674 1.72-.675 2.635h-1.012c-.018-2.196 1.17-4.352 3.043-5.5 1.007-.63 2.19-.966 3.376-.968z" fill="#21231e"/><path d="M339.79 181.71c3.266 0 5.912 2.666 5.912 5.957 0 3.29-2.646 5.956-5.912 5.956-3.265 0-5.912-2.667-5.912-5.956 0-3.29 2.647-5.957 5.912-5.957z" fill="#fff"/><path d="M346.21 187.66h-1.012c.023-1.992-1.15-3.936-2.926-4.84-.76-.4-1.62-.606-2.48-.607v-1.02c2.165-.018 4.28 1.164 5.42 3.004.653 1.03.996 2.245.998 3.463zm-6.418 6.467v-1.02c1.925.02 3.794-1.095 4.714-2.78.456-.81.69-1.74.692-2.667h1.012c.018 2.183-1.157 4.327-3.012 5.48-1.012.644-2.208.984-3.407.987zm-6.42-6.467h1.013c-.023 1.993 1.152 3.935 2.926 4.84.762.4 1.622.606 2.48.607v1.02c-2.177.017-4.305-1.178-5.438-3.036-.64-1.02-.977-2.225-.98-3.43zm6.42-6.467v1.02c-1.99-.023-3.916 1.173-4.805 2.948-.397.77-.602 1.635-.602 2.5h-1.012c-.017-2.183 1.156-4.33 3.013-5.48 1.012-.645 2.207-.984 3.406-.987z" fill="#21231e"/><path d="M444.27 202.15c3.416-.232 2.57 5.894 1.897 7.26-.88 1.782-1.698 1.838-2.808.19-.852-1.262-2.505-7.218.91-7.45z" fill="#edb92e"/><path d="M444.49 205.46c8.03-.547 6.045 13.845 4.458 17.055-2.068 4.186-3.99 4.316-6.6.45-2-2.966-5.888-16.957 2.143-17.504z" fill="#fff"/><path d="M379.74 210.81c3.262-1.046 3.89 5.106 3.56 6.594-.434 1.942-1.214 2.193-2.683.86-1.124-1.02-4.14-6.408-.877-7.454z" fill="#edb92e"/><path d="M380.74 213.97c7.67-2.46 9.145 11.994 8.364 15.49-1.02 4.565-2.855 5.153-6.304 2.023-2.643-2.4-9.73-15.055-2.06-17.513z" fill="#fff"/><path d="M464.2 137.77c-17.233-1.568-34.854.195-52.298 7.17-14.703 5.882-13.262 23.055 4.666 46.89-1.622 3.02-2.545 6.776-2.69 11.11 1.896-.104 3.226-.055 4.9-.097-1.3-2.888.155-6.425 1.796-8.916 1.07-1.628 1.29-1.34 0-3.155-10.673-14.993-17.745-28.125-13.585-36.055 5.054-9.637 24.655-14.657 57.714-13.922-.06-.88-.122-1.767-.18-2.663-.106-.12-.213-.24-.325-.36z" fill="#edb92e"/><path d="M380.59 142.66c3.39 0 6.14 2.768 6.14 6.185s-2.75 6.187-6.14 6.187c-3.39 0-6.14-2.77-6.14-6.187 0-3.416 2.75-6.185 6.14-6.185z" fill="#fff"/><path d="M387.24 148.84h-1.012c.025-2.114-1.246-4.174-3.15-5.094-.768-.384-1.626-.58-2.484-.58v-1.02c2.255-.02 4.458 1.218 5.63 3.14.668 1.06 1.013 2.306 1.016 3.554zm-6.646 6.696v-1.02c2.085.025 4.105-1.237 5.023-3.105.404-.79.61-1.68.61-2.57h1.013c.02 2.275-1.212 4.507-3.152 5.695-1.04.656-2.266 1-3.495 1zm-6.647-6.696h1.012c-.025 2.102 1.23 4.15 3.116 5.08.776.394 1.647.596 2.517.596v1.02c-2.256.02-4.46-1.22-5.63-3.143-.668-1.057-1.013-2.305-1.016-3.553zm6.646-6.695v1.02c-2.085-.025-4.105 1.236-5.023 3.104-.404.79-.61 1.68-.61 2.57h-1.013c-.02-2.262 1.198-4.482 3.12-5.675 1.05-.667 2.285-1.02 3.527-1.02z" fill="#21231e"/><path d="M392.62 138.7c3.39 0 6.14 2.768 6.14 6.185 0 3.418-2.75 6.187-6.14 6.187-3.39 0-6.14-2.77-6.14-6.187 0-3.415 2.75-6.185 6.14-6.185z" fill="#fff"/><path d="M399.27 144.88h-1.012c.025-2.114-1.246-4.174-3.15-5.094-.768-.384-1.626-.58-2.484-.58v-1.02c2.255-.02 4.458 1.218 5.63 3.14.67 1.06 1.013 2.306 1.016 3.554zm-6.646 6.696v-1.02c2.073.025 4.08-1.22 5.006-3.07.415-.802.627-1.704.628-2.605h1.012c.02 2.275-1.212 4.507-3.152 5.697-1.042.653-2.265.998-3.495 1zm-6.646-6.696h1.012c-.024 2.09 1.214 4.126 3.082 5.062.785.405 1.668.615 2.55.614v1.02c-2.267.02-4.482-1.233-5.65-3.174-.652-1.052-.99-2.286-.994-3.522zm6.645-6.695v1.02c-2.072-.025-4.08 1.22-5.005 3.07-.414.802-.627 1.703-.628 2.604h-1.012c-.02-2.287 1.226-4.53 3.183-5.715 1.036-.642 2.247-.978 3.464-.98z" fill="#21231e"/><path d="M394.22 143.97c.605.82 1.218 1.637 1.838 2.456-9.7 5.36-13.717 11.016-12.77 16.702.16.976 3.11 11.382 9.7 31.55 4.503 3.132 7.86 5.936 10.07 8.41-.248.283.71 1.16.424 1.4.673 3.08-2.775 2.455-5.09 1.695-1.115-2.96-4.516-6.103-6.47-7.446-.398-.273-1.837-.98-1.98-1.44-3.526-11.35-7.068-21.843-10.106-31.615-3.052-9.82 3.56-16.78 14.384-21.713zM355.95 216.87l-.368 1.98c-2.824.66-5.24.825-7.245.494 3.355-3.3 5.854-4 7.613-2.474z" fill="#edb92e"/><path d="M355.08 218.76l.368-1.98.993.188-.367 1.98-.382.403-.61-.59zm.993.188l-.06.328-.322.075.383-.402zm-8.095.036l.706.728-.272-.867.183.03.18.024.19.02.187.022.19.018.192.013.198.012.198.01.202.005.205.002h.413l.212-.006.215-.008.216-.01.22-.015.22-.016.226-.02.226-.02.23-.026.23-.027.234-.03.237-.035.24-.037.242-.038.242-.042.25-.045.248-.047.25-.05.255-.055.258-.057.26-.06.228.994-.267.06-.265.06-.262.055-.262.053-.26.05-.255.045-.256.045-.25.04-.25.038-.248.036-.244.03-.243.03-.242.027-.238.023-.237.02-.23.017-.233.014-.23.01-.225.01-.225.006-.225.002h-.22l-.217-.006-.216-.006-.212-.01-.21-.01-.21-.016-.208-.02-.203-.02-.202-.025-.2-.03-.198-.03-.272-.868zm.272.867l-.99-.163.718-.703.272.867zm8.19-2.882l-.992-.188.167.48-.143-.118-.147-.104-.148-.093-.15-.08-.154-.07-.156-.058-.16-.048-.16-.036-.172-.024-.173-.014-.18-.002-.183.01-.192.022-.197.035-.204.048-.21.06-.216.075-.224.086-.23.102-.236.116-.242.13-.25.144-.253.16-.26.174-.266.19-.275.204-.278.218-.283.234-.29.25-.293.266-.3.28-.306.295-.706-.73.318-.307.314-.293.31-.278.305-.262.3-.25.297-.234.292-.22.29-.204.284-.19.28-.177.278-.163.276-.148.27-.132.267-.12.264-.103.26-.09.26-.073.257-.06.253-.043.25-.03.25-.013.245.002.24.018.235.034.235.05.227.07.22.08.217.1.21.11.204.13.197.14.19.156.168.48zm-.166-.48l.22.19-.053.29-.166-.48zm-.33.386l.497.094-.496-.094zm.33-.386l.22.19-.053.29-.166-.48z" fill="#21231e"/><path d="M355.64 212.34c1.77.394 1.934.695 2.706.83.992.172 2.36.102 3.3-.73 3.837-2.318 3.92 1.86 2.43 4.987-1.083 2.266-.528 4.826.504 6.766 1.22 2.29.96 3.34.097 3.96-.596.393-1.166.762-1.677 1.09-1.033 1.23-1.82 1.018-1.964-.59-3.832-1.59-5.1-5.292-6.248-8.55-1.677-4.767-7.77-5.894.85-7.763h.002z" fill="#edb92e"/><path d="M357.15 212.5c3.336 1.198 3.71-.666 5.96-.57-.887 5.14-1.785 7.8-7.11 5.04-2.938-1.522-6.7.707-7.416 2.36-.26.605-1.97-.65-2.595-2.024-2.617-5.757 6.687-6.412 11.16-4.806z" fill="#edb92e"/><path d="M458.84 124.49c3.376 0 6.112 2.758 6.112 6.16 0 3.4-2.736 6.158-6.112 6.158s-6.113-2.758-6.113-6.16c0-3.4 2.737-6.158 6.113-6.158z" fill="#fff"/><path d="M465.46 130.64h-1.012c.027-2.145-1.29-4.233-3.244-5.123-.735-.35-1.55-.525-2.362-.525v-1.02c2.247-.02 4.44 1.215 5.61 3.13.66 1.054 1.006 2.296 1.008 3.538zm-6.618 6.67v-1.02c2.076.024 4.085-1.232 4.998-3.09.402-.79.608-1.675.608-2.56h1.012c.02 2.265-1.207 4.488-3.137 5.672-1.037.65-2.257.996-3.48.997zm-6.62-6.67h1.014c-.026 2.104 1.24 4.154 3.134 5.07.764.382 1.618.58 2.472.578v1.02c-2.26.02-4.464-1.23-5.63-3.16-.647-1.05-.987-2.277-.99-3.508zm6.62-6.67v1.02c-2.088-.025-4.11 1.25-5.015 3.125-.392.78-.592 1.653-.59 2.525h-1.014c-.02-2.265 1.207-4.488 3.14-5.672 1.036-.652 2.256-.995 3.48-.997z" fill="#21231e"/><path d="M446.31 124.49c3.376 0 6.113 2.758 6.113 6.16 0 3.4-2.737 6.158-6.113 6.158-3.376 0-6.113-2.758-6.113-6.16 0-3.4 2.737-6.158 6.113-6.158z" fill="#fff"/><path d="M452.93 130.64h-1.012c.025-2.104-1.24-4.154-3.135-5.07-.764-.382-1.618-.58-2.472-.578v-1.02c2.26-.02 4.465 1.23 5.63 3.16.65 1.05.988 2.278.99 3.508zm-6.62 6.67v-1.02c2.09.025 4.11-1.248 5.017-3.125.39-.78.59-1.653.59-2.525h1.013c.02 2.265-1.207 4.488-3.14 5.672-1.036.65-2.255.996-3.48.997zm-6.618-6.67h1.012c-.025 2.104 1.24 4.154 3.135 5.07.763.382 1.617.58 2.47.578v1.02c-2.26.02-4.463-1.23-5.628-3.16-.65-1.05-.99-2.277-.99-3.508zm6.62-6.67v1.02c-2.09-.025-4.11 1.25-5.017 3.125-.39.78-.59 1.653-.59 2.525h-1.013c-.02-2.265 1.207-4.488 3.14-5.672 1.035-.652 2.256-.995 3.48-.997z" fill="#21231e"/><path d="M433.79 125.48c3.376 0 6.113 2.756 6.113 6.16 0 3.4-2.737 6.158-6.113 6.158-3.376 0-6.112-2.758-6.112-6.16s2.736-6.158 6.112-6.158z" fill="#fff"/><path d="M440.41 131.63h-1.012c.025-2.09-1.223-4.13-3.1-5.054-.774-.393-1.64-.595-2.507-.595v-1.018c2.248-.02 4.44 1.214 5.61 3.128.66 1.055 1.01 2.297 1.01 3.54zm-6.62 6.67v-1.02c2.09.025 4.11-1.248 5.017-3.125.39-.78.59-1.653.59-2.525h1.013c.02 2.265-1.207 4.488-3.14 5.672-1.036.65-2.255.996-3.48.997zm-6.617-6.67h1.012c-.026 2.145 1.29 4.233 3.244 5.123.734.35 1.548.526 2.36.526v1.018c-2.258.02-4.464-1.23-5.628-3.162-.647-1.048-.987-2.275-.99-3.506zm6.618-6.67v1.02c-2.087-.025-4.108 1.247-5.014 3.124-.39.78-.59 1.653-.59 2.526h-1.013c-.02-2.334 1.285-4.624 3.316-5.78.994-.583 2.148-.887 3.3-.89z" fill="#21231e"/><path d="M422.25 127.7c3.376 0 6.112 2.756 6.112 6.158 0 3.402-2.736 6.16-6.112 6.16s-6.113-2.758-6.113-6.16 2.737-6.158 6.113-6.158z" fill="#fff"/><path d="M428.87 133.86h-1.012c.025-2.104-1.24-4.154-3.134-5.07-.764-.38-1.618-.578-2.472-.577v-1.02c2.26-.02 4.464 1.228 5.63 3.16.647 1.05.987 2.276.988 3.507zm-6.618 6.67v-1.02c2.088.026 4.108-1.248 5.015-3.124.39-.78.59-1.653.59-2.526h1.013c.02 2.265-1.206 4.488-3.137 5.673-1.037.65-2.257.996-3.48.997zm-6.62-6.67h1.013c-.022 2.014 1.13 3.98 2.895 4.947.825.46 1.768.705 2.712.703v1.02c-2.246.02-4.44-1.215-5.61-3.13-.66-1.054-1.007-2.298-1.01-3.54zm6.62-6.668v1.02c-2.1-.026-4.132 1.263-5.032 3.156-.38.772-.575 1.632-.575 2.492h-1.012c-.02-2.322 1.27-4.6 3.284-5.76 1.004-.595 2.17-.906 3.335-.908z" fill="#21231e"/><path d="M346.3 159.43c3.39 0 6.14 2.768 6.14 6.186 0 3.417-2.75 6.186-6.14 6.186-3.39 0-6.14-2.77-6.14-6.186 0-3.418 2.75-6.186 6.14-6.186z" fill="#fff"/><path d="M352.94 165.62h-1.012c.024-2.1-1.23-4.15-3.117-5.078-.775-.395-1.646-.598-2.517-.598v-1.02c2.256-.02 4.46 1.22 5.632 3.142.667 1.06 1.012 2.305 1.015 3.554zm-6.646 6.695v-1.02c2.085.025 4.105-1.236 5.023-3.104.404-.79.61-1.68.61-2.57h1.013c.02 2.262-1.198 4.482-3.12 5.675-1.05.667-2.285 1.02-3.527 1.02zm-6.647-6.695h1.012c-.026 2.1 1.23 4.15 3.115 5.077.777.394 1.648.598 2.518.598v1.02c-2.242.02-4.434-1.205-5.61-3.11-.68-1.064-1.033-2.325-1.036-3.585zm6.646-6.696v1.02c-2.073-.025-4.08 1.22-5.007 3.07-.414.802-.626 1.704-.627 2.605h-1.013c-.02-2.275 1.212-4.507 3.152-5.697 1.04-.653 2.264-.998 3.494-1z" fill="#21231e"/><path d="M356.82 152.75c3.39 0 6.14 2.768 6.14 6.186 0 3.417-2.75 6.186-6.14 6.186-3.39 0-6.14-2.77-6.14-6.186s2.75-6.186 6.14-6.186z" fill="#fff"/><path d="M363.47 158.94h-1.012c.024-2.09-1.214-4.126-3.083-5.062-.784-.405-1.667-.615-2.55-.614v-1.02c2.268-.02 4.482 1.234 5.65 3.174.654 1.052.992 2.286.995 3.522zm-6.645 6.695v-1.02c2.085.025 4.104-1.236 5.022-3.103.404-.793.61-1.683.61-2.572h1.013c.02 2.26-1.197 4.48-3.118 5.674-1.05.668-2.285 1.02-3.527 1.02zm-6.647-6.695h1.012c-.024 2.114 1.246 4.174 3.15 5.094.77.384 1.626.58 2.485.58v1.02c-2.256.02-4.46-1.218-5.632-3.14-.667-1.06-1.01-2.306-1.015-3.554zm6.647-6.696v1.02c-2.086-.025-4.106 1.237-5.024 3.105-.403.79-.61 1.68-.61 2.57h-1.012c-.02-2.275 1.212-4.507 3.152-5.695 1.04-.656 2.266-1 3.495-1z" fill="#21231e"/><path d="M368.79 147.09c3.39 0 6.14 2.768 6.14 6.186 0 3.417-2.747 6.186-6.14 6.186-3.39 0-6.14-2.77-6.14-6.186 0-3.418 2.75-6.186 6.14-6.186z" fill="#fff"/><path d="M375.43 153.28h-1.012c.025-2.115-1.246-4.175-3.15-5.096-.768-.383-1.626-.58-2.484-.58v-1.02c2.255-.02 4.458 1.22 5.63 3.142.668 1.06 1.014 2.305 1.016 3.554zm-6.646 6.695v-1.02c2.085.026 4.104-1.236 5.023-3.103.404-.793.61-1.683.61-2.572h1.013c.02 2.274-1.21 4.505-3.15 5.694-1.043.654-2.266 1-3.496 1zm-6.646-6.695h1.012c-.024 2.09 1.215 4.125 3.083 5.06.784.406 1.667.615 2.55.615v1.02c-2.268.02-4.482-1.234-5.65-3.174-.654-1.05-.992-2.284-.995-3.52zm6.646-6.696v1.02c-2.073-.025-4.08 1.22-5.006 3.07-.414.802-.628 1.704-.627 2.605h-1.012c-.02-2.274 1.21-4.506 3.15-5.696 1.042-.654 2.266-1 3.495-1z" fill="#21231e"/><path d="M338.16 169.49c3.39 0 6.14 2.768 6.14 6.186 0 3.416-2.75 6.186-6.14 6.186-3.39 0-6.14-2.77-6.14-6.186 0-3.417 2.75-6.186 6.14-6.186z" fill="#fff"/><path d="M344.8 175.68h-1.012c.025-2.115-1.246-4.175-3.15-5.096-.768-.383-1.626-.58-2.484-.58v-1.02c2.255-.02 4.458 1.22 5.63 3.142.667 1.06 1.014 2.305 1.016 3.554zm-6.646 6.695v-1.02c2.073.025 4.08-1.22 5.007-3.072.415-.8.627-1.702.628-2.603h1.012c.02 2.274-1.213 4.506-3.153 5.694-1.04.656-2.265 1-3.494 1zm-6.646-6.695h1.012c-.024 2.09 1.215 4.125 3.083 5.06.785.406 1.668.615 2.55.615v1.02c-2.268.02-4.482-1.234-5.65-3.174-.654-1.05-.992-2.285-.995-3.52zm6.646-6.696v1.02c-2.073-.025-4.08 1.22-5.006 3.07-.414.802-.627 1.704-.627 2.605h-1.012c-.02-2.274 1.212-4.506 3.15-5.696 1.043-.654 2.266-1 3.496-1z" fill="#21231e"/><path fill="#edb92e" d="M454.248 276.26l-22.002 12.84-23.397-10.04 22-12.83z"/><path d="M431.13 270.65c5.64-.348 10.4 2.443 10.63 6.23.23 3.79-4.157 7.143-9.797 7.49-5.64.35-10.4-2.442-10.63-6.23-.23-3.79 4.156-7.143 9.797-7.49z" fill="#c6363c"/><path d="M382.38 269.85l23.776 9.074-19.628 13.224c-5.088-1.704-9.122-19.12-4.148-22.298z" fill="#edb92e"/><path d="M382.83 274.26c5.62-.577 10.49 2.017 10.872 5.792.382 3.777-3.868 7.306-9.49 7.883-3.654.376-5.927-2.845-6.322-6.26-.396-3.413 1.085-7.02 4.94-7.415z" fill="#0c4076"/><path d="M457.46 280.42c1.763 0 3.193 1.44 3.193 3.217 0 1.776-1.43 3.216-3.193 3.216-1.763 0-3.192-1.44-3.192-3.216 0-1.777 1.43-3.217 3.192-3.217zM408.71 283.14c1.763 0 3.193 1.44 3.193 3.217 0 1.776-1.43 3.216-3.193 3.216-1.763 0-3.192-1.44-3.192-3.216 0-1.777 1.43-3.217 3.192-3.217zM406.99 268.29c1.763 0 3.193 1.44 3.193 3.217 0 1.776-1.43 3.217-3.193 3.217-1.763 0-3.192-1.44-3.192-3.217 0-1.776 1.43-3.217 3.192-3.217zM457.34 266.19c1.763 0 3.192 1.44 3.192 3.216 0 1.777-1.43 3.217-3.192 3.217-1.764 0-3.193-1.44-3.193-3.217 0-1.776 1.43-3.216 3.193-3.216z" fill="#fff"/><path d="M370.93 237.39c2.417-.743 6.195 4.636 7.094 4.544 1.19-3.077-1.237-10.433-5.533-16.257-2.917-.96-3.18-2.848-3.78-7.23-.182-1.312-2.68-.408-2.727 1.822-.05 2.39-.234 3.714.298 5.755.21.805.094 1.576-.798 2.31 4.55 1.815 5.668 4.04 5.448 9.057z" fill="#edb92e"/><path d="M368.78 218.51c-.417 1.01-.543 1.835-.643 3.367-.077 1.168.35 2.26 1.092 3.23.744.972 1.81 1.83 3.007 2.524.74.433 1.592 1.626 2.266 2.982.67 1.35 1.16 2.872 1.187 3.955.096 3.58.79 6.708 2.417 7.325 1.065.404 1.49.34 2.316.15-.233-.644-.144-1.55-.718-2.447-.74-1.157-1.388-2.486-1.446-3.65-.052-.903-.476-1.507-.126-3.29.225-1.154.973-1.59.84-2.655-.257-2.062-1.874-6.02-4.248-6.02-2.34 0-3.435-.254-4.646-3.37-.412-1.06-.95-1.57-1.3-2.1zM359.96 227.08c.635-.49 1.405-.853 2.128-1.135 1.23-.48 2.544-.555 3.812-.17 5.613 1.696 8.07 11.667 1.92 14.063-1.21.148-2.328-.948-3.416-3.354-1.282-3.185-2.645-5.395-4.106-6.747-.895-1.13-.925-2.086-.34-2.657h.002z" fill="#edb92e"/><path d="M362.79 227.74c5.392-2.105 9.36 8.226 4.322 10.19-2.704 1.052-2.962-2.332-3.488-4.213-.71-2.54-6.012-3.955-.834-5.977z" fill="#edb92e"/><path d="M363.35 229.27c2.628-1.025 6.238 5.136 2.948 6.536-2.22.946-3.977-.298-4.69-2.155-.713-1.856-.102-3.66 1.742-4.38z" fill="#0c4076"/><path d="M400.08 179.66c3.517 0 6.367 2.872 6.367 6.415 0 3.542-2.85 6.415-6.367 6.415s-6.367-2.872-6.367-6.415 2.85-6.415 6.367-6.415z" fill="#fff"/><path d="M406.95 186.07h-1.012c.027-2.2-1.296-4.34-3.275-5.3-.8-.4-1.693-.605-2.586-.605v-1.02c2.333-.02 4.61 1.26 5.824 3.25.688 1.095 1.05 2.384 1.05 3.675zm-6.873 6.925v-1.02c2.17.026 4.27-1.287 5.225-3.23.42-.824.636-1.75.635-2.675h1.013c.02 2.352-1.255 4.66-3.26 5.89-1.076.676-2.343 1.033-3.613 1.035zm-6.874-6.925h1.013c-.027 2.2 1.295 4.34 3.274 5.3.8.4 1.693.605 2.586.605v1.02c-2.332.02-4.61-1.26-5.824-3.25-.686-1.095-1.047-2.384-1.05-3.675zm6.874-6.925v1.02c-2.17-.027-4.27 1.287-5.225 3.228-.42.825-.636 1.75-.636 2.676h-1.012c-.02-2.352 1.253-4.66 3.258-5.89 1.077-.676 2.344-1.034 3.615-1.035z" fill="#21231e"/><path d="M395.43 169c3.517 0 6.367 2.872 6.367 6.416 0 3.543-2.85 6.415-6.367 6.415s-6.367-2.87-6.367-6.414c0-3.544 2.85-6.416 6.367-6.416z" fill="#fff"/><path d="M402.31 175.42h-1.012c.026-2.186-1.28-4.317-3.24-5.283-.808-.41-1.715-.623-2.62-.623v-1.02c2.332-.02 4.61 1.26 5.823 3.25.687 1.096 1.05 2.383 1.05 3.676zm-6.873 6.925v-1.02c2.17.026 4.268-1.287 5.224-3.228.422-.825.638-1.75.637-2.677h1.013c.02 2.352-1.253 4.66-3.26 5.89-1.076.676-2.343 1.034-3.613 1.035zm-6.874-6.925h1.013c-.027 2.2 1.295 4.34 3.274 5.3.8.4 1.693.605 2.587.605v1.02c-2.333.02-4.61-1.26-5.825-3.25-.686-1.095-1.047-2.384-1.05-3.675zm6.874-6.926v1.02c-2.17-.027-4.27 1.287-5.226 3.23-.418.825-.635 1.75-.634 2.676h-1.012c-.02-2.352 1.253-4.66 3.258-5.89 1.077-.677 2.344-1.035 3.615-1.036z" fill="#21231e"/><path d="M410.68 131.46c3.39 0 6.14 2.768 6.14 6.185s-2.75 6.187-6.14 6.187c-3.39 0-6.14-2.77-6.14-6.187 0-3.416 2.75-6.185 6.14-6.185z" fill="#fff"/><path d="M417.32 137.65h-1.012c.025-2.114-1.246-4.174-3.15-5.094-.768-.384-1.626-.58-2.484-.58v-1.02c2.255-.02 4.458 1.218 5.63 3.14.668 1.06 1.013 2.306 1.016 3.554zm-6.646 6.696v-1.02c2.085.025 4.105-1.237 5.023-3.105.404-.79.61-1.68.61-2.57h1.013c.02 2.275-1.212 4.507-3.152 5.695-1.04.656-2.266 1-3.495 1zm-6.647-6.696h1.012c-.026 2.102 1.23 4.15 3.116 5.08.777.393 1.647.596 2.517.596v1.02c-2.243.02-4.434-1.205-5.61-3.11-.68-1.065-1.033-2.326-1.036-3.586zm6.646-6.695v1.02c-2.085-.025-4.105 1.236-5.023 3.104-.404.79-.61 1.68-.61 2.57h-1.013c-.02-2.262 1.198-4.482 3.12-5.675 1.05-.667 2.285-1.02 3.527-1.02z" fill="#21231e"/><path d="M400.36 136.18c3.517 0 6.367 2.872 6.367 6.415 0 3.544-2.85 6.416-6.367 6.416s-6.367-2.87-6.367-6.415c0-3.543 2.85-6.415 6.367-6.415z" fill="#fff"/><path d="M407.23 142.59h-1.012c.027-2.2-1.296-4.34-3.275-5.3-.8-.4-1.693-.605-2.586-.605v-1.02c2.333-.02 4.61 1.26 5.824 3.25.688 1.095 1.05 2.384 1.05 3.675zm-6.873 6.926v-1.02c2.156.026 4.244-1.27 5.207-3.194.43-.834.654-1.773.654-2.712h1.012c.02 2.352-1.253 4.66-3.26 5.89-1.076.677-2.343 1.035-3.613 1.036zm-6.874-6.926h1.013c-.026 2.186 1.278 4.317 3.24 5.283.808.41 1.714.624 2.62.623v1.02c-2.332.02-4.61-1.26-5.824-3.25-.686-1.096-1.048-2.383-1.05-3.676zm6.874-6.925v1.02c-2.17-.026-4.27 1.287-5.225 3.228-.42.825-.636 1.75-.636 2.677h-1.012c-.02-2.352 1.253-4.66 3.258-5.89 1.078-.676 2.344-1.034 3.615-1.035z" fill="#21231e"/><path d="M392.77 145.25c3.517 0 6.367 2.872 6.367 6.416 0 3.543-2.85 6.415-6.367 6.415s-6.367-2.87-6.367-6.414c0-3.544 2.85-6.416 6.367-6.416z" fill="#fff"/><path d="M399.64 151.66h-1.012c.026-2.186-1.28-4.317-3.24-5.283-.808-.41-1.714-.623-2.62-.623v-1.02c2.332-.02 4.61 1.26 5.824 3.25.685 1.096 1.048 2.383 1.048 3.676zm-6.873 6.925v-1.02c2.17.026 4.27-1.287 5.225-3.228.42-.825.635-1.75.635-2.676h1.012c.02 2.352-1.254 4.66-3.26 5.89-1.076.676-2.343 1.034-3.613 1.035zm-6.874-6.925h1.013c-.027 2.186 1.278 4.316 3.24 5.282.808.41 1.714.623 2.62.623v1.02c-2.332.02-4.61-1.26-5.824-3.25-.686-1.095-1.048-2.383-1.05-3.675zm6.874-6.926v1.02c-2.17-.027-4.27 1.287-5.226 3.23-.418.825-.635 1.75-.634 2.676h-1.012c-.02-2.352 1.253-4.66 3.258-5.89 1.077-.677 2.344-1.035 3.615-1.036z" fill="#21231e"/><path d="M391.54 156.66c3.518 0 6.367 2.872 6.367 6.415s-2.85 6.415-6.367 6.415-6.367-2.872-6.367-6.415 2.85-6.415 6.367-6.415z" fill="#fff"/><path d="M398.41 163.08h-1.012c.026-2.186-1.28-4.316-3.24-5.283-.808-.41-1.715-.623-2.62-.622v-1.02c2.345-.02 4.636 1.276 5.845 3.283.672 1.09 1.026 2.364 1.027 3.642zm-6.873 6.925v-1.02c2.182.027 4.294-1.303 5.242-3.264.408-.815.618-1.727.617-2.64h1.013c.02 2.424-1.335 4.802-3.444 6-1.035.607-2.232.923-3.43.925zm-6.874-6.925h1.013c-.027 2.2 1.295 4.34 3.274 5.3.8.4 1.693.605 2.586.605v1.02c-2.332.02-4.61-1.26-5.824-3.25-.687-1.095-1.047-2.384-1.05-3.675zm6.874-6.925v1.02c-2.17-.026-4.27 1.287-5.225 3.228-.42.825-.636 1.75-.636 2.677h-1.012c-.02-2.352 1.253-4.66 3.258-5.89 1.077-.676 2.344-1.033 3.615-1.035z" fill="#21231e"/><path d="M474.41 198.02c-2.7-5.03-5.566-8.248-8.596-9.65 4.176-13.155 5.158-30.146 2.703-51.096-.25-3.13-1.02-4.48-2.213-4.457-1.046.02-1.68 1.616-1.78 5.22.758 11.526 1.69 21.607 1.168 30.166-.468 7.642-2.262 13.996-4.237 21.155-.274.993.43 1.775 3.87 3.712 2.535 1.443 4.132 3.217 4.665 5.073.735-.296 1.207-.207 1.472-.13 2.547.74 3.623.538 2.948.006z" fill="#edb92e"/><path d="M465.33 188.22l.962.31-.27-.618.3.144.295.154.295.166.292.176.293.188.29.198.29.208.286.22.287.23.283.24.282.25.282.26.28.273.28.283.276.292.276.305.273.314.273.324.27.336.272.344.27.357.268.366.267.378.265.39.264.395.265.41.26.42.263.427.26.44.258.45.256.46.258.472-.89.486-.25-.462-.253-.45-.253-.44-.254-.43-.254-.418-.256-.407-.255-.396-.258-.385-.257-.377-.258-.364-.258-.354-.26-.343-.26-.332-.262-.32-.26-.31-.26-.3-.265-.29-.263-.277-.264-.267-.264-.258-.265-.245-.263-.236-.267-.223-.265-.216-.266-.202-.267-.193-.267-.182-.27-.17-.267-.16-.27-.152-.266-.14-.27-.13-.27-.618zm.27.618l-.406-.187.136-.43.27.618zm2.41-51.518l1.007-.082v-.02l.22 1.958.2 1.935.18 1.912.16 1.887.142 1.864.12 1.84.1 1.82.08 1.797.06 1.775.042 1.75.022 1.728v1.704l-.017 1.682-.04 1.658-.057 1.637-.076 1.614-.096 1.59-.117 1.568-.134 1.545-.155 1.524-.173 1.5-.193 1.48-.213 1.454-.23 1.435-.253 1.41-.27 1.387-.29 1.366-.308 1.344-.33 1.32-.347 1.3-.365 1.274-.386 1.254-.962-.31.378-1.235.36-1.258.344-1.282.323-1.3.306-1.328.286-1.35.267-1.37.25-1.395.228-1.417.21-1.44.194-1.463.172-1.485.153-1.51.134-1.53.114-1.557.096-1.577.076-1.602.058-1.62.037-1.647.017-1.67v-1.693l-.022-1.716-.04-1.74-.06-1.762-.08-1.786-.1-1.808-.12-1.83-.14-1.857-.16-1.876-.18-1.902-.2-1.925-.22-1.947v-.02zm0 .02v-.02l.002.028v-.008zm-1.7-4.008l-.02-1.02.15.004.143.014.147.025.143.036.14.05.135.06.13.07.128.083.118.092.114.1.11.11.104.12.096.13.092.134.088.143.082.15.078.163.074.167.07.175.065.187.062.19.057.203.055.212.052.217.047.23.047.236.04.248.04.258.034.266.033.274.03.286.024.295-1.007.08-.025-.282-.027-.27-.03-.26-.032-.248-.036-.238-.04-.226-.04-.22-.042-.205-.047-.195-.047-.185-.05-.173-.054-.165-.054-.153-.058-.143-.057-.133-.057-.12-.06-.11-.06-.102-.064-.092-.063-.08-.06-.07-.06-.062-.063-.054-.06-.05-.06-.036-.06-.032-.06-.028-.062-.02-.062-.017-.066-.01-.07-.006h-.074zm-1.286 4.677l-1.01.067v-.048l.01-.338.015-.327.017-.315.022-.302.02-.295.03-.28.03-.272.032-.26.038-.25.04-.24.043-.23.046-.22.048-.21.055-.2.056-.19.06-.18.063-.175.07-.165.075-.155.08-.147.08-.137.092-.13.095-.12.104-.112.11-.1.115-.09.125-.082.13-.067.14-.054.142-.04.146-.024.143-.01.02 1.02-.05.003-.043.007-.042.01-.04.017-.044.02-.043.03-.046.036-.05.046-.05.054-.05.065-.054.077-.053.09-.055.1-.053.11-.05.125-.052.136-.05.15-.048.16-.046.172-.045.184-.042.195-.038.207-.037.22-.033.233-.03.24-.03.257-.026.267-.024.278-.02.293-.017.303-.015.312-.01.327v-.048zm-1.01.067v-.049.05zm2.18 30.162l-1.01-.064.046-.8.035-.81.03-.822.02-.828.012-.838.007-.847v-.854l-.007-.866-.013-.874-.016-.884-.024-.892-.03-.902-.035-.91-.04-.92-.043-.927-.047-.936-.05-.945-.056-.956-.057-.965-.06-.973-.064-.98-.066-.992-.067-.998-.07-1.008-.07-1.016-.07-1.026-.073-1.033-.072-1.043-.073-1.052-.073-1.058-.074-1.068-.07-1.078 1.008-.067.072 1.074.073 1.068.072 1.058.073 1.05.072 1.043.072 1.033.07 1.026.07 1.017.07 1.007.067 1 .066.992.063.983.06.974.058.967.055.957.05.95.047.94.044.934.04.923.034.915.03.907.024.898.02.888.012.882.007.873v.866l-.007.854-.013.847-.023.84-.028.83-.036.82-.046.812zm-4.255 21.258l-.975-.272.185-.67.182-.664.183-.66.18-.656.177-.654.176-.65.173-.646.173-.646.167-.642.166-.64.162-.642.158-.64.154-.64.153-.64.146-.638.142-.64.138-.644.134-.643.128-.645.125-.648.118-.65.113-.654.108-.658.102-.66.094-.665.09-.67.083-.677.076-.68.07-.686.063-.695.055-.7.046-.706 1.01.062-.05.72-.054.71-.063.705-.07.698-.077.693-.085.686-.09.68-.097.675-.104.672-.11.667-.113.66-.12.663-.125.655-.13.653-.136.65-.14.65-.145.65-.148.645-.153.645-.157.644-.158.643-.165.646-.166.645-.17.647-.172.648-.173.65-.177.652-.18.654-.18.658-.182.66-.183.665-.185.668zm3.63 3.133l-.498.888-.315-.178-.302-.174-.287-.168-.272-.16-.257-.157-.244-.15-.23-.146-.22-.143-.2-.135-.192-.132-.18-.133-.168-.126-.158-.124-.145-.123-.137-.12-.124-.118-.118-.12-.106-.12-.096-.115-.09-.123-.077-.122-.07-.125-.06-.127-.046-.126-.04-.13-.027-.13-.016-.134-.006-.13.007-.132.015-.126.022-.123.03-.12.974.27-.016.064-.01.06-.007.058v.098l.006.047.01.05.016.05.02.058.03.06.034.064.044.068.053.072.067.08.075.086.086.088.1.096.113.1.123.102.14.11.15.114.16.118.18.123.193.132.204.133.22.14.234.145.25.152.265.156.278.165.297.17.312.176zm-.002 0l-.098-.056.097.055zm4.23 5.045l.376.945-.673-.33-.047-.158-.053-.157-.06-.157-.066-.158-.072-.157-.075-.155-.085-.158-.087-.155-.095-.156-.1-.157-.107-.155-.113-.154-.117-.155-.124-.155-.13-.153-.137-.15-.14-.15-.148-.15-.155-.152-.158-.148-.166-.147-.172-.148-.175-.145-.18-.143-.19-.143-.195-.142-.2-.14-.204-.14-.21-.135-.22-.136-.22-.135-.228-.132.497-.887.24.14.24.143.23.146.225.144.22.15.215.15.208.153.204.154.2.158.192.158.186.16.18.16.177.166.167.163.165.166.157.17.152.17.145.173.14.174.134.174.127.177.123.18.115.178.11.18.103.182.097.184.092.185.084.186.078.188.072.19.066.19.057.187-.673-.33zm.376.945l-.518.208-.155-.54.674.332zm1.424-1.092l-.28.98-.017-.006-.022-.006-.025-.007-.012-.003-.026-.006-.028-.005-.02-.004-.024-.003-.023-.004-.028-.004-.028-.003-.03-.004h-.025l-.037-.002h-.061l-.04.002-.035.002-.032.002-.04.005-.042.006-.04.006-.046.008-.043.008-.045.01-.048.01-.052.015-.053.016-.05.015-.055.02-.06.02-.057.022-.375-.945.08-.03.073-.028.074-.026.078-.026.07-.02.07-.02.07-.016.07-.017.07-.014.063-.01.068-.012.06-.007.063-.007.065-.005.06-.002h.05l.06-.003.057.002h.05l.057.005.047.004.048.006.048.006.045.006.044.008.048.008.035.008.034.006.045.012.03.007.032.008.032.01zm3.315.495H473.9l.82-.4.083.07.08.08.07.082.067.102.055.13.033.154-.012.185-.067.177-.105.138-.106.088-.11.062-.11.044-.107.03-.108.02-.108.013-.11.007-.12.005-.127-.003-.134-.005-.14-.01-.15-.015-.155-.02-.163-.022-.173-.028-.18-.033-.19-.038-.198-.04-.206-.05-.218-.05-.222-.058-.23-.064-.24-.067.278-.98.228.066.222.06.21.054.2.05.193.043.185.038.174.035.164.03.154.024.144.02.135.018.124.012.116.008.1.005h.09l.08-.002.068-.005.05-.006.035-.006.013-.003-.007.002-.025.013-.04.035-.06.08-.042.113-.007.115.016.08.022.05.01.018-.004-.006-.016-.016-.032-.025.817-.402zm-1.012 0v-1.046l.82.645-.82.4zm0 0h1.013l-.95.244-.062-.243z" fill="#21231e"/><path d="M458.4 214.56c1.565-.986 1.872-.724 2.374-1.37.647-.833.656-2.2.453-3.51-.82-5.284 2.335-4.546 5.882-2.21 1.773 1.17 3.558 3.883 5.082 5.3 1.524 1.415 2.788 1.536 3.168 2.095.048 2.028.057 3.78.043 4.573v.005c.014.793.006 2.542-.043 4.57-.38.56-1.645.68-3.168 2.096-1.524 1.416-3.31 4.13-5.083 5.297-3.55 2.338-6.702 3.074-5.883-2.21.2-1.31.194-2.676-.453-3.51-.502-.646-.81-.383-2.374-1.37-1.016-.638-1.777-1.408-2.285-2.243-.507-.835-.23-1.735-.23-2.635 0-.9-.277-1.8.23-2.636.508-.835 1.27-1.605 2.285-2.244z" fill="#edb92e"/><path d="M475.52 220.24l-.13.89c-3.753.473-6.85 1.984-9.556 4.355 1.79-2.668 5.63-4.653 9.686-5.245zM475.52 218.64l-.13-.89c-3.753-.474-6.85-1.984-9.556-4.355 1.79 2.667 5.63 4.652 9.686 5.245z" fill="#21231e"/><path d="M461.16 207.28c1.14.47 2.384.972 3.437 1.994 1.6 1.553.563 4.13-1.504 6.624-.652.787-.967 2.177-.963 3.56.005 1.385.332 2.764.963 3.525 2.066 2.494 3.103 5.072 1.504 6.624-1.052 1.023-2.295 1.523-3.436 1.993-.11-.6-.097-1.39.06-2.402.203-1.31.195-2.676-.452-3.508-.503-.647-.81-.385-2.375-1.37-1.015-.64-1.776-1.41-2.285-2.244-.507-.834-.23-1.734-.23-2.635 0-.9-.278-1.8.23-2.634.51-.836 1.27-1.605 2.285-2.244 1.566-.986 1.872-.724 2.375-1.37.647-.833.655-2.2.452-3.51-.157-1.01-.17-1.8-.06-2.402z" fill="#edb92e"/><path d="M361 226.26l.677-.292c-1.54-2.152-1.873-4.208-1.283-6.266-1.312 1.636-.992 4.212.606 6.558z" fill="#21231e"/><path d="M410.74 199.91c1.33 1.686 1.17 2.09 1.89 2.574.94.624 2.216.406 3.4-.046 4.86-1.86 4.86 2.005 3.45 6.428-.685 2.146-2.757 4.47-3.68 6.296-.91 1.787-.714 3.126-1.12 3.583-1.763.292-3.276.506-3.965.585h-.005c-.675.11-2.175.302-3.907.49-.567-.325-1.005-1.595-2.612-2.99-1.612-1.4-4.4-2.916-5.902-4.63-3.044-3.472-4.662-6.81.124-6.693 1.192.03 2.383-.188 2.917-1.044.42-.67.104-.972.514-2.928.27-1.284.74-2.307 1.343-3.043.614-.75 1.51-.585 2.334-.738.833-.157 1.59-.648 2.51-.182.917.465 1.844 1.237 2.71 2.337z" fill="#edb92e"/><path d="M410.05 219.43c-.264-.007-.528-.02-.793-.033-1.368-3.836-3.5-6.932-6.306-9.535 2.817 1.573 5.562 5.415 7.1 9.57v-.002zM411.43 219.24c.247-.08.493-.16.74-.242-.502-3.99.067-7.536 1.536-10.88-1.96 2.375-2.76 6.806-2.276 11.122z" fill="#21231e"/><path d="M418.3 201.97c-.18 1.423-.365 2.954-1.072 4.32-1.064 2.053-3.684 1.262-6.483-.7-.88-.618-2.23-.76-3.477-.54-1.243.218-2.383.79-2.88 1.612-1.595 2.638-3.51 4.12-5.31 2.613-1.19-1-1.996-2.29-2.75-3.477.482-.21 1.165-.315 2.09-.292 1.19.03 2.382-.188 2.916-1.044.423-.67.107-.972.517-2.924.27-1.286.74-2.308 1.343-3.047.613-.748 1.51-.58 2.334-.734.832-.155 1.588-.65 2.507-.184.918.464 1.846 1.237 2.712 2.337 1.328 1.685 1.163 2.09 1.89 2.576.94.62 2.217.4 3.4-.05.915-.346 1.662-.49 2.264-.466zM391.76 221.18c.775-.942 1.083-.732 1.225-1.324.18-.765-.27-1.963-.854-3.104-2.33-4.57.15-4.185 3.513-2.383.852.456 1.842 1.267 2.824 2.103.99.843 1.975 1.726 2.798 2.317 1.667 1.2 2.696 1.235 3.18 1.72.742 1.857 1.35 3.464 1.607 4.187 0 .003 0 .003.006.006.284.724.882 2.33 1.54 4.178-.105.517-1.064.66-1.78 1.98-.704 1.3-1.258 3.658-2.12 4.795-1.264 1.666-2.42 2.658-3.32 2.494-.897-.164-1.537-1.478-1.777-4.382-.093-1.128-.738-2.322-1.482-3.03-.58-.552-.71-.32-2.144-1.128-.927-.522-1.716-1.165-2.345-1.865-.628-.698-.725-1.478-1.016-2.248-.292-.773-.778-1.533-.703-2.267.076-.743.353-1.445.85-2.05z" fill="#edb92e"/><path d="M406.51 226.13c.07.32.148.636.222.944-1.446.34-2.643.935-3.64 1.752-.996.818-1.795 1.868-2.426 3.128.22-1.395.914-2.643 1.933-3.645 1.016-1.003 2.365-1.765 3.91-2.18zM405.92 224.45c-.14-.31-.285-.622-.432-.932-1.61-.134-3.165-.545-4.687-1.205-1.507-.656-2.984-1.555-4.445-2.67 1.158 1.297 2.664 2.4 4.32 3.227 1.668.834 3.49 1.385 5.244 1.58z" fill="#21231e"/><path d="M391.36 213.8c.993.366 1.66.82 2.802 1.767.87.72 1.344 1.76 1.513 2.947.17 1.193.04 2.545-.293 3.885-.206.83.046 2.247.536 3.643.487 1.388 1.217 2.76 1.956 3.5 2.444 2.45 4.16 5.04 3.477 6.643-.445 1.05-.783 1.322-1.483 1.798-.29-.6-.986-1.135-1.22-2.153-.304-1.31-.792-2.67-1.567-3.485-.6-.64-.732-1.352-2.22-2.28-.964-.602-1.782-.343-2.438-1.15-1.27-1.56-2.933-5.375-1.306-7.116 1.604-1.72 2.178-2.69.824-5.65-.46-1.006-.45-1.74-.58-2.35zM434.07 226.22c-1.277 1.102-1.6.884-1.956 1.55-.453.844-.242 2.128.148 3.333 1.537 4.753-1.36 4.335-4.842 2.517-1.732-.905-3.754-3.217-5.325-4.38-1.578-1.158-2.686-1.15-3.118-1.63-.442-1.877-.796-3.525-.938-4.278-.006 0-.006 0-.006-.005-.17-.75-.52-2.43-.89-4.407.216-.59 1.304-.86 2.372-2.46 1.085-1.617 2.166-4.636 3.57-6.105 2.876-3.013 5.765-4.307 5.925 1.48.04 1.4.287 2.82 1.038 3.585.59.603.832.292 2.47 1.102 1.07.527 1.923 1.216 2.535 2.003.615.79.49 1.73.625 2.63.135.898.533 1.765.178 2.644-.35.87-.946 1.697-1.786 2.42z" fill="#edb92e"/><path d="M417.9 222.59c-.024-.285-.05-.575-.068-.867 3.206-.878 5.693-2.725 7.722-5.435-1.14 2.895-4.208 5.283-7.654 6.302zM418.22 224.11c.1.277.193.553.29.825 3.36.064 6.373 1.177 9.19 3.144-2.056-2.343-5.82-3.832-9.48-3.97z" fill="#21231e"/><path d="M432.69 233.31c-1.085-.336-2.272-.688-3.364-1.53-1.664-1.288-1.18-3.78.248-6.355.46-.825.513-2.21.275-3.566-.24-1.364-.773-2.7-1.49-3.387-2.346-2.262-3.78-4.757-2.59-6.586.796-1.22 1.882-1.932 2.875-2.603.21.628.35 1.47.38 2.554.036 1.402.28 2.82 1.032 3.586.588.603.832.292 2.47 1.102 1.07.527 1.923 1.216 2.535 2.003.615.788.488 1.73.624 2.63.135.897.534 1.764.178 2.643-.35.868-.945 1.698-1.786 2.42-1.277 1.102-1.6.885-1.956 1.55-.453.845-.24 2.127.148 3.334.296.915.43 1.64.42 2.203zM410.55 216.45c4.026-.198 7.914 3.324 8.486 7.634.57 4.31-2.244 7.656-6.103 7.702-3.86.046-7.446-3.113-8.183-7.273-.738-4.16 1.774-7.865 5.8-8.063z" fill="#edb92e"/><path d="M410.89 218.57c2.945-.13 5.77 2.422 6.202 5.574.435 3.152-1.586 5.648-4.458 5.696-2.834.05-5.52-2.338-6.04-5.377-.532-3.106 1.352-5.764 4.296-5.893z" fill="#edb92e"/><path d="M411.22 220.72c1.842-.069 3.603 1.514 3.888 3.49.285 1.974-.986 3.567-2.79 3.606-1.802.037-3.5-1.464-3.82-3.406-.322-1.944.88-3.62 2.722-3.69z" fill="#0c4076"/></g><g><path d="M482.14 182.98c3.768 0 6.822 3.076 6.822 6.873s-3.054 6.873-6.822 6.873c-3.767 0-6.822-3.076-6.822-6.873 0-3.796 3.055-6.873 6.822-6.873z" fill="#fff"/><path d="M489.47 189.85h-1.012c.028-2.34-1.36-4.624-3.453-5.673-.88-.455-1.872-.69-2.863-.69v-1.02c2.5-.02 4.943 1.36 6.233 3.5.715 1.16 1.095 2.52 1.095 3.883zm-7.328 7.383v-1.02c2.323.028 4.573-1.368 5.61-3.44.467-.9.706-1.91.705-2.923h1.013c.023 2.598-1.44 5.147-3.708 6.418-1.094.633-2.357.964-3.62.965zm-7.328-7.383h1.012c-.027 2.34 1.36 4.625 3.454 5.673.88.455 1.87.69 2.862.69v1.02c-2.487.02-4.916-1.345-6.21-3.465-.732-1.167-1.117-2.542-1.118-3.918zm7.328-7.383v1.02c-2.337-.028-4.6 1.386-5.63 3.478-.454.89-.685 1.887-.686 2.885h-1.012c-.02-2.508 1.336-4.97 3.475-6.28 1.148-.72 2.498-1.102 3.852-1.103z" fill="#21231e"/><path d="M482.14 171.07c3.768 0 6.822 3.078 6.822 6.873 0 3.797-3.054 6.873-6.822 6.873-3.767 0-6.822-3.076-6.822-6.873 0-3.796 3.055-6.873 6.822-6.873z" fill="#fff"/><path d="M489.47 177.94h-1.012c.028-2.368-1.394-4.677-3.527-5.71-.86-.43-1.824-.653-2.788-.653v-1.02c2.488-.02 4.917 1.344 6.21 3.466.732 1.166 1.117 2.542 1.118 3.917zm-7.328 7.383v-1.02c2.323.028 4.573-1.368 5.61-3.44.467-.9.706-1.91.705-2.922h1.013c.023 2.598-1.44 5.147-3.708 6.418-1.094.633-2.357.964-3.62.965zm-7.328-7.383h1.012c-.027 2.34 1.36 4.625 3.454 5.673.88.455 1.87.69 2.862.69v1.02c-2.487.02-4.916-1.345-6.21-3.464-.732-1.17-1.117-2.544-1.118-3.92zm7.328-7.383v1.02c-2.337-.028-4.6 1.386-5.63 3.478-.454.89-.685 1.887-.686 2.885h-1.012c-.02-2.508 1.336-4.97 3.475-6.28 1.148-.72 2.498-1.102 3.852-1.103z" fill="#21231e"/><path d="M482.14 159.61c3.768 0 6.822 3.078 6.822 6.873 0 3.796-3.054 6.873-6.822 6.873-3.767 0-6.822-3.077-6.822-6.873 0-3.795 3.055-6.873 6.822-6.873z" fill="#fff"/><path d="M489.47 166.49h-1.012c.028-2.368-1.394-4.677-3.527-5.71-.86-.43-1.824-.653-2.788-.653v-1.02c2.487-.02 4.917 1.344 6.21 3.466.732 1.166 1.117 2.542 1.118 3.917zm-7.328 7.383v-1.02c2.323.027 4.575-1.367 5.61-3.442.467-.897.706-1.91.705-2.92h1.013c.02 2.508-1.337 4.968-3.474 6.28-1.15.72-2.5 1.102-3.854 1.103zm-7.328-7.383h1.012c-.028 2.37 1.395 4.677 3.527 5.71.862.43 1.826.653 2.79.653v1.02c-2.503.02-4.944-1.36-6.234-3.5-.718-1.16-1.094-2.52-1.096-3.883zm7.328-7.383v1.02c-2.337-.028-4.6 1.386-5.63 3.478-.454.89-.685 1.887-.686 2.885h-1.012c-.02-2.508 1.336-4.97 3.475-6.28 1.148-.72 2.498-1.1 3.852-1.103z" fill="#21231e"/><path d="M482.14 127.08c3.768 0 6.822 3.078 6.822 6.873 0 3.797-3.054 6.875-6.822 6.875-3.767 0-6.822-3.078-6.822-6.875 0-3.795 3.055-6.873 6.822-6.873z" fill="#fff"/><path d="M489.47 133.95h-1.012c.028-2.368-1.394-4.677-3.527-5.71-.86-.43-1.824-.653-2.788-.653v-1.02c2.488-.02 4.917 1.344 6.21 3.466.732 1.166 1.117 2.542 1.118 3.917zm-7.328 7.384v-1.02c2.323.028 4.573-1.368 5.61-3.44.466-.9.706-1.912.705-2.924h1.012c.023 2.585-1.423 5.12-3.67 6.4-1.105.644-2.38.982-3.658.984zm-7.328-7.384h1.012c-.027 2.355 1.377 4.652 3.49 5.692.87.444 1.85.672 2.826.672v1.02c-2.473.02-4.89-1.33-6.188-3.43-.747-1.175-1.138-2.564-1.14-3.954zm7.328-7.383v1.02c-2.337-.027-4.6 1.386-5.63 3.478-.454.89-.685 1.887-.686 2.885h-1.012c-.02-2.507 1.336-4.97 3.475-6.28 1.148-.72 2.498-1.1 3.852-1.103z" fill="#21231e"/><path d="M482.14 137.16c3.768 0 6.822 3.076 6.822 6.872 0 3.797-3.054 6.874-6.822 6.874-3.767 0-6.822-3.077-6.822-6.874 0-3.796 3.055-6.872 6.822-6.872z" fill="#fff"/><path d="M489.47 144.03h-1.012c.028-2.355-1.378-4.65-3.49-5.69-.87-.443-1.85-.672-2.826-.672v-1.02c2.565-.023 5.066 1.433 6.33 3.662.655 1.122.996 2.42.998 3.72zm-7.328 7.384v-1.02c2.323.027 4.573-1.368 5.61-3.44.466-.9.706-1.912.705-2.924h1.012c.023 2.585-1.423 5.12-3.67 6.4-1.105.644-2.38.982-3.658.984zm-7.328-7.384h1.012c-.027 2.354 1.377 4.652 3.49 5.692.87.444 1.85.672 2.826.672v1.02c-2.488.02-4.916-1.345-6.21-3.465-.732-1.17-1.116-2.544-1.118-3.92zm7.328-7.382v1.02c-2.364-.03-4.653 1.42-5.666 3.55-.43.87-.65 1.842-.65 2.812h-1.012c-.02-2.508 1.336-4.97 3.475-6.28 1.147-.72 2.498-1.1 3.852-1.102z" fill="#21231e"/><path d="M482.14 148.16c3.768 0 6.822 3.078 6.822 6.873 0 3.797-3.054 6.875-6.822 6.875-3.767 0-6.822-3.078-6.822-6.875 0-3.795 3.055-6.873 6.822-6.873z" fill="#fff"/><path d="M489.47 155.03h-1.012c.028-2.368-1.394-4.677-3.527-5.71-.86-.43-1.824-.653-2.788-.653v-1.02c2.488-.02 4.917 1.344 6.21 3.466.732 1.166 1.117 2.542 1.118 3.917zm-7.328 7.384v-1.02c2.323.028 4.573-1.368 5.61-3.44.466-.9.706-1.912.705-2.924h1.012c.023 2.585-1.423 5.12-3.67 6.4-1.105.644-2.38.982-3.658.984zm-7.328-7.384h1.012c-.027 2.354 1.377 4.652 3.49 5.692.87.444 1.85.672 2.826.672v1.02c-2.473.02-4.89-1.33-6.188-3.43-.747-1.175-1.138-2.564-1.14-3.954zm7.328-7.383v1.02c-2.337-.028-4.6 1.386-5.63 3.478-.454.89-.685 1.887-.686 2.885h-1.012c-.02-2.508 1.336-4.97 3.475-6.28 1.148-.72 2.498-1.102 3.852-1.103z" fill="#21231e"/><path d="M486.99 195.51c.978 1.578.72 1.886 1.36 2.393.826.652 2.182.66 3.482.456 5.245-.826 4.513 2.35 2.194 5.926-1.16 1.787-3.852 3.585-5.26 5.12-1.404 1.537-1.524 2.81-2.08 3.194-2.012.048-3.75.057-4.538.043h-.004c-.787.015-2.524.006-4.537-.043-.554-.384-.674-1.657-2.08-3.193-1.405-1.536-4.1-3.334-5.26-5.12-2.318-3.575-3.048-6.753 2.195-5.928 1.3.202 2.658.195 3.482-.457.643-.507.384-.815 1.36-2.393.636-1.022 1.4-1.79 2.23-2.302.827-.51 1.72-.232 2.614-.232.893 0 1.786-.28 2.615.232.83.512 1.593 1.28 2.228 2.302z" fill="#edb92e"/><path d="M481.35 212.77l-.883-.132c-.47-3.78-1.97-6.9-4.324-9.627 2.648 1.803 4.618 5.67 5.207 9.76z" fill="#21231e"/><path d="M494.21 198.3c-.467 1.15-.965 2.402-1.98 3.462-1.54 1.61-4.098.567-6.574-1.516-.78-.656-2.16-.973-3.535-.968-1.373.005-2.74.333-3.496.968-2.476 2.083-5.033 3.127-6.575 1.516-1.016-1.06-1.512-2.312-1.978-3.462.596-.11 1.38-.097 2.383.06 1.3.203 2.656.196 3.482-.454.642-.508.383-.817 1.36-2.394.634-1.023 1.398-1.79 2.228-2.303.828-.512 1.72-.233 2.614-.233.893 0 1.786-.28 2.616.232.828.512 1.592 1.28 2.227 2.302.978 1.577.72 1.886 1.36 2.394.826.65 2.182.657 3.482.454 1.004-.157 1.79-.17 2.385-.06zM482.14 211.65c4.27 0 7.732 3.488 7.732 7.79s-3.462 7.79-7.732 7.79-7.73-3.488-7.73-7.79 3.46-7.79 7.73-7.79z" fill="#edb92e"/><path d="M482.94 212.77l.882-.132c.47-3.78 1.97-6.9 4.324-9.627-2.648 1.803-4.62 5.67-5.206 9.76z" fill="#21231e"/></g><use width="1350" height="900" transform="matrix(-1 0 0 1 964.286 0)" xlink:href="#b"/><g><path d="M576.93 293.58c2.002.303 3.062 1.568 2.99 2.86.07 1.295-.99 2.56-2.995 2.863-.455.124-.963.217-1.53.266-60.787 5.235-125.72 5.237-186.51 0-.564-.05-1.072-.143-1.528-.267-2.004-.303-3.065-1.568-2.995-2.862-.07-1.292.99-2.557 2.99-2.86.456-.125.967-.216 1.534-.266 60.79-5.237 125.72-5.235 186.51 0 .568.05 1.078.14 1.534.266z" fill="#edb92e" stroke="#21231e" stroke-width="1.014"/><path d="M482.14 269.15c5.65 0 10.234 3.078 10.234 6.873 0 3.797-4.583 6.873-10.234 6.873-5.65 0-10.232-3.076-10.232-6.873 0-3.796 4.58-6.873 10.232-6.873z" fill="#0c4076"/><path d="M482.14 211.65c4.27 0 7.732 3.488 7.732 7.79s-3.462 7.79-7.732 7.79-7.73-3.488-7.73-7.79 3.46-7.79 7.73-7.79z" fill="#edb92e"/><path d="M482.14 213.71c3.14 0 5.684 2.564 5.684 5.727 0 3.164-2.545 5.728-5.684 5.728-3.14 0-5.684-2.564-5.684-5.728 0-3.163 2.545-5.727 5.684-5.727z" fill="#edb92e"/><path d="M482.14 215.83c1.977 0 3.58 1.614 3.58 3.606 0 1.99-1.603 3.605-3.58 3.605-1.976 0-3.58-1.614-3.58-3.604 0-1.992 1.604-3.606 3.58-3.606z" fill="#0c4076"/></g></g><path d="M314.58 301.17v271.324c0 48.555 18.82 92.636 49.174 124.58 30.354 31.944 72.248 51.75 118.39 51.75h.006c46.145-.002 88.036-19.806 118.39-51.748 30.356-31.943 49.174-76.026 49.175-124.58v-271.31c-111.71-.01-223.43.015-335.14 0z" fill="#c6363c"/><g fill="#fff" stroke="#21231e" stroke-width=".994"><path d="M483.67 734.79c1.456-.24 3.913.067 5.77-1.393 2.47-1.943 1.49-9.787 1.267-14.75-1.135-25.355-2.173-68.035-3.463-127.97-2.113-.29-3.65-.14-5.095.077-1.445-.218-2.983-.366-5.095-.078-1.29 59.94-2.328 102.62-3.465 127.97-.22 4.964-1.202 12.81 1.27 14.75 1.856 1.46 4.313 1.153 5.77 1.394h3.04zM499.55 734.06c-1.472-.106-3.89.423-5.872-.862-2.636-1.71-2.853-9.733-3.08-14.696-1.163-25.353-3.508-67.83-7.646-127.64 2.077-.48 3.623-.47 5.08-.385.228-.056.46-.11.694-.16 9.527 59.167 13.124 101.14 19.648 126.46.9 3.495 2.835 12.253-.176 15.098-1.717 1.623-4.192 1.54-5.62 1.91l-3.027.277z"/><path d="M518.2 731.39c-1.475.027-3.836.774-5.926-.327-2.78-1.464-2.667-9.472-3.906-14.28-6.525-25.32-10.122-67.31-19.653-126.5 2.026-.666 3.564-.797 5.025-.844l.206-.07c15.15 57.537 19.692 98.096 31.45 123.15 1.09 3.472 4.053 12.692 1.22 15.904-1.565 1.772-4.036 1.913-5.425 2.413l-2.99.55z"/><path d="M536.98 726.08c-1.465.174-3.935 1.54-6.123.65-2.91-1.18-3.366-9.746-5.46-14.208-11.814-25.17-16.343-65.982-31.66-123.94 1.95-.862 3.468-1.146 4.917-1.337 1.327-.61 1.075-.924 3.185-1.233 17.796 57.24 23.577 97.056 40.365 121.76 2.71 3.988 4.694 11.975 2.856 14.525-1.38 1.92-3.826 2.304-5.158 2.94l-2.923.84zM464.75 734.06c1.472-.106 3.89.423 5.872-.862 2.637-1.71 2.853-9.733 3.08-14.696 1.164-25.353 3.508-67.83 7.646-127.64-2.077-.48-3.622-.47-5.08-.385-.228-.056-.458-.11-.694-.16-9.527 59.167-13.124 101.14-19.648 126.46-.9 3.495-2.833 12.253.176 15.098 1.718 1.623 4.192 1.54 5.62 1.91l3.03.277h-.002z"/><path d="M446.09 731.39c1.474.027 3.836.774 5.926-.327 2.78-1.464 2.666-9.472 3.905-14.28 6.525-25.32 10.123-67.31 19.656-126.5-2.026-.666-3.566-.797-5.026-.844l-.205-.07c-15.15 57.537-19.693 98.096-31.45 123.15-1.09 3.472-4.055 12.692-1.22 15.904 1.564 1.772 4.036 1.913 5.425 2.413l2.99.55z"/><path d="M427.31 726.08c1.465.174 3.935 1.54 6.123.65 2.91-1.18 3.367-9.746 5.462-14.208 11.812-25.17 16.34-65.982 31.66-123.94-1.95-.862-3.47-1.146-4.918-1.337-1.328-.61-1.076-.924-3.186-1.233-17.796 57.24-23.577 97.056-40.365 121.76-2.71 3.988-4.693 11.975-2.856 14.525 1.38 1.92 3.826 2.304 5.16 2.94l2.92.84zM527.05 682.84c-1.34.08-3.36.9-5.464-.105-2.8-1.334-4.626-9.066-6.126-13.873-11.915-23.54-22.79-65.347-40.632-123.45 1.727-.728 3.108-.914 4.432-1.012 1.175-.517 2.454-.988 4.378-1.162 19.215 57.497 27.843 99.074 46.623 121.97 3.102 3.78 5.408 12.025 3.933 14.414-1.107 1.797-3.337 2.026-4.515 2.567l-2.63.647h.002z"/><path d="M511.85 685.82c-1.344-.027-3.45.627-5.427-.54-2.632-1.553-3.562-9.395-4.5-14.3-4.803-25.05-13.66-67.096-26.245-126.12 1.804-.586 3.2-.66 4.528-.654 1.23-.42 2.556-.787 4.492-.807 14.87 58.656 18.31 102.58 32.376 125.13 2.563 4.108 3.998 12.4 2.257 14.662-1.31 1.7-3.555 1.75-4.79 2.195l-2.69.436z"/><path d="M496.38 687.58c-1.335-.134-3.505.35-5.34-.97-2.44-1.757-2.464-9.636-2.835-14.592-1.897-25.32-5.876-67.88-11.614-127.64 1.864-.44 3.262-.403 4.584-.29 1.272-.32 2.634-.58 4.563-.445 8.055 59.573 12.736 102.71 17.833 127.14 1.017 4.873 2.552 12.664.558 14.776-1.5 1.587-3.74 1.457-5.018 1.802l-2.73.218zM437.24 682.84c1.34.08 3.36.9 5.464-.105 2.8-1.334 4.626-9.066 6.126-13.873 11.915-23.54 22.79-65.347 40.632-123.45-1.727-.728-3.108-.914-4.432-1.012-1.174-.517-2.454-.988-4.378-1.162-19.215 57.497-27.843 99.074-46.623 121.97-3.1 3.78-5.408 12.025-3.933 14.414 1.108 1.797 3.337 2.026 4.515 2.567l2.63.647h-.002z"/><path d="M452.44 685.82c1.343-.027 3.448.627 5.427-.54 2.632-1.553 3.56-9.395 4.5-14.3 4.802-25.05 13.66-67.096 26.245-126.12-1.805-.586-3.2-.66-4.53-.654-1.228-.42-2.554-.787-4.49-.807-14.87 58.656-18.31 102.58-32.378 125.13-2.563 4.108-4 12.4-2.256 14.662 1.31 1.7 3.555 1.75 4.79 2.195l2.692.436z"/><path d="M467.92 687.58c1.335-.134 3.505.35 5.34-.97 2.44-1.757 2.464-9.636 2.836-14.592 1.898-25.32 5.876-67.88 11.614-127.64-1.864-.44-3.26-.403-4.582-.29-1.273-.32-2.634-.58-4.565-.445-8.054 59.573-12.735 102.71-17.832 127.14-1.016 4.873-2.552 12.664-.558 14.776 1.5 1.587 3.74 1.457 5.02 1.802l2.73.218z"/><path d="M483.52 688.09c1.312-.24 3.528.068 5.203-1.392 2.228-1.942 1.344-9.788 1.143-14.752-1.024-25.356-1.96-68.036-3.123-127.98-1.906-.288-3.292-.14-4.595.078-1.303-.217-2.688-.366-4.594-.078-1.164 59.942-2.1 102.62-3.123 127.98-.2 4.964-1.084 12.81 1.143 14.752 1.676 1.46 3.89 1.152 5.204 1.392h2.743zM516.54 647.97c-1.027.08-2.574.9-4.186-.103-2.143-1.336-3.542-9.067-4.69-13.873-9.127-23.54-17.458-65.347-31.124-123.45 1.324-.728 2.38-.913 3.394-1.013.9-.516 1.88-.986 3.354-1.16 14.718 57.496 21.327 99.073 35.71 121.97 2.376 3.778 4.143 12.024 3.013 14.414-.848 1.796-2.556 2.026-3.456 2.566l-2.015.65z"/><path d="M504.9 650.96c-1.03-.027-2.64.626-4.157-.54-2.016-1.552-2.728-9.395-3.448-14.3-3.677-25.053-10.46-67.098-20.1-126.12 1.382-.586 2.45-.66 3.467-.654.942-.42 1.958-.787 3.44-.807 11.392 58.656 14.026 102.58 24.8 125.13 1.964 4.108 3.063 12.4 1.73 14.662-1.005 1.7-2.724 1.75-3.67 2.195l-2.06.436z"/><path d="M493.05 652.72c-1.022-.135-2.683.35-4.09-.972-1.87-1.755-1.887-9.635-2.172-14.592-1.452-25.32-4.5-67.88-8.895-127.64 1.428-.438 2.5-.4 3.51-.29.975-.32 2.02-.578 3.497-.443 6.17 59.573 9.755 102.71 13.66 127.14.778 4.873 1.954 12.664.427 14.776-1.148 1.587-2.865 1.457-3.845 1.8l-2.09.22h-.002zM447.75 647.97c1.027.08 2.574.9 4.186-.103 2.143-1.336 3.542-9.067 4.69-13.873 9.127-23.54 17.458-65.347 31.124-123.45-1.324-.728-2.38-.913-3.394-1.013-.9-.516-1.88-.986-3.354-1.16-14.718 57.496-21.327 99.073-35.71 121.97-2.376 3.778-4.143 12.024-3.013 14.414.848 1.796 2.556 2.026 3.456 2.566l2.015.65z"/><path d="M459.39 650.96c1.03-.027 2.64.626 4.157-.54 2.015-1.552 2.728-9.395 3.447-14.3 3.678-25.053 10.462-67.098 20.1-126.12-1.38-.586-2.45-.66-3.467-.654-.94-.42-1.958-.787-3.44-.807-11.39 58.656-14.025 102.58-24.8 125.13-1.963 4.108-3.063 12.4-1.728 14.662 1.002 1.7 2.722 1.75 3.666 2.195l2.063.436z"/><path d="M471.25 652.72c1.023-.135 2.685.35 4.09-.972 1.87-1.755 1.888-9.635 2.172-14.592 1.453-25.32 4.5-67.88 8.895-127.64-1.428-.438-2.497-.4-3.51-.29-.975-.32-2.018-.578-3.496-.443-6.17 59.573-9.754 102.71-13.66 127.14-.777 4.873-1.954 12.664-.426 14.776 1.15 1.587 2.864 1.457 3.844 1.8l2.092.22z"/><path d="M483.2 653.23c1.006-.24 2.703.068 3.986-1.392 1.707-1.942 1.03-9.787.877-14.75-.785-25.358-1.503-68.038-2.394-127.98-1.46-.29-2.523-.14-3.52.077-1-.218-2.06-.366-3.52-.078-.89 59.942-1.61 102.62-2.393 127.98-.154 4.964-.83 12.81.876 14.75 1.283 1.46 2.98 1.153 3.986 1.393h2.1z"/><path d="M474.88 559.13c-.08 4.248-.13 9.015-.162 13.914l-.047.015-10.59 2.2c-.022 4.83 11.918 55.43 18.065 55.43 6.154 0 18.088-50.632 18.064-55.463l-10.59-2.168-.047-.016c-.033-4.9-.083-9.666-.162-13.914-2.224 1.847-4.68 5.07-7.265 7.982-2.586-2.91-5.038-6.135-7.263-7.982h-.002z"/></g><g id="d"><path d="M412.13 584.52c-3.202.137-7.13 1.97-18.607 11.936-5.01 10.24-10.058 20.537-17.02 29.416-2.375 1.57-4.238 2.666-6.12 3.29-1.966.647-16.436.17-16.79-.437-4.502-4.09-11.383-1.175-9.087 3.138-1.783 1.694 2.145 7.888 5.302 5.32 2.898-2.36 12.985-.133 16.346-1.354-1.272 3.03-10.384 5.005-16.755 5.467-5.823.248-5.436 6.064-3.035 10.524 2.727 1.743.488-.456 1.477.817 2.607 3.87 8.182 3.366 8.37-.416.193-3.915 13.786-9.01 15.824-12.015-2.493 5.944-8.24 11.49-11.094 17.31-3.065 3.082-4.93 3.697-.966 9.91 4.4-.5 4.657-1.67 7.364.892 6.012-.658 6.984-2.445 6.01-7.21-1.03-5.034 3.178-14.14 4.577-16.71 1.29-2.375 1.607-4.84 2.862-6.326 2.18-2.58 12.57-7.75 15.23-6.33 4.897 2.61 8.635 1.03 9.252-3.718-1.577-1.223-.394-7.968-3.782-8.254-2.77-.233-4.413.62-6.958 2.703-4.01 3.28-6.07 5.026-7.39 4.662-3.127-.862 5.665-5.18 13.66-15.683 11.08-14.554 11.84-21.95 11.327-26.93z" fill="#edb92e" stroke="#21231e" stroke-width=".994"/><use width="1350" height="900" transform="matrix(-1 0 0 1 801.634 0)" xlink:href="#c"/><path d="M345.18 634.54c-4.012-2.352-6.318-2.26-7.875-.51-.855.964-1.948.465-1.308-1.046 2.668-6.313 6.923-7.1 10.74-4.14 1.07.99 1.93 1.842 2.788 2.692-.64.948-3.828 2.277-4.345 3.004zM402.64 628.89c4.26-2.9 8.25-3.468 10.436-1.84 1.202.897 2.39.254 1.332-1.235-4.417-6.22-9.594-6.536-13.5-3.03-1.06 1.15-1.903 2.13-2.745 3.11 1.337 1.466 4.29 3.12 4.477 2.995zM369.09 664.55c.13-.257-.978-5.44-2.712-7.06-1.348 1.082-2.862 2.036-4.286 3.524-4.26 4.45-4.24 11.01 2.413 16.728 1.643 1.412 2.393-.077 1.73-1.7-1.136-2.777.243-6.32 2.855-11.493zM352.47 650.93c-3.956 1.644-5.32 3.727-5.177 6.463.08 1.505-.91 2.066-1.467.316-4.837-11.244.18-13.348 7.43-12.94.416 1.96-.615 6.088-.787 6.16z" fill="#edb92e" stroke="#21231e" stroke-width=".994"/><path d="M462.62 580.6l-9.49-5.375c-3.992 2.867-6.945 13.516-.123 22.215 8.504 10.843 11.947 18.704 14.025 27.48 6.19-7.93 8.318-16.27 4.388-24.405-5.302-10.976-8.753-17.165-8.8-19.915z" fill="#fff" stroke="#21231e" stroke-width=".994"/><path d="M470.37 573.01l-9.49-5.375c-3.992 2.868-12.335 13.18-5.513 21.877 8.503 10.843 17.338 19.044 19.415 27.82 6.19-7.93 8.823-16.272 4.894-24.408-5.302-10.975-9.258-17.164-9.306-19.913zM449.43 569.16l-9.49-5.375c-3.992 2.867-6.945 13.515-.123 22.214 8.505 10.843 11.947 18.705 14.025 27.48 6.19-7.93 8.32-16.27 4.39-24.406-5.304-10.975-8.754-17.164-8.802-19.913z" fill="#fff" stroke="#21231e" stroke-width=".994"/><path d="M405.49 468.99c.182 8.678-1.356 66.56-1.84 74.738-.483 8.144-4.092 13.695-7.938 16.877-3.527-4.85-5.632-11.392-6.134-19.156-.255-3.96.474-58.734.778-69.992 6.48-17.16 11.29-17.81 15.134-2.468z" fill="#fff"/><path d="M367.87 454.83l-2.456 79.583c-.775 7.06 8.418 49.073 13.442 57.36 12.436-5.317 15.062-33.82 12.72-61.593-2.34-27.775.393-51.76 2.29-56.75.165-6.283-.89-12.836-.953-19.38-7.918.474-17.125.305-25.043.78z" fill="#fff"/><path d="M353.13 467.85l1.69 79.603c-.407 7.094 10.96 48.54 16.408 56.542 12.613-9.79 10.075-49.808 8.142-61.917-3.852-24.13-3.197-52.08-1.87-56.62-.16-6.283-.32-13.806-.722-20.335-7.883.908-15.764 1.82-23.647 2.727z" fill="#fff"/><path d="M342.19 486.7l20.91-.533c-1.776 8.683-.354 35.655 3.253 56.214 3.383 19.278 8.107 69.273-11.96 81.277-12.444-26.38-2.97-52.014-9.24-74.92-4.894-24.344-5.86-44.68-2.963-62.037zM422.15 454.38c-.08 8.68-3.37 66.485-4.103 74.644-.73 8.124-4.503 13.556-8.444 16.614-3.38-4.96-5.285-11.567-5.55-19.342-.136-3.964 2.252-58.69 2.896-69.933 6.996-16.946 11.823-17.44 15.2-1.983zM384.99 407.23c-.557 18.646-.875 59.108-.76 62.547.266 7.776 3.332 17.672 6.71 22.63 3.94-3.057 7.716-8.49 8.446-16.614.6-6.68.81-39.483.91-55.923-4.217-2.716-8.566-6.11-12.08-9.72 0 0-3.096-2.755-3.225-2.92z" fill="#fff"/><path d="M399.93 419.25c-.37 20.09-.154 51.736-.066 54.31.265 7.774 2.173 14.382 5.55 19.343 3.94-3.06 8.103-8.685 8.832-16.81.448-5 1.838-26.45 1.968-42.912-5.3-1.67-11.99-10.365-16.284-13.93zM387.08 405.55l-14.24-20.52c-2.878 10.123-6.387 82.767-2.268 88.725.265 7.776 3.07 14.355 6.45 19.314 3.94-3.06 9.823-8.557 8.123-16.78-1.698-8.225.207-62.258 1.932-70.732z" fill="#fff"/><path d="M357.88 451.24c-.645 11.24-1.1 18.85-.966 22.814.266 7.777 2.172 14.383 5.55 19.344 3.94-3.058 8.96-8.475 8.445-16.615-1.99-31.46 1.446-61.093 5.452-89.577-3.378-2.48-9.072-5.153-12.45-7.633-6.757 38.356-9.01 62.162-6.033 71.67v-.002z" fill="#fff"/><path d="M343.64 471.82l3.86 14.63c.267 7.777 5.068 14.197 8.447 19.157 3.94-3.058 7.52-8.088 6.515-16.18-5.78-46.464-3.713-77.204 6.033-115.07-22.04 15.045-32.255 46.787-24.855 97.46zM344.77 486.22l-20.223-6.717c-2.577 20.22 1.384 45.62 6.83 79.114 4.676 28.76 2.217 51.522-1.358 66.12 21.574-2.954 30.694-30.77 19.88-83.092-2.832-13.695-5.677-31.2-5.13-55.426z" fill="#fff"/><path d="M343.96 367.25l13.27 2.232c-.65 2.848-4.02 20.313-4.63 23.295-4.963 24.275-8.235 52.876-4.483 84.25 1.392 11.64 3.86 21.16 7.48 28.517-14.56-1.653-23.89-15.872-22.683-40.67-2.53-28.96-1.42-51.99 3.27-69.313 1.373-5.073 5.79-24.208 7.776-28.31z" fill="#fff"/><path d="M357.15 369.98l-13.27-2.232.163-.983 13.27 2.233.403.6-.566.382zm.164-.982l.52.087-.118.514-.402-.602zm-4.226 23.886l-.973-.2.066-.32.08-.4.093-.472.108-.544.12-.608.132-.665.14-.72.15-.765.16-.808.166-.845.17-.875.178-.905.18-.923.185-.94.187-.95.187-.954.187-.954.188-.95.185-.937.18-.922.18-.9.174-.873.166-.84.16-.8.152-.76.143-.713.134-.658.123-.6.11-.534.1-.466.082-.393.07-.31.97.22-.07.305-.082.385-.096.462-.11.535-.125.597-.133.655-.143.71-.153.76-.16.8-.167.84-.173.873-.178.898-.18.922-.186.938-.187.95-.188.953-.187.954-.187.95-.184.94-.18.923-.177.902-.172.878-.166.844-.16.81-.15.765-.14.718-.13.665-.12.607-.108.544-.096.476-.08.402-.066.322zm-4.476 84.09l-.988.117-.33-2.937-.294-2.923-.252-2.907-.215-2.888-.176-2.873-.14-2.852-.105-2.836-.07-2.818-.04-2.798-.004-2.78.026-2.76.06-2.74.086-2.723.114-2.7.142-2.682.17-2.66.195-2.64.22-2.618.242-2.598.266-2.574.288-2.553.308-2.53.327-2.51.347-2.483.364-2.462.383-2.438.396-2.415.41-2.392.426-2.366.44-2.34.448-2.317.46-2.293.974.2-.458 2.285-.45 2.31-.436 2.335-.426 2.36-.41 2.382-.394 2.407-.38 2.43-.364 2.454-.343 2.477-.328 2.5-.307 2.52-.287 2.546-.264 2.566-.243 2.586-.22 2.61-.192 2.63-.17 2.65-.14 2.67-.116 2.69-.087 2.71-.056 2.73-.027 2.75.005 2.77.037 2.786.07 2.806.104 2.824.14 2.84.176 2.86.212 2.876.252 2.892.29 2.912.332 2.926zm6.93 29.072l.113-.99-.502.715-.34-.702-.33-.715-.327-.73-.318-.738-.312-.753-.305-.766-.297-.778-.292-.79-.283-.804-.28-.815-.27-.83-.264-.84-.258-.853-.25-.864-.246-.878-.238-.89-.23-.903-.226-.915-.218-.928-.21-.94-.207-.954-.196-.964-.192-.977-.186-.99-.18-1.002-.17-1.015-.167-1.027-.16-1.037-.154-1.052-.147-1.063-.14-1.076-.136-1.088.988-.118.132 1.082.14 1.07.145 1.054.152 1.045.158 1.032.165 1.02.17 1.005.18.993.183.982.19.968.197.957.203.943.21.93.214.92.223.905.23.893.233.88.242.867.248.855.255.842.26.83.268.817.275.804.28.79.287.78.293.766.3.752.308.742.313.727.32.714.326.703.332.69-.502.713zm.502-.715l.402.818-.904-.102.502-.715zm-23.624-40.406l.99-.086v.068l-.08 2.28-.022 2.218.037 2.156.096 2.09.155 2.027.21 1.963.265 1.898.32 1.833.373 1.77.425 1.7.476 1.635.526 1.568.575 1.502.624 1.434.668 1.367.715 1.298.76 1.23.803 1.165.847 1.092.887 1.027.93.956.968.888 1.006.82 1.045.75 1.08.68 1.12.612 1.153.54 1.19.473 1.223.4 1.256.33 1.29.26 1.322.187-.113.99-1.376-.196-1.345-.27-1.316-.346-1.28-.42-1.245-.493-1.21-.566-1.172-.64-1.133-.713-1.094-.785-1.052-.857-1.01-.928-.97-1-.924-1.066-.88-1.137-.83-1.205-.79-1.274-.738-1.343-.69-1.407-.64-1.477-.59-1.54-.54-1.607-.488-1.673-.434-1.738-.38-1.803-.325-1.867-.27-1.93-.215-1.994-.156-2.058-.097-2.12-.04-2.183.023-2.247.083-2.306v.068zm.99-.086l.002.032v.036l-.002-.068zm2.295-69.4l.96.26-.427 1.632-.407 1.666-.384 1.7-.365 1.735-.342 1.77-.324 1.8-.302 1.835-.28 1.87-.26 1.903-.24 1.936-.218 1.97-.197 2.007-.176 2.04-.153 2.074-.135 2.108-.113 2.142-.094 2.176-.07 2.21-.05 2.245-.027 2.28-.008 2.313.014 2.348.034 2.382.055 2.417.078 2.452.1 2.487.118 2.52.143 2.556.162 2.59.183 2.624.205 2.66.227 2.694-.99.087-.227-2.7-.205-2.668-.185-2.632-.162-2.597-.14-2.563-.12-2.53-.1-2.493-.077-2.46-.058-2.425-.034-2.39-.013-2.357.007-2.323.028-2.288.052-2.256.07-2.222.093-2.185.112-2.154.134-2.117.157-2.085.177-2.05.2-2.018.218-1.983.24-1.952.263-1.915.284-1.883.303-1.85.326-1.815.347-1.782.368-1.748.39-1.717.408-1.682.432-1.65zm8.338-28.67l-.164.98.528-.273-.183.405-.2.495-.214.577-.227.652-.238.72-.246.783-.258.84-.264.89-.27.938-.275.98-.28 1.01-.283 1.044-.286 1.067-.287 1.085-.286 1.102-.286 1.108-.284 1.11-.28 1.11-.28 1.103-.273 1.088-.267 1.07-.26 1.047-.254 1.017-.244.984-.234.944-.223.9-.212.847-.2.795-.185.732-.17.667-.155.595-.138.52-.96-.262.136-.513.156-.59.17-.664.184-.73.198-.79.213-.848.224-.898.234-.943.244-.982.253-1.018.26-1.048.268-1.07.273-1.092.278-1.102.284-1.11.284-1.115.287-1.11.286-1.102.288-1.09.286-1.07.285-1.047.28-1.017.277-.984.27-.944.268-.898.26-.85.25-.792.243-.734.232-.668.223-.6.212-.526.204-.45.53-.273zm-.53.272l.163-.335.367.062-.53.273zm.448.218l.083-.49-.082.49zm-.446-.218l.162-.335.367.062-.53.273z" fill="#21231e"/><path d="M335.92 370.39l6.515 7.44c-1.85 1.322 1.288 7.027-.4 18.104-1.09 6.29-4.832 13.704-5.606 21.73-2.567 26.595-2.577 59.897 5.415 81.185-14.56-1.654-19.556-14.854-20.028-39.68-.39-20.522-.456-44.72 4.693-72.66 1.045-6.53 4.182-11.737 9.41-16.12zM372.29 389.97l-13.435-1.567c-2.47 12.704-4.357 21.686-4.815 26.212-.898 8.876 1.793 17.014 4.868 23.075 4.954-2.987 7.255-9.51 9.34-18.66 2.09-9.186 2.61-19.2 4.043-29.06z" fill="#fff"/><path d="M358.91 387.91l13.435 1.567-.115.99-13.435-1.568-.43-.59.545-.4zm-.545.4l.088-.453.457.053-.545.4zm-3.833 26.357l-.988-.1.047-.444.057-.468.064-.495.073-.518.08-.544.086-.57.094-.593.102-.618.11-.644.115-.667.123-.694.13-.717.135-.742.143-.765.15-.79.153-.813.16-.838.166-.86.17-.886.177-.907.182-.933.187-.954.192-.978.195-1 .2-1.024.208-1.047.21-1.07.214-1.09.22-1.114.22-1.135.228-1.16.23-1.178.975.19-.23 1.18-.226 1.158-.22 1.137-.22 1.114-.215 1.09-.21 1.07-.208 1.047-.2 1.023-.197 1-.193.978-.187.954-.182.93-.177.91-.17.883-.167.86-.162.835-.153.812-.148.79-.14.762-.137.74-.13.712-.12.69-.117.666-.107.64-.102.612-.092.588-.087.564-.08.537-.07.51-.062.484-.054.46-.048.43zm4.118 22.598l.51.853-.698-.2-.29-.58-.286-.592-.284-.604-.28-.614-.274-.626-.27-.64-.263-.647-.258-.66-.25-.67-.244-.68-.234-.69-.227-.698-.216-.708-.207-.72-.197-.726-.185-.738-.17-.744-.163-.752-.15-.76-.133-.768-.12-.776-.105-.783-.09-.79-.074-.797-.06-.803-.04-.81-.022-.816-.004-.822.015-.827.035-.832.054-.837.074-.844.987.1-.07.818-.053.814-.034.81-.013.802.005.8.02.794.04.788.057.782.072.776.088.77.103.763.117.756.132.75.144.74.157.736.17.727.18.72.192.71.202.7.21.696.222.684.23.673.237.666.246.656.25.646.26.636.264.625.27.614.273.604.28.592.28.582.286.568-.7-.2zm.51.853l-.456.277-.242-.477.7.2zm8.6-19.196l.97.22-.198.854-.198.838-.2.82-.205.81-.207.79-.21.775-.215.76-.22.742-.223.727-.23.708-.236.696-.245.678-.248.66-.256.644-.265.627-.274.61-.28.59-.292.575-.303.557-.312.538-.322.522-.335.502-.348.484-.36.465-.372.445-.386.427-.402.406-.415.387-.43.365-.444.346-.463.325-.476.303-.51-.853.436-.277.422-.3.41-.316.396-.337.382-.356.37-.377.36-.396.348-.417.338-.436.327-.456.316-.473.306-.494.298-.513.288-.53.28-.552.273-.572.265-.59.256-.606.25-.626.244-.644.237-.66.23-.68.227-.698.22-.715.216-.732.212-.747.208-.766.204-.782.202-.8.197-.814.2-.832.193-.846zm4.53-28.453v-.997l.49.57-.13.922-.127.924-.123.922-.118.925-.115.923-.11.926-.11.925-.106.927-.105.924-.104.926-.102.923-.103.923-.103.922-.104.92-.105.92-.105.916-.108.918-.11.915-.115.912-.116.91-.122.907-.126.905-.13.902-.133.898-.142.896-.146.892-.153.89-.162.885-.167.883-.174.878-.185.875-.19.868-.97-.22.19-.86.182-.862.174-.867.166-.873.16-.878.15-.88.145-.886.14-.888.134-.894.13-.896.123-.9.12-.903.117-.905.113-.91.11-.91.107-.914.106-.915.104-.918.105-.92.103-.92.102-.923.103-.925.105-.927.105-.924.107-.928.11-.927.112-.93.114-.928.12-.93.122-.927.127-.928.132-.927.492.57zm0-.997h.573l-.083.57-.49-.57zm-.002 0v.996l-.058-.005.058-.992zm0 .996h-.027l-.03-.005.058.004z" fill="#21231e"/><path d="M407.15 418.58l-11.924.125c-.408 10.96-.704 18.38-.51 22.24.383 7.576 2.273 13.995 5.507 18.796 3.622-3.02 7.05-8.348 7.59-16.273.543-7.958-.59-16.43-.663-24.887zM419.99 424.24l-11.913.542c-.027 10.97-.065 18.392.264 22.246.646 7.557 2.758 13.906 6.157 18.59 3.516-3.144 6.755-8.59 7.02-16.528.266-7.972-1.16-16.398-1.53-24.85h.002zM395 412.42l-11.895-.845c-1.294 10.893-2.19 18.263-2.308 22.127-.234 7.582 1.13 14.133 3.966 19.18 3.856-2.714 7.703-7.748 8.882-15.603 1.186-7.89.744-16.424 1.355-24.86z" fill="#fff"/><path d="M383.86 399.58l-13.046-5.42c-2.225 8.825-5.23 37.868.11 50.134 4.348-2.953 8.727-8.493 10.19-17.225 1.467-8.77 1.906-18.1 2.745-27.49z" fill="#fff"/><path d="M371 393.7l13.046 5.42-.38.917-13.046-5.418-.292-.583.672-.337zm-.672.337l.14-.558.532.22-.672.337zm.314 49.843l.56.825-.736-.214-.488-1.225-.438-1.314-.39-1.396-.344-1.47-.302-1.542-.26-1.602-.22-1.66-.18-1.707-.147-1.752-.114-1.786-.078-1.817-.05-1.842-.02-1.857.007-1.866.034-1.87.056-1.865.08-1.856.098-1.837.118-1.815.136-1.782.15-1.748.166-1.702.177-1.652.188-1.595.196-1.53.205-1.46.21-1.382.212-1.298.216-1.208.216-1.11.215-1.006.213-.9.964.246-.21.873-.21.987-.213 1.093-.212 1.192-.213 1.286-.207 1.37-.202 1.448-.196 1.52-.185 1.585-.177 1.642-.163 1.692-.15 1.736-.135 1.773-.117 1.802-.1 1.828-.08 1.843-.055 1.854-.032 1.857-.007 1.852.02 1.84.047 1.825.08 1.8.11 1.768.146 1.73.18 1.685.215 1.632.255 1.573.294 1.506.335 1.433.378 1.353.422 1.264.465 1.17-.735-.214zm.56.825l-.496.336-.24-.55.735.215zm9.418-17.72l.98.164-.148.82-.164.803-.18.784-.197.767-.212.747-.226.73-.242.712-.253.693-.267.674-.28.657-.293.64-.304.623-.315.604-.324.59-.335.567-.344.555-.353.537-.36.518-.37.502-.376.485-.38.467-.388.453-.395.434-.4.42-.4.404-.407.385-.41.37-.412.354-.414.337-.416.326-.42.307-.415.292-.558-.825.398-.277.397-.292.396-.306.395-.324.394-.338.39-.354.39-.368.383-.385.383-.4.375-.416.372-.435.366-.45.36-.463.355-.483.345-.498.34-.513.33-.533.32-.548.313-.566.304-.583.292-.598.28-.617.27-.634.258-.65.246-.67.233-.688.22-.705.204-.724.19-.74.177-.76.16-.78.143-.798zm3.046-26.948l.38-.92.305.505-.077.88-.075.878-.074.878-.073.877-.07.878-.068.876-.07.875-.07.875-.067.874-.068.873-.068.872-.07.87-.07.87-.07.867-.073.867-.074.864-.075.863-.078.864-.08.858-.083.857-.087.855-.09.855-.09.85-.096.85-.1.847-.106.843-.107.843-.113.84-.12.835-.122.833-.13.832-.135.827-.98-.165.134-.82.128-.824.123-.825.117-.83.113-.834.108-.834.103-.84.1-.84.096-.845.092-.846.09-.85.083-.85.082-.856.08-.856.078-.858.075-.86.074-.864.072-.865.07-.866.07-.87.07-.87.067-.87.068-.874.068-.874.07-.875.07-.875.068-.88.07-.877.074-.88.074-.88.075-.88.078-.882.305.504zm.38-.92l.337.14-.033.365-.304-.504zm-.19.46l-.19.46.19-.46zm.19-.46l.337.14-.033.365-.304-.504z" fill="#21231e"/><path d="M387.75 701.16c7.963 6.383 15.25-8.217 8.187-27.512-5.225-14.277-30.765-8.735-16.54 10.47.674.91 1.624.488 1.49-.55-.81-3.94 1.702-6.228 5.576-5.502 10.577 1.98 10.91 22.07-.594 17.5-2.1-.136-.22 3.91 1.878 5.594z" id="c" fill="#edb92e" stroke="#21231e" stroke-width=".994"/><path d="M400.05 639.16l-.006.13c-1.038 3.35-4.906 7.537-7.918 10.678-4.667 4.87-3.563 12.245-.333 16.164 3.523 4.276 5.096 9.092 5.803 12.833.528 2.307 1.473 7.47.785 15.508-.338 3.956-2.728 5.993-4.967 7.766-1.138.902.483 3.052 4.244 5.877.412.31 1.544 1.085 2.083 3.045.208.47 1.953.47 2.162 0 .54-1.96 1.67-2.736 2.084-3.045 3.76-2.825 5.38-4.975 4.243-5.878-2.24-1.774-4.63-3.81-4.97-7.767-.687-8.035.26-13.2.787-15.508.707-3.742 2.28-8.557 5.803-12.833 3.23-3.92 4.334-11.297-.333-16.164-3.012-3.14-6.88-7.33-7.918-10.68l-.007-.128c-.05-.65-.41-.978-.772-.978-.36 0-.72.327-.77.978z" fill="#edb92e" stroke="#21231e" stroke-width=".994"/><path d="M395.06 685.47h11.51c1.98 0 3.602 1.592 3.602 3.538 0 1.946-1.62 3.538-3.602 3.538h-11.51c-1.98 0-3.602-1.592-3.602-3.537v-.002c0-1.946 1.62-3.538 3.602-3.538z" fill="#edb92e"/><path d="M417.13 579.19l.384-10.914c-4.38-2.228-15.174.06-19.732 10.136-5.683 12.56-11.058 19.246-17.873 25.14 9.876 1.846 18.247-.11 23.64-7.355 7.276-9.775 11.167-15.697 13.58-17.007z" fill="#fff"/><path d="M425.16 580.63l-11.79-4.965c-4.832 9.853-8.122 16.512-9.492 20.127-2.687 7.09-3.42 13.768-2.178 19.535 4.786-1.22 10.314-4.633 14.05-11.652 3.753-7.047 6.064-15.277 9.41-23.046z" fill="#fff"/><path d="M428.55 580.62l-12.643-1.931c-2.285 10.733-3.853 17.996-4.3 21.837-.878 7.533.037 14.187 2.65 19.478 4.343-2.352 8.87-7.016 10.785-14.736 1.92-7.753 2.155-16.3 3.508-24.65z" fill="#fff"/><path d="M415.98 578.2l12.643 1.931-.15.986-12.643-1.93-.41-.597.56-.39zm-.56.39l.097-.46.463.07-.56.39zm-3.322 22l-.988-.116.047-.376.052-.394.058-.415.064-.436.073-.453.076-.47.085-.496.09-.513.095-.53.102-.555.108-.572.11-.593.12-.612.124-.634.13-.653.135-.67.14-.695.145-.712.15-.735.156-.753.163-.773.165-.794.173-.814.177-.834.18-.855.186-.874.19-.893.194-.915.2-.935.203-.955.207-.977.212-.996.97.206-.212.996-.207.976-.202.956-.2.935-.194.914-.19.894-.186.874-.18.854-.176.835-.17.812-.166.795-.16.773-.157.75-.152.732-.145.712-.14.692-.136.67-.127.65-.125.632-.118.61-.112.59-.108.57-.1.55-.094.527-.09.508-.082.488-.075.47-.07.446-.065.427-.056.405-.052.387-.044.364zm1.92 18.98l.47.877-.68-.217-.245-.51-.235-.518-.223-.526-.214-.533-.203-.54-.194-.55-.183-.554-.172-.565-.163-.57-.152-.578-.14-.584-.133-.592-.12-.597-.11-.604-.103-.613-.09-.618-.08-.626-.067-.63-.06-.638-.048-.644-.037-.65-.027-.654-.018-.66-.007-.668.005-.673.016-.678.024-.686.035-.69.047-.694.057-.7.066-.705.078-.71.988.114-.077.696-.064.69-.056.687-.045.68-.035.676-.024.667-.013.664-.005.658.007.65.015.647.027.64.038.63.045.63.058.618.068.613.077.61.087.598.097.593.108.588.116.58.13.572.138.565.146.558.156.553.168.542.176.536.186.53.197.522.206.513.215.505.226.498.235.49-.682-.217zm.47.877l-.45.246-.23-.463.68.217zm10.07-15.294l.963.24-.19.726-.204.71-.22.692-.234.673-.248.658-.26.64-.274.622-.285.605-.298.59-.308.57-.32.554-.33.54-.337.52-.346.506-.356.49-.363.473-.37.455-.377.442-.384.426-.39.41-.395.394-.398.38-.404.363-.407.35-.41.333-.413.32-.415.303-.418.29-.418.276-.418.26-.418.247-.42.234-.472-.876.397-.22.397-.235.4-.248.397-.262.395-.276.394-.29.393-.305.392-.318.388-.33.386-.35.38-.36.375-.377.373-.39.366-.408.36-.42.355-.437.346-.453.34-.467.332-.483.323-.5.316-.515.305-.533.297-.546.284-.565.277-.582.26-.595.252-.616.24-.633.223-.65.213-.666.198-.684.183-.703zm3.99-25.028v.997l.49-.42-.122.782-.12.78-.11.78-.106.785-.103.782-.1.784-.092.785-.092.786-.09.784-.088.785-.086.784-.086.783-.086.783-.084.782-.086.78-.088.78-.088.78-.09.775-.095.776-.098.772-.1.77-.107.77-.11.766-.114.764-.122.76-.13.758-.13.754-.143.752-.15.747-.16.744-.168.74-.175.736-.965-.24.174-.722.165-.727.156-.732.15-.734.14-.74.13-.745.128-.75.118-.75.115-.757.11-.76.105-.762.1-.765.097-.768.09-.77.093-.774.088-.777.088-.778.086-.778.085-.782.086-.783.086-.784.085-.785.088-.787.09-.787.092-.787.096-.79.1-.788.102-.788.107-.788.112-.79.12-.79.123-.786.49-.42zm-.49.42l.067-.42h.422l-.49.42zm.49.577v-.997l.076.006-.075.992z" fill="#21231e"/><path d="M430.43 563.41l7.54-.063c4.4 2.187 9.02 12.222 3.682 21.906-6.655 12.07-8.793 20.385-9.438 29.382-7.38-6.83-10.818-14.723-8.243-23.384 3.475-11.686 6.854-25.117 6.46-27.84z" fill="#fff"/><path d="M433.79 558.16l-12.055-4.28c-4.26 10.115-7.164 16.95-8.325 20.64-2.276 7.23-2.628 13.94-1.056 19.628 4.71-1.492 10.675-4.575 14.004-11.796 3.342-7.252 4.535-16.245 7.432-24.192z" fill="#fff"/><path d="M425.6 549.74l-2.645-16.405c-2.77-.75-6.448 5.73-10.048 9.51-.83.87-1.784 1.69-2.508 2.766-1.516 2.246-2.74 4.92-3.418 7.957-3.012 13.456-7.4 20.454-12.874 27.615 10.045-.208 17.844-3.83 21.652-12.023 5.137-11.056 7.743-17.646 9.84-19.42z" fill="#fff"/></g><use width="1350" height="900" transform="matrix(-1 0 0 1 964.297 0)" xlink:href="#d"/><path d="M536.38 414.88c1.587-.33 3.21-.788 4.857-1.368-7.63-4.787-13.96-10.575-21.484-22.122-7.707-11.828 3.38-32.95 7.924-44.156 9.496-7.04 18.45-17.38 21.29-31.012 1.125-7.334-19.09-4.683-32.997 1.886-16.996 8.03-19.31 5.804-25.37 7.163-2.154 10.422 2.357 11.305 6.694 10.792-9.365 15.028-13.273 29.986-15.14 51.497-1.87-21.513-5.78-36.47-15.145-51.498 4.337.512 8.848-.37 6.692-10.79-6.06-1.36-8.37.867-25.37-7.164-13.905-6.57-34.122-9.22-32.996-1.886 2.842 13.632 11.793 23.97 21.29 31.012 4.545 11.205 15.63 32.33 7.924 44.156-7.524 11.547-13.853 17.335-21.484 22.122 1.65.58 3.27 1.04 4.858 1.368-1.154 1.575-11.05 4.663-12.21 3.842-7.573-5.362-14.955-17.956-21.395-25.265-18.246-20.712-27.348-36.702-24.13-49.597 4.584-13.887 20.93-29.475-.724-26.783-21.653 2.694-39.6 32.426-45.366 68.197-2.14 13.274-3.378 24.385-4.826 33.478 11.82-4.22 17.054-8.433 20.2-13.622-1.414 4.935-2.474 9.62-3.185 14.088 9.668-1.714 16.682-6.464 19.194-15.137 1.017-3.51 2.268-6.43 3.567-8.854 2.97 1.057 6.823.996 11.51-.155 1.778 4.25 15.097 19.103 22.255 30.015 8.082 12.322 20.23 21.742 24.23 22.255 2.004.257 2.62-4.192 2.174-10.324 21.124.15 42.234.275 62.934-.43 20.7.705 41.81.58 62.936.43-.447 6.13.168 10.58 2.17 10.324 4.003-.514 16.15-9.933 24.23-22.255 7.16-10.914 20.48-25.764 22.257-30.014 4.685 1.15 8.54 1.213 11.508.156 1.3 2.424 2.55 5.343 3.568 8.855 2.51 8.674 9.526 13.424 19.194 15.138-.71-4.47-1.77-9.155-3.183-14.088 3.143 5.188 8.378 9.402 20.198 13.622-1.448-9.093-2.687-20.204-4.825-33.478-5.764-35.77-23.713-65.503-45.366-68.197-21.65-2.692-5.308 12.896-.723 26.783 3.217 12.896-5.884 28.885-24.13 49.597-6.44 7.31-13.82 19.903-21.395 25.265-1.16.82-11.056-2.266-12.21-3.842z" fill="#fff" stroke="#21231e"/><g id="e"><path d="M440.58 356.77c-2.036 1.78-8.757 1.807-17.956 2.397-14.818.52-23.397-3.954-25.3-13.446 5.56 6.63 12.19 9.91 19.724 8.042 10.164-2.518 15.978-4.325 18.296-3.876 1.562.554 3.843 3.38 5.236 6.884z" fill="#edb92e"/><path d="M429.59 330.91l-2.19-2.193c-1.067-1.352-.45-3.152 1.853-5.4 1.685.73 3.032 1.292 4.38 1.855-.897 3.037-2.246 4.95-4.043 5.738z" fill="#21231e"/><path d="M405.91 317.77c-16.62 1.798-15.826 12.67-.29 28.043 2.974 2.94 3.994 2.847 4.628-.21 1.11-5.345 7.02-8.502 10.123-4.43 2.114 2.772 1.64 4.358 8.678 3.375 8.89 7.458 16.126 12.704 4.495 12.267-5.117-.193-9.06 2.79-15.727 2.53 1.972 3.83 2.325 4.273 3.39 4.597 6.463 1.28 13.273-2.763 19.793-1.558 14.284 2.636-22.888-38.633-22.428-40.263 1.174-4.153-8.936-11.598-12.662-4.35z" fill="#edb92e"/><path d="M404.336 324.187c.765.08 1.3.754 1.192 1.505-.106.75-.813 1.295-1.578 1.215-.765-.08-1.3-.754-1.193-1.505.107-.75.813-1.295 1.58-1.215z" fill="#21231e"/></g><use width="1350" height="900" transform="matrix(-1 0 0 1 964.297 0)" xlink:href="#e"/><g><path d="M549.18 422.03V530.594c0 19.413-7.529 37.038-19.67 49.81-12.142 12.77-28.898 20.69-47.356 20.69h-.006c-18.457 0-35.214-7.92-47.354-20.69-12.143-12.77-19.67-30.397-19.67-49.81v-108.56h134.06z" fill="#c6363c"/><use width="1350" height="900" transform="matrix(-1 0 0 1 964.297 -90.088)" xlink:href="#f"/><path d="M549.18 488.62v27.978h-53.063v82.947c-4.506 1.01-9.178 1.546-13.964 1.546h-.005c-4.785 0-9.456-.533-13.96-1.545v-82.947h-53.064V488.62h53.064v-66.588h27.93v66.588h53.062z" fill="#fff" stroke="#21231e" stroke-width=".994"/><use width="1350" height="900" transform="translate(0 -90.088)" xlink:href="#f"/><path d="M459.14 567.32v-39.33c-8.56-2.304-29.402-10.62-30.486 7.612-.502 8.428 10.44 13.987 13.39 6.542 1.397-3.522-.124-6.018-2.183-6.822-2.22-.87-4.425.93-3.836 3.61-8.86-4.637 7.915-14.483 15.49-1.668 2.206 3.73-3.723 7.62-3.73 10.388-.008 2.768 5.824 6.912 3.73 10.394-7.67 12.754-24.35 2.97-15.49-1.67-.59 2.682 1.616 4.48 3.837 3.612 2.058-.805 3.58-3.3 2.184-6.824-2.95-7.444-13.892-1.885-13.39 6.543 1.084 18.23 21.926 9.915 30.486 7.612z" id="f" fill="#fff" stroke="#21231e" stroke-width=".994"/><use width="1350" height="900" transform="matrix(-1 0 0 1 964.297 0)" xlink:href="#f"/><path d="M414 420.86v109.73l.03 1.834.063 1.834.093 1.834.155 1.803.218 1.803.218 1.772.28 1.772.34 1.74.342 1.773.403 1.71.467 1.71.465 1.678.528 1.678.558 1.65.59 1.647.62 1.616.683 1.585.684 1.586.745 1.554.774 1.555.807 1.492.84 1.492.868 1.46.9 1.462.93 1.398.963 1.4.994 1.366 1.055 1.337 1.054 1.338 1.086 1.274 1.117 1.275 1.148 1.18-.03.032 1.18 1.21 1.21 1.183 1.21 1.12 1.27 1.118 1.274 1.09 1.302 1.056 1.303.995 1.366.995 1.366.964 1.396.9 1.397.902 1.457.84 1.46.807 1.457.777 1.52.746 1.52.684 1.522.652 1.552.652 1.582.56 1.583.56 1.613.497 1.614.465 1.645.435 1.644.373 1.675.342 1.676.28 1.708.25 1.706.216 1.738.157 1.707.124 1.768.063 1.737.03 1.77-.03 1.737-.062 1.738-.123 1.706-.156 1.707-.216 1.707-.25 1.676-.28 1.675-.34 1.646-.374 1.645-.435 1.614-.466 1.614-.5 1.582-.558 1.583-.59 1.552-.623 1.55-.653 1.522-.684 1.49-.746 1.49-.778 1.457-.81 1.428-.87 1.427-.87 1.396-.9 1.365-.965 1.335-.994 1.335-.994 1.303-1.057 1.272-1.09 1.242-1.118 1.24-1.12 1.18-1.18 1.18-1.213 1.148-1.213 1.117-1.275 1.086-1.274 1.055-1.337 1.024-1.336.993-1.368.962-1.4.962-1.397.9-1.462.87-1.46.837-1.494.807-1.492.776-1.554.714-1.554.714-1.586.652-1.585.652-1.617.59-1.647.558-1.65.497-1.677.495-1.68.435-1.71.403-1.708.372-1.74.31-1.773.28-1.772.248-1.772.186-1.803.155-1.803.124-1.834.06-1.834.032-1.834h-.03V420.86H414zm2.265 2.362h131.79v107.37l-.03 1.772-.063 1.772-.093 1.772-.156 1.74-.186 1.742-.248 1.74-.25 1.71-.31 1.68-.37 1.677-.374 1.68-.434 1.647-.466 1.647-.496 1.618-.528 1.585-.59 1.586-.59 1.553-.65 1.554-.683 1.523-.715 1.492-.745 1.493-.776 1.46-.806 1.43-.838 1.43-.9 1.4-.9 1.367-.93 1.337-.963 1.336-.993 1.305-1.024 1.276-1.055 1.243-1.086 1.212-1.087 1.18-1.15 1.182-1.147 1.12-1.18 1.118-1.21 1.057-1.24 1.056-1.273 1.026-1.272.964-1.302.963-1.335.9-1.334.902-1.367.87-1.396.81-1.396.776-1.427.746-1.458.715-1.49.683-1.458.653-1.52.59-1.52.56-1.522.528-1.552.498-1.582.435-1.582.404-1.613.374-1.614.342-1.613.28-1.644.25-1.645.185-1.676.157-1.675.124-1.676.063-1.706.03-1.707-.03-1.675-.062-1.676-.123-1.676-.156-1.644-.185-1.645-.25-1.613-.28-1.613-.34-1.583-.374-1.612-.403-1.552-.435-1.552-.498-1.55-.528-1.522-.56-1.49-.59-1.49-.653-1.457-.684-1.46-.716-1.426-.746-1.43-.777-1.364-.838-1.397-.84-1.335-.87-1.334-.933-1.303-.964-1.272-.964-1.272-1.026-1.21-1.057-1.21-1.058-1.18-1.12-1.18-1.118-1.116-1.18-1.117-1.182-1.086-1.213-1.024-1.244-1.024-1.275-.993-1.304-.993-1.337-.93-1.338-.9-1.367-.87-1.4-.838-1.398-.807-1.46-.807-1.462-.744-1.492-.714-1.493-.652-1.523-.65-1.554-.622-1.554-.56-1.587-.557-1.585-.498-1.617-.465-1.646-.404-1.648-.403-1.678-.34-1.68-.312-1.678-.28-1.71-.216-1.74-.186-1.74-.156-1.742-.124-1.772-.062-1.772v-1.77z" fill="#21231e"/></g></g></svg>