<svg xmlns="http://www.w3.org/2000/svg" height="480" width="640" version="1"><path d="M640.013 480.02V.03H.003v479.99h640.01z" fill="#006"/><path d="M-.006 73.34h76.034L-.006 26.77V.03h43.503L149.86 64.75V.03h59.89v64.72L316.113.03h43.878v26.738L283.58 73.34h76.41v73.37h-76.41l76.41 46.574v26.746h-43.878l-106.36-64.73v64.73h-59.893V155.3L43.496 220.03H-.006v-26.746l76.034-46.574H-.006V73.34z" fill="#fff"/><path fill="#ce1126" d="M331.685.027L211.525 73.39h28.764L359.982.027h-28.298zM359.998 220.03l-119.822-73.323h28.89L360 202.55v17.48zM120.38 73.372L-.01.01v17.52L91.362 73.37h29.016zM120.13 146.686L-.014 220.01h28.748l120.16-73.324H120.13z"/><path fill="#ce1126" d="M-.006 88.56h162.62V.027h35.196V88.56h162.18v42.962H197.81v88.505h-35.195v-88.505H-.005V88.56z"/><g><path d="M399.67 640.77c-.046 16.332-2.623 33.927-23.764 42.308-21.142-8.38-23.72-25.976-23.765-42.308h47.53z" stroke-width="1.112" fill="#8fc5ff" transform="matrix(4.5 0 0 4.5 -1190.9 -2609)" stroke="#fff"/><path d="M500.65 464.86c43.128-17.095 69.088-42.718 84.6-72.468-2.322.09-7.187-.05-9.288-.193-2.34-.154-91.22-9.082-101.745-12.943-9.158-3.357-44.096 2.853-60.404 8.68 15.215 31.644 41.567 58.977 86.837 76.923z" fill="#366cc9" stroke-width="4.9590000000000005" stroke="#000"/><path d="M434.185 419.275c1.453-.472 4.23-.36 5.323-.162 1.287.234 1.52.35 1.99-1.053s1.52-1.053 2.34-.35 2.92.35 3.74-.82c.818-1.165 1.052-1.048 1.87-.234.82.82 1.17.585 1.99.35.82-.228 2.223-1.164 2.925-2.45s1.75-1.756 2.335-1.054 1.17 1.053 1.99.936 1.052.702.935 1.75c-.117 1.053.35 1.287 2.34-.346 1.755 1.75 2.336 1.048 2.336-.82 0-1.87-.465-8.77-1.167-9.706s-1.404-3.627-1.52-5.733c-.22-3.973-.235-4.207-5.032-6.664 0-1.405-.35-1.99-3.738-1.756.117-.468-.468-1.872-1.17-2.457s-.82-.82-.468-2.453c1.404.117 2.925-.117 3.744-1.287.814-1.17 3.505-.936 5.143-.234s3.745.82 6.9.35c1.17-.935 3.16-1.988 5.265-3.158 2.1-1.17 2.686-1.638 2.803-3.276.302-4.2-1.17-9.005-2.34-11.224-1.165-2.223-1.516-5.03-3.154-8.54-1.782-3.82-1.755-4.793-3.744-7.133-.545-.644-1.17-1.17-1.287-2.453-.117-1.287-.585-3.042-1.985-4.33-3.537-3.243-4.914-13.683-6.318-21.4-.805-4.424-.234-14.85-2.1-16.49-3.16-2.573-4.68-2.105-6.787-2.924-1.52-2.106-2.22-6.313-3.623-10.057-2.223.35-3.744 2.69-5.265 3.51s-1.755.818-1.755 2.924c0 2.1-1.17 5.026-3.27 8.302-2.107 3.272-5.617 2.34-8.538 7.25-6.435-7.835-6.552-10.058-7.02-12.28-.468-2.22-1.52-2.687-5.143-5.846 0-.936-.47-4.676-.118-6.782-2.69-2.223-4.68-1.872-5.963-.234-1.287 1.638-2.223 4.09-4.212 5.027-1.193 1.517-4.788 5.342-7.73 9.896 2.676 40.698 11.86 81.1 39.477 113.41z" fill="#5d3100" stroke-width=".621" stroke="#000"/><path d="M607.615 274.465c.08-27.684-1.458-54.562-.756-78.115-35.55-15.908-82.328-19.18-106.183-19.18-23.86 0-70.636 3.272-106.187 19.18.702 23.553-.832 50.43-.756 78.115h213.88z" stroke-width="4.86" stroke="#fff" fill="#ff0"/><path d="M399.49 306.505c1.17 1.872 3.276 5.09 3.51 6.84.82-1.696 1.463-2.452 1.638-3.505s1.404-3.1.936-4.212-.82-1.99.468-1.17c1.282.82 1.035 2.236.756 4.33-.756 5.727-3.155 6.897-3.506 10.758 3.452 8.127.878 11.052 4.617 19.004.584.35 2.146-.275 2.614-.158 1.984-1.404 3.47-.895 6.273-.31 2.808.585 4.33 2.57 4.33 4.324s0 2.223.584 3.276 1.756 2.69 1.522 3.86c-.234 1.167.234 1.87.585 2.454s-.117 1.872-.468 2.69-.235 1.873 1.17 3.628c1.403 1.75 4.675 9.12 4.675 13.446 0 4.33.234 6.318 1.99 7.132 1.753.82 2.338 1.52 2.104 3.393s.818 11.579 1.052 13.1.82 1.17 1.52 1.99c.7.813 1.167 1.75 3.507 1.75s4.598-.312 6.12-.078c2.105 2.925 3.392 6.9 3.86 9.356s.427 5.81 1.246 5.81 1.638.116 1.404-2.926-.468-3.51-1.52-5.026c-1.054-1.52-1.64-2.222-1.054-3.158s.702-2.457.468-3.627-.585-2.92 1.404-.585c1.99 2.34 2.574 2.925 3.16 3.744s.814 2.34.7 3.744c-.116 1.4.114 1.985.933 1.283.82-.697 1.873.47 1.405 1.99s.117 2.457 1.52 2.925 1.99.82 2.34 1.872 1.522 1.516 1.522-.585c0-2.106-.82-6.552-1.404-7.952-.585-1.404-1.053-4.446-1.17-6.2s-.468-2.22-1.287-2.57-1.52-.936-1.638-1.755-.82-1.112-1.345-1.112-.99-.41-1.283-.994-.585-.645-1.17-.703-1.52.292-1.814-.644-.702-2.28-1.287-3.042-1.112-.993-1.17-3.62c-.06-2.634-.117-2.985-.936-3.92s-2.223-3.39-2.808-4.442c-.58-1.053-1.166-2.106-1.166.117 0 2.218 0 3.388 1.4 4.207 1.404.82 1.755.82 1.17 1.99s0 1.988.234 2.807.702 1.637 0 2.452c-.702.818-1.404.584-1.287-.698.117-1.287-.35-2.808-.932-3.86-.585-1.054-1.053-1.756-1.755-1.17s-1.287-.118-.82-.586.352-.82 0-1.17-.467-.702.118-1.404.585-1.053.234-2.686c-.35-1.64-2.925-9.824-4.095-11.696s-1.053-3.276.468-1.404 2.808 3.51 2.925 5.027c.117 1.52.468 2.457.936 3.042s.82.35 1.053-.937 1.17-.82-.47-3.27c-1.637-2.458-4.68-6.553-5.85-13.92s-1.637-12.28-2.807-14.265c-1.166-1.99-1.517-2.457-1.634-4.33s0-3.742-.82-5.142c-.82-1.404-1.404-1.638-1.52.468-.118 2.102.116 6.782.7 7.6s.235 2.922.118 4.092-1.957 2.327 1.872 4.68c1.52.936 1.283 2.223 1.053 3.042-.234.815-.468.698-1.287-.585-.82-1.288-1.638-2.34-2.457-3.043s-.937-1.17-.82-2.808.468-2.81 0-3.39c-.468-.584-.702-.116-.936.815-.234.936-.468 3.51-.936 4.212s-.702.234-1.053-1.287.117-3.856.936-6.547 1.288-5.5.586-9.005c-.702-3.51-.35-4.563-3.042-7.483-2.686-2.925-5.728-5.733-7.015-9.356-1.288-3.628-1.522-6.787-2.926-8.425-1.4-1.633-3.39-3.74-4.676-4.324v-5.377c0-1.287-.585-2.106-2.106-1.872s-2.457 1.522-3.388 3.273c-.936 1.755-1.638.936-2.925 3.978s-3.16 4.56-3.16 7.835z" fill="#cf6200"/><path d="M407.95 340.795c.936.585 1.832.977 3.236.275s3.082-2.727 4.954-.738c1.868 1.984 2.92 5.26 2.92 7.834 0 2.57 0 7.367 2.926 10.058 2.925 2.686 4.44 5.494 4.558 9.004.117 3.506 1.404 8.888 1.755 10.292.35 1.4 1.17 3.037 2.105 3.973s1.638 3.627 1.755 6.43c.117 2.81-.35 4.798 0 6.202s0 2.574-1.053 1.872-1.287-1.053-1.872-2.223-1.287-.936-.702.82 2.34 3.387 3.86 3.387 1.99.235 2.926 1.17c.93.937 1.048 1.405 2.686 1.405s1.872 0 3.393.468 1.52.234 2.34 0 1.632.468 2.217 1.99 1.99 5.728 1.99 6.898 0 2.34.818 3.51.585 2.34-.35 1.64-.937-.47-1.64-.352-1.17-.234-2.1-.82c-.936-.584-.35-.467-1.287-1.87s-1.52-1.873-1.52-.82-.118 2.34-.82 1.755-1.053-.585-1.638 0-.82 1.053-1.52-.117-1.522-1.17-2.224-1.404-.702-.234-1.05-1.287c-.35-1.053-1.403-1.287-2.34-1.287s-1.403-.468-1.52-1.17c-.117-.698-.702-1.166-1.17-1.517s-.234-1.17-.35-1.988-.82-.468-1.288-.702-.82-.117-.82-1.287-.467-1.52-.818-2.34c-.346-.82 0-1.638.234-2.57.234-.935.117-1.52-.58-2.34-.702-.818-.117-1.637-1.99-3.275s-2.807-.234-3.392-4.09c-.585-3.862-1.755-11.813-2.808-13.1s-1.75-2.223-2.804-2.574-1.755-.117-1.872-2.34c-.117-2.22-.82-5.027-2.223-6.43s-1.99-1.873-2.69-2.458-.937-1.638 0-3.622c.935-1.99.584-4.68.467-5.967-.117-1.283-.468-2.92-.234-4.325s.117-3.16-.234-4.095-.82-1.17-.234-1.872zM436.12 307.54c-1.584 2.038-3.272 3.744-5.454 5.3-2.183 1.562-4.99 2.81-3.434 5.46 1.562 2.65 2.808 2.965 3.12 4.99.314 2.025.782 3.744 2.34 4.212 1.56.463 2.18.153 2.18 3.43s0 4.52 1.405 5.768 1.247 2.493 1.872 5.458c.62 2.96.62 9.356 2.492 13.72s6.084 12.632 5.616 14.347-1.093 2.96.78 4.986c1.87 2.03 3.117 4.99 3.275 6.706.153 1.72.468 2.34 2.335 1.72 1.872-.627 2.808-1.252 3.434-2.03.62-.78 1.867-.622 3.586.31 1.715.936 4.365 1.872 5.922.936 1.562-.936 2.34-2.336 3.744-2.336 2.183-1.56 2.96-4.837 3.43-5.77.467-.935.157-.935-.78-1.87s-.467-2.498-.625-4.055c-.154-1.56-.78-3.896-2.65-7.33-1.87-3.43-2.962-7.64-4.21-8.73-1.245-1.093-1.87-3.744-2.028-4.99-.153-1.247-1.557-2.34-2.493-3.276-.937-.932-1.873-2.336-2.962-7.794-1.094-5.46-1.872-9.356-1.872-10.292s-.158-1.093-1.094-1.404-1.404-1.872-1.09-2.65c.312-.78-.314-1.557-.624-2.493s0-2.65.625-3.586c.62-.936.468-3.586-.157-5.77s-1.247-4.053-3.744-4.368c-2.493-.31-2.96-.932-3.897-2.96-.936-2.026-1.872-5.613-2.183-6.396-.31-.778-.778-.936-2.65.626-1.872 1.557-2.493 2.074-2.493 4.99 0 1.872.31 2.493.93 3.587.626 1.09.783 1.404 1.25 4.365s3.12 7.64-.314 10.29c-3.43 2.652-2.96 3.277-2.803 5.145.153 1.872-.936 3.118-1.562.468-.62-2.65 0-4.207 1.873-5.453 1.872-1.25 3.587-2.808 2.34-4.523-1.25-1.714-1.714-5.77-1.872-7.64s-.467-2.498-1.56-1.094z" fill="#cf6200"/><path d="M408.31 347.275c-.086 1.27.198 2.664.297 3.785.117 1.287.468 3.978-.468 5.967-.937 1.984-.703 3.037 0 3.622.04.03.075.062.11.094 1.91-.64 2.157-2.768 1.644-3.798-.545-1.09-.387-2.417.234-3.506.625-1.093.625-1.714.08-2.497-.548-.78-.548-.78.077-2.96.55-1.923-.837-1.91-1.975-.708zM428.29 377.515c-.35-1.404-1.638-6.786-1.755-10.292-.117-3.51-1.634-6.318-4.56-9.004-2.28-2.103-2.78-5.478-2.888-8.083-1.714-1.05-2.44-.572-2.295 1.377.153 2.1 2.26 3.118 1.95 6.156-.312 3.042-.312 2.263 1.17 3.744s2.024 2.884 1.246 3.51c-.78.62-.86 1.714.234 2.1 1.09.393 1.17 1.563 1.012 2.652-.158 1.093.86 1.327 1.48 2.106.626.778.702 2.65.08 3.744-.624 1.09-.7 2.803.39 1.872 1.092-.936 1.56-.08 2.415 1.4.742 1.277 1.363.877 2.168.49-.28-.59-.504-1.202-.648-1.773zM443.5 404.74c-.702 1.404-1.52.936-2.223.234s-1.52-.702-1.17-1.99.234-1.52-.702-2.222c-.108-.08-.216-.153-.324-.225-.292-.01-.634-.01-1.08-.01-1.637 0-1.754-.467-2.686-1.403-.21-.207-.396-.378-.576-.522-.018.225-.01.522-.01.873 0 1.287 0 1.053-1.286 1.404s-1.053-1.288-1.287-2.34c-.063-.27-.135-.47-.202-.63-1.41-.27-2.894-1.756-3.425-3.344-.585-1.755.117-1.99.702-.82s.82 1.522 1.872 2.224 1.404-.468 1.053-1.872c-.112-.45-.14-.972-.126-1.553-.253-.454-.595-.823-1.045-1.02-1.872-.82-1.287-1.054-1.17-2.575.117-1.517-.234-1.517-1.404-.702-1.17.82-1.286-.117-1.286-2.453 0-2.34-1.52-2.34-1.867-.702-.35 1.638-.936.585-1.638-1.755s-1.64-2.925-1.756-.702c-.1 1.88-.62 2.33-1.845 1.287.215 1.36.404 2.628.557 3.627.585 3.857 1.52 2.453 3.393 4.09s1.287 2.458 1.99 3.277c.696.82.813 1.404.58 2.34-.235.93-.58 1.75-.235 2.57.35.818.82 1.17.82 2.34s.35 1.052.818 1.286c.293.144.67.063.945.18.302-.396.576-.882.927-1.233 1.404-1.404 3.51.117 4.212 1.872s1.517 2.223 2.57.82.702-1.17 1.872.116 1.637 1.053 1.637 1.053 1.17-.467 1.99.235 1.286.585 2.802-1.638c1.52-2.223-.698-1.52-1.4-.117zM447.64 340.57c.463-3.43.153-6.858 1.557-8.11 1.404-1.245 3.118-3.738 2.96 1.563-.152 5.3-.31 4.99-1.4 6.237-1.092 1.246-2.028 1.557-.935 3.586 1.09 2.025 1.247 2.183 1.09 5.3-.154 3.12-.154 4.366 1.093 5.928 1.246 1.557 1.557 1.714 1.872 3.43.31 1.713 1.4 4.053 2.803 5.3s2.966 4.833 3.12 7.33c.156 2.493 2.34 3.12 4.364 4.833 2.03 1.715-.464 2.96-2.025 2.183-1.558-.78-.937 0-1.873 1.09-.936 1.092-1.247 1.25-2.025-.622s-3.434-3.12-4.68-3.587-2.336-2.496-3.43-4.52c-.935-1.743-2.79-3.016-4.48-3.147.467 1.314.72 2.345.584 2.835-.468 1.715-1.094 2.96.778 4.986 1.872 2.03 3.12 4.99 3.276 6.705.153 1.718.468 2.34 2.336 1.718 1.872-.625 2.808-1.25 3.433-2.03.62-.778 1.867-.62 3.586.31 1.714.937 4.365 1.873 5.922.937 1.56-.936 2.34-2.335 3.744-2.335 2.183-1.562 2.96-4.838 3.43-5.77.467-.935.156-.935-.78-1.87s-.468-2.5-.625-4.056c-.153-1.56-.778-3.897-2.65-7.33-1.868-3.43-2.962-7.64-4.208-8.73-1.248-1.094-1.873-3.744-2.03-4.99-.153-1.247-1.557-2.34-2.493-3.277-.936-.93-1.872-2.335-2.96-7.794-.857-4.266-1.518-7.573-1.766-9.265-1.12 1.786-1.884 2.223-2.29 1-.467-1.4-1.093-2.184-1.714-1.248-.625.936-.783-.778-.783-1.557 0-.783-.153-.936-.936-.936-.778 0-.153-1.246-.468-3.586-.31-2.34-.78-2.65-1.09.158-.31 2.804-1.872 4.518-1.246 5.144.62.625.31 1.872-.315 3.744-.622 1.867-.312 2.96.156 4.207s-.31 3.587-.625 5.616c-.31 2.024 1.252 4.05 1.72.62zM419.155 312.58c-1.157.085-1.948 1.098-1.287 4.64.414 2.19-1.247 1.714-1.867.62-.625-1.09-1.093-3.43-2.34-5.458-1.25-2.025-.625 1.404-.778 3.276-.158 1.872 1.09 1.872 2.183 3.43 1.09 1.56.153 2.186-1.094 2.186s-.62 2.493-.31 4.207-.31 2.03-1.25.627c-.932-1.404-.31-3.587-.153-6.237.153-2.65.31-2.03-1.404-2.65-1.715-.626-1.404-.937-.78-2.498.622-1.557 1.248-2.34.47-3.12-.784-.777-.626-1.245.62-1.403 1.247-.154.783-1.09 1.872-1.405 1.093-.31 1.56.158 1.715-1.867.13-1.692.697-2.732 1.966-2.22.765 2.607 1.76 6.66 2.44 7.872zM434.86 330.94c0 3.276 0 4.523 1.404 5.77s1.246 2.492 1.872 5.458c.62 2.96.62 9.355 2.493 13.72.557 1.3 1.326 2.952 2.114 4.67 1.035-.813 1.935-2.213 2.254-2.955.464-1.094-.936-3.276-2.03-5.144-1.088-1.873.158-2.498 1.247-4.838 1.094-2.336-.153-2.493-1.867-3.12-1.72-.62-1.72-2.18-2.655-4.674s-.78-3.587-.153-4.99c.62-1.405.153-2.494-1.094-2.81-1.246-.31-.936-1.245-.468-2.802.468-1.562.78-1.872-1.09-1.404-1.416.35-1.758.616-2.18 1.13.102.45.152 1.075.152 1.988z" fill="#00b800"/><path d="M452.815 337.465c-.17 1.872-.158 2.808-.626 3.43-.464.625-.154 1.56.314 2.497s.78 2.182.31 3.897.31 3.117 1.247 3.585 1.405 0 1.095 2.183c-.315 2.182.936 4.522 2.025 5.458 1.093.936 1.872 2.493 1.714 3.43-.153.935.783 1.87 1.872 2.34 1.094.467.936.625.936 1.246 0 .625.468.625 1.715.936s2.182 1.093 3.586 2.808 3.43 2.65 3.12.778 0-3.118-1.873-4.054c-1.868-.936-3.272-5.46-4.055-8.577-.778-3.12-3.27-7.326-4.675-8.105-.158-2.187.157-3.276-1.247-4.37-1.404-1.088-1.872-2.492-1.872-3.586 0-1.09-.777-2.493-1.403-2.803-.62-.316-.936-1.095-.936-2.03s-1.088-.78-1.245.935z" fill="#5d3100"/><path d="M444.535 421.12c2.803-.234 10.408-2.457 11.223-3.16 1.872 1.288 5.148 3.043 6.552 3.043-2.69.585-4.446.234-5.148-.234.35.818 1.287 2.105 1.872 2.222-2.574-.117-5.495-.702-6.43-1.638-2.224.936-5.968 1.17-8.07-.234zM449.575 424.63c.995.293 5.963 1.112 6.606 1.112-1.637 1.4-.233 2.745 2.517 2.51-1.346.176-2.813.685-1.814.878 2.4.468 8.888-1.287 10.175-1.99-2.223 2.868-13.037 5.5-17.483-2.51zM454.03 431.74c1.34-.702 4.675-.468 6.255.293-1.755.643-5.202.643-6.255-.293z" fill="#00d860"/><path d="M459.025 431.65c2.398-.41 9.18 1.23 11.578-.234-.82 2.165-5.09 2.457-6.552 1.99-1.457-.47-2.86-1.054-3.855-.995.526-.292-.35-.35-1.17-.76z"/><path d="M461.5 434.98c1.813.288 8.302-.526 10.29-1.287 2.103.702 6.256 1.81 7.192 1.692-1.99 1.23-5.79.527-7.015 0-3.51 1.17-6.377 1.52-10.467-.405z" fill="#00d860"/><path d="M464.605 436.06c2.596.585 4.81.166 7.366-.69.798.343 2.674.762 4.438.676 1.175.67 2.754 1.607 4.275 1.724-1.58.643-7.37 0-8.536-.643-2.925.058-7.956.7-9.18 1.696-.06-.82.472-1.958 1.638-2.763z" fill="#00d860"/><path d="M461.5 422.875c2.025.675 9.355.35 13.095-1.404 1.476-.692 2.39.47.702 1.054-6.08 2.106-10.877 2.925-14.382 1.053-1.386-.738-1.52-1.404.585-.702z"/><path d="M497.41 412.93c-9.005 4.207-14.972 5.494-27.482 1.638-1.165-.36-1.99 0-.702.82 1.287.813 8.186 2.685 9.824 2.802s1.053.878.058 1.17-1.287.995.06.468 8.86-.724 11.928.878c1.34.702 1.692.585 1.575.058s.586-.877 1.58-.994 1.58-.468.82-.76-.878-.47-.293-.76.644-.586-.234-.762-1.462-.41-.643-.82c.82-.404 2.047-.7 2.983-.813.234-.644-.175-2.34.527-2.925z" fill="#00d860"/><path d="M482.425 414.01c5.148.364 14.62-1.99 19.65-6.9 1.752 1.05 4.21 2.22 5.496 2.454s2.458 1.404.47 1.404-4.798-.82-6.08-1.404c-6.67 4.095-14.472 5.44-19.418 5.03-1.4-.116-1.75-.7-.117-.584z"/><path d="M467.215 385.93c1.755 1.228 4.856 3.27 8.888 2.98 1.99 1.578 5.09 2.924 6.493 3.216-2.69 1.112-5.616 2.048-6.376 2.925-1.23-1.17-2.804-.993-3.213-1.578-1.17.936-.995 1.52-.234 1.99s6.664 1.46 8.127 1.052 1.854.8.643 1.224c-3.16 1.11-9.297.058-11.403-3.33-2.106-3.393-3.92-4.68-9.648-1.58-.643-1.638-.643-2.047-1.755-2.047s-3.16-1.462-1.58-1.403 6.26-.644 10.058-3.447z" fill="#00d860"/><path d="M468.61 393.445c-.977.243-3.744 1.755-4.734 1.872-.995.117-2.75 1.52-.936 1.58 1.81.058 4.15-1.93 5.436-2.106s1.404-1.637.234-1.345zM474.28 399.385c-.693.12-3.68.82-4.5.76s-1.638.176-1.58.76.293.937-.936.82-2.28.35-2.574.702-.526.702.702.82 1.872.233 3.276-.41 2.75-1.64 4.27-1.697c1.518-.06 3.04-2.048 1.342-1.755z" fill="#00d860"/><path d="M470.095 402.985c1.278.828 7.6 2.984 9.882 2.808s1.854.914.117 1.287c-3.568.756-7.924-.796-10.876-3.16-1.463-1.17-.117-1.578.877-.935z"/><path d="M500.02 406.09c-4.837 1.544-9.765.995-11.754.468s-3.803-.643-2.457.644c1.344 1.282 5.673 2.16 8.126 1.516-8.712 1.99-10.994 1.814-13.154 1.463-2.164-.35-6.228-.274-7.95-.116-1.288.117-3.043-.06-3.804-.527s-.994-1.345 1.287-1.11c2.277.233 2.574-.235.585-.528s-4.738.526-2.047 2.222 8.595-.117 12.34.936c3.738 1.053 11.69 1.814 19.236-4.27.386-.31 1.052-1.166-.41-.698zM476.26 398.98c.175.585.175 1.23 0 1.638s-.175.936.585.35 1.228-1.286 1.99-.876 2.69.35 3.563.234c.882-.117 1.17-.293-.113-.82-1.287-.526-2.574-.7-3.276-.643s-1.58-.117-2.165-.35-.76-.118-.585.467z" fill="#00d860"/><path d="M488.725 401.23c-.995.06-2.75-.585-3.686-.994s-2.278-.468-1.283.877c.99 1.346 5.32 2.106 6.84 1.463s.877-1.346 2.394-.41c1.522.936 3.1 1.58 4.213 1.58s1.52 0 .292-.702-1.813-.878-1.93-1.463-.293-.935.82-.584 2.397.995 3.275.527 2.51-1.52 3.973-1.52l.35-.88c-2.105-.174-3.446.47-4.03.703s-1.64.35-2.75.176-2.574-.293-2.925-.585-.35-.527.585-.702 1.228-.82-.06-.585-4.733.117-6.546-.468c-1.814-.58-2.574-.64-3.335-.35-.76.29-.643 1.11.468 1.17s3.627.29 4.505 1.11.76.878-.234.468-2.807-.175-.935 1.17z" fill="#00d860"/><path d="M503.98 399.115l-.35.878c2.163-.06 7.428.468 9.12 1.52 1.638-1.286 1.346-1.696 2.516-1.462s2.632.645 3.276.294 1.11-.293 1.813-.176c.698.117 2.22-.175 3.096-.702s2.692-1.228 3.745-1.228 2.336-.234.41-.527c-1.93-.29-4.856.294-5.85.645-.99.35-3.974.585-5.73.585s-4.148.877-6.137.35-4.738-.175-5.908-.175z" fill="#00d860"/><path d="M531.07 398.08c-3.506 2.574-7.718 3.16-12.744 3.51-1.463.103-1.013.517.234.643 5.26.527 11.345-1.404 13.33-3.51.575-.607.512-1.615-.82-.643z"/><path d="M507.175 404.065c1.52.06 6.78 1.404 8.478 1.99 1.287-.118 1.638-.41 1.404-.878s-.41-.995 1.93-.878c2.336.116 7.718.058 8.712.058.818-.35 2.627-1.755 3.446-1.814-2.1.117-10.872.585-11.983.468s-1.697 0-2.4.41-1.11.585-1.988.234-2.457-.82-3.33-.293c-.877.527-2.69.058-4.27.702z" fill="#00d860"/><path d="M527.695 404.335c.82-.35 2.628-1.755 3.447-1.813 1.52-.117 3.276.526 4.095.643s1.696-.058 1.11-.702-.057-1.755 2.34-1.462c2.395.293 3.624.703 5.964.47s3.394 1.52 7.835-.235c-.35 1.755.468 1.872 1.287 1.52s1.755-.233 3.16.82 9.94 1.17 11.93.82c1.984-.352 3.037.7 1.516 1.17-1.517.467-1.873 1.17-1.517 1.637.347.463.698 1.048-1.17.814-1.87-.234-2.222.35-3.158 1.053s-1.17.935-3.744.467c-2.57-.468-3.038-.117-4.44.117s-1.756.234-3.16-.234-4.442-.936-6.314-.35-3.276 1.17-4.914.7-1.755-.233-.702-1.286 1.287-.936 3.276-1.17c1.99-.23 3.51-.814 2.106-1.633s-1.872-.7-3.744.235-2.808 1.516-4.91.35c-2.106-1.17-3.16-.935-4.563-.584s-3.74-.467-5.728-1.345zM534.715 407.845c-2.677.382-3.397-1.34-6.196-.99-.937.117-2.517 1.282-.352 1.107 2.16-.176 4.5.994 6.606.82s1.17-1.113-.06-.937zM531.61 409.87c1.408-.513 4.33.468 5.557.234s2.4.526 1.112.936-4.39-.76-5.793-.35-2.803-.118-.877-.82zM503.665 417.43c1.93.063 8.887-.234 11.637-6.08.21-.45.41-.643 1.287-.058s4.094 2.515 10.115 3.042c1.687.148 3.51.994.117.76s-8.77-1.17-10.584-2.28c-3.042 4.79-8.505 5.358-12.573 5.26-2.453-.06-1.868-.703 0-.644z" fill="#00d860"/><path d="M518.695 409.465c-.936 1.287-4.154 3.51-5.616 3.627-1.46.117-5.847-.292-6.958-.702s-2.457-.292-.878.82 5.5 1.87 7.074 1.52c1.58-.35 3.393-.877 4.622-.117s3.51 2.22 4.85 1.926c1.346-.29 4.096-.29 4.973.116.878.41 2.4 1.638.117.936s-4.153-.117-5.206-.585c1.17 1.638 3.825 4.27 6.084 4.27.526 0 .877.937-.234 1.463 1.11.527 3.68.936 5.026-.292-.35.468-.175.76.41 1.053s1.287.703.234.82-3.447.41-4.15.117c2.278 1.458 8.186 3.798 14.207 2.628 1.15-.22 1.756-.698-.116-.644-3.86.118-4.09.06-4.792-.345-.702-.414-.585-.76.526-1.112 1.107-.35 3.915-.76 5.085-.76s2.34-.468-.058-.468-5.32 0-6.49-.41-2.047-.936-.818-1.755 2.516-.585 3.1-1.345c-3.86-.06-8.6-2.106-5.967-3.974.612-.435.41-.467-.585-.584s-3.915-.936-5.143-1.638-.41-1.287.585-1.462c-2.281.41-6.845-.82-9.882-3.1zM552.985 409.375c-2.106 1.58-6.08 2.223-7.776 2.223s-1.932.585-.586.76 2.808.35 3.393.176.936-.234 1.81.175c.876.41 2.748.643 4.386.117s4.325-.76 5.436-.702 2.34.117.116-.527c-2.218-.643-5.845-.175-6.723.058s-3.276.06-1.99-.35 2.4-1.053 3.043-1.58c-.468-.117-.76-.234-1.11-.35zM551.905 413.92c-1.814 1.346-4.44 2.628-7.133 2.745 2.457.878 4.505 3.393 6.08 3.276-.76.47-1.692 1.17-2.686 1.288 1.52.41 4.09-.058 6.196-1.228 3.51.994 8.069.35 9.59-.936-2.282 0-5.027-.82-6.255-1.872 1.11 0 2.16-.702 2.686-1.34-2.628.462-7.133-.82-8.478-1.932z" fill="#00d860"/><path d="M548.17 421.255c.994-.117 1.926-.82 2.686-1.287-1.926.644-10.35-.702-12.86-2.925-2.516-2.218-2.516-.526-.76 1.053s4.85 3.978 10.934 3.16zM554.335 426.61c-1.053.585-6.08.936-7.718.585s-2.34-.175-1.93.468.585 1.23-.76 1.053-3.745.117-4.735.468c-.994.35-2.223 1.23-.117.878 2.102-.35 4.032-.76 5.612-.35s7.19.525 8.302.057.35-.47-.176-.47-.76-.35 0-.7 1.345-1.346 1.52-1.99zM505.69 419.815c-2.106.936-9.122 2.808-10.994 2.925-2.34 1.053-4.207 1.638-5.377 1.638.818.702 3.972 1.4 5.26 1.053-.703.7-2.336 1.518-2.92 1.87 1.866-.235 4.09.233 5.025.35-2.457 1.404-5.845 1.872-7.6 1.638.585.82 1.404 1.638 2.457 1.638-2.223.585-4.914.585-6.318.117.585 1.17 1.17 1.872 1.99 1.99-1.873.232-4.213.583-6.198-.587 1.517 1.99 4.91 2.687 9.94 2.106 5.027-.585 9.24-2.808 10.41-3.744-2.107.234-4.915.35-6.32.117 2.81-.702 8.89-3.276 9.942-4.33-1.17 0-2.336-.35-3.16-.935 1.64.234 7.372-.463 9.127-1.165-2.106-.468-3.393-1.755-3.978-2.574 7.366 2.34 15.565 1.576 19.53.586.936-.234 1.048-1.422-.82-1.287-3.275.233-9.59-.703-11.227-1.522 1.52 1.17 3.393 1.872 4.68 2.106-3.042.82-7.25 1.404-13.45-1.99z" fill="#00d860"/><path d="M491.65 427.33c.585-.35 2.218-1.17 2.92-1.868-1.287.347-4.44-.35-5.26-1.053 1.17 0 3.037-.586 5.377-1.64-4.207-.116-7.132-.116-8.653-.935s-4.325-.585-5.378-.35-.702 1.988 3.74 1.52c-1.872 1.287-6.9 1.755-8.77 1.287.467 1.517.818 3.038.35 3.857 2.457 1.403 8.888 3.158 12.047 2.924-2.808-1.053-4.33-2.223-1.99-2.457s3.628-.702 5.617-1.287z" fill="#00d860"/><path d="M484.405 434.935c5.598-.468 13.095-.567 19.062-5.616 1.52-1.288 2.542-.856 1.053.467-3.154 2.808-10.994 6.665-18.477 6.78-3.046.05-4.44-1.403-1.638-1.632z"/><path d="M526.345 425.665c-1.404.526-5.324 1.17-6.49.994-1.17-.176-2.866-.235-3.802.35s-.994.936.293 1.053 2.925.234 3.744.176c-1.053.584-1.755 1.403-1.99 1.754 1.873-.468 5.32.35 6.314.936-.76.234-1.638-.06-2.28-.41 3.158 3.335 12.513 3.335 14.034 2.75-.702.527-1.345 1.053-2.047 1.23 2.633.466 5.67.408 8.654-1.347-.994.175-3.973-.117-4.734-.176.585-.585 1.458-1.11 2.277-1.345-1.165-.234-4.85-.117-5.728.35.35-.7.993-1.58 1.695-1.87-4.62 0-10.233-.06-12.28-1.17 3.276.35 6.903-1.58 8.42-1.58-2.57-.06-5.378-.644-6.08-1.697zM514.6 428.23c-2.282.468-5.73 1.404-6.665 1.93s-1.93.82.117.82 7.6.234 8.83.41c-3.1-.47-7.308-.586-8.127-.586s-1.756-.058-.235-.526 3.51-1.52 6.08-2.048zM509.965 433.675c.815 0 4.383 0 5.787-1.23 1.463 1.113 4.27 2.688 6.08 2.688 1.813 0 1.638.468.058.643-1.575.176-4.675-.756-6.255-1.926-2.106.76-3.856.117-5.67-.175zM482.875 449.425c3.622 1.404 8.42 2.457 11.925 1.287 1.99 1.755 6.084 1.872 8.302 1.404 2.223-.468 4.212-.702 6.67.117 2.452.82 7.483.877 8.887 2.043-1.288.063-4.038 0-4.68.18-.645.17-.294.58.876 1.224-3.973-.234-10.818 1.462-12.92 3.276.757-1.814 3.097-4.27 6.782-4.27-2.106-.757-8.83-.815-10.993.526-.644-.702-1.404-1.868-1.463-2.336-3.564 2.043-10.584-.877-13.387-3.45zM473.605 442.855c4.315-.616 7.254-1.99 8.54-3.276.76.7 3.916 1.403 7.367.35-.702.527-.76 1.52-.468 2.048-2.28.058-6.61 1.17-8.068 1.93-1.463.756-5.733 1.283-7.133.522-1.404-.756-1.462-1.4-.238-1.575z" fill="#00d860"/><path d="M489.04 442c-2.282.058-6.61 1.17-8.07 1.93.294.585.47 1.517.528 2.16 4.208-1.52 13.856-2.452 17.54-1.867-1.754.117-5.09 1.926-6.956 2.16 4.558-.35 9.005.585 10.17.878 1.17.293 1.404 1.17.527 1.99s-1.284.936.584.994c1.872.058 5.733-.175 7.488-1.872-.702-.76-2.516-.468-3.042-.995 1.228-.41 2.632-1.287 3.16-1.93-3.16-.058-4.33-.117-5.384-.35-1.053-.23-1.813-.527-.526-1.225 1.287-.702 1.872-1.287 2.281-1.755-2.28.643-5.844 1.17-8.827-1.17 1.11.292 3.74.117 4.675-.292-.995-.527-1.81-.936-2.628-.936 2.394-1.172 7.133-2.225 12.978.115 2.925-.233 6.084-.116 8.303.47.936-.937 2.925-3.16 3.978-3.745-6.898.585-19.296-.702-19.062-4.325-2.223 2.92-7.366 4.56-9.59 4.09-.233 1.054.703 2.34 1.522 3.043-2.34.468-6.318.82-8.185.468 1.053 1.053 3.037 1.99 4.207 1.872-2.453 0-3.74.468-5.67.292z" fill="#00d860"/><path d="M503.35 450.235c1.872.06 5.733-.175 7.488-1.872-.702-.76-2.516-.468-3.042-.994 1.228-.41 2.632-1.288 3.16-1.932 4.908-.405 9.296-.17 11.397-.814 2.106-.644 7.488-.293 8.54-.585-4.68.755-5.615 1.164-5.85 1.925s1.522 1.404 2.634 1.404c-2.106-.118-4.739 2.105-4.973 2.982-2.803-1.638-4.148.293-4.44.936-1.17-.468-5.032-.35-7.02 1.346-2.57-.76-4.267-1.17-6.84-.76 1.58-.352 1.286-1.405-1.054-1.64zM525.805 436.555c1.58-.06 5.026.117 6.255-.06-.82.41-1.868 1.17-2.102 1.522 3.974-.468 9.41-.76 10.99-.526-1.927-.292-3.916.937-4.91 1.58s-.41 1.053.936 1.23 3.16 1.227.702.876-7.308-.35-8.478-.175-1.814-.41-.117-.643 2.863-.82 3.682-1.287c-1.404.35-4.09.35-4.91.117s-1.345-.702-.41-.936.294-.584-.7-.467-3.51 1.17-4.915 2.516c1.52-1.58 2.867-2.985 3.978-3.745z" fill="#00d860"/><path d="M507.985 439.21c1.93 2.165 4.207 3.393 7.834 3.51.76.022 2.177 1.044.35 1.11-4.914.177-7.366-.993-9.53-4.152-.446-.648.377-1.552 1.345-.468zM537.28 398.305c2.583 1.22 7.776 2.28 11.813 2.106.702-.03 2.115.72.346.878-4.56.41-8.655-.23-12.453-2.34-1.053-.585-.702-1.11.293-.643z"/><path d="M539.89 398.26c3.973-.117 6.957-.06 8.185 1.11 2.277-.7 6.372-1.11 7.308-.935s1.99-.234-.175-.76c-2.165-.522-7.19-.698-8.77-.405-1.58.288-6.494.463-8.128.288.702.117 1.166.234 1.58.702zM555.325 399.835c1.872-.994 7.25-.058 8.888-.76-1.17 1.404 3.744 1.52 8.01.41-1.638 1.052-5.144 1.228-6.665 1.87s-2.34.177-3.51-.35-4.15-1.58-6.723-1.17z" fill="#00d860"/><path d="M572.245 399.475c-4.266 1.11-9.18.994-8.01-.41-1.638.702-7.016-.234-8.888.76 1.93-1.17 3.393-.233 4.793-2.632.877.18 2.925.297 3.627-.64 1.228.294 3.393.82 4.036 1.46.644.643 1.634-.176.815-1.166 1.93-.702.706.832 5.206-.293.936-.234 3.218-.643 3.978-.702-1.52 1.23-3.334 2.57-5.557 3.623z" fill="#00d860"/><path d="M489.22 379.855c-.077-8.847-.93-82.9-.93-100.017-.002-4.095-2.108-3.276-2.108 0v99.55c.968.175 2.273.35 3.038.467zM521.755 274.465l3.654 105.575-.64.846-2.12.03-2.308-106.45h1.413zM552.535 363.61c-.297-10.75-1.647-60.516-2.17-85.05-.067-3.27-2.015-2.7-1.984.117.213 19.76 1.387 75.024 1.603 84.992.765 0 2.084-.078 2.552-.06z" stroke-width=".621" stroke="#000" fill="#ff0"/><path d="M503.8 292.015l-31.11-.468c-1.75 6.313 6.085 6.196 9.01 4.558 3.39 2.574 5.963 2.34 7.835.234 2.69 2.222 6.08 1.637 7.483.233 3.744 2.808 7.6 0 6.782-4.558zM506.14 307.675l-31.81-.117c-5.495 5.26 1.637 7.834 7.72 4.207.82 1.755 4.56 2.808 7.485 1.404 2.69 2.105 6.08.584 7.834-1.17 3.275 1.52 7.132 1.988 8.77-4.325zM505.24 327.565l-30.64-.234c-.585 5.496 5.616 4.794 8.068 3.394 2.34 3.623 7.488 2.804 9.477.698 2.92 1.99 5.612 1.52 7.133-.35 3.392 2.924 6.196-.816 5.962-3.507zM506.77 347.455l-34.263-.585c-1.872 5.845 3.389 6.898 5.845 5.494.82 3.393 5.378 2.223 6.548-.234 1.755 1.755 3.978.82 5.03-.35.47 3.16 4.443 3.276 7.485.585 6.196 4.328 12.046-.703 9.355-4.91zM537.145 339.265l-28.535-.234c1.287 5.846 4.09 7.367 8.654 3.974 3.393 3.51 9.005 2.223 10.409.468 6.196 5.03 9.59-.82 9.472-4.207zM534.22 319.735l-27.599-.82c.47 7.017 7.134 6.783 10.527 3.74 2.574 3.277 7.133 2.34 8.77 0 3.51 3.51 9.24 1.405 8.303-2.92zM537.865 297.73H508.16c.35 4.91 6.9 7.718 11.93 3.042 1.4 5.612 6.78 3.857 9.122 1.634 3.388 4.33 11.223-.58 8.653-4.676zM536.11 282.79l-26.546.35c-.468 4.325 5.846 6.197 8.186 2.687 1.287 2.223 5.728 1.99 7.015-.117 2.106 3.276 4.68 1.053 5.495 0 3.042 2.223 6.318 1.17 5.85-2.92zM567.205 292.465l-32.513-.35c-.117 3.388 3.393 4.792 5.495 3.388 0 3.276 4.563 4.33 7.488 1.755 1.99 2.808 7.835 3.627 10.175-.234 4.792 3.978 9.94 1.17 9.355-4.56zM566.755 319.15l-31.81-.117c.233 4.442 5.377 5.963 8.302 3.623.702 3.744 4.68 3.978 7.015 2.106 2.808 3.16 7.488 3.393 10.058-.117 3.86 1.404 6.786-1.872 6.435-5.495zM565.09 343.135l-25.146-.35c0 4.445 5.265 5.03 7.605 2.69 2.452 2.925 6.196 2.925 8.302.585 3.388 2.925 8.536 2.106 9.238-2.925z" fill="#fff" stroke-width=".621" stroke="#000"/><path d="M524.77 380.89c-13.563.234-27.365.234-36.72-1.17s-12.303-2.718-18.71-6.548c-9.59-5.728-11.93-7.132-25.494-15.084-2.08-1.22-4.333.293-1.404 2.22 13.68 9.003 18.864 12.342 25.376 16.608 6.78 4.442 11.155 8.388 15.318 13.095 5.382 6.085 9.355 6.202 11.812 5.266s6.318-2.223 10.175-1.287c3.86.935 9.004 1.052 11.695.584 2.457 2.223 8.07 1.755 11.228 1.053 3.154-.702 5.494-1.053 7.717-.585s5.612.117 7.835-.234 8.069-.936 12.163-.35c4.092.584 8.304.233 10.995-.586 2.686-.82 7.6-.585 9.239-.117 2.335-1.755 3.505-3.978 4.09-6.313 2.75-.35 3.663-.693 4.27-2.282 1.112-2.925 2.16-5.79 2.516-7.074h1.107l.35-2.632-2.276-2.633.82-5.025 2.452-.585c.117-1.52-.585-3.86-1.053-4.797-14.734.585-29.18 1.053-39.524 1.287-1.17.936-2.457 3.393-2.69 4.914-6.315 1.048-10.06 1.516-11.697 1.867s-2.552.483-3.857 2.224c-2.106 2.808-4.095 6.08-5.733 8.186z" stroke-width=".621" stroke="#000"/><path d="M572.11 363.025c.715-2.48 2.628-9.157 6.093-21.78.58-2.106-1.463-2.938-2.22-.234-4.12 14.74-5.678 20.265-6.2 22.105.792-.013 1.926-.1 2.327-.09z" stroke-width=".621" stroke="#000"/><path d="M594.925 338.32c-4.973 2.57-7.37 3.564-9.648 2.687-2.097-.806-5.18-1.26-6.984-.374-.005.19-.032.392-.095.608-2.133 7.772-3.676 13.285-4.716 16.957 3.68 1.3 10.022 1.476 11.502-.113 1.517-1.638 5.67-1.287 7.776-1.17 1.346-1.755 1.872-3.92 1.52-4.972s-.233-2.92.294-4.383 1.228-6.202.35-9.24z" stroke-width=".621" stroke="#000" fill="#fff"/><path d="M481.705 296.11c-5.5 15.903-24.56 51.575-36.063 63.063M454.48 364.375c13.054-10.098 46.062-42.876 51.673-56.673M474.595 327.34c-1.517 12.047-4.995 33.534-6.867 44.88M479.68 354.16c-4.442 4.33-10.742 11.884-15.422 15.98M521.53 330.13c-3.74 3.623-8.01 7.848-11.75 8.9M523.69 330.715c3.29 3.506 7.965 7.466 11.826 8.52M521.125 311.32c-3.39 2.92-8.42 6.36-12.978 7.646M523.06 311.995c2.925 2.457 6.04 6.04 9.78 7.677M508.84 297.73c3.623-1.053 9.018-3.86 11.826-6.78M522.295 290.395c3.172 3.622 9.252 6.547 12.294 7.366M509.56 283.15c3.74-.82 8.374-2.808 10.83-6.318M521.8 275.86c3.154 2.69 8.7 6.58 12.32 6.93M548.485 286.345c-2.03 2.106-7.002 5.89-10.157 5.832M550.555 286.165c1.462 2.34 5.148 5.922 7.254 6.214M536.2 319.015c4.09-1.404 9.823-4.752 12.69-8.204M551.14 311.095c1.197 2.16 5.76 7.042 8.334 8.037M541.06 342.775c1.872-.405 6.962-2.934 8.36-5.917M551.77 335.215c1.93 2.4 6.665 6.782 9.59 7.835M476.71 346.915c5.728-1.814 17.307-8.843 23.04-15.512M488.77 339.85c4.792 3.388 10.364 6.78 14.63 7.542M475.63 327.34c3.16-1.345 7.308-3.64 10.525-6.97M488.59 319.915c1.287 1.81 10.746 7.587 14.778 7.645M486.16 301.24c-2.457 1.985-8.36 5.553-11.228 6.314M488.41 301.375c3.276 2.277 9.75 6.3 14.193 6.3M486.16 282.97c-2.633 2.98-7.074 7.582-10.76 8.635M488.275 283.645c2.047 3.276 7.528 7.704 11.097 8.29M535.615 303.31c8.2 15.115 23.404 33.592 38.78 43.3M511 286.57c12.45 17.892 36.895 57.128 60.15 71.613M575.44 342.865c-3.744 5.207-10.467 13.334-21.578 20.732M574.045 347.815c-7.835-12.51-11.885-28.327-17.744-49.158M492.775 354.295l9.648 26.546M490.975 353.665l8.532 27.076M489.13 352.405l7.92 28.18M488.32 352.855l6.115 27.576M494.215 379.45h7.646M500.875 376.57h-7.21M500.065 374.32h-6.957M499.255 372.07h-6.638M498.355 369.64h-6.318M491.605 367.48h5.994M491.155 365.5h5.688M490.66 363.34h5.41M490.255 361.405h5.103M489.805 359.425h4.85M489.4 357.58h4.59M488.95 355.87h4.46M488.68 354.43h4.153M481.165 354.475l-5.436 22.194M482.74 354.07l-4.666 23.445M484 353.215l-3.776 24.97M485.62 352.72l-2.74 26.113M486.16 377.335h-8.654M486.16 374.95h-10.013M486.16 372.475h-9.428M486.16 370.135h-8.843M486.16 367.75h-8.27M486.16 365.095h-7.614M486.16 362.8h-7.06M486.16 360.46h-6.462M486.16 358.21h-5.922M486.16 356.23h-5.454M486.16 354.655h-5.045M486.16 379.405v-26.46M515.275 344.215l-18.13 36.36M516.4 343.63l-15.435 37.143M517.525 343.225l-12.245 37.723M518.29 343.9l-9.522 37.07M509.2 379.27h-11.403M510.1 375.94h-10.616M510.595 373.24h-9.765M511.54 370.315h-9.24M511.99 367.975h-8.537M512.8 365.275h-8.041M513.61 362.125h-7.28M514.24 359.74h-6.696M514.915 356.995h-6.066M515.41 355.15h-5.612M515.86 353.395h-5.144M516.31 351.595h-4.739M516.715 350.02h-4.356M517.12 348.445h-3.992M517.57 346.825h-3.6M517.93 345.34h-3.245M529.72 344.8l7.933 25.11M531.25 345.34l9.625 24.098M532.6 345.385l11.272 23.566M546.595 366.94l-12.433-21.996M546.595 366.895h-9.864M544.885 363.925H535.8M543.22 360.955h-8.33M541.51 357.94h-7.596M539.845 354.97h-6.88M538.135 352h-6.12M536.47 349.03h-5.373M534.76 346.015h-4.644M544.93 346.735l-7.763 23.28M547.27 345.7l-7.2 23.864M543.4 369.01l5.283-22.464M550.06 347.32l-4.446 21.375M538.09 367.345h7.79M539.08 364.42h7.425M540.025 361.54h7.074M540.97 358.66h6.71M541.96 355.735h6.345M542.95 352.855h5.98M543.895 349.975h5.616M544.84 347.05h4.622M553.615 347.545l3.807 15.962M555.01 346.78l5.26 16.637M556.81 346.735l5.737 16.66M559.15 347.635l5.746 15.646M564.37 361.9H557M563.515 359.56h-7.002M562.66 357.22h-6.71M561.805 354.88h-6.435M560.905 352.54h-6.11M560.05 350.2h-5.778M559.195 347.86h-5.48" stroke-width=".621" stroke="#000" fill="none"/><path d="M484.765 389.17c3.627-2.335 9.823-1.867 12.982.468 3.744-2.1 10.526-1.52 13.685 1.287 4.792-3.27 8.887-3.74 13.563-.585 3.627-2.57 9.238-2.803 13.567.234 4.208-1.99 8.888-3.622 12.978.702-2.452-1.755-7.717-3.276-12.978.82-4.095-4.096-11.227-2.575-13.567.233-3.042-3.628-9.473-4.213-13.334.233-4.206-3.51-10.52-3.627-13.913-.936-2.69-2.106-6.664-3.856-12.982-2.457z" fill="#00b800"/><path d="M548.665 384.175c-18.594 3.213-59.117.936-68.004-1.287-3.055-.765-2.222-1.872.352-1.287 10.242 2.327 32.098 2.34 44.145 1.756 2.34-3.1 6.02-8.36 7.132-9.824s1.602-1.597 3.92-1.99c4.148-.7 6.52-1.08 10.115-1.695.058.468.058 1.053.058 1.404-.292.235-.585.644-.82.76 0 2.4.47 8.245.937 10.35.468-.057 1.053-.233 1.346-.29.82-.235 1.633 1.87.82 2.105z" fill="#cf6200"/><path d="M579.13 385.075c.67-.018 2.07-.05 2.457-.058.76-.018 1.827-.54 2.295-1.71s1.917-5.495 2.443-7.308l-1.872-2.823c.41-2.326.936-5.48.995-6.124.936-.35 1.926-.702 2.394-.878.117-.526-.113-1.957-.585-2.425-8.01.306-31.982 1.138-36.37 1.197-1.052 0-1.525-.045-1.925 1.462-2.223 8.302.85 19.952 9.238 26.662.585.468 1.323.076.347-.82-1.4-1.286-3.564-3.92-5.027-6.52 1.638-.027 4.96-.08 5.954-.12.477 1.965 1.97 6.114 2.263 6.816s1.013.8.67-.247c-.805-2.456-1.228-5.255-1.58-6.6 1.522-.037 4.39-.01 6.144-.11.086 2.224.32 5.203.38 6.022s.76.878.773-.058c.018-.936.036-4.892.022-6.057 1.98-.054 4.51-.14 5.445-.14-.13 1.265-.373 5.355-.463 6.003-.135.954.364 1.404.598.06s.702-4.492.833-6.085c.792-.023 2.875-.108 3.753-.13-.085 1.246-1.255 5.035-1.606 6.03s.216 1.025.612.085c.414-.963 1.697-4.766 1.814-6.125z" fill="#cf6200"/><path d="M552.58 384.13c-.644-1.287-2.633-5.863-2.808-9.193 1.696-.032 5.94-.113 7.987-.158.3 2.51 1.075 7.92 1.484 9.202-2.394.058-5.32.135-6.664.148zM559.15 374.725c.22 1.917 1.224 8.5 1.386 9.26 1.737-.103 5.76-.116 6.457-.175-.072-1.755-.355-8.338-.387-9.274-1.818.05-6.543.166-7.456.19zM550.105 366.58c-.324 1.683-.383 5.278-.293 6.813 2.048.04 7.088-.08 7.785-.14-.17-1.746-.445-4.905-.62-6.876-1.67.072-5.76.17-6.872.203zM558.475 366.355c.058 1.638.423 5.643.54 6.867 1.768-.05 6.097-.14 7.56-.19-.077-1.497-.315-6.326-.342-6.91-2.35.062-6.27.21-7.758.233zM567.745 366.085c.072 1.52.265 5.814.207 6.926 1.876-.05 5.463-.085 6.574-.175.086-1.525.333-5.886.216-6.997-2.106.08-5.463.193-6.997.247zM576.025 365.77c0 1.287-.162 5.81-.22 7.038 1.858-.072 6.08-.22 7.177-.248.292-1.507.877-5.422 1.053-7.074-1.755.06-6.728.248-8.01.284zM583.27 374.095c-2.4.076-6.255.18-7.56.23-.202 2.96-.572 8.077-.747 9.247 2.11-.045 6.377-.18 7.313-.207.702-1.404 2.223-5.787 2.574-7.133-.527-.82-.936-1.287-1.58-2.137zM568.015 374.5c0 1.053.184 8.59.23 9.234 1.372-.045 4.936-.095 5.462-.153.266-2.933.666-8.554.738-9.256-2.43.068-4.815.14-6.43.176zM536.965 372.7l-3.046.54c-1.405 2.268-6.607 9.284-7.25 10.103 3.622-.104 9.287-.212 10.65-.342-.098-1.88-.35-9.368-.355-10.3zM538.315 372.43c.072 2.398.3 8.788.36 10.485 1.795-.104 5.103-.32 6.448-.437-.31-3.015-.877-10.215-.994-11.092-1.51.274-4.47.796-5.815 1.044z"/><path d="M506.905 347.185c.41.004.463.355-.005.35l-34.55-.427c-.47-.004-.406-.355.004-.35l34.55.427zM534.085 319.51c.41.013.46.364-.01.35l-27.373-.75c-.468-.014-.4-.365.01-.352l27.373.752zM505.195 327.43c.41.004.463.355-.005.35l-30.636-.224c-.468 0-.405-.35 0-.35l30.64.224zM506.095 307.54c.41 0 .468.35 0 .35l-32.044-.166c-.467 0-.404-.35.005-.346l32.04.162zM503.89 291.835c.41.005.46.36-.005.35l-31.135-.467c-.468-.01-.405-.36.004-.35l31.136.467z" stroke-width=".621" stroke="#000"/><path d="M536.11 282.655c.41-.004.472.347.004.35l-26.72.258c-.47.004-.415-.347-.005-.35l26.72-.258z" fill="#fff" stroke-width=".621" stroke="#000"/><path d="M537.775 297.595c.41 0 .468.35 0 .35h-29.53c-.467 0-.41-.35 0-.35h29.53zM566.755 318.88c.41 0 .468.35 0 .35H534.93c-.467 0-.41-.35 0-.35h31.825zM567.205 292.285c.41.004.463.355-.005.35l-32.512-.32c-.468-.003-.405-.354.004-.35l32.513.32zM537.145 339.04c.41.004.463.355-.005.35l-28.602-.188c-.468-.005-.405-.356.005-.35l28.602.188zM565.09 342.91c.41.004.464.355-.004.35l-25.142-.332c-.468-.005-.4-.356.01-.35l25.136.332z" stroke-width=".621" stroke="#000"/><path d="M587.77 347.725c.707-1.57.805-5.18.4-6.548-1.09.22-2.01.17-2.91-.18-.474-.18-.99-.342-1.536-.477-.1 1.81-.756 6.417-1.566 8.2-1.413.4-4.26-.068-5.88-.577-.43 1.535-.82 2.943-1.18 4.24 2.011.463 4.536.422 6.534-.04-.158 2.703-.513 5.165-1.976 6.866 2.39.053 4.527-.298 5.31-1.135.072-.08.153-.15.24-.216 1.1-1.846 1.133-4.25 1.398-5.87.815.06 1.868-.175 2.336-.643s1.228-.702 1.99-.643c.692.054 1.772-.09 3.145-.644.035-.828.197-1.728.48-2.51.154-.428.32-1.14.46-2-1.742.834-5.625 2.224-7.245 2.175z" stroke-width=".621" stroke="#000" fill="#ef072d"/><path d="M476.17 195.4c-3.56.104-11.31.176-12.938 1.09-1.624.917-2.34 1.322.51 1.83s7.667 1.864 10.308 3.493c2.642 1.624 4.856 4.504 4.127 8.613-2.183 12.343 4.27 24.214 13.62 28.692.906.432 1.122.76.92 2.44s-.815 4.476-1.324 5.187c-.508.716-.76 1.886.864 1.323-1.116 2.088-3.61 6.26-4.37 7.326-7.474-.913-13.57.104-14.134 7.934-.054.765.207 1.984 1.373.054 1.17-1.935 2.493-3.767 5.692-4.275-1.88 2.898-2.488 5.494-2.182 7.173.3 1.678.76 2.695 1.575.558.815-2.133 2.314-4.13 3.916-5.342.607-.454 1.017-.558.558.765s.202 4.173 1.12 5.14c.914.963 1.373.558 1.116-1.017-.252-1.58.144-4.878 2.084-5.904 2.794-1.472 5.184-.712 6.304 1.223 1.116 1.93 2.084.1.864-2.088s-2.493-3.712-4.527-3.865c1.782-3.155 3.866-6.97 4.325-7.73.454-.766 1.17-1.122 1.777-.663.612.46 1.017.405 1.63-.864.607-1.273 1.673-5.035 3.2-6.56.764-.208 1.983-.51 2.438-.92 1.984 2.9 3.762 6.108 4.22 6.82.455.71.968 1.016.51 2.492s-2.035 6.156-2.287 7.173c-5.544.202-8.082.3-9.864 3.406-.778 1.355.46 1.88 1.782 1.17 1.32-.71 3.2-1.323 4.167-1.17.963.153 1.418.648.455 1.12-3.402 1.68-5.53 3.812-5.387 6.764.05 1.067.492 1.598 1.324.153 1.17-2.033 3.303-4.067 5.895-4.63-.154 2.494.41 6.157 1.93 6.922 1.525.76 1.633-.014 1.066-1.476-.913-2.34.036-4.694 1.17-5.954 2.39-2.646 7.83 1.017 8.847 1.935 1.017.914 1.944 1.296 1.373-1.07-.765-3.15-5.238-4.982-9.05-5.49 1.067-5.14 3.915-15.517 5.44-19.076 2.237 1.22 3.983-1.997 7.727-.61 6.3 2.34 15.755 8.238 17.384 9.56 1.624 1.324 2.236 1.018 3.05.307.81-.71 2.237 0 3.353.203 1.12.202 2.138.508.71-2.34-1.42-2.85-4.877-7.835-10.673-11.7 3.456.306 8.136.306 8.136-.608 0-.918-5.39-2.646-7.627-2.848 2.137-.51 5.39-1.733 6.912-3.46.904-1.022-.18-1.26-3.353-1.324-9.76-.202-14.638-.126-19.723-3.05-8.13-4.68-12.785-9.608-16.776-11.7-2.133-1.12-3.434-3.704-4.257-5.936-2.643-7.124-2.512-10.328-8.713-12.668s-13.334.527-16.587 3.474z" stroke-width=".621" stroke="#000"/><path d="M476.575 197.02c-1.58-.06-4.68-.432-7.25-.176-.584.06-1.286.35.118.527s5.202 1.108 6.547 1.576.76 1.17-.41.877-1.6.14-.643.82c4.973 3.51 5.5 4.855 4.212 16.897.935.643 1.696 1.11 2.515 1.52s.585.995-.293.76-1.696.294-.292.586 2.043.936.702.878c-1.346-.06-2.925 1.11-.293.82 2.627-.294 3.68.935.584.993-3.1.06-1.93 1.053-.293 1.053 2.922 0 2.044.82 1.288.82-.76 0-1.11.994.82.818 1.925-.175 2.686-.234 3.388-.117s.994.7-.06.762c-1.052.054-.993.814.586.814s2.237.477.82.76c-.586.118-1.396.41.292.644 2.925.41 3.042 1.112 2.106 1.23s-1.053.642.292.76c1.34.116 2.51.526 1.404.818-1.11.293-1.696.936-.297 1.053 1.403.118 2.573.645 1.52.996s-1.287.994.06.936 1.87.702.935 1.224c-.936.526-1.58.877-2.165-.054-.58-.936-.93-1.23-1.107-.527-.175.698-.585.234-1.053-.82s-1.287-1.344-1.053-.525-.82.936-1.813.526c3.685 3.74 9.12 7.133 17.775 3.623.737-.298.876 0 1.46 1.227s2.224 3.92 2.81 4.914 1.048.1 1.34-.876c1.17-3.86 2.048-6.728 2.4-7.776.35-1.053 1.988-2.106 1.46 1.575 1.288-.878 6.99-1.706 11.404-.06 4.85 1.815 9.73 4.627 12.222 6.495.468.35 1.053.76 2.22.643 1.17-.116 1.46-.29-.762-2.34-2.218-2.046-1.282-3.04.117-2.046 1.405.994 2.166.41 1.113-.82s-3.564-3.622-4.383-4.207-.936-.82-2.808-.936-5.846-.116-7.016-.116-1.52.117 1.053 1.053c2.57.932 7.834 4.325 9.004 5.144s1.99 2.692-.585 1.054-10.644-6.665-16.02-8.537c-12.282.82-21.988 2.457-29.238-5.494-3.474-3.807-3.627-12.515 2.22-16.142-1.17-.993-.996-1.578-.528-1.812s.644-.468.176-1.053c-.464-.585-.41-1.107 0-1.34-1.283-.703-1.868-1.522-1.81-2.4-1.58-.35-2.28-2.223-4.387-1.638s-3.16.117-3.798-.41c-.648-.526-1.17-.76-2.34-.643s-2.106-.35-2.164-.936.99-.868 2.575-.175c3.33 1.462 6.02 2.164 8.068-.585 2.048-2.745-.585-5.32-4.504-6.08-3.916-.76-6.783 2.106-8.245 3.452z" stroke-width=".621" stroke="#000" fill="#fff"/><path d="M496.24 195.985c-1.18-1.278-3.276-2.457-4.324-2.808-1.053-.35-1.17.702-.585 1.23-.467.7-.643 2.397.176 2.865s.828 1.134.06 1.517c-1.17.584-.775 3.69.99 2.807.584-.293 1.052-.176.935.292s.117 1.052.644 1.17.468.877.35 1.17.06.41.645.467.642 1.463-.41 1.93c1.286 0 1.637-.233 1.988.82.35 1.048 1.755 1.282 1.755 2.57s-.234 1.52-1.755 1.286-2.106.234-2.574.82-.585 1.17.585 1.228 1.403.586.233 1.112-3.096.176-3.389 1.287c-.292 1.106 0 1.633.873 1.223.878-.405 2.69-1.165 3.393-1.575s1.346-.468 1.93.468.118 1.985-.877 1.17c-.994-.82-1.462-.063-2.047.405s-1.463.762-2.4.762c-.93 0-1.574.12-1.457 2.223.35 6.318 5.26 10.993 14.264 10.876s13.45-.233 14.796-.057c-2.983-1.638-4.855-2.516-5.908-2.4s-1.93.294-1.463-.525-.06-.82-.527-1.17-1.05-.82-1.985.175-3.16 2.106-4.27 2.34-2.457.176-1.404-.877 3.393-1.404 4.095-1.872.7-.756.7-1.107-.175-1.346 1.17-.585c2.687 1.52 6.9 3.798 8.01 3.74s1.873-.527.878-1.17-1.287-1.576-.994-1.927.468-.702 2.223.293c1.75.99 4.617 2.277 5.67 2.745s2.457.292.292-1.287c-2.165-1.575-8.888-6.02-10.76-7.425s-1.053.293-.878.82-1.287 1.17-2.047.526-1.287-1.345-.234-1.93 1.288-.644-.292-2.048c-1.575-1.4-2.043-1.282-1.692-.117.35 1.17.468 2.458-1.17 1.815s-2.457-1.404-1.404-2.048c1.053-.64 2.4-.99.644-2.452s-1.23 0-1.638.82-1.755.818-2.516.174-1.11-1.288-.585-1.814.468-.82 1.23-.41 1.93.175.525-1.053-1.93-.702-1.638 0-.82 1.93-2.57.292c-.832-.773-.818-1.813.06-1.988.872-.176.958-.63.346-1.52-3.564-5.203-2.102-9.415-5.67-13.272z" stroke-width=".621" stroke="#000" fill="#fff"/><path d="M496.825 196.705c-.306.46-.418.44-.985.82-.698.462-.855 1.79.315 1.632.81-.108 1.282-.59 1.602-.98-.257-.496-.563-.986-.932-1.472zM493.18 193.78c-.9.873-1.058 1.265-.6 1.265.546 0 .312.076-.08.702-.387.625.783.936 1.25.468s.546-.626.78 0c.19.508.958.027 1.444-.464-.796-.768-1.867-1.48-2.794-1.97zM491.56 198.82c-1.17.585-.774 3.69.99 2.808.585-.292 1.053-.175.936.293-.063.248-.023.532.108.757.697-.293 1.395-.78 1.94-1.4 1.093-1.246.076-1.17-1.558-1.17-1.638 0-2.106-.31-.55-1.246 1.396-.836.487-1.417-1.443-1.147.28.396.14.828-.423 1.107zM498.265 205.705c-.86-.936-.315-1.404.62-1.872.23-.113.388-.257.5-.428-.265-1.03-.477-2.02-.756-2.983-.49.14-1.063 1.233-1.225 1.773-.234.778-.468 1.246-1.246 1.012-.694-.207-1.387.572-1.53 1.404.107.046.273.078.494.1.324.032.486.473.387.94 2.11-.067 2.47 1.39 2.83 2.39.393 1.094.86.936 1.17.315.312-.625-.39-1.714-1.245-2.65z" fill="#cf6200"/><path d="M498.85 217.945c-.383.864-.392.78-1.638.855-1.247.08-2.817.293-3.506 1.017-.373.387-2.53.49-2.533 1.44-.01.954 0 1.755.936 1.814.93.06 1.047.176.7.878-.355.702-.584 1.872 1.05 1.99 1.637.116 2.807-.41 3.217.52.41.937-.032 2.43.292 2.985s1.43.91 3.145 1.44c1.143.355 5.458.558 6.786.405 1.324-.158.83-.95-.5-1.067-1.322-.116-2.298-.31-2.61-1.28-.31-.978-.584-1.486.16-2.3.737-.82 1.48-1.445 1.052-2.81-.432-1.362-1.134-2.964-2.69-3.392-1.563-.427-1.068-2.56-2.616-2.767-.585-.076-1.09-.076-1.246.275z" fill="#ff0"/><path d="M491.29 230.635c1.34.117 2.51.526 1.404.82-1.112.29-1.697.935-.297 1.052 1.404.117 2.574.643 1.52.994s-1.286.996.06.937 1.87.702.935 1.224c-.936.528-1.58.88-2.164-.053-.58-.936-.932-1.228-1.107-.526-.175.698-.584.235-1.052-.818s-1.287-1.346-1.053-.527-.82.936-1.814.527c.982.994 2.085 1.962 3.34 2.78 1.436-.49 3.02-.09 3.56-.035.585.058 2.398.468 3.393.994s1.638-.408 1.228-1.46c-.408-1.05-.467-.7-.993-.118-.527.585-.644-.234-.585-1.458.05-1.035-.644-.76-.878-.117s-.76-.41-.468-1.053-.058-.878-.585-.702-.584 0-.642-1.17-.585-.995-.76-.527-.644-.175-1.346-1.11c-.612-.82-1.32-.34-2.543.147.152.09.43.167.85.203z" fill="#cf6200"/><path d="M505.51 237.88c-6.39 2.592-10.998 1.44-14.467-.86 1.435-.49 3.05-.07 3.59-.017.586.058 2.4.468 3.394.994s1.638-.41 1.228-1.462c.878 1.11 1.52 1.872 2.57 1.813 1.053-.058 2.808-.234 3.685-.468zM491.875 208.45c-.392-1.323-.78-1.638-1.48-1.557-.703.077-1.013-.08-1.796-.39-.78-.312-1.792.075-1.95 1.48s-1.012 2.105-2.182 2.96c-1.17.86-1.872 1.562-1.872 2.966s-.31 1.79-1.09 2.807c-.346.45-.836.963-1.295 1.503.505.315.977.59 1.472.832.82.41.585.995-.292.76s-1.697.293-.293.586 2.043.936.702.877c-1.346-.058-2.926 1.112-.293.82 2.628-.293 3.68.935.585.994-3.1.057-1.93 1.052-.293 1.052 2.92 0 2.042.82 1.286.82-.76 0-1.11.993.82.818.026-.005.05-.01.08-.01.28-.287.486-.647.64-1.102.31-.936.62-3.667 1.714-4.446 1.09-.778 1.638-1.872 1.638-2.65s1.633-4.208 2.727-5.067 1.56-2.727 1.17-4.055z" fill="#ff0"/><path d="M489.58 208.495c-1.107-.738-2.183-.31-2.183 1.093s-.702 1.79-1.638 2.26c-.932.467-1.792 1.637-1.95 2.73-.152 1.09.158 1.792-.62 2.65-.783.856-.86 1.558-.31 2.026.544.468.544.55.778 1.247.234.703 1.557-.076 1.557-.854s.315-.78 1.17-1.247c.86-.47 2.264-2.732 1.948-3.353-.31-.626-1.09-1.17-.076-2.03 1.012-.855 2.106-.936 2.106-1.79 0-.86.31-1.17.62-1.48.316-.316-.7-.784-1.403-1.252z" fill="#cf6200"/><path d="M489.58 207.37c-.73-.284-1.166 1.246-.153 1.48s1.17-1.093.153-1.48zM489.4 209.35c-.774.094-1.638 1.11-.35.936s1.812-1.112.35-.936zM487.87 211.24c-.797.4-.644 1.463.526.702s1.463-1.696-.526-.702zM486.61 212.86c-.8.396-.644 1.458.526.702 1.17-.76 1.463-1.696-.526-.702z"/><path d="M484.99 213.625c-.796.4-.292 1.463.878.702s1.11-1.696-.878-.702zM485.98 214.615c-.797.4-.293 1.463.877.702s1.112-1.696-.877-.702z"/><path d="M484.585 215.02c-.797.4-.293 1.462.877.702s1.112-1.697-.877-.702zM485.485 216.145c-.8.4-.293 1.462.873.702 1.17-.76 1.11-1.697-.873-.702z"/><path d="M484.135 216.82c-.796.396-.292 1.458.878.698s1.11-1.692-.878-.698z"/><path d="M484.225 217.855c-.797.4-.293 1.463.877.702s1.112-1.696-.877-.702z"/><path d="M483.595 227.71c-.805.104-1.323 1.25-.31 1.485s1.246.31 1.246 1.09.316 1.87 1.405 1.948c1.094.08 2.03-1.17 1.094-1.557-.937-.392-1.797-.702-1.873-1.562-.077-.855-.936-1.48-1.562-1.404z" fill="#cf6200"/><path d="M512.305 221.005c.144.18.324.378.53.554.76.642 2.224 0 2.048-.528s-.994-2.223.878-.82 8.596 5.85 10.76 7.426c2.165 1.58.76 1.755-.292 1.287s-3.92-1.755-5.67-2.745c-1.755-.994-1.93-.643-2.223-.292-.248.292-.05 1 .594 1.597-1.045.153-2.74-.076-3.227-1.188-.585-1.345-1.99-2.983-2.984-4.27-.37-.477-.478-.774-.415-1.022z" fill="#ff0"/><path d="M570.31 412.57c-1.458.995-3.389 2.75-2.106 5.202.153-.08.297-.175.446-.26 5.72-6.922 10.615-14.198 14.81-21.758.048-.26.093-.51.125-.725-1.638 1.403-4.212 2.803-5.265 3.154.702 1.872-2.57 4.33-4.325 5.03.702 1.17.468 2.926-1.053 3.277.35 1.05-.82 1.05-2.223 1.634s-2.106 1.053-2.57 1.755c.756-.41 1.81-.76 2.394-.586s.702 1.053-.35 1.287-1.75.82-2.107 1.288c1.52-.585 3.686-.292 2.223.702z" fill="#00d860"/><path d="M500.965 218.845c-1.728-1.508-2.164-.585-1.462.35s.175 1.405-1.346 1.64-3.802.525-4.738.525-2.044 1.287.174 1.17c2.223-.117 5.967-.877 6.962-1.287s1.81-1.17.41-2.398zM504.34 221.5c-1.426-1.282-1.93-.936-1.58 0s-.292 1.11-1.223 1.404c-.936.292-4.622 1.52-6.2 1.696s-1.932 1.287.408 1.23 6.84-1.932 7.367-2.283.702-1.053 1.287-.702 1.11-.292-.06-1.345zM505.42 225.235c-1.035.617-3.623 1.75-4.676 2.043s-1.93 1.463.293 1.287c2.218-.175 4.85-2.223 5.553-2.628.702-.41 1.053-.702 1.638-.643s1.638-.76-.293-1.814-3.1-.526-2.164.293.235 1.11-.35 1.462z" stroke-width=".621" stroke="#000"/><path d="M487.195 195.805c-2.858-1.877-6.12 2.056-2.96 4.212 2.766 1.89 5.69-2.417 2.96-4.212z"/><path d="M483.64 197.515l.846.058c-.176.873.702 2.192 2.047 1.868-1.08.82-3.186-.116-2.893-1.925zM494.71 240.13c.864.252 3.865.558 4.882.608-.508 1.07-.967 1.782-1.273 2.547-.307.76-.456.814-.51-.356-.05-1.175-.71-1.936-1.318-.716-.612 1.224-.918 1.678-1.22 2.187-.306.51-.765.716-.612-.557s.104-2.597.05-3.713z" fill="#fff"/><path d="M607.615 274.465c-.207 73.494-11.804 152.672-106.938 190.386-95.14-37.713-106.736-116.89-106.942-190.385h213.88zM607.615 274.465c.08-27.684-1.458-54.562-.756-78.115-35.55-15.908-82.328-19.18-106.183-19.18-23.86 0-70.636 3.272-106.187 19.18.702 23.553-.832 50.43-.756 78.115h213.88z" stroke="#000" stroke-width="1.2375" fill="none"/></g></svg>