<svg xmlns="http://www.w3.org/2000/svg" height="480" width="640" version="1"><path d="M640.013 480.02V.03H.003v479.99h640.01z" fill="#006"/><path d="M-.057 73.33h76.024L-.057 26.755V.02H43.44l106.348 64.72V.02h59.884v64.72L316.02.02h43.872v26.736l-76.4 46.573h76.4v73.368h-76.4l76.4 46.573v26.747H316.02l-106.348-64.73v64.73h-59.884v-64.73L43.44 220.018H-.057V193.27L75.967 146.7H-.057v-73.37z" fill="#fff"/><path fill="#ce1126" d="M331.59.016L211.446 73.378h28.76L359.884.016H331.59zM359.9 220.017l-119.807-73.322h28.887l90.92 55.842v17.48zM120.312 73.36L-.062-.003v17.52L91.3 73.36h29.012zM120.062 146.673L-.065 219.996H28.68l120.144-73.323h-28.762z"/><path fill="#ce1126" d="M-.057 88.548h162.6V.016h35.19v88.532h162.16v42.96h-162.16v88.506h-35.19V131.51H-.057V88.547z"/><g><path d="M399.67 640.77c-.046 16.332-2.623 33.927-23.764 42.308-21.142-8.38-23.72-25.976-23.765-42.308h47.53z" stroke-width="1.112" fill="#8fc5ff" transform="matrix(4.486 0 0 4.487 -1190.9 -2609)" stroke="#fff"/><path d="M375.9 683.08c9.584-3.8 15.353-9.493 18.8-16.104-.516.02-1.597-.01-2.064-.043-.52-.034-20.27-2.018-22.61-2.876-2.035-.746-9.8.634-13.423 1.93 3.38 7.03 9.237 13.105 19.297 17.093z" fill="#366cc9" transform="matrix(4.486 0 0 4.487 -1190.9 -2609)" stroke-width="1.102" stroke="#000"/><path d="M361.13 672.95c.323-.105.94-.08 1.183-.036.286.052.338.078.442-.234s.338-.234.52-.078.65.078.83-.182c.183-.26.235-.233.417-.052.182.182.26.13.442.078.182-.05.494-.26.65-.545s.39-.39.52-.233.26.234.44.208.235.156.21.39c-.027.233.077.285.52-.078.39.39.518.233.518-.182 0-.416-.103-1.95-.26-2.157s-.31-.806-.337-1.274c-.05-.883-.052-.935-1.118-1.48 0-.313-.078-.443-.83-.39.025-.105-.105-.417-.26-.547s-.183-.182-.105-.545c.312.026.65-.026.832-.286.18-.26.78-.208 1.143-.052s.832.182 1.533.078c.26-.208.702-.442 1.17-.702.467-.26.597-.364.623-.728.067-.933-.26-2-.52-2.494-.26-.494-.337-1.118-.7-1.898-.397-.85-.39-1.065-.833-1.585-.12-.143-.26-.26-.286-.545-.026-.286-.13-.676-.44-.962-.787-.72-1.093-3.04-1.405-4.756-.18-.983-.053-3.3-.468-3.664-.702-.572-1.04-.468-1.508-.65-.338-.468-.493-1.403-.805-2.235-.495.078-.833.598-1.17.78s-.39.182-.39.65c0 .467-.26 1.117-.728 1.845-.468.727-1.248.52-1.897 1.61-1.43-1.74-1.456-2.234-1.56-2.728-.104-.493-.338-.597-1.143-1.3 0-.207-.104-1.038-.026-1.506-.598-.494-1.04-.416-1.325-.052-.285.364-.493.91-.935 1.117-.265.336-1.064 1.186-1.718 2.198.595 9.044 2.636 18.022 8.773 25.202z" fill="#5d3100" transform="matrix(4.486 0 0 4.487 -1190.9 -2609)" stroke-width=".138" stroke="#000"/><path d="M399.67 640.77c.018-6.152-.324-12.125-.168-17.36-7.9-3.534-18.295-4.26-23.596-4.26-5.302 0-15.697.726-23.597 4.26.155 5.235-.186 11.208-.17 17.36h47.53z" stroke-width="1.08" transform="matrix(4.486 0 0 4.487 -1190.9 -2609)" stroke="#fff" fill="#ff0"/><path d="M394.542 298.082c1.166 1.867 3.266 5.075 3.5 6.82.816-1.69 1.457-2.445 1.632-3.495s1.4-3.09.933-4.2-.816-1.983.467-1.166c1.278.817 1.032 2.23.753 4.317-.753 5.712-3.144 6.88-3.494 10.73 3.44 8.102.875 11.02 4.602 18.947.584.35 2.14-.273 2.607-.157 1.978-1.4 3.458-.893 6.253-.31 2.8.584 4.316 2.563 4.316 4.313s0 2.216.584 3.266 1.75 2.683 1.516 3.85c-.233 1.162.234 1.862.583 2.446s-.116 1.866-.466 2.683-.233 1.866 1.166 3.616c1.4 1.747 4.66 9.096 4.66 13.408 0 4.317.234 6.3 1.984 7.112 1.75.817 2.333 1.517 2.1 3.384s.816 11.545 1.05 13.06.816 1.168 1.515 1.984c.696.813 1.162 1.746 3.495 1.746s4.585-.31 6.1-.076c2.1 2.916 3.383 6.878 3.85 9.328s.426 5.793 1.243 5.793 1.633.115 1.4-2.918-.467-3.5-1.517-5.012c-1.05-1.516-1.633-2.216-1.05-3.15s.7-2.45.467-3.616-.583-2.912 1.4-.583c1.982 2.334 2.565 2.917 3.15 3.734s.81 2.333.698 3.733c-.116 1.395.113 1.98.93 1.28.815-.697 1.865.465 1.4 1.982s.115 2.45 1.515 2.916 1.983.816 2.333 1.866 1.516 1.512 1.516-.583c0-2.1-.817-6.534-1.4-7.93-.583-1.4-1.05-4.433-1.166-6.183s-.467-2.212-1.283-2.562-1.516-.933-1.633-1.75-.816-1.108-1.34-1.108-.988-.408-1.28-.992-.583-.64-1.166-.7-1.516.292-1.808-.64-.7-2.276-1.283-3.035-1.108-.99-1.166-3.612c-.06-2.625-.117-2.974-.933-3.908s-2.217-3.378-2.8-4.428c-.578-1.05-1.162-2.1-1.162.116 0 2.212 0 3.38 1.396 4.196 1.4.816 1.75.816 1.166 1.983s0 1.983.233 2.8.7 1.633 0 2.445c-.7.817-1.4.583-1.283-.695.117-1.284-.35-2.8-.928-3.85-.584-1.05-1.05-1.75-1.75-1.167s-1.283-.117-.816-.583.35-.817 0-1.167-.467-.7.116-1.4.583-1.05.233-2.678c-.35-1.634-2.916-9.796-4.083-11.662s-1.05-3.267.467-1.4 2.8 3.5 2.916 5.012c.116 1.516.466 2.45.933 3.033s.816.35 1.05-.933 1.166-.817-.467-3.262c-1.633-2.45-4.665-6.533-5.832-13.88s-1.633-12.244-2.8-14.222c-1.16-1.984-1.51-2.45-1.628-4.317s0-3.732-.816-5.127c-.816-1.4-1.4-1.634-1.516.466-.117 2.095.116 6.76.7 7.578s.233 2.912.116 4.078-1.95 2.32 1.866 4.667c1.517.933 1.28 2.216 1.05 3.033-.233.812-.466.696-1.283-.583-.816-1.284-1.633-2.333-2.45-3.033s-.932-1.167-.816-2.8.467-2.8 0-3.38c-.466-.582-.7-.116-.933.813-.233.933-.466 3.5-.933 4.2s-.7.233-1.05-1.283.118-3.846.934-6.53 1.283-5.482.584-8.977c-.7-3.5-.35-4.55-3.033-7.462-2.678-2.916-5.71-5.716-6.994-9.328-1.282-3.616-1.515-6.766-2.914-8.4-1.396-1.628-3.378-3.728-4.66-4.31v-5.363c0-1.285-.585-2.1-2.1-1.868s-2.45 1.517-3.38 3.262c-.932 1.75-1.632.933-2.915 3.967s-3.148 4.546-3.148 7.812zM402.976 332.273c.933.584 1.826.974 3.225.274s3.074-2.72 4.94-.736c1.862 1.98 2.912 5.247 2.912 7.813 0 2.562 0 7.345 2.916 10.03 2.916 2.677 4.427 5.477 4.544 8.977.117 3.495 1.4 8.862 1.75 10.262.35 1.395 1.166 3.03 2.1 3.962s1.632 3.616 1.748 6.412c.117 2.8-.35 4.783 0 6.183s0 2.565-1.05 1.865-1.282-1.05-1.865-2.216-1.283-.934-.7.815 2.332 3.38 3.85 3.38 1.982.232 2.915 1.166c.928.934 1.045 1.4 2.678 1.4s1.866 0 3.382.467 1.517.234 2.333 0 1.628.467 2.212 1.984 1.982 5.713 1.982 6.88 0 2.332.817 3.5.583 2.332-.35 1.632-.933-.466-1.633-.35-1.165-.233-2.094-.816c-.933-.584-.35-.467-1.283-1.867s-1.516-1.867-1.516-.818-.117 2.334-.817 1.75-1.05-.583-1.633 0-.816 1.05-1.516-.116-1.515-1.167-2.215-1.4-.7-.234-1.045-1.283c-.35-1.05-1.4-1.284-2.333-1.284s-1.4-.467-1.516-1.167c-.116-.696-.7-1.163-1.166-1.512s-.233-1.166-.35-1.983-.816-.466-1.282-.7-.817-.116-.817-1.283-.466-1.517-.816-2.333c-.347-.816 0-1.633.232-2.56.233-.935.117-1.518-.58-2.335-.7-.816-.115-1.633-1.982-3.266s-2.8-.234-3.382-4.08c-.583-3.85-1.75-11.778-2.8-13.06s-1.744-2.218-2.794-2.568-1.75-.117-1.866-2.333c-.117-2.213-.817-5.013-2.216-6.413s-1.983-1.867-2.683-2.45-.934-1.633 0-3.612c.932-1.983.582-4.667.466-5.95-.117-1.28-.467-2.912-.234-4.312s.117-3.15-.233-4.083-.817-1.167-.234-1.867zM431.058 299.114c-1.58 2.033-3.26 3.734-5.437 5.286-2.175 1.557-4.974 2.8-3.422 5.443 1.557 2.643 2.8 2.957 3.11 4.976.313 2.018.78 3.732 2.332 4.2 1.556.46 2.176.15 2.176 3.418s0 4.51 1.4 5.752 1.242 2.486 1.865 5.443c.62 2.952.62 9.328 2.487 13.68s6.065 12.596 5.598 14.305-1.09 2.953.776 4.972c1.867 2.024 3.11 4.976 3.267 6.686.153 1.714.467 2.333 2.328 1.714 1.866-.624 2.8-1.248 3.423-2.024.62-.776 1.862-.62 3.575.31 1.71.933 4.352 1.866 5.904.933 1.557-.934 2.333-2.33 3.732-2.33 2.175-1.557 2.95-4.823 3.418-5.752.466-.934.157-.934-.776-1.867s-.467-2.49-.624-4.042c-.152-1.557-.776-3.885-2.642-7.31-1.862-3.418-2.952-7.618-4.195-8.704-1.24-1.09-1.865-3.733-2.022-4.976-.152-1.243-1.552-2.333-2.485-3.266-.933-.93-1.866-2.33-2.952-7.772-1.09-5.443-1.865-9.328-1.865-10.262s-.157-1.09-1.09-1.4-1.4-1.866-1.086-2.642c.31-.777-.315-1.553-.624-2.486s0-2.643.623-3.576c.618-.934.466-3.576-.158-5.753s-1.242-4.04-3.732-4.356c-2.485-.31-2.952-.928-3.885-2.952-.933-2.02-1.866-5.595-2.176-6.376-.31-.776-.777-.933-2.643.624-1.866 1.552-2.485 2.068-2.485 4.976 0 1.866.31 2.486.928 3.576.624 1.086.78 1.4 1.248 4.352s3.108 7.62-.314 10.262c-3.42 2.643-2.952 3.267-2.795 5.13.15 1.865-.934 3.108-1.558.465-.62-2.64 0-4.194 1.866-5.437 1.866-1.247 3.576-2.8 2.333-4.51-1.246-1.71-1.708-5.752-1.865-7.618s-.467-2.49-1.557-1.09z" fill="#cf6200"/><path d="M403.335 338.735c-.086 1.265.197 2.656.296 3.773.117 1.283.467 3.967-.466 5.95-.933 1.98-.7 3.03 0 3.612.04.03.076.063.112.094 1.902-.637 2.15-2.76 1.638-3.787-.543-1.086-.386-2.41.233-3.495.624-1.09.624-1.71.08-2.49-.547-.777-.547-.777.077-2.953.547-1.917-.834-1.903-1.97-.705zM423.253 368.887c-.35-1.4-1.633-6.766-1.75-10.26-.117-3.5-1.628-6.3-4.544-8.98-2.276-2.095-2.774-5.46-2.88-8.06-1.71-1.044-2.433-.568-2.29 1.374.153 2.097 2.253 3.11 1.943 6.14-.31 3.033-.31 2.257 1.167 3.733s2.018 2.876 1.242 3.5c-.776.62-.857 1.71.233 2.095 1.086.39 1.167 1.557 1.01 2.643-.157 1.09.857 1.325 1.476 2.1.624.777.7 2.644.08 3.734-.622 1.086-.698 2.795.387 1.867 1.09-.933 1.557-.08 2.41 1.396.74 1.274 1.36.875 2.162.49-.28-.59-.504-1.2-.647-1.77zM438.415 396.034c-.7 1.4-1.516.933-2.216.233s-1.517-.7-1.167-1.983.233-1.517-.7-2.217c-.108-.08-.215-.152-.323-.224-.292-.01-.633-.01-1.077-.01-1.633 0-1.75-.466-2.678-1.4-.21-.206-.395-.376-.574-.52-.017.225-.008.52-.008.87 0 1.284 0 1.05-1.283 1.4s-1.05-1.282-1.284-2.332c-.063-.27-.135-.466-.202-.628-1.404-.27-2.884-1.75-3.414-3.333-.583-1.75.117-1.985.7-.818s.817 1.517 1.866 2.216 1.4-.466 1.05-1.866c-.112-.45-.14-.97-.126-1.548-.25-.453-.592-.82-1.04-1.02-1.867-.815-1.283-1.05-1.167-2.565.117-1.513-.233-1.513-1.4-.7-1.166.815-1.282-.118-1.282-2.447 0-2.333-1.516-2.333-1.86-.7-.35 1.634-.934.584-1.634-1.75s-1.633-2.916-1.75-.7c-.098 1.876-.62 2.325-1.84 1.284.217 1.355.405 2.62.558 3.616.583 3.846 1.516 2.446 3.382 4.08s1.283 2.45 1.983 3.266c.694.815.81 1.398.577 2.332-.233.93-.578 1.745-.233 2.562.35.816.817 1.166.817 2.333s.35 1.05.817 1.283c.292.144.67.063.942.18.3-.395.573-.88.923-1.23 1.4-1.4 3.5.117 4.2 1.867s1.51 2.217 2.56.817.7-1.167 1.867.116 1.633 1.05 1.633 1.05 1.166-.466 1.983.234 1.283.583 2.794-1.634c1.517-2.216-.695-1.516-1.395-.116zM442.542 332.05c.462-3.42.153-6.84 1.552-8.087 1.4-1.242 3.11-3.728 2.952 1.557-.152 5.286-.31 4.977-1.395 6.22-1.09 1.242-2.022 1.552-.932 3.576 1.086 2.02 1.243 2.176 1.086 5.285-.153 3.11-.153 4.354 1.09 5.91 1.242 1.553 1.552 1.71 1.866 3.42.31 1.71 1.395 4.043 2.795 5.285s2.956 4.82 3.108 7.31c.158 2.486 2.333 3.11 4.352 4.82 2.023 1.708-.462 2.95-2.02 2.175-1.55-.776-.932 0-1.865 1.086-.933 1.09-1.243 1.247-2.02-.62s-3.42-3.11-4.664-3.576-2.328-2.49-3.418-4.51c-.934-1.735-2.782-3.005-4.468-3.135.466 1.31.717 2.337.583 2.826-.467 1.71-1.09 2.954.776 4.973 1.865 2.024 3.108 4.976 3.265 6.686.152 1.713.466 2.332 2.328 1.713 1.866-.624 2.8-1.248 3.423-2.024.62-.777 1.86-.62 3.575.31 1.71.932 4.352 1.865 5.905.932 1.556-.933 2.332-2.33 3.732-2.33 2.176-1.556 2.952-4.822 3.418-5.75.467-.934.157-.934-.776-1.868s-.467-2.49-.624-4.043c-.153-1.556-.776-3.884-2.643-7.308-1.86-3.42-2.95-7.62-4.194-8.705-1.244-1.09-1.867-3.733-2.024-4.976-.153-1.242-1.552-2.332-2.485-3.265-.933-.93-1.866-2.33-2.95-7.772-.854-4.253-1.513-7.55-1.76-9.238-1.117 1.78-1.88 2.216-2.283.996-.467-1.395-1.09-2.176-1.71-1.242-.623.933-.78-.776-.78-1.553 0-.78-.152-.933-.933-.933-.776 0-.153-1.243-.467-3.576-.31-2.333-.776-2.643-1.085.157-.31 2.795-1.866 4.505-1.243 5.13.618.622.31 1.865-.315 3.732-.62 1.862-.31 2.952.157 4.195s-.31 3.576-.623 5.6c-.31 2.02 1.246 4.038 1.712.62zM414.146 304.14c-1.153.085-1.942 1.095-1.283 4.626.413 2.185-1.243 1.71-1.862.62-.622-1.087-1.09-3.42-2.33-5.444-1.25-2.02-.625 1.4-.778 3.267-.157 1.866 1.086 1.866 2.176 3.418 1.086 1.557.153 2.18-1.09 2.18s-.62 2.487-.31 4.196-.31 2.024-1.247.624c-.927-1.4-.308-3.576-.15-6.22.15-2.642.308-2.023-1.4-2.642-1.71-.624-1.4-.933-.777-2.49.62-1.553 1.243-2.334.467-3.11-.78-.776-.624-1.243.62-1.4 1.24-.152.78-1.086 1.865-1.4 1.09-.31 1.557.157 1.71-1.862.13-1.687.694-2.723 1.96-2.212.762 2.598 1.754 6.64 2.43 7.848zM429.802 322.447c0 3.266 0 4.51 1.4 5.752s1.242 2.485 1.866 5.442c.62 2.952.62 9.328 2.485 13.68.556 1.298 1.324 2.944 2.11 4.658 1.03-.812 1.928-2.207 2.246-2.948.46-1.09-.934-3.266-2.024-5.128-1.086-1.867.157-2.49 1.242-4.824 1.09-2.33-.152-2.486-1.86-3.11-1.715-.62-1.715-2.176-2.648-4.66s-.776-3.577-.152-4.977c.62-1.4.152-2.486-1.09-2.8-1.243-.31-.934-1.243-.467-2.796.467-1.557.777-1.866-1.085-1.4-1.413.35-1.754.615-2.175 1.127.103.448.152 1.072.152 1.983z" fill="#00b800"/><path d="M447.7 328.953c-.17 1.867-.156 2.8-.622 3.42-.462.623-.153 1.556.314 2.49s.776 2.176.31 3.885.31 3.11 1.242 3.576 1.4 0 1.09 2.176c-.314 2.177.933 4.51 2.02 5.443 1.09.933 1.865 2.486 1.708 3.42-.153.933.78 1.866 1.866 2.333 1.09.466.933.623.933 1.242 0 .624.468.624 1.71.934s2.176 1.09 3.576 2.8 3.418 2.642 3.108.776 0-3.11-1.866-4.043c-1.86-.933-3.26-5.443-4.042-8.552-.776-3.11-3.26-7.305-4.66-8.08-.158-2.182.156-3.268-1.243-4.358-1.4-1.086-1.866-2.486-1.866-3.576 0-1.087-.777-2.487-1.4-2.797-.62-.314-.933-1.09-.933-2.023s-1.086-.777-1.243.933z" fill="#5d3100"/><path d="M439.447 412.366c2.795-.233 10.376-2.45 11.188-3.15 1.866 1.284 5.132 3.034 6.532 3.034-2.683.583-4.432.233-5.132-.234.35.817 1.283 2.1 1.866 2.217-2.565-.117-5.477-.7-6.41-1.633-2.216.933-5.948 1.166-8.043-.234zM444.47 415.866c.993.292 5.945 1.108 6.587 1.108-1.633 1.396-.234 2.738 2.507 2.504-1.34.175-2.803.682-1.807.875 2.39.467 8.86-1.283 10.142-1.983-2.217 2.858-12.997 5.483-17.43-2.504zM448.912 422.956c1.337-.7 4.66-.467 6.236.29-1.75.643-5.186.643-6.236-.29z" fill="#00d860"/><path d="M453.892 422.866c2.39-.408 9.15 1.225 11.542-.233-.816 2.158-5.073 2.45-6.53 1.983-1.455-.467-2.854-1.05-3.846-.992.525-.29-.35-.35-1.166-.758z"/><path d="M456.36 426.186c1.807.287 8.276-.525 10.26-1.283 2.094.7 6.234 1.804 7.167 1.687-1.983 1.225-5.773.525-6.993 0-3.5 1.167-6.357 1.517-10.435-.404z" fill="#00d860"/><path d="M459.455 427.263c2.588.583 4.795.166 7.343-.686.794.34 2.665.758 4.423.673 1.172.668 2.747 1.602 4.263 1.718-1.575.642-7.348 0-8.51-.64-2.916.057-7.93.7-9.15 1.69-.06-.816.47-1.952 1.632-2.755z" fill="#00d860"/><path d="M456.36 414.116c2.018.673 9.326.35 13.053-1.4 1.472-.69 2.383.467.7 1.05-6.06 2.1-10.842 2.917-14.337 1.05-1.382-.736-1.516-1.4.583-.7z"/><path d="M492.157 404.2c-8.976 4.195-14.924 5.48-27.396 1.633-1.16-.36-1.98 0-.698.817 1.283.812 8.16 2.68 9.793 2.795s1.05.875.058 1.167-1.283.992.058.467 8.834-.724 11.894.874c1.336.7 1.686.583 1.57.058s.583-.875 1.574-.992 1.575-.466.817-.758-.875-.467-.292-.758.642-.584-.233-.76-1.458-.407-.642-.815c.817-.405 2.042-.7 2.975-.813.233-.642-.175-2.334.524-2.917z" fill="#00d860"/><path d="M477.22 405.277c5.13.363 14.574-1.983 19.59-6.88 1.745 1.047 4.194 2.213 5.477 2.447s2.45 1.4.466 1.4-4.782-.817-6.06-1.4c-6.648 4.083-14.427 5.424-19.357 5.016-1.395-.116-1.745-.7-.117-.583z"/><path d="M462.056 377.278c1.75 1.225 4.84 3.262 8.86 2.97 1.983 1.575 5.074 2.917 6.474 3.21-2.683 1.107-5.6 2.04-6.357 2.915-1.225-1.166-2.795-.99-3.203-1.575-1.166.933-.992 1.517-.233 1.983s6.643 1.46 8.1 1.05 1.85.8.643 1.222c-3.15 1.108-9.268.058-11.368-3.32-2.1-3.384-3.907-4.667-9.618-1.575-.64-1.634-.64-2.042-1.75-2.042s-3.148-1.458-1.574-1.4 6.24-.642 10.026-3.437z" fill="#00d860"/><path d="M463.447 384.77c-.973.244-3.732 1.75-4.72 1.868-.99.117-2.74 1.516-.932 1.575 1.803.058 4.136-1.925 5.42-2.1s1.398-1.633.232-1.342zM469.1 390.694c-.69.12-3.67.817-4.487.758s-1.632.175-1.574.76.29.932-.934.815-2.275.35-2.566.7-.525.7.7.817 1.866.233 3.265-.408 2.74-1.634 4.258-1.692c1.51-.058 3.028-2.042 1.336-1.75z" fill="#00d860"/><path d="M464.927 394.284c1.274.825 7.577 2.975 9.852 2.8s1.847.91.115 1.283c-3.557.754-7.9-.794-10.842-3.15-1.458-1.167-.117-1.575.874-.933z"/><path d="M494.76 397.38c-4.823 1.54-9.735.99-11.718.466s-3.79-.64-2.45.642c1.342 1.28 5.657 2.154 8.102 1.512-8.685 1.983-10.96 1.808-13.112 1.458-2.158-.35-6.21-.273-7.927-.116-1.283.116-3.033-.06-3.79-.525s-.992-1.342 1.282-1.11c2.27.235 2.566-.232.583-.523s-4.723.524-2.04 2.216 8.568-.117 12.3.933c3.728 1.05 11.655 1.81 19.178-4.258.385-.31 1.05-1.162-.41-.695zM471.073 390.29c.175.584.175 1.225 0 1.634s-.175.933.583.35 1.225-1.284 1.983-.875 2.682.35 3.552.232c.88-.117 1.167-.292-.112-.817-1.283-.525-2.566-.7-3.266-.64s-1.574-.118-2.158-.35-.758-.118-.583.465z" fill="#00d860"/><path d="M483.5 392.534c-.992.058-2.74-.584-3.675-.992s-2.27-.466-1.278.875c.987 1.342 5.302 2.1 6.82 1.458s.873-1.34 2.385-.408c1.516.933 3.09 1.575 4.2 1.575s1.515 0 .29-.7-1.807-.875-1.924-1.458-.29-.934.817-.584 2.39.992 3.265.525 2.504-1.516 3.962-1.516l.35-.876c-2.1-.175-3.437.467-4.02.7s-1.633.35-2.74.175-2.567-.293-2.917-.584-.35-.525.583-.7 1.225-.817-.058-.584-4.72.117-6.527-.466c-1.808-.58-2.566-.638-3.324-.35-.76.29-.643 1.108.465 1.166s3.616.292 4.49 1.11.76.873-.232.465-2.8-.175-.934 1.167z" fill="#00d860"/><path d="M498.707 390.425l-.35.875c2.158-.058 7.407.467 9.093 1.516 1.633-1.283 1.342-1.69 2.508-1.458s2.624.642 3.266.292 1.108-.292 1.808-.175c.695.117 2.21-.175 3.086-.7s2.683-1.225 3.732-1.225 2.33-.233.41-.525c-1.926-.292-4.842.292-5.833.642-.987.35-3.96.583-5.71.583s-4.137.875-6.12.35-4.724-.175-5.89-.175z" fill="#00d860"/><path d="M525.713 389.393c-3.495 2.566-7.694 3.15-12.705 3.5-1.458.103-1.01.516.234.64 5.244.526 11.31-1.4 13.287-3.498.573-.606.51-1.61-.817-.642z"/><path d="M501.892 395.36c1.516.06 6.76 1.4 8.452 1.984 1.283-.117 1.633-.408 1.4-.875s-.41-.993 1.924-.876c2.328.117 7.693.058 8.685.058.816-.35 2.62-1.75 3.436-1.808-2.096.117-10.84.583-11.947.467s-1.69 0-2.39.41-1.11.582-1.984.232-2.45-.816-3.32-.29c-.875.524-2.683.057-4.258.7z" fill="#00d860"/><path d="M522.348 395.63c.817-.35 2.62-1.75 3.437-1.808 1.516-.117 3.265.525 4.082.64s1.69-.057 1.108-.7-.058-1.75 2.333-1.457c2.386.292 3.61.7 5.944.467s3.382 1.516 7.81-.234c-.35 1.75.466 1.867 1.283 1.517s1.75-.233 3.15.817 9.908 1.166 11.89.816c1.98-.35 3.03.7 1.513 1.167-1.512.466-1.866 1.166-1.512 1.633.346.462.696 1.045-1.166.812-1.866-.233-2.216.35-3.15 1.05s-1.166.933-3.732.467c-2.56-.467-3.028-.117-4.427.116s-1.75.234-3.15-.233-4.426-.933-6.292-.35-3.266 1.167-4.9.7-1.75-.233-.7-1.283 1.284-.933 3.267-1.167c1.983-.23 3.5-.812 2.1-1.63s-1.867-.7-3.733.235-2.8 1.512-4.894.35c-2.1-1.167-3.15-.934-4.55-.584s-3.727-.465-5.71-1.34zM529.346 399.13c-2.67.38-3.387-1.337-6.177-.987-.934.116-2.508 1.278-.35 1.103 2.153-.175 4.485.992 6.585.817s1.166-1.108-.06-.933zM526.25 401.15c1.405-.513 4.317.465 5.54.232s2.392.525 1.11.933-4.375-.758-5.774-.35-2.795-.116-.875-.816zM498.393 408.687c1.925.063 8.86-.233 11.6-6.062.212-.45.41-.642 1.284-.058s4.082 2.508 10.084 3.033c1.684.148 3.5.992.118.758s-8.743-1.166-10.55-2.275c-3.034 4.78-8.48 5.344-12.535 5.246-2.445-.06-1.862-.7 0-.643z" fill="#00d860"/><path d="M513.376 400.745c-.933 1.283-4.14 3.5-5.598 3.617-1.454.116-5.828-.292-6.936-.7s-2.45-.292-.874.816 5.48 1.867 7.052 1.517c1.574-.35 3.382-.875 4.607-.117s3.5 2.212 4.836 1.92c1.34-.287 4.082-.287 4.957.117.874.41 2.39 1.633.116.934s-4.14-.118-5.19-.585c1.166 1.633 3.813 4.258 6.065 4.258.526 0 .876.934-.232 1.46 1.108.524 3.67.932 5.01-.293-.35.467-.174.758.41 1.05s1.282.7.232.817-3.436.408-4.136.116c2.27 1.454 8.16 3.787 14.162 2.62 1.144-.22 1.75-.695-.116-.64-3.85.116-4.078.057-4.778-.346-.7-.413-.583-.76.525-1.11 1.104-.35 3.903-.757 5.07-.757s2.332-.467-.06-.467-5.302 0-6.468-.408-2.042-.933-.817-1.75 2.507-.583 3.09-1.342c-3.85-.058-8.572-2.1-5.948-3.962.61-.434.408-.465-.583-.582s-3.903-.933-5.128-1.633-.408-1.283.584-1.458c-2.275.408-6.824-.817-9.852-3.092zM547.56 400.655c-2.1 1.575-6.06 2.217-7.752 2.217s-1.925.583-.583.758 2.8.35 3.382.175.933-.233 1.803.175c.875.408 2.74.642 4.374.117s4.31-.76 5.42-.7 2.332.116.116-.525c-2.212-.642-5.827-.175-6.702.058s-3.266.058-1.983-.35 2.39-1.05 3.033-1.575c-.467-.116-.76-.233-1.108-.35zM546.483 405.187c-1.808 1.342-4.428 2.62-7.11 2.737 2.45.875 4.49 3.383 6.06 3.267-.758.467-1.687 1.167-2.678 1.284 1.516.408 4.078-.058 6.177-1.225 3.5.99 8.044.35 9.56-.934-2.274 0-5.01-.817-6.236-1.867 1.108 0 2.154-.7 2.68-1.338-2.62.462-7.112-.817-8.453-1.925z" fill="#00d860"/><path d="M542.76 412.5c.99-.116 1.92-.816 2.678-1.282-1.92.64-10.318-.7-12.82-2.917-2.51-2.21-2.51-.524-.76 1.05s4.836 3.968 10.902 3.15zM548.905 417.84c-1.05.584-6.06.934-7.693.584s-2.333-.175-1.925.466.584 1.225-.758 1.05-3.733.117-4.72.467c-.99.35-2.216 1.225-.117.875 2.095-.35 4.02-.758 5.594-.35s7.17.525 8.277.058.35-.466-.175-.466-.76-.35 0-.7 1.34-1.342 1.515-1.984zM500.412 411.065c-2.1.933-9.093 2.8-10.96 2.917-2.332 1.05-4.194 1.633-5.36 1.633.816.7 3.96 1.395 5.244 1.05-.7.695-2.328 1.512-2.912 1.862 1.862-.233 4.078.233 5.01.35-2.448 1.4-5.826 1.867-7.576 1.633.584.817 1.4 1.633 2.45 1.633-2.216.584-4.9.584-6.3.117.585 1.167 1.168 1.867 1.984 1.983-1.866.234-4.2.584-6.177-.583 1.512 1.983 4.894 2.68 9.91 2.1 5.01-.583 9.21-2.8 10.376-3.733-2.1.233-4.898.35-6.298.116 2.8-.7 8.86-3.266 9.91-4.316-1.166 0-2.328-.35-3.15-.933 1.634.233 7.35-.462 9.098-1.162-2.1-.467-3.382-1.75-3.965-2.567 7.343 2.333 15.517 1.57 19.47.583.932-.233 1.044-1.418-.817-1.283-3.266.233-9.56-.7-11.193-1.517 1.516 1.167 3.382 1.867 4.665 2.1-3.032.817-7.227 1.4-13.408-1.983z" fill="#00d860"/><path d="M486.415 418.558c.584-.35 2.212-1.166 2.912-1.862-1.283.346-4.428-.35-5.244-1.05 1.166 0 3.028-.583 5.36-1.633-4.194-.117-7.11-.117-8.626-.933s-4.31-.584-5.36-.35-.7 1.983 3.727 1.516c-1.866 1.284-6.877 1.75-8.743 1.284.467 1.512.817 3.028.35 3.845 2.45 1.4 8.86 3.15 12.01 2.917-2.8-1.05-4.316-2.217-1.983-2.45s3.616-.7 5.598-1.284z" fill="#00d860"/><path d="M479.193 426.14c5.58-.465 13.054-.564 19.003-5.598 1.516-1.284 2.534-.853 1.05.466-3.145 2.8-10.96 6.646-18.42 6.762-3.037.05-4.428-1.4-1.633-1.63z"/><path d="M521.002 416.898c-1.4.525-5.306 1.167-6.468.992-1.167-.175-2.858-.234-3.79.35s-.992.933.29 1.05 2.916.233 3.733.175c-1.05.583-1.75 1.4-1.983 1.75 1.866-.467 5.303.35 6.294.933-.758.233-1.633-.058-2.274-.408 3.15 3.325 12.475 3.325 13.99 2.74-.698.526-1.34 1.05-2.04 1.226 2.625.467 5.653.408 8.627-1.34-.99.174-3.96-.118-4.718-.176.583-.584 1.453-1.11 2.27-1.342-1.162-.233-4.836-.117-5.71.35.35-.7.99-1.575 1.69-1.867-4.607 0-10.2-.057-12.242-1.165 3.266.35 6.88-1.575 8.393-1.575-2.56-.06-5.36-.642-6.06-1.692zM509.294 419.456c-2.274.466-5.71 1.4-6.644 1.925s-1.924.817.117.817 7.577.234 8.8.41c-3.09-.468-7.284-.585-8.1-.585s-1.75-.058-.234-.525 3.5-1.516 6.06-2.04zM504.673 424.885c.812 0 4.37 0 5.77-1.225 1.457 1.108 4.257 2.68 6.06 2.68 1.808 0 1.633.465.058.64-1.57.175-4.66-.753-6.234-1.92-2.1.758-3.845.117-5.653-.175zM477.668 440.59c3.61 1.4 8.393 2.45 11.888 1.283 1.982 1.75 6.065 1.866 8.276 1.4 2.216-.467 4.2-.7 6.65.116 2.443.816 7.46.874 8.858 2.037-1.283.062-4.024 0-4.665.18-.642.17-.292.578.875 1.22-3.96-.234-10.785 1.458-12.88 3.266.754-1.808 3.087-4.258 6.76-4.258-2.1-.754-8.8-.812-10.96.525-.64-.7-1.398-1.862-1.456-2.33-3.553 2.038-10.552-.874-13.346-3.44zM468.427 434.04c4.302-.616 7.23-1.985 8.514-3.268.76.7 3.904 1.4 7.345.35-.7.525-.76 1.517-.467 2.042-2.274.058-6.59 1.166-8.043 1.924-1.458.754-5.716 1.28-7.11.52-1.4-.753-1.46-1.394-.238-1.57z" fill="#00d860"/><path d="M483.814 433.186c-2.275.058-6.59 1.167-8.044 1.925.292.584.467 1.513.525 2.155 4.194-1.517 13.812-2.446 17.486-1.862-1.748.116-5.072 1.92-6.934 2.153 4.544-.35 8.977.584 10.138.875 1.167.293 1.4 1.168.525 1.985s-1.28.933.582.99c1.867.06 5.716-.174 7.465-1.865-.7-.76-2.508-.467-3.032-.992 1.224-.408 2.624-1.283 3.15-1.925-3.15-.058-4.317-.117-5.366-.35-1.05-.23-1.81-.525-.526-1.22 1.283-.7 1.866-1.284 2.274-1.75-2.274.64-5.827 1.166-8.8-1.167 1.107.292 3.726.117 4.66-.292-.992-.525-1.804-.933-2.62-.933 2.386-1.166 7.11-2.215 12.937.118 2.916-.234 6.065-.117 8.277.466.933-.933 2.916-3.15 3.966-3.733-6.877.585-19.236-.7-19.003-4.31-2.216 2.91-7.344 4.545-9.56 4.078-.233 1.05.7 2.333 1.517 3.033-2.333.468-6.3.818-8.16.468 1.05 1.05 3.028 1.983 4.194 1.866-2.445 0-3.728.467-5.652.292z" fill="#00d860"/><path d="M498.08 441.397c1.865.06 5.714-.175 7.464-1.866-.7-.758-2.508-.466-3.033-.99 1.226-.41 2.625-1.284 3.15-1.926 4.895-.404 9.268-.17 11.363-.812 2.1-.642 7.465-.292 8.515-.583-4.666.752-5.6 1.16-5.832 1.92s1.516 1.4 2.624 1.4c-2.1-.118-4.723 2.1-4.957 2.974-2.794-1.633-4.136.292-4.427.933-1.167-.466-5.016-.35-7 1.342-2.56-.76-4.25-1.168-6.817-.76 1.573-.35 1.282-1.4-1.05-1.633zM520.464 427.757c1.575-.06 5.01.116 6.236-.06-.817.41-1.862 1.168-2.095 1.518 3.96-.467 9.38-.758 10.955-.525-1.92-.292-3.903.933-4.895 1.575s-.408 1.05.933 1.225 3.15 1.225.7.875-7.285-.35-8.45-.175-1.81-.408-.118-.642 2.853-.816 3.67-1.283c-1.4.35-4.078.35-4.895.117s-1.34-.7-.408-.934.292-.583-.7-.466-3.5 1.166-4.898 2.508c1.515-1.575 2.856-2.975 3.964-3.733z" fill="#00d860"/><path d="M502.7 430.404c1.924 2.158 4.194 3.383 7.81 3.5.758.022 2.17 1.04.35 1.108-4.9.175-7.344-.99-9.502-4.14-.444-.647.377-1.55 1.342-.468zM531.903 389.617c2.575 1.216 7.752 2.275 11.776 2.1.7-.03 2.108.718.345.875-4.545.408-8.627-.23-12.413-2.333-1.05-.584-.7-1.11.29-.643z"/><path d="M534.505 389.572c3.96-.116 6.936-.058 8.16 1.11 2.27-.7 6.353-1.11 7.286-.935s1.983-.233-.174-.758c-2.158-.52-7.17-.696-8.744-.405-1.574.287-6.473.462-8.1.287.7.117 1.16.234 1.573.7zM549.892 391.143c1.866-.992 7.227-.06 8.86-.758-1.166 1.4 3.733 1.516 7.985.408-1.633 1.05-5.127 1.225-6.644 1.866s-2.332.174-3.5-.35-4.135-1.576-6.7-1.167z" fill="#00d860"/><path d="M566.76 390.784c-4.253 1.108-9.152.99-7.985-.408-1.633.7-6.994-.234-8.86.758 1.924-1.167 3.382-.233 4.777-2.625.875.178 2.916.295 3.616-.638 1.225.29 3.382.816 4.024 1.454.64.64 1.628-.175.812-1.163 1.924-.7.704.83 5.19-.29.933-.235 3.208-.643 3.966-.7-1.516 1.224-3.324 2.56-5.54 3.61z" fill="#00d860"/><path d="M373.36 664.19c-.017-1.966-.207-18.422-.207-22.226 0-.91-.468-.728-.468 0v22.122c.215.04.505.078.675.104zM380.59 640.77l.812 23.46-.142.19-.47.006-.514-23.656h.314zM387.43 660.58c-.066-2.39-.366-13.448-.482-18.9-.015-.727-.448-.6-.44.026.046 4.39.307 16.672.355 18.887.17 0 .463-.017.567-.013z" transform="matrix(4.486 0 0 4.487 -1190.9 -2609)" stroke-width=".138" stroke="#000" fill="#ff0"/><path d="M376.6 644.67l-6.913-.104c-.39 1.403 1.352 1.377 2.002 1.013.752.57 1.324.52 1.74.05.598.495 1.35.365 1.663.053.832.624 1.69 0 1.507-1.013zM377.12 648.15l-7.07-.026c-1.22 1.17.365 1.74 1.717.935.182.39 1.013.623 1.663.31.598.47 1.35.13 1.74-.26.73.34 1.586.443 1.95-.96zM376.92 652.57l-6.81-.052c-.13 1.22 1.25 1.065 1.794.754.52.805 1.664.623 2.106.155.65.442 1.247.338 1.585-.078.754.65 1.377-.182 1.325-.78zM377.26 656.99l-7.614-.13c-.416 1.3.753 1.533 1.3 1.22.18.755 1.194.495 1.454-.05.39.39.884.18 1.118-.08.104.703.987.73 1.663.13 1.378.963 2.678-.155 2.08-1.09zM384.01 655.17l-6.34-.052c.285 1.3.908 1.637 1.922.883.754.78 2 .495 2.313.105 1.377 1.118 2.13-.182 2.105-.935zM383.36 650.83l-6.133-.182c.104 1.56 1.585 1.507 2.34.83.57.73 1.584.52 1.948 0 .78.78 2.053.313 1.845-.648zM384.17 645.94h-6.6c.077 1.09 1.532 1.715 2.65.676.31 1.247 1.507.857 2.027.363.753.96 2.494-.13 1.923-1.04zM383.78 642.62l-5.9.078c-.103.96 1.3 1.377 1.82.597.286.494 1.273.442 1.56-.026.467.727 1.04.233 1.22 0 .676.493 1.404.26 1.3-.65zM390.69 644.77l-7.225-.078c-.026.753.754 1.065 1.22.753 0 .728 1.015.962 1.665.39.442.624 1.74.806 2.26-.052 1.066.884 2.21.26 2.08-1.013zM390.59 650.7l-7.07-.026c.053.987 1.196 1.325 1.846.805.156.83 1.04.883 1.56.467.623.702 1.663.754 2.234-.026.858.313 1.508-.415 1.43-1.22zM390.22 656.03l-5.588-.078c0 .988 1.17 1.118 1.69.598.545.65 1.377.65 1.845.13.753.65 1.897.468 2.053-.65z" fill="#fff" transform="matrix(4.486 0 0 4.487 -1190.9 -2609)" stroke-width=".138" stroke="#000"/><path d="M381.26 664.42c-3.014.052-6.08.052-8.16-.26s-2.734-.604-4.158-1.455c-2.13-1.273-2.65-1.585-5.665-3.352-.462-.27-.963.065-.312.493 3.04 2 4.192 2.743 5.64 3.69 1.506.988 2.478 1.865 3.403 2.91 1.196 1.353 2.08 1.38 2.625 1.17s1.404-.493 2.26-.285c.86.21 2.002.235 2.6.13.546.495 1.793.39 2.495.235.7-.156 1.22-.234 1.715-.13s1.247.026 1.74-.052 1.794-.208 2.704-.078c.91.13 1.845.052 2.443-.13.597-.182 1.69-.13 2.053-.026.52-.39.78-.885.91-1.404.61-.078.813-.154.948-.507.248-.65.48-1.288.56-1.573h.246l.078-.585-.506-.585.182-1.117.545-.13c.026-.338-.13-.858-.234-1.066-3.273.13-6.483.234-8.782.286-.26.208-.546.754-.598 1.092-1.403.233-2.235.337-2.6.415s-.566.107-.856.494c-.468.625-.91 1.352-1.274 1.82z" transform="matrix(4.486 0 0 4.487 -1190.9 -2609)" stroke-width=".138" stroke="#000"/><path d="M391.78 660.45c.16-.55.584-2.035 1.354-4.84.13-.468-.325-.653-.493-.052-.915 3.275-1.26 4.503-1.377 4.912.176-.003.428-.022.517-.02z" transform="matrix(4.486 0 0 4.487 -1190.9 -2609)" stroke-width=".138" stroke="#000"/><path d="M396.85 654.96c-1.105.57-1.638.792-2.144.597-.466-.18-1.15-.28-1.552-.083 0 .042-.007.087-.02.135-.475 1.726-.818 2.95-1.05 3.767.82.29 2.228.328 2.557-.025.338-.364 1.26-.286 1.73-.26.298-.39.415-.87.337-1.105s-.052-.65.065-.974.273-1.378.078-2.053z" transform="matrix(4.486 0 0 4.487 -1190.9 -2609)" stroke-width=".138" stroke="#000" fill="#fff"/><path d="M371.69 645.58c-1.222 3.534-5.458 11.46-8.014 14.014M365.64 660.75c2.9-2.244 10.236-9.528 11.483-12.594M370.11 652.52c-.337 2.677-1.11 7.452-1.526 9.973M371.24 658.48c-.987.962-2.387 2.64-3.427 3.55M380.54 653.14c-.83.805-1.78 1.744-2.61 1.978M381.02 653.27c.73.78 1.77 1.66 2.628 1.893M380.45 648.96c-.753.65-1.87 1.413-2.884 1.7M380.88 649.11c.65.546 1.342 1.342 2.173 1.706M377.72 645.94c.805-.234 2.004-.858 2.628-1.507M380.71 644.31c.705.805 2.056 1.455 2.732 1.637M377.88 642.7c.83-.182 1.86-.624 2.407-1.404M380.6 641.08c.7.598 1.933 1.462 2.738 1.54M386.53 643.41c-.45.468-1.556 1.31-2.257 1.296M386.99 643.37c.325.52 1.144 1.316 1.612 1.38M383.8 650.67c.91-.312 2.183-1.056 2.82-1.823M387.12 648.91c.266.48 1.28 1.565 1.852 1.786M384.88 655.95c.416-.09 1.547-.652 1.858-1.315M387.26 654.27c.43.533 1.48 1.507 2.13 1.74M370.58 656.87c1.273-.403 3.846-1.965 5.12-3.447M373.26 655.3c1.065.753 2.303 1.507 3.25 1.676M370.34 652.52c.702-.3 1.624-.81 2.34-1.55M373.22 650.87c.286.402 2.388 1.686 3.284 1.7M372.68 646.72c-.546.44-1.858 1.234-2.495 1.403M373.18 646.75c.728.506 2.167 1.4 3.154 1.4M372.68 642.66c-.585.662-1.572 1.685-2.39 1.92M373.15 642.81c.455.728 1.673 1.712 2.466 1.842M383.67 647.18c1.822 3.36 5.2 7.465 8.618 9.622M378.2 643.46c2.767 3.976 8.2 12.695 13.367 15.914M392.52 655.97c-.832 1.157-2.326 2.963-4.795 4.607M392.21 657.07c-1.74-2.78-2.64-6.295-3.943-10.924M374.47 664.1h1.7M375.95 663.46h-1.602M375.77 662.96h-1.546M375.59 662.46h-1.475M375.39 661.92h-1.404M373.89 661.44h1.332M373.79 661h1.264M373.68 660.52h1.202M373.59 660.09h1.134M373.49 659.65h1.078M373.4 659.24h1.02M373.3 658.86h.99M373.24 658.54h.923M372.68 663.63h-1.923M372.68 663.1h-2.225M372.68 662.55h-2.095M372.68 662.03h-1.965M372.68 661.5h-1.838M372.68 660.91h-1.692M372.68 660.4h-1.57M372.68 659.88h-1.436M372.68 659.38h-1.316M372.68 658.94h-1.212M372.68 658.59h-1.12M372.68 664.09v-5.88M377.8 664.06h-2.534M378 663.32h-2.36M378.11 662.72h-2.17M378.32 662.07h-2.053M378.42 661.55h-1.897M378.6 660.95h-1.787M378.78 660.25h-1.618M378.92 659.72h-1.488M379.07 659.11h-1.348M379.18 658.7h-1.247M379.28 658.31h-1.143M379.38 657.91h-1.053M379.47 657.56h-.968M379.56 657.21h-.887M379.66 656.85h-.8M379.74 656.52h-.72M386.11 661.31h-2.192M385.73 660.65h-2.02M385.36 659.99h-1.85M384.98 659.32h-1.688M384.61 658.66h-1.53M384.23 658h-1.36M383.86 657.34h-1.194M383.48 656.67h-1.032M384.22 661.41h1.73M384.44 660.76h1.65M384.65 660.12h1.572M384.86 659.48h1.49M385.08 658.83h1.41M385.3 658.19h1.33M385.51 657.55h1.248M385.72 656.9h1.027M390.06 660.2h-1.638M389.87 659.68h-1.556M389.68 659.16h-1.49M389.49 658.64h-1.43M389.29 658.12h-1.358M389.1 657.6h-1.284M388.91 657.08h-1.218" transform="matrix(4.486 0 0 4.487 -1190.9 -2609)" stroke-width=".138" stroke="#000" fill="none"/><path d="M479.552 380.51c3.616-2.33 9.793-1.863 12.942.465 3.732-2.095 10.493-1.516 13.642 1.284 4.777-3.263 8.86-3.73 13.52-.585 3.616-2.562 9.21-2.795 13.526.234 4.194-1.985 8.86-3.613 12.938.7-2.445-1.75-7.694-3.268-12.938.815-4.082-4.083-11.193-2.566-13.525.233-3.033-3.616-9.443-4.2-13.292.234-4.195-3.5-10.49-3.617-13.87-.933-2.684-2.1-6.645-3.847-12.943-2.45z" fill="#00b800"/><path d="M543.253 375.528c-18.536 3.204-58.933.933-67.792-1.283-3.045-.763-2.215-1.867.35-1.284 10.21 2.32 32 2.335 44.008 1.75 2.333-3.09 6.002-8.335 7.11-9.794s1.597-1.593 3.908-1.983c4.136-.7 6.5-1.077 10.084-1.692.06.468.06 1.05.06 1.4-.293.235-.585.643-.818.76 0 2.39.467 8.22.933 10.32.467-.06 1.05-.234 1.342-.292.816-.233 1.628 1.867.816 2.1zM573.623 376.425c.67-.017 2.064-.05 2.45-.058.758-.018 1.82-.538 2.287-1.705s1.91-5.48 2.436-7.287l-1.866-2.813c.408-2.32.933-5.465.992-6.107.933-.35 1.92-.7 2.386-.875.117-.525-.112-1.952-.583-2.418-7.985.305-31.882 1.135-36.256 1.193-1.05 0-1.522-.045-1.92 1.458-2.217 8.28.847 19.896 9.21 26.586.582.465 1.318.075.344-.818-1.395-1.283-3.553-3.908-5.01-6.5 1.632-.028 4.943-.082 5.934-.123.476 1.96 1.965 6.097 2.257 6.797s1.01.8.668-.247c-.803-2.45-1.224-5.24-1.574-6.582 1.515-.036 4.373-.01 6.122-.108.085 2.217.32 5.187.377 6.004s.757.875.77-.058c.018-.934.036-4.878.023-6.04 1.974-.054 4.495-.14 5.428-.14-.13 1.262-.37 5.34-.46 5.987-.136.95.362 1.4.596.058s.7-4.477.83-6.065c.79-.023 2.866-.108 3.74-.13-.084 1.242-1.25 5.02-1.6 6.012s.215 1.023.61.085c.412-.96 1.69-4.75 1.807-6.107z" fill="#cf6200"/><path d="M547.156 375.483c-.642-1.283-2.624-5.846-2.8-9.167 1.692-.03 5.922-.112 7.963-.157.3 2.503 1.07 7.896 1.48 9.175-2.387.058-5.303.135-6.644.148zM553.705 366.105c.22 1.912 1.22 8.476 1.382 9.235 1.732-.104 5.742-.117 6.437-.175-.07-1.75-.354-8.315-.385-9.248-1.814.05-6.524.166-7.435.188zM544.69 357.984c-.324 1.678-.383 5.263-.293 6.793 2.04.04 7.065-.08 7.76-.14-.17-1.74-.443-4.89-.618-6.855-1.666.072-5.743.17-6.85.202zM553.032 357.76c.06 1.633.422 5.626.54 6.847 1.762-.05 6.077-.14 7.535-.19-.076-1.493-.314-6.307-.34-6.89-2.342.062-6.25.21-7.735.233zM562.274 357.49c.07 1.517.264 5.798.206 6.906 1.87-.05 5.446-.085 6.554-.175.085-1.52.332-5.868.215-6.976-2.1.08-5.447.192-6.976.246zM570.528 357.176c0 1.284-.162 5.793-.22 7.018 1.853-.072 6.06-.22 7.155-.247.292-1.503.875-5.407 1.05-7.053-1.75.058-6.707.246-7.985.282zM577.75 365.477c-2.39.076-6.235.18-7.536.23-.202 2.95-.57 8.053-.745 9.22 2.103-.045 6.356-.18 7.29-.207.7-1.4 2.215-5.77 2.565-7.112-.525-.816-.933-1.283-1.575-2.13zM562.543 365.88c0 1.05.184 8.567.23 9.208 1.367-.045 4.92-.094 5.445-.152.264-2.926.664-8.53.735-9.23-2.422.067-4.8.14-6.41.175zM531.59 364.086l-3.038.54c-1.4 2.26-6.585 9.255-7.227 10.072 3.612-.103 9.26-.21 10.62-.34-.1-1.877-.35-9.343-.356-10.272zM532.935 363.817c.072 2.392.3 8.763.36 10.455 1.79-.104 5.086-.32 6.428-.436-.31-3.006-.875-10.185-.992-11.06-1.502.274-4.453.794-5.795 1.04z"/><path d="M377.29 656.93c.09 0 .103.08 0 .078l-7.68-.095c-.103 0-.09-.08.002-.078l7.678.095zM383.33 650.78c.09.003.102.08-.002.078l-6.083-.167c-.104-.002-.09-.08.002-.077l6.083.167zM376.91 652.54c.09 0 .103.08 0 .078l-6.81-.05c-.103 0-.09-.078 0-.078l6.81.05zM377.11 648.12c.09 0 .104.078 0 .078l-7.12-.037c-.105 0-.09-.077 0-.076l7.12.036zM376.62 644.63c.09 0 .102.08 0 .078l-6.92-.104c-.104-.002-.09-.08 0-.078l6.92.104z" transform="matrix(4.486 0 0 4.487 -1190.9 -2609)" stroke-width=".138" stroke="#000"/><path d="M383.78 642.59c.09 0 .105.077 0 .078l-5.937.057c-.104 0-.092-.077 0-.078l5.937-.057z" fill="#fff" transform="matrix(4.486 0 0 4.487 -1190.9 -2609)" stroke-width=".138" stroke="#000"/><path d="M384.15 645.91c.09 0 .104.078 0 .078h-6.562c-.104 0-.09-.078 0-.078h6.562zM390.59 650.64c.09 0 .104.078 0 .078h-7.072c-.104 0-.09-.078 0-.078h7.072zM390.69 644.73c.09 0 .103.08 0 .078l-7.226-.07c-.104-.002-.09-.08 0-.08l7.226.072zM384.01 655.12c.09 0 .103.08 0 .078l-6.357-.042c-.104 0-.09-.08 0-.078l6.357.042zM390.22 655.98c.09 0 .103.08 0 .078l-5.588-.074c-.104 0-.09-.08.002-.078l5.586.074z" transform="matrix(4.486 0 0 4.487 -1190.9 -2609)" stroke-width=".138" stroke="#000"/><path d="M395.26 657.05c.157-.35.18-1.15.09-1.455-.243.05-.448.038-.648-.04-.105-.04-.22-.076-.34-.106-.023.4-.17 1.425-.35 1.82-.313.09-.946-.014-1.306-.127l-.262.942c.447.103 1.008.094 1.452-.01-.035.602-.114 1.15-.44 1.527.532.012 1.007-.066 1.18-.252.017-.018.035-.033.054-.048.245-.41.252-.944.31-1.304.182.013.416-.04.52-.143s.273-.156.442-.143c.154.012.394-.02.7-.143.007-.185.043-.385.106-.56.034-.094.07-.252.102-.443-.387.185-1.25.494-1.61.483z" transform="matrix(4.486 0 0 4.487 -1190.9 -2609)" stroke-width=".138" stroke="#000" fill="#ef072d"/><path d="M370.46 623.2c-.79.023-2.513.04-2.875.242-.36.204-.52.294.113.407s1.704.413 2.29.775c.588.36 1.08 1 .918 1.914-.485 2.742.95 5.38 3.027 6.375.2.096.25.17.204.542s-.18.995-.294 1.153c-.113.16-.17.42.192.294-.248.464-.802 1.39-.97 1.628-1.662-.203-3.017.023-3.142 1.763-.012.17.046.44.305.012.26-.43.554-.837 1.265-.95-.418.644-.553 1.22-.485 1.594.067.374.17.6.35.125.18-.474.514-.918.87-1.187.135-.1.226-.124.124.17s.045.927.25 1.142c.202.214.304.124.247-.226-.057-.35.03-1.084.462-1.312.62-.327 1.152-.158 1.4.272.25.43.464.022.193-.464s-.554-.825-1.006-.86c.395-.7.858-1.548.96-1.717.1-.17.26-.25.395-.147.136.102.226.09.362-.192.135-.283.372-1.12.71-1.458.17-.046.442-.113.543-.204.44.644.836 1.357.938 1.515.1.158.215.226.113.554s-.45 1.37-.507 1.595c-1.232.045-1.796.067-2.192.757-.172.3.103.418.397.26.293-.158.71-.294.926-.26.214.034.315.144.1.25-.755.372-1.228.846-1.196 1.502.01.237.11.355.294.034.26-.452.735-.904 1.31-1.03-.033.555.092 1.37.43 1.54.34.168.363-.004.237-.33-.203-.52.008-1.042.26-1.322.53-.588 1.74.226 1.966.43.226.203.432.288.305-.238-.17-.7-1.164-1.107-2.01-1.22.236-1.142.87-3.448 1.208-4.24.497.272.885-.443 1.717-.135 1.4.52 3.5 1.83 3.863 2.125.36.294.497.226.678.068.18-.158.497 0 .745.045.248.046.474.114.157-.52-.316-.632-1.084-1.74-2.372-2.6.768.07 1.808.07 1.808-.134 0-.204-1.198-.588-1.695-.633.475-.113 1.198-.385 1.536-.77.2-.226-.04-.28-.745-.293-2.17-.045-3.254-.028-4.384-.678-1.807-1.04-2.84-2.135-3.728-2.6-.474-.25-.763-.823-.946-1.32-.587-1.582-.558-2.294-1.936-2.814s-2.963.117-3.686.772z" transform="matrix(4.486 0 0 4.487 -1190.9 -2609)" stroke-width=".138" stroke="#000"/><path d="M370.55 623.56c-.35-.013-1.04-.096-1.61-.04-.13.014-.287.08.025.118s1.156.246 1.455.35.17.26-.09.195-.357.03-.144.182c1.105.78 1.222 1.08.936 3.755.208.143.377.247.56.338s.13.22-.066.17-.377.064-.065.13.455.207.157.194c-.3-.013-.65.247-.065.182.584-.065.818.208.13.22-.69.014-.43.235-.065.235.65 0 .454.18.286.18-.17 0-.247.222.182.183.428-.04.597-.052.753-.026s.22.155-.013.17c-.234.01-.22.18.13.18s.497.106.182.17c-.13.025-.31.09.065.142.65.09.676.246.468.272s-.234.143.065.17c.298.025.558.116.312.18-.247.066-.377.21-.066.235.313.026.573.143.34.22s-.287.222.012.21.416.155.208.27c-.208.118-.35.196-.48-.01-.13-.21-.208-.274-.247-.118-.04.154-.13.05-.234-.183s-.287-.3-.235-.117-.182.208-.403.117c.82.83 2.027 1.585 3.95.805.164-.066.195 0 .325.273s.494.87.624 1.092.234.022.3-.195c.26-.858.454-1.495.532-1.728.078-.234.442-.468.325.35.286-.195 1.553-.38 2.534-.013 1.08.404 2.163 1.03 2.717 1.444.104.078.234.17.493.143.26-.026.325-.065-.17-.52-.492-.455-.284-.676.027-.455.312.22.48.09.247-.182s-.792-.805-.974-.935-.208-.182-.624-.208-1.3-.026-1.56-.026-.337.027.235.235c.572.207 1.742.96 2.002 1.143s.442.598-.13.234-2.365-1.48-3.56-1.897c-2.73.182-4.886.546-6.497-1.22-.772-.847-.806-2.782.493-3.588-.26-.22-.22-.35-.117-.403s.144-.104.04-.234c-.103-.13-.09-.246 0-.298-.285-.156-.415-.338-.402-.533-.35-.08-.507-.495-.975-.365s-.702.026-.844-.09c-.145-.118-.26-.17-.52-.144s-.47-.077-.482-.207.22-.193.572-.04c.74.326 1.338.482 1.793-.13.455-.61-.13-1.18-1-1.35-.87-.17-1.508.468-1.833.767z" transform="matrix(4.486 0 0 4.487 -1190.9 -2609)" stroke-width=".138" stroke="#000" fill="#fff"/><path d="M374.92 623.33c-.262-.284-.728-.546-.96-.624-.235-.078-.26.156-.13.273-.105.155-.144.532.038.636s.184.252.013.337c-.26.13-.17.82.22.624.13-.065.235-.04.21.065s.025.234.142.26.104.195.078.26.013.09.143.104.143.325-.09.43c.285 0 .363-.053.44.18.08.234.39.286.39.572s-.05.338-.39.286-.467.052-.57.182-.13.26.13.273.31.13.05.246-.687.04-.752.286c-.064.246 0 .363.195.272.195-.09.598-.26.754-.35s.298-.104.428.104.026.44-.195.26c-.22-.182-.325-.014-.455.09s-.325.17-.533.17c-.207 0-.35.026-.324.493.08 1.405 1.17 2.444 3.17 2.418s2.99-.052 3.29-.013c-.664-.364-1.08-.56-1.314-.533s-.43.065-.325-.117-.012-.182-.116-.26-.233-.182-.44.04-.703.467-.95.52-.546.038-.312-.196.754-.313.91-.417.156-.168.156-.246-.04-.3.26-.13c.597.338 1.533.844 1.78.83s.416-.116.195-.26-.286-.35-.22-.427.103-.156.493.065c.39.22 1.026.506 1.26.61s.546.065.065-.286c-.48-.35-1.974-1.34-2.39-1.65s-.234.064-.195.18-.286.26-.455.118-.286-.3-.052-.43.286-.142-.065-.454c-.35-.31-.454-.285-.376-.026.078.26.104.546-.26.403s-.546-.31-.312-.454c.234-.142.533-.22.143-.545s-.273 0-.364.183-.39.182-.56.04-.246-.287-.13-.404.105-.183.274-.092.43.04.117-.234-.43-.156-.364 0-.18.43-.57.065c-.185-.173-.182-.404.013-.443.194-.04.213-.14.077-.338-.792-1.157-.467-2.093-1.26-2.95z" transform="matrix(4.486 0 0 4.487 -1190.9 -2609)" stroke-width=".138" stroke="#000" fill="#fff"/><path d="M491.574 188.6c-.305.457-.417.44-.982.816-.695.462-.852 1.786.314 1.63.807-.11 1.278-.59 1.597-.98-.256-.493-.56-.982-.93-1.466zM487.94 185.683c-.897.87-1.054 1.26-.596 1.26.543 0 .31.077-.08.7-.387.625.78.934 1.246.468s.543-.623.776 0c.19.508.956.027 1.44-.462-.794-.767-1.86-1.476-2.785-1.965zM486.326 190.71c-1.167.582-.772 3.678.987 2.798.583-.29 1.05-.175.933.292-.063.247-.023.53.107.754.696-.292 1.39-.776 1.934-1.396 1.09-1.242.076-1.166-1.552-1.166-1.633 0-2.1-.31-.548-1.243 1.39-.836.485-1.415-1.44-1.145.278.395.14.825-.42 1.104zM493.01 197.574c-.857-.934-.314-1.4.62-1.867.228-.112.385-.256.497-.426-.265-1.027-.476-2.014-.754-2.974-.49.14-1.06 1.23-1.22 1.768-.233.776-.467 1.243-1.243 1.01-.69-.207-1.38.57-1.525 1.4.108.044.274.076.494.098.322.03.483.47.384.938 2.104-.068 2.463 1.386 2.822 2.382.39 1.09.857.934 1.166.314.31-.623-.39-1.71-1.242-2.642z" fill="#cf6200"/><path d="M493.593 209.778c-.38.862-.39.777-1.633.853-1.243.082-2.808.292-3.494 1.015-.373.386-2.522.49-2.526 1.436-.01.952 0 1.75.933 1.81.93.057 1.045.174.7.874-.355.7-.583 1.867 1.045 1.983 1.633.117 2.8-.408 3.208.52.408.934-.032 2.424.29 2.976s1.428.906 3.137 1.435c1.14.355 5.44.557 6.765.404 1.32-.157.825-.947-.498-1.063-1.32-.118-2.293-.31-2.602-1.28-.31-.974-.583-1.48.157-2.293.736-.816 1.476-1.44 1.05-2.8-.43-1.36-1.13-2.957-2.683-3.383-1.557-.426-1.063-2.553-2.606-2.76-.584-.076-1.086-.076-1.243.274z" fill="#ff0"/><path d="M486.057 222.432c1.336.116 2.503.525 1.4.816-1.11.292-1.692.934-.297 1.05 1.4.117 2.566.642 1.516.992s-1.283.99.06.933 1.865.7.932 1.22c-.933.526-1.575.876-2.158-.053-.58-.934-.93-1.225-1.104-.525-.175.695-.583.233-1.05-.817s-1.282-1.34-1.05-.525-.815.933-1.807.525c.977.992 2.076 1.956 3.328 2.773 1.43-.488 3.01-.09 3.548-.035.583.06 2.39.467 3.383.992s1.632-.408 1.223-1.458c-.408-1.047-.466-.697-.99-.118-.526.583-.643-.233-.584-1.454.048-1.032-.643-.758-.876-.117s-.758-.407-.467-1.05-.058-.873-.583-.698-.583 0-.64-1.167-.584-.992-.76-.525-.64-.175-1.34-1.108c-.61-.817-1.315-.337-2.535.148.15.09.43.166.847.202z" fill="#cf6200"/><path d="M500.232 229.656c-6.37 2.584-10.964 1.436-14.422-.857 1.43-.49 3.04-.073 3.58-.02.583.06 2.39.467 3.382.992s1.633-.408 1.225-1.458c.875 1.108 1.516 1.867 2.56 1.808 1.05-.058 2.8-.233 3.675-.466zM486.64 200.31c-.39-1.318-.776-1.633-1.476-1.552-.7.076-1.01-.08-1.79-.39-.776-.31-1.786.076-1.943 1.476s-1.008 2.1-2.174 2.952c-1.167.858-1.866 1.557-1.866 2.957s-.31 1.786-1.086 2.8c-.345.45-.834.96-1.292 1.5.502.313.973.587 1.467.83.815.407.582.99-.293.757s-1.69.292-.29.584 2.035.933.7.875c-1.343-.06-2.917 1.107-.293.815 2.62-.29 3.67.934.583.992-3.09.058-1.924 1.05-.29 1.05 2.91 0 2.035.817 1.282.817-.76 0-1.11.99.815.816.027-.004.05-.01.08-.01.28-.286.485-.645.638-1.098.31-.933.62-3.657 1.71-4.433 1.085-.778 1.632-1.868 1.632-2.644s1.628-4.195 2.718-5.053 1.557-2.72 1.167-4.042z" fill="#ff0"/><path d="M484.352 200.356c-1.104-.736-2.176-.31-2.176 1.09s-.7 1.786-1.633 2.252c-.928.467-1.785 1.634-1.942 2.724-.152 1.086.158 1.786-.618 2.643-.78.852-.857 1.552-.31 2.02.543.466.543.546.776 1.242.234.7 1.552-.076 1.552-.853s.314-.776 1.167-1.243c.857-.465 2.256-2.722 1.942-3.34-.31-.625-1.086-1.168-.077-2.025 1.01-.853 2.1-.933 2.1-1.786 0-.858.31-1.167.618-1.477.315-.314-.698-.78-1.398-1.247z" fill="#cf6200"/><path d="M484.352 199.234c-.727-.283-1.162 1.243-.153 1.476s1.166-1.09.152-1.476zM484.172 201.208c-.77.094-1.633 1.108-.35.933s1.808-1.107.35-.932zM482.647 203.093c-.794.4-.64 1.458.525.7s1.458-1.692-.525-.7zM481.39 204.708c-.797.395-.64 1.454.526.7 1.166-.758 1.458-1.692-.525-.7z"/><path d="M479.776 205.47c-.794.4-.29 1.46.875.7s1.11-1.69-.874-.7zM480.763 206.458c-.794.4-.292 1.458.875.7s1.108-1.692-.875-.7z"/><path d="M479.372 206.862c-.794.4-.29 1.458.875.7s1.108-1.692-.875-.7zM480.27 207.983c-.8.4-.292 1.46.87.7 1.166-.758 1.108-1.69-.87-.7z"/><path d="M478.924 208.657c-.794.394-.292 1.453.875.695s1.107-1.687-.876-.695z"/><path d="M479.013 209.69c-.794.398-.29 1.457.875.7s1.108-1.693-.875-.7z"/><path d="M478.385 219.515c-.803.103-1.318 1.247-.31 1.48s1.244.31 1.244 1.087.313 1.866 1.398 1.942c1.09.08 2.023-1.166 1.09-1.552-.933-.39-1.79-.7-1.866-1.557-.076-.853-.933-1.476-1.557-1.4z" fill="#cf6200"/><path d="M507.006 212.83c.144.18.323.376.53.55.758.643 2.216 0 2.04-.524s-.99-2.216.875-.816 8.57 5.833 10.727 7.403c2.158 1.575.76 1.75-.29 1.284s-3.908-1.75-5.654-2.738c-1.75-.992-1.924-.642-2.216-.292-.246.29-.05.996.593 1.593-1.04.153-2.732-.076-3.217-1.184-.583-1.34-1.983-2.975-2.974-4.258-.37-.476-.477-.772-.414-1.02z" fill="#ff0"/><path d="M564.83 403.84c-1.453.993-3.377 2.743-2.1 5.188.154-.08.297-.175.445-.26 5.702-6.9 10.583-14.157 14.764-21.695.048-.26.093-.507.124-.722-1.633 1.4-4.2 2.796-5.248 3.146.7 1.867-2.562 4.317-4.31 5.017.7 1.166.465 2.916-1.05 3.266.35 1.045-.817 1.045-2.217 1.628s-2.1 1.05-2.563 1.75c.754-.41 1.804-.76 2.387-.584s.7 1.05-.35 1.284-1.745.816-2.1 1.283c1.517-.582 3.675-.29 2.217.7z" fill="#00d860"/><path d="M375.97 628.41c-.384-.335-.48-.13-.325.078s.04.312-.3.364-.844.117-1.052.117-.454.285.04.26c.493-.027 1.325-.196 1.546-.287s.4-.26.09-.533zM376.72 629c-.317-.285-.43-.208-.35 0s-.066.247-.273.312c-.208.065-1.027.338-1.378.377s-.43.285.09.272 1.52-.43 1.637-.507.156-.234.286-.156.247-.066-.013-.3zM376.96 629.83c-.23.137-.805.39-1.04.454s-.428.325.066.286c.493-.04 1.078-.494 1.234-.584.156-.09.234-.156.364-.143s.364-.17-.065-.403-.69-.117-.482.065.052.247-.078.325z" transform="matrix(4.486 0 0 4.487 -1190.9 -2609)" stroke-width=".138" stroke="#000"/><path d="M481.974 187.702c-2.848-1.87-6.1 2.05-2.952 4.2 2.76 1.885 5.675-2.41 2.952-4.2z"/><path d="M478.43 189.407l.844.06c-.175.87.7 2.184 2.04 1.86-1.076.817-3.175-.116-2.884-1.92zM489.466 231.9c.86.25 3.853.556 4.867.605-.507 1.068-.964 1.777-1.27 2.54-.304.758-.452.812-.506-.355-.05-1.17-.71-1.93-1.315-.713-.61 1.22-.915 1.673-1.215 2.18-.305.507-.763.714-.61-.556s.103-2.588.05-3.7z" fill="#fff"/><path d="M399.67 640.77c-.046 16.332-2.623 33.927-23.764 42.308-21.142-8.38-23.72-25.976-23.765-42.308h47.53zM399.67 640.77c.018-6.152-.324-12.125-.168-17.36-7.9-3.534-18.295-4.26-23.596-4.26-5.302 0-15.697.726-23.597 4.26.155 5.235-.186 11.208-.17 17.36h47.53z" transform="matrix(4.486 0 0 4.487 -1190.9 -2609)" stroke="#000" stroke-width=".275" fill="none"/></g></svg>