<svg xmlns="http://www.w3.org/2000/svg" height="480" width="640"><defs><clipPath id="a"><path fill-opacity=".67" d="M-15.067 0h682.67v512h-682.67z"/></clipPath></defs><g fill-rule="evenodd" clip-path="url(#a)" transform="matrix(.938 0 0 .938 14.125 0)" stroke-width="1pt"><path fill="#fff" d="M-62 0H962v512H-62z"/><path fill="#de2918" d="M-62 341.33H962V512H-62z"/><path fill="#08399c" d="M-62 170.67H962v170.67H-62z"/><path d="M228.37 92.976c-4.02 61.65-6.322 95.436-15.71 111.07-10.15 16.79-20.024 29.08-59.63 43.882-39.61-14.81-49.48-27.1-59.632-43.89-9.387-15.63-11.69-49.41-15.71-111.06l5.854-1.97c11.783-3.595 20.574-6.485 27.077-7.768 9.312-1.97 17.227-4.2 42.256-4.722 25.03.43 32.983 2.797 42.296 4.768 6.45 1.375 15.617 4.08 27.312 7.744l5.884 1.948z" fill="#de2918"/><path d="M222.6 90.955c-3.802 61.518-6.983 89.69-11.943 103.24-9.626 23.193-24.866 35.91-57.665 48.038-32.8-12.14-48.04-24.86-57.664-48.05-4.96-13.54-8.095-41.64-11.788-103.3 11.534-3.602 20.577-6.418 27.08-7.7 9.313-1.972 17.228-4.294 42.257-4.725 25.03.43 33.037 2.753 42.35 4.724 6.503 1.283 15.732 4.098 27.373 7.763z" fill="#08399c"/><path d="M208.28 179.62l-3.83-3.028-2.77-4.554-5.42-4.704-2.827-4.753-5.423-4.85-2.653-4.753-2.883-2.328-1.903-1.833-4.898 4.295-2.67 4.665-3.326 3.016-3.655-2.854-2.762-4.868L153 134.855l-10.26 18.217-2.763 4.867-3.654 2.853-3.327-3.016-2.67-4.665-4.898-4.295-1.904 1.832-2.883 2.327-2.652 4.752-5.423 4.85-2.825 4.754-5.423 4.704-2.768 4.554-3.822 3.1c1.984 16.885 12.748 30.115 18.613 36.167 6.546 6.354 20.04 14.857 36.54 20.485 16.55-5.508 30.23-14.13 36.775-20.486 5.865-6.053 16.63-19.283 18.625-36.24z" fill="#fff"/></g></svg>