<svg xmlns="http://www.w3.org/2000/svg" height="480" width="640"><g fill-rule="evenodd" stroke-width="1pt"><path fill="#19b6ef" d="M0 240h640v240H0z"/><path fill="#fff" d="M0 0h640v240H0z"/></g><path d="M317.07 339.22c52.45-39.238 108.96-119.305 42.74-161.41-12.336-2.387-26.107-1.67-32.713 3.583-3.5-1.99-6.288-1.83-9.79 1.91-2.466-3.025-4.935-4.38-10.028-2.865-10.19-5.173-19.42-6.288-31.518-3.105-57.623 34.622-22.366 116.76 41.308 161.888z" fill-rule="evenodd" stroke="#7d6c00" stroke-width="2.3686254" fill="#fd0"/><g stroke="#3a9d4f"><path stroke-linejoin="round" d="M414.08 250.106s5.903-7.94 6.106-7.94c5.904-3.46 6.515-7.937 6.515-7.937 5.904-1.834 4.072-6.72 4.478-7.33 2.852-3.052 1.833-6.107 1.426-7.125 0-.812 2.036-8.345-.814-9.362.135-8.008-4.818-7.26-8.754-2.036-4.207 1.22-5.157 4.682-3.664 8.55-5.497 0-5.7 7.94-4.07 12.416-7.33-.203-3.258 7.94-3.462 8.347-2.442 1.22 1.832 12.824 2.24 12.416zM367.857 318.3c1.22.746 2.443 1.492 3.664 2.24.747 2.78 3.326 4.546 5.295 4.07.95 4.275 5.563 3.666 8.956 1.222 2.715 3.936 6.04 4.005 10.587 2.647 4.07 2.984 9.364 1.695 12.824-1.427 3.732 3.053 6.244.815 8.143-2.442 2.917.747 5.224.273 6.31-2.646 5.7-.474 2.85-5.835-1.83-8.142 3.73-3.258 7.87-9.975 2.035-10.993-1.833-1.357-5.292-1.085-7.94.204-.677-2.987-4.818-3.733-9.364-.408-1.56-3.325-6.99-1.764-9.568.61-3.256-2.85-7.124-2.85-12.824.407L367.857 318.3zM367.857 309.555c.678-3.73-1.9-10.517 2.035-11.195-.746-6.243.34-13.3 7.532-12.62 1.155-5.904.883-11.4 7.736-12.216 0 0 5.497-19.134 11.197-5.903 2.24 3.87 1.832 10.178-2.647 8.957.883 4.75-.678 8.89-5.903 8.754 2.307 3.325 1.56 7.873-1.018 9.977-6.312 4.748-12.622 9.5-18.933 14.248zM401.037 285.735l5.904-1.22c6.107-4.07 8.55-5.7 11.604-1.223 5.09-1.086 9.974-.543 9.77 3.46 6.04.408 5.972 4.275 5.295 7.33.948 5.36-1.36 12.348-5.092 3.866-11.806-7.192-18.524-6.243-37.252-2.035 3.257-3.393 6.515-6.785 9.77-10.178zM404.102 279.822c.205-.203 17.507-4.682 15.675-9.974 4.885-.815 5.904-5.7 6.108-5.7 10.177-3.256 9.566-9.16 9.566-9.16 2.92-3.123 8.076-6.244 6.923-11.808.34-6.31.882-10.177-7.532-6.106-6.31-.612-8.55 3.053-10.38 8.55-2.986-3.528-7.803 2.104-8.346 7.124 0 0-7.736 7.532-7.736 7.735s-6.514 12.01-6.514 12.01l2.238 7.33z" fill-rule="evenodd" stroke-width="2.3686254" fill="#4fd46b"/><path stroke-linejoin="round" d="M404.502 266.397c-4.14-3.122-6.446-6.853-5.7-10.586-2.713-3.663-4.614-5.902-2.035-9.16 0 0-2.036-7.328-2.036-7.53-5.29-2.036-3.052-6.514-1.628-8.143-2.51-3.46-2.578-7.126-.203-10.382-.07-6.515 4.545-4.07 8.344 0 0 0 6.31 4.48 1.63 8.55 4.68 1.63 6.107 5.698 3.46 7.327 4.07 1.833 4.68 5.497 2.442 7.94 4.14 3.326 2.58 7.465 3.868 11.196l-8.142 10.79z" fill-rule="evenodd" stroke-width="2.3686254" fill="#4fd46b"/><path stroke-linejoin="round" d="M411.83 236.064c-.202-.203-6.92-8.753-5.088-9.364-.406-2.647-2.44-5.497-1.22-8.142-3.325-3.325-3.394-7.26-.815-10.38-2.24-3.054-1.22-7.125 1.832-9.772-.95-5.022 2.578-6.175 5.7-7.126 2.306-8.075 6.037-5.97 8.14.203 3.19 2.782 2.716 6.99 1.63 10.18 3.8 2.578 1.493 5.766-.203 7.124l-9.976 27.277z" fill-rule="evenodd" stroke-width="2.3686254" fill="#4fd46b"/><path stroke-linejoin="round" d="M410.815 193.106l-5.7-5.7c1.473-3.02 2.66-8.344-1.627-10.79-2.364-5.756-14.182-12.89-16.083.816-1.8-4.136-5.563-8.21-8.345-3.46-6.175-5.292-9.5-3.665-6.31 3.053 0 0-2.85 4.478 4.68 7.94.612.61-2.44 8.14 6.516 8.344-1.696 2.578 1.086 6.174 4.682 5.902-2.58 3.19 1.764 6.583 4.477 5.294-1.154 3.528-1.086 5.225 3.868 5.7l5.497 6.31 4.477 6.106c1.29-9.84 2.58-19.677 3.868-29.516z" fill-rule="evenodd" stroke-width="2.3686254" fill="#4fd46b"/><path d="M414.28 246.508c.288-.288 10.938-24.757 12.378-32.243M415.43 203.05s1.726 19.864-3.167 34.545M382.615 182.895s21.88 21.015 23.893 29.65M397.873 180.596s1.44 17.274 7.484 34.26M436.45 243.343s-21.88 18.425-32.53 34.545M415.712 307.84s-28.788 4.03-41.454 4.318M406.218 320.215s-35.698-.864-38.29-3.454M388.36 273.86c0 .286-18.135 30.225-18.71 40.014" stroke-linecap="round" stroke-width="2.2203781" fill="none"/></g><path d="M316.87 333.44c-37.768-35.623-76.454-102.48-37.972-136.268 6.84 3.88 14.903.408 26.03-3.98 3.368 3.673 7.654 4.593 11.942 1.836 4.797 2.042 8.37.408 10.718-2.144 10.922 6.33 24.906 9.596 28.172 3.37 37.87 35.93-.51 103.095-38.89 137.187z" fill-rule="evenodd" stroke="#7d6c00" stroke-width="2.3686254" fill="#65c7ff"/><path d="M317.086 332.408c-16.22-16.307-31.017-34.385-42.347-57.66 1.938-1.632 2.84-2.138 3.86-4.997 5.818.82 8.88 1.022 16.536-.305 1.53 5.717 1.837 10.514 5.51 15.31 2.553-5 5.105-10 7.657-15.004 5.205 1.227 11.637 1.534 16.535 0 3.165 4.29 2.042 10.72 7.656 15.62 3.368-9.902 6.738-10.616 10.106-15.925 5.002 1.736 8.167 1.02 12.25-.307 2.143 2.45 1.072 2.41 4.975 6.007-10.233 20.32-24.265 40.728-42.74 57.263z" fill-rule="evenodd" fill="#8fc753"/><path d="M272.65 164.304c0 1.848-1.498 3.346-3.346 3.346s-3.346-1.498-3.346-3.346 1.498-3.346 3.346-3.346 3.346 1.498 3.346 3.346zM269.158 156.594c0 1.848-1.498 3.345-3.346 3.345s-3.345-1.5-3.345-3.346 1.498-3.346 3.345-3.346 3.346 1.498 3.346 3.346zM265.085 149.465c0 1.848-1.498 3.346-3.346 3.346s-3.347-1.497-3.347-3.345 1.498-3.346 3.346-3.346 3.345 1.497 3.345 3.345zM262.32 142.482c0 1.848-1.497 3.346-3.345 3.346s-3.346-1.498-3.346-3.346 1.497-3.346 3.345-3.346 3.346 1.498 3.346 3.346zM262.757 134.918c0 1.848-1.498 3.346-3.346 3.346s-3.344-1.498-3.344-3.346 1.498-3.346 3.345-3.346 3.347 1.498 3.347 3.346zM280.42 122.407c0 1.848-1.498 3.346-3.346 3.346s-3.346-1.498-3.346-3.346 1.498-3.346 3.346-3.346 3.346 1.5 3.346 3.347z" fill-rule="evenodd" stroke="#000" stroke-width="1.1110219000000001" fill="#fff"/><path d="M273.814 123.57c0 1.85-1.498 3.347-3.346 3.347s-3.346-1.498-3.346-3.346 1.498-3.345 3.346-3.345 3.346 1.498 3.346 3.346zM266.54 127.935c0 1.848-1.498 3.346-3.346 3.346s-3.346-1.497-3.346-3.345 1.498-3.346 3.346-3.346 3.346 1.498 3.346 3.345zM288.943 122.552c0 1.848-1.498 3.346-3.346 3.346s-3.346-1.498-3.346-3.346 1.5-3.346 3.347-3.346 3.346 1.498 3.346 3.346zM298.254 123.28c0 1.848-1.498 3.346-3.346 3.346s-3.346-1.498-3.346-3.346 1.498-3.346 3.346-3.346 3.346 1.498 3.346 3.346zM306.546 122.843c0 1.848-1.498 3.346-3.346 3.346s-3.346-1.5-3.346-3.347 1.498-3.346 3.346-3.346 3.346 1.498 3.346 3.346z" fill-rule="evenodd" stroke="#000" stroke-width="1.1110219000000001" fill="#fff"/><path d="M325.874 117.504c0 4.74-3.843 8.583-8.583 8.583s-8.582-3.843-8.582-8.583 3.843-8.583 8.583-8.583 8.584 3.844 8.584 8.584z" fill-rule="evenodd" stroke="#7d6c00" stroke-width="1.110941" fill="#fd0"/><path d="M334.913 122.698c0 1.848-1.5 3.346-3.346 3.346s-3.346-1.498-3.346-3.346 1.5-3.345 3.347-3.345 3.346 1.498 3.346 3.345zM343.642 123.425c0 1.848-1.498 3.346-3.345 3.346s-3.346-1.497-3.346-3.345 1.5-3.346 3.347-3.346 3.345 1.497 3.345 3.345zM352.08 122.988c0 1.848-1.5 3.346-3.347 3.346s-3.346-1.498-3.346-3.346 1.498-3.346 3.346-3.346 3.346 1.498 3.346 3.346zM359.207 122.698c0 1.848-1.498 3.346-3.346 3.346s-3.345-1.498-3.345-3.346 1.498-3.345 3.346-3.345 3.347 1.498 3.347 3.345zM368.082 123.716c0 1.848-1.498 3.346-3.346 3.346s-3.346-1.498-3.346-3.346 1.498-3.346 3.346-3.346 3.346 1.498 3.346 3.346zM375.064 128.08c0 1.848-1.498 3.346-3.346 3.346s-3.346-1.498-3.346-3.346 1.498-3.346 3.346-3.346 3.346 1.498 3.346 3.346z" fill-rule="evenodd" stroke="#000" stroke-width="1.1110219000000001" fill="#fff"/><path d="M269.414 151.697c2.85 5.42 5.698 11.05 8.548 16.47h79.23l9.174-15.846c-5.352-3.682-9.035-6.532-16.68-4.794-4.31-6.185-9.035-7.366-16.054-6.67-2.086-2.155-3.963-3.476-7.508-3.962l-16.678.416c-4.38.416-7.716 3.753-7.924 3.753-7.09-.835-13.552-.627-15.22 6.254-6.463-1.6-11.05.14-16.888 4.38z" fill-rule="evenodd" stroke="#ac0000" stroke-width="2.3686254" fill="#e40000"/><path d="M377.974 135.354c0 1.848-1.498 3.346-3.346 3.346s-3.346-1.498-3.346-3.346 1.498-3.345 3.346-3.345 3.346 1.497 3.346 3.344zM378.556 143.21c0 1.848-1.5 3.346-3.346 3.346s-3.346-1.498-3.346-3.346 1.498-3.346 3.346-3.346 3.346 1.498 3.346 3.346zM376.082 150.484c0 1.848-1.498 3.346-3.346 3.346s-3.346-1.5-3.346-3.346 1.498-3.346 3.346-3.346 3.346 1.498 3.346 3.346zM373.027 156.448c0 1.848-1.498 3.346-3.346 3.346s-3.345-1.498-3.345-3.346 1.498-3.346 3.346-3.346 3.347 1.498 3.347 3.346zM369.39 164.013c0 1.848-1.497 3.346-3.345 3.346s-3.346-1.5-3.346-3.347 1.497-3.346 3.345-3.346 3.346 1.498 3.346 3.346z" fill-rule="evenodd" stroke="#000" stroke-width="1.1110219000000001" fill="#fff"/><path d="M322.566 154.424c0 2.73-2.215 4.946-4.947 4.946s-4.947-2.215-4.947-4.946 2.215-4.947 4.946-4.947 4.946 2.215 4.946 4.947z" fill-rule="evenodd" stroke="#000" stroke-width="1.1105424000000002" fill="#fff"/><path d="M323.546 143.045c0 3.294-2.67 5.965-5.965 5.965s-5.963-2.67-5.963-5.965 2.67-5.964 5.964-5.964 5.966 2.67 5.966 5.965z" fill-rule="evenodd" stroke="#000" stroke-width="1.11051072" fill="#fff"/><path d="M322.685 131.995c0 2.972-2.41 5.382-5.383 5.382s-5.382-2.41-5.382-5.382 2.41-5.383 5.382-5.383 5.383 2.41 5.383 5.383z" fill-rule="evenodd" stroke="#000" stroke-width="1.10935854" fill="#fff"/><path d="M315.487 109.055c0-.926-.028-4.165.037-4.295l-3.572-.064.102-3.175 3.1-.036.037-2.775h4.396v2.543h3.47l-.072 3.378-3.6-.036-.03 4.526-3.867-.065z" fill-rule="evenodd" stroke="#7d6c00" stroke-width="1.1110219000000001" fill="#fd0"/><path d="M277.56 168.17c-7.092-12.023-17.51-28.367-11.053-35.444 8.955-10.143 29.953-.973 43.367-6.88.972 11.467-2.224 30.44 2.92 34.402l-4.796 4.17c-2.92-3.753-8.418-8.782-15.22.208-3.892-3.403-8.316-2.805-10.4 1.72-1.982.267-1.867 1.06-4.82 1.824zM357.68 167.754c7.09-12.023 17.51-28.367 11.05-35.444-8.954-10.143-29.95-.973-43.365-6.882-.973 11.47 2.223 30.44-2.92 34.404 1.6 1.39 3.198 2.78 4.795 4.17 4.614-6.49 10.373-6.7 15.22.207 3.893-3.404 7.925-2.937 10.4 1.72 1.983.267 1.868 1.06 4.82 1.824z" stroke="#fd0" stroke-width="3.3314" fill="none"/><path d="M277.343 177.132c28.495-2.918 54.904-1.877 79.23 0l3.127-8.967c-27.66-5.003-46.773-5.628-82.982-.624l.625 9.592z" fill-rule="evenodd" stroke="#7d6c00" stroke-width="2.3686254" fill="#fd0"/><path d="M314.12 329.377c.206-1.43.41-2.762.614-4.19 2.834.762 4.996.467 7.35-.403.815-1.225 1.633-2.45 2.45-3.676l-1.838-2.142c-1.615.348-2.94 1.85-3.98 3.158-1.628.077-3.064-.71-4.595-1.016-.508-2.143-1.02-4.286-1.53-6.43-1.52-1.795-4.67-1.668-3.98 1.53.1.818.204 1.635.306 2.452.613 1.53.84 3.638 1.837 4.784v2.51l3.368 3.423zM315.337 311.087c-2.13 1.056-4.66-.78-7.35-1.837-2.45-.168-4.418 1.872-7.348 1.224.534-1.59 1.836-1.837 2.756-2.756-.673-4.13 1.53-5.512 2.144-5.512.61 0 3.06.613 3.06.613.817.1 1.635.204 2.45.305 1.43 2.654 3.434 5.02 4.287 7.962z" fill-rule="evenodd" fill="#c76e2e"/><path d="M300.78 366.09c7.065-11.473 56.258-34.51 102.42-84.252-46.988 45.243-76.356 56.35-114.81 83.974l12.39.277z" fill-rule="evenodd" stroke="#e9bf00" stroke-width="2.3686254" fill="#ffe100"/><path d="M368.406 313.186c0 1.978-1.603 3.582-3.58 3.582s-3.583-1.604-3.583-3.582 1.604-3.58 3.582-3.58 3.58 1.602 3.58 3.58zM402.786 278.323c0 2.242-1.817 4.06-4.06 4.06-2.24 0-4.058-1.818-4.058-4.06 0-2.242 1.818-4.06 4.06-4.06s4.058 1.818 4.058 4.06zM414.252 248.713c0 1.978-1.603 3.58-3.58 3.58s-3.583-1.602-3.583-3.58 1.602-3.582 3.58-3.582 3.582 1.604 3.582 3.583zM403.02 210.28c0 1.977-1.604 3.58-3.582 3.58s-3.582-1.603-3.582-3.58 1.604-3.582 3.582-3.582 3.582 1.603 3.582 3.58z" fill-rule="evenodd" stroke="#68300e" stroke-width="1.1110219000000001" fill="#9d4916"/><path d="M279.125 269.595v-15.148l-1.54-1.283v-3.594l2.824-.257.512-16.945-1.797-1.028-.257-2.823s2.054.77 2.054.257.513-3.34.513-3.34-1.282-.255-1.282-.768 1.54-1.797 1.54-1.797-.77-.773-1.027-1.286-.77-2.823-.77-2.823l.77-2.824-.513-1.54-1.285-2.31 1.798-1.798s-.513-2.31-.513-2.824 1.282-2.567 1.54-2.825c.257-.257 2.31-3.08 2.31-3.08l4.365-1.028 5.135.77 2.824 1.798.513 4.62s-.513 2.824-.77 2.824-2.31 1.028-2.31 1.028-2.57.256-2.825 0 .77 3.08.77 3.08v3.08l-.256 3.852s0 1.798-.26 2.054c-.255.257-.768 1.028-.768 1.028l-.257 3.85 4.108 1.027-.257 2.312-2.825.257.516 15.66 4.108.77v4.366l-1.798 1.026-.513 15.66h-14.378zM341.522 269.86v-15.147l-1.54-1.282v-3.594l2.824-.256.513-16.945-1.798-1.028-.257-2.823s2.054.77 2.054.256.512-3.338.512-3.338-1.282-.257-1.282-.77 1.54-1.797 1.54-1.797-.77-.77-1.027-1.284-.77-2.822-.77-2.822l.77-2.826-.513-1.54-1.285-2.31 1.798-1.798s-.513-2.31-.513-2.823 1.282-2.566 1.54-2.824c.257-.257 2.31-3.08 2.31-3.08l4.365-1.028 5.135.77 2.824 1.8.513 4.62s-.513 2.823-.77 2.823-2.31 1.028-2.31 1.028-2.57.257-2.825 0 .77 3.082.77 3.082V218l-.255 3.85s0 1.798-.26 2.055c-.255.256-.768 1.027-.768 1.027l-.258 3.852 4.108 1.026-.257 2.312-2.825.256.515 15.66 4.108.77v4.366l-1.797 1.026-.513 15.66h-14.378zM309.94 270.378V255.23l-1.54-1.283v-3.594l2.825-.257.513-16.945-1.798-1.027-.256-2.823s2.054.77 2.054.256.513-3.338.513-3.338-1.282-.256-1.282-.77 1.54-1.797 1.54-1.797-.77-.77-1.027-1.283-.768-2.823-.768-2.823l.77-2.825-.514-1.542-1.284-2.31 1.797-1.798s-.512-2.31-.512-2.823 1.283-2.567 1.54-2.825c.257-.256 2.31-3.08 2.31-3.08l4.365-1.028 5.136.772 2.822 1.797.513 4.62s-.513 2.824-.77 2.824-2.31 1.028-2.31 1.028-2.568.256-2.825 0 .77 3.08.77 3.08v3.08l-.255 3.852s0 1.798-.258 2.054c-.257.258-.77 1.03-.77 1.03l-.256 3.85 4.108 1.026-.256 2.312-2.825.256.514 15.66 4.11.77v4.367l-1.798 1.027-.513 15.66h-14.38z" fill-rule="evenodd" stroke="#a9a9a9" stroke-width="1.1110219000000001" fill="#fff"/><path fill-rule="evenodd" d="M282.923 269.495v-11.938h6.686v12.416l-6.687-.478zM314.438 270.444l.238-12.178h5.97v11.938l-6.208.24zM345.486 270.21l-.478-11.46 6.448-.24v11.94l-5.97-.24zM284.588 234.15h3.82v6.207h-3.82zM314.92 234.4h5.254v5.968h-5.253zM345.953 234.865h4.537v5.73h-4.537z"/><path d="M286.57 206.965c4.108 4.62 4.365 4.62 4.365 4.62M317.12 206.965c.77 1.54 2.053 4.877 3.594 5.133M349.984 207.73s1.284 3.595 3.08 4.108" stroke="#a8a8a8" stroke-width="1.1110219000000001" fill="none"/><path d="M282.206 194.022c12.012-3.883-2.806-11.648-5.267 0-3.887.628-4.39 3.51-12.79 2.26-20.313 33.1-5.267 86.517 54.17 141.815-106.458-90.594-63.195-157.604-33.715-155.077 16.034 1.096 7.945 21.096-2.4 11.002z" fill-rule="evenodd" fill="#b97700"/><path d="M285.554 177.05s9.78 2.632 9.78 6.77M295.332 176.3s6.77 3.007 8.275 5.64M348.75 177.432s-8.652 1.13-10.533 3.76M335.575 178.18s-4.888 4.14-4.514 5.266M334.46 196.237c-.753-.376-4.138-4.89-3.387-10.533M301.345 193.24s2.257-2.634 2.257-7.525M317.153 183.828l.376 10.91M326.93 193.24c0-.754 3.01-7.9-.376-11.286M306.242 180.447s-2.633 7.147-.75 13.165M325.43 186.843s-4.136 1.128-6.02 3.01M307.742 187.96c0-.376 4.514-1.13 6.018 1.505" stroke="#7d6c00" stroke-width="2.3686254" fill="none"/><path d="M300.63 301.86c.19.096 3.745-.674 3.745-2.403 1.826-1.152.48-4.42.48-4.42l-3.36-.672-4.614-5.187c-.222-1.6.323-3.104-.67-4.802-3.17.833-4.995 3.49-6.053 6.53.77.963.866 2.02 2.307 2.883 1.504.256 2.528-.64 3.938-.384.736 1.28.51 2.37.767 3.555 1.922 1.345 2.306 3.267 3.46 4.9zM296.498 279.672v-6.148l-4.42-.193c-.544.93-1.568 1.38-2.21 2.21l-3.073 1.54c1.28 1.536 2.85 2.4 3.843 3.17 2.242.672 4.1.672 5.86-.578zM282.656 288.8l-2.402-4.036c1.473-.48 3.33-.288 4.707.29 0 0 1.06 2.497.29 3.457-.385.865-2.69.482-2.594.29zM319.168 292.93c1.28-.638 2.466-1.76 2.69-3.36l-4.42-5.092-4.033-.095c-.928-.96-2.434-1.153-3.65-1.153 0 0 1.25 1.92 2.882 2.306 1.153 2.59 6.148 7.395 6.53 7.395zM323.5 293.498c0-.095 3.937-1.44 6.05-1.248-.19-1.634 2.98-5.38 2.98-5.38l5.57 7.3c-1.024.865-2.818.577-4.227.865 0 0-2.69 2.594-2.978 2.69s-5.187 1.248-7.59-.19c-1.055-2.02.29-4.326.194-4.037zM326.664 280.722c.673-2.337.864-4.676 0-7.59 0 0-6.34-.096-6.34 0s-4.227 1.92-4.227 2.018 1.346 4.13 2.978 3.746c.736 2.146 2.913 1.6 3.938 2.402 1.217-.192 2.433-.385 3.65-.576zM351.55 274.292c-.865 2.66-1.345 5.51-.097 8.07 1.153.192 2.498.96 3.555.768l5.092-9.223c-3.523-1.12-6.373-.992-8.55.385z" fill-rule="evenodd" fill="#c76e2e"/><path d="M353.115 193.19c-12.01-3.884 2.807-11.65 5.267 0 3.886.627 4.39 3.51 12.79 2.258 20.313 33.102 5.266 86.518-54.17 141.816 106.457-90.594 63.194-157.604 33.715-155.077-16.034 1.096-7.946 21.096 2.398 11.002z" fill-rule="evenodd" fill="#b97700"/><path d="M354.33 284.67c-.19 0-3.072 2.112-3.072 2.112-1.378.544-2.753 1.09-4.13 1.634-1.473.03-2.948.063-4.42.095l-.96-3.073 3.362-2.978c-2.85-.417-5.7.704-7.974 2.786 0 0 0 3.36 1.922 4.995 1.153 1.44 4.514 4.036 4.514 4.036 2.114.416 4.13.063 5.476-1.058l5.283-8.55zM331.078 314.835c1.443.385 11.337-12.776 11.337-12.776-.865-2.466-2.787-4.26-4.9-5.38 0 0-4.805 5.666-4.9 7.588-.767 1.73-2.976 8.357-2.017 9.223-.096.193-.48 2.88.48 1.345z" fill-rule="evenodd" fill="#c76e2e"/><path stroke-linejoin="round" d="M266.366 317.4c-14.817-12.887-34.81-19.99-62.716-10.35 7.51 3.248 15.628 4.364 22.53 7.915 13.394.81 26.79 1.624 40.186 2.435z" fill-rule="evenodd" stroke="#004100" stroke-width="2.3686254" fill="#006800"/><path d="M223.44 308.256c29.227.608 37.752 7.913 36.23 6.696" stroke="#00a400" stroke-linecap="round" stroke-width="2.2203781" fill="none"/><path stroke-linejoin="round" d="M266.965 318.916c-8.728 1.724-20.804 10.154-24.356 9.74-9.54-1.108-18.455-4.974-27.705-7.914-3.842-1.22-7.713 0-11.57 0 32.78-15.526 43.943-13.396 63.63-1.826z" fill-rule="evenodd" stroke="#004100" stroke-width="2.2203781" fill="#006800"/><path stroke-linejoin="round" d="M245.36 296.08s-10.958 1.52-15.83 1.825c-4.872-.303-11.954-4.842-19.788-13.09-4.09-4.48-13.396-3.958-13.396-3.958 20.602-4.365 36.634-.204 49.015 15.222zM230.436 274.775c-14.92-.914-33.49-14.308-37.75-30.14-.003.203 5.478 3.45 4.565 4.264 24.458 6.188 26.082 11.16 33.186 25.875zM255.405 300.344c2.13-13.498 2.74-22.427-3.653-30.444-5.277-6.09-6.596-9.743-10.35-18.268-1.116 17.76-4.974 32.474 14.003 48.712zM231.952 262.9c11.06-16.137 12.99-28.315 11.264-47.495-.305 1.522-3.958 10.96-4.26 10.96-16.442 10.35-9.134 26.488-7.004 36.534z" fill-rule="evenodd" stroke="#004100" stroke-width="2.3686254" fill="#006800"/><path stroke-linejoin="round" d="M222.225 184.96c11.06 16.136 9.336 31.36 7.61 50.54-.305-1.523-3.958-10.96-4.26-10.96-16.44-10.35-5.48-29.534-3.35-39.58z" fill-rule="evenodd" stroke="#004100" stroke-width="2.3686254" fill="#006800"/><path stroke-linejoin="round" d="M231.353 209.93c26.79-13.498 16.438-30.648 21.31-43.84-18.57 13.802-21.006 28.515-21.31 43.84z" fill-rule="evenodd" stroke="#004100" stroke-width="2.3686254" fill="#006800"/><path d="M235 206.58c3.35-9.436 10.048-25.572 10.656-25.572M227.088 226.37c-.608-6.7-3.956-24.662-4.26-26.488" stroke="#00a400" stroke-linecap="round" stroke-width="2.2203781" fill="none"/><path stroke-linejoin="round" d="M228.304 256.502c-14.92-.914-31.055-21.31-35.316-37.14 0 .2 5.48 3.448 4.566 4.26 21.412 9.54 23.646 18.166 30.75 32.88zM223.874 242.494c-11.06-16.136-12.99-28.314-11.264-47.494.305 1.522 3.958 10.96 4.26 10.96 16.44 10.35 9.134 26.488 7.004 36.534zM233.785 214.194c27.703-12.28 19.178-25.167 27.4-38.665-18.572 13.8-27.096 23.34-27.4 38.664z" fill-rule="evenodd" stroke="#004100" stroke-width="2.3686254" fill="#006800"/><path d="M235 211.445c11.266-11.265 15.223-20.703 15.223-20.703" stroke="#00a400" stroke-linecap="round" stroke-width="2.2203781" fill="none"/><g fill-rule="evenodd"><path d="M333.56 366.355l13.49.275c-44.787-41.942-130.6-60.205-118.667-137.39-12.298 83.7 70.117 91.41 105.177 137.115z" stroke="#e9bf00" stroke-width="2.3686254" fill="#ffe100"/><path d="M235.417 212.66c0 2.375-1.924 4.3-4.298 4.3s-4.3-1.925-4.3-4.3 1.925-4.297 4.3-4.297 4.297 1.925 4.297 4.298zM232.785 236.297c0 2.242-1.817 4.06-4.06 4.06-2.24 0-4.058-1.818-4.058-4.06 0-2.24 1.817-4.06 4.06-4.06 2.24 0 4.058 1.82 4.058 4.06zM236.6 269.978c0 1.978-1.604 3.582-3.582 3.582s-3.582-1.604-3.582-3.582 1.604-3.582 3.582-3.582 3.582 1.604 3.582 3.582zM267.876 307.223c0 1.978-1.604 3.582-3.582 3.582s-3.58-1.604-3.58-3.582 1.602-3.582 3.58-3.582 3.582 1.605 3.582 3.583zM272.412 317.907c0 1.978-1.603 3.58-3.58 3.58s-3.583-1.602-3.583-3.58 1.602-3.582 3.58-3.582c1.98 0 3.582 1.604 3.582 3.582z" stroke="#68300e" stroke-width="1.1110219000000001" fill="#9d4916"/></g><g fill-rule="evenodd" fill="#fff"><g stroke="#000" stroke-width=".667"><path d="M288.203 349.032c-2.355-2.134-3.853-3.503-4.777-5.828l-14.044-1.528-.19 8.024 19.01-.668z" stroke-width="1.1110219000000001"/><path stroke-linejoin="round" d="M185.313 339.57c8.157 1.507 20.456-.752 24.472 4.518 4.822 5.465-15.093 13.872-12.24 18.6 6.16 6.517 12.498 3.83 19.393.226 1.624-3.523 2.878-9.804 3.766-11.672-2.51-5.773-9.253-8.6-7.53-17.32 11.37-4.25 33.23-3.897 35.583-2.258 1.848 3.623.187 5.273.564 8.16-1.882 3.64-6.727 9.81-6.737 13.074 11.93 4.203 15.074-.648 25.806-.363 12.574.155 20.224 3.53 22.954-1.467-1.87-4.315-13.403-.805-17.78-3.577-2.19-.74-3.604-2.5-5.496-4.44s-7.21-2.038-8.007-6.816c2.226-10.214 16.966-8.653 19.376-10.217l38.405 2.635c6.958-.196 10.893 12.323 1.498 16.09-9.394 3.767-37.18-5.588-49.233.842-.623-2.622-9.283-6.588-9.907-6.713-3.69 1.106-10.88.7-10.88.7-1.758 3.264-3.764 5.653-5.52 8.916-7.976-3.497-15.515 2.715-24.225.874 0 0-13.178 1.506-13.554 1.506s-8.66-.753-8.66-.753l-13.177 3.765 9.412-8.284-8.282-6.023z" stroke-width="1.1110219000000001"/><path d="M184.732 337.954c0 2.005-1.625 3.63-3.63 3.63s-3.63-1.625-3.63-3.63 1.625-3.63 3.63-3.63 3.63 1.625 3.63 3.63zM183.78 355.91c0 2.006-1.625 3.632-3.63 3.632s-3.63-1.626-3.63-3.63c0-2.006 1.625-3.63 3.63-3.63s3.63 1.625 3.63 3.63z" stroke-width="1.1110219000000001"/></g><g stroke="#000" stroke-width=".667"><path d="M346.253 349.097c2.355-2.134 3.852-3.503 4.777-5.828l14.043-1.53.192 8.025-19.012-.668z" stroke-width="1.1110219000000001"/><path stroke-linejoin="round" d="M449.143 339.636c-8.157 1.506-20.457-.753-24.473 4.517-4.822 5.465 15.093 13.872 12.242 18.6-6.16 6.517-12.5 3.83-19.394.226-1.624-3.524-2.878-9.805-3.766-11.672 2.51-5.774 9.253-8.602 7.53-17.32-11.37-4.25-33.23-3.898-35.584-2.26-1.847 3.624-.187 5.274-.563 8.16 1.882 3.64 6.728 9.81 6.738 13.075-11.93 4.203-15.075-.648-25.807-.363-12.574.155-20.225 3.53-22.955-1.467 1.872-4.315 13.405-.805 17.782-3.577 2.19-.74 3.603-2.5 5.496-4.44s7.21-2.04 8.007-6.816c-2.226-10.215-16.966-8.654-19.376-10.218l-38.405 2.635c-6.958-.196-10.892 12.323-1.498 16.09 9.395 3.767 37.18-5.587 49.233.842.623-2.623 9.283-6.59 9.908-6.714 3.69 1.105 10.88.7 10.88.7 1.758 3.263 3.763 5.652 5.52 8.915 7.976-3.496 15.515 2.716 24.225.875 0 0 13.177 1.506 13.554 1.506s8.658-.752 8.658-.752l13.177 3.765-9.41-8.284 8.28-6.024z" stroke-width="1.1110219000000001"/><path d="M449.723 338.02c0 2.004 1.626 3.63 3.63 3.63 2.006 0 3.63-1.626 3.63-3.63s-1.625-3.63-3.63-3.63c-2.004 0-3.63 1.624-3.63 3.63zM450.675 355.976c0 2.005 1.626 3.63 3.63 3.63s3.63-1.625 3.63-3.63-1.624-3.63-3.63-3.63c-2.004 0-3.63 1.626-3.63 3.63z" stroke-width="1.1110219000000001"/></g><path d="M316.986 329.343c-3.23-.606-4.38-.433-6.57-.65-1.715 5.27-3.427 10.54-5.14 15.812 7.937.716 15.288.716 15.288.65-4.815-.975-3.643-15.747-3.578-15.812z"/></g><g font-size="9" font-family="Trebuchet MS" font-weight="bold"><text y="344.274" x="448.605" transform="matrix(1.7 0 0 1.7 -464.9 -233.3)"><tspan y="344.274" x="448.605">L</tspan></text><text y="344.622" x="453.64" transform="matrix(1.7 0 0 1.7 -464.9 -233.3)"><tspan y="344.622" x="453.64">I</tspan></text><text y="345.056" x="456.678" transform="matrix(1.7 0 0 1.7 -464.9 -233.3)"><tspan y="345.056" x="456.678">B</tspan></text><text y="345.49" x="462.58" transform="matrix(1.7 0 0 1.7 -464.9 -233.3)"><tspan y="345.49" x="462.58">E</tspan></text><text y="345.576" x="468.309" transform="matrix(1.7 0 0 1.7 -464.9 -233.3)"><tspan y="345.576" x="468.309">R</tspan></text><text y="345.403" x="473.952" transform="matrix(1.7 0 0 1.7 -464.9 -233.3)"><tspan y="345.403" x="473.952">T</tspan></text><text y="344.535" x="479.247" transform="matrix(1.7 0 0 1.7 -464.9 -233.3)"><tspan y="344.535" x="479.247">A</tspan></text><text y="344.274" x="485.497" transform="matrix(1.7 0 0 1.7 -464.9 -233.3)"><tspan y="344.274" x="485.497">S</tspan></text></g><path d="M245.7 329.96c10.254 1.244 24.548.31 30.762 0M230.162 294.84c8.7 6.835 27.654 10.872 27.343 10.872M268.378 307.59c-2.797-14.293-5.902-17.712-8.388-26.723M215.56 264.698c14.604 6.525 16.778 10.873 26.1 17.398M246.94 267.81c1.245-17.713 3.73-22.375 8.08-26.414M215.56 239.232c5.283 5.904 22.682 24.235 22.682 24.235M231.097 223.065c6.526 4.66 6.526 21.437 6.526 21.437" stroke="#00a400" stroke-linecap="round" stroke-width="2.2661" fill="none"/></svg>