<svg xmlns="http://www.w3.org/2000/svg" height="480" width="640"><defs><clipPath id="a"><path fill-opacity=".67" d="M0 0h640v480H0z"/></clipPath></defs><g clip-path="url(#a)"><path fill-rule="evenodd" fill="#5387f4" d="M-79.43 318.86h798.86V480H-79.43zM-79.43 0h798.86v161.14H-79.43z"/><path fill-rule="evenodd" fill="#fff" d="M-79.43 161.14h798.86v157.71H-79.43z"/><g stroke="#000" fill-rule="evenodd"><path d="M490.58 234.24c0 .846-.823 1.53-1.837 1.53s-1.838-.684-1.838-1.53.823-1.53 1.838-1.53 1.837.684 1.837 1.53z" transform="matrix(-.78044 -.48896 -.6121 .95713 779.727 212.985)" stroke-width=".332" fill="red"/><path d="M490.58 234.24c0 .846-.823 1.53-1.837 1.53s-1.838-.684-1.838-1.53.823-1.53 1.838-1.53 1.837.684 1.837 1.53z" transform="matrix(-.78044 -.48896 -.6121 .95713 785.663 217.642)" stroke-width=".332" fill="red"/><path d="M259.03 105.71s400.32 70.645 414.45 395.62c14.13 324.97-188.39 367.36-259.03 419.16-70.645 51.807-113.03 113.03-146 113.03-32.968 0-80.065-14.13-80.065-14.13s9.42 51.81 75.355 47.1c65.936-4.71 127.16-113.03 164.84-131.87s277.88-98.9 259.04-428.58c-14.13-353.23-423.88-390.91-428.59-400.33z" transform="matrix(-.1705 .03977 .04248 .18065 329.88 148.624)" stroke-width="1.603" fill="#006700"/><path d="M320.26 487.2c0 59.825-11.597 108.32-25.903 108.32s-25.903-48.498-25.903-108.32c0-59.825 11.597-108.32 25.903-108.32s25.903 48.498 25.903 108.32z" transform="matrix(-.08296 -.0065 -.0204 .08168 293.76 152.915)" stroke-width="1.603" fill="#006700"/><path d="M320.26 487.2c0 59.825-11.597 108.32-25.903 108.32s-25.903-48.498-25.903-108.32c0-59.825 11.597-108.32 25.903-108.32s25.903 48.498 25.903 108.32z" transform="matrix(-.07512 -.028 -.0378 .0779 301.987 162.264)" stroke-width="1.603" fill="#006700"/><path d="M320.26 487.2c0 59.825-11.597 108.32-25.903 108.32s-25.903-48.498-25.903-108.32c0-59.825 11.597-108.32 25.903-108.32s25.903 48.498 25.903 108.32z" transform="matrix(-.00787 -.08697 -.07735 .0231 306.236 212.254)" stroke-width="1.603" fill="#006700"/><path d="M320.26 487.2c0 59.825-11.597 108.32-25.903 108.32s-25.903-48.498-25.903-108.32c0-59.825 11.597-108.32 25.903-108.32s25.903 48.498 25.903 108.32z" transform="matrix(-.03623 -.0733 -.07044 .0482 310.99 193.226)" stroke-width="1.603" fill="#006700"/><path d="M320.26 487.2c0 59.825-11.597 108.32-25.903 108.32s-25.903-48.498-25.903-108.32c0-59.825 11.597-108.32 25.903-108.32s25.903 48.498 25.903 108.32z" transform="matrix(-.05484 -.05735 -.05982 .06343 309.02 179.537)" stroke-width="1.603" fill="#006700"/><path d="M490.58 234.24c0 .846-.823 1.53-1.837 1.53s-1.838-.684-1.838-1.53.823-1.53 1.838-1.53 1.837.684 1.837 1.53z" transform="matrix(-.87808 -.28365 -.3551 1.07687 749.417 107.3)" stroke-width=".332" fill="red"/><path d="M490.58 234.24c0 .846-.823 1.53-1.837 1.53s-1.838-.684-1.838-1.53.823-1.53 1.838-1.53 1.837.684 1.837 1.53z" transform="matrix(-.87808 -.28365 -.3551 1.07687 756.33 110.373)" stroke-width=".332" fill="red"/><path d="M320.26 487.2c0 59.825-11.597 108.32-25.903 108.32s-25.903-48.498-25.903-108.32c0-59.825 11.597-108.32 25.903-108.32s25.903 48.498 25.903 108.32z" transform="matrix(-.117 .02858 -.00175 .1263 275.878 136.568)" stroke-width="1.603" fill="#006700"/><path d="M320.26 487.2c0 59.825-11.597 108.32-25.903 108.32s-25.903-48.498-25.903-108.32c0-59.825 11.597-108.32 25.903-108.32s25.903 48.498 25.903 108.32z" transform="matrix(-.11312 -.0058 -.02706 .1288 290.312 146.198)" stroke-width="1.603" fill="#006700"/><path d="M320.26 487.2c0 59.825-11.597 108.32-25.903 108.32s-25.903-48.498-25.903-108.32c0-59.825 11.597-108.32 25.903-108.32s25.903 48.498 25.903 108.32z" transform="matrix(-.03914 -.12097 -.09962 .0684 312.418 215.85)" stroke-width="1.603" fill="#006700"/><path d="M320.26 487.2c0 59.825-11.597 108.32-25.903 108.32s-25.903-48.498-25.903-108.32c0-59.825 11.597-108.32 25.903-108.32s25.903 48.498 25.903 108.32z" transform="matrix(-.07397 -.08843 -.0819 .10118 312.837 186.424)" stroke-width="1.603" fill="#006700"/><path d="M320.26 487.2c0 59.825-11.597 108.32-25.903 108.32s-25.903-48.498-25.903-108.32c0-59.825 11.597-108.32 25.903-108.32s25.903 48.498 25.903 108.32z" transform="matrix(-.09457 -.0571 -.06226 .11815 305.657 167.713)" stroke-width="1.603" fill="#006700"/><path d="M320.26 487.2c0 59.825-11.597 108.32-25.903 108.32s-25.903-48.498-25.903-108.32c0-59.825 11.597-108.32 25.903-108.32s25.903 48.498 25.903 108.32z" transform="matrix(-.1093 .05115 .02062 .1251 251.876 157.51)" stroke-width="1.603" fill="#006700"/><path d="M320.26 487.2c0 59.825-11.597 108.32-25.903 108.32s-25.903-48.498-25.903-108.32c0-59.825 11.597-108.32 25.903-108.32s25.903 48.498 25.903 108.32z" transform="matrix(-.1116 .01644 -.00367 .1325 267.69 164.202)" stroke-width="1.603" fill="#006700"/><path d="M320.26 487.2c0 59.825-11.597 108.32-25.903 108.32s-25.903-48.498-25.903-108.32c0-59.825 11.597-108.32 25.903-108.32s25.903 48.498 25.903 108.32z" transform="matrix(-.05964 -.1118 -.08528 .08707 301.605 228.66)" stroke-width="1.603" fill="#006700"/><path d="M320.26 487.2c0 59.825-11.597 108.32-25.903 108.32s-25.903-48.498-25.903-108.32c0-59.825 11.597-108.32 25.903-108.32s25.903 48.498 25.903 108.32z" transform="matrix(-.08793 -.07285 -.06217 .11598 296.815 199.516)" stroke-width="1.603" fill="#006700"/><path d="M320.26 487.2c0 59.825-11.597 108.32-25.903 108.32s-25.903-48.498-25.903-108.32c0-59.825 11.597-108.32 25.903-108.32s25.903 48.498 25.903 108.32z" transform="matrix(-.10253 -.03785 -.03996 .1289 286.494 182.438)" stroke-width="1.603" fill="#006700"/><path d="M320.26 487.2c0 59.825-11.597 108.32-25.903 108.32s-25.903-48.498-25.903-108.32c0-59.825 11.597-108.32 25.903-108.32s25.903 48.498 25.903 108.32z" transform="matrix(-.07948 .09354 .06628 .1073 219.3 183.413)" stroke-width="1.603" fill="#006700"/><path d="M320.26 487.2c0 59.825-11.597 108.32-25.903 108.32s-25.903-48.498-25.903-108.32c0-59.825 11.597-108.32 25.903-108.32s25.903 48.498 25.903 108.32z" transform="matrix(-.09476 .0623 .04712 .12443 236.15 182.95)" stroke-width="1.603" fill="#006700"/><path d="M320.26 487.2c0 59.825-11.597 108.32-25.903 108.32s-25.903-48.498-25.903-108.32c0-59.825 11.597-108.32 25.903-108.32s25.903 48.498 25.903 108.32z" transform="matrix(-.09655 -.07852 -.04407 .1167 291.396 228.418)" stroke-width="1.603" fill="#006700"/><path d="M320.26 487.2c0 59.825-11.597 108.32-25.903 108.32s-25.903-48.498-25.903-108.32c0-59.825 11.597-108.32 25.903-108.32s25.903 48.498 25.903 108.32z" transform="matrix(-.10733 -.03046 -.01214 .13377 275.965 203.404)" stroke-width="1.603" fill="#006700"/><path d="M320.26 487.2c0 59.825-11.597 108.32-25.903 108.32s-25.903-48.498-25.903-108.32c0-59.825 11.597-108.32 25.903-108.32s25.903 48.498 25.903 108.32z" transform="matrix(-.10722 .00814 .01288 .13638 260.115 191.934)" stroke-width="1.603" fill="#006700"/><path d="M320.26 487.2c0 59.825-11.597 108.32-25.903 108.32s-25.903-48.498-25.903-108.32c0-59.825 11.597-108.32 25.903-108.32s25.903 48.498 25.903 108.32z" transform="matrix(-.05736 .13257 .10752 .09397 200.25 208.634)" stroke-width="1.603" fill="#006700"/><path d="M490.58 234.24c0 .846-.823 1.53-1.837 1.53s-1.838-.684-1.838-1.53.823-1.53 1.838-1.53 1.837.684 1.837 1.53z" transform="matrix(-.3609 -.51772 -.6829 .36836 623.79 344.45)" stroke-width=".332" fill="red"/><path d="M490.58 234.24c0 .846-.823 1.53-1.837 1.53s-1.838-.684-1.838-1.53.823-1.53 1.838-1.53 1.837.684 1.837 1.53z" transform="matrix(-.3609 -.51772 -.6829 .36836 626.264 348.937)" stroke-width=".332" fill="red"/><path d="M320.26 487.2c0 59.825-11.597 108.32-25.903 108.32s-25.903-48.498-25.903-108.32c0-59.825 11.597-108.32 25.903-108.32s25.903 48.498 25.903 108.32z" transform="matrix(-.08424 .10375 .09195 .11996 218.65 201.905)" stroke-width="1.603" fill="#006700"/><path d="M320.26 487.2c0 59.825-11.597 108.32-25.903 108.32s-25.903-48.498-25.903-108.32c0-59.825 11.597-108.32 25.903-108.32s25.903 48.498 25.903 108.32z" transform="matrix(-.13157 -.05104 -.0109 .14508 294.117 231.697)" stroke-width="1.603" fill="#006700"/><path d="M320.26 487.2c0 59.825-11.597 108.32-25.903 108.32s-25.903-48.498-25.903-108.32c0-59.825 11.597-108.32 25.903-108.32s25.903 48.498 25.903 108.32z" transform="matrix(-.12796 .00598 .02973 .15214 269.068 209.792)" stroke-width="1.603" fill="#006700"/><path d="M320.26 487.2c0 59.825-11.597 108.32-25.903 108.32s-25.903-48.498-25.903-108.32c0-59.825 11.597-108.32 25.903-108.32s25.903 48.498 25.903 108.32z" transform="matrix(-.1154 .04856 .0581 .14578 247.935 202.966)" stroke-width="1.603" fill="#006700"/><path d="M320.26 487.2c0 59.825-11.597 108.32-25.903 108.32s-25.903-48.498-25.903-108.32c0-59.825 11.597-108.32 25.903-108.32s25.903 48.498 25.903 108.32z" transform="matrix(.01562 .15993 .1541 .02593 175.175 260.355)" stroke-width="1.603" fill="#006700"/><path d="M490.58 234.24c0 .846-.823 1.53-1.837 1.53s-1.838-.684-1.838-1.53.823-1.53 1.838-1.53 1.837.684 1.837 1.53z" transform="matrix(-.55696 .7293 .91298 .68306 303.514 -210.764)" stroke-width=".332" fill="red"/><path d="M490.58 234.24c0 .846-.823 1.53-1.837 1.53s-1.838-.684-1.838-1.53.823-1.53 1.838-1.53 1.837.684 1.837 1.53z" transform="matrix(-.55696 .7293 .91298 .68306 308.7 -216.225)" stroke-width=".332" fill="red"/><path d="M320.26 487.2c0 59.825-11.597 108.32-25.903 108.32s-25.903-48.498-25.903-108.32c0-59.825 11.597-108.32 25.903-108.32s25.903 48.498 25.903 108.32z" transform="matrix(-.02575 .14837 .15298 .05983 189.326 243.094)" stroke-width="1.603" fill="#006700"/><path d="M320.26 487.2c0 59.825-11.597 108.32-25.903 108.32s-25.903-48.498-25.903-108.32c0-59.825 11.597-108.32 25.903-108.32s25.903 48.498 25.903 108.32z" transform="matrix(-.1543 .02908 .06715 .1444 278.107 226.906)" stroke-width="1.603" fill="#006700"/><path d="M320.26 487.2c0 59.825-11.597 108.32-25.903 108.32s-25.903-48.498-25.903-108.32c0-59.825 11.597-108.32 25.903-108.32s25.903 48.498 25.903 108.32z" transform="matrix(-.1203 .0812 .11015 .12715 242.208 220.848)" stroke-width="1.603" fill="#006700"/><path d="M320.26 487.2c0 59.825-11.597 108.32-25.903 108.32s-25.903-48.498-25.903-108.32c0-59.825 11.597-108.32 25.903-108.32s25.903 48.498 25.903 108.32z" transform="matrix(-.0854 .11427 .13414 .10435 218.156 226.833)" stroke-width="1.603" fill="#006700"/><g stroke-width="1.603" fill="#006700"><path d="M314.71 506.2c0 45.062-10.064 81.59-22.48 81.59s-22.478-36.53-22.478-81.59c0-45.062 10.064-81.59 22.48-81.59s22.478 36.53 22.478 81.59z" transform="matrix(.00062 .22366 .2102 .00315 176.194 267.534)"/><path d="M314.71 506.2c0 45.062-10.064 81.59-22.48 81.59s-22.478-36.53-22.478-81.59c0-45.062 10.064-81.59 22.48-81.59s22.478 36.53 22.478 81.59z" transform="matrix(-.16264 .13875 .13318 .17545 268.836 191.318)"/><path d="M314.71 506.2c0 45.062-10.064 81.59-22.48 81.59s-22.478-36.53-22.478-81.59c0-45.062 10.064-81.59 22.48-81.59s22.478 36.53 22.478 81.59z" transform="matrix(-.07747 .2065 .19542 .08596 208.106 223.32)"/></g><g stroke-width="1.603" fill="#006700"><path d="M314.71 506.2c0 45.062-10.064 81.59-22.48 81.59s-22.478-36.53-22.478-81.59c0-45.062 10.064-81.59 22.48-81.59s22.478 36.53 22.478 81.59z" transform="matrix(-.08997 -.05 -.09678 .0889 355.28 150.263)"/><path d="M314.71 506.2c0 45.062-10.064 81.59-22.48 81.59s-22.478-36.53-22.478-81.59c0-45.062 10.064-81.59 22.48-81.59s22.478 36.53 22.478 81.59z" transform="matrix(.01827 -.1005 -.13087 .01735 343.745 206.883)"/><path d="M314.71 506.2c0 45.062-10.064 81.59-22.48 81.59s-22.478-36.53-22.478-81.59c0-45.062 10.064-81.59 22.48-81.59s22.478 36.53 22.478 81.59z" transform="matrix(-.0476 -.07943 -.12327 .064 358.507 173.803)"/></g><path d="M490.58 234.24c0 .846-.823 1.53-1.837 1.53s-1.838-.684-1.838-1.53.823-1.53 1.838-1.53 1.837.684 1.837 1.53z" transform="matrix(-.92366 0 0 1.13277 681.006 -17.95)" stroke-width=".332" fill="red"/><path d="M490.58 234.24c0 .846-.823 1.53-1.837 1.53s-1.838-.684-1.838-1.53.823-1.53 1.838-1.53 1.837.684 1.837 1.53z" transform="matrix(-.92366 0 0 1.13277 688.543 -17.158)" stroke-width=".332" fill="red"/><path d="M490.58 234.24c0 .846-.823 1.53-1.837 1.53s-1.838-.684-1.838-1.53.823-1.53 1.838-1.53 1.837.684 1.837 1.53z" transform="matrix(-.7995 .45783 .57314 .9805 490.117 -175.877)" stroke-width=".332" fill="red"/><path d="M490.58 234.24c0 .846-.823 1.53-1.837 1.53s-1.838-.684-1.838-1.53.823-1.53 1.838-1.53 1.837.684 1.837 1.53z" transform="matrix(-.7995 .45783 .57314 .9805 497.04 -178.925)" stroke-width=".332" fill="red"/><path d="M490.58 234.24c0 .846-.823 1.53-1.837 1.53s-1.838-.684-1.838-1.53.823-1.53 1.838-1.53 1.837.684 1.837 1.53z" transform="matrix(-.4963 -.39284 -.5467 .5475 640.932 250.09)" stroke-width=".332" fill="red"/><path d="M490.58 234.24c0 .846-.823 1.53-1.837 1.53s-1.838-.684-1.838-1.53.823-1.53 1.838-1.53 1.837.684 1.837 1.53z" transform="matrix(-.4963 -.39284 -.5467 .5475 644.602 253.675)" stroke-width=".332" fill="red"/><g><path d="M490.58 234.24c0 .846-.823 1.53-1.837 1.53s-1.838-.684-1.838-1.53.823-1.53 1.838-1.53 1.837.684 1.837 1.53z" transform="matrix(.78044 -.48896 .6121 .95713 -140.244 213.732)" stroke-width=".332" fill="red"/><path d="M490.58 234.24c0 .846-.823 1.53-1.837 1.53s-1.838-.684-1.838-1.53.823-1.53 1.838-1.53 1.837.684 1.837 1.53z" transform="matrix(.78044 -.48896 .6121 .95713 -146.18 218.388)" stroke-width=".332" fill="red"/><path d="M259.03 105.71s400.32 70.645 414.45 395.62c14.13 324.97-188.39 367.36-259.03 419.16-70.645 51.807-113.03 113.03-146 113.03-32.968 0-80.065-14.13-80.065-14.13s9.42 51.81 75.355 47.1c65.936-4.71 127.16-113.03 164.84-131.87s277.88-98.9 259.04-428.58c-14.13-353.23-423.88-390.91-428.59-400.33z" transform="matrix(.1705 .03977 -.04248 .18065 309.6 149.37)" stroke-width="1.603" fill="#006700"/><path d="M320.26 487.2c0 59.825-11.597 108.32-25.903 108.32s-25.903-48.498-25.903-108.32c0-59.825 11.597-108.32 25.903-108.32s25.903 48.498 25.903 108.32z" transform="matrix(.08296 -.0065 .0204 .08168 345.723 153.66)" stroke-width="1.603" fill="#006700"/><path d="M320.26 487.2c0 59.825-11.597 108.32-25.903 108.32s-25.903-48.498-25.903-108.32c0-59.825 11.597-108.32 25.903-108.32s25.903 48.498 25.903 108.32z" transform="matrix(.07512 -.028 .0378 .0779 337.496 163.01)" stroke-width="1.603" fill="#006700"/><path d="M320.26 487.2c0 59.825-11.597 108.32-25.903 108.32s-25.903-48.498-25.903-108.32c0-59.825 11.597-108.32 25.903-108.32s25.903 48.498 25.903 108.32z" transform="matrix(.00787 -.08697 .07735 .0231 333.247 213)" stroke-width="1.603" fill="#006700"/><path d="M320.26 487.2c0 59.825-11.597 108.32-25.903 108.32s-25.903-48.498-25.903-108.32c0-59.825 11.597-108.32 25.903-108.32s25.903 48.498 25.903 108.32z" transform="matrix(.03623 -.0733 .07044 .0482 328.493 193.972)" stroke-width="1.603" fill="#006700"/><path d="M320.26 487.2c0 59.825-11.597 108.32-25.903 108.32s-25.903-48.498-25.903-108.32c0-59.825 11.597-108.32 25.903-108.32s25.903 48.498 25.903 108.32z" transform="matrix(.05484 -.05735 .05982 .06343 330.464 180.283)" stroke-width="1.603" fill="#006700"/><path d="M490.58 234.24c0 .846-.823 1.53-1.837 1.53s-1.838-.684-1.838-1.53.823-1.53 1.838-1.53 1.837.684 1.837 1.53z" transform="matrix(.87808 -.28365 .3551 1.07687 -109.935 108.047)" stroke-width=".332" fill="red"/><path d="M490.58 234.24c0 .846-.823 1.53-1.837 1.53s-1.838-.684-1.838-1.53.823-1.53 1.838-1.53 1.837.684 1.837 1.53z" transform="matrix(.87808 -.28365 .3551 1.07687 -116.846 111.12)" stroke-width=".332" fill="red"/><path d="M320.26 487.2c0 59.825-11.597 108.32-25.903 108.32s-25.903-48.498-25.903-108.32c0-59.825 11.597-108.32 25.903-108.32s25.903 48.498 25.903 108.32z" transform="matrix(.117 .02858 .00175 .1263 363.605 137.315)" stroke-width="1.603" fill="#006700"/><path d="M320.26 487.2c0 59.825-11.597 108.32-25.903 108.32s-25.903-48.498-25.903-108.32c0-59.825 11.597-108.32 25.903-108.32s25.903 48.498 25.903 108.32z" transform="matrix(.11312 -.0058 .02706 .1288 349.17 146.945)" stroke-width="1.603" fill="#006700"/><path d="M320.26 487.2c0 59.825-11.597 108.32-25.903 108.32s-25.903-48.498-25.903-108.32c0-59.825 11.597-108.32 25.903-108.32s25.903 48.498 25.903 108.32z" transform="matrix(.03914 -.12097 .09962 .0684 327.065 216.597)" stroke-width="1.603" fill="#006700"/><path d="M320.26 487.2c0 59.825-11.597 108.32-25.903 108.32s-25.903-48.498-25.903-108.32c0-59.825 11.597-108.32 25.903-108.32s25.903 48.498 25.903 108.32z" transform="matrix(.07397 -.08843 .0819 .10118 326.646 187.17)" stroke-width="1.603" fill="#006700"/><path d="M320.26 487.2c0 59.825-11.597 108.32-25.903 108.32s-25.903-48.498-25.903-108.32c0-59.825 11.597-108.32 25.903-108.32s25.903 48.498 25.903 108.32z" transform="matrix(.09457 -.0571 .06226 .11815 333.826 168.46)" stroke-width="1.603" fill="#006700"/><path d="M320.26 487.2c0 59.825-11.597 108.32-25.903 108.32s-25.903-48.498-25.903-108.32c0-59.825 11.597-108.32 25.903-108.32s25.903 48.498 25.903 108.32z" transform="matrix(.1093 .05115 -.02062 .1251 387.607 158.257)" stroke-width="1.603" fill="#006700"/><path d="M320.26 487.2c0 59.825-11.597 108.32-25.903 108.32s-25.903-48.498-25.903-108.32c0-59.825 11.597-108.32 25.903-108.32s25.903 48.498 25.903 108.32z" transform="matrix(.1116 .01644 .00367 .1325 371.794 164.95)" stroke-width="1.603" fill="#006700"/><path d="M320.26 487.2c0 59.825-11.597 108.32-25.903 108.32s-25.903-48.498-25.903-108.32c0-59.825 11.597-108.32 25.903-108.32s25.903 48.498 25.903 108.32z" transform="matrix(.05964 -.1118 .08528 .08707 337.878 229.408)" stroke-width="1.603" fill="#006700"/><path d="M320.26 487.2c0 59.825-11.597 108.32-25.903 108.32s-25.903-48.498-25.903-108.32c0-59.825 11.597-108.32 25.903-108.32s25.903 48.498 25.903 108.32z" transform="matrix(.08793 -.07285 .06217 .11598 342.668 200.262)" stroke-width="1.603" fill="#006700"/><path d="M320.26 487.2c0 59.825-11.597 108.32-25.903 108.32s-25.903-48.498-25.903-108.32c0-59.825 11.597-108.32 25.903-108.32s25.903 48.498 25.903 108.32z" transform="matrix(.10253 -.03785 .03996 .1289 352.99 183.185)" stroke-width="1.603" fill="#006700"/><path d="M320.26 487.2c0 59.825-11.597 108.32-25.903 108.32s-25.903-48.498-25.903-108.32c0-59.825 11.597-108.32 25.903-108.32s25.903 48.498 25.903 108.32z" transform="matrix(.07948 .09354 -.06628 .1073 420.182 184.16)" stroke-width="1.603" fill="#006700"/><path d="M320.26 487.2c0 59.825-11.597 108.32-25.903 108.32s-25.903-48.498-25.903-108.32c0-59.825 11.597-108.32 25.903-108.32s25.903 48.498 25.903 108.32z" transform="matrix(.09476 .0623 -.04712 .12443 403.334 183.697)" stroke-width="1.603" fill="#006700"/><path d="M320.26 487.2c0 59.825-11.597 108.32-25.903 108.32s-25.903-48.498-25.903-108.32c0-59.825 11.597-108.32 25.903-108.32s25.903 48.498 25.903 108.32z" transform="matrix(.09655 -.07852 .04407 .1167 348.087 229.164)" stroke-width="1.603" fill="#006700"/><path d="M320.26 487.2c0 59.825-11.597 108.32-25.903 108.32s-25.903-48.498-25.903-108.32c0-59.825 11.597-108.32 25.903-108.32s25.903 48.498 25.903 108.32z" transform="matrix(.10733 -.03046 .01214 .13377 363.518 204.15)" stroke-width="1.603" fill="#006700"/><path d="M320.26 487.2c0 59.825-11.597 108.32-25.903 108.32s-25.903-48.498-25.903-108.32c0-59.825 11.597-108.32 25.903-108.32s25.903 48.498 25.903 108.32z" transform="matrix(.10722 .00814 -.01288 .13638 379.368 192.68)" stroke-width="1.603" fill="#006700"/><path d="M320.26 487.2c0 59.825-11.597 108.32-25.903 108.32s-25.903-48.498-25.903-108.32c0-59.825 11.597-108.32 25.903-108.32s25.903 48.498 25.903 108.32z" transform="matrix(.05736 .13257 -.10752 .09397 439.234 209.38)" stroke-width="1.603" fill="#006700"/><path d="M490.58 234.24c0 .846-.823 1.53-1.837 1.53s-1.838-.684-1.838-1.53.823-1.53 1.838-1.53 1.837.684 1.837 1.53z" transform="matrix(.3609 -.51772 .6829 .36836 15.694 345.198)" stroke-width=".332" fill="red"/><path d="M490.58 234.24c0 .846-.823 1.53-1.837 1.53s-1.838-.684-1.838-1.53.823-1.53 1.838-1.53 1.837.684 1.837 1.53z" transform="matrix(.3609 -.51772 .6829 .36836 13.218 349.683)" stroke-width=".332" fill="red"/><path d="M320.26 487.2c0 59.825-11.597 108.32-25.903 108.32s-25.903-48.498-25.903-108.32c0-59.825 11.597-108.32 25.903-108.32s25.903 48.498 25.903 108.32z" transform="matrix(.08424 .10375 -.09195 .11996 420.834 202.652)" stroke-width="1.603" fill="#006700"/><path d="M320.26 487.2c0 59.825-11.597 108.32-25.903 108.32s-25.903-48.498-25.903-108.32c0-59.825 11.597-108.32 25.903-108.32s25.903 48.498 25.903 108.32z" transform="matrix(.13157 -.05104 .0109 .14508 345.365 232.443)" stroke-width="1.603" fill="#006700"/><path d="M320.26 487.2c0 59.825-11.597 108.32-25.903 108.32s-25.903-48.498-25.903-108.32c0-59.825 11.597-108.32 25.903-108.32s25.903 48.498 25.903 108.32z" transform="matrix(.12796 .00598 -.02973 .15214 370.415 210.538)" stroke-width="1.603" fill="#006700"/><path d="M320.26 487.2c0 59.825-11.597 108.32-25.903 108.32s-25.903-48.498-25.903-108.32c0-59.825 11.597-108.32 25.903-108.32s25.903 48.498 25.903 108.32z" transform="matrix(.1154 .04856 -.0581 .14578 391.548 203.712)" stroke-width="1.603" fill="#006700"/><path d="M320.26 487.2c0 59.825-11.597 108.32-25.903 108.32s-25.903-48.498-25.903-108.32c0-59.825 11.597-108.32 25.903-108.32s25.903 48.498 25.903 108.32z" transform="matrix(-.01562 .15993 -.1541 .02593 464.308 261.1)" stroke-width="1.603" fill="#006700"/><path d="M490.58 234.24c0 .846-.823 1.53-1.837 1.53s-1.838-.684-1.838-1.53.823-1.53 1.838-1.53 1.837.684 1.837 1.53z" transform="matrix(.55696 .7293 -.91298 .68306 335.97 -210.018)" stroke-width=".332" fill="red"/><path d="M490.58 234.24c0 .846-.823 1.53-1.837 1.53s-1.838-.684-1.838-1.53.823-1.53 1.838-1.53 1.837.684 1.837 1.53z" transform="matrix(.55696 .7293 -.91298 .68306 330.784 -215.48)" stroke-width=".332" fill="red"/><path d="M320.26 487.2c0 59.825-11.597 108.32-25.903 108.32s-25.903-48.498-25.903-108.32c0-59.825 11.597-108.32 25.903-108.32s25.903 48.498 25.903 108.32z" transform="matrix(.02575 .14837 -.15298 .05983 450.157 243.84)" stroke-width="1.603" fill="#006700"/><path d="M320.26 487.2c0 59.825-11.597 108.32-25.903 108.32s-25.903-48.498-25.903-108.32c0-59.825 11.597-108.32 25.903-108.32s25.903 48.498 25.903 108.32z" transform="matrix(.1543 .02908 -.06715 .1444 361.375 227.653)" stroke-width="1.603" fill="#006700"/><path d="M320.26 487.2c0 59.825-11.597 108.32-25.903 108.32s-25.903-48.498-25.903-108.32c0-59.825 11.597-108.32 25.903-108.32s25.903 48.498 25.903 108.32z" transform="matrix(.1203 .0812 -.11015 .12715 397.275 221.594)" stroke-width="1.603" fill="#006700"/><path d="M320.26 487.2c0 59.825-11.597 108.32-25.903 108.32s-25.903-48.498-25.903-108.32c0-59.825 11.597-108.32 25.903-108.32s25.903 48.498 25.903 108.32z" transform="matrix(.0854 .11427 -.13414 .10435 421.327 227.58)" stroke-width="1.603" fill="#006700"/><g stroke-width="1.603" fill="#006700"><path d="M314.71 506.2c0 45.062-10.064 81.59-22.48 81.59s-22.478-36.53-22.478-81.59c0-45.062 10.064-81.59 22.48-81.59s22.478 36.53 22.478 81.59z" transform="matrix(-.00062 .22366 -.2102 .00315 463.29 268.28)"/><path d="M314.71 506.2c0 45.062-10.064 81.59-22.48 81.59s-22.478-36.53-22.478-81.59c0-45.062 10.064-81.59 22.48-81.59s22.478 36.53 22.478 81.59z" transform="matrix(.16264 .13875 -.13318 .17545 370.647 192.065)"/><path d="M314.71 506.2c0 45.062-10.064 81.59-22.48 81.59s-22.478-36.53-22.478-81.59c0-45.062 10.064-81.59 22.48-81.59s22.478 36.53 22.478 81.59z" transform="matrix(.07747 .2065 -.19542 .08596 431.377 224.068)"/></g><g stroke-width="1.603" fill="#006700"><path d="M314.71 506.2c0 45.062-10.064 81.59-22.48 81.59s-22.478-36.53-22.478-81.59c0-45.062 10.064-81.59 22.48-81.59s22.478 36.53 22.478 81.59z" transform="matrix(.08997 -.05 .09678 .0889 284.204 151.01)"/><path d="M314.71 506.2c0 45.062-10.064 81.59-22.48 81.59s-22.478-36.53-22.478-81.59c0-45.062 10.064-81.59 22.48-81.59s22.478 36.53 22.478 81.59z" transform="matrix(-.01827 -.1005 .13087 .01735 295.737 207.63)"/><path d="M314.71 506.2c0 45.062-10.064 81.59-22.48 81.59s-22.478-36.53-22.478-81.59c0-45.062 10.064-81.59 22.48-81.59s22.478 36.53 22.478 81.59z" transform="matrix(.0476 -.07943 .12327 .064 280.976 174.55)"/></g><path d="M490.58 234.24c0 .846-.823 1.53-1.837 1.53s-1.838-.684-1.838-1.53.823-1.53 1.838-1.53 1.837.684 1.837 1.53z" transform="matrix(.92366 0 0 1.13277 -41.524 -17.204)" stroke-width=".332" fill="red"/><path d="M490.58 234.24c0 .846-.823 1.53-1.837 1.53s-1.838-.684-1.838-1.53.823-1.53 1.838-1.53 1.837.684 1.837 1.53z" transform="matrix(.92366 0 0 1.13277 -49.06 -16.412)" stroke-width=".332" fill="red"/><path d="M490.58 234.24c0 .846-.823 1.53-1.837 1.53s-1.838-.684-1.838-1.53.823-1.53 1.838-1.53 1.837.684 1.837 1.53z" transform="matrix(.7995 .45783 -.57314 .9805 149.365 -175.13)" stroke-width=".332" fill="red"/><path d="M490.58 234.24c0 .846-.823 1.53-1.837 1.53s-1.838-.684-1.838-1.53.823-1.53 1.838-1.53 1.837.684 1.837 1.53z" transform="matrix(.7995 .45783 -.57314 .9805 142.444 -178.178)" stroke-width=".332" fill="red"/><path d="M490.58 234.24c0 .846-.823 1.53-1.837 1.53s-1.838-.684-1.838-1.53.823-1.53 1.838-1.53 1.837.684 1.837 1.53z" transform="matrix(.4963 -.39284 .5467 .5475 -1.45 250.837)" stroke-width=".332" fill="red"/><path d="M490.58 234.24c0 .846-.823 1.53-1.837 1.53s-1.838-.684-1.838-1.53.823-1.53 1.838-1.53 1.837.684 1.837 1.53z" transform="matrix(.4963 -.39284 .5467 .5475 -5.12 254.42)" stroke-width=".332" fill="red"/></g><g stroke-width=".235" fill="#5387f4"><path d="M411.36 319.5l.037 5.258c10.21-.517 5.263 6.977 7.03 11.223l2.254-2.826 3.123 2.803c-.25-4.908 2.748-17.395-12.443-16.457z" transform="matrix(1.23154 0 0 1.21897 -188.93 -46.703)"/><path d="M411.36 319.5l.037 5.258c10.21-.517 5.263 6.977 7.03 11.223l2.254-2.826 3.123 2.803c-.25-4.908 2.748-17.395-12.443-16.457z" transform="matrix(-1.23154 0 0 1.21897 828.776 -46.44)"/><path d="M427.88 303.13c.325 1.9-.45 11.372-.865 13.64-.537 1.924-.447 6.71-10.395 7.148-4.776.21-3.898-4.548-3.68-4.548.215 0 1.948 1.733 3.897 0 1.948-1.732-.444-17.53 1.515-19.488 2.156-2.155 9.985 1.496 9.528 3.248z" transform="matrix(1.10427 .53966 -.54523 1.093 37.56 -229.524)"/><path d="M427.88 303.13c-2.057-.264-3.16-.732-3.68 1.516-2.053 9.068 2.368 17.1-7.58 19.272-4.665 1.04-3.898-4.548-3.68-4.548.215 0 1.948 1.733 3.897 0 1.948-1.732-.444-17.53 1.515-19.488 2.156-2.155 9.985 1.496 9.528 3.248z" transform="matrix(1.10427 .53966 -.54523 1.093 37.56 -229.524)"/><path d="M427.88 303.13c.325 1.9-.45 11.372-.865 13.64-.537 1.924-.447 6.71-10.395 7.148-4.776.21-3.898-4.548-3.68-4.548.215 0 1.948 1.733 3.897 0 1.948-1.732-.444-17.53 1.515-19.488 2.156-2.155 9.985 1.496 9.528 3.248z" transform="matrix(-1.10427 .53967 -.54524 -1.093 604.277 -229.525)"/><path d="M427.88 303.13c-2.057-.264-3.16-.732-3.68 1.516-2.053 9.068 2.368 17.1-7.58 19.272-4.665 1.04-3.898-4.548-3.68-4.548.215 0 1.948 1.733 3.897 0 1.948-1.732-.444-17.53 1.515-19.488 2.156-2.155 9.985 1.496 9.528 3.248z" transform="matrix(-1.10427 .53967 -.54524 -1.093 604.277 -229.525)"/><path d="M411.57 319.06l-.18 6.774 5.08-.037.613-6.737h-5.513z" transform="matrix(1.23154 0 0 1.21897 -189.463 -46.703)"/></g></g><path d="M409.69 276.93s-14.322 12.064-14.322 20.725c.306 3.457 3.17 6.98 8.407 9.52-2.418-3.586-2.747-6.52-2.747-9.93.306-5.86 8.46-12.932 8.46-12.932l.202-7.383z" fill-rule="evenodd" transform="matrix(-.91556 0 0 .92276 694.05 21.508)" stroke="#000" stroke-width=".235" fill="#5387f4"/><g stroke="#000" fill-rule="evenodd"><path transform="matrix(.00165 -1.31332 -1.09945 -.16644 -146.645 388.154)" stroke-width=".176" fill="#ffd200" d="M172.65-427.57h49.93v2.055h-49.93z"/><path d="M283.46-389.76l-17.717 70.866 17.717 25.037 17.716-25.037-17.716-70.866z" transform="matrix(-.19173 -.037 -.00194 .20492 376.397 239.79)" stroke-width="1.066" fill="#ffd200"/><path d="M368.98-419.45s-40.71-27.717-40.71.866c0 28.582 39.844.866 40.71-.866zm-7.795-.18s-28.583-19.343-28.583.603c0 19.945 27.975.604 28.583-.604z" transform="matrix(-.14887 -.01173 .00454 .10625 378.688 217.396)" stroke-width="1.685"/><path d="M368.98-419.45s-40.71-27.717-40.71.866c0 28.582 39.844.866 40.71-.866zm-7.795-.18s-28.583-19.343-28.583.603c0 19.945 27.975.604 28.583-.604z" transform="matrix(.14557 -.01662 -.02016 -.106 260.817 130.548)" stroke-width="1.685"/><path d="M422.29-165.7l2.45-.306s1.766 2.602 3.675 6.737c1.68 4.332 3.368 11.33 4.9 27.256-4.594-.307-21.437 1.53-21.437 1.53s.236-19.168 6.125-26.028c2.757-2.906 4.593-8.575 4.287-9.188z" transform="matrix(1.1084 0 0 1.31332 -146.645 388.154)" stroke-width=".175" fill="#5387f4"/><path d="M422.29-165.7l2.45-.306s1.766 2.602 3.675 6.737c1.68 4.332-4.9 11.637-3.37 27.562-4.592-.307-13.167 1.225-13.167 1.225s.236-19.17 6.125-26.03c2.757-2.905 4.593-8.574 4.287-9.187z" transform="matrix(1.1084 0 0 1.31332 -146.645 388.154)" stroke-width=".175" fill="#fff"/><path d="M422.29-165.7l2.45-.306s-.613 7.962-2.756 11.943c-2.144 3.98-3.37 22.967-3.063 22.967.308 0-7.042.613-7.042.613s.236-19.17 6.125-26.03c2.757-2.905 4.593-8.574 4.287-9.187z" transform="matrix(1.1084 0 0 1.31332 -146.645 388.154)" stroke-width=".175" fill="#5387f4"/></g><path d="M409.69 276.93s-14.322 12.064-14.322 20.725c.306 3.457 3.17 6.98 8.407 9.52-2.418-3.586-2.747-6.52-2.747-9.93.306-5.86 8.46-12.932 8.46-12.932l.202-7.383z" fill-rule="evenodd" transform="matrix(.9419 0 0 .89808 -62.118 28.724)" stroke="#000" stroke-width=".235" fill="#5387f4"/><g stroke="#000" fill-rule="evenodd"><path d="M407.48-248.03l106.3-106.3s-27.516 220.02-88.583 265.75c0 0-53.15 24.117-53.15-.135l35.433-159.31z" transform="matrix(-.4404 0 0 .32057 483.344 304.226)" stroke-width=".837" fill="#5387f4"/><path d="M407.48-248.03l70.866-70.867s-35.433 230.31-106.3 230.31v-.135l35.433-159.31z" transform="matrix(-.4404 0 0 .32057 483.344 304.226)" stroke-width=".837" fill="#fff"/><path d="M407.48-248.03l35.433-35.434s-35.433 194.88-70.866 194.88v-.135l35.433-159.31z" transform="matrix(-.4404 0 0 .32057 483.344 304.226)" stroke-width=".837" fill="#5387f4"/><path transform="scale(.4404 .32057) rotate(-136.008 801.264 403.428)" stroke-width=".816" fill="#ffd200" d="M678.85-116.49h177.17v7.323H678.85z"/><path d="M283.46-389.76l-17.717 70.866 17.717 25.037 17.716-25.037-17.716-70.866z" transform="matrix(-.19695 .13855 .17397 .12468 355.466 182.922)" stroke-width="1.729" fill="#ffd200"/><path d="M368.98-419.45s-40.71-27.717-40.71.866c0 28.582 39.844.866 40.71-.866zm-7.795-.18s-28.583-19.343-28.583.603c0 19.945 27.975.604 28.583-.604z" transform="matrix(-.17035 .0845 .07313 .07812 340.876 187.214)" stroke-width=".837"/><path d="M368.98-419.45s-40.71-27.717-40.71.866c0 28.582 39.844.866 40.71-.866zm-7.795-.18s-28.583-19.343-28.583.603c0 19.945 27.975.604 28.583-.604z" transform="matrix(.14855 -.10403 -.09004 -.06813 156.24 195.007)" stroke-width=".837"/><path d="M407.48-248.03l106.3-53.15S496.063-79.79 407.48-79.79c-53.15 0-70.866-70.866-70.866-70.866l70.866-97.378z" transform="matrix(-.4404 0 0 .32057 475.54 318.443)" stroke-width=".837" fill="#5387f4"/><path d="M407.48-248.03l70.866-35.434c0 35.434-17.716 185.96-70.866 185.96-35.433 0-70.866-53.15-70.866-53.15l70.866-97.378z" transform="matrix(-.4404 0 0 .32057 475.54 318.443)" stroke-width=".837" fill="#fff"/><path d="M407.48-248.03l35.433-17.717c0 79.662-17.716 150.53-53.15 150.53-17.716 0-53.15-35.433-53.15-35.433l70.867-97.378z" transform="matrix(-.4404 0 0 .32057 475.54 318.443)" stroke-width=".837" fill="#5387f4"/><path transform="scale(.4404 .32057) rotate(-153.483 696.048 495.795)" stroke-width=".816" fill="#ffd200" d="M569.18-267.74h177.17v7.323H569.18z"/><path d="M283.46-389.76l-17.717 70.866 17.717 25.037 17.716-25.037-17.716-70.866z" transform="matrix(-.1307 .1752 .21738 .0809 344.452 193.24)" stroke-width="1.729" fill="#ffd200"/><path d="M368.98-419.45s-40.71-27.717-40.71.866c0 28.582 39.844.866 40.71-.866zm-7.795-.18s-28.583-19.343-28.583.603c0 19.945 27.975.604 28.583-.604z" transform="matrix(-.12764 .11784 .102 .05853 332.305 200.52)" stroke-width=".837"/><path d="M368.98-419.45s-40.71-27.717-40.71.866c0 28.582 39.844.866 40.71-.866zm-7.795-.18s-28.583-19.343-28.583.603c0 19.945 27.975.604 28.583-.604z" transform="matrix(.09878 -.1317 -.114 -.0453 159.406 248.315)" stroke-width=".837"/></g><g stroke="#000" fill-rule="evenodd"><path d="M407.48-248.03l106.3-106.3s-27.516 220.02-88.583 265.75c0 0-53.15 24.117-53.15-.135l35.433-159.31z" transform="matrix(.43417 0 0 .3206 162.313 304.22)" stroke-width=".837" fill="#5387f4"/><path d="M407.48-248.03l70.866-70.867s-35.433 230.31-106.3 230.31v-.135l35.433-159.31z" transform="matrix(.43417 0 0 .3206 162.313 304.22)" stroke-width=".837" fill="#fff"/><path d="M407.48-248.03l35.433-35.434s-35.433 194.88-70.866 194.88v-.135l35.433-159.31z" transform="matrix(.43417 0 0 .3206 162.313 304.22)" stroke-width=".837" fill="#5387f4"/><path transform="scale(.43417 .3206) rotate(-43.992 1734.324 162.317)" stroke-width=".816" fill="#ffd200" d="M678.85-116.49h177.17v7.323H678.85z"/><path d="M283.46-389.76l-17.717 70.866 17.717 25.037 17.716-25.037-17.716-70.866z" transform="matrix(.19416 .13855 -.1715 .1247 288.382 182.91)" stroke-width="1.729" fill="#ffd200"/><path d="M368.98-419.45s-40.71-27.717-40.71.866c0 28.582 39.844.866 40.71-.866zm-7.795-.18s-28.583-19.343-28.583.603c0 19.945 27.975.604 28.583-.604z" transform="matrix(.16794 .0845 -.0721 .07813 302.766 187.203)" stroke-width=".837"/><path d="M368.98-419.45s-40.71-27.717-40.71.866c0 28.582 39.844.866 40.71-.866zm-7.795-.18s-28.583-19.343-28.583.603c0 19.945 27.975.604 28.583-.604z" transform="matrix(-.14645 -.10404 .08877 -.06813 484.79 194.997)" stroke-width=".837"/><path d="M407.48-248.03l106.3-53.15S496.063-79.79 407.48-79.79c-53.15 0-70.866-70.866-70.866-70.866l70.866-97.378z" transform="matrix(.43417 0 0 .3206 170.005 318.44)" stroke-width=".837" fill="#5387f4"/><path d="M407.48-248.03l70.866-35.434c0 35.434-17.716 185.96-70.866 185.96-35.433 0-70.866-53.15-70.866-53.15l70.866-97.378z" transform="matrix(.43417 0 0 .3206 170.005 318.44)" stroke-width=".837" fill="#fff"/><path d="M407.48-248.03l35.433-17.717c0 79.662-17.716 150.53-53.15 150.53-17.716 0-53.15-35.433-53.15-35.433l70.867-97.378z" transform="matrix(.43417 0 0 .3206 170.005 318.44)" stroke-width=".837" fill="#5387f4"/><path transform="matrix(.3885 -.14313 .19384 .28686 162.313 400.775)" stroke-width=".816" fill="#ffd200" d="M569.18-267.74h177.17v7.323H569.18z"/><path d="M283.46-389.76l-17.717 70.866 17.717 25.037 17.716-25.037-17.716-70.866z" transform="matrix(.12886 .1752 -.2143 .0809 299.24 193.23)" stroke-width="1.729" fill="#ffd200"/><path d="M368.98-419.45s-40.71-27.717-40.71.866c0 28.582 39.844.866 40.71-.866zm-7.795-.18s-28.583-19.343-28.583.603c0 19.945 27.975.604 28.583-.604z" transform="matrix(.12583 .11784 -.10054 .05854 311.215 200.51)" stroke-width=".837"/><path d="M368.98-419.45s-40.71-27.717-40.71.866c0 28.582 39.844.866 40.71-.866zm-7.795-.18s-28.583-19.343-28.583.603c0 19.945 27.975.604 28.583-.604z" transform="matrix(-.09738 -.1317 .11238 -.0453 481.67 248.307)" stroke-width=".837"/></g><g stroke-linejoin="bevel" stroke="#000" stroke-width=".105"><path d="M496.06 627.16l17.717-17.716 17.716 17.716H496.06z" fill-rule="evenodd" transform="matrix(3.30903 0 0 5.6454 -1377.997 -3255.392)" fill="#ffd200"/><path d="M496.06 627.16l17.717-17.716 17.716 17.716H496.06z" fill-rule="evenodd" transform="matrix(2.98206 0 0 5.11552 -1209.805 -2925.905)" fill="#0ff"/><path d="M419.84 239.14c0 3.89-3.222 7.043-7.196 7.043-3.975 0-7.197-3.153-7.197-7.043s3.222-7.043 7.197-7.043c3.974 0 7.196 3.153 7.196 7.043z" fill-rule="evenodd" fill="#ffd200" transform="matrix(1.23154 0 0 1.21897 -185.69 -52.675)"/><g fill="none"><path d="M462.73 556.66l-1.18-108.32M468.62 563.73l38.855-54.162M474.51 569.61l62.4-25.9M479.22 577.86l73 2.355M474.51 587.28l42.388 37.677M462.73 583.74v34.146M449.78 575.5l-55.34 48.275M455.67 579.03l-24.726 45.92M446.25 569.61l-91.84 31.79M445.07 564.9l-64.76-2.355M393.26 537.82l56.517 18.84M420.34 489.55l34.146 65.936" transform="matrix(.2982 0 0 .29534 184.584 70.562)"/></g><g fill-rule="evenodd"><path d="M460.63 219.69c-35.433 0-61.25 6.505-83.044 14.145l5.54-9.58 5.53-9.594 5.54-9.595 5.54-9.578 5.53-9.595 5.54-9.58 6.13-9.768c8.26-7.257 25.98-10.652 43.69-10.652 17.72 0 35.44 3.586 44.3 10.826l5.54 9.595 5.53 9.58 5.54 9.594 5.54 9.578 5.53 9.596 5.54 9.596 5.53 9.58c-22.972-7.64-47.613-14.146-83.046-14.146z" transform="matrix(.2982 0 0 .29534 184.966 165.02)" fill="#c453d7"/><path d="M460.63 212.93c-35.548-.05-75.28 10.597-77.504 11.33l5.53-9.596 5.54-9.596 5.54-9.578 5.53-9.595 5.54-9.58 6.13-9.768c8.26-7.257 25.98-10.652 43.69-10.652 17.72 0 35.44 3.586 44.3 10.826l5.54 9.596 5.53 9.58 5.54 9.594 5.54 9.578 5.53 9.596 5.54 9.595s-42.083-11.33-77.516-11.33z" transform="matrix(.2982 0 0 .29534 184.97 165.02)" fill="#5000c1"/><path d="M460.63 205.27c-26.248-.11-68.686 7.14-71.68 8.504l5.246-8.713 5.54-9.577 5.53-9.595 5.54-9.58 6.13-9.768c8.26-7.257 25.98-10.652 43.69-10.652 17.72 0 35.44 3.586 44.3 10.826l5.54 9.595 5.53 9.578 5.54 9.595 5.54 9.578 5.53 9.597s-36.543-9.387-71.976-9.387z" transform="matrix(.2982 0 0 .29534 184.966 165.018)" fill="#0053d7"/><path d="M460.63 197.32c-34.802-.07-63.717 6.63-66.434 7.74l5.54-9.58 5.53-9.594 5.54-9.58 6.13-9.768c8.26-7.257 25.98-10.652 43.69-10.652 17.72 0 35.44 3.586 44.3 10.826l5.54 9.595 5.53 9.58 5.54 9.594 5.54 9.58s-31.013-7.74-66.446-7.74z" transform="matrix(.2982 0 0 .29534 184.96 165.018)" fill="#009f9f"/><path d="M460.63 190.56c-35.605-.123-57.963 4.465-60.894 4.93l5.53-9.594 5.54-9.58 6.13-9.768c8.26-7.257 25.98-10.652 43.69-10.652 17.72 0 35.44 3.586 44.3 10.826l5.54 9.595 5.53 9.58 5.54 9.594s-25.473-4.93-60.906-4.93z" transform="matrix(.2982 0 0 .29534 184.966 165.016)" fill="#ff0"/><path d="M460.34 181.72c-31.014-.67-53.786 4.25-55.07 4.167l5.54-9.58 6.13-9.768c8.26-7.258 25.98-10.653 43.69-10.653 17.72 0 35.44 3.586 44.3 10.826l5.54 9.595 5.53 9.58s-20.227-4.168-55.66-4.168z" transform="matrix(.2982 0 0 .29534 184.962 165.016)" fill="#f50"/><path d="M461.51 171.42c-31.13.257-47.247 4.34-50.707 4.89l6.13-9.768c8.26-7.257 25.98-10.652 43.69-10.652 17.72 0 35.44 3.586 44.3 10.826l5.54 9.595s-13.52-4.89-48.953-4.89z" transform="matrix(.2982 0 0 .29534 184.957 165.02)" fill="#ff0b00"/></g><path d="M496.06 627.16l4.983-4.983h25.467l4.983 4.983H496.06z" fill-rule="evenodd" transform="matrix(2.98206 0 0 5.11552 -1209.805 -2925.905)" fill="#4363ff"/><path d="M438.01 565.49c.41 0 .727-1.87 1.766-3.532 2.222-1.61 4.568-2.87 7.653-3.533 1.664-.832 5.08-.588 7.652-.588 3.61.324 3.837 1.865 5.888 4.12.902 1.838 3.038 4.39 4.12 7.065 1.173 1.42 2.108 3.626 2.944 5.3.855 1.803 1.765 4.525 2.944 7.063.605 2.824 1.177 5.028 1.177 8.242 0 3.352-.554 4.78-1.177 7.065-1.794.598-5.29.888-7.065 0-1.9-1.7-5.162-.617-6.475-2.355-3.386-.474-4.208-4.46-5.888-6.475-1.175-1.73-1.156-3.032-2.355-4.71-1.857-1.327-2.108-2.945-2.943-5.3.736-2.516 2.015-3.067 4.12-4.12 1.128-1.644 1.767-2.304 1.767-5.298-.425-3.334-1.626-2.982-4.71-3.533-3.815 0-5.77.394-9.42.59z" fill-rule="evenodd" transform="matrix(.20052 0 0 .1543 231.432 150.307)" fill="red"/><g fill-rule="evenodd" fill="#6da700"><path d="M334.69 674.38s28.307-4.996 46.624-19.982c18.316-14.986 18.317-39.964 26.642-39.964 8.326 0 9.99 28.308 29.973 38.3 19.98 9.99 51.62 23.31 51.62 23.31l-154.86-1.664z" transform="matrix(.12688 -.01548 .04305 .17272 266.317 165.382)"/><path d="M334.69 674.38s28.307-4.996 46.624-19.982c18.316-14.986 18.317-39.964 26.642-39.964 8.326 0 9.99 28.308 29.973 38.3 19.98 9.99 51.62 23.31 51.62 23.31l-154.86-1.664z" transform="matrix(.12688 -.01548 .04305 .17272 264.466 165.6)"/><path d="M334.69 674.38s28.307-4.996 46.624-19.982c18.316-14.986 18.317-39.964 26.642-39.964 8.326 0 9.99 28.308 29.973 38.3 19.98 9.99 51.62 23.31 51.62 23.31l-154.86-1.664z" transform="matrix(.15077 -.0184 .04775 .19158 248.38 154.83)"/><path d="M334.69 674.38s28.307-4.996 46.624-19.982c18.316-14.986 18.317-39.964 26.642-39.964 8.326 0 9.99 28.308 29.973 38.3 19.98 9.99 51.62 23.31 51.62 23.31l-154.86-1.664z" transform="matrix(.1667 -.02034 .0556 .22303 233.452 135.147)"/><path d="M334.69 674.38s28.307-4.996 46.624-19.982c18.316-14.986 18.317-39.964 26.642-39.964 8.326 0 9.99 28.308 29.973 38.3 19.98 9.99 51.62 23.31 51.62 23.31l-154.86-1.664z" transform="matrix(.1886 -.023 .06186 .24818 216.4 119.92)"/><path d="M334.69 674.38s28.307-4.996 46.624-19.982c18.316-14.986 18.317-39.964 26.642-39.964 8.326 0 9.99 28.308 29.973 38.3 19.98 9.99 51.62 23.31 51.62 23.31l-154.86-1.664z" transform="matrix(.20054 -.02447 .0697 .27963 202.447 99.725)"/><path d="M334.69 674.38s28.307-4.996 46.624-19.982c18.316-14.986 18.317-39.964 26.642-39.964 8.326 0 9.99 28.308 29.973 38.3 19.98 9.99 51.62 23.31 51.62 23.31l-154.86-1.664z" transform="matrix(.23063 -.00922 .04977 .27378 199.018 96.492)"/><path d="M334.69 674.38s28.307-4.996 46.624-19.982c18.316-14.986 18.317-39.964 26.642-39.964 8.326 0 9.99 28.308 29.973 38.3 19.98 9.99 51.62 23.31 51.62 23.31l-154.86-1.664z" transform="matrix(.23063 -.00922 .04977 .27378 195.654 96.626)"/><path d="M334.69 674.38s28.307-4.996 46.624-19.982c18.316-14.986 18.317-39.964 26.642-39.964 8.326 0 9.99 28.308 29.973 38.3 19.98 9.99 51.62 23.31 51.62 23.31l-154.86-1.664z" transform="matrix(.27405 -.01096 .0552 .3037 168.438 77.963)"/><path d="M334.69 674.38s28.307-4.996 46.624-19.982c18.316-14.986 18.317-39.964 26.642-39.964 8.326 0 9.99 28.308 29.973 38.3 19.98 9.99 51.62 23.31 51.62 23.31l-154.86-1.664z" transform="matrix(.303 -.01212 .06426 .3535 144.752 45.6)"/><path d="M334.69 674.38s28.307-4.996 46.624-19.982c18.316-14.986 18.317-39.964 26.642-39.964 8.326 0 9.99 28.308 29.973 38.3 19.98 9.99 51.62 23.31 51.62 23.31l-154.86-1.664z" transform="matrix(.3428 -.0137 .0715 .39338 116.533 19.91)"/><path d="M334.69 674.38s28.307-4.996 46.624-19.982c18.316-14.986 18.317-39.964 26.642-39.964 8.326 0 9.99 28.308 29.973 38.3 19.98 9.99 51.62 23.31 51.62 23.31l-154.86-1.664z" transform="matrix(.3645 -.01458 .08056 .4432 94.676 -13.15)"/></g></g><path d="M380.34 293.64l5.82-4.9s7.96 6.43 23.578 6.125c14.71-.283 19.906-5.513 22.05-6.126l5.817 5.205c-3.37.92-15.31 6.737-28.785 7.35-14.087-.612-26.642-5.817-28.48-7.655z" fill-rule="evenodd" transform="matrix(1.23154 0 0 1.21897 -183.457 -52.326)" stroke="#000" stroke-width=".235" fill="#ffc200"/><path d="M342.674 308.368l-1.068-2.957-1.256.442-.142-.394 3.02-1.06.142.394-1.26.442 1.07 2.957-.506.178zM333.573 311.03l-.93-3.438 2.826-.74.11.404-2.31.605.285 1.055 2.162-.567.11.403-2.163.568.317 1.17 2.4-.627.11.406-2.917.765zM328.392 312.18l-.93-3.438.52-.136.928 3.44-.518.135zM324.922 312.607l-.444-3.532.53-.064.393 3.116 1.978-.24.052.418-2.508.303zM318.733 312.932l-.103-3.558.55-.014 2.202 2.738-.08-2.793.512-.013.103 3.558-.55.014-2.202-2.742.08 2.797-.512.012zM312.386 312.575l.37-3.54.53.055-.368 3.54-.532-.055zM308.016 311.804l.663-3.498.538.1 1.565 3.14.52-2.746.504.095-.663 3.498-.54-.1-1.564-3.144-.52 2.75-.504-.096zM307.72 308.187l.518.134-.523 1.992c-.09.345-.207.61-.35.79-.143.18-.347.304-.614.372-.262.067-.584.05-.96-.047-.366-.095-.65-.228-.854-.4a1.038 1.038 0 0 1-.373-.612c-.044-.237-.018-.538.078-.903l.523-1.99.518.134-.52 1.988c-.08.3-.107.528-.082.687.027.16.107.295.24.412s.312.205.535.262c.38.1.67.094.873-.016.202-.11.36-.38.473-.814l.52-1.987zM298.767 308.002l.496.102a.925.925 0 0 0 .046.47c.055.132.16.26.32.378s.35.21.57.272c.198.057.38.08.544.073s.295-.047.392-.115a.464.464 0 0 0 .19-.262.427.427 0 0 0-.03-.31c-.05-.103-.148-.204-.297-.305a7.617 7.617 0 0 0-.65-.365c-.338-.18-.57-.323-.695-.43a1.096 1.096 0 0 1-.33-.44.75.75 0 0 1-.022-.466.808.808 0 0 1 .298-.435c.153-.12.347-.188.583-.205.236-.015.484.014.747.09.29.082.532.196.73.342.2.144.337.313.413.506s.092.392.046.596l-.504-.11a.714.714 0 0 0-.14-.57c-.122-.154-.334-.275-.633-.36-.312-.09-.553-.105-.724-.045-.17.06-.273.16-.31.302a.392.392 0 0 0 .068.347c.078.108.316.264.71.47.398.202.667.356.807.464.2.157.338.322.407.495.07.17.082.35.032.533a.876.876 0 0 1-.317.465 1.18 1.18 0 0 1-.615.23 2.07 2.07 0 0 1-.786-.083c-.353-.1-.637-.23-.85-.39a1.306 1.306 0 0 1-.453-.568c-.086-.222-.1-.447-.046-.678zM292.758 306.885l1.22-3.334.5.193-1.218 3.334-.502-.192zM288.724 304.312l2.25-2.758 1.07.892c.24.202.414.37.52.5.148.186.246.378.293.578.064.26.057.52-.02.78-.073.257-.21.51-.41.756-.172.21-.35.372-.537.488a1.652 1.652 0 0 1-.54.226 1.405 1.405 0 0 1-.49.013 1.605 1.605 0 0 1-.48-.17c-.17-.09-.35-.213-.537-.37l-1.12-.935zm.677.018l.663.553c.204.17.378.287.52.35a.925.925 0 0 0 .398.09c.168-.005.338-.058.51-.16.176-.1.348-.254.518-.463.235-.288.363-.554.38-.798a1.025 1.025 0 0 0-.13-.636c-.08-.13-.242-.296-.486-.5l-.65-.544-1.72 2.108zM294.584 306.02c.202-.554.53-.922.98-1.106.453-.184.946-.175 1.48.03.35.133.637.327.864.582s.366.542.415.862c.052.318.018.645-.104.978-.125.338-.313.61-.566.818a1.568 1.568 0 0 1-.88.356 2.245 2.245 0 0 1-.995-.148 2.142 2.142 0 0 1-.873-.593 1.695 1.695 0 0 1-.41-.865 1.825 1.825 0 0 1 .087-.916zm.514.204c-.147.4-.14.765.02 1.09.16.326.427.558.797.7.377.144.73.147 1.058.006.33-.14.573-.424.73-.853.1-.272.134-.53.102-.77a1.184 1.184 0 0 0-.286-.646 1.466 1.466 0 0 0-.613-.426 1.462 1.462 0 0 0-1.034-.027c-.333.116-.592.425-.775.927zM314.06 310.91c.062-.588.288-1.03.68-1.324.394-.295.874-.414 1.44-.355.37.04.698.153.98.34s.486.43.612.727c.128.294.173.62.136.973-.037.36-.152.672-.347.938-.193.266-.448.457-.765.572-.317.113-.65.152-1 .115a2.103 2.103 0 0 1-.988-.347 1.66 1.66 0 0 1-.61-.73 1.82 1.82 0 0 1-.137-.908zm.548.064c-.044.426.05.777.284 1.05.235.273.55.428.943.47.4.04.743-.047 1.026-.268.287-.22.453-.56.5-1.015.03-.287 0-.545-.088-.77a1.16 1.16 0 0 0-.434-.55 1.44 1.44 0 0 0-.697-.255 1.472 1.472 0 0 0-1.008.242c-.294.198-.47.564-.524 1.097zM348.514 306.34l-1.573-3.2 1.255-.6a3.8 3.8 0 0 1 .67-.264 1.44 1.44 0 0 1 .646-.026c.264.05.497.165.7.343.205.175.377.405.518.69.12.244.192.475.22.693s.02.415-.02.586c-.04.17-.102.32-.188.45a1.6 1.6 0 0 1-.356.367c-.15.116-.337.228-.556.333l-1.314.628zm.297-.607l.778-.372c.24-.113.417-.223.534-.327a.913.913 0 0 0 .245-.324 1.06 1.06 0 0 0 .068-.53c-.02-.202-.088-.424-.207-.665-.165-.335-.354-.563-.567-.68a1.026 1.026 0 0 0-.632-.146c-.15.017-.37.094-.655.23l-.764.366 1.2 2.447zM337.39 309.897l-.928-3.44 1.732-.453c.35-.092.622-.13.82-.115a.93.93 0 0 1 .825.687.836.836 0 0 1-.102.687c-.134.215-.383.394-.745.537.152.023.27.054.358.09a2.6 2.6 0 0 1 .552.346l.933.758-.65.17-.71-.58c-.208-.167-.375-.292-.502-.376s-.236-.137-.326-.16a.83.83 0 0 0-.26-.03c-.06.004-.158.024-.29.06l-.602.156.413 1.527-.517.137zm0-2.057l1.11-.292a1.98 1.98 0 0 0 .538-.208.61.61 0 0 0 .248-.287.525.525 0 0 0-.29-.684c-.163-.07-.388-.07-.678.007l-1.237.325.31 1.138zM344.402 307.943l.083-3.873.534-.213 2.89 2.682-.566.226-.847-.825-1.568.63v1.162l-.528.21zm.524-1.787l1.27-.51-.766-.755a9.118 9.118 0 0 1-.548-.576c.04.23.06.467.058.71l-.014 1.132zM329.714 311.766l-.755-3.48 1.482-.312c.302-.063.552-.08.75-.046.198.03.363.11.5.235.134.124.22.266.255.426.032.147.016.297-.047.448s-.18.285-.347.405c.253.012.46.078.62.2.16.122.264.283.308.486a.93.93 0 0 1-.02.48.9.9 0 0 1-.218.383c-.098.1-.23.188-.396.265a3.002 3.002 0 0 1-.623.19l-1.51.318zm.086-2.13l.854-.178c.232-.05.396-.097.49-.145a.57.57 0 0 0 .262-.236.466.466 0 0 0 .037-.326.52.52 0 0 0-.16-.282.478.478 0 0 0-.31-.124c-.123-.01-.328.016-.61.076l-.792.166.23 1.05zm.35 1.61l.983-.208c.17-.035.287-.066.352-.09a.95.95 0 0 0 .282-.16.547.547 0 0 0 .172-.545.542.542 0 0 0-.188-.313.606.606 0 0 0-.36-.136c-.14-.01-.338.01-.59.062l-.913.192.26 1.197z"/><g stroke="#000" fill="#ffc200" stroke-width=".235"><path d="M658.63 787.09v-8.59h1.136v7.577h4.23v1.013h-5.366z" transform="matrix(-1.78006 .7002 -.71696 -1.73844 2108.417 1260.37)"/><path d="M636.87 787.09v-7.576h-2.83V778.5h6.81v1.014h-2.843v7.576h-1.137z" transform="matrix(-1.34026 1.34133 -1.37344 -1.30892 2338.508 506.908)"/><path d="M626 787.09v-8.59h1.166l4.512 6.745V778.5h1.09v8.59H631.6l-4.51-6.75v6.75H626z" transform="scale(1.91902 1.87415) rotate(135.88 547.2 395.254)"/><path d="M618.03 787.09v-8.59h6.21v1.014h-5.073v2.63h4.752v1.01h-4.753v2.923h5.273v1.013h-6.41zM615.47 784.08l1.136.287c-.238.933-.668 1.646-1.29 2.138-.616.49-1.372.733-2.266.733-.926 0-1.68-.188-2.262-.563-.578-.38-1.02-.926-1.324-1.64a5.875 5.875 0 0 1-.45-2.303c0-.895.168-1.674.508-2.338a3.517 3.517 0 0 1 1.46-1.518 4.267 4.267 0 0 1 2.085-.52c.86 0 1.582.218 2.168.655.586.44.994 1.054 1.225 1.847l-1.12.264c-.2-.624-.488-1.08-.867-1.365-.378-.285-.855-.427-1.43-.427-.66 0-1.212.158-1.657.474a2.51 2.51 0 0 0-.932 1.278c-.18.53-.27 1.08-.27 1.646 0 .73.106 1.37.317 1.916.216.543.548.95.997 1.22.45.268.935.403 1.46.403.636 0 1.175-.183 1.616-.55.44-.368.74-.913.897-1.635z" transform="matrix(-1.03364 1.57904 -1.61685 -1.00947 2335.437 122.95)"/><path d="M595.47 784.08l1.136.287c-.238.933-.668 1.646-1.29 2.138-.616.49-1.372.733-2.266.733-.926 0-1.68-.188-2.262-.563-.578-.38-1.02-.926-1.324-1.64a5.875 5.875 0 0 1-.45-2.303c0-.895.17-1.674.508-2.338a3.517 3.517 0 0 1 1.46-1.518 4.27 4.27 0 0 1 2.085-.52c.86 0 1.582.218 2.168.655.586.44.994 1.054 1.225 1.847l-1.12.264c-.198-.624-.488-1.08-.866-1.365-.38-.285-.856-.427-1.43-.427-.66 0-1.213.158-1.658.474a2.51 2.51 0 0 0-.932 1.278c-.18.53-.27 1.08-.27 1.646 0 .73.106 1.37.317 1.916.216.543.548.95.997 1.22.45.268.936.403 1.46.403.636 0 1.175-.183 1.616-.55.442-.368.74-.913.897-1.635z" transform="scale(1.91902 1.87415) rotate(87.648 750.578 271.65)"/><path d="M586.2 787.09v-8.59h1.137v8.59H586.2z" transform="matrix(.12007 1.87047 -1.91526 .11726 1877.367 -948.217)"/><path d="M569.36 787.09v-8.59h6.21v1.014h-5.073v2.63h4.752v1.01h-4.753v2.923h5.273v1.013h-6.41z" transform="matrix(.53525 1.79976 -1.84285 .52274 1578.576 -1229.817)"/><path d="M559.31 787.09v-8.59h1.71l2.034 6.082c.187.567.324.99.41 1.272.098-.313.25-.772.457-1.377l2.058-5.977h1.53v8.59h-1.097v-7.19l-2.495 7.19h-1.025l-2.485-7.312v7.312h-1.095z" transform="matrix(.76438 1.71906 -1.76022 .7465 1382.356 -1359.334)"/><path d="M533.28 787.09v-8.59h1.137v7.577h4.23v1.013h-5.367z" transform="matrix(1.58056 1.06288 -1.08833 1.5436 401.334 -1630.875)"/><path d="M521.31 787.09v-8.59h1.166l4.512 6.745V778.5h1.09v8.59h-1.166l-4.512-6.75v6.75h-1.09z" transform="matrix(1.74128 .78774 -.8066 1.70056 95 -1609.08)"/><path d="M513.34 787.09v-8.59h6.21v1.014h-5.074v2.63h4.752v1.01h-4.752v2.923h5.274v1.013h-6.41z" transform="scale(1.91903 1.87415) rotate(22.15 2176.58 -410.388)"/><path d="M469.77 787.09l-3.328-8.59h1.23l2.233 6.24c.18.5.33.97.45 1.407.134-.47.29-.938.464-1.406l2.32-6.24h1.16l-3.363 8.59h-1.167z" transform="scale(1.91903 1.87415) rotate(-16.737 -2115.697 1551.868)"/><path d="M460.59 787.09v-8.59h1.136v7.577h4.23v1.013h-5.366z" transform="matrix(1.67304 -.918 .94 1.63392 -1255.586 -715.673)"/><path d="M444.24 784.33l1.072-.094c.05.43.168.783.352 1.06.187.274.476.496.867.668.392.168.83.252 1.32.252.433 0 .816-.064 1.148-.193s.578-.305.738-.527c.164-.227.246-.473.246-.74 0-.268-.078-.503-.234-.702-.156-.203-.414-.373-.774-.51-.23-.09-.74-.228-1.53-.416-.788-.19-1.34-.37-1.657-.54-.41-.214-.717-.48-.92-.796-.2-.32-.3-.677-.3-1.072 0-.433.124-.838.37-1.213.246-.38.606-.666 1.078-.86a4.098 4.098 0 0 1 1.577-.294c.636 0 1.197.103 1.68.31.49.204.865.504 1.126.903.262.398.403.85.422 1.353l-1.09.08c-.058-.542-.258-.952-.597-1.23-.336-.276-.834-.415-1.495-.415-.687 0-1.19.127-1.505.38-.313.25-.47.553-.47.91 0 .308.112.56.335.76.22.2.79.405 1.71.616.927.208 1.56.39 1.905.546.5.23.87.523 1.108.88.24.35.358.757.358 1.217 0 .458-.13.89-.393 1.295-.26.403-.638.717-1.13.944-.49.222-1.04.334-1.653.334-.777 0-1.43-.114-1.957-.34a2.765 2.765 0 0 1-1.236-1.02 2.93 2.93 0 0 1-.47-1.546z" transform="scale(1.919 1.87414) rotate(-41.784 -631.87 863.2)"/><path d="M434.58 787.09v-8.59h1.137v7.577h4.23v1.013h-5.367z" transform="matrix(1.12777 -1.51637 1.55268 1.1014 -1496.845 -21.358)"/><path d="M426.64 787.09v-8.59h6.21v1.014h-5.073v2.63h4.752v1.01h-4.753v2.923h5.274v1.013h-6.41z" transform="scale(1.91902 1.87415) rotate(-61.06 -309.21 716.83)"/><path d="M415.31 787.09v-8.59h6.21v1.014h-5.074v2.63h4.752v1.01h-4.752v2.923h5.274v1.013h-6.41z" transform="matrix(.41455 -1.8299 1.8737 .40485 -1445.99 666.83)"/><path d="M392.74 784.08l1.137.287c-.238.933-.668 1.646-1.29 2.138-.616.49-1.372.733-2.267.733-.926 0-1.68-.188-2.26-.563-.58-.38-1.02-.926-1.326-1.64a5.893 5.893 0 0 1-.45-2.303c0-.895.17-1.674.51-2.338a3.517 3.517 0 0 1 1.458-1.518 4.267 4.267 0 0 1 2.086-.52c.86 0 1.582.218 2.168.655.586.44.994 1.054 1.224 1.847l-1.12.264c-.198-.624-.487-1.08-.866-1.365s-.855-.427-1.43-.427c-.66 0-1.213.158-1.658.474a2.51 2.51 0 0 0-.93 1.278c-.18.53-.27 1.08-.27 1.646 0 .73.104 1.37.315 1.916.216.543.548.95.997 1.22.45.268.936.403 1.46.403.636 0 1.175-.183 1.617-.55.44-.368.74-.913.896-1.635z" transform="scale(1.91902 1.87415) rotate(-107.813 15.63 571.873)"/><path d="M383.47 787.09v-8.59h1.136v8.59h-1.136z" transform="scale(1.919 1.87414) rotate(-116.338 50.088 556.93)"/><path d="M376.56 787.09v-8.59h1.136v7.577h4.23v1.013h-5.366z" transform="matrix(-.75613 -1.72253 1.76377 -.73845 -890.11 1533.06)"/><path d="M365.57 778.5h1.137v4.963c0 .864-.098 1.55-.293 2.057s-.55.922-1.06 1.242c-.508.317-1.176.475-2.004.475-.805 0-1.463-.14-1.975-.416a2.38 2.38 0 0 1-1.096-1.2c-.22-.528-.33-1.247-.33-2.157V778.5h1.138v4.957c0 .747.068 1.297.205 1.653.14.35.38.623.715.814.34.192.754.287 1.242.287.836 0 1.432-.188 1.787-.567s.533-1.107.533-2.186V778.5z" transform="matrix(-1.2471 -1.42445 1.45855 -1.21795 -467.928 1799.188)"/><path d="M343.95 787.09v-8.59h6.21v1.014h-5.073v2.63h4.752v1.01h-4.753v2.923h5.273v1.013h-6.41z" transform="matrix(-1.50513 -1.16265 1.19048 -1.46993 -166.523 1902.454)"/><path d="M649.73 787.09l3.3-8.59h1.224l3.515 8.59h-1.296l-1-2.6h-3.593l-.943 2.6h-1.207zm2.48-3.527h2.91l-.896-2.38a23.793 23.793 0 0 1-.61-1.78c-.108.55-.263 1.097-.462 1.64l-.943 2.52z" transform="matrix(-1.6473 .9614 -.98442 -1.60877 2232.77 985.62)"/><path d="M642.03 787.09v-8.59h3.81c.764 0 1.347.08 1.745.235.398.152.717.424.955.814.238.39.357.822.357 1.294 0 .61-.197 1.123-.59 1.54-.396.42-1.005.685-1.83.798.3.145.53.287.686.428.332.304.647.685.943 1.142l1.495 2.338h-1.43l-1.136-1.787a16.25 16.25 0 0 0-.82-1.183c-.215-.274-.408-.465-.58-.575a1.68 1.68 0 0 0-.516-.228 3.36 3.36 0 0 0-.633-.04h-1.318v3.813h-1.137zm1.137-4.8h2.443c.52 0 .926-.05 1.22-.157.292-.11.515-.28.667-.515.152-.24.23-.496.23-.774 0-.406-.15-.74-.447-1.002-.293-.26-.758-.392-1.394-.392h-2.72v2.84z" transform="matrix(-1.4595 1.21686 -1.246 -1.42536 2317.4 676.2)"/><path d="M597.06 787.09l3.3-8.59h1.224l3.515 8.59h-1.295l-1.002-2.6h-3.592l-.943 2.6h-1.207zm2.48-3.527h2.91l-.895-2.38a23.418 23.418 0 0 1-.61-1.78c-.11.55-.263 1.097-.463 1.64l-.943 2.52z" transform="matrix(-.5853 1.78484 -1.82758 -.5716 2227.972 -354.412)"/><path d="M577.36 787.09v-8.59h3.81c.765 0 1.347.08 1.745.235.398.152.717.424.955.814.238.39.358.822.358 1.294 0 .61-.198 1.123-.592 1.54-.395.42-1.004.685-1.828.798.3.145.53.287.685.428.332.304.647.685.944 1.142l1.494 2.338h-1.43l-1.136-1.787a16.25 16.25 0 0 0-.82-1.183c-.215-.274-.408-.465-.58-.575a1.68 1.68 0 0 0-.516-.228 3.36 3.36 0 0 0-.633-.04h-1.318v3.813h-1.137zm1.137-4.8h2.443c.52 0 .926-.05 1.22-.157.292-.11.515-.28.667-.515.152-.24.23-.496.23-.774 0-.406-.15-.74-.447-1.002-.293-.26-.757-.392-1.394-.392h-2.72v2.84z" transform="scale(1.91902 1.87414) rotate(84.76 769.25 261.29)"/><path d="M550.39 787.09l3.3-8.59h1.224l3.516 8.59h-1.295l-1.002-2.6h-3.592l-.942 2.6h-1.208zm2.48-3.527h2.91l-.895-2.38a23.418 23.418 0 0 1-.61-1.78c-.11.55-.263 1.097-.463 1.64l-.943 2.52z" transform="matrix(1.10927 1.52932 -1.56594 1.08333 1035.59 -1518.876)"/><path d="M539.06 787.09l3.298-8.59h1.225l3.516 8.59h-1.296l-1.002-2.6h-3.592l-.943 2.6h-1.207zm2.478-3.527h2.912l-.896-2.38a23.418 23.418 0 0 1-.61-1.78c-.11.55-.263 1.097-.463 1.64l-.942 2.52z" transform="matrix(1.4018 1.27993 -1.31058 1.36903 671.724 -1610.466)"/><path d="M501.34 787.09v-8.59h3.808c.766 0 1.348.08 1.746.235.4.152.717.424.956.814.238.39.357.822.357 1.294 0 .61-.197 1.123-.592 1.54-.394.42-1.004.685-1.828.798.3.145.53.287.686.428.332.304.646.685.943 1.142l1.494 2.338h-1.43l-1.136-1.787c-.332-.515-.606-.91-.82-1.183-.215-.274-.41-.465-.58-.575a1.684 1.684 0 0 0-.516-.228 3.36 3.36 0 0 0-.633-.04h-1.318v3.813h-1.137zm1.137-4.8h2.443c.52 0 .926-.05 1.22-.157.292-.11.514-.28.667-.515.152-.24.228-.496.228-.774 0-.406-.148-.74-.445-1.002-.293-.26-.758-.392-1.395-.392h-2.718v2.84z" transform="scale(1.91902 1.87415) rotate(5.7 7548.946 -2903.782)"/><path d="M491.64 782.91c0-1.426.382-2.54 1.148-3.346.766-.81 1.754-1.213 2.965-1.213.793 0 1.508.19 2.144.57.637.378 1.12.908 1.453 1.587.336.676.504 1.444.504 2.303 0 .87-.175 1.65-.527 2.338a3.622 3.622 0 0 1-1.494 1.564 4.285 4.285 0 0 1-2.086.528c-.81 0-1.53-.196-2.168-.586-.638-.39-1.12-.924-1.448-1.6s-.492-1.39-.492-2.144zm1.17.017c0 1.035.28 1.852.833 2.45.56.593 1.258.89 2.098.89.857 0 1.56-.3 2.11-.902.555-.602.833-1.455.833-2.56 0-.7-.12-1.31-.358-1.83a2.68 2.68 0 0 0-1.037-1.212 2.783 2.783 0 0 0-1.53-.433 2.91 2.91 0 0 0-2.08.832c-.578.55-.867 1.472-.867 2.765z" transform="scale(1.91902 1.87415) rotate(5.7 7545.027 -2912.7)"/><path d="M483.32 787.09v-8.59h2.96c.667 0 1.177.04 1.53.123.49.114.91.32 1.258.616.453.382.79.872 1.014 1.47.227.593.34 1.273.34 2.038 0 .653-.076 1.23-.23 1.735-.15.504-.346.922-.585 1.254-.238.328-.5.588-.785.78-.28.187-.623.33-1.025.427-.4.097-.858.146-1.377.146h-3.1zm1.137-1.013h1.834c.567 0 1.01-.053 1.33-.16.325-.104.583-.253.774-.444.27-.27.48-.63.627-1.084.154-.458.23-1.01.23-1.66 0-.898-.15-1.587-.445-2.067-.293-.485-.65-.81-1.073-.973-.304-.117-.795-.176-1.47-.176h-1.805v6.563z" transform="matrix(1.88404 -.3562 .36473 1.83998 -904.444 -1144.01)"/><path d="M474.37 787.09l3.3-8.59h1.223l3.516 8.59h-1.296l-1.002-2.6h-3.592l-.943 2.6h-1.207zm2.478-3.527h2.913l-.896-2.38a23.793 23.793 0 0 1-.61-1.78c-.11.55-.263 1.097-.462 1.64l-.944 2.52z" transform="matrix(1.86932 -.42376 .4339 1.8256 -951.153 -1099.498)"/><path d="M451.69 787.09l3.3-8.59h1.224l3.515 8.59h-1.296l-1-2.6h-3.593l-.943 2.6h-1.207zm2.48-3.527h2.91l-.896-2.38a23.793 23.793 0 0 1-.61-1.78c-.108.55-.263 1.097-.462 1.64l-.943 2.52z" transform="scale(1.91902 1.87415) rotate(-33.207 -890.415 982.728)"/><path d="M406.62 787.09v-8.59h2.96c.667 0 1.177.04 1.528.123.493.114.913.32 1.26.616.453.382.79.872 1.014 1.47.226.593.34 1.273.34 2.038 0 .653-.076 1.23-.23 1.735-.15.504-.346.922-.585 1.254-.238.328-.5.588-.785.78-.28.187-.623.33-1.025.427-.4.097-.858.146-1.377.146h-3.1zm1.137-1.013h1.834c.567 0 1.01-.053 1.33-.16.325-.104.583-.253.774-.444.27-.27.48-.63.627-1.084.154-.458.23-1.01.23-1.66 0-.898-.15-1.587-.445-2.067-.293-.485-.65-.81-1.073-.973-.304-.117-.795-.176-1.47-.176h-1.805v6.563z" transform="matrix(.1769 -1.86616 1.91084 .17276 -1376.37 863.614)"/><path d="M394.34 787.09l3.3-8.59h1.223l3.516 8.59h-1.296l-1.002-2.6h-3.592l-.943 2.6h-1.207zm2.478-3.527h2.913l-.896-2.38a23.342 23.342 0 0 1-.61-1.78c-.11.55-.263 1.097-.462 1.64l-.944 2.52z" transform="scale(1.91902 1.87415) rotate(-94.28 -48.098 600.722)"/><path d="M368.55 787.09v-8.59h3.222c.657 0 1.182.088 1.576.264.4.172.71.44.932.803.227.36.34.736.34 1.13 0 .368-.1.714-.3 1.038s-.5.586-.9.785c.518.152.917.412 1.194.78.28.366.422.8.422 1.3 0 .402-.086.777-.258 1.125-.168.344-.377.61-.627.797-.25.187-.563.33-.942.428-.375.093-.836.14-1.383.14h-3.275zm1.136-4.98h1.858c.504 0 .865-.033 1.084-.1.29-.086.506-.228.65-.428.15-.2.223-.45.223-.75 0-.285-.068-.535-.204-.75a1.024 1.024 0 0 0-.586-.445c-.254-.082-.69-.123-1.307-.123h-1.717v2.596zm0 3.967h2.14c.366 0 .624-.014.772-.04.262-.048.48-.126.657-.236.176-.108.32-.266.433-.473.114-.21.17-.454.17-.727 0-.32-.082-.598-.246-.832a1.28 1.28 0 0 0-.685-.498c-.29-.098-.707-.147-1.254-.147h-1.987v2.954z" transform="matrix(-1.09808 -1.537 1.5738 -1.0724 -612.53 1726.284)"/><path d="M351.93 787.09v-8.59h3.24c.57 0 1.006.028 1.306.082.422.07.776.206 1.06.405.286.195.515.47.687.826.175.355.263.746.263 1.172 0 .73-.232 1.35-.697 1.857-.466.504-1.306.756-2.52.756h-2.204v3.492h-1.136zm1.136-4.506h2.22c.735 0 1.257-.136 1.565-.41.31-.273.464-.658.464-1.154 0-.36-.09-.666-.275-.92a1.257 1.257 0 0 0-.716-.51c-.19-.05-.545-.076-1.06-.076h-2.198v3.07z" transform="matrix(-1.4291 -1.2508 1.28073 -1.3957 -264.47 1875.84)"/><path d="M335.28 787.09v-8.59h3.81c.764 0 1.347.08 1.745.235.398.152.717.424.955.814.238.39.357.822.357 1.294 0 .61-.197 1.123-.59 1.54-.396.42-1.005.685-1.83.798.3.145.53.287.686.428.332.304.647.685.943 1.142l1.495 2.338h-1.43l-1.136-1.787a16.25 16.25 0 0 0-.82-1.183c-.215-.274-.408-.465-.58-.575a1.68 1.68 0 0 0-.516-.228 3.36 3.36 0 0 0-.633-.04h-1.318v3.813h-1.137zm1.137-4.8h2.443c.52 0 .926-.05 1.22-.157.292-.11.515-.28.667-.515.152-.24.23-.496.23-.774 0-.406-.15-.74-.447-1.002-.293-.26-.758-.392-1.394-.392h-2.72v2.84z" transform="matrix(-1.64232 -.96946 .99267 -1.6039 36.394 1941.436)"/></g></g></svg>