<svg xmlns="http://www.w3.org/2000/svg" height="480" width="640"><defs><clipPath id="a"><path fill-opacity=".67" d="M0 0h640v480H0z"/></clipPath></defs><g clip-path="url(#a)"><path fill-rule="evenodd" fill="#5387f4" d="M-79.43 318.86h798.86V480H-79.43zM-79.43 0h798.86v161.14H-79.43z"/><path fill-rule="evenodd" fill="#fff" d="M-79.43 161.14h798.86v157.71H-79.43z"/><g stroke="#000" fill-rule="evenodd"><path d="M490.58 234.24c0 .846-.823 1.53-1.837 1.53s-1.838-.684-1.838-1.53.823-1.53 1.838-1.53 1.837.684 1.837 1.53z" transform="matrix(-.8 -.5 -.6 1 779.7 213)" stroke-width=".332" fill="red"/><path d="M490.58 234.24c0 .846-.823 1.53-1.837 1.53s-1.838-.684-1.838-1.53.823-1.53 1.838-1.53 1.837.684 1.837 1.53z" transform="matrix(-.8 -.5 -.6 1 785.7 217.6)" stroke-width=".332" fill="red"/><path d="M259.03 105.71s400.32 70.645 414.45 395.62c14.13 324.97-188.39 367.36-259.03 419.16-70.645 51.807-113.03 113.03-146 113.03-32.968 0-80.065-14.13-80.065-14.13s9.42 51.81 75.355 47.1c65.936-4.71 127.16-113.03 164.84-131.87s277.88-98.9 259.04-428.58c-14.13-353.23-423.88-390.91-428.59-400.33z" transform="matrix(-.2 0 0 .2 329.9 148.6)" stroke-width="1.603" fill="#006700"/><path d="M320.26 487.2c0 59.825-11.597 108.32-25.903 108.32s-25.903-48.498-25.903-108.32c0-59.825 11.597-108.32 25.903-108.32s25.903 48.498 25.903 108.32z" transform="matrix(-.1 0 0 .1 293.8 152.9)" stroke-width="1.603" fill="#006700"/><path d="M320.26 487.2c0 59.825-11.597 108.32-25.903 108.32s-25.903-48.498-25.903-108.32c0-59.825 11.597-108.32 25.903-108.32s25.903 48.498 25.903 108.32z" transform="matrix(-.1 0 0 .1 302 162.3)" stroke-width="1.603" fill="#006700"/><path d="M320.26 487.2c0 59.825-11.597 108.32-25.903 108.32s-25.903-48.498-25.903-108.32c0-59.825 11.597-108.32 25.903-108.32s25.903 48.498 25.903 108.32z" transform="matrix(0 -.1 -.1 0 306.2 212.3)" stroke-width="1.603" fill="#006700"/><path d="M320.26 487.2c0 59.825-11.597 108.32-25.903 108.32s-25.903-48.498-25.903-108.32c0-59.825 11.597-108.32 25.903-108.32s25.903 48.498 25.903 108.32z" transform="matrix(0 -.1 -.1 0 311 193.2)" stroke-width="1.603" fill="#006700"/><path d="M320.26 487.2c0 59.825-11.597 108.32-25.903 108.32s-25.903-48.498-25.903-108.32c0-59.825 11.597-108.32 25.903-108.32s25.903 48.498 25.903 108.32z" transform="matrix(-.1 -.1 -.1 .1 309 179.5)" stroke-width="1.603" fill="#006700"/><path d="M490.58 234.24c0 .846-.823 1.53-1.837 1.53s-1.838-.684-1.838-1.53.823-1.53 1.838-1.53 1.837.684 1.837 1.53z" transform="matrix(-.9 -.3 -.4 1.1 749.4 107.3)" stroke-width=".332" fill="red"/><path d="M490.58 234.24c0 .846-.823 1.53-1.837 1.53s-1.838-.684-1.838-1.53.823-1.53 1.838-1.53 1.837.684 1.837 1.53z" transform="matrix(-.9 -.3 -.4 1.1 756.3 110.4)" stroke-width=".332" fill="red"/><path d="M320.26 487.2c0 59.825-11.597 108.32-25.903 108.32s-25.903-48.498-25.903-108.32c0-59.825 11.597-108.32 25.903-108.32s25.903 48.498 25.903 108.32z" transform="matrix(-.1 0 0 .1 275.9 136.6)" stroke-width="1.603" fill="#006700"/><path d="M320.26 487.2c0 59.825-11.597 108.32-25.903 108.32s-25.903-48.498-25.903-108.32c0-59.825 11.597-108.32 25.903-108.32s25.903 48.498 25.903 108.32z" transform="matrix(-.1 0 0 .1 290.3 146.2)" stroke-width="1.603" fill="#006700"/><path d="M320.26 487.2c0 59.825-11.597 108.32-25.903 108.32s-25.903-48.498-25.903-108.32c0-59.825 11.597-108.32 25.903-108.32s25.903 48.498 25.903 108.32z" transform="matrix(0 -.1 -.1 .1 312.4 215.8)" stroke-width="1.603" fill="#006700"/><path d="M320.26 487.2c0 59.825-11.597 108.32-25.903 108.32s-25.903-48.498-25.903-108.32c0-59.825 11.597-108.32 25.903-108.32s25.903 48.498 25.903 108.32z" transform="matrix(-.1 -.1 -.1 .1 312.8 186.4)" stroke-width="1.603" fill="#006700"/><path d="M320.26 487.2c0 59.825-11.597 108.32-25.903 108.32s-25.903-48.498-25.903-108.32c0-59.825 11.597-108.32 25.903-108.32s25.903 48.498 25.903 108.32z" transform="matrix(-.1 -.1 -.1 .1 305.7 167.7)" stroke-width="1.603" fill="#006700"/><path d="M320.26 487.2c0 59.825-11.597 108.32-25.903 108.32s-25.903-48.498-25.903-108.32c0-59.825 11.597-108.32 25.903-108.32s25.903 48.498 25.903 108.32z" transform="matrix(-.1 .1 0 .1 251.9 157.5)" stroke-width="1.603" fill="#006700"/><path d="M320.26 487.2c0 59.825-11.597 108.32-25.903 108.32s-25.903-48.498-25.903-108.32c0-59.825 11.597-108.32 25.903-108.32s25.903 48.498 25.903 108.32z" transform="matrix(-.1 0 0 .1 267.7 164.2)" stroke-width="1.603" fill="#006700"/><path d="M320.26 487.2c0 59.825-11.597 108.32-25.903 108.32s-25.903-48.498-25.903-108.32c0-59.825 11.597-108.32 25.903-108.32s25.903 48.498 25.903 108.32z" transform="matrix(-.1 -.1 -.1 .1 301.6 228.7)" stroke-width="1.603" fill="#006700"/><path d="M320.26 487.2c0 59.825-11.597 108.32-25.903 108.32s-25.903-48.498-25.903-108.32c0-59.825 11.597-108.32 25.903-108.32s25.903 48.498 25.903 108.32z" transform="matrix(-.1 -.1 -.1 .1 296.8 199.5)" stroke-width="1.603" fill="#006700"/><path d="M320.26 487.2c0 59.825-11.597 108.32-25.903 108.32s-25.903-48.498-25.903-108.32c0-59.825 11.597-108.32 25.903-108.32s25.903 48.498 25.903 108.32z" transform="matrix(-.1 0 0 .1 286.5 182.4)" stroke-width="1.603" fill="#006700"/><path d="M320.26 487.2c0 59.825-11.597 108.32-25.903 108.32s-25.903-48.498-25.903-108.32c0-59.825 11.597-108.32 25.903-108.32s25.903 48.498 25.903 108.32z" transform="matrix(-.1 .1 .1 .1 219.3 183.4)" stroke-width="1.603" fill="#006700"/><path d="M320.26 487.2c0 59.825-11.597 108.32-25.903 108.32s-25.903-48.498-25.903-108.32c0-59.825 11.597-108.32 25.903-108.32s25.903 48.498 25.903 108.32z" transform="matrix(-.1 .1 0 .1 236.2 182.9)" stroke-width="1.603" fill="#006700"/><path d="M320.26 487.2c0 59.825-11.597 108.32-25.903 108.32s-25.903-48.498-25.903-108.32c0-59.825 11.597-108.32 25.903-108.32s25.903 48.498 25.903 108.32z" transform="matrix(-.1 -.1 0 .1 291.4 228.4)" stroke-width="1.603" fill="#006700"/><path d="M320.26 487.2c0 59.825-11.597 108.32-25.903 108.32s-25.903-48.498-25.903-108.32c0-59.825 11.597-108.32 25.903-108.32s25.903 48.498 25.903 108.32z" transform="matrix(-.1 0 0 .1 276 203.4)" stroke-width="1.603" fill="#006700"/><path d="M320.26 487.2c0 59.825-11.597 108.32-25.903 108.32s-25.903-48.498-25.903-108.32c0-59.825 11.597-108.32 25.903-108.32s25.903 48.498 25.903 108.32z" transform="matrix(-.1 0 0 .1 260.1 191.9)" stroke-width="1.603" fill="#006700"/><path d="M320.26 487.2c0 59.825-11.597 108.32-25.903 108.32s-25.903-48.498-25.903-108.32c0-59.825 11.597-108.32 25.903-108.32s25.903 48.498 25.903 108.32z" transform="matrix(-.1 .1 .1 .1 200.3 208.6)" stroke-width="1.603" fill="#006700"/><path d="M490.58 234.24c0 .846-.823 1.53-1.837 1.53s-1.838-.684-1.838-1.53.823-1.53 1.838-1.53 1.837.684 1.837 1.53z" transform="matrix(-.4 -.5 -.7 .4 623.8 344.4)" stroke-width=".332" fill="red"/><path d="M490.58 234.24c0 .846-.823 1.53-1.837 1.53s-1.838-.684-1.838-1.53.823-1.53 1.838-1.53 1.837.684 1.837 1.53z" transform="matrix(-.4 -.5 -.7 .4 626.3 348.9)" stroke-width=".332" fill="red"/><path d="M320.26 487.2c0 59.825-11.597 108.32-25.903 108.32s-25.903-48.498-25.903-108.32c0-59.825 11.597-108.32 25.903-108.32s25.903 48.498 25.903 108.32z" transform="matrix(-.1 .1 .1 .1 218.7 201.9)" stroke-width="1.603" fill="#006700"/><path d="M320.26 487.2c0 59.825-11.597 108.32-25.903 108.32s-25.903-48.498-25.903-108.32c0-59.825 11.597-108.32 25.903-108.32s25.903 48.498 25.903 108.32z" transform="matrix(-.1 -.1 0 .1 294.1 231.7)" stroke-width="1.603" fill="#006700"/><path d="M320.26 487.2c0 59.825-11.597 108.32-25.903 108.32s-25.903-48.498-25.903-108.32c0-59.825 11.597-108.32 25.903-108.32s25.903 48.498 25.903 108.32z" transform="matrix(-.1 0 0 .2 269.1 209.8)" stroke-width="1.603" fill="#006700"/><path d="M320.26 487.2c0 59.825-11.597 108.32-25.903 108.32s-25.903-48.498-25.903-108.32c0-59.825 11.597-108.32 25.903-108.32s25.903 48.498 25.903 108.32z" transform="matrix(-.1 0 .1 .1 247.9 203)" stroke-width="1.603" fill="#006700"/><path d="M320.26 487.2c0 59.825-11.597 108.32-25.903 108.32s-25.903-48.498-25.903-108.32c0-59.825 11.597-108.32 25.903-108.32s25.903 48.498 25.903 108.32z" transform="matrix(0 .2 .2 0 175.2 260.4)" stroke-width="1.603" fill="#006700"/><path d="M490.58 234.24c0 .846-.823 1.53-1.837 1.53s-1.838-.684-1.838-1.53.823-1.53 1.838-1.53 1.837.684 1.837 1.53z" transform="matrix(-.6 .7 .9 .7 303.5 -210.8)" stroke-width=".332" fill="red"/><path d="M490.58 234.24c0 .846-.823 1.53-1.837 1.53s-1.838-.684-1.838-1.53.823-1.53 1.838-1.53 1.837.684 1.837 1.53z" transform="matrix(-.6 .7 .9 .7 308.7 -216.2)" stroke-width=".332" fill="red"/><path d="M320.26 487.2c0 59.825-11.597 108.32-25.903 108.32s-25.903-48.498-25.903-108.32c0-59.825 11.597-108.32 25.903-108.32s25.903 48.498 25.903 108.32z" transform="matrix(0 .1 .2 .1 189.3 243.1)" stroke-width="1.603" fill="#006700"/><path d="M320.26 487.2c0 59.825-11.597 108.32-25.903 108.32s-25.903-48.498-25.903-108.32c0-59.825 11.597-108.32 25.903-108.32s25.903 48.498 25.903 108.32z" transform="matrix(-.2 0 .1 .1 278.1 226.9)" stroke-width="1.603" fill="#006700"/><path d="M320.26 487.2c0 59.825-11.597 108.32-25.903 108.32s-25.903-48.498-25.903-108.32c0-59.825 11.597-108.32 25.903-108.32s25.903 48.498 25.903 108.32z" transform="matrix(-.1 .1 .1 .1 242.2 220.8)" stroke-width="1.603" fill="#006700"/><path d="M320.26 487.2c0 59.825-11.597 108.32-25.903 108.32s-25.903-48.498-25.903-108.32c0-59.825 11.597-108.32 25.903-108.32s25.903 48.498 25.903 108.32z" transform="matrix(-.1 .1 .1 .1 218.2 226.8)" stroke-width="1.603" fill="#006700"/><g stroke-width="1.603" fill="#006700"><path d="M314.71 506.2c0 45.062-10.064 81.59-22.48 81.59s-22.478-36.53-22.478-81.59c0-45.062 10.064-81.59 22.48-81.59s22.478 36.53 22.478 81.59z" transform="matrix(0 .2 .2 0 176.2 267.5)"/><path d="M314.71 506.2c0 45.062-10.064 81.59-22.48 81.59s-22.478-36.53-22.478-81.59c0-45.062 10.064-81.59 22.48-81.59s22.478 36.53 22.478 81.59z" transform="matrix(-.2 .1 .1 .2 268.8 191.3)"/><path d="M314.71 506.2c0 45.062-10.064 81.59-22.48 81.59s-22.478-36.53-22.478-81.59c0-45.062 10.064-81.59 22.48-81.59s22.478 36.53 22.478 81.59z" transform="matrix(-.1 .2 .2 .1 208.1 223.3)"/></g><g stroke-width="1.603" fill="#006700"><path d="M314.71 506.2c0 45.062-10.064 81.59-22.48 81.59s-22.478-36.53-22.478-81.59c0-45.062 10.064-81.59 22.48-81.59s22.478 36.53 22.478 81.59z" transform="matrix(-.1 0 -.1 .1 355.3 150.3)"/><path d="M314.71 506.2c0 45.062-10.064 81.59-22.48 81.59s-22.478-36.53-22.478-81.59c0-45.062 10.064-81.59 22.48-81.59s22.478 36.53 22.478 81.59z" transform="matrix(0 -.1 -.1 0 343.7 206.9)"/><path d="M314.71 506.2c0 45.062-10.064 81.59-22.48 81.59s-22.478-36.53-22.478-81.59c0-45.062 10.064-81.59 22.48-81.59s22.478 36.53 22.478 81.59z" transform="matrix(0 -.1 -.1 .1 358.5 173.8)"/></g><path d="M490.58 234.24c0 .846-.823 1.53-1.837 1.53s-1.838-.684-1.838-1.53.823-1.53 1.838-1.53 1.837.684 1.837 1.53z" transform="matrix(-.9 0 0 1.1 681 -17.9)" stroke-width=".332" fill="red"/><path d="M490.58 234.24c0 .846-.823 1.53-1.837 1.53s-1.838-.684-1.838-1.53.823-1.53 1.838-1.53 1.837.684 1.837 1.53z" transform="matrix(-.9 0 0 1.1 688.5 -17.2)" stroke-width=".332" fill="red"/><path d="M490.58 234.24c0 .846-.823 1.53-1.837 1.53s-1.838-.684-1.838-1.53.823-1.53 1.838-1.53 1.837.684 1.837 1.53z" transform="matrix(-.8 .5 .6 1 490.1 -175.9)" stroke-width=".332" fill="red"/><path d="M490.58 234.24c0 .846-.823 1.53-1.837 1.53s-1.838-.684-1.838-1.53.823-1.53 1.838-1.53 1.837.684 1.837 1.53z" transform="matrix(-.8 .5 .6 1 497 -178.9)" stroke-width=".332" fill="red"/><path d="M490.58 234.24c0 .846-.823 1.53-1.837 1.53s-1.838-.684-1.838-1.53.823-1.53 1.838-1.53 1.837.684 1.837 1.53z" transform="matrix(-.5 -.4 -.5 .5 640.9 250.1)" stroke-width=".332" fill="red"/><path d="M490.58 234.24c0 .846-.823 1.53-1.837 1.53s-1.838-.684-1.838-1.53.823-1.53 1.838-1.53 1.837.684 1.837 1.53z" transform="matrix(-.5 -.4 -.5 .5 644.6 253.7)" stroke-width=".332" fill="red"/><g><path d="M490.58 234.24c0 .846-.823 1.53-1.837 1.53s-1.838-.684-1.838-1.53.823-1.53 1.838-1.53 1.837.684 1.837 1.53z" transform="matrix(.8 -.5 .6 1 -140.2 213.7)" stroke-width=".332" fill="red"/><path d="M490.58 234.24c0 .846-.823 1.53-1.837 1.53s-1.838-.684-1.838-1.53.823-1.53 1.838-1.53 1.837.684 1.837 1.53z" transform="matrix(.8 -.5 .6 1 -146.2 218.4)" stroke-width=".332" fill="red"/><path d="M259.03 105.71s400.32 70.645 414.45 395.62c14.13 324.97-188.39 367.36-259.03 419.16-70.645 51.807-113.03 113.03-146 113.03-32.968 0-80.065-14.13-80.065-14.13s9.42 51.81 75.355 47.1c65.936-4.71 127.16-113.03 164.84-131.87s277.88-98.9 259.04-428.58c-14.13-353.23-423.88-390.91-428.59-400.33z" transform="matrix(.2 0 0 .2 309.6 149.4)" stroke-width="1.603" fill="#006700"/><path d="M320.26 487.2c0 59.825-11.597 108.32-25.903 108.32s-25.903-48.498-25.903-108.32c0-59.825 11.597-108.32 25.903-108.32s25.903 48.498 25.903 108.32z" transform="matrix(.1 0 0 .1 345.7 153.7)" stroke-width="1.603" fill="#006700"/><path d="M320.26 487.2c0 59.825-11.597 108.32-25.903 108.32s-25.903-48.498-25.903-108.32c0-59.825 11.597-108.32 25.903-108.32s25.903 48.498 25.903 108.32z" transform="matrix(.1 0 0 .1 337.5 163)" stroke-width="1.603" fill="#006700"/><path d="M320.26 487.2c0 59.825-11.597 108.32-25.903 108.32s-25.903-48.498-25.903-108.32c0-59.825 11.597-108.32 25.903-108.32s25.903 48.498 25.903 108.32z" transform="matrix(0 -.1 .1 0 333.2 213)" stroke-width="1.603" fill="#006700"/><path d="M320.26 487.2c0 59.825-11.597 108.32-25.903 108.32s-25.903-48.498-25.903-108.32c0-59.825 11.597-108.32 25.903-108.32s25.903 48.498 25.903 108.32z" transform="matrix(0 -.1 .1 0 328.5 194)" stroke-width="1.603" fill="#006700"/><path d="M320.26 487.2c0 59.825-11.597 108.32-25.903 108.32s-25.903-48.498-25.903-108.32c0-59.825 11.597-108.32 25.903-108.32s25.903 48.498 25.903 108.32z" transform="matrix(.1 -.1 .1 .1 330.5 180.3)" stroke-width="1.603" fill="#006700"/><path d="M490.58 234.24c0 .846-.823 1.53-1.837 1.53s-1.838-.684-1.838-1.53.823-1.53 1.838-1.53 1.837.684 1.837 1.53z" transform="matrix(.9 -.3 .4 1.1 -109.9 108)" stroke-width=".332" fill="red"/><path d="M490.58 234.24c0 .846-.823 1.53-1.837 1.53s-1.838-.684-1.838-1.53.823-1.53 1.838-1.53 1.837.684 1.837 1.53z" transform="matrix(.9 -.3 .4 1.1 -116.8 111.1)" stroke-width=".332" fill="red"/><path d="M320.26 487.2c0 59.825-11.597 108.32-25.903 108.32s-25.903-48.498-25.903-108.32c0-59.825 11.597-108.32 25.903-108.32s25.903 48.498 25.903 108.32z" transform="matrix(.1 0 0 .1 363.6 137.3)" stroke-width="1.603" fill="#006700"/><path d="M320.26 487.2c0 59.825-11.597 108.32-25.903 108.32s-25.903-48.498-25.903-108.32c0-59.825 11.597-108.32 25.903-108.32s25.903 48.498 25.903 108.32z" transform="matrix(.1 0 0 .1 349.2 146.9)" stroke-width="1.603" fill="#006700"/><path d="M320.26 487.2c0 59.825-11.597 108.32-25.903 108.32s-25.903-48.498-25.903-108.32c0-59.825 11.597-108.32 25.903-108.32s25.903 48.498 25.903 108.32z" transform="matrix(0 -.1 .1 .1 327.1 216.6)" stroke-width="1.603" fill="#006700"/><path d="M320.26 487.2c0 59.825-11.597 108.32-25.903 108.32s-25.903-48.498-25.903-108.32c0-59.825 11.597-108.32 25.903-108.32s25.903 48.498 25.903 108.32z" transform="matrix(.1 -.1 .1 .1 326.6 187.2)" stroke-width="1.603" fill="#006700"/><path d="M320.26 487.2c0 59.825-11.597 108.32-25.903 108.32s-25.903-48.498-25.903-108.32c0-59.825 11.597-108.32 25.903-108.32s25.903 48.498 25.903 108.32z" transform="matrix(.1 -.1 .1 .1 333.8 168.5)" stroke-width="1.603" fill="#006700"/><path d="M320.26 487.2c0 59.825-11.597 108.32-25.903 108.32s-25.903-48.498-25.903-108.32c0-59.825 11.597-108.32 25.903-108.32s25.903 48.498 25.903 108.32z" transform="matrix(.1 .1 0 .1 387.6 158.3)" stroke-width="1.603" fill="#006700"/><path d="M320.26 487.2c0 59.825-11.597 108.32-25.903 108.32s-25.903-48.498-25.903-108.32c0-59.825 11.597-108.32 25.903-108.32s25.903 48.498 25.903 108.32z" transform="matrix(.1 0 0 .1 371.8 164.9)" stroke-width="1.603" fill="#006700"/><path d="M320.26 487.2c0 59.825-11.597 108.32-25.903 108.32s-25.903-48.498-25.903-108.32c0-59.825 11.597-108.32 25.903-108.32s25.903 48.498 25.903 108.32z" transform="matrix(.1 -.1 .1 .1 337.9 229.4)" stroke-width="1.603" fill="#006700"/><path d="M320.26 487.2c0 59.825-11.597 108.32-25.903 108.32s-25.903-48.498-25.903-108.32c0-59.825 11.597-108.32 25.903-108.32s25.903 48.498 25.903 108.32z" transform="matrix(.1 -.1 .1 .1 342.7 200.3)" stroke-width="1.603" fill="#006700"/><path d="M320.26 487.2c0 59.825-11.597 108.32-25.903 108.32s-25.903-48.498-25.903-108.32c0-59.825 11.597-108.32 25.903-108.32s25.903 48.498 25.903 108.32z" transform="matrix(.1 0 0 .1 353 183.2)" stroke-width="1.603" fill="#006700"/><path d="M320.26 487.2c0 59.825-11.597 108.32-25.903 108.32s-25.903-48.498-25.903-108.32c0-59.825 11.597-108.32 25.903-108.32s25.903 48.498 25.903 108.32z" transform="matrix(.1 .1 -.1 .1 420.2 184.2)" stroke-width="1.603" fill="#006700"/><path d="M320.26 487.2c0 59.825-11.597 108.32-25.903 108.32s-25.903-48.498-25.903-108.32c0-59.825 11.597-108.32 25.903-108.32s25.903 48.498 25.903 108.32z" transform="matrix(.1 .1 0 .1 403.3 183.7)" stroke-width="1.603" fill="#006700"/><path d="M320.26 487.2c0 59.825-11.597 108.32-25.903 108.32s-25.903-48.498-25.903-108.32c0-59.825 11.597-108.32 25.903-108.32s25.903 48.498 25.903 108.32z" transform="matrix(.1 -.1 0 .1 348.1 229.2)" stroke-width="1.603" fill="#006700"/><path d="M320.26 487.2c0 59.825-11.597 108.32-25.903 108.32s-25.903-48.498-25.903-108.32c0-59.825 11.597-108.32 25.903-108.32s25.903 48.498 25.903 108.32z" transform="matrix(.1 0 0 .1 363.5 204.2)" stroke-width="1.603" fill="#006700"/><path d="M320.26 487.2c0 59.825-11.597 108.32-25.903 108.32s-25.903-48.498-25.903-108.32c0-59.825 11.597-108.32 25.903-108.32s25.903 48.498 25.903 108.32z" transform="matrix(.1 0 0 .1 379.4 192.7)" stroke-width="1.603" fill="#006700"/><path d="M320.26 487.2c0 59.825-11.597 108.32-25.903 108.32s-25.903-48.498-25.903-108.32c0-59.825 11.597-108.32 25.903-108.32s25.903 48.498 25.903 108.32z" transform="matrix(.1 .1 -.1 .1 439.2 209.4)" stroke-width="1.603" fill="#006700"/><path d="M490.58 234.24c0 .846-.823 1.53-1.837 1.53s-1.838-.684-1.838-1.53.823-1.53 1.838-1.53 1.837.684 1.837 1.53z" transform="matrix(.4 -.5 .7 .4 15.7 345.2)" stroke-width=".332" fill="red"/><path d="M490.58 234.24c0 .846-.823 1.53-1.837 1.53s-1.838-.684-1.838-1.53.823-1.53 1.838-1.53 1.837.684 1.837 1.53z" transform="matrix(.4 -.5 .7 .4 13.2 349.7)" stroke-width=".332" fill="red"/><path d="M320.26 487.2c0 59.825-11.597 108.32-25.903 108.32s-25.903-48.498-25.903-108.32c0-59.825 11.597-108.32 25.903-108.32s25.903 48.498 25.903 108.32z" transform="matrix(.1 .1 -.1 .1 420.8 202.7)" stroke-width="1.603" fill="#006700"/><path d="M320.26 487.2c0 59.825-11.597 108.32-25.903 108.32s-25.903-48.498-25.903-108.32c0-59.825 11.597-108.32 25.903-108.32s25.903 48.498 25.903 108.32z" transform="matrix(.1 -.1 0 .1 345.4 232.4)" stroke-width="1.603" fill="#006700"/><path d="M320.26 487.2c0 59.825-11.597 108.32-25.903 108.32s-25.903-48.498-25.903-108.32c0-59.825 11.597-108.32 25.903-108.32s25.903 48.498 25.903 108.32z" transform="matrix(.1 0 0 .2 370.4 210.5)" stroke-width="1.603" fill="#006700"/><path d="M320.26 487.2c0 59.825-11.597 108.32-25.903 108.32s-25.903-48.498-25.903-108.32c0-59.825 11.597-108.32 25.903-108.32s25.903 48.498 25.903 108.32z" transform="matrix(.1 0 -.1 .1 391.5 203.7)" stroke-width="1.603" fill="#006700"/><path d="M320.26 487.2c0 59.825-11.597 108.32-25.903 108.32s-25.903-48.498-25.903-108.32c0-59.825 11.597-108.32 25.903-108.32s25.903 48.498 25.903 108.32z" transform="matrix(0 .2 -.2 0 464.3 261.1)" stroke-width="1.603" fill="#006700"/><path d="M490.58 234.24c0 .846-.823 1.53-1.837 1.53s-1.838-.684-1.838-1.53.823-1.53 1.838-1.53 1.837.684 1.837 1.53z" transform="matrix(.6 .7 -.9 .7 336 -210)" stroke-width=".332" fill="red"/><path d="M490.58 234.24c0 .846-.823 1.53-1.837 1.53s-1.838-.684-1.838-1.53.823-1.53 1.838-1.53 1.837.684 1.837 1.53z" transform="matrix(.6 .7 -.9 .7 330.8 -215.5)" stroke-width=".332" fill="red"/><path d="M320.26 487.2c0 59.825-11.597 108.32-25.903 108.32s-25.903-48.498-25.903-108.32c0-59.825 11.597-108.32 25.903-108.32s25.903 48.498 25.903 108.32z" transform="matrix(0 .1 -.2 .1 450.2 243.8)" stroke-width="1.603" fill="#006700"/><path d="M320.26 487.2c0 59.825-11.597 108.32-25.903 108.32s-25.903-48.498-25.903-108.32c0-59.825 11.597-108.32 25.903-108.32s25.903 48.498 25.903 108.32z" transform="matrix(.2 0 -.1 .1 361.4 227.7)" stroke-width="1.603" fill="#006700"/><path d="M320.26 487.2c0 59.825-11.597 108.32-25.903 108.32s-25.903-48.498-25.903-108.32c0-59.825 11.597-108.32 25.903-108.32s25.903 48.498 25.903 108.32z" transform="matrix(.1 .1 -.1 .1 397.3 221.6)" stroke-width="1.603" fill="#006700"/><path d="M320.26 487.2c0 59.825-11.597 108.32-25.903 108.32s-25.903-48.498-25.903-108.32c0-59.825 11.597-108.32 25.903-108.32s25.903 48.498 25.903 108.32z" transform="matrix(.1 .1 -.1 .1 421.3 227.6)" stroke-width="1.603" fill="#006700"/><g stroke-width="1.603" fill="#006700"><path d="M314.71 506.2c0 45.062-10.064 81.59-22.48 81.59s-22.478-36.53-22.478-81.59c0-45.062 10.064-81.59 22.48-81.59s22.478 36.53 22.478 81.59z" transform="matrix(0 .2 -.2 0 463.3 268.3)"/><path d="M314.71 506.2c0 45.062-10.064 81.59-22.48 81.59s-22.478-36.53-22.478-81.59c0-45.062 10.064-81.59 22.48-81.59s22.478 36.53 22.478 81.59z" transform="matrix(.2 .1 -.1 .2 370.6 192.1)"/><path d="M314.71 506.2c0 45.062-10.064 81.59-22.48 81.59s-22.478-36.53-22.478-81.59c0-45.062 10.064-81.59 22.48-81.59s22.478 36.53 22.478 81.59z" transform="matrix(.1 .2 -.2 .1 431.4 224.1)"/></g><g stroke-width="1.603" fill="#006700"><path d="M314.71 506.2c0 45.062-10.064 81.59-22.48 81.59s-22.478-36.53-22.478-81.59c0-45.062 10.064-81.59 22.48-81.59s22.478 36.53 22.478 81.59z" transform="matrix(.1 0 .1 .1 284.2 151)"/><path d="M314.71 506.2c0 45.062-10.064 81.59-22.48 81.59s-22.478-36.53-22.478-81.59c0-45.062 10.064-81.59 22.48-81.59s22.478 36.53 22.478 81.59z" transform="matrix(0 -.1 .1 0 295.7 207.6)"/><path d="M314.71 506.2c0 45.062-10.064 81.59-22.48 81.59s-22.478-36.53-22.478-81.59c0-45.062 10.064-81.59 22.48-81.59s22.478 36.53 22.478 81.59z" transform="matrix(0 -.1 .1 .1 281 174.6)"/></g><path d="M490.58 234.24c0 .846-.823 1.53-1.837 1.53s-1.838-.684-1.838-1.53.823-1.53 1.838-1.53 1.837.684 1.837 1.53z" transform="matrix(.9 0 0 1.1 -41.5 -17.2)" stroke-width=".332" fill="red"/><path d="M490.58 234.24c0 .846-.823 1.53-1.837 1.53s-1.838-.684-1.838-1.53.823-1.53 1.838-1.53 1.837.684 1.837 1.53z" transform="matrix(.9 0 0 1.1 -49.1 -16.4)" stroke-width=".332" fill="red"/><path d="M490.58 234.24c0 .846-.823 1.53-1.837 1.53s-1.838-.684-1.838-1.53.823-1.53 1.838-1.53 1.837.684 1.837 1.53z" transform="matrix(.8 .5 -.6 1 149.4 -175.1)" stroke-width=".332" fill="red"/><path d="M490.58 234.24c0 .846-.823 1.53-1.837 1.53s-1.838-.684-1.838-1.53.823-1.53 1.838-1.53 1.837.684 1.837 1.53z" transform="matrix(.8 .5 -.6 1 142.4 -178.2)" stroke-width=".332" fill="red"/><path d="M490.58 234.24c0 .846-.823 1.53-1.837 1.53s-1.838-.684-1.838-1.53.823-1.53 1.838-1.53 1.837.684 1.837 1.53z" transform="matrix(.5 -.4 .5 .5 -1.4 250.8)" stroke-width=".332" fill="red"/><path d="M490.58 234.24c0 .846-.823 1.53-1.837 1.53s-1.838-.684-1.838-1.53.823-1.53 1.838-1.53 1.837.684 1.837 1.53z" transform="matrix(.5 -.4 .5 .5 -5.1 254.4)" stroke-width=".332" fill="red"/></g><g stroke-width=".235" fill="#5387f4"><path d="M411.36 319.5l.037 5.258c10.21-.517 5.263 6.977 7.03 11.223l2.254-2.826 3.123 2.803c-.25-4.908 2.748-17.395-12.443-16.457z" transform="matrix(1.2 0 0 1.2 -188.9 -46.7)"/><path d="M411.36 319.5l.037 5.258c10.21-.517 5.263 6.977 7.03 11.223l2.254-2.826 3.123 2.803c-.25-4.908 2.748-17.395-12.443-16.457z" transform="matrix(-1.2 0 0 1.2 828.8 -46.4)"/><path d="M427.88 303.13c.325 1.9-.45 11.372-.865 13.64-.537 1.924-.447 6.71-10.395 7.148-4.776.21-3.898-4.548-3.68-4.548.215 0 1.948 1.733 3.897 0 1.948-1.732-.444-17.53 1.515-19.488 2.156-2.155 9.985 1.496 9.528 3.248z" transform="matrix(1.1 .5 -.5 1.1 37.6 -229.5)"/><path d="M356.703 317.883c-2.13-1.32-3.11-2.385-4.806-.172-6.792 8.95-5.946 19.996-17.974 17.41-5.652-1.188-2.014-6.952-1.775-6.843.238.108 1.277 2.88 4.288 1.95 3.01-.933 8.276-19.506 11.41-20.68 3.45-1.293 10.236 6.637 8.857 8.336z" stroke-width=".2839505"/><path d="M427.88 303.13c.325 1.9-.45 11.372-.865 13.64-.537 1.924-.447 6.71-10.395 7.148-4.776.21-3.898-4.548-3.68-4.548.215 0 1.948 1.733 3.897 0 1.948-1.732-.444-17.53 1.515-19.488 2.156-2.155 9.985 1.496 9.528 3.248z" transform="matrix(-1.1 .5 .5 1.1 604.3 -229.5)"/><path d="M285.197 317.883c2.13-1.32 3.11-2.385 4.806-.172 6.792 8.95 5.946 19.996 17.974 17.41 5.652-1.188 2.014-6.952 1.775-6.843-.238.108-1.277 2.88-4.288 1.95-3.01-.933-8.276-19.506-11.41-20.68-3.45-1.293-10.236 6.637-8.857 8.336z" stroke-width=".2839505"/><path d="M411.57 319.06l-.18 6.774 5.08-.037.613-6.737h-5.513z" transform="matrix(1.2 0 0 1.2 -189.5 -46.7)"/></g></g><path d="M409.69 276.93s-14.322 12.064-14.322 20.725c.306 3.457 3.17 6.98 8.407 9.52-2.418-3.586-2.747-6.52-2.747-9.93.306-5.86 8.46-12.932 8.46-12.932l.202-7.383z" fill-rule="evenodd" transform="matrix(-.9 0 0 .9 694 21.5)" stroke="#000" stroke-width=".235" fill="#5387f4"/><g stroke="#000" fill-rule="evenodd"><path transform="matrix(0 -1.3 -1.1 -.2 -146.6 388.2)" stroke-width=".176" fill="#ffd200" d="M172.65-427.57h49.93v2.055h-49.93z"/><path d="M283.46-389.76l-17.717 70.866 17.717 25.037 17.716-25.037-17.716-70.866z" transform="matrix(-.2 0 0 .2 376.4 239.8)" stroke-width="1.066" fill="#ffd200"/><path d="M368.98-419.45s-40.71-27.717-40.71.866c0 28.582 39.844.866 40.71-.866zm-7.795-.18s-28.583-19.343-28.583.603c0 19.945 27.975.604 28.583-.604z" transform="matrix(-.1 0 0 .1 378.7 217.4)" stroke-width="1.685"/><path d="M368.98-419.45s-40.71-27.717-40.71.866c0 28.582 39.844.866 40.71-.866zm-7.795-.18s-28.583-19.343-28.583.603c0 19.945 27.975.604 28.583-.604z" transform="matrix(.1 0 0 -.1 260.8 130.5)" stroke-width="1.685"/><path d="M422.29-165.7l2.45-.306s1.766 2.602 3.675 6.737c1.68 4.332 3.368 11.33 4.9 27.256-4.594-.307-21.437 1.53-21.437 1.53s.236-19.168 6.125-26.028c2.757-2.906 4.593-8.575 4.287-9.188z" transform="matrix(1.1 0 0 1.3 -146.6 388.2)" stroke-width=".175" fill="#5387f4"/><path d="M422.29-165.7l2.45-.306s1.766 2.602 3.675 6.737c1.68 4.332-4.9 11.637-3.37 27.562-4.592-.307-13.167 1.225-13.167 1.225s.236-19.17 6.125-26.03c2.757-2.905 4.593-8.574 4.287-9.187z" transform="matrix(1.1 0 0 1.3 -146.6 388.2)" stroke-width=".175" fill="#fff"/><path d="M422.29-165.7l2.45-.306s-.613 7.962-2.756 11.943c-2.144 3.98-3.37 22.967-3.063 22.967.308 0-7.042.613-7.042.613s.236-19.17 6.125-26.03c2.757-2.905 4.593-8.574 4.287-9.187z" transform="matrix(1.1 0 0 1.3 -146.6 388.2)" stroke-width=".175" fill="#5387f4"/></g><path d="M409.69 276.93s-14.322 12.064-14.322 20.725c.306 3.457 3.17 6.98 8.407 9.52-2.418-3.586-2.747-6.52-2.747-9.93.306-5.86 8.46-12.932 8.46-12.932l.202-7.383z" fill-rule="evenodd" transform="matrix(.9 0 0 .9 -62.1 28.7)" stroke="#000" stroke-width=".235" fill="#5387f4"/><g stroke="#000" fill-rule="evenodd"><path d="M407.48-248.03l106.3-106.3s-27.516 220.02-88.583 265.75c0 0-53.15 24.117-53.15-.135l35.433-159.31z" transform="matrix(-.4 0 0 .3 483.3 304.2)" stroke-width=".837" fill="#5387f4"/><path d="M407.48-248.03l70.866-70.867s-35.433 230.31-106.3 230.31v-.135l35.433-159.31z" transform="matrix(-.4 0 0 .3 483.3 304.2)" stroke-width=".837" fill="#fff"/><path d="M407.48-248.03l35.433-35.434s-35.433 194.88-70.866 194.88v-.135l35.433-159.31z" transform="matrix(-.4 0 0 .3 483.3 304.2)" stroke-width=".837" fill="#5387f4"/><path transform="matrix(-.3 -.2 -.3 .2 483.3 400.8)" stroke-width=".816" fill="#ffd200" d="M678.85-116.49h177.17v7.323H678.85z"/><path d="M283.46-389.76l-17.717 70.866 17.717 25.037 17.716-25.037-17.716-70.866z" transform="matrix(-.2 .1 .2 .1 355.5 182.9)" stroke-width="1.729" fill="#ffd200"/><path d="M368.98-419.45s-40.71-27.717-40.71.866c0 28.582 39.844.866 40.71-.866zm-7.795-.18s-28.583-19.343-28.583.603c0 19.945 27.975.604 28.583-.604z" transform="matrix(-.2 .1 .1 .1 340.9 187.2)" stroke-width=".837"/><path d="M368.98-419.45s-40.71-27.717-40.71.866c0 28.582 39.844.866 40.71-.866zm-7.795-.18s-28.583-19.343-28.583.603c0 19.945 27.975.604 28.583-.604z" transform="matrix(.1 -.1 -.1 -.1 156.2 195)" stroke-width=".837"/><path d="M407.48-248.03l106.3-53.15S496.063-79.79 407.48-79.79c-53.15 0-70.866-70.866-70.866-70.866l70.866-97.378z" transform="matrix(-.4 0 0 .3 475.5 318.4)" stroke-width=".837" fill="#5387f4"/><path d="M407.48-248.03l70.866-35.434c0 35.434-17.716 185.96-70.866 185.96-35.433 0-70.866-53.15-70.866-53.15l70.866-97.378z" transform="matrix(-.4 0 0 .3 475.5 318.4)" stroke-width=".837" fill="#fff"/><path d="M407.48-248.03l35.433-17.717c0 79.662-17.716 150.53-53.15 150.53-17.716 0-53.15-35.433-53.15-35.433l70.867-97.378z" transform="matrix(-.4 0 0 .3 475.5 318.4)" stroke-width=".837" fill="#5387f4"/><path transform="matrix(-.4 -.1 -.2 .3 483.3 400.8)" stroke-width=".816" fill="#ffd200" d="M569.18-267.74h177.17v7.323H569.18z"/><path d="M283.46-389.76l-17.717 70.866 17.717 25.037 17.716-25.037-17.716-70.866z" transform="matrix(-.1 .2 .2 .1 344.5 193.2)" stroke-width="1.729" fill="#ffd200"/><path d="M368.98-419.45s-40.71-27.717-40.71.866c0 28.582 39.844.866 40.71-.866zm-7.795-.18s-28.583-19.343-28.583.603c0 19.945 27.975.604 28.583-.604z" transform="matrix(-.1 .1 .1 .1 332.3 200.5)" stroke-width=".837"/><path d="M368.98-419.45s-40.71-27.717-40.71.866c0 28.582 39.844.866 40.71-.866zm-7.795-.18s-28.583-19.343-28.583.603c0 19.945 27.975.604 28.583-.604z" transform="matrix(.1 -.1 -.1 0 159.4 248.3)" stroke-width=".837"/></g><g stroke="#000" fill-rule="evenodd"><path d="M407.48-248.03l106.3-106.3s-27.516 220.02-88.583 265.75c0 0-53.15 24.117-53.15-.135l35.433-159.31z" transform="matrix(.4 0 0 .3 162.3 304.2)" stroke-width=".837" fill="#5387f4"/><path d="M407.48-248.03l70.866-70.867s-35.433 230.31-106.3 230.31v-.135l35.433-159.31z" transform="matrix(.4 0 0 .3 162.3 304.2)" stroke-width=".837" fill="#fff"/><path d="M407.48-248.03l35.433-35.434s-35.433 194.88-70.866 194.88v-.135l35.433-159.31z" transform="matrix(.4 0 0 .3 162.3 304.2)" stroke-width=".837" fill="#5387f4"/><path transform="matrix(.3 -.2 .3 .2 162.3 400.8)" stroke-width=".816" fill="#ffd200" d="M678.85-116.49h177.17v7.323H678.85z"/><path d="M283.46-389.76l-17.717 70.866 17.717 25.037 17.716-25.037-17.716-70.866z" transform="matrix(.2 .1 -.2 .1 288.4 182.9)" stroke-width="1.729" fill="#ffd200"/><path d="M368.98-419.45s-40.71-27.717-40.71.866c0 28.582 39.844.866 40.71-.866zm-7.795-.18s-28.583-19.343-28.583.603c0 19.945 27.975.604 28.583-.604z" transform="matrix(.2 .1 -.1 .1 302.8 187.2)" stroke-width=".837"/><path d="M368.98-419.45s-40.71-27.717-40.71.866c0 28.582 39.844.866 40.71-.866zm-7.795-.18s-28.583-19.343-28.583.603c0 19.945 27.975.604 28.583-.604z" transform="matrix(-.1 -.1 .1 -.1 484.8 195)" stroke-width=".837"/><path d="M407.48-248.03l106.3-53.15S496.063-79.79 407.48-79.79c-53.15 0-70.866-70.866-70.866-70.866l70.866-97.378z" transform="matrix(.4 0 0 .3 170 318.4)" stroke-width=".837" fill="#5387f4"/><path d="M407.48-248.03l70.866-35.434c0 35.434-17.716 185.96-70.866 185.96-35.433 0-70.866-53.15-70.866-53.15l70.866-97.378z" transform="matrix(.4 0 0 .3 170 318.4)" stroke-width=".837" fill="#fff"/><path d="M407.48-248.03l35.433-17.717c0 79.662-17.716 150.53-53.15 150.53-17.716 0-53.15-35.433-53.15-35.433l70.867-97.378z" transform="matrix(.4 0 0 .3 170 318.4)" stroke-width=".837" fill="#5387f4"/><path transform="matrix(.4 -.1 .2 .3 162.3 400.8)" stroke-width=".816" fill="#ffd200" d="M569.18-267.74h177.17v7.323H569.18z"/><path d="M283.46-389.76l-17.717 70.866 17.717 25.037 17.716-25.037-17.716-70.866z" transform="matrix(.1 .2 -.2 .1 299.2 193.2)" stroke-width="1.729" fill="#ffd200"/><path d="M368.98-419.45s-40.71-27.717-40.71.866c0 28.582 39.844.866 40.71-.866zm-7.795-.18s-28.583-19.343-28.583.603c0 19.945 27.975.604 28.583-.604z" transform="matrix(.1 .1 -.1 .1 311.2 200.5)" stroke-width=".837"/><path d="M368.98-419.45s-40.71-27.717-40.71.866c0 28.582 39.844.866 40.71-.866zm-7.795-.18s-28.583-19.343-28.583.603c0 19.945 27.975.604 28.583-.604z" transform="matrix(-.1 -.1 .1 0 481.7 248.3)" stroke-width=".837"/></g><g stroke-linejoin="bevel" stroke="#000" stroke-width=".105"><path d="M496.06 627.16l17.717-17.716 17.716 17.716H496.06z" fill-rule="evenodd" transform="matrix(3.3 0 0 5.6 -1378 -3255.4)" fill="#ffd200"/><path d="M496.06 627.16l17.717-17.716 17.716 17.716H496.06z" fill-rule="evenodd" transform="matrix(3 0 0 5.1 -1209.8 -2925.9)" fill="#0ff"/><path d="M419.84 239.14c0 3.89-3.222 7.043-7.196 7.043-3.975 0-7.197-3.153-7.197-7.043s3.222-7.043 7.197-7.043c3.974 0 7.196 3.153 7.196 7.043z" fill-rule="evenodd" fill="#ffd200" transform="matrix(1.2 0 0 1.2 -185.7 -52.7)"/><g fill="none"><path d="M462.73 556.66l-1.18-108.32" transform="matrix(.3 0 0 .3 184.6 70.6)"/><path d="M325.186 239.72l11.656-16.25M326.953 241.483l18.72-7.77M328.366 243.958l21.9.707" stroke-width=".0315"/><path d="M474.51 587.28l42.388 37.677" transform="matrix(.3 0 0 .3 184.6 70.6)"/><path d="M323.42 245.722v10.244M319.534 243.25l-16.602 14.482M321.3 244.31l-7.417 13.775M318.475 241.483l-27.552 9.537M318.12 240.07l-19.427-.707M302.578 231.946l16.955 5.652M310.702 217.465l10.244 19.78" stroke-width=".0315"/></g><g fill-rule="evenodd"><path d="M460.63 219.69c-35.433 0-61.25 6.505-83.044 14.145l5.54-9.58 5.53-9.594 5.54-9.595 5.54-9.578 5.53-9.595 5.54-9.58 6.13-9.768c8.26-7.257 25.98-10.652 43.69-10.652 17.72 0 35.44 3.586 44.3 10.826l5.54 9.595 5.53 9.58 5.54 9.594 5.54 9.578 5.53 9.596 5.54 9.596 5.53 9.58c-22.972-7.64-47.613-14.146-83.046-14.146z" transform="matrix(.3 0 0 .3 185 165)" fill="#c453d7"/><path d="M460.63 212.93c-35.548-.05-75.28 10.597-77.504 11.33l5.53-9.596 5.54-9.596 5.54-9.578 5.53-9.595 5.54-9.58 6.13-9.768c8.26-7.257 25.98-10.652 43.69-10.652 17.72 0 35.44 3.586 44.3 10.826l5.54 9.596 5.53 9.58 5.54 9.594 5.54 9.578 5.53 9.596 5.54 9.595s-42.083-11.33-77.516-11.33z" transform="matrix(.3 0 0 .3 185 165)" fill="#5000c1"/><path d="M460.63 205.27c-26.248-.11-68.686 7.14-71.68 8.504l5.246-8.713 5.54-9.577 5.53-9.595 5.54-9.58 6.13-9.768c8.26-7.257 25.98-10.652 43.69-10.652 17.72 0 35.44 3.586 44.3 10.826l5.54 9.595 5.53 9.578 5.54 9.595 5.54 9.578 5.53 9.597s-36.543-9.387-71.976-9.387z" transform="matrix(.3 0 0 .3 185 165)" fill="#0053d7"/><path d="M460.63 197.32c-34.802-.07-63.717 6.63-66.434 7.74l5.54-9.58 5.53-9.594 5.54-9.58 6.13-9.768c8.26-7.257 25.98-10.652 43.69-10.652 17.72 0 35.44 3.586 44.3 10.826l5.54 9.595 5.53 9.58 5.54 9.594 5.54 9.58s-31.013-7.74-66.446-7.74z" transform="matrix(.3 0 0 .3 185 165)" fill="#009f9f"/><path d="M460.63 190.56c-35.605-.123-57.963 4.465-60.894 4.93l5.53-9.594 5.54-9.58 6.13-9.768c8.26-7.257 25.98-10.652 43.69-10.652 17.72 0 35.44 3.586 44.3 10.826l5.54 9.595 5.53 9.58 5.54 9.594s-25.473-4.93-60.906-4.93z" transform="matrix(.3 0 0 .3 185 165)" fill="#ff0"/><path d="M460.34 181.72c-31.014-.67-53.786 4.25-55.07 4.167l5.54-9.58 6.13-9.768c8.26-7.258 25.98-10.653 43.69-10.653 17.72 0 35.44 3.586 44.3 10.826l5.54 9.595 5.53 9.58s-20.227-4.168-55.66-4.168z" transform="matrix(.3 0 0 .3 185 165)" fill="#f50"/><path d="M461.51 171.42c-31.13.257-47.247 4.34-50.707 4.89l6.13-9.768c8.26-7.257 25.98-10.652 43.69-10.652 17.72 0 35.44 3.586 44.3 10.826l5.54 9.595s-13.52-4.89-48.953-4.89z" transform="matrix(.3 0 0 .3 185 165)" fill="#ff0b00"/></g><path d="M496.06 627.16l4.983-4.983h25.467l4.983 4.983H496.06z" fill-rule="evenodd" transform="matrix(3 0 0 5.1 -1209.8 -2925.9)" fill="#4363ff"/><path d="M438.01 565.49c.41 0 .727-1.87 1.766-3.532 2.222-1.61 4.568-2.87 7.653-3.533 1.664-.832 5.08-.588 7.652-.588 3.61.324 3.837 1.865 5.888 4.12.902 1.838 3.038 4.39 4.12 7.065 1.173 1.42 2.108 3.626 2.944 5.3.855 1.803 1.765 4.525 2.944 7.063.605 2.824 1.177 5.028 1.177 8.242 0 3.352-.554 4.78-1.177 7.065-1.794.598-5.29.888-7.065 0-1.9-1.7-5.162-.617-6.475-2.355-3.386-.474-4.208-4.46-5.888-6.475-1.175-1.73-1.156-3.032-2.355-4.71-1.857-1.327-2.108-2.945-2.943-5.3.736-2.516 2.015-3.067 4.12-4.12 1.128-1.644 1.767-2.304 1.767-5.298-.425-3.334-1.626-2.982-4.71-3.533-3.815 0-5.77.394-9.42.59z" fill-rule="evenodd" transform="matrix(.2 0 0 .2 231.4 150.3)" fill="red"/><g fill-rule="evenodd" fill="#6da700"><path d="M334.69 674.38s28.307-4.996 46.624-19.982c18.316-14.986 18.317-39.964 26.642-39.964 8.326 0 9.99 28.308 29.973 38.3 19.98 9.99 51.62 23.31 51.62 23.31l-154.86-1.664z" transform="matrix(.1 0 0 .2 266.3 165.4)"/><path d="M334.69 674.38s28.307-4.996 46.624-19.982c18.316-14.986 18.317-39.964 26.642-39.964 8.326 0 9.99 28.308 29.973 38.3 19.98 9.99 51.62 23.31 51.62 23.31l-154.86-1.664z" transform="matrix(.1 0 0 .2 264.5 165.6)"/><path d="M334.69 674.38s28.307-4.996 46.624-19.982c18.316-14.986 18.317-39.964 26.642-39.964 8.326 0 9.99 28.308 29.973 38.3 19.98 9.99 51.62 23.31 51.62 23.31l-154.86-1.664z" transform="matrix(.2 0 0 .2 248.4 154.8)"/><path d="M334.69 674.38s28.307-4.996 46.624-19.982c18.316-14.986 18.317-39.964 26.642-39.964 8.326 0 9.99 28.308 29.973 38.3 19.98 9.99 51.62 23.31 51.62 23.31l-154.86-1.664z" transform="matrix(.2 0 .1 .2 233.5 135.1)"/><path d="M334.69 674.38s28.307-4.996 46.624-19.982c18.316-14.986 18.317-39.964 26.642-39.964 8.326 0 9.99 28.308 29.973 38.3 19.98 9.99 51.62 23.31 51.62 23.31l-154.86-1.664z" transform="matrix(.2 0 .1 .2 216.4 119.9)"/><path d="M334.69 674.38s28.307-4.996 46.624-19.982c18.316-14.986 18.317-39.964 26.642-39.964 8.326 0 9.99 28.308 29.973 38.3 19.98 9.99 51.62 23.31 51.62 23.31l-154.86-1.664z" transform="matrix(.2 0 .1 .3 202.4 99.7)"/><path d="M334.69 674.38s28.307-4.996 46.624-19.982c18.316-14.986 18.317-39.964 26.642-39.964 8.326 0 9.99 28.308 29.973 38.3 19.98 9.99 51.62 23.31 51.62 23.31l-154.86-1.664z" transform="matrix(.2 0 0 .3 199 96.5)"/><path d="M334.69 674.38s28.307-4.996 46.624-19.982c18.316-14.986 18.317-39.964 26.642-39.964 8.326 0 9.99 28.308 29.973 38.3 19.98 9.99 51.62 23.31 51.62 23.31l-154.86-1.664z" transform="matrix(.2 0 0 .3 195.7 96.6)"/><path d="M334.69 674.38s28.307-4.996 46.624-19.982c18.316-14.986 18.317-39.964 26.642-39.964 8.326 0 9.99 28.308 29.973 38.3 19.98 9.99 51.62 23.31 51.62 23.31l-154.86-1.664z" transform="matrix(.3 0 .1 .3 168.4 78)"/><path d="M334.69 674.38s28.307-4.996 46.624-19.982c18.316-14.986 18.317-39.964 26.642-39.964 8.326 0 9.99 28.308 29.973 38.3 19.98 9.99 51.62 23.31 51.62 23.31l-154.86-1.664z" transform="matrix(.3 0 .1 .4 144.8 45.6)"/><path d="M334.69 674.38s28.307-4.996 46.624-19.982c18.316-14.986 18.317-39.964 26.642-39.964 8.326 0 9.99 28.308 29.973 38.3 19.98 9.99 51.62 23.31 51.62 23.31l-154.86-1.664z" transform="matrix(.3 0 .1 .4 116.5 19.9)"/><path d="M334.69 674.38s28.307-4.996 46.624-19.982c18.316-14.986 18.317-39.964 26.642-39.964 8.326 0 9.99 28.308 29.973 38.3 19.98 9.99 51.62 23.31 51.62 23.31l-154.86-1.664z" transform="matrix(.4 0 .1 .4 94.7 -13.2)"/></g></g><path d="M380.34 293.64l5.82-4.9s7.96 6.43 23.578 6.125c14.71-.283 19.906-5.513 22.05-6.126l5.817 5.205c-3.37.92-15.31 6.737-28.785 7.35-14.087-.612-26.642-5.817-28.48-7.655z" fill-rule="evenodd" transform="matrix(1.2 0 0 1.2 -183.5 -52.3)" stroke="#000" stroke-width=".235" fill="#ffc200"/><path d="M342.674 308.368l-1.068-2.957-1.256.442-.142-.394 3.02-1.06.142.394-1.26.442 1.07 2.957-.506.178zM333.573 311.03l-.93-3.438 2.826-.74.11.404-2.31.605.285 1.055 2.162-.567.11.403-2.163.568.317 1.17 2.4-.627.11.406-2.917.765zM328.392 312.18l-.93-3.438.52-.136.928 3.44-.518.135zM324.922 312.607l-.444-3.532.53-.064.393 3.116 1.978-.24.052.418-2.508.303zM318.733 312.932l-.103-3.558.55-.014 2.202 2.738-.08-2.793.512-.013.103 3.558-.55.014-2.202-2.742.08 2.797-.512.012zM312.386 312.575l.37-3.54.53.055-.368 3.54-.532-.055zM308.016 311.804l.663-3.498.538.1 1.565 3.14.52-2.746.504.095-.663 3.498-.54-.1-1.564-3.144-.52 2.75-.504-.096zM307.72 308.187l.518.134-.523 1.992c-.09.345-.207.61-.35.79-.143.18-.347.304-.614.372-.262.067-.584.05-.96-.047-.366-.095-.65-.228-.854-.4-.204-.172-.33-.376-.373-.612-.044-.237-.018-.538.078-.903l.523-1.99.518.134-.52 1.988c-.08.3-.107.528-.082.687.027.16.107.295.24.412s.312.205.535.262c.38.1.67.094.873-.016.202-.11.36-.38.473-.814l.52-1.987zM298.767 308.002l.496.102c-.023.178-.008.334.046.47.055.132.16.26.32.378s.35.21.57.272c.198.057.38.08.544.073s.295-.047.392-.115c.098-.07.162-.156.19-.262.03-.107.02-.21-.03-.31-.05-.103-.148-.204-.297-.305-.095-.066-.312-.188-.65-.365-.338-.18-.57-.323-.695-.43-.163-.14-.273-.287-.33-.44-.058-.153-.064-.308-.022-.466.047-.172.146-.318.298-.435.153-.12.347-.188.583-.205.236-.015.484.014.747.09.29.082.532.196.73.342.2.144.337.313.413.506s.092.392.046.596l-.504-.11c.03-.225-.015-.414-.14-.57-.122-.154-.334-.275-.633-.36-.312-.09-.553-.105-.724-.045-.17.06-.273.16-.31.302-.034.123-.01.238.068.347.078.108.316.264.71.47.398.202.667.356.807.464.2.157.338.322.407.495.07.17.082.35.032.533-.05.182-.155.337-.317.465-.163.127-.367.204-.615.23-.245.025-.508-.003-.786-.083-.353-.1-.637-.23-.85-.39-.215-.16-.365-.347-.453-.568-.086-.222-.1-.447-.046-.678zM292.758 306.885l1.22-3.334.5.193-1.218 3.334-.502-.192zM288.724 304.312l2.25-2.758 1.07.892c.24.202.414.37.52.5.148.186.246.378.293.578.064.26.057.52-.02.78-.073.257-.21.51-.41.756-.172.21-.35.372-.537.488-.187.116-.368.19-.54.226-.173.033-.335.038-.49.013-.15-.024-.31-.082-.48-.17-.17-.09-.35-.213-.537-.37l-1.12-.935zm.677.018l.663.553c.204.17.378.287.52.35.146.064.278.094.398.09.168-.005.338-.058.51-.16.176-.1.348-.254.518-.463.235-.288.363-.554.38-.798.022-.243-.022-.456-.13-.636-.08-.13-.242-.296-.486-.5l-.65-.544-1.72 2.108zM294.584 306.02c.202-.554.53-.922.98-1.106.453-.184.946-.175 1.48.03.35.133.637.327.864.582s.366.542.415.862c.052.318.018.645-.104.978-.125.338-.313.61-.566.818-.253.208-.546.327-.88.356-.334.027-.666-.022-.995-.148-.357-.136-.648-.333-.873-.593-.225-.26-.362-.55-.41-.865-.05-.318-.02-.624.087-.916zm.514.204c-.147.4-.14.765.02 1.09.16.326.427.558.797.7.377.144.73.147 1.058.006.33-.14.573-.424.73-.853.1-.272.134-.53.102-.77-.03-.244-.124-.458-.286-.646-.16-.188-.363-.33-.613-.426-.354-.136-.7-.145-1.034-.027-.333.116-.592.425-.775.927zM314.06 310.91c.062-.588.288-1.03.68-1.324.394-.295.874-.414 1.44-.355.37.04.698.153.98.34s.486.43.612.727c.128.294.173.62.136.973-.037.36-.152.672-.347.938-.193.266-.448.457-.765.572-.317.113-.65.152-1 .115-.378-.04-.707-.155-.988-.347-.28-.192-.484-.436-.61-.73-.123-.295-.17-.598-.137-.908zm.548.064c-.044.426.05.777.284 1.05.235.273.55.428.943.47.4.04.743-.047 1.026-.268.287-.22.453-.56.5-1.015.03-.287 0-.545-.088-.77-.087-.228-.232-.41-.434-.55-.2-.143-.432-.227-.697-.255-.375-.04-.712.04-1.008.242-.294.198-.47.564-.524 1.097zM348.514 306.34l-1.573-3.2 1.255-.6c.283-.135.507-.224.67-.264.23-.058.445-.067.646-.026.264.05.497.165.7.343.205.175.377.405.518.69.12.244.192.475.22.693s.02.415-.02.586c-.04.17-.102.32-.188.45-.084.127-.204.25-.356.367-.15.116-.337.228-.556.333l-1.314.628zm.297-.607l.778-.372c.24-.113.417-.223.534-.327.118-.106.2-.213.245-.324.066-.155.088-.332.068-.53-.02-.202-.088-.424-.207-.665-.165-.335-.354-.563-.567-.68-.212-.122-.423-.17-.632-.146-.15.017-.37.094-.655.23l-.764.366 1.2 2.447zM337.39 309.897l-.928-3.44 1.732-.453c.35-.092.622-.13.82-.115.198.012.372.083.523.21.15.13.25.288.302.477.065.244.03.473-.103.687-.134.215-.383.394-.745.537.152.023.27.054.358.09.184.083.368.198.552.346l.933.758-.65.17-.71-.58c-.208-.167-.375-.292-.502-.376s-.236-.137-.326-.16c-.088-.025-.175-.035-.26-.03-.06.004-.158.024-.29.06l-.602.156.413 1.527-.517.137zm0-2.057l1.11-.292c.237-.062.416-.13.538-.208.12-.08.204-.175.248-.287.044-.113.05-.225.02-.337-.044-.162-.148-.278-.31-.347-.163-.07-.388-.07-.678.007l-1.237.325.31 1.138zM344.402 307.943l.083-3.873.534-.213 2.89 2.682-.566.226-.847-.825-1.568.63v1.162l-.528.21zm.524-1.787l1.27-.51-.766-.755c-.234-.228-.416-.42-.548-.576.04.23.06.467.058.71l-.014 1.132zM329.714 311.766l-.755-3.48 1.482-.312c.302-.063.552-.08.75-.046.198.03.363.11.5.235.134.124.22.266.255.426.032.147.016.297-.047.448s-.18.285-.347.405c.253.012.46.078.62.2.16.122.264.283.308.486.037.163.03.323-.02.48-.045.155-.118.283-.218.383-.098.1-.23.188-.396.265-.164.075-.372.138-.623.19l-1.51.318zm.086-2.13l.854-.178c.232-.05.396-.097.49-.145.125-.063.214-.142.262-.236.05-.095.063-.204.037-.326-.025-.114-.08-.21-.16-.282-.083-.076-.186-.117-.31-.124-.123-.01-.328.016-.61.076l-.792.166.23 1.05zm.35 1.61l.983-.208c.17-.035.287-.066.352-.09.116-.046.21-.098.282-.16.07-.06.124-.14.158-.234.033-.097.038-.2.014-.31-.03-.13-.09-.235-.188-.314-.096-.08-.216-.126-.36-.136-.14-.01-.338.01-.59.062l-.913.192.26 1.197z"/><g stroke="#000" fill="#ffc200" stroke-width=".235"><path d="M658.63 787.09v-8.59h1.136v7.577h4.23v1.013h-5.366z" transform="matrix(-1.8 .7 -.7 -1.7 2108.4 1260.4)"/><path d="M636.87 787.09v-7.576h-2.83V778.5h6.81v1.014h-2.843v7.576h-1.137z" transform="matrix(-1.3 1.3 -1.4 -1.3 2338.5 506.9)"/><path d="M626 787.09v-8.59h1.166l4.512 6.745V778.5h1.09v8.59H631.6l-4.51-6.75v6.75H626z" transform="matrix(-1.4 1.3 -1.3 -1.3 2332 558.6)"/><path d="M618.03 787.09v-8.59h6.21v1.014h-5.073v2.63h4.752v1.01h-4.753v2.923h5.273v1.013h-6.41zM615.47 784.08l1.136.287c-.238.933-.668 1.646-1.29 2.138-.616.49-1.372.733-2.266.733-.926 0-1.68-.188-2.262-.563-.578-.38-1.02-.926-1.324-1.64-.3-.715-.45-1.483-.45-2.303 0-.895.168-1.674.508-2.338.344-.668.83-1.174 1.46-1.518.632-.347 1.327-.52 2.085-.52.86 0 1.582.218 2.168.655.586.44.994 1.054 1.225 1.847l-1.12.264c-.2-.624-.488-1.08-.867-1.365-.378-.285-.855-.427-1.43-.427-.66 0-1.212.158-1.657.474-.442.317-.752.742-.932 1.278-.18.53-.27 1.08-.27 1.646 0 .73.106 1.37.317 1.916.216.543.548.95.997 1.22.45.268.935.403 1.46.403.636 0 1.175-.183 1.616-.55.44-.368.74-.913.897-1.635z" transform="matrix(-1 1.6 -1.6 -1 2335.4 123)"/><path d="M595.47 784.08l1.136.287c-.238.933-.668 1.646-1.29 2.138-.616.49-1.372.733-2.266.733-.926 0-1.68-.188-2.262-.563-.578-.38-1.02-.926-1.324-1.64-.3-.715-.45-1.483-.45-2.303 0-.895.17-1.674.508-2.338.344-.668.83-1.174 1.46-1.518.632-.347 1.328-.52 2.085-.52.86 0 1.582.218 2.168.655.586.44.994 1.054 1.225 1.847l-1.12.264c-.198-.624-.488-1.08-.866-1.365-.38-.285-.856-.427-1.43-.427-.66 0-1.213.158-1.658.474-.442.317-.752.742-.932 1.278-.18.53-.27 1.08-.27 1.646 0 .73.106 1.37.317 1.916.216.543.548.95.997 1.22.45.268.936.403 1.46.403.636 0 1.175-.183 1.616-.55.442-.368.74-.913.897-1.635z" transform="matrix(.1 1.9 -1.9 .1 1902.1 -917.3)"/><path d="M586.2 787.09v-8.59h1.137v8.59H586.2z" transform="matrix(.1 1.9 -1.9 .1 1877.4 -948.2)"/><path d="M569.36 787.09v-8.59h6.21v1.014h-5.073v2.63h4.752v1.01h-4.753v2.923h5.273v1.013h-6.41z" transform="matrix(.5 1.8 -1.8 .5 1578.6 -1229.8)"/><path d="M559.31 787.09v-8.59h1.71l2.034 6.082c.187.567.324.99.41 1.272.098-.313.25-.772.457-1.377l2.058-5.977h1.53v8.59h-1.097v-7.19l-2.495 7.19h-1.025l-2.485-7.312v7.312h-1.095z" transform="matrix(.8 1.7 -1.8 .7 1382.4 -1359.3)"/><path d="M533.28 787.09v-8.59h1.137v7.577h4.23v1.013h-5.367z" transform="matrix(1.6 1.1 -1.1 1.5 401.3 -1630.9)"/><path d="M521.31 787.09v-8.59h1.166l4.512 6.745V778.5h1.09v8.59h-1.166l-4.512-6.75v6.75h-1.09z" transform="matrix(1.7 .8 -.8 1.7 95 -1609.1)"/><path d="M513.34 787.09v-8.59h6.21v1.014h-5.074v2.63h4.752v1.01h-4.752v2.923h5.274v1.013h-6.41z" transform="matrix(1.8 .7 -.7 1.7 11.3 -1594.8)"/><path d="M469.77 787.09l-3.328-8.59h1.23l2.233 6.24c.18.5.33.97.45 1.407.134-.47.29-.938.464-1.406l2.32-6.24h1.16l-3.363 8.59h-1.167z" transform="matrix(1.8 -.5 .6 1.8 -1029.6 -1018.7)"/><path d="M460.59 787.09v-8.59h1.136v7.577h4.23v1.013h-5.366z" transform="matrix(1.7 -.9 .9 1.6 -1255.6 -715.7)"/><path d="M444.24 784.33l1.072-.094c.05.43.168.783.352 1.06.187.274.476.496.867.668.392.168.83.252 1.32.252.433 0 .816-.064 1.148-.193s.578-.305.738-.527c.164-.227.246-.473.246-.74 0-.268-.078-.503-.234-.702-.156-.203-.414-.373-.774-.51-.23-.09-.74-.228-1.53-.416-.788-.19-1.34-.37-1.657-.54-.41-.214-.717-.48-.92-.796-.2-.32-.3-.677-.3-1.072 0-.433.124-.838.37-1.213.246-.38.606-.666 1.078-.86.473-.196.998-.294 1.577-.294.636 0 1.197.103 1.68.31.49.204.865.504 1.126.903.262.398.403.85.422 1.353l-1.09.08c-.058-.542-.258-.952-.597-1.23-.336-.276-.834-.415-1.495-.415-.687 0-1.19.127-1.505.38-.313.25-.47.553-.47.91 0 .308.112.56.335.76.22.2.79.405 1.71.616.927.208 1.56.39 1.905.546.5.23.87.523 1.108.88.24.35.358.757.358 1.217 0 .458-.13.89-.393 1.295-.26.403-.638.717-1.13.944-.49.222-1.04.334-1.653.334-.777 0-1.43-.114-1.957-.34-.523-.227-.935-.566-1.236-1.02-.298-.457-.454-.972-.47-1.546z" transform="matrix(1.4 -1.2 1.3 1.4 -1412.2 -377.6)"/><path d="M434.58 787.09v-8.59h1.137v7.577h4.23v1.013h-5.367z" transform="matrix(1.1 -1.5 1.6 1.1 -1496.8 -21.4)"/><path d="M426.64 787.09v-8.59h6.21v1.014h-5.073v2.63h4.752v1.01h-4.753v2.923h5.274v1.013h-6.41z" transform="matrix(.9 -1.6 1.7 .9 -1510.1 186.2)"/><path d="M415.31 787.09v-8.59h6.21v1.014h-5.074v2.63h4.752v1.01h-4.752v2.923h5.274v1.013h-6.41z" transform="matrix(.4 -1.8 1.9 .4 -1446 666.8)"/><path d="M392.74 784.08l1.137.287c-.238.933-.668 1.646-1.29 2.138-.616.49-1.372.733-2.267.733-.926 0-1.68-.188-2.26-.563-.58-.38-1.02-.926-1.326-1.64-.3-.715-.45-1.483-.45-2.303 0-.895.17-1.674.51-2.338.343-.668.83-1.174 1.458-1.518.633-.347 1.328-.52 2.086-.52.86 0 1.582.218 2.168.655.586.44.994 1.054 1.224 1.847l-1.12.264c-.198-.624-.487-1.08-.866-1.365s-.855-.427-1.43-.427c-.66 0-1.213.158-1.658.474-.44.317-.752.742-.93 1.278-.18.53-.27 1.08-.27 1.646 0 .73.104 1.37.315 1.916.216.543.548.95.997 1.22.45.268.936.403 1.46.403.636 0 1.175-.183 1.617-.55.44-.368.74-.913.896-1.635z" transform="matrix(-.6 -1.8 1.8 -.6 -1005.7 1427.5)"/><path d="M383.47 787.09v-8.59h1.136v8.59h-1.136z" transform="matrix(-.9 -1.7 1.7 -.8 -819 1591)"/><path d="M376.56 787.09v-8.59h1.136v7.577h4.23v1.013h-5.366z" transform="matrix(-.8 -1.7 1.8 -.7 -890.1 1533.1)"/><path d="M365.57 778.5h1.137v4.963c0 .864-.098 1.55-.293 2.057s-.55.922-1.06 1.242c-.508.317-1.176.475-2.004.475-.805 0-1.463-.14-1.975-.416-.512-.277-.877-.677-1.096-1.2-.22-.528-.33-1.247-.33-2.157V778.5h1.138v4.957c0 .747.068 1.297.205 1.653.14.35.38.623.715.814.34.192.754.287 1.242.287.836 0 1.432-.188 1.787-.567s.533-1.107.533-2.186V778.5z" transform="matrix(-1.2 -1.4 1.5 -1.2 -467.9 1799.2)"/><path d="M343.95 787.09v-8.59h6.21v1.014h-5.073v2.63h4.752v1.01h-4.753v2.923h5.273v1.013h-6.41z" transform="matrix(-1.5 -1.2 1.2 -1.5 -166.5 1902.5)"/><path d="M649.73 787.09l3.3-8.59h1.224l3.515 8.59h-1.296l-1-2.6h-3.593l-.943 2.6h-1.207zm2.48-3.527h2.91l-.896-2.38c-.273-.722-.476-1.315-.61-1.78-.108.55-.263 1.097-.462 1.64l-.943 2.52z" transform="matrix(-1.6 1 -1 -1.6 2232.8 985.6)"/><path d="M642.03 787.09v-8.59h3.81c.764 0 1.347.08 1.745.235.398.152.717.424.955.814.238.39.357.822.357 1.294 0 .61-.197 1.123-.59 1.54-.396.42-1.005.685-1.83.798.3.145.53.287.686.428.332.304.647.685.943 1.142l1.495 2.338h-1.43l-1.136-1.787c-.332-.515-.605-.91-.82-1.183-.215-.274-.408-.465-.58-.575-.168-.11-.34-.185-.516-.228-.13-.028-.34-.04-.633-.04h-1.318v3.813h-1.137zm1.137-4.8h2.443c.52 0 .926-.05 1.22-.157.292-.11.515-.28.667-.515.152-.24.23-.496.23-.774 0-.406-.15-.74-.447-1.002-.293-.26-.758-.392-1.394-.392h-2.72v2.84z" transform="matrix(-1.5 1.2 -1.2 -1.4 2317.4 676.2)"/><path d="M597.06 787.09l3.3-8.59h1.224l3.515 8.59h-1.295l-1.002-2.6h-3.592l-.943 2.6h-1.207zm2.48-3.527h2.91l-.895-2.38c-.274-.722-.477-1.315-.61-1.78-.11.55-.263 1.097-.463 1.64l-.943 2.52z" transform="matrix(-.6 1.8 -1.8 -.6 2228 -354.4)"/><path d="M577.36 787.09v-8.59h3.81c.765 0 1.347.08 1.745.235.398.152.717.424.955.814.238.39.358.822.358 1.294 0 .61-.198 1.123-.592 1.54-.395.42-1.004.685-1.828.798.3.145.53.287.685.428.332.304.647.685.944 1.142l1.494 2.338h-1.43l-1.136-1.787c-.332-.515-.605-.91-.82-1.183-.215-.274-.408-.465-.58-.575-.168-.11-.34-.185-.516-.228-.13-.028-.34-.04-.633-.04h-1.318v3.813h-1.137zm1.137-4.8h2.443c.52 0 .926-.05 1.22-.157.292-.11.515-.28.667-.515.152-.24.23-.496.23-.774 0-.406-.15-.74-.447-1.002-.293-.26-.757-.392-1.394-.392h-2.72v2.84z" transform="matrix(.2 1.9 -1.9 .2 1840.7 -990.7)"/><path d="M550.39 787.09l3.3-8.59h1.224l3.516 8.59h-1.295l-1.002-2.6h-3.592l-.942 2.6h-1.208zm2.48-3.527h2.91l-.895-2.38c-.274-.722-.477-1.315-.61-1.78-.11.55-.263 1.097-.463 1.64l-.943 2.52z" transform="matrix(1.1 1.5 -1.6 1.1 1035.6 -1518.9)"/><path d="M539.06 787.09l3.298-8.59h1.225l3.516 8.59h-1.296l-1.002-2.6h-3.592l-.943 2.6h-1.207zm2.478-3.527h2.912l-.896-2.38c-.274-.722-.477-1.315-.61-1.78-.11.55-.263 1.097-.463 1.64l-.942 2.52z" transform="matrix(1.4 1.3 -1.3 1.4 671.7 -1610.5)"/><path d="M501.34 787.09v-8.59h3.808c.766 0 1.348.08 1.746.235.4.152.717.424.956.814.238.39.357.822.357 1.294 0 .61-.197 1.123-.592 1.54-.394.42-1.004.685-1.828.798.3.145.53.287.686.428.332.304.646.685.943 1.142l1.494 2.338h-1.43l-1.136-1.787c-.332-.515-.606-.91-.82-1.183-.215-.274-.41-.465-.58-.575-.17-.11-.34-.185-.516-.228-.13-.028-.34-.04-.633-.04h-1.318v3.813h-1.137zm1.137-4.8h2.443c.52 0 .926-.05 1.22-.157.292-.11.514-.28.667-.515.152-.24.228-.496.228-.774 0-.406-.148-.74-.445-1.002-.293-.26-.758-.392-1.395-.392h-2.718v2.84z" transform="matrix(1.9 .2 -.2 1.9 -481.7 -1431.7)"/><path d="M491.64 782.91c0-1.426.382-2.54 1.148-3.346.766-.81 1.754-1.213 2.965-1.213.793 0 1.508.19 2.144.57.637.378 1.12.908 1.453 1.587.336.676.504 1.444.504 2.303 0 .87-.175 1.65-.527 2.338-.352.687-.85 1.21-1.494 1.564-.645.352-1.34.528-2.086.528-.81 0-1.53-.196-2.168-.586-.638-.39-1.12-.924-1.448-1.6s-.492-1.39-.492-2.144zm1.17.017c0 1.035.28 1.852.833 2.45.56.593 1.258.89 2.098.89.857 0 1.56-.3 2.11-.902.555-.602.833-1.455.833-2.56 0-.7-.12-1.31-.358-1.83-.234-.522-.58-.927-1.037-1.212-.453-.29-.963-.433-1.53-.433-.804 0-1.497.277-2.08.832-.578.55-.867 1.472-.867 2.765z" transform="matrix(1.9 .2 -.2 1.9 -483.5 -1431)"/><path d="M483.32 787.09v-8.59h2.96c.667 0 1.177.04 1.53.123.49.114.91.32 1.258.616.453.382.79.872 1.014 1.47.227.593.34 1.273.34 2.038 0 .653-.076 1.23-.23 1.735-.15.504-.346.922-.585 1.254-.238.328-.5.588-.785.78-.28.187-.623.33-1.025.427-.4.097-.858.146-1.377.146h-3.1zm1.137-1.013h1.834c.567 0 1.01-.053 1.33-.16.325-.104.583-.253.774-.444.27-.27.48-.63.627-1.084.154-.458.23-1.01.23-1.66 0-.898-.15-1.587-.445-2.067-.293-.485-.65-.81-1.073-.973-.304-.117-.795-.176-1.47-.176h-1.805v6.563z" transform="matrix(1.9 -.4 .4 1.8 -904.4 -1144)"/><path d="M474.37 787.09l3.3-8.59h1.223l3.516 8.59h-1.296l-1.002-2.6h-3.592l-.943 2.6h-1.207zm2.478-3.527h2.913l-.896-2.38c-.273-.722-.476-1.315-.61-1.78-.11.55-.263 1.097-.462 1.64l-.944 2.52z" transform="matrix(1.9 -.4 .4 1.8 -951.2 -1099.5)"/><path d="M451.69 787.09l3.3-8.59h1.224l3.515 8.59h-1.296l-1-2.6h-3.593l-.943 2.6h-1.207zm2.48-3.527h2.91l-.896-2.38c-.273-.722-.476-1.315-.61-1.78-.108.55-.263 1.097-.462 1.64l-.943 2.52z" transform="matrix(1.6 -1 1.1 1.6 -1311.8 -613.2)"/><path d="M406.62 787.09v-8.59h2.96c.667 0 1.177.04 1.528.123.493.114.913.32 1.26.616.453.382.79.872 1.014 1.47.226.593.34 1.273.34 2.038 0 .653-.076 1.23-.23 1.735-.15.504-.346.922-.585 1.254-.238.328-.5.588-.785.78-.28.187-.623.33-1.025.427-.4.097-.858.146-1.377.146h-3.1zm1.137-1.013h1.834c.567 0 1.01-.053 1.33-.16.325-.104.583-.253.774-.444.27-.27.48-.63.627-1.084.154-.458.23-1.01.23-1.66 0-.898-.15-1.587-.445-2.067-.293-.485-.65-.81-1.073-.973-.304-.117-.795-.176-1.47-.176h-1.805v6.563z" transform="matrix(.2 -1.9 1.9 .2 -1376.4 863.6)"/><path d="M394.34 787.09l3.3-8.59h1.223l3.516 8.59h-1.296l-1.002-2.6h-3.592l-.943 2.6h-1.207zm2.478-3.527h2.913l-.896-2.38c-.273-.722-.477-1.315-.61-1.78-.11.55-.263 1.097-.462 1.64l-.944 2.52z" transform="matrix(-.1 -1.9 1.9 -.1 -1248.8 1120)"/><path d="M368.55 787.09v-8.59h3.222c.657 0 1.182.088 1.576.264.4.172.71.44.932.803.227.36.34.736.34 1.13 0 .368-.1.714-.3 1.038s-.5.586-.9.785c.518.152.917.412 1.194.78.28.366.422.8.422 1.3 0 .402-.086.777-.258 1.125-.168.344-.377.61-.627.797-.25.187-.563.33-.942.428-.375.093-.836.14-1.383.14h-3.275zm1.136-4.98h1.858c.504 0 .865-.033 1.084-.1.29-.086.506-.228.65-.428.15-.2.223-.45.223-.75 0-.285-.068-.535-.204-.75-.137-.218-.332-.367-.586-.445-.254-.082-.69-.123-1.307-.123h-1.717v2.596zm0 3.967h2.14c.366 0 .624-.014.772-.04.262-.048.48-.126.657-.236.176-.108.32-.266.433-.473.114-.21.17-.454.17-.727 0-.32-.082-.598-.246-.832-.164-.238-.392-.404-.685-.498-.29-.098-.707-.147-1.254-.147h-1.987v2.954z" transform="matrix(-1.1 -1.5 1.6 -1.1 -612.5 1726.3)"/><path d="M351.93 787.09v-8.59h3.24c.57 0 1.006.028 1.306.082.422.07.776.206 1.06.405.286.195.515.47.687.826.175.355.263.746.263 1.172 0 .73-.232 1.35-.697 1.857-.466.504-1.306.756-2.52.756h-2.204v3.492h-1.136zm1.136-4.506h2.22c.735 0 1.257-.136 1.565-.41.31-.273.464-.658.464-1.154 0-.36-.09-.666-.275-.92-.18-.258-.42-.428-.716-.51-.19-.05-.545-.076-1.06-.076h-2.198v3.07z" transform="matrix(-1.4 -1.3 1.3 -1.4 -264.5 1875.8)"/><path d="M335.28 787.09v-8.59h3.81c.764 0 1.347.08 1.745.235.398.152.717.424.955.814.238.39.357.822.357 1.294 0 .61-.197 1.123-.59 1.54-.396.42-1.005.685-1.83.798.3.145.53.287.686.428.332.304.647.685.943 1.142l1.495 2.338h-1.43l-1.136-1.787c-.332-.515-.605-.91-.82-1.183-.215-.274-.408-.465-.58-.575-.168-.11-.34-.185-.516-.228-.13-.028-.34-.04-.633-.04h-1.318v3.813h-1.137zm1.137-4.8h2.443c.52 0 .926-.05 1.22-.157.292-.11.515-.28.667-.515.152-.24.23-.496.23-.774 0-.406-.15-.74-.447-1.002-.293-.26-.758-.392-1.394-.392h-2.72v2.84z" transform="matrix(-1.6 -1 1 -1.6 36.4 1941.4)"/></g></g></svg>