<svg xmlns="http://www.w3.org/2000/svg" height="480" width="640"><defs><clipPath id="a"><path fill-opacity=".67" d="M0 0h640v480H0z"/></clipPath></defs><g clip-path="url(#a)"><path fill-rule="evenodd" fill="#5387f4" d="M-79.43 318.86h798.86V480H-79.43zM-79.43 0h798.86v161.14H-79.43z"/><path fill-rule="evenodd" fill="#fff" d="M-79.43 161.14h798.86v157.71H-79.43z"/><g stroke="#000" fill-rule="evenodd"><path d="M490.58 234.24c0 .846-.823 1.53-1.837 1.53s-1.838-.684-1.838-1.53.823-1.53 1.838-1.53 1.837.684 1.837 1.53z" transform="matrix(-.78 -.489 -.612 .958 779.333 213.229)" stroke-width=".332" fill="red"/><path d="M490.58 234.24c0 .846-.823 1.53-1.837 1.53s-1.838-.684-1.838-1.53.823-1.53 1.838-1.53 1.837.684 1.837 1.53z" transform="matrix(-.78 -.489 -.612 .958 785.267 217.889)" stroke-width=".332" fill="red"/><path d="M259.03 105.71s400.32 70.645 414.45 395.62c14.13 324.97-188.39 367.36-259.03 419.16-70.645 51.807-113.03 113.03-146 113.03-32.968 0-80.065-14.13-80.065-14.13s9.42 51.81 75.355 47.1c65.936-4.71 127.16-113.03 164.84-131.87s277.88-98.9 259.04-428.58c-14.13-353.23-423.88-390.91-428.59-400.33z" transform="matrix(-.17 .04 .042 .181 329.686 148.813)" stroke-width="1.603" fill="#006700"/><path d="M320.26 487.2c0 59.825-11.597 108.32-25.903 108.32s-25.903-48.498-25.903-108.32c0-59.825 11.597-108.32 25.903-108.32s25.903 48.498 25.903 108.32z" transform="matrix(-.082 -.006 -.021 .082 293.581 153.107)" stroke-width="1.603" fill="#006700"/><path d="M320.26 487.2c0 59.825-11.597 108.32-25.903 108.32s-25.903-48.498-25.903-108.32c0-59.825 11.597-108.32 25.903-108.32s25.903 48.498 25.903 108.32z" transform="matrix(-.075 -.028 -.038 .078 301.804 162.465)" stroke-width="1.603" fill="#006700"/><path d="M320.26 487.2c0 59.825-11.597 108.32-25.903 108.32s-25.903-48.498-25.903-108.32c0-59.825 11.597-108.32 25.903-108.32s25.903 48.498 25.903 108.32z" transform="matrix(-.007 -.087 -.078 .023 306.051 212.497)" stroke-width="1.603" fill="#006700"/><path d="M320.26 487.2c0 59.825-11.597 108.32-25.903 108.32s-25.903-48.498-25.903-108.32c0-59.825 11.597-108.32 25.903-108.32s25.903 48.498 25.903 108.32z" transform="matrix(-.036 -.073 -.07 .049 310.802 193.453)" stroke-width="1.603" fill="#006700"/><path d="M320.26 487.2c0 59.825-11.597 108.32-25.903 108.32s-25.903-48.498-25.903-108.32c0-59.825 11.597-108.32 25.903-108.32s25.903 48.498 25.903 108.32z" transform="matrix(-.055 -.057 -.06 .063 308.833 179.752)" stroke-width="1.603" fill="#006700"/><path d="M490.58 234.24c0 .846-.823 1.53-1.837 1.53s-1.838-.684-1.838-1.53.823-1.53 1.838-1.53 1.837.684 1.837 1.53z" transform="matrix(-.878 -.284 -.355 1.077 749.037 107.455)" stroke-width=".332" fill="red"/><path d="M490.58 234.24c0 .846-.823 1.53-1.837 1.53s-1.838-.684-1.838-1.53.823-1.53 1.838-1.53 1.837.684 1.837 1.53z" transform="matrix(-.878 -.284 -.355 1.077 755.945 110.529)" stroke-width=".332" fill="red"/><path d="M320.26 487.2c0 59.825-11.597 108.32-25.903 108.32s-25.903-48.498-25.903-108.32c0-59.825 11.597-108.32 25.903-108.32s25.903 48.498 25.903 108.32z" transform="matrix(-.117 .028 -.001 .127 275.706 136.747)" stroke-width="1.603" fill="#006700"/><path d="M320.26 487.2c0 59.825-11.597 108.32-25.903 108.32s-25.903-48.498-25.903-108.32c0-59.825 11.597-108.32 25.903-108.32s25.903 48.498 25.903 108.32z" transform="matrix(-.113 -.006 -.027 .129 290.134 146.385)" stroke-width="1.603" fill="#006700"/><path d="M320.26 487.2c0 59.825-11.597 108.32-25.903 108.32s-25.903-48.498-25.903-108.32c0-59.825 11.597-108.32 25.903-108.32s25.903 48.498 25.903 108.32z" transform="matrix(-.039 -.121 -.1 .068 312.23 216.096)" stroke-width="1.603" fill="#006700"/><path d="M320.26 487.2c0 59.825-11.597 108.32-25.903 108.32s-25.903-48.498-25.903-108.32c0-59.825 11.597-108.32 25.903-108.32s25.903 48.498 25.903 108.32z" transform="matrix(-.074 -.089 -.082 .101 312.649 186.645)" stroke-width="1.603" fill="#006700"/><path d="M320.26 487.2c0 59.825-11.597 108.32-25.903 108.32s-25.903-48.498-25.903-108.32c0-59.825 11.597-108.32 25.903-108.32s25.903 48.498 25.903 108.32z" transform="matrix(-.095 -.057 -.063 .118 305.472 167.918)" stroke-width="1.603" fill="#006700"/><path d="M320.26 487.2c0 59.825-11.597 108.32-25.903 108.32s-25.903-48.498-25.903-108.32c0-59.825 11.597-108.32 25.903-108.32s25.903 48.498 25.903 108.32z" transform="matrix(-.11 .051 .021 .126 251.714 157.707)" stroke-width="1.603" fill="#006700"/><path d="M320.26 487.2c0 59.825-11.597 108.32-25.903 108.32s-25.903-48.498-25.903-108.32c0-59.825 11.597-108.32 25.903-108.32s25.903 48.498 25.903 108.32z" transform="matrix(-.112 .016 -.004 .133 267.52 164.404)" stroke-width="1.603" fill="#006700"/><path d="M320.26 487.2c0 59.825-11.597 108.32-25.903 108.32s-25.903-48.498-25.903-108.32c0-59.825 11.597-108.32 25.903-108.32s25.903 48.498 25.903 108.32z" transform="matrix(-.059 -.112 -.085 .087 301.422 228.918)" stroke-width="1.603" fill="#006700"/><path d="M320.26 487.2c0 59.825-11.597 108.32-25.903 108.32s-25.903-48.498-25.903-108.32c0-59.825 11.597-108.32 25.903-108.32s25.903 48.498 25.903 108.32z" transform="matrix(-.087 -.073 -.062 .116 296.633 199.748)" stroke-width="1.603" fill="#006700"/><path d="M320.26 487.2c0 59.825-11.597 108.32-25.903 108.32s-25.903-48.498-25.903-108.32c0-59.825 11.597-108.32 25.903-108.32s25.903 48.498 25.903 108.32z" transform="matrix(-.102 -.038 -.039 .129 286.318 182.656)" stroke-width="1.603" fill="#006700"/><path d="M320.26 487.2c0 59.825-11.597 108.32-25.903 108.32s-25.903-48.498-25.903-108.32c0-59.825 11.597-108.32 25.903-108.32s25.903 48.498 25.903 108.32z" transform="matrix(-.08 .094 .066 .107 219.154 183.632)" stroke-width="1.603" fill="#006700"/><path d="M320.26 487.2c0 59.825-11.597 108.32-25.903 108.32s-25.903-48.498-25.903-108.32c0-59.825 11.597-108.32 25.903-108.32s25.903 48.498 25.903 108.32z" transform="matrix(-.095 .062 .047 .124 235.994 183.168)" stroke-width="1.603" fill="#006700"/><path d="M239.07 260.127c-2.63 7-3.64 13.59-2.253 14.72s4.647-3.628 7.28-10.627c2.63-7 3.64-13.59 2.253-14.72s-4.647 3.628-7.28 10.627z" stroke-width=".200375" fill="#006700"/><path d="M320.26 487.2c0 59.825-11.597 108.32-25.903 108.32s-25.903-48.498-25.903-108.32c0-59.825 11.597-108.32 25.903-108.32s25.903 48.498 25.903 108.32z" transform="matrix(-.107 -.03 -.012 .134 275.793 203.64)" stroke-width="1.603" fill="#006700"/><path d="M320.26 487.2c0 59.825-11.597 108.32-25.903 108.32s-25.903-48.498-25.903-108.32c0-59.825 11.597-108.32 25.903-108.32s25.903 48.498 25.903 108.32z" transform="matrix(-.107 .009 .012 .137 259.95 192.159)" stroke-width="1.603" fill="#006700"/><path d="M320.26 487.2c0 59.825-11.597 108.32-25.903 108.32s-25.903-48.498-25.903-108.32c0-59.825 11.597-108.32 25.903-108.32s25.903 48.498 25.903 108.32z" transform="matrix(-.058 .133 .107 .094 200.111 208.873)" stroke-width="1.603" fill="#006700"/><path d="M490.58 234.24c0 .846-.823 1.53-1.837 1.53s-1.838-.684-1.838-1.53.823-1.53 1.838-1.53 1.837.684 1.837 1.53z" transform="matrix(-.361 -.518 -.683 .368 623.464 344.806)" stroke-width=".332" fill="red"/><path d="M490.58 234.24c0 .846-.823 1.53-1.837 1.53s-1.838-.684-1.838-1.53.823-1.53 1.838-1.53 1.837.684 1.837 1.53z" transform="matrix(-.361 -.518 -.683 .368 625.938 349.295)" stroke-width=".332" fill="red"/><path d="M320.26 487.2c0 59.825-11.597 108.32-25.903 108.32s-25.903-48.498-25.903-108.32c0-59.825 11.597-108.32 25.903-108.32s25.903 48.498 25.903 108.32z" transform="matrix(-.084 .104 .092 .12 218.502 202.139)" stroke-width="1.603" fill="#006700"/><path d="M320.26 487.2c0 59.825-11.597 108.32-25.903 108.32s-25.903-48.498-25.903-108.32c0-59.825 11.597-108.32 25.903-108.32s25.903 48.498 25.903 108.32z" transform="matrix(-.132 -.051 -.011 .145 293.938 231.956)" stroke-width="1.603" fill="#006700"/><path d="M320.26 487.2c0 59.825-11.597 108.32-25.903 108.32s-25.903-48.498-25.903-108.32c0-59.825 11.597-108.32 25.903-108.32s25.903 48.498 25.903 108.32z" transform="matrix(-.128 .006 .03 .152 268.899 210.032)" stroke-width="1.603" fill="#006700"/><path d="M320.26 487.2c0 59.825-11.597 108.32-25.903 108.32s-25.903-48.498-25.903-108.32c0-59.825 11.597-108.32 25.903-108.32s25.903 48.498 25.903 108.32z" transform="matrix(-.116 .049 .058 .146 247.775 203.2)" stroke-width="1.603" fill="#006700"/><path d="M320.26 487.2c0 59.825-11.597 108.32-25.903 108.32s-25.903-48.498-25.903-108.32c0-59.825 11.597-108.32 25.903-108.32s25.903 48.498 25.903 108.32z" transform="matrix(.016 .16 .154 .026 175.048 260.638)" stroke-width="1.603" fill="#006700"/><path d="M490.58 234.24c0 .846-.823 1.53-1.837 1.53s-1.838-.684-1.838-1.53.823-1.53 1.838-1.53 1.837.684 1.837 1.53z" transform="matrix(-.556 .73 .912 .683 303.33 -210.88)" stroke-width=".332" fill="red"/><path d="M490.58 234.24c0 .846-.823 1.53-1.837 1.53s-1.838-.684-1.838-1.53.823-1.53 1.838-1.53 1.837.684 1.837 1.53z" transform="matrix(-.556 .73 .912 .683 308.513 -216.345)" stroke-width=".332" fill="red"/><path d="M320.26 487.2c0 59.825-11.597 108.32-25.903 108.32s-25.903-48.498-25.903-108.32c0-59.825 11.597-108.32 25.903-108.32s25.903 48.498 25.903 108.32z" transform="matrix(-.026 .149 .153 .06 189.192 243.363)" stroke-width="1.603" fill="#006700"/><path d="M320.26 487.2c0 59.825-11.597 108.32-25.903 108.32s-25.903-48.498-25.903-108.32c0-59.825 11.597-108.32 25.903-108.32s25.903 48.498 25.903 108.32z" transform="matrix(-.154 .029 .068 .144 277.934 227.161)" stroke-width="1.603" fill="#006700"/><path d="M320.26 487.2c0 59.825-11.597 108.32-25.903 108.32s-25.903-48.498-25.903-108.32c0-59.825 11.597-108.32 25.903-108.32s25.903 48.498 25.903 108.32z" transform="matrix(-.121 .082 .11 .127 242.051 221.098)" stroke-width="1.603" fill="#006700"/><path d="M320.26 487.2c0 59.825-11.597 108.32-25.903 108.32s-25.903-48.498-25.903-108.32c0-59.825 11.597-108.32 25.903-108.32s25.903 48.498 25.903 108.32z" transform="matrix(-.085 .115 .134 .105 218.009 227.088)" stroke-width="1.603" fill="#006700"/><g stroke-width="1.603" fill="#006700"><path d="M314.71 506.2c0 45.062-10.064 81.59-22.48 81.59s-22.478-36.53-22.478-81.59c0-45.062 10.064-81.59 22.48-81.59s22.478 36.53 22.478 81.59z" transform="matrix(0 .224 .211 .004 175.888 267.601)"/><path d="M314.71 506.2c0 45.062-10.064 81.59-22.48 81.59s-22.478-36.53-22.478-81.59c0-45.062 10.064-81.59 22.48-81.59s22.478 36.53 22.478 81.59z" transform="matrix(-.163 .138 .133 .176 268.951 191.924)"/><path d="M314.71 506.2c0 45.062-10.064 81.59-22.48 81.59s-22.478-36.53-22.478-81.59c0-45.062 10.064-81.59 22.48-81.59s22.478 36.53 22.478 81.59z" transform="matrix(-.078 .206 .196 .087 207.968 223.581)"/></g><g stroke-width="1.603" fill="#006700"><path d="M314.71 506.2c0 45.062-10.064 81.59-22.48 81.59s-22.478-36.53-22.478-81.59c0-45.062 10.064-81.59 22.48-81.59s22.478 36.53 22.478 81.59z" transform="matrix(-.09 -.05 -.096 .088 354.957 150.633)"/><path d="M314.71 506.2c0 45.062-10.064 81.59-22.48 81.59s-22.478-36.53-22.478-81.59c0-45.062 10.064-81.59 22.48-81.59s22.478 36.53 22.478 81.59z" transform="matrix(.018 -.1 -.131 .017 343.689 206.766)"/><path d="M314.71 506.2c0 45.062-10.064 81.59-22.48 81.59s-22.478-36.53-22.478-81.59c0-45.062 10.064-81.59 22.48-81.59s22.478 36.53 22.478 81.59z" transform="matrix(-.048 -.079 -.123 .063 358.298 174.002)"/></g><path d="M490.58 234.24c0 .846-.823 1.53-1.837 1.53s-1.838-.684-1.838-1.53.823-1.53 1.838-1.53 1.837.684 1.837 1.53z" transform="matrix(-.923 0 0 1.133 680.656 -17.903)" stroke-width=".332" fill="red"/><path d="M490.58 234.24c0 .846-.823 1.53-1.837 1.53s-1.838-.684-1.838-1.53.823-1.53 1.838-1.53 1.837.684 1.837 1.53z" transform="matrix(-.923 0 0 1.133 688.19 -17.11)" stroke-width=".332" fill="red"/><path d="M490.58 234.24c0 .846-.823 1.53-1.837 1.53s-1.838-.684-1.838-1.53.823-1.53 1.838-1.53 1.837.684 1.837 1.53z" transform="matrix(-.799 .459 .572 .981 489.851 -175.963)" stroke-width=".332" fill="red"/><path d="M490.58 234.24c0 .846-.823 1.53-1.837 1.53s-1.838-.684-1.838-1.53.823-1.53 1.838-1.53 1.837.684 1.837 1.53z" transform="matrix(-.799 .459 .572 .981 496.769 -179.013)" stroke-width=".332" fill="red"/><path d="M490.58 234.24c0 .846-.823 1.53-1.837 1.53s-1.838-.684-1.838-1.53.823-1.53 1.838-1.53 1.837.684 1.837 1.53z" transform="matrix(-.496 -.393 -.547 .548 640.599 250.366)" stroke-width=".332" fill="red"/><path d="M490.58 234.24c0 .846-.823 1.53-1.837 1.53s-1.838-.684-1.838-1.53.823-1.53 1.838-1.53 1.837.684 1.837 1.53z" transform="matrix(-.496 -.393 -.547 .548 644.268 253.952)" stroke-width=".332" fill="red"/><g><path d="M490.58 234.24c0 .846-.823 1.53-1.837 1.53s-1.838-.684-1.838-1.53.823-1.53 1.838-1.53 1.837.684 1.837 1.53z" transform="matrix(.78 -.489 .612 .958 -140.232 213.976)" stroke-width=".332" fill="red"/><path d="M490.58 234.24c0 .846-.823 1.53-1.837 1.53s-1.838-.684-1.838-1.53.823-1.53 1.838-1.53 1.837.684 1.837 1.53z" transform="matrix(.78 -.489 .612 .958 -146.166 218.636)" stroke-width=".332" fill="red"/><path d="M259.03 105.71s400.32 70.645 414.45 395.62c14.13 324.97-188.39 367.36-259.03 419.16-70.645 51.807-113.03 113.03-146 113.03-32.968 0-80.065-14.13-80.065-14.13s9.42 51.81 75.355 47.1c65.936-4.71 127.16-113.03 164.84-131.87s277.88-98.9 259.04-428.58c-14.13-353.23-423.88-390.91-428.59-400.33z" transform="matrix(.17 .04 -.042 .181 309.415 149.56)" stroke-width="1.603" fill="#006700"/><path d="M320.26 487.2c0 59.825-11.597 108.32-25.903 108.32s-25.903-48.498-25.903-108.32c0-59.825 11.597-108.32 25.903-108.32s25.903 48.498 25.903 108.32z" transform="matrix(.082 -.006 .021 .082 345.52 153.854)" stroke-width="1.603" fill="#006700"/><path d="M320.26 487.2c0 59.825-11.597 108.32-25.903 108.32s-25.903-48.498-25.903-108.32c0-59.825 11.597-108.32 25.903-108.32s25.903 48.498 25.903 108.32z" transform="matrix(.075 -.028 .038 .078 337.297 163.212)" stroke-width="1.603" fill="#006700"/><path d="M320.26 487.2c0 59.825-11.597 108.32-25.903 108.32s-25.903-48.498-25.903-108.32c0-59.825 11.597-108.32 25.903-108.32s25.903 48.498 25.903 108.32z" transform="matrix(.007 -.087 .078 .023 333.05 213.244)" stroke-width="1.603" fill="#006700"/><path d="M320.26 487.2c0 59.825-11.597 108.32-25.903 108.32s-25.903-48.498-25.903-108.32c0-59.825 11.597-108.32 25.903-108.32s25.903 48.498 25.903 108.32z" transform="matrix(.036 -.073 .07 .049 328.299 194.2)" stroke-width="1.603" fill="#006700"/><path d="M320.26 487.2c0 59.825-11.597 108.32-25.903 108.32s-25.903-48.498-25.903-108.32c0-59.825 11.597-108.32 25.903-108.32s25.903 48.498 25.903 108.32z" transform="matrix(.055 -.057 .06 .063 330.268 180.499)" stroke-width="1.603" fill="#006700"/><path d="M490.58 234.24c0 .846-.823 1.53-1.837 1.53s-1.838-.684-1.838-1.53.823-1.53 1.838-1.53 1.837.684 1.837 1.53z" transform="matrix(.878 -.284 .355 1.077 -109.936 108.202)" stroke-width=".332" fill="red"/><path d="M490.58 234.24c0 .846-.823 1.53-1.837 1.53s-1.838-.684-1.838-1.53.823-1.53 1.838-1.53 1.837.684 1.837 1.53z" transform="matrix(.878 -.284 .355 1.077 -116.844 111.276)" stroke-width=".332" fill="red"/><path d="M320.26 487.2c0 59.825-11.597 108.32-25.903 108.32s-25.903-48.498-25.903-108.32c0-59.825 11.597-108.32 25.903-108.32s25.903 48.498 25.903 108.32z" transform="matrix(.117 .028 .001 .127 363.395 137.494)" stroke-width="1.603" fill="#006700"/><path d="M320.26 487.2c0 59.825-11.597 108.32-25.903 108.32s-25.903-48.498-25.903-108.32c0-59.825 11.597-108.32 25.903-108.32s25.903 48.498 25.903 108.32z" transform="matrix(.113 -.006 .027 .129 348.967 147.132)" stroke-width="1.603" fill="#006700"/><path d="M320.26 487.2c0 59.825-11.597 108.32-25.903 108.32s-25.903-48.498-25.903-108.32c0-59.825 11.597-108.32 25.903-108.32s25.903 48.498 25.903 108.32z" transform="matrix(.039 -.121 .1 .068 326.871 216.843)" stroke-width="1.603" fill="#006700"/><path d="M320.26 487.2c0 59.825-11.597 108.32-25.903 108.32s-25.903-48.498-25.903-108.32c0-59.825 11.597-108.32 25.903-108.32s25.903 48.498 25.903 108.32z" transform="matrix(.074 -.089 .082 .101 326.452 187.392)" stroke-width="1.603" fill="#006700"/><path d="M320.26 487.2c0 59.825-11.597 108.32-25.903 108.32s-25.903-48.498-25.903-108.32c0-59.825 11.597-108.32 25.903-108.32s25.903 48.498 25.903 108.32z" transform="matrix(.095 -.057 .063 .118 333.629 168.665)" stroke-width="1.603" fill="#006700"/><path d="M320.26 487.2c0 59.825-11.597 108.32-25.903 108.32s-25.903-48.498-25.903-108.32c0-59.825 11.597-108.32 25.903-108.32s25.903 48.498 25.903 108.32z" transform="matrix(.11 .051 -.021 .126 387.387 158.454)" stroke-width="1.603" fill="#006700"/><path d="M320.26 487.2c0 59.825-11.597 108.32-25.903 108.32s-25.903-48.498-25.903-108.32c0-59.825 11.597-108.32 25.903-108.32s25.903 48.498 25.903 108.32z" transform="matrix(.112 .016 .004 .133 371.581 165.151)" stroke-width="1.603" fill="#006700"/><path d="M320.26 487.2c0 59.825-11.597 108.32-25.903 108.32s-25.903-48.498-25.903-108.32c0-59.825 11.597-108.32 25.903-108.32s25.903 48.498 25.903 108.32z" transform="matrix(.059 -.112 .085 .087 337.679 229.665)" stroke-width="1.603" fill="#006700"/><path d="M320.26 487.2c0 59.825-11.597 108.32-25.903 108.32s-25.903-48.498-25.903-108.32c0-59.825 11.597-108.32 25.903-108.32s25.903 48.498 25.903 108.32z" transform="matrix(.087 -.073 .062 .116 342.468 200.495)" stroke-width="1.603" fill="#006700"/><path d="M320.26 487.2c0 59.825-11.597 108.32-25.903 108.32s-25.903-48.498-25.903-108.32c0-59.825 11.597-108.32 25.903-108.32s25.903 48.498 25.903 108.32z" transform="matrix(.102 -.038 .039 .129 352.783 183.403)" stroke-width="1.603" fill="#006700"/><path d="M320.26 487.2c0 59.825-11.597 108.32-25.903 108.32s-25.903-48.498-25.903-108.32c0-59.825 11.597-108.32 25.903-108.32s25.903 48.498 25.903 108.32z" transform="matrix(.08 .094 -.066 .107 419.947 184.379)" stroke-width="1.603" fill="#006700"/><path d="M320.26 487.2c0 59.825-11.597 108.32-25.903 108.32s-25.903-48.498-25.903-108.32c0-59.825 11.597-108.32 25.903-108.32s25.903 48.498 25.903 108.32z" transform="matrix(.095 .062 -.047 .124 403.107 183.915)" stroke-width="1.603" fill="#006700"/><path d="M400.788 260.873c2.632 7 3.64 13.59 2.254 14.72s-4.647-3.628-7.28-10.627c-2.63-7-3.64-13.59-2.253-14.72s4.646 3.628 7.278 10.627z" stroke-width=".200375" fill="#006700"/><path d="M320.26 487.2c0 59.825-11.597 108.32-25.903 108.32s-25.903-48.498-25.903-108.32c0-59.825 11.597-108.32 25.903-108.32s25.903 48.498 25.903 108.32z" transform="matrix(.107 -.03 .012 .134 363.308 204.387)" stroke-width="1.603" fill="#006700"/><path d="M320.26 487.2c0 59.825-11.597 108.32-25.903 108.32s-25.903-48.498-25.903-108.32c0-59.825 11.597-108.32 25.903-108.32s25.903 48.498 25.903 108.32z" transform="matrix(.107 .009 -.012 .137 379.151 192.906)" stroke-width="1.603" fill="#006700"/><path d="M320.26 487.2c0 59.825-11.597 108.32-25.903 108.32s-25.903-48.498-25.903-108.32c0-59.825 11.597-108.32 25.903-108.32s25.903 48.498 25.903 108.32z" transform="matrix(.058 .133 -.107 .094 438.99 209.62)" stroke-width="1.603" fill="#006700"/><path d="M490.58 234.24c0 .846-.823 1.53-1.837 1.53s-1.838-.684-1.838-1.53.823-1.53 1.838-1.53 1.837.684 1.837 1.53z" transform="matrix(.361 -.518 .683 .368 15.637 345.553)" stroke-width=".332" fill="red"/><path d="M490.58 234.24c0 .846-.823 1.53-1.837 1.53s-1.838-.684-1.838-1.53.823-1.53 1.838-1.53 1.837.684 1.837 1.53z" transform="matrix(.361 -.518 .683 .368 13.163 350.042)" stroke-width=".332" fill="red"/><path d="M320.26 487.2c0 59.825-11.597 108.32-25.903 108.32s-25.903-48.498-25.903-108.32c0-59.825 11.597-108.32 25.903-108.32s25.903 48.498 25.903 108.32z" transform="matrix(.084 .104 -.092 .12 420.599 202.886)" stroke-width="1.603" fill="#006700"/><path d="M320.26 487.2c0 59.825-11.597 108.32-25.903 108.32s-25.903-48.498-25.903-108.32c0-59.825 11.597-108.32 25.903-108.32s25.903 48.498 25.903 108.32z" transform="matrix(.132 -.051 .011 .145 345.163 232.703)" stroke-width="1.603" fill="#006700"/><path d="M320.26 487.2c0 59.825-11.597 108.32-25.903 108.32s-25.903-48.498-25.903-108.32c0-59.825 11.597-108.32 25.903-108.32s25.903 48.498 25.903 108.32z" transform="matrix(.128 .006 -.03 .152 370.202 210.779)" stroke-width="1.603" fill="#006700"/><path d="M320.26 487.2c0 59.825-11.597 108.32-25.903 108.32s-25.903-48.498-25.903-108.32c0-59.825 11.597-108.32 25.903-108.32s25.903 48.498 25.903 108.32z" transform="matrix(.116 .049 -.058 .146 391.326 203.947)" stroke-width="1.603" fill="#006700"/><path d="M320.26 487.2c0 59.825-11.597 108.32-25.903 108.32s-25.903-48.498-25.903-108.32c0-59.825 11.597-108.32 25.903-108.32s25.903 48.498 25.903 108.32z" transform="matrix(-.016 .16 -.154 .026 464.053 261.385)" stroke-width="1.603" fill="#006700"/><path d="M490.58 234.24c0 .846-.823 1.53-1.837 1.53s-1.838-.684-1.838-1.53.823-1.53 1.838-1.53 1.837.684 1.837 1.53z" transform="matrix(.556 .73 -.912 .683 335.771 -210.133)" stroke-width=".332" fill="red"/><path d="M490.58 234.24c0 .846-.823 1.53-1.837 1.53s-1.838-.684-1.838-1.53.823-1.53 1.838-1.53 1.837.684 1.837 1.53z" transform="matrix(.556 .73 -.912 .683 330.588 -215.598)" stroke-width=".332" fill="red"/><path d="M320.26 487.2c0 59.825-11.597 108.32-25.903 108.32s-25.903-48.498-25.903-108.32c0-59.825 11.597-108.32 25.903-108.32s25.903 48.498 25.903 108.32z" transform="matrix(.026 .149 -.153 .06 449.909 244.11)" stroke-width="1.603" fill="#006700"/><path d="M320.26 487.2c0 59.825-11.597 108.32-25.903 108.32s-25.903-48.498-25.903-108.32c0-59.825 11.597-108.32 25.903-108.32s25.903 48.498 25.903 108.32z" transform="matrix(.154 .029 -.068 .144 361.167 227.908)" stroke-width="1.603" fill="#006700"/><path d="M320.26 487.2c0 59.825-11.597 108.32-25.903 108.32s-25.903-48.498-25.903-108.32c0-59.825 11.597-108.32 25.903-108.32s25.903 48.498 25.903 108.32z" transform="matrix(.121 .082 -.11 .127 397.05 221.845)" stroke-width="1.603" fill="#006700"/><path d="M320.26 487.2c0 59.825-11.597 108.32-25.903 108.32s-25.903-48.498-25.903-108.32c0-59.825 11.597-108.32 25.903-108.32s25.903 48.498 25.903 108.32z" transform="matrix(.085 .115 -.134 .105 421.092 227.835)" stroke-width="1.603" fill="#006700"/><g stroke-width="1.603" fill="#006700"><path d="M314.71 506.2c0 45.062-10.064 81.59-22.48 81.59s-22.478-36.53-22.478-81.59c0-45.062 10.064-81.59 22.48-81.59s22.478 36.53 22.478 81.59z" transform="matrix(0 .224 -.211 .004 463.213 268.348)"/><path d="M314.71 506.2c0 45.062-10.064 81.59-22.48 81.59s-22.478-36.53-22.478-81.59c0-45.062 10.064-81.59 22.48-81.59s22.478 36.53 22.478 81.59z" transform="matrix(.163 .138 -.133 .176 370.15 192.671)"/><path d="M314.71 506.2c0 45.062-10.064 81.59-22.48 81.59s-22.478-36.53-22.478-81.59c0-45.062 10.064-81.59 22.48-81.59s22.478 36.53 22.478 81.59z" transform="matrix(.078 .206 -.196 .087 431.133 224.328)"/></g><g stroke-width="1.603" fill="#006700"><path d="M314.71 506.2c0 45.062-10.064 81.59-22.48 81.59s-22.478-36.53-22.478-81.59c0-45.062 10.064-81.59 22.48-81.59s22.478 36.53 22.478 81.59z" transform="matrix(.09 -.05 .096 .088 284.144 151.38)"/><path d="M314.71 506.2c0 45.062-10.064 81.59-22.48 81.59s-22.478-36.53-22.478-81.59c0-45.062 10.064-81.59 22.48-81.59s22.478 36.53 22.478 81.59z" transform="matrix(-.018 -.1 .131 .017 295.412 207.513)"/><path d="M314.71 506.2c0 45.062-10.064 81.59-22.48 81.59s-22.478-36.53-22.478-81.59c0-45.062 10.064-81.59 22.48-81.59s22.478 36.53 22.478 81.59z" transform="matrix(.048 -.079 .123 .063 280.803 174.749)"/></g><path d="M490.58 234.24c0 .846-.823 1.53-1.837 1.53s-1.838-.684-1.838-1.53.823-1.53 1.838-1.53 1.837.684 1.837 1.53z" transform="matrix(.923 0 0 1.133 -41.555 -17.156)" stroke-width=".332" fill="red"/><path d="M490.58 234.24c0 .846-.823 1.53-1.837 1.53s-1.838-.684-1.838-1.53.823-1.53 1.838-1.53 1.837.684 1.837 1.53z" transform="matrix(.923 0 0 1.133 -49.089 -16.363)" stroke-width=".332" fill="red"/><path d="M490.58 234.24c0 .846-.823 1.53-1.837 1.53s-1.838-.684-1.838-1.53.823-1.53 1.838-1.53 1.837.684 1.837 1.53z" transform="matrix(.799 .459 -.572 .981 149.25 -175.216)" stroke-width=".332" fill="red"/><path d="M490.58 234.24c0 .846-.823 1.53-1.837 1.53s-1.838-.684-1.838-1.53.823-1.53 1.838-1.53 1.837.684 1.837 1.53z" transform="matrix(.799 .459 -.572 .981 142.332 -178.266)" stroke-width=".332" fill="red"/><path d="M490.58 234.24c0 .846-.823 1.53-1.837 1.53s-1.838-.684-1.838-1.53.823-1.53 1.838-1.53 1.837.684 1.837 1.53z" transform="matrix(.496 -.393 .547 .548 -1.498 251.113)" stroke-width=".332" fill="red"/><path d="M490.58 234.24c0 .846-.823 1.53-1.837 1.53s-1.838-.684-1.838-1.53.823-1.53 1.838-1.53 1.837.684 1.837 1.53z" transform="matrix(.496 -.393 .547 .548 -5.167 254.699)" stroke-width=".332" fill="red"/></g><g stroke-width=".235" fill="#5387f4"><path d="M411.36 319.5l.037 5.258c10.21-.517 5.263 6.977 7.03 11.223l2.254-2.826 3.123 2.803c-.25-4.908 2.748-17.395-12.443-16.457z" transform="matrix(1.231 0 0 1.22 -188.896 -46.68)"/><path d="M411.36 319.5l.037 5.258c10.21-.517 5.263 6.977 7.03 11.223l2.254-2.826 3.123 2.803c-.25-4.908 2.748-17.395-12.443-16.457z" transform="matrix(-1.231 0 0 1.22 828.362 -46.415)"/><path d="M427.88 303.13c.325 1.9-.45 11.372-.865 13.64-.537 1.924-.447 6.71-10.395 7.148-4.776.21-3.898-4.548-3.68-4.548.215 0 1.948 1.733 3.897 0 1.948-1.732-.444-17.53 1.515-19.488 2.156-2.155 9.985 1.496 9.528 3.248z" transform="matrix(1.104 .54 -.545 1.094 37.494 -229.656)"/><path d="M427.88 303.13c-2.057-.264-3.16-.732-3.68 1.516-2.053 9.068 2.368 17.1-7.58 19.272-4.665 1.04-3.898-4.548-3.68-4.548.215 0 1.948 1.733 3.897 0 1.948-1.732-.444-17.53 1.515-19.488 2.156-2.155 9.985 1.496 9.528 3.248z" transform="matrix(1.104 .54 -.545 1.094 37.494 -229.656)"/><path d="M427.88 303.13c.325 1.9-.45 11.372-.865 13.64-.537 1.924-.447 6.71-10.395 7.148-4.776.21-3.898-4.548-3.68-4.548.215 0 1.948 1.733 3.897 0 1.948-1.732-.444-17.53 1.515-19.488 2.156-2.155 9.985 1.496 9.528 3.248z" transform="matrix(-1.104 .54 .545 1.094 603.963 -229.656)"/><path d="M427.88 303.13c-2.057-.264-3.16-.732-3.68 1.516-2.053 9.068 2.368 17.1-7.58 19.272-4.665 1.04-3.898-4.548-3.68-4.548.215 0 1.948 1.733 3.897 0 1.948-1.732-.444-17.53 1.515-19.488 2.156-2.155 9.985 1.496 9.528 3.248z" transform="matrix(-1.104 .54 .545 1.094 603.963 -229.656)"/><path d="M411.57 319.06l-.18 6.774 5.08-.037.613-6.737h-5.513z" transform="matrix(1.231 0 0 1.22 -189.429 -46.68)"/></g></g><path d="M409.69 276.93s-14.322 12.064-14.322 20.725c.306 3.457 3.17 6.98 8.407 9.52-2.418-3.586-2.747-6.52-2.747-9.93.306-5.86 8.46-12.932 8.46-12.932l.202-7.383z" fill-rule="evenodd" transform="matrix(-.916 0 0 .922 694.242 21.543)" stroke="#000" stroke-width=".235" fill="#5387f4"/><g stroke="#000" fill-rule="evenodd"><path transform="matrix(.001 -1.314 -1.099 -.167 -146.59 388.331)" stroke-width=".176" fill="#ffd200" d="M172.65-427.57h49.93v2.055h-49.93z"/><path d="M368.98-419.45s-40.71-27.717-40.71.866c0 28.582 39.844.866 40.71-.866zm-7.795-.18s-28.583-19.343-28.583.603c0 19.945 27.975.604 28.583-.604z" transform="matrix(-.149 -.012 .005 .106 378.512 217.428)" stroke-width="1.685"/><path d="M368.98-419.45s-40.71-27.717-40.71.866c0 28.582 39.844.866 40.71-.866zm-7.795-.18s-28.583-19.343-28.583.603c0 19.945 27.975.604 28.583-.604z" transform="matrix(.145 -.017 -.02 -.106 260.693 130.507)" stroke-width="1.685"/><path d="M422.29-165.7l2.45-.306s1.766 2.602 3.675 6.737c1.68 4.332 3.368 11.33 4.9 27.256-4.594-.307-21.437 1.53-21.437 1.53s.236-19.168 6.125-26.028c2.757-2.906 4.593-8.575 4.287-9.188z" transform="matrix(1.108 0 0 1.314 -146.59 388.331)" stroke-width=".175" fill="#5387f4"/><path d="M422.29-165.7l2.45-.306s1.766 2.602 3.675 6.737c1.68 4.332-4.9 11.637-3.37 27.562-4.592-.307-13.167 1.225-13.167 1.225s.236-19.17 6.125-26.03c2.757-2.905 4.593-8.574 4.287-9.187z" transform="matrix(1.108 0 0 1.314 -146.59 388.331)" stroke-width=".175" fill="#fff"/><path d="M422.29-165.7l2.45-.306s-.613 7.962-2.756 11.943c-2.144 3.98-3.37 22.967-3.063 22.967.308 0-7.042.613-7.042.613s.236-19.17 6.125-26.03c2.757-2.905 4.593-8.574 4.287-9.187z" transform="matrix(1.108 0 0 1.314 -146.59 388.331)" stroke-width=".175" fill="#5387f4"/></g><path d="M409.69 276.93s-14.322 12.064-14.322 20.725c.306 3.457 3.17 6.98 8.407 9.52-2.418-3.586-2.747-6.52-2.747-9.93.306-5.86 8.46-12.932 8.46-12.932l.202-7.383z" fill-rule="evenodd" transform="matrix(.942 0 0 .898 -62.064 28.76)" stroke="#000" stroke-width=".235" fill="#5387f4"/><g stroke="#000" fill-rule="evenodd"><path d="M407.48-248.03l106.3-106.3s-27.516 220.02-88.583 265.75c0 0-53.15 24.117-53.15-.135l35.433-159.31z" transform="matrix(-.441 0 0 .321 483.497 304.2)" stroke-width=".837" fill="#5387f4"/><path d="M407.48-248.03l70.866-70.867s-35.433 230.31-106.3 230.31v-.135l35.433-159.31z" transform="matrix(-.441 0 0 .321 483.497 304.2)" stroke-width=".837" fill="#fff"/><path d="M407.48-248.03l35.433-35.434s-35.433 194.88-70.866 194.88v-.135l35.433-159.31z" transform="matrix(-.441 0 0 .321 483.497 304.2)" stroke-width=".837" fill="#5387f4"/><path transform="matrix(-.317 -.223 -.306 .231 483.497 400.879)" stroke-width=".816" fill="#ffd200" d="M678.85-116.49h177.17v7.323H678.85z"/><path d="M368.98-419.45s-40.71-27.717-40.71.866c0 28.582 39.844.866 40.71-.866zm-7.795-.18s-28.583-19.343-28.583.603c0 19.945 27.975.604 28.583-.604z" transform="matrix(-.171 .085 .073 .078 340.834 187.032)" stroke-width=".837"/><path d="M368.98-419.45s-40.71-27.717-40.71.866c0 28.582 39.844.866 40.71-.866zm-7.795-.18s-28.583-19.343-28.583.603c0 19.945 27.975.604 28.583-.604z" transform="matrix(.149 -.104 -.09 -.068 155.944 194.836)" stroke-width=".837"/><path d="M407.48-248.03l106.3-53.15S496.063-79.79 407.48-79.79c-53.15 0-70.866-70.866-70.866-70.866l70.866-97.378z" transform="matrix(-.441 0 0 .321 475.684 318.437)" stroke-width=".837" fill="#5387f4"/><path d="M407.48-248.03l70.866-35.434c0 35.434-17.716 185.96-70.866 185.96-35.433 0-70.866-53.15-70.866-53.15l70.866-97.378z" transform="matrix(-.441 0 0 .321 475.684 318.437)" stroke-width=".837" fill="#fff"/><path d="M407.48-248.03l35.433-17.717c0 79.662-17.716 150.53-53.15 150.53-17.716 0-53.15-35.433-53.15-35.433l70.867-97.378z" transform="matrix(-.441 0 0 .321 475.684 318.437)" stroke-width=".837" fill="#5387f4"/><path transform="matrix(-.395 -.143 -.197 .287 483.497 400.879)" stroke-width=".816" fill="#ffd200" d="M569.18-267.74h177.17v7.323H569.18z"/><path d="M368.98-419.45s-40.71-27.717-40.71.866c0 28.582 39.844.866 40.71-.866zm-7.795-.18s-28.583-19.343-28.583.603c0 19.945 27.975.604 28.583-.604z" transform="matrix(-.128 .118 .102 .059 332.252 200.357)" stroke-width=".837"/><path d="M368.98-419.45s-40.71-27.717-40.71.866c0 28.582 39.844.866 40.71-.866zm-7.795-.18s-28.583-19.343-28.583.603c0 19.945 27.975.604 28.583-.604z" transform="matrix(.099 -.132 -.114 -.045 159.115 248.215)" stroke-width=".837"/></g><g stroke="#000" fill-rule="evenodd"><path d="M407.48-248.03l106.3-106.3s-27.516 220.02-88.583 265.75c0 0-53.15 24.117-53.15-.135l35.433-159.31z" transform="matrix(.434 0 0 .321 162.408 304.2)" stroke-width=".837" fill="#5387f4"/><path d="M407.48-248.03l70.866-70.867s-35.433 230.31-106.3 230.31v-.135l35.433-159.31z" transform="matrix(.434 0 0 .321 162.408 304.2)" stroke-width=".837" fill="#fff"/><path d="M407.48-248.03l35.433-35.434s-35.433 194.88-70.866 194.88v-.135l35.433-159.31z" transform="matrix(.434 0 0 .321 162.408 304.2)" stroke-width=".837" fill="#5387f4"/><path transform="matrix(.312 -.223 .301 .231 162.408 400.879)" stroke-width=".816" fill="#ffd200" d="M678.85-116.49h177.17v7.323H678.85z"/><path d="M368.98-419.45s-40.71-27.717-40.71.866c0 28.582 39.844.866 40.71-.866zm-7.795-.18s-28.583-19.343-28.583.603c0 19.945 27.975.604 28.583-.604z" transform="matrix(.168 .085 -.072 .078 302.807 187.032)" stroke-width=".837"/><path d="M368.98-419.45s-40.71-27.717-40.71.866c0 28.582 39.844.866 40.71-.866zm-7.795-.18s-28.583-19.343-28.583.603c0 19.945 27.975.604 28.583-.604z" transform="matrix(-.146 -.104 .089 -.068 484.761 194.836)" stroke-width=".837"/><path d="M407.48-248.03l106.3-53.15S496.063-79.79 407.48-79.79c-53.15 0-70.866-70.866-70.866-70.866l70.866-97.378z" transform="matrix(.434 0 0 .321 170.097 318.437)" stroke-width=".837" fill="#5387f4"/><path d="M407.48-248.03l70.866-35.434c0 35.434-17.716 185.96-70.866 185.96-35.433 0-70.866-53.15-70.866-53.15l70.866-97.378z" transform="matrix(.434 0 0 .321 170.097 318.437)" stroke-width=".837" fill="#fff"/><path d="M407.48-248.03l35.433-17.717c0 79.662-17.716 150.53-53.15 150.53-17.716 0-53.15-35.433-53.15-35.433l70.867-97.378z" transform="matrix(.434 0 0 .321 170.097 318.437)" stroke-width=".837" fill="#5387f4"/><path transform="matrix(.388 -.143 .194 .287 162.408 400.879)" stroke-width=".816" fill="#ffd200" d="M569.18-267.74h177.17v7.323H569.18z"/><path d="M368.98-419.45s-40.71-27.717-40.71.866c0 28.582 39.844.866 40.71-.866zm-7.795-.18s-28.583-19.343-28.583.603c0 19.945 27.975.604 28.583-.604z" transform="matrix(.126 .118 -.101 .059 311.253 200.357)" stroke-width=".837"/><path d="M368.98-419.45s-40.71-27.717-40.71.866c0 28.582 39.844.866 40.71-.866zm-7.795-.18s-28.583-19.343-28.583.603c0 19.945 27.975.604 28.583-.604z" transform="matrix(-.097 -.132 .112 -.045 481.641 248.215)" stroke-width=".837"/></g><g stroke-linejoin="bevel" stroke="#000" stroke-width=".105"><path d="M496.06 627.16l17.717-17.716 17.716 17.716H496.06z" fill-rule="evenodd" transform="matrix(3.308 0 0 5.65 -1377.44 -3258.082)" fill="#ffd200"/><path d="M496.06 627.16l17.717-17.716 17.716 17.716H496.06z" fill-rule="evenodd" transform="matrix(2.98 0 0 5.12 -1209.323 -2928.316)" fill="#0ff"/><path d="M419.84 239.14c0 3.89-3.222 7.043-7.196 7.043-3.975 0-7.197-3.153-7.197-7.043s3.222-7.043 7.197-7.043c3.974 0 7.196 3.153 7.196 7.043z" fill-rule="evenodd" fill="#ffd200" transform="matrix(1.231 0 0 1.22 -185.66 -52.654)"/><path d="M462.73 583.74v34.146" transform="matrix(.298 0 0 .295 184.452 70.688)" fill="none"/><g fill-rule="evenodd"><path d="M460.63 219.69c-35.433 0-61.25 6.505-83.044 14.145l5.54-9.58 5.53-9.594 5.54-9.595 5.54-9.578 5.53-9.595 5.54-9.58 6.13-9.768c8.26-7.257 25.98-10.652 43.69-10.652 17.72 0 35.44 3.586 44.3 10.826l5.54 9.595 5.53 9.58 5.54 9.594 5.54 9.578 5.53 9.596 5.54 9.596 5.53 9.58c-22.972-7.64-47.613-14.146-83.046-14.146z" transform="matrix(.298 0 0 .295 184.834 165.225)" fill="#c453d7"/><path d="M460.63 212.93c-35.548-.05-75.28 10.597-77.504 11.33l5.53-9.596 5.54-9.596 5.54-9.578 5.53-9.595 5.54-9.58 6.13-9.768c8.26-7.257 25.98-10.652 43.69-10.652 17.72 0 35.44 3.586 44.3 10.826l5.54 9.596 5.53 9.58 5.54 9.594 5.54 9.578 5.53 9.596 5.54 9.595s-42.083-11.33-77.516-11.33z" transform="matrix(.298 0 0 .295 184.838 165.226)" fill="#5000c1"/><path d="M460.63 205.27c-26.248-.11-68.686 7.14-71.68 8.504l5.246-8.713 5.54-9.577 5.53-9.595 5.54-9.58 6.13-9.768c8.26-7.257 25.98-10.652 43.69-10.652 17.72 0 35.44 3.586 44.3 10.826l5.54 9.595 5.53 9.578 5.54 9.595 5.54 9.578 5.53 9.597s-36.543-9.387-71.976-9.387z" transform="matrix(.298 0 0 .295 184.834 165.224)" fill="#0053d7"/><path d="M460.63 197.32c-34.802-.07-63.717 6.63-66.434 7.74l5.54-9.58 5.53-9.594 5.54-9.58 6.13-9.768c8.26-7.257 25.98-10.652 43.69-10.652 17.72 0 35.44 3.586 44.3 10.826l5.54 9.595 5.53 9.58 5.54 9.594 5.54 9.58s-31.013-7.74-66.446-7.74z" transform="matrix(.298 0 0 .295 184.83 165.224)" fill="#009f9f"/><path d="M460.63 190.56c-35.605-.123-57.963 4.465-60.894 4.93l5.53-9.594 5.54-9.58 6.13-9.768c8.26-7.257 25.98-10.652 43.69-10.652 17.72 0 35.44 3.586 44.3 10.826l5.54 9.595 5.53 9.58 5.54 9.594s-25.473-4.93-60.906-4.93z" transform="matrix(.298 0 0 .295 184.834 165.222)" fill="#ff0"/><path d="M460.34 181.72c-31.014-.67-53.786 4.25-55.07 4.167l5.54-9.58 6.13-9.768c8.26-7.258 25.98-10.653 43.69-10.653 17.72 0 35.44 3.586 44.3 10.826l5.54 9.595 5.53 9.58s-20.227-4.168-55.66-4.168z" transform="matrix(.298 0 0 .295 184.83 165.222)" fill="#f50"/><path d="M461.51 171.42c-31.13.257-47.247 4.34-50.707 4.89l6.13-9.768c8.26-7.257 25.98-10.652 43.69-10.652 17.72 0 35.44 3.586 44.3 10.826l5.54 9.595s-13.52-4.89-48.953-4.89z" transform="matrix(.298 0 0 .295 184.825 165.227)" fill="#ff0b00"/></g><path d="M496.06 627.16l4.983-4.983h25.467l4.983 4.983H496.06z" fill-rule="evenodd" transform="matrix(2.98 0 0 5.12 -1209.323 -2928.316)" fill="#4363ff"/><path d="M438.01 565.49c.41 0 .727-1.87 1.766-3.532 2.222-1.61 4.568-2.87 7.653-3.533 1.664-.832 5.08-.588 7.652-.588 3.61.324 3.837 1.865 5.888 4.12.902 1.838 3.038 4.39 4.12 7.065 1.173 1.42 2.108 3.626 2.944 5.3.855 1.803 1.765 4.525 2.944 7.063.605 2.824 1.177 5.028 1.177 8.242 0 3.352-.554 4.78-1.177 7.065-1.794.598-5.29.888-7.065 0-1.9-1.7-5.162-.617-6.475-2.355-3.386-.474-4.208-4.46-5.888-6.475-1.175-1.73-1.156-3.032-2.355-4.71-1.857-1.327-2.108-2.945-2.943-5.3.736-2.516 2.015-3.067 4.12-4.12 1.128-1.644 1.767-2.304 1.767-5.298-.425-3.334-1.626-2.982-4.71-3.533-3.815 0-5.77.394-9.42.59z" fill-rule="evenodd" transform="matrix(.201 0 0 .155 231.28 150.5)" fill="red"/><g fill-rule="evenodd" fill="#6da700"><path d="M334.69 674.38s28.307-4.996 46.624-19.982c18.316-14.986 18.317-39.964 26.642-39.964 8.326 0 9.99 28.308 29.973 38.3 19.98 9.99 51.62 23.31 51.62 23.31l-154.86-1.664z" transform="matrix(.128 -.015 .043 .173 266.308 165.877)"/><path d="M334.69 674.38s28.307-4.996 46.624-19.982c18.316-14.986 18.317-39.964 26.642-39.964 8.326 0 9.99 28.308 29.973 38.3 19.98 9.99 51.62 23.31 51.62 23.31l-154.86-1.664z" transform="matrix(.128 -.015 .043 .173 264.458 166.093)"/><path d="M334.69 674.38s28.307-4.996 46.624-19.982c18.316-14.986 18.317-39.964 26.642-39.964 8.326 0 9.99 28.308 29.973 38.3 19.98 9.99 51.62 23.31 51.62 23.31l-154.86-1.664z" transform="matrix(.15 -.019 .048 .191 248.377 155.308)"/><path d="M334.69 674.38s28.307-4.996 46.624-19.982c18.316-14.986 18.317-39.964 26.642-39.964 8.326 0 9.99 28.308 29.973 38.3 19.98 9.99 51.62 23.31 51.62 23.31l-154.86-1.664z" transform="matrix(.167 -.021 .056 .224 233.457 135.602)"/><path d="M334.69 674.38s28.307-4.996 46.624-19.982c18.316-14.986 18.317-39.964 26.642-39.964 8.326 0 9.99 28.308 29.973 38.3 19.98 9.99 51.62 23.31 51.62 23.31l-154.86-1.664z" transform="matrix(.189 -.023 .062 .248 216.412 120.353)"/><path d="M334.69 674.38s28.307-4.996 46.624-19.982c18.316-14.986 18.317-39.964 26.642-39.964 8.326 0 9.99 28.308 29.973 38.3 19.98 9.99 51.62 23.31 51.62 23.31l-154.86-1.664z" transform="matrix(.2 -.025 .069 .28 202.468 100.138)"/><path d="M334.69 674.38s28.307-4.996 46.624-19.982c18.316-14.986 18.317-39.964 26.642-39.964 8.326 0 9.99 28.308 29.973 38.3 19.98 9.99 51.62 23.31 51.62 23.31l-154.86-1.664z" transform="matrix(.23 -.009 .05 .274 199.041 96.9)"/><path d="M334.69 674.38s28.307-4.996 46.624-19.982c18.316-14.986 18.317-39.964 26.642-39.964 8.326 0 9.99 28.308 29.973 38.3 19.98 9.99 51.62 23.31 51.62 23.31l-154.86-1.664z" transform="matrix(.23 -.009 .05 .274 195.676 97.033)"/><path d="M334.69 674.38s28.307-4.996 46.624-19.982c18.316-14.986 18.317-39.964 26.642-39.964 8.326 0 9.99 28.308 29.973 38.3 19.98 9.99 51.62 23.31 51.62 23.31l-154.86-1.664z" transform="matrix(.274 -.011 .055 .304 168.468 78.34)"/><path d="M334.69 674.38s28.307-4.996 46.624-19.982c18.316-14.986 18.317-39.964 26.642-39.964 8.326 0 9.99 28.308 29.973 38.3 19.98 9.99 51.62 23.31 51.62 23.31l-154.86-1.664z" transform="matrix(.303 -.012 .064 .353 144.797 45.94)"/><path d="M334.69 674.38s28.307-4.996 46.624-19.982c18.316-14.986 18.317-39.964 26.642-39.964 8.326 0 9.99 28.308 29.973 38.3 19.98 9.99 51.62 23.31 51.62 23.31l-154.86-1.664z" transform="matrix(.343 -.014 .071 .393 116.589 20.218)"/><path d="M334.69 674.38s28.307-4.996 46.624-19.982c18.316-14.986 18.317-39.964 26.642-39.964 8.326 0 9.99 28.308 29.973 38.3 19.98 9.99 51.62 23.31 51.62 23.31l-154.86-1.664z" transform="matrix(.365 -.014 .08 .444 94.748 -12.877)"/></g></g><path d="M380.34 293.64l5.82-4.9s7.96 6.43 23.578 6.125c14.71-.283 19.906-5.513 22.05-6.126l5.817 5.205c-3.37.92-15.31 6.737-28.785 7.35-14.087-.612-26.642-5.817-28.48-7.655z" fill-rule="evenodd" transform="matrix(1.231 0 0 1.22 -183.419 -52.119)" stroke="#000" stroke-width=".235" fill="#ffc200"/><path d="M342.725 308.037l-1.068-2.956-1.256.443-.142-.395 3.02-1.06.144.393-1.26.444 1.068 2.955-.505.177zM333.752 310.87l-.93-3.44 2.828-.742.11.405-2.31.606.285 1.053 2.162-.568.11.403-2.163.568.316 1.17 2.4-.63.11.407-2.918.766zM328.568 312.02l-.93-3.438.52-.136.928 3.44-.518.135zM324.804 312.527l-.443-3.53.532-.065.39 3.114 1.978-.238.052.417-2.508.302zM319.217 313.046l-.104-3.558.55-.014 2.205 2.74-.082-2.794.513-.013.103 3.558-.55.014-2.205-2.743.082 2.796-.513.013zM312.43 312.878l.37-3.543.53.055-.37 3.543-.53-.055zM308.212 312.058l.663-3.5.54.1 1.565 3.14.52-2.746.504.095-.663 3.5-.538-.102-1.565-3.144-.52 2.753-.505-.095zM307.682 308.36l.517.134-.524 1.99c-.09.347-.208.61-.35.79-.144.182-.348.306-.615.374-.262.067-.584.05-.96-.047-.366-.094-.652-.228-.854-.4-.204-.17-.33-.375-.373-.61-.044-.238-.018-.54.078-.905l.524-1.99.518.134-.523 1.987c-.08.3-.107.53-.082.688.027.158.107.294.24.41s.312.205.535.263c.38.1.67.093.873-.016.202-.11.36-.382.473-.814l.522-1.99zM299.245 308.177l.497.102c-.024.178-.008.333.046.468.056.133.162.26.322.38.158.118.35.21.57.272.198.057.38.08.543.073s.296-.047.392-.115c.1-.07.163-.156.19-.262.03-.108.02-.21-.03-.31-.05-.103-.148-.204-.296-.305-.096-.065-.313-.187-.65-.364-.34-.18-.57-.324-.696-.432-.164-.14-.274-.285-.332-.438-.057-.154-.063-.31-.02-.466.046-.173.145-.32.296-.436.153-.12.346-.187.582-.204.236-.015.485.014.748.09.29.083.532.196.73.342.2.145.337.314.414.507s.092.39.046.594l-.503-.11c.03-.223-.016-.413-.14-.568-.123-.154-.334-.275-.634-.36-.31-.09-.552-.106-.723-.046-.17.06-.272.16-.31.302-.033.123-.01.24.07.348.077.107.315.264.71.468.398.203.667.358.807.465.202.158.338.322.408.496.07.17.082.348.032.532-.05.182-.155.337-.317.465-.162.126-.367.203-.615.228-.245.026-.508-.002-.786-.08-.353-.103-.637-.233-.852-.392-.214-.16-.364-.347-.452-.568-.086-.22-.102-.447-.047-.678zM293.272 307.092l1.218-3.335.5.193-1.217 3.334-.5-.192zM289.002 304.646l2.25-2.76 1.07.893c.24.2.415.368.52.5.15.185.247.378.294.578.064.26.057.52-.02.78-.073.258-.21.51-.41.756-.172.21-.35.373-.537.49-.188.115-.37.19-.542.225-.172.032-.335.037-.488.012-.15-.024-.312-.082-.482-.17-.17-.09-.35-.213-.536-.37l-1.12-.936zm.676.018l.663.554c.205.17.38.287.523.35.145.063.276.094.397.09.167-.005.337-.058.51-.16.175-.1.347-.255.517-.463.235-.29.363-.555.38-.8.022-.242-.022-.455-.13-.635-.08-.13-.242-.297-.486-.5l-.65-.545-1.722 2.11zM295.098 306.226c.202-.553.53-.92.98-1.105.453-.183.946-.173 1.48.03.35.135.638.33.865.584s.366.543.416.862c.052.32.017.646-.105.98-.123.337-.312.61-.565.817-.252.208-.545.327-.88.356-.334.026-.666-.023-.995-.15-.356-.136-.648-.333-.873-.593-.226-.26-.363-.548-.412-.865-.05-.318-.02-.623.088-.916zm.514.205c-.147.403-.14.767.02 1.093.162.325.428.557.798.7.378.143.73.146 1.06.006.33-.14.572-.425.73-.854.098-.272.132-.53.1-.77-.03-.244-.124-.46-.286-.647-.158-.19-.363-.332-.612-.428-.355-.136-.7-.145-1.035-.028-.333.116-.592.426-.775.927zM314.105 311.21c.062-.587.288-1.028.68-1.323.395-.295.875-.414 1.442-.355.37.04.697.152.98.34s.485.43.612.726c.127.295.172.62.135.974-.038.36-.153.673-.348.94-.194.265-.45.456-.767.57-.317.114-.65.153-1 .116-.378-.04-.707-.155-.988-.348-.282-.192-.485-.436-.61-.73-.124-.295-.17-.598-.137-.91zm.548.066c-.045.426.05.777.284 1.05.235.273.55.43.943.47.4.042.743-.047 1.027-.268.285-.22.452-.56.5-1.015.03-.288 0-.546-.09-.772-.086-.226-.23-.41-.433-.55-.2-.14-.432-.226-.697-.254-.376-.04-.713.042-1.01.242-.294.2-.468.565-.524 1.098zM348.616 306.032l-1.573-3.2 1.254-.6c.283-.135.507-.224.67-.264.23-.058.445-.067.647-.026.263.05.496.165.7.342.204.175.376.405.516.69.12.244.193.474.22.692s.022.415-.018.587c-.04.17-.104.32-.19.45-.084.126-.204.25-.355.367-.152.117-.338.23-.557.334l-1.314.628zm.296-.608l.778-.372c.24-.115.417-.225.534-.33.118-.104.2-.21.246-.322.065-.155.088-.33.067-.53-.02-.202-.088-.423-.207-.664-.164-.335-.353-.562-.567-.68-.213-.12-.424-.17-.633-.146-.15.02-.37.096-.655.233l-.765.366 1.202 2.444zM337.572 309.733l-.93-3.44 1.734-.453c.35-.092.622-.13.82-.115.198.013.372.084.523.21.15.13.25.288.3.477.067.244.033.473-.1.688-.135.215-.384.394-.747.536.152.023.272.053.358.09.185.083.37.197.554.345l.933.76-.65.17-.712-.58c-.207-.167-.373-.292-.5-.376s-.237-.137-.326-.16c-.09-.025-.177-.035-.26-.03-.062.004-.16.024-.293.06l-.6.156.41 1.527-.515.136zm-.003-2.057l1.112-.292c.236-.062.415-.132.538-.21.12-.077.204-.174.248-.285.044-.114.05-.227.02-.338-.044-.162-.148-.278-.31-.348-.163-.07-.388-.067-.678.01l-1.238.324.307 1.138zM344.546 307.8l.083-3.87.533-.215 2.89 2.682-.564.226-.85-.824-1.566.627v1.163l-.528.21zm.524-1.786l1.27-.51-.766-.755c-.233-.23-.415-.423-.547-.578.04.23.058.467.057.71l-.014 1.132zM329.728 311.703l-.755-3.48 1.483-.314c.302-.065.552-.08.75-.047.198.03.364.11.5.234.134.124.22.266.255.426.033.148.017.3-.046.45s-.18.285-.347.405c.253.01.46.078.62.2.16.12.264.283.308.486.036.163.03.324-.02.48-.046.156-.12.284-.22.384-.097.1-.23.19-.395.265-.164.075-.372.14-.624.192l-1.508.318zm.086-2.13l.854-.18c.232-.05.396-.097.49-.145.125-.063.214-.142.262-.236.05-.096.063-.204.037-.326-.025-.116-.08-.21-.16-.283-.083-.077-.186-.117-.31-.124-.123-.01-.328.015-.61.075l-.792.166.23 1.053zm.35 1.608l.983-.206c.17-.035.287-.067.352-.092.115-.044.21-.097.28-.158.072-.062.125-.14.16-.235.032-.098.037-.2.013-.312-.028-.13-.09-.234-.187-.314-.096-.08-.216-.125-.36-.134-.14-.012-.338.01-.59.062l-.913.192.26 1.197z"/><g stroke="#000" fill="#ffc200" stroke-width=".235"><path d="M658.63 787.09v-8.59h1.136v7.577h4.23v1.013h-5.366z" transform="matrix(-1.781 .701 -.718 -1.739 2108.369 1259.967)"/><path d="M636.87 787.09v-7.576h-2.83V778.5h6.81v1.014h-2.843v7.576h-1.137z" transform="matrix(-1.339 1.342 -1.374 -1.308 2338.457 506.563)"/><path d="M626 787.09v-8.59h1.166l4.512 6.745V778.5h1.09v8.59H631.6l-4.51-6.75v6.75H626z" transform="matrix(-1.378 1.304 -1.336 -1.346 2331.933 558.285)"/><path d="M618.03 787.09v-8.59h6.21v1.014h-5.073v2.63h4.752v1.01h-4.753v2.923h5.273v1.013h-6.41zM615.47 784.08l1.136.287c-.238.933-.668 1.646-1.29 2.138-.616.49-1.372.733-2.266.733-.926 0-1.68-.188-2.262-.563-.578-.38-1.02-.926-1.324-1.64-.3-.715-.45-1.483-.45-2.303 0-.895.168-1.674.508-2.338.344-.668.83-1.174 1.46-1.518.632-.347 1.327-.52 2.085-.52.86 0 1.582.218 2.168.655.586.44.994 1.054 1.225 1.847l-1.12.264c-.2-.624-.488-1.08-.867-1.365-.378-.285-.855-.427-1.43-.427-.66 0-1.212.158-1.657.474-.442.317-.752.742-.932 1.278-.18.53-.27 1.08-.27 1.646 0 .73.106 1.37.317 1.916.216.543.548.95.997 1.22.45.268.935.403 1.46.403.636 0 1.175-.183 1.616-.55.44-.368.74-.913.897-1.635z" transform="matrix(-1.034 1.58 -1.618 -1.01 2335.387 122.637)"/><path d="M595.47 784.08l1.136.287c-.238.933-.668 1.646-1.29 2.138-.616.49-1.372.733-2.266.733-.926 0-1.68-.188-2.262-.563-.578-.38-1.02-.926-1.324-1.64-.3-.715-.45-1.483-.45-2.303 0-.895.17-1.674.508-2.338.344-.668.83-1.174 1.46-1.518.632-.347 1.328-.52 2.085-.52.86 0 1.582.218 2.168.655.586.44.994 1.054 1.225 1.847l-1.12.264c-.198-.624-.488-1.08-.866-1.365-.38-.285-.856-.427-1.43-.427-.66 0-1.213.158-1.658.474-.442.317-.752.742-.932 1.278-.18.53-.27 1.08-.27 1.646 0 .73.106 1.37.317 1.916.216.543.548.95.997 1.22.45.268.936.403 1.46.403.636 0 1.175-.183 1.616-.55.442-.368.74-.913.897-1.635z" transform="matrix(.079 1.872 -1.917 .077 1902.077 -917.527)"/><path d="M586.2 787.09v-8.59h1.137v8.59H586.2z" transform="matrix(.121 1.87 -1.915 .118 1877.322 -948.448)"/><path d="M569.36 787.09v-8.59h6.21v1.014h-5.073v2.63h4.752v1.01h-4.753v2.923h5.273v1.013h-6.41z" transform="matrix(.535 1.799 -1.842 .523 1578.534 -1230.026)"/><path d="M559.31 787.09v-8.59h1.71l2.034 6.082c.187.567.324.99.41 1.272.098-.313.25-.772.457-1.377l2.058-5.977h1.53v8.59h-1.097v-7.19l-2.495 7.19h-1.025l-2.485-7.312v7.312h-1.095z" transform="matrix(.764 1.718 -1.76 .746 1382.316 -1359.532)"/><path d="M533.28 787.09v-8.59h1.137v7.577h4.23v1.013h-5.367z" transform="matrix(1.581 1.063 -1.088 1.544 401.304 -1631.053)"/><path d="M521.31 787.09v-8.59h1.166l4.512 6.745V778.5h1.09v8.59h-1.166l-4.512-6.75v6.75h-1.09z" transform="matrix(1.741 .787 -.806 1.7 94.974 -1609.258)"/><path d="M513.34 787.09v-8.59h6.21v1.014h-5.074v2.63h4.752v1.01h-4.752v2.923h5.274v1.013h-6.41z" transform="matrix(1.777 .706 -.723 1.735 11.305 -1594.978)"/><path d="M469.77 787.09l-3.328-8.59h1.23l2.233 6.24c.18.5.33.97.45 1.407.134-.47.29-.938.464-1.406l2.32-6.24h1.16l-3.363 8.59h-1.167z" transform="matrix(1.838 -.54 .553 1.795 -1029.637 -1018.892)"/><path d="M460.59 787.09v-8.59h1.136v7.577h4.23v1.013h-5.366z" transform="matrix(1.673 -.918 .94 1.634 -1255.599 -715.922)"/><path d="M444.24 784.33l1.072-.094c.05.43.168.783.352 1.06.187.274.476.496.867.668.392.168.83.252 1.32.252.433 0 .816-.064 1.148-.193s.578-.305.738-.527c.164-.227.246-.473.246-.74 0-.268-.078-.503-.234-.702-.156-.203-.414-.373-.774-.51-.23-.09-.74-.228-1.53-.416-.788-.19-1.34-.37-1.657-.54-.41-.214-.717-.48-.92-.796-.2-.32-.3-.677-.3-1.072 0-.433.124-.838.37-1.213.246-.38.606-.666 1.078-.86.473-.196.998-.294 1.577-.294.636 0 1.197.103 1.68.31.49.204.865.504 1.126.903.262.398.403.85.422 1.353l-1.09.08c-.058-.542-.258-.952-.597-1.23-.336-.276-.834-.415-1.495-.415-.687 0-1.19.127-1.505.38-.313.25-.47.553-.47.91 0 .308.112.56.335.76.22.2.79.405 1.71.616.927.208 1.56.39 1.905.546.5.23.87.523 1.108.88.24.35.358.757.358 1.217 0 .458-.13.89-.393 1.295-.26.403-.638.717-1.13.944-.49.222-1.04.334-1.653.334-.777 0-1.43-.114-1.957-.34-.523-.227-.935-.566-1.236-1.02-.298-.457-.454-.972-.47-1.546z" transform="matrix(1.432 -1.248 1.278 1.398 -1412.17 -377.89)"/><path d="M434.58 787.09v-8.59h1.137v7.577h4.23v1.013h-5.367z" transform="matrix(1.128 -1.516 1.552 1.102 -1496.856 -21.661)"/><path d="M426.64 787.09v-8.59h6.21v1.014h-5.073v2.63h4.752v1.01h-4.753v2.923h5.274v1.013h-6.41z" transform="matrix(.929 -1.64 1.679 .907 -1510.078 185.884)"/><path d="M415.31 787.09v-8.59h6.21v1.014h-5.074v2.63h4.752v1.01h-4.752v2.923h5.274v1.013h-6.41z" transform="matrix(.415 -1.829 1.873 .405 -1446.002 666.471)"/><path d="M392.74 784.08l1.137.287c-.238.933-.668 1.646-1.29 2.138-.616.49-1.372.733-2.267.733-.926 0-1.68-.188-2.26-.563-.58-.38-1.02-.926-1.326-1.64-.3-.715-.45-1.483-.45-2.303 0-.895.17-1.674.51-2.338.343-.668.83-1.174 1.458-1.518.633-.347 1.328-.52 2.086-.52.86 0 1.582.218 2.168.655.586.44.994 1.054 1.224 1.847l-1.12.264c-.198-.624-.487-1.08-.866-1.365s-.855-.427-1.43-.427c-.66 0-1.213.158-1.658.474-.44.317-.752.742-.93 1.278-.18.53-.27 1.08-.27 1.646 0 .73.104 1.37.315 1.916.216.543.548.95.997 1.22.45.268.936.403 1.46.403.636 0 1.175-.183 1.617-.55.44-.368.74-.913.896-1.635z" transform="matrix(-.587 -1.784 1.827 -.573 -1005.669 1427.128)"/><path d="M383.47 787.09v-8.59h1.136v8.59h-1.136z" transform="matrix(-.852 -1.679 1.719 -.832 -819.065 1590.541)"/><path d="M376.56 787.09v-8.59h1.136v7.577h4.23v1.013h-5.366z" transform="matrix(-.756 -1.722 1.764 -.738 -890.126 1532.634)"/><path d="M365.57 778.5h1.137v4.963c0 .864-.098 1.55-.293 2.057s-.55.922-1.06 1.242c-.508.317-1.176.475-2.004.475-.805 0-1.463-.14-1.975-.416-.512-.277-.877-.677-1.096-1.2-.22-.528-.33-1.247-.33-2.157V778.5h1.138v4.957c0 .747.068 1.297.205 1.653.14.35.38.623.715.814.34.192.754.287 1.242.287.836 0 1.432-.188 1.787-.567s.533-1.107.533-2.186V778.5z" transform="matrix(-1.247 -1.424 1.458 -1.218 -467.95 1798.742)"/><path d="M343.95 787.09v-8.59h6.21v1.014h-5.073v2.63h4.752v1.01h-4.753v2.923h5.273v1.013h-6.41z" transform="matrix(-1.504 -1.162 1.19 -1.469 -166.548 1902)"/><path d="M649.73 787.09l3.3-8.59h1.224l3.515 8.59h-1.296l-1-2.6h-3.593l-.943 2.6h-1.207zm2.48-3.527h2.91l-.896-2.38c-.273-.722-.476-1.315-.61-1.78-.108.55-.263 1.097-.462 1.64l-.943 2.52z" transform="matrix(-1.647 .961 -.984 -1.608 2232.721 985.239)"/><path d="M642.03 787.09v-8.59h3.81c.764 0 1.347.08 1.745.235.398.152.717.424.955.814.238.39.357.822.357 1.294 0 .61-.197 1.123-.59 1.54-.396.42-1.005.685-1.83.798.3.145.53.287.686.428.332.304.647.685.943 1.142l1.495 2.338h-1.43l-1.136-1.787c-.332-.515-.605-.91-.82-1.183-.215-.274-.408-.465-.58-.575-.168-.11-.34-.185-.516-.228-.13-.028-.34-.04-.633-.04h-1.318v3.813h-1.137zm1.137-4.8h2.443c.52 0 .926-.05 1.22-.157.292-.11.515-.28.667-.515.152-.24.23-.496.23-.774 0-.406-.15-.74-.447-1.002-.293-.26-.758-.392-1.394-.392h-2.72v2.84z" transform="matrix(-1.46 1.216 -1.245 -1.426 2317.349 675.841)"/><path d="M597.06 787.09l3.3-8.59h1.224l3.515 8.59h-1.295l-1.002-2.6h-3.592l-.943 2.6h-1.207zm2.48-3.527h2.91l-.895-2.38c-.274-.722-.477-1.315-.61-1.78-.11.55-.263 1.097-.463 1.64l-.943 2.52z" transform="matrix(-.585 1.784 -1.827 -.572 2227.923 -354.69)"/><path d="M577.36 787.09v-8.59h3.81c.765 0 1.347.08 1.745.235.398.152.717.424.955.814.238.39.358.822.358 1.294 0 .61-.198 1.123-.592 1.54-.395.42-1.004.685-1.828.798.3.145.53.287.685.428.332.304.647.685.944 1.142l1.494 2.338h-1.43l-1.136-1.787c-.332-.515-.605-.91-.82-1.183-.215-.274-.408-.465-.58-.575-.168-.11-.34-.185-.516-.228-.13-.028-.34-.04-.633-.04h-1.318v3.813h-1.137zm1.137-4.8h2.443c.52 0 .926-.05 1.22-.157.292-.11.515-.28.667-.515.152-.24.23-.496.23-.774 0-.406-.15-.74-.447-1.002-.293-.26-.757-.392-1.394-.392h-2.72v2.84z" transform="matrix(.175 1.867 -1.911 .171 1840.669 -990.913)"/><path d="M550.39 787.09l3.3-8.59h1.224l3.516 8.59h-1.295l-1.002-2.6h-3.592l-.942 2.6h-1.208zm2.48-3.527h2.91l-.895-2.38c-.274-.722-.477-1.315-.61-1.78-.11.55-.263 1.097-.463 1.64l-.943 2.52z" transform="matrix(1.109 1.529 -1.566 1.083 1035.552 -1519.062)"/><path d="M539.06 787.09l3.298-8.59h1.225l3.516 8.59h-1.296l-1.002-2.6h-3.592l-.943 2.6h-1.207zm2.478-3.527h2.912l-.896-2.38c-.274-.722-.477-1.315-.61-1.78-.11.55-.263 1.097-.463 1.64l-.942 2.52z" transform="matrix(1.401 1.28 -1.311 1.368 671.691 -1610.645)"/><path d="M501.34 787.09v-8.59h3.808c.766 0 1.348.08 1.746.235.4.152.717.424.956.814.238.39.357.822.357 1.294 0 .61-.197 1.123-.592 1.54-.394.42-1.004.685-1.828.798.3.145.53.287.686.428.332.304.646.685.943 1.142l1.494 2.338h-1.43l-1.136-1.787c-.332-.515-.606-.91-.82-1.183-.215-.274-.41-.465-.58-.575-.17-.11-.34-.185-.516-.228-.13-.028-.34-.04-.633-.04h-1.318v3.813h-1.137zm1.137-4.8h2.443c.52 0 .926-.05 1.22-.157.292-.11.514-.28.667-.515.152-.24.228-.496.228-.774 0-.406-.148-.74-.445-1.002-.293-.26-.758-.392-1.395-.392h-2.718v2.84z" transform="matrix(1.909 .186 -.19 1.865 -481.738 -1431.882)"/><path d="M491.64 782.91c0-1.426.382-2.54 1.148-3.346.766-.81 1.754-1.213 2.965-1.213.793 0 1.508.19 2.144.57.637.378 1.12.908 1.453 1.587.336.676.504 1.444.504 2.303 0 .87-.175 1.65-.527 2.338-.352.687-.85 1.21-1.494 1.564-.645.352-1.34.528-2.086.528-.81 0-1.53-.196-2.168-.586-.638-.39-1.12-.924-1.448-1.6s-.492-1.39-.492-2.144zm1.17.017c0 1.035.28 1.852.833 2.45.56.593 1.258.89 2.098.89.857 0 1.56-.3 2.11-.902.555-.602.833-1.455.833-2.56 0-.7-.12-1.31-.358-1.83-.234-.522-.58-.927-1.037-1.212-.453-.29-.963-.433-1.53-.433-.804 0-1.497.277-2.08.832-.578.55-.867 1.472-.867 2.765z" transform="matrix(1.909 .186 -.19 1.865 -483.474 -1431.235)"/><path d="M483.32 787.09v-8.59h2.96c.667 0 1.177.04 1.53.123.49.114.91.32 1.258.616.453.382.79.872 1.014 1.47.227.593.34 1.273.34 2.038 0 .653-.076 1.23-.23 1.735-.15.504-.346.922-.585 1.254-.238.328-.5.588-.785.78-.28.187-.623.33-1.025.427-.4.097-.858.146-1.377.146h-3.1zm1.137-1.013h1.834c.567 0 1.01-.053 1.33-.16.325-.104.583-.253.774-.444.27-.27.48-.63.627-1.084.154-.458.23-1.01.23-1.66 0-.898-.15-1.587-.445-2.067-.293-.485-.65-.81-1.073-.973-.304-.117-.795-.176-1.47-.176h-1.805v6.563z" transform="matrix(1.884 -.356 .365 1.84 -904.461 -1144.225)"/><path d="M474.37 787.09l3.3-8.59h1.223l3.516 8.59h-1.296l-1.002-2.6h-3.592l-.943 2.6h-1.207zm2.478-3.527h2.913l-.896-2.38c-.273-.722-.476-1.315-.61-1.78-.11.55-.263 1.097-.462 1.64l-.944 2.52z" transform="matrix(1.869 -.424 .434 1.825 -951.169 -1099.717)"/><path d="M451.69 787.09l3.3-8.59h1.224l3.515 8.59h-1.296l-1-2.6h-3.593l-.943 2.6h-1.207zm2.48-3.527h2.91l-.896-2.38c-.273-.722-.476-1.315-.61-1.78-.108.55-.263 1.097-.462 1.64l-.943 2.52z" transform="matrix(1.606 -1.027 1.052 1.569 -1311.864 -613.414)"/><path d="M406.62 787.09v-8.59h2.96c.667 0 1.177.04 1.528.123.493.114.913.32 1.26.616.453.382.79.872 1.014 1.47.226.593.34 1.273.34 2.038 0 .653-.076 1.23-.23 1.735-.15.504-.346.922-.585 1.254-.238.328-.5.588-.785.78-.28.187-.623.33-1.025.427-.4.097-.858.146-1.377.146h-3.1zm1.137-1.013h1.834c.567 0 1.01-.053 1.33-.16.325-.104.583-.253.774-.444.27-.27.48-.63.627-1.084.154-.458.23-1.01.23-1.66 0-.898-.15-1.587-.445-2.067-.293-.485-.65-.81-1.073-.973-.304-.117-.795-.176-1.47-.176h-1.805v6.563z" transform="matrix(.177 -1.867 1.911 .172 -1376.381 863.241)"/><path d="M394.34 787.09l3.3-8.59h1.223l3.516 8.59h-1.296l-1.002-2.6h-3.592l-.943 2.6h-1.207zm2.478-3.527h2.913l-.896-2.38c-.273-.722-.477-1.315-.61-1.78-.11.55-.263 1.097-.462 1.64l-.944 2.52z" transform="matrix(-.144 -1.868 1.913 -.141 -1248.787 1119.605)"/><path d="M368.55 787.09v-8.59h3.222c.657 0 1.182.088 1.576.264.4.172.71.44.932.803.227.36.34.736.34 1.13 0 .368-.1.714-.3 1.038s-.5.586-.9.785c.518.152.917.412 1.194.78.28.366.422.8.422 1.3 0 .402-.086.777-.258 1.125-.168.344-.377.61-.627.797-.25.187-.563.33-.942.428-.375.093-.836.14-1.383.14h-3.275zm1.136-4.98h1.858c.504 0 .865-.033 1.084-.1.29-.086.506-.228.65-.428.15-.2.223-.45.223-.75 0-.285-.068-.535-.204-.75-.137-.218-.332-.367-.586-.445-.254-.082-.69-.123-1.307-.123h-1.717v2.596zm0 3.967h2.14c.366 0 .624-.014.772-.04.262-.048.48-.126.657-.236.176-.108.32-.266.433-.473.114-.21.17-.454.17-.727 0-.32-.082-.598-.246-.832-.164-.238-.392-.404-.685-.498-.29-.098-.707-.147-1.254-.147h-1.987v2.954z" transform="matrix(-1.098 -1.537 1.574 -1.072 -612.55 1725.844)"/><path d="M351.93 787.09v-8.59h3.24c.57 0 1.006.028 1.306.082.422.07.776.206 1.06.405.286.195.515.47.687.826.175.355.263.746.263 1.172 0 .73-.232 1.35-.697 1.857-.466.504-1.306.756-2.52.756h-2.204v3.492h-1.136zm1.136-4.506h2.22c.735 0 1.257-.136 1.565-.41.31-.273.464-.658.464-1.154 0-.36-.09-.666-.275-.92-.18-.258-.42-.428-.716-.51-.19-.05-.545-.076-1.06-.076h-2.198v3.07z" transform="matrix(-1.43 -1.25 1.28 -1.396 -264.493 1875.389)"/><path d="M335.28 787.09v-8.59h3.81c.764 0 1.347.08 1.745.235.398.152.717.424.955.814.238.39.357.822.357 1.294 0 .61-.197 1.123-.59 1.54-.396.42-1.005.685-1.83.798.3.145.53.287.686.428.332.304.647.685.943 1.142l1.495 2.338h-1.43l-1.136-1.787c-.332-.515-.605-.91-.82-1.183-.215-.274-.408-.465-.58-.575-.168-.11-.34-.185-.516-.228-.13-.028-.34-.04-.633-.04h-1.318v3.813h-1.137zm1.137-4.8h2.443c.52 0 .926-.05 1.22-.157.292-.11.515-.28.667-.515.152-.24.23-.496.23-.774 0-.406-.15-.74-.447-1.002-.293-.26-.758-.392-1.394-.392h-2.72v2.84z" transform="matrix(-1.643 -.969 .992 -1.604 36.368 1940.979)"/></g></g></svg>