<svg xmlns="http://www.w3.org/2000/svg" height="480" width="640" version="1"><defs><clipPath id="a"><path fill-opacity=".67" d="M0 0h682.67v512H0z"/></clipPath></defs><g clip-path="url(#a)" transform="scale(.9375)"><path d="M0 0h768v256H341.33L0 0z" fill-rule="evenodd" fill="#ed2939"/><path d="M0 512h768V256H341.33L0 512z" fill-rule="evenodd" fill="#002395"/><path d="M0 0l341.33 256L0 512V0z" fill-rule="evenodd" fill="#fff"/><path fill="#ff0" d="M172.318 193.168l.104-3.963s-2.128-3.39.342-7.033c0 0-5.248-2.776-4.026-7.123 0 0-4.746-1.214-4.397-6.433 0 0-5.12-.355-5.65-4.716 0 0-5.124.845-7.378-3.404 0 0-4.996.977-6.406-2.526 0 0-4.857 1.683-7.74-2.435 0 0-5.128 2.073-7.278-1.813-2.12 3.872-7.25 1.813-7.25 1.813-2.848 4.103-7.74 2.4-7.74 2.4-1.36 3.517-6.343 2.52-6.343 2.52-2.247 4.248-7.363 3.404-7.363 3.404-.502 4.346-5.617 4.7-5.617 4.7.404 5.233-4.334 6.42-4.334 6.42 1.25 4.347-3.99 7.116-3.99 7.116 2.532 3.663.425 7.026.425 7.026l-.12 3.655 84.776.392"/><path d="M377.17 843.11l.09-3.458s-1.855-2.958.3-6.136c0 0-4.578-2.422-3.513-6.215 0 0-4.14-1.058-3.835-5.612 0 0-4.468-.31-4.93-4.114 0 0-4.47.736-6.435-2.97 0 0-4.358.85-5.588-2.205 0 0-4.238 1.467-6.752-2.126 0 0-4.474 1.808-6.35-1.582-1.85 3.38-6.324 1.582-6.324 1.582-2.484 3.58-6.75 2.094-6.75 2.094-1.188 3.068-5.534 2.198-5.534 2.198-1.96 3.708-6.422 2.97-6.422 2.97-.44 3.794-4.9 4.103-4.9 4.103.352 4.565-3.78 5.6-3.78 5.6 1.09 3.793-3.483 6.21-3.483 6.21 2.21 3.195.372 6.13.372 6.13l-.104 3.19 73.95.34h-.013z" stroke="#000" stroke-width=".289" fill="none" transform="matrix(1.1464 0 0 1.146 -260.07 -773.12)"/><path fill="red" d="M170.346 188.133c-13.316-1.332-28.648-4.492-40.483 2.17-7.935-4.674-18.982-4.388-28.388-3.473-5.108.913-11.117.913-16.456 1.785l-.838.118c-9.686.643-18.472-2.218-26.89-5.978 2.674 15.166 5.64 30.71 7.098 46.587 3.176 23.516-11.13 43.26-5.262 66.49 3.504 11.147 15.765 17.628 26.987 18.912 10.865.64 22.108 2.42 32.164 4.604 1.91.397 4.18 1.284 5.498 1.855 2.77 1.158 4.8 2.86 6.58 4.682 6.072-6.32 14.97-8.08 23.75-9.007 15.82-1.85 35.324-.843 45.01-15.172v-.81c5.262-7.924 4.564-20.013 2.282-28.992-.154-3.133-.99-5.895-1.445-8.88-9.665-25.52-1.39-54.22 2.77-79.94-5.08 2.776-10.746 4.087-16.4 5.476-4.507.6-9.53.328-14.095.083l-1.89-.51"/><path fill="#80cfe1" d="M190.224 261.374c-.062 1.68.845 3 1.173 4.555 1.85 11.154 3.636 25.93-7.85 32.85-12.71 8.078-29.374 4.618-44.078 8.894-2.94.816-6.986 3.517-9.052 5.427-1.326-.87-2.66-2.21-4.37-2.998-12.1-6.432-27.83-4.277-41.486-7.75-6.86-2.17-14.012-7.513-15.75-14.532-4.466-18.416 6.232-34.113 4.97-52.383-.818-13.952-3.163-27.345-6.387-40.426 10.677 4.974 23.036 5.805 35.04 3.42 8.89-1.243 19.24-1.27 27.572 2.49 4.592-1.975 9.965-2.86 14.914-3.405 9.408.914 19.52 2.616 29.206 2.547 6.47-.336 12.346-2.205 17.97-4.696-3.336 21.62-9.742 44.264-1.877 66.01"/><path fill="#fff" d="M171.022 265.683l-.104-20.33h2.505l-31.082-20.07-.055-10.428h3l-15.54-11.126-15.466 11.12h2.993l.056 10.42-30.916 20.044 2.47.013.105 20.315 82.025.056"/><path d="M376.04 906.46l-.09-17.74h2.184L351.02 871.21l-.048-9.1h2.618l-13.557-9.71-13.49 9.704h2.611l.05 9.094-26.968 17.49 2.155.01.092 17.728 71.55.05.007-.014z" stroke="#000" stroke-width="1.242" fill="none" transform="matrix(1.1464 0 0 1.146 -260.07 -773.12)"/><path fill="#fff" d="M180.583 292.385l.007 6.36-100.134-.11-.042-6.335 100.177.085"/><path d="M384.38 929.76l.006 5.55-87.347-.096-.038-5.528 87.384.074h-.006z" stroke="#000" stroke-width="1.242" fill="none" transform="matrix(1.1464 0 0 1.146 -260.07 -773.12)"/><path fill="#fff" d="M87.106 292.007l-.084-21.53 4.054-.007-.223 21.78.244-21.605-5.84-.167v-4.62l89.492.1.04 4.576h-5.52l.105 21.8-.195-21.8h4.11l.09 21.555"/><path d="M302.84 929.43l-.073-18.786 3.536-.007-.194 19.005.212-18.852-5.095-.146v-4.03l78.064.085.037 3.993h-4.815l.09 19.023-.17-19.023h3.586l.08 18.81" stroke="#000" stroke-width="1.242" fill="none" transform="matrix(1.1464 0 0 1.146 -260.07 -773.12)"/><path d="M319.62 924.8l-.055-13.1h-10.482l.06 13.087 10.477.013" stroke="#000" stroke-width="1.242" fill="none" transform="matrix(1.1464 0 0 1.146 -260.07 -773.12)"/><path d="M311.94 914.43l.03 7.61h4.797l-.024-7.61h-4.803M370.86 924.84l-.06-13.087-10.447-.012.05 13.1h10.457" stroke="#000" stroke-width="1.242" fill="none" transform="matrix(1.1464 0 0 1.146 -260.07 -773.12)"/><path d="M363.18 914.48l.055 7.585h4.79l-.042-7.585h-4.803M370.78 903.51l-.06-13.1h-10.46l.038 13.1h10.488-.006z" stroke="#000" stroke-width="1.242" fill="none" transform="matrix(1.1464 0 0 1.146 -260.07 -773.12)"/><path d="M363.1 893.16l.03 7.597h4.79l-.005-7.597H363.1M319.53 903.46l-.073-13.076-10.464-.013.05 13.083h10.487v.007z" stroke="#000" stroke-width="1.242" fill="none" transform="matrix(1.1464 0 0 1.146 -260.07 -773.12)"/><path d="M311.85 893.11l.024 7.585 4.803.012-.036-7.597h-4.79M338.5 903.48l-.05-13.076-10.47-.012.044 13.087H338.5" stroke="#000" stroke-width="1.242" fill="none" transform="matrix(1.1464 0 0 1.146 -260.07 -773.12)"/><path d="M330.83 893.13l.024 7.585 4.797.024-.03-7.61h-4.79M353.12 903.51l-.073-13.1-10.464-.013.05 13.087 10.487.025" stroke="#000" stroke-width="1.242" fill="none" transform="matrix(1.1464 0 0 1.146 -260.07 -773.12)"/><path d="M345.44 893.14l.036 7.61h4.797l-.024-7.61h-4.81" stroke="#000" stroke-width="1.242" fill="none" transform="matrix(1.1464 0 0 1.146 -260.07 -773.12)"/><path fill="#fff" d="M147.727 257.696l.133 34.608-34.774-.056-.125-34.58 34.76.028"/><path d="M355.72 899.49l.116 30.2-30.333-.05-.11-30.174 30.32.024h.007zM325.21 908.11l30.54.024M329.02 929.68l-.103-21.342M352.14 929.69l-.103-21.33M366.79 886.63l-17.08-12.474-19.194-.024-16.947 12.45 53.22.047M331.99 863.8l.03 7.61 16.144.01-.03-7.608-16.144-.012" stroke="#000" stroke-width="1.242" fill="none" transform="matrix(1.1464 0 0 1.146 -260.07 -773.12)"/><path d="M336.37 865.69l.024 3.792h7.415l-.025-3.792h-7.415M340.04 855.14l8.98 6.348-17.892-.023 8.912-6.325" stroke="#000" stroke-width="1.242" fill="none" transform="matrix(1.1464 0 0 1.146 -260.07 -773.12)"/><path fill="#fff" d="M171.366 201.943c2.924-.07 3.678 12.04 3.685 18.04 2.513.705 8.082 4.207 10.545 7.374l-28.25-.042c2.43-3.125 7.956-6.64 10.448-7.345 0-6.007.614-18.11 3.573-18.04"/><path d="M376.34 850.84c2.55-.06 3.208 10.507 3.214 15.742 2.19.615 7.05 3.67 9.198 6.434l-24.642-.036c2.118-2.727 6.94-5.795 9.113-6.41 0-5.24.536-15.803 3.117-15.742M326.81 900.33h2.21l-.646 1.186s1.066 1.37.02 2.94l.577 1.09h-2.13l.58-1.035s-1.09-1.818.047-2.994l-.657-1.186M331.31 900.33h2.21l-.64 1.186s1.066 1.334.007 2.94l.572 1.09h-2.126l.572-1.035s-1.065-1.818.055-2.994l-.65-1.186M336.23 900.33h2.204l-.658 1.186s1.078 1.37.018 2.94l.58 1.115-2.114-.023.567-1.036s-1.078-1.806.042-2.994l-.646-1.186h.006zM341.77 900.35h2.222l-.65 1.2s1.064 1.345.005 2.92l.596 1.11H341.8l.573-1.036s-1.066-1.832.073-2.995l-.67-1.2h-.006zM346.7 900.35h2.204l-.652 1.2s1.072 1.345.012 2.915l.585 1.114h-2.126l.554-1.036s-1.07-1.82.085-2.995l-.663-1.2M351.6 900.36l2.204-.012-.652 1.2s1.09 1.345.03 2.92l.555 1.11h-2.13l.57-1.036s-1.064-1.82.074-2.995l-.65-1.187" stroke="#000" stroke-width="1.242" fill="none" transform="matrix(1.1464 0 0 1.146 -260.07 -773.12)"/><path fill="#ff0" d="M130.508 336.666c13.022.042 29.038-2.616 36.54-6.494l16.476-1.458.328 20.098c-13.958 7.694-46.184 9.347-53.275 9.292-7.097.055-39.72-1.625-53.742-9.348l.182-20.112 16.51 1.486c7.503 3.858 24.007 6.537 37.015 6.537h-.035"/><path d="M340.7 968.4c11.36.036 25.33-2.283 31.873-5.667l14.372-1.273.286 17.538c-12.174 6.714-40.285 8.157-46.47 8.108-6.19.05-34.65-1.418-46.88-8.156l.16-17.55 14.402 1.296c6.544 3.367 20.94 5.704 32.287 5.704h-.03" stroke="#000" stroke-width=".289" fill="none" transform="matrix(1.1464 0 0 1.146 -260.07 -773.12)"/><path fill="#ff0" d="M34.417 250.934l14.516 4.618-4.39 23.497-13.74 2.133s-2.317-12.355 3.614-30.263"/><path d="M256.88 893.59l12.662 4.03-3.83 20.503-11.985 1.862s-2.02-10.78 3.153-26.407v.012z" stroke="#000" stroke-width=".289" fill="none" transform="matrix(1.1464 0 0 1.146 -260.07 -773.12)"/><path fill="#7e7e7e" d="M44.54 278.793l-13.734 2.393 8.688-12.355 5.046 9.963"/><path d="M265.71 917.9l-11.98 2.088 7.58-10.78 4.4 8.692" stroke="#000" stroke-width=".289" fill="none" transform="matrix(1.1464 0 0 1.146 -260.07 -773.12)"/><path fill="#ff0" d="M25.74 267.86l13.99 1.01c.315 11.854 1.752 57.087 55.78 59.543l-1.682 16.457c-65.765.682-70.762-55.482-68.09-77.01"/><path d="M249.31 908.36l12.205.882c.274 10.343 1.528 49.813 48.656 51.956l-1.466 14.36c-57.367.596-61.726-48.413-59.394-67.198zM294.11 978.5l14.384-3.14" stroke="#000" stroke-width=".289" fill="none" transform="matrix(1.1464 0 0 1.146 -260.07 -773.12)"/><path fill="#ff0" d="M225.453 251.106l-14.46 4.576 4.586 23.46 13.767 2.212s2.212-12.347-3.894-30.26"/><path d="M423.52 893.74l-12.613 3.993 4 20.472 12.01 1.93s1.93-10.775-3.397-26.407v.012z" stroke="#000" stroke-width=".289" fill="none" transform="matrix(1.1464 0 0 1.146 -260.07 -773.12)"/><path fill="#7e7e7e" d="M215.57 278.897l13.77 2.47-8.807-12.362-4.962 9.892"/><path d="M414.9 917.99l12.01 2.155-7.682-10.786-4.328 8.63" stroke="#000" stroke-width=".289" fill="none" transform="matrix(1.1464 0 0 1.146 -260.07 -773.12)"/><path fill="#ff0" d="M234.292 268.044L220.28 269c-.203 11.84-1.236 57.092-55.264 59.492l1.836 16.442c65.75.76 70.274-55.377 67.44-76.897"/><path d="M431.23 908.52l-12.223.835c-.177 10.33-1.077 49.818-48.206 51.912l1.602 14.348c57.355.662 61.3-48.322 58.828-67.1v.004zM387.04 978.57l-14.42-3.15" stroke="#000" stroke-width=".289" fill="none" transform="matrix(1.1464 0 0 1.146 -260.07 -773.12)"/><path fill="#009fc5" d="M121.76 346.568c-.368.237-.87.3-1.45.272l-2.61-.133.223-3.257 2.59.14c.51.034.913.132 1.165.285.523.272.753.775.704 1.472-.034.6-.244.99-.628 1.22m-4.382 5.13l.258-3.97 3.043.21c.984.076 1.716-.183 2.212-.686.516-.487.782-1.128.816-1.853.064-.845-.152-1.536-.655-2.045-.48-.488-1.165-.747-2.023-.83l-4.348-.272-.6 9.348 1.29.084M126.84 343.875l3.182.035c.46.04.824.097 1.09.223.487.23.718.69.718 1.36 0 .63-.182 1.047-.538 1.298-.342.23-.837.336-1.43.336l-3.057-.035.028-3.215m-.05 8.28l.03-3.99 2.986.043c.53 0 .92.04 1.192.173.44.204.656.63.677 1.215l.076 1.57c.02.376.028.607.05.76.04.112.06.23.117.315h1.605l-.028-.203c-.18-.098-.328-.286-.39-.572-.056-.182-.084-.454-.098-.796l-.028-1.25c-.02-.564-.12-.954-.335-1.17a1.673 1.673 0 0 0-.845-.6c.446-.238.78-.51 1.026-.845.23-.37.35-.838.35-1.41 0-1.073-.44-1.806-1.333-2.203-.482-.217-1.096-.33-1.822-.342l-4.487-.043-.035 9.376h1.29M136.745 350.2c-.572-.696-.88-1.568-.95-2.6-.062-1.3.19-2.29.782-2.96.6-.725 1.375-1.073 2.387-1.13 1.02-.055 1.856.273 2.477.914.637.63 1 1.5 1.062 2.59.035 1.045-.146 1.973-.628 2.79-.474.83-1.263 1.297-2.428 1.324-1.215.064-2.122-.222-2.7-.927m-1.536-5.9c-.6.927-.845 2-.782 3.3.09 1.4.523 2.56 1.34 3.43.907.873 2.108 1.312 3.587 1.23 1.584-.07 2.777-.67 3.587-1.773.656-.997.97-2.156.9-3.586-.09-1.276-.46-2.315-1.15-3.09-.874-1.04-2.15-1.5-3.88-1.43-1.634.105-2.835.705-3.61 1.92M179.276 330.81c.9-.153 1.682-.11 2.394.133 1.047.328 1.752 1.103 2.19 2.288l-1.29.182c-.28-.64-.677-1.08-1.214-1.325-.523-.23-1.18-.286-1.933-.174a3.01 3.01 0 0 0-2.08 1.277c-.488.753-.635 1.758-.418 3.04.18 1.062.572 1.96 1.214 2.56.592.615 1.464.83 2.602.67.85-.14 1.535-.48 2.017-1.067.5-.557.648-1.402.48-2.49l-3.008.46-.153-1.03 4.186-.644.816 4.96-.83.125-.516-1.144c-.35.517-.698.915-1.005 1.145-.516.405-1.214.663-2.086.79-1.13.172-2.163-.03-3.098-.63-1.026-.76-1.69-1.89-1.94-3.46-.273-1.54-.028-2.86.684-3.9.676-1.004 1.66-1.59 2.986-1.78M188.746 330.088l3-1.088c.412-.153.768-.202 1.075-.167.552.042.957.37 1.187 1.025.217.558.217 1.047-.027 1.39-.26.354-.663.613-1.25.83l-2.82 1.01-1.164-3m3 7.75l-1.465-3.76 2.792-1.004c.524-.167.887-.258 1.16-.23.494.063.87.363 1.122.935l.635 1.43c.14.354.25.57.34.67.043.125.134.2.204.284l1.514-.557-.084-.202c-.223 0-.44-.126-.6-.37-.118-.174-.23-.426-.39-.72l-.496-1.17c-.223-.51-.454-.824-.72-1.013a2.395 2.395 0 0 0-.997-.27c.308-.358.532-.713.615-1.132.09-.425.05-.9-.153-1.43-.384-.997-1.09-1.54-2.08-1.61-.523-.043-1.123.07-1.814.312l-4.215 1.5 3.405 8.818 1.235-.453M202.72 333.194l-5.352-7.807 5.876-3.746.65.943-4.817 3.076 1.647 2.385 4.446-2.86.607.914-4.446 2.86 1.816 2.63 4.9-3.133.648.92-5.98 3.817M207.41 319.385l1.534-1.688c.712-.754 1.466-1.096 2.29-.998.823.07 1.66.5 2.553 1.283.245.188.46.432.684.704.392.51.622.957.77 1.402.124.558.097 1.067-.1 1.556-.117.243-.327.53-.64.872l-1.543 1.674-5.548-4.82m8.108 3.675c1.09-1.2 1.326-2.49.69-3.947a6.667 6.667 0 0 0-1.716-2.227c-.984-.872-2.01-1.318-3.09-1.4-1.202-.092-2.22.34-3.107 1.31l-2.617 2.804 7.216 6.293 2.617-2.818M221.108 315.775l-8.304-4.877.677-1.073 8.32 4.848-.685 1.116M224.364 310.114l-8.967-3.587 2.645-6.306 1.088.42-2.156 5.197 2.7 1.06 2.017-4.786 1.034.428-1.996 4.778 3.022 1.227 2.212-5.26 1.09.412-2.695 6.42M228.48 299.1l-9.435-2.085.314-1.458 8.715-2.944-7.655-1.69.28-1.143 9.434 2.03-.3 1.416-8.73 3.007 7.655 1.654-.273 1.213M227.735 287.125l.118-1.186c.545.014 1.005-.07 1.354-.258.684-.37 1.082-1.075 1.186-2.115.042-.488.02-.914-.09-1.318-.203-.782-.642-1.215-1.347-1.285-.523-.056-.9.07-1.173.356-.244.33-.502.803-.697 1.473l-.433 1.235c-.28.81-.537 1.367-.817 1.68-.446.587-1.074.79-1.877.734-.86-.09-1.557-.433-2.052-1.088-.51-.6-.72-1.458-.594-2.52.084-.968.405-1.785.977-2.44.532-.6 1.355-.887 2.41-.775l-.1 1.184c-.515 0-.927.09-1.227.3-.544.3-.844.935-.935 1.863-.077.768.028 1.284.32 1.675.294.328.664.536 1.096.57.46.043.824-.103 1.075-.458.18-.245.397-.775.69-1.633l.426-1.297c.21-.6.46-1.06.753-1.388.523-.544 1.207-.775 2.065-.71 1.047.11 1.794.543 2.177 1.338.377.803.524 1.69.433 2.693-.12 1.137-.488 2.03-1.172 2.63-.684.613-1.536.823-2.568.74M32.147 286.552l.217 1.17c-.524.106-.942.316-1.25.588-.55.515-.74 1.29-.55 2.344.083.446.244.885.446 1.235.42.71.963.996 1.654.884.51-.09.844-.285 1.005-.648.152-.357.264-.9.3-1.598l.062-1.32c.04-.815.132-1.456.314-1.813.286-.64.823-1.04 1.626-1.17.858-.155 1.612.04 2.26.53.657.452 1.09 1.24 1.25 2.287.202.956.112 1.814-.265 2.588-.363.754-1.06 1.214-2.13 1.41l-.208-1.186c.494-.182.864-.357 1.108-.6.42-.468.545-1.144.384-2.072-.125-.754-.384-1.243-.774-1.486-.384-.287-.768-.398-1.187-.328-.466.07-.773.328-.92.747-.09.278-.16.857-.223 1.744l-.063 1.365c-.035.642-.132 1.173-.35 1.536-.34.67-.92 1.08-1.764 1.214-1.068.18-1.892-.063-2.478-.747-.6-.67-.97-1.472-1.158-2.47-.21-1.185-.056-2.106.42-2.845.48-.76 1.24-1.2 2.274-1.346M31.55 298.917l9.227-2.776 2.15 6.495-1.124.355-1.76-5.336-2.804.845 1.625 4.93-1.075.342-1.612-4.945-3.126.934 1.786 5.456-1.102.315-2.185-6.613M35.644 310.182l8.486-4.5.907 1.584-5.834 6.167 8.52-1.458.88 1.57-8.465 4.472-.6-1.04 4.996-2.63c.182-.105.46-.258.866-.474.397-.18.844-.426 1.29-.656l-8.485 1.444-.62-1.1 5.79-6.147-.278.14c-.182.104-.496.258-.92.502-.42.258-.734.418-.936.502l-4.982 2.672-.614-1.06M51.453 322.674c-.426-.097-.845-.342-1.256-.768l-1.794-1.848 2.415-2.212 1.807 1.843c.35.34.572.675.69.96.17.552 0 1.055-.508 1.528-.46.426-.922.6-1.354.496m-6.818.858l2.96-2.714 2.1 2.128c.676.69 1.367 1.004 2.093.99a2.953 2.953 0 0 0 1.933-.844c.63-.558.93-1.214.93-1.918-.008-.684-.322-1.325-.9-1.925l-3.016-3.078-7.02 6.446.907.914M53.104 331.062l5.087-7.973 6.016 3.654-.628.95-4.94-2.958-1.53 2.414 4.544 2.755-.586.914-4.55-2.742-1.73 2.7 5.003 3.006-.6.942-6.086-3.663M68.156 329.527l3.056.97c.433.132.747.3.956.49.39.368.496.898.266 1.54-.19.558-.475.92-.92 1.075-.4.07-.902.07-1.488-.113l-2.882-.92 1.012-3.043m-2.638 7.834l1.27-3.8 2.847.927c.51.133.88.314 1.06.502.35.313.455.78.28 1.36l-.426 1.513c-.098.37-.147.614-.19.726 0 .118 0 .244.022.327l1.5.488.09-.216c-.16-.127-.25-.356-.243-.642.034-.176.083-.454.18-.776l.363-1.213c.147-.532.203-.93.07-1.215-.112-.3-.3-.572-.614-.83.473-.084.885-.23 1.234-.49.328-.285.607-.682.775-1.24.34-1.012.152-1.856-.6-2.498-.378-.334-.916-.62-1.62-.886l-4.27-1.317-2.988 8.894 1.25.384"/><path fill="#bc715f" d="M78.485 175.493c1.102-2.66 11.32-9.907 44.844-6.733 0 0 5.665 3.46 8.994 3.015 1.898-.245-1.117.118-3.594-1.94-2.526-2.058-3.064-6.278 2.708-6.167 5.743.147 27.244 1.36 27.65 3.292.375 1.954-11.37 2.77-15.738 2.658-4.39-.118-3.88 2.1.488 1.933 13.65-.487 28.55-5.294 44.286 5.833 1.877 1.353-4.746 1.57-9.868-.607 0 0-13.88.72-19.882-.265 0 0-4.613 3.754-10.62 3.385.78 1.946-2.22 9.208-21.11 3.745-3.12.957-14.488 2.86-13.246-.515-2.994 0-8.242.962-9.024-.74-.753-1.674 9.24-4.207 10.992-6.02 0 0-21.14.202-25.144-1.256 0 0-12.47 2.796-11.738.37"/><path fill="#008737" d="M85.26 205.083c.454-.614.635-1.716 1.598-1.688 2.094.558 3.517 4.387 6.092 1.904.915-.203 1.263 1.04 2.017 1.185.482 2.128 2.19-.432 3.468-.286 2.73-1.215 6.107-1.5 9.338-.9.097 2.085-1.536 4.387-3.587 5.573.042 2.1 1.947 3.447 1.912 5.56-.328.79-.056 2.03-1.25 2.288-1.514-.27-3.007-.432-4.263-1.276-.154-.153-.28-.453-.6-.356-.154.705.95 1.403 1.38 2.12-.76 1.3-2.022.113-3.083.127-.314.746-.014 1.688-.782 2.17-1.34-.042-1.612-1.5-2.435-2.226-.845.913.593 1.457.795 2.182-.516 2.75-.446 5.435-3.196 7.235l-1.842.914c-.503-1.38-.19-3.474-.524-4.918-1.088 1.772-1.94 3.322-3.538 4.82-1.87-.613-2.96-2.817-3.37-4.645-.782-2.128-.335-4.674 1.347-6.216-.573-1.115-2.534-.857-2.813-2.447-2.938-1.912-4.564 3.35-6.462.613-.614-2.552.12-5.727 1.968-7.63-.412-1.047-1.78-.775-2.59-1.375-1.848-1.57-4.514-3.23-4.382-6.062 5.06-1.91 11.11-.51 14.788 3.335"/><path fill="#ff0" d="M87.885 204.796c-.118 2.316 1.564.627 2.813 2.03-.977-.384-1.69 1.688-2.645.502l-.6.573c.35.795 1.026.9.32 1.772-1.046.397-1.255-.913-1.744-1.43-.085-.23.16-.663-.224-.817-.593.503-1.214.684-2.03.6-.224-.446-.657-1.03-.217-1.373.8-1.082 2.043.39 2.65-.37.098-.67-.488-1.486.273-1.947.523.09 1.193-.195 1.41.46M94.145 206.7c.062.446-.23 1.073.356 1.387.76-.412 1.57-.098 2.01.656-.006.404.12.934-.41 1.13l-1.188-.223c.084-.23-.293-.377-.44-.6-.523-.16-.83.265-1.22.523.293.446.97.69.81 1.263-.7.697-1.04-.6-1.808-.273-.524-.2.188-1.29-.635-1.618-.978 0-.33 1.604-1.58.977-.445-.503-.885-1.18-.403-1.744.523-.35 1.41-.26 1.856.195.76-.844.837-4.102 2.66-1.675M86.35 210.056c.51.734-.113 1.73.536 2.547 1.02-1.904 2.003.41 3.218.23.37.453.125 1.082.195 1.597-1.5.398-3.31.872-4.635-.328l-.37.426c.79.733 1.536 1.563.908 2.79-1.124.245-2.862.272-3.427-.886-.293-.955.684-1.645-.35-2.413-.745.927-.71 2.17-2.267 1.324-.964-.53-1.25-1.625-.768-2.546 1.004-1.584 2.763.05 3.852-.726.153-1.36-.35-2.546.9-3.3 1.068-.188 1.563.615 2.212 1.284"/><path fill="#fff" d="M90.602 210.893c-.502 2.316-2.247-.12-3.063-.216 1.087-1.932 1.77.628 3.062.216M96.036 213.414c-1.214.34-1.026-1.173-1.626-1.766l.468-.425c.44.53.774 1.487 1.158 2.19"/><path fill="#ff0" d="M94.397 212.944c.35.802-.79 1.445.18 2.03.308-.257.685-.614.846-.76.83.245 1.793.39 2.372 1.214.622 1.703-1.102 1.66-2.08 2.134l-.97-.04c.23-.476-.418-.678-.578-1.005-.447-.112-.817.027-1.068.404.215 1.083 1.534 1.926.173 2.89-1.15-.077-2.938.368-2.833-1.222-.433-.9 1.172-2.288-.544-2.343-.566 1.214-1.187 2.385-2.66 1.235l.182-1.73c1.41.04 3.078.285 3.713-1.29.406-1.145-.704-2.2.287-3.106 1.438-.328 2.247.635 2.98 1.59"/><path d="M93.365 215.546c.363.858-.614.914-1.075 1.34-.62.05-1.053-.196-1.43-.615-.28-1.038.495-1.143 1.088-1.554.69-.287.977.516 1.417.83"/><path fill="#fff" d="M92.517 216.107c-.154.203-.37.14-.6.196l-.217-1.04c.46.042 1.06.188.817.844"/></g></svg>