<svg xmlns="http://www.w3.org/2000/svg" height="480" width="640" version="1"><defs><clipPath id="a"><path fill-opacity=".67" d="M0 0h682.67v512H0z"/></clipPath></defs><g clip-path="url(#a)" transform="matrix(.9 0 0 .9 0 0)"><path d="M0 0h768v256H341.33L0 0z" fill-rule="evenodd" fill="#ed2939"/><path d="M0 512h768V256H341.33L0 512z" fill-rule="evenodd" fill="#002395"/><path d="M0 0l341.33 256L0 512V0z" fill-rule="evenodd" fill="#fff"/><path fill="#ff0" d="M172.318 193.168l.104-3.963s-2.128-3.39.342-7.033c0 0-5.248-2.776-4.026-7.123 0 0-4.746-1.214-4.397-6.433 0 0-5.12-.355-5.65-4.716 0 0-5.124.845-7.378-3.404 0 0-4.996.977-6.406-2.526 0 0-4.857 1.683-7.74-2.435 0 0-5.128 2.073-7.278-1.813-2.12 3.872-7.25 1.813-7.25 1.813-2.848 4.103-7.74 2.4-7.74 2.4-1.36 3.517-6.343 2.52-6.343 2.52-2.247 4.248-7.363 3.404-7.363 3.404-.502 4.346-5.617 4.7-5.617 4.7.404 5.233-4.334 6.42-4.334 6.42 1.25 4.347-3.99 7.116-3.99 7.116 2.532 3.663.425 7.026.425 7.026l-.12 3.655 84.776.392"/><path d="M377.17 843.11l.09-3.458s-1.855-2.958.3-6.136c0 0-4.578-2.422-3.513-6.215 0 0-4.14-1.058-3.835-5.612 0 0-4.468-.31-4.93-4.114 0 0-4.47.736-6.435-2.97 0 0-4.358.85-5.588-2.205 0 0-4.238 1.467-6.752-2.126 0 0-4.474 1.808-6.35-1.582-1.85 3.38-6.324 1.582-6.324 1.582-2.484 3.58-6.75 2.094-6.75 2.094-1.188 3.068-5.534 2.198-5.534 2.198-1.96 3.708-6.422 2.97-6.422 2.97-.44 3.794-4.9 4.103-4.9 4.103.352 4.565-3.78 5.6-3.78 5.6 1.09 3.793-3.483 6.21-3.483 6.21 2.21 3.195.372 6.13.372 6.13l-.104 3.19 73.95.34h-.013z" stroke="#000" stroke-width=".289" fill="none" transform="matrix(1.1 0 0 1.1 -260.1 -773.1)"/><path fill="red" d="M152.895 149.57c-12.777-1.28-27.488-4.313-38.844 2.082-7.613-4.487-18.213-4.212-27.24-3.334-4.9.877-10.665.877-15.788 1.714l-.804.113c-9.294.617-17.724-2.13-25.8-5.74 2.565 14.56 5.41 29.478 6.81 44.72 3.047 22.57-10.68 41.52-5.05 63.82 3.362 10.7 15.127 16.92 25.895 18.153 10.426.615 21.213 2.323 30.863 4.42 1.834.38 4.01 1.23 5.276 1.78 2.66 1.11 4.607 2.746 6.315 4.493 5.825-6.066 14.362-7.753 22.786-8.644 15.18-1.774 33.895-.81 43.19-14.563v-.777c5.048-7.607 4.38-19.21 2.19-27.83-.148-3.006-.952-5.657-1.387-8.523-9.274-24.494-1.333-52.042 2.658-76.73-4.874 2.664-10.312 3.923-15.735 5.256-4.327.575-9.148.314-13.527.08l-1.814-.49"/><path fill="#80cfe1" d="M171.97 219.87c-.06 1.613.81 2.88 1.124 4.372 1.774 10.707 3.49 24.89-7.533 31.532-12.193 7.754-28.183 4.433-42.292 8.537-2.82.785-6.703 3.377-8.685 5.21-1.272-.836-2.55-2.122-4.192-2.878-11.61-6.174-26.702-4.105-39.806-7.44-6.583-2.082-13.446-7.21-15.113-13.948-4.285-17.677 5.98-32.744 4.768-50.28-.783-13.392-3.033-26.248-6.127-38.803 10.246 4.774 22.105 5.57 33.623 3.282 8.53-1.193 18.46-1.22 26.456 2.39 4.405-1.895 9.56-2.746 14.31-3.268 9.025.878 18.727 2.51 28.022 2.445 6.208-.323 11.846-2.118 17.243-4.508-3.2 20.75-9.348 42.487-1.8 63.358"/><path fill="#fff" d="M153.544 224.006l-.1-19.513h2.404l-29.825-19.264-.053-10.012h2.88l-14.914-10.68-14.84 10.674h2.874l.054 10.003-29.664 19.24 2.37.012.1 19.5 78.707.053"/><path d="M153.544 224.006l-.1-19.513h2.404l-29.825-19.264-.053-10.012h2.88l-14.914-10.68-14.84 10.674h2.874l.054 10.003-29.664 19.24 2.37.012.1 19.5 78.707.053.006-.014z" stroke="#000" stroke-width="1.3662" fill="none"/><path fill="#fff" d="M162.718 249.636l.007 6.106-96.082-.107-.04-6.08 96.122.08"/><path d="M162.718 249.636l.007 6.106-96.082-.107-.04-6.08 96.122.08h-.006z" stroke="#000" stroke-width="1.3662" fill="none"/><path fill="#fff" d="M73.024 249.273l-.08-20.665 3.89-.007-.214 20.906.234-20.737-5.605-.162v-4.433l85.87.094.04 4.392h-5.297l.1 20.925-.187-20.925h3.944l.087 20.69"/><path d="M73.024 249.273l-.08-20.665 3.89-.007-.214 20.906.234-20.737-5.605-.162v-4.433l85.87.094.04 4.392h-5.297l.1 20.925-.187-20.925h3.944l.087 20.69" stroke="#000" stroke-width="1.3662" fill="none"/><path d="M91.482 244.18l-.06-14.41h-11.53l.067 14.396 11.522.014" stroke="#000" stroke-width="1.3662" fill="none"/><path d="M83.034 232.773l.033 8.37h5.277l-.027-8.37h-5.283M147.846 244.224l-.067-14.396-11.492-.013.054 14.41h11.504" stroke="#000" stroke-width="1.3662" fill="none"/><path d="M139.398 232.828l.06 8.343h5.27l-.047-8.342H139.4M147.758 220.76l-.067-14.41h-11.503l.04 14.41h11.537-.006z" stroke="#000" stroke-width="1.3662" fill="none"/><path d="M139.31 209.376l.033 8.357h5.27l-.006-8.357h-5.297M91.383 220.706l-.08-14.384-11.51-.014.053 14.39h11.537v.008z" stroke="#000" stroke-width="1.3662" fill="none"/><path d="M82.935 209.32l.027 8.345 5.283.013-.04-8.357h-5.27M112.25 220.728l-.054-14.384-11.517-.012.046 14.395h11.524" stroke="#000" stroke-width="1.3662" fill="none"/><path d="M103.813 209.343l.027 8.343 5.276.027-.033-8.37h-5.27M128.332 220.76l-.08-14.41-11.51-.013.053 14.396 11.537.027" stroke="#000" stroke-width="1.3662" fill="none"/><path d="M119.884 209.354l.04 8.37h5.277l-.026-8.37h-5.29" stroke="#000" stroke-width="1.3662" fill="none"/><path fill="#fff" d="M131.192 216.34l.127 33.218-33.367-.054-.12-33.19 33.352.025"/><path d="M131.192 216.34l.127 33.218-33.367-.054-.12-33.19 33.352.025h.007zM97.63 225.82l33.595.028M101.822 249.548l-.114-23.476M127.254 249.56l-.114-23.463M143.37 202.193l-18.79-13.72-21.112-.028-18.642 13.694 58.544.052M105.09 177.08l.032 8.37 17.76.014-.035-8.37-17.758-.014" stroke="#000" stroke-width="1.3662" fill="none"/><path d="M109.907 179.16l.027 4.17h8.156l-.027-4.17h-8.156M113.944 167.554l9.877 6.983-19.68-.026 9.804-6.956" stroke="#000" stroke-width="1.3662" fill="none"/><path fill="#fff" d="M153.874 162.824c2.806-.067 3.53 11.558 3.536 17.316 2.41.677 7.754 4.04 10.117 7.078l-27.106-.04c2.33-3 7.635-6.375 10.025-7.05 0-5.767.59-17.384 3.43-17.317"/><path d="M153.874 162.824c2.806-.067 3.53 11.558 3.536 17.316 2.41.677 7.754 4.04 10.117 7.078l-27.106-.04c2.33-3 7.635-6.375 10.025-7.05 0-5.767.59-17.384 3.43-17.317M99.39 217.263h2.432l-.71 1.305s1.172 1.507.02 3.234l.636 1.2h-2.344l.637-1.14s-1.198-2 .054-3.294l-.723-1.305M104.34 217.263h2.432l-.703 1.305s1.17 1.467.005 3.234l.63 1.2h-2.337l.63-1.14s-1.173-2 .06-3.294l-.717-1.305M109.753 217.263h2.424l-.723 1.305s1.185 1.507.02 3.234l.636 1.226-2.323-.026.622-1.14s-1.186-1.988.046-3.294l-.71-1.305h.007zM115.847 217.285h2.444l-.715 1.32s1.17 1.48.006 3.213l.657 1.22h-2.357l.63-1.14s-1.172-2.015.08-3.294l-.736-1.32h-.007zM121.27 217.285h2.424l-.717 1.32s1.18 1.48.014 3.207l.644 1.225h-2.337l.61-1.138s-1.18-2.003.093-3.296l-.73-1.32M126.66 217.296l2.424-.013-.717 1.32s1.2 1.48.034 3.213l.61 1.218h-2.343l.63-1.138s-1.173-2.002.08-3.294l-.717-1.306" stroke="#000" stroke-width="1.3662" fill="none"/><path fill="#ff0" d="M114.67 292.14c12.495.04 27.862-2.51 35.06-6.233l15.81-1.4.314 19.29c-13.392 7.386-44.314 8.973-51.118 8.92-6.81.053-38.114-1.56-51.567-8.972l.173-19.305 15.844 1.426c7.198 3.704 23.034 6.274 35.515 6.274h-.033"/><path d="M114.67 292.14c12.495.04 27.862-2.51 35.06-6.233l15.81-1.4.314 19.29c-13.392 7.386-44.314 8.973-51.118 8.92-6.81.053-38.114-1.56-51.567-8.972l.173-19.305 15.844 1.426c7.198 3.704 23.034 6.274 35.515 6.274h-.033" stroke="#000" stroke-width=".3179" fill="none"/><path fill="#ff0" d="M22.468 209.85l13.928 4.432-4.212 22.553L19 238.883s-2.223-11.86 3.468-29.047"/><path d="M22.468 209.85l13.928 4.432-4.212 22.553L19 238.883s-2.223-11.86 3.468-29.047v.013z" stroke="#000" stroke-width=".3179" fill="none"/><path fill="#7e7e7e" d="M32.18 236.59l-13.177 2.297 8.337-11.86 4.84 9.563"/><path d="M32.18 236.59l-13.177 2.297 8.337-11.86 4.84 9.563" stroke="#000" stroke-width=".3179" fill="none"/><path fill="#ff0" d="M14.14 226.096l13.427.97c.3 11.378 1.68 54.795 53.52 57.152l-1.613 15.796c-63.103.655-67.898-53.254-65.333-73.918"/><path d="M14.14 226.096l13.427.97c.3 11.378 1.68 54.795 53.52 57.152l-1.613 15.796c-63.103.655-67.898-53.254-65.333-73.918zM63.42 303.25l15.823-3.455" stroke="#000" stroke-width=".3179" fill="none"/><path fill="#ff0" d="M205.772 210.014l-13.874 4.393 4.4 22.52 13.21 2.12s2.123-11.85-3.736-29.046"/><path d="M205.772 210.014l-13.874 4.393 4.4 22.52 13.21 2.12s2.123-11.85-3.736-29.046v.014z" stroke="#000" stroke-width=".3179" fill="none"/><path fill="#7e7e7e" d="M196.29 236.69l13.21 2.37-8.45-11.865-4.76 9.494"/><path d="M196.29 236.69l13.21 2.37-8.45-11.865-4.76 9.494" stroke="#000" stroke-width=".3179" fill="none"/><path fill="#ff0" d="M214.253 226.272l-13.445.918c-.194 11.363-1.186 54.8-53.027 57.103l1.762 15.783c63.09.73 67.43-53.154 64.71-73.81"/><path d="M214.253 226.272l-13.445.918c-.194 11.363-1.186 54.8-53.027 57.103l1.762 15.783c63.09.73 67.43-53.154 64.71-73.81v.004zM165.644 303.327l-15.862-3.465" stroke="#000" stroke-width=".3179" fill="none"/><path fill="#009fc5" d="M106.277 301.644c-.355.228-.837.29-1.393.26l-2.504-.126.214-3.126 2.484.133c.49.033.878.128 1.12.274.5.26.722.743.675 1.412-.034.576-.234.952-.603 1.172m-4.205 4.922l.248-3.81 2.92.2c.943.075 1.647-.173 2.122-.656.495-.47.75-1.084.783-1.78.06-.81-.147-1.474-.63-1.963-.46-.47-1.117-.716-1.94-.796l-4.172-.26-.576 8.972 1.238.08M111.15 299.06l3.053.032c.442.04.79.094 1.045.215.47.22.69.663.69 1.305 0 .604-.174 1.006-.516 1.247-.328.22-.803.32-1.373.32l-2.934-.034.027-3.087m-.047 7.947l.027-3.83 2.866.04c.508 0 .883.04 1.144.168.422.194.63.603.65 1.165l.073 1.506c.02.362.027.583.047.73.04.107.06.22.114.302h1.54l-.027-.195c-.173-.093-.313-.274-.374-.55-.053-.173-.08-.434-.093-.762l-.027-1.198c-.02-.542-.114-.916-.322-1.125-.18-.24-.428-.448-.81-.576.43-.226.75-.487.985-.81.22-.354.333-.802.333-1.35 0-1.032-.422-1.736-1.28-2.117-.46-.207-1.05-.315-1.746-.328l-4.306-.04-.032 9h1.238M120.654 305.13c-.55-.668-.844-1.505-.91-2.496-.06-1.246.18-2.196.75-2.84.575-.696 1.318-1.03 2.29-1.084.977-.053 1.78.26 2.376.877.61.603.958 1.44 1.018 2.485.034 1.003-.14 1.894-.602 2.677-.456.797-1.212 1.245-2.33 1.272-1.166.06-2.036-.214-2.592-.89m-1.473-5.666c-.575.89-.81 1.922-.75 3.168.088 1.345.503 2.457 1.287 3.294.87.837 2.022 1.26 3.44 1.178 1.52-.067 2.666-.642 3.443-1.7.63-.957.93-2.07.864-3.442-.087-1.226-.442-2.223-1.105-2.967-.838-.997-2.063-1.44-3.724-1.372-1.567.1-2.72.676-3.462 1.84M161.464 286.52c.864-.148 1.614-.107 2.297.126 1.005.315 1.68 1.06 2.103 2.196l-1.238.175c-.268-.616-.65-1.038-1.166-1.273-.503-.22-1.132-.274-1.855-.166-.844.127-1.52.548-1.996 1.225-.47.722-.61 1.687-.403 2.92.175 1.017.55 1.88 1.166 2.456.57.59 1.406.796 2.497.642.817-.134 1.473-.46 1.935-1.024.482-.535.623-1.346.462-2.39l-2.886.442-.146-.99 4.018-.618.783 4.76-.797.12-.495-1.097c-.335.496-.67.878-.964 1.098-.497.39-1.167.637-2.004.758-1.084.168-2.075-.027-2.973-.603-.984-.73-1.62-1.814-1.86-3.32-.262-1.48-.028-2.746.655-3.744.65-.963 1.594-1.526 2.866-1.707M170.55 285.826l2.88-1.045c.394-.145.736-.193 1.03-.16.53.04.918.356 1.14.985.206.536.206 1.004-.028 1.333-.248.34-.636.59-1.198.796l-2.706.97-1.118-2.878m2.88 7.44l-1.407-3.61 2.68-.964c.5-.16.85-.248 1.11-.22.476.06.837.348 1.078.896l.61 1.373c.135.342.242.55.33.644.04.12.126.194.193.274l1.453-.535-.08-.194c-.215 0-.422-.122-.576-.357-.114-.166-.22-.407-.375-.69l-.476-1.124c-.215-.49-.436-.79-.69-.972-.255-.14-.576-.235-.958-.26.295-.343.51-.684.59-1.086.086-.408.046-.863-.148-1.372-.368-.958-1.045-1.48-1.995-1.547-.504-.04-1.08.067-1.742.3l-4.045 1.44 3.268 8.464 1.186-.435M183.96 288.807l-5.137-7.494 5.638-3.595.624.904-4.62 2.953 1.58 2.29 4.265-2.746.582.876-4.266 2.746 1.74 2.525 4.702-3.007.623.884-5.738 3.663M188.458 275.552l1.473-1.62c.684-.724 1.407-1.052 2.197-.958.79.067 1.594.482 2.45 1.232.236.18.443.415.657.676.375.49.596.92.737 1.346.12.537.095 1.026-.093 1.494-.114.234-.314.51-.616.837l-1.48 1.606-5.322-4.627m7.78 3.528c1.045-1.15 1.273-2.39.664-3.79-.355-.757-.897-1.494-1.647-2.136-.945-.837-1.93-1.266-2.967-1.346-1.152-.087-2.13.328-2.98 1.258l-2.51 2.692 6.923 6.04 2.512-2.704M201.603 272.087l-7.968-4.68.65-1.03 7.98 4.653-.655 1.07M204.727 266.653l-8.604-3.442 2.537-6.053 1.045.402-2.07 4.988 2.592 1.018 1.935-4.594.99.41-1.914 4.586 2.9 1.178 2.122-5.048 1.045.394-2.585 6.16M208.676 256.082l-9.053-2.002.3-1.4 8.365-2.825-7.346-1.62.268-1.1 9.053 1.95-.288 1.358-8.377 2.887 7.346 1.587-.26 1.165M207.96 244.587l.115-1.138c.522.013.964-.068 1.3-.248.655-.356 1.037-1.032 1.137-2.03.04-.468.02-.877-.087-1.266-.194-.75-.616-1.165-1.292-1.232-.502-.053-.864.067-1.125.343-.235.314-.482.77-.67 1.412l-.415 1.185c-.268.776-.516 1.31-.783 1.613-.43.563-1.032.757-1.802.703-.823-.086-1.493-.414-1.968-1.043-.49-.576-.69-1.4-.57-2.418.08-.93.39-1.715.938-2.344.51-.576 1.3-.85 2.31-.744l-.094 1.138c-.495 0-.89.087-1.178.288-.522.288-.81.897-.897 1.788-.075.737.025 1.232.307 1.608.28.315.636.515 1.05.548.443.04.79-.1 1.032-.44.173-.236.38-.745.662-1.57l.408-1.244c.2-.576.442-1.018.724-1.333.502-.522 1.158-.743 1.982-.682 1.004.107 1.72.522 2.09 1.286.36.77.5 1.62.414 2.583-.114 1.09-.47 1.95-1.125 2.525-.656.588-1.473.79-2.464.71M20.29 244.037l.208 1.124c-.503.102-.904.303-1.2.564-.528.495-.71 1.24-.528 2.25.08.428.234.85.43 1.186.4.683.923.957 1.586.85.488-.088.81-.274.964-.623.147-.342.254-.864.288-1.533l.06-1.266c.04-.784.127-1.4.3-1.74.276-.617.79-1 1.562-1.126.823-.148 1.546.04 2.17.51.63.434 1.044 1.19 1.198 2.195.194.918.107 1.742-.255 2.484-.348.725-1.018 1.166-2.042 1.354l-.2-1.138c.475-.174.83-.342 1.065-.576.4-.45.522-1.098.368-1.988-.12-.724-.368-1.193-.743-1.427-.37-.275-.737-.382-1.14-.314-.447.068-.742.315-.882.717-.087.267-.154.823-.215 1.674l-.06 1.313c-.033.616-.127 1.125-.335 1.474-.328.642-.884 1.037-1.694 1.164-1.024.175-1.815-.06-2.377-.715-.576-.643-.93-1.413-1.112-2.37-.2-1.14-.053-2.023.402-2.732.462-.73 1.192-1.152 2.183-1.293M19.718 255.906l8.852-2.665 2.063 6.234-1.078.342-1.688-5.123-2.692.81 1.56 4.735-1.03.328-1.547-4.747-3 .896 1.714 5.236-1.058.302-2.096-6.348M23.645 266.72l8.142-4.32.87 1.52-5.597 5.92 8.176-1.4.844 1.507-8.123 4.292-.576-1 4.796-2.523c.174-.1.442-.248.83-.455.382-.174.81-.41 1.24-.63l-8.144 1.386-.596-1.058 5.558-5.9-.268.135c-.174.1-.475.248-.884.482-.4.248-.703.4-.897.482l-4.78 2.563-.59-1.017M38.814 278.71c-.408-.094-.81-.33-1.205-.738l-1.722-1.774 2.317-2.123 1.734 1.77c.334.327.548.648.662.923.16.528 0 1.01-.49 1.466-.44.408-.883.575-1.298.475m-6.542.823l2.84-2.605 2.015 2.042c.65.663 1.312.964 2.008.952.71-.04 1.32-.302 1.855-.81.603-.537.89-1.166.89-1.842-.006-.657-.307-1.272-.863-1.848l-2.893-2.954-6.736 6.187.87.878M40.398 286.76l4.88-7.653 5.774 3.51-.603.91-4.742-2.84-1.466 2.318 4.36 2.645-.564.877-4.366-2.63-1.66 2.59 4.8 2.886-.575.904-5.84-3.516M54.84 285.287l2.934.93c.415.128.716.29.917.47.376.355.477.863.256 1.48-.18.535-.456.883-.884 1.03-.382.068-.864.068-1.426-.107l-2.766-.883.97-2.92m-2.53 7.52l1.22-3.65 2.73.89c.49.13.844.303 1.018.483.335.3.436.75.268 1.306l-.408 1.453c-.094.354-.14.588-.18.695 0 .115 0 .235.02.315l1.44.47.086-.21c-.154-.12-.24-.34-.235-.614.033-.168.08-.436.174-.744l.348-1.165c.14-.51.194-.89.067-1.165-.108-.288-.29-.55-.59-.797.455-.08.85-.22 1.185-.47.314-.274.582-.655.743-1.19.328-.972.147-1.782-.576-2.398-.36-.32-.877-.596-1.553-.85l-4.1-1.265-2.865 8.536 1.198.37"/><path fill="#bc715f" d="M64.752 137.436c1.058-2.552 10.86-9.51 43.03-6.462 0 0 5.436 3.32 8.63 2.893 1.82-.235-1.07.113-3.45-1.862-2.422-1.975-2.938-6.026 2.6-5.92 5.51.142 26.14 1.307 26.53 3.16.36 1.876-10.91 2.66-15.1 2.552-4.212-.113-3.723 2.016.468 1.856 13.098-.47 27.394-5.083 42.493 5.598 1.802 1.3-4.553 1.506-9.468-.583 0 0-13.32.69-19.077-.253 0 0-4.426 3.6-10.192 3.247.75 1.87-2.13 8.84-20.255 3.596-2.992.918-13.9 2.746-12.708-.495-2.873 0-7.908.926-8.658-.71-.724-1.605 8.865-4.037 10.546-5.777 0 0-20.283.194-24.126-1.206 0 0-11.966 2.685-11.263.356"/><path fill="#008737" d="M71.253 165.838c.435-.59.61-1.647 1.533-1.62 2.01.535 3.375 4.21 5.846 1.828.877-.195 1.212.998 1.935 1.14.462 2.04 2.103-.417 3.328-.277 2.618-1.166 5.86-1.44 8.96-.864.093 2.002-1.474 4.21-3.442 5.35.04 2.016 1.868 3.308 1.834 5.336-.314.758-.053 1.95-1.198 2.197-1.454-.262-2.887-.416-4.093-1.227-.147-.147-.267-.435-.575-.34-.148.675.91 1.345 1.325 2.034-.73 1.246-1.94.108-2.96.12-.3.717-.013 1.62-.75 2.084-1.285-.04-1.546-1.44-2.336-2.136-.81.878.57 1.4.764 2.096-.495 2.638-.428 5.216-3.067 6.944l-1.767.878c-.483-1.326-.18-3.335-.503-4.72-1.044 1.7-1.86 3.187-3.395 4.626-1.794-.59-2.84-2.706-3.234-4.46-.75-2.042-.32-4.486 1.293-5.966-.548-1.072-2.43-.824-2.698-2.35-2.82-1.835-4.38 3.214-6.2.59-.59-2.45.113-5.5 1.888-7.327-.395-1.004-1.708-.742-2.484-1.318-1.775-1.508-4.333-3.1-4.206-5.82 4.855-1.834 10.66-.488 14.19 3.2"/><path fill="#ff0" d="M73.772 165.563c-.114 2.222 1.5.602 2.7 1.948-.94-.367-1.622 1.62-2.54.483l-.575.55c.335.762.984.863.308 1.7-1.005.382-1.205-.877-1.674-1.373-.08-.22.155-.636-.213-.783-.57.482-1.165.656-1.95.576-.213-.43-.628-.99-.206-1.32.77-1.037 1.962.375 2.545-.354.094-.644-.47-1.427.26-1.87.503.087 1.146-.186 1.354.443M79.778 167.39c.06.428-.22 1.03.34 1.332.73-.396 1.508-.094 1.93.63-.007.387.114.896-.395 1.084l-1.138-.214c.08-.222-.282-.36-.422-.576-.502-.154-.797.254-1.172.502.282.428.932.663.778 1.212-.67.67-.998-.575-1.735-.26-.502-.195.18-1.24-.61-1.554-.936 0-.314 1.54-1.512.937-.428-.483-.85-1.13-.388-1.674.503-.336 1.353-.25 1.782.186.73-.81.803-3.937 2.55-1.607M72.298 170.612c.49.704-.107 1.66.516 2.444.977-1.827 1.92.395 3.087.22.355.436.12 1.04.188 1.534-1.44.382-3.174.837-4.446-.314l-.355.408c.757.704 1.473 1.5.87 2.68-1.078.233-2.745.26-3.287-.852-.282-.917.656-1.58-.335-2.317-.717.89-.683 2.084-2.176 1.273-.925-.51-1.2-1.56-.738-2.444.964-1.52 2.652.047 3.696-.697.148-1.306-.335-2.444.864-3.166 1.025-.18 1.5.59 2.123 1.232"/><path fill="#fff" d="M76.38 171.415c-.483 2.223-2.157-.114-2.94-.208 1.044-1.854 1.7.604 2.94.208M81.593 173.835c-1.165.327-.984-1.126-1.56-1.695l.448-.408c.423.51.745 1.427 1.113 2.103"/><path fill="#ff0" d="M80.02 173.384c.335.77-.757 1.387.174 1.95.295-.25.656-.59.81-.73.797.234 1.72.374 2.277 1.164.597 1.634-1.057 1.593-1.994 2.05l-.93-.04c.22-.457-.403-.65-.557-.965-.43-.107-.784.026-1.025.388.207 1.04 1.473 1.85.167 2.773-1.105-.073-2.82.355-2.72-1.172-.414-.863 1.126-2.195-.52-2.248-.543 1.165-1.14 2.29-2.552 1.185l.174-1.66c1.352.04 2.953.273 3.562-1.24.39-1.097-.676-2.11.275-2.98 1.38-.314 2.157.61 2.86 1.527"/><path d="M79.03 175.88c.348.825-.59.88-1.03 1.287-.597.047-1.012-.188-1.374-.59-.268-.997.476-1.098 1.045-1.492.664-.275.938.495 1.36.796"/><path fill="#fff" d="M78.216 176.42c-.147.194-.355.135-.576.187l-.207-.997c.442.04 1.017.18.783.81"/></g></svg>