<svg xmlns="http://www.w3.org/2000/svg" height="480" width="640"><defs><clipPath id="a"><path fill-opacity=".67" d="M-85.333 0h682.67v512h-682.67z"/></clipPath></defs><g clip-path="url(#a)" transform="matrix(.938 0 0 .938 80 0)"><path fill-rule="evenodd" fill="#3e5eb9" d="M-128 0h768v512h-768z"/><path fill-rule="evenodd" fill="#ffd900" d="M-128 91.43h768v329.14h-768z"/><path fill-rule="evenodd" fill="#b10c0c" d="M-128 128h768v256h-768z"/><rect fill-rule="evenodd" rx="5.767" ry="5.851" height="10.971" width="621.71" stroke="#000" y="250.51" x="-51.439" stroke-width="1.474" fill="#ffd900"/><g stroke="#000" transform="matrix(1.032 0 0 1.032 -757.03 -25.6)"><rect fill-rule="evenodd" rx="4.108" ry="3.78" height="7.087" width="442.91" y="223.23" x="761.81" stroke-width="1.333" fill="#ffd900"/><path d="M1194.088 230.314c1.77 0 3.545-1.772 3.545-3.543s-1.775-3.543-3.545-3.543" stroke-width="1.3335" fill="none"/><path d="M1190.588 230.314c1.77 0 3.545-1.772 3.545-3.543s-1.775-3.543-3.545-3.543M1186.988 230.315c1.77 0 3.545-1.772 3.545-3.543s-1.775-3.544-3.545-3.544" stroke-width="1.3335" fill="none"/></g><g stroke="#000" transform="matrix(1.032 0 0 1.032 -786.29 -3.657)"><rect fill-rule="evenodd" rx="4.108" ry="3.78" height="7.087" width="442.91" y="223.23" x="761.81" stroke-width="1.333" fill="#ffd900"/><path d="M1194.088 230.314c1.77 0 3.545-1.772 3.545-3.543s-1.775-3.543-3.545-3.543" stroke-width="1.3335" fill="none"/><path d="M1190.588 230.314c1.77 0 3.545-1.772 3.545-3.543s-1.775-3.543-3.545-3.543M1186.988 230.315c1.77 0 3.545-1.772 3.545-3.543s-1.775-3.544-3.545-3.544" stroke-width="1.3335" fill="none"/></g><g fill-rule="evenodd"><path d="M338.07-.416c-5.57 12.442 4.275-4.138 28.3 16.69 4.45 3.87 8.34 14.09 8.34 21.178-1.13-.975-1.968-3.145-3.213-4.553-1.743 2.252 1.664 12.576 2.162 17.456-3.757-2.71-3.395-3.993-4.643-7.324.25 4.026-.645 15.116.85 19.386-2.96-1.09-2.765-4.163-4.31-4.78 1.05 4.834-.917 10.094-.395 15.528-1.73-2.208-3.573-3.937-4.376-4.83-.135 2.59-3.327 9.39-3.4 11.836-1.468-1.143-1.866-2.926-2.11-4.126-1.825 2.955-8.31 13.872-8.725 17.202-4.995-5.69-17.792-19.545-19.458-26.9-1.473 4.176-3.604 5.584-7.817 8.632-1.665-11.656-7.89-24.756-4.56-34.747-2.36 1.804-4.303 3.608-6.66 5.828C310.287 29.18 321.68 9.388 338.07-.415z" transform="matrix(.994 0 0 .771 190.372 251.967)" stroke="#000" stroke-width="1.422" fill="#3d5da7"/><path d="M505.783 299.228c2.308-4.603 4.428-6.063 5.92-9.026 2.633-5.21 3.013-9.355 5.3-8.747 2.288.608 2.282 2.742-.69 7.864-2.97 5.12-4.38 6.215-10.53 9.908zM521.36 310.036c-.29-3.495.73-4.954.547-7.206-.31-3.96-1.927-6.68.18-6.872 2.11-.193 3.094 1.158 3.094 5.15 0 3.99-.62 5.04-3.82 8.928zM533.138 316.884c-.914-4.88-.22-7.045-.806-10.19-1.018-5.532-3.043-9.173-1.088-9.68 1.954-.506 3.13 1.283 3.862 6.893.732 5.61.34 7.152-1.968 12.977zM545.58 282.825c-2.888-2.195-4.572-2.344-6.434-3.755-3.28-2.476-4.942-5.123-5.994-3.81-1.052 1.313-.302 2.75 3.135 5.034 3.437 2.283 4.6 2.465 9.294 2.53zM543.498 299.04c-1.522-3.16-3.12-3.963-4.104-5.997-1.74-3.573-1.747-6.665-3.63-5.873-1.88.79-2.03 2.41-.012 5.87 2.017 3.458 3.072 4.084 7.746 6z" fill="#a70000"/></g><g fill-rule="evenodd"><path d="M329.6 20.703c-.272-2.662.253-2.98-1.258-4.99 2.2.998 2.284 3.65 4.96 1.768.982-.55 1.41-.568.216-3.525 2.79.14 11.927 3.535 13.39 3.614 3.842.19 10.855-4.374 15.723 1.238 4.673 5.118 3.113 10.43 3.113 17.516-1.877-.975-.973-1.455-2.965-3.99 1.494 6.196-.08 17.365-.08 23.935-.767-1.585-.654-.897-1.404-2.538-1.992 5.997-4.38 7.23-4.38 14.318-.72-2.78-.025-2.19-.825-3.653-1.937 4.552-14.926 8.443-9.92 13.033-4.52-2.87-6.5-2.57-8.55-5.15-.88.617-1.583 1.785-2.403 3.386-7.943-3.96-5.103-12.5-11.326-18.206-1.076 2.393-.585 2.045-1.75 5.94-1.26-5.41-1.603-8.845-3.02-12.82-1.223 2.203-1.113 1.36-3.333 4.69-.918-6.588-2.413-8.143-1.822-12.502-2.36 1.804-.815 1.073-3.173 3.293 2.234-16.88 11.884-29.35 18.808-25.357z" transform="matrix(1.137 0 0 1.049 -399.332 239.172)" stroke="#000" stroke-width="1.422" fill="#3d5da7"/><path d="M-35.8 289.804c2.335-5.704 4.435-7.495 5.943-11.167 2.665-6.454 3.105-11.612 5.335-10.826 2.23.788 2.188 3.445-.805 9.787-2.994 6.34-4.393 7.685-10.474 12.207zM-26.842 304.13c.928-5.12 2.4-6.983 3.002-10.28 1.07-5.795.465-10.11 2.54-9.883 2.075.227 2.547 2.414 1.172 8.18-1.375 5.765-2.326 7.13-6.714 11.982zM-16.27 314.124c.256-4.966 1.415-6.906 1.585-10.104.308-5.626-.78-9.653 1.2-9.677 1.978-.024 2.684 1.998 2.086 7.63-.598 5.633-1.328 7.04-4.87 12.15zM6.153 281.57c-4.318-4.313-6.93-5.117-9.716-7.89-4.907-4.87-7.275-9.442-9.026-7.82-1.75 1.62-.703 4.05 4.464 8.685 5.167 4.634 6.965 5.308 14.28 7.024zM3.677 298.245c-2.822-4.33-4.89-5.45-6.712-8.238-3.212-4.895-4.318-9.103-6.137-8.06-1.82 1.04-1.41 3.24 2.07 7.986 3.482 4.746 4.88 5.618 10.78 8.312z" fill="#a70000"/></g><g fill-rule="evenodd"><path d="M637.8 230.32c-53.15 59.05-124.02 177.16-265.75 177.16-124.02 0-212.6-118.11-265.75-177.16 53.15-59.06 141.73-177.17 265.75-177.17 141.73 0 212.6 118.11 265.75 177.17z" transform="matrix(.688 0 0 .619 -.011 113.355)" stroke="#000" stroke-width="2.108" fill="#fff"/><path d="M243.21 184.415c9.727 10.938 1.604 15.348 11.9 16.066 10.86.798 4.705 11.56 13.84 11.933 6.386.278-.638 25.782 5.51 34.198 6.262 8.774 11.507 2.57 11.617 8.91.11 6.555-17.044 5.894-17.345 26.088-.503 11.638-14.474 12.383-15.14 19.87-.83 7.044 27.524 10.998 27.147 17.303-.39 6.287-30.618 5.303-31.934 12.472-.675 6.438 41.527 11.716 44.92 30.34-6.297 2.057-24.213 3.995-37.755 4.006-85.318.068-146.268-73.11-182.835-109.662 36.567-36.558 97.51-109.668 182.836-109.668 0 0-25.327 23.134-12.76 38.147z"/><g stroke-width="1pt" fill="#fff"><path d="M141.342 216.99h8.858v29.23h-8.858zM141.342 265.71h8.858v29.232h-8.858zM159.057 216.99h8.858v29.23h-8.858zM159.057 265.71h8.858v29.232h-8.858zM176.772 216.99h8.858v29.23h-8.858zM176.772 265.71h8.858v29.232h-8.858zM194.492 216.99h8.858v29.23h-8.858zM194.492 265.71h8.858v29.232h-8.858zM212.207 216.99h8.858v29.23h-8.858zM212.207 265.71h8.858v29.232h-8.858zM229.922 216.99h8.858v29.23h-8.858zM229.922 265.71h8.858v29.232h-8.858z"/></g><g stroke-width="1pt"><path d="M275.433 216.99h8.858v29.23h-8.857zM275.433 265.71h8.858v29.232h-8.857zM293.148 216.99h8.858v29.23h-8.858zM293.148 265.71h8.858v29.232h-8.858zM310.863 216.99h8.858v29.23h-8.857zM310.863 265.71h8.858v29.232h-8.857zM328.583 216.99h8.858v29.23h-8.857zM328.583 265.71h8.858v29.232h-8.857zM346.298 216.99h8.858v29.23h-8.858zM346.298 265.71h8.858v29.232h-8.858zM364.013 216.99h8.86v29.23h-8.86zM364.013 265.71h8.86v29.232h-8.86z"/></g></g><g fill-rule="evenodd"><path d="M338.07-.416c-5.57 12.442 9.754-4.138 33.778 16.69 4.452 3.87 10.833 19.16 10.833 26.246-5.114-1.257-14.172-7.087-14.172-7.087s10.63 12.295 10.63 26.468c-3.756-2.71-5.635-2.303-6.883-5.633 0 4.588 3.34 7.512 3.34 14.6-2.71-2.5-5.006-4.164-7.3-5.626 3.543 7.087-6.457 20.835-1.452 25.424-8.752-1.462-17.707-7.92-21.25-15.006-1.878 1.462-2.082 3.756-2.155 6.203.276.265-13.322-11.655-12.073-16.234-1.824 2.955-2.08 4.58-2.497 7.91-4.996-5.69-9.574-11.38-11.24-18.734-2.22 3.33-2.36 3.33-4.58 6.66-1.664-11.655-1.664-11.24 1.666-21.23-2.36 1.804-4.302 3.608-6.66 5.828 2.234-16.88 13.628-36.674 30.016-46.477z" transform="matrix(.909 0 0 .788 -110.558 166.096)" stroke="#000" stroke-width="1.422" fill="#3d5da7"/><path d="M184.47 213.623c.803-6.75 2.566-9.293 3.09-13.64.93-7.644-.194-13.23 2.518-13.09 2.712.14 3.497 2.96 2.166 10.588-1.33 7.628-2.458 9.482-7.773 16.143zM198.4 226c-.54-5.697.515-8.122.173-11.792-.59-6.457-2.576-10.832-.216-11.233 2.36-.4 3.55 1.767 3.793 8.286.244 6.52-.39 8.257-3.75 14.74zM220.733 236.053c-2.41-4.926-4.476-6.395-6.033-9.566-2.748-5.573-3.325-10.124-5.44-9.3-2.112.826-1.993 3.18 1.067 8.636 3.06 5.455 4.44 6.567 10.406 10.23zM228.32 192.037c-6.123-3.225-9.266-3.27-13.212-5.34-6.948-3.634-10.993-7.735-12.427-5.482-1.432 2.254.485 4.498 7.648 7.802 7.162 3.304 9.363 3.462 17.992 3.02zM230.335 210.47c-4.444-3.71-7.073-4.26-9.938-6.645-5.05-4.19-7.56-8.302-9.25-6.637-1.69 1.665-.563 3.867 4.737 7.814s7.112 4.438 14.45 5.468z" fill="#a70000"/></g></g></svg>