<svg xmlns="http://www.w3.org/2000/svg" height="480" width="640" version="1"><path d="M640 480V0H0v480h640z" fill="#006"/><path fill-rule="evenodd" fill="#006" d="M0 0h373.68v232.168H0z"/><g stroke-width="1pt"><path d="M0 0v25.957l331.9 206.21h41.78V206.21L41.776 0H0zm373.68 0v25.956L41.776 232.166H0V206.21L331.9 0h41.78z" fill="#fff"/><path d="M155.7 0v232.167h62.28V0H155.7zM0 77.39v77.388h373.68v-77.39H0z" fill="#fff"/><path d="M0 92.867V139.3h373.68V92.867H0zM168.155 0v232.167h37.368V0h-37.368zM0 232.167l124.56-77.39h27.85l-124.558 77.39H0zM0 0l124.56 77.39H96.708L0 17.304V0zm221.267 77.39L345.827 0h27.852L249.12 77.39h-27.853zM373.68 232.166l-124.56-77.39h27.85l96.71 60.085v17.305z" fill="#c00"/></g><g><path d="M612.54 212.442v79.91c0 65.607-25.77 125.663-102.217 162.17-76.416-36.507-102.19-96.56-102.19-162.17v-79.91H612.58z" fill-opacity=".996" fill="#fff"/><path d="M605.69 220.585v74.535c0 61.192-24.035 117.21-95.34 151.256-71.306-34.048-95.34-90.063-95.34-151.256v-74.535H605.7z" fill-opacity=".996" fill="#fdc300"/><g stroke="#000" stroke-width=".091"><path d="M205.96 52.847c-.353-.265-.736-.427-1.265-.44.117-1.296-.824-1.855-1.5-2.09-.677-.236-.913-.5-1.03-1.03-.118-.53-.47-.853-1.09-1.03-.617-.176-1.147-.794-1.382-1.088-.235-.296-.324-.237-.5.263-.177.5-.883 1.442-.236 1.472-.47.382-.735.823-.44 1.412-.325.265-.56.647-.12.794.443.148.56.266.59.384-.397 0-.5.794.44.97-.205.03-.293.677.09.677-.53 0-.972.796-1.648.796-.678 0-1.03.147-1.06.44-.03.295-.383.648-.56.795.5.06.824 0 1.09-.205s.705-.264 1-.03c.294.236.912.354 1.206.295-.647.442-1.118 1.03-1.177 1.59-.06.558-.442 1.205-.884 1.382-.44.176-1.03.647-1.235 1.206.56 1.383 1.353 1.725 2.148 2.09 1.413.646 2.295 1.117 2.884 1.764.588.648.824.177 1.706 1.295.883 1.118 1.707 3.236 2.59 3.59.882.353 2 .117 2.647-1 .648-1.12 1.06-12.417-2.265-14.3z" fill="#ff9e3d" transform="matrix(3.9 0 0 3.9 -339.1 46.7)"/><path d="M469.994 234.442c-3.214 3.443-7.348 6.885-6.657 13.08s1.376 16.296-4.36 19.738c-5.737 3.442-8.49 12.163-1.607 17.212 6.883 5.05 7.113 11.245 8.26 16.983 1.15 5.737 4.134 10.326 8.724 6.425 4.587.69 7.114-1.147 7.114-4.82s.23-5.736 3.67-6.884c3.443-1.147 4.36-2.295 5.967-5.393 1.606-3.098 2.523-4.475 1.606-6.31-.915-1.837-1.262-5.624-.572-8.378.69-2.754-.916-4.245-1.837-5.966-.915-1.722-1.258-3.214-.802-5.51.46-2.294-.687-3.786-2.293-4.934-1.607-1.147-2.297-2.294-1.95-4.13.343-1.836-1.15-2.984-2.87-4.36s-2.984-3.213-2.984-5.967c0-2.755-5.276-9.18-9.406-10.788z" fill="#ff927f" stroke-width=".3549"/><path d="M471.28 309.373c7.688-1.95 7-14.573 5.855-19.85-1.15-5.28-4.1-12.84-1.837-18.82 3.214-8.49-3.904-16.523-2.067-19.736 1.838-3.213 1.608-4.934 1.378-5.967-.227-1.033-1.95-1.836-2.063.344-.117 2.18-.69 2.983-2.067 4.36s-1.034 4.36 0 7.688c1.033 3.328 3.213 8.377-.23 15.032-3.44 6.656-2.025 9.62-.687 12.737 2.064 4.82 7.002 21.574 1.72 24.213z" fill="#ff9ee1" stroke-width=".3549"/><path d="M436.844 237.426c.862 0 2.527-.345 2.527.803M435.128 242.932c1.034-.746 2.87.115 4.703-.975M436.96 247.523c1.378 0 3.215-.058 4.935-1.435M438.677 251.31c1.264 0 3.615-.803 4.19-2.467M439.028 253.95c2.465-.115 5.737.803 6.193-.057M439.145 262.097c1.72-1.606 5.795-2.696 6.712-4.36M443.513 236.51c2.866.918 1.68 2.69 3.097 3.786 2.527 1.95.23 4.13 2.297 4.705 2.063.574 2.028.923 1.49 3.213-.632 2.697 1.95 2.812 1.033 4.59M459.23 251.083c-1.147 0-4.532.115-5.967 3.156M434.738 284.187c1.322.23 1.98-.522 2.352-1.262.4-.804.573-1.378 1.778-1.435 1.205-.058 3.042-.402 3.444-1.32.4-.917 1.837-.057 3.042-2.467 1.205-2.41 2.008-5.278 5.218-6.31" fill="none" stroke-width=".3549"/></g><g stroke="#000" stroke-width=".091"><path d="M221.76 73.75c.333.484-.012 1.007.553 1.216.662.245.084 1.116.865 1.422.692.273.005 1.105.753 1.48.67.333-.11 1.114.782 1.56.892.447-.168 1.45.502 1.84.67.392-.223 1.396.558 1.787.78.39-.335 1.17.39 1.73.725.557-.167 1.393.558 1.895s-.445 1.173.28 1.897c.557.558-.202 1.104.222 1.953.28.557-.28 2.79-1.84 2.566-.56.948-2.734 1.785-3.515 1.506-.78.558-3.29 1.34-4.575.11-1.282 1.23-3.793.448-4.574-.11-.78.28-2.956-.558-3.514-1.506-1.562.223-2.12-2.01-1.84-2.566.423-.85-.336-1.395.222-1.953.724-.724-.446-1.394.28-1.897s-.168-1.338.557-1.896c.725-.558-.39-1.34.39-1.73.78-.39-.11-1.394.558-1.785.67-.39-.39-1.395.503-1.84.893-.448.112-1.23.78-1.563.75-.374.062-1.206.754-1.48.78-.305.203-1.176.865-1.42.574-.214.208-.75.57-1.24 1.66.653 6.803 1.122 8.918.023z" fill="#00a728" transform="matrix(3.9 0 0 3.9 -339.1 46.7)"/><g fill-opacity=".996" fill="#fdc300"><path d="M493.59 345.705c.003.977-.02 1.95-.925 3.155-1.958 2.61.87 3.916-1.307 6.744-2.172 2.828.437 4.57-1.958 6.962-2.39 2.393.437 4.57-1.957 7.18-2.39 2.61.436 4.35-1.958 6.743-2.39 2.393.437 5.004-1.958 7.396-2.39 2.394.437 5.44-2.176 8.268-2.608 2.828.438 5.003-1.74 7.18-2.175 2.174-.217 4.35-1.738 5.873 2.61-1.958 2.61-5.004 4.567-6.527 1.957-1.523-.652-3.698.436-4.786s.218-5.657 2.176-7.832c1.958-2.176.218-6.527 1.958-8.05s.433-6.09 2.61-7.614 0-5.22 1.738-7.18c1.743-1.957 0-5.003 1.743-7.396 1.74-2.393.08-4.566 1.304-6.527.546-.87.546-7.18-.815-3.59zM499.868 348.423c-1.52 2.83 1.088 3.48-.87 6.31s1.088 5.003-1.088 7.832 1.088 4.35-.87 7.18c-1.957 2.827.87 4.35-.87 6.526-1.743 2.176 1.303 4.352-.87 6.962-2.175 2.61.87 4.57-.873 6.962-1.74 2.393.656 5.004-.87 6.962-1.52 1.958 1.09 4.786-1.087 7.397s.436 4.35-.87 6.09c2.613-.87 1.634-4.46 2.613-5.22.98-.762-.328-5.765 1.193-7.07 1.525-1.306-.98-5.333.437-7.07 2.395-2.938.328-4.896 1.74-7.18 1.415-2.285-.54-5.217.546-6.745 1.847-2.61-.82-4.964.54-6.853 1.958-2.72-.378-4.96.98-6.744 2.067-2.718-.22-5.438.655-6.852.87-1.414 2.28-7.506-.437-8.484zM508.33 350.8c-1.52 3.79 1.09 5.306.22 8.338-.87 3.033 1.087 5.307-.22 8.592-1.302 3.285 1.744 5.812 0 10.108-1.738 4.297 1.124 5.366 0 9.603-1.302 4.93 2.177 7.54 0 11.022-2.17 3.48 2.493 4.633.22 8.266-1.09 1.74.11 6.2 1.848.87 1.743-5.33-1.303-5.982.218-8.157 1.525-2.175-.542-7.94.11-10.986.655-3.046-1.52-7.18-.11-10.443 1.416-3.262-2.176-6.743-.76-9.57 1.416-2.83-.65-6.31.65-8.595 1.308-2.284-.978-5.33-.432-6.635.542-1.305-.546-6.128-1.743-2.41z" stroke-width=".3549"/></g><path d="M524.633 336.89c0-24.582-3.48-33.067-16.318-33.067-12.835 0-16.313 8.485-16.313 33.068h32.63z" fill="#ef072d" stroke-width=".3549"/><g fill="none"><path d="M496.787 334.933c-2.395 2.393.437 4.134-1.958 6.962-2.395 2.83-.22 4.35-2.177 6.962s.87 3.916-1.306 6.744c-2.173 2.83.436 4.57-1.958 6.963-2.392 2.393.435 4.57-1.96 7.18-2.39 2.61.438 4.35-1.957 6.743-2.39 2.394.437 5.004-1.958 7.397-2.39 2.394.437 5.44-2.176 8.268-2.61 2.83.436 5.004-1.74 7.18-2.177 2.175-.22 4.35-1.74 5.874-1.525 1.523-1.74 3.644-1.088 4.568M501.35 335.803c-2.172 2.828 1.088 4.134-.87 6.527-1.958 2.393.87 3.263-.65 6.092s1.087 3.48-.87 6.31 1.087 5.002-1.09 7.83 1.09 4.35-.87 7.18c-1.956 2.828.87 4.35-.868 6.527-1.744 2.174 1.302 4.35-.87 6.96-2.176 2.61.87 4.57-.874 6.962-1.74 2.393.656 5.004-.87 6.962-1.52 1.958 1.09 4.786-1.087 7.397s.437 4.352-.87 6.093c-1.306 1.74-2.335 4.296-1.087 5.003M508.33 338.416c-1.083 4.55 1.526 8.592 0 12.383-1.52 3.79 1.09 5.306.22 8.338-.87 3.033 1.087 5.307-.22 8.592-1.302 3.285 1.744 5.812 0 10.108-1.738 4.297 1.124 5.366 0 9.603-1.302 4.93 2.177 7.54 0 11.022-2.17 3.48 1.963 4.35.22 8.266-1.74 3.917 1.087 5.44-.22 9.356M519.875 334.933c2.395 2.393-.437 4.134 1.958 6.962 2.394 2.83.218 4.35 2.176 6.962s-.87 3.916 1.306 6.744c2.172 2.83-.437 4.57 1.957 6.963 2.39 2.393-.436 4.57 1.958 7.18 2.392 2.61-.436 4.35 1.96 6.743 2.39 2.394-.438 5.004 1.957 7.397 2.39 2.394-.437 5.44 2.176 8.268 2.61 2.83-.437 5.004 1.74 7.18 2.176 2.175.218 4.35 1.74 5.874 1.524 1.523 1.742 3.644 1.087 4.568M515.312 335.803c2.172 2.828-1.088 4.134.87 6.527 1.957 2.393-.87 3.263.65 6.092 1.526 2.828-1.087 3.48.87 6.31s-1.087 5.002 1.09 7.83-1.09 4.35.868 7.18c1.958 2.828-.87 4.35.87 6.527 1.743 2.174-1.302 4.35.874 6.96 2.172 2.61-.874 4.57.87 6.962 1.74 2.393-.656 5.004.87 6.962 1.52 1.958-1.09 4.786 1.087 7.397s-.436 4.352.87 6.093c1.307 1.74 2.34 4.296 1.09 5.003" stroke-width=".3549"/></g><path d="M492.03 336.89c0-24.582 3.478-33.067 16.313-33.067-5.874 0-9.462 4.568-10.44 7.614s-.437 2.828.87 1.632.65 1.413-.434 2.827c-1.09 1.414-2.177 5.44-.656 4.134 1.525-1.305 2.718.218 1.088 2.503s-3.046 7.614-1.416 5.765c1.635-1.85 1.958 1.196.983 2.72-.984 1.522-.874 2.827 0 2.175.87-.653.76 2.502-.11 3.698h-6.2zM522.137 335.48c0-19.254-2.39-25.02-7.176-26.977-2.71-1.11-2.788-.87-1.493.87s1.096 4.242-.1 2.502c-1.194-1.74-1.592-2.067-2.09-1.305-.5.76 1.39 4.35 2.787 7.614 1.123 2.625.398 3.916-1.295 1.305s-1.693-.247-.207 1.957c1.907 2.828 1.848 11.422 1.848 15.01l7.727-.978z" stroke-width=".3549"/><path d="M508.33 340.483c5.114 0 10.71-.91 14.47-2.37 4.462-1.733 4.7-3.254 3.155-5.197-1.088-1.368-3.483-.547-5.764.455-2.285 1.004-8.595 1.643-11.86 1.643-3.26 0-9.57-.64-11.855-1.642-2.282-1-4.676-1.822-5.764-.454-1.544 1.943-1.306 3.464 3.156 5.196 3.756 1.46 9.356 2.37 14.465 2.37z" fill="#ef072d" stroke-width=".3549"/></g><g fill-rule="evenodd" fill="#b95a1e"><path d="M779.41 912.6s-.12 103.6 0 179.24c.12 75.63 19.822 104.91 54.262 103.59 34.44-1.33 41.108-58.83 34.53-92.08-6.576-33.26-53.24-198.97-53.24-198.97l-35.552 8.222z" transform="matrix(.1 0 0 .1 489 284.2)" stroke="#000" stroke-width="6.377"/><path d="M779.41 912.6s-.12 103.6 0 179.24c.12 75.63 19.822 104.91 54.262 103.59 34.44-1.33 41.108-58.83 34.53-92.08-6.576-33.26-53.24-198.97-53.24-198.97l-35.552 8.222z" transform="matrix(.1 0 0 .1 500 261.1)" stroke="#000" stroke-width="6.377"/><path d="M779.41 912.6s-.12 103.6 0 179.24c.12 75.63 19.822 104.91 54.262 103.59 34.44-1.33 41.108-58.83 34.53-92.08-6.576-33.26-53.24-198.97-53.24-198.97l-35.552 8.222z" transform="matrix(.1 0 0 .1 509.3 249.4)" stroke="#000" stroke-width="6.377"/><path d="M779.53 255.12c159.57-1.394 177.16-35.432 177.16-35.432s35.43-70.866 17.716-88.584c-17.717-17.716-194.88-17.716-194.88-17.716v141.73z" transform="matrix(0 0 0 .1 527.7 292.3)" stroke="#000" stroke-width="8.095"/><path d="M779.53 255.12c106.3 0 124.02-35.432 124.02-35.432s35.43-70.866 17.716-88.584c-17.717-17.716-141.73-17.716-141.73-17.716v141.73z" transform="matrix(.1 0 0 .1 509.3 287.7)" stroke="#000" stroke-width="6.377"/><path d="M779.53 255.12c88.583 0 141.73-35.433 141.73-35.433s35.43-70.866 17.716-88.584c-17.72-17.72-159.45-17.71-159.45-17.71v141.73z" transform="matrix(.1 0 0 .1 509.3 283)" stroke="#000" stroke-width="6.377"/><path d="M832.68 113.39s70.866-88.583 194.88-177.17c124.01-88.582 213.73-156.72 230.31-141.73 0 17.717-106.3 106.3-194.88 177.17C974.4 42.52 868.1 148.82 868.1 148.82l-35.433-35.433z" transform="matrix(.1 0 0 .1 497.2 249.5)" stroke="#000" stroke-width="5.724"/><path d="M832.68 113.39s70.05-52.025 204.38-124.02c132.23-63.918 318.89-53.15 318.89-35.433-17.71 17.716-177.16 17.716-283.46 70.866-101.48 50.73-204.39 124.01-204.39 124.01l-35.433-35.433z" transform="matrix(.1 0 0 .1 497.9 254.1)" stroke="#000" stroke-width="5.724"/><path d="M832.68 113.39s61.675-35.068 204.38-88.583c141.72-53.15 329.87-17.717 329.87 0-17.7 17.713-170.4 6.944-276.7 35.43-109.99 27.757-222.09 88.583-222.09 88.583l-35.433-35.433z" transform="matrix(.1 0 0 .1 497.9 262.1)" stroke="#000" stroke-width="5.724"/><path d="M832.68 113.39s71.08-70.976 222.47-88.583c152.3-17.72 276.3 88.583 276.3 106.29-17.7 17.72-159.5-77.972-265.7-64.286-112.67 13.655-197.69 82.007-197.69 82.007l-35.433-35.433z" transform="matrix(.1 0 0 .1 498.4 270.3)" stroke="#000" stroke-width="5.724"/><path d="M779.53 255.12c159.57-1.394 159.45-45.508 159.45-45.508s35.43-70.866 17.716-88.584c-17.717-17.716-177.16-7.64-177.16-7.64v141.73z" transform="matrix(.1 0 0 .1 509.3 277.2)" stroke="#000" stroke-width="6.377"/><path d="M779.53 255.12c159.57-1.394 177.16-35.432 177.16-35.432s35.43-70.866 17.716-88.584c-17.717-17.716-194.88-17.716-194.88-17.716v141.73z" transform="matrix(.1 0 0 .1 509.3 272.6)" stroke="#000" stroke-width="6.377"/><path d="M779.53 255.12c159.57-1.394 194.88-35.433 194.88-35.433s35.43-70.866 17.716-88.583c-17.717-17.716-212.6-17.716-212.6-17.716v141.73z" transform="matrix(.1 0 0 .1 509.3 266.8)" stroke="#000" stroke-width="6.377"/><path d="M779.53 255.12c159.57-1.394 212.6-35.433 212.6-35.433s17.714-70.866 0-88.583c-17.717-17.716-212.6-17.716-212.6-17.716v141.73z" transform="matrix(.1 0 0 .1 509.3 261)" stroke="#000" stroke-width="6.377"/><path d="M832.68 113.39S946.89 24.807 946.89-46.06c0-70.866-50.35-141.73-64.625-177.17 28.552 0 93.176 106.3 93.176 177.17 0 77.444-107.32 194.88-107.32 194.88l-35.432-35.433z" transform="matrix(.1 0 0 .1 495.7 244.7)" stroke="#000" stroke-width="5.724"/><path d="M832.68 113.39s-14.276-53.15-14.276-159.45c0-124.02 63-202.89 85.654-230.32 5.898 27.422-57.102 124.02-57.102 230.32 0 77.444 21.157 194.88 21.157 194.88l-35.433-35.433z" transform="matrix(.1 0 0 .1 495.7 244.7)" stroke="#000" stroke-width="5.724"/><path d="M779.53 255.12c159.57-1.394 212.6-35.433 212.6-35.433s0-70.866-17.716-88.583c-17.717-17.716-194.88-17.716-194.88-17.716v141.73z" transform="matrix(.1 0 0 .1 509.3 255.2)" stroke="#000" stroke-width="6.377"/><path d="M779.53 255.12c159.57-1.394 194.88-35.433 194.88-35.433s0-70.866-17.716-88.583c-17.717-17.716-177.16-17.716-177.16-17.716v141.73z" transform="matrix(.1 0 0 .1 509.3 249.4)" stroke="#000" stroke-width="6.377"/><path d="M318.9 1318.1c55.065-122.32 70.866-336.61 70.866-372.05 0-99.782-32.948-585.11-35.433-779.53s124.02-301.18 248.03-301.18c106.3 0 177.17 70.866 177.17 177.17h-53.15c0-70.866-53.15-124.02-124.02-124.02-106.3 0-187.99 83.74-194.88 248.03-7.605 189.89 21.316 682.94 17.717 814.96s-51.234 249.72-106.3 336.61z" transform="matrix(-.1 0 0 .1 606.2 249.4)" stroke="#fdc301" stroke-width="16.071"/><path d="M779.41 912.6s-.12 103.6 0 179.24c.12 75.63 19.822 104.91 54.262 103.59 34.44-1.33 41.108-58.83 34.53-92.08-6.576-33.26-53.24-198.97-53.24-198.97l-35.552 8.222z" transform="matrix(-.1 0 0 .1 626.5 284.2)" stroke="#000" stroke-width="6.377"/><path d="M779.53 32.884c124.13.14 177.77 102.39 177.46 100.31l-35.734 33.347c-18.985 17.718-141.73 17.718-140.21 17.627l-1.52-151.29z" transform="matrix(.1 0 0 .1 509.3 249.4)" stroke="#000" stroke-width="6.377"/><path d="M779.41 912.6s-.12 103.6 0 179.24c.12 75.63 19.822 104.91 54.262 103.59 34.44-1.33 41.108-58.83 34.53-92.08-6.576-33.26-53.24-198.97-53.24-198.97l-35.552 8.222z" transform="matrix(-.1 0 0 .1 615.5 261.1)" stroke="#000" stroke-width="6.377"/><path d="M779.41 912.6s-.12 103.6 0 179.24c.12 75.63 19.822 104.91 54.262 103.59 34.44-1.33 41.108-58.83 34.53-92.08-6.576-33.26-53.24-198.97-53.24-198.97l-35.552 8.222z" transform="matrix(-.1 0 0 .1 606.2 249.4)" stroke="#000" stroke-width="6.377"/><path d="M779.53 255.12c159.57-1.394 177.16-35.432 177.16-35.432s35.43-70.866 17.716-88.584c-17.717-17.716-194.88-17.716-194.88-17.716v141.73z" transform="matrix(0 0 0 .1 587.8 292.3)" stroke="#000" stroke-width="8.095"/><path d="M779.53 255.12c106.3 0 124.02-35.432 124.02-35.432s35.43-70.866 17.716-88.584c-17.717-17.716-141.73-17.716-141.73-17.716v141.73z" transform="matrix(-.1 0 0 .1 606.2 287.7)" stroke="#000" stroke-width="6.377"/><path d="M779.53 255.12c88.583 0 141.73-35.433 141.73-35.433s35.43-70.866 17.716-88.584c-17.72-17.72-159.45-17.71-159.45-17.71v141.73z" transform="matrix(-.1 0 0 .1 606.2 283)" stroke="#000" stroke-width="6.377"/><path d="M832.68 113.39s70.866-88.583 194.88-177.17c124.01-88.582 213.73-156.72 230.31-141.73 0 17.717-106.3 106.3-194.88 177.17C974.4 42.52 868.1 148.82 868.1 148.82l-35.433-35.433z" transform="matrix(-.1 0 0 .1 618.3 249.5)" stroke="#000" stroke-width="5.724"/><path d="M832.68 113.39s70.05-52.025 204.38-124.02c132.23-63.918 318.89-53.15 318.89-35.433-17.71 17.716-177.16 17.716-283.46 70.866-101.48 50.73-204.39 124.01-204.39 124.01l-35.433-35.433z" transform="matrix(-.1 0 0 .1 617.6 254.1)" stroke="#000" stroke-width="5.724"/><path d="M832.68 113.39s61.675-35.068 204.38-88.583c141.72-53.15 329.87-17.717 329.87 0-17.7 17.713-170.4 6.944-276.7 35.43-109.99 27.757-222.09 88.583-222.09 88.583l-35.433-35.433z" transform="matrix(-.1 0 0 .1 617.6 262.1)" stroke="#000" stroke-width="5.724"/><path d="M832.68 113.39s71.08-70.976 222.47-88.583c152.3-17.72 276.3 88.583 276.3 106.29-17.7 17.72-159.5-77.972-265.7-64.286-112.67 13.655-197.69 82.007-197.69 82.007l-35.433-35.433z" transform="matrix(-.1 0 0 .1 617.1 270.3)" stroke="#000" stroke-width="5.724"/><path d="M779.53 255.12c159.57-1.394 159.45-45.508 159.45-45.508s35.43-70.866 17.716-88.584c-17.717-17.716-177.16-7.64-177.16-7.64v141.73z" transform="matrix(-.1 0 0 .1 606.2 277.2)" stroke="#000" stroke-width="6.377"/><path d="M779.53 255.12c159.57-1.394 177.16-35.432 177.16-35.432s35.43-70.866 17.716-88.584c-17.717-17.716-194.88-17.716-194.88-17.716v141.73z" transform="matrix(-.1 0 0 .1 606.2 272.6)" stroke="#000" stroke-width="6.377"/><path d="M779.53 255.12c159.57-1.394 194.88-35.433 194.88-35.433s35.43-70.866 17.716-88.583c-17.717-17.716-212.6-17.716-212.6-17.716v141.73z" transform="matrix(-.1 0 0 .1 606.2 266.8)" stroke="#000" stroke-width="6.377"/><path d="M779.53 255.12c159.57-1.394 212.6-35.433 212.6-35.433s17.714-70.866 0-88.583c-17.717-17.716-212.6-17.716-212.6-17.716v141.73z" transform="matrix(-.1 0 0 .1 606.2 261)" stroke="#000" stroke-width="6.377"/><path d="M832.68 113.39S946.89 24.807 946.89-46.06c0-70.866-50.35-141.73-64.625-177.17 28.552 0 93.176 106.3 93.176 177.17 0 77.444-107.32 194.88-107.32 194.88l-35.432-35.433z" transform="matrix(-.1 0 0 .1 619.8 244.7)" stroke="#000" stroke-width="5.724"/><path d="M832.68 113.39s-14.276-53.15-14.276-159.45c0-124.02 63-202.89 85.654-230.32 5.898 27.422-57.102 124.02-57.102 230.32 0 77.444 21.157 194.88 21.157 194.88l-35.433-35.433z" transform="matrix(-.1 0 0 .1 619.8 244.7)" stroke="#000" stroke-width="5.724"/><path d="M779.53 255.12c159.57-1.394 212.6-35.433 212.6-35.433s0-70.866-17.716-88.583c-17.717-17.716-194.88-17.716-194.88-17.716v141.73z" transform="matrix(-.1 0 0 .1 606.2 255.2)" stroke="#000" stroke-width="6.377"/><path d="M779.53 255.12c159.57-1.394 194.88-35.433 194.88-35.433s0-70.866-17.716-88.583c-17.717-17.716-177.16-17.716-177.16-17.716v141.73z" transform="matrix(-.1 0 0 .1 606.2 249.4)" stroke="#000" stroke-width="6.377"/><path d="M318.9 1318.1c55.065-122.32 70.866-336.61 70.866-372.05 0-99.782-32.948-585.11-35.433-779.53s124.02-301.18 248.03-301.18c106.3 0 177.17 70.866 177.17 177.17h-53.15c0-70.866-53.15-124.02-124.02-124.02-106.3 0-187.99 83.74-194.88 248.03-7.605 189.89 21.316 682.94 17.717 814.96s-51.234 249.72-106.3 336.61z" transform="matrix(.1 0 0 .1 509.3 249.4)" stroke="#fdc301" stroke-width="16.071"/><path d="M779.53 32.884c124.13.14 177.77 102.39 177.46 100.31l-35.734 33.347c-18.985 17.718-141.73 17.718-140.21 17.627l-1.52-151.29z" transform="matrix(-.1 0 0 .1 606.2 249.4)" stroke="#000" stroke-width="6.377"/></g></g></svg>