<svg xmlns="http://www.w3.org/2000/svg" height="480" width="640" version="1"><path d="M640 480V0H0v480h640z" fill="#006"/><path fill-rule="evenodd" fill="#006" d="M0 0h373.68v232.168H0z"/><g stroke-width="1pt"><path d="M0 0v25.957l331.9 206.21h41.78V206.21L41.776 0H0zm373.68 0v25.956L41.776 232.166H0V206.21L331.9 0h41.78z" fill="#fff"/><path d="M155.7 0v232.167h62.28V0H155.7zM0 77.39v77.388h373.68v-77.39H0z" fill="#fff"/><path d="M0 92.867V139.3h373.68V92.867H0zM168.155 0v232.167h37.368V0h-37.368zM0 232.167l124.56-77.39h27.85l-124.558 77.39H0zM0 0l124.56 77.39H96.708L0 17.304V0zm221.267 77.39L345.827 0h27.852L249.12 77.39h-27.853zM373.68 232.166l-124.56-77.39h27.85l96.71 60.085v17.305z" fill="#c00"/></g><g><path d="M612.54 212.442v79.91c0 65.607-25.77 125.663-102.217 162.17-76.416-36.507-102.19-96.56-102.19-162.17v-79.91H612.58z" fill-opacity=".996" fill="#fff"/><path d="M605.69 220.585v74.535c0 61.192-24.035 117.21-95.34 151.256-71.306-34.048-95.34-90.063-95.34-151.256v-74.535H605.7z" fill-opacity=".996" fill="#fdc300"/><g stroke="#000" stroke-width=".091"><path d="M205.96 52.847a2.085 2.085 0 0 0-1.265-.44c.117-1.296-.824-1.855-1.5-2.09-.677-.236-.913-.5-1.03-1.03-.118-.53-.47-.853-1.09-1.03-.617-.176-1.147-.794-1.382-1.088-.235-.296-.324-.237-.5.263-.177.5-.883 1.442-.236 1.472-.47.382-.735.823-.44 1.412-.325.265-.56.647-.12.794.443.148.56.266.59.384-.397 0-.5.794.44.97-.205.03-.293.677.09.677-.53 0-.972.796-1.648.796-.678 0-1.03.147-1.06.44-.03.295-.383.648-.56.795.5.06.824 0 1.09-.205s.705-.264 1-.03c.294.236.912.354 1.206.295-.647.442-1.118 1.03-1.177 1.59-.06.558-.442 1.205-.884 1.382-.44.176-1.03.647-1.235 1.206.56 1.383 1.353 1.725 2.148 2.09 1.413.646 2.295 1.117 2.884 1.764.588.648.824.177 1.706 1.295.883 1.118 1.707 3.236 2.59 3.59.882.353 2 .117 2.647-1 .648-1.12 1.06-12.417-2.265-14.3z" fill="#ff9e3d" transform="matrix(3.909 0 0 3.9094 -339.132 46.653)"/><path d="M207.46 48.14c-.824.882-1.884 1.764-1.707 3.353s.353 4.178-1.118 5.06c-1.47.884-2.177 3.12-.412 4.414 1.765 1.295 1.824 2.884 2.118 4.355.296 1.47 1.06 2.648 2.238 1.647 1.176.176 1.824-.295 1.824-1.236s.06-1.47.94-1.766c.884-.294 1.12-.588 1.53-1.383.413-.794.648-1.147.413-1.618-.235-.47-.324-1.44-.147-2.148.177-.707-.235-1.09-.47-1.53-.236-.442-.324-.824-.207-1.413.12-.588-.175-.97-.587-1.265-.412-.294-.59-.588-.5-1.06.088-.47-.295-.764-.736-1.117s-.765-.824-.765-1.53c0-.706-1.353-2.354-2.412-2.766z" fill="#ff927f" transform="matrix(3.909 0 0 3.9094 -339.132 46.653)"/><path d="M207.79 67.352c1.97-.5 1.795-3.737 1.5-5.09-.294-1.353-1.05-3.292-.47-4.825.824-2.177-1-4.237-.53-5.06.47-.825.412-1.266.353-1.53-.058-.266-.5-.472-.53.087-.03.56-.176.765-.53 1.118s-.264 1.118 0 1.972c.266.853.825 2.148-.058 3.854-.882 1.706-.52 2.467-.176 3.266.528 1.236 1.794 5.53.44 6.208z" fill="#ff9ee1" transform="matrix(3.909 0 0 3.9094 -339.132 46.653)"/><path d="M198.96 48.904c.22 0 .648-.088.648.206M198.52 50.316c.265-.19.736.03 1.206-.25M198.99 51.493c.353 0 .824-.015 1.265-.368M199.43 52.464c.324 0 .927-.206 1.074-.632M199.52 53.14c.632-.028 1.47.207 1.588-.014M199.55 55.23c.44-.412 1.486-.69 1.72-1.118M200.67 48.67c.735.234.43.69.794.97.648.5.06 1.06.59 1.206.528.147.52.237.38.824-.16.692.5.72.266 1.177M204.7 52.406c-.294 0-1.162.03-1.53.81M198.42 60.894c.34.06.508-.134.603-.324.103-.206.147-.353.456-.367.308-.015.78-.103.882-.34.103-.234.47-.014.78-.63.31-.62.515-1.355 1.338-1.62" fill="none" transform="matrix(3.909 0 0 3.9094 -339.132 46.653)"/></g><g stroke="#000" stroke-width=".091"><path d="M221.76 73.75c.333.484-.012 1.007.553 1.216.662.245.084 1.116.865 1.422.692.273.005 1.105.753 1.48.67.333-.11 1.114.782 1.56.892.447-.168 1.45.502 1.84.67.392-.223 1.396.558 1.787.78.39-.335 1.17.39 1.73.725.557-.167 1.393.558 1.895s-.445 1.173.28 1.897c.557.558-.202 1.104.222 1.953.28.557-.28 2.79-1.84 2.566-.56.948-2.734 1.785-3.515 1.506-.78.558-3.29 1.34-4.575.11-1.282 1.23-3.793.448-4.574-.11-.78.28-2.956-.558-3.514-1.506-1.562.223-2.12-2.01-1.84-2.566.423-.85-.336-1.395.222-1.953.724-.724-.446-1.394.28-1.897s-.168-1.338.557-1.896c.725-.558-.39-1.34.39-1.73.78-.39-.11-1.394.558-1.785.67-.39-.39-1.395.503-1.84.893-.448.112-1.23.78-1.563.75-.374.062-1.206.754-1.48.78-.305.203-1.176.865-1.42.574-.214.208-.75.57-1.24 1.66.653 6.803 1.122 8.918.023z" fill="#00a728" transform="matrix(3.909 0 0 3.9094 -339.132 46.653)"/><g fill-opacity=".996" fill="#fdc300"><path d="M213.51 76.668c0 .25-.005.5-.237.81-.502.668.223 1.003-.335 1.728-.557.725.112 1.172-.502 1.785-.613.615.112 1.173-.502 1.842-.613.67.112 1.116-.502 1.73-.613.613.112 1.283-.502 1.896-.613.614.112 1.395-.558 2.12-.67.725.112 1.283-.446 1.84-.558.56-.056 1.116-.446 1.507.67-.502.67-1.283 1.17-1.674.503-.39-.166-.947.113-1.226s.056-1.45.558-2.008c.503-.558.057-1.674.503-2.064s.11-1.562.67-1.952 0-1.34.445-1.84c.447-.503 0-1.284.447-1.898.446-.614.02-1.17.334-1.673.14-.225.14-1.842-.21-.922zM215.12 77.365c-.39.725.28.892-.223 1.618s.28 1.283-.28 2.008.28 1.117-.222 1.842c-.502.725.223 1.115-.223 1.673-.447.558.334 1.116-.223 1.785-.56.67.222 1.172-.225 1.785-.446.614.168 1.283-.223 1.785-.39.502.28 1.228-.28 1.897s.113 1.116-.222 1.562c.67-.224.42-1.145.67-1.34.25-.195-.084-1.478.306-1.813.39-.334-.25-1.367.112-1.813.614-.753.084-1.255.446-1.84.363-.586-.138-1.338.14-1.73.474-.67-.21-1.273.14-1.757.5-.697-.098-1.272.25-1.73.53-.697-.056-1.394.168-1.757.223-.362.585-1.924-.112-2.175zM217.29 77.974c-.39.972.28 1.36.056 2.138-.223.778.28 1.36-.056 2.203-.334.843.447 1.49 0 2.592-.446 1.102.288 1.376 0 2.463-.334 1.263.558 1.933 0 2.825-.557.893.64 1.188.056 2.12-.28.446.028 1.59.474.223.447-1.366-.334-1.534.056-2.092s-.14-2.036.028-2.817c.168-.782-.39-1.842-.028-2.678.363-.837-.558-1.73-.195-2.455.364-.725-.166-1.618.168-2.203.335-.586-.25-1.367-.11-1.702.138-.334-.14-1.57-.448-.618z" transform="matrix(3.909 0 0 3.9094 -339.132 46.653)"/></g><path d="M221.47 74.408c0-6.303-.892-8.48-4.184-8.48-3.29 0-4.183 2.177-4.183 8.48h8.367z" fill="#ef072d" transform="matrix(3.909 0 0 3.9094 -339.132 46.653)"/><g fill="none"><path d="M214.33 73.906c-.614.614.112 1.06-.502 1.785-.614.726-.056 1.117-.558 1.786s.223 1.004-.335 1.73c-.557.725.112 1.17-.502 1.784-.613.614.112 1.172-.502 1.84-.612.67.113 1.117-.5 1.73-.614.614.11 1.284-.503 1.897-.613.614.112 1.395-.558 2.12-.67.725.11 1.283-.447 1.84-.558.56-.056 1.117-.446 1.507-.39.39-.446.935-.28 1.172M215.5 74.13c-.557.724.28 1.06-.223 1.673-.502.613.223.836-.167 1.562s.28.892-.223 1.617.28 1.283-.28 2.008.28 1.116-.222 1.84c-.502.726.223 1.117-.223 1.675-.447.558.334 1.115-.223 1.785-.56.67.222 1.17-.225 1.785-.446.614.168 1.283-.223 1.785-.39.502.28 1.227-.28 1.897s.113 1.115-.222 1.562c-.335.445-.6 1.1-.28 1.282M217.29 74.8c-.278 1.165.39 2.202 0 3.174s.28 1.36.056 2.138c-.223.778.28 1.36-.056 2.203-.334.843.447 1.49 0 2.592-.446 1.102.288 1.376 0 2.463-.334 1.263.558 1.933 0 2.825-.557.893.503 1.116.056 2.12-.446 1.004.28 1.395-.056 2.4M220.25 73.906c.614.614-.112 1.06.502 1.785.614.726.056 1.117.558 1.786s-.223 1.004.335 1.73c.557.725-.112 1.17.502 1.784.613.614-.112 1.172.502 1.84.612.67-.113 1.117.5 1.73.614.614-.11 1.284.503 1.897.613.614-.112 1.395.558 2.12.67.725-.11 1.283.447 1.84.558.56.056 1.117.446 1.507.39.39.447.935.28 1.172M219.08 74.13c.557.724-.28 1.06.223 1.673.502.613-.223.836.167 1.562.39.725-.28.892.223 1.617s-.28 1.283.28 2.008-.28 1.116.222 1.84c.502.726-.223 1.117.223 1.675.447.558-.334 1.115.224 1.785.557.67-.224 1.17.223 1.785.446.614-.168 1.283.223 1.785.39.502-.28 1.227.28 1.897s-.113 1.115.222 1.562c.335.445.6 1.1.28 1.282" transform="matrix(3.909 0 0 3.9094 -339.132 46.653)"/></g><path d="M213.11 74.408c0-6.303.892-8.48 4.183-8.48-1.506 0-2.426 1.172-2.677 1.953s-.112.727.223.42.166.362-.112.725c-.28.362-.558 1.394-.168 1.06.39-.335.697.056.28.64s-.782 1.954-.364 1.48c.42-.475.502.306.252.697-.252.39-.224.725 0 .558.223-.168.195.64-.028.948h-1.59zM220.83 74.046c0-4.937-.613-6.415-1.84-6.917-.695-.286-.715-.224-.383.222s.28 1.088-.026.64c-.305-.445-.407-.528-.535-.333-.128.194.357 1.115.715 1.95.288.674.102 1.005-.332.336s-.434-.063-.053.502c.49.725.474 2.93.474 3.85l1.98-.252z" transform="matrix(3.909 0 0 3.9094 -339.132 46.653)"/><path d="M217.29 75.33c1.31 0 2.746-.235 3.71-.61 1.144-.443 1.205-.833.81-1.33-.28-.352-.894-.142-1.48.115-.585.258-2.203.42-3.04.42-.836 0-2.454-.162-3.04-.42-.585-.257-1.2-.467-1.478-.116-.396.497-.335.887.81 1.33.962.375 2.398.61 3.708.61z" fill="#ef072d" transform="matrix(3.909 0 0 3.9094 -339.132 46.653)"/></g><g fill-rule="evenodd" fill="#b95a1e"><path d="M779.41 912.6s-.12 103.6 0 179.24c.12 75.63 19.822 104.91 54.262 103.59 34.44-1.33 41.108-58.83 34.53-92.08-6.576-33.26-53.24-198.97-53.24-198.97l-35.552 8.222z" transform="matrix(.053 -.03423 .03246 .0559 489.023 284.185)" stroke="#000" stroke-width="6.377"/><path d="M779.41 912.6s-.12 103.6 0 179.24c.12 75.63 19.822 104.91 54.262 103.59 34.44-1.33 41.108-58.83 34.53-92.08-6.576-33.26-53.24-198.97-53.24-198.97l-35.552 8.222z" transform="matrix(.0608 -.0136 .0129 .06412 499.988 261.06)" stroke="#000" stroke-width="6.377"/><path d="M779.41 912.6s-.12 103.6 0 179.24c.12 75.63 19.822 104.91 54.262 103.59 34.44-1.33 41.108-58.83 34.53-92.08-6.576-33.26-53.24-198.97-53.24-198.97l-35.552 8.222z" transform="matrix(.06216 0 0 .06555 509.298 249.353)" stroke="#000" stroke-width="6.377"/><path d="M779.53 255.12c159.57-1.394 177.16-35.432 177.16-35.432s35.43-70.866 17.716-88.584c-17.717-17.716-194.88-17.716-194.88-17.716v141.73z" transform="matrix(.03857 0 0 .06555 527.683 292.32)" stroke="#000" stroke-width="8.095"/><path d="M779.53 255.12c106.3 0 124.02-35.432 124.02-35.432s35.43-70.866 17.716-88.584c-17.717-17.716-141.73-17.716-141.73-17.716v141.73z" transform="matrix(.06216 0 0 .06555 509.298 287.673)" stroke="#000" stroke-width="6.377"/><path d="M779.53 255.12c88.583 0 141.73-35.433 141.73-35.433s35.43-70.866 17.716-88.584c-17.72-17.72-159.45-17.71-159.45-17.71v141.73z" transform="matrix(.06216 0 0 .06555 509.298 283.026)" stroke="#000" stroke-width="6.377"/><path d="M832.68 113.39s70.866-88.583 194.88-177.17c124.01-88.582 213.73-156.72 230.31-141.73 0 17.717-106.3 106.3-194.88 177.17C974.4 42.52 868.1 148.82 868.1 148.82l-35.433-35.433z" transform="matrix(.07714 0 0 .06555 497.232 249.488)" stroke="#000" stroke-width="5.724"/><path d="M832.68 113.39s70.05-52.025 204.38-124.02c132.23-63.918 318.89-53.15 318.89-35.433-17.71 17.716-177.16 17.716-283.46 70.866-101.48 50.73-204.39 124.01-204.39 124.01l-35.433-35.433z" transform="matrix(.07714 0 0 .06555 497.87 254.135)" stroke="#000" stroke-width="5.724"/><path d="M832.68 113.39s61.675-35.068 204.38-88.583c141.72-53.15 329.87-17.717 329.87 0-17.7 17.713-170.4 6.944-276.7 35.43-109.99 27.757-222.09 88.583-222.09 88.583l-35.433-35.433z" transform="matrix(.07714 0 0 .06555 497.93 262.135)" stroke="#000" stroke-width="5.724"/><path d="M832.68 113.39s71.08-70.976 222.47-88.583c152.3-17.72 276.3 88.583 276.3 106.29-17.7 17.72-159.5-77.972-265.7-64.286-112.67 13.655-197.69 82.007-197.69 82.007l-35.433-35.433z" transform="matrix(.07714 0 0 .06555 498.45 270.253)" stroke="#000" stroke-width="5.724"/><path d="M779.53 255.12c159.57-1.394 159.45-45.508 159.45-45.508s35.43-70.866 17.716-88.584c-17.717-17.716-177.16-7.64-177.16-7.64v141.73z" transform="matrix(.06216 0 0 .06555 509.298 277.227)" stroke="#000" stroke-width="6.377"/><path d="M779.53 255.12c159.57-1.394 177.16-35.432 177.16-35.432s35.43-70.866 17.716-88.584c-17.717-17.716-194.88-17.716-194.88-17.716v141.73z" transform="matrix(.06216 0 0 .06555 509.298 272.58)" stroke="#000" stroke-width="6.377"/><path d="M779.53 255.12c159.57-1.394 194.88-35.433 194.88-35.433s35.43-70.866 17.716-88.583c-17.717-17.716-212.6-17.716-212.6-17.716v141.73z" transform="matrix(.06216 0 0 .06555 509.298 266.774)" stroke="#000" stroke-width="6.377"/><path d="M779.53 255.12c159.57-1.394 212.6-35.433 212.6-35.433s17.714-70.866 0-88.583c-17.717-17.716-212.6-17.716-212.6-17.716v141.73z" transform="matrix(.06216 0 0 .06555 509.298 260.967)" stroke="#000" stroke-width="6.377"/><path d="M832.68 113.39S946.89 24.807 946.89-46.06c0-70.866-50.35-141.73-64.625-177.17 28.552 0 93.176 106.3 93.176 177.17 0 77.444-107.32 194.88-107.32 194.88l-35.432-35.433z" transform="matrix(.07714 0 0 .06555 495.728 244.706)" stroke="#000" stroke-width="5.724"/><path d="M832.68 113.39s-14.276-53.15-14.276-159.45c0-124.02 63-202.89 85.654-230.32 5.898 27.422-57.102 124.02-57.102 230.32 0 77.444 21.157 194.88 21.157 194.88l-35.433-35.433z" transform="matrix(.07714 0 0 .06555 495.728 244.706)" stroke="#000" stroke-width="5.724"/><path d="M779.53 255.12c159.57-1.394 212.6-35.433 212.6-35.433s0-70.866-17.716-88.583c-17.717-17.716-194.88-17.716-194.88-17.716v141.73z" transform="matrix(.06216 0 0 .06555 509.298 255.16)" stroke="#000" stroke-width="6.377"/><path d="M779.53 255.12c159.57-1.394 194.88-35.433 194.88-35.433s0-70.866-17.716-88.583c-17.717-17.716-177.16-17.716-177.16-17.716v141.73z" transform="matrix(.06216 0 0 .06555 509.298 249.353)" stroke="#000" stroke-width="6.377"/><path d="M318.9 1318.1c55.065-122.32 70.866-336.61 70.866-372.05 0-99.782-32.948-585.11-35.433-779.53s124.02-301.18 248.03-301.18c106.3 0 177.17 70.866 177.17 177.17h-53.15c0-70.866-53.15-124.02-124.02-124.02-106.3 0-187.99 83.74-194.88 248.03-7.605 189.89 21.316 682.94 17.717 814.96s-51.234 249.72-106.3 336.61z" transform="matrix(-.06216 0 0 .06555 606.204 249.353)" stroke="#fdc301" stroke-width="16.071"/><path d="M779.41 912.6s-.12 103.6 0 179.24c.12 75.63 19.822 104.91 54.262 103.59 34.44-1.33 41.108-58.83 34.53-92.08-6.576-33.26-53.24-198.97-53.24-198.97l-35.552 8.222z" transform="matrix(-.053 -.03423 -.03246 .0559 626.48 284.185)" stroke="#000" stroke-width="6.377"/><path d="M779.53 32.884c124.13.14 177.77 102.39 177.46 100.31l-35.734 33.347c-18.985 17.718-141.73 17.718-140.21 17.627l-1.52-151.29z" transform="matrix(.06216 0 0 .06555 509.298 249.353)" stroke="#000" stroke-width="6.377"/><path d="M779.41 912.6s-.12 103.6 0 179.24c.12 75.63 19.822 104.91 54.262 103.59 34.44-1.33 41.108-58.83 34.53-92.08-6.576-33.26-53.24-198.97-53.24-198.97l-35.552 8.222z" transform="matrix(-.0608 -.0136 -.0129 .06412 615.506 261.06)" stroke="#000" stroke-width="6.377"/><path d="M779.41 912.6s-.12 103.6 0 179.24c.12 75.63 19.822 104.91 54.262 103.59 34.44-1.33 41.108-58.83 34.53-92.08-6.576-33.26-53.24-198.97-53.24-198.97l-35.552 8.222z" transform="matrix(-.06216 0 0 .06555 606.196 249.353)" stroke="#000" stroke-width="6.377"/><path d="M779.53 255.12c159.57-1.394 177.16-35.432 177.16-35.432s35.43-70.866 17.716-88.584c-17.717-17.716-194.88-17.716-194.88-17.716v141.73z" transform="matrix(-.03857 0 0 .06555 587.81 292.32)" stroke="#000" stroke-width="8.095"/><path d="M779.53 255.12c106.3 0 124.02-35.432 124.02-35.432s35.43-70.866 17.716-88.584c-17.717-17.716-141.73-17.716-141.73-17.716v141.73z" transform="matrix(-.06216 0 0 .06555 606.196 287.673)" stroke="#000" stroke-width="6.377"/><path d="M779.53 255.12c88.583 0 141.73-35.433 141.73-35.433s35.43-70.866 17.716-88.584c-17.72-17.72-159.45-17.71-159.45-17.71v141.73z" transform="matrix(-.06216 0 0 .06555 606.196 283.026)" stroke="#000" stroke-width="6.377"/><path d="M832.68 113.39s70.866-88.583 194.88-177.17c124.01-88.582 213.73-156.72 230.31-141.73 0 17.717-106.3 106.3-194.88 177.17C974.4 42.52 868.1 148.82 868.1 148.82l-35.433-35.433z" transform="matrix(-.07714 0 0 .06555 618.262 249.488)" stroke="#000" stroke-width="5.724"/><path d="M832.68 113.39s70.05-52.025 204.38-124.02c132.23-63.918 318.89-53.15 318.89-35.433-17.71 17.716-177.16 17.716-283.46 70.866-101.48 50.73-204.39 124.01-204.39 124.01l-35.433-35.433z" transform="matrix(-.07714 0 0 .06555 617.632 254.135)" stroke="#000" stroke-width="5.724"/><path d="M832.68 113.39s61.675-35.068 204.38-88.583c141.72-53.15 329.87-17.717 329.87 0-17.7 17.713-170.4 6.944-276.7 35.43-109.99 27.757-222.09 88.583-222.09 88.583l-35.433-35.433z" transform="matrix(-.07714 0 0 .06555 617.573 262.135)" stroke="#000" stroke-width="5.724"/><path d="M832.68 113.39s71.08-70.976 222.47-88.583c152.3-17.72 276.3 88.583 276.3 106.29-17.7 17.72-159.5-77.972-265.7-64.286-112.67 13.655-197.69 82.007-197.69 82.007l-35.433-35.433z" transform="matrix(-.07714 0 0 .06555 617.052 270.253)" stroke="#000" stroke-width="5.724"/><path d="M779.53 255.12c159.57-1.394 159.45-45.508 159.45-45.508s35.43-70.866 17.716-88.584c-17.717-17.716-177.16-7.64-177.16-7.64v141.73z" transform="matrix(-.06216 0 0 .06555 606.196 277.227)" stroke="#000" stroke-width="6.377"/><path d="M779.53 255.12c159.57-1.394 177.16-35.432 177.16-35.432s35.43-70.866 17.716-88.584c-17.717-17.716-194.88-17.716-194.88-17.716v141.73z" transform="matrix(-.06216 0 0 .06555 606.196 272.58)" stroke="#000" stroke-width="6.377"/><path d="M779.53 255.12c159.57-1.394 194.88-35.433 194.88-35.433s35.43-70.866 17.716-88.583c-17.717-17.716-212.6-17.716-212.6-17.716v141.73z" transform="matrix(-.06216 0 0 .06555 606.196 266.774)" stroke="#000" stroke-width="6.377"/><path d="M779.53 255.12c159.57-1.394 212.6-35.433 212.6-35.433s17.714-70.866 0-88.583c-17.717-17.716-212.6-17.716-212.6-17.716v141.73z" transform="matrix(-.06216 0 0 .06555 606.196 260.967)" stroke="#000" stroke-width="6.377"/><path d="M832.68 113.39S946.89 24.807 946.89-46.06c0-70.866-50.35-141.73-64.625-177.17 28.552 0 93.176 106.3 93.176 177.17 0 77.444-107.32 194.88-107.32 194.88l-35.432-35.433z" transform="matrix(-.07714 0 0 .06555 619.775 244.706)" stroke="#000" stroke-width="5.724"/><path d="M832.68 113.39s-14.276-53.15-14.276-159.45c0-124.02 63-202.89 85.654-230.32 5.898 27.422-57.102 124.02-57.102 230.32 0 77.444 21.157 194.88 21.157 194.88l-35.433-35.433z" transform="matrix(-.07714 0 0 .06555 619.775 244.706)" stroke="#000" stroke-width="5.724"/><path d="M779.53 255.12c159.57-1.394 212.6-35.433 212.6-35.433s0-70.866-17.716-88.583c-17.717-17.716-194.88-17.716-194.88-17.716v141.73z" transform="matrix(-.06216 0 0 .06555 606.196 255.16)" stroke="#000" stroke-width="6.377"/><path d="M779.53 255.12c159.57-1.394 194.88-35.433 194.88-35.433s0-70.866-17.716-88.583c-17.717-17.716-177.16-17.716-177.16-17.716v141.73z" transform="matrix(-.06216 0 0 .06555 606.196 249.353)" stroke="#000" stroke-width="6.377"/><path d="M318.9 1318.1c55.065-122.32 70.866-336.61 70.866-372.05 0-99.782-32.948-585.11-35.433-779.53s124.02-301.18 248.03-301.18c106.3 0 177.17 70.866 177.17 177.17h-53.15c0-70.866-53.15-124.02-124.02-124.02-106.3 0-187.99 83.74-194.88 248.03-7.605 189.89 21.316 682.94 17.717 814.96s-51.234 249.72-106.3 336.61z" transform="matrix(.06216 0 0 .06555 509.29 249.353)" stroke="#fdc301" stroke-width="16.071"/><path d="M779.53 32.884c124.13.14 177.77 102.39 177.46 100.31l-35.734 33.347c-18.985 17.718-141.73 17.718-140.21 17.627l-1.52-151.29z" transform="matrix(-.06216 0 0 .06555 606.196 249.353)" stroke="#000" stroke-width="6.377"/></g></g></svg>