<svg xmlns="http://www.w3.org/2000/svg" height="480" width="640"><defs><clipPath id="a"><path fill-opacity=".67" d="M0 0h640v480H0z"/></clipPath></defs><g clip-path="url(#a)"><path fill="#006" d="M0 0h960v480H0z"/><path d="M0 0v17.89l284.22 142.113h35.782v-17.887L35.78.002H0zm320.002 0v17.888L35.78 160.002H0v-17.887L284.22 0h35.782z" fill="#fff"/><path fill="#fff" d="M133.334 0v160h53.334V0h-53.334zM0 53.334v53.333h320.002V53.334H0z"/><path d="M0 64v32h320.002V64H0zM144 0v160h32V0h-32zM0 160l106.667-53.333h23.852L23.85 160H0zM0 0l106.667 53.334H82.814L0 11.926V0zm189.48 53.334L296.15 0h23.854L213.334 53.334H189.48zM320.003 160l-106.668-53.333h23.854l82.814 41.407V160z" fill="#c00"/><g><path d="M484.285 125.094l6.758 20.797h21.868l-17.69 12.856 6.757 20.797-17.69-12.843-17.693 12.854 6.758-20.798-17.692-12.854h21.868z" fill="#fff"/><path d="M484.285 131.486l5.322 16.38h17.224l-13.933 10.124 5.322 16.38-13.934-10.123-13.934 10.124 5.32-16.383-13.932-10.123h17.223z" fill="#c00"/><path d="M380.098 229.923l6.758 20.798h21.868l-17.692 12.855 6.758 20.798-17.69-12.844-17.693 12.854 6.758-20.798-17.692-12.854h21.868z" fill="#fff"/><path d="M380.098 236.316l5.322 16.38h17.224L388.71 262.82l5.322 16.38-13.933-10.123-13.934 10.123 5.32-16.383-13.933-10.123h17.224z" fill="#c00"/><path d="M573.588 207.634l5.656 17.408h18.304l-14.808 10.76 5.656 17.407-14.82-10.763-14.808 10.76 5.656-17.41-14.808-10.758h18.305z" fill="#fff"/><path d="M573.588 213.067l4.435 13.65h14.353l-11.612 8.438 4.435 13.65-11.612-8.432-11.612 8.437 4.436-13.65-11.612-8.438h14.352z" fill="#c00"/><path d="M484.288 392.647l7.43 22.868h24.045L496.31 429.65l7.43 22.867-19.454-14.144-19.453 14.133 7.43-22.868-19.453-14.133h24.045z" fill-rule="evenodd" fill="#fff"/><path d="M484.288 398.09l6.21 19.11h20.093l-16.256 11.81 6.21 19.11-16.258-11.81-16.257 11.812 6.21-19.11-16.258-11.81h20.094z" fill-rule="evenodd" fill="#c00"/></g></g></svg>