<svg xmlns="http://www.w3.org/2000/svg" height="480" width="640" version="1"><defs><clipPath id="a"><path fill-opacity=".67" d="M42.666 0h682.67v512H42.666z"/></clipPath></defs><g fill-rule="evenodd" clip-path="url(#a)" transform="matrix(.9 0 0 .9 -40 0)"><path fill="#004e00" d="M0 0h768v512H0z"/><g stroke-width="1pt"><path d="M260.573 171.885h14.12" fill="#ffef00"/><path d="M263.306 137.494c27.9 13.453 61.12-.064 73.14-18.637 12.322-17.332 13.835-46.437-7.47-73.14 33.07 27.425 40.38 58.513 23.928 84.113-21.944 29.254-70.627 28.407-89.598 7.664z" fill="#fff"/><path fill="#feffff" d="M312.835 69.43l5.614.073-4.444 3.528 1.666 5.52-4.633-3.262-4.588 3.34 1.583-5.544-4.5-3.453 5.61-.166 1.802-5.473M285.123 104.173l5.615.07-4.444 3.53 1.666 5.52-4.633-3.263-4.587 3.338 1.583-5.543-4.5-3.452 5.61-.167 1.802-5.474M286.95 76.753l5.614.07-4.443 3.53 1.667 5.52-4.633-3.263-4.587 3.338 1.583-5.543-4.5-3.452 5.61-.167 1.802-5.474M286.95 49.317l5.614.072-4.443 3.527 1.667 5.52-4.633-3.263-4.587 3.34 1.583-5.544-4.5-3.453 5.61-.166 1.802-5.473M256.152 84.066l5.615.072-4.444 3.528 1.666 5.52-4.634-3.262-4.587 3.338 1.582-5.543-4.5-3.454 5.61-.166 1.802-5.474"/></g><path fill="#980000" d="M47.542 0H212.11v511.984H47.542z"/><g stroke-width="1pt" fill="#e69900"><path d="M47.542 133.48v-3.656l6.803-9.143-1.37-1.827 4.113-5.486-1.37-1.828-2.744 3.656-1.372-1.83 9.6-12.798 1.37 1.828-1.37 1.83 2.827 3.693 6.772-9.18-6.887-8.897-2.713 3.41 1.37 1.83-1.37 1.828-9.6-12.8 1.372-1.827 2.743 3.657 1.37-1.83-4.113-5.485 1.37-1.828-6.802-9.142v-3.658l9.546 12.8-1.37 1.828 4.113 5.486-2.742 3.658 2.743 3.657 4.115-5.485L73.6 98.957l-9.655 12.582-4.114-5.487-2.742 3.658 2.743 3.657-4.113 5.486 1.37 1.828-9.545 12.8z"/><path d="M47.54 87.77l1.373 3.656v5.486h4.114l2.743 1.828-2.743 1.83h-4.114v5.484l-1.372 3.658V87.77z"/></g><g stroke-width="1pt" fill="#e69900"><path d="M47.542 221.25v-3.657l6.803-9.143-1.37-1.828 4.113-5.486-1.37-1.828-2.744 3.657-1.372-1.83 9.6-12.798 1.37 1.828-1.37 1.83 2.827 3.693 6.772-9.18-6.887-8.896-2.713 3.41 1.37 1.83-1.37 1.827-9.6-12.8 1.372-1.83 2.743 3.66 1.37-1.83-4.113-5.486 1.37-1.828-6.802-9.143v-3.657l9.546 12.8-1.37 1.828 4.113 5.486-2.742 3.657 2.743 3.657 4.115-5.485 9.654 13.016-9.655 12.582-4.114-5.486-2.742 3.657 2.743 3.656-4.113 5.486 1.37 1.828-9.545 12.8z"/><path d="M47.54 175.538l1.373 3.657v5.485h4.114l2.743 1.83-2.743 1.828h-4.114v5.485l-1.372 3.657v-21.942z"/></g><g stroke-width="1pt" fill="#e69900"><path d="M47.543 309.02v-3.657l6.803-9.143-1.37-1.828 4.113-5.486-1.372-1.828-2.743 3.656-1.372-1.828 9.6-12.8 1.37 1.83-1.37 1.828 2.827 3.694 6.773-9.18-6.887-8.897-2.713 3.412 1.37 1.83-1.37 1.827-9.6-12.8 1.372-1.83 2.743 3.658 1.37-1.828-4.113-5.486 1.37-1.828-6.802-9.143v-3.657l9.546 12.8-1.372 1.828 4.114 5.486-2.743 3.657 2.742 3.657 4.114-5.486 9.654 13.018-9.654 12.582-4.114-5.486-2.743 3.657 2.742 3.656-4.114 5.486 1.37 1.828-9.545 12.8z"/><path d="M47.542 263.308l1.372 3.657v5.485h4.114l2.743 1.83-2.742 1.827h-4.114v5.486l-1.372 3.657v-21.942z"/></g><g stroke-width="1pt" fill="#e69900"><path d="M47.543 391.3v-3.657l6.803-9.143-1.37-1.828 4.113-5.486-1.372-1.828-2.743 3.656-1.372-1.828 9.6-12.8 1.37 1.83-1.37 1.828 2.827 3.694 6.773-9.18-6.887-8.897-2.713 3.412 1.37 1.83-1.37 1.827-9.6-12.8 1.372-1.83 2.743 3.658 1.37-1.828-4.113-5.486 1.37-1.828-6.802-9.143v-3.657l9.546 12.8-1.372 1.828 4.114 5.486-2.743 3.657 2.742 3.657 4.114-5.486 9.654 13.018-9.654 12.582-4.114-5.486-2.743 3.657 2.742 3.656-4.114 5.486 1.37 1.828-9.545 12.8z"/><path d="M47.542 345.588l1.372 3.657v5.485h4.114l2.743 1.83-2.742 1.827h-4.114v5.486l-1.372 3.657v-21.942z"/></g><g stroke-width="1pt" fill="#e69900"><path d="M212.106 133.48v-3.656l-6.803-9.143 1.372-1.827-4.114-5.486 1.372-1.828 2.743 3.656 1.37-1.83-9.6-12.798-1.37 1.828 1.37 1.83-2.826 3.693-6.773-9.18 6.886-8.897 2.713 3.41-1.37 1.83 1.37 1.828 9.6-12.8-1.37-1.827-2.744 3.657-1.37-1.83 4.113-5.485-1.372-1.828 6.803-9.142v-3.658l-9.545 12.8 1.372 1.828-4.114 5.486 2.743 3.658-2.742 3.657-4.115-5.485-9.653 13.017 9.653 12.582 4.115-5.487 2.743 3.658-2.742 3.657 4.114 5.486-1.37 1.828 9.544 12.8z"/><path d="M212.107 87.77l-1.37 3.656v5.486h-4.115l-2.743 1.828 2.742 1.83h4.114v5.484l1.37 3.658V87.77z"/></g><g stroke-width="1pt" fill="#e69900"><path d="M212.56 221.25v-3.656l-6.803-9.143 1.372-1.827-4.115-5.486 1.37-1.828 2.744 3.656 1.37-1.83-9.6-12.798-1.37 1.828 1.37 1.83-2.826 3.693-6.773-9.18 6.887-8.897 2.714 3.41-1.37 1.83 1.37 1.827 9.6-12.8-1.37-1.828-2.744 3.658-1.37-1.83 4.113-5.485-1.373-1.828 6.803-9.143v-3.657l-9.545 12.8 1.37 1.828-4.113 5.486 2.743 3.658-2.743 3.657-4.114-5.485-9.654 13.017 9.654 12.582 4.114-5.487 2.743 3.657-2.743 3.657 4.114 5.486-1.37 1.828 9.544 12.8z"/><path d="M212.56 175.54l-1.37 3.656v5.485h-4.114l-2.743 1.83 2.743 1.83h4.114v5.484l1.37 3.658V175.54z"/></g><g stroke-width="1pt" fill="#e69900"><path d="M212.106 309.02v-3.657l-6.803-9.143 1.372-1.828-4.114-5.486 1.372-1.828 2.743 3.656 1.37-1.828-9.6-12.8-1.37 1.83 1.37 1.828-2.826 3.694-6.773-9.18 6.886-8.897 2.713 3.412-1.37 1.83 1.37 1.827 9.6-12.8-1.37-1.83-2.744 3.658-1.37-1.828 4.113-5.486-1.372-1.828 6.803-9.143v-3.657l-9.545 12.8 1.372 1.828-4.114 5.486 2.743 3.657-2.742 3.657-4.115-5.486-9.653 13.018 9.653 12.582 4.115-5.486 2.743 3.657-2.742 3.656 4.114 5.486-1.37 1.828 9.544 12.8z"/><path d="M212.107 263.308l-1.37 3.657v5.485h-4.115l-2.743 1.83 2.742 1.827h4.114v5.486l1.37 3.657v-21.942z"/></g><g stroke-width="1pt" fill="#e69900"><path d="M212.106 391.3v-3.657l-6.803-9.143 1.372-1.828-4.114-5.486 1.372-1.828 2.743 3.656 1.37-1.828-9.6-12.8-1.37 1.83 1.37 1.828-2.826 3.694-6.773-9.18 6.886-8.897 2.713 3.412-1.37 1.83 1.37 1.827 9.6-12.8-1.37-1.83-2.744 3.658-1.37-1.828 4.113-5.486-1.372-1.828 6.803-9.143v-3.657l-9.545 12.8 1.372 1.828-4.114 5.486 2.743 3.657-2.742 3.657-4.115-5.486-9.653 13.018 9.653 12.582 4.115-5.486 2.743 3.657-2.742 3.656 4.114 5.486-1.37 1.828 9.544 12.8z"/><path d="M212.107 345.588l-1.37 3.657v5.485h-4.115l-2.743 1.83 2.742 1.827h4.114v5.486l1.37 3.657v-21.942z"/></g><g stroke-width="1pt" fill="#e69900"><path d="M47.545 34.74v-3.656l6.803-9.143-1.37-1.827 4.113-5.486-1.37-1.828-2.743 3.656-1.37-1.83L61.204 1.83l1.37 1.828-1.37 1.83 2.827 3.693L70.805 0h2.797l-9.654 12.8-4.114-5.487-2.743 3.657 2.744 3.657-4.114 5.486 1.37 1.828-9.545 12.8zM47.545 0h8.23L53.03 1.83h-4.113v5.484l-1.372 3.657V0z"/></g><g stroke-width="1pt" fill="#e69900"><path d="M212.103 34.74v-3.656L205.3 21.94l1.372-1.827-4.115-5.486 1.372-1.828 2.742 3.656 1.37-1.83-9.6-12.798-1.37 1.828 1.37 1.83-2.826 3.693L188.844 0h-2.798l9.654 12.8 4.115-5.487 2.742 3.657-2.742 3.657 4.114 5.486-1.373 1.828 9.546 12.8zM212.103 0h-8.228l2.742 1.83h4.114v5.484l1.373 3.657V0z"/></g><path d="M116.122 504.693s5.904-10.366 20.782-13.507c14.88-3.142 17.477 6.91 25.978 6.91 8.502 0 21.964-6.91 21.964-6.91s-13.462 13.193-23.853 12.88c-10.39-.315-13.934-6.912-24.56-5.97-10.63.943-20.31 6.91-20.31 6.597z" fill="#e69900"/><path d="M144.845 504.693s-5.904-10.366-20.783-13.507c-14.878-3.142-17.476 6.91-25.978 6.91-8.502 0-21.963-6.91-21.963-6.91s13.462 13.193 23.853 12.88c10.392-.315 13.934-6.912 24.56-5.97 10.63.943 20.312 6.91 20.312 6.597z" fill="#e69900"/><g stroke-width="1pt" fill="#e69900"><path d="M96.193 487.544c-1.31-2.743-4.585-14.71-2.84-16.206 2.62-.996 9.608 11.22 8.953 22.19-4.585 2.493-20.086-.998-19.868-4.24 1.092-4.487 9.825-2.99 13.755-1.744z"/><path d="M86.824 477.085c-.857-3.044-2.208-15.654-.268-16.638 2.718-.254 7.663 13.622 5.324 24.176-4.872 1.177-19.5-6.505-18.784-9.616 1.763-4.09 10.076-.223 13.728 2.078z"/><path d="M79.212 465.383c-.58-3.158-.8-15.893 1.214-16.562 2.722.18 6.397 14.74 3.135 24.848-4.942.398-18.78-9.544-17.795-12.52 2.115-3.783 10.026 1.373 13.447 4.235z"/><path d="M73.21 452.922c-.206-3.24 1.057-15.867 3.125-16.112 2.668.738 4.605 15.882.208 25.195-4.93-.628-17.446-13.31-16.125-16.047 2.53-3.3 9.744 3.43 12.792 6.964z"/><path d="M69.036 439.868c.145-3.246 2.755-15.5 4.827-15.346 2.56 1.24 2.848 16.6-2.507 24.973-4.81-1.565-15.832-16.513-14.23-18.968 2.858-2.78 9.274 5.26 11.91 9.34z"/><path d="M70.2 425.014c-.354 12.998-2.716 13.15-7.03 3.543-1.907-3.63-2.143-18.704-.423-19.266 2.486-.05 7.386 10.7 7.454 15.724z"/></g><g stroke-width="1pt" fill="#e69900"><path d="M164.034 488.912c1.31-2.742 4.585-14.71 2.838-16.205-2.62-.997-9.606 11.22-8.952 22.19 4.585 2.492 20.086-.998 19.87-4.24-1.093-4.487-9.826-2.99-13.756-1.745z"/><path d="M173.402 478.453c.857-3.044 2.21-15.654.27-16.637-2.72-.254-7.664 13.622-5.325 24.175 4.872 1.178 19.5-6.503 18.784-9.615-1.762-4.09-10.076-.223-13.728 2.078z"/><path d="M181.014 466.752c.58-3.158.8-15.893-1.214-16.562-2.722.177-6.396 14.737-3.135 24.846 4.943.398 18.783-9.543 17.796-12.52-2.114-3.782-10.024 1.373-13.446 4.236z"/><path d="M187.016 454.29c.207-3.24-1.057-15.866-3.124-16.11-2.668.737-4.606 15.88-.21 25.193 4.93-.628 17.447-13.31 16.126-16.046-2.528-3.3-9.744 3.428-12.792 6.963z"/><path d="M191.19 441.236c-.144-3.245-2.754-15.5-4.827-15.345-2.56 1.242-2.847 16.6 2.508 24.974 4.81-1.566 15.832-16.513 14.23-18.968-2.858-2.782-9.274 5.258-11.91 9.34z"/><path d="M190.026 426.383c.354 12.998 2.717 13.15 7.03 3.542 1.908-3.63 2.143-18.703.423-19.265-2.486-.052-7.386 10.698-7.454 15.723z"/></g><g transform="matrix(1 0 0 1.3 188.3 -77)"><path d="M-3.543 290.55h-5.315v3.543h-5.315v3.543h-21.26l-3.543 3.544 1.77 1.77h8.86l1.77-1.77h-8.857l1.772-1.772h12.4l-5.314 5.315h-12.402l-3.544-1.772-3.543 1.772h-12.402l-5.315-5.316 12.402.002 1.77 1.772-8.857-.002 1.772 1.773h8.858l1.772-1.77-3.544-3.544h-19.488v-3.543h-5.315v-3.543h-5.315v-15.945h5.315v-3.543h5.315v-3.543h19.488l3.544-3.545-1.772-1.77h-8.858l-1.772 1.772 8.858-.002-1.77 1.772-12.403.002 5.315-5.318h12.402l3.543 1.772 3.544-1.772h12.402l5.315 5.315h-12.4l-1.773-1.772h8.858l-1.772-1.77h-8.858l-1.77 1.77 3.542 3.544h21.26v3.542h5.315v3.543h5.315v15.945z" transform="matrix(1.5 0 0 1.2 3.5 -39.5)" stroke="#000" stroke-width=".133" fill="#980000"/><path d="M375.59 499.67v24.803h10.63v7.02h10.63v7.086h35.432l14.174 10.63 14.173-10.63h38.975v-7.02l10.63-.068v-7.087h10.63v-24.803h-10.63v-7.086l-10.63.068v-7.155H460.63l-14.174-10.63-14.174 10.63H396.85v7.154h-10.63v7.086h-10.63z" transform="matrix(.7 0 0 .6 -392 -6.5)" stroke="#e69900" stroke-width="1.422" fill="#004e00"/><path d="M-75.6 296.644l-15.822 10.984v-10.984H-75.6zM-43.97 296.644l15.822 10.985v-10.986H-43.97zM-75.6 325.208l-15.822-10.984v10.984H-75.6zM-43.965 325.208l15.82-10.985v10.985h-15.82zM-38.69 303.233l-5.272 4.394h10.547l-5.274-4.394zM-80.877 303.233l-5.273 4.394h10.547l-5.274-4.394zM-80.877 318.622l-5.273-4.394h10.547l-5.274 4.394zM-38.687 318.622l-5.273-4.394h10.547l-5.274 4.394z" fill="#980000"/><path d="M-59.787 329.602l-5.273-4.394h10.547l-5.274 4.394zM-59.787 307.632l-5.273-4.394h10.547l-5.274 4.394zM-59.787 292.25l-5.273 4.393h10.547l-5.274-4.394zM-59.787 314.217l-5.273 4.394h10.547l-5.274-4.393z" fill="#e69900"/><path transform="matrix(.7 0 0 .6 -392 -6.5)" stroke="#000" stroke-width=".133" fill="#e69900" d="M467.72 506.69h14.173v3.543H467.72z"/><path transform="matrix(.7 0 0 .6 -392 -6.5)" stroke="#000" stroke-width=".133" fill="#c00" d="M414.57 510.24h7.087v3.543h-7.087zM471.26 510.24h7.087v3.543h-7.087z"/><path transform="matrix(.7 0 0 .6 -392 -6.5)" stroke="#000" stroke-width=".133" fill="#900" d="M439.37 488.98h14.173v3.543H439.37zM439.37 496.06h14.173v3.543H439.37z"/><path transform="matrix(.7 0 0 .6 -392 -6.5)" stroke="#000" stroke-width=".133" fill="#900" d="M435.83 492.52h21.26v3.543h-21.26zM439.37 524.41h14.173v3.543H439.37zM439.37 531.5h14.173v3.543H439.37z"/><path transform="matrix(.7 0 0 .6 -392 -6.5)" stroke="#000" stroke-width=".133" fill="#900" d="M435.83 527.95h21.26v3.543h-21.26z"/><path transform="matrix(.7 0 0 .6 -392 -6.5)" stroke="#000" stroke-width=".133" fill="#e69900" d="M467.72 513.78h14.173v3.543H467.72zM411.02 506.69h14.173v3.543H411.02zM411.02 513.78h14.173v3.543H411.02z"/><path transform="matrix(.7 0 0 .6 -392 -6.5)" stroke="#000" stroke-width=".133" fill="#e69900" d="M407.48 510.24h7.087v3.543h-7.087zM421.65 510.24h7.087v3.543h-7.087zM464.17 510.24h7.087v3.543h-7.087zM478.35 510.24h7.087v3.543h-7.087z"/><ellipse fill="#fff" transform="matrix(.7 0 0 .6 -374.1 -38.9)" cx="413.68" rx=".886" cy="581.99" ry=".886"/><ellipse fill="#fff" transform="matrix(.7 0 0 .6 -367.6 -38.9)" cx="413.68" rx=".886" cy="581.99" ry=".886"/><ellipse fill="#fff" transform="matrix(.7 0 0 .6 -361 -39)" cx="413.68" rx=".886" cy="581.99" ry=".886"/><ellipse fill="#fff" transform="matrix(.7 0 0 .6 -371.5 -41.1)" cx="413.68" rx=".886" cy="581.99" ry=".886"/><ellipse fill="#fff" transform="matrix(.7 0 0 .6 -363.7 -41.1)" cx="413.68" rx=".886" cy="581.99" ry=".886"/><ellipse fill="#fff" transform="matrix(.7 0 0 .6 -371.6 -36.8)" cx="413.68" rx=".886" cy="581.99" ry=".886"/><ellipse fill="#fff" transform="matrix(.7 0 0 .6 -363.7 -36.7)" cx="413.68" rx=".886" cy="581.99" ry=".886"/><ellipse fill="#fff" transform="matrix(.7 0 0 .6 -353.2 -50)" cx="413.68" rx=".886" cy="581.99" ry=".886"/><ellipse fill="#fff" transform="matrix(.7 0 0 .6 -346.6 -50)" cx="413.68" rx=".886" cy="581.99" ry=".886"/><ellipse fill="#fff" transform="matrix(.7 0 0 .6 -340 -50)" cx="413.68" rx=".886" cy="581.99" ry=".886"/><ellipse fill="#fff" transform="matrix(.7 0 0 .6 -350.5 -52.2)" cx="413.68" rx=".886" cy="581.99" ry=".886"/><ellipse fill="#fff" transform="matrix(.7 0 0 .6 -342.7 -52.2)" cx="413.68" rx=".886" cy="581.99" ry=".886"/><ellipse fill="#fff" transform="matrix(.7 0 0 .6 -350.6 -47.9)" cx="413.68" rx=".886" cy="581.99" ry=".886"/><ellipse fill="#fff" transform="matrix(.7 0 0 .6 -342.7 -47.8)" cx="413.68" rx=".886" cy="581.99" ry=".886"/><ellipse fill="#fff" transform="matrix(.7 0 0 .6 -374.2 -60.9)" cx="413.68" rx=".886" cy="581.99" ry=".886"/><ellipse fill="#fff" transform="matrix(.7 0 0 .6 -367.6 -60.9)" cx="413.68" rx=".886" cy="581.99" ry=".886"/><ellipse fill="#fff" transform="matrix(.7 0 0 .6 -361.1 -61)" cx="413.68" rx=".886" cy="581.99" ry=".886"/><ellipse fill="#fff" transform="matrix(.7 0 0 .6 -371.6 -63.1)" cx="413.68" rx=".886" cy="581.99" ry=".886"/><ellipse fill="#fff" transform="matrix(.7 0 0 .6 -363.7 -63.1)" cx="413.68" rx=".886" cy="581.99" ry=".886"/><ellipse fill="#fff" transform="matrix(.7 0 0 .6 -371.6 -58.8)" cx="413.68" rx=".886" cy="581.99" ry=".886"/><ellipse fill="#fff" transform="matrix(.7 0 0 .6 -363.7 -58.7)" cx="413.68" rx=".886" cy="581.99" ry=".886"/><ellipse fill="#fff" transform="matrix(.7 0 0 .6 -395.3 -49.8)" cx="413.68" rx=".886" cy="581.99" ry=".886"/><ellipse fill="#fff" transform="matrix(.7 0 0 .6 -388.7 -49.8)" cx="413.68" rx=".886" cy="581.99" ry=".886"/><ellipse fill="#fff" transform="matrix(.7 0 0 .6 -382.1 -49.9)" cx="413.68" rx=".886" cy="581.99" ry=".886"/><ellipse fill="#fff" transform="matrix(.7 0 0 .6 -392.6 -52)" cx="413.68" rx=".886" cy="581.99" ry=".886"/><ellipse fill="#fff" transform="matrix(.7 0 0 .6 -384.8 -52.1)" cx="413.68" rx=".886" cy="581.99" ry=".886"/><ellipse fill="#fff" transform="matrix(.7 0 0 .6 -392.7 -47.7)" cx="413.68" rx=".886" cy="581.99" ry=".886"/><ellipse fill="#fff" transform="matrix(.7 0 0 .6 -384.8 -47.6)" cx="413.68" rx=".886" cy="581.99" ry=".886"/></g><path d="M138.895 255.755l4.535-2.125 4.535 2.125h-9.07zM125.29 255.755l4.536-2.125 4.534 2.125h-9.07zM111.687 255.755l4.535-2.125 4.534 2.125h-9.07zM138.895 206.885l4.535 2.125 4.535-2.125h-9.07zM125.29 206.885l4.536 2.125 4.534-2.125h-9.07zM111.687 206.885l4.535 2.125 4.534-2.125h-9.07z" fill="#fff"/><path d="M135.115 262.133l-5.29 4.25-5.292-4.25-5.29 4.25-5.29-4.25v2.124l3.526 2.127-1.764 2.124v2.125h1.763l1.763-2.125 1.763 2.125h1.764v-2.125l-1.764-2.124 3.527-2.126 3.528 2.126-1.763 2.124v2.125h1.764l1.764-2.125 1.763 2.125h1.764v-2.125l-1.763-2.124 3.528-2.126 3.527 2.125-1.764 2.125v2.125h1.764l1.763-2.125 1.764 2.125h1.763v-2.125l-1.764-2.125 3.526-2.126v-2.124l-5.29 4.25-5.29-4.25zM135.116 200.497l-5.29-4.25-5.292 4.25-5.29-4.25-5.29 4.25v-2.124l3.527-2.127-1.763-2.124v-2.125h1.764l1.764 2.125 1.763-2.125h1.764v2.125l-1.763 2.124 3.527 2.126 3.528-2.126-1.764-2.124v-2.125h1.764l1.763 2.125 1.763-2.125h1.764v2.125l-1.764 2.124 3.528 2.126 3.527-2.125-1.764-2.125v-2.125h1.763l1.764 2.125 1.763-2.125h1.764v2.125l-1.764 2.125 3.527 2.126v2.124l-5.29-4.25-5.29 4.25zM175.187 235.92l5.67-4.604-5.67-4.605 5.67-4.603-5.67-4.604h2.833l2.836 3.07 2.833-1.536h2.833v1.535l-2.834 1.535 2.833 1.535v1.535h-2.834l-2.834-1.535-2.835 3.07 2.836 3.07 2.833-1.536h2.833v1.535l-2.834 1.536 2.833 1.535v1.536h-2.834l-2.834-1.535-2.835 3.07 2.834 3.07 2.835-1.535h2.833v1.536l-2.834 1.535 2.833 1.535v1.535h-2.834l-2.836-1.535-2.834 3.07h-2.833l5.667-4.605-5.667-4.604zM84.47 235.92l-5.67-4.604 5.67-4.605-5.67-4.603 5.67-4.604h-2.834l-2.836 3.07-2.833-1.536h-2.835v1.535l2.835 1.535-2.835 1.535v1.535h2.835l2.833-1.535 2.835 3.07-2.835 3.07-2.833-1.536h-2.835v1.535l2.835 1.536-2.835 1.535v1.536h2.835l2.833-1.535 2.835 3.07-2.833 3.07-2.835-1.535h-2.835v1.536l2.835 1.535-2.835 1.535v1.535h2.835l2.835-1.535 2.834 3.07h2.833l-5.668-4.605 5.667-4.604z" fill="#004e00"/><path transform="matrix(1.3 0 0 1.2 211.4 -5.6)" stroke="#000" stroke-width=".267" fill="#004e00" d="M-26.575 214.37h1.772v1.772h-1.772z"/><path transform="matrix(1.3 0 0 1.2 211.4 -5.6)" stroke="#000" stroke-width=".267" fill="#004e00" d="M-28.346 216.14h1.772v1.772h-1.772zM-37.205 225h1.772v1.772h-1.772z"/><path transform="matrix(1.3 0 0 1.2 211.4 -5.6)" stroke="#000" stroke-width=".267" fill="#004e00" d="M-35.433 223.23h1.772v1.772h-1.773zM-93.898 223.23h1.772v1.772h-1.772zM-102.76 214.37h1.772v1.772h-1.772zM-100.98 216.14h1.772v1.772h-1.772zM-100.98 177.17h1.772v1.772h-1.772zM-102.76 178.94h1.772v1.772h-1.772zM-92.126 168.31h1.772v1.772h-1.772z"/><path transform="matrix(1.3 0 0 1.2 211.4 -5.6)" stroke="#000" stroke-width=".267" fill="#004e00" d="M-93.898 170.08h1.772v1.772h-1.772zM-37.205 168.31h1.772v1.772h-1.772z"/><path transform="matrix(1.3 0 0 1.2 211.4 -5.6)" stroke="#000" stroke-width=".267" fill="#004e00" d="M-35.433 170.08h1.772v1.772h-1.773zM-28.346 177.17h1.772v1.772h-1.772z"/><path transform="matrix(1.3 0 0 1.2 211.4 -5.6)" stroke="#000" stroke-width=".267" fill="#004e00" d="M-26.575 178.94h1.772v1.772h-1.772zM-92.126 225h1.772v1.772h-1.772z"/><path d="M122.907 231.314h-6.683v-4.178l4.455.003v-3.918h4.456v-3.596h4.456v4.495c-3.69 0-6.685 3.047-6.685 7.194z" fill="#fff"/><path d="M136.274 231.314h6.683v-4.178l-4.455.003v-3.918h-4.457v-3.596h-4.456v4.495c3.69 0 6.684 3.047 6.684 7.194z" fill="#e69900"/><path d="M136.274 231.314h6.683v4.177h-4.455v3.915h-4.457v3.597h-4.456v-4.496c3.69 0 6.684-3.045 6.684-7.192z" fill="#fff"/><path d="M122.907 231.314h-6.683v4.177h4.455v3.915h4.456v3.597h4.456v-4.496c-3.69 0-6.685-3.045-6.685-7.192z" fill="#e69900"/><path d="M136.273 231.317h-6.684v-7.193c3.688 0 6.683 3.223 6.683 7.193z" fill="#004e00"/><path d="M136.273 231.31h-6.684v7.193c3.688 0 6.683-3.222 6.683-7.192z" fill="#980000"/><path d="M122.908 231.31h6.684v7.193c-3.69 0-6.684-3.222-6.684-7.192z" fill="#004e00"/><path d="M122.908 231.317h6.684v-7.193c-3.69 0-6.684 3.223-6.684 7.193z" fill="#980000"/><path d="M136.627 257.876l-6.802-4.25-6.802 4.25-6.802-4.25-6.8 4.25v-2.125l4.534-2.125-2.268-2.125v-2.125h2.268l2.267 2.125 2.268-2.125h2.268v2.125l-2.268 2.125 4.535 2.125 4.535-2.125-2.268-2.125v-2.125h2.268l2.267 2.125 2.267-2.125h2.268v2.125l-2.268 2.125 4.535 2.125 4.535-2.124-2.267-2.126v-2.125h2.267l2.267 2.125 2.266-2.125h2.268v2.125l-2.268 2.126 4.535 2.125v2.126l-6.8-4.25-6.803 4.25zM136.627 204.757l-6.802 4.25-6.802-4.25-6.802 4.25-6.8-4.25v2.124l4.534 2.128-2.268 2.124v2.126h2.268l2.267-2.126 2.268 2.126h2.268v-2.126l-2.268-2.124 4.535-2.126 4.535 2.126-2.268 2.124v2.126h2.268l2.267-2.126 2.267 2.126h2.268v-2.126l-2.268-2.124 4.535-2.126 4.535 2.125-2.267 2.125v2.126h2.267l2.267-2.126 2.266 2.126h2.268v-2.126l-2.268-2.125 4.535-2.126v-2.123l-6.8 4.25-6.803-4.25zM161.562 236.626l-3.402-5.313 3.402-5.313-3.402-5.313 3.402-5.312h-1.7l-1.702 3.542-1.7-1.772h-1.7v1.772l1.7 1.77-1.7 1.77v1.772h1.7l1.7-1.772 1.7 3.542-1.7 3.542-1.7-1.77h-1.7v1.77l1.7 1.77-1.7 1.772v1.77h1.7l1.7-1.77 1.7 3.542-1.7 3.542-1.7-1.77h-1.7v1.77l1.7 1.77-1.7 1.772v1.77h1.7l1.7-1.77 1.702 3.542h1.7l-3.4-5.313 3.4-5.314z" fill="#004e00"/><path d="M-100.98 177.17l-7.087 7.086v26.575l7.087 7.088h31.89l7.086-7.087v-26.574l-7.087-7.086h-31.89zm-1.772-5.316l-17.717 17.716v15.945l17.718 17.717h35.433l17.717-17.717V189.57l-17.716-17.716h-35.432z" transform="matrix(1.3 0 0 1.2 238.7 -5.6)" stroke="#000" stroke-width=".427" fill="#004e00"/><path d="M-93.898 147.05l3.543 5.315 3.544-5.315H-93.9z" transform="matrix(1 0 0 .8 215.1 140.3)" stroke="#000" stroke-width=".267" fill="#e69900"/><path d="M-93.898 147.05l3.543 5.315 3.544-5.315H-93.9z" transform="matrix(1 0 0 -.8 215.1 322.3)" stroke="#000" stroke-width=".267" fill="#e69900"/><path d="M-93.898 147.05l3.543 5.315 3.544-5.315H-93.9z" transform="matrix(1 0 0 -.8 229.6 322.3)" stroke="#000" stroke-width=".267" fill="#e69900"/><path d="M-93.898 147.05l3.543 5.315 3.544-5.315H-93.9z" transform="matrix(1 0 0 .8 229.6 140.3)" stroke="#000" stroke-width=".267" fill="#e69900"/><path d="M-93.898 147.05l3.543 5.315 3.544-5.315H-93.9z" transform="matrix(1 0 0 -.8 207.8 322.3)" stroke="#000" stroke-width=".267" fill="#980000"/><path d="M-93.898 147.05l3.543 5.315 3.544-5.315H-93.9z" transform="matrix(1 0 0 -.8 222.3 322.3)" stroke="#000" stroke-width=".267" fill="#980000"/><path d="M-93.898 147.05l3.543 5.315 3.544-5.315H-93.9z" transform="matrix(1 0 0 -.8 236.8 322.3)" stroke="#000" stroke-width=".267" fill="#980000"/><path d="M-104.53 180.71l3.544-3.544h-3.544v3.544z" transform="matrix(1.9 0 0 -1.8 303.3 576.6)" stroke="#000" stroke-width=".267" fill="#980000"/><path d="M98.084 236.626l3.402-5.313L98.084 226l3.402-5.313-3.402-5.312h1.7l1.702 3.542 1.7-1.772h1.7v1.772l-1.7 1.77 1.7 1.77v1.772h-1.7l-1.7-1.772-1.7 3.542 1.7 3.542 1.7-1.77h1.7v1.77l-1.7 1.77 1.7 1.772v1.77h-1.7l-1.7-1.77-1.7 3.542 1.7 3.542 1.7-1.77h1.7v1.77l-1.7 1.77 1.7 1.772v1.77h-1.7l-1.7-1.77-1.702 3.542h-1.7l3.4-5.313-3.4-5.314z" fill="#004e00"/><path d="M-76.18 154.13h7.086l1.77 1.772-1.77 1.77h-7.087v-3.542z" transform="matrix(1.3 0 0 1.1 261.3 59.2)" stroke="#000" stroke-width=".267" fill="#980000"/><path d="M-99.213 180.71l-3.543 3.544v26.575l3.543 3.542h-5.316l.002-33.662h5.315z" transform="matrix(1.3 0 0 1.2 229.6 -5.6)" stroke="#000" stroke-width=".4" fill="#980000"/><path d="M-93.898 147.05l3.543 5.315 3.544-5.315H-93.9z" transform="matrix(1 0 0 .8 207.8 140.3)" stroke="#000" stroke-width=".267" fill="#980000"/><path d="M-93.898 147.05l3.543 5.315 3.544-5.315H-93.9z" transform="matrix(1 0 0 .8 222.3 140.3)" stroke="#000" stroke-width=".267" fill="#980000"/><path d="M-93.898 147.05l3.543 5.315 3.544-5.315H-93.9z" transform="matrix(1 0 0 .8 236.8 140.3)" stroke="#000" stroke-width=".267" fill="#980000"/><path d="M-99.212 180.71l-3.544 3.544v26.575l3.544 3.542h-5.315V180.71h5.315z" transform="matrix(-1.3 0 0 1.2 30.1 -5.6)" stroke="#000" stroke-width=".4" fill="#980000"/><path d="M-104.53 180.71l3.544-3.544h-3.544v3.544z" transform="matrix(-1.9 0 0 -1.8 -43.6 576.6)" stroke="#000" stroke-width=".267" fill="#980000"/><path d="M-104.53 180.71l3.544-3.544h-3.544v3.544z" transform="matrix(-1.9 0 0 1.8 -43.6 -114)" stroke="#000" stroke-width=".267" fill="#980000"/><path d="M-104.53 180.71l3.544-3.544h-3.544v3.544z" transform="matrix(1.9 0 0 1.8 303.3 -114)" stroke="#000" stroke-width=".267" fill="#980000"/><path d="M-100.98 177.17l-7.087 7.086v26.575l7.087 7.088h31.89l7.086-7.087v-26.574l-7.087-7.086h-31.89zm0-1.773l-8.86 8.858v26.575l8.86 8.858h31.89l8.857-8.858v-26.575l-8.86-8.858h-31.888z" transform="matrix(1.3 0 0 1.2 238.7 -5.6)" stroke="#000" stroke-width=".427" fill="#004e00"/><path d="M-76.18 154.13h7.086l1.77 1.772-1.77 1.77h-7.087v-3.542z" transform="matrix(1.3 0 0 1.1 261.3 63)" stroke="#000" stroke-width=".267" fill="#e69900"/><path d="M-76.18 154.13h7.086l1.77 1.772-1.77 1.77h-7.087v-3.542z" transform="matrix(1.3 0 0 1.1 261.3 66.8)" stroke="#000" stroke-width=".267" fill="#980000"/><path d="M-76.18 154.13h7.086l1.77 1.772-1.77 1.77h-7.087v-3.542z" transform="matrix(1.3 0 0 1.1 261.3 70.6)" stroke="#000" stroke-width=".267" fill="#e69900"/><path d="M-76.18 154.13h7.086l1.77 1.772-1.77 1.77h-7.087v-3.542z" transform="matrix(1.3 0 0 1.1 261.3 55.3)" stroke="#000" stroke-width=".267" fill="#e69900"/><path d="M-76.18 154.13h7.086l1.77 1.772-1.77 1.77h-7.087v-3.542z" transform="matrix(-1.3 0 0 1.1 -1.7 59.2)" stroke="#000" stroke-width=".267" fill="#980000"/><path d="M-76.18 154.13h7.086l1.77 1.772-1.77 1.77h-7.087v-3.542z" transform="matrix(-1.3 0 0 1.1 -1.7 63)" stroke="#000" stroke-width=".267" fill="#e69900"/><path d="M-76.18 154.13h7.086l1.77 1.772-1.77 1.77h-7.087v-3.542z" transform="matrix(-1.3 0 0 1.1 -1.7 66.8)" stroke="#000" stroke-width=".267" fill="#980000"/><path d="M-76.18 154.13h7.086l1.77 1.772-1.77 1.77h-7.087v-3.542z" transform="matrix(-1.3 0 0 1.1 -1.7 70.6)" stroke="#000" stroke-width=".267" fill="#e69900"/><path d="M-76.18 154.13h7.086l1.77 1.772-1.77 1.77h-7.087v-3.542z" transform="matrix(-1.3 0 0 1.1 -1.7 55.3)" stroke="#000" stroke-width=".267" fill="#e69900"/><path d="M-100.98 178.94v37.205h8.858v8.858h56.693v-8.858h8.86V178.94h-8.86v-8.858H-92.12v8.858h-8.858zm1.77 1.772v33.66h8.86v8.86h53.15v-8.86h8.858v-33.66H-37.2v-8.86h-53.15v8.86h-8.86z" transform="matrix(1.3 0 0 1.2 211.4 -5.6)" stroke="#000" stroke-width=".267" fill="#970000"/><g><path d="M-28.347 69.094l-5.315-7.087v-5.315l-5.315-5.314h-10.63l-8.858-5.315H-86.81l-8.86 5.315h-10.63l-5.315 5.315v5.315l-5.315 7.086v14.173l5.315 7.087v5.315l5.315 5.314h10.63l8.86 5.315h28.345l8.858-5.316h10.63l5.315-5.315v-5.316l5.315-7.087V69.093z" transform="matrix(1.3 0 0 1.2 222.8 -36.7)" stroke="#000" stroke-width=".267" fill="#980000"/><path d="M75.427 51.2v6.13l6.802 8.173v6.13l6.8 6.13h13.605l11.337 6.132h15.872l-.002-32.696H75.427z" fill="#e69900"/><path d="M110.69 65.498l-8.28 5.255H97.46l1.65 1.75-3.298 3.505 1.648 1.75 4.947-1.75 1.648 1.75.762-4.68 9.13-5.54-3.26-2.04z" fill="#980000"/><path d="M101.625 61.41l-8.28 5.256h-4.948l1.65 1.75-3.298 3.505 1.647 1.753 4.947-1.752 1.65 1.753.76-4.68 9.133-5.54-3.262-2.042zM97.087 53.24l-8.282 5.256H83.86l1.648 1.75-3.298 3.505 1.65 1.753 4.945-1.752 1.65 1.753.76-4.68 9.133-5.54-3.26-2.042z" fill="#980000"/><path d="M184.224 51.2v-6.132l-6.802-8.174v-6.13l-6.802-6.13h-13.604L145.68 18.5h-15.873l.002 32.697h54.414z" fill="#e69900"/><path d="M129.83 83.894h-4.198l-4.87-4.087h-7.726l-4.2-2.044 2.1-2.043 4.2 2.043h4.198l4.198-6.13 6.298 2.043v4.087h-6.298l6.298 6.13z" fill="#980000"/><path d="M75.427 51.2v-6.132l6.802-8.174v-6.13l6.8-6.13h13.605l11.337-6.132h15.872l-.002 32.697H75.427z" fill="#fff"/><path d="M129.83 18.5h-4.198l-4.87 4.086h-7.726l-4.2 2.043 2.1 2.043 4.2-2.044h4.198l4.198 6.13 6.298-2.044V24.63h-6.298l6.298-6.13z" fill="#980000"/><path d="M129.826 18.5h4.2l4.87 4.086h7.725l4.2 2.043-2.1 2.043-4.2-2.044h-4.197l-4.2 6.13-6.297-2.044V24.63h6.298l-6.298-6.13z" fill="#980000"/><path d="M184.224 51.2v6.13l-6.802 8.173v6.13l-6.802 6.13h-13.604l-11.337 6.132h-15.873l.002-32.696h54.414z" fill="#fff"/><path d="M129.826 83.894h4.2l4.87-4.087h7.725l4.2-2.044-2.1-2.043-4.2 2.043h-4.197l-4.2-6.13-6.297 2.043v4.087h6.298l-6.298 6.13zM101.625 40.978l-8.28-5.255h-4.948l1.65-1.75-3.298-3.505 1.647-1.752 4.947 1.752 1.65-1.752.76 4.68 9.133 5.54-3.262 2.042zM148.96 36.895l8.282-5.256h4.947l-1.65-1.752 3.297-3.503-1.648-1.752-4.948 1.752-1.65-1.752-.76 4.68-9.132 5.54 3.26 2.042z" fill="#980000"/><path d="M110.69 36.895l-8.28-5.256H97.46l1.65-1.752-3.298-3.503 1.648-1.752 4.947 1.752 1.648-1.752.762 4.68 9.13 5.54-3.26 2.042zM97.087 49.156L88.805 43.9H83.86l1.648-1.75-3.298-3.504 1.65-1.752 4.945 1.752 1.65-1.752.76 4.68 9.133 5.54-3.26 2.042z" fill="#980000"/><path d="M79.453 51.21h2.1l2.1 2.042 2.1-2.043 44.085-.003V79.82h-2.1l2.1 2.043v2.043l-6.297-6.13v-2.044h2.1v2.044h2.1v-2.044l-17.047-9.026h-14.36V57.85L89.95 53.25h-4.198l-2.1 2.043 2.1 2.045h-2.1l-4.2-6.13z" fill="#fff"/><path d="M79.453 51.188h2.1l2.1-2.043 2.1 2.043 44.085.002V22.578h-2.1l2.1-2.044V18.49l-6.297 6.132v2.043h2.1v-2.043h2.1v2.043l-17.047 9.026h-14.36v8.858l-6.382 4.597h-4.198l-2.1-2.043 2.1-2.044h-2.1l-4.2 6.13z" fill="#e69900"/><path d="M89.025 51.187h40.81V75.71L111.7 65.492H98.095v-8.174l-9.07-6.13z" fill="#004e00"/><path d="M158.026 40.978l8.28-5.255h4.948l-1.65-1.75 3.298-3.505-1.648-1.752-4.947 1.752-1.65-1.752-.76 4.68-9.133 5.54 3.262 2.042zM162.564 49.156l8.282-5.255h4.946l-1.65-1.75 3.3-3.504-1.65-1.752-4.946 1.752-1.65-1.752-.76 4.68-9.133 5.54 3.26 2.042z" fill="#980000"/><path d="M180.198 51.188h-2.1l-2.1-2.043-2.1 2.043-44.085.002V22.578h2.1l-2.1-2.044V18.49l6.297 6.132v2.043h-2.1v-2.043h-2.098v2.043l17.046 9.026h14.36v8.858l6.382 4.597h4.2l2.098-2.043-2.1-2.044h2.1l4.2 6.13z" fill="#fff"/><path d="M170.626 51.21h-40.81V26.687l18.137 10.218h13.603v8.174l9.07 6.13z" fill="#004e00"/><path d="M148.96 65.498l8.282 5.255h4.947l-1.65 1.75 3.297 3.505-1.648 1.75-4.948-1.75-1.65 1.75-.76-4.68-9.132-5.54 3.26-2.04z" fill="#980000"/><path d="M158.026 61.41l8.28 5.256h4.948l-1.65 1.75 3.298 3.505-1.648 1.753-4.947-1.752-1.65 1.753-.76-4.68-9.133-5.54 3.262-2.042zM162.564 53.24l8.282 5.256h4.946l-1.65 1.75 3.3 3.505-1.65 1.753-4.946-1.752-1.65 1.753-.76-4.68-9.133-5.54 3.26-2.042z" fill="#980000"/><path d="M180.198 51.21h-2.1l-2.1 2.042-2.1-2.043-44.085-.003V79.82h2.1l-2.1 2.043v2.043l6.297-6.13v-2.044h-2.1v2.044h-2.098v-2.044l17.046-9.026h14.36V57.85l6.382-4.598h4.2l2.098 2.043-2.1 2.045h2.1l4.2-6.13z" fill="#e69900"/><path d="M170.626 51.187h-40.81V75.71l18.137-10.218h13.603v-8.174l9.07-6.13z" fill="#980000"/><path d="M89.025 51.21h40.81V26.687L111.7 36.905H98.095v8.174l-9.07 6.13z" fill="#980000"/><path d="M134.305 51.198l11.388-6.13h6.802l-2.268-2.044 4.535-4.088-2.267-2.043-6.802 2.043-2.268-2.043-1.047 5.46-12.557 6.464 4.485 2.38zM125.346 51.187l-11.388 6.132h-6.802l2.268 2.042-4.535 4.087 2.266 2.043 6.802-2.044 2.268 2.043 1.047-5.46 12.557-6.465-4.484-2.38z" fill="#980000"/><path d="M125.346 51.198l-11.388-6.13h-6.802l2.268-2.044-4.535-4.088 2.266-2.043 6.802 2.043 2.268-2.043 1.047 5.46 12.557 6.464-4.484 2.38zM134.305 51.187l11.388 6.132h6.802l-2.268 2.042 4.535 4.087-2.267 2.043-6.802-2.044-2.268 2.043-1.047-5.46-12.557-6.465 4.485-2.38z" fill="#004e00"/><path d="M116.223 51.2l13.603-10.22L143.43 51.2l-13.604 10.217L116.223 51.2z" fill="#fff"/><path d="M85.742 55.282l2.1 2.043-2.1 2.044h-2.1l-6.298-8.175h2.1l4.198 6.13h2.1l-2.1-2.043 2.1-2.044h4.198v2.044h-4.198z" fill="#980000"/><path d="M85.742 47.11l2.1-2.044-2.1-2.044h-2.1l-6.298 8.174h2.1l4.198-6.13h2.1l-2.1 2.043 2.1 2.043h4.198V47.11h-4.198zM173.913 55.282l-2.1 2.043 2.1 2.044h2.1l6.297-8.175h-2.1l-4.198 6.13h-2.1l2.1-2.043-2.1-2.044h-4.198v2.044h4.2z" fill="#980000"/><path d="M173.913 47.11l-2.1-2.044 2.1-2.044h2.1l6.297 8.174h-2.1l-4.198-6.13h-2.1l2.1 2.043-2.1 2.043h-4.198V47.11h4.2zM127.727 43.022h4.198V59.37h-4.198z" fill="#980000"/><path fill="#980000" d="M121.43 47.11h16.793v8.174H121.43z"/></g><g><path d="M333.07 170.08l-10.63 5.315v8.858l10.63 5.315h10.63l10.63-5.315v-8.858l-10.63-5.315h-10.63z" transform="matrix(3.6 0 0 3.8 -1073.2 -292.2)" stroke="#000" stroke-width=".07" fill="#004e00"/><path d="M87.17 396.27h2.284v-4.19h4.572v4.19h2.285v-9.777h-2.284v4.19h-4.572v-4.19H87.17v9.778zM145.07 428.865h2.285v-4.19h4.572v4.19h2.285v-9.78h-2.285v4.192h-4.572v-4.19h-2.285v9.778zM108.502 379.974h2.285v-4.19h4.573v4.19h2.285v-9.778h-2.285v4.19h-4.573v-4.19h-2.285v9.778zM142.025 379.974h2.285v-4.19h4.573v4.19h2.285v-9.778h-2.285v4.19h-4.573v-4.19h-2.285v9.778zM163.348 396.27h2.285v-4.19h4.573v4.19h2.285v-9.777h-2.284v4.19h-4.573v-4.19h-2.285v9.778zM163.348 412.568h2.285v-4.19h4.573v4.19h2.285v-9.78h-2.284v4.192h-4.573v-4.19h-2.285v9.778z" fill="#c00"/><path d="M129.827 435.39v-35.856h54.856v16.298l-36.57 19.557h-18.286zM129.828 363.673v35.856H74.972v-16.3l36.57-19.557h18.286z" fill="#e69900"/><path d="M129.827 363.673v35.856h54.856v-16.3l-36.57-19.557h-18.286zM129.828 435.39v-35.855H74.97v16.297l36.57 19.557h18.286z" fill="#fff"/><path d="M-177.16 368.5h21.26l-21.26-10.63v10.63zm24.803-1.772v17.717h-33.662v-14.173h-7.085l-8.858-5.315v-12.402l5.314-5.315h-7.085v17.717h-1.772v-19.49h17.717l35.433 21.26z" transform="matrix(1 0 0 .9 341.9 45.9)" stroke="#000" stroke-width=".133" fill="#e69900"/><path d="M111.51 388.116v22.814h5.484l12.802 6.52 12.8-6.52h5.485v-22.814h-5.483l-12.8-6.52-12.803 6.52h-5.484z" fill="#980000"/><path d="M-177.16 368.5h21.26l-21.26-10.63v10.63zm24.803-1.772v17.717h-33.662v-14.173h-7.085l-8.858-5.315v-12.402l5.314-5.315h-7.085v17.717h-1.772v-19.49h17.717l35.433 21.26z" transform="matrix(-1 0 0 -.9 -82.3 753.2)" stroke="#000" stroke-width=".133" fill="#e69900"/><path d="M-177.16 368.5h21.26l-21.26-10.63v10.63zm24.803-1.772v17.717h-33.662v-14.173h-7.085l-8.858-5.315v-12.402l5.314-5.315h-7.085v17.717h-1.772v-19.49h17.717l35.433 21.26z" transform="matrix(-1 0 0 .9 -82.3 45.9)" stroke="#000" stroke-width=".133" fill="#fff"/><path d="M-177.16 368.5h21.26l-21.26-10.63v10.63zm24.803-1.772v17.717h-33.662v-14.173h-7.085l-8.858-5.315v-12.402l5.314-5.315h-7.085v17.717h-1.772v-19.49h17.717l35.433 21.26z" transform="matrix(1 0 0 -.9 341.9 753.2)" stroke="#000" stroke-width=".133" fill="#fff"/><path d="M85.95 412.578h2.286v-4.89h4.573v4.89h2.284V401.17H92.81v4.89h-4.574v-4.89H85.95v11.408zM107.883 428.875h2.285v-4.89h4.573v4.89h2.286v-11.41h-2.285v4.89h-4.572v-4.89h-2.285v11.41zM85.95 386.497h2.286v4.89h4.573v-4.89h2.284v11.408H92.81v-4.89h-4.574v4.89H85.95v-11.408zM107.883 370.198h2.285v4.89h4.573v-4.89h2.286v11.408h-2.285v-4.89h-4.572v4.89h-2.285v-11.408zM142.634 428.875h2.285v-4.89h4.572v4.89h2.285v-11.41h-2.285v4.89h-4.573v-4.89h-2.286v11.41zM164.576 397.902h2.285v-4.89h4.574v4.89h2.285v-11.41h-2.286v4.89h-4.573v-4.89h-2.284v11.41z" fill="#980000"/><path d="M142.634 428.875h2.285v-4.89h4.572v4.89h2.285v-11.41h-2.285v4.89h-4.573v-4.89h-2.286v11.41z" fill="#980000"/><path d="M142.634 428.875h2.285v-4.89h4.572v4.89h2.285v-11.41h-2.285v4.89h-4.573v-4.89h-2.286v11.41zM164.576 412.568h2.285v-4.89h4.574v4.89h2.285v-11.41h-2.286v4.89h-4.573v-4.89h-2.284v11.41zM142.634 381.605h2.285v-4.89h4.572v4.89h2.285v-11.41h-2.285v4.89h-4.573v-4.89h-2.286v11.41z" fill="#980000"/><path d="M131.658 399.532l7.314-5.944h3.657v2.97h-3.658v1.487h5.485v-5.942h-5.485v-4.457h-7.314v4.456h1.83v-2.972h3.655v2.972l-7.313 5.943-7.315-5.942v-2.97h3.657v2.97h1.83v-4.457h-7.315v4.457H115.2v5.944h5.487v-1.486h-3.658v-2.97h3.657l7.314 5.94-7.313 5.943h-3.657v-2.97h3.657v-1.487h-5.485v5.943h5.485v4.455l7.314.002v-4.458h-1.827v2.97h-3.657v-2.97l7.313-5.943 7.314 5.944v2.972h-3.656v-2.97h-1.83v4.455h7.314v-4.456h5.486v-5.943h-5.486v1.486h3.658v2.972h-3.658l-7.314-5.943z" fill="#004e00"/></g><g transform="translate(204.8 18.2)"><path d="M-122.352 134.285l3.43-3.73h20.573l15.43-16.784h20.575l15.43 16.785h20.575l3.43 3.73-3.43 3.73h-20.574l-15.43 16.783H-82.92l-15.43-16.784h-20.573l-3.43-3.73z" fill="#980000"/><path d="M372.05 391.54l1.903-1.95h22.834l17.126-19.488h19.03l17.125 19.49h22.835l1.903 1.948-1.903 1.948h-22.835l-15.223 17.54H412.01l-15.223-17.54h-22.834l-1.903-1.948z" transform="matrix(.9 0 0 .9 -466.9 -221.3)" stroke="#000" stroke-width=".29" fill="#980000"/><path d="M-64.07 136.148l6.857 7.458-3.428 3.73-1.716-1.865h-1.714v1.866l1.714 1.865h3.43l3.428-3.73v-3.73l-6.857-7.457 6.857-7.46v-3.73l-3.43-3.73h-3.427l-1.715 1.865v1.865h1.715l1.714-1.865 3.427 3.73-6.857 7.46-6.86-7.46 6.86-7.46v-1.863h-1.715l-6.857 7.458-6.86-7.46h-1.714v1.865l6.86 7.46-6.86 7.46-6.858-7.46 3.43-3.73 1.714 1.865h1.714v-1.865l-1.714-1.864h-3.43l-3.43 3.73v3.73l6.86 7.46-6.86 7.458v3.73l3.43 3.73h3.43l1.714-1.865v-1.865h-1.714l-1.715 1.865-3.43-3.73 6.86-7.46 6.857 7.46-6.858 7.46v1.864h1.714l6.86-7.458 6.857 7.46h1.714v-1.866l-6.86-7.46 6.86-7.458zm-8.573-9.325l-6.86 7.46 6.86 7.46 6.858-7.46-6.858-7.46zM-82.917 154.79v14.918l1.715-1.865 1.715 1.865 1.714-1.865 1.714 1.865 1.716-1.865 1.714 1.865 1.715-1.865 1.715 1.865 1.714-1.865 1.715 1.865 1.712-1.865 1.715 1.865V154.79h-20.574zM-62.353 113.79V98.872l-1.715 1.865-1.715-1.865-1.714 1.865-1.714-1.865-1.716 1.865-1.714-1.865-1.715 1.865-1.715-1.865-1.714 1.865-1.715-1.865-1.712 1.865-1.715-1.865v14.918h20.574zM-33.205 130.58v-14.918l-1.715 1.865-1.713-1.865-1.715 1.865-1.715-1.865-1.714 1.865-1.715-1.865-1.714 1.865-1.714-1.865v14.918h13.715zM-98.355 130.58v-14.918l-1.715 1.865-1.713-1.865-1.715 1.865-1.715-1.865-1.714 1.865-1.715-1.865-1.714 1.865-1.714-1.865v14.918h13.715zM-33.205 138.01v14.918l-1.715-1.865-1.713 1.865-1.715-1.865-1.715 1.865-1.714-1.865-1.715 1.865-1.714-1.865-1.714 1.865V138.01h13.715zM-98.355 138.01v14.918l-1.715-1.865-1.713 1.865-1.715-1.865-1.715 1.865-1.714-1.865-1.715 1.865-1.714-1.865-1.714 1.865V138.01h13.715z" fill="#e69900"/><path d="M-62.347 154.79v9.324l1.714-1.866 1.715 1.866 1.714-1.866 1.714 1.866 1.715-1.866 1.714 1.866 1.714-1.866 1.714 1.866 1.715-1.866v-24.242l-15.43 16.784zM-82.933 154.79v9.325l-1.715-1.866-1.715 1.865-1.714-1.866-1.714 1.865-1.716-1.866-1.714 1.865-1.715-1.866-1.714 1.865-1.714-1.866v-24.244l15.43 16.784zM-82.933 113.79v-9.324l-1.714 1.866-1.715-1.866-1.714 1.866-1.714-1.866-1.715 1.866-1.714-1.866-1.714 1.866-1.714-1.866-1.715 1.866v24.242l15.43-16.784zM-62.347 113.79v-9.324l1.714 1.866 1.715-1.866 1.714 1.866 1.714-1.866 1.715 1.866 1.714-1.866 1.714 1.866 1.714-1.866 1.715 1.866v24.242l-15.43-16.784zM-112.078 149.206l-1.715-1.865-1.713 1.866-1.714-1.865-1.715 1.866-1.715-1.865-1.715 1.866-1.713-1.865-1.715 1.866v-29.838l1.714 1.866 1.715-1.866 1.715 1.866 1.714-1.866 1.715 1.866 1.713-1.866 1.714 1.866 1.715-1.866v11.19h-6.857l-3.43 3.73 3.43 3.73h6.857v11.188zM-33.202 149.206l1.715-1.865 1.713 1.866 1.714-1.865 1.715 1.866 1.715-1.865 1.715 1.866 1.713-1.865 1.715 1.866v-29.838l-1.714 1.866-1.715-1.866-1.715 1.866-1.714-1.866-1.715 1.866-1.713-1.866-1.714 1.866-1.715-1.866v11.19h6.857l3.43 3.73-3.43 3.73h-6.857v11.188z" fill="#004e00"/><path d="M-91.36 155.978s-1.428 1.474-1.428 2.21c-.028.687 1.524 2.227 2.143 2.21.81.017 2.143-1.473 2.143-2.21 0-.736-1.43-2.21-1.43-2.21v-2.948s3.104 5.068 3.104 2.857c0-1.586-3.103-4.33-3.103-4.33h-1.43s-3.103 3.213-3.103 4.33c0 2.21 3.103-2.857 3.103-2.857v2.948z" fill="#fff"/><path d="M-73.497 161.67s-1.715 2.062-1.715 3.094c-.034.962 1.83 3.118 2.572 3.095.97.022 2.572-2.064 2.572-3.096s-1.715-3.095-1.715-3.095v-4.128s3.037 6.75 3.037 3.656c0-2-3.037-5.72-3.037-5.72h-1.714s-3.506 4.656-3.037 5.72c0 3.095 3.037-3.656 3.037-3.656v4.127z" fill="#980000"/><ellipse fill="#004e00" transform="matrix(1 0 0 1.1 -482.4 -277.9)" cx="403.94" rx="3.543" cy="391.54" ry="1.772"/><ellipse fill="#004e00" transform="matrix(1 0 0 1.1 -463.5 -277.9)" cx="403.94" rx="3.543" cy="391.54" ry="1.772"/><ellipse fill="#004e00" transform="matrix(1 0 0 1.1 -444.7 -277.9)" cx="403.94" rx="3.543" cy="391.54" ry="1.772"/><path d="M-91.72 112.76s-1.428-1.474-1.428-2.21c-.028-.688 1.524-2.228 2.143-2.21.81-.018 2.143 1.472 2.143 2.21 0 .736-1.43 2.21-1.43 2.21v2.948s3.104-5.068 3.104-2.857c0 1.587-3.103 4.332-3.103 4.332h-1.43s-3.103-3.214-3.103-4.33c0-2.212 3.103 2.856 3.103 2.856v-2.948z" fill="#fff"/><path d="M-73.857 107.062s-1.715-2.063-1.715-3.095c-.034-.962 1.83-3.118 2.572-3.095.97-.023 2.572 2.063 2.572 3.095s-1.715 3.095-1.715 3.095v4.127s3.037-6.752 3.037-3.657c0 2-3.037 5.72-3.037 5.72h-1.714s-3.506-4.656-3.037-5.72c0-3.095 3.037 3.656 3.037 3.656v-4.128z" fill="#980000"/><path d="M-54.86 155.978s-1.428 1.474-1.428 2.21c-.028.687 1.524 2.227 2.143 2.21.81.017 2.143-1.473 2.143-2.21 0-.736-1.43-2.21-1.43-2.21v-2.948s3.104 5.068 3.104 2.857c0-1.586-3.103-4.33-3.103-4.33h-1.43s-3.103 3.213-3.103 4.33c0 2.21 3.103-2.857 3.103-2.857v2.948zM-55.22 112.76s-1.428-1.474-1.428-2.21c-.028-.688 1.524-2.228 2.143-2.21.81-.018 2.143 1.472 2.143 2.21 0 .736-1.43 2.21-1.43 2.21v2.948s3.104-5.068 3.104-2.857c0 1.587-3.103 4.332-3.103 4.332h-1.43s-3.103-3.214-3.103-4.33c0-2.212 3.103 2.856 3.103 2.856v-2.948z" fill="#fff"/><path d="M-106.273 145.593s-1.9 1.383-1.9 2.074c-.037.644 2.026 2.09 2.85 2.074 1.076.016 2.85-1.382 2.85-2.073 0-.69-1.9-2.074-1.9-2.074v-2.765s3.364 4.523 3.364 2.45c0-1.342-3.364-3.833-3.364-3.833h-1.9s-3.882 3.12-3.363 3.832c0 2.074 3.364-2.45 3.364-2.45v2.766zM-106.673 124.47s-1.9-1.382-1.9-2.073c-.037-.644 2.026-2.09 2.85-2.074 1.076-.015 2.85 1.383 2.85 2.074 0 .69-1.9 2.074-1.9 2.074v2.766s3.364-4.524 3.364-2.45c0 1.342-3.364 3.833-3.364 3.833h-1.9s-3.882-3.12-3.363-3.833c0-2.074 3.364 2.45 3.364 2.45v-2.766zM-40.423 145.15s-1.9 1.384-1.9 2.075c-.037.644 2.026 2.09 2.85 2.074 1.076.014 2.85-1.384 2.85-2.075 0-.69-1.9-2.074-1.9-2.074v-2.764s3.364 4.523 3.364 2.45c0-1.342-3.364-3.833-3.364-3.833h-1.9s-3.882 3.12-3.363 3.832c0 2.074 3.364-2.45 3.364-2.45v2.766zM-40.823 124.03s-1.9-1.382-1.9-2.073c-.037-.644 2.026-2.09 2.85-2.074 1.076-.015 2.85 1.383 2.85 2.074 0 .69-1.9 2.074-1.9 2.074v2.766s3.364-4.524 3.364-2.45c0 1.342-3.364 3.833-3.364 3.833h-1.9s-3.882-3.12-3.363-3.833c0-2.074 3.364 2.45 3.364 2.45v-2.766z" fill="#980000"/><path d="M-120.285 145.363c-.615-1.277-.453-1.86-.453-2.597-.028-.687 1.716-2.025 2.336-2.01.81-.015 2.143 1.475 2.143 2.212 0 .736.035 1.373-.297 2.643l-.893-2.153c-1.084 3.056-1.143 3.127-1.787-.074l-1.048 1.98zM-120.225 123.93c-.615 1.278-.453 1.862-.453 2.598-.028.687 1.716 2.025 2.336 2.01.81.015 2.143-1.475 2.143-2.212 0-.736.035-1.373-.297-2.643l-.893 2.154c-1.084-3.056-1.143-3.127-1.787.074l-1.048-1.98zM-27.805 145.093c-.615-1.277-.453-1.86-.453-2.597-.028-.687 1.716-2.025 2.336-2.01.81-.015 2.143 1.475 2.143 2.212 0 .736.035 1.373-.297 2.643l-.893-2.153c-1.084 3.056-1.143 3.127-1.787-.074l-1.048 1.98zM-27.755 123.655c-.615 1.277-.453 1.86-.453 2.597-.028.687 1.716 2.025 2.336 2.01.81.015 2.143-1.475 2.143-2.212 0-.736.035-1.373-.297-2.643l-.893 2.154c-1.084-3.055-1.143-3.126-1.787.075l-1.048-1.98z" fill="#fff"/><path d="M115.16 177.16v-5.315H99.216v-10.63H85.043v-3.543H72.64v-31.89h12.403v-3.543h14.173v-10.63h15.944v-5.316h21.26v5.315h15.945v10.63h14.173v3.542h12.402v31.89h-12.402v3.543h-14.173v10.63H136.42v5.315h-21.26zm-1.772 1.772v-5.315H97.444v-10.63H83.27v-3.543h-12.4V124.01h12.4v-3.543h14.174v-10.63h15.945v-5.315h24.802v5.315h15.945v10.63h14.173v3.544h12.402v35.434H168.31v3.543h-14.173v10.63h-15.945v5.315h-24.804z" transform="translate(-198.4 -7.1)" stroke="#000" stroke-width=".133" fill="#980000"/></g></g></svg>