<svg xmlns="http://www.w3.org/2000/svg" height="480" width="640" version="1"><defs><clipPath id="a"><path fill-opacity=".67" d="M42.666 0h682.67v512H42.666z"/></clipPath></defs><g fill-rule="evenodd" clip-path="url(#a)" transform="matrix(.938 0 0 .938 -40 0)"><path fill="#004e00" d="M0 0h768v512H0z"/><g stroke-width="1pt"><path d="M260.48 171.77h14.115" fill="#ffef00"/><path d="M263.24 137.424c27.92 13.477 61.136-.01 73.14-18.57 12.31-17.32 13.795-46.42-7.54-73.142 33.105 27.453 40.447 58.546 24.015 84.13-21.922 29.232-70.62 28.34-89.616 7.582z" fill="#fff"/><path fill="#feffff" d="M312.863 69.41l5.617.07-4.445 3.527 1.667 5.517-4.635-3.26-4.588 3.336 1.582-5.54-4.5-3.45 5.61-.168 1.802-5.47M285.152 104.15l5.617.072-4.446 3.527 1.667 5.516-4.634-3.26-4.588 3.336 1.583-5.54-4.5-3.45 5.612-.168 1.8-5.47M286.978 76.73l5.617.072-4.445 3.527 1.667 5.516-4.635-3.26-4.588 3.336 1.583-5.54-4.5-3.45 5.61-.168 1.802-5.47M286.978 49.295l5.617.07-4.445 3.528 1.667 5.517-4.635-3.26-4.588 3.336 1.583-5.54-4.5-3.45 5.61-.168 1.802-5.47M256.18 84.045l5.618.07-4.445 3.528 1.667 5.517-4.635-3.26-4.588 3.336 1.583-5.54-4.5-3.45 5.61-.168 1.802-5.47"/></g><path fill="#980000" d="M47.542 0H212.11v511.984H47.542z"/><g stroke-width="1pt" fill="#e69900"><path d="M47.532 133.453v-3.656l6.803-9.142-1.372-1.828 4.114-5.485-1.37-1.828-2.744 3.656-1.37-1.828 9.598-12.8 1.372 1.83-1.37 1.828 2.825 3.694 6.773-9.18-6.886-8.895-2.713 3.41 1.372 1.828-1.37 1.83-9.6-12.8 1.37-1.828 2.744 3.657 1.37-1.83-4.113-5.484 1.372-1.828-6.803-9.142v-3.656l9.545 12.798-1.37 1.828 4.113 5.485-2.743 3.657L59.82 91.4l4.113-5.483 9.653 13.016-9.653 12.58-4.113-5.484-2.743 3.655 2.743 3.657-4.114 5.485 1.37 1.828-9.544 12.798z"/><path d="M47.53 87.746l1.373 3.656v5.486h4.114l2.742 1.828-2.743 1.828h-4.114v5.486l-1.372 3.656v-21.94z"/></g><g stroke-width="1pt" fill="#e69900"><path d="M47.532 221.222v-3.656l6.803-9.142-1.372-1.828 4.114-5.485-1.37-1.827-2.744 3.656-1.37-1.83 9.598-12.798 1.372 1.83-1.37 1.827 2.825 3.693 6.773-9.18-6.886-8.895-2.713 3.41 1.372 1.83-1.37 1.828-9.6-12.8 1.37-1.827 2.744 3.656 1.37-1.83-4.113-5.484 1.372-1.828-6.803-9.142v-3.656l9.545 12.798-1.37 1.828 4.113 5.485-2.743 3.657 2.743 3.656 4.113-5.484 9.653 13.016-9.653 12.58-4.113-5.484-2.743 3.656 2.743 3.657-4.114 5.486 1.37 1.828-9.544 12.798z"/><path d="M47.53 175.515l1.373 3.656v5.487h4.114l2.742 1.828-2.743 1.828h-4.114v5.486l-1.372 3.655v-21.94z"/></g><g stroke-width="1pt" fill="#e69900"><path d="M47.533 308.992v-3.656l6.803-9.142-1.372-1.828 4.114-5.485-1.37-1.827-2.744 3.656-1.37-1.83 9.598-12.798 1.37 1.83-1.37 1.827 2.826 3.693 6.773-9.18-6.885-8.895-2.713 3.41 1.37 1.83-1.37 1.828-9.6-12.8 1.372-1.827 2.743 3.656 1.37-1.83-4.113-5.484 1.372-1.828-6.803-9.142v-3.656l9.545 12.798-1.37 1.828 4.113 5.485-2.742 3.657 2.743 3.656 4.114-5.484 9.653 13.016-9.653 12.58-4.113-5.484-2.742 3.656 2.743 3.657-4.113 5.486 1.37 1.828-9.544 12.798z"/><path d="M47.532 263.285l1.372 3.656v5.487h4.114l2.742 1.828-2.742 1.828h-4.114v5.486l-1.372 3.655v-21.94z"/></g><g stroke-width="1pt" fill="#e69900"><path d="M47.533 391.272v-3.656l6.803-9.142-1.372-1.828 4.114-5.485-1.37-1.827-2.744 3.656-1.37-1.83 9.598-12.798 1.37 1.83-1.37 1.827 2.826 3.693 6.773-9.18-6.885-8.895-2.713 3.41 1.37 1.83-1.37 1.828-9.6-12.8 1.372-1.827 2.743 3.656 1.37-1.83-4.113-5.484 1.372-1.828-6.803-9.142v-3.656l9.545 12.798-1.37 1.828 4.113 5.485-2.742 3.657 2.743 3.656 4.114-5.484 9.653 13.016-9.653 12.58-4.113-5.484-2.742 3.656 2.743 3.657-4.113 5.486 1.37 1.828-9.544 12.798z"/><path d="M47.532 345.565l1.372 3.656v5.487h4.114l2.742 1.828-2.742 1.828h-4.114v5.486l-1.372 3.655v-21.94z"/></g><g stroke-width="1pt" fill="#e69900"><path d="M212.116 133.453v-3.656l-6.803-9.142 1.372-1.828-4.114-5.485 1.372-1.828 2.743 3.656 1.37-1.828-9.598-12.8-1.37 1.83 1.37 1.828-2.826 3.694-6.772-9.18 6.886-8.895 2.713 3.41-1.37 1.828 1.37 1.83 9.6-12.8-1.372-1.828-2.743 3.657-1.37-1.83 4.113-5.484-1.372-1.828 6.803-9.142v-3.656l-9.545 12.798 1.372 1.828-4.114 5.485 2.743 3.657-2.742 3.656-4.113-5.483-9.653 13.016 9.653 12.58 4.113-5.484 2.743 3.655-2.742 3.657 4.114 5.485-1.37 1.828 9.544 12.798z"/><path d="M212.117 87.746l-1.372 3.656v5.486h-4.114l-2.74 1.828 2.74 1.828h4.115v5.486l1.372 3.656v-21.94z"/></g><g stroke-width="1pt" fill="#e69900"><path d="M212.57 221.223v-3.656l-6.803-9.142 1.372-1.828-4.115-5.485 1.37-1.828 2.744 3.656 1.37-1.828-9.6-12.8-1.37 1.83 1.37 1.828-2.825 3.694-6.773-9.18 6.886-8.895 2.713 3.41-1.37 1.828 1.37 1.83 9.6-12.8-1.37-1.828-2.744 3.657-1.37-1.83 4.113-5.484-1.373-1.828 6.803-9.142v-3.656l-9.545 12.798 1.37 1.828-4.113 5.485 2.743 3.657-2.743 3.656-4.113-5.483-9.654 13.016 9.653 12.58 4.112-5.484 2.743 3.655-2.743 3.657 4.114 5.485-1.37 1.828 9.544 12.798z"/><path d="M212.57 175.516l-1.37 3.656v5.486h-4.115l-2.742 1.828 2.742 1.828h4.114v5.486l1.37 3.656v-21.94z"/></g><g stroke-width="1pt" fill="#e69900"><path d="M212.116 308.992v-3.656l-6.803-9.142 1.372-1.828-4.114-5.485 1.372-1.827 2.743 3.656 1.37-1.83-9.598-12.798-1.37 1.83 1.37 1.827-2.826 3.693-6.772-9.18 6.886-8.895 2.713 3.41-1.37 1.83 1.37 1.828 9.6-12.8-1.372-1.827-2.743 3.656-1.37-1.83 4.113-5.484-1.372-1.828 6.803-9.142v-3.656l-9.545 12.798 1.372 1.828-4.114 5.485 2.743 3.657-2.742 3.656-4.113-5.484-9.653 13.016 9.653 12.58 4.113-5.484 2.743 3.656-2.742 3.657 4.114 5.486-1.37 1.828 9.544 12.798z"/><path d="M212.117 263.285l-1.372 3.656v5.487h-4.114l-2.74 1.828 2.74 1.828h4.115v5.486l1.372 3.655v-21.94z"/></g><g stroke-width="1pt" fill="#e69900"><path d="M212.116 391.272v-3.656l-6.803-9.142 1.372-1.828-4.114-5.485 1.372-1.827 2.743 3.656 1.37-1.83-9.598-12.798-1.37 1.83 1.37 1.827-2.826 3.693-6.772-9.18 6.886-8.895 2.713 3.41-1.37 1.83 1.37 1.828 9.6-12.8-1.372-1.827-2.743 3.656-1.37-1.83 4.113-5.484-1.372-1.828 6.803-9.142v-3.656l-9.545 12.798 1.372 1.828-4.114 5.485 2.743 3.657-2.742 3.656-4.113-5.484-9.653 13.016 9.653 12.58 4.113-5.484 2.743 3.656-2.742 3.657 4.114 5.486-1.37 1.828 9.544 12.798z"/><path d="M212.117 345.565l-1.372 3.656v5.487h-4.114l-2.74 1.828 2.74 1.828h4.115v5.486l1.372 3.655v-21.94z"/></g><g stroke-width="1pt" fill="#e69900"><path d="M47.545 34.737V31.08l6.803-9.14-1.372-1.83 4.114-5.484-1.37-1.828-2.744 3.656-1.37-1.828 9.598-12.8 1.37 1.83-1.37 1.828 2.826 3.694 6.773-9.18H73.6l-9.654 12.8-4.113-5.485-2.743 3.656 2.743 3.656-4.114 5.485 1.37 1.83-9.545 12.797zM47.546 0h8.228l-2.742 1.828h-4.114v5.486l-1.372 3.656V0z"/></g><g stroke-width="1pt" fill="#e69900"><path d="M212.104 34.737V31.08l-6.803-9.14 1.373-1.83-4.114-5.484 1.37-1.828 2.743 3.656 1.37-1.828-9.598-12.8-1.37 1.83 1.37 1.828-2.826 3.694-6.774-9.18h-2.796l9.653 12.8 4.113-5.485 2.743 3.656-2.744 3.656 4.114 5.485-1.37 1.83 9.544 12.797zM212.103 0h-8.228l2.742 1.828h4.114v5.486l1.373 3.656V0z"/></g><path d="M116.098 504.787s5.9-10.37 20.768-13.51c14.867-3.144 17.463 6.912 25.96 6.912 8.495 0 21.947-6.914 21.947-6.914s-13.452 13.197-23.836 12.883c-10.384-.315-13.924-6.914-24.544-5.97-10.62.94-20.295 6.91-20.295 6.597z" fill="#e69900"/><path d="M144.87 504.787s-5.9-10.37-20.77-13.51c-14.866-3.144-17.462 6.912-25.958 6.912-8.496 0-21.948-6.914-21.948-6.914s13.452 13.197 23.836 12.883c10.384-.315 13.924-6.914 24.544-5.97 10.62.94 20.295 6.91 20.295 6.597z" fill="#e69900"/><g stroke-width="1pt" fill="#e69900"><path d="M96.197 487.466c-1.31-2.742-4.584-14.706-2.838-16.202 2.62-.996 9.605 11.217 8.95 22.185-4.584 2.49-20.085-.998-19.867-4.24 1.092-4.486 9.825-2.99 13.754-1.744z"/><path d="M86.878 477.082c-.858-3.044-2.215-15.655-.276-16.638 2.715-.254 7.662 13.623 5.33 24.177-4.867 1.178-19.485-6.505-18.772-9.617 1.76-4.09 10.068-.222 13.718 2.08z"/><path d="M79.188 465.13c-.58-3.154-.797-15.88 1.218-16.55 2.723.175 6.396 14.722 3.13 24.827-4.943.4-18.787-9.523-17.8-12.498 2.117-3.783 10.03 1.363 13.452 4.22z"/><path d="M73.442 453.115c-.21-3.242 1.045-15.877 3.113-16.122 2.67.74 4.62 15.895.228 25.212-4.93-.63-17.462-13.325-16.143-16.063 2.527-3.302 9.75 3.434 12.802 6.973z"/><path d="M69.038 439.806c.145-3.245 2.754-15.498 4.826-15.346 2.56 1.24 2.846 16.595-2.507 24.97-4.808-1.562-15.825-16.502-14.223-18.957 2.857-2.783 9.27 5.253 11.904 9.333z"/><path d="M70.427 425.057c-.34 12.993-2.7 13.15-7.022 3.55-1.912-3.626-2.163-18.695-.445-19.26 2.485-.053 7.394 10.687 7.467 15.71z"/></g><g stroke-width="1pt" fill="#e69900"><path d="M164.03 488.835c1.31-2.742 4.584-14.706 2.838-16.202-2.62-.996-9.606 11.217-8.952 22.185 4.585 2.492 20.086-.997 19.868-4.238-1.092-4.487-9.825-2.99-13.754-1.745zM173.35 478.45c.857-3.043 2.214-15.654.275-16.637-2.715-.254-7.662 13.623-5.33 24.177 4.867 1.177 19.485-6.506 18.772-9.618-1.76-4.09-10.068-.222-13.718 2.08z"/><path d="M181.04 466.5c.58-3.155.796-15.882-1.22-16.552-2.722.176-6.395 14.723-3.13 24.828 4.944.4 18.788-9.523 17.8-12.498-2.116-3.782-10.03 1.364-13.45 4.222z"/><path d="M186.785 454.484c.21-3.242-1.045-15.877-3.113-16.122-2.67.74-4.62 15.895-.228 25.212 4.93-.63 17.462-13.325 16.143-16.063-2.527-3.3-9.75 3.435-12.802 6.974zM191.19 441.175c-.146-3.245-2.755-15.498-4.827-15.346-2.56 1.24-2.846 16.594 2.507 24.97 4.808-1.563 15.825-16.503 14.223-18.958-2.857-2.783-9.27 5.253-11.904 9.333z"/><path d="M189.8 426.426c.34 12.993 2.7 13.15 7.022 3.55 1.912-3.626 2.163-18.695.445-19.26-2.485-.053-7.394 10.687-7.467 15.71z"/></g><g transform="matrix(1 0 0 1.265 188.257 -77.027)"><path d="M-3.543 290.55h-5.315v3.543h-5.315v3.543h-21.26l-3.543 3.544 1.77 1.77h8.86l1.77-1.77h-8.857l1.772-1.772h12.4l-5.314 5.315h-12.402l-3.544-1.772-3.543 1.772h-12.402l-5.315-5.316 12.402.002 1.77 1.772-8.857-.002 1.772 1.773h8.858l1.772-1.77-3.544-3.544h-19.488v-3.543h-5.315v-3.543h-5.315v-15.945h5.315v-3.543h5.315v-3.543h19.488l3.544-3.545-1.772-1.77h-8.858l-1.772 1.772 8.858-.002-1.77 1.772-12.403.002 5.315-5.318h12.402l3.543 1.772 3.544-1.772h12.402l5.315 5.315h-12.4l-1.773-1.772h8.858l-1.772-1.77h-8.858l-1.77 1.77 3.542 3.544h21.26v3.542h5.315v3.543h5.315v15.945z" transform="matrix(1.488 0 0 1.24 3.502 -39.474)" stroke="#000" stroke-width=".133" fill="#980000"/><path d="M375.59 499.67v24.803h10.63v7.02h10.63v7.086h35.432l14.174 10.63 14.173-10.63h38.975v-7.02l10.63-.068v-7.087h10.63v-24.803h-10.63v-7.086l-10.63.068v-7.155H460.63l-14.174-10.63-14.174 10.63H396.85v7.154h-10.63v7.086h-10.63z" transform="matrix(.744 0 0 .62 -392.03 -6.521)" stroke="#e69900" stroke-width="1.422" fill="#004e00"/><path d="M-75.6 296.644l-15.822 10.984v-10.984H-75.6zM-43.97 296.644l15.822 10.985v-10.986H-43.97zM-75.6 325.208l-15.822-10.984v10.984H-75.6zM-43.965 325.208l15.82-10.985v10.985h-15.82zM-38.69 303.233l-5.272 4.394h10.547l-5.274-4.394zM-80.877 303.233l-5.273 4.394h10.547l-5.274-4.394zM-80.877 318.622l-5.273-4.394h10.547l-5.274 4.394zM-38.687 318.622l-5.273-4.394h10.547l-5.274 4.394z" fill="#980000"/><path d="M-59.787 329.602l-5.273-4.394h10.547l-5.274 4.394zM-59.787 307.632l-5.273-4.394h10.547l-5.274 4.394zM-59.787 292.25l-5.273 4.393h10.547l-5.274-4.394zM-59.787 314.217l-5.273 4.394h10.547l-5.274-4.393z" fill="#e69900"/><path transform="matrix(.744 0 0 .62 -392.03 -6.521)" stroke="#000" stroke-width=".133" fill="#e69900" d="M467.72 506.69h14.173v3.543H467.72z"/><path transform="matrix(.744 0 0 .62 -392.03 -6.521)" stroke="#000" stroke-width=".133" fill="#c00" d="M414.57 510.24h7.087v3.543h-7.087zM471.26 510.24h7.087v3.543h-7.087z"/><path transform="matrix(.744 0 0 .62 -392.03 -6.521)" stroke="#000" stroke-width=".133" fill="#900" d="M439.37 488.98h14.173v3.543H439.37zM439.37 496.06h14.173v3.543H439.37z"/><path transform="matrix(.744 0 0 .62 -392.03 -6.521)" stroke="#000" stroke-width=".133" fill="#900" d="M435.83 492.52h21.26v3.543h-21.26zM439.37 524.41h14.173v3.543H439.37zM439.37 531.5h14.173v3.543H439.37z"/><path transform="matrix(.744 0 0 .62 -392.03 -6.521)" stroke="#000" stroke-width=".133" fill="#900" d="M435.83 527.95h21.26v3.543h-21.26z"/><path transform="matrix(.744 0 0 .62 -392.03 -6.521)" stroke="#000" stroke-width=".133" fill="#e69900" d="M467.72 513.78h14.173v3.543H467.72zM411.02 506.69h14.173v3.543H411.02zM411.02 513.78h14.173v3.543H411.02z"/><path transform="matrix(.744 0 0 .62 -392.03 -6.521)" stroke="#000" stroke-width=".133" fill="#e69900" d="M407.48 510.24h7.087v3.543h-7.087zM421.65 510.24h7.087v3.543h-7.087zM464.17 510.24h7.087v3.543h-7.087zM478.35 510.24h7.087v3.543h-7.087z"/><ellipse fill="#fff" transform="matrix(.744 0 0 .62 -374.14 -38.912)" cx="413.68" rx=".886" cy="581.99" ry=".886"/><ellipse fill="#fff" transform="matrix(.744 0 0 .62 -367.57 -38.912)" cx="413.68" rx=".886" cy="581.99" ry=".886"/><ellipse fill="#fff" transform="matrix(.744 0 0 .62 -361 -38.958)" cx="413.68" rx=".886" cy="581.99" ry=".886"/><ellipse fill="#fff" transform="matrix(.744 0 0 .62 -371.51 -41.102)" cx="413.68" rx=".886" cy="581.99" ry=".886"/><ellipse fill="#fff" transform="matrix(.744 0 0 .62 -363.68 -41.148)" cx="413.68" rx=".886" cy="581.99" ry=".886"/><ellipse fill="#fff" transform="matrix(.744 0 0 .62 -371.57 -36.768)" cx="413.68" rx=".886" cy="581.99" ry=".886"/><ellipse fill="#fff" transform="matrix(.744 0 0 .62 -363.68 -36.677)" cx="413.68" rx=".886" cy="581.99" ry=".886"/><ellipse fill="#fff" transform="matrix(.744 0 0 .62 -353.17 -49.999)" cx="413.68" rx=".886" cy="581.99" ry=".886"/><ellipse fill="#fff" transform="matrix(.744 0 0 .62 -346.59 -49.999)" cx="413.68" rx=".886" cy="581.99" ry=".886"/><ellipse fill="#fff" transform="matrix(.744 0 0 .62 -340.02 -50.045)" cx="413.68" rx=".886" cy="581.99" ry=".886"/><ellipse fill="#fff" transform="matrix(.744 0 0 .62 -350.54 -52.189)" cx="413.68" rx=".886" cy="581.99" ry=".886"/><ellipse fill="#fff" transform="matrix(.744 0 0 .62 -342.71 -52.235)" cx="413.68" rx=".886" cy="581.99" ry=".886"/><ellipse fill="#fff" transform="matrix(.744 0 0 .62 -350.59 -47.855)" cx="413.68" rx=".886" cy="581.99" ry=".886"/><ellipse fill="#fff" transform="matrix(.744 0 0 .62 -342.71 -47.764)" cx="413.68" rx=".886" cy="581.99" ry=".886"/><ellipse fill="#fff" transform="matrix(.744 0 0 .62 -374.2 -60.904)" cx="413.68" rx=".886" cy="581.99" ry=".886"/><ellipse fill="#fff" transform="matrix(.744 0 0 .62 -367.62 -60.904)" cx="413.68" rx=".886" cy="581.99" ry=".886"/><ellipse fill="#fff" transform="matrix(.744 0 0 .62 -361.05 -60.949)" cx="413.68" rx=".886" cy="581.99" ry=".886"/><ellipse fill="#fff" transform="matrix(.744 0 0 .62 -371.57 -63.094)" cx="413.68" rx=".886" cy="581.99" ry=".886"/><ellipse fill="#fff" transform="matrix(.744 0 0 .62 -363.74 -63.139)" cx="413.68" rx=".886" cy="581.99" ry=".886"/><ellipse fill="#fff" transform="matrix(.744 0 0 .62 -371.62 -58.759)" cx="413.68" rx=".886" cy="581.99" ry=".886"/><ellipse fill="#fff" transform="matrix(.744 0 0 .62 -363.74 -58.668)" cx="413.68" rx=".886" cy="581.99" ry=".886"/><ellipse fill="#fff" transform="matrix(.744 0 0 .62 -395.28 -49.817)" cx="413.68" rx=".886" cy="581.99" ry=".886"/><ellipse fill="#fff" transform="matrix(.744 0 0 .62 -388.71 -49.817)" cx="413.68" rx=".886" cy="581.99" ry=".886"/><ellipse fill="#fff" transform="matrix(.744 0 0 .62 -382.14 -49.862)" cx="413.68" rx=".886" cy="581.99" ry=".886"/><ellipse fill="#fff" transform="matrix(.744 0 0 .62 -392.65 -52.007)" cx="413.68" rx=".886" cy="581.99" ry=".886"/><ellipse fill="#fff" transform="matrix(.744 0 0 .62 -384.82 -52.052)" cx="413.68" rx=".886" cy="581.99" ry=".886"/><ellipse fill="#fff" transform="matrix(.744 0 0 .62 -392.71 -47.672)" cx="413.68" rx=".886" cy="581.99" ry=".886"/><ellipse fill="#fff" transform="matrix(.744 0 0 .62 -384.82 -47.581)" cx="413.68" rx=".886" cy="581.99" ry=".886"/></g><path d="M138.875 255.867l4.536-2.126 4.536 2.127h-9.07zM125.273 255.867l4.536-2.126 4.534 2.127h-9.07zM111.67 255.867l4.536-2.126 4.535 2.127h-9.07zM138.875 206.99l4.536 2.127 4.536-2.126h-9.07zM125.273 206.99l4.536 2.127 4.534-2.126h-9.07zM111.67 206.99l4.536 2.127 4.535-2.126h-9.07z" fill="#fff"/><path d="M135.148 262.24l-5.288 4.252-5.288-4.253-5.29 4.252-5.287-4.253v2.124l3.526 2.128-1.763 2.125v2.126h1.764l1.763-2.126 1.763 2.126h1.763v-2.126l-1.764-2.125 3.526-2.127 3.525 2.127-1.763 2.125v2.126h1.763l1.763-2.126 1.763 2.126h1.763v-2.126l-1.763-2.125 3.525-2.127 3.526 2.126-1.763 2.127v2.126h1.764l1.763-2.126 1.763 2.126h1.763v-2.126l-1.763-2.126 3.525-2.126v-2.125l-5.288 4.25-5.29-4.25zM135.15 200.61l-5.29-4.254-5.287 4.253-5.29-4.254-5.287 4.253v-2.126l3.526-2.128-1.764-2.125v-2.125h1.764l1.762 2.126 1.763-2.125h1.763v2.126l-1.763 2.126 3.526 2.127 3.525-2.127-1.763-2.125v-2.125h1.763l1.763 2.126 1.764-2.125h1.763v2.126l-1.763 2.126 3.525 2.127 3.525-2.126-1.763-2.126v-2.125h1.763l1.763 2.126 1.763-2.125h1.764v2.126l-1.763 2.127 3.526 2.127v2.125l-5.288-4.253-5.29 4.252zM175.3 236.006l5.666-4.608-5.667-4.608 5.666-4.608-5.667-4.608h2.83l2.836 3.072 2.83-1.537h2.835v1.536l-2.833 1.536 2.834 1.535v1.537h-2.833l-2.83-1.537-2.835 3.073 2.834 3.072 2.83-1.536h2.835v1.536l-2.833 1.536 2.834 1.536v1.536h-2.833l-2.83-1.536-2.835 3.072 2.832 3.072 2.833-1.536h2.834v1.536l-2.833 1.536 2.834 1.536v1.536h-2.833l-2.833-1.536-2.833 3.072h-2.83l5.664-4.608-5.665-4.608zM84.37 236.006l-5.666-4.608 5.667-4.608-5.666-4.608 5.667-4.608h-2.83l-2.836 3.072-2.83-1.537h-2.835v1.536l2.833 1.536-2.834 1.535v1.537h2.833l2.83-1.537 2.835 3.073-2.834 3.072-2.83-1.536h-2.835v1.536l2.833 1.536-2.834 1.536v1.536h2.833l2.83-1.536 2.835 3.072-2.832 3.072-2.833-1.536H73.04v1.536l2.833 1.536-2.834 1.536v1.536h2.833l2.833-1.536 2.833 3.072h2.83l-5.664-4.608 5.665-4.608z" fill="#004e00"/><path transform="matrix(1.28 0 0 1.199 211.43 -5.642)" stroke="#000" stroke-width=".267" fill="#004e00" d="M-26.575 214.37h1.772v1.772h-1.772z"/><path transform="matrix(1.28 0 0 1.199 211.43 -5.642)" stroke="#000" stroke-width=".267" fill="#004e00" d="M-28.346 216.14h1.772v1.772h-1.772zM-37.205 225h1.772v1.772h-1.772zM-35.433 223.23h1.772v1.772h-1.773zM-93.898 223.23h1.772v1.772h-1.772zM-102.76 214.37h1.772v1.772h-1.772zM-100.98 216.14h1.772v1.772h-1.772zM-100.98 177.17h1.772v1.772h-1.772zM-102.76 178.94h1.772v1.772h-1.772zM-92.126 168.31h1.772v1.772h-1.772z"/><path transform="matrix(1.28 0 0 1.199 211.43 -5.642)" stroke="#000" stroke-width=".267" fill="#004e00" d="M-93.898 170.08h1.772v1.772h-1.772zM-37.205 168.31h1.772v1.772h-1.772zM-35.433 170.08h1.772v1.772h-1.773zM-28.346 177.17h1.772v1.772h-1.772z"/><path transform="matrix(1.28 0 0 1.199 211.43 -5.642)" stroke="#000" stroke-width=".267" fill="#004e00" d="M-26.575 178.94h1.772v1.772h-1.772zM-92.126 225h1.772v1.772h-1.772z"/><path d="M122.84 231.32h-6.68v-4.176l4.453.002v-3.915h4.454v-3.594h4.454v4.494c-3.687 0-6.68 3.044-6.68 7.19z" fill="#fff"/><path d="M136.355 231.32h6.68v-4.176l-4.453.002v-3.915h-4.454v-3.594h-4.454v4.494c3.688 0 6.68 3.044 6.68 7.19z" fill="#e69900"/><path d="M136.355 231.526h6.68v4.176l-4.453-.002v3.915h-4.454v3.595h-4.454v-4.494c3.688 0 6.68-3.044 6.68-7.19z" fill="#fff"/><path d="M122.84 231.526h-6.68v4.176l4.453-.002v3.915h4.454v3.595h4.454v-4.494c-3.687 0-6.68-3.044-6.68-7.19z" fill="#e69900"/><path d="M136.2 231.473h-6.68v-7.198c3.688 0 6.68 3.225 6.68 7.198z" fill="#004e00"/><path d="M136.2 231.373h-6.68v7.198c3.688 0 6.68-3.224 6.68-7.197z" fill="#980000"/><path d="M122.994 231.373h6.68v7.198c-3.687 0-6.68-3.224-6.68-7.197z" fill="#004e00"/><path d="M122.994 231.473h6.68v-7.198c-3.687 0-6.68 3.225-6.68 7.198z" fill="#980000"/><path d="M136.607 257.996l-6.803-4.253-6.803 4.253-6.802-4.253-6.803 4.253v-2.125l4.535-2.127-2.268-2.125v-2.126h2.268l2.268 2.126 2.267-2.126h2.268v2.126l-2.268 2.125L123 255.87l4.536-2.127-2.268-2.125v-2.126h2.268l2.268 2.126 2.267-2.126h2.27v2.126l-2.27 2.125 4.537 2.127 4.536-2.126-2.268-2.126v-2.126h2.268l2.267 2.126 2.268-2.126h2.268v2.126l-2.268 2.126 4.535 2.127v2.126l-6.803-4.252-6.803 4.252zM136.607 204.855l-6.803 4.253-6.803-4.253-6.802 4.253-6.803-4.253v2.125l4.535 2.128-2.268 2.125v2.126h2.268l2.268-2.127 2.267 2.126h2.268v-2.127l-2.268-2.125L123 206.98l4.536 2.128-2.268 2.125v2.126h2.268l2.268-2.127 2.267 2.126h2.27v-2.127l-2.27-2.125 4.537-2.127 4.536 2.127-2.268 2.126v2.126h2.268l2.267-2.127 2.268 2.126h2.268v-2.127l-2.268-2.126 4.535-2.127v-2.125l-6.803 4.252-6.803-4.252zM161.614 236.74l-3.402-5.316 3.402-5.315-3.402-5.316 3.402-5.314h-1.7l-1.702 3.543-1.7-1.772h-1.702v1.773l1.7 1.77-1.7 1.773v1.772h1.7l1.702-1.772 1.7 3.543-1.7 3.543-1.7-1.772h-1.702v1.773l1.7 1.77-1.7 1.773v1.772h1.7l1.702-1.772 1.7 3.543-1.7 3.543-1.7-1.772h-1.702v1.773l1.7 1.77-1.7 1.773v1.772h1.7l1.703-1.772 1.7 3.543h1.7l-3.4-5.316 3.4-5.315z" fill="#004e00"/><path d="M-100.98 177.17l-7.087 7.086v26.575l7.087 7.088h31.89l7.086-7.087v-26.574l-7.087-7.086h-31.89zm-1.772-5.316l-17.717 17.716v15.945l17.718 17.717h35.433l17.717-17.717V189.57l-17.716-17.716h-35.432z" transform="matrix(1.28 0 0 1.199 238.637 -5.641)" stroke="#000" stroke-width=".427" fill="#004e00"/><path d="M-93.898 147.05l3.543 5.315 3.544-5.315H-93.9z" transform="matrix(1.024 0 0 .8 215.058 140.225)" stroke="#000" stroke-width=".267" fill="#e69900"/><path d="M-93.898 147.05l3.543 5.315 3.544-5.315H-93.9z" transform="matrix(1.024 0 0 -.8 215.058 322.197)" stroke="#000" stroke-width=".267" fill="#e69900"/><path d="M-93.898 147.05l3.543 5.315 3.544-5.315H-93.9z" transform="matrix(1.024 0 0 -.8 229.568 322.197)" stroke="#000" stroke-width=".267" fill="#e69900"/><path d="M-93.898 147.05l3.543 5.315 3.544-5.315H-93.9z" transform="matrix(1.024 0 0 .8 229.568 140.225)" stroke="#000" stroke-width=".267" fill="#e69900"/><path d="M-93.898 147.05l3.543 5.315 3.544-5.315H-93.9z" transform="matrix(1.024 0 0 -.8 207.803 322.197)" stroke="#000" stroke-width=".267" fill="#980000"/><path d="M-93.898 147.05l3.543 5.315 3.544-5.315H-93.9z" transform="matrix(1.024 0 0 -.8 222.313 322.197)" stroke="#000" stroke-width=".267" fill="#980000"/><path d="M-93.898 147.05l3.543 5.315 3.544-5.315H-93.9z" transform="matrix(1.024 0 0 -.8 236.823 322.197)" stroke="#000" stroke-width=".267" fill="#980000"/><path d="M-104.53 180.71l3.544-3.544h-3.544v3.544z" transform="matrix(1.92 0 0 -1.799 303.233 576.373)" stroke="#000" stroke-width=".267" fill="#980000"/><path d="M98.045 236.74l3.402-5.316-3.402-5.315 3.402-5.316-3.402-5.314h1.7l1.702 3.543 1.7-1.772h1.702v1.773l-1.702 1.77 1.7 1.773v1.772h-1.7l-1.7-1.772-1.702 3.543 1.7 3.543 1.702-1.772h1.7v1.773l-1.7 1.77 1.7 1.773v1.772h-1.7l-1.7-1.772-1.702 3.543 1.7 3.543 1.702-1.772h1.7v1.773l-1.7 1.77 1.7 1.773v1.772h-1.7l-1.702-1.772-1.7 3.543h-1.7l3.4-5.316-3.4-5.315z" fill="#004e00"/><path d="M-76.18 154.13h7.086l1.77 1.772-1.77 1.77h-7.087v-3.542z" transform="matrix(1.28 0 0 1.079 261.308 59.143)" stroke="#000" stroke-width=".267" fill="#980000"/><path d="M-99.213 180.71l-3.543 3.544v26.575l3.543 3.542h-5.316l.002-33.662h5.315z" transform="matrix(1.28 0 0 1.199 229.568 -5.641)" stroke="#000" stroke-width=".4" fill="#980000"/><path d="M-93.898 147.05l3.543 5.315 3.544-5.315H-93.9z" transform="matrix(1.024 0 0 .8 207.803 140.225)" stroke="#000" stroke-width=".267" fill="#980000"/><path d="M-93.898 147.05l3.543 5.315 3.544-5.315H-93.9z" transform="matrix(1.024 0 0 .8 222.313 140.225)" stroke="#000" stroke-width=".267" fill="#980000"/><path d="M-93.898 147.05l3.543 5.315 3.544-5.315H-93.9z" transform="matrix(1.024 0 0 .8 236.823 140.225)" stroke="#000" stroke-width=".267" fill="#980000"/><path d="M-99.212 180.71l-3.544 3.544v26.575l3.544 3.542h-5.315V180.71h5.315z" transform="matrix(-1.28 0 0 1.199 30.063 -5.641)" stroke="#000" stroke-width=".4" fill="#980000"/><path d="M-104.53 180.71l3.544-3.544h-3.544v3.544z" transform="matrix(-1.92 0 0 -1.799 -43.612 576.373)" stroke="#000" stroke-width=".267" fill="#980000"/><path d="M-104.53 180.71l3.544-3.544h-3.544v3.544z" transform="matrix(-1.92 0 0 1.799 -43.612 -113.956)" stroke="#000" stroke-width=".267" fill="#980000"/><path d="M-104.53 180.71l3.544-3.544h-3.544v3.544z" transform="matrix(1.92 0 0 1.799 303.233 -113.956)" stroke="#000" stroke-width=".267" fill="#980000"/><path d="M-100.98 177.17l-7.087 7.086v26.575l7.087 7.088h31.89l7.086-7.087v-26.574l-7.087-7.086h-31.89zm0-1.773l-8.86 8.858v26.575l8.86 8.858h31.89l8.857-8.858v-26.575l-8.86-8.858h-31.888z" transform="matrix(1.28 0 0 1.199 238.637 -5.641)" stroke="#000" stroke-width=".427" fill="#004e00"/><path d="M-76.18 154.13h7.086l1.77 1.772-1.77 1.77h-7.087v-3.542z" transform="matrix(1.28 0 0 1.079 261.307 62.954)" stroke="#000" stroke-width=".267" fill="#e69900"/><path d="M-76.18 154.13h7.086l1.77 1.772-1.77 1.77h-7.087v-3.542z" transform="matrix(1.28 0 0 1.079 261.308 66.791)" stroke="#000" stroke-width=".267" fill="#980000"/><path d="M-76.18 154.13h7.086l1.77 1.772-1.77 1.77h-7.087v-3.542z" transform="matrix(1.28 0 0 1.079 261.308 70.601)" stroke="#000" stroke-width=".267" fill="#e69900"/><path d="M-76.18 154.13h7.086l1.77 1.772-1.77 1.77h-7.087v-3.542z" transform="matrix(1.28 0 0 1.079 261.308 55.307)" stroke="#000" stroke-width=".267" fill="#e69900"/><path d="M-76.18 154.13h7.086l1.77 1.772-1.77 1.77h-7.087v-3.542z" transform="matrix(-1.28 0 0 1.079 -1.682 59.143)" stroke="#000" stroke-width=".267" fill="#980000"/><path d="M-76.18 154.13h7.086l1.77 1.772-1.77 1.77h-7.087v-3.542z" transform="matrix(-1.28 0 0 1.079 -1.682 62.955)" stroke="#000" stroke-width=".267" fill="#e69900"/><path d="M-76.18 154.13h7.086l1.77 1.772-1.77 1.77h-7.087v-3.542z" transform="matrix(-1.28 0 0 1.079 -1.682 66.791)" stroke="#000" stroke-width=".267" fill="#980000"/><path d="M-76.18 154.13h7.086l1.77 1.772-1.77 1.77h-7.087v-3.542z" transform="matrix(-1.28 0 0 1.079 -1.682 70.602)" stroke="#000" stroke-width=".267" fill="#e69900"/><path d="M-76.18 154.13h7.086l1.77 1.772-1.77 1.77h-7.087v-3.542z" transform="matrix(-1.28 0 0 1.079 -1.682 55.308)" stroke="#000" stroke-width=".267" fill="#e69900"/><path d="M-100.98 178.94v37.205h8.858v8.858h56.693v-8.858h8.86V178.94h-8.86v-8.858H-92.12v8.858h-8.858zm1.77 1.772v33.66h8.86v8.86h53.15v-8.86h8.858v-33.66H-37.2v-8.86h-53.15v8.86h-8.86z" transform="matrix(1.28 0 0 1.199 211.43 -5.642)" stroke="#000" stroke-width=".267" fill="#970000"/><g><path d="M-28.347 69.094l-5.315-7.087v-5.315l-5.315-5.314h-10.63l-8.858-5.315H-86.81l-8.86 5.315h-10.63l-5.315 5.315v5.315l-5.315 7.086v14.173l5.315 7.087v5.315l5.315 5.314h10.63l8.86 5.315h28.345l8.858-5.316h10.63l5.315-5.315v-5.316l5.315-7.087V69.093z" transform="matrix(1.28 0 0 1.154 222.762 -36.689)" stroke="#000" stroke-width=".267" fill="#980000"/><path d="M75.49 51.174v6.128l6.804 8.17V71.6l6.803 6.128h13.606l11.34 6.13h15.874V51.173H75.49z" fill="#e69900"/><path d="M110.658 65.598l-8.28 5.257H97.43l1.65 1.752-3.298 3.504 1.648 1.753 4.947-1.752 1.65 1.753.76-4.682 9.132-5.54-3.262-2.042z" fill="#980000"/><path d="M101.593 61.513l-8.28 5.257h-4.948l1.65 1.752-3.298 3.504 1.648 1.752 4.947-1.752 1.65 1.752.76-4.682 9.132-5.542-3.26-2.04zM97.055 53.346l-8.28 5.257h-4.948l1.65 1.752-3.298 3.504 1.647 1.75 4.947-1.75 1.65 1.75.76-4.68 9.132-5.543-3.26-2.04z" fill="#980000"/><path d="M184.153 51.174v-6.128l-6.803-8.17v-6.128l-6.803-6.128H156.94l-11.34-6.13h-15.873v32.684h54.426z" fill="#e69900"/><path d="M129.842 83.856h-4.2l-4.87-4.085h-7.728l-4.2-2.042 2.1-2.043 4.2 2.043h4.2l4.198-6.128 6.3 2.043v4.085h-6.3l6.3 6.128z" fill="#980000"/><path d="M75.49 51.174v-6.128l6.804-8.17v-6.128l6.803-6.128h13.606l11.34-6.13h15.874v32.684H75.49z" fill="#fff"/><path d="M129.842 18.488h-4.2l-4.87 4.085h-7.728l-4.2 2.043 2.1 2.043 4.2-2.044h4.2l4.198 6.128 6.3-2.043v-4.084h-6.3l6.3-6.128z" fill="#980000"/><path d="M129.808 18.488h4.2l4.87 4.085h7.728l4.2 2.043-2.1 2.043-4.2-2.044h-4.2l-4.198 6.128-6.3-2.043v-4.084h6.3l-6.3-6.128z" fill="#980000"/><path d="M184.153 51.174v6.128l-6.803 8.17V71.6l-6.803 6.128H156.94l-11.34 6.13h-15.873V51.173h54.426z" fill="#fff"/><path d="M129.808 83.856h4.2l4.87-4.085h7.728l4.2-2.042-2.1-2.043-4.2 2.043h-4.2L136.11 71.6l-6.3 2.043v4.085h6.3l-6.3 6.128zM101.593 40.827l-8.28-5.257h-4.948l1.65-1.752-3.298-3.504 1.648-1.752 4.947 1.752 1.65-1.752.76 4.682 9.132 5.542-3.26 2.04zM148.985 36.746l8.28-5.257h4.948l-1.65-1.753 3.298-3.504-1.647-1.752-4.947 1.753-1.65-1.752-.76 4.683-9.132 5.542 3.26 2.04z" fill="#980000"/><path d="M110.658 36.746l-8.28-5.257H97.43l1.65-1.753-3.298-3.504 1.648-1.752 4.947 1.753 1.65-1.752.76 4.683 9.132 5.542-3.262 2.04zM97.055 49.002l-8.28-5.257h-4.948l1.65-1.752-3.298-3.504 1.647-1.753 4.947 1.752 1.65-1.753.76 4.682 9.132 5.54-3.26 2.042z" fill="#980000"/><path d="M79.48 51.14h2.102l2.1 2.043 2.1-2.042h44.09v28.596h-2.1l2.1 2.043v2.04l-6.298-6.126v-2.042h2.1v2.042h2.1v-2.042l-17.05-9.022h-14.36v-8.852l-6.384-4.595h-4.2l-2.098 2.042 2.1 2.044h-2.1l-4.2-6.13z" fill="#fff"/><path d="M79.48 51.207h2.102l2.1-2.042 2.1 2.042h44.09V22.613h-2.1l2.1-2.043v-2.043l-6.298 6.127v2.042h2.1v-2.042h2.1v2.042l-17.05 9.022h-14.36v8.852l-6.384 4.595h-4.2l-2.098-2.042 2.1-2.044h-2.1l-4.2 6.127z" fill="#e69900"/><path d="M89.088 51.162h40.82v24.513l-18.142-10.213H98.16v-8.17l-9.072-6.13z" fill="#004e00"/><path d="M158.05 40.827l8.282-5.257h4.947l-1.65-1.752 3.297-3.504-1.648-1.752-4.948 1.752-1.65-1.752-.76 4.682-9.132 5.542 3.26 2.04zM162.59 49.002l8.28-5.257h4.947l-1.65-1.752 3.298-3.504-1.648-1.753-4.947 1.752-1.65-1.753-.76 4.682-9.132 5.54 3.26 2.042z" fill="#980000"/><path d="M180.163 51.207h-2.1l-2.1-2.042-2.1 2.042h-44.09V22.613h2.098l-2.098-2.043v-2.043l6.298 6.127v2.042h-2.1v-2.042h-2.1v2.042l17.05 9.022h14.36v8.852l6.384 4.595h4.2l2.098-2.042-2.1-2.044h2.1l4.2 6.127z" fill="#fff"/><path d="M170.556 51.186h-40.82V26.673l18.142 10.213h13.607v8.17l9.07 6.13z" fill="#004e00"/><path d="M148.985 65.598l8.28 5.257h4.948l-1.65 1.752 3.298 3.504-1.647 1.753-4.947-1.752-1.65 1.753-.76-4.682-9.132-5.54 3.26-2.042zM158.05 61.513l8.282 5.257h4.947l-1.65 1.752 3.297 3.504-1.648 1.752-4.948-1.752-1.65 1.752-.76-4.682-9.132-5.542 3.26-2.04zM162.59 53.346l8.28 5.257h4.947l-1.65 1.752 3.298 3.504-1.648 1.75-4.947-1.75-1.65 1.75-.76-4.68-9.132-5.543 3.26-2.04z" fill="#980000"/><path d="M180.163 51.14h-2.1l-2.1 2.043-2.1-2.042h-44.09v28.596h2.098l-2.098 2.043v2.04l6.298-6.126v-2.042h-2.1v2.042h-2.1v-2.042l17.05-9.022h14.36v-8.852l6.384-4.595h4.2l2.098 2.042-2.1 2.044h2.1l4.2-6.13z" fill="#e69900"/><path d="M170.556 51.162h-40.82v24.513l18.142-10.213h13.607v-8.17l9.07-6.13zM89.088 51.186h40.82V26.673l-18.142 10.213H98.16v8.17l-9.072 6.13z" fill="#980000"/><path d="M134.352 51.296l11.387-6.125h6.8l-2.267-2.04 4.534-4.084-2.267-2.04-6.8 2.04-2.27-2.04-1.046 5.454-12.556 6.457 4.484 2.38zM125.292 51.04l-11.387 6.126h-6.8l2.266 2.04-4.533 4.085 2.267 2.042 6.8-2.04 2.27 2.04 1.046-5.455 12.556-6.457-4.484-2.38z" fill="#980000"/><path d="M125.292 51.296l-11.387-6.125h-6.8l2.266-2.04-4.533-4.084 2.267-2.04 6.8 2.04 2.27-2.04 1.046 5.454 12.556 6.457-4.484 2.38zM134.352 51.04l11.387 6.126h6.8l-2.267 2.04 4.534 4.085-2.267 2.042-6.8-2.04-2.27 2.04-1.046-5.455-12.556-6.457 4.484-2.38z" fill="#004e00"/><path d="M85.75 55.256l2.1 2.043-2.1 2.04h-2.1l-6.3-8.17h2.1l4.2 6.13h2.1l-2.1-2.044 2.1-2.043h4.2v2.043h-4.2z" fill="#980000"/><path d="M85.75 47.086l2.1-2.043L85.75 43h-2.1l-6.3 8.17h2.1l4.2-6.127h2.1l-2.1 2.043 2.1 2.043h4.2v-2.044h-4.2zM173.898 55.256l-2.1 2.043 2.1 2.04h2.1l6.3-8.17h-2.1l-4.2 6.13h-2.1l2.1-2.044-2.1-2.043h-4.2v2.043h4.2zM173.898 47.086l-2.1-2.043 2.1-2.042h2.1l6.3 8.17h-2.1l-4.2-6.127h-2.1l2.1 2.043-2.1 2.043h-4.2v-2.044h4.2zM127.723 43h4.2v16.342h-4.2z" fill="#980000"/><path fill="#980000" d="M121.425 47.087h16.795v8.17h-16.795z"/></g><g><path d="M333.07 170.08l-10.63 5.315v8.858l10.63 5.315h10.63l10.63-5.315v-8.858l-10.63-5.315h-10.63z" transform="matrix(3.554 0 0 3.846 -1073.053 -292.206)" stroke="#000" stroke-width=".07" fill="#004e00"/><path d="M87.156 396.125h2.284v-4.19h4.572v4.19h2.284v-9.772h-2.284v4.188H89.44v-4.187h-2.284v9.772zM145.05 428.715h2.285v-4.19h4.572v4.19h2.284v-9.772h-2.283v4.188h-4.572v-4.187h-2.284v9.772zM108.486 379.83h2.285v-4.19h4.573v4.19h2.284v-9.772h-2.284v4.188h-4.572v-4.188h-2.284v9.772zM142.006 379.83h2.285v-4.19h4.573v4.19h2.284v-9.772h-2.284v4.188h-4.572v-4.188h-2.283v9.772zM163.327 396.125h2.285v-4.19h4.572v4.19h2.284v-9.772h-2.284v4.188h-4.572v-4.187h-2.284v9.772zM163.327 412.42h2.285v-4.19h4.572v4.19h2.284v-9.772h-2.284v4.188h-4.572v-4.188h-2.284v9.772z" fill="#c00"/><path d="M129.84 435.285v-35.86h54.85v16.3l-36.565 19.56H129.84z" fill="#e69900"/><path d="M129.84 363.698v35.86H74.99v-16.3l36.567-19.56h18.284z" fill="#e69900"/><path d="M129.84 363.698v35.86h54.85v-16.3l-36.565-19.56H129.84z" fill="#fff"/><path d="M129.84 435.285v-35.858H74.99v16.298l36.567 19.56h18.284z" fill="#fff"/><path d="M-177.16 368.5h21.26l-21.26-10.63v10.63zm24.803-1.772v17.717h-33.662v-14.173h-7.085l-8.858-5.315v-12.402l5.314-5.315h-7.085v17.717h-1.772v-19.49h17.717l35.433 21.26z" transform="matrix(1.032 0 0 .92 341.901 45.868)" stroke="#000" stroke-width=".133" fill="#e69900"/><path d="M111.538 388.01v22.81h5.483l12.8 6.518 12.802-6.52h5.483v-22.81h-5.483l-12.8-6.518-12.8 6.52h-5.484z" fill="#980000"/><path d="M-177.16 368.5h21.26l-21.26-10.63v10.63zm24.803-1.772v17.717h-33.662v-14.173h-7.085l-8.858-5.315v-12.402l5.314-5.315h-7.085v17.717h-1.772v-19.49h17.717l35.433 21.26z" transform="matrix(-1.032 0 0 -.92 -82.271 753.118)" stroke="#000" stroke-width=".133" fill="#e69900"/><path d="M-177.16 368.5h21.26l-21.26-10.63v10.63zm24.803-1.772v17.717h-33.662v-14.173h-7.085l-8.858-5.315v-12.402l5.314-5.315h-7.085v17.717h-1.772v-19.49h17.717l35.433 21.26z" transform="matrix(-1.032 0 0 .92 -82.271 45.868)" stroke="#000" stroke-width=".133" fill="#fff"/><path d="M-177.16 368.5h21.26l-21.26-10.63v10.63zm24.803-1.772v17.717h-33.662v-14.173h-7.085l-8.858-5.315v-12.402l5.314-5.315h-7.085v17.717h-1.772v-19.49h17.717l35.433 21.26z" transform="matrix(1.032 0 0 -.92 341.902 753.118)" stroke="#000" stroke-width=".133" fill="#fff"/><path d="M85.938 412.567h2.284v-4.89h4.572v4.89h2.284v-11.41h-2.284v4.89h-4.572v-4.89h-2.284v11.41zM107.868 428.862h2.284v-4.89h4.572v4.89h2.284v-11.41h-2.284v4.89h-4.572v-4.89h-2.284v11.41zM85.938 386.427h2.284v4.89h4.572v-4.89h2.284v11.41h-2.284v-4.89h-4.572v4.89h-2.284v-11.41zM107.868 370.13h2.284v4.89h4.572v-4.89h2.284v11.41h-2.284v-4.89h-4.572v4.89h-2.284v-11.41zM142.615 428.862h2.285v-4.89h4.572v4.89h2.284v-11.41h-2.284v4.89H144.9v-4.89h-2.284v11.41zM164.555 397.89h2.285V393h4.572v4.89h2.284v-11.408h-2.284v4.89h-4.572v-4.89h-2.284v11.41zM142.615 428.862h2.285v-4.89h4.572v4.89h2.284v-11.41h-2.284v4.89H144.9v-4.89h-2.284v11.41zM142.615 428.862h2.285v-4.89h4.572v4.89h2.284v-11.41h-2.284v4.89H144.9v-4.89h-2.284v11.41zM164.555 412.556h2.285v-4.89h4.572v4.89h2.284v-11.41h-2.284v4.89h-4.572v-4.89h-2.284v11.41zM142.615 381.596h2.285v-4.89h4.572v4.89h2.284v-11.41h-2.284v4.89H144.9v-4.89h-2.284v11.41z" fill="#980000"/><path d="M131.672 399.332l7.314-5.94h3.656v2.97h-3.656v1.484h5.484v-5.938h-5.484v-4.454h-7.314v4.453h1.83v-2.97h3.655v2.97l-7.313 5.94-7.314-5.94v-2.968h3.657v2.968h1.828v-4.454h-7.313v4.454h-5.485v5.94h5.485v-1.485h-3.658v-2.97h3.658l7.313 5.938-7.313 5.94h-3.657v-2.97h3.657v-1.485h-5.484v5.94h5.484v4.452l7.313.002v-4.456h-1.827v2.97h-3.657v-2.97l7.313-5.938 7.315 5.94v2.97h-3.656v-2.97h-1.83v4.453h7.314v-4.454l5.485-.002v-5.938h-5.484v1.485h3.657v2.97h-3.657l-7.314-5.938z" fill="#004e00"/></g><g transform="matrix(1.032 0 0 .959 204.78 18.153)"><path d="M-122.352 134.285l3.43-3.73h20.573l15.43-16.784h20.575l15.43 16.785h20.575l3.43 3.73-3.43 3.73h-20.574l-15.43 16.783H-82.92l-15.43-16.784h-20.573l-3.43-3.73z" fill="#980000"/><path d="M372.05 391.54l1.903-1.95h22.834l17.126-19.488h19.03l17.125 19.49h22.835l1.903 1.948-1.903 1.948h-22.835l-15.223 17.54H412.01l-15.223-17.54h-22.834l-1.903-1.948z" transform="matrix(.931 0 0 .909 -466.86 -221.29)" stroke="#000" stroke-width=".29" fill="#980000"/><path d="M-64.07 136.148l6.857 7.458-3.428 3.73-1.716-1.865h-1.714v1.866l1.714 1.865h3.43l3.428-3.73v-3.73l-6.857-7.457 6.857-7.46v-3.73l-3.43-3.73h-3.427l-1.715 1.865v1.865h1.715l1.714-1.865 3.427 3.73-6.857 7.46-6.86-7.46 6.86-7.46v-1.863h-1.715l-6.857 7.458-6.86-7.46h-1.714v1.865l6.86 7.46-6.86 7.46-6.858-7.46 3.43-3.73 1.714 1.865h1.714v-1.865l-1.714-1.864h-3.43l-3.43 3.73v3.73l6.86 7.46-6.86 7.458v3.73l3.43 3.73h3.43l1.714-1.865v-1.865h-1.714l-1.715 1.865-3.43-3.73 6.86-7.46 6.857 7.46-6.858 7.46v1.864h1.714l6.86-7.458 6.857 7.46h1.714v-1.866l-6.86-7.46 6.86-7.458zm-8.573-9.325l-6.86 7.46 6.86 7.46 6.858-7.46-6.858-7.46zM-82.917 154.79v14.918l1.715-1.865 1.715 1.865 1.714-1.865 1.714 1.865 1.716-1.865 1.714 1.865 1.715-1.865 1.715 1.865 1.714-1.865 1.715 1.865 1.712-1.865 1.715 1.865V154.79h-20.574zM-62.353 113.79V98.872l-1.715 1.865-1.715-1.865-1.714 1.865-1.714-1.865-1.716 1.865-1.714-1.865-1.715 1.865-1.715-1.865-1.714 1.865-1.715-1.865-1.712 1.865-1.715-1.865v14.918h20.574zM-33.205 130.58v-14.918l-1.715 1.865-1.713-1.865-1.715 1.865-1.715-1.865-1.714 1.865-1.715-1.865-1.714 1.865-1.714-1.865v14.918h13.715zM-98.355 130.58v-14.918l-1.715 1.865-1.713-1.865-1.715 1.865-1.715-1.865-1.714 1.865-1.715-1.865-1.714 1.865-1.714-1.865v14.918h13.715zM-33.205 138.01v14.918l-1.715-1.865-1.713 1.865-1.715-1.865-1.715 1.865-1.714-1.865-1.715 1.865-1.714-1.865-1.714 1.865V138.01h13.715zM-98.355 138.01v14.918l-1.715-1.865-1.713 1.865-1.715-1.865-1.715 1.865-1.714-1.865-1.715 1.865-1.714-1.865-1.714 1.865V138.01h13.715z" fill="#e69900"/><path d="M-62.347 154.79v9.324l1.714-1.866 1.715 1.866 1.714-1.866 1.714 1.866 1.715-1.866 1.714 1.866 1.714-1.866 1.714 1.866 1.715-1.866v-24.242l-15.43 16.784zM-82.933 154.79v9.325l-1.715-1.866-1.715 1.865-1.714-1.866-1.714 1.865-1.716-1.866-1.714 1.865-1.715-1.866-1.714 1.865-1.714-1.866v-24.244l15.43 16.784zM-82.933 113.79v-9.324l-1.714 1.866-1.715-1.866-1.714 1.866-1.714-1.866-1.715 1.866-1.714-1.866-1.714 1.866-1.714-1.866-1.715 1.866v24.242l15.43-16.784zM-62.347 113.79v-9.324l1.714 1.866 1.715-1.866 1.714 1.866 1.714-1.866 1.715 1.866 1.714-1.866 1.714 1.866 1.714-1.866 1.715 1.866v24.242l-15.43-16.784zM-112.078 149.206l-1.715-1.865-1.713 1.866-1.714-1.865-1.715 1.866-1.715-1.865-1.715 1.866-1.713-1.865-1.715 1.866v-29.838l1.714 1.866 1.715-1.866 1.715 1.866 1.714-1.866 1.715 1.866 1.713-1.866 1.714 1.866 1.715-1.866v11.19h-6.857l-3.43 3.73 3.43 3.73h6.857v11.188zM-33.202 149.206l1.715-1.865 1.713 1.866 1.714-1.865 1.715 1.866 1.715-1.865 1.715 1.866 1.713-1.865 1.715 1.866v-29.838l-1.714 1.866-1.715-1.866-1.715 1.866-1.714-1.866-1.715 1.866-1.713-1.866-1.714 1.866-1.715-1.866v11.19h6.857l3.43 3.73-3.43 3.73h-6.857v11.188z" fill="#004e00"/><path d="M-91.36 155.978s-1.428 1.474-1.428 2.21c-.028.687 1.524 2.227 2.143 2.21.81.017 2.143-1.473 2.143-2.21 0-.736-1.43-2.21-1.43-2.21v-2.948s3.104 5.068 3.104 2.857c0-1.586-3.103-4.33-3.103-4.33h-1.43s-3.103 3.213-3.103 4.33c0 2.21 3.103-2.857 3.103-2.857v2.948z" fill="#fff"/><path d="M-73.497 161.67s-1.715 2.062-1.715 3.094c-.034.962 1.83 3.118 2.572 3.095.97.022 2.572-2.064 2.572-3.096s-1.715-3.095-1.715-3.095v-4.128s3.037 6.75 3.037 3.656c0-2-3.037-5.72-3.037-5.72h-1.714s-3.506 4.656-3.037 5.72c0 3.095 3.037-3.656 3.037-3.656v4.127z" fill="#980000"/><ellipse fill="#004e00" transform="matrix(.968 0 0 1.053 -482.4 -277.85)" cx="403.94" rx="3.543" cy="391.54" ry="1.772"/><ellipse fill="#004e00" transform="matrix(.968 0 0 1.053 -463.54 -277.85)" cx="403.94" rx="3.543" cy="391.54" ry="1.772"/><ellipse fill="#004e00" transform="matrix(.968 0 0 1.053 -444.69 -277.85)" cx="403.94" rx="3.543" cy="391.54" ry="1.772"/><path d="M-91.72 112.76s-1.428-1.474-1.428-2.21c-.028-.688 1.524-2.228 2.143-2.21.81-.018 2.143 1.472 2.143 2.21 0 .736-1.43 2.21-1.43 2.21v2.948s3.104-5.068 3.104-2.857c0 1.587-3.103 4.332-3.103 4.332h-1.43s-3.103-3.214-3.103-4.33c0-2.212 3.103 2.856 3.103 2.856v-2.948z" fill="#fff"/><path d="M-73.857 107.062s-1.715-2.063-1.715-3.095c-.034-.962 1.83-3.118 2.572-3.095.97-.023 2.572 2.063 2.572 3.095s-1.715 3.095-1.715 3.095v4.127s3.037-6.752 3.037-3.657c0 2-3.037 5.72-3.037 5.72h-1.714s-3.506-4.656-3.037-5.72c0-3.095 3.037 3.656 3.037 3.656v-4.128z" fill="#980000"/><path d="M-54.86 155.978s-1.428 1.474-1.428 2.21c-.028.687 1.524 2.227 2.143 2.21.81.017 2.143-1.473 2.143-2.21 0-.736-1.43-2.21-1.43-2.21v-2.948s3.104 5.068 3.104 2.857c0-1.586-3.103-4.33-3.103-4.33h-1.43s-3.103 3.213-3.103 4.33c0 2.21 3.103-2.857 3.103-2.857v2.948zM-55.22 112.76s-1.428-1.474-1.428-2.21c-.028-.688 1.524-2.228 2.143-2.21.81-.018 2.143 1.472 2.143 2.21 0 .736-1.43 2.21-1.43 2.21v2.948s3.104-5.068 3.104-2.857c0 1.587-3.103 4.332-3.103 4.332h-1.43s-3.103-3.214-3.103-4.33c0-2.212 3.103 2.856 3.103 2.856v-2.948z" fill="#fff"/><path d="M-106.273 145.593s-1.9 1.383-1.9 2.074c-.037.644 2.026 2.09 2.85 2.074 1.076.016 2.85-1.382 2.85-2.073 0-.69-1.9-2.074-1.9-2.074v-2.765s3.364 4.523 3.364 2.45c0-1.342-3.364-3.833-3.364-3.833h-1.9s-3.882 3.12-3.363 3.832c0 2.074 3.364-2.45 3.364-2.45v2.766zM-106.673 124.47s-1.9-1.382-1.9-2.073c-.037-.644 2.026-2.09 2.85-2.074 1.076-.015 2.85 1.383 2.85 2.074 0 .69-1.9 2.074-1.9 2.074v2.766s3.364-4.524 3.364-2.45c0 1.342-3.364 3.833-3.364 3.833h-1.9s-3.882-3.12-3.363-3.833c0-2.074 3.364 2.45 3.364 2.45v-2.766zM-40.423 145.15s-1.9 1.384-1.9 2.075c-.037.644 2.026 2.09 2.85 2.074 1.076.014 2.85-1.384 2.85-2.075 0-.69-1.9-2.074-1.9-2.074v-2.764s3.364 4.523 3.364 2.45c0-1.342-3.364-3.833-3.364-3.833h-1.9s-3.882 3.12-3.363 3.832c0 2.074 3.364-2.45 3.364-2.45v2.766zM-40.823 124.03s-1.9-1.382-1.9-2.073c-.037-.644 2.026-2.09 2.85-2.074 1.076-.015 2.85 1.383 2.85 2.074 0 .69-1.9 2.074-1.9 2.074v2.766s3.364-4.524 3.364-2.45c0 1.342-3.364 3.833-3.364 3.833h-1.9s-3.882-3.12-3.363-3.833c0-2.074 3.364 2.45 3.364 2.45v-2.766z" fill="#980000"/><path d="M-120.285 145.363c-.615-1.277-.453-1.86-.453-2.597-.028-.687 1.716-2.025 2.336-2.01.81-.015 2.143 1.475 2.143 2.212 0 .736.035 1.373-.297 2.643l-.893-2.153c-1.084 3.056-1.143 3.127-1.787-.074l-1.048 1.98zM-120.225 123.93c-.615 1.278-.453 1.862-.453 2.598-.028.687 1.716 2.025 2.336 2.01.81.015 2.143-1.475 2.143-2.212 0-.736.035-1.373-.297-2.643l-.893 2.154c-1.084-3.056-1.143-3.127-1.787.074l-1.048-1.98zM-27.805 145.093c-.615-1.277-.453-1.86-.453-2.597-.028-.687 1.716-2.025 2.336-2.01.81-.015 2.143 1.475 2.143 2.212 0 .736.035 1.373-.297 2.643l-.893-2.153c-1.084 3.056-1.143 3.127-1.787-.074l-1.048 1.98zM-27.755 123.655c-.615 1.277-.453 1.86-.453 2.597-.028.687 1.716 2.025 2.336 2.01.81.015 2.143-1.475 2.143-2.212 0-.736.035-1.373-.297-2.643l-.893 2.154c-1.084-3.055-1.143-3.126-1.787.075l-1.048-1.98z" fill="#fff"/><path d="M-83.27 170.073v-5.315h-15.944v-10.63h-14.173v-3.543h-12.402v-31.89h12.403v-3.543h14.173v-10.63h15.944V99.21h21.26v5.315h15.945v10.63h14.173v3.542h12.402v31.89h-12.402v3.543h-14.173v10.63H-62.01v5.315h-21.26zm-1.772 1.772v-5.315h-15.944V155.9h-14.173v-3.543h-12.4v-35.433h12.4v-3.544h14.174v-10.63h15.945v-5.314h24.802v5.315h15.945v10.63h14.173v3.544h12.402v35.433H-30.12v3.543h-14.173v10.63h-15.945v5.315h-24.804z" stroke="#000" stroke-width=".133" fill="#980000"/></g></g></svg>