<svg xmlns="http://www.w3.org/2000/svg" height="480" width="640" version="1" xmlns:xlink="http://www.w3.org/1999/xlink"><defs><linearGradient id="a"><stop stop-color="red" offset="0"/><stop stop-color="#ff0" offset="1"/></linearGradient><linearGradient id="c" y2="107.76" xlink:href="#a" gradientUnits="userSpaceOnUse" y1="111.28" gradientTransform="matrix(.6 0 0 1.5 -94.7 29.2)" x2="92.551" x1="103.08"/><linearGradient id="d" y2="107.76" xlink:href="#a" gradientUnits="userSpaceOnUse" y1="111.28" gradientTransform="matrix(.6 0 0 1.5 -94.7 30.2)" x2="92.551" x1="103.08"/><linearGradient id="e" y2="107.76" xlink:href="#a" gradientUnits="userSpaceOnUse" y1="111.28" gradientTransform="matrix(.6 0 0 1.5 -98 31)" x2="92.551" x1="103.08"/><linearGradient id="f" y2="107.76" xlink:href="#a" gradientUnits="userSpaceOnUse" y1="111.28" gradientTransform="matrix(.6 0 0 1.5 -94.7 31.9)" x2="92.551" x1="103.08"/><linearGradient id="g" y2="107.76" xlink:href="#a" gradientUnits="userSpaceOnUse" y1="111.28" gradientTransform="matrix(.6 0 0 1.5 -94.8 32.8)" x2="92.551" x1="103.08"/><linearGradient id="h" y2="107.76" xlink:href="#a" gradientUnits="userSpaceOnUse" y1="111.28" gradientTransform="matrix(.6 0 0 1.5 -94.8 33.8)" x2="92.551" x1="103.08"/><linearGradient id="i" y2="107.76" xlink:href="#a" gradientUnits="userSpaceOnUse" y1="111.28" gradientTransform="matrix(.6 0 0 1.5 -98 33.7)" x2="92.551" x1="103.08"/><linearGradient id="j" y2="107.76" xlink:href="#a" gradientUnits="userSpaceOnUse" y1="111.28" gradientTransform="matrix(.6 0 0 1.5 -98 32.8)" x2="92.551" x1="103.08"/><linearGradient id="k" y2="107.76" xlink:href="#a" gradientUnits="userSpaceOnUse" y1="111.28" gradientTransform="matrix(.6 0 0 1.5 -97.9 31.9)" x2="92.551" x1="103.08"/><linearGradient id="l" y2="107.76" xlink:href="#a" gradientUnits="userSpaceOnUse" y1="111.28" gradientTransform="matrix(.8 0 0 1.9 602.8 148.2)" x2="92.551" x1="103.08"/><linearGradient id="m" y2="107.76" xlink:href="#a" gradientUnits="userSpaceOnUse" y1="111.28" gradientTransform="matrix(.6 0 0 1.5 -98 30.1)" x2="92.551" x1="103.08"/><linearGradient id="n" y2="107.76" xlink:href="#a" gradientUnits="userSpaceOnUse" y1="111.28" gradientTransform="matrix(.6 0 0 1.5 -95.3 31)" x2="92.551" x1="103.08"/><clipPath id="b"><path fill-opacity=".67" d="M0 0h640v480H0z"/></clipPath></defs><g clip-path="url(#b)"><path fill="#006" d="M0 0h960v480H0z"/><path fill-rule="evenodd" fill="#006" d="M0 0h350.002v175H0z"/><g stroke-width="1pt"><path d="M0 0v19.566L310.87 175h39.132v-19.564L39.13 0H0zm350.002 0v19.565L39.13 175H0v-19.564L310.87 0h39.132z" fill="#fff"/><path d="M145.834 0v175h58.334V0h-58.334zM0 58.334v58.333h350.002V58.334H0z" fill="#fff"/><path d="M0 70v35h350.002V70H0zM157.5 0v175h35V0h-35zM0 175l116.667-58.333h26.087L26.087 175H0zM0 0l116.667 58.334H90.58L0 13.044V0zm207.248 58.334L323.915 0h26.087L233.334 58.334h-26.086zM350.002 175l-116.668-58.333h26.087l90.582 45.29V175z" fill="#c00"/></g><g><path d="M378.474 154.457l219.342-.814-.407 195.333s7.73 29.706-91.968 74.876c35.81-3.663 74.876-41.914 74.876-41.914s15.87-20.347 23.603-8.953c7.732 11.394 15.057 17.09 20.754 21.568 5.697 4.476 10.174 16.685 1.628 25.637-8.546 8.952-21.974 10.173-25.637-.814-5.697 2.85-40.693 45.17-112.31 47.205-72.84-1.22-112.72-47.61-112.72-47.61s-9.766 15.463-23.602 3.255c-13.428-15.87-3.255-26.044-3.255-26.044s11.394-6.51 14.65-10.987c5.29-6.104 6.917-14.243 15.87-14.243 10.58.814 14.65 9.36 14.65 9.36s36.624 38.66 76.096 43.542c-89.12-42.728-92.375-69.18-91.968-75.69l.407-193.7z" fill-rule="evenodd" fill="#fff"/><path d="M383.76 159.743l209.16-1.22v188.003c.407 24.416-40.694 49.24-104.99 80.98-66.323-34.183-104.57-54.94-104.98-81.38l.813-186.373z" fill-rule="evenodd" stroke="#000" stroke-width="1.7173345" fill="#006129"/><path d="M408.912 366.902l12.346-18.133 12.407 18.17" stroke="#f7c600" stroke-width="1.71797946" fill="none"/><path d="M423.74 360.115c0 1.355-1.1 2.453-2.453 2.453-1.355 0-2.453-1.098-2.452-2.453 0-1.354 1.097-2.452 2.452-2.452 1.354 0 2.452 1.098 2.452 2.452z" fill-rule="evenodd" stroke="#000" stroke-width=".8050560000000001" fill="#f7c600"/><path d="M411.233 380.3l19.14.054s.3-2.484-1.998-3.994c10.025-1.378 7.42-10.222 15.817-10.723 1.63.25-4.386 3.76-4.386 3.76s-5.062 3.572-2.757 5.388c1.83 1.442 2.63-.877 2.882-2.63.25-1.756 8.145-2.884 7.018-7.896-1.88-4.137-12.908 2.756-12.908 2.756l-7.868-.044c-.49-.883-2.66-4.424-4.898-4.44-2.657.096-4.528 4.484-4.528 4.484h-17.796s-.61 4.566 8.413 5.443c2.032 2.652 3.607 3.393 5.373 4.08-1.178.98-1.51 2.168-1.504 3.76z" fill-rule="evenodd" stroke="#000" stroke-width=".80542686" fill="#f7c600"/><path d="M412.61 376.41l15.944-.053M405.31 367.008s1.275 7.457 7.16 9.223" stroke="#000" stroke-width=".80542686" fill="none"/><path d="M66.32 170.54c.445-2.15 1.26-2.522 2.15-5.267.15-2.67-2.15-2.374-1.482-4.08 1.187-1.855.593-3.635-1.632-5.045.445 2.448-2.894 4.748-2.894 6.75 0 2.004 1.707 1.56 1.484 4.6.148 1.78-.445 1.336-.593 3.042h2.967z" fill-rule="evenodd" stroke="#000" stroke-width=".609" fill="url(#c)" transform="matrix(1.3 0 0 1.3 316.6 141.4)"/><path d="M423.542 349.227c0 1.246-1.01 2.256-2.256 2.256-1.246 0-2.256-1.01-2.256-2.256 0-1.247 1.01-2.257 2.256-2.257 1.246 0 2.256 1.01 2.256 2.257z" fill-rule="evenodd" stroke="#000" stroke-width=".80542686" fill="#f7c600"/><path d="M408.214 329.58l12.346-18.134 12.407 18.172" stroke="#f7c600" stroke-width="1.71797946" fill="none"/><path d="M423.04 322.793c0 1.354-1.097 2.453-2.45 2.453-1.356 0-2.454-1.1-2.453-2.453 0-1.355 1.097-2.453 2.452-2.453 1.353 0 2.45 1.098 2.45 2.453z" fill-rule="evenodd" stroke="#000" stroke-width=".8050560000000001" fill="#f7c600"/><path d="M410.535 342.977l19.14.055s.3-2.485-1.998-3.994c10.025-1.38 7.42-10.222 15.817-10.723 1.63.25-4.386 3.76-4.386 3.76s-5.062 3.572-2.757 5.388c1.832 1.442 2.633-.877 2.884-2.632.25-1.753 8.145-2.88 7.018-7.894-1.88-4.135-12.908 2.757-12.908 2.757l-7.868-.044c-.49-.884-2.66-4.425-4.898-4.44-2.657.096-4.528 4.483-4.528 4.483h-17.796s-.61 4.566 8.413 5.443c2.032 2.653 3.607 3.395 5.372 4.08-1.178.983-1.51 2.17-1.504 3.76z" fill-rule="evenodd" stroke="#000" stroke-width=".80542686" fill="#f7c600"/><path d="M411.913 339.09l15.943-.056M404.61 329.686s1.277 7.456 7.163 9.222" stroke="#000" stroke-width=".80542686" fill="none"/><path d="M66.32 170.54c.445-2.15 1.26-2.522 2.15-5.267.15-2.67-2.15-2.374-1.482-4.08 1.187-1.855.593-3.635-1.632-5.045.445 2.448-2.894 4.748-2.894 6.75 0 2.004 1.707 1.56 1.484 4.6.148 1.78-.445 1.336-.593 3.042h2.967z" fill-rule="evenodd" stroke="#000" stroke-width=".609" fill="url(#d)" transform="matrix(1.3 0 0 1.3 315.9 104)"/><path d="M422.844 311.904c0 1.246-1.01 2.256-2.256 2.256-1.246 0-2.256-1.01-2.256-2.256 0-1.246 1.01-2.256 2.256-2.256 1.246 0 2.256 1.01 2.256 2.256z" fill-rule="evenodd" stroke="#000" stroke-width=".80542686" fill="#f7c600"/><path d="M539.38 295.652l12.347-18.134 12.406 18.172" stroke="#f7c600" stroke-width="1.71797946" fill="none"/><path d="M554.207 288.865c0 1.354-1.097 2.453-2.452 2.453s-2.452-1.1-2.452-2.453c0-1.354 1.098-2.453 2.452-2.453 1.355 0 2.452 1.1 2.452 2.453z" fill-rule="evenodd" stroke="#000" stroke-width=".8050560000000001" fill="#f7c600"/><path d="M541.7 309.05l19.142.054s.3-2.484-2-3.994c10.027-1.38 7.422-10.222 15.82-10.723 1.628.25-4.388 3.76-4.388 3.76s-5.062 3.572-2.757 5.388c1.83 1.442 2.632-.877 2.883-2.632.25-1.754 8.146-2.882 7.018-7.895-1.88-4.135-12.908 2.757-12.908 2.757l-7.868-.043c-.49-.884-2.66-4.425-4.898-4.44-2.657.096-4.528 4.483-4.528 4.483H529.42s-.61 4.566 8.413 5.443c2.032 2.654 3.607 3.395 5.373 4.082-1.178.98-1.51 2.168-1.504 3.76z" fill-rule="evenodd" stroke="#000" stroke-width=".80542686" fill="#f7c600"/><path d="M543.08 305.16l15.942-.053M535.777 295.758s1.276 7.456 7.163 9.222" stroke="#000" stroke-width=".80542686" fill="none"/><path d="M66.32 170.54c.445-2.15 1.26-2.522 2.15-5.267.15-2.67-2.15-2.374-1.482-4.08 1.187-1.855.593-3.635-1.632-5.045.445 2.448-2.894 4.748-2.894 6.75 0 2.004 1.707 1.56 1.484 4.6.148 1.78-.445 1.336-.593 3.042h2.967z" fill-rule="evenodd" stroke="#000" stroke-width=".609" fill="url(#e)" transform="matrix(1.3 0 0 1.3 447.1 70.1)"/><path d="M554.01 277.976c0 1.246-1.01 2.257-2.256 2.257-1.246 0-2.256-1.01-2.256-2.257 0-1.246 1.01-2.256 2.256-2.256 1.246 0 2.256 1.01 2.256 2.256z" fill-rule="evenodd" stroke="#000" stroke-width=".80542686" fill="#f7c600"/><path d="M411.273 259.372l12.346-18.134 12.406 18.172" stroke="#f7c600" stroke-width="1.71797946" fill="none"/><path d="M426.1 252.585c0 1.354-1.098 2.452-2.452 2.452-1.355 0-2.453-1.098-2.452-2.452 0-1.355 1.097-2.453 2.452-2.453 1.354 0 2.452 1.098 2.452 2.453z" fill-rule="evenodd" stroke="#000" stroke-width=".8050560000000001" fill="#f7c600"/><path d="M413.594 272.77l19.14.053s.3-2.484-1.998-3.994c10.025-1.38 7.42-10.222 15.817-10.724 1.63.25-4.386 3.76-4.386 3.76s-5.062 3.572-2.757 5.39c1.83 1.44 2.632-.878 2.883-2.633.25-1.754 8.145-2.882 7.018-7.895-1.88-4.136-12.907 2.757-12.907 2.757l-7.868-.044c-.49-.882-2.66-4.423-4.898-4.44-2.657.098-4.528 4.485-4.528 4.485h-17.797s-.61 4.566 8.413 5.443c2.032 2.653 3.606 3.394 5.372 4.08-1.177.982-1.508 2.17-1.503 3.76z" fill-rule="evenodd" stroke="#000" stroke-width=".80542686" fill="#f7c600"/><path d="M414.972 268.88l15.943-.054M407.67 259.477s1.276 7.457 7.162 9.223" stroke="#000" stroke-width=".80542686" fill="none"/><path d="M66.32 170.54c.445-2.15 1.26-2.522 2.15-5.267.15-2.67-2.15-2.374-1.482-4.08 1.187-1.855.593-3.635-1.632-5.045.445 2.448-2.894 4.748-2.894 6.75 0 2.004 1.707 1.56 1.484 4.6.148 1.78-.445 1.336-.593 3.042h2.967z" fill-rule="evenodd" stroke="#000" stroke-width=".609" fill="url(#f)" transform="matrix(1.3 0 0 1.3 319 33.8)"/><path d="M425.903 241.696c0 1.246-1.01 2.256-2.256 2.256-1.246 0-2.256-1.01-2.256-2.256 0-1.246 1.01-2.257 2.257-2.257 1.246 0 2.256 1.01 2.256 2.256z" fill-rule="evenodd" stroke="#000" stroke-width=".80542686" fill="#f7c600"/><g><path d="M411.55 223.713l12.347-18.134 12.406 18.17" stroke="#f7c600" stroke-width="1.71797946" fill="none"/><path d="M426.377 216.926c0 1.354-1.098 2.453-2.452 2.453-1.355 0-2.452-1.1-2.452-2.454 0-1.355 1.097-2.453 2.452-2.453s2.452 1.098 2.452 2.453z" fill-rule="evenodd" stroke="#000" stroke-width=".8050560000000001" fill="#f7c600"/><path d="M413.87 237.11l19.142.055s.3-2.485-2-3.994c10.027-1.378 7.422-10.22 15.82-10.722 1.628.25-4.388 3.76-4.388 3.76s-5.062 3.572-2.757 5.388c1.83 1.442 2.632-.877 2.883-2.632.25-1.754 8.146-2.882 7.018-7.895-1.88-4.136-12.908 2.756-12.908 2.756l-7.868-.044c-.49-.883-2.66-4.424-4.898-4.44-2.657.097-4.528 4.484-4.528 4.484H401.59s-.61 4.566 8.413 5.443c2.032 2.652 3.607 3.394 5.373 4.08-1.178.982-1.51 2.17-1.504 3.76z" fill-rule="evenodd" stroke="#000" stroke-width=".80542686" fill="#f7c600"/><path d="M415.25 233.222l15.942-.055M407.947 223.818s1.276 7.457 7.163 9.223" stroke="#000" stroke-width=".80542686" fill="none"/><path d="M66.32 170.54c.445-2.15 1.26-2.522 2.15-5.267.15-2.67-2.15-2.374-1.482-4.08 1.187-1.855.593-3.635-1.632-5.045.445 2.448-2.894 4.748-2.894 6.75 0 2.004 1.707 1.56 1.484 4.6.148 1.78-.445 1.336-.593 3.042h2.967z" fill-rule="evenodd" stroke="#000" stroke-width=".609" fill="url(#g)" transform="matrix(1.3 0 0 1.3 319.3 -1.8)"/><path d="M426.18 206.037c0 1.246-1.01 2.256-2.256 2.256-1.246 0-2.256-1.01-2.256-2.256 0-1.246 1.01-2.256 2.256-2.256 1.246 0 2.256 1.01 2.256 2.257z" fill-rule="evenodd" stroke="#000" stroke-width=".80542686" fill="#f7c600"/></g><g><path d="M412.228 187.533l12.346-18.134 12.407 18.17" stroke="#f7c600" stroke-width="1.71797946" fill="none"/><path d="M427.054 180.746c0 1.354-1.097 2.452-2.452 2.452-1.354 0-2.452-1.098-2.452-2.452 0-1.355 1.098-2.453 2.452-2.453 1.355 0 2.453 1.098 2.452 2.453z" fill-rule="evenodd" stroke="#000" stroke-width=".8050560000000001" fill="#f7c600"/><path d="M414.55 200.93l19.14.054s.3-2.484-2-3.993c10.026-1.378 7.422-10.22 15.818-10.723 1.63.25-4.386 3.76-4.386 3.76s-5.062 3.573-2.757 5.39c1.83 1.44 2.632-.878 2.882-2.633.25-1.754 8.146-2.882 7.018-7.895-1.88-4.136-12.908 2.756-12.908 2.756l-7.868-.044c-.49-.883-2.66-4.424-4.9-4.44-2.656.097-4.527 4.484-4.527 4.484h-17.796s-.61 4.566 8.413 5.443c2.032 2.652 3.607 3.394 5.373 4.08-1.177.982-1.51 2.17-1.504 3.76z" fill-rule="evenodd" stroke="#000" stroke-width=".80542686" fill="#f7c600"/><path d="M415.927 197.042l15.943-.055M408.625 187.638s1.275 7.457 7.162 9.223" stroke="#000" stroke-width=".80542686" fill="none"/><path d="M66.32 170.54c.445-2.15 1.26-2.522 2.15-5.267.15-2.67-2.15-2.374-1.482-4.08 1.187-1.855.593-3.635-1.632-5.045.445 2.448-2.894 4.748-2.894 6.75 0 2.004 1.707 1.56 1.484 4.6.148 1.78-.445 1.336-.593 3.042h2.967z" fill-rule="evenodd" stroke="#000" stroke-width=".609" fill="url(#h)" transform="matrix(1.3 0 0 1.3 319.9 -38)"/><path d="M426.857 169.857c0 1.246-1.01 2.256-2.255 2.256-1.247 0-2.257-1.01-2.256-2.256 0-1.246 1.01-2.256 2.256-2.256 1.246 0 2.256 1.01 2.255 2.257z" fill-rule="evenodd" stroke="#000" stroke-width=".80542686" fill="#f7c600"/></g><g><path d="M540.355 188.122l12.347-18.134 12.406 18.172" stroke="#f7c600" stroke-width="1.71797946" fill="none"/><path d="M555.182 181.335c0 1.354-1.097 2.453-2.452 2.453-1.354 0-2.452-1.1-2.452-2.453 0-1.354 1.098-2.453 2.452-2.453 1.355 0 2.453 1.1 2.452 2.453z" fill-rule="evenodd" stroke="#000" stroke-width=".8050560000000001" fill="#f7c600"/><path d="M542.676 201.52l19.14.054s.302-2.484-1.998-3.994c10.026-1.38 7.42-10.222 15.818-10.723 1.63.25-4.386 3.76-4.386 3.76s-5.063 3.572-2.757 5.388c1.83 1.442 2.63-.877 2.882-2.632.25-1.754 8.146-2.882 7.018-7.895-1.88-4.135-12.908 2.757-12.908 2.757l-7.868-.043c-.49-.884-2.66-4.425-4.898-4.44-2.658.096-4.53 4.483-4.53 4.483h-17.793s-.612 4.566 8.412 5.443c2.03 2.654 3.605 3.395 5.37 4.082-1.176.98-1.508 2.168-1.503 3.76z" fill-rule="evenodd" stroke="#000" stroke-width=".80542686" fill="#f7c600"/><path d="M544.054 197.63l15.944-.053M536.753 188.228s1.275 7.456 7.162 9.222" stroke="#000" stroke-width=".80542686" fill="none"/><path d="M66.32 170.54c.445-2.15 1.26-2.522 2.15-5.267.15-2.67-2.15-2.374-1.482-4.08 1.187-1.855.593-3.635-1.632-5.045.445 2.448-2.894 4.748-2.894 6.75 0 2.004 1.707 1.56 1.484 4.6.148 1.78-.445 1.336-.593 3.042h2.967z" fill-rule="evenodd" stroke="#000" stroke-width=".609" fill="url(#i)" transform="matrix(1.3 0 0 1.3 448.1 -37.4)"/><path d="M554.985 170.446c0 1.246-1.01 2.257-2.256 2.257-1.247 0-2.257-1.01-2.256-2.257 0-1.246 1.01-2.256 2.255-2.256 1.245 0 2.255 1.01 2.255 2.256z" fill-rule="evenodd" stroke="#000" stroke-width=".80542686" fill="#f7c600"/></g><g><path d="M539.185 223.638l12.347-18.134 12.406 18.172" stroke="#f7c600" stroke-width="1.71797946" fill="none"/><path d="M554.012 216.85c0 1.355-1.098 2.454-2.452 2.454-1.355 0-2.452-1.1-2.452-2.453 0-1.354 1.097-2.452 2.452-2.452s2.452 1.098 2.452 2.453z" fill-rule="evenodd" stroke="#000" stroke-width=".8050560000000001" fill="#f7c600"/><path d="M541.506 237.035l19.14.055s.3-2.485-1.998-3.994c10.026-1.38 7.42-10.222 15.818-10.723 1.63.25-4.387 3.76-4.387 3.76s-5.063 3.572-2.758 5.388c1.83 1.443 2.632-.876 2.883-2.63.25-1.755 8.146-2.883 7.018-7.896-1.88-4.135-12.908 2.757-12.908 2.757l-7.868-.043c-.49-.883-2.66-4.424-4.898-4.44-2.658.097-4.53 4.484-4.53 4.484h-17.795s-.61 4.567 8.413 5.444c2.032 2.653 3.607 3.395 5.373 4.08-1.177.983-1.508 2.17-1.503 3.76z" fill-rule="evenodd" stroke="#000" stroke-width=".80542686" fill="#f7c600"/><path d="M542.884 233.147l15.943-.055M535.582 223.744s1.276 7.456 7.163 9.222" stroke="#000" stroke-width=".80542686" fill="none"/><path d="M66.32 170.54c.445-2.15 1.26-2.522 2.15-5.267.15-2.67-2.15-2.374-1.482-4.08 1.187-1.855.593-3.635-1.632-5.045.445 2.448-2.894 4.748-2.894 6.75 0 2.004 1.707 1.56 1.484 4.6.148 1.78-.445 1.336-.593 3.042h2.967z" fill-rule="evenodd" stroke="#000" stroke-width=".609" fill="url(#j)" transform="matrix(1.3 0 0 1.3 446.9 -1.9)"/><path d="M553.815 205.962c0 1.246-1.01 2.256-2.256 2.256-1.247 0-2.257-1.01-2.257-2.256 0-1.246 1.01-2.256 2.256-2.256 1.245 0 2.255 1.01 2.255 2.256z" fill-rule="evenodd" stroke="#000" stroke-width=".80542686" fill="#f7c600"/></g><g><path d="M537.615 259.94l12.346-18.134 12.408 18.172" stroke="#f7c600" stroke-width="1.71797946" fill="none"/><path d="M552.44 253.152c.002 1.355-1.096 2.453-2.45 2.453-1.355 0-2.453-1.098-2.453-2.453 0-1.354 1.098-2.452 2.452-2.452 1.354 0 2.452 1.098 2.45 2.452z" fill-rule="evenodd" stroke="#000" stroke-width=".8050560000000001" fill="#f7c600"/><path d="M539.936 273.337l19.14.054s.3-2.483-2-3.993c10.027-1.38 7.422-10.222 15.82-10.723 1.628.25-4.387 3.76-4.387 3.76s-5.063 3.572-2.758 5.388c1.83 1.442 2.632-.877 2.882-2.63.25-1.756 8.146-2.884 7.018-7.896-1.88-4.136-12.908 2.757-12.908 2.757l-7.868-.044c-.49-.884-2.66-4.425-4.898-4.442-2.657.097-4.528 4.485-4.528 4.485h-17.794s-.61 4.565 8.412 5.443c2.03 2.653 3.606 3.394 5.372 4.08-1.177.982-1.51 2.17-1.504 3.76z" fill-rule="evenodd" stroke="#000" stroke-width=".80542686" fill="#f7c600"/><path d="M541.314 269.448l15.943-.054M534.012 260.045s1.275 7.457 7.162 9.223" stroke="#000" stroke-width=".80542686" fill="none"/><path d="M66.32 170.54c.445-2.15 1.26-2.522 2.15-5.267.15-2.67-2.15-2.374-1.482-4.08 1.187-1.855.593-3.635-1.632-5.045.445 2.448-2.894 4.748-2.894 6.75 0 2.004 1.707 1.56 1.484 4.6.148 1.78-.445 1.336-.593 3.042h2.967z" fill-rule="evenodd" stroke="#000" stroke-width=".609" fill="url(#k)" transform="matrix(1.3 0 0 1.3 445.3 34.4)"/><path d="M552.244 242.263c0 1.247-1.01 2.257-2.256 2.257-1.246 0-2.256-1.01-2.255-2.257 0-1.246 1.01-2.256 2.255-2.256 1.247 0 2.257 1.01 2.256 2.256z" fill-rule="evenodd" stroke="#000" stroke-width=".80542686" fill="#f7c600"/></g><path d="M539.183 367.27l12.346-18.132 12.406 18.17" stroke="#f7c600" stroke-width="1.2882574999999998" fill="none"/><path d="M554.005 360.496c0 1.354-1.097 2.453-2.452 2.453s-2.452-1.1-2.452-2.454 1.1-2.453 2.453-2.453c1.355 0 2.453 1.1 2.452 2.453z" fill-rule="evenodd" stroke="#000" stroke-width=".804776" fill="#f7c600"/><path d="M541.503 380.667l19.14.054s.3-2.483-2-3.993c10.027-1.378 7.423-10.222 15.82-10.723 1.628.25-4.387 3.76-4.387 3.76s-5.063 3.572-2.757 5.39c1.83 1.44 2.63-.878 2.88-2.633.252-1.753 8.147-2.88 7.02-7.894-1.88-4.136-12.91 2.757-12.91 2.757l-7.867-.044c-.49-.884-2.66-4.425-4.898-4.44-2.657.096-4.528 4.483-4.528 4.483H529.222s-.61 4.566 8.412 5.443c2.03 2.653 3.606 3.394 5.372 4.08-1.177.982-1.51 2.17-1.504 3.76z" fill-rule="evenodd" stroke="#000" stroke-width=".804776" fill="#f7c600"/><path d="M542.878 376.776l15.943-.054M535.58 367.384s1.275 7.456 7.162 9.222" stroke="#000" stroke-width=".804776" fill="none"/><path d="M814.5 330.27c.573-2.772 1.625-3.25 2.772-6.786.19-3.44-2.772-3.06-1.912-5.257 1.53-2.39.765-4.683-2.103-6.5.574 3.155-3.727 6.118-3.727 8.698s2.198 2.008 1.91 5.926c.193 2.295-.572 1.722-.763 3.92h3.823z" fill-rule="evenodd" stroke="#000" stroke-width=".784" fill="url(#l)" transform="matrix(1 0 0 1 -301.5 28.3)"/><path d="M531.72 341.35c0 1.214-.984 2.198-2.197 2.198-1.214 0-2.198-.984-2.198-2.198s.984-2.198 2.197-2.198 2.198.984 2.198 2.198z" fill-rule="evenodd" stroke="#000" stroke-width=".784" fill="#f7c600"/><g><path d="M538.99 331.364l12.346-18.134 12.407 18.172" stroke="#f7c600" stroke-width="1.71797946" fill="none"/><path d="M553.817 324.577c0 1.354-1.098 2.453-2.452 2.453-1.355 0-2.452-1.1-2.452-2.453 0-1.355 1.097-2.453 2.452-2.453 1.354 0 2.452 1.1 2.452 2.453z" fill-rule="evenodd" stroke="#000" stroke-width=".8050560000000001" fill="#f7c600"/><path d="M541.31 344.76l19.142.056s.3-2.485-2-3.994c10.026-1.38 7.422-10.222 15.82-10.723 1.628.25-4.388 3.758-4.388 3.758s-5.062 3.573-2.757 5.39c1.83 1.44 2.632-.878 2.883-2.633.25-1.754 8.146-2.882 7.018-7.895-1.88-4.135-12.908 2.757-12.908 2.757l-7.868-.044c-.49-.883-2.66-4.424-4.898-4.44-2.657.097-4.528 4.484-4.528 4.484H529.03s-.61 4.566 8.413 5.443c2.032 2.653 3.607 3.395 5.373 4.082-1.178.98-1.51 2.168-1.504 3.76z" fill-rule="evenodd" stroke="#000" stroke-width=".80542686" fill="#f7c600"/><path d="M542.69 340.873l15.942-.055M535.387 331.47s1.276 7.456 7.163 9.222" stroke="#000" stroke-width=".80542686" fill="none"/><path d="M66.32 170.54c.445-2.15 1.26-2.522 2.15-5.267.15-2.67-2.15-2.374-1.482-4.08 1.187-1.855.593-3.635-1.632-5.045.445 2.448-2.894 4.748-2.894 6.75 0 2.004 1.707 1.56 1.484 4.6.148 1.78-.445 1.336-.593 3.042h2.967z" fill-rule="evenodd" stroke="#000" stroke-width=".609" fill="url(#m)" transform="matrix(1.3 0 0 1.3 446.7 105.8)"/><path d="M553.62 313.688c0 1.246-1.01 2.256-2.256 2.256-1.246 0-2.256-1.01-2.256-2.256 0-1.246 1.01-2.256 2.256-2.256 1.246 0 2.256 1.01 2.256 2.256z" fill-rule="evenodd" stroke="#000" stroke-width=".80542686" fill="#f7c600"/></g><g><path d="M434.677 297.99l12.347-18.134 12.406 18.172" stroke="#f7c600" stroke-width="1.71797946" fill="none"/><path d="M449.504 291.202c0 1.355-1.097 2.453-2.452 2.453s-2.452-1.098-2.452-2.453c0-1.354 1.098-2.452 2.452-2.452 1.355 0 2.452 1.098 2.452 2.452z" fill-rule="evenodd" stroke="#000" stroke-width=".8050560000000001" fill="#f7c600"/><path d="M436.998 311.387l19.14.054s.3-2.483-1.998-3.993c10.026-1.38 7.42-10.222 15.818-10.723 1.63.25-4.387 3.76-4.387 3.76s-5.06 3.572-2.756 5.388c1.83 1.442 2.632-.877 2.883-2.63.25-1.756 8.146-2.884 7.018-7.896-1.88-4.136-12.908 2.757-12.908 2.757l-7.868-.044c-.492-.884-2.66-4.425-4.9-4.442-2.656.097-4.527 4.485-4.527 4.485h-17.797s-.61 4.565 8.413 5.443c2.032 2.653 3.607 3.394 5.373 4.08-1.178.982-1.51 2.17-1.504 3.76z" fill-rule="evenodd" stroke="#000" stroke-width=".80542686" fill="#f7c600"/><path d="M438.376 307.498l15.943-.054M431.074 298.095s1.276 7.457 7.163 9.223" stroke="#000" stroke-width=".80542686" fill="none"/><path d="M66.32 170.54c.445-2.15 1.26-2.522 2.15-5.267.15-2.67-2.15-2.374-1.482-4.08 1.187-1.855.593-3.635-1.632-5.045.445 2.448-2.894 4.748-2.894 6.75 0 2.004 1.707 1.56 1.484 4.6.148 1.78-.445 1.336-.593 3.042h2.967z" fill-rule="evenodd" stroke="#000" stroke-width=".609" fill="url(#n)" transform="matrix(1.3 0 0 1.3 342.4 72.5)"/><path d="M449.307 280.313c0 1.247-1.01 2.257-2.256 2.257-1.245 0-2.255-1.01-2.255-2.257 0-1.246 1.01-2.256 2.256-2.256 1.247 0 2.257 1.01 2.257 2.256z" fill-rule="evenodd" stroke="#000" stroke-width=".80542686" fill="#f7c600"/></g><g stroke="#000"><path d="M500.74 384.174s4.996 11.516 10.685 4.44 3.608-10.13 3.608-10.13l-12.765-6.936-3.747 7.91 2.22 4.716z" fill-rule="evenodd" stroke-width=".80542686" fill="#f7c600"/><path d="M511.705 382.653s.833.14 1.526-1.11-1.525-1.804-2.496-3.19l-1.11 2.22 2.08 2.08zM482.834 379.598l-11.24 6.105s-5.55 1.11-5.965 0c-.417-1.11.138-2.08 3.05-2.22 2.915-.14 10.824-7.354 10.824-7.354l3.33 3.468zM482.98 179.934s.277 2.636.416 4.023-2.22 4.302-2.36 4.163-1.248.14-1.11.97 1.805 1.11 1.805 1.11-.693 2.915 0 3.054c.695.14-1.803 3.746 0 4.717 1.805.972 4.857 2.22 6.245 1.944 1.387-.278 0 5.41 0 5.41l-3.885 8.326 21.367-2.22-4.44-7.076s-2.082-1.388-1.527-5.412c.555-4.023-.277-22.2-.277-22.2l-15.262-2.08-.97 5.272zM479.09 211.57s-6.936 3.19-6.66 11.793c-1.802 8.325-2.774 16.65-2.774 16.65s-8.186 9.295-10.683 12.626c-2.498 3.33-6.244 10.127-7.632 11.93s-6.798 7.77-6.66 9.99c.14 2.22-1.248 12.073 4.164 13.182 1.387.555 5.827-11.377 5.827-11.377s.28-5.134-1.247-6.105 3.33-4.3 3.33-4.3 9.296-6.8 11.377-8.465 7.77-8.048 7.77-8.048l3.19-37.88z" fill-rule="evenodd" stroke-width=".80542686" fill="#ffc6b5"/><path d="M487 205.048s1.804 4.856 5.828 4.023c4.023-.83 8.74-4.578 8.74-4.578s3.747-.138 4.302.417c.555.554 10.13 9.85 9.852 12.764-.278 2.914-4.44 2.08-5.967 4.023s-4.024 6.8-3.33 10.407 2.775 8.325 2.498 10.13-1.804 2.357-1.804 3.328c0 .972 1.248 2.637 1.248 4.44s-1.665 4.44-1.388 6.244c.278 1.804.417 7.076.417 7.076l-.417 24.42s1.388.834 1.527 2.22c.138 1.39 9.435 41.764 9.435 41.764s-.417 1.25-1.388 1.11 3.746 6.244 3.885 8.048 4.855 15.957 4.717 17.9c-.14 1.942-.833 6.243-1.25 6.382-.415.14 3.053 8.88 2.498 10.267-.555 1.388-6.243 1.25-6.243 1.25l-1.527-.278s.14 1.803-.97 1.942-9.297-.416-9.297-.416-2.36 3.608-3.746 3.47c-1.388-.14-3.192-2.637-3.608-2.22-.416.416 1.25 2.775.832 3.468-.416.694-7.492 2.22-8.88-1.11-1.387-3.33.833-2.497.417-3.19-.417-.695-3.608-2.498-4.58-1.943s2.498 1.387 2.36 2.775c-.14 1.387-3.053 3.468-4.163 3.468s-3.746-5.133-7.63-4.578c-3.886.555-6.384 1.526-6.384 1.526s-4.578 1.942-6.52 1.526c-1.943-.416-2.776-1.942-2.776-2.775 0-.832 1.388-4.44 1.25-5.55s-1.25-2.22-1.25-3.885c0-1.665 3.19-7.354 3.19-7.354l-.137-25.53s-2.914 0-3.053-1.804 4.44-40.376 5.134-42.874c.694-2.498 2.497-11.378 2.497-11.378s-2.08.972-2.22 0 6.245-23.032 6.245-23.032 1.11-10.96 1.11-13.875c0-2.913-.555-6.937-.555-6.937s-5.696-2.412-5.827-6.105c-.52-5.877 5.41-9.158 6.105-11.1l2.775-7.77s3.052-5.273 8.047-6.105z" fill-rule="evenodd" stroke-width=".80542686" fill="#fff"/><path d="M484.924 381.264s-13.458 7.077-15.4 7.632c-1.944.555-3.193-2.36-1.25-2.914 1.943-.555 4.995-.833 4.995-.833s-4.58-3.608-4.44-3.747c.138-.14 6.243-2.358 6.382-2.358s1.942 3.607 3.19 3.33 4.857-3.053 4.857-3.053 1.942 2.22 1.664 1.942z" fill-rule="evenodd" stroke-width=".80542686" fill="#f7c600"/><path d="M503.89 385.14c1.272 1.64 1.77 4.487 4.683 2.822 2.914-1.665-1.493-4.755-1.493-4.755l-3.19 1.932z" fill-rule="evenodd" stroke-width=".80542686" fill="#ffc6b5"/><path d="M509.206 384.862s1.387 1.11 2.636-.14-2.498-3.884-2.498-3.884l-1.803 2.08 1.666 1.944z" fill-rule="evenodd" stroke-width=".80542686" fill="#ffc6b5"/><path d="M505.04 210.458s-12.35 7.91-12.072 10.684M507.817 211.845s-2.775 3.053-2.914 3.053M511.56 215.176s-6.105 4.995-5.134 8.186M482.702 209.765s-1.804 3.746-1.388 4.995c.417 1.25 3.47 5.966 3.885 8.88.416 2.914 0 4.995 0 4.995M479.515 216.702s.554 4.44 1.387 5.272c.833.833 3.053 4.58 3.33 6.105M478.404 235.155s3.607 1.804 6.937-5.134M490.743 225.166c-.14 0-2.636 6.8 1.804 9.296s7.77 2.22 9.712 1.527c1.942-.695 4.023-1.944 4.023-1.944M488.812 233.49s.277 9.16 13.736 18.178M489.367 242.093s-.138 8.048 5.134 11.655M486.59 232.658s-4.024 11.933-7.215 13.182M485.334 241.4s-.14 8.603-1.25 11.655M482.98 255.136s2.775 3.47 5.827 3.19c3.053-.276 4.3-3.884 6.383-3.33 2.08.557 4.023 2.222 8.88 1.805M497.13 260.408s0 7.076 1.25 7.77.693 7.215.693 7.215M480.202 257.08s-.138 6.66-.97 9.018c-.833 2.358-2.498 6.382-2.22 9.85M471.738 279.84c.694-.28 3.053-2.36 3.053-2.36M476.036 279.005s-5.966 25.53-4.3 40.793M477.425 280.25s-3.053 19.146-1.665 22.754M475.904 279.693c.14 0 11.655.833 11.655.833M489.222 279.005s3.19 1.666 7.63 1.388M487.833 288.303s-.555 32.745-1.387 39.96M504.907 295.788s3.608 28.722 5.69 31.358M497.964 299.4s2.22 25.39 3.47 27.61M466.474 335.888s4.3-1.388 8.186-5.55c4.44 5.966 11.24.278 11.24.278s10.544 7.215 15.26-.833c7.216 4.718 10.824-.694 10.824-.694s2.636 4.023 4.58 3.607M505.04 335.478s5.41 25.39 13.458 32.606M477.147 332.833s.694 21.23 1.943 36.214M476.182 356.837s-.694 13.875-1.527 14.847M467.995 373.078s1.526 5.966 9.158.416c7.63-5.55 7.77 2.082 8.047 2.914.278.832 1.527 6.8 4.44 1.804M495.742 370.023s-1.25 12.348 9.713 3.33c10.96-9.02 12.765-.14 13.042 2.636" stroke-width=".80542686" fill="none"/><path d="M482.556 179.1s3.053.417 4.718-.554c1.665-.972 3.608-1.388 4.995.555s2.358 1.804 2.358 1.804-2.082 5.134 0 5.69c2.08.554 3.052.554 3.19 1.248.14.694-1.803 2.22-1.248 2.913.555.694 1.527 1.527 1.665 2.082.14.555-1.248 2.913-.832 3.47.416.554 1.665 2.774 2.497 2.774.833 0 .278 3.47 2.775 2.637s2.36-3.053 2.36-3.053 2.635-.416 3.33-2.775c.693-2.36 2.358-2.914 2.358-2.914s3.33-1.804-1.11-4.58c0-19.425-12.765-17.343-12.765-17.343s-1.527-3.47-4.024-3.053c-2.498.417-2.636 3.33-4.44 3.053-1.804-.278-2.22-1.526-2.36-1.387-.138.138-1.664 2.913-1.664 3.607 0 .694-4.856-.97-4.44 2.636s2.775 3.468 2.636 3.19z" fill-rule="evenodd" stroke-width=".80542686" fill="#9c5100"/><path d="M495.888 174.383s-.972 6.105 5.55 5.55c-.833 3.33 1.665 4.44 1.665 4.44M507.95 188.12c.138 0 2.913 1.803-.14 4.023M498.52 192.975s1.387 1.665 2.913 1.25c1.526-.417 4.024 1.525 4.024 1.525s2.08.694 2.36.278M490.055 198.248s4.718 1.804 7.77-5.688M481.313 190.34l2.775.138" stroke-width=".80542686" fill="none"/><path stroke-linejoin="round" d="M481.736 193.114h2.498l-2.22.972" stroke-width=".80542686" fill="none"/><path stroke-linejoin="round" d="M485.2 185.344c.418 0 1.944-.555 2.222-.138.277.416-1.666.693-2.22.138z" stroke-width="1.4495038400000002" fill="none"/><path d="M515.17 218.31c.14 0 4.58 13.736 5.134 17.205.555 3.47 2.36 17.344 1.665 19.287-.695 1.942-7.77 11.238-8.604 13.597-.832 2.357-5.827 11.376-5.827 11.376s-1.25 8.88-1.805 9.297c-.555.416 1.433 2.596 1.25 3.33-.276.826-4.025 4.717-5.69 4.3-1.665-.415-4.3-2.358-4.44-4.162s.14-7.77 1.388-9.295 7.77-16.927 8.186-17.9c.415-.97 5.965-13.042 6.104-15.122.14-2.082-1.727-6.894-3.69-8.66-4.366-12.853-2.65-20.604 6.326-23.253z" fill-rule="evenodd" stroke-width=".80542686" fill="#ffc6b5"/><path d="M450.524 277.842l.218 6.08M444.827 277.392s3.898 6.52 3.573 9.994" stroke-width=".80542686" fill="none"/><path stroke-linejoin="round" d="M497.078 291.014s2.915-.306 2.823 4.56c1.862-6.045 5.647-6.19 5.647-6.19" stroke-width=".80542686" fill="none"/></g><path d="M466.75 419.62c57.086-1.586 93.954-42.814 93.557-43.21-.396-.397 7.532-11.497 13.875-9.912 6.343 1.586 15.46 20.218 26.56 24.182 5.55 8.722-1.585 16.65-3.963 18.236-2.38 1.586-13.083 5.947-14.67-.396-1.585-6.343-4.757-5.154-4.757-5.154s-50.743 49.554-109.41 47.572c-60.65.4-110.6-47.57-110.6-47.57l-4.36 4.757s-4.758 5.154-7.136 4.758c-2.38-.397-12.686-7.136-13.48-13.875-.792-6.74 6.344-11.1 6.344-11.1s17.444-13.48 19.426-20.614c3.964-3.965 11.496 2.774 11.496 2.774s45.986 52.725 97.125 49.554z" fill-rule="evenodd" stroke="#000" stroke-width="1.673" fill="#f7c600"/><path d="M337.52 388.96s4.717-1.258 6.447.708c1.73 1.965 13.6 13.6 13.6 13.6" stroke="#000" stroke-width="1.673" fill="none"/><path d="M348.29 394.46l-4.717 3.538s11.87 2.358 9.198 10.142M596.49 388.56s-2.36-1.258-6.054 1.494c-3.695 2.75-13.05 13.208-13.05 13.208" stroke="#000" stroke-width="1.673" fill="none"/><path d="M585.88 394.15l5.11 3.93s-10.692.708-8.333 10.85" stroke="#000" stroke-width="1.673" fill="none"/><path d="M397.95 401.54l-.344.482c-.717-.354-1.535-.42-2.453-.197-.675.174-1.945.807-3.812 1.9l-15.707 9.157-.43-.307 3.958-18.363c.48-2.213.697-3.558.656-4.032-.032-.47-.364-.987-.994-1.555l.344-.482 8.467 6.04-.344.48-.287-.204c-.765-.546-1.354-.822-1.768-.83-.293-.01-.53.11-.708.36-.112.157-.21.37-.296.635-.078.258-.25.994-.512 2.208l-2.506 11.478 9.074-5.338c1.092-.65 1.8-1.1 2.125-1.354.326-.253.57-.492.73-.718.185-.26.28-.54.284-.84.003-.298-.093-.596-.287-.892-.27-.414-.71-.84-1.328-1.28l.343-.482 5.797 4.134m5.64 27.295l-.283.52-9.953-5.444.284-.518.632.345c.552.302 1.05.447 1.494.435.315.002.625-.12.93-.367.226-.168.6-.73 1.122-1.684l6.848-12.52c.532-.975.814-1.61.844-1.91.03-.3-.066-.626-.287-.978-.205-.356-.575-.68-1.108-.972l-.632-.345.284-.52 9.953 5.444-.284.518-.632-.346c-.55-.3-1.05-.446-1.494-.434-.315-.002-.63.118-.944.36-.226.167-.6.73-1.122 1.683l-6.848 12.523c-.532.974-.813 1.61-.843 1.91-.022.304.07.635.277.99.22.353.6.675 1.132.966l.63.345m36.36-8.528l-2.565 7.204-.558-.197c.028-2.21-.448-4.067-1.43-5.57-.98-1.506-2.27-2.542-3.868-3.11-1.53-.545-2.954-.566-4.276-.063-1.32.492-2.464 1.432-3.434 2.82-.97 1.386-1.742 2.89-2.318 4.506-.698 1.96-1.08 3.76-1.143 5.402s.292 2.992 1.07 4.05c.788 1.062 1.89 1.846 3.307 2.35.493.175 1.013.304 1.56.386.563.076 1.15.11 1.765.102l1.514-4.25c.287-.804.416-1.34.387-1.612-.024-.28-.178-.58-.462-.895-.273-.314-.656-.558-1.148-.733l-.528-.188.2-.558 9.932 3.537-.2.557c-.77-.218-1.336-.3-1.694-.247-.345.047-.663.223-.952.527-.16.16-.37.61-.635 1.353l-1.514 4.25c-1.513.118-3.03.07-4.55-.143-1.515-.2-3.03-.57-4.548-1.11-1.94-.69-3.46-1.526-4.56-2.507-1.085-.987-1.97-2.083-2.65-3.288-.666-1.21-1.085-2.453-1.254-3.725-.21-1.637-.008-3.315.604-5.033 1.095-3.075 3.1-5.288 6.016-6.638 2.915-1.35 6.01-1.443 9.287-.276 1.015.36 1.9.767 2.657 1.218.413.238 1.045.723 1.893 1.456.863.726 1.384 1.12 1.565 1.186.28.1.578.092.89-.023.317-.125.678-.438 1.083-.94l.558.2m15.32 24.586l-.09.586-11.216-1.7.09-.586.71.108c.623.095 1.14.06 1.554-.104.296-.106.546-.328.748-.664.154-.235.313-.89.476-1.967l2.137-14.11c.165-1.097.21-1.792.137-2.084-.075-.29-.276-.565-.604-.82-.316-.263-.775-.44-1.376-.53l-.712-.11.09-.584 11.215 1.698-.09.585-.71-.108c-.623-.094-1.14-.06-1.554.105-.297.106-.55.326-.764.66-.154.236-.313.892-.476 1.968l-2.137 14.11c-.167 1.097-.213 1.792-.14 2.083.086.295.287.573.603.837.328.255.793.428 1.394.52l.712.106m29.113-7.072l-.427 7.65-19.24.98-.03-.59.72-.037c.628-.032 1.13-.17 1.5-.413.27-.164.47-.43.6-.8.105-.262.13-.936.074-2.022l-.728-14.253c-.056-1.108-.15-1.797-.28-2.068-.133-.27-.385-.5-.757-.683-.363-.195-.847-.277-1.455-.246l-.72.037-.03-.592 11.554-.59.03.592-.942.048c-.63.032-1.13.17-1.5.413-.27.164-.476.43-.617.8-.104.262-.13.936-.073 2.023l.704 13.805c.057 1.108.157 1.813.3 2.116.143.292.405.503.786.633.27.083.918.098 1.94.046l1.806-.094c1.15-.058 2.1-.31 2.845-.754.747-.444 1.374-1.116 1.884-2.018.52-.903.987-2.22 1.4-3.95l.656-.032m21.045-3.65l-7.344 2.192-.27 2.285c-.084.76-.06 1.36.07 1.798.175.583.538.942 1.09 1.077.326.082 1.042 0 2.15-.24l.17.567-6.915 2.065-.17-.567c.712-.336 1.234-.825 1.565-1.47.327-.654.607-1.88.84-3.674l2.48-18.81.29-.086 12.59 14.808c1.197 1.4 2.09 2.243 2.674 2.524.44.214.986.25 1.635.113l.17.567-10.057 3.004-.17-.567.414-.125c.808-.24 1.34-.523 1.6-.845.177-.23.22-.5.128-.806-.055-.184-.142-.364-.262-.54-.048-.086-.315-.423-.803-1.012l-1.878-2.26m-.86-.98l-5.236-6.234-1.05 8.112 6.287-1.878m27.726-28.253l2.78 5.17-.507.274c-.942-1.032-1.735-1.708-2.38-2.027-.65-.33-1.376-.477-2.18-.444-.45.023-1.12.274-2.012.754l-1.423.765 7.926 14.74c.525.978.905 1.56 1.14 1.75.244.184.57.286.982.307.416.006.896-.137 1.44-.43l.635-.34.28.52-10.006 5.38-.28-.52.634-.342c.555-.298.95-.637 1.18-1.016.174-.263.246-.592.215-.987-.018-.28-.284-.9-.8-1.86l-7.925-14.74-1.38.742c-1.288.692-2.076 1.467-2.366 2.325-.408 1.2-.34 2.564.2 4.09l-.535.287-2.782-5.173 17.164-9.228m13.014-7.717l5.32 7.05.344-.26c1.098-.828 1.634-1.773 1.608-2.836s-.48-2.317-1.358-3.766l.486-.365 6.84 9.07-.485.366c-.846-.91-1.673-1.555-2.48-1.935-.8-.386-1.497-.522-2.092-.407-.6.106-1.315.47-2.14 1.094l3.68 4.88c.72.953 1.198 1.508 1.435 1.663.246.148.53.207.855.176.324-.03.733-.23 1.227-.604l1.035-.78c1.618-1.22 2.63-2.57 3.035-4.053.414-1.488.256-3.16-.475-5.013l.473-.357 3.374 6.093-14.97 11.292-.358-.472.574-.434c.502-.38.84-.773 1.01-1.183.133-.288.15-.62.05-1-.06-.275-.42-.847-1.074-1.715l-8.595-11.394c-.59-.783-.975-1.248-1.152-1.395-.31-.233-.64-.344-.993-.333-.503.006-1.036.22-1.598.645l-.575.433-.357-.473 14.498-10.936 3.864 5.124-.485.366c-1.19-1.066-2.218-1.7-3.08-1.905-.855-.21-1.787-.136-2.797.225-.592.206-1.544.804-2.856 1.794l-1.788 1.348"/><path d="M362.92 403.17c70.91 57.515 140.41 58.57 208.41 0" fill="none"/></g></g></svg>