<svg xmlns="http://www.w3.org/2000/svg" height="480" width="640" version="1" xmlns:xlink="http://www.w3.org/1999/xlink"><defs><linearGradient id="a"><stop stop-color="red" offset="0"/><stop stop-color="#ff0" offset="1"/></linearGradient><linearGradient id="c" y2="107.76" xlink:href="#a" gradientUnits="userSpaceOnUse" y1="111.28" gradientTransform="matrix(.64274 0 0 1.4534 -94.683 29.21)" x2="92.551" x1="103.08"/><linearGradient id="d" y2="107.76" xlink:href="#a" gradientUnits="userSpaceOnUse" y1="111.28" gradientTransform="matrix(.64274 0 0 1.4534 -94.666 30.155)" x2="92.551" x1="103.08"/><linearGradient id="e" y2="107.76" xlink:href="#a" gradientUnits="userSpaceOnUse" y1="111.28" gradientTransform="matrix(.64274 0 0 1.4534 -97.986 31.014)" x2="92.551" x1="103.08"/><linearGradient id="f" y2="107.76" xlink:href="#a" gradientUnits="userSpaceOnUse" y1="111.28" gradientTransform="matrix(.64274 0 0 1.4534 -94.743 31.932)" x2="92.551" x1="103.08"/><linearGradient id="g" y2="107.76" xlink:href="#a" gradientUnits="userSpaceOnUse" y1="111.28" gradientTransform="matrix(.64274 0 0 1.4534 -94.75 32.835)" x2="92.551" x1="103.08"/><linearGradient id="h" y2="107.76" xlink:href="#a" gradientUnits="userSpaceOnUse" y1="111.28" gradientTransform="matrix(.64274 0 0 1.4534 -94.767 33.75)" x2="92.551" x1="103.08"/><linearGradient id="i" y2="107.76" xlink:href="#a" gradientUnits="userSpaceOnUse" y1="111.28" gradientTransform="matrix(.64274 0 0 1.4534 -98.01 33.736)" x2="92.551" x1="103.08"/><linearGradient id="j" y2="107.76" xlink:href="#a" gradientUnits="userSpaceOnUse" y1="111.28" gradientTransform="matrix(.64274 0 0 1.4534 -97.98 32.837)" x2="92.551" x1="103.08"/><linearGradient id="k" y2="107.76" xlink:href="#a" gradientUnits="userSpaceOnUse" y1="111.28" gradientTransform="matrix(.64274 0 0 1.4534 -97.942 31.918)" x2="92.551" x1="103.08"/><linearGradient id="l" y2="107.76" xlink:href="#a" gradientUnits="userSpaceOnUse" y1="111.28" gradientTransform="matrix(.828 0 0 1.8726 602.82 148.17)" x2="92.551" x1="103.08"/><linearGradient id="m" y2="107.76" xlink:href="#a" gradientUnits="userSpaceOnUse" y1="111.28" gradientTransform="matrix(.64274 0 0 1.4534 -97.976 30.11)" x2="92.551" x1="103.08"/><linearGradient id="n" y2="107.76" xlink:href="#a" gradientUnits="userSpaceOnUse" y1="111.28" gradientTransform="matrix(.64274 0 0 1.4534 -95.336 30.955)" x2="92.551" x1="103.08"/><clipPath id="b"><path fill-opacity=".67" d="M0 0h640v480H0z"/></clipPath></defs><g clip-path="url(#b)"><path fill="#006" d="M0 0h960v480H0z"/><path fill-rule="evenodd" fill="#006" d="M0 0h350.002v175H0z"/><g stroke-width="1pt"><path d="M0 0v19.566L310.87 175h39.132v-19.564L39.13 0H0zm350.002 0v19.565L39.13 175H0v-19.564L310.87 0h39.132z" fill="#fff"/><path d="M145.834 0v175h58.334V0h-58.334zM0 58.334v58.333h350.002V58.334H0z" fill="#fff"/><path d="M0 70v35h350.002V70H0zM157.5 0v175h35V0h-35zM0 175l116.667-58.333h26.087L26.087 175H0zM0 0l116.667 58.334H90.58L0 13.044V0zm207.248 58.334L323.915 0h26.087L233.334 58.334h-26.086zM350.002 175l-116.668-58.333h26.087l90.582 45.29V175z" fill="#c00"/></g><g><path d="M378.474 154.457l219.342-.814-.407 195.333s7.73 29.706-91.968 74.876c35.81-3.663 74.876-41.914 74.876-41.914s15.87-20.347 23.603-8.953c7.732 11.394 15.057 17.09 20.754 21.568 5.697 4.476 10.174 16.685 1.628 25.637-8.546 8.952-21.974 10.173-25.637-.814-5.697 2.85-40.693 45.17-112.31 47.205-72.84-1.22-112.72-47.61-112.72-47.61s-9.766 15.463-23.602 3.255c-13.428-15.87-3.255-26.044-3.255-26.044s11.394-6.51 14.65-10.987c5.29-6.104 6.917-14.243 15.87-14.243 10.58.814 14.65 9.36 14.65 9.36s36.624 38.66 76.096 43.542c-89.12-42.728-92.375-69.18-91.968-75.69l.407-193.7z" fill-rule="evenodd" fill="#fff"/><path d="M383.76 159.743l209.16-1.22v188.003c.407 24.416-40.694 49.24-104.99 80.98-66.323-34.183-104.57-54.94-104.98-81.38l.813-186.373z" fill-rule="evenodd" stroke="#000" stroke-width="1.7173345" fill="#006129"/><path d="M408.912 366.902l12.346-18.133 12.407 18.17" stroke="#f7c600" stroke-width="1.71797946" fill="none"/><path d="M423.74 360.115a2.452 2.452 0 1 1-2.453-2.452 2.452 2.452 0 0 1 2.452 2.452z" fill-rule="evenodd" stroke="#000" stroke-width=".8050560000000001" fill="#f7c600"/><path d="M411.233 380.3l19.14.054s.3-2.484-1.998-3.994c10.025-1.378 7.42-10.222 15.817-10.723 1.63.25-4.386 3.76-4.386 3.76s-5.062 3.572-2.757 5.388c1.83 1.442 2.63-.877 2.882-2.63.25-1.756 8.145-2.884 7.018-7.896-1.88-4.137-12.908 2.756-12.908 2.756l-7.868-.044c-.49-.883-2.66-4.424-4.898-4.44-2.657.096-4.528 4.484-4.528 4.484h-17.796s-.61 4.566 8.413 5.443c2.032 2.652 3.607 3.393 5.373 4.08-1.178.98-1.51 2.168-1.504 3.76z" fill-rule="evenodd" stroke="#000" stroke-width=".80542686" fill="#f7c600"/><path d="M412.61 376.41l15.944-.053M405.31 367.008s1.275 7.457 7.16 9.223" stroke="#000" stroke-width=".80542686" fill="none"/><path d="M66.32 170.54c.445-2.15 1.26-2.522 2.15-5.267.15-2.67-2.15-2.374-1.482-4.08 1.187-1.855.593-3.635-1.632-5.045.445 2.448-2.894 4.748-2.894 6.75 0 2.004 1.707 1.56 1.484 4.6.148 1.78-.445 1.336-.593 3.042h2.967z" fill-rule="evenodd" stroke="#000" stroke-width=".609" fill="url(#c)" transform="matrix(1.3225 0 0 1.3225 316.617 141.37)"/><path d="M423.542 349.227a2.256 2.256 0 1 1-2.256-2.257 2.256 2.256 0 0 1 2.256 2.257z" fill-rule="evenodd" stroke="#000" stroke-width=".80542686" fill="#f7c600"/><path d="M408.214 329.58l12.346-18.134 12.407 18.172" stroke="#f7c600" stroke-width="1.71797946" fill="none"/><path d="M423.04 322.793a2.452 2.452 0 1 1-2.45-2.453 2.452 2.452 0 0 1 2.45 2.453z" fill-rule="evenodd" stroke="#000" stroke-width=".8050560000000001" fill="#f7c600"/><path d="M410.535 342.977l19.14.055s.3-2.485-1.998-3.994c10.025-1.38 7.42-10.222 15.817-10.723 1.63.25-4.386 3.76-4.386 3.76s-5.062 3.572-2.757 5.388c1.832 1.442 2.633-.877 2.884-2.632.25-1.753 8.145-2.88 7.018-7.894-1.88-4.135-12.908 2.757-12.908 2.757l-7.868-.044c-.49-.884-2.66-4.425-4.898-4.44-2.657.096-4.528 4.483-4.528 4.483h-17.796s-.61 4.566 8.413 5.443c2.032 2.653 3.607 3.395 5.372 4.08-1.178.983-1.51 2.17-1.504 3.76z" fill-rule="evenodd" stroke="#000" stroke-width=".80542686" fill="#f7c600"/><path d="M411.913 339.09l15.943-.056M404.61 329.686s1.277 7.456 7.163 9.222" stroke="#000" stroke-width=".80542686" fill="none"/><path d="M66.32 170.54c.445-2.15 1.26-2.522 2.15-5.267.15-2.67-2.15-2.374-1.482-4.08 1.187-1.855.593-3.635-1.632-5.045.445 2.448-2.894 4.748-2.894 6.75 0 2.004 1.707 1.56 1.484 4.6.148 1.78-.445 1.336-.593 3.042h2.967z" fill-rule="evenodd" stroke="#000" stroke-width=".609" fill="url(#d)" transform="matrix(1.3225 0 0 1.3225 315.92 104.047)"/><path d="M422.844 311.904a2.256 2.256 0 1 1-2.256-2.256 2.256 2.256 0 0 1 2.256 2.256z" fill-rule="evenodd" stroke="#000" stroke-width=".80542686" fill="#f7c600"/><path d="M539.38 295.652l12.347-18.134 12.406 18.172" stroke="#f7c600" stroke-width="1.71797946" fill="none"/><path d="M554.207 288.865a2.452 2.452 0 1 1-2.452-2.453 2.452 2.452 0 0 1 2.452 2.453z" fill-rule="evenodd" stroke="#000" stroke-width=".8050560000000001" fill="#f7c600"/><path d="M541.7 309.05l19.142.054s.3-2.484-2-3.994c10.027-1.38 7.422-10.222 15.82-10.723 1.628.25-4.388 3.76-4.388 3.76s-5.062 3.572-2.757 5.388c1.83 1.442 2.632-.877 2.883-2.632.25-1.754 8.146-2.882 7.018-7.895-1.88-4.135-12.908 2.757-12.908 2.757l-7.868-.043c-.49-.884-2.66-4.425-4.898-4.44-2.657.096-4.528 4.483-4.528 4.483H529.42s-.61 4.566 8.413 5.443c2.032 2.654 3.607 3.395 5.373 4.082-1.178.98-1.51 2.168-1.504 3.76z" fill-rule="evenodd" stroke="#000" stroke-width=".80542686" fill="#f7c600"/><path d="M543.08 305.16l15.942-.053M535.777 295.758s1.276 7.456 7.163 9.222" stroke="#000" stroke-width=".80542686" fill="none"/><path d="M66.32 170.54c.445-2.15 1.26-2.522 2.15-5.267.15-2.67-2.15-2.374-1.482-4.08 1.187-1.855.593-3.635-1.632-5.045.445 2.448-2.894 4.748-2.894 6.75 0 2.004 1.707 1.56 1.484 4.6.148 1.78-.445 1.336-.593 3.042h2.967z" fill-rule="evenodd" stroke="#000" stroke-width=".609" fill="url(#e)" transform="matrix(1.3225 0 0 1.3225 447.085 70.12)"/><path d="M554.01 277.976a2.256 2.256 0 1 1-2.256-2.256 2.256 2.256 0 0 1 2.256 2.256z" fill-rule="evenodd" stroke="#000" stroke-width=".80542686" fill="#f7c600"/><path d="M411.273 259.372l12.346-18.134 12.406 18.172" stroke="#f7c600" stroke-width="1.71797946" fill="none"/><path d="M426.1 252.585a2.452 2.452 0 1 1-2.452-2.453 2.452 2.452 0 0 1 2.452 2.453z" fill-rule="evenodd" stroke="#000" stroke-width=".8050560000000001" fill="#f7c600"/><path d="M413.594 272.77l19.14.053s.3-2.484-1.998-3.994c10.025-1.38 7.42-10.222 15.817-10.724 1.63.25-4.386 3.76-4.386 3.76s-5.062 3.572-2.757 5.39c1.83 1.44 2.632-.878 2.883-2.633.25-1.754 8.145-2.882 7.018-7.895-1.88-4.136-12.907 2.757-12.907 2.757l-7.868-.044c-.49-.882-2.66-4.423-4.898-4.44-2.657.098-4.528 4.485-4.528 4.485h-17.797s-.61 4.566 8.413 5.443c2.032 2.653 3.606 3.394 5.372 4.08-1.177.982-1.508 2.17-1.503 3.76z" fill-rule="evenodd" stroke="#000" stroke-width=".80542686" fill="#f7c600"/><path d="M414.972 268.88l15.943-.054M407.67 259.477s1.276 7.457 7.162 9.223" stroke="#000" stroke-width=".80542686" fill="none"/><path d="M66.32 170.54c.445-2.15 1.26-2.522 2.15-5.267.15-2.67-2.15-2.374-1.482-4.08 1.187-1.855.593-3.635-1.632-5.045.445 2.448-2.894 4.748-2.894 6.75 0 2.004 1.707 1.56 1.484 4.6.148 1.78-.445 1.336-.593 3.042h2.967z" fill-rule="evenodd" stroke="#000" stroke-width=".609" fill="url(#f)" transform="matrix(1.3225 0 0 1.3225 318.978 33.838)"/><path d="M425.903 241.696a2.256 2.256 0 1 1-2.256-2.257 2.256 2.256 0 0 1 2.256 2.256z" fill-rule="evenodd" stroke="#000" stroke-width=".80542686" fill="#f7c600"/><g><path d="M411.55 223.713l12.347-18.134 12.406 18.17" stroke="#f7c600" stroke-width="1.71797946" fill="none"/><path d="M426.377 216.926a2.452 2.452 0 1 1-2.452-2.453 2.452 2.452 0 0 1 2.452 2.453z" fill-rule="evenodd" stroke="#000" stroke-width=".8050560000000001" fill="#f7c600"/><path d="M413.87 237.11l19.142.055s.3-2.485-2-3.994c10.027-1.378 7.422-10.22 15.82-10.722 1.628.25-4.388 3.76-4.388 3.76s-5.062 3.572-2.757 5.388c1.83 1.442 2.632-.877 2.883-2.632.25-1.754 8.146-2.882 7.018-7.895-1.88-4.136-12.908 2.756-12.908 2.756l-7.868-.044c-.49-.883-2.66-4.424-4.898-4.44-2.657.097-4.528 4.484-4.528 4.484H401.59s-.61 4.566 8.413 5.443c2.032 2.652 3.607 3.394 5.373 4.08-1.178.982-1.51 2.17-1.504 3.76z" fill-rule="evenodd" stroke="#000" stroke-width=".80542686" fill="#f7c600"/><path d="M415.25 233.222l15.942-.055M407.947 223.818s1.276 7.457 7.163 9.223" stroke="#000" stroke-width=".80542686" fill="none"/><path d="M66.32 170.54c.445-2.15 1.26-2.522 2.15-5.267.15-2.67-2.15-2.374-1.482-4.08 1.187-1.855.593-3.635-1.632-5.045.445 2.448-2.894 4.748-2.894 6.75 0 2.004 1.707 1.56 1.484 4.6.148 1.78-.445 1.336-.593 3.042h2.967z" fill-rule="evenodd" stroke="#000" stroke-width=".609" fill="url(#g)" transform="matrix(1.3225 0 0 1.3225 319.255 -1.82)"/><path d="M426.18 206.037a2.256 2.256 0 1 1-2.256-2.256 2.256 2.256 0 0 1 2.256 2.257z" fill-rule="evenodd" stroke="#000" stroke-width=".80542686" fill="#f7c600"/></g><g><path d="M412.228 187.533l12.346-18.134 12.407 18.17" stroke="#f7c600" stroke-width="1.71797946" fill="none"/><path d="M427.054 180.746a2.452 2.452 0 1 1-2.452-2.453 2.452 2.452 0 0 1 2.452 2.453z" fill-rule="evenodd" stroke="#000" stroke-width=".8050560000000001" fill="#f7c600"/><path d="M414.55 200.93l19.14.054s.3-2.484-2-3.993c10.026-1.378 7.422-10.22 15.818-10.723 1.63.25-4.386 3.76-4.386 3.76s-5.062 3.573-2.757 5.39c1.83 1.44 2.632-.878 2.882-2.633.25-1.754 8.146-2.882 7.018-7.895-1.88-4.136-12.908 2.756-12.908 2.756l-7.868-.044c-.49-.883-2.66-4.424-4.9-4.44-2.656.097-4.527 4.484-4.527 4.484h-17.796s-.61 4.566 8.413 5.443c2.032 2.652 3.607 3.394 5.373 4.08-1.177.982-1.51 2.17-1.504 3.76z" fill-rule="evenodd" stroke="#000" stroke-width=".80542686" fill="#f7c600"/><path d="M415.927 197.042l15.943-.055M408.625 187.638s1.275 7.457 7.162 9.223" stroke="#000" stroke-width=".80542686" fill="none"/><path d="M66.32 170.54c.445-2.15 1.26-2.522 2.15-5.267.15-2.67-2.15-2.374-1.482-4.08 1.187-1.855.593-3.635-1.632-5.045.445 2.448-2.894 4.748-2.894 6.75 0 2.004 1.707 1.56 1.484 4.6.148 1.78-.445 1.336-.593 3.042h2.967z" fill-rule="evenodd" stroke="#000" stroke-width=".609" fill="url(#h)" transform="matrix(1.3225 0 0 1.3225 319.933 -38)"/><path d="M426.857 169.857a2.256 2.256 0 1 1-2.255-2.256 2.256 2.256 0 0 1 2.255 2.257z" fill-rule="evenodd" stroke="#000" stroke-width=".80542686" fill="#f7c600"/></g><g><path d="M540.355 188.122l12.347-18.134 12.406 18.172" stroke="#f7c600" stroke-width="1.71797946" fill="none"/><path d="M555.182 181.335a2.452 2.452 0 1 1-2.452-2.453 2.452 2.452 0 0 1 2.452 2.453z" fill-rule="evenodd" stroke="#000" stroke-width=".8050560000000001" fill="#f7c600"/><path d="M542.676 201.52l19.14.054s.302-2.484-1.998-3.994c10.026-1.38 7.42-10.222 15.818-10.723 1.63.25-4.386 3.76-4.386 3.76s-5.063 3.572-2.757 5.388c1.83 1.442 2.63-.877 2.882-2.632.25-1.754 8.146-2.882 7.018-7.895-1.88-4.135-12.908 2.757-12.908 2.757l-7.868-.043c-.49-.884-2.66-4.425-4.898-4.44-2.658.096-4.53 4.483-4.53 4.483h-17.793s-.612 4.566 8.412 5.443c2.03 2.654 3.605 3.395 5.37 4.082-1.176.98-1.508 2.168-1.503 3.76z" fill-rule="evenodd" stroke="#000" stroke-width=".80542686" fill="#f7c600"/><path d="M544.054 197.63l15.944-.053M536.753 188.228s1.275 7.456 7.162 9.222" stroke="#000" stroke-width=".80542686" fill="none"/><path d="M66.32 170.54c.445-2.15 1.26-2.522 2.15-5.267.15-2.67-2.15-2.374-1.482-4.08 1.187-1.855.593-3.635-1.632-5.045.445 2.448-2.894 4.748-2.894 6.75 0 2.004 1.707 1.56 1.484 4.6.148 1.78-.445 1.336-.593 3.042h2.967z" fill-rule="evenodd" stroke="#000" stroke-width=".609" fill="url(#i)" transform="matrix(1.3225 0 0 1.3225 448.06 -37.41)"/><path d="M554.985 170.446a2.256 2.256 0 1 1-2.256-2.256 2.256 2.256 0 0 1 2.255 2.256z" fill-rule="evenodd" stroke="#000" stroke-width=".80542686" fill="#f7c600"/></g><g><path d="M539.185 223.638l12.347-18.134 12.406 18.172" stroke="#f7c600" stroke-width="1.71797946" fill="none"/><path d="M554.012 216.85a2.452 2.452 0 1 1-2.452-2.452 2.452 2.452 0 0 1 2.452 2.453z" fill-rule="evenodd" stroke="#000" stroke-width=".8050560000000001" fill="#f7c600"/><path d="M541.506 237.035l19.14.055s.3-2.485-1.998-3.994c10.026-1.38 7.42-10.222 15.818-10.723 1.63.25-4.387 3.76-4.387 3.76s-5.063 3.572-2.758 5.388c1.83 1.443 2.632-.876 2.883-2.63.25-1.755 8.146-2.883 7.018-7.896-1.88-4.135-12.908 2.757-12.908 2.757l-7.868-.043c-.49-.883-2.66-4.424-4.898-4.44-2.658.097-4.53 4.484-4.53 4.484h-17.795s-.61 4.567 8.413 5.444c2.032 2.653 3.607 3.395 5.373 4.08-1.177.983-1.508 2.17-1.503 3.76z" fill-rule="evenodd" stroke="#000" stroke-width=".80542686" fill="#f7c600"/><path d="M542.884 233.147l15.943-.055M535.582 223.744s1.276 7.456 7.163 9.222" stroke="#000" stroke-width=".80542686" fill="none"/><path d="M66.32 170.54c.445-2.15 1.26-2.522 2.15-5.267.15-2.67-2.15-2.374-1.482-4.08 1.187-1.855.593-3.635-1.632-5.045.445 2.448-2.894 4.748-2.894 6.75 0 2.004 1.707 1.56 1.484 4.6.148 1.78-.445 1.336-.593 3.042h2.967z" fill-rule="evenodd" stroke="#000" stroke-width=".609" fill="url(#j)" transform="matrix(1.3225 0 0 1.3225 446.89 -1.895)"/><path d="M553.815 205.962a2.256 2.256 0 1 1-2.256-2.256 2.256 2.256 0 0 1 2.255 2.256z" fill-rule="evenodd" stroke="#000" stroke-width=".80542686" fill="#f7c600"/></g><g><path d="M537.615 259.94l12.346-18.134 12.408 18.172" stroke="#f7c600" stroke-width="1.71797946" fill="none"/><path d="M552.44 253.152a2.452 2.452 0 1 1-2.45-2.452 2.452 2.452 0 0 1 2.45 2.452z" fill-rule="evenodd" stroke="#000" stroke-width=".8050560000000001" fill="#f7c600"/><path d="M539.936 273.337l19.14.054s.3-2.483-2-3.993c10.027-1.38 7.422-10.222 15.82-10.723 1.628.25-4.387 3.76-4.387 3.76s-5.063 3.572-2.758 5.388c1.83 1.442 2.632-.877 2.882-2.63.25-1.756 8.146-2.884 7.018-7.896-1.88-4.136-12.908 2.757-12.908 2.757l-7.868-.044c-.49-.884-2.66-4.425-4.898-4.442-2.657.097-4.528 4.485-4.528 4.485h-17.794s-.61 4.565 8.412 5.443c2.03 2.653 3.606 3.394 5.372 4.08-1.177.982-1.51 2.17-1.504 3.76z" fill-rule="evenodd" stroke="#000" stroke-width=".80542686" fill="#f7c600"/><path d="M541.314 269.448l15.943-.054M534.012 260.045s1.275 7.457 7.162 9.223" stroke="#000" stroke-width=".80542686" fill="none"/><path d="M66.32 170.54c.445-2.15 1.26-2.522 2.15-5.267.15-2.67-2.15-2.374-1.482-4.08 1.187-1.855.593-3.635-1.632-5.045.445 2.448-2.894 4.748-2.894 6.75 0 2.004 1.707 1.56 1.484 4.6.148 1.78-.445 1.336-.593 3.042h2.967z" fill-rule="evenodd" stroke="#000" stroke-width=".609" fill="url(#k)" transform="matrix(1.3225 0 0 1.3225 445.32 34.406)"/><path d="M552.244 242.263a2.256 2.256 0 1 1-2.256-2.256 2.256 2.256 0 0 1 2.256 2.256z" fill-rule="evenodd" stroke="#000" stroke-width=".80542686" fill="#f7c600"/></g><path d="M539.183 367.27l12.346-18.132 12.406 18.17" stroke="#f7c600" stroke-width="1.2882574999999998" fill="none"/><path d="M554.005 360.496a2.452 2.452 0 1 1-2.452-2.453 2.452 2.452 0 0 1 2.452 2.453z" fill-rule="evenodd" stroke="#000" stroke-width=".804776" fill="#f7c600"/><path d="M541.503 380.667l19.14.054s.3-2.483-2-3.993c10.027-1.378 7.423-10.222 15.82-10.723 1.628.25-4.387 3.76-4.387 3.76s-5.063 3.572-2.757 5.39c1.83 1.44 2.63-.878 2.88-2.633.252-1.753 8.147-2.88 7.02-7.894-1.88-4.136-12.91 2.757-12.91 2.757l-7.867-.044c-.49-.884-2.66-4.425-4.898-4.44-2.657.096-4.528 4.483-4.528 4.483H529.222s-.61 4.566 8.412 5.443c2.03 2.653 3.606 3.394 5.372 4.08-1.177.982-1.51 2.17-1.504 3.76z" fill-rule="evenodd" stroke="#000" stroke-width=".804776" fill="#f7c600"/><path d="M542.878 376.776l15.943-.054M535.58 367.384s1.275 7.456 7.162 9.222" stroke="#000" stroke-width=".804776" fill="none"/><path d="M814.5 330.27c.573-2.772 1.625-3.25 2.772-6.786.19-3.44-2.772-3.06-1.912-5.257 1.53-2.39.765-4.683-2.103-6.5.574 3.155-3.727 6.118-3.727 8.698s2.198 2.008 1.91 5.926c.193 2.295-.572 1.722-.763 3.92h3.823z" fill-rule="evenodd" stroke="#000" stroke-width=".784" fill="url(#l)" transform="translate(-301.49 28.26) scale(1.0265)"/><path d="M553.81 349.606a2.256 2.256 0 1 1-2.255-2.257 2.256 2.256 0 0 1 2.255 2.256z" fill-rule="evenodd" stroke="#000" stroke-width=".804776" fill="#f7c600"/><g><path d="M538.99 331.364l12.346-18.134 12.407 18.172" stroke="#f7c600" stroke-width="1.71797946" fill="none"/><path d="M553.817 324.577a2.452 2.452 0 1 1-2.452-2.453 2.452 2.452 0 0 1 2.452 2.453z" fill-rule="evenodd" stroke="#000" stroke-width=".8050560000000001" fill="#f7c600"/><path d="M541.31 344.76l19.142.056s.3-2.485-2-3.994c10.026-1.38 7.422-10.222 15.82-10.723 1.628.25-4.388 3.758-4.388 3.758s-5.062 3.573-2.757 5.39c1.83 1.44 2.632-.878 2.883-2.633.25-1.754 8.146-2.882 7.018-7.895-1.88-4.135-12.908 2.757-12.908 2.757l-7.868-.044c-.49-.883-2.66-4.424-4.898-4.44-2.657.097-4.528 4.484-4.528 4.484H529.03s-.61 4.566 8.413 5.443c2.032 2.653 3.607 3.395 5.373 4.082-1.178.98-1.51 2.168-1.504 3.76z" fill-rule="evenodd" stroke="#000" stroke-width=".80542686" fill="#f7c600"/><path d="M542.69 340.873l15.942-.055M535.387 331.47s1.276 7.456 7.163 9.222" stroke="#000" stroke-width=".80542686" fill="none"/><path d="M66.32 170.54c.445-2.15 1.26-2.522 2.15-5.267.15-2.67-2.15-2.374-1.482-4.08 1.187-1.855.593-3.635-1.632-5.045.445 2.448-2.894 4.748-2.894 6.75 0 2.004 1.707 1.56 1.484 4.6.148 1.78-.445 1.336-.593 3.042h2.967z" fill-rule="evenodd" stroke="#000" stroke-width=".609" fill="url(#m)" transform="matrix(1.3225 0 0 1.3225 446.695 105.83)"/><path d="M553.62 313.688a2.256 2.256 0 1 1-2.256-2.256 2.256 2.256 0 0 1 2.256 2.256z" fill-rule="evenodd" stroke="#000" stroke-width=".80542686" fill="#f7c600"/></g><g><path d="M434.677 297.99l12.347-18.134 12.406 18.172" stroke="#f7c600" stroke-width="1.71797946" fill="none"/><path d="M449.504 291.202a2.452 2.452 0 1 1-2.452-2.452 2.452 2.452 0 0 1 2.452 2.452z" fill-rule="evenodd" stroke="#000" stroke-width=".8050560000000001" fill="#f7c600"/><path d="M436.998 311.387l19.14.054s.3-2.483-1.998-3.993c10.026-1.38 7.42-10.222 15.818-10.723 1.63.25-4.387 3.76-4.387 3.76s-5.06 3.572-2.756 5.388c1.83 1.442 2.632-.877 2.883-2.63.25-1.756 8.146-2.884 7.018-7.896-1.88-4.136-12.908 2.757-12.908 2.757l-7.868-.044c-.492-.884-2.66-4.425-4.9-4.442-2.656.097-4.527 4.485-4.527 4.485h-17.797s-.61 4.565 8.413 5.443c2.032 2.653 3.607 3.394 5.373 4.08-1.178.982-1.51 2.17-1.504 3.76z" fill-rule="evenodd" stroke="#000" stroke-width=".80542686" fill="#f7c600"/><path d="M438.376 307.498l15.943-.054M431.074 298.095s1.276 7.457 7.163 9.223" stroke="#000" stroke-width=".80542686" fill="none"/><path d="M66.32 170.54c.445-2.15 1.26-2.522 2.15-5.267.15-2.67-2.15-2.374-1.482-4.08 1.187-1.855.593-3.635-1.632-5.045.445 2.448-2.894 4.748-2.894 6.75 0 2.004 1.707 1.56 1.484 4.6.148 1.78-.445 1.336-.593 3.042h2.967z" fill-rule="evenodd" stroke="#000" stroke-width=".609" fill="url(#n)" transform="matrix(1.3225 0 0 1.3225 342.382 72.456)"/><path d="M449.307 280.313a2.256 2.256 0 1 1-2.256-2.256 2.256 2.256 0 0 1 2.257 2.256z" fill-rule="evenodd" stroke="#000" stroke-width=".80542686" fill="#f7c600"/></g><g stroke="#000"><path d="M500.74 384.174s4.996 11.516 10.685 4.44 3.608-10.13 3.608-10.13l-12.765-6.936-3.747 7.91 2.22 4.716z" fill-rule="evenodd" stroke-width=".80542686" fill="#f7c600"/><path d="M511.705 382.653s.833.14 1.526-1.11-1.525-1.804-2.496-3.19l-1.11 2.22 2.08 2.08zM482.834 379.598l-11.24 6.105s-5.55 1.11-5.965 0c-.417-1.11.138-2.08 3.05-2.22 2.915-.14 10.824-7.354 10.824-7.354l3.33 3.468zM482.98 179.934s.277 2.636.416 4.023-2.22 4.302-2.36 4.163-1.248.14-1.11.97 1.805 1.11 1.805 1.11-.693 2.915 0 3.054c.695.14-1.803 3.746 0 4.717 1.805.972 4.857 2.22 6.245 1.944 1.387-.278 0 5.41 0 5.41l-3.885 8.326 21.367-2.22-4.44-7.076s-2.082-1.388-1.527-5.412c.555-4.023-.277-22.2-.277-22.2l-15.262-2.08-.97 5.272zM479.09 211.57s-6.936 3.19-6.66 11.793c-1.802 8.325-2.774 16.65-2.774 16.65s-8.186 9.295-10.683 12.626c-2.498 3.33-6.244 10.127-7.632 11.93s-6.798 7.77-6.66 9.99c.14 2.22-1.248 12.073 4.164 13.182 1.387.555 5.827-11.377 5.827-11.377s.28-5.134-1.247-6.105 3.33-4.3 3.33-4.3 9.296-6.8 11.377-8.465 7.77-8.048 7.77-8.048l3.19-37.88z" fill-rule="evenodd" stroke-width=".80542686" fill="#ffc6b5"/><path d="M487 205.048s1.804 4.856 5.828 4.023c4.023-.83 8.74-4.578 8.74-4.578s3.747-.138 4.302.417c.555.554 10.13 9.85 9.852 12.764-.278 2.914-4.44 2.08-5.967 4.023s-4.024 6.8-3.33 10.407 2.775 8.325 2.498 10.13-1.804 2.357-1.804 3.328c0 .972 1.248 2.637 1.248 4.44s-1.665 4.44-1.388 6.244c.278 1.804.417 7.076.417 7.076l-.417 24.42s1.388.834 1.527 2.22c.138 1.39 9.435 41.764 9.435 41.764s-.417 1.25-1.388 1.11 3.746 6.244 3.885 8.048 4.855 15.957 4.717 17.9c-.14 1.942-.833 6.243-1.25 6.382-.415.14 3.053 8.88 2.498 10.267-.555 1.388-6.243 1.25-6.243 1.25l-1.527-.278s.14 1.803-.97 1.942-9.297-.416-9.297-.416-2.36 3.608-3.746 3.47c-1.388-.14-3.192-2.637-3.608-2.22-.416.416 1.25 2.775.832 3.468-.416.694-7.492 2.22-8.88-1.11-1.387-3.33.833-2.497.417-3.19-.417-.695-3.608-2.498-4.58-1.943s2.498 1.387 2.36 2.775c-.14 1.387-3.053 3.468-4.163 3.468s-3.746-5.133-7.63-4.578c-3.886.555-6.384 1.526-6.384 1.526s-4.578 1.942-6.52 1.526c-1.943-.416-2.776-1.942-2.776-2.775 0-.832 1.388-4.44 1.25-5.55s-1.25-2.22-1.25-3.885c0-1.665 3.19-7.354 3.19-7.354l-.137-25.53s-2.914 0-3.053-1.804 4.44-40.376 5.134-42.874c.694-2.498 2.497-11.378 2.497-11.378s-2.08.972-2.22 0 6.245-23.032 6.245-23.032 1.11-10.96 1.11-13.875c0-2.913-.555-6.937-.555-6.937s-5.696-2.412-5.827-6.105c-.52-5.877 5.41-9.158 6.105-11.1l2.775-7.77s3.052-5.273 8.047-6.105z" fill-rule="evenodd" stroke-width=".80542686" fill="#fff"/><path d="M484.924 381.264s-13.458 7.077-15.4 7.632c-1.944.555-3.193-2.36-1.25-2.914 1.943-.555 4.995-.833 4.995-.833s-4.58-3.608-4.44-3.747c.138-.14 6.243-2.358 6.382-2.358s1.942 3.607 3.19 3.33 4.857-3.053 4.857-3.053 1.942 2.22 1.664 1.942z" fill-rule="evenodd" stroke-width=".80542686" fill="#f7c600"/><path d="M503.89 385.14c1.272 1.64 1.77 4.487 4.683 2.822 2.914-1.665-1.493-4.755-1.493-4.755l-3.19 1.932z" fill-rule="evenodd" stroke-width=".80542686" fill="#ffc6b5"/><path d="M509.206 384.862s1.387 1.11 2.636-.14-2.498-3.884-2.498-3.884l-1.803 2.08 1.666 1.944z" fill-rule="evenodd" stroke-width=".80542686" fill="#ffc6b5"/><path d="M505.04 210.458s-12.35 7.91-12.072 10.684M507.817 211.845s-2.775 3.053-2.914 3.053M511.56 215.176s-6.105 4.995-5.134 8.186M482.702 209.765s-1.804 3.746-1.388 4.995c.417 1.25 3.47 5.966 3.885 8.88.416 2.914 0 4.995 0 4.995M479.515 216.702s.554 4.44 1.387 5.272c.833.833 3.053 4.58 3.33 6.105M478.404 235.155s3.607 1.804 6.937-5.134M490.743 225.166c-.14 0-2.636 6.8 1.804 9.296s7.77 2.22 9.712 1.527c1.942-.695 4.023-1.944 4.023-1.944M488.812 233.49s.277 9.16 13.736 18.178M489.367 242.093s-.138 8.048 5.134 11.655M486.59 232.658s-4.024 11.933-7.215 13.182M485.334 241.4s-.14 8.603-1.25 11.655M482.98 255.136s2.775 3.47 5.827 3.19c3.053-.276 4.3-3.884 6.383-3.33 2.08.557 4.023 2.222 8.88 1.805M497.13 260.408s0 7.076 1.25 7.77.693 7.215.693 7.215M480.202 257.08s-.138 6.66-.97 9.018c-.833 2.358-2.498 6.382-2.22 9.85M471.738 279.84c.694-.28 3.053-2.36 3.053-2.36M476.036 279.005s-5.966 25.53-4.3 40.793M477.425 280.25s-3.053 19.146-1.665 22.754M475.904 279.693c.14 0 11.655.833 11.655.833M489.222 279.005s3.19 1.666 7.63 1.388M487.833 288.303s-.555 32.745-1.387 39.96M504.907 295.788s3.608 28.722 5.69 31.358M497.964 299.4s2.22 25.39 3.47 27.61M466.474 335.888s4.3-1.388 8.186-5.55c4.44 5.966 11.24.278 11.24.278s10.544 7.215 15.26-.833c7.216 4.718 10.824-.694 10.824-.694s2.636 4.023 4.58 3.607M505.04 335.478s5.41 25.39 13.458 32.606M477.147 332.833s.694 21.23 1.943 36.214M476.182 356.837s-.694 13.875-1.527 14.847M467.995 373.078s1.526 5.966 9.158.416c7.63-5.55 7.77 2.082 8.047 2.914.278.832 1.527 6.8 4.44 1.804M495.742 370.023s-1.25 12.348 9.713 3.33c10.96-9.02 12.765-.14 13.042 2.636" stroke-width=".80542686" fill="none"/><path d="M482.556 179.1s3.053.417 4.718-.554c1.665-.972 3.608-1.388 4.995.555s2.358 1.804 2.358 1.804-2.082 5.134 0 5.69c2.08.554 3.052.554 3.19 1.248.14.694-1.803 2.22-1.248 2.913.555.694 1.527 1.527 1.665 2.082.14.555-1.248 2.913-.832 3.47.416.554 1.665 2.774 2.497 2.774.833 0 .278 3.47 2.775 2.637s2.36-3.053 2.36-3.053 2.635-.416 3.33-2.775c.693-2.36 2.358-2.914 2.358-2.914s3.33-1.804-1.11-4.58c0-19.425-12.765-17.343-12.765-17.343s-1.527-3.47-4.024-3.053c-2.498.417-2.636 3.33-4.44 3.053-1.804-.278-2.22-1.526-2.36-1.387-.138.138-1.664 2.913-1.664 3.607 0 .694-4.856-.97-4.44 2.636s2.775 3.468 2.636 3.19z" fill-rule="evenodd" stroke-width=".80542686" fill="#9c5100"/><path d="M495.888 174.383s-.972 6.105 5.55 5.55c-.833 3.33 1.665 4.44 1.665 4.44M507.95 188.12c.138 0 2.913 1.803-.14 4.023M498.52 192.975s1.387 1.665 2.913 1.25c1.526-.417 4.024 1.525 4.024 1.525s2.08.694 2.36.278M490.055 198.248s4.718 1.804 7.77-5.688M481.313 190.34l2.775.138" stroke-width=".80542686" fill="none"/><path stroke-linejoin="round" d="M481.736 193.114h2.498l-2.22.972" stroke-width=".80542686" fill="none"/><path stroke-linejoin="round" d="M485.2 185.344c.418 0 1.944-.555 2.222-.138.277.416-1.666.693-2.22.138z" stroke-width="1.4495038400000002" fill="none"/><path d="M515.17 218.31c.14 0 4.58 13.736 5.134 17.205.555 3.47 2.36 17.344 1.665 19.287-.695 1.942-7.77 11.238-8.604 13.597-.832 2.357-5.827 11.376-5.827 11.376s-1.25 8.88-1.805 9.297c-.555.416 1.433 2.596 1.25 3.33-.276.826-4.025 4.717-5.69 4.3-1.665-.415-4.3-2.358-4.44-4.162s.14-7.77 1.388-9.295 7.77-16.927 8.186-17.9c.415-.97 5.965-13.042 6.104-15.122.14-2.082-1.727-6.894-3.69-8.66-4.366-12.853-2.65-20.604 6.326-23.253z" fill-rule="evenodd" stroke-width=".80542686" fill="#ffc6b5"/><path d="M450.524 277.842l.218 6.08M444.827 277.392s3.898 6.52 3.573 9.994" stroke-width=".80542686" fill="none"/><path stroke-linejoin="round" d="M497.078 291.014s2.915-.306 2.823 4.56c1.862-6.045 5.647-6.19 5.647-6.19" stroke-width=".80542686" fill="none"/></g><path d="M487.12 429.95c58.597-1.628 96.442-43.95 96.035-44.356-.407-.407 7.732-11.8 14.243-10.173 6.51 1.628 15.87 20.754 27.264 24.823 5.697 8.953-1.627 17.092-4.07 18.72-2.44 1.627-13.428 6.104-15.056-.407-1.627-6.51-4.883-5.29-4.883-5.29s-52.088 50.867-112.31 48.832c-62.257.41-113.53-48.83-113.53-48.83l-4.477 4.883s-4.883 5.29-7.324 4.884c-2.442-.407-13.023-7.325-13.837-14.243-.813-6.917 6.51-11.393 6.51-11.393s17.907-13.836 19.94-21.16c4.07-4.07 11.802 2.848 11.802 2.848s47.204 54.123 99.7 50.868z" fill-rule="evenodd" stroke="#000" stroke-width="1.7173345" fill="#f7c600"/><path d="M354.464 398.477s4.842-1.29 6.618.727c1.775 2.017 13.96 13.96 13.96 13.96" stroke="#000" stroke-width="1.7173345" fill="none"/><path d="M365.52 404.123l-4.843 3.632s12.186 2.42 9.442 10.41M620.297 398.067s-2.42-1.29-6.214 1.533c-3.793 2.825-13.397 13.558-13.397 13.558" stroke="#000" stroke-width="1.7173345" fill="none"/><path d="M609.406 403.805l5.245 4.035s-10.974.726-8.553 11.137" stroke="#000" stroke-width="1.7173345" fill="none"/><path d="M416.495 411.39l-.352.496c-.736-.364-1.576-.43-2.52-.203-.69.18-1.995.83-3.91 1.95l-16.126 9.4-.44-.314 4.06-18.85c.492-2.273.716-3.653.674-4.14-.032-.482-.373-1.014-1.02-1.596l.353-.495 8.692 6.198-.353.495-.294-.21c-.785-.56-1.39-.843-1.815-.85-.3-.013-.542.11-.727.37-.114.16-.215.376-.303.65-.08.265-.257 1.02-.527 2.267l-2.572 11.782 9.315-5.48c1.12-.668 1.846-1.13 2.18-1.39.333-.26.582-.506.748-.738.19-.268.287-.555.29-.862.004-.306-.094-.612-.294-.916-.275-.425-.73-.863-1.362-1.314l.353-.495 5.95 4.244m5.79 28.02l-.29.532-10.218-5.587.292-.533.647.354c.567.31 1.08.46 1.535.446.323.002.64-.123.955-.376.23-.173.615-.75 1.15-1.73l7.03-12.853c.547-1 .835-1.652.866-1.96.03-.307-.067-.642-.293-1.003-.212-.365-.592-.698-1.14-.997l-.648-.355.29-.533 10.218 5.587-.292.533-.648-.354c-.567-.31-1.078-.458-1.534-.445-.324-.003-.647.12-.97.368-.23.173-.615.75-1.15 1.73l-7.03 12.853c-.547 1-.835 1.652-.866 1.96-.022.313.074.652.286 1.017.226.362.614.692 1.16.99l.65.356m37.323-8.755l-2.635 7.395-.572-.204c.03-2.267-.46-4.174-1.468-5.718-1.008-1.544-2.33-2.61-3.97-3.193-1.57-.558-3.032-.58-4.39-.063-1.354.505-2.528 1.47-3.524 2.894a19.392 19.392 0 0 0-2.38 4.627c-.715 2.01-1.106 3.86-1.172 5.544s.3 3.072 1.1 4.158c.81 1.09 1.94 1.894 3.395 2.412.505.18 1.04.312 1.602.397.577.077 1.18.112 1.81.104l1.555-4.363c.294-.825.426-1.377.397-1.654-.025-.287-.183-.593-.475-.918-.28-.32-.674-.57-1.18-.75l-.54-.194.203-.573 10.196 3.632-.203.572c-.792-.225-1.372-.31-1.74-.254-.354.048-.68.228-.977.54-.163.164-.38.627-.652 1.39l-1.554 4.363c-1.554.12-3.11.07-4.672-.148a22.752 22.752 0 0 1-4.668-1.14c-1.99-.71-3.55-1.567-4.68-2.573a13.566 13.566 0 0 1-2.72-3.376c-.685-1.244-1.114-2.518-1.29-3.824-.214-1.68-.007-3.403.62-5.167 1.126-3.156 3.184-5.427 6.177-6.814 2.994-1.387 6.17-1.482 9.534-.284 1.042.37 1.95.788 2.728 1.25.424.245 1.072.743 1.943 1.495.885.746 1.42 1.152 1.606 1.218.29.103.595.095.916-.023.325-.128.695-.45 1.11-.964l.573.205m15.723 25.238l-.09.6-11.514-1.743.09-.6.73.11c.64.097 1.17.06 1.595-.107.304-.11.56-.336.768-.682.158-.24.32-.913.488-2.018l2.195-14.485c.17-1.125.218-1.838.142-2.138-.077-.3-.284-.58-.62-.842-.325-.27-.796-.453-1.413-.546l-.73-.11.09-.602 11.514 1.744-.09.6-.732-.11c-.64-.096-1.17-.06-1.594.108-.305.11-.566.335-.784.678-.16.242-.322.915-.49 2.02l-2.193 14.484c-.17 1.126-.218 1.84-.14 2.138.086.302.292.587.616.858.338.262.815.44 1.432.532l.73.11m29.887-7.258l-.44 7.85-19.748 1.008-.03-.607.737-.038c.644-.033 1.157-.174 1.54-.424.276-.167.48-.44.615-.82.107-.27.132-.96.075-2.077l-.746-14.63c-.058-1.138-.155-1.845-.29-2.123-.134-.28-.393-.512-.775-.7-.373-.2-.87-.285-1.494-.254l-.738.037-.03-.607 11.858-.605.03.607-.967.05c-.646.032-1.16.174-1.542.423-.276.168-.487.442-.632.822-.107.27-.132.96-.075 2.076l.724 14.172c.058 1.137.16 1.86.308 2.17.147.3.416.517.806.65.28.085.943.1 1.993.047l1.854-.094c1.18-.06 2.155-.32 2.92-.774.767-.456 1.41-1.147 1.934-2.072.534-.927 1.013-2.278 1.438-4.054l.673-.034m21.6-3.748l-7.537 2.252-.276 2.345c-.087.78-.063 1.396.072 1.847.177.598.55.967 1.117 1.106.334.083 1.07 0 2.206-.248l.174.583-7.097 2.12-.174-.58c.73-.346 1.267-.848 1.606-1.51.337-.672.624-1.93.862-3.77l2.546-19.31.3-.088 12.92 15.2c1.23 1.44 2.146 2.302 2.747 2.592.453.218 1.013.257 1.68.115l.174.58-10.323 3.085-.174-.582.425-.127c.83-.248 1.377-.537 1.643-.868.182-.237.225-.513.13-.828a2.014 2.014 0 0 0-.267-.554c-.05-.088-.324-.434-.825-1.04l-1.927-2.32m-.882-1.005l-5.375-6.398-1.077 8.327 6.452-1.928m28.46-29.002l2.855 5.31-.52.28c-.968-1.06-1.782-1.754-2.444-2.082-.667-.338-1.414-.49-2.24-.455-.46.023-1.148.28-2.065.774l-1.46.785 8.135 15.132c.54 1.003.93 1.6 1.17 1.795.25.188.587.293 1.01.315.425.007.918-.14 1.477-.44l.65-.35.29.534-10.272 5.52-.288-.534.65-.35c.57-.306.974-.654 1.212-1.043.177-.27.25-.607.22-1.013-.02-.29-.293-.925-.822-1.908l-8.135-15.132-1.418.762c-1.32.71-2.13 1.506-2.428 2.387-.42 1.23-.35 2.63.206 4.196l-.55.296-2.854-5.31 17.618-9.472m13.36-7.92l5.458 7.237.354-.267c1.128-.85 1.678-1.82 1.65-2.91s-.49-2.38-1.393-3.867l.5-.376 7.02 9.31-.497.375c-.87-.934-1.72-1.597-2.548-1.986-.82-.397-1.536-.536-2.146-.418-.618.11-1.35.483-2.198 1.123l3.778 5.01c.74.978 1.23 1.548 1.473 1.707.25.152.544.213.877.18.333-.03.752-.237 1.26-.62l1.06-.8c1.662-1.254 2.7-2.64 3.117-4.162.425-1.527.263-3.242-.487-5.145l.485-.366 3.463 6.254-15.368 11.59-.366-.484.59-.445c.517-.39.863-.795 1.04-1.216.134-.294.15-.635.05-1.025-.063-.283-.43-.87-1.103-1.762l-8.822-11.696c-.607-.804-1-1.28-1.183-1.432a1.572 1.572 0 0 0-1.02-.342c-.516.006-1.063.226-1.64.662l-.59.445-.366-.485 14.882-11.226 3.966 5.258-.498.376c-1.223-1.094-2.277-1.746-3.162-1.956-.877-.217-1.834-.14-2.87.23-.61.213-1.586.827-2.932 1.842l-1.836 1.385"/><path d="M380.537 413.064c72.788 59.04 144.13 60.122 213.933 0" fill="none"/></g></g></svg>