<svg xmlns="http://www.w3.org/2000/svg" height="480" width="640"><defs><clipPath id="a"><path fill-opacity=".67" d="M0 0h682.67v512H0z"/></clipPath></defs><g clip-path="url(#a)" transform="matrix(.9 0 0 .9 0 0)"><g fill-rule="evenodd"><path d="M0 0l347.415 219.424h420.56v73.142h-420.56L0 511.98V-.003z"/><path d="M0 493.705l354.733-226.732h413.242v-21.94H354.733L0 18.29V51.2l332.79 204.79L0 460.787V493.7z" fill="#ff0"/><path d="M0 511.984l354.733-226.732h413.242v226.732H0z" fill="#40aa40"/><path d="M0 0l354.733 226.732h413.242V0H0z" fill="#ce0000"/><path d="M95.806 266.623c1.227.27 1.55.62 2.766-1.162.26-.896 1.023-2.15 1.686-3.263.887-1.456 1.276-2.04 2.11-.933.54.633 2.69-.534 3.582.078 1.38.917.55.784 1.68-.207.867-1.848.103-1.63-1.12-2.47-.86-.59-3.052.626-3.91.037.3-1.846.888-2.044 1.95-2.403.804.55 3.146-.42 3.87-.405 1.022.214 1.932.327 2.254-1.174.505-1.062.285-.328-.12-1.102-.858-.59-3.05.627-3.91.037-1.115-.844-.93-1.158-.28-2.573.872-.48 1.52-.247 2.6.423 1.108.762 2.855-.718 3.828-.772.875-.995 1.907-1.327 1.255-2.54-.365-.92-.64-1.025-1.84-1.263-1.227-.842-2.826.7-3.293-.56.974-1.395 1.337-1.097 2.518-.312.76.26 3.054-1.1 3.79-1.14 1.092-.316.563.913 1.334-1.805-.267-1.178-2.243.723-3.358.416-1.07.142-1.922-.237-2.023-1.39.016-1.55.785-1.656 1.887-1.426.97.174 3.16-1.03 3.973-1.014 1.16.616 1.526.386 2.438-1.047.673-1.692-.073-.993-1.223-1.86-.858-.59-3.05.626-3.91.037.15-.625.422-1.385 1.007-1.69.846.167 1.574.13 2.64.79 1.046.46 2.77-1.564 3.668-2.242-.17-.964-1.884.408-2.926-.308-.662-.453-1.49-.93-1.696-1.504.59-1.688.303-1.604 1.926-1.058.864-.225 2.328-.212 1.335-1.805-.158-.257-1.013-.166-1.76-.527-.9-.618-1.764-1.24-2.717-1.527-.688-.107-1.687-.33-2.23-.172-.06 1.004.194 1.64.135 2.815.448.732 1.295.75 1.472 1.01-.9.79-1.386.386-2.335.438-1.13-.774-.482-3.178-1.815-2.605.307.706.196 3.375.768 3.928.604.415 1.373.82 1.51 1.378-.96 1.48-1.323 1.396-2.477.68-.964-.66-.66-2.832-1.487-2.72-1.017.766-1.034.73-.824 1.815.054 1.417-.512 3.39.624 4.17 1.367.97 1.54.854.464 2.7-.74.898-1.157.734-2.007.323-.914-.628-.716-2.942-1.423-3.7-1.34-.8-.564-.77-1.68.21-.344 1.255-.094 1.586.465 2.7.453.69.424 3.05 1.2 3.203 1.25.717 1.294.573-.13 1.955-1.116.044-1.596.35-2.453-.665-1.04-.784-.39-3.202-1.712-3.216-1.224.1-1.49.132-1.334 1.805.212 1.47-.335 3.787.85 4.663 1.107.506 1.777.473 2.166 1.147-.345.303-.995 1.24-1.375 1.438-.775.055-1.575-.482-2.454-.665-1.044-.48-.572-1.413-1.407-1.987-.967.313-.984-1.037-1.496.334.198 1.126-.183 2.596.872 3.32.858.59 1.613 1.788 2.47 2.377.985 1.165.6 1.368-.007 3.056-.822.023-1.785-.545-2.68-1.16-.857-.588-.71-2.867-1.567-3.456-.742-.73-.527-1.353-1.68.208-.107 1.107.1 1.187.385 1.964.033 1.13-.27 3.215.77 3.928 1.05.212 2.18.76 3.005 1.044.79.926.103.745-.783 2.183-.557 1.44-.563 1.695-1.44 2.414-.758 1.012-1.06 1.457-.374 2.803z" fill="#ff0"/><path d="M120.918 267.85c.736-1.196 1.187-1.4.034-3.403-.72-.636-1.568-1.946-2.325-3.096-.984-1.522-1.366-2.17-.016-2.612.797-.32.58-3.07 1.498-3.773 1.39-1.098.938-.27.477-1.866-1.35-1.66-1.454-.763-2.712.2-.883.677-.64 3.492-1.522 4.168-1.575-1.057-1.522-1.76-1.43-3.032.828-.633.867-3.508 1.17-4.27.603-1 1.07-1.922-.18-2.864-.775-.96-.19-.434-1.06-.313-.883.675-.64 3.49-1.522 4.166-1.22.847-1.435.526-2.475-.73-.092-1.12.38-1.715 1.423-2.59 1.14-.875.478-3.322.815-4.377-.564-1.328-.458-2.556-1.83-2.348-.992.018-1.196.268-1.892 1.448-1.262.967-.482 3.28-1.826 3.274-.893-1.592-.475-1.86.716-2.8.54-.7.207-3.682.462-4.48.144-1.286 1.062-.232-1.126-2.138-1.188-.187-.23 2.67-.955 3.732-.295 1.194-.983 1.948-2.08 1.594-1.417-.637-1.21-1.496-.56-2.574.547-.96.31-3.767.652-4.624 1.026-.985.96-1.467.01-3.008-1.287-1.39-.942-.32-2.196.555-.883.677-.64 3.492-1.522 4.168-.514-.41-1.104-1-1.15-1.745.49-.83.744-1.62 1.776-2.486.837-.93-.333-3.57-.6-4.793-.952-.204-.375 2.164-1.446 2.985-.68.52-1.445 1.208-2.056 1.198-1.314-1.303-1.352-.964-.205-2.47.138-1.006.732-2.556-1.125-2.138-.3.065-.556 1.01-1.184 1.657-.926.71-1.842 1.38-2.484 2.277-.37.688-.973 1.66-1.044 2.3.898.463 1.583.45 2.638.98.85-.182 1.203-1.074 1.513-1.158.367 1.272-.198 1.626-.527 2.654-1.162.89-3.11-.76-3.116.886.77-.044 3.177 1.142 3.913.755.62-.474 1.298-1.13 1.866-1.054.975 1.612.753 1.965-.362 2.904-.99.76-2.863-.43-3.09.492.3 1.385.26 1.39 1.34 1.6 1.322.51 2.908 1.898 4.076 1.003 1.434-1.064 1.398-1.294 2.663.586.53 1.148.213 1.524-.503 2.26-.94.722-2.985-.413-3.962.035-1.268 1.103-.932.29-.477 1.866 1.016.87 1.42.736 2.663.587.816-.206 2.972.77 3.42.007 1.156-1.042 1.04-1.146 1.743.916-.404 1.205-.314 1.837-1.587 2.34-1.134.792-3.095-.864-3.634.533-.395 1.34-.47 1.635 1.126 2.14 1.436.363 3.344 1.87 4.62.962.905-.974 1.14-1.7 1.915-1.842.14.487.742 1.552.772 2.034-.257.847-1.07 1.482-1.587 2.34-.857.92-1.525.044-2.384.702-.097 1.15-1.343.628-.288 1.72 1.113.24 2.31 1.232 3.395.4.883-.675 2.284-.997 3.166-1.673 1.462-.58 1.494-.088 2.803 1.23-.307.88-1.21 1.676-2.13 2.38-.883.677-2.916-.392-3.8.284-.965.497-1.45.02-.476 1.867.973.557 1.13.37 1.956.377 1.052.417 2.845 1.572 3.913.754.612-1.03 1.567-2.013 2.154-2.775 1.165-.47.725.19 1.693 1.704 1.1 1.166 1.332 1.275 1.644 2.493.627 1.21.916 1.708 2.424 1.52z" fill="#ff0"/><path d="M98.007 314.504c0-5.32-.825-10.64 0-10.64 46.81 0 58.51-31.915 58.51-53.194 0-21.277-16.258-42.554-46.808-42.554-35.11 0-46.81 20.787-46.81 42.554 0 21.278 17.554 37.237 35.107 37.237 23.406 0 29.257-5.32 46.81-26.597-5.85 26.597-35.108 37.237-46.81 37.237-23.405 0-46.81-15.958-46.81-47.875 0-26.596 17.555-53.192 58.515-53.192 35.108 0 58.51 26.597 58.51 53.192 0 37.237-29.255 63.833-70.215 63.833z" fill="#ff0"/></g></g></svg>