<svg xmlns="http://www.w3.org/2000/svg" height="512" width="512"><g fill-rule="evenodd" stroke-width="1pt"><path fill="#0000bd" d="M0 0h171.52v511.983H0z"/><path fill="#cc1900" d="M340.48 0H512v511.983H340.48z"/><path fill="#fff600" d="M171.52 0h168.96v511.983H171.52z"/></g><g stroke-width="1pt"><path d="M398.54 290.22c47.823.818 44.515-29.15 61.974-32.126 17.458-2.977 33.928 12.49 33.302 29.972 1.873 20.814-29.714 20.963-31.637 38.298-1.924 17.336 15.377 22.628 33.3 19.982s30.647-20.363 39.805-28.69c-13.32 7.494-24.218 4.78-25.21-8.557.673-17.498 18.103-23.848 26.345-17.96 6.476-5.3 6.09-7.424 13.21-6.247 4.827 2.944 6.142 2.86 8.998 7.418 3.717-2.354 5.27-3.54 12.204-.596 4.306 1.767 7.18 4.96 9.84 9.808 3.147-2.486 8.087-3.413 13.763-.197 3.61 1.837 8.108 7.182 8.72 12.995 8.45 1.696 11.38 3.654 14.034 7.953 15.764 21.775-2.436 58.473-1.433 77.205 1.004 18.73 16.65 19.98 16.65 19.98-14.716-9.42-.2-15.9 6.746-16.55 22.252 2.293 18.508 35.136-5.18 29.367-18.978-5.18 38.92 3.28 37.525 62.637-1.396 61.02-32.815 49.01-32.815 49.01s26.838 10.11 21.646 30.09c-5.192 13.507-32.934 22.456-30.58-3.448-8.24 11.186-10.607 15.913-10.58 32.916-1.147 21.713.657 31.63 6.846 42.3 1.48-9.934 8.206-10.36 13.952-9.1 8.1.085 12.607 6.443 9.563 14.685 4.08-1.035 7.802 1.757 9.403 5.12 1.255 6.207 4.037 8.957-2.44 11.312 6.477 1.178 9.61 2.024 10.378 11.05.18 7.26-12.595 11.245-26.135 8.89 7.065 3.533 29.983 50.025 26.922 103.44-2.12 47.905-86.038 43.64-123.53 42.305-37.488-1.332-72.512.775-87.133 13.052 11.247 7.182-1.302 29.542-10.864 19.064 0 8.242-9.45 20.98-22.497 12.718.534 14.885-14.238 25.328-27.12 25.328s-27.656-10.443-27.122-25.328c-13.047 8.26-22.496-4.476-22.496-12.718-9.562 10.478-22.11-11.882-10.864-19.064-14.62-12.277-49.645-14.384-87.133-13.052-37.49 1.334-121.41 5.6-123.53-42.305-3.06-53.418 23.7-99.91 30.764-103.44-13.54 2.355-26.315-1.63-26.135-8.89.767-9.026 3.9-9.872 10.377-11.05-6.476-2.355-3.694-5.105-2.44-11.31 1.602-3.365 5.324-6.157 9.403-5.122-3.044-8.242 1.462-14.6 9.563-14.684 5.746-1.26 12.472-.834 13.952 9.1 6.19-10.67 7.993-20.587 6.845-42.3.028-17.003-2.338-21.73-10.58-32.916 2.355 25.904-25.387 16.955-30.578 3.448-5.192-19.98 21.646-30.09 21.646-30.09s-31.42 12.01-32.815-49.01c-1.396-59.356 56.503-67.817 37.525-62.637-23.688 5.77-27.432-27.074-5.18-29.366 6.946.65 21.462 7.13 6.745 16.55 0 0 15.647-1.25 16.65-19.982 1.004-18.732-17.196-55.43-1.43-77.205 2.652-4.3 5.582-6.257 14.033-7.953.613-5.813 5.11-11.158 8.72-12.995 5.677-3.216 10.617-2.29 13.763.197 2.66-4.847 5.535-8.04 9.84-9.808 6.936-2.943 8.488-1.758 12.205.597 2.856-4.556 4.17-4.473 9-7.417 7.118-1.177 6.732.948 13.208 6.246 8.242-5.888 25.672.462 26.345 17.96-.99 13.335-11.888 16.05-25.21 8.557 9.16 8.326 21.88 26.043 39.805 28.69s35.225-2.647 33.302-19.983c-1.923-17.335-33.51-17.484-31.637-38.298-.626-17.483 15.844-32.95 33.302-29.972 17.46 2.977 14.15 32.944 62.182 32.126z" fill-rule="evenodd" transform="matrix(.393 0 0 .371 101.182 51.75)" stroke="#000" fill="#cba323"/><path d="M356.44 346.62c-.575 17.96-31.258 14.828-51.514 13.86-26.326-1.232-77.59-46.08-44.263-69.89M164.84 449.52c-16.484 17.662 28.69 13.497 9.42-9.42-7.87-8.82-41.21 18.84-41.21 49.453s10.596 44.742 16.483 45.92c5.887 1.177 15.307-3.533 15.307-8.242 0-5.886-4.71-15.306-11.774-14.13-11.775 0-5.888 10.598 0 10.598" transform="matrix(.393 0 0 .371 101.182 51.75)" stroke="#000" fill="none"/><path d="M163.39 451.39s-24.453 9.908-24.453 39.343c0 29.436 7.065 28.26 7.065 28.26" transform="matrix(.393 0 0 .371 101.182 51.75)" stroke="#000" fill="none"/><path d="M166.02 430.68s24.726-3.533 23.55 18.838c-1.18 22.37-9.42 23.55-22.372 22.37-12.952-1.176-5.887-16.482-5.887-16.482M156.6 543.71s18.84-1.178 17.66-21.194c-1.176-20.016-15.305-21.194-23.547-20.016-8.242 1.177-10.74 5.803-8.242 12.88M150.71 567.26s3.936-8.158 16.887-8.158c12.952 0 18.982 30.386 17.805 63.354-1.178 32.968-33.515 61.37-40.58 59.015-7.064-2.354-10.597-3.532-4.71-8.24" transform="matrix(.393 0 0 .371 101.182 51.75)" stroke="#000" fill="none"/><path d="M141.29 667.34c0 .416 5.054-1.105 8.587 1.25 3.532 2.354 4.365 5.815 4.365 5.815" transform="matrix(.393 0 0 .371 100.779 51.859)" stroke="#000" fill="none"/><path d="M144.82 650.86s4.517-1.82 10.404.536 5.695 7.662 5.695 7.662" transform="matrix(.358 0 0 .266 107.519 120.625)" stroke="#000" fill="none"/><path d="M171.78 731.95c12.25 6.364 24.282-25.18.67-26.726-16.887-.69-29.084 23.268-26.73 35.04 6.432 40.062 10.445 66.862 50.57 72.046 30.612 2.355 78.45-5.1 108.3-1.523 29.44 3.433 61.94 14.272 73.713 26.047 11.774 11.774 19.112 11.892 19.112 23.667 0 11.775-16.815 17.817-23.476 10.74M369.84 876.92c4.305-2.914 14.556-20.425 4.722-30.815-15.194-15.4-26.165-21.48-33.658-23.977" transform="matrix(.393 0 0 .371 100.758 52.554)" stroke="#000" fill="none"/><path d="M347.55 863.28c5.828-3.532 6.684-15.298.594-24.274-6.09-8.975-21.94-16.165-53.073-18.8-23.582-1.98-87.843 8.445-111.39 1.38-33.058-12.72-53.844-34.15-48.772-87.39 1.52-20.622 11.917-34.466 32.278-37.106 22.858-.143 28.813 14.734 28.813 33.57 0 9.682-25.318 18.88-29.91 9.706-7.11-12.854-10.217-24.45 15.88-30.607M337.41 844.59s9.765 5.685 7.41 10.395c-2.354 4.71-8.658 2.7-4.496-2.296" transform="matrix(.393 0 0 .371 100.758 52.554)" stroke="#000" fill="none"/><path d="M238.95 291.4s-6.66 6.66-3.33 22.48 9.99 14.986 9.99 14.986M216.47 300.55c-.833 1.665-9.706 11.858-4.71 22.68 4.995 10.825 8.956 12.978 8.956 12.978M193.99 313.87s-7.195 10.622-8.567 29.555 7.79 45 7.533 54.698c-.58 20.61-24.012 30.84-24.012 30.84M159.85 543.66c1.665 0 34.135-29.972 34.135 76.597-2.498 61.61-38.298 67.438-38.298 67.438" transform="matrix(.393 0 0 .371 101.182 51.75)" stroke="#000" fill="none"/><path d="M162.49 689.71c13.148-3.336 40.425 10.99 30.613 35.324" transform="matrix(.393 0 0 .371 101.848 52.643)" stroke="#000" fill="none"/><path d="M167.78 681.47c8.44.785 15.32 6.904 18.458 15.343" transform="matrix(.393 0 0 .371 101.051 51.988)" stroke="#000" fill="none"/><path d="M148.2 477.06s9.99 14.154 24.977 14.154 19.982-15.82 19.982-15.82" transform="matrix(.393 0 0 .371 101.182 51.75)" stroke="#000" fill="none"/><path d="M146.53 484.55s9.158 16.652 24.977 17.484c15.82.833 21.647-10.823 21.647-10.823M179.84 509.52s11.657 4.996 11.657 19.15c0 14.153-10.824 10.823-10.824 10.823" transform="matrix(.393 0 0 .371 101.182 51.75)" stroke="#000" fill="none"/><path d="M356.44 346.62c-.575 17.96-31.258 14.828-51.514 13.86-26.326-1.232-77.59-46.08-44.263-69.89M164.84 449.52c-16.484 17.662 28.69 13.497 9.42-9.42-7.87-8.82-41.21 18.84-41.21 49.453s10.596 44.742 16.483 45.92c5.887 1.177 15.307-3.533 15.307-8.242 0-5.886-4.71-15.306-11.774-14.13-11.775 0-5.888 10.598 0 10.598" transform="matrix(-.393 0 0 .371 414.154 51.75)" stroke="#000" fill="none"/><path d="M163.39 451.39s-24.453 9.908-24.453 39.343c0 29.436 7.065 28.26 7.065 28.26" transform="matrix(-.393 0 0 .371 414.154 51.75)" stroke="#000" fill="none"/><path d="M166.02 430.68s24.726-3.533 23.55 18.838c-1.18 22.37-9.42 23.55-22.372 22.37-12.952-1.176-5.887-16.482-5.887-16.482M156.6 543.71s18.84-1.178 17.66-21.194c-1.176-20.016-15.305-21.194-23.547-20.016-8.242 1.177-10.74 5.803-8.242 12.88M150.71 567.26s3.936-8.158 16.887-8.158c12.952 0 18.982 30.386 17.805 63.354-1.178 32.968-33.515 61.37-40.58 59.015-7.064-2.354-10.597-3.532-4.71-8.24" transform="matrix(-.393 0 0 .371 414.154 51.75)" stroke="#000" fill="none"/><path d="M141.29 667.34c0 .416 5.054-1.105 8.587 1.25 3.532 2.354 4.365 5.815 4.365 5.815" transform="matrix(-.393 0 0 .371 414.557 51.988)" stroke="#000" fill="none"/><path d="M144.82 650.86s4.517-1.82 10.404.536 5.695 7.662 5.695 7.662" transform="matrix(-.358 0 0 .266 407.817 120.625)" stroke="#000" fill="none"/><path d="M170.42 741.5c-2.354 0 15.45-19.877-.688-23.897-20.284-3.872-28.744 16.55-26.39 28.323 5.073 28.746 16.898 64.033 52.946 66.388 30.613 2.355 78.45-5.1 108.3-1.523 29.44 3.434 61.94 14.273 73.714 26.048 11.774 11.774 19.112 11.892 19.112 23.667 0 11.774-16.815 17.816-23.476 10.74M369.84 876.92c4.305-2.914 14.556-20.425 4.722-30.815-15.194-15.4-26.165-21.48-33.658-23.977" transform="matrix(-.393 0 0 .371 412.973 52.554)" stroke="#000" fill="none"/><path d="M347.55 863.28c5.828-3.532 6.684-15.298.594-24.274-6.09-8.975-21.94-16.165-53.073-18.8-23.582-1.98-87.843 8.445-111.39 1.38-43.928-18.378-53.504-42.635-52.508-81.734 1.52-20.62 12.257-36.587 32.618-39.227 22.858-.143 26.774 11.906 26.774 30.744 0 9.68-9.013 25.715-21.334 23.36-12.322-3.187-21.92-25.012-1.106-36.668M337.41 844.59s9.765 5.685 7.41 10.395c-2.354 4.71-8.658 2.7-4.496-2.296" transform="matrix(-.393 0 0 .371 412.973 52.554)" stroke="#000" fill="none"/><path d="M238.95 291.4s-6.66 6.66-3.33 22.48 9.99 14.986 9.99 14.986M216.47 300.55c-.833 1.665-9.706 11.858-4.71 22.68 4.995 10.825 8.956 12.978 8.956 12.978M193.99 313.87s-7.195 10.622-8.567 29.555 7.79 45 7.533 54.698c-.58 20.61-24.012 30.84-24.012 30.84M159.85 543.66c1.665 0 34.135-29.972 34.135 76.597-2.498 61.61-38.298 67.438-38.298 67.438" transform="matrix(-.393 0 0 .371 414.154 51.75)" stroke="#000" fill="none"/><path d="M158.07 701.03c16.205-14.296 47.22 13.112 35.708 38.506" transform="matrix(-.393 0 0 .371 414.285 50.024)" stroke="#000" fill="none"/><path d="M167.78 681.47c8.44.785 17.357 6.197 20.496 14.636" transform="matrix(-.393 0 0 .371 415.758 52.911)" stroke="#000" fill="none"/><path d="M148.2 477.06s9.99 14.154 24.977 14.154 19.982-15.82 19.982-15.82" transform="matrix(-.393 0 0 .371 414.154 51.75)" stroke="#000" fill="none"/><path d="M146.53 484.55s9.158 16.652 24.977 17.484c15.82.833 21.647-10.823 21.647-10.823M179.84 509.52s11.657 4.996 11.657 19.15c0 14.153-10.824 10.823-10.824 10.823" transform="matrix(-.393 0 0 .371 414.154 51.75)" stroke="#000" fill="none"/><path d="M353.01 313.46c.416-.416-1.665-9.16 8.326-8.742 9.99.416 6.244 9.574 14.57 12.904 7.91 2.082 22.063 4.164 22.528 4.164s14.62-2.082 22.528-4.164c8.326-3.33 4.58-12.488 14.57-12.904 9.99-.417 7.91 8.326 8.326 8.742" transform="matrix(.393 0 0 .371 101.182 51.75)" stroke="#000" fill="none"/><path d="M373.28 349.42c-.294-4.12-1.25-9.55-6.87-9.966-10.526-.345-18.857 20.605 4.443 20.753 17.055.11 17.198-32.355.804-32.83-23.55-.668-26.788 13.388-26.402 16.142 5.957-50.398-33.246-40.207-31.373-59.77.207-10.607 10.85-11.823 22.48-9.858 17.458 2.8 14.15 30.967 62.077 30.198 47.926.77 44.618-27.4 62.077-30.198 11.63-1.965 22.272-.75 22.48 9.857 1.872 19.563-37.33 9.372-31.374 59.77.386-2.755-2.853-16.81-26.402-16.144-16.393.476-16.25 32.942.805 32.83 23.3-.147 14.97-21.097 4.444-20.752-5.623.416-6.578 5.845-6.872 9.966" transform="matrix(.393 0 0 .371 101.182 51.75)" stroke="#000" fill="none"/><path d="M319.774 348.397l.047.283-4.416 1.088-.046-.282.28-.07c.246-.06.434-.16.566-.305.096-.097.16-.24.19-.426.024-.134-.005-.46-.09-.977l-1.12-6.8c-.086-.53-.163-.853-.23-.975-.068-.12-.18-.21-.338-.273-.154-.07-.348-.075-.585-.016l-.28.07-.046-.282 4.417-1.09.047.282-.28.07c-.245.06-.434.162-.567.305-.095.097-.16.24-.194.43-.026.13.004.458.09.976l1.118 6.8c.087.53.164.854.23.974.073.12.186.214.34.282.157.06.353.063.59.005l.28-.07zM314.23 339.463l.3 2.83-.227.035c-.204-.63-.403-1.076-.596-1.332-.196-.262-.445-.455-.748-.58-.17-.066-.456-.068-.855-.004l-.636.1.857 8.067c.057.533.115.864.175.99.065.125.173.23.322.31.153.074.352.092.596.053l.283-.045.03.286-4.476.71-.03-.284.284-.045c.248-.04.443-.126.583-.258.1-.09.174-.225.22-.41.032-.13.02-.46-.036-.983l-.858-8.065-.618.097c-.576.09-.98.307-1.207.647-.322.474-.49 1.104-.505 1.89l-.24.04-.3-2.83 7.68-1.22zM281.68 343.152l.283 4.314.248-.025c.38-.036.686-.136.918-.3.23-.163.42-.418.56-.765.15-.347.23-.805.243-1.373l.222-.022.347 5.275-.222.022c-.146-.988-.408-1.623-.788-1.902-.376-.285-.79-.405-1.24-.36l-.25.024.213 3.214c.035.537.08.87.135 1 .06.13.163.24.31.328.15.084.345.114.585.09l.285-.028.02.287-4.49.445-.02-.287.284-.028c.25-.025.446-.1.592-.222.105-.084.18-.215.228-.397.038-.127.04-.455.006-.98l-.455-6.91c-.035-.538-.08-.87-.136-1.002-.055-.13-.157-.236-.307-.32-.147-.09-.34-.123-.58-.1l-.286.03-.02-.286 7.247-.717.2 3.012-.26.026c-.106-.7-.293-1.21-.56-1.528-.263-.316-.63-.522-1.1-.615-.257-.053-.728-.045-1.413.023l-.797.08zM265.607 344.068v2.853h-.23c-.134-.657-.285-1.13-.45-1.413-.166-.29-.393-.522-.68-.693-.162-.093-.444-.14-.846-.14h-.64v8.134c0 .54.022.876.07 1.01.05.135.145.254.285.358.143.098.34.147.585.147h.285v.288h-4.513v-.287h.286c.25 0 .452-.054.605-.163.11-.073.196-.196.26-.373.047-.125.07-.45.07-.98v-8.132h-.623c-.58 0-1.003.15-1.266.45-.368.42-.602 1.02-.7 1.796h-.24v-2.852h7.743zM256.695 354.326v.288h-4.507v-.288h.285c.25 0 .452-.055.605-.163.11-.073.195-.197.254-.373.046-.125.07-.45.07-.98v-6.936c0-.54-.024-.876-.07-1.01-.047-.135-.143-.252-.286-.35-.14-.105-.33-.157-.573-.157h-.285v-.286h4.507v.287h-.286c-.25 0-.453.055-.605.164-.11.074-.197.198-.26.375-.048.123-.07.45-.07.98v6.935c0 .54.022.876.07 1.01.05.136.145.255.285.36.145.097.338.146.58.146h.285zM245.364 344.068l4.253 6.538v-4.533c0-.63-.075-1.06-.223-1.282-.203-.3-.545-.445-1.023-.435v-.287h2.85v.287c-.366.057-.61.132-.74.225-.122.09-.22.237-.29.444-.07.203-.103.552-.103 1.05v8.78h-.216l-5.83-8.78v6.702c0 .606.113 1.016.338 1.23.23.21.49.317.782.317h.204v.288h-3.06v-.287c.477-.005.807-.125.993-.357.187-.233.28-.63.28-1.19v-7.44l-.184-.28c-.183-.28-.343-.465-.483-.553-.14-.09-.342-.138-.605-.148v-.287h3.06zM242.03 343.39l-.01.286c-.315.046-.6.238-.858.572-.186.25-.47.846-.855 1.786l-3.233 7.903-.21-.01-2.675-8.524c-.323-1.028-.543-1.633-.66-1.816-.112-.18-.335-.303-.668-.368l.01-.287 4.128.206-.01.285-.14-.007c-.372-.018-.627.026-.767.133-.1.075-.152.186-.157.336-.003.093.01.205.04.337.03.126.132.47.308 1.035l1.66 5.336 1.86-4.585c.22-.556.36-.928.41-1.117.054-.19.083-.35.088-.485.005-.157-.024-.295-.09-.418-.062-.122-.16-.218-.288-.286-.18-.097-.42-.154-.72-.17l.01-.286 2.826.14zM226.136 341.444l-.102 3.51-.26-.018c-.08-.888-.348-1.616-.803-2.183-.452-.573-.956-.88-1.515-.922-.43-.03-.78.088-1.05.354-.263.26-.403.575-.42.942-.012.233.022.443.102.63.11.252.296.507.555.765.19.187.634.522 1.332 1.01.977.677 1.628 1.3 1.952 1.862.322.564.465 1.19.43 1.885-.042.88-.36 1.616-.955 2.212-.588.588-1.314.85-2.177.788-.27-.02-.526-.07-.763-.156-.238-.085-.534-.233-.89-.446-.198-.12-.362-.182-.493-.192-.11-.008-.23.035-.356.13-.128.094-.234.244-.322.452l-.233-.017.195-3.973.233.017c.132 1.13.447 2.01.948 2.637.505.625 1.064.958 1.677 1.003.474.035.86-.095 1.153-.39.3-.295.46-.652.48-1.07.01-.25-.032-.493-.13-.734-.095-.242-.246-.474-.456-.696-.21-.228-.586-.53-1.128-.908-.76-.528-1.303-.97-1.628-1.325-.328-.355-.574-.745-.74-1.166-.162-.423-.23-.88-.206-1.37.04-.84.328-1.534.86-2.086s1.18-.802 1.947-.746c.278.02.547.08.805.184.196.076.432.21.706.4.28.187.48.285.592.293.11.008.2-.027.266-.106.068-.077.138-.273.207-.584l.19.014zM220.44 341.76l-.027.284c-.318.017-.615.182-.892.49-.2.234-.52.802-.962 1.703l-3.715 7.58-.208-.03-2.142-8.745c-.257-1.055-.44-1.678-.544-1.87-.102-.19-.317-.334-.645-.43l.027-.284 4.106.587-.027.284-.138-.02c-.37-.053-.63-.033-.775.06-.104.065-.163.172-.178.32-.01.093-.003.206.018.34.022.13.104.482.244 1.06l1.328 5.474 2.136-4.4c.256-.532.416-.89.48-1.073.066-.184.104-.343.116-.476.015-.155-.005-.296-.062-.424-.055-.128-.146-.232-.27-.313-.173-.113-.41-.192-.708-.234l.027-.285 2.81.4zM210.628 340.46l-.335 2.823-.227-.04c-.057-.675-.15-1.17-.28-1.48-.13-.316-.327-.584-.592-.804-.148-.12-.422-.216-.82-.287l-.636-.112-.956 8.048c-.064.533-.08.87-.05 1.012.034.143.115.277.24.404.132.123.32.205.563.25l.283.05-.034.284-4.468-.79.034-.286.283.05c.248.044.453.025.617-.055.117-.053.22-.16.302-.324.06-.115.123-.434.185-.956l.956-8.048-.618-.11c-.574-.102-1.01-.027-1.305.225-.414.35-.715.902-.903 1.654l-.24-.043.336-2.823 7.665 1.356zM190.62 346.73l-.055.28-4.378-1.297.055-.28.278.083c.243.072.45.077.618.015.12-.038.227-.134.32-.288.067-.108.153-.42.255-.932l1.333-6.737c.103-.523.145-.858.126-1.002-.02-.143-.09-.284-.21-.42-.117-.143-.292-.248-.526-.317l-.278-.083.055-.278 4.378 1.296-.054.278-.278-.082c-.243-.072-.45-.077-.618-.015-.12.038-.23.134-.325.288-.07.106-.155.418-.256.93l-1.334 6.738c-.104.524-.145.858-.126 1.002.023.145.093.29.21.43.12.137.298.24.532.31l.278.08zM187.308 336.22l-.06.278c-.317-.037-.63.075-.94.333-.226.197-.608.703-1.147 1.52l-4.546 6.864-.203-.065-1.114-9.027c-.133-1.088-.24-1.736-.324-1.945-.077-.207-.274-.385-.588-.536l.06-.277 3.996 1.288-.06.277-.135-.044c-.36-.116-.62-.14-.773-.072-.11.045-.182.14-.213.285-.02.09-.027.202-.022.34.007.13.048.494.12 1.09l.685 5.648 2.62-3.988c.314-.483.513-.81.598-.98.086-.172.142-.323.17-.452.033-.152.03-.294-.012-.43-.04-.137-.118-.256-.232-.357-.158-.14-.383-.26-.673-.353l.06-.277 2.735.88zM324.694 337.156c1.355-.278 2.513.033 3.472.93.963.9 1.526 2.124 1.692 3.676.14 1.327-.053 2.545-.58 3.652-.698 1.47-1.814 2.328-3.348 2.572-1.54.244-2.796-.205-3.772-1.347-.772-.902-1.23-2.044-1.378-3.427-.165-1.553.128-2.914.88-4.084.756-1.177 1.767-1.835 3.034-1.974zm.128.482c-.78.124-1.324.707-1.628 1.75-.247.854-.29 2.032-.13 3.533.19 1.784.585 3.062 1.19 3.833.42.54.952.76 1.595.657.432-.07.78-.255 1.042-.558.335-.388.568-.957.697-1.71.127-.758.13-1.718.007-2.88-.147-1.382-.363-2.398-.645-3.05-.283-.654-.604-1.098-.962-1.327-.354-.232-.743-.315-1.168-.247zM291.002 341.47c1.365-.197 2.507.182 3.428 1.136.926.953 1.44 2.208 1.542 3.768.088 1.333-.153 2.537-.724 3.61-.757 1.428-1.905 2.218-3.447 2.37-1.545.153-2.78-.37-3.71-1.567-.733-.945-1.146-2.113-1.238-3.502-.103-1.56.244-2.9 1.042-4.024.802-1.13 1.837-1.726 3.108-1.79zm.11.49c-.786.077-1.352.626-1.697 1.65-.28.837-.37 2.01-.272 3.52.118 1.79.463 3.09 1.034 3.895.4.565.92.814 1.568.75.434-.043.79-.21 1.063-.495.35-.368.605-.923.764-1.666.16-.75.2-1.707.123-2.875-.092-1.39-.265-2.416-.522-3.082-.256-.67-.56-1.133-.907-1.384-.343-.252-.728-.357-1.155-.315zM300.805 346.895l.31 2.93c.06.565.126.92.197 1.06.075.133.187.233.34.298.152.064.423.065.814.003l.03.286-4.375.695-.03-.286c.396-.06.658-.147.788-.256.133-.116.22-.25.258-.402.044-.153.035-.513-.025-1.08l-.72-6.784c-.06-.566-.128-.916-.203-1.05-.07-.14-.18-.244-.333-.308s-.424-.066-.815-.004l-.03-.285 3.97-.63c1.034-.164 1.8-.197 2.3-.1.496.1.92.362 1.275.786.352.42.56.947.628 1.578.082.772-.077 1.445-.476 2.02-.257.365-.637.67-1.14.91l2.43 3.215c.318.413.54.668.665.763.19.132.4.187.628.167l.03.285-2.692.428-3.263-4.327-.56.09zm-.546-5.13l.486 4.582.36-.057c.584-.093 1.014-.227 1.29-.4.276-.18.478-.454.605-.82.134-.37.17-.83.112-1.38-.085-.798-.302-1.362-.65-1.693-.342-.332-.852-.445-1.528-.338l-.675.106zM333.204 341.14l.6 2.86c.117.554.217.895.3 1.023.087.122.21.205.368.247.157.04.427 0 .81-.12l.057.28-4.274 1.342-.06-.28c.387-.12.64-.244.756-.37.12-.137.192-.282.216-.44.03-.157-.016-.513-.132-1.066l-1.392-6.625c-.116-.552-.217-.89-.304-1.01-.085-.13-.205-.216-.362-.257s-.428-.002-.81.117l-.057-.277 3.88-1.218c1.01-.317 1.766-.465 2.27-.44.505.023.953.22 1.345.588.392.365.652.855.782 1.472.158.753.067 1.445-.273 2.076-.217.4-.564.76-1.04 1.074l2.733 2.827c.357.364.6.585.736.66.2.103.414.126.64.072l.058.28-2.63.825-3.668-3.808-.548.17zm-1.052-5.007l.94 4.473.35-.11c.572-.18.985-.376 1.24-.59.258-.22.43-.52.52-.902.095-.387.085-.85-.028-1.387-.164-.78-.434-1.306-.81-1.584-.376-.278-.893-.314-1.553-.107l-.658.207zM196.067 343.22l-.365 2.917c-.07.564-.088.925-.052 1.084.04.155.128.29.258.403.132.113.392.206.782.28l-.035.283-4.36-.813.036-.285c.394.074.665.08.814.02.155-.067.268-.167.34-.3.076-.132.15-.48.22-1.044l.847-6.76c.07-.563.085-.92.045-1.075-.036-.16-.12-.297-.25-.41-.132-.113-.393-.207-.782-.28l.035-.283 3.958.738c1.03.192 1.773.42 2.228.683s.805.66 1.048 1.185c.242.523.325 1.1.246 1.73-.096.767-.4 1.36-.917 1.777-.328.263-.762.427-1.3.488l1.606 3.91c.21.504.366.824.465.958.153.19.34.314.565.372l-.035.285-2.683-.5-2.15-5.26-.56-.104zm.64-5.11l-.57 4.563.357.067c.582.11 1.025.126 1.33.05.305-.077.56-.27.768-.58.21-.31.35-.74.417-1.288.1-.794.02-1.41-.24-1.845-.253-.435-.717-.716-1.39-.842l-.673-.125zM271.405 350.816l-3.04.157-.328 1.044c-.107.347-.156.632-.148.855.01.295.113.508.313.638.118.076.4.124.85.142l.01.287-2.863.147-.01-.287c.307-.073.555-.24.746-.505.19-.27.417-.812.682-1.63l2.79-8.56.12-.005 3.405 8.472c.325.802.586 1.305.784 1.507.15.152.355.236.62.247l.01.288-4.167.215-.01-.288.17-.008c.335-.018.568-.087.7-.208.09-.087.133-.208.127-.363-.003-.094-.02-.19-.048-.286-.01-.046-.08-.237-.212-.573l-.503-1.288zm-.235-.563l-1.41-3.56-1.194 3.695 2.604-.135z"/></g><g fill-rule="evenodd"><path fill="#fff600" d="M261.244 258.025h69.627v65.73h-69.626z"/><path fill="#cc1900" d="M271.19 192.295h9.947v65.73h-9.947zM291.084 192.295h9.947v65.73h-9.946zM310.978 192.295h9.946v65.73h-9.946z"/><path fill="#fff600" d="M261.244 192.295h9.946v65.73h-9.946zM281.137 192.295h9.947v65.73h-9.947zM301.03 192.295h9.947v65.73h-9.946zM320.925 192.295h9.946v65.73h-9.945z"/><path fill="#cc1900" d="M207.862 264.6h7.737v59.155h-7.738zM223.335 264.6h7.736v59.155h-7.735zM238.807 264.6h7.736v59.155h-7.736z"/><path fill="#fff600" d="M200.128 264.6h7.736v59.155h-7.736zM215.6 264.6h7.737v59.155H215.6zM231.073 264.6h7.736v59.155h-7.737zM246.545 264.6h7.737v59.155h-7.737z"/><path fill="#cc1900" d="M192.39 264.6h7.736v59.155h-7.736z"/><path fill="#fff600" d="M184.656 264.6h7.736v59.155h-7.736z"/><path fill="#cc1900" d="M184.656 192.295h69.628v65.73h-69.628z"/><path d="M248.205 211.667c1.432-.38 1.643-2.28 1.863-3.845.44-3.13-2.22-6.047-5.935-6.51s-7.047 1.396-7.487 4.525l-2.895 1.1 4.032.503-4.35 1.764 5.386.673-43.44 36.106 2.373 2.605 43.442-36.107c1.147-.952.32-2.266-.946-3.346-1.492-1.274-1.11-1.525-.912-2.925.287-2.04 2.25-2.91 4.48-2.63s3.825 2.027 3.56 3.905c-.13.94-.518 2.043-1.52 2.257-1.65.808.724 3.412 2.35 1.925z" fill="#fff600"/><path d="M194.88 361.42v336.61c0 35.434 16.978 53.15 50.934 53.15h118.85c33.957 0 33.957 35.433 33.957 35.433s0-35.433 33.957-35.433h118.85c33.957 0 50.935-17.716 50.935-53.15V361.42h-407.48zm17.716 17.717v177.16h177.17v-177.16h-177.17zm194.88 0v177.16h177.17v-177.16h-177.17zm-194.88 194.88v106.3c0 35.434 16.978 53.15 50.934 53.15H389.76v-159.45H212.6zm372.05 0v106.3c0 35.434-16.977 53.15-50.934 53.15H407.482v-159.45h177.16z" stroke="#000" stroke-width="1pt" fill="#cba323" transform="matrix(.393 0 0 .371 101.182 51.75)"/><path d="M219.466 198.77l-13.926 14.073 4.285 25.33h19.28l4.286-25.33-13.924-14.072z" fill="#fff"/><path d="M218.44 204.248l-10.717 10.53 4.287 21.056h6.43V204.25zm2.145 0v31.585h6.43l4.29-21.057-10.72-10.53z" fill="#fff600"/><path d="M223.056 238.372h-3.49s1.745 5.457 3.49 5.457c6.98 0 20.977-7.96 20.94-5.458 0 5.457-3.49 2.73-3.49 5.457s6.98 0 6.98-2.73c0-2.728 0-5.456-3.49-5.456s-13.637 5.493-17.45 5.457c-3.49 0-3.49-2.728-3.49-2.728zM215.88 238.372h3.49s-1.745 5.457-3.49 5.457c-6.98 0-20.977-7.96-20.94-5.458 0 5.457 3.49 2.73 3.49 5.457s-6.98 0-6.98-2.73c0-2.728 0-5.456 3.49-5.456s13.637 5.493 17.45 5.457c3.49 0 3.49-2.728 3.49-2.728z" fill="#fffbff"/><path d="M70.866 574.02c0 35.433 28.704 36.668 17.717 53.15L53.15 680.32H35.434l17.716-53.15c5.905-17.717 17.716-65.374 17.716-53.15z" transform="matrix(.146 .025 -.031 .116 314.209 208.146)" stroke="#fff600" stroke-width="5" fill="#cc1900"/><path d="M35.433 423.42c0 3.667 2.242 31.888 0 35.067-2.242 3.18-8.97-18.684-12.977-16.28-4.008 2.406-7.603 24.16-12.902 25.505-5.298 1.35-12.3-17.71-18.412-17.71-6.112 0-11.937 19.062-17.235 17.717-5.298-1.347-10.07-23.1-14.08-25.505-4.007-2.405-10.734 19.458-12.976 16.28-2.24-3.18 0-31.4 0-35.068 0-14.67 19.843-26.575 44.292-26.575s44.29 11.906 44.29 26.575z" transform="matrix(.117 0 0 .059 307.076 255.909)" stroke="#fff600" stroke-width="7.99" fill="#cc1900"/><path d="M281.562 266.37c1.54.703 1.418 1.877.895 2.107-.523.23-1.25-.57-2.79-1.275s-3.314-1.046-2.79-1.276 3.145-.26 4.685.443z" fill="#008d00"/><path d="M-70.866 414.57v53.15h53.15v-17.717H-53.15V414.57h-17.715z" transform="matrix(.08 .101 -.126 .064 344.185 259.031)" stroke="#fff600" stroke-width="5" fill="#cc1900"/><path d="M70.866 574.02c0 35.433 28.704 36.668 17.717 53.15L53.15 680.32H35.434l17.716-53.15c5.905-17.717-17.716-35.434-70.866 0-12.224 0-70.866-8.964-70.866 0v53.15h-17.716v-53.15c0-6.942-35.433-53.15-35.433-70.867 0-12.224-53.15 0-53.15-17.716 0-8.86 35.432-17.717 35.432-35.433 0-17.717 35.433 0 53.15 0 0 17.716-17.717 35.433 17.716 35.433 24.45 0 177.17 0 177.17 17.716 0 17.717-17.717 5.493-17.717 17.717z" stroke="#fff600" stroke-width="5" fill="#cc1900" transform="matrix(.149 0 0 .119 303.404 208.155)"/><path d="M288.1 288.838c1.44-.014 1.95 1.05 1.702 1.462-.25.41-1.167.012-2.605.027s-2.853.437-2.604.026 2.07-1.5 3.508-1.515zM309.36 288.838c1.438-.014 1.95 1.05 1.7 1.462-.25.41-1.166.012-2.604.027s-2.853.437-2.604.026 2.07-1.5 3.508-1.515zM285.037 285.882c1.173-.674 2.382-.055 2.48.39.098.445-.952.548-2.126 1.223s-2.027 1.667-2.125 1.222.598-2.16 1.772-2.835zM299.056 287.127c1.437-.044 1.988 1.01 1.754 1.427-.235.415-1.167.035-2.605.08s-2.84.495-2.604.08 2.018-1.543 3.456-1.587zM280.986 274.34l6.325-3.827 1.613 1.665-6.325 3.827zM283.684 277.468c0 .587-.356 1.063-.797 1.063s-.797-.475-.797-1.062.357-1.063.797-1.063.797.476.797 1.063z" fill="#008d00"/><path d="M47.995 681.85c34.086.02 34.086 12.9 19.835 12.9-19.835 0-67.83 4.38-67.83 3.28 0-1.102-16.484-14.202-16.484-14.202-1.232-3.513 1.177 14.128-1.232 14.203-2.41.075-16.43-15.38-16.43-15.38s1.288 15.232 0 15.307c-1.287.074-17.66-9.42-17.66-9.42l-1.178 8.242-15.306 9.42 15.306 10.596v8.242l15.306-8.242 1.178 15.306 18.84-15.306s4.763 16.3 2.353 16.484c-2.41.185 16.484-16.484 16.484-16.484-1.178-1.05 54.051 0 87.405-1.05 33.355-1.048 32.747-51.937 17.717-53.15-15.033-1.213-58.306 3.33-58.306-.203" transform="matrix(.077 0 0 .089 307.606 214.688)" stroke="#fff600" stroke-width="5.055" fill="#cc1900"/><g><path d="M70.866 574.02c0 35.433 28.704 36.668 17.717 53.15L53.15 680.32H35.434l17.716-53.15c5.905-17.717 17.716-65.374 17.716-53.15z" transform="matrix(.146 .025 -.031 .116 314.209 234.439)" stroke="#fff600" stroke-width="5" fill="#cc1900"/><path d="M35.433 423.42c0 3.667 2.242 31.888 0 35.067-2.242 3.18-8.97-18.684-12.977-16.28-4.008 2.406-7.603 24.16-12.902 25.505-5.298 1.35-12.3-17.71-18.412-17.71-6.112 0-11.937 19.062-17.235 17.717-5.298-1.347-10.07-23.1-14.08-25.505-4.007-2.405-10.734 19.458-12.976 16.28-2.24-3.18 0-31.4 0-35.068 0-14.67 19.843-26.575 44.292-26.575s44.29 11.906 44.29 26.575z" transform="matrix(.117 0 0 .059 307.076 282.202)" stroke="#fff600" stroke-width="7.99" fill="#cc1900"/><path d="M281.562 292.662c1.54.704 1.418 1.878.895 2.108-.523.23-1.25-.57-2.79-1.275s-3.314-1.046-2.79-1.276 3.145-.262 4.685.442z" fill="#008d00"/><path d="M-70.866 414.57v53.15h53.15v-17.717H-53.15V414.57h-17.715z" transform="matrix(.08 .101 -.126 .064 344.185 285.324)" stroke="#fff600" stroke-width="5" fill="#cc1900"/><path d="M70.866 574.02c0 35.433 28.704 36.668 17.717 53.15L53.15 680.32H35.434l17.716-53.15c5.905-17.717-17.716-35.434-70.866 0-12.224 0-70.866-8.964-70.866 0v53.15h-17.716v-53.15c0-6.942-35.433-53.15-35.433-70.867 0-12.224-53.15 0-53.15-17.716 0-8.86 35.432-17.717 35.432-35.433 0-17.717 35.433 0 53.15 0 0 17.716-17.717 35.433 17.716 35.433 24.45 0 177.17 0 177.17 17.716 0 17.717-17.717 5.493-17.717 17.717z" stroke="#fff600" stroke-width="5" fill="#cc1900" transform="matrix(.149 0 0 .119 303.404 234.448)"/><path d="M288.1 315.13c1.44-.013 1.95 1.052 1.702 1.463-.25.41-1.167.012-2.605.027s-2.853.437-2.604.026 2.07-1.5 3.508-1.515zM309.36 315.13c1.438-.013 1.95 1.052 1.7 1.463-.25.41-1.166.012-2.604.027s-2.853.437-2.604.026 2.07-1.5 3.508-1.515zM285.037 312.175c1.173-.674 2.382-.055 2.48.39.098.445-.952.548-2.126 1.223s-2.027 1.667-2.125 1.222.598-2.16 1.772-2.835zM299.056 313.42c1.437-.044 1.988 1.01 1.754 1.427-.235.415-1.167.035-2.605.08s-2.84.495-2.604.08 2.018-1.543 3.456-1.587zM280.986 300.633l6.325-3.827 1.613 1.665-6.325 3.828zM283.684 303.76c0 .588-.356 1.064-.797 1.064s-.797-.476-.797-1.063.357-1.062.797-1.062.797.476.797 1.063z" fill="#008d00"/><path d="M47.995 681.85c34.086.02 34.086 12.9 19.835 12.9-19.835 0-67.83 4.38-67.83 3.28 0-1.102-16.484-14.202-16.484-14.202-1.232-3.513 1.177 14.128-1.232 14.203-2.41.075-16.43-15.38-16.43-15.38s1.288 15.232 0 15.307c-1.287.074-17.66-9.42-17.66-9.42l-1.178 8.242-15.306 9.42 15.306 10.596v8.242l15.306-8.242 1.178 15.306 18.84-15.306s4.763 16.3 2.353 16.484c-2.41.185 16.484-16.484 16.484-16.484-1.178-1.05 54.051 0 87.405-1.05 33.355-1.048 32.747-51.937 17.717-53.15-15.033-1.213-58.306 3.33-58.306-.203" transform="matrix(.077 0 0 .089 307.606 240.981)" stroke="#fff600" stroke-width="5.055" fill="#cc1900"/></g></g></svg>