<svg xmlns="http://www.w3.org/2000/svg" height="512" width="512"><defs><clipPath id="a"><path fill-opacity=".67" d="M0 0h512v512H0z"/></clipPath></defs><g clip-path="url(#a)"><path fill-rule="evenodd" fill="#fff" d="M-167.86.45h429.52v256.07h-429.52z"/><path d="M-123.97.45L.29 78.366V.45h-124.26z" fill="#006"/><path d="M16.866.45v99.468h-184.73v56.84h184.73v99.467h56.84v-99.468h184.73v-56.84H73.705V.45h-56.84z" fill="#c00"/><path d="M90.283.45v73.417L211.853 1.02 90.283.45zM259.78 22.495L158.32 82.89l100.11.45v89.995h-85.258l84.47 54.942 1.24 27.948-45.117-.647-123.48-72.77v73.417H.29v-73.417l-115.83 73.22-52.315.197v255.78h852.58V.455l-424.04-.46m-428.54 28.87l-.45 53.12 89.757 1.35-89.307-54.472zM-167.86 173.33v54.47l85.258-53.9-85.258-.57z" fill="#006"/><g><path d="M296.628 253.36c0 55.95-6.45 119.004 35.255 162.823 8.58 9.014 24.9 29.572 38.892 28.783 14.647-.825 33.483-22.5 41.86-33.114 36.304-47.754 30.533-104.713 31.767-160.14-16.393 7.363-24.557 9.788-38.892 9.745-10.618 1.09-26.998-6.045-36.792-10.714-6.4 4.275-15.687 9.373-32.374 9.945-19.273.848-25.38-2.418-39.716-7.33z" fill="#cc3"/><path d="M301.068 259.444c-1.165 29.392-.27 62.49 4.324 93.94 5.08 16.43 4.4 25.454 11.95 35.3l105.67-.822c6.368-10.36 11.09-26.068 11.7-32.313 5.9-31.763 6.04-66.814 6.182-98.164-10.626 5.65-24.542 9.652-38.048 7.895-10.827-.824-20.832-3.296-32.482-9.88-10.107 6.054-13.63 8.818-30.317 9.525-12.993.64-23.518 1.693-38.98-5.482z" fill="#fff"/><path d="M351.286 264.598l4.33 4.33v-4.33h-4.33z" fill="#fef8f1"/><path d="M317.57 388.03c7.52 15.83 34.12 53.17 54.44 52.443 19.734-.706 42.02-37.14 50.737-52.442H317.57z" fill="#0cf"/><path d="M373.076 303.62c3.342 7.86 14.057 16.542 17.003 20.796-3.75 4.254-4.5 3.79-4.008 11.694 6.52-6.82 6.637-7.532 10.83-6.498 9.186 9.167 1.644 28.853-5.948 33.133-7.59 4.566-6.212-.158-17.588 5.565 5.216 4.46 11.26-.654 16.198.712 2.683 3.184-1.276 8.987.81 14.452 4.364-.42 3.84-9.232 4.856-12.426 3.188-11.705 22.357-19.87 23.332-30.606 4.042-1.897 8.08-.593 12.996 2.166-2.448-10.06-10.544-9.95-12.714-13.092-5.166-7.894-9.745-16.9-20.78-19.236-8.375-1.774-7.75.533-13.116-3.128-3.336-2.604-13.494-7.525-11.87-3.533z" fill="#f90"/><path d="M397.158 312.55c0 .965-.782 1.746-1.746 1.746s-1.746-.78-1.746-1.745c0-.964.782-1.745 1.746-1.745s1.746.78 1.746 1.746z" fill-rule="evenodd" fill="#fff"/><path d="M346.088 336.798c5.39-6.628 8.057-20.157 10.442-24.75 5.513 1.328 5.453 2.207 12.21-1.92-9.076-2.577-9.76-2.348-10.804-6.54 3.812-12.403 24.742-14.933 32.073-10.22 7.582 4.576 2.76 5.565 13.136 12.95 1.506-6.696-5.84-9.65-6.938-14.654 1.56-3.86 8.54-3.07 12.398-7.47-2.41-3.66-9.956.92-13.255 1.514-11.837 2.65-28.01-10.484-37.96-6.33-3.565-2.686-4.3-6.867-4.156-12.5-7.75 6.863-3.87 13.97-5.635 17.357-4.566 8.256-10.39 16.512-7.3 27.358 2.346 8.234 4.093 6.603 3.364 13.06-.744 4.164-.348 15.445 2.422 12.143z" fill="#f90"/><path d="M342.732 311.334c.852-.45 1.91-.124 2.36.728.45.852.124 1.91-.73 2.36-.85.45-1.907.124-2.358-.73-.45-.85-.124-1.907.728-2.358z" fill-rule="evenodd" fill="#fff"/><g><path d="M390.045 341.542c-8.456-1.183-21.41 3.53-26.572 3.864-1.716-5.402-.933-5.806-7.958-9.453 2.49 9.098 3.038 9.564-.007 12.625-12.583 3.153-25.57-13.444-25.33-22.153-.005-8.854 3.334-5.24 4.286-17.935-6.506 2.174-5.235 9.984-8.948 13.512-4.11.66-7.044-5.72-12.8-6.745-1.887 3.956 5.933 8.043 8.147 10.558 8.39 8.758 5.517 29.386 14.215 35.748-.455 4.44-3.652 7.23-8.546 10.02 9.88 3.082 13.954-3.912 17.763-4.154 9.424-.364 19.498.348 27.18-7.904 5.83-6.264 3.532-6.915 9.432-9.63 3.948-1.517 13.394-7.69 9.138-8.352z" fill="#f90"/><path d="M369.996 357.58c-.826-.497-1.094-1.57-.597-2.395.495-.826 1.567-1.093 2.393-.597.826.496 1.094 1.568.597 2.395-.496.826-1.568 1.093-2.394.597z" fill-rule="evenodd" fill="#fff"/></g></g></g></svg>