<svg xmlns="http://www.w3.org/2000/svg" height="512" width="512"><g fill-rule="evenodd" stroke-width="1pt"><path fill="#00c4ff" d="M0-.01h512.003v171.125H0z"/><path fill="#fff" d="M0 170.413h512.003v171.124H0z"/><path fill="#00c4ff" d="M0 340.846h512.003V511.97H0z"/></g><path d="M382.49 221.33c0 14.564-11.864 26.37-26.5 26.37s-26.498-11.806-26.498-26.37 11.864-26.37 26.5-26.37 26.498 11.806 26.498 26.37z" stroke-opacity=".387" fill-rule="evenodd" transform="matrix(1.3 0 0 1.2 -190.8 -19.6)" stroke="#000" stroke-width=".625" fill="#ffd600"/><path d="M364.43 195.28c-4.34-1.05-8.785.422-10.185.318-1.925 0-6.79-1.68-10.185 0M338.71 200.49c4.305-3.01 9.115 1.086 10.394.315 3.492-2.294 6.736-1.868 10.08.21 2.155 1.272 5.914-3.71 10.29.315" stroke-opacity=".387" transform="matrix(1 0 0 .9 -87.2 47.6)" stroke="#000" stroke-width=".5" fill="none"/><path d="M333.88 205.63c2.275-1.855 9.694-1.925 17.324 2.414 1.155-.28 1.89-1.084.945-2.204-5.74-1.995-12.425-4.515-18.585-2.625-1.68 1.19-1.26 1.96.315 2.415z" stroke-opacity=".387" fill-rule="evenodd" transform="matrix(1 0 0 .9 -87.2 47.6)" stroke="#000" stroke-width=".5" fill="#efc000"/><path d="M333.88 205.63c2.275-1.855 9.694-1.925 17.324 2.414 1.155-.28 1.89-1.084.945-2.204-5.74-1.995-12.425-4.515-18.585-2.625-1.68 1.19-1.26 1.96.315 2.415z" stroke-opacity=".387" fill-rule="evenodd" transform="matrix(-1 0 0 .9 603.3 47.6)" stroke="#000" stroke-width=".5" fill="#efc000"/><path stroke-linejoin="round" d="M330.84 211.83c7.525-4.83 17.464-2.31 21.63.315-6.09-1.155-6.196-1.68-10.606-1.785-3.115.106-7.7-.21-11.024 1.47z" stroke-opacity=".387" fill-rule="evenodd" transform="matrix(1 0 0 .9 -87.2 47.6)" stroke="#000" stroke-width=".625" fill="#f0bf00"/><path d="M348.06 211.3c-3.675 7.665-10.08 7.77-14.594-.42" stroke-opacity=".387" transform="matrix(1 0 0 .9 -87.2 47.6)" stroke="#000" stroke-width=".625" fill="none"/><path d="M250.172 249.47c-1.062 1.163-3.66 1.853-5.805 1.543s-3.02-1.503-1.96-2.665c1.063-1.162 3.662-1.852 5.806-1.542s3.022 1.503 1.96 2.665z" fill-rule="evenodd" fill-opacity=".368"/><path d="M244.89 247.98c.11.27-.228.63-.755.802s-1.042.093-1.152-.177c-.11-.27.23-.63.756-.802s1.04-.093 1.15.177z" fill-rule="evenodd" fill="gold"/><path d="M349.18 224.5c-4.24 7.127 1.537 2.1 2.475 4.164 1.65 1.913 3.3 1.462 4.276 0 .977-1.65 7.128 3.113 2.927-3.938" stroke-opacity=".387" transform="matrix(1 0 0 .9 -87.2 47.6)" stroke="#000" stroke-width=".625" fill="none"/><path stroke-linejoin="round" d="M341.64 236.31c3.638-.413 9.753-3.188 11.93-.9 1.874-2.063 8.476.6 12.714.9-3.076 1.875-9.302.6-12.265 2.588-2.89-1.763-9.267-.15-12.38-2.588z" stroke-opacity=".387" transform="matrix(1 0 0 .9 -87.2 47.6)" stroke="#000" stroke-linecap="round" stroke-width=".625" fill="none"/><path stroke-linejoin="round" d="M347.5 239.58c5.514 2.25 6.752 1.913 12.716.225-1.238 3.264-4.398 3.95-6.19 3.826-1.857-.12-4.388.114-6.526-4.05z" stroke-opacity=".387" transform="matrix(1 0 0 .9 -87.2 47.6)" stroke="#000" stroke-width=".625" fill="none"/><path stroke-linejoin="round" d="M343.17 258.06c-3.977 10.41.38 15.358-1.567 20.964-1.874 5.398-10.025 18.776-3.82 24.59 4.93.227-.853-7.377 9.01-21.456 4.576-6.595-1.195-10.77 3.626-23.707.448-1.106-6.623-2.03-7.25-.39z" stroke-opacity=".387" fill-rule="evenodd" transform="matrix(1 0 0 .9 -87.2 47.6)" stroke="#000" stroke-width=".625" fill="gold"/><path stroke-linejoin="round" d="M342.97 258.16c-1.528 11.683-.62 47.577 3.037 46.14 4.05 1.306 4.583-35.162 4.212-45.945-.053-1.194-7.037-1.938-7.25-.195z" stroke-opacity=".387" fill-rule="evenodd" transform="matrix(1 0 0 .9 -78.8 48.3)" stroke="#000" stroke-width=".625" fill="gold"/><path stroke-linejoin="round" d="M343.17 258.06c-3.977 10.41.38 15.358-1.567 20.964-1.874 5.398-10.025 18.776-3.82 24.59 4.93.227-.853-7.377 9.01-21.456 4.576-6.595-1.195-10.77 3.626-23.707.448-1.106-6.623-2.03-7.25-.39z" stroke-opacity=".387" transform="matrix(-.7 -.7 -.7 .7 655.5 340.9)" stroke="#000" stroke-width=".625" fill="none"/><path stroke-linejoin="round" d="M343.17 258.06c-3.977 10.41.38 15.358-1.567 20.964-1.874 5.398-10.025 18.776-3.82 24.59 4.93.227-.853-7.377 9.01-21.456 4.576-6.595-1.195-10.77 3.626-23.707.448-1.106-6.623-2.03-7.25-.39z" stroke-opacity=".387" transform="matrix(.7 .7 -.7 .7 170.2 -128.7)" stroke="#000" stroke-width=".625" fill="none"/><path stroke-linejoin="round" d="M343.17 258.06c-3.977 10.41.38 15.358-1.567 20.964-1.874 5.398-10.025 18.776-3.82 24.59 4.93.227-.853-7.377 9.01-21.456 4.576-6.595-1.195-10.77 3.626-23.707.448-1.106-6.623-2.03-7.25-.39z" stroke-opacity=".387" transform="matrix(0 -.9 -1 0 475 589.3)" stroke="#000" stroke-width=".625" fill="none"/><path stroke-linejoin="round" d="M342.97 258.16c-1.528 11.683-.62 47.577 3.037 46.14 4.05 1.306 4.583-35.162 4.212-45.945-.053-1.194-7.037-1.938-7.25-.195z" stroke-opacity=".387" transform="matrix(-.9 -.4 -.4 .9 654.6 195.9)" stroke="#000" stroke-width=".625" fill="none"/><path stroke-linejoin="round" d="M342.97 258.16c-1.528 11.683-.62 47.577 3.037 46.14 4.05 1.306 4.583-35.162 4.212-45.945-.053-1.194-7.037-1.938-7.25-.195z" stroke-opacity=".387" transform="matrix(-.7 -.7 -.7 .7 648.6 337.5)" stroke="#000" stroke-width=".625" fill="none"/><path stroke-linejoin="round" d="M342.97 258.16c-1.528 11.683-.62 47.577 3.037 46.14 4.05 1.306 4.583-35.162 4.212-45.945-.053-1.194-7.037-1.938-7.25-.195z" stroke-opacity=".387" transform="matrix(-.4 -.9 -.9 .4 587.3 475.4)" stroke="#000" stroke-width=".625" fill="none"/><path d="M349.18 224.5c-4.24 7.127 1.537 2.1 2.475 4.164 1.65 1.913 3.3 1.462 4.276 0 .977-1.65 7.128 3.113 2.927-3.938" stroke-opacity=".082" transform="matrix(1 0 0 .9 -87.2 47.6)" stroke="#000" stroke-width=".625" fill="none"/><path stroke-linejoin="round" d="M341.64 236.31c3.638-.413 9.753-3.188 11.93-.9 1.874-2.063 8.476.6 12.714.9-3.076 1.875-9.302.6-12.265 2.588-2.89-1.763-9.267-.15-12.38-2.588z" stroke-opacity=".082" fill-rule="evenodd" transform="matrix(1 0 0 .9 -87.2 47.6)" stroke="#000" stroke-linecap="round" stroke-width=".625" fill="#f0bf00"/><path stroke-linejoin="round" d="M347.5 239.58c5.514 2.25 6.752 1.913 12.716.225-1.238 3.264-4.398 3.95-6.19 3.826-1.857-.12-4.388.114-6.526-4.05z" stroke-opacity=".082" fill-rule="evenodd" transform="matrix(1 0 0 .9 -87.2 47.6)" stroke="#000" stroke-width=".625" fill="#f0bf00"/><path stroke-linejoin="round" d="M343.17 258.06c-3.977 10.41.38 15.358-1.567 20.964-1.874 5.398-10.025 18.776-3.82 24.59 4.93.227-.853-7.377 9.01-21.456 4.576-6.595-1.195-10.77 3.626-23.707.448-1.106-6.623-2.03-7.25-.39z" stroke-opacity=".149" fill-rule="evenodd" transform="matrix(-.7 -.7 -.7 .7 655.5 340.9)" stroke="#000" stroke-width=".625" fill="gold"/><path stroke-linejoin="round" d="M343.17 258.06c-3.977 10.41.38 15.358-1.567 20.964-1.874 5.398-10.025 18.776-3.82 24.59 4.93.227-.853-7.377 9.01-21.456 4.576-6.595-1.195-10.77 3.626-23.707.448-1.106-6.623-2.03-7.25-.39z" stroke-opacity=".149" fill-rule="evenodd" transform="matrix(.7 .7 -.7 .7 170.2 -128.7)" stroke="#000" stroke-width=".625" fill="gold"/><path stroke-linejoin="round" d="M343.17 258.06c-3.977 10.41.38 15.358-1.567 20.964-1.874 5.398-10.025 18.776-3.82 24.59 4.93.227-.853-7.377 9.01-21.456 4.576-6.595-1.195-10.77 3.626-23.707.448-1.106-6.623-2.03-7.25-.39z" stroke-opacity=".149" fill-rule="evenodd" transform="matrix(0 -.9 -1 0 475 589.3)" stroke="#000" stroke-width=".625" fill="gold"/><path stroke-linejoin="round" d="M342.97 258.16c-1.528 11.683-.62 47.577 3.037 46.14 4.05 1.306 4.583-35.162 4.212-45.945-.053-1.194-7.037-1.938-7.25-.195z" stroke-opacity=".149" fill-rule="evenodd" transform="matrix(-.9 -.4 -.4 .9 654.6 195.9)" stroke="#000" stroke-width=".625" fill="gold"/><path stroke-linejoin="round" d="M342.97 258.16c-1.528 11.683-.62 47.577 3.037 46.14 4.05 1.306 4.583-35.162 4.212-45.945-.053-1.194-7.037-1.938-7.25-.195z" stroke-opacity=".149" fill-rule="evenodd" transform="matrix(-.7 -.7 -.7 .7 648.6 337.5)" stroke="#000" stroke-width=".625" fill="gold"/><path stroke-linejoin="round" d="M342.97 258.16c-1.528 11.683-.62 47.577 3.037 46.14 4.05 1.306 4.583-35.162 4.212-45.945-.053-1.194-7.037-1.938-7.25-.195z" stroke-opacity=".149" fill-rule="evenodd" transform="matrix(-.4 -.9 -.9 .4 587.3 475.4)" stroke="#000" stroke-width=".625" fill="gold"/><path stroke-linejoin="round" d="M342.97 258.16c-1.528 11.683-.62 47.577 3.037 46.14 4.05 1.306 4.583-35.162 4.212-45.945-.053-1.194-7.037-1.938-7.25-.195z" stroke-opacity=".387" fill-rule="evenodd" transform="matrix(0 -.9 1 0 44.8 582.7)" stroke="#000" stroke-width=".625" fill="gold"/><path stroke-linejoin="round" d="M343.17 258.06c-3.977 10.41.38 15.358-1.567 20.964-1.874 5.398-10.025 18.776-3.82 24.59 4.93.227-.853-7.377 9.01-21.456 4.576-6.595-1.195-10.77 3.626-23.707.448-1.106-6.623-2.03-7.25-.39z" stroke-opacity=".387" fill-rule="evenodd" transform="matrix(-1 0 0 .9 604.6 48.1)" stroke="#000" stroke-width=".625" fill="gold"/><path stroke-linejoin="round" d="M343.17 258.06c-3.977 10.41.38 15.358-1.567 20.964-1.874 5.398-10.025 18.776-3.82 24.59 4.93.227-.853-7.377 9.01-21.456 4.576-6.595-1.195-10.77 3.626-23.707.448-1.106-6.623-2.03-7.25-.39z" stroke-opacity=".387" fill-rule="evenodd" transform="matrix(.7 -.7 .7 .7 -137.8 341.3)" stroke="#000" stroke-width=".625" fill="gold"/><path stroke-linejoin="round" d="M343.17 258.06c-3.977 10.41.38 15.358-1.567 20.964-1.874 5.398-10.025 18.776-3.82 24.59 4.93.227-.853-7.377 9.01-21.456 4.576-6.595-1.195-10.77 3.626-23.707.448-1.106-6.623-2.03-7.25-.39z" stroke-opacity=".387" fill-rule="evenodd" transform="matrix(-.7 .7 .7 .7 347.5 -128.5)" stroke="#000" stroke-width=".625" fill="gold"/><path stroke-linejoin="round" d="M343.17 258.06c-3.977 10.41.38 15.358-1.567 20.964-1.874 5.398-10.025 18.776-3.82 24.59 4.93.227-.853-7.377 9.01-21.456 4.576-6.595-1.195-10.77 3.626-23.707.448-1.106-6.623-2.03-7.25-.39z" stroke-opacity=".387" fill-rule="evenodd" transform="matrix(0 -.9 1 0 42.4 589.3)" stroke="#000" stroke-width=".625" fill="gold"/><path stroke-linejoin="round" d="M342.97 258.16c-1.528 11.683-.62 47.577 3.037 46.14 4.05 1.306 4.583-35.162 4.212-45.945-.053-1.194-7.037-1.938-7.25-.195z" stroke-opacity=".387" fill-rule="evenodd" transform="matrix(.9 -.4 .4 .9 -137 196.4)" stroke="#000" stroke-width=".625" fill="gold"/><path stroke-linejoin="round" d="M342.97 258.16c-1.528 11.683-.62 47.577 3.037 46.14 4.05 1.306 4.583-35.162 4.212-45.945-.053-1.194-7.037-1.938-7.25-.195z" stroke-opacity=".387" fill-rule="evenodd" transform="matrix(.7 -.7 .7 .7 -131.5 337.5)" stroke="#000" stroke-width=".625" fill="gold"/><path stroke-linejoin="round" d="M342.97 258.16c-1.528 11.683-.62 47.577 3.037 46.14 4.05 1.306 4.583-35.162 4.212-45.945-.053-1.194-7.037-1.938-7.25-.195z" stroke-opacity=".387" fill-rule="evenodd" transform="matrix(.4 -.9 .9 .4 -69.5 475.4)" stroke="#000" stroke-width=".625" fill="gold"/><path stroke-linejoin="round" d="M343.17 258.06c-3.977 10.41.38 15.358-1.567 20.964-1.874 5.398-10.025 18.776-3.82 24.59 4.93.227-.853-7.377 9.01-21.456 4.576-6.595-1.195-10.77 3.626-23.707.448-1.106-6.623-2.03-7.25-.39z" stroke-opacity=".149" fill-rule="evenodd" transform="matrix(.7 -.7 .7 .7 -137.8 341.3)" stroke="#000" stroke-width=".625" fill="gold"/><path stroke-linejoin="round" d="M343.17 258.06c-3.977 10.41.38 15.358-1.567 20.964-1.874 5.398-10.025 18.776-3.82 24.59 4.93.227-.853-7.377 9.01-21.456 4.576-6.595-1.195-10.77 3.626-23.707.448-1.106-6.623-2.03-7.25-.39z" stroke-opacity=".149" fill-rule="evenodd" transform="matrix(-.7 .7 .7 .7 347.5 -128.5)" stroke="#000" stroke-width=".625" fill="gold"/><path stroke-linejoin="round" d="M343.17 258.06c-3.977 10.41.38 15.358-1.567 20.964-1.874 5.398-10.025 18.776-3.82 24.59 4.93.227-.853-7.377 9.01-21.456 4.576-6.595-1.195-10.77 3.626-23.707.448-1.106-6.623-2.03-7.25-.39z" stroke-opacity=".149" fill-rule="evenodd" transform="matrix(0 -.9 1 0 42.4 589.3)" stroke="#000" stroke-width=".625" fill="gold"/><path stroke-linejoin="round" d="M342.97 258.16c-1.528 11.683-.62 47.577 3.037 46.14 4.05 1.306 4.583-35.162 4.212-45.945-.053-1.194-7.037-1.938-7.25-.195z" stroke-opacity=".149" fill-rule="evenodd" transform="matrix(.9 -.4 .4 .9 -137 196.4)" stroke="#000" stroke-width=".625" fill="gold"/><path stroke-linejoin="round" d="M342.97 258.16c-1.528 11.683-.62 47.577 3.037 46.14 4.05 1.306 4.583-35.162 4.212-45.945-.053-1.194-7.037-1.938-7.25-.195z" stroke-opacity=".149" fill-rule="evenodd" transform="matrix(.7 -.7 .7 .7 -131.5 337.5)" stroke="#000" stroke-width=".625" fill="gold"/><path stroke-linejoin="round" d="M342.97 258.16c-1.528 11.683-.62 47.577 3.037 46.14 4.05 1.306 4.583-35.162 4.212-45.945-.053-1.194-7.037-1.938-7.25-.195z" stroke-opacity=".149" fill-rule="evenodd" transform="matrix(.4 -.9 .9 .4 -69.5 475.4)" stroke="#000" stroke-width=".625" fill="gold"/><path stroke-linejoin="round" d="M342.97 258.16c-1.528 11.683-.62 47.577 3.037 46.14 4.05 1.306 4.583-35.162 4.212-45.945-.053-1.194-7.037-1.938-7.25-.195z" stroke-opacity=".387" fill-rule="evenodd" transform="matrix(0 .9 -1 0 472.5 -71.7)" stroke="#000" stroke-width=".625" fill="gold"/><path stroke-linejoin="round" d="M343.17 258.06c-3.977 10.41.38 15.358-1.567 20.964-1.874 5.398-10.025 18.776-3.82 24.59 4.93.227-.853-7.377 9.01-21.456 4.576-6.595-1.195-10.77 3.626-23.707.448-1.106-6.623-2.03-7.25-.39z" stroke-opacity=".387" fill-rule="evenodd" transform="matrix(1 0 0 -.9 -87.3 462.9)" stroke="#000" stroke-width=".625" fill="gold"/><path stroke-linejoin="round" d="M343.17 258.06c-3.977 10.41.38 15.358-1.567 20.964-1.874 5.398-10.025 18.776-3.82 24.59 4.93.227-.853-7.377 9.01-21.456 4.576-6.595-1.195-10.77 3.626-23.707.448-1.106-6.623-2.03-7.25-.39z" stroke-opacity=".387" fill-rule="evenodd" transform="matrix(-.7 .7 -.7 -.7 655.2 169.7)" stroke="#000" stroke-width=".625" fill="gold"/><path stroke-linejoin="round" d="M343.17 258.06c-3.977 10.41.38 15.358-1.567 20.964-1.874 5.398-10.025 18.776-3.82 24.59 4.93.227-.853-7.377 9.01-21.456 4.576-6.595-1.195-10.77 3.626-23.707.448-1.106-6.623-2.03-7.25-.39z" stroke-opacity=".387" fill-rule="evenodd" transform="matrix(.7 -.7 -.7 -.7 169.8 639.5)" stroke="#000" stroke-width=".625" fill="gold"/><path stroke-linejoin="round" d="M343.17 258.06c-3.977 10.41.38 15.358-1.567 20.964-1.874 5.398-10.025 18.776-3.82 24.59 4.93.227-.853-7.377 9.01-21.456 4.576-6.595-1.195-10.77 3.626-23.707.448-1.106-6.623-2.03-7.25-.39z" stroke-opacity=".387" fill-rule="evenodd" transform="matrix(0 .9 -1 0 474.9 -78.2)" stroke="#000" stroke-width=".625" fill="gold"/><path stroke-linejoin="round" d="M342.97 258.16c-1.528 11.683-.62 47.577 3.037 46.14 4.05 1.306 4.583-35.162 4.212-45.945-.053-1.194-7.037-1.938-7.25-.195z" stroke-opacity=".387" fill-rule="evenodd" transform="matrix(-.9 .4 -.4 -.9 654.3 314.7)" stroke="#000" stroke-width=".625" fill="gold"/><path stroke-linejoin="round" d="M342.97 258.16c-1.528 11.683-.62 47.577 3.037 46.14 4.05 1.306 4.583-35.162 4.212-45.945-.053-1.194-7.037-1.938-7.25-.195z" stroke-opacity=".387" fill-rule="evenodd" transform="matrix(-.7 .7 -.7 -.7 648.8 173.6)" stroke="#000" stroke-width=".625" fill="gold"/><path stroke-linejoin="round" d="M342.97 258.16c-1.528 11.683-.62 47.577 3.037 46.14 4.05 1.306 4.583-35.162 4.212-45.945-.053-1.194-7.037-1.938-7.25-.195z" stroke-opacity=".387" fill-rule="evenodd" transform="matrix(-.4 .9 -.9 -.4 586.8 35.6)" stroke="#000" stroke-width=".625" fill="gold"/><path stroke-linejoin="round" d="M343.17 258.06c-3.977 10.41.38 15.358-1.567 20.964-1.874 5.398-10.025 18.776-3.82 24.59 4.93.227-.853-7.377 9.01-21.456 4.576-6.595-1.195-10.77 3.626-23.707.448-1.106-6.623-2.03-7.25-.39z" stroke-opacity=".149" fill-rule="evenodd" transform="matrix(-.7 .7 -.7 -.7 655.2 169.7)" stroke="#000" stroke-width=".625" fill="gold"/><path stroke-linejoin="round" d="M343.17 258.06c-3.977 10.41.38 15.358-1.567 20.964-1.874 5.398-10.025 18.776-3.82 24.59 4.93.227-.853-7.377 9.01-21.456 4.576-6.595-1.195-10.77 3.626-23.707.448-1.106-6.623-2.03-7.25-.39z" stroke-opacity=".149" fill-rule="evenodd" transform="matrix(.7 -.7 -.7 -.7 169.8 639.5)" stroke="#000" stroke-width=".625" fill="gold"/><path stroke-linejoin="round" d="M343.17 258.06c-3.977 10.41.38 15.358-1.567 20.964-1.874 5.398-10.025 18.776-3.82 24.59 4.93.227-.853-7.377 9.01-21.456 4.576-6.595-1.195-10.77 3.626-23.707.448-1.106-6.623-2.03-7.25-.39z" stroke-opacity=".149" fill-rule="evenodd" transform="matrix(0 .9 -1 0 474.9 -78.2)" stroke="#000" stroke-width=".625" fill="gold"/><path stroke-linejoin="round" d="M342.97 258.16c-1.528 11.683-.62 47.577 3.037 46.14 4.05 1.306 4.583-35.162 4.212-45.945-.053-1.194-7.037-1.938-7.25-.195z" stroke-opacity=".149" fill-rule="evenodd" transform="matrix(-.9 .4 -.4 -.9 654.3 314.7)" stroke="#000" stroke-width=".625" fill="gold"/><path stroke-linejoin="round" d="M342.97 258.16c-1.528 11.683-.62 47.577 3.037 46.14 4.05 1.306 4.583-35.162 4.212-45.945-.053-1.194-7.037-1.938-7.25-.195z" stroke-opacity=".149" fill-rule="evenodd" transform="matrix(-.7 .7 -.7 -.7 648.8 173.6)" stroke="#000" stroke-width=".625" fill="gold"/><path stroke-linejoin="round" d="M342.97 258.16c-1.528 11.683-.62 47.577 3.037 46.14 4.05 1.306 4.583-35.162 4.212-45.945-.053-1.194-7.037-1.938-7.25-.195z" stroke-opacity=".149" fill-rule="evenodd" transform="matrix(-.4 .9 -.9 -.4 586.8 35.6)" stroke="#000" stroke-width=".625" fill="gold"/><path stroke-linejoin="round" d="M342.97 258.16c-1.528 11.683-.62 47.577 3.037 46.14 4.05 1.306 4.583-35.162 4.212-45.945-.053-1.194-7.037-1.938-7.25-.195z" stroke-opacity=".387" fill-rule="evenodd" transform="matrix(-1 0 0 -.9 596.1 462.7)" stroke="#000" stroke-width=".625" fill="gold"/><path stroke-linejoin="round" d="M343.17 258.06c-3.977 10.41.38 15.358-1.567 20.964-1.874 5.398-10.025 18.776-3.82 24.59 4.93.227-.853-7.377 9.01-21.456 4.576-6.595-1.195-10.77 3.626-23.707.448-1.106-6.623-2.03-7.25-.39z" stroke-opacity=".387" fill-rule="evenodd" transform="matrix(0 .9 1 0 44.4 -79.7)" stroke="#000" stroke-width=".625" fill="gold"/><path stroke-linejoin="round" d="M343.17 258.06c-3.977 10.41.38 15.358-1.567 20.964-1.874 5.398-10.025 18.776-3.82 24.59 4.93.227-.853-7.377 9.01-21.456 4.576-6.595-1.195-10.77 3.626-23.707.448-1.106-6.623-2.03-7.25-.39z" stroke-opacity=".387" fill-rule="evenodd" transform="matrix(-.7 -.7 .7 -.7 347 639.8)" stroke="#000" stroke-width=".625" fill="gold"/><path stroke-linejoin="round" d="M343.17 258.06c-3.977 10.41.38 15.358-1.567 20.964-1.874 5.398-10.025 18.776-3.82 24.59 4.93.227-.853-7.377 9.01-21.456 4.576-6.595-1.195-10.77 3.626-23.707.448-1.106-6.623-2.03-7.25-.39z" stroke-opacity=".387" fill-rule="evenodd" transform="matrix(.7 .7 .7 -.7 -137.8 169.5)" stroke="#000" stroke-width=".625" fill="gold"/><path stroke-linejoin="round" d="M343.17 258.06c-3.977 10.41.38 15.358-1.567 20.964-1.874 5.398-10.025 18.776-3.82 24.59 4.93.227-.853-7.377 9.01-21.456 4.576-6.595-1.195-10.77 3.626-23.707.448-1.106-6.623-2.03-7.25-.39z" stroke-opacity=".387" fill-rule="evenodd" transform="matrix(-1 0 0 -.9 602.8 465.1)" stroke="#000" stroke-width=".625" fill="gold"/><path stroke-linejoin="round" d="M342.97 258.16c-1.528 11.683-.62 47.577 3.037 46.14 4.05 1.306 4.583-35.162 4.212-45.945-.053-1.194-7.037-1.938-7.25-.195z" stroke-opacity=".387" fill-rule="evenodd" transform="matrix(-.4 -.9 .9 -.4 197.3 638.9)" stroke="#000" stroke-width=".625" fill="gold"/><path stroke-linejoin="round" d="M342.97 258.16c-1.528 11.683-.62 47.577 3.037 46.14 4.05 1.306 4.583-35.162 4.212-45.945-.053-1.194-7.037-1.938-7.25-.195z" stroke-opacity=".387" fill-rule="evenodd" transform="matrix(-.7 -.7 .7 -.7 343 633.6)" stroke="#000" stroke-width=".625" fill="gold"/><path stroke-linejoin="round" d="M342.97 258.16c-1.528 11.683-.62 47.577 3.037 46.14 4.05 1.306 4.583-35.162 4.212-45.945-.053-1.194-7.037-1.938-7.25-.195z" stroke-opacity=".387" fill-rule="evenodd" transform="matrix(-.9 -.4 .4 -.9 485.3 573.5)" stroke="#000" stroke-width=".625" fill="gold"/><path stroke-linejoin="round" d="M343.17 258.06c-3.977 10.41.38 15.358-1.567 20.964-1.874 5.398-10.025 18.776-3.82 24.59 4.93.227-.853-7.377 9.01-21.456 4.576-6.595-1.195-10.77 3.626-23.707.448-1.106-6.623-2.03-7.25-.39z" stroke-opacity=".149" fill-rule="evenodd" transform="matrix(-.7 -.7 .7 -.7 347 639.8)" stroke="#000" stroke-width=".625" fill="gold"/><path stroke-linejoin="round" d="M343.17 258.06c-3.977 10.41.38 15.358-1.567 20.964-1.874 5.398-10.025 18.776-3.82 24.59 4.93.227-.853-7.377 9.01-21.456 4.576-6.595-1.195-10.77 3.626-23.707.448-1.106-6.623-2.03-7.25-.39z" stroke-opacity=".149" fill-rule="evenodd" transform="matrix(.7 .7 .7 -.7 -137.8 169.5)" stroke="#000" stroke-width=".625" fill="gold"/><path stroke-linejoin="round" d="M343.17 258.06c-3.977 10.41.38 15.358-1.567 20.964-1.874 5.398-10.025 18.776-3.82 24.59 4.93.227-.853-7.377 9.01-21.456 4.576-6.595-1.195-10.77 3.626-23.707.448-1.106-6.623-2.03-7.25-.39z" stroke-opacity=".149" fill-rule="evenodd" transform="matrix(-1 0 0 -.9 602.8 465.1)" stroke="#000" stroke-width=".625" fill="gold"/><path stroke-linejoin="round" d="M342.97 258.16c-1.528 11.683-.62 47.577 3.037 46.14 4.05 1.306 4.583-35.162 4.212-45.945-.053-1.194-7.037-1.938-7.25-.195z" stroke-opacity=".149" fill-rule="evenodd" transform="matrix(-.4 -.9 .9 -.4 197.3 638.9)" stroke="#000" stroke-width=".625" fill="gold"/><path stroke-linejoin="round" d="M342.97 258.16c-1.528 11.683-.62 47.577 3.037 46.14 4.05 1.306 4.583-35.162 4.212-45.945-.053-1.194-7.037-1.938-7.25-.195z" stroke-opacity=".149" fill-rule="evenodd" transform="matrix(-.7 -.7 .7 -.7 343 633.6)" stroke="#000" stroke-width=".625" fill="gold"/><path stroke-linejoin="round" d="M342.97 258.16c-1.528 11.683-.62 47.577 3.037 46.14 4.05 1.306 4.583-35.162 4.212-45.945-.053-1.194-7.037-1.938-7.25-.195z" stroke-opacity=".149" fill-rule="evenodd" transform="matrix(-.9 -.4 .4 -.9 485.3 573.5)" stroke="#000" stroke-width=".625" fill="gold"/><path d="M328.14 202.55h-3.15" stroke-opacity=".171" transform="matrix(1 0 0 .9 -86.7 48.4)" stroke="#000" stroke-width="1pt" fill="none"/><path d="M328.14 202.55h-3.15" stroke-opacity=".171" transform="matrix(1 0 0 .9 -87.5 50.3)" stroke="#000" stroke-width="1pt" fill="none"/><path d="M328.14 202.55h-3.15" stroke-opacity=".171" transform="matrix(1.1 0 0 .9 -122.1 52.1)" stroke="#000" stroke-width="1pt" fill="none"/><path d="M328.14 202.55h-3.15" stroke-opacity=".171" transform="matrix(1.1 0 0 .9 -123.1 53.8)" stroke="#000" stroke-width="1pt" fill="none"/><path d="M328.14 202.55h-3.15" stroke-opacity=".171" transform="matrix(1.3 0 0 .9 -191.8 55.6)" stroke="#000" stroke-width="1pt" fill="none"/><path d="M328.14 202.55h-3.15" stroke-opacity=".171" transform="matrix(1.4 0 0 .9 -237.4 57.4)" stroke="#000" stroke-width="1pt" fill="none"/><path d="M328.14 202.55h-3.15" stroke-opacity=".171" transform="matrix(1.4 0 0 .9 -215.2 59.4)" stroke="#000" stroke-width="1pt" fill="none"/><path d="M328.14 202.55h-3.15" stroke-opacity=".171" transform="matrix(1.3 0 0 .9 -203.6 61.5)" stroke="#000" stroke-width="1pt" fill="none"/><path d="M328.14 202.55h-3.15" stroke-opacity=".171" transform="matrix(1.4 0 0 .9 -215 63.4)" stroke="#000" stroke-width="1pt" fill="none"/><path d="M328.14 202.55h-3.15" stroke-opacity=".171" transform="matrix(1.7 0 0 .9 -328.2 65.6)" stroke="#000" stroke-width="1pt" fill="none"/><path d="M328.14 202.55h-3.15" stroke-opacity=".171" transform="matrix(1.5 0 0 .9 -248.6 68.1)" stroke="#000" stroke-width="1pt" fill="none"/><path d="M328.14 202.55h-3.15" stroke-opacity=".078" transform="matrix(1.5 0 0 .9 -248.5 70)" stroke="#000" stroke-width="1pt" fill="none"/><path d="M328.14 202.55h-3.15" stroke-opacity=".078" transform="matrix(1.5 0 0 .9 -247.7 72.4)" stroke="#000" stroke-width="1pt" fill="none"/><path d="M328.14 202.55h-3.15" stroke-opacity=".078" transform="matrix(1.5 0 0 .9 -247.6 74.5)" stroke="#000" stroke-width="1pt" fill="none"/><path d="M328.14 202.55h-3.15" stroke-opacity=".078" transform="matrix(1.5 0 0 .9 -246.3 76.9)" stroke="#000" stroke-width="1pt" fill="none"/><path d="M328.14 202.55h-3.15" stroke-opacity=".078" transform="matrix(1.5 0 0 .9 -245 78.8)" stroke="#000" stroke-width="1pt" fill="none"/><path d="M328.14 202.55h-3.15" stroke-opacity=".078" transform="matrix(1.5 0 0 .9 -243.8 81)" stroke="#000" stroke-width="1pt" fill="none"/><path d="M328.14 202.55h-3.15" stroke-opacity=".078" transform="matrix(1.5 0 0 .9 -242.4 83.1)" stroke="#000" stroke-width="1pt" fill="none"/><path d="M328.14 202.55h-3.15" stroke-opacity=".078" transform="matrix(1.5 0 0 .9 -241.4 85.2)" stroke="#000" stroke-width="1pt" fill="none"/><path d="M328.14 202.55h-3.15" stroke-opacity=".078" transform="matrix(1.5 0 0 .9 -239.3 87.6)" stroke="#000" stroke-width="1pt" fill="none"/><path d="M328.14 202.55h-3.15" stroke-opacity=".078" transform="matrix(.9 0 0 .9 -67.1 89.8)" stroke="#000" stroke-width="1pt" fill="none"/><path d="M328.14 202.55h-3.15" stroke-opacity=".078" transform="matrix(1.5 0 0 .9 -248.5 70)" stroke="#000" stroke-width="1pt" fill="none"/><path d="M328.14 202.55h-3.15" stroke-opacity=".078" transform="matrix(1.5 0 0 .9 -247.7 72.4)" stroke="#000" stroke-width="1pt" fill="none"/><path d="M328.14 202.55h-3.15" stroke-opacity=".078" transform="matrix(1.5 0 0 .9 -247.6 74.5)" stroke="#000" stroke-width="1pt" fill="none"/><path d="M328.14 202.55h-3.15" stroke-opacity=".078" transform="matrix(1.5 0 0 .9 -246.3 76.9)" stroke="#000" stroke-width="1pt" fill="none"/><path d="M328.14 202.55h-3.15" stroke-opacity=".078" transform="matrix(1.5 0 0 .9 -245 78.8)" stroke="#000" stroke-width="1pt" fill="none"/><path d="M328.14 202.55h-3.15" stroke-opacity=".078" transform="matrix(1.5 0 0 .9 -243.8 81)" stroke="#000" stroke-width="1pt" fill="none"/><path d="M328.14 202.55h-3.15" stroke-opacity=".078" transform="matrix(1.5 0 0 .9 -242.4 83.1)" stroke="#000" stroke-width="1pt" fill="none"/><path d="M328.14 202.55h-3.15" stroke-opacity=".078" transform="matrix(1.5 0 0 .9 -241.4 85.2)" stroke="#000" stroke-width="1pt" fill="none"/><path d="M328.14 202.55h-3.15" stroke-opacity=".078" transform="matrix(1.5 0 0 .9 -239.3 87.6)" stroke="#000" stroke-width="1pt" fill="none"/><path d="M328.14 202.55h-3.15" stroke-opacity=".078" transform="matrix(.9 0 0 .9 -66.6 89.7)" stroke="#000" stroke-width="1pt" fill="none"/><path d="M328.14 202.55h-3.15" stroke-opacity=".134" fill-rule="evenodd" fill-opacity=".867" transform="matrix(-1 0 0 .9 603.9 47.9)" stroke="#000" stroke-width="1pt" fill="#00699d"/><path d="M328.14 202.55h-3.15" stroke-opacity=".134" fill-rule="evenodd" fill-opacity=".867" transform="matrix(-1 0 0 .9 604.7 49.8)" stroke="#000" stroke-width="1pt" fill="#00699d"/><path d="M328.14 202.55h-3.15" stroke-opacity=".134" fill-rule="evenodd" fill-opacity=".867" transform="matrix(-1.1 0 0 .9 639.3 51.6)" stroke="#000" stroke-width="1pt" fill="#00699d"/><path d="M328.14 202.55h-3.15" stroke-opacity=".134" fill-rule="evenodd" fill-opacity=".867" transform="matrix(-1.1 0 0 .9 640.2 53.3)" stroke="#000" stroke-width="1pt" fill="#00699d"/><path d="M328.14 202.55h-3.15" stroke-opacity=".134" fill-rule="evenodd" fill-opacity=".867" transform="matrix(-1.3 0 0 .9 709 55.1)" stroke="#000" stroke-width="1pt" fill="#00699d"/><path d="M328.14 202.55h-3.15" stroke-opacity=".134" fill-rule="evenodd" fill-opacity=".867" transform="matrix(-1.4 0 0 .9 754.6 56.9)" stroke="#000" stroke-width="1pt" fill="#00699d"/><path d="M328.14 202.55h-3.15" stroke-opacity=".134" fill-rule="evenodd" fill-opacity=".867" transform="matrix(-1.4 0 0 .9 732.4 58.9)" stroke="#000" stroke-width="1pt" fill="#00699d"/><path d="M328.14 202.55h-3.15" stroke-opacity=".134" fill-rule="evenodd" fill-opacity=".867" transform="matrix(-1.3 0 0 .9 720.8 61)" stroke="#000" stroke-width="1pt" fill="#00699d"/><path d="M328.14 202.55h-3.15" stroke-opacity=".134" fill-rule="evenodd" fill-opacity=".867" transform="matrix(-1.4 0 0 .9 732.2 62.9)" stroke="#000" stroke-width="1pt" fill="#00699d"/><path d="M328.14 202.55h-3.15" stroke-opacity=".134" fill-rule="evenodd" fill-opacity=".867" transform="matrix(-1.7 0 0 .9 845.3 65.1)" stroke="#000" stroke-width="1pt" fill="#00699d"/><path d="M328.14 202.55h-3.15" stroke-opacity=".134" fill-rule="evenodd" fill-opacity=".867" transform="matrix(-1.5 0 0 .9 765.8 67.7)" stroke="#000" stroke-width="1pt" fill="#00699d"/><path d="M328.14 202.55h-3.15" stroke-opacity=".063" fill-rule="evenodd" fill-opacity=".867" transform="matrix(-1.5 0 0 .9 765.7 69.5)" stroke="#000" stroke-width="1pt" fill="#00699d"/><path d="M328.14 202.55h-3.15" stroke-opacity=".063" fill-rule="evenodd" fill-opacity=".867" transform="matrix(-1.5 0 0 .9 764.9 71.9)" stroke="#000" stroke-width="1pt" fill="#00699d"/><path d="M328.14 202.55h-3.15" stroke-opacity=".063" fill-rule="evenodd" fill-opacity=".867" transform="matrix(-1.5 0 0 .9 764.8 74)" stroke="#000" stroke-width="1pt" fill="#00699d"/><path d="M328.14 202.55h-3.15" stroke-opacity=".063" fill-rule="evenodd" fill-opacity=".867" transform="matrix(-1.5 0 0 .9 763.5 76.4)" stroke="#000" stroke-width="1pt" fill="#00699d"/><path d="M328.14 202.55h-3.15" stroke-opacity=".063" fill-rule="evenodd" fill-opacity=".867" transform="matrix(-1.5 0 0 .9 762.2 78.3)" stroke="#000" stroke-width="1pt" fill="#00699d"/><path d="M328.14 202.55h-3.15" stroke-opacity=".063" fill-rule="evenodd" fill-opacity=".867" transform="matrix(-1.5 0 0 .9 761 80.5)" stroke="#000" stroke-width="1pt" fill="#00699d"/><path d="M328.14 202.55h-3.15" stroke-opacity=".063" fill-rule="evenodd" fill-opacity=".867" transform="matrix(-1.5 0 0 .9 759.5 82.7)" stroke="#000" stroke-width="1pt" fill="#00699d"/><path d="M328.14 202.55h-3.15" stroke-opacity=".063" fill-rule="evenodd" fill-opacity=".867" transform="matrix(-1.5 0 0 .9 758.6 84.7)" stroke="#000" stroke-width="1pt" fill="#00699d"/><path d="M328.14 202.55h-3.15" stroke-opacity=".063" fill-rule="evenodd" fill-opacity=".867" transform="matrix(-1.5 0 0 .9 756.5 87.1)" stroke="#000" stroke-width="1pt" fill="#00699d"/><path d="M328.14 202.55h-3.15" stroke-opacity=".063" fill-rule="evenodd" fill-opacity=".867" transform="matrix(-.9 0 0 .9 584.2 89.3)" stroke="#000" stroke-width="1pt" fill="#00699d"/><path d="M328.14 202.55h-3.15" stroke-opacity=".063" transform="matrix(-1.5 0 0 .9 765.7 69.5)" stroke="#000" stroke-width="1pt" fill="none"/><path d="M328.14 202.55h-3.15" stroke-opacity=".063" transform="matrix(-1.5 0 0 .9 764.9 71.9)" stroke="#000" stroke-width="1pt" fill="none"/><path d="M328.14 202.55h-3.15" stroke-opacity=".063" transform="matrix(-1.5 0 0 .9 764.8 74)" stroke="#000" stroke-width="1pt" fill="none"/><path d="M328.14 202.55h-3.15" stroke-opacity=".063" transform="matrix(-1.5 0 0 .9 763.5 76.4)" stroke="#000" stroke-width="1pt" fill="none"/><path d="M328.14 202.55h-3.15" stroke-opacity=".063" transform="matrix(-1.5 0 0 .9 762.2 78.3)" stroke="#000" stroke-width="1pt" fill="none"/><path d="M328.14 202.55h-3.15" stroke-opacity=".063" transform="matrix(-1.5 0 0 .9 761 80.5)" stroke="#000" stroke-width="1pt" fill="none"/><path d="M328.14 202.55h-3.15" stroke-opacity=".063" transform="matrix(-1.5 0 0 .9 759.5 82.7)" stroke="#000" stroke-width="1pt" fill="none"/><path d="M328.14 202.55h-3.15" stroke-opacity=".063" transform="matrix(-1.5 0 0 .9 758.6 84.7)" stroke="#000" stroke-width="1pt" fill="none"/><path d="M328.14 202.55h-3.15" stroke-opacity=".063" transform="matrix(-1.5 0 0 .9 756.5 87.1)" stroke="#000" stroke-width="1pt" fill="none"/><path d="M328.14 202.55h-3.15" stroke-opacity=".063" transform="matrix(-.9 0 0 .9 584.2 89.3)" stroke="#000" stroke-width="1pt" fill="none"/><path stroke-linejoin="round" d="M330.84 211.83c7.525-4.83 17.464-2.31 21.63.315-6.09-1.155-6.196-1.68-10.606-1.785-3.115.106-7.7-.21-11.024 1.47z" stroke-opacity=".387" fill-rule="evenodd" transform="matrix(-1 0 0 .9 604.3 47.4)" stroke="#000" stroke-width=".625" fill="#f0bf00"/><path d="M348.06 211.3c-3.675 7.665-10.08 7.77-14.594-.42" stroke-opacity=".387" transform="matrix(1 0 0 .9 -61.8 47.2)" stroke="#000" stroke-width=".625" fill="none"/><path d="M275.607 249.047c-1.097 1.113-3.782 1.774-5.997 1.477s-3.12-1.44-2.024-2.552c1.097-1.113 3.782-1.774 5.997-1.477s3.12 1.44 2.024 2.552z" fill-rule="evenodd" fill-opacity=".368"/><path d="M270.35 247.497c.108.27-.23.63-.757.802s-1.042.092-1.152-.178c-.108-.27.23-.63.757-.802s1.042-.093 1.152.177z" fill-rule="evenodd" fill="gold"/></svg>