<svg xmlns="http://www.w3.org/2000/svg" height="512" width="512"><g fill-rule="evenodd" stroke-width="1pt"><path fill="#00c4ff" d="M0-.01h512.003v171.125H0z"/><path fill="#fff" d="M0 170.413h512.003v171.124H0z"/><path fill="#00c4ff" d="M0 340.846h512.003V511.97H0z"/></g><path d="M382.49 221.33c0 14.564-11.864 26.37-26.5 26.37s-26.498-11.806-26.498-26.37 11.864-26.37 26.5-26.37 26.498 11.806 26.498 26.37z" stroke-opacity=".387" fill-rule="evenodd" transform="matrix(1.263 0 0 1.244 -190.849 -19.619)" stroke="#000" stroke-width=".625" fill="#ffd600"/><path d="M364.43 195.28c-4.34-1.05-8.785.422-10.185.318-1.925 0-6.79-1.68-10.185 0M338.71 200.49c4.305-3.01 9.115 1.086 10.394.315 3.492-2.294 6.736-1.868 10.08.21 2.155 1.272 5.914-3.71 10.29.315" stroke-opacity=".387" transform="matrix(.975 0 0 .945 -87.2 47.67)" stroke="#000" stroke-width=".5" fill="none"/><path d="M333.88 205.63c2.275-1.855 9.694-1.925 17.324 2.414 1.155-.28 1.89-1.084.945-2.204-5.74-1.995-12.425-4.515-18.585-2.625-1.68 1.19-1.26 1.96.315 2.415z" stroke-opacity=".387" fill-rule="evenodd" transform="matrix(.975 0 0 .945 -87.2 47.67)" stroke="#000" stroke-width=".5" fill="#efc000"/><path d="M333.88 205.63c2.275-1.855 9.694-1.925 17.324 2.414 1.155-.28 1.89-1.084.945-2.204-5.74-1.995-12.425-4.515-18.585-2.625-1.68 1.19-1.26 1.96.315 2.415z" stroke-opacity=".387" fill-rule="evenodd" transform="matrix(-.975 0 0 .945 603.583 47.67)" stroke="#000" stroke-width=".5" fill="#efc000"/><path stroke-linejoin="round" d="M330.84 211.83c7.525-4.83 17.464-2.31 21.63.315-6.09-1.155-6.196-1.68-10.606-1.785-3.115.106-7.7-.21-11.024 1.47z" stroke-opacity=".387" fill-rule="evenodd" transform="matrix(.975 0 0 .945 -87.2 47.67)" stroke="#000" stroke-width=".625" fill="#f0bf00"/><path d="M348.06 211.3c-3.675 7.665-10.08 7.77-14.594-.42" stroke-opacity=".387" transform="matrix(.975 0 0 .945 -87.2 47.67)" stroke="#000" stroke-width=".625" fill="none"/><path d="M249.96 249.486c-1.063 1.162-3.66 1.852-5.804 1.54s-3.02-1.503-1.958-2.664c1.063-1.162 3.66-1.852 5.805-1.54s3.02 1.503 1.957 2.664z" fill-rule="evenodd" fill-opacity=".368"/><path d="M244.962 247.757c.11.27-.23.63-.756.802s-1.042.092-1.152-.178c-.11-.27.23-.63.756-.802s1.043-.093 1.152.177z" fill-rule="evenodd" fill="gold"/><path d="M349.18 224.5c-4.24 7.127 1.537 2.1 2.475 4.164 1.65 1.913 3.3 1.462 4.276 0 .977-1.65 7.128 3.113 2.927-3.938" stroke-opacity=".387" transform="matrix(.975 0 0 .945 -87.2 47.67)" stroke="#000" stroke-width=".625" fill="none"/><path stroke-linejoin="round" d="M341.64 236.31c3.638-.413 9.753-3.188 11.93-.9 1.874-2.063 8.476.6 12.714.9-3.076 1.875-9.302.6-12.265 2.588-2.89-1.763-9.267-.15-12.38-2.588z" stroke-opacity=".387" transform="matrix(.975 0 0 .945 -87.2 47.67)" stroke="#000" stroke-linecap="round" stroke-width=".625" fill="none"/><path stroke-linejoin="round" d="M347.5 239.58c5.514 2.25 6.752 1.913 12.716.225-1.238 3.264-4.398 3.95-6.19 3.826-1.857-.12-4.388.114-6.526-4.05z" stroke-opacity=".387" transform="matrix(.975 0 0 .945 -87.2 47.67)" stroke="#000" stroke-width=".625" fill="none"/><path stroke-linejoin="round" d="M343.17 258.06c-3.977 10.41.38 15.358-1.567 20.964-1.874 5.398-10.025 18.776-3.82 24.59 4.93.227-.853-7.377 9.01-21.456 4.576-6.595-1.195-10.77 3.626-23.707.448-1.106-6.623-2.03-7.25-.39z" stroke-opacity=".387" fill-rule="evenodd" transform="matrix(.975 0 0 .945 -87.2 47.67)" stroke="#000" stroke-width=".625" fill="gold"/><path stroke-linejoin="round" d="M342.97 258.16c-1.528 11.683-.62 47.577 3.037 46.14 4.05 1.306 4.583-35.162 4.212-45.945-.053-1.194-7.037-1.938-7.25-.195z" stroke-opacity=".387" fill-rule="evenodd" transform="matrix(.975 0 0 .945 -78.793 48.318)" stroke="#000" stroke-width=".625" fill="gold"/><path stroke-linejoin="round" d="M343.17 258.06c-3.977 10.41.38 15.358-1.567 20.964-1.874 5.398-10.025 18.776-3.82 24.59 4.93.227-.853-7.377 9.01-21.456 4.576-6.595-1.195-10.77 3.626-23.707.448-1.106-6.623-2.03-7.25-.39z" stroke-opacity=".387" transform="matrix(-.698 -.66 -.681 .675 655.806 340.986)" stroke="#000" stroke-width=".625" fill="none"/><path stroke-linejoin="round" d="M224.667 273.51c-9.957 4.197-10.43 10.408-15.66 12.8-5.035 2.303-19.905 5.644-19.72 13.674 3.205 3.48 4.553-5.45 21.08-8.1 7.71-1.27 6.68-7.924 18.972-13.222 1.076-.43-3.104-5.812-4.673-5.152z" stroke-opacity=".387" stroke="#000" stroke-width=".6" fill="none"/><path stroke-linejoin="round" d="M343.17 258.06c-3.977 10.41.38 15.358-1.567 20.964-1.874 5.398-10.025 18.776-3.82 24.59 4.93.227-.853-7.377 9.01-21.456 4.576-6.595-1.195-10.77 3.626-23.707.448-1.106-6.623-2.03-7.25-.39z" stroke-opacity=".387" transform="matrix(-.006 -.945 -.975 .005 475.197 589.492)" stroke="#000" stroke-width=".625" fill="none"/><path stroke-linejoin="round" d="M342.97 258.16c-1.528 11.683-.62 47.577 3.037 46.14 4.05 1.306 4.583-35.162 4.212-45.945-.053-1.194-7.037-1.938-7.25-.195z" stroke-opacity=".387" transform="matrix(-.895 -.377 -.388 .867 654.865 195.936)" stroke="#000" stroke-width=".625" fill="none"/><path stroke-linejoin="round" d="M233.955 283.846c-6.93 8.875-32.112 32.43-33.668 29.04-3.702-1.807 20.87-26.704 28.504-33.715.854-.768 6.21 3.36 5.165 4.676z" stroke-opacity=".387" stroke="#000" stroke-width=".6" fill="none"/><path stroke-linejoin="round" d="M342.97 258.16c-1.528 11.683-.62 47.577 3.037 46.14 4.05 1.306 4.583-35.162 4.212-45.945-.053-1.194-7.037-1.938-7.25-.195z" stroke-opacity=".387" transform="matrix(-.382 -.87 -.897 .369 587.562 475.566)" stroke="#000" stroke-width=".625" fill="none"/><path d="M349.18 224.5c-4.24 7.127 1.537 2.1 2.475 4.164 1.65 1.913 3.3 1.462 4.276 0 .977-1.65 7.128 3.113 2.927-3.938" stroke-opacity=".082" transform="matrix(.975 0 0 .945 -87.2 47.67)" stroke="#000" stroke-width=".625" fill="none"/><path stroke-linejoin="round" d="M341.64 236.31c3.638-.413 9.753-3.188 11.93-.9 1.874-2.063 8.476.6 12.714.9-3.076 1.875-9.302.6-12.265 2.588-2.89-1.763-9.267-.15-12.38-2.588z" stroke-opacity=".082" fill-rule="evenodd" transform="matrix(.975 0 0 .945 -87.2 47.67)" stroke="#000" stroke-linecap="round" stroke-width=".625" fill="#f0bf00"/><path stroke-linejoin="round" d="M347.5 239.58c5.514 2.25 6.752 1.913 12.716.225-1.238 3.264-4.398 3.95-6.19 3.826-1.857-.12-4.388.114-6.526-4.05z" stroke-opacity=".082" fill-rule="evenodd" transform="matrix(.975 0 0 .945 -87.2 47.67)" stroke="#000" stroke-width=".625" fill="#f0bf00"/><path stroke-linejoin="round" d="M343.17 258.06c-3.977 10.41.38 15.358-1.567 20.964-1.874 5.398-10.025 18.776-3.82 24.59 4.93.227-.853-7.377 9.01-21.456 4.576-6.595-1.195-10.77 3.626-23.707.448-1.106-6.623-2.03-7.25-.39z" stroke-opacity=".149" fill-rule="evenodd" transform="matrix(-.698 -.66 -.681 .675 655.806 340.986)" stroke="#000" stroke-width=".625" fill="gold"/><path stroke-linejoin="round" d="M224.667 273.51c-9.957 4.197-10.43 10.408-15.66 12.8-5.035 2.303-19.905 5.644-19.72 13.674 3.205 3.48 4.553-5.45 21.08-8.1 7.71-1.27 6.68-7.924 18.972-13.222 1.076-.43-3.104-5.812-4.673-5.152z" stroke-opacity=".149" fill-rule="evenodd" stroke="#000" stroke-width=".6" fill="gold"/><path stroke-linejoin="round" d="M343.17 258.06c-3.977 10.41.38 15.358-1.567 20.964-1.874 5.398-10.025 18.776-3.82 24.59 4.93.227-.853-7.377 9.01-21.456 4.576-6.595-1.195-10.77 3.626-23.707.448-1.106-6.623-2.03-7.25-.39z" stroke-opacity=".149" fill-rule="evenodd" transform="matrix(-.006 -.945 -.975 .005 475.197 589.492)" stroke="#000" stroke-width=".625" fill="gold"/><path stroke-linejoin="round" d="M342.97 258.16c-1.528 11.683-.62 47.577 3.037 46.14 4.05 1.306 4.583-35.162 4.212-45.945-.053-1.194-7.037-1.938-7.25-.195z" stroke-opacity=".149" fill-rule="evenodd" transform="matrix(-.895 -.377 -.388 .867 654.865 195.936)" stroke="#000" stroke-width=".625" fill="gold"/><path stroke-linejoin="round" d="M233.955 283.846c-6.93 8.875-32.112 32.43-33.668 29.04-3.702-1.807 20.87-26.704 28.504-33.715.854-.768 6.21 3.36 5.165 4.676z" stroke-opacity=".149" fill-rule="evenodd" stroke="#000" stroke-width=".6" fill="gold"/><path stroke-linejoin="round" d="M342.97 258.16c-1.528 11.683-.62 47.577 3.037 46.14 4.05 1.306 4.583-35.162 4.212-45.945-.053-1.194-7.037-1.938-7.25-.195z" stroke-opacity=".149" fill-rule="evenodd" transform="matrix(-.382 -.87 -.897 .369 587.562 475.566)" stroke="#000" stroke-width=".625" fill="gold"/><path stroke-linejoin="round" d="M342.97 258.16c-1.528 11.683-.62 47.577 3.037 46.14 4.05 1.306 4.583-35.162 4.212-45.945-.053-1.194-7.037-1.938-7.25-.195z" stroke-opacity=".387" fill-rule="evenodd" transform="matrix(0 -.945 .975 0 44.88 582.95)" stroke="#000" stroke-width=".625" fill="gold"/><path stroke-linejoin="round" d="M343.17 258.06c-3.977 10.41.38 15.358-1.567 20.964-1.874 5.398-10.025 18.776-3.82 24.59 4.93.227-.853-7.377 9.01-21.456 4.576-6.595-1.195-10.77 3.626-23.707.448-1.106-6.623-2.03-7.25-.39z" stroke-opacity=".387" fill-rule="evenodd" transform="matrix(-.975 0 0 .945 604.884 48.158)" stroke="#000" stroke-width=".625" fill="gold"/><path stroke-linejoin="round" d="M343.17 258.06c-3.977 10.41.38 15.358-1.567 20.964-1.874 5.398-10.025 18.776-3.82 24.59 4.93.227-.853-7.377 9.01-21.456 4.576-6.595-1.195-10.77 3.626-23.707.448-1.106-6.623-2.03-7.25-.39z" stroke-opacity=".387" fill-rule="evenodd" transform="matrix(.698 -.66 .681 .675 -137.842 341.469)" stroke="#000" stroke-width=".625" fill="gold"/><path stroke-linejoin="round" d="M293.035 273.754c9.957 4.197 10.43 10.408 15.66 12.8 5.035 2.303 19.905 5.644 19.72 13.674-3.205 3.48-4.553-5.45-21.08-8.1-7.71-1.27-6.68-7.924-18.972-13.222-1.077-.43 3.103-5.812 4.672-5.152z" stroke-opacity=".387" fill-rule="evenodd" stroke="#000" stroke-width=".6" fill="gold"/><path stroke-linejoin="round" d="M343.17 258.06c-3.977 10.41.38 15.358-1.567 20.964-1.874 5.398-10.025 18.776-3.82 24.59 4.93.227-.853-7.377 9.01-21.456 4.576-6.595-1.195-10.77 3.626-23.707.448-1.106-6.623-2.03-7.25-.39z" stroke-opacity=".387" fill-rule="evenodd" transform="matrix(.006 -.945 .975 .005 42.489 589.492)" stroke="#000" stroke-width=".625" fill="gold"/><path stroke-linejoin="round" d="M342.97 258.16c-1.528 11.683-.62 47.577 3.037 46.14 4.05 1.306 4.583-35.162 4.212-45.945-.053-1.194-7.037-1.938-7.25-.195z" stroke-opacity=".387" fill-rule="evenodd" transform="matrix(.895 -.377 .388 .867 -136.95 196.432)" stroke="#000" stroke-width=".625" fill="gold"/><path stroke-linejoin="round" d="M283.078 283.846c6.93 8.875 32.112 32.43 33.668 29.04 3.702-1.807-20.87-26.704-28.504-33.715-.853-.768-6.21 3.36-5.164 4.676z" stroke-opacity=".387" fill-rule="evenodd" stroke="#000" stroke-width=".6" fill="gold"/><path stroke-linejoin="round" d="M342.97 258.16c-1.528 11.683-.62 47.577 3.037 46.14 4.05 1.306 4.583-35.162 4.212-45.945-.053-1.194-7.037-1.938-7.25-.195z" stroke-opacity=".387" fill-rule="evenodd" transform="matrix(.382 -.87 .897 .369 -69.456 475.566)" stroke="#000" stroke-width=".625" fill="gold"/><path stroke-linejoin="round" d="M343.17 258.06c-3.977 10.41.38 15.358-1.567 20.964-1.874 5.398-10.025 18.776-3.82 24.59 4.93.227-.853-7.377 9.01-21.456 4.576-6.595-1.195-10.77 3.626-23.707.448-1.106-6.623-2.03-7.25-.39z" stroke-opacity=".149" fill-rule="evenodd" transform="matrix(.698 -.66 .681 .675 -137.842 341.469)" stroke="#000" stroke-width=".625" fill="gold"/><path stroke-linejoin="round" d="M293.035 273.754c9.957 4.197 10.43 10.408 15.66 12.8 5.035 2.303 19.905 5.644 19.72 13.674-3.205 3.48-4.553-5.45-21.08-8.1-7.71-1.27-6.68-7.924-18.972-13.222-1.077-.43 3.103-5.812 4.672-5.152z" stroke-opacity=".149" fill-rule="evenodd" stroke="#000" stroke-width=".6" fill="gold"/><path stroke-linejoin="round" d="M343.17 258.06c-3.977 10.41.38 15.358-1.567 20.964-1.874 5.398-10.025 18.776-3.82 24.59 4.93.227-.853-7.377 9.01-21.456 4.576-6.595-1.195-10.77 3.626-23.707.448-1.106-6.623-2.03-7.25-.39z" stroke-opacity=".149" fill-rule="evenodd" transform="matrix(.006 -.945 .975 .005 42.489 589.492)" stroke="#000" stroke-width=".625" fill="gold"/><path stroke-linejoin="round" d="M342.97 258.16c-1.528 11.683-.62 47.577 3.037 46.14 4.05 1.306 4.583-35.162 4.212-45.945-.053-1.194-7.037-1.938-7.25-.195z" stroke-opacity=".149" fill-rule="evenodd" transform="matrix(.895 -.377 .388 .867 -136.95 196.432)" stroke="#000" stroke-width=".625" fill="gold"/><path stroke-linejoin="round" d="M283.078 283.846c6.93 8.875 32.112 32.43 33.668 29.04 3.702-1.807-20.87-26.704-28.504-33.715-.853-.768-6.21 3.36-5.164 4.676z" stroke-opacity=".149" fill-rule="evenodd" stroke="#000" stroke-width=".6" fill="gold"/><path stroke-linejoin="round" d="M342.97 258.16c-1.528 11.683-.62 47.577 3.037 46.14 4.05 1.306 4.583-35.162 4.212-45.945-.053-1.194-7.037-1.938-7.25-.195z" stroke-opacity=".149" fill-rule="evenodd" transform="matrix(.382 -.87 .897 .369 -69.456 475.566)" stroke="#000" stroke-width=".625" fill="gold"/><path stroke-linejoin="round" d="M342.97 258.16c-1.528 11.683-.62 47.577 3.037 46.14 4.05 1.306 4.583-35.162 4.212-45.945-.053-1.194-7.037-1.938-7.25-.195z" stroke-opacity=".387" fill-rule="evenodd" transform="matrix(0 .945 -.975 0 472.695 -71.707)" stroke="#000" stroke-width=".625" fill="gold"/><path stroke-linejoin="round" d="M343.17 258.06c-3.977 10.41.38 15.358-1.567 20.964-1.874 5.398-10.025 18.776-3.82 24.59 4.93.227-.853-7.377 9.01-21.456 4.576-6.595-1.195-10.77 3.626-23.707.448-1.106-6.623-2.03-7.25-.39z" stroke-opacity=".387" fill-rule="evenodd" transform="matrix(.975 0 0 -.945 -87.296 463.077)" stroke="#000" stroke-width=".625" fill="gold"/><path stroke-linejoin="round" d="M343.17 258.06c-3.977 10.41.38 15.358-1.567 20.964-1.874 5.398-10.025 18.776-3.82 24.59 4.93.227-.853-7.377 9.01-21.456 4.576-6.595-1.195-10.77 3.626-23.707.448-1.106-6.623-2.03-7.25-.39z" stroke-opacity=".387" fill-rule="evenodd" transform="matrix(-.698 .66 -.681 -.675 655.422 169.768)" stroke="#000" stroke-width=".625" fill="gold"/><path stroke-linejoin="round" d="M224.283 237.296c-9.957-4.197-10.43-10.408-15.66-12.8-5.035-2.303-19.905-5.644-19.72-13.674 3.205-3.48 4.553 5.45 21.08 8.1 7.71 1.27 6.68 7.924 18.972 13.222 1.077.43-3.103 5.812-4.672 5.152z" stroke-opacity=".387" fill-rule="evenodd" stroke="#000" stroke-width=".6" fill="gold"/><path stroke-linejoin="round" d="M343.17 258.06c-3.977 10.41.38 15.358-1.567 20.964-1.874 5.398-10.025 18.776-3.82 24.59 4.93.227-.853-7.377 9.01-21.456 4.576-6.595-1.195-10.77 3.626-23.707.448-1.106-6.623-2.03-7.25-.39z" stroke-opacity=".387" fill-rule="evenodd" transform="matrix(-.006 .945 -.975 -.005 475.098 -78.26)" stroke="#000" stroke-width=".625" fill="gold"/><path stroke-linejoin="round" d="M342.97 258.16c-1.528 11.683-.62 47.577 3.037 46.14 4.05 1.306 4.583-35.162 4.212-45.945-.053-1.194-7.037-1.938-7.25-.195z" stroke-opacity=".387" fill-rule="evenodd" transform="matrix(-.895 .377 -.388 -.867 654.53 314.818)" stroke="#000" stroke-width=".625" fill="gold"/><path stroke-linejoin="round" d="M234.24 227.2c-6.93-8.876-32.112-32.43-33.668-29.04-3.702 1.806 20.87 26.703 28.504 33.714.853.77 6.21-3.36 5.164-4.675z" stroke-opacity=".387" fill-rule="evenodd" stroke="#000" stroke-width=".6" fill="gold"/><path stroke-linejoin="round" d="M342.97 258.16c-1.528 11.683-.62 47.577 3.037 46.14 4.05 1.306 4.583-35.162 4.212-45.945-.053-1.194-7.037-1.938-7.25-.195z" stroke-opacity=".387" fill-rule="evenodd" transform="matrix(-.382 .87 -.897 -.369 587.042 35.666)" stroke="#000" stroke-width=".625" fill="gold"/><path stroke-linejoin="round" d="M343.17 258.06c-3.977 10.41.38 15.358-1.567 20.964-1.874 5.398-10.025 18.776-3.82 24.59 4.93.227-.853-7.377 9.01-21.456 4.576-6.595-1.195-10.77 3.626-23.707.448-1.106-6.623-2.03-7.25-.39z" stroke-opacity=".149" fill-rule="evenodd" transform="matrix(-.698 .66 -.681 -.675 655.422 169.768)" stroke="#000" stroke-width=".625" fill="gold"/><path stroke-linejoin="round" d="M224.283 237.296c-9.957-4.197-10.43-10.408-15.66-12.8-5.035-2.303-19.905-5.644-19.72-13.674 3.205-3.48 4.553 5.45 21.08 8.1 7.71 1.27 6.68 7.924 18.972 13.222 1.077.43-3.103 5.812-4.672 5.152z" stroke-opacity=".149" fill-rule="evenodd" stroke="#000" stroke-width=".6" fill="gold"/><path stroke-linejoin="round" d="M343.17 258.06c-3.977 10.41.38 15.358-1.567 20.964-1.874 5.398-10.025 18.776-3.82 24.59 4.93.227-.853-7.377 9.01-21.456 4.576-6.595-1.195-10.77 3.626-23.707.448-1.106-6.623-2.03-7.25-.39z" stroke-opacity=".149" fill-rule="evenodd" transform="matrix(-.006 .945 -.975 -.005 475.098 -78.26)" stroke="#000" stroke-width=".625" fill="gold"/><path stroke-linejoin="round" d="M342.97 258.16c-1.528 11.683-.62 47.577 3.037 46.14 4.05 1.306 4.583-35.162 4.212-45.945-.053-1.194-7.037-1.938-7.25-.195z" stroke-opacity=".149" fill-rule="evenodd" transform="matrix(-.895 .377 -.388 -.867 654.53 314.818)" stroke="#000" stroke-width=".625" fill="gold"/><path stroke-linejoin="round" d="M234.24 227.2c-6.93-8.876-32.112-32.43-33.668-29.04-3.702 1.806 20.87 26.703 28.504 33.714.853.77 6.21-3.36 5.164-4.675z" stroke-opacity=".149" fill-rule="evenodd" stroke="#000" stroke-width=".6" fill="gold"/><path stroke-linejoin="round" d="M342.97 258.16c-1.528 11.683-.62 47.577 3.037 46.14 4.05 1.306 4.583-35.162 4.212-45.945-.053-1.194-7.037-1.938-7.25-.195z" stroke-opacity=".149" fill-rule="evenodd" transform="matrix(-.382 .87 -.897 -.369 587.042 35.666)" stroke="#000" stroke-width=".625" fill="gold"/><path stroke-linejoin="round" d="M342.97 258.16c-1.528 11.683-.62 47.577 3.037 46.14 4.05 1.306 4.583-35.162 4.212-45.945-.053-1.194-7.037-1.938-7.25-.195z" stroke-opacity=".387" fill-rule="evenodd" transform="matrix(-.975 0 0 -.945 596.322 462.903)" stroke="#000" stroke-width=".625" fill="gold"/><path stroke-linejoin="round" d="M343.17 258.06c-3.977 10.41.38 15.358-1.567 20.964-1.874 5.398-10.025 18.776-3.82 24.59 4.93.227-.853-7.377 9.01-21.456 4.576-6.595-1.195-10.77 3.626-23.707.448-1.106-6.623-2.03-7.25-.39z" stroke-opacity=".387" fill-rule="evenodd" transform="matrix(0 .945 .975 0 44.459 -79.759)" stroke="#000" stroke-width=".625" fill="gold"/><path stroke-linejoin="round" d="M343.17 258.06c-3.977 10.41.38 15.358-1.567 20.964-1.874 5.398-10.025 18.776-3.82 24.59 4.93.227-.853-7.377 9.01-21.456 4.576-6.595-1.195-10.77 3.626-23.707.448-1.106-6.623-2.03-7.25-.39z" stroke-opacity=".387" fill-rule="evenodd" transform="matrix(-.681 -.675 .698 -.66 347.134 639.981)" stroke="#000" stroke-width=".625" fill="gold"/><path stroke-linejoin="round" d="M277 222.11c4.332-9.656 10.738-10.116 13.207-15.187 2.377-4.882 5.828-19.3 14.11-19.123 3.588 3.106-5.623 4.416-8.36 20.44-1.313 7.475-8.176 6.478-13.645 18.398-.442 1.044-5.994-3.007-5.312-4.528z" stroke-opacity=".387" fill-rule="evenodd" stroke="#000" stroke-width=".6" fill="gold"/><path stroke-linejoin="round" d="M343.17 258.06c-3.977 10.41.38 15.358-1.567 20.964-1.874 5.398-10.025 18.776-3.82 24.59 4.93.227-.853-7.377 9.01-21.456 4.576-6.595-1.195-10.77 3.626-23.707.448-1.106-6.623-2.03-7.25-.39z" stroke-opacity=".387" fill-rule="evenodd" transform="matrix(-.975 -.005 .006 -.945 603.075 465.233)" stroke="#000" stroke-width=".625" fill="gold"/><path stroke-linejoin="round" d="M342.97 258.16c-1.528 11.683-.62 47.577 3.037 46.14 4.05 1.306 4.583-35.162 4.212-45.945-.053-1.194-7.037-1.938-7.25-.195z" stroke-opacity=".387" fill-rule="evenodd" transform="matrix(-.388 -.867 .895 -.377 197.451 639.114)" stroke="#000" stroke-width=".625" fill="gold"/><path stroke-linejoin="round" d="M287.555 231.65c9.153-6.716 33.442-31.125 29.944-32.634-1.865-3.59-27.54 20.228-34.768 27.627-.793.827 3.467 6.02 4.823 5.008z" stroke-opacity=".387" fill-rule="evenodd" stroke="#000" stroke-width=".6" fill="gold"/><path stroke-linejoin="round" d="M342.97 258.16c-1.528 11.683-.62 47.577 3.037 46.14 4.05 1.306 4.583-35.162 4.212-45.945-.053-1.194-7.037-1.938-7.25-.195z" stroke-opacity=".387" fill-rule="evenodd" transform="matrix(-.897 -.369 .382 -.87 485.518 573.707)" stroke="#000" stroke-width=".625" fill="gold"/><path stroke-linejoin="round" d="M343.17 258.06c-3.977 10.41.38 15.358-1.567 20.964-1.874 5.398-10.025 18.776-3.82 24.59 4.93.227-.853-7.377 9.01-21.456 4.576-6.595-1.195-10.77 3.626-23.707.448-1.106-6.623-2.03-7.25-.39z" stroke-opacity=".149" fill-rule="evenodd" transform="matrix(-.681 -.675 .698 -.66 347.134 639.981)" stroke="#000" stroke-width=".625" fill="gold"/><path stroke-linejoin="round" d="M277 222.11c4.332-9.656 10.738-10.116 13.207-15.187 2.377-4.882 5.828-19.3 14.11-19.123 3.588 3.106-5.623 4.416-8.36 20.44-1.313 7.475-8.176 6.478-13.645 18.398-.442 1.044-5.994-3.007-5.312-4.528z" stroke-opacity=".149" fill-rule="evenodd" stroke="#000" stroke-width=".6" fill="gold"/><path stroke-linejoin="round" d="M343.17 258.06c-3.977 10.41.38 15.358-1.567 20.964-1.874 5.398-10.025 18.776-3.82 24.59 4.93.227-.853-7.377 9.01-21.456 4.576-6.595-1.195-10.77 3.626-23.707.448-1.106-6.623-2.03-7.25-.39z" stroke-opacity=".149" fill-rule="evenodd" transform="matrix(-.975 -.005 .006 -.945 603.075 465.233)" stroke="#000" stroke-width=".625" fill="gold"/><path stroke-linejoin="round" d="M342.97 258.16c-1.528 11.683-.62 47.577 3.037 46.14 4.05 1.306 4.583-35.162 4.212-45.945-.053-1.194-7.037-1.938-7.25-.195z" stroke-opacity=".149" fill-rule="evenodd" transform="matrix(-.388 -.867 .895 -.377 197.451 639.114)" stroke="#000" stroke-width=".625" fill="gold"/><path stroke-linejoin="round" d="M287.555 231.65c9.153-6.716 33.442-31.125 29.944-32.634-1.865-3.59-27.54 20.228-34.768 27.627-.793.827 3.467 6.02 4.823 5.008z" stroke-opacity=".149" fill-rule="evenodd" stroke="#000" stroke-width=".6" fill="gold"/><path stroke-linejoin="round" d="M342.97 258.16c-1.528 11.683-.62 47.577 3.037 46.14 4.05 1.306 4.583-35.162 4.212-45.945-.053-1.194-7.037-1.938-7.25-.195z" stroke-opacity=".149" fill-rule="evenodd" transform="matrix(-.897 -.369 .382 -.87 485.518 573.707)" stroke="#000" stroke-width=".625" fill="gold"/><path d="M328.14 202.55h-3.15" stroke-opacity=".171" transform="matrix(.975 0 0 .945 -86.695 48.403)" stroke="#000" stroke-width="1pt" fill="none"/><path d="M328.14 202.55h-3.15" stroke-opacity=".171" transform="matrix(.975 0 0 .945 -87.463 50.316)" stroke="#000" stroke-width="1pt" fill="none"/><path d="M328.14 202.55h-3.15" stroke-opacity=".171" transform="matrix(1.079 0 0 .945 -122.077 52.124)" stroke="#000" stroke-width="1pt" fill="none"/><path d="M328.14 202.55h-3.15" stroke-opacity=".171" transform="matrix(1.079 0 0 .945 -123.061 53.826)" stroke="#000" stroke-width="1pt" fill="none"/><path d="M328.14 202.55h-3.15" stroke-opacity=".171" transform="matrix(1.289 0 0 .945 -191.848 55.634)" stroke="#000" stroke-width="1pt" fill="none"/><path d="M328.14 202.55h-3.15" stroke-opacity=".171" transform="matrix(1.427 0 0 .945 -237.446 57.442)" stroke="#000" stroke-width="1pt" fill="none"/><path d="M328.14 202.55h-3.15" stroke-opacity=".171" transform="matrix(1.358 0 0 .945 -215.248 59.461)" stroke="#000" stroke-width="1pt" fill="none"/><path d="M328.14 202.55h-3.15" stroke-opacity=".171" transform="matrix(1.323 0 0 .945 -203.6 61.482)" stroke="#000" stroke-width="1pt" fill="none"/><path d="M328.14 202.55h-3.15" stroke-opacity=".171" transform="matrix(1.358 0 0 .945 -215.028 63.396)" stroke="#000" stroke-width="1pt" fill="none"/><path d="M328.14 202.55h-3.15" stroke-opacity=".171" transform="matrix(1.706 0 0 .945 -328.207 65.629)" stroke="#000" stroke-width="1pt" fill="none"/><path d="M328.14 202.55h-3.15" stroke-opacity=".171" transform="matrix(1.463 0 0 .945 -248.65 68.181)" stroke="#000" stroke-width="1pt" fill="none"/><path d="M328.14 202.55h-3.15" stroke-opacity=".078" transform="matrix(1.463 0 0 .945 -248.54 69.989)" stroke="#000" stroke-width="1pt" fill="none"/><path d="M328.14 202.55h-3.15" stroke-opacity=".078" transform="matrix(1.463 0 0 .945 -247.771 72.435)" stroke="#000" stroke-width="1pt" fill="none"/><path d="M328.14 202.55h-3.15" stroke-opacity=".078" transform="matrix(1.463 0 0 .945 -247.662 74.562)" stroke="#000" stroke-width="1pt" fill="none"/><path d="M328.14 202.55h-3.15" stroke-opacity=".078" transform="matrix(1.463 0 0 .945 -246.345 76.902)" stroke="#000" stroke-width="1pt" fill="none"/><path d="M328.14 202.55h-3.15" stroke-opacity=".078" transform="matrix(1.463 0 0 .945 -245.028 78.816)" stroke="#000" stroke-width="1pt" fill="none"/><path d="M328.14 202.55h-3.15" stroke-opacity=".078" transform="matrix(1.463 0 0 .945 -243.822 81.048)" stroke="#000" stroke-width="1pt" fill="none"/><path d="M328.14 202.55h-3.15" stroke-opacity=".078" transform="matrix(1.463 0 0 .945 -242.394 83.175)" stroke="#000" stroke-width="1pt" fill="none"/><path d="M328.14 202.55h-3.15" stroke-opacity=".078" transform="matrix(1.463 0 0 .945 -241.407 85.194)" stroke="#000" stroke-width="1pt" fill="none"/><path d="M328.14 202.55h-3.15" stroke-opacity=".078" transform="matrix(1.463 0 0 .945 -239.323 87.647)" stroke="#000" stroke-width="1pt" fill="none"/><path d="M328.14 202.55h-3.15" stroke-opacity=".078" transform="matrix(.94 0 0 .945 -67.029 89.878)" stroke="#000" stroke-width="1pt" fill="none"/><path d="M328.14 202.55h-3.15" stroke-opacity=".078" transform="matrix(1.463 0 0 .945 -248.54 69.989)" stroke="#000" stroke-width="1pt" fill="none"/><path d="M328.14 202.55h-3.15" stroke-opacity=".078" transform="matrix(1.463 0 0 .945 -247.771 72.435)" stroke="#000" stroke-width="1pt" fill="none"/><path d="M328.14 202.55h-3.15" stroke-opacity=".078" transform="matrix(1.463 0 0 .945 -247.662 74.562)" stroke="#000" stroke-width="1pt" fill="none"/><path d="M328.14 202.55h-3.15" stroke-opacity=".078" transform="matrix(1.463 0 0 .945 -246.345 76.902)" stroke="#000" stroke-width="1pt" fill="none"/><path d="M328.14 202.55h-3.15" stroke-opacity=".078" transform="matrix(1.463 0 0 .945 -245.028 78.816)" stroke="#000" stroke-width="1pt" fill="none"/><path d="M328.14 202.55h-3.15" stroke-opacity=".078" transform="matrix(1.463 0 0 .945 -243.822 81.048)" stroke="#000" stroke-width="1pt" fill="none"/><path d="M328.14 202.55h-3.15" stroke-opacity=".078" transform="matrix(1.463 0 0 .945 -242.394 83.175)" stroke="#000" stroke-width="1pt" fill="none"/><path d="M328.14 202.55h-3.15" stroke-opacity=".078" transform="matrix(1.463 0 0 .945 -241.407 85.194)" stroke="#000" stroke-width="1pt" fill="none"/><path d="M328.14 202.55h-3.15" stroke-opacity=".078" transform="matrix(1.463 0 0 .945 -239.323 87.647)" stroke="#000" stroke-width="1pt" fill="none"/><path d="M328.14 202.55h-3.15" stroke-opacity=".078" transform="matrix(.94 0 0 .945 -66.552 89.692)" stroke="#000" stroke-width="1pt" fill="none"/><path d="M328.14 202.55h-3.15" stroke-opacity=".134" fill-rule="evenodd" fill-opacity=".867" transform="matrix(-.975 0 0 .945 604.14 47.914)" stroke="#000" stroke-width="1pt" fill="#00699d"/><path d="M328.14 202.55h-3.15" stroke-opacity=".134" fill-rule="evenodd" fill-opacity=".867" transform="matrix(-.975 0 0 .945 604.908 49.828)" stroke="#000" stroke-width="1pt" fill="#00699d"/><path d="M328.14 202.55h-3.15" stroke-opacity=".134" fill-rule="evenodd" fill-opacity=".867" transform="matrix(-1.079 0 0 .945 639.514 51.636)" stroke="#000" stroke-width="1pt" fill="#00699d"/><path d="M328.14 202.55h-3.15" stroke-opacity=".134" fill-rule="evenodd" fill-opacity=".867" transform="matrix(-1.079 0 0 .945 640.505 53.337)" stroke="#000" stroke-width="1pt" fill="#00699d"/><path d="M328.14 202.55h-3.15" stroke-opacity=".134" fill-rule="evenodd" fill-opacity=".867" transform="matrix(-1.289 0 0 .945 709.294 55.145)" stroke="#000" stroke-width="1pt" fill="#00699d"/><path d="M328.14 202.55h-3.15" stroke-opacity=".134" fill-rule="evenodd" fill-opacity=".867" transform="matrix(-1.427 0 0 .945 754.889 56.952)" stroke="#000" stroke-width="1pt" fill="#00699d"/><path d="M328.14 202.55h-3.15" stroke-opacity=".134" fill-rule="evenodd" fill-opacity=".867" transform="matrix(-1.358 0 0 .945 732.686 58.973)" stroke="#000" stroke-width="1pt" fill="#00699d"/><path d="M328.14 202.55h-3.15" stroke-opacity=".134" fill-rule="evenodd" fill-opacity=".867" transform="matrix(-1.323 0 0 .945 721.04 60.994)" stroke="#000" stroke-width="1pt" fill="#00699d"/><path d="M328.14 202.55h-3.15" stroke-opacity=".134" fill-rule="evenodd" fill-opacity=".867" transform="matrix(-1.358 0 0 .945 732.476 62.908)" stroke="#000" stroke-width="1pt" fill="#00699d"/><path d="M328.14 202.55h-3.15" stroke-opacity=".134" fill-rule="evenodd" fill-opacity=".867" transform="matrix(-1.706 0 0 .945 845.646 65.141)" stroke="#000" stroke-width="1pt" fill="#00699d"/><path d="M328.14 202.55h-3.15" stroke-opacity=".134" fill-rule="evenodd" fill-opacity=".867" transform="matrix(-1.463 0 0 .945 766.09 67.693)" stroke="#000" stroke-width="1pt" fill="#00699d"/><path d="M328.14 202.55h-3.15" stroke-opacity=".063" fill-rule="evenodd" fill-opacity=".867" transform="matrix(-1.463 0 0 .945 765.978 69.501)" stroke="#000" stroke-width="1pt" fill="#00699d"/><path d="M328.14 202.55h-3.15" stroke-opacity=".063" fill-rule="evenodd" fill-opacity=".867" transform="matrix(-1.463 0 0 .945 765.21 71.947)" stroke="#000" stroke-width="1pt" fill="#00699d"/><path d="M328.14 202.55h-3.15" stroke-opacity=".063" fill-rule="evenodd" fill-opacity=".867" transform="matrix(-1.463 0 0 .945 765.099 74.073)" stroke="#000" stroke-width="1pt" fill="#00699d"/><path d="M328.14 202.55h-3.15" stroke-opacity=".063" fill-rule="evenodd" fill-opacity=".867" transform="matrix(-1.463 0 0 .945 763.785 76.413)" stroke="#000" stroke-width="1pt" fill="#00699d"/><path d="M328.14 202.55h-3.15" stroke-opacity=".063" fill-rule="evenodd" fill-opacity=".867" transform="matrix(-1.463 0 0 .945 762.472 78.328)" stroke="#000" stroke-width="1pt" fill="#00699d"/><path d="M328.14 202.55h-3.15" stroke-opacity=".063" fill-rule="evenodd" fill-opacity=".867" transform="matrix(-1.463 0 0 .945 761.258 80.56)" stroke="#000" stroke-width="1pt" fill="#00699d"/><path d="M328.14 202.55h-3.15" stroke-opacity=".063" fill-rule="evenodd" fill-opacity=".867" transform="matrix(-1.463 0 0 .945 759.833 82.691)" stroke="#000" stroke-width="1pt" fill="#00699d"/><path d="M328.14 202.55h-3.15" stroke-opacity=".063" fill-rule="evenodd" fill-opacity=".867" transform="matrix(-1.463 0 0 .945 758.854 84.711)" stroke="#000" stroke-width="1pt" fill="#00699d"/><path d="M328.14 202.55h-3.15" stroke-opacity=".063" fill-rule="evenodd" fill-opacity=".867" transform="matrix(-1.463 0 0 .945 756.76 87.152)" stroke="#000" stroke-width="1pt" fill="#00699d"/><path d="M328.14 202.55h-3.15" stroke-opacity=".063" fill-rule="evenodd" fill-opacity=".867" transform="matrix(-.94 0 0 .945 584.465 89.382)" stroke="#000" stroke-width="1pt" fill="#00699d"/><path d="M328.14 202.55h-3.15" stroke-opacity=".063" transform="matrix(-1.463 0 0 .945 765.978 69.501)" stroke="#000" stroke-width="1pt" fill="none"/><path d="M328.14 202.55h-3.15" stroke-opacity=".063" transform="matrix(-1.463 0 0 .945 765.21 71.947)" stroke="#000" stroke-width="1pt" fill="none"/><path d="M328.14 202.55h-3.15" stroke-opacity=".063" transform="matrix(-1.463 0 0 .945 765.099 74.073)" stroke="#000" stroke-width="1pt" fill="none"/><path d="M328.14 202.55h-3.15" stroke-opacity=".063" transform="matrix(-1.463 0 0 .945 763.785 76.413)" stroke="#000" stroke-width="1pt" fill="none"/><path d="M328.14 202.55h-3.15" stroke-opacity=".063" transform="matrix(-1.463 0 0 .945 762.472 78.328)" stroke="#000" stroke-width="1pt" fill="none"/><path d="M328.14 202.55h-3.15" stroke-opacity=".063" transform="matrix(-1.463 0 0 .945 761.258 80.56)" stroke="#000" stroke-width="1pt" fill="none"/><path d="M328.14 202.55h-3.15" stroke-opacity=".063" transform="matrix(-1.463 0 0 .945 759.833 82.691)" stroke="#000" stroke-width="1pt" fill="none"/><path d="M328.14 202.55h-3.15" stroke-opacity=".063" transform="matrix(-1.463 0 0 .945 758.854 84.711)" stroke="#000" stroke-width="1pt" fill="none"/><path d="M328.14 202.55h-3.15" stroke-opacity=".063" transform="matrix(-1.463 0 0 .945 756.76 87.152)" stroke="#000" stroke-width="1pt" fill="none"/><path d="M328.14 202.55h-3.15" stroke-opacity=".063" transform="matrix(-.94 0 0 .945 584.465 89.382)" stroke="#000" stroke-width="1pt" fill="none"/><path stroke-linejoin="round" d="M330.84 211.83c7.525-4.83 17.464-2.31 21.63.315-6.09-1.155-6.196-1.68-10.606-1.785-3.115.106-7.7-.21-11.024 1.47z" stroke-opacity=".387" fill-rule="evenodd" transform="matrix(-.975 0 0 .945 604.586 47.426)" stroke="#000" stroke-width=".625" fill="#f0bf00"/><path d="M348.06 211.3c-3.675 7.665-10.08 7.77-14.594-.42" stroke-opacity=".387" transform="matrix(.975 0 0 .945 -61.737 47.182)" stroke="#000" stroke-width=".625" fill="none"/><path d="M275.39 248.936c-1.096 1.112-3.78 1.774-5.995 1.478s-3.12-1.44-2.022-2.55c1.097-1.114 3.782-1.775 5.996-1.48s3.12 1.44 2.02 2.552z" fill-rule="evenodd" fill-opacity=".368"/><path d="M270.42 247.274c.11.27-.228.63-.755.802s-1.042.093-1.152-.177c-.11-.272.23-.63.756-.803s1.042-.093 1.15.177z" fill-rule="evenodd" fill="gold"/></svg>