<svg xmlns="http://www.w3.org/2000/svg" height="512" viewBox="0 0 512 512" width="512" version="1"><defs><clipPath id="a"><path fill-opacity=".67" d="M0 0h512v512H0z"/></clipPath></defs><g fill-rule="evenodd" clip-path="url(#a)"><path fill="#009" d="M0 0h512v512H0z"/><path d="M77 .006l436.91 436.91V.006H77z" fill="#fc0"/><g fill="#fff"><path d="M39.867 35.49l9.32-28.68 9.32 28.68H88.66L64.265 53.215l9.32 28.68L49.187 64.17 24.79 81.896l9.32-28.68L9.71 35.49M94.51 90.1l9.32-28.686 9.32 28.686h30.163l-24.402 17.73 9.322 28.686-24.402-17.73-24.402 17.73 9.32-28.687-24.4-17.73M149.123 144.714l9.32-28.686 9.322 28.686h30.162l-24.402 17.73 9.32 28.686-24.4-17.73-24.403 17.73 9.32-28.687-24.4-17.73M203.736 199.327l9.32-28.686 9.322 28.687h30.162l-24.402 17.73 9.32 28.686-24.4-17.73-24.403 17.73 9.32-28.687-24.4-17.73M258.35 253.94l9.32-28.685 9.322 28.686h30.162l-24.402 17.73 9.32 28.687-24.4-17.73-24.403 17.73 9.32-28.687-24.402-17.73M312.964 308.555l9.32-28.686 9.322 28.685h30.162l-24.402 17.73 9.32 28.686-24.4-17.73-24.403 17.73 9.32-28.686-24.4-17.73M367.578 363.168l9.32-28.686 9.322 28.686h30.162l-24.402 17.73 9.32 28.686-24.4-17.73-24.403 17.73 9.32-28.687-24.4-17.73M422.19 417.782l9.322-28.686 9.32 28.686h30.163l-24.402 17.73 9.32 28.686-24.4-17.73-24.403 17.73 9.32-28.687-24.4-17.728M476.805 472.396l9.32-28.686 9.322 28.686h30.162l-24.403 17.73 9.32 28.686-24.4-17.73-24.403 17.73 9.32-28.687-24.4-17.73"/></g></g></svg>