<svg xmlns="http://www.w3.org/2000/svg" height="512" width="512"><defs><clipPath id="a"><path fill="gray" d="M6 0h512v512H6z"/></clipPath></defs><g fill-rule="evenodd" clip-path="url(#a)" transform="translate(-6)"><g stroke-width="1pt"><path d="M-214.886 35.35l.126 121.777L809.217 369.76v-120.9l-1024.1-213.51z" fill="#fff"/><path d="M-214.76 263.084v248.9H809.217V476.44L-214.76 263.082zM809.217 248.893V-.01H-214.76V35.54L809.217 248.894z" fill="#fdd114"/><path d="M-214.76 156.49v106.666L809.548 476.44l-.33-106.678L-214.76 156.49z"/></g><path stroke="#000" stroke-width="1.46828" fill="#cf1126" d="M267.336 211.455h8.966v23.933h-8.966z"/><path d="M415.12 645.68c-.24-33.566 1.125-65.845 3.766-75.002s6.556-11.06 11.416-15.608c-11.512-1.043-24.218 8.647-30.06 21.408-3.707-14.398-10.64-24.156-16.74-29.056-6.098 4.9-13.29 14.808-16.567 29.183-6.01-10.712-16.555-22.588-29.028-21.254 4.434 4.62 8.48 6.333 11.178 15.286s4.044 41.016 3.075 74.6" transform="matrix(.428 0 0 .489 107.45 -41.457)" stroke="#000" stroke-width="3.207" fill="#cf1126"/><path d="M414.44 641.96c-.24-33.565 1.37-62.22 3.677-71.327 2.31-9.106 5.993-10.806 11.258-14.746-11.512-1.043-22.48 1.756-28.902 17.355-3.592-14.5-10.64-21.623-16.74-26.523-6.098 4.9-13.29 12.273-16.567 26.648-7.053-15.474-16.903-18.94-29.376-17.606 5.186 4.316 9.262 5.927 11.8 14.855s2.86 37.315 1.89 70.9" transform="matrix(.467 0 0 .587 92.49 -61.408)" stroke="#000" stroke-width="2.804" fill="#cf1126"/><path d="M291.342 326.36c-.183-4.585.447-10.744 1.49-13.123 1.04-2.38 2.496-4.12 3.963-6.136-6.294-.907-12.694-.444-16.092 8.787-2.2-8.438-5.503-12.84-9.084-15.717-3.58 2.876-6.69 7.28-8.89 15.717-3.4-9.23-9.83-9.79-16.318-8.786 1.468 2.018 2.98 3.756 4.077 6.137 1.097 2.38 1.783 8.538 1.6 13.123M268.304 164.664v18.908h6.673v-18.908h-6.673z" stroke="#000" stroke-width="1.4674999999999998" fill="#cf1126"/><path opacity=".99" stroke-linejoin="bevel" d="M314.64 397.83c1.653 1.102 8.24 2.26 20.18.18 20.846-3.65 20.672-24.213 53.14-14.674-1.467-2.935-6.603-11.922-19.26-12.286 1.284-4.22 2.2-10.455-.184-14.31-2.446 5.44-6.232 7.97-8.978 9.75-.846-.46-5.753-4.468-6.285-10.508-.737-11.975-6.58-14.088-7.2-13.77-3.752-.107-26.34 35.6-74.71 35.835-47.657.23-71.507-35.52-74.2-35.836-.622-.316-6.465 1.797-7.203 13.772-.53 6.04-5.496 9.873-6.33 10.407-2.734-1.703-6.487-4.21-8.933-9.65-2.384 3.855-1.467 10.09-.183 14.31-12.657.364-17.794 9.35-19.26 12.286 32.468-9.54 32.533 11.024 53.38 14.675 11.94 2.08 18.13 1.104 19.78.007" stroke="#000" stroke-width="1.4674999999999998" fill="#cf1126"/><path opacity=".99" stroke-linejoin="bevel" d="M213.906 387.556c-11.308-.452-33.37-17.65-30.238-21.19.993-1.004 5.854.03 14.268 5.917 12.49 8.51 23.204 35.35 73.305 35.143 51.058-.205 61.536-26.632 74.022-35.143 8.414-5.888 13.664-6.827 14.257-5.677 3.004 3.393-19.078 20.55-30.387 21.003" stroke="#000" stroke-width="1.4674999999999998" fill="#cf1126"/><path d="M198.42 214.073c-44.676 47.07-20.643 155.18 72.213 156.74 93.357 1.047 120.588-108.16 74.203-156.945m-137.37 1.82c-23.768 40.02.942 110.146 64.5 110.146 64.082 0 87.568-70.634 64.03-110.386" stroke="#000" stroke-width="1.4674999999999998" fill="#cf1126"/><path d="M288.36 384.862c3.25.722 6.215 4.078 5.02 7.527-1.325 4.11-6.22 5.11-8.07 4.81-1.99-1.194-.797-2.918 5.306-3.582 3.98-1.46.355-4.15-2.653-5.44-1.635-.7-1.13-3.655.397-3.316zM278.28 383.802c1.51-1.72 2.74 3.55 3.075 7.204.44 3.567.486 7.967-.952 8.185-.877.148-.14-4.095-1.047-7.988-1.183-4.507-1.693-6.644-1.076-7.4z" stroke="#cf1126" stroke-width=".22" fill="#fdd114"/><path d="M274.81 390.302c3.794 3.677-2.633 14.328-16.694 9.685-.796-1.46 5.584-.016 10.08-.796 8.56-1.35 4.887-10.52 6.614-8.888z" stroke="#cb4f46" stroke-width=".22" fill="#fdd114"/><path d="M267.93 383.002c1.512-1.72.63 3.723.946 7.38.308 3.434-.076 7.615-1.706 7.074-.883-.426.564-4.284-.342-7.91-.97-4.56-.045-5.39 1.102-6.544zM258.28 381.542c2.683-.017 1.964.736 1.773 7.903-.21 8.032-6.993 8.93-8.605 6.727-1.355-1.73-.858-2.25-6.92-1.67-1.356-.683-1.304-2.136-5.733-1.764-1.145.21-1.107-1.96-3.173-3.26-3.602-2.15-4.8 1.588-11.67-2.37-.428-.24-3.215-2.005-2.706-5.496.53-4.41-3.492.54-7.913-1.386-.855-.382-3.446-1.46-5.732-3.466-3.226-2.775.153-3.336 4.513-.507 2.692 1.707 6.646-2.22 6.753-6.152.24-4.16-1.83-5.253 1.38-5.15 1.788.053 1.363 7.27-1.677 10.463-4.07 4.397-1.324 3.55.13 3.328 1.514-.378 8.406-8.918 9.555-8.185 1.79 1.216-5.373 6.676-3.77 11.844.767 2.303 5.037 4.51 8.552 4.867 4.133.688 4.145-4.924 5.82-3.86 2.318 1.52-4.43 4.384 2.655 6.473 1.565.47 2.47-3.516 3.395-3.343 2.223.363-1.453 4.654 2.522 5.336 2.77.46 2.01-4.007 3.73-3.735 1.987-.127.12 7.147 5.632 6.405 2.323-.304-1.31-12.985 1.488-13zM208.33 372.102c1.596-.34 4.33-1.823 4.445-4.217.228-2.62-3.42-3.533-7.75-2.85-2.28.343-6.153-1.14-8.433-3.077-2.28-2.85-2.28-6.04-5.014-4.672-2.05.91 2.85 6.154 5.242 7.408 2.394 1.254 6.27 1.14 6.496 2.963.228 1.824-.912 4.673 5.014 4.445zM305.31 384.332c-.88.426-1.594 8.39 3.38 8.562 6.246.223 9.387-2.945 10.952-4.07 2.6-1.976 7.283-5.924 5.115-9.328-1.085-1.236-1.684 2.274-2.935 4.328-1.702 3.012-7.53 6.586-11.992 6.1-5.467-.337-3.407-5.877-4.52-5.592z" stroke="#cf1126" stroke-width=".22" fill="#fdd114"/><path d="M318.15 380.642c-1.27-.96 2.826-2.534 3.25-4.02.425-1.488-1.81-2.89-.567-4.518 1.303-2.145 1.374 4.043 3.03 4.22 4.586.48 1.312 3.44-.418 2.87-1.958-.585-4.528 2.17-5.295 1.448zM314.6 371.272c-.295 2.066.96 2.582 1.33 1.402.44-2.214-.814-3.247-1.33-1.402z" stroke="#cf1126" stroke-width=".22" fill="#fdd114"/><path d="M317.92 369.132c-.738.058-.84 2.62.12 2.692 1.037.082.558 1.83 1.43 1.808 1.035-.027 1.114-2.934-.058-2.96-1.09-.028-.833-1.528-1.492-1.54zM326.22 368.642c-.877 1.11-2.542-4.277 3.06-5.048 2.663.235 4.934 4.62 4.7 8.85-.09 1.564-.157 5.09-1.018 6.814-.706 1.645-3.29 7.05-4.543 6.58-1.254-.47.327-2.734 2.427-5.875 1.698-2.572 2.35-9.712 1.488-10.965s-1.73 3.133-3.524 4.073c-1.493.784-3.053-1.48-3.288-2.577-.186-1.3.998-2.1 1.8-.555.64 1.16 2.607-1.143 2.56-2.79.053-2.66-1.712-.55-3.662 1.494zM338.29 356.622c-.705 1.02-3.132 3.29-3.602 4.23s-.55 2.584.234 4.15c.784 1.567 2.428 4.073 2.115 6.345-.314 2.27-1.88 6.97-1.018 6.58.86-.393 2.975-5.014 2.505-8.54-.47-3.523-2.115-5.48-1.802-6.656.313-1.173 2.27-3.366 2.663-4.854.392-1.49-.235-5.483-.783-5.796s-2.506.392-1.88 1.723c.627 1.332 1.958.548 1.567 2.82z" stroke="#cf1126" stroke-width=".22" fill="#fdd114"/><path d="M341.51 358.442c-.88.8-.442 5.164.767 3.606 1.1-1.518-.063-4.32-.767-3.606z" stroke="#cf1126" stroke-width=".207" fill="#fdd114"/><path d="M318.49 390.842c-.412 1.91 1.47 2.514 1.986 1.423.618-2.046-1.264-3.128-1.986-1.423z" stroke="#cf1126" stroke-width=".25" fill="#fdd114"/><path d="M321.37 389.222c-.61 1.567 2.115 1.704 2.88.81.917-1.68-1.81-2.21-2.88-.81z" stroke="#cf1126" stroke-width=".276" fill="#fdd114"/><path d="M207.99 366.632c-1.458-.652-1.367 2.28-.683 3.077.683.797 4.66-1.25.683-3.078z" stroke="#cf1126" stroke-width=".22" fill="#cf1126"/><path d="M272.237 205.466c-14.643 2.93-24.697 11.514-19.984 14.434 2.887 1.924 16.444-3.363 19.304-7.85 5.202 7.938 19.313 10.932 22.72 9.152" stroke="#000" stroke-linecap="round" stroke-width="1.4674999999999998" fill="#cf1126"/><path d="M196.29 200.77c2.43 3.756 15.022 12.813 24.08 13.476 9.056.662 29.6 4.86 33.576 3.092 3.976-1.767 15.242-9.5 18.113-8.174 2.87 1.326 19.66 10.604 25.845 10.383 6.185-.22 46.168-11.487 47.493-13.696 1.326-2.208-7.952-7.95-13.916-7.95-5.965 0-135.192 3.092-135.192 2.87z" fill="#cf1126"/><path d="M231.47 218.997c.072 2.257 1.808 3.89 5.97 3.933 6.992.145 18.818-3.16 25.882-11.1" stroke="#000" stroke-linecap="round" stroke-width="1.4674999999999998" fill="#cf1126"/><path d="M210.496 215.645c-.364 1.894 2.768 4.37 8.885 4.442s27.456-2.548 34.3-9.685" stroke="#000" stroke-linecap="round" stroke-width="1.4674999999999998" fill="#cf1126"/><path d="M196.05 209.91c-3.277 4.223 7.164 5.737 13.426 5.664 6.264-.073 22.427-.156 29.667-5.545" stroke="#000" stroke-linecap="round" stroke-width="1.4674999999999998" fill="#cf1126"/><path d="M184.61 202.825c-3.132 4.15 7.39 7.797 20.207 7.506 11.798-.29 23.814-4.37 23.814-4.37M311.466 218.997c-.073 2.257-1.81 3.89-5.972 3.933-6.99.145-18.817-3.16-25.88-11.1" stroke="#000" stroke-linecap="round" stroke-width="1.4674999999999998" fill="#cf1126"/><path d="M332.44 215.645c.363 1.894-2.768 4.37-8.886 4.442s-27.455-2.548-34.3-9.685" stroke="#000" stroke-linecap="round" stroke-width="1.4674999999999998" fill="#cf1126"/><path d="M346.79 209.998c3.28 4.224-7.07 5.646-13.333 5.572-6.264-.072-22.427-.156-29.667-5.544M358.36 202.754c3.133 4.152-7.425 7.87-20.242 7.577-11.798-.29-23.814-4.368-23.814-4.368" stroke="#000" stroke-linecap="round" stroke-width="1.4674999999999998" fill="#cf1126"/><path d="M209.756 202.437c-16.28 2.35-23.78 1.153-27.028-.4-4.06-1.786-11.01-7.225-.743-7.423 6.804-.133 10.232.387 17.967.346 19.784-.247 48.345-15.87 57.003-15.934 8.043-.06 10.176 3.66 14.76 3.735 4.696.055 6.216-3.793 14.26-3.734 8.657.064 37.217 15.687 57.002 15.934 7.734.04 11.163-.48 17.966-.346 10.268.198 3.317 5.637-.742 7.423-3.248 1.553-10.747 2.75-27.028.4" stroke="#000" stroke-linecap="round" stroke-width="1.4674999999999998" fill="#cf1126"/><path d="M271.414 144.073c-7.66.385-18.2-.924-21.586 7.618-5.156 9.773-3.702 20.85-1.386 21.083 4.147.458 4.542-11.063 6.31-11.08 1.848-.02 1.847 10.003 5.463 9.926 2.693-.078 4.386-10.08 5.233-10.004s2.616 9.618 6.022 9.618c3.638 0 5.176-9.54 6.023-9.618s2.54 9.926 5.232 10.003c3.617.076 3.615-9.948 5.464-9.927 1.767.017 2.546 11.46 6.693 11.004 2.316-.234 3.462-11.234-1.693-21.006-3.385-8.54-14.158-7.232-21.776-7.617zM253.023 147.572c2.057 3.455 18.1 3.373 19.005 3.373s14.892.165 18.183-3.208M268.52 111.536V145.6s.184 1.902 3.008 1.964 3.252-1.595 3.252-1.84l-.122-34.25" stroke="#000" stroke-width="1.4674999999999998" fill="#cf1126"/><path d="M271.825 115.486c12.834-.658 16.66 6.912 20.28 8.557s5.266 2.303 10.203 1.974c4.936-.33-8.557 8.228-8.557 8.557l4.938 8.885c-4.608.657-13.333-3.596-16.784-5.924-3.903-2.305-8.227-.988-9.873-1.317l-.205-20.734z" stroke="#000" stroke-width="1.4674999999999998" fill="#cf1126"/><path d="M313.4 264.67c0 4.333-3.893 7.85-8.69 7.85-4.796 0-8.69-3.517-8.69-7.85 0-4.332 3.894-7.848 8.69-7.848 4.797 0 8.69 3.516 8.69 7.848z" transform="matrix(.853 0 0 .902 11.88 -133.538)" stroke="#000" stroke-width="1.674" fill="#cf1126"/><g stroke="#cf1126" stroke-width=".375" fill="#fdd114"><path d="M192.21 274.21c-.977 1.368-1.82-2.23-5.18.293-1.895 1.62-2.654 4.1-2.64 9.287.01 4.397 2.54 7.333 4.008 7.04 2.248-.294 1.075-5.67 3.52-6.648 3.52-1.663 8.505.88 9.385 4.105s-1.663 6.746-4.4 6.355c-1.564-.586.88-2.835 1.076-3.813.194-.978.487-4.205-1.86-5.084-2.345-.88-1.954 2.346-2.052 3.226-.097.88-1.76 3.617-3.617 3.52-1.856-.098-4.808-.088-7.723-3.226-1.545-1.61-3.42-5.964-1.76-11.44 1.663-5.474 4.498-5.962 6.062-6.06 1.563-.098 5.572.88 5.18 2.444zM188.202 296.99c-1.632-.87.613-4.047-3.617-2.93-1.703.473 2.54 5.375 4.4 5.572 2.052-.197 1.48-1.53-.783-2.64zM192.698 299.633c.88 4.008 1.712 3.668 1.857 5.67.073 2.557-4.302 1.466-4.888 2.64-.587 1.172-1.37 4.203 1.466 4.398 2.835.197 6.904-.893 7.723 1.077 2.208 5.543 6.916 4.74 9.112 3.877 2.483-.994 8.326-6.26 9.66-6.713 1.983-.725-1.86-2.15-4.107-.194-.585.587-5.474 5.573-8.015 5.67-1.857.207-4.733-4.5-4.595-6.158.195-1.174 4.473-.206 5.084-2.64.455-1.74.488-3.618-.88-3.715-1.37-.098-7.822.782-8.017-.196-1.173-2.835 1.173-4.008.294-4.79-.977-.39-4.595-.978-4.692 1.076zM214.435 315.176c-2.07 2.167-7.515 5.636-7.515 8.086 0 1.39 1.52 3.566 2.777 4.084 1.876.74 4.754.554 6.942-1.144 2.475-2.01 3.588-4.05 2.532-4.41-3.744-1.07-3.84 4.09-5.636 4.247-1.717.142-4.33-2.615-.898-6.045 3.43-3.43 8.167-6.86 8.004-7.84-.164-.98-4.723 1.525-6.207 3.02zM205.53 329.546c-.152 1.38 3.513 1.388 4.167.163.49-.9-4.002-1.552-4.166-.164zM217.875 330.456c-2.07 2.167.245 4.63 1.825 6.65.875 1.077 2.885 2.128 4.142 2.645 1.876.74 5.615.484 7.804-1.214 2.475-2.01 2.67-5.543 1.168-5.56-3.886-.043-1.18 5.17-2.978 5.325-1.717.144-6.53-.94-8.873-5.9-1.337-2.922 2.467-3.48 1.897-4.75-.58-1.365-3.5 1.31-4.985 2.806zM228.05 330.273c.806 1.132 3.546-1.303 3.218-2.652-.233-.996-4.02 1.51-3.217 2.653z" stroke-width=".220125"/><path d="M233.442 340.576c-.112 1.59.36 3.736-1.51 3.808-1.867.07-4.238-2.443-6.105-2.37-1.868.07-2.66 1.508-2.444 2.298.216.79 3.45 1.724 8.98 1.365s4.31 3.017 8.19 2.73c3.88-.287 4.455-1.58 4.168-2.442-.287-.863-3.59-.288-4.812-.503-1.222-.216-3.377-2.156-3.665-3.808-.287-1.653-.287-4.5 1.15-4.526 2.658-.046 1.43 2.415 1.532 3.28.09.764.96 1.557 2.132.168 1.557-1.844.718-4.742-.79-5.747s-6.544 1.877-6.825 5.746zM247.16 340.864c-.283 2.848-2.322 3.056-2.083 4.095.294 1.192 1.032 1.567 1.508 4.524.27 1.458 2.083 2.077 4.383 1.94 1.88-.05 3.163-2.597 4.382-2.514 1.723.092.287 3.992 4.31 3.95 3.233-.03 4.024-2.8 5.173-2.873 1.15-.072 1.006 3.233 3.664 3.233 2.658 0 3.808-3.017 5.03-3.09 1.292.073 1.292 3.234 5.243 3.018 3.952-.216 6.898-.79 7.832-1.58.934-.79 1.364-3.377 2.658-3.52 1.293-.144 3.304 2.442 5.1 2.442s5.532-4.525 6.68-4.598c1.15-.07 2.085 2.802 4.67 2.802 4.025-.07 4.495-5.302 6.37-5.55 3.376-.328 3.51-1.706 3.69-2.065.358-1.007-.027-5.724-.794-7.877-.373-1.137-4.667-10.73-6.606-10.947-1.94-.215-1.365 2.587-.216 4.24 1.15 1.65 7.04 9.338 6.25 11.565-.79 2.23-4.957-.933-8.262-.933-4.598 0-7.39 9.296-10.633 9.627-1.424.153-2.946-1.22-2.443-2.227.934-1.436 2.01-4.885-1.58-4.382-3.592.503-7.256 2.155-6.682 4.095.575 1.94 2.73 3.88.36 4.67s-6.466 1.006-8.478.36c-2.01-.647-.79-5.174-2.01-5.174-1.366 0-1.438 5.317-3.378 5.46-1.94.144-3.665-.646-4.096-2.155-.43-1.508.72-3.375-.574-3.59-1.294-.217-2.587 5.962-4.527 5.818s-2.01-.575-3.16-1.796c-1.15-1.22 1.005-5.388-.935-5.747-1.94-.36-3.88 6.178-5.172 6.107-1.294-.072-3.234-.144-3.808-1.437-.288-.647-.207-4.692-.143-6.332-.036-.776-1.868-.435-1.725.44zM312.464 323.26c3.54 5.36 6.728 12.608 8.693 13.003 1.307.192-4.096-9.698-5.892-11.926-1.508-2.298-5.847-5.75-2.8-1.078z" stroke-width=".220125"/><path d="M342.16 613.74c-1.144 2.287-.735 4.493 1.225 4.166s4.492-4.166 3.84-4.9-3.513-1.39-5.065.734z" transform="matrix(.462 0 0 .569 88.723 -12.687)"/><path d="M322.865 325.637c-.012 2.906 2.046 6.193 5.876 5.986 3.83-.207 8.03-4.442 8.34-8.79s-5.055-7.54-6.4-6.607c-1.346.932.505 4.174 3.942 4.374 1.473.09.992 2.968-1.83 5.245-2.954 2.336-7.33 2.292-8.4.68-.828-2.278-1.58-2.293-1.527-.888z" stroke-width=".220125"/><path d="M325.172 316.832c-.56 1.15.608 3.804 1.874 3.687 1.284-.127-1.463-4.45-1.874-3.688zM336.413 314.77c.746 1.725 1.632 4.353 3.204 4.353 1.572 0 2.84.424 2.84 1.753s-4.097 5.756-4.23 7.254c-.23 2.552 1.63 2.418 2.538 1.027.907-1.39 3.36-7.93 3.87-9.732.22-1.425 1.983-4.104 2.054-6.892-.114-3.142 2.78-.603 4.17-.482 1.273.057 2.66-2.296 2.84-3.988.182-1.693-1.33-1.995-1.33-3.506 0-.846 1.617-3.566 1.693-5.38.18-1.603-3.143-6.225-4.533-6.165-1.15.062-.182 1.754.483 2.48.665.725 2.357 2.236 1.753 3.566-1.088 2.6-6.407 3.264-6.65 6.045-.24 1.995.243 8.28-1.39 8.28s-2.967-3.926-5.5-3.928c-2.84-.076-2.402 4.006-1.813 5.32zM340.587 290.898c.078 1.12 2.418 5.984 3.808 5.984 1.994 0-.907-2.296-.726-3.143s3.038-2.122 1.873-2.42c-2.084-.637-5.06-1.902-4.956-.422zM340.405 284.61c.423 1.573 6.89 3.93 9.67 4.716s6.166 4.11 7.436 3.022c1.27-1.088-8.522-4.956-9.973-5.5s-7.434-3.808-7.132-2.237zM359.928 294.766c2.418.06 1.088-4.715.484-5.863-.604-1.15-1.51 2.176-1.39 3.143.12.967.18 2.66.906 2.72zM345.846 271.01c-.02 1.082 6.68.315 9.793 1.15 1.342.375 5.922 2.84 6.768 2.235.967-1.27-6.226-3.99-10.336-3.99-1.33.02-6.202-.67-6.226.606zM344.09 274.092c-1.198 1.284 4.042 2.72 8.705 2.9 4.645.183 7.655 2.973 7.254 5.018-.666 3.446-6.47 1.21-5.743 3.083.422 1.45 2.974.918 3.264 2.48.2 1.57 1.838 1.847 1.75-.09-.008-1.543 3.6-4.083 3.51-4.808-.182-1.45-2.358-6.528-7.92-7.072-5.56-.543-9.288-3.223-10.82-1.51z" stroke-width=".220125"/></g><path d="M195.54 308.292c-.746-.43-3.405 1.96-2.45 2.492 1.81 1.025 3.584-1.858 2.45-2.492zM201.25 305.452c-1.29-.16-1.915 2.58-.835 2.743 2.744.38 3.285-2.447.835-2.743zM340.43 313.142c-.61-.003-2.54.847-1.874 2.178.665 1.33 2.574 1.362 3.447.605.778-.737.602-2.77-1.573-2.783zM347.99 307.332c.195 1.463 1.265 1.226 2.116.907.968-.424 1.25-1.704.303-2.178-.99-.494-2.62.226-2.42 1.27zM304.29 341.542c-1.303 2.878-.18 5.693 1.897 5.15s4.157-4.518 2.62-5.783-3.652-1.28-4.517.632z" stroke="#cf1126" stroke-width=".073" fill="#cf1126"/><g fill="#cf1126"><path d="M128.904 221.89c-4.847-.44-15.86-2.643-16.3-.44-.44 2.203 5.947 27.975 9.25 31.28 3.305 3.303 18.724 10.352 20.266 9.47 1.54-.88-3.084-16.96-4.846-19.824-1.763-2.864-7.05-13.216-6.608-13.657.44-.44-1.983-6.83-1.762-6.83z"/><path d="M119.204 221.016c1.18-6.2 8.39 1.22 7.677 9.3-.35 2.74 1.182 5.758 2.658 7.235M125.403 221.31l-.27.36c3.615-6.12 7.11 2.592 7.65 12.63M112.97 220.353c-.21-5.01 7.93-6.45 7.426 11.663 3.548 2.297 7.725 11.065 7.933 14.198 2.663.626 7.098 3.9 8.178 6.615" stroke="#000" stroke-width="1.4674999999999998"/><path d="M132.928 320.724c.38-13.792.598-43.324-.847-46.528-2.538-5.93-15.313-12.807-19.206-22.13-3.897-9.865-7.22-32.365-5.638-35.077 2.072-3.91 8.978 4.8 7.1 14.405 8.35 9.813 6.595 15.66 8.142 16.912 5.15 3.966 13.014 6.68 14.405 10.23 2.863 6.35-.626-8.978-2.923-12.11-2.296-3.13-6.263-10.02-3.55-11.69 2.715-1.672 7.517 2.713 8.144 3.966s7.098 8.35 8.977 10.02c3.342 2.506 11.78 8.107 11.61 12.908-.008 7.762.68 58.824.68 58.824M131.372 338.903s-.052 5.55-.052 5.656c2.41 2.932 12.465 3.258 14.715 3.246 2.202-.065 11.664.104 13.863-3.51.052-.103.136-4.714.136-5.982" stroke="#000" stroke-width="1.4674999999999998"/><path d="M130.92 330.703c-2.785.62-3.513 4.022-1.548 6.5 1.594 2.01 8.203 4.333 15.785 4.488 7.583.155 17.642-2.475 18.106-6.654.155-4.178-3.77-3.923-3.305-3.768" stroke="#000" stroke-width="1.4674999999999998"/><path d="M130.92 323.02c-2.785.618-3.306 4.126-1.34 6.603 1.593 2.01 8.304 4.797 15.887 4.952 7.582.155 17.177-2.94 17.64-7.118.156-4.18-2.73-3.82-2.94-3.714M146.705 327.298c10.058.155 16.558-4.797 16.558-7.427s-3.25-2.785-5.262-2.01c-2.01.772-5.105 2.737-11.605 2.784-6.653.202-12.534-4.642-14.546-4.488-2.013.155-3.59 2.337-2.94 4.643.795 2.286 7.89 6.808 17.795 6.498z" stroke="#000" stroke-width="1.4674999999999998"/></g><g fill="#cf1126"><path d="M415.294 221.89c4.847-.44 15.86-2.643 16.3-.44.44 2.203-5.947 27.975-9.25 31.28-3.305 3.303-18.724 10.352-20.266 9.47-1.54-.88 3.084-16.96 4.846-19.824 1.763-2.864 7.05-13.216 6.608-13.657-.44-.44 1.983-6.83 1.762-6.83z"/><path d="M424.997 221.016c-1.18-6.2-8.39 1.22-7.677 9.3.352 2.74-1.18 5.758-2.657 7.235" stroke="#000" stroke-width="1.4674999999999998"/><path d="M418.798 221.31l.27.36c-3.615-6.12-7.11 2.592-7.65 12.63M431.23 220.353c.21-5.01-7.93-6.45-7.425 11.663-3.548 2.297-7.725 11.065-7.933 14.198-2.664.626-7.1 3.9-8.18 6.615" stroke="#000" stroke-width="1.4674999999999998"/><path d="M411.273 320.724c-.38-13.792-.598-43.324.847-46.528 2.54-5.93 15.314-12.807 19.207-22.13 3.897-9.865 7.22-32.365 5.638-35.077-2.072-3.91-8.978 4.8-7.1 14.405-8.35 9.813-6.595 15.66-8.142 16.912-5.15 3.966-13.014 6.68-14.405 10.23-2.863 6.35.626-8.978 2.923-12.11 2.297-3.13 6.264-10.02 3.55-11.69-2.714-1.672-7.516 2.713-8.143 3.966s-7.098 8.35-8.977 10.02c-3.34 2.506-11.778 8.107-11.61 12.908.01 7.762-.68 58.824-.68 58.824M412.83 338.903s.05 5.55.05 5.656c-2.408 2.932-12.464 3.258-14.714 3.246-2.202-.065-11.664.104-13.863-3.51-.052-.103-.136-4.714-.136-5.982" stroke="#000" stroke-width="1.4674999999999998"/><path d="M413.28 330.703c2.786.62 3.514 4.022 1.55 6.5-1.595 2.01-8.204 4.333-15.786 4.488-7.583.155-17.642-2.475-18.106-6.654-.155-4.178 3.77-3.923 3.305-3.768" stroke="#000" stroke-width="1.4674999999999998"/><path d="M413.28 323.02c2.786.618 3.307 4.126 1.34 6.603-1.592 2.01-8.303 4.797-15.886 4.952-7.582.155-17.177-2.94-17.64-7.118-.156-4.18 2.73-3.82 2.94-3.714" stroke="#000" stroke-width="1.4674999999999998"/><path d="M397.496 327.298c-10.058.155-16.558-4.797-16.558-7.427s3.25-2.785 5.262-2.01c2.012.772 5.106 2.737 11.606 2.784 6.653.202 12.534-4.642 14.546-4.488 2.012.155 3.588 2.337 2.94 4.643-.796 2.286-7.892 6.808-17.796 6.498z" stroke="#000" stroke-width="1.4674999999999998"/></g></g></svg>