<svg xmlns="http://www.w3.org/2000/svg" height="512" width="512" version="1"><g stroke-width="1pt"><path fill-rule="evenodd" fill="#229e45" d="M0 0h512v512H0z"/><path d="M361.507 255.935c0 53.604-43.54 97.06-97.245 97.06-53.708 0-97.246-43.456-97.246-97.06s43.54-97.058 97.246-97.058c53.708 0 97.245 43.455 97.245 97.058z" fill-rule="evenodd" fill="#2b49a3"/><path fill-rule="evenodd" fill="#ffffef" d="M232.415 314.19l-3.006-1.736-3.123 1.545.7-3.47-2.412-2.543 3.448-.403 1.62-3.112 1.444 3.218 3.402.618-2.553 2.388M297.586 330.69l-3.006-1.734-3.122 1.545.7-3.468-2.412-2.543 3.448-.404 1.62-3.112 1.444 3.218 3.402.618-2.552 2.388M269.384 304.293l-2.595-1.498-2.697 1.334.603-2.997-2.082-2.196 2.978-.35 1.398-2.686 1.247 2.78 2.938.534-2.203 2.062M335.262 294.774l-2.55-1.47-2.647 1.31.592-2.942-2.045-2.155 2.925-.342 1.373-2.637 1.225 2.727 2.885.524-2.164 2.023M268.306 275.118l-3.006-1.735-3.122 1.545.7-3.47-2.412-2.542 3.448-.403 1.62-3.112 1.444 3.22 3.402.617-2.552 2.388M188.063 244.992l-3.006-1.735-3.122 1.545.7-3.47-2.412-2.542 3.448-.403 1.62-3.112 1.445 3.218 3.402.618-2.552 2.39M197.713 285.067l-3.006-1.735-3.122 1.545.7-3.47-2.412-2.542 3.448-.403 1.62-3.112 1.445 3.218 3.402.618-2.552 2.388M297.813 230.19l-2.655-1.532-2.758 1.363.618-3.062-2.13-2.244 3.045-.357 1.43-2.747 1.277 2.84 3.004.547-2.253 2.108M292.196 256.246l-2.09-1.206-2.17 1.074.486-2.412-1.677-1.768 2.398-.28 1.126-2.164 1.003 2.237 2.365.43-1.774 1.66M183.372 292.302l-2.005-1.158-2.082 1.03.466-2.314-1.608-1.697 2.3-.27 1.08-2.077.964 2.15 2.27.41-1.703 1.595M335.86 301.503l-1.635-.866-1.7.77.38-1.73-1.31-1.27 1.875-.2.88-1.554.788 1.607 1.85.308-1.388 1.192"/><path fill-rule="evenodd" fill="#ffffef" d="M183.372 292.302l-2.005-1.158-2.082 1.03.466-2.314-1.608-1.697 2.3-.27 1.08-2.077.964 2.15 2.27.41-1.703 1.595"/><path fill-rule="evenodd" fill="#ffffef" d="M183.372 292.302l-2.005-1.158-2.082 1.03.466-2.314-1.608-1.697 2.3-.27 1.08-2.077.964 2.15 2.27.41-1.703 1.595M215.305 292.294l-2.005-1.158-2.082 1.03.466-2.314-1.61-1.697 2.3-.27 1.08-2.077.965 2.15 2.268.41-1.702 1.595M211.337 302.917l-2.005-1.158-2.082 1.03.466-2.315-1.61-1.697 2.3-.27 1.08-2.077.965 2.15 2.27.412-1.702 1.594M277.644 283.58l-2.005-1.16-2.083 1.032.466-2.315-1.61-1.697 2.3-.27 1.08-2.077.965 2.15 2.27.41-1.703 1.595M258.187 283.572l-2.005-1.158-2.082 1.03.466-2.314-1.61-1.697 2.3-.27 1.08-2.077.965 2.15 2.27.41-1.702 1.595M205.476 276.796l-1.256-.726-1.306.646.293-1.45-1.01-1.064 1.443-.17.677-1.3.604 1.345 1.423.26-1.067.998M333.18 309.933l-2.004-1.158-2.082 1.03.466-2.314-1.61-1.696 2.3-.27 1.08-2.077.965 2.15 2.27.41-1.703 1.595M317.08 312.104l-1.662-.962-1.726.857.387-1.926-1.334-1.41 1.906-.224.895-1.726.8 1.785 1.88.342-1.41 1.325M324.768 311.83l-1.548-.893-1.608.795.36-1.787-1.242-1.31 1.776-.208.834-1.602.744 1.658 1.752.318-1.314 1.23M346.738 292.688l-1.49-.86-1.55.765.347-1.72-1.197-1.26 1.71-.2.804-1.543.717 1.596 1.687.306-1.266 1.184M316.778 322.885l-1.945-1.063-2.02.947.452-2.127-1.56-1.558 2.23-.248 1.05-1.906.934 1.973 2.2.378-1.65 1.465M316.955 331.608l-1.776-1.063-1.844.947.412-2.126-1.424-1.558 2.037-.248.957-1.906.853 1.972 2.01.378-1.508 1.464M302.348 311.838l-1.49-.86-1.55.765.347-1.72-1.197-1.26 1.71-.2.804-1.543.717 1.596 1.687.306-1.266 1.184M288.554 311.838l-1.49-.86-1.55.765.347-1.72-1.196-1.26 1.71-.2.804-1.543.717 1.596 1.688.306-1.266 1.184M265.13 291.356l-1.49-.86-1.55.765.348-1.72-1.197-1.26 1.712-.2.803-1.542.717 1.596 1.688.306-1.266 1.184M267.6 333.116l-1.262-.728-1.31.648.293-1.457-1.01-1.068 1.447-.17.68-1.307.606 1.352 1.427.26-1.07 1.002M232.415 265.638l-3.006-1.735-3.123 1.545.7-3.47-2.412-2.542 3.448-.403 1.62-3.112 1.444 3.22 3.402.617-2.553 2.388"/><path d="M355.113 290.934c1.482-3.876 3.394-9.72 4.41-15.086-51.653-45.375-109.233-68.618-181.99-63.836-2.607 5-4.695 10.236-6.456 15.9 86.207-8.223 149.396 29.943 184.038 63.022z" fill-rule="evenodd" fill="#fff"/><path d="M331.893 265.425l1.845 1.008c-.29.654-.367 1.226-.236 1.714.137.493.476.922 1.017 1.288.573.392 1.086.564 1.537.518.457-.046.797-.233 1.018-.56.14-.21.196-.43.17-.658-.02-.23-.146-.503-.377-.82-.16-.213-.548-.665-1.165-1.354-.794-.884-1.267-1.63-1.42-2.24-.212-.854-.083-1.63.39-2.332.304-.45.713-.786 1.228-1.005.524-.22 1.095-.27 1.71-.15.618.12 1.268.41 1.944.87 1.107.753 1.776 1.562 2.004 2.427.233.87.09 1.72-.43 2.55l-1.833-1.13c.23-.507.286-.944.166-1.313-.11-.37-.418-.725-.92-1.066-.517-.35-.994-.518-1.43-.504-.283.01-.5.128-.654.357-.14.21-.173.45-.098.718.098.343.51.91 1.24 1.704.726.793 1.222 1.44 1.486 1.943.27.5.393 1.02.367 1.562-.017.538-.216 1.087-.592 1.647-.342.508-.802.886-1.38 1.138-.58.252-1.2.314-1.86.182-.657-.134-1.368-.462-2.133-.983-1.115-.756-1.8-1.596-2.05-2.517-.245-.924-.094-1.923.458-2.992zM323.14 259.68l1.886.93c-.263.665-.318 1.24-.167 1.723.157.486.51.903 1.066 1.247.59.368 1.108.52 1.557.455.457-.066.79-.264.995-.6.133-.213.18-.436.146-.664-.03-.228-.167-.497-.412-.805-.167-.207-.572-.64-1.218-1.306-.828-.853-1.33-1.58-1.508-2.18-.246-.848-.148-1.63.293-2.348.288-.462.683-.813 1.188-1.053.515-.24 1.083-.316 1.702-.222.623.097 1.284.36 1.978.794 1.138.705 1.837 1.487 2.1 2.343.267.86.16 1.713-.326 2.566l-1.88-1.056c.21-.514.25-.954.115-1.317-.128-.366-.45-.708-.963-1.028-.532-.332-1.015-.48-1.45-.448-.28.02-.493.148-.638.384-.132.215-.156.453-.07.72.112.338.546.888 1.306 1.653.757.76 1.28 1.388 1.563 1.878.29.49.434 1.005.43 1.546.005.54-.173 1.096-.525 1.672-.322.52-.77.917-1.336 1.193-.568.275-1.186.36-1.85.256-.66-.108-1.384-.41-2.17-.897-1.144-.713-1.86-1.523-2.148-2.434-.285-.914-.174-1.916.335-3.006zM296.532 243.82l.823-1.6 4.118 2.13-1.94 3.785c-.603.182-1.36.225-2.275.13-.907-.1-1.75-.35-2.53-.753-.99-.512-1.746-1.163-2.268-1.96-.52-.8-.77-1.68-.743-2.647.03-.97.277-1.91.745-2.822.507-.99 1.167-1.76 1.976-2.317.805-.555 1.714-.83 2.72-.83.77-.004 1.605.232 2.51.696 1.175.61 1.965 1.332 2.366 2.17.41.836.486 1.738.227 2.71l-2.08-.626c.107-.535.045-1.033-.19-1.492-.225-.462-.614-.835-1.163-1.12-.837-.433-1.637-.51-2.406-.233-.762.278-1.41.938-1.947 1.984-.58 1.128-.766 2.104-.557 2.93.212.817.72 1.437 1.532 1.857.4.207.84.336 1.32.387.486.05.93.037 1.335-.038l.62-1.207-2.19-1.132z" fill="#309e3a"/><g stroke-opacity=".502"><path d="M181.314 218.817c.03-1.088.217-1.997.562-2.727.255-.537.6-1.017 1.026-1.438.432-.42.9-.728 1.406-.924.67-.263 1.44-.384 2.304-.36 1.568.043 2.808.565 3.72 1.567.918 1.002 1.352 2.373 1.305 4.112-.048 1.724-.55 3.063-1.513 4.014-.96.947-2.222 1.4-3.784 1.356-1.583-.042-2.827-.56-3.734-1.553-.908-.997-1.338-2.346-1.292-4.046z" fill="#309e3a"/><path d="M183.535 218.797c-.033 1.21.22 2.135.76 2.777.538.638 1.237.968 2.094.99.854.024 1.565-.266 2.13-.867.567-.608.868-1.53.902-2.77.033-1.223-.21-2.144-.73-2.762-.517-.616-1.217-.937-2.103-.96-.886-.025-1.608.262-2.167.86-.56.592-.855 1.503-.888 2.732z" fill="#f7ffff"/></g><g stroke-opacity=".502"><path d="M193.98 224.456l.13-10.69 4.525.055c1.14.015 1.963.12 2.474.322.514.196.924.54 1.228 1.036s.452 1.057.444 1.69c-.01.802-.253 1.463-.73 1.982-.475.514-1.18.834-2.117.96.46.276.842.58 1.137.91.3.328.702.912 1.206 1.75l1.275 2.1-2.57-.03-1.527-2.346c-.54-.837-.913-1.364-1.113-1.58-.202-.222-.415-.373-.642-.453-.225-.084-.585-.13-1.08-.135l-.434-.006-.055 4.462-2.15-.026z" fill="#309e3a"/><path d="M196.214 218.313l1.59.02c1.032.012 1.676-.024 1.934-.108.258-.085.46-.233.608-.445s.223-.48.228-.8c.004-.36-.09-.65-.28-.87-.186-.226-.454-.37-.8-.433-.176-.026-.7-.045-1.57-.056l-1.677-.02-.033 2.713z" fill="#fff"/></g><g stroke-opacity=".502"><path d="M206.144 214.307l3.924.2c.885.046 1.555.148 2.012.31.614.215 1.132.57 1.553 1.064.422.494.73 1.09.93 1.786.197.692.272 1.537.22 2.537-.042.88-.19 1.63-.44 2.256-.304.763-.714 1.37-1.233 1.827-.388.346-.906.604-1.55.775-.48.127-1.12.17-1.912.13l-4.038-.208.534-10.677z" fill="#309e3a"/><path d="M208.205 216.212l-.354 7.073 1.604.08c.6.033 1.034.02 1.303-.034.352-.07.648-.202.886-.4.243-.196.448-.53.616-.997.168-.473.274-1.122.315-1.947s0-1.464-.122-1.914c-.123-.45-.31-.803-.558-1.065-.25-.26-.57-.445-.968-.553-.296-.083-.882-.147-1.758-.192l-.965-.05z" fill="#fff"/></g><g stroke-opacity=".502"><path d="M258.494 233.376l2.48-10.392 3.356.81c1.27.307 2.087.558 2.448.756.555.3.97.76 1.246 1.38.276.616.314 1.338.117 2.165-.15.638-.393 1.147-.73 1.526-.332.38-.71.65-1.126.816-.413.16-.812.237-1.2.228-.52-.02-1.255-.146-2.2-.374l-1.363-.33-.935 3.92-2.09-.504z" fill="#309e3a"/><path d="M262.65 225.244l-.704 2.95 1.144.275c.825.198 1.388.277 1.69.234.305-.042.562-.16.772-.353.215-.192.36-.442.433-.75.09-.378.055-.715-.107-1.015-.164-.3-.407-.52-.73-.663-.24-.108-.734-.253-1.488-.434l-1.01-.244z" fill="#fff"/></g><g stroke-opacity=".502"><path d="M268.408 236.326l3.537-10.08 4.268 1.51c1.074.378 1.82.746 2.24 1.1.426.353.703.81.833 1.378s.09 1.148-.12 1.743c-.264.757-.706 1.304-1.322 1.642-.615.333-1.386.408-2.312.226.348.41.61.82.785 1.228.18.41.374 1.092.584 2.047l.537 2.402-2.425-.858-.696-2.713c-.246-.968-.43-1.586-.55-1.857-.12-.273-.273-.485-.462-.634-.188-.155-.514-.314-.98-.48l-.41-.146-1.477 4.21-2.03-.718z" fill="#309e3a"/><path d="M272.473 231.23l1.5.532c.973.344 1.593.518 1.864.52.272.004.51-.07.72-.225.207-.152.364-.38.47-.683.118-.34.123-.645.013-.916-.103-.273-.31-.495-.62-.668-.157-.08-.646-.266-1.468-.557l-1.582-.56-.897 2.558z" fill="#fff"/></g><g stroke-opacity=".502"><path d="M281.01 235.81c.324-1.04.75-1.863 1.276-2.47.394-.45.852-.817 1.38-1.105.53-.288 1.063-.456 1.6-.507.72-.07 1.49.023 2.318.282 1.5.467 2.55 1.308 3.16 2.52.61 1.215.66 2.653.144 4.314-.51 1.647-1.358 2.797-2.54 3.45-1.18.65-2.517.74-4.01.273-1.512-.472-2.57-1.31-3.177-2.51-.604-1.208-.654-2.623-.15-4.247z" fill="#309e3a"/><path d="M283.158 236.408c-.36 1.154-.365 2.114-.02 2.88.35.76.93 1.267 1.75 1.524.82.255 1.58.17 2.285-.256.712-.43 1.252-1.235 1.62-2.418.362-1.17.376-2.12.04-2.858-.328-.733-.918-1.233-1.763-1.497-.847-.265-1.62-.186-2.318.237-.698.418-1.23 1.214-1.594 2.388z" fill="#fff"/></g><g stroke-opacity=".502"><path d="M301.684 250.758l4.894-9.497 4.02 2.088c1.01.526 1.698.992 2.065 1.402.373.407.585.9.636 1.48s-.07 1.148-.36 1.71c-.367.713-.88 1.193-1.538 1.443-.655.246-1.428.213-2.32-.097.288.456.49.9.608 1.327.122.43.22 1.13.296 2.108l.2 2.452-2.283-1.186-.316-2.782c-.11-.994-.205-1.632-.29-1.916-.08-.287-.203-.52-.37-.694-.163-.177-.465-.38-.903-.608l-.387-.2-2.043 3.963-1.91-.992z" fill="#309e3a"/><path d="M306.412 246.262l1.412.733c.916.477 1.508.734 1.776.775.267.04.516 0 .743-.123.227-.124.413-.328.56-.613.165-.32.21-.62.14-.904-.066-.285-.24-.536-.522-.748-.143-.102-.602-.354-1.377-.756l-1.49-.773-1.24 2.41z" fill="#fff"/></g><g stroke-opacity=".502"><path d="M341.09 270.205c.607-.9 1.25-1.567 1.932-1.996.505-.316 1.05-.535 1.636-.66.59-.12 1.15-.127 1.68-.02.706.14 1.42.454 2.136.94 1.3.883 2.064 1.993 2.297 3.33.238 1.34-.13 2.73-1.102 4.17-.962 1.43-2.102 2.287-3.42 2.57-1.317.28-2.622-.02-3.918-.9-1.31-.89-2.083-2-2.317-3.326-.232-1.33.128-2.7 1.077-4.11z" fill="#309e3a"/><path d="M342.973 271.387c-.675 1.003-.958 1.92-.848 2.752.116.827.527 1.482 1.236 1.964.71.482 1.464.62 2.262.418.804-.205 1.552-.82 2.244-1.847.682-1.014.97-1.922.86-2.723-.104-.8-.523-1.447-1.257-1.946s-1.496-.647-2.287-.444c-.788.198-1.524.808-2.21 1.825z" fill="#fff"/></g></g></svg>