<svg xmlns="http://www.w3.org/2000/svg" height="512" width="512"><defs><clipPath id="a"><path fill-opacity=".67" d="M0 0h496.06v496.06H0z"/></clipPath></defs><g fill-rule="evenodd" clip-path="url(#a)" transform="matrix(1.032 0 0 1.032 .001 0)"><path fill="#b20000" d="M0 0h992.13v329.53H0z"/><path fill="#429f00" d="M0 329.53h992.13v166.54H0z"/><path fill="#fff" d="M0 0h109.84v496.06H0z"/><g stroke-width="1pt" fill="#b20000"><path d="M5.27 8.45h5.23v8.405H5.27zM20.96 8.45h15.69v8.405H20.96zM26.186.04h5.23v8.407h-5.23zM52.34.04h5.23v8.407h-5.23zM73.256 8.45h15.69v8.405h-15.69zM78.496.04h5.23v8.407h-5.23zM15.736 16.855h10.46v8.406h-10.46zM31.426 16.855h10.46v8.406h-10.46zM68.03 16.855h10.46v8.406H68.03zM83.72 16.855h10.46v8.406H83.72z"/><path d="M10.496 25.26h10.46v8.406h-10.46zM36.65 25.26h10.46v8.406H36.65zM62.806 25.26h10.46v8.406h-10.46zM88.946 25.26h10.46v8.406h-10.46zM99.41 8.45h5.23v8.405h-5.23z"/><path d="M5.27 33.666h10.462v8.405H5.272zM41.876 33.666h10.46v8.405h-10.46zM94.186 33.666h10.46v8.405h-10.46zM10.496 58.88h10.46v8.404h-10.46zM15.736 67.284h10.46v8.405h-10.46zM36.65 58.88h10.46v8.404H36.65zM31.426 67.284h10.46v8.405h-10.46zM20.96 75.69h15.69v8.404H20.96z"/><path d="M26.186 84.093h5.23v8.405h-5.23zM62.806 58.88h10.46v8.405h-10.46z"/><path d="M68.03 67.284h10.46v8.405H68.03zM88.946 58.88h10.46v8.404h-10.46zM83.72 67.284h10.46v8.405H83.72zM73.256 75.69h15.69v8.404h-15.69z"/><path d="M78.496 84.093h5.23v8.405h-5.23zM52.34 75.69h5.23v8.404h-5.23zM.046 75.69h5.23v8.404H.046zM104.636 75.69h5.23v8.404h-5.23zM26.186 117.713h5.23v8.405h-5.23z"/><path d="M20.96 126.117h15.69v8.405H20.96zM15.736 134.522h26.15v8.405h-26.15zM78.496 117.713h5.23v8.405h-5.23z"/><path d="M73.256 126.117h15.69v8.405h-15.69zM68.03 134.522h26.15v8.405H68.03zM73.256 176.546h26.15v8.405h-26.15zM62.806 142.927h36.61v8.405h-36.61zM10.496 142.927h36.61v8.405h-36.61zM15.736 184.95h15.69v8.406h-15.69z"/><path d="M10.496 176.546h26.15v8.405h-26.15zM83.72 159.736h26.15v8.406H83.72zM78.496 184.95h15.69v8.406h-15.69zM20.96 193.355h5.23v8.405h-5.23z"/><path d="M83.72 193.355h5.23v8.405h-5.23zM.046 159.736h26.15v8.406H.047zM47.116 176.546h15.69v8.405h-15.69z"/><path d="M52.34 184.95h5.23v8.406h-5.23zM36.65 159.736h36.61v8.406H36.65zM57.566 33.666h10.46v8.405h-10.46z"/><path d="M47.116 42.07h15.69v8.405h-15.69zM41.876 50.475h10.46v8.405h-10.46zM57.566 50.475h10.46v8.405h-10.46zM.046 42.07h10.46v8.405H.047zM5.27 50.475h10.462v8.405H5.272zM99.41 42.07h10.46v8.405H99.41zM94.186 50.475h10.46v8.405h-10.46zM.046 126.117h5.23v8.405H.046zM104.636 126.117h5.23v8.405h-5.23zM47.116 193.355h15.69v8.405h-15.69zM41.876 201.76h10.46v8.405h-10.46zM57.566 201.76h10.46v8.405h-10.46zM36.65 210.165h10.46v8.405H36.65zM62.806 210.165h10.46v8.405h-10.46zM31.426 218.57h10.46v8.404h-10.46zM68.03 218.57h10.46v8.404H68.03zM26.186 226.974h10.46v8.405h-10.46zM73.256 226.974h10.46v8.405h-10.46z"/><path d="M15.736 235.378h15.69v8.405h-15.69zM78.496 235.378h15.69v8.405h-15.69z"/><path d="M88.946 226.974h10.46v8.405h-10.46zM94.186 218.57h10.46v8.404h-10.46zM99.41 210.165h10.46v8.405H99.41zM10.496 226.974h10.46v8.405h-10.46zM5.27 218.57h10.462v8.404H5.272zM.046 210.165h10.46v8.405H.047zM20.96 243.783h5.23v8.406h-5.23zM83.72 243.783h5.23v8.406h-5.23zM52.34 218.57h5.23v8.404h-5.23zM36.65 243.783h5.23v8.406h-5.23zM68.03 243.783h5.23v8.406h-5.23zM52.34 243.783h5.23v8.406h-5.23zM.046 243.783h5.23v8.406H.046zM104.636 243.783h5.23v8.406h-5.23zM52.34 126.117h5.23v8.405h-5.23zM26.186 42.07h5.23v8.405h-5.23zM78.496 42.07h5.23v8.405h-5.23zM47.116 100.904h15.69v8.405h-15.69z"/><path d="M36.65 109.308h15.69v8.405H36.65z"/><path d="M41.876 117.713h5.23v8.405h-5.23zM31.426 100.904h10.46v8.405h-10.46z"/><path d="M36.65 92.498h15.69v8.406H36.65zM41.876 84.093h5.23v8.405h-5.23zM57.566 92.498h15.69v8.406h-15.69zM62.806 84.093h5.23v8.405h-5.23z"/><path d="M68.03 100.904h10.46v8.405H68.03z"/><path d="M57.566 109.308h15.69v8.405h-15.69z"/><path d="M62.806 117.713h5.23v8.405h-5.23zM83.72 100.904h10.46v8.405H83.72z"/><path d="M88.946 92.498h15.69v8.406h-15.69z"/><path d="M99.41 100.904h10.46v8.405H99.41z"/><path d="M88.946 109.308h15.69v8.405h-15.69z"/><path d="M94.186 117.713h5.23v8.405h-5.23zM94.186 84.093h5.23v8.405h-5.23zM.046 100.904h10.46v8.405H.047z"/><path d="M5.27 92.498h15.69v8.406H5.27z"/><path d="M15.736 100.904h10.46v8.405h-10.46z"/><path d="M5.27 109.308h15.69v8.405H5.27z"/><path d="M10.496 117.713h5.23v8.405h-5.23zM10.496 84.093h5.23v8.405h-5.23zM5.27 151.33h20.92v8.406H5.27zM31.426 151.33h20.92v8.406h-20.92zM57.566 151.33h20.92v8.406h-20.92zM83.72 151.33h20.92v8.406H83.72zM41.876 168.14h26.15v8.406h-26.15zM5.27 168.14h26.152v8.406H5.272zM78.496 168.14h26.15v8.406h-26.15zM104.636 201.76h5.23v8.405h-5.23zM.046 201.76h5.23v8.405H.046zM5.27 487.523h5.23v-8.405H5.27zM20.96 487.523h15.69v-8.405H20.96z"/><path d="M26.186 495.92h5.23v-8.405h-5.23zM52.34 495.92h5.23v-8.405h-5.23zM73.256 487.523h15.69v-8.405h-15.69z"/><path d="M78.496 495.92h5.23v-8.405h-5.23zM15.736 479.114h10.46v-8.405h-10.46zM31.426 479.114h10.46v-8.405h-10.46zM68.03 479.114h10.46v-8.405H68.03zM83.72 479.114h10.46v-8.405H83.72zM36.65 470.706h10.46V462.3H36.65zM62.806 470.706h10.46V462.3h-10.46zM88.946 470.706h10.46V462.3h-10.46zM99.41 487.523h5.23v-8.405h-5.23zM5.27 462.31h10.462v-8.407H5.272z"/><path d="M41.876 462.31h10.46v-8.407h-10.46zM94.186 462.31h10.46v-8.407h-10.46zM10.496 437.094h10.46v-8.405h-10.46zM15.736 428.686h10.46v-8.406h-10.46zM36.65 437.094h10.46v-8.405H36.65zM31.426 428.686h10.46v-8.406h-10.46zM20.96 420.277h15.69v-8.405H20.96z"/><path d="M26.186 411.88h5.23v-8.405h-5.23zM62.806 437.094h10.46v-8.405h-10.46zM68.03 428.686h10.46v-8.406H68.03zM88.946 437.094h10.46v-8.405h-10.46zM83.72 428.686h10.46v-8.406H83.72zM73.256 420.277h15.69v-8.405h-15.69z"/><path d="M78.496 411.88h5.23v-8.405h-5.23zM52.34 420.277h5.23v-8.405h-5.23zM.046 420.277h5.23v-8.405H.046zM104.636 420.277h5.23v-8.405h-5.23zM26.186 378.257h5.23v-8.405h-5.23z"/><path d="M20.96 369.86h15.69v-8.405H20.96zM15.736 361.45h26.15v-8.404h-26.15zM78.496 378.257h5.23v-8.405h-5.23z"/><path d="M73.256 369.86h15.69v-8.405h-15.69zM68.03 361.45h26.15v-8.404H68.03zM73.256 319.43h26.15v-8.404h-26.15zM62.806 353.043h36.61v-8.406h-36.61zM10.496 353.043h36.61v-8.406h-36.61zM15.736 311.023h15.69v-8.41h-15.69zM10.496 319.43h26.15v-8.404h-26.15zM83.72 336.237h26.15v-8.405H83.72zM78.496 311.023h15.69v-8.406h-15.69zM.046 336.237h26.15v-8.405H.047zM47.116 319.43h15.69v-8.404h-15.69zM52.34 311.023h5.23v-8.406h-5.23zM36.65 336.237h36.61v-8.405H36.65zM57.566 462.31h10.46v-8.407h-10.46zM47.116 453.9h15.69v-8.405h-15.69zM41.876 445.49h10.46v-8.404h-10.46zM57.566 445.49h10.46v-8.404h-10.46zM.046 453.9h10.46v-8.405H.047zM5.27 445.49h10.462v-8.404H5.272zM99.41 453.9h10.46v-8.405H99.41zM94.186 445.49h10.46v-8.404h-10.46zM.046 369.86h5.23v-8.405H.046zM104.636 369.86h5.23v-8.405h-5.23zM41.876 294.217h10.46v-8.405h-10.46zM57.566 294.217h10.46v-8.405h-10.46zM36.65 285.808h10.46v-8.405H36.65zM62.806 285.808h10.46v-8.405h-10.46zM31.426 277.4h10.46v-8.406h-10.46zM68.03 277.4h10.46v-8.406H68.03z"/><path d="M26.186 269.003h10.46v-8.406h-10.46zM73.256 269.003h10.46v-8.406h-10.46zM15.736 260.594h15.69v-8.405h-15.69zM78.496 260.594h15.69v-8.405h-15.69zM88.946 269.003h10.46v-8.406h-10.46z"/><path d="M94.186 277.4h10.46v-8.406h-10.46zM99.41 285.808h10.46v-8.405H99.41zM10.496 269.003h10.46v-8.406h-10.46zM5.27 277.4h10.462v-8.406H5.272zM.046 285.808h10.46v-8.405H.047zM20.96 252.19h5.23v-8.407h-5.23zM52.34 277.4h5.23v-8.406h-5.23zM52.34 369.86h5.23v-8.405h-5.23zM26.186 453.9h5.23v-8.405h-5.23zM78.496 453.9h5.23v-8.405h-5.23zM47.116 395.074h15.69v-8.405h-15.69zM36.65 386.666h15.69v-8.406H36.65zM41.876 378.257h5.23v-8.405h-5.23zM31.426 395.074h10.46v-8.405h-10.46z"/><path d="M36.65 403.47h15.69v-8.404H36.65zM41.876 411.88h5.23v-8.405h-5.23zM57.566 403.47h15.69v-8.404h-15.69zM62.806 411.88h5.23v-8.405h-5.23z"/><path d="M68.03 395.074h10.46v-8.405H68.03zM57.566 386.666h15.69v-8.406h-15.69zM62.806 378.257h5.23v-8.405h-5.23zM83.72 395.074h10.46v-8.405H83.72z"/><path d="M88.946 403.47h15.69v-8.404h-15.69z"/><path d="M99.41 395.074h10.46v-8.405H99.41zM88.946 386.666h15.69v-8.406h-15.69zM94.186 378.257h5.23v-8.405h-5.23zM94.186 411.88h5.23v-8.405h-5.23zM.046 395.074h10.46v-8.405H.047z"/><path d="M5.27 403.47h15.69v-8.404H5.27z"/><path d="M15.736 395.074h10.46v-8.405h-10.46zM5.27 386.666h15.69v-8.406H5.27zM10.496 378.257h5.23v-8.405h-5.23zM10.496 411.88h5.23v-8.405h-5.23zM5.27 344.646h20.92v-8.406H5.27zM31.426 344.646h20.92v-8.406h-20.92zM57.566 344.646h20.92v-8.406h-20.92zM83.72 344.646h20.92v-8.406H83.72zM41.876 327.828h26.15v-8.405h-26.15zM5.27 327.828h26.152v-8.405H5.272zM78.496 327.828h26.15v-8.405h-26.15zM104.636 294.217h5.23v-8.405h-5.23zM.046 294.217h5.23v-8.405H.046zM47.116 252.19h5.23v8.404h-5.23zM57.566 252.19h5.23v8.404h-5.23zM57.566 235.378h5.23v8.405h-5.23zM47.116 235.378h5.23v8.405h-5.23zM10.496 462.31h10.46v8.404h-10.46zM83.72 302.614h5.23v-8.405h-5.23zM20.96 302.614h5.23v-8.405h-5.23zM47.078 294.274H62.77v8.407H47.078z"/></g></g></svg>