<svg xmlns="http://www.w3.org/2000/svg" height="512" width="512"><defs><clipPath id="a"><path fill-opacity=".67" d="M124.02 0h496.06v496.06H124.02z"/></clipPath></defs><g clip-path="url(#a)" transform="matrix(1.032 0 0 1.032 -128 0)"><path fill-rule="evenodd" fill="#c60000" d="M0 0h744.09v496.06H0z"/><path fill-rule="evenodd" fill="#003bb2" d="M0 70.866h744.09v354.33H0z"/><path d="M514.06 248.258c0 78.355-63.52 141.872-141.872 141.872-78.356 0-141.873-63.52-141.873-141.872 0-78.356 63.52-141.873 141.873-141.873 78.356 0 141.873 63.52 141.873 141.873z" fill-rule="evenodd" fill="#fff"/><g stroke="#000" fill-rule="evenodd"><path d="M0 318.04c6.927 1.02 14.39 1.206 23.312 0 7.405 1.994 12.863 5.647 18.317 8.326 3.056 5.665 7.338 14 11.655 18.316 1.874 6.872 4.64 9.755 8.326 16.652.92 6.795 3.183 13.617 0 19.98-3.795 4.746-9.757 7.516-14.985 9.992-6.902 3.688-10.937 5.046-19.982 6.66-7.444 1.33-15.03 1.666-23.312 1.666-8.012-1.43-14.19-2.757-21.646-3.33-7.414-1.324-15.898-2.007-23.312-3.33-4.813-2.816-11.026-5.127-16.65-6.66-3.908-3.726-9.56-7.954-14.987-11.657-4.19-7.502-8.004-10.206-11.656-16.652-3.318-4.876-4.892-11.17-4.997-19.98 2.625-5.345 6.96-10.53 9.99-14.987 5.198-3.433 11.073-7.99 18.317-11.656 9.784-.346 13.604-3.214 23.312-3.33h24.977c5.65.565 8.44 5.583 13.32 9.99z" transform="matrix(.206 0 0 .177 398.383 146.601)" stroke-width="3.75" fill="#030"/><path d="M273.08 659.39c-6.66-38.298-16.652-133.21-16.652-174.84 1.665-31.64 121.56-139.87 124.89-151.53 3.33-11.656 64.94-99.91 74.93-126.55-24.976 18.316-66.605 98.243-74.93 106.57-8.326 8.326 18.316-83.257 9.99-111.56-8.325 33.303-21.646 118.22-31.637 126.55-4.994 4.996-91.582 104.9-101.57 101.57-9.99-3.33-36.632-19.98-31.636-29.972 4.995-9.99 71.6-71.6 74.93-93.248s8.327-73.266 14.987-78.26c6.662-4.997 16.653-29.974 24.978-49.956-21.646 9.99-24.977 39.964-33.302 41.63-8.326 1.664-28.308-33.304-28.308-33.304s13.32 38.298 14.986 46.624c1.666 8.326-6.66 63.275-11.656 69.936-4.995 6.66-41.628 53.284-48.29 54.95-6.66 1.665-24.976-76.597-24.976-91.583s13.32-73.266 0-76.597c-8.326 0-9.99 68.27-14.986 68.27s-16.652-68.27-16.652-68.27-6.66 31.638-3.33 53.284c-9.99 1.666-36.633-39.962-36.633-39.962s49.955 86.587 59.947 89.917c9.99 4.994 19.98 68.27 18.316 71.6s-49.954-16.65-59.945-23.312c-9.99-6.66-29.973-79.927-29.973-79.927s9.99 71.602-1.665 61.612c-11.656-9.99-29.972-18.317-39.963-33.303-9.99-14.987-4.995-76.598-4.995-76.598s-16.65 54.95-23.312 54.95c-6.66 0-28.307-73.266-28.307-73.266s3.33 79.927 13.32 84.922c9.99 4.995 159.85 104.9 161.52 114.9 1.666 9.99 19.983 48.288 29.974 59.944-1.666 21.647 6.66 161.52 9.99 194.82l29.973 9.99z" transform="matrix(.206 0 0 .177 329.779 130.685)" stroke-width="1pt" fill="#520900"/><path d="M-338.02 133.21c1.85 6.416 2.528 12.146 11.656 14.986 5.054 1.925 15.007 4.53 19.982 6.66 5.242 2.484 11.14 5.594 18.316 6.66 5.394 1.8 14.58 3.65 21.647 4.997 7.444 1.33 15.03 1.665 23.313 1.665 9.557-1.707 13.81-3.43 19.98-8.326 1.852-6.786 4.344-9.832 4.997-18.317.567-7.944 1.665-14.82 1.665-23.31-1.54-4.624-1.79-15.36-3.33-19.983-5.577-5.466-7.05-8.65-16.652-11.656-7.476-3.382-14.307-3.33-23.312-3.33-6.96 2.32-15.343 1.665-23.31 1.665h-23.312c-6.973 1.517-12.292 2.763-18.317 6.66-8.132 3.674-9.337 6.318-13.32 14.988-2.934 8.8-3.036 15.415 0 26.642z" transform="matrix(.206 0 0 .177 396.325 140.706)" stroke-width="3.75" fill="#030"/><path d="M-329.7 191.49c0-2.78-6.02 2.69-8.326 4.995-5.392 3.774-7.647 8.815-8.326 18.317-2.502 5.19 0 13.714 0 21.646 0 9.18.062 15.585 4.996 19.982 5.598 3.445 8.29 4.995 18.316 4.995h46.624c5.896-1.965 13.09-2.953 19.982-4.995 7.705-4.085 13.07-4.517 21.646-6.66 4.883-4.238 11.635-8.6 19.982-9.99 9.547-.456 15.257-3.79 21.647-8.327 8.217-2.054 15.636-6.365 21.648-9.99 4.837-3.29 8.31-7.416 11.656-13.322 3.396-7.924 4.482-12.894-1.665-21.646-12.144-4.415-6.11-9.19-14.988-13.32-4.062-2.454-13.524-5.674-18.316-8.327-8.293.615-14.192 2.68-23.312 3.33-4.71 2.356-14.368 1.666-21.647 1.666h-26.642c-7.968 0-16.35-.656-23.312 1.665-6.667 1.818-9.985 4.842-16.65 6.66-4.394 2.987-11.508 5.41-16.653 8.326l16.652-8.326c-4.393 2.987-11.507 5.41-23.312 13.322z" transform="matrix(.206 0 0 .177 395.296 142.475)" stroke-width="3.75" fill="#030"/><path d="M-186.5 49.95c3.314 0-5.2 3.98-8.326 6.66-4.01 7.063-4.474 13.422-6.66 19.98-2.566 5.773-5.727 13.067-6.66 19.983-3.14 7.494-4.88 10.226-4.997 19.982 0 7.677-.09 16.38 1.665 21.646 5.05 6.363 9.9 9.977 18.317 14.987 7.206 2.495 12.49 3.984 19.98 4.996h23.313c5.267 1.756 13.97 1.665 21.646 1.665 8.492-3.172 11.708-7.208 19.98-8.326 9.116-.828 10.688-4.642 14.987-11.656 3.998-5.168 5.674-11.013 6.66-18.316 0-8.4-.75-15.628-1.665-23.312-4.006-4.494-7.052-10.696-9.99-18.316-5.146-8.82-5.152-12.74-13.32-16.65-3.977-5.43-10.85-8.07-14.988-11.657-8.65-.618-15.218-1.694-21.646-4.995-7.678 0-16.38-.09-21.647 1.665-6.03 0-10.446.57-16.65 1.665z" transform="matrix(.206 0 0 .151 397.011 146.046)" stroke-width="3.75" fill="#030"/><path d="M-58.28 64.935c-.987 0-4.077 4.824-6.66 9.99-4.344 6.916-4.925 13.316-8.326 18.317-1.33 7.443-1.665 15.028-1.665 23.312.754 8.314 3.195 11.323 8.324 14.987 7.713 4.38 11.367 6.412 19.982 8.326 7.447.573 12.8 1.665 21.647 1.665 7.968 0 16.35.657 23.312-1.664 8.283 0 15.87-.336 23.312-1.665 3.823-3.24 12.04-6.14 16.65-8.324 5.483-6.642 8.107-13.245 11.657-18.317 0-9.823.078-15.565-4.995-23.313-3.622-6.388-7.962-9.32-13.323-14.986-6.718-2.336-12.38-7.195-19.982-8.325H-58.28z" transform="matrix(.206 0 0 .177 395.639 140.117)" stroke-width="3.75" fill="#030"/><path d="M76.596 76.59c-6.286 2.62-8.59 3.3-11.656 9.992-4.62 7.115-7.342 10.462-11.656 14.986-.99 6.664-3.643 13.88-6.66 18.317-.915 7.684-1.666 14.913-1.666 23.312 4.222 6.486 10.085 12.603 16.65 16.65 6.792 2.352 13.95 5.933 19.983 8.327 7.767 2.033 14.952 4.398 23.313 4.995 7.217 1.804 15.164 1.664 23.312 1.664 7.404-1.61 13.75-3.478 19.98-8.325 3.334-5.197 7.157-11.046 8.327-19.983 2.754-8.263.54-19.06-3.33-26.642-2.04-7.477-5.016-10.373-13.32-14.987-4.596-4.854-10.703-10.322-14.988-13.32-5.28-4.585-12.142-5.154-19.98-8.327-8.493-1.886-11.338-4.33-19.983-4.994l19.983 4.995c-8.488-1.885-11.333-4.33-28.304-6.66z" transform="matrix(.206 0 0 .177 393.581 146.896)" stroke-width="3.75" fill="#030"/><path d="M-51.62 146.53c-7.617 3.463-11.16 7.635-16.65 13.32 0 8.847 1.092 14.2 1.665 21.648 3.466 4.734 7.144 14.25 9.99 18.316 2.173 6.812 6.922 12.137 9.992 16.652 7.69 3.112 15.495 5.44 23.312 8.325 9.197 0 15.097 2.06 23.31 3.332 6.963 2.32 15.345 1.665 23.313 1.665 8.147 0 16.094-.14 23.312 1.665 7.703 1.37 13.396 4.36 21.647 4.995 4.74-.45 13.136-1.138 19.982-1.665 7.667-3.485 10.982-5.707 14.987-11.656 3.753-4.542 3.33-11.267 3.33-19.98 1.603-8.973 2.093-15.008-1.664-23.313-.108-8.96-1.817-13.172-3.33-21.647-3.006-6.01-5.647-8.65-11.657-11.656-5.465-3.808-12.864-5.998-18.317-9.99-7.433-.886-15.76-2.05-21.647-3.33-6.51-4.342-11.933-6.546-21.647-6.662-9.515-1.132-13.997-2.263-21.648 1.665-7.99.57-15.15 2.17-19.982 4.996-6.144.47-15.283.98-19.982 3.33-7.414 0-9.987 1.287-16.65 1.664l16.65-1.665c-7.414 0-9.987 1.287-18.316 9.99z" transform="matrix(.261 0 0 .137 390.788 152.189)" stroke-width="3.75" fill="#030"/><path d="M-123.22 278.07c-4.3-.632-17.278-1.665-26.642-1.665-8.747 0-15.86.58-23.312 3.33-7.975 1.537-13.883 4.047-19.982 6.66-5.053 2.394-10.953 4.83-14.986 8.326-4.955 3.37-9.13 6.336-13.32 13.322-4.477 6.422-4.945 10.56-8.327 18.317v23.31c.588 7.634 1.64 14.23 4.996 21.648 5.022 4.017 11.977 5.282 18.317 6.66 6.03 1.31 13.875 2.775 21.647 3.33 9.24 0 14.16.466 21.646 3.33 9.747-.36 11.606-2.627 19.982-6.66 9.314-3.692 14.86-5.06 23.312-9.99 5.173-4.08 8.578-10.985 11.656-18.317 4.69-7.574 7.91-14.885 11.656-21.646 1.804-7.218 1.665-15.164 1.665-23.312-2.22-6.258-5.752-8.905-9.99-14.986-4.617-5.05-6.673-8.946-9.992-13.32l9.99 13.32c-4.615-5.05-6.67-8.946-18.315-11.656z" transform="matrix(.206 0 0 .177 397.354 143.654)" stroke-width="3.75" fill="#030"/><path d="M0 318.04c6.927 1.02 14.39 1.206 23.312 0 7.405 1.994 12.863 5.647 18.317 8.326 3.056 5.665 7.338 14 11.655 18.316 1.874 6.872 4.64 9.755 8.326 16.652.92 6.795 3.183 13.617 0 19.98-3.795 4.746-9.757 7.516-14.985 9.992-6.902 3.688-10.937 5.046-19.982 6.66-7.444 1.33-15.03 1.666-23.312 1.666-8.012-1.43-14.19-2.757-21.646-3.33-7.414-1.324-15.898-2.007-23.312-3.33-4.813-2.816-11.026-5.127-16.65-6.66-3.908-3.726-9.56-7.954-14.987-11.657-4.19-7.502-8.004-10.206-11.656-16.652-3.318-4.876-4.892-11.17-4.997-19.98 2.625-5.345 6.96-10.53 9.99-14.987 5.198-3.433 11.073-7.99 18.317-11.656 9.784-.346 13.604-3.214 23.312-3.33h24.977c5.65.565 8.44 5.583 13.32 9.99z" transform="matrix(.264 0 0 .148 403.962 141.376)" stroke-width="3.75" fill="#030"/></g><g fill-rule="evenodd" stroke="#000" stroke-width="3.711" fill="#006a00"><path d="M200.16 613.18l4.71-7.064-12.952-2.355 9.42-9.418-12.952-4.71 12.952-9.42-12.952-7.064 14.13-5.887-7.065-11.773 14.13 2.355-5.887-14.13 16.484 7.065v-18.84l11.774 12.953 9.42-16.484 7.065 15.306 14.13-16.484 4.71 12.952 21.192-10.597-5.887 16.484 22.37-9.42-4.71 18.84 21.195-9.42-8.242 17.662 21.194 1.176-17.662 10.597 17.662 7.064-16.484 9.42 14.13 11.774c-45.136 20.802-79.674 27.474-131.87 9.42z" transform="matrix(.171 -.013 .009 .157 345.666 201.213)"/><path d="M200.16 613.18l4.71-7.064-12.952-2.355 9.42-9.418-12.952-4.71 12.952-9.42-12.952-7.064 14.13-5.887-7.065-11.773 14.13 2.355-5.887-14.13 16.484 7.065v-18.84l11.774 12.953 9.42-16.484 7.065 15.306 14.13-16.484 4.71 12.952 21.192-10.597-5.887 16.484 22.37-9.42-4.71 18.84 21.195-9.42-8.242 17.662 21.194 1.176-17.662 10.597 17.662 7.064-16.484 9.42 14.13 11.774c-45.136 20.802-79.674 27.474-131.87 9.42z" transform="matrix(.171 -.013 .009 .157 305.229 200.039)"/><path d="M200.16 613.18l4.71-7.064-12.952-2.355 9.42-9.418-12.952-4.71 12.952-9.42-12.952-7.064 14.13-5.887-7.065-11.773 14.13 2.355-5.887-14.13 16.484 7.065v-18.84l11.774 12.953 9.42-16.484 7.065 15.306 14.13-16.484 4.71 12.952 21.192-10.597-5.887 16.484 22.37-9.42-4.71 18.84 21.195-9.42-8.242 17.662 21.194 1.176-17.662 10.597 17.662 7.064-16.484 9.42 14.13 11.774c-45.136 20.802-79.674 27.474-131.87 9.42z" transform="matrix(.171 -.013 .009 .157 368.132 200.624)"/><path d="M200.16 613.18l4.71-7.064-12.952-2.355 9.42-9.418-12.952-4.71 12.952-9.42-12.952-7.064 14.13-5.887-7.065-11.773 14.13 2.355-5.887-14.13 16.484 7.065v-18.84l11.774 12.953 9.42-16.484 7.065 15.306 14.13-16.484 4.71 12.952 21.192-10.597-5.887 16.484 22.37-9.42-4.71 18.84 21.195-9.42-8.242 17.662 21.194 1.176-17.662 10.597 17.662 7.064-16.484 9.42 14.13 11.774c-45.136 20.802-79.674 27.474-131.87 9.42z" transform="matrix(.166 -.048 .032 .153 340.209 220.056)"/><path d="M200.16 613.18l4.71-7.064-12.952-2.355 9.42-9.418-12.952-4.71 12.952-9.42-12.952-7.064 14.13-5.887-7.065-11.773 14.13 2.355-5.887-14.13 16.484 7.065v-18.84l11.774 12.953 9.42-16.484 7.065 15.306 14.13-16.484 4.71 12.952 21.192-10.597-5.887 16.484 22.37-9.42-4.71 18.84 21.195-9.42-8.242 17.662 21.194 1.176-17.662 10.597 17.662 7.064-16.484 9.42 14.13 11.774c-45.136 20.802-79.674 27.474-131.87 9.42z" transform="matrix(.171 -.013 .009 .157 383.109 210.014)"/><path d="M200.16 613.18l4.71-7.064-12.952-2.355 9.42-9.418-12.952-4.71 12.952-9.42-12.952-7.064 14.13-5.887-7.065-11.773 14.13 2.355-5.887-14.13 16.484 7.065v-18.84l11.774 12.953 9.42-16.484 7.065 15.306 14.13-16.484 4.71 12.952 21.192-10.597-5.887 16.484 22.37-9.42-4.71 18.84 21.195-9.42-8.242 17.662 21.194 1.176-17.662 10.597 17.662 7.064-16.484 9.42 14.13 11.774c-45.136 20.802-79.674 27.474-131.87 9.42z" transform="matrix(.171 -.013 .009 .157 366.137 211.776)"/><path d="M200.16 613.18l4.71-7.064-12.952-2.355 9.42-9.418-12.952-4.71 12.952-9.42-12.952-7.064 14.13-5.887-7.065-11.773 14.13 2.355-5.887-14.13 16.484 7.065v-18.84l11.774 12.953 9.42-16.484 7.065 15.306 14.13-16.484 4.71 12.952 21.192-10.597-5.887 16.484 22.37-9.42-4.71 18.84 21.195-9.42-8.242 17.662 21.194 1.176-17.662 10.597 17.662 7.064-16.484 9.42 14.13 11.774c-45.136 20.802-79.674 27.474-131.87 9.42z" transform="matrix(.171 -.013 .009 .157 288.256 200.039)"/><path d="M200.16 613.18l4.71-7.064-12.952-2.355 9.42-9.418-12.952-4.71 12.952-9.42-12.952-7.064 14.13-5.887-7.065-11.773 14.13 2.355-5.887-14.13 16.484 7.065v-18.84l11.774 12.953 9.42-16.484 7.065 15.306 14.13-16.484 4.71 12.952 21.192-10.597-5.887 16.484 22.37-9.42-4.71 18.84 21.195-9.42-8.242 17.662 21.194 1.176-17.662 10.597 17.662 7.064-16.484 9.42 14.13 11.774c-45.136 20.802-79.674 27.474-131.87 9.42z" transform="matrix(.166 -.048 .032 .153 260.33 219.471)"/><path d="M200.16 613.18l4.71-7.064-12.952-2.355 9.42-9.418-12.952-4.71 12.952-9.42-12.952-7.064 14.13-5.887-7.065-11.773 14.13 2.355-5.887-14.13 16.484 7.065v-18.84l11.774 12.953 9.42-16.484 7.065 15.306 14.13-16.484 4.71 12.952 21.192-10.597-5.887 16.484 22.37-9.42-4.71 18.84 21.195-9.42-8.242 17.662 21.194 1.176-17.662 10.597 17.662 7.064-16.484 9.42 14.13 11.774c-45.136 20.802-79.674 27.474-131.87 9.42z" transform="matrix(.171 -.013 .009 .157 303.234 209.429)"/><path d="M200.16 613.18l4.71-7.064-12.952-2.355 9.42-9.418-12.952-4.71 12.952-9.42-12.952-7.064 14.13-5.887-7.065-11.773 14.13 2.355-5.887-14.13 16.484 7.065v-18.84l11.774 12.953 9.42-16.484 7.065 15.306 14.13-16.484 4.71 12.952 21.192-10.597-5.887 16.484 22.37-9.42-4.71 18.84 21.195-9.42-8.242 17.662 21.194 1.176-17.662 10.597 17.662 7.064-16.484 9.42 14.13 11.774c-45.136 20.802-79.674 27.474-131.87 9.42z" transform="matrix(.171 -.013 .009 .157 286.259 211.188)"/><path d="M200.16 613.18l4.71-7.064-12.952-2.355 9.42-9.418-12.952-4.71 12.952-9.42-12.952-7.064 14.13-5.887-7.065-11.773 14.13 2.355-5.887-14.13 16.484 7.065v-18.84l11.774 12.953 9.42-16.484 7.065 15.306 14.13-16.484 4.71 12.952 21.192-10.597-5.887 16.484 22.37-9.42-4.71 18.84 21.195-9.42-8.242 17.662 21.194 1.176-17.662 10.597 17.662 7.064-16.484 9.42 14.13 11.774c-45.136 20.802-79.674 27.474-131.87 9.42z" transform="matrix(-.347 -.015 .019 -.157 455.019 393.91)"/></g><path d="M356.34 196.48c0 22.512-18.995 6.66-38.298 6.66-19.302 0-36.632 17.517-39.962 0 0-9.19 25.655-23.312 44.957-23.312 14.308 1.666 36.634-4.196 33.303 16.652z" fill-rule="evenodd" transform="matrix(.283 0 0 .312 329.359 218.511)" stroke="#000" stroke-width="2.5" fill="#510800"/><path d="M356.34 196.48c0 22.512-18.995 6.66-38.298 6.66-19.302 0-36.632 17.517-39.962 0 0-9.19 25.655-23.312 44.957-23.312 14.308 1.666 36.634-4.196 33.303 16.652z" fill-rule="evenodd" transform="matrix(-.283 0 0 .312 423.694 217.095)" stroke="#000" stroke-width="2.5" fill="#ffc600"/><path d="M349.68 188.16c0 13.794-7.082 24.977-15.82 24.977-8.736 0-15.818-11.183-15.818-24.977s7.082-24.977 15.82-24.977c8.735 0 15.818 11.183 15.818 24.977z" fill-rule="evenodd" transform="matrix(.349 0 0 .34 328.603 212.622)" stroke="#000" stroke-width="2.5" fill="#520900"/><g fill-rule="evenodd" stroke="#000" stroke-width="1pt" transform="matrix(-.646 -.121 -.384 .646 583.105 96.99)"><path d="M273.75 383.58c-2.737 4.56 42.976 12.952 57.694 22.37 14.72 9.42 14.718 10.01 21.194 14.72l1.765-2.945C350.87 414.193 315.91 391.37 292 383.58c-6.805-2.273-10.3-13.248-12.95-8.83l-5.3 8.83z" transform="matrix(-.723 -.545 .52 -.758 322.39 677.92)" fill="#af8000"/><path d="M319.08 369.45l-25.315-5.887s-5.887 2.354-6.475 11.185c-.59 8.83 4.71 14.13 4.71 14.13l27.08-9.42V369.45z" transform="matrix(.844 -.297 .284 .885 -89.238 -64.18)" fill="gray"/><rect ry="3.532" rx="3.532" transform="matrix(.844 -.297 .284 .885 -19.207 -255.61)" height="19.428" width="7.064" y="534.62" x="175.71" fill="gray"/></g><path d="M244.77 87.42c7.322-5.948 11.157-3.72 17.65 3.1 9.322 9.815 41.317 58.855 46.312 63.019s4.24-6.418 10.344-1.388c3.032 3.727-10.437 17.026-13.737 14.57-6.412-5.022 3.914-5.376-.355-9.645-4.925-5.133-51.215-40.497-60.282-50.57-5.92-6.578-6.314-13.97.067-19.088z" fill-rule="evenodd" transform="matrix(.74 .166 .344 .548 178.12 70.575)" stroke="#000" stroke-width="1.25" fill="#923d09"/><g stroke="#000"><path d="M193.63 88.25c15.546 4.423 43.275 46.12 53.766 45.79 16.652-.48 83.233-77.56 72.564-88.252-7.4-8.246-67.94 41.192-71.852 44.126-.67-8.6-15.95-51.042-28.31-59.945-14.62-9.31-32.21-4.158-47.82-6.662-7.3-2.843-18.84-14.056-23.78-24.976 8.182-3.544 15.323-2.48 23.31-10.65 5.68-6.643 2.382-46.914.37-51.06-13.29-14.268 5.43-7.327-39.023-9.082-64.268-2.446-75.878 49.582-31.653 70.792-3.462 15.928-14.22 19.594-22.94 21.646-8.776.106-38.825-.763-55.545 12.49-33.403 24.55-8.925 30.903-15.352 35.8C.192 73.91-10.503 88.093-14.523 96.573c-10.472 4.996-99.485-4.995-116.5-1.664-16.42.965-56.467 15.818-73.15 26.64 3.565 14.143 241.51-7.602 249.27-2.496 5.946 3.345-2.705 51.237 2.01 54.95 1.66 9.062 116.54 5.828 125.6 5.828 7.558-18.86 15.39-81.558 20.926-91.583z" fill-rule="evenodd" transform="matrix(-.133 0 0 .212 332.905 192.714)" stroke-width="4.702" fill="#ffc600"/><path d="M174.9-96.568c1.543 25.457-7.118 3.304-38.37 3.304C75.97-98.3 97.246 5.932 97.246-26.24 71.018-39.95 52.41-126.53 126.86-123.17c23.54 0 44.96 7.858 48.045 26.603z" fill-rule="evenodd" transform="matrix(-.159 0 0 .148 336.647 193.602)" stroke-width="5.125"/><path d="M387.98 96.574c0 1.68-.172 7.957-.833 11.656-.445 3.74-1.54 8.077-2.498 10.823-.343 4.452-2.092 5.174-2.498 9.99-1.544 2.27-2.21 5.945-2.498 9.992 0 4.27.686 7.558.833 11.656.48 3.56 1.612 6.367 1.665 10.824 0 4.365-.005 7.55-1.665 9.99v5.83" transform="matrix(-.209 0 0 .212 406.585 186.109)" stroke-width="3.75" fill="none"/><path d="M383.81 76.592c.58 0 1.03 20.13 5.828 24.978 1.04 3.212 4.574 7.343 5.828 9.99 1.672 2.46 3.98 5.368 8.326 6.66h11.656c4.634 0 7.473.056 10.823-1.664 1.486-.8 2.532-1.846 3.33-3.33M442.09 115.72h.832c-2.327 0-1.092-.104 3.33 1.665 1.726 2.537 3.77 3.625 6.66 4.996 2.983 1.468 6.392 1.666 10.824 1.666 4.198-.354 6.74-1.686 9.16-3.33 4.042-1.31 4.814-2.936 5.827-7.494v-11.656c-.478-3.53-1.384-6.372-2.498-9.158-.42-1.258-.833-.705-.833-2.497M510.36 121.55c-.425 0-2.65 2.575-4.163 4.995-2.568.918-3.233 3.716-4.162 5.828-.67 2.675-1.666 2.86-1.666 6.66-1.678 3.71-2.205 7.008-2.498 10.824l2.497-10.823c-1.678 3.708-2.205 7.007-2.498 10.823M461.24 54.946h-.833c2.25 0 1.1-.053-3.33.833-1.817 2.27-4.807 4.304-7.493 5.826-2.977 1.825-5.367 4.01-8.326 4.996l8.326-4.996c-2.977 1.825-5.367 4.01-8.326 4.996M402.13 51.615h.833c-2.248 0-1.105-.054 3.33.833 2.936 1.39 4.752 2.89 7.493 4.995 1.29 1.935 3.257 2.305 4.163 5.828 1.573.848 2.123 1.67 2.497 4.164M427.11 29.968h4.163c4.53 0 6.733.68 10.824.833 3.538-.424 4.382-1.737 7.493-2.497M442.93 133.21c.14.66 1.652 4.256 2.498 5.828 1.517 2.512 3.538 4.914 4.163 8.326.97 2.905 1.527 6.23 1.666 9.99.76 3.503 1.264 6.62-.833 9.16-.898 3.29-2.57 5.69-4.162 9.157-1.11 0-.832-.277-.832.834M416.28 134.87v.833c0-2.248.055-1.105-.832 3.33-1.147 4.013-2.15 7.388-4.163 9.99-1.098 3.295-2.326 4.505-2.498 9.16.662 1.543.833 3.262.833 5.827M412.12 169.01v4.163c.908 1.21.55 1.294 1.665 1.665M343.02 128.21v.832c0-2.327-.258-.936 4.163.833 3.572.638 7.937 1.037 10.823 1.665 2.672 1.312 5.265 3.48 7.493 4.995 1.993 1.728 4.818 3.48 7.493 4.996 3.004 1.503 4.325 2.824 5.828 5.83.908 1.21.55 1.292 1.666 1.664" transform="matrix(-.209 0 0 .212 406.585 186.109)" stroke-width="3.75" fill="none"/><path d="M423.78-16.655c.123-.184 2.467-1.914 4.996-2.498 1.805-1.354 4.812-.74 6.66 0" transform="matrix(-.326 0 0 .212 458.34 186.857)" stroke-width="3" fill="none"/><path d="M445.42-19.153h.833c-2.248 0-1.106.054 3.33-.833 3.48-1.16 7.672-.832 11.656-.832 1.173.39.83.242.83 1.665M444.59-7.497v.833c0-2.327-.103-1.09 1.666 3.33.643 2.962 1.76 7.05.832 9.158-2.184 0-2.86-.274-4.163-.833" transform="matrix(-.254 0 0 .212 427.595 186.857)" stroke-width="3.402" fill="none"/><path d="M371.33-24.98c0 3.218-4.1 5.827-9.158 5.827s-9.158-2.61-9.158-5.828 4.1-5.83 9.158-5.83 9.158 2.61 9.158 5.83z" fill-rule="evenodd" transform="matrix(-.25 -.036 -.025 .119 403.931 205.969)" stroke-width="4.501"/><path d="M371.33-24.98c0 3.218-4.1 5.827-9.158 5.827s-9.158-2.61-9.158-5.828 4.1-5.83 9.158-5.83 9.158 2.61 9.158 5.83z" fill-rule="evenodd" transform="matrix(-.181 -.024 -.018 .078 383.091 194.01)" stroke-width="6.528"/><path d="M371.33-24.98c0 3.218-4.1 5.827-9.158 5.827s-9.158-2.61-9.158-5.828 4.1-5.83 9.158-5.83 9.158 2.61 9.158 5.83z" fill-rule="evenodd" transform="matrix(-.181 -.024 -.018 .078 377.594 193.479)" stroke-width="6.528"/><path d="M412.95 113.64c0 2.07-1.864 3.747-4.163 3.747-2.3 0-4.163-1.678-4.163-3.747s1.864-3.747 4.163-3.747c2.3 0 4.163 1.678 4.163 3.747zM469.57 119.89c0 1.38-1.305 2.498-2.914 2.498-1.61 0-2.914-1.12-2.914-2.498s1.305-2.498 2.914-2.498c1.61 0 2.914 1.12 2.914 2.498z" fill-rule="evenodd" transform="matrix(-.209 0 0 .212 406.585 186.109)" stroke-width="3.75"/><path d="M447.09 31.634v.833c0-2.796.197-1.03-4.163 3.33-3.724 1.785-5.164 3.667-6.66 6.66-1.742 3.85-2.342 6.613-2.498 10.824v6.662M419.61 30.8c.577 0 1.477 2.274 2.498 4.996 1.856 2.19 3.037 5.35 3.33 9.16 0 4.517.78 6.452.833 10.823v3.33M504.54 129.04c0 .48-2.6 1.455-4.163 3.33-3.16.428-5.964.833-9.99.833-.61-.916-1.836-1.217-3.33-1.665" transform="matrix(-.209 0 0 .212 406.585 186.109)" stroke-width="3.75" fill="none"/></g><g fill-rule="evenodd" stroke="#000" stroke-width="3.75" fill="#fff"><path d="M276.41 36.63l88.253 1.665V49.95s8.325 14.987 13.32 48.29c4.996 33.303 9.992 158.19 9.992 158.19l21.646 141.54s-13.32 21.647-23.31 19.982c-9.99-1.666-39.964-13.32-39.964-14.987 0-1.665-1.665-79.926-4.995-133.21-3.33-53.285-9.99-81.592-24.976-104.9-19.982 48.288-21.647 98.243-19.982 98.243s1.665 39.963 3.33 69.936c1.666 29.972-1.665 71.6-1.665 71.6l-58.28-3.33s1.665-36.633 3.33-64.94c1.666-28.307 6.745-41.625 8.327-73.266 1.748-34.963 4.202-53.32 6.66-109.9 3.238-45.74 14.687-75.258 17.9-103.24.87-7.133-.416-12.488.416-13.32z" transform="matrix(-.216 0 0 .137 387.215 218.875)"/><path d="M316.38 166.51s-8.326-13.32-11.656-36.633-3.33-28.307-3.33-28.307M318.04 164.84c0-1.665 4.995-29.972 4.995-29.972" transform="matrix(-.216 0 0 .137 387.215 218.875)"/></g><path d="M549.21 538.58c0 136.98-111.05 248.03-248.03 248.03S53.15 675.56 53.15 538.58 164.2 290.55 301.18 290.55 549.21 401.6 549.21 538.58z" stroke="#006a00" stroke-width="6.25" fill="none" transform="matrix(.479 0 0 .48 228.549 -9.892)"/><g stroke-width="1pt"><path d="M502.1 222.838c14.882 12.756-2.946 25.512-11.16 25.512-8.216 0-26.045-12.756-11.163-25.512-3.72 12.756 11.162 15.945 11.162 22.324 0-6.378 14.88-9.567 11.16-22.324z" fill-rule="evenodd" fill="#006a00"/><path d="M336.61 432.28c35.433 124.02-53.15 106.3-53.15 141.73 0-35.433-88.582-17.717-53.15-141.73" stroke="#000" fill="none" transform="matrix(.211 0 0 .18 431.832 145.306)"/></g><g stroke-width="1pt"><path d="M361.802 115.753c14.244-13.464 24.905 5.782 24.005 13.996-.9 8.214-15.466 24.626-26.45 8.326 12.207 5.138 16.99-9.39 23.298-8.68-6.307-.71-7.83-15.946-20.853-13.643z" fill-rule="evenodd" fill="#006a00"/><path d="M336.61 432.28c35.433 124.02-53.15 106.3-53.15 141.73 0-35.433-88.582-17.717-53.15-141.73" stroke="#000" fill="none" transform="matrix(.023 -.21 .179 .02 277.211 178.143)"/></g><g stroke-width="1pt"><path d="M399.87 374.243c-10.347 16.724-25.522.894-26.734-7.28-1.213-8.177 8.698-27.835 23.438-14.936-13.093-1.79-14.03 13.5-20.304 14.456 6.272-.956 11.604 13.376 23.6 7.76z" fill-rule="evenodd" fill="#006a00"/><path d="M336.61 432.28c35.433 124.02-53.15 106.3-53.15 141.73 0-35.433-88.582-17.717-53.15-141.73" stroke="#000" fill="none" transform="matrix(.032 .209 -.178 .027 466.44 292.806)"/></g><g stroke-width="1pt"><path d="M241.878 255.56c-14.102-13.608 4.506-25.188 12.72-24.68 8.215.51 25.265 14.297 9.603 26.06 4.5-12.454-10.186-16.546-9.797-22.89-.39 6.343-15.466 8.593-12.525 21.51z" fill-rule="evenodd" fill="#006a00"/><path d="M336.61 432.28c35.433 124.02-53.15 106.3-53.15 141.73 0-35.433-88.582-17.717-53.15-141.73" stroke="#000" fill="none" transform="matrix(-.21 -.013 .011 -.18 307.972 337.993)"/></g><g stroke-width="1pt"><path d="M491.216 190.62c17.433 9 2.934 25.475-5.085 27.353-8.018 1.877-28.33-6.45-16.706-22.252-.726 13.253 14.528 12.952 15.98 19.153-1.452-6.2 12.35-12.702 5.812-24.254z" fill-rule="evenodd" fill="#006a00"/><path d="M336.61 432.28c35.433 124.02-53.15 106.3-53.15 141.73 0-35.433-88.582-17.717-53.15-141.73" stroke="#000" fill="none" transform="matrix(.205 -.048 .041 .175 404.85 131.377)"/></g><g stroke-width="1pt"><path d="M325.927 124.505c9.212-17.292 25.434-2.496 27.194 5.563 1.76 8.058-6.82 28.24-22.41 16.334 13.2.957 13.11-14.315 19.312-15.66-6.2 1.345-12.49-12.58-24.095-6.237z" fill-rule="evenodd" fill="#006a00"/><path d="M336.61 432.28c35.433 124.02-53.15 106.3-53.15 141.73 0-35.433-88.582-17.717-53.15-141.73" stroke="#000" fill="none" transform="matrix(-.045 -.206 .175 -.038 265.498 210.687)"/></g><g stroke-width="1pt"><path d="M437.7 359.217c-4.11 19.205-23.797 9.438-27.708 2.162-3.912-7.278-1.206-29.093 17.078-21.934-12.97 2.728-8.68 17.415-14.28 20.427 5.598-3.012 15.484 8.664 24.91-.656z" fill-rule="evenodd" fill="#006a00"/><path d="M336.61 432.28c35.433 124.02-53.15 106.3-53.15 141.73 0-35.433-88.582-17.717-53.15-141.73" stroke="#000" fill="none" transform="matrix(.101 .186 -.158 .085 472.844 260.382)"/></g><g stroke-width="1pt"><path d="M249.36 288.672c-17.646-8.433-3.672-25.433 4.27-27.584 7.94-2.152 28.435 5.51 17.308 21.737.337-13.305-14.864-12.49-16.494-18.656 1.63 6.164-11.94 13.145-5.085 24.502z" fill-rule="evenodd" fill="#006a00"/><path d="M336.61 432.28c35.433 124.02-53.15 106.3-53.15 141.73 0-35.433-88.582-17.717-53.15-141.73" stroke="#000" fill="none" transform="matrix(-.204 .055 -.046 -.174 337.799 346.071)"/></g><g stroke-width="1pt"><path d="M473.536 165.853c19.418 2.764 11.11 23.128 4.146 27.548-6.963 4.422-28.88 3.244-23.067-15.536 3.65 12.774 17.965 7.46 21.367 12.846-3.402-5.386 7.512-16.087-2.446-24.857z" fill-rule="evenodd" fill="#006a00"/><path d="M336.61 432.28c35.433 124.02-53.15 106.3-53.15 141.73 0-35.433-88.582-17.717-53.15-141.73" stroke="#000" fill="none" transform="matrix(.178 -.113 .096 .152 372.417 138.447)"/></g><g stroke-width="1pt"><path d="M295.58 141.798c4.89-19.063 24.11-8.53 27.71-1.098 3.598 7.432 0 29.162-17.93 21.295 13.04-2.232 9.373-17.097 15.078-19.896-5.705 2.798-15.077-9.267-24.857-.302z" fill-rule="evenodd" fill="#006a00"/><path d="M336.61 432.28c35.433 124.02-53.15 106.3-53.15 141.73 0-35.433-88.582-17.717-53.15-141.73" stroke="#000" fill="none" transform="matrix(-.092 -.19 .161 -.079 257.006 240.38)"/></g><g stroke-width="1pt"><path d="M465.04 338.922c1.56 19.56-20.09 15.91-25.918 10.08-5.828-5.828-9.48-27.478 10.08-25.918-11.64 6.36-3.33 19.17-7.83 23.67 4.5-4.5 17.31 3.81 23.67-7.832z" fill-rule="evenodd" fill="#006a00"/><path d="M336.61 432.28c35.433 124.02-53.15 106.3-53.15 141.73 0-35.433-88.582-17.717-53.15-141.73" stroke="#000" fill="none" transform="matrix(.149 .149 -.127 .127 470.286 234.332)"/></g><g stroke-width="1pt"><path d="M262.603 316.865c-19.134-3.898-9.607-23.683-2.41-27.673 7.198-3.99 28.914-1.524 21.97 16.83-2.836-12.932-17.4-8.486-20.447-14.05 3.048 5.564-8.468 15.574.887 24.893z" fill-rule="evenodd" fill="#006a00"/><path d="M336.61 432.28c35.433 124.02-53.15 106.3-53.15 141.73 0-35.433-88.582-17.717-53.15-141.73" stroke="#000" fill="none" transform="matrix(-.185 .102 -.087 -.158 361.989 351.106)"/></g><g stroke-width="1pt"><path d="M447.57 142.687c19.417-2.48 16.716 19.338 11.16 25.44-5.554 6.103-26.964 10.773-26.255-8.858 6.84 11.338 19.24 2.427 23.918 6.714-4.677-4.287 3.047-17.486-8.823-23.297z" fill-rule="evenodd" fill="#006a00"/><path d="M336.61 432.28c35.433 124.02-53.15 106.3-53.15 141.73 0-35.433-88.582-17.717-53.15-141.73" stroke="#000" fill="none" transform="matrix(.142 -.156 .133 .121 342.944 143.166)"/></g><g stroke-width="1pt"><path d="M270.377 165.057c-.283-19.63 21.084-14.493 26.52-8.273 5.44 6.22 7.673 28.08-11.744 25.175 12.03-5.547 4.57-18.905 9.354-23.087-4.783 4.182-17.025-4.996-24.13 6.184z" fill-rule="evenodd" fill="#006a00"/><path d="M336.61 432.28c35.433 124.02-53.15 106.3-53.15 141.73 0-35.433-88.582-17.717-53.15-141.73" stroke="#000" fill="none" transform="matrix(-.139 -.159 .135 -.119 258.866 270.126)"/></g><g stroke-width="1pt"><path d="M483.726 311.245c6.165 18.638-15.707 20.14-22.748 15.838-7.04-4.303-15.733-24.484 3.614-27.53-9.78 8.893 1.33 19.4-1.967 24.82 3.295-5.42 17.7-.336 21.1-13.128z" fill-rule="evenodd" fill="#006a00"/><path d="M336.61 432.28c35.433 124.02-53.15 106.3-53.15 141.73 0-35.433-88.582-17.717-53.15-141.73" stroke="#000" fill="none" transform="matrix(.18 .11 -.093 .154 463.824 208.489)"/></g><g stroke-width="1pt"><path d="M283.84 341.516c-19.56 1.275-15.598-20.346-9.69-26.097 5.906-5.75 27.584-9.09 25.74 10.47-6.182-11.747-19.097-3.615-23.527-8.186 4.43 4.57-4.057 17.274 7.477 23.812z" fill-rule="evenodd" fill="#006a00"/><path d="M336.61 432.28c35.433 124.02-53.15 106.3-53.15 141.73 0-35.433-88.582-17.717-53.15-141.73" stroke="#000" fill="none" transform="matrix(-.152 .147 -.125 -.13 389.033 348.5)"/></g><g stroke-width="1pt"><path d="M420.798 125.53c18.567-6.164 20.156 15.708 15.892 22.75-4.264 7.04-24.36 15.732-27.478-3.615 8.91 9.78 19.346-1.33 24.768 1.967-5.42-3.295-.407-17.7-13.182-21.1z" fill-rule="evenodd" fill="#006a00"/><path d="M336.61 432.28c35.433 124.02-53.15 106.3-53.15 141.73 0-35.433-88.582-17.717-53.15-141.73" stroke="#000" fill="none" transform="matrix(.109 -.181 .154 .093 318.151 146.199)"/></g><g stroke-width="1pt"><path d="M252.48 196.64c-6.874-18.424 14.912-20.805 22.11-16.776 7.198 4.03 16.654 23.9-2.55 27.726 9.424-9.3-2.074-19.382 1.01-24.946-3.083 5.564-17.664 1.046-20.57 13.997z" fill-rule="evenodd" fill="#006a00"/><path d="M336.61 432.28c35.433 124.02-53.15 106.3-53.15 141.73 0-35.433-88.582-17.717-53.15-141.73" stroke="#000" fill="none" transform="matrix(-.184 -.103 .088 -.157 276.904 299.78)"/></g><g stroke-width="1pt"><path d="M496.52 287.282c8.22 17.788-13.31 21.868-20.782 18.425-7.47-3.442-18.373-22.465.478-27.78-8.7 9.993 3.508 19.117.85 24.893 2.658-5.775 17.522-2.427 19.454-15.538z" fill-rule="evenodd" fill="#006a00"/><path d="M336.61 432.28c35.433 124.02-53.15 106.3-53.15 141.73 0-35.433-88.582-17.717-53.15-141.73" stroke="#000" fill="none" transform="matrix(.192 .089 -.075 .163 465.137 187.566)"/></g><g stroke-width="1pt"><path d="M320.358 365.77c-18 7.724-21.513-13.99-17.875-21.384 3.638-7.393 22.943-17.77 27.76 1.293-9.76-9.018-19.204 2.958-24.91.123 5.706 2.835 1.967 17.646 15.025 19.967z" fill-rule="evenodd" fill="#006a00"/><path d="M336.61 432.28c35.433 124.02-53.15 106.3-53.15 141.73 0-35.433-88.582-17.717-53.15-141.73" stroke="#000" fill="none" transform="matrix(-.093 .19 -.161 -.08 421.658 337.412)"/></g><g stroke-width="1pt"><path d="M503.897 257.807c11.764 15.662-8.404 24.157-16.423 22.358-8.02-1.8-22.66-18.107-5.368-27.248-6.396 11.587 7.44 17.947 6.06 24.15 1.38-6.202 16.6-6.043 15.73-19.26z" fill-rule="evenodd" fill="#006a00"/><path d="M336.61 432.28c35.433 124.02-53.15 106.3-53.15 141.73 0-35.433-88.582-17.717-53.15-141.73" stroke="#000" fill="none" transform="matrix(.206 .046 -.039 .176 452.213 166.998)"/></g><g stroke-width="1pt"><path d="M392.004 118.223c16.866-9.992 23.14 11.012 20.48 18.797s-20.48 20.57-27.708 2.356c10.842 7.636 18.673-5.438 24.697-3.383-6.023-2.055-4.216-17.185-17.47-17.77z" fill-rule="evenodd" fill="#006a00"/><path d="M336.61 432.28c35.433 124.02-53.15 106.3-53.15 141.73 0-35.433-88.582-17.717-53.15-141.73" stroke="#000" fill="none" transform="matrix(.068 -.2 .17 .059 295.762 160.446)"/></g><g stroke-width="1pt"><path d="M357.62 376.887c-16.015 11.267-23.774-9.24-21.7-17.22 2.072-7.98 18.832-22.112 27.335-4.465-11.32-6.803-18.142 6.856-24.272 5.262 6.13 1.594 5.44 16.848 18.638 16.423z" fill-rule="evenodd" fill="#006a00"/><path d="M336.61 432.28c35.433 124.02-53.15 106.3-53.15 141.73 0-35.433-88.582-17.717-53.15-141.73" stroke="#000" fill="none" transform="matrix(-.053 .204 -.174 -.046 450.704 328.33)"/></g><g stroke-width="1pt"><path d="M244.03 223.926c-10.77-16.442 9.922-23.692 17.823-21.384 7.902 2.308 21.51 19.577 3.65 27.655 7.122-11.214-6.307-18.46-4.535-24.59-1.772 6.13-16.973 5.013-16.937 18.32z" fill-rule="evenodd" fill="#006a00"/><path d="M336.61 432.28c35.433 124.02-53.15 106.3-53.15 141.73 0-35.433-88.582-17.717-53.15-141.73" stroke="#000" fill="none" transform="matrix(-.203 -.059 .05 -.173 290.536 319.21)"/></g><g stroke="#000"><path d="M193.63 88.25c15.546 4.423 43.275 46.12 53.766 45.79 16.652-.48 83.233-77.56 72.564-88.252-7.4-8.246-67.94 41.192-71.852 44.126-.67-8.6-15.95-51.042-28.31-59.945-14.62-9.31-32.21-4.158-47.82-6.662-7.3-2.843-18.84-14.056-23.78-24.976 8.182-3.544 15.323-2.48 23.31-10.65 5.68-6.643 2.382-46.914.37-51.06-13.29-14.268 5.43-7.327-39.023-9.082-64.268-2.446-75.878 49.582-31.653 70.792-3.462 15.928-14.22 19.594-22.94 21.646-8.776.106-38.825-.763-55.545 12.49-33.403 24.55-8.925 30.903-15.352 35.8C.192 73.91-10.503 88.093-14.523 96.573c-10.472 4.996-99.485-4.995-116.5-1.664-16.42.965-56.467 15.818-73.15 26.64 3.565 14.143 241.51-7.602 249.27-2.496 5.946 3.345-2.705 51.237 2.01 54.95 1.66 9.062 116.54 5.828 125.6 5.828 7.558-18.86 15.39-81.558 20.926-91.583z" fill-rule="evenodd" transform="matrix(.133 0 0 .212 417.598 194.31)" stroke-width="4.702" fill="#520900"/><path d="M174.9-96.568c1.543 25.457-7.118 3.304-38.37 3.304C75.97-98.3 97.246 5.932 97.246-26.24 71.018-39.95 52.41-126.53 126.86-123.17c23.54 0 44.96 7.858 48.045 26.603z" fill-rule="evenodd" transform="matrix(.16 0 0 .149 413.854 195.201)" stroke-width="5.125"/><path d="M387.98 96.574c0 1.68-.172 7.957-.833 11.656-.445 3.74-1.54 8.077-2.498 10.823-.343 4.452-2.092 5.174-2.498 9.99-1.544 2.27-2.21 5.945-2.498 9.992 0 4.27.686 7.558.833 11.656.48 3.56 1.612 6.367 1.665 10.824 0 4.365-.005 7.55-1.665 9.99v5.83" transform="matrix(.21 0 0 .212 343.806 187.695)" stroke-width="3.75" fill="none"/><path d="M383.81 76.592c.58 0 1.03 20.13 5.828 24.978 1.04 3.212 4.574 7.343 5.828 9.99 1.672 2.46 3.98 5.368 8.326 6.66h11.656c4.634 0 7.473.056 10.823-1.664 1.486-.8 2.532-1.846 3.33-3.33M442.09 115.72h.832c-2.327 0-1.092-.104 3.33 1.665 1.726 2.537 3.77 3.625 6.66 4.996 2.983 1.468 6.392 1.666 10.824 1.666 4.198-.354 6.74-1.686 9.16-3.33 4.042-1.31 4.814-2.936 5.827-7.494v-11.656c-.478-3.53-1.384-6.372-2.498-9.158-.42-1.258-.833-.705-.833-2.497M510.36 121.55c-.425 0-2.65 2.575-4.163 4.995-2.568.918-3.233 3.716-4.162 5.828-.67 2.675-1.666 2.86-1.666 6.66-1.678 3.71-2.205 7.008-2.498 10.824l2.497-10.823c-1.678 3.708-2.205 7.007-2.498 10.823M461.24 54.946h-.833c2.25 0 1.1-.053-3.33.833-1.817 2.27-4.807 4.304-7.493 5.826-2.977 1.825-5.367 4.01-8.326 4.996l8.326-4.996c-2.977 1.825-5.367 4.01-8.326 4.996M402.13 51.615h.833c-2.248 0-1.105-.054 3.33.833 2.936 1.39 4.752 2.89 7.493 4.995 1.29 1.935 3.257 2.305 4.163 5.828 1.573.848 2.123 1.67 2.497 4.164M427.11 29.968h4.163c4.53 0 6.733.68 10.824.833 3.538-.424 4.382-1.737 7.493-2.497M442.93 133.21c.14.66 1.652 4.256 2.498 5.828 1.517 2.512 3.538 4.914 4.163 8.326.97 2.905 1.527 6.23 1.666 9.99.76 3.503 1.264 6.62-.833 9.16-.898 3.29-2.57 5.69-4.162 9.157-1.11 0-.832-.277-.832.834M416.28 134.87v.833c0-2.248.055-1.105-.832 3.33-1.147 4.013-2.15 7.388-4.163 9.99-1.098 3.295-2.326 4.505-2.498 9.16.662 1.543.833 3.262.833 5.827M412.12 169.01v4.163c.908 1.21.55 1.294 1.665 1.665M343.02 128.21v.832c0-2.327-.258-.936 4.163.833 3.572.638 7.937 1.037 10.823 1.665 2.672 1.312 5.265 3.48 7.493 4.995 1.993 1.728 4.818 3.48 7.493 4.996 3.004 1.503 4.325 2.824 5.828 5.83.908 1.21.55 1.292 1.666 1.664" transform="matrix(.21 0 0 .212 343.806 187.695)" stroke-width="3.75" fill="none"/><path d="M423.78-16.655c.123-.184 2.467-1.914 4.996-2.498 1.805-1.354 4.812-.74 6.66 0" transform="matrix(.327 0 0 .212 291.973 188.44)" stroke-width="3" fill="none"/><path d="M445.42-19.153h.833c-2.248 0-1.106.054 3.33-.833 3.48-1.16 7.672-.832 11.656-.832 1.173.39.83.242.83 1.665M444.59-7.497v.833c0-2.327-.103-1.09 1.666 3.33.643 2.962 1.76 7.05.832 9.158-2.184 0-2.86-.274-4.163-.833" transform="matrix(.254 0 0 .212 322.767 188.44)" stroke-width="3.402" fill="none"/><path d="M371.33-24.98c0 3.218-4.1 5.827-9.158 5.827s-9.158-2.61-9.158-5.828 4.1-5.83 9.158-5.83 9.158 2.61 9.158 5.83z" fill-rule="evenodd" transform="matrix(.251 -.036 .025 .119 346.467 207.589)" stroke-width="4.501"/><path d="M371.33-24.98c0 3.218-4.1 5.827-9.158 5.827s-9.158-2.61-9.158-5.828 4.1-5.83 9.158-5.83 9.158 2.61 9.158 5.83z" fill-rule="evenodd" transform="matrix(.181 -.024 .018 .078 367.338 195.606)" stroke-width="6.528"/><path d="M371.33-24.98c0 3.218-4.1 5.827-9.158 5.827s-9.158-2.61-9.158-5.828 4.1-5.83 9.158-5.83 9.158 2.61 9.158 5.83z" fill-rule="evenodd" transform="matrix(.181 -.024 .018 .078 372.845 195.077)" stroke-width="6.528"/><path d="M412.95 113.64c0 2.07-1.864 3.747-4.163 3.747-2.3 0-4.163-1.678-4.163-3.747s1.864-3.747 4.163-3.747c2.3 0 4.163 1.678 4.163 3.747zM469.57 119.89c0 1.38-1.305 2.498-2.914 2.498-1.61 0-2.914-1.12-2.914-2.498s1.305-2.498 2.914-2.498c1.61 0 2.914 1.12 2.914 2.498z" fill-rule="evenodd" transform="matrix(.21 0 0 .212 343.806 187.695)" stroke-width="3.75"/><path d="M447.09 31.634v.833c0-2.796.197-1.03-4.163 3.33-3.724 1.785-5.164 3.667-6.66 6.66-1.742 3.85-2.342 6.613-2.498 10.824v6.662M419.61 30.8c.577 0 1.477 2.274 2.498 4.996 1.856 2.19 3.037 5.35 3.33 9.16 0 4.517.78 6.452.833 10.823v3.33M504.54 129.04c0 .48-2.6 1.455-4.163 3.33-3.16.428-5.964.833-9.99.833-.61-.916-1.836-1.217-3.33-1.665" transform="matrix(.21 0 0 .212 343.806 187.695)" stroke-width="3.75" fill="none"/></g><g fill-rule="evenodd" stroke="#000" stroke-width="3.75" fill="#fff"><path d="M276.41 36.63l88.253 1.665V49.95s8.325 14.987 13.32 48.29c4.996 33.303 9.992 158.19 9.992 158.19l21.646 141.54s-13.32 21.647-23.31 19.982c-9.99-1.666-39.964-13.32-39.964-14.987 0-1.665-1.665-79.926-4.995-133.21-3.33-53.285-9.99-81.592-24.976-104.9-19.982 48.288-21.647 98.243-19.982 98.243s1.665 39.963 3.33 69.936c1.666 29.972-1.665 71.6-1.665 71.6l-58.28-3.33s1.665-36.633 3.33-64.94c1.666-28.307 6.745-41.625 8.327-73.266 1.748-34.963 4.202-53.32 6.66-109.9 3.238-45.74 14.687-75.258 17.9-103.24.87-7.133-.416-12.488.416-13.32z" transform="matrix(.216 0 0 .137 363.079 220.128)"/><path d="M316.38 166.51s-8.326-13.32-11.656-36.633-3.33-28.307-3.33-28.307M318.04 164.84c0-1.665 4.995-29.972 4.995-29.972" transform="matrix(.216 0 0 .137 363.079 220.128)"/></g><path d="M349.68 188.16c0 13.794-7.082 24.977-15.82 24.977-8.736 0-15.818-11.183-15.818-24.977s7.082-24.977 15.82-24.977c8.735 0 15.818 11.183 15.818 24.977z" fill-rule="evenodd" transform="matrix(.349 0 0 .34 189.166 213.332)" stroke="#000" stroke-width="2.5" fill="#ffc600"/><g stroke-width="1pt"><g fill-rule="evenodd" stroke="#000"><path d="M212.6 892.91s53.15-17.716 70.867-17.716c17.716 0 17.716 17.716 19.135 18.212l-1.42 34.937H212.6V892.91z" transform="matrix(.211 0 0 .25 289.454 93.589)" fill="#00cfe6"/><path d="M265.75 892.91s0-17.716 17.717-17.716c17.716 0 35.433-.496 53.15 0v53.15H265.75V892.91z" transform="matrix(.211 0 0 -.25 296.931 562.194)" fill="#00cfe6"/><path d="M212.6 892.91s53.15-17.716 70.867-17.716c17.716 0 17.716 17.716 19.135 18.212l-1.42 34.937H212.6V892.91z" transform="matrix(-.211 0 0 .25 468.888 93.644)" fill="#00cfe6"/><path d="M265.75 892.91s0-17.716 17.717-17.716c17.716 0 35.433-.496 53.15 0v53.15H265.75V892.91z" transform="matrix(-.211 0 0 -.25 461.412 562.244)" fill="#00cfe6"/><path d="M249.45 875.2s0-17.717-17.716-17.717h53.15L249.45 875.2z" transform="matrix(-.211 0 0 -.25 450.497 557.819)" fill="#fff"/><path d="M159.45 892.91l106.3 53.15s-36.04 33.3-70.866 35.433c-17.717 0-35.433-35.433-35.433-35.433v-53.15z" transform="matrix(-.246 0 0 .25 474.496 93.643)" fill="#00cfe6"/><path d="M249.45 892.91c.71-8.858-2.214-35.434-19.93-35.434h55.363c17.717 0 35.434 17.717 35.434 35.434l-1.42 35.432H249.45V892.91z" transform="matrix(-.211 0 0 .25 457.973 98.073)" fill="#fff"/><path d="M249.45 875.2s0-17.717-17.716-17.717h53.15L249.45 875.2z" transform="matrix(.211 0 0 -.25 307.846 557.769)" fill="#fff"/><path d="M159.45 892.91l106.3 53.15s-36.04 33.3-70.866 35.433c-17.717 0-35.433-35.433-35.433-35.433v-53.15z" transform="matrix(.246 0 0 .25 283.847 93.588)" fill="#00cfe6"/><path d="M249.45 892.91c.71-8.858-2.214-35.434-19.93-35.434h55.363c17.717 0 35.434 17.717 35.434 35.434l-1.42 35.432H249.45V892.91z" transform="matrix(.211 0 0 .25 300.37 98.018)" fill="#fff"/><path d="M88.802 891.9c-.11 1.012 17.607-34.42 53.04-34.42s177.16 70.865 247.92 70.865c70.975 0 196.65-72.56 230.42-70.866 33.773 1.693 53.52 37.16 53.15 35.432-.374-1.728-17.717 53.15-17.717 53.15 0-17.716-17.717-35.433-35.433-35.433-17.717 0-106.3 70.865-230.42 70.865-123.91 0-212.49-70.866-230.21-70.866-17.717 0-35.433 17.715-35.433 35.432l-35.32-54.16z" transform="matrix(.211 0 0 .25 296.908 93.644)" fill="#fff"/></g><path d="M415.675 324.227l-3.256-9.938 3.327-1.527.385 1.173-2.72 1.247.998 3.044 2.546-1.168.38 1.164-2.545 1.167 1.11 3.384 2.825-1.296.384 1.174-3.435 1.575zM401.72 330.722l-3.257-9.938.61-.28 2.87 8.765 2.267-1.04.384 1.173-2.875 1.32zM397.495 332.705l-3.255-9.938 3.104-1.424.385 1.173-2.497 1.145 1.008 3.077 2.16-.99.385 1.174-2.16.99 1.48 4.516-.61.28zM360.04 332.432l2.142-10.238 1.253.37-.027 7.685c-.004.714-.01 1.25-.017 1.603.15-.352.377-.866.68-1.54l2.995-6.68 1.12.328-2.14 10.24-.804-.237 1.794-8.57-3.62 8.032-.752-.22.004-9.253-1.823 8.716-.803-.236zM359.44 321.873l.794.39-1.98 5.643c-.344.98-.686 1.727-1.025 2.24-.34.51-.75.856-1.236 1.045-.48.187-1.01.135-1.587-.15-.56-.277-.965-.658-1.21-1.15-.248-.492-.342-1.073-.286-1.744.058-.675.27-1.53.632-2.564l1.98-5.642.793.39-1.978 5.636c-.297.85-.47 1.5-.516 1.95-.04.447.017.837.175 1.17.16.335.412.587.752.755.583.288 1.073.28 1.473-.03.4-.31.813-1.075 1.243-2.302l1.978-5.635zM343.857 314.908l.593.326-2.177 5.593c-.38.972-.73 1.716-1.056 2.234-.325.517-.69.88-1.098 1.096-.405.212-.822.196-1.254-.04-.42-.232-.703-.575-.847-1.036-.147-.46-.16-1.015-.046-1.668.118-.657.376-1.497.775-2.524l2.177-5.592.593.326-2.176 5.586c-.327.84-.533 1.482-.617 1.92-.08.437-.076.81.015 1.124.094.312.267.54.522.68.436.24.83.198 1.18-.128.353-.325.765-1.094 1.238-2.31l2.175-5.586zM333.28 316.634l.6.202c-.163.5-.257.932-.284 1.298-.022.362.03.695.16 1.002.13.3.322.52.577.66.226.125.454.163.683.113.23-.05.436-.178.617-.383.185-.21.336-.463.452-.76.12-.306.18-.593.187-.862.007-.273-.053-.54-.18-.796-.08-.17-.286-.47-.616-.907-.327-.444-.537-.804-.628-1.084-.12-.36-.162-.75-.13-1.165.037-.416.142-.85.315-1.292.19-.49.432-.91.725-1.262.295-.355.608-.575.94-.66.332-.085.65-.043.95.122.332.183.58.46.742.832.165.37.23.816.19 1.34-.038.524-.163 1.073-.374 1.646l-.604-.22c.208-.63.283-1.148.228-1.557-.053-.41-.252-.708-.597-.898-.358-.197-.675-.2-.952-.004-.27.193-.486.49-.642.89-.135.347-.188.666-.16.954.026.288.234.683.622 1.187.392.5.644.885.754 1.16.16.403.224.84.192 1.307-.03.466-.146.957-.348 1.477-.2.515-.458.963-.773 1.347-.313.378-.648.625-1.004.74-.35.11-.687.076-1.007-.1-.405-.223-.696-.537-.872-.944-.172-.405-.238-.905-.196-1.502.046-.6.19-1.227.435-1.88zM418.875 316.674c-.54-1.648-.757-3.034-.65-4.152.102-1.124.478-1.834 1.127-2.13.425-.196.88-.153 1.365.13s.944.774 1.38 1.48c.436.7.817 1.544 1.143 2.54.33 1.006.53 1.952.603 2.834.072.88.003 1.608-.207 2.177-.213.564-.52.937-.92 1.12-.432.2-.893.15-1.382-.145-.49-.293-.95-.792-1.38-1.493s-.793-1.49-1.08-2.36zm.635-.267c.392 1.197.85 2.073 1.374 2.628.525.552 1.012.723 1.462.517.46-.21.72-.73.787-1.565.07-.83-.105-1.886-.524-3.165-.266-.81-.56-1.485-.885-2.028-.324-.548-.662-.93-1.015-1.147-.352-.223-.68-.266-.984-.126-.43.198-.697.69-.8 1.474-.1.78.094 1.92.584 3.413zM410.328 326.565l-3.256-9.938 2.04-.936c.41-.187.752-.24 1.025-.157.27.08.544.314.82.708.276.395.503.864.682 1.41.23.706.32 1.35.267 1.93-.054.58-.28 1.036-.678 1.37.215.094.39.203.528.326.294.27.606.635.94 1.09l1.686 2.34-.767.35-1.286-1.787c-.372-.52-.668-.906-.888-1.17-.218-.264-.395-.44-.528-.522-.13-.084-.252-.132-.362-.138-.08 0-.198.035-.355.107l-.707.324 1.447 4.416-.61.28zm-1.21-5.83l1.31-.6c.277-.13.475-.29.592-.484.115-.2.17-.45.163-.76-.01-.313-.067-.63-.172-.95-.152-.47-.358-.82-.617-1.05-.256-.232-.555-.27-.896-.112l-1.456.667 1.078 3.29zM403.368 324.1c-.54-1.65-.758-3.035-.652-4.152.104-1.124.48-1.835 1.128-2.132.425-.195.88-.152 1.365.13.484.282.943.775 1.38 1.48.435.7.816 1.546 1.142 2.54.33 1.008.53 1.953.604 2.835.07.88.002 1.61-.208 2.178-.213.565-.52.937-.92 1.12-.432.2-.893.152-1.382-.144-.49-.294-.95-.792-1.38-1.494-.433-.7-.792-1.49-1.078-2.36zm.634-.268c.392 1.197.85 2.073 1.374 2.628.525.552 1.012.723 1.462.517.46-.21.722-.73.788-1.565.07-.83-.105-1.886-.524-3.164-.265-.81-.56-1.486-.885-2.028-.324-.548-.662-.93-1.015-1.148-.352-.223-.68-.265-.984-.126-.43.198-.697.69-.8 1.474-.1.78.095 1.918.584 3.412zM368.257 334.853L369.5 324.4l2.41.4c.492.08.87.253 1.14.516.274.258.468.62.582 1.09.118.467.148.938.09 1.42-.052.445-.177.853-.373 1.223-.197.37-.46.65-.79.844.367.25.628.614.782 1.095.158.48.2 1.027.128 1.635-.058.488-.177.933-.356 1.336-.175.398-.37.697-.584.893-.214.198-.47.332-.767.403-.295.068-.647.07-1.056.002l-2.45-.405zm1.57-5.92l1.39.23c.377.062.652.065.825.014.23-.07.412-.218.55-.442.14-.223.23-.52.274-.885.04-.346.026-.66-.045-.937-.07-.284-.194-.488-.373-.614-.178-.133-.498-.236-.96-.313l-1.284-.212-.376 3.158zm-.573 4.826l1.6.263c.274.046.47.06.585.047.2-.026.376-.094.524-.204.147-.113.278-.288.392-.525.116-.24.193-.53.232-.86.047-.39.026-.738-.063-1.044-.088-.31-.235-.54-.44-.69-.203-.155-.51-.265-.918-.333l-1.486-.246-.426 3.592zM376.143 336.723v-10.58h2.874c.577 0 1.016.096 1.317.288.3.19.54.523.72 1.005.18.48.27 1.01.27 1.594 0 .75-.148 1.382-.446 1.9-.298.512-.757.838-1.38.98.227.177.4.352.518.525.25.376.488.845.71 1.408l1.13 2.88h-1.08l-.857-2.2c-.252-.638-.46-1.122-.62-1.46-.162-.336-.31-.573-.438-.707-.126-.133-.256-.23-.39-.28-.097-.036-.256-.053-.477-.053H377v4.7h-.857zm.858-5.91h1.844c.393 0 .7-.067.92-.196.22-.135.388-.345.504-.634.115-.294.172-.613.172-.954 0-.5-.11-.912-.336-1.235-.22-.322-.572-.484-1.052-.484h-2.05v3.503zM383.417 336.11l.91-10.928.91-.192 4.156 9.857-.963.204-1.212-2.996-2.67.563-.234 3.303-.897.19zm1.21-4.664l2.164-.457-1.093-2.743c-.332-.834-.59-1.52-.772-2.064.017.685 0 1.373-.05 2.06l-.25 3.203zM343.395 325.857l3.77-9.68 1.68.923c.343.19.578.44.707.75.132.308.176.698.133 1.17-.04.472-.145.93-.32 1.374-.16.413-.364.773-.61 1.082s-.518.517-.815.628c.204.32.298.726.282 1.22-.015.494-.132 1.024-.35 1.587-.177.453-.387.85-.63 1.195-.238.338-.464.58-.676.717-.213.14-.44.21-.68.21-.236 0-.498-.078-.783-.235l-1.708-.94zm2.78-5.288l.967.532c.263.145.466.21.61.2.187-.014.364-.114.526-.297.165-.18.314-.442.446-.78.125-.322.2-.624.222-.904.024-.286-.012-.508-.11-.67-.097-.164-.306-.335-.63-.513l-.894-.492-1.138 2.924zm-1.742 4.47l1.115.613c.192.105.332.164.422.177.157.02.305-.005.445-.076.14-.074.284-.21.434-.41.15-.206.287-.464.406-.77.14-.362.22-.698.237-1.01.02-.315-.026-.568-.14-.756-.106-.194-.303-.368-.59-.525l-1.035-.57-1.295 3.327z"/></g><g><path d="M212.6 432.28v106.3c0 70.866 88.583 106.3 88.583 106.3s88.583-35.433 88.583-106.3v-106.3h-177.17z" fill-rule="evenodd" transform="matrix(.422 0 0 .397 249.216 46.772)" stroke="#000" stroke-width="1pt" fill="#00daec"/><path d="M212.6 432.28v106.3c0 8.858 1.384 17.163 3.806 24.914l84.777-42.63V432.28H212.6z" fill-rule="evenodd" transform="matrix(.422 0 0 .397 249.216 46.772)" stroke="#000" stroke-width="1pt" fill="#fff"/><path d="M212.6 432.28v106.3c0 8.858 1.384 17.163 3.806 24.914l84.777-42.63V432.28H212.6z" fill-rule="evenodd" transform="matrix(-.422 0 0 .397 503.231 46.772)" stroke="#000" stroke-width="1pt" fill="#fff300"/><g fill-rule="evenodd" transform="matrix(.422 0 0 .397 249.216 46.772)" stroke="#000" stroke-width="1.25"><path d="M244.77 87.42c7.322-5.948 11.157-3.72 17.65 3.1 9.322 9.815 41.317 58.855 46.312 63.019s4.24-6.418 10.344-1.388c3.032 3.727-10.437 17.026-13.737 14.57-6.412-5.022 3.914-5.376-.355-9.645-4.925-5.133-51.215-40.497-60.282-50.57-5.92-6.578-6.314-13.97.067-19.088z" transform="matrix(.639 .237 .142 .702 58.901 338.88)" fill="#923d09"/><rect ry="1.293" rx="2.606" transform="matrix(.756 .655 -.586 .81 0 0)" height="66.045" width="5.212" y="181.35" x="495.52" fill="#af8000"/><path fill="#b0b0d4" d="M266.77 451.975l24.416 16.333-12.096 14.48-24.415-16.332z"/></g><g stroke="#000" fill-rule="evenodd" transform="matrix(.422 0 0 .397 249.216 46.772)"><path d="M385.112 528.567c4.885-2.105-27.333-35.603-33.785-51.842-6.452-16.24-6.108-16.717-8.617-24.322l-3.15 1.36c.805 4.93 15.87 43.87 30.735 64.15 4.198 5.82.63 16.77 5.36 14.73l9.457-4.076z" stroke-width="1pt" fill="#af8000"/><path d="M341.548 453.55l-25.872 2.485s-4.83 4.107-2.573 12.665c2.255 8.558 8.965 11.892 8.965 11.892l22.668-17.557-3.188-9.486z" stroke-width="1pt" fill="gray"/><rect ry="3.532" rx="3.532" transform="rotate(-18.579)" height="19.428" width="7.064" y="534.62" x="175.71" stroke-width="1pt" fill="gray"/><path d="M239.61 381.52c0 7.316-1.58 13.246-3.532 13.246-1.95 0-3.533-5.93-3.533-13.246 0-7.316 1.582-13.246 3.533-13.246s3.532 5.93 3.532 13.246z" transform="matrix(.745 -.716 .635 .393 -105.9 523.83)" stroke-width="1pt" fill="#cf0000"/><path d="M239.61 381.52c0 7.316-1.58 13.246-3.532 13.246-1.95 0-3.533-5.93-3.533-13.246 0-7.316 1.582-13.246 3.533-13.246s3.532 5.93 3.532 13.246z" transform="matrix(-.978 .311 .027 .755 595.47 104.78)" stroke-width="1pt" fill="#cf0000"/><path stroke-width="1.153" fill="#b0b0d4" d="M310.69 508.867l67.746-40.383 8.887 15.42-67.746 40.38z"/></g><path d="M231.36 591.4l8.83-7.065s1.767 8.83 7.065 8.83 8.83-7.652 8.83-7.652 0 7.653 5.888 7.653 10.597-7.653 10.597-7.064c0 .588.588 7.064 5.298 7.064s10.597-6.476 10.597-6.476.59 7.654 5.887 7.065c5.3-.59 7.065-8.242 7.653-7.653.59.588 4.12 7.653 8.242 7.064s10.01-6.476 10.01-6.476 1.176 7.065 5.886 7.065 6.476-6.476 6.476-6.476 2.353 5.297 6.474 5.297 10.597-5.887 10.597-5.887" transform="matrix(.403 0 0 .397 259.791 53.554)" stroke="#0072ff" stroke-width="1pt" fill="none"/><path d="M231.95 591.4c3.14-1.374 5.69.196 9.418-7.654 0 4.12 2.945 9.42 8.243 9.42s8.832-7.653 8.832-7.653 0 7.653 5.887 7.653 10.596-7.653 10.596-7.064c0 .588.588 7.064 5.298 7.064s10.597-6.476 10.597-6.476.59 7.654 5.888 7.065c5.3-.59 7.065-8.242 7.653-7.653.59.588 4.122 7.653 8.243 7.064 2.943-.59 10.01-7.065 10.01-7.065" transform="matrix(.422 0 0 .397 260.636 57.764)" stroke="#0072ff" stroke-width="1pt" fill="none"/><g fill-rule="evenodd"><path d="M305.54 350.62v18.84h14.717l-5.298-18.84h-9.42z" transform="matrix(.333 0 0 .296 286.015 168.055)" stroke="#000" stroke-width="1pt" fill="#fff"/><path d="M393.996 274.486c-.196.174-7.82 3.833-17.786 3.833s-13.878-1.046-14.855-1.743c-.977-.697-2.15-2.09-3.322-2.09-1.173 0-2.15.87-2.15.87s1.954.87 3.322 1.917c1.368 1.045 1.76 2.962 1.76 2.962l32.25.35s-.197-1.918-.197-2.964 1.173-2.614.978-3.136z"/><path d="M365.852 262.113h.782v16.206h-.782zM376.406 260.02h.782v18.472h-.782zM386.765 263.158h.782v15.16h-.782z"/><path stroke="#000" stroke-width="1.024" fill="#fff" d="M299.07 342.37h18.84v8.83h-18.84z" transform="matrix(.333 0 0 .296 284.643 163.176)"/><path stroke="#000" stroke-width="1.101" fill="#fff" d="M297.89 350.61h21.782v8.83H297.89z" transform="matrix(.333 0 0 .296 284.643 163.176)"/><path stroke="#000" stroke-width="1.159" fill="#fff" d="M296.71 358.86h24.137v8.83H296.71z" transform="matrix(.333 0 0 .296 284.643 163.176)"/><path stroke="#000" stroke-width="1.372" fill="#fff" d="M266.17 334.72h23.837v12.527H266.17z" transform="matrix(.333 0 0 .296 284.643 163.176)"/><path stroke="#000" stroke-width="1.475" fill="#fff" d="M264.68 346.41h27.56v12.527h-27.56z" transform="matrix(.333 0 0 .296 284.643 163.176)"/><path stroke="#000" stroke-width="1.553" fill="#fff" d="M263.19 358.1h30.54v12.527h-30.54z" transform="matrix(.333 0 0 .296 284.643 163.176)"/><path stroke="#000" stroke-width="1.312" fill="#fff" d="M260.21 368.28h36.5v15.307h-36.5z" transform="matrix(.333 0 0 .296 284.643 163.176)"/><path stroke="#000" stroke-width="1.017" fill="#fff" d="M238.25 342.37h15.763v10.414H238.25z" transform="matrix(.333 0 0 .296 284.643 163.176)"/><path stroke="#000" stroke-width="1.094" fill="#fff" d="M237.26 352.09h18.226v10.414H237.26z" transform="matrix(.333 0 0 .296 284.643 163.176)"/><path stroke="#000" stroke-width="1.151" fill="#fff" d="M236.28 361.81h20.197v10.414H236.28z" transform="matrix(.333 0 0 .296 284.643 163.176)"/><path stroke="#000" stroke-width=".973" fill="#fff" d="M234.31 370.27h24.137v12.725H234.31z" transform="matrix(.333 0 0 .296 284.643 163.176)"/><path d="M220 377.51h9.876l10.597-33.374L220 377.51z" stroke="#000" stroke-width="1.017" fill="#fff" transform="matrix(.333 0 0 .296 284.643 163.176)"/><path d="M366.183 262.335l.723.317-9.477 13.11-.724-.318z"/></g><path d="M231.36 591.4l8.83-7.065s1.767 8.83 7.065 8.83 8.83-7.652 8.83-7.652 0 7.653 5.888 7.653 10.597-7.653 10.597-7.064c0 .588.588 7.064 5.298 7.064s10.597-6.476 10.597-6.476.59 7.654 5.887 7.065c5.3-.59 7.065-8.242 7.653-7.653.59.588 4.12 7.653 8.242 7.064s10.01-6.476 10.01-6.476 1.176 7.065 5.886 7.065 6.476-6.476 6.476-6.476 2.353 5.297 6.474 5.297 7.065-7.064 7.065-7.064 1.176 6.476 4.12 6.476c2.943 0 6.476-6.477 6.476-6.477s1.177 8.242 4.12 7.653c2.944-.59 4.122-8.242 4.71-7.653.59.59 4.71 7.064 4.12 7.064" transform="matrix(.398 0 0 .397 256.349 48.644)" stroke="#0072ff" stroke-width="1pt" fill="none"/></g></g></svg>