<svg xmlns="http://www.w3.org/2000/svg" height="512" width="512"><path fill="#006" d="M0 0h512v512H0z"/><g stroke-width="1pt"><path d="M0 0v20.46L325.08 183H366v-20.46L40.92 0H0zm366 0v20.46L40.92 183H0v-20.46L325.08 0H366z" fill="#fff"/><path d="M152.5 0v183h61V0h-61zM0 61v61h366V61H0z" fill="#fff"/><path d="M0 73.2v36.6h366V73.2H0zM164.7 0v183h36.6V0h-36.6zM0 183l122-61h27.28l-122 61H0zM0 0l122 61H94.72L0 13.64V0zm216.72 61l122-61H366L244 61h-27.28zM366 183l-122-61h27.28L366 169.36V183z" fill="#c00"/></g><g fill-rule="evenodd" fill="#fff"><path d="M336.45 250.29l5.72-18.306-15.37-11.7 19.378-.24 6.47-18.05 6.25 18.155 19.38.54-15.514 11.456 5.504 18.393-15.84-11.077M382.416 253.776l11.424-15.293-10.63-16.252 18.34 6.372 12.048-14.8-.09 19.228 18.086 7.104-18.4 5.51-.873 19.197-11.278-15.822M293.043 265.144l-.757-19.192-18.39-5.686 18.156-6.926.033-19.213 11.972 14.91 18.417-6.195-10.756 16.14 11.348 15.393-18.62-4.937M260.473 294.42l-8.042-17.386-19.106 2.007 14.063-13.536-7.323-17.716 16.73 9.02 14.585-12.966-3.726 19.112 16.34 9.71-19.034 2.79M245.82 336.872l-14.61-12.185-16.415 10.123 6.99-18.33-14.1-12.796 18.926.86 7.702-18.04 4.706 18.86 18.864 1.65-16.02 10.798M245.77 383.935l-18.204-5.29-11.105 15.924-.776-19.655-17.976-6.058 17.722-6.852-.01-19.677 11.73 15.42 17.977-6.1-10.475 16.382M267.357 424.265l-18.744 2.618-3.81 19.1-8.533-17.644-18.84 1.822 13.47-13.518-7.843-17.98 16.857 9.29 14.002-12.935-3.052 19.26M299.992 455.52l-16.72 9.046 2.94 19.28-14.04-13.575-17.082 8.334 8.043-17.433-13.505-14.134 19.01 2.805 8.743-17.072 3.706 19.167M340.093 462.092l-9.11 16.817 12.86 14.493-19.074-3.58-9.8 16.42-2.675-19.025-18.928-4.343 17.423-8.178-1.895-19.112 13.443 13.974M385.167 454.696l-.56 19.18 17.97 6.993-18.6 5.592-1.35 19.144-10.93-15.722-18.813 4.845 11.845-15.31-10.277-16.158 18.253 6.263M433.085 246.906l13.122 13.832 17.477-8.135-9.05 17.403 12.542 14.38-18.71-3.08-9.726 17.034-2.512-19.306-18.56-3.86 17.16-8.852M472.312 289.406l5.964 18.227 19.223.31-15.558 11.743 5.21 18.47-15.574-10.972-16.008 11.113 5.933-18.522-15.105-11.61 19.242-.474M486.785 343.903l-2.22 19.06 17.29 8.536-19.007 3.95-3.003 18.955-9.524-16.617-19.152 3.186 13.123-14.22-8.832-16.994 17.634 7.83M476.185 401.056l-8.523 17.128 13.358 14.052-19.19-2.925-9.224 16.757-3.333-18.933-19.07-3.692 17.13-8.775-2.557-19.046 13.92 13.512M447.937 452.4l-16.13 10.07 4.122 19.048-14.852-12.664-16.534 9.38 6.952-17.89-14.35-13.256 19.147 1.608 7.672-17.576 4.88 18.888"/></g></svg>