<svg xmlns="http://www.w3.org/2000/svg" xmlns:xlink="http://www.w3.org/1999/xlink" width="512" height="512" viewBox="-5 -5 10.24 10.24"><title>Flag of the People&amp;apos;s Republic of China</title><defs><path id="b" fill="#ffde00" d="M.95-.31L-.587.81 0-1 .588.81-.952-.31z"/><clipPath id="a"><path d="M-5-15.4h20v20H-5z"/></clipPath></defs><g transform="matrix(.5 0 0 .5 -2.4 2.9)" clip-path="url(#a)"><path fill="#de2910" d="M-5-15.4h30v20H-5z"/><use height="20" width="30" transform="matrix(3 0 0 3 0 -10.4)" xlink:href="#b"/><use height="20" width="30" transform="rotate(-120.9 -1.3 -8.1)" xlink:href="#b"/><use height="20" width="30" transform="matrix(-.1 -1 1 -.1 7 -11.4)" xlink:href="#b"/><use height="20" width="30" transform="matrix(.3 -1 1 .3 7 -8.4)" xlink:href="#b"/><use height="20" width="30" transform="rotate(-51.3 -4.2 -8.4)" xlink:href="#b"/></g></svg>