<svg xmlns="http://www.w3.org/2000/svg" height="512" width="512"><desc>The United States of America flag, produced by Daniel McRae</desc><defs><clipPath id="a"><path fill-opacity=".67" d="M83.69 80.338h364.87v364.87H83.69z"/></clipPath></defs><g clip-path="url(#a)" transform="matrix(1.403 0 0 1.403 -117.44 -112.73)"><path fill-rule="evenodd" fill="#00319c" d="M313.18 314.79h318.16v195.18H313.18z"/><path fill-rule="evenodd" fill="#d62918" d="M-99.223 315.39h317.25v194.58h-317.25z"/><path fill-rule="evenodd" fill="#00319c" d="M-98.615-1.78h317.25v217.63h-317.25z"/><path fill-rule="evenodd" fill="#d62918" d="M315.01.045h315.73v217.85H315.01z"/><path fill-rule="evenodd" fill="#fff" d="M-99.038 215.83h731.12V316.8h-731.12zM217.25-.71h98.537v510.93H217.25z"/><path fill="#003994" d="M251.68 223.92c-5.925.116-13.854.515-19.04 3.513-3.455 1.996-3.083 7.598 1.493 7.46v.476h-1.002v.476l7.52-1.908v-.477h-3.007v-.476h3.51l-1.004-1.91 18.047-1.907-1.002-3.34c6.736-.81 12.07-.214 18.55 1.432v.476l-4.012-.954c.465 2.065 2.81 1.546 4.512.954l-5.014.954v.477l11.532 1.036 12.032 2.78v.478l-6.517-.953v.477l8.022 2.385-1.506-1.432v-.477l2.006 2.386c3.18.132 5.57.85 7.52 3.34l-7.02-2.863 4.012 9.063h.5v-1.43h.502v1.43l4.512-.954c-1.168-4.804-3.176-10.482-8.02-12.88.426-1.83-.005-2.625-1.505-3.816 1.862 3.663-1.243 5.184-4.01 2.385l-1.002.955 1.002-3.34-3.008 2.863.502-3.34h-.502l-.5 2.863-1.505-1.43-.5 1.43-8.023-.953v-4.293l1.003 1.43h.502v-1.43l2.505 1.43h.502l10.027.478.5 3.816h.502l1.504-3.34c-5.795-2.44-12.756-3.214-19.05-3.338.327-3.243-3.24-3.83-6.017-4.23-4.785-.688-19.517-2.373-20.053 4.23z"/><path fill="#003994" d="M241.78 226.9v1.908h1.003V226.9h-1.003z"/><path fill="#00184a" d="M254.52 227.57v1.15h2.368l-2.368-1.15z"/><path fill="#003994" d="M236.77 227.85v1.908h.5l-.5-1.908zM296.93 229.28l-.5 1.908h.5v-1.908zM229.25 232.14c-1.44 1.502-3.482 3.17-2.507 5.247-2.66 1.437-3.133 4.547-4.01 7.156l5.514.954 4.01-9.064-5.514.477v-.477l5.014-.477-2.507-3.816z"/><path fill="#bdbdbd" d="M236.26 237.87v.477h57.653l-17.547-.477H236.26m61.663 0l.5.477-.5-.477z"/><path fill="#003994" d="M236.77 238.35l4.21 5.247.302 18.604h4.512c0-5.938 1.325-12.01-3.008-16.695l6.016 3.817-2.507-7.156 14.037 13.357-10.528-16.22 10.027 12.88h.503V238.35H236.77z"/><path fill="#00184a" d="M260.33 238.35v14.31h.5l-.5-14.31z"/><path fill="#631808" d="M268.85 238.35v14.31h.5l-.5-14.31z"/><path fill="#de2110" d="M269.35 238.35v13.357l10.528-12.403-10.528 16.22 14.54-13.358-3.01 6.678 6.017-3.816c-3.243 5.94-3.008 10.374-3.008 17.173h4.51l.303-18.603 4.21-5.247H269.35z"/><path fill="#42425a" d="M240.78 243.12v19.558h.5c0-5.58 1.76-14.43-.5-19.558z"/><path fill="#631808" d="M288.4 243.12v19.08h.5c0-5.453 1.71-14.066-.5-19.08z"/><path fill="#00184a" d="M248.8 245.98v3.34h.5l-.5-3.34z"/><path fill="#428c00" d="M229.75 246.45l-1.003 3.816h-.5l1.002-3.34h-.503l-.5 3.817 2.004-.954-2.505 3.815 2.005-1.43-2.507 1.907-.5 2.386h.5l5.014-5.725-1.504.477v-.477l1.504-.477v-.477h-2.006l-.5-3.34z"/><path fill="#003994" d="M249.3 246.45c.048 3.826 2.298 5.608 5.515 7.633-.255-3.214-2.978-5.686-5.515-7.633zM279.88 246.45l-5.013 7.633c2.775-1.652 6.545-4.118 5.013-7.633z"/><path fill="#319400" d="M301.94 246.45l.5 10.018h.503l1.504-8.587h-.502l-1.002 5.726h-.502l-.5-7.156z"/><path fill="#cecece" d="M222.23 246.93l.5 1.43h.503l-1.003-1.43z"/><path fill="#bd9408" d="M264.34 247.41v.477l1.003 1.908h.5l-1.503-2.385z"/><path fill="#4a6342" d="M302.44 247.41v2.385h.5l-.5-2.385z"/><path fill="#397b00" d="M225.74 247.89v1.43l1.504-.476v-.477l-1.504-.477z"/><path fill="#7b5a00" d="M263.84 247.89v1.908h.5l-.5-1.908z"/><path fill="#ffce08" d="M264.34 247.89v2.385h-2.005v1.43h2.005v5.725h.5l.503-5.724h2.506v-1.43h-2.507v-2.386h-1.003z"/><path fill="#428c00" d="M225.24 248.36c-1.362 2.92-1.188 4.692 0 7.633h1.003l1.002-7.156h-.5l-.502 5.724h-1.003v-6.2z"/><path fill="#002984" d="M245.79 248.84v13.357h-4.512v.477l5.013-.477v2.385h.503c0-4.117 1.645-12.417-1.003-15.742z"/><path fill="#631808" d="M283.39 248.84v13.357h.5l-.5-13.357z"/><path fill="#319400" d="M298.93 248.84l2.005 11.926h.502c.83-4.254.04-8.275-2.507-11.926z"/><path fill="#003994" d="M246.79 249.32c0 3.607-1.78 12.99.515 15.884 1.008 1.27 3.493 1.394 5 1.766 0-7.3 1.478-13.1-5.515-17.65zM277.37 266.97c1.632-.403 3.99-.547 5.212-1.766 2.583-2.578.804-12.41.804-15.884-7.824 3.45-6.016 10.735-6.016 17.65z"/><path fill="#319400" d="M296.42 249.32l4.01 15.265h-.5c-.798-2.673-3.967-12.84-8.022-9.063 5.372.22 7.147 9.323 8.02 13.356h.503l6.518-19.08h-.5l-5.015 12.402h-.5c-1.357-4.06-1.248-9.78-4.513-12.88z"/><path fill="#397b00" d="M229.25 249.79l-2.005.477v.477l2.005-.954z"/><path fill="#bdb584" d="M266.34 249.79v.477h1.504l-1.504-.477z"/><path fill="#294200" d="M225.74 250.27v1.43h.5l-.5-1.43m3.51 0l.5.477-.5-.477m2.34.16l.333.158-.334-.16z"/><path fill="#211800" d="M248.8 250.27v.477l1.504.477-1.504-.954z"/><path fill="#bd9408" d="M261.83 250.27v1.43h.5l-.5-1.43z"/><path fill="#184a00" d="M302.44 250.27v2.862h.5l-.5-2.862z"/><path fill="#103900" d="M228.24 251.23l-.5 1.43h.5v-1.43m2.005 0l-.5.954.5-.954z"/><path fill="#397b00" d="M225.24 252.18v2.385h1.003v-2.385h-1.003z"/><path fill="#7b5a00" d="M263.84 252.18v5.247h.5l-.5-5.247z"/><path fill="#319400" d="M294.42 252.18l2.507 4.293h.5l-3.007-4.293z"/><path fill="#428c00" d="M236.26 259.81h-.5v-5.247h-.503l-.5 2.385h-.502v-2.385h-.502l-3.008 10.972h.502l1.002-1.908h.5l-1.002 2.385h.5l2.508-3.34-2.005 4.294h.502l5.067-7.156.948-7.155c-3.278 1.504-3.008 4.076-3.008 7.155z"/><path fill="#184a00" d="M298.93 253.13v1.43h.5l-.5-1.43z"/><path fill="#397b00" d="M226.74 253.61v.477h1.504l-1.504-.477zM233.76 254.09v.477l1.504.477v-1.43l-1.504.476z"/><path fill="#297b00" d="M306.45 253.61l.5.477-.5-.477m1.003 0l-3.008 1.908v.477l1.002.477 2.006-2.862z"/><path fill="#294200" d="M237.94 254.41l.167.318-.167-.318m.836-.318v3.34h.5l-.5-3.34z"/><path fill-opacity=".481" fill="#8c8c8c" d="M252.31 254.09v12.88h.5l-.5-12.88z"/><path fill="#8c8c8c" d="M276.87 254.09v12.88h.5l-.5-12.88m15.04 0l.5.477-.5-.477z"/><path fill="#00184a" d="M260.33 254.56v1.43h.5l-.5-1.43z"/><path fill="#294200" d="M235.76 255.04v4.293h.5l-.5-4.293z"/><path fill="#428c00" d="M230.75 255.52l.5 4.293h.503l-1.003-4.293z"/><path fill="#211800" d="M255.32 255.52l1.504.954v-.477l-1.504-.477z"/><path fill="#428c00" d="M229.75 256c-.107 2.545-.633 4.77 2.005 6.2l-2.005-6.2z"/><path fill="#296300" d="M301.94 256.47v1.43h.5l-.5-1.43m1.003 0l.5.477-.5-.477z"/><path fill="#294200" d="M222.73 257.43v.954l1.003-.954h-1.003z"/><path fill="#428c00" d="M223.73 257.43l1.003 1.908-1.504-.954c.49 1.924 1.006 3.09 3.007 3.816v.477l-2.006-.477 1.004 1.43-1.504-.476 4.512 4.294.5-1.908 1.505.954-3.008-2.863v-.476l1.503.477c-.73-2.894-2.22-4.817-5.013-6.2z"/><path fill="#294200" d="M231.75 257.43v4.293h.5l-.5-4.293m2.172.318l.168.318-.168-.318z"/><path fill-opacity=".575" fill="#734a42" d="M256.32 257.43v10.495h.5l-.5-10.495z"/><path fill="#de2110" d="M259.83 257.43v.954h1.003l-1.003-.954z"/><path fill="#8c8c8c" d="M268.85 257.43l-2.005.954v.477l2.506-.953-.5-.477z"/><path fill="#734a42" d="M272.86 257.43l-.5 10.972h.5c.905-2.913 1.247-8.143 0-10.972z"/><path fill="#297b00" d="M308.46 257.43l-1.003.477v.477l1.003-.954z"/><path fill="#de2110" d="M256.82 257.9v10.018l5.515.954c-1.204-3.52-1.936-9.067-5.515-10.972z"/><path fill="#184a00" d="M299.93 257.9v1.43h.5l-.5-1.43z"/><path fill="#63636b" d="M307.96 258.38v.477h1.504l-1.504-.477z"/><path fill="#211800" d="M258.82 258.38l1.003.954v-.954h-1.003z"/><path fill="#8c8c8c" d="M262.33 258.38v.477h1.504l-1.504-.477z"/><path d="M259.83 258.86l2.507 9.54c3.053-1.066 7.74-1.487 9.525-4.293l-9.024 2.863-3.008-8.11z"/><path fill="#319400" d="M293.92 258.86l4.01 15.265h-.5v-.954h-.502l.5 4.294h-.5v-.954h-.5v3.816h-.503c-.042-4.86-1.967-9.208-4.512-13.357l-1.002.953v.477c3.673 3.488 4.798 10.968 5.014 15.742h-1.003l-2.004-10.018h-.5l1.503 13.357h-.503l-2.005-10.017h-.5l1.503 15.265h-.502l-1.002-12.403h-.5l1.002 12.403h-.5l-.503-6.678h-.502l.5 8.11h-.5l-.5-6.68h-.503l-1.504 9.065 5.516-.477v-.477l-3.51-.476v-.477l13.036 3.34v-.478l-6.016-1.91v-.476l9.024 1.908c-2.83-3.43-6.43-2.878-10.528-2.385v-.477l11.53.477v-.477l-8.02-1.908v-.477l8.02.477v-.477c-5.732-1.247-8.607-.53-13.034 3.34l1.002-4.772h-.5l-.502 1.432h-.502l2.507-7.156h.5l-.5 5.246 11.53-4.293v-.477l-10.527 2.862c4.018-3.14 9.828-5.807 15.04-6.2v-.478c-6 0-9.22 1.376-14.037 4.77 3.77-4.68 9.63-5.16 15.04-7.155v-.477c-6.807.51-10.042 2.052-15.542 5.724 3.402-3.234 9.21-8.877 14.54-7.632l-1.004-2.385c-4.616 1.043-8.634 3.593-12.032 6.678 2.335-3.127 10.544-11.767 14.54-11.45-4.055-3.54-11.837 7.26-14.54 9.542l11.03-11.926-9.526 8.108 10.528-13.357v-.476c-4.99 1.752-6.462 7.684-10.027 10.972l7.52-11.926c-3.35 2.3-6.083 6.67-7.018 10.495-2.31.276-1.505 3.916-1.505 5.724h-.502c0-5.8-.7-12.852-4.512-17.65z"/><path fill="#185200" d="M306.95 258.86l-3.008 2.385v.477l3.008-2.862z"/><path fill="#8c8c8c" d="M262.84 259.33v.477h1.504l-1.504-.477z"/><path fill="#efefef" d="M266.85 259.81l1.003 2.862h.5l-1.503-2.862m1.504 0l.5.477-.5-.477z"/><path fill="#8c8c8c" d="M267.85 261.24v.477h1.504l-1.504-.477zM270.36 261.72l-2.005.477v.477l2.506-.477-.5-.477z"/><path fill="#319400" d="M296.42 261.72l2.005 8.11h.502c-.026-2.93-.393-5.855-2.507-8.11z"/><path fill="#397b00" d="M230.75 262.2v.477h1.504l-1.504-.477z"/><path fill="#ad1810" d="M283.89 262.2v.477h4.512l-4.512-.477z"/><path fill-opacity=".309" fill="#bdbdbd" d="M241.28 262.67v.477h4.512v7.155c2.72-4.32.175-7.63-4.512-7.632z"/><path fill="#8c8c8c" d="M262.33 263.15v.477l2.507-.477h-2.507m5.013-.477l.502.477-.502-.477z"/><path fill="#bdbdbd" d="M283.89 262.67v.477h4.512l-4.512-.477z"/><path fill="#8c8c8c" d="M240.78 263.15v3.816h.5l-.5-3.816zM283.39 263.15v6.2h.5l-.5-6.2m5.013 0v7.155h.502l-.502-7.155z"/><path fill="#319400" d="M293.92 263.15l2.507 8.586h.5l-3.007-8.586z"/><path fill="#8c8c8c" d="M264.34 263.63v.477h1.504l-1.504-.477m2.005 0l-1.504.954v.477l1.505-1.43m1.504 0l.5.477-.5-.477z"/><path fill="#efefef" d="M309.88 265.94l-2.005 3.34c1.344-.938 2.617-1.733 2.005-3.34z"/><path fill="#319400" d="M292.41 264.58l3.51 11.45h.5c-.034-3.994-1.295-8.33-4.01-11.45z"/><path fill="#397b00" d="M232.25 265.54v.954h1.003l-1.003-.954z"/><path fill="#428c00" d="M233.14 270.89h-.5c-.095-2.733-1.16-4.483-4.012-5.247.07 1.455 1.116 7.137 3.51 5.247h.5l-1.002 4.293c1.497-1.58 7.68-7.142 5-9.593-2.293-2.097-3.47 4.253-3.496 5.3z"/><path fill="#297b00" d="M309.46 266.01l-1.504 2.385 2.507-2.385h-1.003z"/><path fill="#397b00" d="M228.24 266.49v.477h1.504l-1.504-.477z"/><path fill="#297b00" d="M305.45 266.49v.477h2.005v-.477h-2.005z"/><path fill="#de2110" d="M264.84 267.44v.477h1.504c-3.848 5.97-1.042 13.987-.5 20.512h.5c1.404-5.846 1.538-14.243 0-20.036l2.005.954.5-1.908-.5-.477-3.51.477z"/><path fill="#428c00" d="M220.22 267.44l1.003 2.862h.5l.502-1.908-2.005-.954z"/><path fill="#295200" d="M231.25 267.92l1.003.954v-.954h-1.003z"/><path fill="#428c00" d="M236.77 271.74l1.003-.477v.477l-3.51 2.862c3.116-1.18 4.69-2.8 6.016-5.724l-1.505.954 1.003-1.908-3.008 3.816z"/><path fill="#397b00" d="M222.73 268.4v.477l1.504.477-1.504-.954z"/><path fill="#428c00" d="M225.24 268.4v2.385h-.5l-.503-1.43h-.5l.5 4.77h-.5l-.502-5.248h-.502l-.5 3.816h-.502l-2.506-1.908 1.504 2.862h-.5l-2.007-2.385c1.685 5.644 4.09 4.866 8.098 8.038 1.49 1.18 2.433 3.735 3.434 5.32l-2.005-1.432 1.002 1.43-2.507-1.43 3.008 2.862.502-1.43h.5c-1.258 2.283-3.485 2.55-6.015 2.86v-.476l1.003-.954 2.507.477c-1.803-1.802-4.047-2.106-6.517-1.43l3.008 2.384v.478l-3.008 3.34 6.016-.955-.502.954h.502l3.008-1.43-6.016 2.862v.476c5.07-.624 5.68-2.31 8.522-5.725-.394 1.536-.394 2.4 1.003 3.34l-.783-5.698 6.8-7.658-2.508 1.908 2.005-2.863c-2.838.558-4.072 2.557-4.01 5.247l-3.008 2.862h-.503c1.07-3 3.978-4.71 3.008-8.11-2.616 1.855-3.37 4.128-3.51 7.155l-2.004-9.54.502 1.907h-.5v-.954h-.503l.5 6.68h-.5c-1.568-3.656-.198-10.99-3.51-13.358z"/><path fill="#003994" d="M261.83 285.09h.5c-.808-6.093-.472-11.147 2.508-16.696-5.91 2.883-5.56 11.946-3.008 16.696z"/><path fill="#294200" d="M221.73 269.83l-.5 1.43.5-1.43m1.504 0v1.43h.5l-.5-1.43z"/><path fill="#de2110" d="M246.79 269.83v7.633h-.5l-.503-6.68h-4.512v13.835l2.006-.954 1.003 3.34 2.507-1.432.5 5.247 4.513-1.432c2.11 1.433 3.456 1.443 4.512-.954h1.003l3.008 2.862-.5-9.063-9.025-.477v-.477l8.523.476v-1.43c-6.316-.142-7.018-3.95-7.018-9.065l-5.515-1.43zM277.37 271.26c0 4.812-.467 8.764-6.517 9.063 1.338 3.622 7.82 1.32 9.972-.584 2.988-2.642 2.56-6.378 2.56-9.91l-6.015 1.43z"/><path fill="#297b00" d="M300.44 274.12l4.512-4.293c-2.48.6-3.495 2.178-4.512 4.293z"/><path fill="#294200" d="M232.76 270.31v1.43h.5l-.5-1.43m2.172.318l.168.318-.168-.318m1.84-.318l.5.477-.5-.477z"/><path fill="#42425a" d="M283.89 270.31v.477h4.512l-4.512-.477z"/><path fill="#dedede" d="M290.41 270.31l1.504.954v-.477l-1.504-.477z"/><path fill="#00184a" d="M283.39 270.78v3.816h.5l-.5-3.816z"/><path fill="#003994" d="M283.89 270.78c0 8.845-5.168 12.114-14.037 11.45l-.5 9.062c1.894-.03 4.557.11 5.012-1.908l2.005 1.43 2.006-1.907-.502 1.91 1.003-.956h.5l3.01-.476-.502 1.432 1.504-1.91 1.002.955h1.504v-1.43l1.002.477.502-4.293c2.544-2.115 1.002-10.676 1.002-13.834h-4.512z"/><path fill="#184a00" d="M295.92 270.78v1.43h.5l-.5-1.43zM298.43 270.78v2.385h.5l-.5-2.385z"/><path fill="#397b00" d="M221.73 271.26l.5.477-.5-.477m1.504 0v.954h1.003v-.954h-1.003z"/><path fill-opacity=".475" fill="#8c7373" d="M252.31 271.26v4.293h.5l-.5-4.293z"/><path fill="#397b00" d="M232.76 271.74l.5.477-.5-.477m3.008.477v.477h1.504l-1.504-.477m1.504-.477l.5.477-.5-.477m1.003 0l.5.477-.5-.477z"/><path fill="#003994" d="M256.82 272.21c.03 2.393.295 3.615 3.008 3.816.42-2.58-.402-3.27-3.008-3.816zM268.35 273.17c1.174 4.14 4.465 2.81 4.512-.954l-4.512.954z"/><path fill="#397b00" d="M222.73 274.12l.5.477-.5-.477m2.507 0l-.502.954h1.003l-.5-.954z"/><path fill="#184a00" d="M298.43 274.12v1.908h.5l-.5-1.908z"/><path fill="#297b00" d="M304.95 274.12l-1.003 2.385h.502l.5-2.385z"/><path fill="#397b00" d="M232.76 274.6v1.43l1.504-1.43h-1.504zM231.25 275.55l-.5 2.385h.5v-2.385z"/><path fill="#294200" d="M238.77 276.03v1.43h.5l-.5-1.43z"/><path fill="#397b00" d="M220.22 276.51l1.003.954-1.003-.954m1.504 0l1.504.954v-.477l-1.504-.477z"/><path fill="#294200" d="M229.75 276.51v1.43h.5l-.5-1.43z"/><path fill="#184a00" d="M293.92 276.98v1.43h.5l-.5-1.43z"/><path fill="#42425a" d="M261.83 277.46v3.816h.5l-.5-3.816z"/><path fill="#de2110" d="M267.85 278.42v6.678h1.504l-1.504-6.678z"/><path fill="#297b00" d="M289.41 279.37v.477h1.504v-.477h-1.504z"/><path fill="#184a00" d="M294.42 279.85v1.43h.5l-.5-1.43z"/><path fill="#295200" d="M231.25 280.32l.5.477-.5-.477m1.504 0l.5.477-.5-.477m1.504 0l-1.003 1.908h.502l.5-1.908z"/><path fill="#184a00" d="M304.95 280.8v.477h2.005l-2.005-.477zM307.96 280.8v.477h1.504l-1.504-.477z"/><path fill="#4a6342" d="M309.46 280.8v.477h1.504l-1.504-.477z"/><path fill="#184a00" d="M290.91 281.28v1.43h.5l-.5-1.43z"/><path fill="#296300" d="M294.42 281.28v2.385h1.003l-1.003-2.385z"/><path fill="#ce1810" d="M254.31 281.75v.477h4.01l-4.01-.477z"/><path fill="#002984" d="M271.86 282.23v.477h3.51l-3.51-.477z"/><path fill="#397b00" d="M226.74 282.71l1.003.954v-.954h-1.003z"/><path fill="#294200" d="M228.74 283.19l.5 1.43h.503l-1.003-1.43z"/><path fill="#397b00" d="M235.26 284.14v1.908h.5l-.5-1.908z"/><path fill="#319400" d="M288.9 284.14v1.43h.5l-.5-1.43z"/><path fill="#428c00" d="M239.77 284.62c-1.625 3.332-3.374 6.928 1.003 9.063 0-2.8 1.056-6.905-1.003-9.063z"/><path fill="#397b00" d="M242.78 284.62l-.5.954h1l-.5-.954z"/><path fill="#296300" d="M306.45 284.62v.477h2.507l-2.507-.477z"/><path fill="#397b00" d="M229.75 285.09l-.5 1.43h.5v-1.43m2.507 0l.5.477-.5-.477z"/><path fill="#428c00" d="M234.76 285.09c-1.176 3.072-.87 4.894 1.003 7.633h.5v-7.633h-.5v5.724h-1.003v-5.724z"/><path fill="#184a00" d="M291.41 285.09v1.43h.5l-.5-1.43zM300.44 285.09v.477h1.504l-1.504-.477z"/><path fill="#428c00" d="M241.78 285.57l-.5 7.633 1.503-1.432h.5l-.5 1.91c3.922-1.12 4.645-3.654 3.51-7.156l-2.508 5.247h-.5v-6.2h-.502l-1.003 5.247v-5.247z"/><path fill="#397b00" d="M227.74 286.05l1.003.954v-.954h-1.003z"/><path fill="#294200" d="M235.26 286.05v2.385h.5l-.5-2.385zM242.28 286.05v1.908h.5l-.5-1.908z"/><path fill="#296300" d="M291.41 286.53l.5 1.908h.503l-1.003-1.908z"/><path fill="#184a00" d="M301.94 286.53v.477l2.005.477v-.477l-2.005-.477z"/><path fill="#319400" d="M303.44 286.53v.477h1.504l-1.504-.477z"/><path fill="#296300" d="M305.45 286.53v.477l2.005.477v-.477l-2.005-.477z"/><path fill="#294200" d="M240.78 287.48v1.43h.5l-.5-1.43z"/><path fill="#397b00" d="M243.78 287.48v.954h1.003l-1.003-.954z"/><path fill="#319400" d="M293.92 293.2c4.806-2.536 8.44-4.293 14.037-4.293-4.637-2.66-12.495-1.07-14.037 4.293z"/><path fill="#397b00" d="M239.61 288.12l.334.16-.334-.16m2.674-.16v1.432h.5l-.5-1.43zM234.76 288.91v1.908h1.003v-1.908h-1.003z"/><path fill="#294200" d="M239.27 288.91v2.385h.5l-.5-2.385z"/><path fill="#00184a" d="M283.89 288.91l2.005 1.43v-.476l-2.005-.954z"/><path fill="#297b00" d="M295.42 289.39v.477h1.504l-1.504-.477z"/><path fill="#184a00" d="M303.44 288.91l-1.003.477v.477l1.003-.954z"/><path fill="#4a6342" d="M304.45 288.91v.477h3.51l-3.51-.477z"/><path fill="#002984" d="M281.38 289.39l1.003.954v-.954h-1.003z"/><path fill="#297b00" d="M292.92 289.39v.477l2.507.954v-.476l-2.507-.954z"/><path fill="#428c00" d="M256.32 289.86l-1.003 2.862-1.504-.954 1.504 3.816h.502v-1.908h.5v3.34c2.425-1.53 2.112-4.25 1.504-6.68h-.5v4.77h-.503l-.5-5.246z"/><path fill="#319400" d="M286.9 289.86l-3.008 8.586c2.864-1.506 4.278-5.7 3.008-8.586z"/><path fill="#184a00" d="M299.43 290.34v.477h2.507l-2.507-.477z"/><path fill="#319400" d="M301.44 289.86v.477h3.51l-3.51-.477z"/><path fill="#397b00" d="M222.73 290.34l.5.477-.5-.477m3.51 0v1.43h.5l-.5-1.43zM251.81 290.34l1.003 2.385h1.504l-2.507-2.385z"/><path fill="#294200" d="M256.82 290.34v1.908h.5l-.5-1.908z"/><path fill="#319400" d="M276.87 290.34l-.5 4.293h.5v-4.293z"/><path fill="#082108" d="M302.44 290.34v.477h1.504l-1.504-.477z"/><path fill="#397b00" d="M224.23 290.82l.5 1.908h.503l-1.003-1.908z"/><path fill="#319400" d="M274.87 290.82l-.5 6.2c1.862-1.735 1.816-4.11.5-6.2z"/><path fill="#295200" d="M234.76 291.3l.5 1.908h.503l-1.003-1.908z"/><path fill="#428c00" d="M223.73 293.68l1.003-1.43c-1.297-.286-2.077.465-1.003 1.43zM248.3 291.77l.5 3.34 2.508 1.907 3.51.477.5-.477c-.37-1.292-4.465-6.87-5.013-3.816l-1.002-1.43H248.3z"/><path fill="#397b00" d="M249.3 291.77v.954l1.003-.954H249.3z"/><path fill="#319400" d="M280.88 291.77l-3.51 5.724c3.933-.044 5.62-2.048 6.017-5.724h-.502l-3.51 5.247 1.505-5.247zM285.4 291.77l-3.51 6.2c2.335-1.093 4.07-3.667 3.51-6.2z"/><path fill="#184a00" d="M299.43 291.77v.477h1.504l-1.504-.477z"/><path fill="#397b00" d="M223.73 292.25l-.5.954h1l-.5-.954z"/><path fill="#297b00" d="M294.42 292.73v.477h1.504l-1.504-.477z"/><path fill="#428c00" d="M230.25 293.2v.477h4.512v.477h-4.512v.477h1.003v.478c-2.74.143-4.127 1.11-5.515 3.34l8.523-.478v.477c-2.31.698-5.675.45-6.517 2.863 3.2-1.243 7.83-1.67 9.526-4.77l-3.01 1.43 1.505-1.908-4.512-.477v-.477l8.02.477v.477h-1.503v.477l6.517-.478v-.477h-1.504v-.477h3.008v-.477l-4.01.955-11.53-2.385z"/><path fill="#295200" d="M253.31 292.73l1.504.954v-.477l-1.504-.477z"/><path fill="#319400" d="M278.38 292.73l-3.008 4.77c1.9-.925 3.604-2.634 3.008-4.77z"/><path fill="#294200" d="M256.82 293.2v1.908h.5l-.5-1.908zM229.75 293.68v.477h2.507l-2.507-.477z"/><path fill="#184a00" d="M296.42 293.68v.477h1.504l-1.504-.477zM298.43 293.68v.477h2.507l-2.507-.477z"/><path fill="#efefef" d="M222.73 294.16l-1.003.477v.477l1.003-.954z"/><path fill="#397b00" d="M242.78 294.16v.477h2.005l-2.005-.477z"/><path fill="#294200" d="M251.3 294.16l.5.477-.5-.477m3.008 0l.5 1.43h.503l-1.002-1.43zM246.29 294.63v.954h1.003l-1.003-.954zM242.78 295.11v.477h1.504l-1.504-.477z"/><path fill="#295200" d="M252.81 295.11v.954h1.003l-1.003-.954z"/><path fill="#296300" d="M296.93 295.11v.954h1.003l-1.003-.954z"/><path fill="#294200" d="M233.26 295.59v.477h2.005l-2.005-.477z"/><path fill="#397b00" d="M235.76 295.59v1.43l2.005-1.43h-2.005z"/><path fill="#bdbdbd" d="M246.29 295.59v.954h1.003l-1.003-.954z"/><path fill="#184a00" d="M297.93 295.59v.477h1.504l-1.504-.477z"/><path fill="#185200" d="M299.43 295.59l1.003.954v-.954h-1.003z"/><path fill="#397b00" d="M242.78 296.07l2.005.954v-.477l-2.005-.477z"/><path fill="#184a00" d="M287.4 296.54v.477l4.512-.477H287.4z"/><path fill="#397b00" d="M239.27 296.54v.477h2.005l-2.005-.477z"/><path fill="#428c00" d="M240.28 298.93l10.528-1.43c-3.274-1.31-8.092-1.2-10.528 1.43z"/><path fill="#397b00" d="M246.29 296.54v.477h1.504l-1.504-.477z"/><path fill="#294200" d="M247.8 296.54v.477h1.504l-1.504-.477z"/><path fill="#297b00" d="M281.38 296.54l-1.003 1.43h1.504l-.5-1.43z"/><path fill="#319400" d="M292.41 296.54v.477l7.02 1.908v-.477l-7.02-1.908z"/><path fill="#397b00" d="M226.24 297.02l.5.477-.5-.477m2.005 0v.954h1.504v-.954h-1.505z"/><path fill="#bdbdbd" d="M239.27 297.02v.477h2.005l-2.005-.477z"/><path fill="#292100" d="M251.81 297.02v.477h1.504l-1.504-.477z"/><path fill="#319400" d="M285.9 298.45l12.533 1.908v1.908c1.42-4.19-10.154-6.955-12.533-3.816z"/><path fill="#631808" d="M252.81 297.5v.477h1.504l-1.504-.477z"/><path fill="#ad1810" d="M254.31 297.5v.477h1.504l-1.504-.477z"/><path fill="#de2110" d="M244.29 306.08v-.477l-3.008.477v-.477c13.567-4.093 33.56-4.093 47.125 0v.477l-2.507-.477c2.474 3.59 9.242 1.364 6.996-2.812-1.916-3.56-8.896-3.98-12.51-4.472-10.188-1.382-21.416-1.496-31.584.09-3.62.566-8.025.867-10.914 3.278-2.058 1.718-1.308 5.194 1.436 5.964 1.696.476 3.582-.805 4.966-1.57z"/><path fill="#397b00" d="M228.24 298.45v.954h1.003v-.954h-1.003m3.676.318l.168.318-.168-.318z"/><path fill="#184a00" d="M288.9 298.45v.477h1.504l-1.504-.477z"/><path fill="#294200" d="M239.27 299.88v.477l3.008-.954-3.008.477z"/><path fill="#319400" d="M288.4 298.93v.477l5.013.954-5.013-1.43z"/><path fill="#de2110" d="M265.84 299.88v1.43h.5l-.5-1.43zM280.38 300.36v1.908l2.005-.477-2.005-1.43z"/><path fill="#185200" d="M292.41 301.31l1.003.954v-.954h-1.003z"/><path fill="#de3110" d="M272.36 302.27v.477h1.504l-1.504-.477m2.507 0l.5.477-.5-.477z"/><path fill="#ad1810" d="M256.82 303.22v.477h3.008l-3.008-.477z"/><path fill="#631808" d="M260.33 303.22v.477h9.525l-9.525-.477z"/><path fill="#ad1810" d="M269.85 303.22v.477h3.008l-3.008-.477z"/><path fill="#8c8c8c" d="M254.31 303.7v.477h2.005l-2.005-.477z"/><path fill="#bdbdbd" d="M256.82 303.7v.477h1.504l-1.504-.477z"/><path fill="#428c00" d="M259.83 303.7c1.32 1.583 2.382 2.282 4.512 1.908l-4.512-1.908z"/><path fill="#397b00" d="M262.84 303.7l1.003 2.385h1.002l-2.005-2.385z"/><path fill="#319400" d="M266.34 306.08l4.01-1.908c-2.042-.814-4.41-.584-4.01 1.908z"/><path fill="#de2110" d="M229.75 308.47c5.233-3 11.967 5.274 16.043-1.43l-.5-.478c-1.667.584-3.682 1.96-5.514 1.705-1.227-.172-13.884-8.372-10.03.203zM284.89 306.56c-.694 6.672 11.805.054 15.04 1.908 1.724-3.644-2.3-5.268-5.422-3.37-1.496.91-2.242 2.783-4.123 3.113-1.855.326-3.85-1-5.495-1.65z"/><path fill="#734a42" d="M259.83 305.61v.477h1.504l-1.504-.477z"/><path fill="#de2110" d="M258.82 308.47l4.01.477c-.245-2.927-3.433-3.64-4.01-.477z"/><path fill="#ad1810" d="M264.34 306.08v.477h1.504l-1.504-.477z"/><path fill="#de2110" d="M266.85 306.56l.5 2.385 3.51-.477c-.41-2.34-1.796-2.387-4.01-1.908zM257.82 306.56l-2.005.477v2.862c1.733-.7 2.734-1.513 2.005-3.34zM263.34 306.56v2.862h3.008v-2.862h-3.008z"/><path fill="#631808" d="M258.32 307.04v1.908h.5l-.5-1.908m4.512 0v1.908h.5l-.5-1.908z"/><path fill="#ad1810" d="M270.86 307.04l-1.504 2.385h1.504v-.954l1.003.478v-1.908h-1.003z"/><path fill="#de2110" d="M271.86 307.04v2.385l2.005.477.502-2.385-2.507-.477z"/><path fill="#ad1810" d="M255.32 307.51l.5.477-.5-.477m11.03 0v.954h1.002v-.954h-1.003z"/><path fill="#de2110" d="M222.23 309.42c2.015 4.108 12.55 5.25 15.04.954-5.83.7-9.585-3.675-15.04-.954z"/><path fill="#de2110" d="M236.77 309.9c-4.703-3.61-7.752.932 0 0zM292.92 309.42v.477c2.59.312 5.465 1.236 6.016-1.908l-6.016 1.43z"/><path fill="#de2110" d="M292.41 310.38c2.477 4.274 13.046 3.11 15.04-.954-5.455-2.72-9.21 1.655-15.04.954z"/><path fill="#ad1810" d="M258.82 308.47v.477l2.005.477-2.005-.954z"/><path fill="#631808" d="M267.35 308.95v.477h1.504l-1.504-.477z"/><path fill="#de2110" d="M259.33 309.42v.477h2.005l-2.005-.477zM268.35 309.42v.477h2.005l-2.005-.477z"/><path fill="#184a00" d="M259.33 309.9v.477h2.005l-2.005-.477z"/><path fill="#428c00" d="M266.85 309.9c1.83 2.139 4.956 4.796 7.52 2.385l-7.52-2.385z"/><path fill="#294200" d="M268.35 309.9v.477h2.005l-2.005-.477z"/><path fill="#319400" d="M255.82 312.28c2.356 2.212 4.845.153 6.517-1.908l-6.517 1.908z"/><path fill="#631808" d="M296.93 310.38v.477h1.504l-1.504-.477z"/><path opacity=".99" d="M248.23 228.22l.807-.215c.054.148.14.255.257.322.117.066.272.087.464.065.212-.025.367-.08.464-.167.066-.06.093-.134.08-.22-.007-.06-.032-.107-.076-.14-.045-.033-.14-.057-.287-.072-.68-.062-1.115-.14-1.306-.234-.266-.13-.417-.338-.453-.62-.032-.256.047-.483.236-.682.19-.198.507-.323.952-.375.424-.05.747-.02.97.087.223.107.39.285.5.533l-.754.226c-.048-.112-.123-.192-.224-.243-.1-.05-.234-.065-.405-.045-.216.025-.367.07-.453.14-.057.047-.08.104-.073.168.006.056.04.1.1.132.08.044.344.087.79.13.45.044.77.125.96.24.19.12.3.304.332.55.035.27-.054.517-.266.74-.212.22-.55.36-1.015.413-.42.05-.766.006-1.034-.128-.266-.134-.454-.337-.566-.607zm-3.635-.262c-.033-.26.002-.517.105-.775s.268-.465.497-.62c.23-.157.497-.253.8-.288.47-.055.872.046 1.208.3.337.255.533.603.59 1.045.057.446-.047.833-.313 1.163-.263.327-.625.517-1.083.57-.285.034-.564.004-.838-.088-.273-.092-.49-.248-.655-.467-.165-.222-.27-.5-.312-.84zm.845-.056c.038.292.14.508.305.646.166.14.355.195.57.17.213-.024.382-.123.506-.295.127-.172.17-.406.133-.702-.037-.288-.14-.5-.305-.64-.163-.138-.352-.195-.566-.17-.214.024-.384.123-.51.295-.125.173-.17.405-.132.697zm-2.55-1.604l-.092-.722.82-.095.092.723-.82.095zm.43 3.346l-.378-2.947.82-.095.377 2.947-.82.094zm-4.832-3.567l1.578-.183c.355-.042.63-.047.823-.017.26.04.49.14.69.3.203.158.368.363.494.613.127.248.215.562.264.943.043.335.036.63-.02.88-.07.31-.19.567-.366.773-.132.156-.32.288-.565.395-.183.08-.434.14-.753.176l-1.624.19-.522-4.07zm.952.588l.345 2.694.645-.076c.24-.028.413-.06.517-.1.135-.05.244-.12.325-.21.083-.09.142-.23.177-.417.034-.19.03-.442-.01-.756s-.1-.552-.18-.713c-.08-.162-.178-.284-.295-.366-.117-.08-.258-.13-.424-.144-.123-.012-.36.003-.712.044l-.388.045z" fill="#ecca5e"/><path fill-rule="evenodd" fill="#ecca5e" d="M250.007 239.54l12.19 15.242-.592.684-12.19-15.24zM281.374 238.377l-13.62 18.012-1.044-.36 13.62-18.013zM246.86 242.55l14.425 13.357-.478.76-14.425-13.358zM243.52 245.64l15.84 11.818-.39.804-15.84-11.82zM283.426 243.332l-14.278 13.498-.79-.467 14.278-13.5zM286.58 245.83l-15.987 11.635-.72-.56 15.987-11.637z"/><path fill="#428c00" d="M235.93 286.02h-.5c-.095-2.733-1.16-4.483-4.012-5.247.07 1.455 1.116 7.136 3.51 5.247h.5l-1.002 4.293c1.497-1.58 7.68-7.142 5-9.593-2.293-2.097-3.47 4.253-3.496 5.3zM232.1 251.89h-.5c-.095-2.733-1.16-4.483-4.012-5.247.07 1.455 1.116 7.136 3.51 5.247h.5l-1.002 4.293c1.497-1.58 7.68-7.142 5-9.593-2.293-2.097-3.47 4.253-3.496 5.3z"/><path opacity=".99" d="M297.13 230.59l-.76-.084.052-.433c-.147.154-.313.263-.496.327-.18.063-.36.084-.534.065-.356-.04-.645-.21-.866-.51-.22-.302-.3-.697-.24-1.186.06-.5.23-.866.51-1.098.28-.233.607-.33.985-.287.347.038.63.208.85.51l.178-1.466.82.09-.498 4.07zm-2-1.78c-.038.314-.02.547.054.698.107.218.28.34.516.366.19.02.36-.037.51-.174.15-.14.245-.36.282-.664.042-.338.007-.59-.103-.75-.11-.165-.266-.258-.466-.28-.195-.022-.367.034-.518.167-.148.132-.24.344-.276.637zm-3.3-.884l-.73-.21c.12-.276.288-.47.51-.585s.532-.15.935-.104c.365.04.633.112.802.215.168.103.28.22.338.357.058.134.066.37.025.71l-.12.91c-.032.258-.043.45-.032.578.012.125.045.262.1.41l-.81-.09c-.016-.054-.033-.134-.052-.24-.008-.047-.013-.078-.018-.094-.155.115-.317.196-.484.243-.168.047-.343.06-.523.04-.318-.035-.56-.145-.724-.33-.164-.185-.23-.403-.198-.655.02-.167.08-.31.18-.43.1-.123.228-.21.386-.26.16-.055.386-.092.676-.112.392-.026.665-.06.82-.104l.01-.077c.02-.15-.007-.26-.077-.332-.07-.074-.213-.123-.43-.146-.145-.017-.262 0-.35.045-.09.045-.167.133-.234.264zm1.018.754c-.11.022-.28.043-.513.065-.234.02-.388.05-.463.086-.116.06-.18.147-.195.258-.013.11.018.21.094.298.077.09.18.14.313.155.148.018.295-.013.44-.09.108-.06.184-.14.228-.237.03-.065.056-.19.08-.377l.018-.156zm-2.09-1.785l-.077.622-.56-.062-.145 1.19c-.03.24-.04.38-.037.422.007.04.027.075.06.105.037.03.082.05.137.055.075.008.188-.004.338-.04l-.004.614c-.2.058-.422.073-.663.046-.148-.016-.278-.054-.39-.113-.114-.062-.194-.133-.24-.213-.047-.082-.072-.188-.078-.318-.007-.092.006-.277.04-.552l.157-1.286-.376-.042.078-.62.375.04.072-.586.88-.364-.128 1.04.56.064zm-3.323 2.62l-.82-.09.36-2.95.762.086-.05.42c.153-.184.286-.3.396-.353.113-.05.236-.07.368-.055.188.02.362.09.523.207l-.337.652c-.128-.1-.25-.158-.37-.17-.114-.014-.216.006-.303.058-.087.05-.163.152-.23.304-.063.153-.125.48-.187.98l-.11.912zm-2.2-1.194l.802.222c-.14.273-.333.472-.58.597-.243.122-.535.165-.875.127-.54-.06-.918-.27-1.135-.635-.172-.29-.232-.64-.182-1.05.06-.49.24-.856.543-1.102.302-.248.658-.35 1.07-.304.46.05.806.237 1.037.557.23.318.304.776.22 1.372l-2.055-.227c-.022.232.022.42.132.563.11.143.26.224.45.245.128.014.24-.007.336-.064.095-.056.175-.156.238-.3zm.144-.782c.02-.227-.02-.405-.122-.534-.103-.132-.237-.207-.405-.225-.178-.02-.334.025-.466.136-.132.11-.21.273-.234.486l1.226.136zm-5.74 1.114l.5-4.07.82.09-.18 1.467c.286-.247.602-.35.95-.313.376.042.672.207.887.496.216.286.293.673.234 1.16-.06.503-.235.877-.52 1.12-.285.245-.607.347-.967.308-.177-.02-.347-.08-.51-.183-.16-.104-.293-.245-.398-.424l-.053.434-.76-.085zm1.003-1.448c-.037.306-.014.537.07.694.116.224.292.348.527.374.18.02.344-.036.488-.168.147-.134.24-.36.278-.676.04-.336.007-.586-.104-.748-.11-.165-.265-.258-.465-.28-.197-.022-.37.033-.517.165-.148.13-.24.343-.277.64zm-2.218-2.08l.09-.722.82.09-.09.723-.82-.09zm-.41 3.348l.36-2.948.822.09-.36 2.95-.82-.092zm-3.62-.4l.494-4.038.862.096-.41 3.35 2.148.24-.084.684-3.01-.333z" fill="#ecca5e"/><path fill="#428c00" d="M226.99 261.39h-.5c-.095-2.733-1.16-4.483-4.012-5.247.07 1.455 1.116 7.137 3.51 5.247h.5l-1.002 4.293c1.497-1.58 7.68-7.142 5-9.593-2.293-2.097-3.47 4.253-3.496 5.3z"/><path d="M244.7 246.23c0 .366-.415.662-.928.662s-.93-.296-.93-.663c0-.367.417-.663.93-.663s.93.296.93.662zM247.83 242.92c0 .366-.415.662-.928.662s-.93-.296-.93-.663c0-.367.417-.663.93-.663s.93.296.93.662zM250.74 239.83c0 .366-.415.662-.928.662s-.93-.296-.93-.663c0-.367.417-.663.93-.663s.93.296.93.662zM281.62 238.61c0 .366-.415.662-.928.662s-.93-.296-.93-.663c0-.367.417-.663.93-.663s.93.296.93.662zM283.83 242.92c0 .366-.415.662-.928.662s-.93-.296-.93-.663c0-.367.417-.663.93-.663s.93.296.93.662zM287.08 245.68c0 .366-.415.662-.928.662s-.93-.296-.93-.663c0-.367.417-.663.93-.663s.93.296.93.662z" fill-rule="evenodd" fill="#fac349"/><path opacity=".99" d="M270.82 222.37l-.748-.135c.087-.287.234-.498.44-.634.208-.135.514-.2.92-.197.368.003.642.048.82.133.18.084.306.19.377.32.072.127.107.36.103.702l-.018.917c-.003.26.008.453.032.578.027.124.075.256.146.4l-.816-.008c-.02-.053-.047-.13-.077-.233-.013-.047-.023-.077-.028-.092-.143.13-.294.225-.456.29-.16.063-.333.094-.515.092-.32-.003-.573-.088-.757-.256-.183-.167-.272-.378-.27-.63.002-.17.046-.317.13-.447.086-.133.205-.232.357-.3.153-.07.373-.13.66-.178.386-.066.654-.127.803-.186v-.078c.003-.15-.036-.258-.114-.323-.078-.065-.226-.1-.443-.1-.147-.002-.262.024-.345.08-.082.053-.15.148-.202.285zm1.098.647c-.106.033-.274.07-.504.116-.23.044-.38.09-.45.133-.11.07-.164.163-.165.275-.002.11.04.206.126.287.085.08.194.122.327.123.15 0 .292-.044.428-.135.1-.07.168-.156.2-.26.022-.065.035-.193.036-.38l.002-.158zm-3.373-1.976l.007-.726.825.008-.007.727-.825-.01zm-.034 3.372l.03-2.968.826.008-.03 2.968-.825-.008zm-1.55-.014l-.825-.008.03-2.968.766.007-.003.42c.133-.198.252-.328.356-.39.107-.063.227-.093.36-.092.188.002.368.053.542.153l-.263.683c-.138-.087-.267-.13-.386-.132-.116 0-.214.03-.295.09-.08.06-.144.168-.193.326-.047.158-.073.49-.078.995l-.01.917zm-1.333-2.98l-.006.625-.563-.005-.012 1.196c-.002.243 0 .384.01.425.012.04.036.072.073.098.04.026.086.04.14.04.077 0 .188-.023.333-.072l.065.61c-.192.076-.41.113-.653.11-.15 0-.282-.025-.4-.072-.12-.05-.208-.112-.264-.187-.054-.077-.09-.18-.11-.31-.018-.09-.025-.275-.022-.552l.013-1.294-.38-.002.006-.626.38.003.005-.59.834-.45-.01 1.047.563.005zm-4.168.867l-.75-.135c.088-.287.235-.498.442-.634.207-.136.513-.202.918-.198.37.003.642.048.822.133.18.085.304.19.375.32.074.128.108.362.105.703l-.018.916c-.003.26.008.453.032.578.027.124.075.256.146.4l-.816-.008c-.02-.053-.047-.13-.077-.233-.015-.047-.024-.078-.03-.093-.142.13-.294.226-.455.29-.16.064-.333.095-.515.093-.32-.003-.574-.088-.76-.256-.18-.166-.27-.377-.268-.63.002-.168.045-.317.13-.446.086-.132.205-.23.356-.3.153-.068.373-.128.66-.177.386-.066.654-.128.804-.186v-.077c.002-.15-.036-.26-.114-.323-.078-.066-.225-.1-.442-.1-.147-.002-.262.024-.345.08-.082.053-.15.148-.202.285zm1.097.647c-.107.033-.274.07-.504.116-.23.044-.38.09-.45.133-.11.072-.164.164-.165.276 0 .11.04.205.126.286.086.08.195.122.328.123.15 0 .29-.044.427-.136.1-.07.166-.156.2-.26.02-.066.033-.193.035-.38l.002-.158zm-5.743 1.373l.04-4.097 1.397.013c.53.006.874.03 1.034.072.246.063.45.2.616.408.164.206.245.473.24.8-.002.25-.05.46-.15.632-.097.17-.22.304-.37.402-.148.095-.298.158-.45.188-.21.038-.51.055-.904.05l-.567-.004-.016 1.546-.87-.008zm.904-3.396l-.012 1.162.476.004c.343.003.572-.016.688-.058s.207-.108.272-.2c.068-.09.102-.196.103-.317.002-.148-.043-.27-.134-.37-.09-.097-.206-.158-.347-.184-.103-.02-.312-.03-.625-.033l-.42-.004zM259.44 299.77l-.57-.015c.028-.222.11-.395.246-.52.136-.124.355-.207.655-.25.274-.04.483-.038.626.004.143.04.25.106.318.193.07.086.126.256.166.508l.102.682c.03.194.063.335.097.425.034.088.087.18.157.278l-.605.088c-.022-.037-.05-.09-.087-.164-.015-.034-.026-.056-.032-.066-.09.112-.19.2-.3.266-.112.066-.235.108-.37.128-.24.034-.437 0-.594-.103-.157-.103-.25-.25-.28-.437-.02-.124-.006-.24.04-.345.047-.107.122-.195.226-.262.105-.067.26-.137.466-.206.278-.093.47-.17.572-.23l-.01-.057c-.017-.112-.06-.187-.124-.226-.066-.04-.18-.047-.34-.024-.11.016-.19.05-.246.1-.054.048-.092.126-.114.234zm.894.354c-.074.036-.193.084-.358.143-.164.06-.27.11-.317.15-.072.065-.1.14-.088.222.013.08.056.146.13.197.073.05.16.068.258.054.11-.015.21-.065.3-.148.065-.064.103-.135.114-.214.008-.052 0-.148-.02-.288l-.02-.116zm-1.82-.242l-.585.19c-.04-.11-.1-.19-.182-.238-.08-.048-.178-.063-.293-.046-.152.022-.266.09-.342.204-.074.113-.092.286-.055.52.042.262.117.44.226.534.11.095.243.13.398.108.116-.017.206-.062.27-.135.065-.074.1-.19.105-.35l.617.012c-.02.272-.108.487-.264.647-.156.158-.383.26-.68.303-.34.05-.625-.014-.86-.187-.232-.175-.377-.44-.435-.8-.058-.364-.002-.66.168-.892.17-.232.426-.373.77-.423.282-.04.515-.014.7.078.184.09.332.25.442.474zm-3.407-.478l-.086-.54.613-.087.086.538-.613.09zm.4 2.5l-.352-2.202.612-.088.352 2.2-.613.09zm-1.24.18l-.485-3.04.612-.088.485 3.038-.613.09zm-2.75.396l-.486-3.038.613-.088.175 1.094c.156-.232.363-.366.622-.404.28-.04.53.023.745.19.216.168.352.433.41.796.06.376.012.68-.144.91-.154.23-.366.365-.634.404-.132.02-.268.007-.407-.037-.14-.045-.264-.123-.377-.232l.052.323-.57.082zm.423-1.236c.037.228.102.39.195.49.13.14.283.196.46.17.134-.02.24-.09.317-.213.078-.123.1-.303.06-.54-.04-.25-.116-.425-.23-.522-.113-.098-.245-.136-.395-.115-.146.02-.26.094-.34.217-.08.122-.102.293-.067.514zm-1.6 1.406l-.053-.33c-.065.13-.16.24-.29.327-.124.087-.263.142-.416.164-.154.024-.3.01-.433-.036-.133-.047-.237-.125-.31-.235-.075-.11-.13-.268-.162-.476l-.222-1.393.612-.087.162 1.01c.05.31.09.5.123.566.034.065.085.115.15.147.067.032.145.04.237.028.104-.015.194-.056.268-.122.074-.067.12-.143.137-.227.018-.086 0-.287-.05-.602l-.147-.928.612-.09.35 2.202-.567.082zm-4.616-1.584l.57-.083.052.324c.056-.122.142-.226.258-.313.115-.087.25-.142.403-.164.27-.04.513.028.732.2.22.175.357.44.414.798.06.367.01.667-.146.9-.157.23-.37.364-.638.403-.127.02-.247.012-.36-.02-.11-.035-.233-.102-.366-.203l.177 1.11-.61.087-.486-3.038zm.775.975c.038.25.12.425.24.528.123.103.258.144.406.122.143-.02.252-.092.33-.213.076-.123.095-.308.056-.555-.037-.23-.113-.395-.228-.493-.115-.1-.245-.137-.39-.117-.148.022-.264.095-.345.22-.082.123-.105.293-.07.508zm-1.66.69l.625.008c-.045.224-.143.405-.295.54-.15.136-.353.222-.607.26-.402.057-.72-.026-.953-.248-.185-.178-.3-.42-.35-.725-.058-.365-.004-.665.164-.9.167-.236.404-.376.71-.42.345-.05.633.02.867.208.234.186.382.503.445.95l-1.533.223c.03.172.102.3.212.382.11.082.235.113.376.093.096-.013.172-.05.23-.11.057-.058.094-.146.11-.26zm-.06-.595c-.03-.168-.097-.29-.198-.363-.1-.076-.214-.105-.34-.087-.133.02-.236.082-.308.187-.073.105-.095.237-.068.396l.914-.133zm-4.383 1.953l-.485-3.038 1.357-.197c.34-.05.592-.057.755-.024.164.03.303.11.418.235.116.126.188.28.216.46.036.227-.005.425-.122.595-.117.168-.313.292-.587.37.153.058.28.127.386.206.107.08.255.226.447.44l.485.537-.77.11-.573-.593c-.203-.212-.34-.344-.41-.396-.072-.053-.143-.086-.215-.1-.072-.012-.182-.008-.33.013l-.13.02.202 1.268-.645.093zm.365-1.847l.477-.068c.308-.045.5-.085.572-.12.073-.037.126-.088.16-.155s.044-.146.03-.238c-.017-.103-.06-.18-.127-.235-.067-.055-.154-.083-.26-.085-.055 0-.212.02-.473.058l-.503.072.122.77zM288.54 302.56l-.542-.17c.094-.205.225-.348.393-.43.168-.082.403-.103.704-.063.273.036.472.095.597.175.126.08.208.17.248.272.04.102.044.28.006.532l-.107.68c-.03.194-.04.338-.035.434.007.094.03.197.068.31l-.607-.08c-.01-.042-.02-.102-.033-.182l-.012-.07c-.12.082-.24.14-.368.172-.127.033-.257.04-.392.022-.24-.032-.418-.12-.54-.26-.117-.142-.163-.306-.135-.495.02-.124.066-.23.143-.32.077-.09.175-.152.295-.188.122-.04.292-.063.51-.073.294-.014.5-.035.617-.064l.01-.058c.015-.112-.002-.196-.053-.25-.05-.057-.157-.096-.32-.117-.108-.015-.197-.005-.264.028-.067.032-.126.097-.18.194zm.75.583c-.08.014-.21.027-.386.04-.174.01-.29.03-.348.056-.088.043-.138.106-.15.19-.013.08.01.155.065.223.056.068.133.11.232.122.11.015.22-.006.33-.06.083-.044.142-.102.176-.175.023-.048.045-.14.066-.28l.017-.117zm-2.056.805l-.613-.082.167-1.125c.035-.237.045-.392.03-.465-.017-.074-.052-.135-.106-.18-.05-.048-.12-.077-.202-.088-.106-.014-.205 0-.298.045-.092.044-.16.11-.207.197-.044.086-.084.253-.12.5l-.147.998-.614-.082.325-2.204.57.076-.048.323c.238-.22.51-.312.818-.27.135.017.255.058.36.12.106.06.18.13.227.21.048.08.076.166.084.26.01.095 0 .228-.024.398l-.202 1.37zm-3.908-2.083l-.542-.17c.094-.205.224-.35.392-.43.168-.082.402-.104.703-.064.273.038.472.096.597.177.124.078.207.17.247.272.04.1.043.278.006.53l-.107.68c-.03.195-.04.34-.035.435.007.093.03.197.068.31l-.607-.082c-.01-.04-.023-.1-.035-.18-.005-.036-.01-.06-.01-.07-.12.082-.243.14-.37.172-.126.032-.257.04-.392.02-.24-.03-.418-.117-.537-.26-.12-.14-.165-.305-.137-.493.017-.125.065-.23.142-.32.077-.09.175-.153.295-.19.12-.037.29-.06.508-.07.294-.014.5-.035.617-.065l.01-.058c.016-.113-.002-.196-.053-.25-.052-.057-.158-.096-.32-.118-.11-.014-.197-.005-.264.03-.067.03-.127.095-.18.193zm.75.582c-.082.014-.21.028-.386.04-.175.012-.292.03-.35.057-.087.043-.137.106-.15.19-.01.08.01.156.066.224.055.068.132.11.23.122.112.015.222-.006.333-.062.08-.043.14-.1.174-.173.023-.048.045-.142.065-.28l.016-.118zm-1.67-.726l-.62.024c-.003-.118-.037-.21-.1-.278-.064-.068-.153-.11-.267-.125-.154-.02-.284.015-.39.104-.105.087-.175.25-.21.484-.038.262-.02.453.056.573.077.12.194.192.35.213.116.015.215-.003.3-.056.082-.054.15-.155.204-.305l.588.178c-.102.255-.25.437-.448.548-.197.11-.445.146-.743.106-.34-.045-.594-.183-.767-.413-.17-.23-.23-.525-.176-.884.053-.364.196-.634.428-.81.232-.175.52-.24.865-.195.282.04.498.127.647.265.15.138.244.33.282.576zm-3.122-1.385l.08-.54.613.082-.08.54-.613-.082zm-.37 2.504l.326-2.206.613.082-.324 2.204-.615-.08zm-.62-.084l-.614-.082.166-1.126c.035-.238.045-.393.03-.466-.017-.074-.052-.134-.106-.18-.052-.047-.12-.076-.203-.087-.106-.014-.205 0-.298.045-.093.044-.162.11-.208.197-.044.087-.084.253-.12.5l-.148 1-.613-.083.326-2.205.57.075-.048.324c.24-.223.512-.314.82-.273.134.018.254.058.36.12.104.06.18.13.226.21.048.08.076.167.084.26.01.096.002.228-.023.398l-.202 1.37zm-2.98-2.95l.08-.54.612.08-.08.54-.613-.08zm-.37 2.503l.325-2.206.613.082-.325 2.205-.613-.08zm-3.694-2.742l.565.076-.044.3c.238-.206.496-.29.775-.254.15.02.273.066.374.14.1.07.176.17.228.298.12-.104.242-.177.368-.22.127-.042.256-.054.39-.037.17.024.31.077.418.16.108.08.182.188.22.322.03.1.028.256-.003.466l-.206 1.41-.613-.082.186-1.26c.032-.22.032-.363 0-.432-.045-.09-.126-.144-.244-.16-.086-.012-.17.003-.253.042-.084.04-.15.106-.197.198-.048.09-.087.24-.117.45l-.156 1.057-.614-.08.178-1.21c.032-.213.042-.353.03-.418-.014-.066-.04-.116-.083-.153-.04-.038-.1-.06-.178-.072-.094-.012-.183 0-.266.04-.082.037-.147.1-.194.187-.046.087-.084.237-.115.448l-.158 1.072-.614-.082.325-2.205zm-2.983.694c.03-.193.107-.374.234-.542.127-.168.29-.287.487-.358.2-.072.412-.092.64-.062.35.047.62.194.813.44.192.247.264.536.215.866-.05.334-.204.595-.463.785-.257.19-.558.26-.9.215-.214-.028-.41-.1-.59-.218-.178-.117-.305-.27-.38-.46-.074-.19-.092-.412-.055-.665zm.624.115c-.03.22 0 .394.09.525.093.13.22.206.378.228.16.02.303-.02.428-.12.126-.103.205-.264.238-.486.032-.216.002-.39-.09-.52-.09-.13-.216-.206-.376-.228-.16-.02-.303.02-.43.12-.125.103-.205.262-.237.48zm-3.424-2.436l1.18.16c.266.034.466.08.6.138.18.078.327.192.44.345.115.152.193.33.234.535.04.203.04.447 0 .732-.038.25-.102.462-.195.634-.112.21-.253.375-.422.492-.127.09-.29.15-.49.183-.148.022-.342.02-.58-.013l-1.215-.162.448-3.044zm.57.602l-.297 2.016.48.064c.18.024.313.032.396.024.108-.012.2-.042.278-.092.08-.05.15-.14.213-.27.064-.132.114-.315.148-.55.035-.236.04-.42.014-.55-.026-.133-.072-.24-.14-.32-.068-.08-.16-.142-.278-.183-.088-.03-.263-.064-.526-.1l-.29-.038z" fill="#ecca5e"/></g></svg>