<svg xmlns="http://www.w3.org/2000/svg" height="512" width="512" version="1"><g stroke-width="1pt" fill-rule="evenodd"><path fill="#fff" d="M0 0h512.005v512H0z"/><path fill="#00bf13" d="M0 0h256.002v512H0z"/><g fill="#f21930"><path d="M363.464 322.58c-34.053 61.248-109.16 83.01-168.84 50.14s-81.437-107.987-48.565-167.667c32.87-59.678 107.98-81.436 167.66-48.564 22.06 12.15 37.77 28.127 50.124 50.883-4.51-6.2-9.543-11.32-16.15-16.514-40.707-32.005-99.716-24.942-131.718 15.765-32.003 40.706-24.94 99.715 15.765 131.718 40.708 32.003 99.717 24.94 131.72-15.766z"/><path d="M256.08 224.4l48.807 16.608 30.257-41.74-.72 51.55 49.044 15.876-49.24 15.244.053 51.556-29.72-42.125-49.01 15.983 30.875-41.284"/></g></g></svg>