<svg xmlns="http://www.w3.org/2000/svg" height="512" width="512"><path d="M0 0v512h512V0H0z" fill-rule="evenodd" fill="#67b1ff"/><g stroke-width="1pt"><path fill-rule="evenodd" fill="#0000b4" d="M0 0h313.472v207.603H0z"/><path fill="#fff" d="M0 0v23.21L278.45 207.6h35.05v-23.21L35.05 0H0zm313.5 0v23.21L35.05 207.6H0v-23.21L278.45 0h35.05z"/><path fill="#fff" d="M130.625 0v207.6h52.25V0h-52.25zM0 69.2v69.2h313.5V69.2H0z"/><path fill="#c00" d="M0 83.04v41.52h313.5V83.04H0zM141.075 0v207.6h31.35V0h-31.35zM0 207.6l104.5-69.2h23.366l-104.5 69.2H0zM0 0l104.5 69.2H81.134L0 15.474V0zm185.634 69.2L290.134 0H313.5L209 69.2h-23.366zM313.5 207.6L209 138.4h23.366l81.134 53.727V207.6z"/></g><g fill-rule="evenodd"><path d="M303.303 239.874v129c16.63 90.3 45.735 103.2 83.156 129 37.42-25.8 66.524-38.7 83.155-129v-129H303.302z" fill="#fff"/><path d="M375.37 239.874l.175 250.683 11.088 7.28 11.087-7.482-.174-250.477H375.37z" fill="#da0000"/><path d="M303.303 370.236l8.317 35.137 150.116-.098 7.88-35.04H303.305zM303.303 239.874h166.312v90.3H303.302z" fill="#da0000"/><g transform="matrix(.229 0 0 .314 237.141 370.154)"><rect rx="23.225" ry="27.989" height="55.978" width="46.45" stroke="#000" y="-281.68" x="306.09" stroke-width=".75" fill="#f6efec"/><path d="M850.4-296.57s47.64-3.573 64.315-22.63c16.675-19.056-11.314-53.596 6.55-57.17 7.147-.595 17.27 1.788 25.012 11.315-1.19-7.145-5.955-11.314-7.74-15.48-6.552-5.958-13.103-5.362-22.63-5.362-6.552 1.192-7.743-1.192-18.46-13.697-5.36-5.955-5.36-20.842-1.193-30.966-12.505 9.528-10.123 22.628-8.932 25.606 2.977 13.102 5.955 16.675 5.955 22.63-3.573-1.786-10.124-17.27-44.068-19.652-33.946-2.382-119.7 23.82-158.41 23.82-38.71 0-94.688-16.078-94.688-16.078s14.292-11.315-2.978-16.08c-17.27-4.763-55.382 16.676-66.102 4.765-7.74-11.314-4.764-8.932-5.955-14.29-2.977 1.785-4.764 8.932-.595 18.46 4.168 9.528 6.55 6.55 5.955 6.55-.596 0-13.697 0-14.888 4.765-1.192 3.572-2.98 7.74 3.572 20.842 2.382-13.1-6.55-14.887 13.1-16.078 19.654-1.192 33.35 7.74 50.024 10.718 16.675 2.978 16.675-7.146 17.27-6.55.596.595 51.214 14.292 97.664 11.314 46.45-2.977 121.49-28.585 156.02-23.225 34.54 5.36 57.17 30.37 57.765 53.596-.595 14.292-15.483 21.438-27.393 23.82-14.292 2.382-47.64 5.956-47.64 5.956l18.46 13.1z" transform="matrix(.88 0 0 .698 113.77 -89.63)" stroke="#000" stroke-width=".875" fill="#ff0"/><path d="M683.06-248.92c-.596 0-32.754.596-42.282 14.292-9.528 13.697-13.697 26.8-13.1 26.8.594 0 21.437-11.316 21.437-11.316s-15.483 22.63-7.146 42.877c8.336 20.247-22.01 19.056-39.508 19.65-7.742-5.954-32.473-16.078-41.292-17.864-5.507-2.085-16.32-2.354-27.616 10.346-6.653 7.83 9.888-7.37 26.295-6.178 1.773 1.786 2.915 3.574 3.23 7.74-8.74-.594-17.84-10.718-28.558 10.125 10.72-7.146 12.06-6.997 17.493-7.444 7.24-.537 6.31 3.275 6.01 3.275-1.19 0-4.144.595-8.616 4.764-2.383 2.976-8.338 9.527-7.147 9.527s4.752-3.573 10.327-6.55c3.484-2.383 6.793-2.383 17.322.595 57.765 13.696 88.73 3.573 92.304-1.787 1.787-2.38-33.35-69.675 60.147-87.54-1.19-.596-39.303-10.72-39.303-11.315z" transform="matrix(.855 0 0 1 231.25 -38.113)" stroke="#000" stroke-width=".5" fill="#ff0"/><path d="M472.84-212.6c32.753 27.394 253.69-29.18 281.68-48.832 16.08-11.315 44.068-19.652 44.068 19.056 7.146-26.203 7.147-32.753 7.147-32.158.595.596 11.314 10.125 20.843 42.283 2.382-28.587-4.17-45.26-.596-42.88 2.382-2.38 2.382 14.293 21.438 37.518-4.168-18.46-5.36-26.798-5.36-26.798s35.732 34.54 55.98 39.304c20.247 4.764 49.427-9.528 58.36-1.19 8.932 8.337 24.418 23.224 23.818 35.135-.59 11.91-33.347 1.785-36.92 11.313-3.573 9.53 2.382 9.53 2.382 9.53s2.977 7.145 5.36 13.1c1.786-4.17-1.787-13.102 4.764-13.697 4.764.595 4.764 8.337 5.955 12.506 1.388-4.764-.2-14.292 4.168-14.292 4.764-.993 5.36 7.543 8.932 13.1v-13.1c13.698-4.17 25.604-4.764 27.394-13.697 1.78-8.933-20.846-29.18-26.206-42.282-5.356-13.1 4.17-18.46-5.952-25.606-10.123-7.146-48.832 11.315-66.697 4.17-17.867-7.147-10.72-58.362-78.014-69.676-67.293-11.315-249.52 59.55-281.68 62.53-32.158 2.976-71.46-10.125-71.46-10.125l.594 54.787z" stroke="#000" stroke-width=".625" fill="#ff0"/><path d="M420.43-263.22s-28.585-37.518-51.81-41.09c-23.225-2.978-45.855 14.292-50.62 11.91-4.763-2.383-6.55.596-9.527 5.955-2.978 5.36.596 8.932.595 8.337 1.19 0 4.17-8.933 5.36-9.528 1.192-.596-5.955 10.72 1.192 11.91 2.382.596 3.573-8.337 6.55-11.91.596.595-4.764 12.506-1.786 13.1 2.977.597 6.55-11.91 11.91-14.887 7.742-5.36 19.056-7.147 33.35-7.146 14.29 4.17 43.47 38.71 46.45 38.113l8.336-4.763z" transform="matrix(.984 .227 .179 -1.246 64.173 -655.73)" stroke="#000" stroke-width=".5" fill="#ff0"/><path d="M420.43-263.22s-28.585-37.518-51.81-41.09c-23.225-2.978-45.855 14.292-50.62 11.91-4.763-2.383-6.55.596-9.527 5.955-2.978 5.36.596 8.932.595 8.337 1.19 0 4.17-8.933 5.36-9.528 1.192-.596-5.955 10.72 1.192 11.91 2.382.596 3.573-8.337 6.55-11.91.596.595-4.764 12.506-1.786 13.1 2.977.597 6.55-11.91 11.91-14.887 7.742-5.36 19.056-7.147 33.35-7.146 14.29 4.17 43.47 38.71 46.45 38.113l8.336-4.763z" transform="matrix(1 0 0 1.129 11.315 42.241)" stroke="#000" stroke-width=".5" fill="#ff0"/><path d="M417.46-267.98l-31.562 15.483 23.225 5.956-16.675 19.056 23.82-7.742-1.785 25.607 13.697-16.673 8.932 23.225 9.528-17.27 11.315 19.056 4.764-18.46 13.696 18.46 4.764-25.01 16.675 15.482-2.382-26.203 20.247 6.55-12.506-20.247s22.034-1.19 20.843-1.19-16.674-13.102-30.37-16.675l-76.227.595z" stroke="#000" stroke-width=".5" fill="#ff0"/><path d="M417.46-267.98l-31.562 15.483 23.225 5.956-16.675 19.056 23.82-7.742-1.785 25.607 13.697-16.673 8.932 23.225 9.528-17.27 11.315 19.056 4.764-18.46 13.696 18.46 4.764-25.01 16.675 15.482-2.382-26.203 20.247 6.55-12.506-20.247s22.034-1.19 20.843-1.19-16.674-13.102-30.37-16.675l-76.227.595z" transform="matrix(.548 0 0 .566 205.56 -123.01)" stroke="#000" stroke-width=".808" fill="#ff0"/><path d="M443.06-316.81s-8.93-7.146-12.504 0c-3.574 7.147 7.74 4.17 7.74 5.36s-7.74 9.528-7.74 19.057c0 9.528 5.955 25.607 5.955 27.99s2.383 8.93 10.72 11.313 11.315-7.74 13.1-8.932c1.788-1.19 13.103 1.786 17.27-8.337 4.17-10.123 4.17-28.584 4.17-28.584s7.146 5.36 7.146-5.36-7.742 0-7.742 0 1.19-11.314-17.27-16.674-20.247 5.36-20.843 4.168z" stroke="#000" stroke-width=".5" fill="#ff0"/><path d="M441.48-317.31c-2.38-4.827-9.14-23.32-9.14-23.32l16.205 6.942c-5.53-1.374-10.25-2.18-9.654-2.18.596 0 7.147 8.934 7.147 8.934 6.45-.374 12.903 1.774 20.843 3.503 0 0 6.55-7.287 5.955-7.287-.596 0-3.573-1.192-3.573-1.192l14.888-6.83-4.764 9.214h-2.978l-5.955 6.69c6.7 1.26 9.975 2.242 16.525 6.445 5.807-.84 10.72-3.852 13.846-6.13-5.21-1.437-7.592-2.558-6.997-2.558.596 0 21.885 1.12 21.885 1.12s-20.89 12.917-33.093 17.65c-11.29-3.245-39.95-9.215-41.14-11.002z" transform="matrix(.942 -.016 .033 1.416 35.5 137.73)" stroke="#000" stroke-width=".54" fill="#ff0"/><rect transform="matrix(.904 .427 -.994 -.108 0 0)" rx="6.865" ry="3.077" height="6.153" width="13.731" y="-1416.1" x="-1065.8"/><rect transform="matrix(.904 .427 -.994 -.108 0 0)" rx="6.865" ry="3.077" height="6.153" width="13.731" y="-1419.6" x="-1050"/><rect transform="matrix(.947 .322 -.997 -.078 0 0)" rx="12.761" ry="5.97" height="11.94" width="25.522" y="-1636.5" x="-1253.9"/><rect transform="matrix(.935 .354 -.996 -.086 0 0)" rx="5.781" ry="2.674" height="5.349" width="11.562" y="-1565.8" x="-1186.4"/><rect transform="matrix(.329 -.944 .136 .991 0 0)" rx="4.931" ry="2.046" height="4.093" width="9.861" y="734.39" x="1061.7"/></g><g stroke="#000" transform="matrix(.887 0 0 1.032 -306.51 114.94)"><path d="M737.05 319.5c1.663 4.742.814 0-.957 7.344 1.094-2.188 2.656-3.438 3.28-3.437.94 0 1.407 0 3.282 1.406-1.718-2.5-4.687-1.875-4.53-5.625-.157-.86-1 .08-1.075.312z" transform="matrix(1.047 0 0 1.389 -30.434 -120.97)" stroke-width=".375" fill="#ff7300"/><rect transform="matrix(.818 -.575 .197 .98 0 0)" rx=".685" ry=".506" height="18.038" width="1.369" y="717.59" x="708.8" stroke-width=".103" fill="#b2802e"/><path d="M734.06 312.16c.78-.47 6.562-11.094 34.062-9.532-15.625 5.313-25.313 16.563-27.656 17.03-1.72.47-5.47-5.78-6.406-7.498z" transform="matrix(.795 0 0 .978 152.8 3.901)" stroke-width=".375" fill="#fff"/><g stroke-width=".333" fill="#007500"><path d="M-3819.3-4447.1v5.78l6.63 1.34-1.82-3.84-4.81-3.28z" transform="matrix(-.501 -.729 .34 .635 325.195 337.111)"/><path d="M-3819.3-4447.1v5.78l6.63 1.34-1.82-3.84-4.81-3.28z" transform="matrix(-.843 -.28 .899 .393 1501.366 974.114)"/><path d="M-3819.3-4447.1v5.78l6.63 1.34-1.82-3.84-4.81-3.28z" transform="matrix(.709 .138 -.824 -.246 -238.038 -272.04)"/><path d="M-3819.3-4447.1v5.78l6.63 1.34-1.82-3.84-4.81-3.28z" transform="matrix(-.363 -.733 .223 .664 327.759 444.465)"/></g><path d="M759.39 305.01c-3.24 1.066-4.827 1.573-6.465 1.782.835.357 2.69.14 4.807.71-1.886.042-5.374 1.48-6.825 1.516 1.003.602 4.58.022 5.238.18-1.913.118-4.99 1.6-6.908 1.6-.878.67 4.46-.46 6.602.807-2.216-.114-6.52 1.16-8.85.853 1.777 1.042 4.952-.112 7.6 1.017-.767.084-6.91.772-9.086.445 1.3.65 5.218.543 6.18 1.12-1.62-.21-5.927.69-7.425.332 1.348.972 5.413.424 6.16 1.01-2.657.925-6.683.186-8.535.437 1.242.58 2.267 1.167 3.366 1.71 1.605 1.127 6.61 4.294 9.6 5.245-3.31-.433-4.464-.49-6.603-.665l4.867 5.16c-2.03-1.095-5.61-3.162-7.988-4.23-5.264-2.577-9.058-2.13-12.704-4.313-5.122-4.966-7.966-10.885-8.222-12.464-.257-1.578-.48-4.407-5.153-2.933 4.51-.58 6.405-5.792 6.758-5.583.16.09.578 3.483 1.638 4.853.706.983 6.71 4.348 7.706 4.527 8.943-5.314 16.197-5.967 24.24-3.117z" transform="matrix(1.047 0 0 1.389 -29.616 -119.66)" stroke-width=".375" fill="#fff"/></g><g stroke="#000" stroke-width=".25" transform="matrix(.887 0 0 1.032 -304.052 114.94)"><rect transform="rotate(44.687)" rx="1.391" ry="5.563" height="11.127" width="2.782" y="-352.62" x="802.37" fill="#e4cc00"/><path d="M795.02 334.335c-.21-1.173-.348-1.765.244-3.303.864-1.083 1.317-2.043 2.893-3.164 1.71-.563 2.286-.055 4.528-2.134.72-1.37 1.82-2.405 2.445-3.882 1.46-2.177 1.95-3.252 3.12-4.927 1.55-1.74 2.8-3.302 3.708-4.636.97-1.71 1.84-2.768 3.245-4.174.57-1.604 1.79-2.794 3.245-4.172 1.113-2.033 3.247-4.36 4.173-6.027 1.642-1.88 2.284-2.697 3.71-4.636 1.254-.827 3.37-2.643 5.1-3.244 2.358-.99 3.62-1.97 5.172-.464 1.027 1.027 2.873 2.68 1.59 3.9-.675.748-1.78.84-3.054.273-1.31-.848-1.946-3.315-3.71-1.39-1.273 1.454-1.926 2.615-3.708 4.17-.886 1.305-1.525 2.28-2.318 4.174-1.048 1.208-1.914 2.567-2.78 4.635-1.125.928-2.094 2.77-2.783 4.172-1.113 1.166-1.916 2.364-2.783 4.173-1.75 1.677-2.405 3.095-3.71 4.172-.86 1.82-2.216 3.558-3.244 4.636-.812 1.32-1.618 2.695-2.318 4.173-1.475 1.506-1.54 1.83-3.71 4.173-1.805 2.355-1.197 2.07-4.025 4.8-1.548.51-3.103.685-5.03-1.298z" fill="#006000"/><rect transform="rotate(22.168)" rx="1.391" ry="5.563" height="11.127" width="2.782" y="-20.84" x="862.29" fill="#e4cc00"/><rect transform="rotate(24.033)" rx="1.391" ry="5.563" height="11.127" width="2.782" y="-48.488" x="863.44" fill="#e4cc00"/><rect transform="matrix(.811 .586 -.586 .811 0 0)" rx="1.391" ry="5.563" height="11.127" width="2.782" y="-224.52" x="840.48" fill="#e4cc00"/><rect transform="rotate(49.526)" rx="1.391" ry="5.563" height="11.127" width="2.782" y="-420.33" x="773.6" fill="#e4cc00"/><rect transform="rotate(45.459)" rx="1.391" ry="5.563" height="11.127" width="2.782" y="-363.86" x="799.69" fill="#e4cc00"/><rect transform="matrix(.811 .586 -.586 .811 0 0)" rx="1.391" ry="5.563" height="11.127" width="2.782" y="-224.23" x="844.16" fill="#e4cc00"/><rect transform="matrix(.811 .586 -.586 .811 0 0)" rx="1.391" ry="5.563" height="11.127" width="2.782" y="-224.62" x="842.29" fill="#e4cc00"/><g transform="translate(-6.311 -1.115) rotate(35.848)" fill="#e4cc00"><rect rx="1.391" ry="5.563" height="11.127" width="2.782" y="-244.57" x="838.79"/><rect rx="1.391" ry="5.563" height="11.127" width="2.782" y="-244.68" x="840.85"/><rect rx="1.391" ry="5.563" height="11.127" width="2.782" y="-244.66" x="843"/><rect rx="1.391" ry="5.563" height="11.127" width="2.782" y="-244.7" x="845.3"/><rect rx="1.391" ry="5.563" height="11.127" width="2.782" y="-244.54" x="847.15"/><rect rx="1.391" ry="5.563" height="11.127" width="2.782" y="-245.75" x="857.84"/><rect rx="1.391" ry="5.563" height="11.127" width="2.782" y="-245.32" x="856.37"/><rect rx="1.391" ry="5.563" height="11.127" width="2.782" y="-245.1" x="854.94"/><rect rx="1.391" ry="5.563" height="11.127" width="2.782" y="-245.02" x="852.83"/><rect rx="1.391" ry="5.563" height="11.127" width="2.782" y="-244.68" x="850.76"/><rect rx="1.391" ry="5.563" height="11.127" width="2.782" y="-244.64" x="848.96"/></g><rect transform="matrix(.879 .477 -.477 .879 -.392 0)" rx="1.391" ry="5.563" height="11.127" width="2.782" y="-115.05" x="859.81" fill="#e4cc00"/><g transform="translate(-11.95 5.765) rotate(35.848)" fill="#e4cc00"><rect rx="1.391" ry="5.563" height="11.127" width="2.782" y="-244.57" x="838.79"/><rect rx="1.391" ry="5.563" height="11.127" width="2.782" y="-244.68" x="840.85"/><rect rx="1.391" ry="5.563" height="11.127" width="2.782" y="-244.66" x="843"/><rect rx="1.391" ry="5.563" height="11.127" width="2.782" y="-244.7" x="845.3"/><rect rx="1.391" ry="5.563" height="11.127" width="2.782" y="-244.54" x="847.15"/><rect rx="1.391" ry="5.563" height="11.127" width="2.782" y="-245.75" x="857.84"/><rect rx="1.391" ry="5.563" height="11.127" width="2.782" y="-245.32" x="856.37"/><rect rx="1.391" ry="5.563" height="11.127" width="2.782" y="-245.1" x="854.94"/><rect rx="1.391" ry="5.563" height="11.127" width="2.782" y="-245.02" x="852.83"/><rect rx="1.391" ry="5.563" height="11.127" width="2.782" y="-244.68" x="850.76"/><rect rx="1.391" ry="5.563" height="11.127" width="2.782" y="-244.64" x="848.96"/></g></g><g stroke="#000" transform="matrix(.857 0 0 .933 -285.805 138.829)"><rect transform="rotate(18.815)" rx="1.432" ry=".678" height="24.19" width="2.864" y="-28.09" x="774.89" stroke-width=".172" fill="#b2802e"/><rect rx="1.432" ry=".678" height="24.19" width="2.864" y="221.74" x="727.44" stroke-width=".172" fill="#b2802e"/><rect rx="1.432" ry=".678" height="24.19" width="2.864" y="221.28" x="707.97" stroke-width=".172" fill="#b2802e"/><g stroke-width=".25" fill="#004500"><path d="M692.68 226.06c.3-4.898 4.144-6.405 10.4-4.22.527.302.98-.602.828-.678-10.023-5.274-14.492-19.462 1.56-16.9 2.41.754-2.172 2.144-5.51 2.76-4.52.572-1.702 6.83 7.266 12.633 1.96 1.508 6.33 4.597 6.33 4.597s-1.583 2.788-1.734 2.788c-.15 0-12.207-4.37-15.07-.603-1.81 3.014.687 3.448.084 7.97-1.055 3.918-1.582 3.466-1.81-.075.785-2.466-2.345-6.312-2.344-8.272z" transform="matrix(.422 .598 -.689 .229 583.331 -256.978)"/><path d="M692.68 226.06c.3-4.898 4.144-6.405 10.4-4.22.527.302.98-.602.828-.678-10.023-5.274-6.197-19.173 9.854-16.61 2.41.753 1.945 1.61-1.392 2.227-4.52.57-14.114 7.073-5.146 12.875 1.96 1.508 6.33 4.597 6.33 4.597s-1.583 2.788-1.734 2.788c-.15 0-12.207-4.37-15.07-.603-1.81 3.014 1.095 5.817.492 10.34-1.055 3.917-1.582 3.465-1.81-.076.076-.602-2.753-8.68-2.752-10.64z" transform="matrix(.384 .624 -.702 .186 612.989 -260.332)"/><path d="M692.68 226.06c.3-4.898 4.144-6.405 10.4-4.22.527.302.98-.602.828-.678-10.023-5.274-2.64-11.925 11.99-9.1 1.586.2-2.096 2.163-5.433 2.78-4.52.57-12.21-.99-3.24 4.813 1.958 1.508 6.328 4.597 6.328 4.597s-1.582 2.788-1.733 2.788c-.15 0-12.207-4.37-15.07-.603-1.81 3.014 7.07 9.44 6.467 13.96-1.055 3.92-1.582 3.467-1.81-.074.076-.603-8.728-12.303-8.727-14.263z" transform="matrix(.333 .653 -.715 .129 652.395 -262.46)"/></g><g stroke-width=".25" fill="#004500"><path d="M692.68 226.06c.3-4.898 4.144-6.405 10.4-4.22.527.302.98-.602.828-.678-10.023-5.274-10.194-16.4 5.857-13.838 2.41.753-2.095 2.164-5.432 2.78-4.52.572-6.077 3.75 2.89 9.55 1.96 1.51 6.33 4.598 6.33 4.598s-1.582 2.788-1.733 2.788c-.15 0-12.207-4.37-15.07-.603-1.81 3.014-1.734 3.165-2.337 7.687-1.055 3.918-1.582 3.466-1.81-.075.076-.604.076-6.03.077-7.99z" transform="matrix(.427 .595 -.687 .235 560.187 -256.508)"/><path d="M692.68 226.06c.3-4.898 4.144-6.405 10.4-4.22.527.302.98-.602.828-.678-10.023-5.274-10.194-16.4 5.857-13.838 2.41.753-2.095 2.164-5.432 2.78-4.52.572-6.077 3.75 2.89 9.55 1.96 1.51 6.33 4.598 6.33 4.598s-1.582 2.788-1.733 2.788c-.15 0-12.207-4.37-15.07-.603-1.81 3.014-1.734 3.165-2.337 7.687-1.055 3.918-1.582 3.466-1.81-.075.076-.604.076-6.03.077-7.99z" transform="matrix(.39 .62 -.701 .192 589.817 -260.108)"/><path d="M692.68 226.06c.3-4.898 4.144-6.405 10.4-4.22.527.302.98-.602.828-.678-10.023-5.274-10.194-16.4 5.857-13.838 2.41.753-2.095 2.164-5.432 2.78-4.52.572-6.077 3.75 2.89 9.55 1.96 1.51 6.33 4.598 6.33 4.598s-1.582 2.788-1.733 2.788c-.15 0-12.207-4.37-15.07-.603-1.81 3.014-1.734 3.165-2.337 7.687-1.055 3.918-1.582 3.466-1.81-.075.076-.604.076-6.03.077-7.99z" transform="matrix(.339 .65 -.714 .136 629.207 -262.568)"/></g><g stroke-width=".25" fill="#004500"><path d="M692.68 226.06c.3-4.898 4.144-6.405 10.4-4.22.527.302.98-.602.828-.678-10.023-5.274-14.492-19.462 1.56-16.9 2.41.754-2.172 2.144-5.51 2.76-4.52.572-1.702 6.83 7.266 12.633 1.96 1.508 6.33 4.597 6.33 4.597s-1.583 2.788-1.734 2.788c-.15 0-12.207-4.37-15.07-.603-1.81 3.014.687 3.448.084 7.97-1.055 3.918-1.582 3.466-1.81-.075.785-2.466-2.345-6.312-2.344-8.272z" transform="matrix(.195 .706 -.726 -.017 770.2 -279.004)"/><path d="M692.68 226.06c.3-4.898 4.144-6.405 10.4-4.22.527.302.98-.602.828-.678-10.023-5.274-6.197-19.173 9.854-16.61 2.41.753 1.945 1.61-1.392 2.227-4.52.57-14.114 7.073-5.146 12.875 1.96 1.508 6.33 4.597 6.33 4.597s-1.583 2.788-1.734 2.788c-.15 0-12.207-4.37-15.07-.603-1.81 3.014 1.095 5.817.492 10.34-1.055 3.917-1.582 3.465-1.81-.076.076-.602-2.753-8.68-2.752-10.64z" transform="matrix(.151 .717 -.724 -.062 799.25 -272.134)"/><path d="M692.68 226.06c.3-4.898 4.144-6.405 10.4-4.22.527.302.98-.602.828-.678-10.023-5.274-2.64-11.925 11.99-9.1 1.586.2-2.096 2.163-5.433 2.78-4.52.57-12.21-.99-3.24 4.813 1.958 1.508 6.328 4.597 6.328 4.597s-1.582 2.788-1.733 2.788c-.15 0-12.207-4.37-15.07-.603-1.81 3.014 7.07 9.44 6.467 13.96-1.055 3.92-1.582 3.467-1.81-.074.076-.603-8.728-12.303-8.727-14.263z" transform="matrix(.093 .727 -.717 -.12 837.06 -260.814)"/></g></g><g stroke="#000" transform="matrix(.887 0 0 1.032 -306.51 114.94)"><rect rx="1.432" ry=".678" height="24.19" width="2.864" y="222.49" x="826.05" stroke-width=".172" fill="#b2802e"/><g stroke-width=".333" fill="#007500"><path d="M-3819.3-4447.1v5.78l6.63 1.34-1.82-3.84-4.81-3.28z" transform="matrix(1.502 -1.037 -1.618 .791 -633.696 -217.299)"/><path d="M-3819.3-4447.1v5.78l6.63 1.34-1.82-3.84-4.81-3.28z" transform="matrix(-1.515 -1.165 1.21 1.301 424.274 1559.384)"/><path d="M-3819.3-4447.1v5.78l6.63 1.34-1.82-3.84-4.81-3.28z" transform="matrix(1.686 .92 -1.598 -1.122 156.569 -1254.484)"/><path d="M-3819.3-4447.1v5.78l6.63 1.34-1.82-3.84-4.81-3.28z" transform="matrix(1.963 -.877 -2.116 .669 -1083.288 -148.481)"/></g></g></g></svg>