<svg xmlns="http://www.w3.org/2000/svg" height="512" width="512" xmlns:xlink="http://www.w3.org/1999/xlink" viewBox="0 0 170.66667 170.66667"><defs><g id="c"><clipPath id="a"><path d="M-109 104a104 104 0 0 0 0-208h218a104 104 0 0 0 0 208z"/></clipPath><path id="b" clip-path="url(#a)" d="M-55 74a55 55 0 0 1 110 0V-74a55 55 0 0 1-110 0z"/><use xlink:href="#b" transform="rotate(90)" height="200" width="300"/></g></defs><path fill="#fff" d="M0 0h170.67v170.67H0z"/><g transform="matrix(.5 0 0 .5 5.1 47.6)"><path fill="#fff" d="M0-29.333h300v200H0z"/><path fill="red" d="M130-29.333v80H0v40h130v80h40v-80h130v-40H170v-80h-40z"/><use xlink:href="#c" transform="translate(64.5 10.1)" height="200" width="300" fill="red"/><use xlink:href="#c" transform="translate(235.6 131.2)" height="200" width="300" fill="red"/><use xlink:href="#c" transform="translate(235.6 10.1)" height="200" width="300" fill="red"/><use xlink:href="#c" transform="translate(64.5 131.2)" height="200" width="300" fill="red"/></g></svg>