<svg xmlns="http://www.w3.org/2000/svg" height="512" width="512" version="1"><defs><clipPath id="a"><path fill-opacity=".67" d="M0 0h496.06v496.06H0z"/></clipPath></defs><g clip-path="url(#a)" transform="matrix(1.032 0 0 1.032 0 0)"><g stroke-width="1pt" fill-rule="evenodd"><path fill="#3e9a00" d="M0 0h744.09v166.54H0z"/><path fill="#fff" d="M0 166.54h744.09v162.99H0z"/><path fill="#e32118" d="M0 329.53h744.09v166.54H0z"/><path d="M0 0v496.06l248.032-248.03L0 0z" fill="#5567e4"/></g><path d="M283.46 148.82v442.91c0 35.433 17.716 70.866 53.15 70.866h70.865c17.717 0 35.433 35.433 35.433 35.433s16.938-35.434 35.433-35.434h70.868c35.433 0 53.15-35.433 53.15-70.866V148.82h-318.9z" fill-rule="evenodd" transform="matrix(.23 0 0 .18 261.163 174.17)" stroke="#000" stroke-width="3.791" fill="#ccc"/><path d="M215.38 731.79c-18.02 0-35.738-17.717-35.738-35.433v-88.583c15.502 15.502 88.583 70.866 70.867 88.583-17.718 17.716-35.738 0-35.434 0s.304 35.433.304 35.433z" fill-rule="evenodd" transform="matrix(.231 0 0 .18 259.529 155.34)" stroke="#000" stroke-width="1pt" fill="#ccc"/><path d="M309.373 280.684c4.11-3.188 4.11 3.19 8.22 0l-4.11 19.134c-3.988-.6-4.124 0-6.428-3.19 0-3.188 0-13.378 2.318-15.944z" fill-rule="evenodd" fill="#ccc"/><path d="M215.38 731.79c-18.02 0-35.738-17.717-35.738-35.433v-88.583c15.502 15.502 88.583 70.866 70.867 88.583-17.718 17.716-35.738 0-35.434 0s.304 35.433.304 35.433z" fill-rule="evenodd" transform="matrix(-.231 0 0 .18 465.937 155.34)" stroke="#000" stroke-width="1pt" fill="#ccc"/><path d="M416.238 280.684c-4.11-3.188-4.11 3.19-8.22 0l4.11 19.134c3.988-.6 4.124 0 6.428-3.19 0-3.188 0-13.378-2.318-15.944z" fill-rule="evenodd" fill="#ccc"/><path d="M513.78 1140.9c0-17.71-35.433-53.14-35.433-70.86s35.433 17.72 106.3 17.72c70.866 0 106.3-88.588 88.582-106.3 17.716 35.434 17.716 70.864 17.716 88.584 0 35.43-35.433 70.86-106.3 70.86H513.78z" fill-rule="evenodd" transform="matrix(.231 0 0 .18 260.102 104.015)" stroke="#000" stroke-width="1pt" fill="#ccc"/><path d="M513.78 1140.9c0-17.71-35.433-53.14-35.433-70.86s35.433 17.72 106.3 17.72c70.866 0 106.3-88.588 88.582-106.3 17.716 35.434 17.716 70.864 17.716 88.584 0 35.43-35.433 70.86-106.3 70.86H513.78z" fill-rule="evenodd" transform="matrix(-.231 0 0 .18 464.729 104.015)" stroke="#000" stroke-width="1pt" fill="#ccc"/><path d="M346.364 306.19c0-3.187 8.22-6.377 8.22-9.566v15.944h-8.22v-6.377zM379.246 306.19c0-3.187-8.22-6.377-8.22-9.566v15.944h8.22v-6.377z" fill-rule="evenodd" fill="#ccc"/><path d="M371.17 1034.6c0 17.71 141.73 17.71 141.73 0v70.87c0 17.71-141.73 17.71-141.73 0v-70.87z" fill-rule="evenodd" transform="matrix(.231 0 0 .18 260.304 119.958)" stroke="#000" stroke-width="1pt" fill="#ccc"/><path d="M249.63 696.36c-17.717 17.716-17.717-17.717-35.433 0-17.717 17.716 17.717 106.3 88.583 106.3s106.3-35.433 106.3-17.717c0 17.717-35.433 35.433-35.433 53.15s141.73 17.717 141.73 0-35.433-35.433-35.433-53.15c0-17.716 35.433 17.717 106.3 17.717 70.866 0 106.3-88.583 88.583-106.3-17.716-17.717-17.716 17.716-35.433 0" transform="matrix(.231 0 0 .18 259.732 155.34)" stroke="#000" stroke-width="1.25" fill="none"/><path d="M413.715 303.753l-4.25-7.065.74-.3 4.248 7.065-.738.3zM411.308 302.828l.885-.007c.23.848.242 1.55.032 2.106-.21.554-.615.93-1.217 1.128-.622.205-1.208.212-1.757.022-.546-.194-1.072-.562-1.577-1.102-.503-.542-.926-1.163-1.27-1.86-.376-.762-.59-1.463-.64-2.104-.05-.645.066-1.184.344-1.616.28-.436.674-.738 1.183-.906.578-.19 1.156-.165 1.733.077.578.243 1.11.676 1.598 1.3l-.64.472c-.397-.488-.782-.81-1.157-.97-.374-.158-.754-.173-1.14-.046-.444.148-.75.405-.916.773-.163.367-.193.798-.09 1.294.103.492.273.98.51 1.46.307.623.646 1.143 1.018 1.562.372.414.766.686 1.18.816.416.13.8.136 1.15.02.43-.14.714-.417.857-.828.143-.41.115-.94-.084-1.59zM406.134 307.53l-2.767-7.56.79-.196 2.767 7.56-.79.195zM400.897 308.488l-.74-6.93-2.044.142-.1-.928 4.915-.338.1.928-2.052.14.74 6.93-.82.056zM392.778 305.673l.778-.085c.037.392.122.716.255.97.137.25.347.453.63.61.283.154.602.23.956.23.314 0 .592-.058.832-.176s.42-.278.536-.482c.12-.207.18-.432.18-.675 0-.246-.058-.46-.172-.643-.113-.186-.3-.34-.56-.467-.168-.082-.537-.208-1.11-.38-.572-.175-.972-.34-1.202-.493-.297-.197-.52-.44-.667-.73-.144-.292-.216-.618-.216-.98 0-.396.09-.766.268-1.11.178-.345.438-.608.78-.786.343-.178.725-.268 1.144-.268.46 0 .867.094 1.218.283.354.188.626.462.816.827.19.364.292.777.306 1.238l-.79.075c-.043-.497-.187-.872-.434-1.125-.243-.254-.604-.38-1.083-.38-.5 0-.863.115-1.092.348-.225.228-.34.505-.34.83 0 .282.082.514.243.697.16.182.572.37 1.24.563.672.19 1.133.354 1.38.498.364.21.632.48.805.805.172.32.26.692.26 1.114 0 .417-.096.812-.286 1.183-.19.368-.463.656-.82.863-.354.203-.753.306-1.198.306-.564 0-1.037-.105-1.42-.31-.38-.21-.677-.52-.896-.934-.215-.418-.328-.89-.34-1.415zM390.48 300.32l.825.03-.257 4.538c-.044.79-.15 1.414-.32 1.873-.167.46-.444.83-.832 1.11-.385.274-.878.402-1.478.38-.584-.02-1.054-.166-1.41-.433-.357-.267-.6-.643-.732-1.128-.132-.49-.174-1.15-.126-1.98l.256-4.54.824.03-.256 4.533c-.04.683-.018 1.188.063 1.518.084.325.242.58.476.764.237.184.532.282.886.295.605.02 1.047-.136 1.324-.473.278-.337.444-1 .5-1.985l.257-4.533zM380.364 305.517l.743-.13c.02.602.11 1.013.268 1.234.158.223.378.333.658.333.207 0 .385-.058.536-.176.15-.122.252-.285.31-.49.056-.205.084-.534.084-.984v-5.413h.824v5.354c0 .658-.064 1.166-.19 1.527-.126.362-.325.637-.6.826-.272.19-.593.285-.96.285-.547 0-.966-.198-1.258-.595-.29-.396-.428-.986-.416-1.768zM366.354 319.086v-1.092l3.19-5.696c.227-.404.442-.757.647-1.056h-3.475v-1.05h4.46v1.05l-3.496 6.17-.38.625h3.978v1.05h-4.924zM320.71 308.206l1.975-8.745.81.125-1.978 8.745-.808-.124zM311.866 305.075l5.138-7.856.745.328-1.152 7.437 4.034-6.168.696.307-5.138 7.856-.745-.33 1.154-7.44-4.038 6.172-.696-.307zM316.327 295.613l.583.478-4.425 3.626c-.77.63-1.43 1.09-1.984 1.38-.552.288-1.103.442-1.65.46-.543.017-1.028-.147-1.453-.495-.412-.337-.626-.716-.642-1.133-.015-.42.154-.864.51-1.34.357-.476.942-1.047 1.753-1.712l4.425-3.625.583.478-4.42 3.62c-.664.546-1.12.977-1.367 1.294-.243.316-.362.615-.36.896.003.282.13.526.38.732.43.35.904.463 1.425.336.52-.127 1.26-.585 2.222-1.373l4.42-3.62zM325.44 308.9l.296-8.893 2.146.05c.484.01.852.06 1.105.15.352.128.65.347.89.66.317.403.545.917.686 1.54.144.618.203 1.323.176 2.115-.023.676-.1 1.274-.227 1.793-.127.52-.283.95-.468 1.288-.184.336-.383.6-.596.794-.21.19-.464.33-.76.426-.292.094-.626.137-1.003.128l-2.248-.05zm.86-1.03l1.33.03c.41.01.733-.038.97-.142.237-.103.43-.253.575-.448.205-.275.37-.645.492-1.112.126-.47.2-1.042.223-1.713.03-.93-.053-1.646-.25-2.15-.197-.505-.445-.846-.746-1.023-.216-.126-.57-.196-1.06-.207l-1.31-.03-.225 6.795zM331.123 308.895l2.392-8.893h.887l2.55 8.893h-.94l-.726-2.693h-2.604l-.684 2.693h-.875zm1.797-3.652h2.112l-.65-2.463c-.2-.748-.346-1.362-.442-1.844-.08.57-.192 1.136-.336 1.698l-.684 2.61zM337.61 308.895v-8.893h2.145c.484 0 .854.042 1.11.127.356.117.66.33.912.637.33.395.574.904.735 1.52.165.617.247 1.32.247 2.112 0 .676-.056 1.274-.167 1.796-.11.522-.252.954-.425 1.298-.173.34-.363.61-.57.807-.203.194-.45.342-.742.444-.29.1-.623.15-1 .15h-2.247zm.824-1.05h1.33c.41 0 .732-.054.964-.164.235-.107.422-.262.56-.46.196-.28.348-.652.455-1.12.11-.475.166-1.047.166-1.718 0-.93-.108-1.644-.324-2.142-.212-.5-.472-.837-.778-1.007-.22-.12-.576-.182-1.066-.182h-1.308v6.796zM355.244 319.086v-8.893h2.35c.414 0 .73.03.947.084.307.074.564.213.77.42.207.202.373.486.497.855.128.367.192.772.192 1.213 0 .756-.17 1.397-.507 1.923-.337.522-.946.782-1.827.782h-1.597v3.616h-.826zm.825-4.665h1.61c.53 0 .91-.14 1.133-.424.224-.282.336-.68.336-1.195 0-.37-.068-.688-.2-.95-.13-.268-.303-.444-.52-.53-.138-.052-.394-.078-.768-.078h-1.593v3.18zM360.364 319.086l2.393-8.893h.887l2.55 8.893h-.94l-.726-2.693h-2.605l-.683 2.693h-.876zm1.797-3.652h2.113l-.65-2.463c-.198-.747-.346-1.36-.442-1.843-.078.57-.19 1.136-.334 1.698l-.685 2.61zM415.564 303.054l-4.16-7.592.657-.397 7.816 5.38-.695.42-2.33-1.65-1.928 1.167 1.29 2.28-.648.392zm-1.105-3.482l1.56-.945-2.122-1.515c-.646-.46-1.164-.844-1.556-1.155.32.454.615.92.884 1.396l1.233 2.22z"/><path d="M419.16 331.78c.065 32.968 19.893 131.63-37.678 284.94-4.262 11.127 7.064 16.484 16.484 18.84 9.42 2.354 14.13-9.42 14.13-11.775s2.354 18.84 11.773 16.484c9.42-2.356 18.838-16.485 18.838-16.485s4.71 21.194 16.484 21.194 11.774-25.905 11.774-25.905c0 2.355 8.164 22.235 17.583 22.235 9.42 0 23.928-8.76 15.547-23.144-59.832-100.72-56.68-267.54-56.68-286.38 0-18.84 27.784-53.068 55.418-53.89l-10.675-16.755c-6.96 2.136-15.28 3.67-29.41 15.444s-22.397 24.59-22.397 24.59v-80.066h-23.548l2.355 73s-8.05-9.438-20.095-19.93c-11.4-9.935-31.972-9.2-44.637-7.12l-1.204 15.99c14.97 3.123 34.067-3.068 43.487 11.06 11.775 11.775 22.415 21.26 22.45 37.678z" fill-rule="evenodd" transform="matrix(.142 0 0 .144 302.364 195.766)" stroke="#000" stroke-width="5.029" fill="#682900"/><path d="M310.55 312.21v-.832c0 1.976-.067 1.1.833-2.498.777-2.848 2.407-5.523 4.163-7.493 3.04-1.014 7.44.053 10.823-.833 2.277-3.268 5.827 4.267 5.827-.833 4.343-.31 4.4-4.558 5.828-6.66 4.054-.5 4.963-5.44 8.326-2.496 2.757 1.305.407-.833 4.997-.833 2.713.664 4.13 2.32 6.66.833.62-2.85 1.4-6.268 1.665-9.99-1.177-2.356-.832-7.184-.832-10.824 2.274-3.033 6.262 2.475 9.99 1.664 1.018-3.562 4.146-3.466 2.498-6.66-.308-4.007-1.08-6.503 0-10.823 1.314-3.703 3.228-3.606 6.66-5.827 1.093-3.277-.122-6.03.833-9.99 3.902-.116 3.833-1.133 4.164-4.996 1.26-2.66 2.858-5.356 4.995-7.493 1.967-2.382 4.302-2.147 5.827-5.828 1.308-3.27 1.31-4.75 4.995-5.828 2.696-1.27 4.833-1.41 6.66-3.33 1.733-3.057 3.175-5.487 5.83-9.16 2.63-1.77 15.236 1.666 19.148 1.666 2.118-2.67 5.397-6.86 7.493-8.326 3.587-1.916 4.96-2.497 9.99-2.497 4.288 1.27 6.082 2.795 10.824 1.666 1.932-2.706 3.816-3.965 8.325-2.498 3.433 2.22 5.347 2.124 6.66 5.828 1.947 4.615 1.51 6.192 6.662 6.66 5.18.186 5.71 1.443 9.158 4.163 5.248 2.25 4.995.98 4.995 5.827 3.72 0 4.052-.44 4.163 3.33 2.294.714 4.907 2.72 6.66 4.163 2.094 2.416 2.63 3.93 7.494 4.163 3.59-1.508 4.75-1.496 4.995-5.828 2.75-.982 3.21-3.635 4.162-6.66 2.108-2.885 3.474-3.33 8.325-3.33 4.28 1.772 4.14 3.567 3.33 7.493 2.665.55 3.765.24 4.164 3.33 1.408 2.346 1.04 5.15-.832 6.66 2.132 1.568 3.37 4.256 4.163 7.493-1.41 2.353-.546 5.81 0 8.327 2.913 1.456 4.416 2.81 8.326 4.163 1.983 1.68 6.2 3.44 9.99 4.163 4.482-.606 5.962-.568 9.992 1.665 2.084 2.993 2.235 6.77 4.163 8.326 2.176 1.843 5.82 2.65 7.494 4.995 2.778 2.03 3.594 4.28 7.493 4.994 1.47 2.228 4.634 5.896 5.828 8.326.94 2.694 1.36 7.413 2.498 10.823v11.656c-.158 4.303-.833 6.915-.833 11.655-.74 2.384-1.665 3.3-1.665 6.66-1.582 3.527-2.93 6.49-4.995 9.16-.94 4.234-2.473 6.222-4.163 9.99.052 4.37.832 6.304.832 10.823-1.81 2.69-3.888 4.647-7.494 6.66-2.724 3.188-4.368 4.427-4.995 9.16-1.565 2.704-1.442 2.497-4.994 2.497-4.2 0-7.814.375-11.656.832-3.378 0-4.64.356-6.66-1.665-3.99-1.804-7.346-1.91-11.657-.833-2.325-1.595-3.258-2.498-7.493-2.498-3.16.427-5.965.832-9.99.832-2.496-2.79-3.898-3.33-8.326-3.33-2.356 1.178-7.184.833-10.824.833-3.82-1.043-4.313-2.63-5.828-5.828-2.605-1.236-3.635-3.04-7.493-3.332-3.64 0-8.47.345-10.824-.832-2.723-.327-5.586-1.027-7.493-2.498-1.556-2.288-3.54-4.272-5.828-5.828-3.698 0-5.864.355-7.493-1.665-2.732-2.157-4.89-5.564-8.326-7.493-3.062-2.43-5.136-3.916-6.66-8.326 0-3.943.78-4.874-3.33-4.995-2.756 2.813-4.01 3.33-9.16 3.33-3.388 0-6.93-.017-9.157-.83-3.682-2.09-5.03-3.014-9.16-3.332-2.584 1.645-6.007 3.547-9.99 4.163-3.405 1.967-5.437 2.38-6.66 5.83-3.146 2.567-4.99 4.077-9.16 5.827-2.315 2.21-4.525 2.59-5.827 6.66-.792 3.367-1.665 5.37-1.665 9.99.59 4.37.36 6.238-1.665 9.992-1.74 2.485-4.757 3.7-7.493 5.827-4.116.494-4.548.186-7.493-1.665-2.933-.977-6.266-1.78-9.99-2.498-4.497-.866-6.018-1.96-8.327-4.162l8.326 4.162c-4.496-.866-6.017-1.96-8.326-4.162-5.064-3.583-6.063-5.398-11.656-5.828-5.198.06-7.43.318-8.325 4.995 2.96.788.608 2.553-.834 3.33-2.078 1.85-5.41 3.367-8.326 4.162-1.328 1.328-1.072-1.1-3.33-1.665-3.448-1.842-4.89-3.226-8.326-4.163-1.683-2.97-3.584-5.274-5.828-8.326-1.734-2.818-3.382-3.838-5.828-6.66-1.17-1.754-4.16-1.83-5.827-3.33-1-3.002-3.168-8.57-2.497-11.656 1.68-1.586 2.632-7.243 4.995-8.326 3.367-2.525 4.635-.223 9.16 0 4.258 0-5.867-6.71-1.666-6.66 3.92-.666 4.387-2.595 5.827-4.996h9.99z" fill-rule="evenodd" transform="matrix(.197 0 0 .148 276.758 184.139)" stroke="#000" stroke-width="4.464" fill="#009200"/><path d="M382.98 253.1c.878.713 4.684 2.498 8.326 2.498 3.976.728 4.843 2.216 5.828 5.828 2.174 1.304 3.55 1.665 7.493 1.665 4.36.872 4.322 2.213 7.493 4.996M358.84 299.72c1.812.266 8.154.832 12.488.832 3.333-1.924 4.912-3.24 7.493-4.995 3.944 0 5.32.36 7.495 1.665 2.105.702 7.052.963 9.158 1.665 0 1.11-.278.833.832.833M391.31 286.4c.065-.025 3.252-1.946 5.828-2.498 2.835-1.976 5.946-2.94 9.158-4.163 2.117-.46 7.102-.45 8.326-.833M432.1 273.91v.833c0-2.327-.104-1.09 1.665 3.33.874 4.078 1.95 7.526 3.33 10.823 2.455 3.83 4.058 5.547 7.493 7.493 2.94 2.315 5.164 4.723 8.326 5.827 2.202 1.963 5.106 3.584 8.325 4.996 4.27 0 7.557.686 11.655.832h2.498M477.06 227.29v.833c0-2.247.055-1.105-.832 3.33-1.257 2.654-2.705 5.124-4.163 7.493-3.915 1.42-5.374 4.277-6.66 7.493-1.373 2.23-3.506 5.17-4.996 7.492-2.59 3.21-3.623 4.242-8.327 5.828M510.36 244.77c0 .244-1.537 2.434-2.498 4.996-1.653 2.436-2.075 6.86-2.497 9.99 0 3.618.02 7.557.832 9.99 2.516 3.122 3.158 4.765 7.493 6.662l-7.49-6.66c2.516 3.12 3.158 4.764 7.493 6.66M571.14 273.91v.833c0-2.61.217-1.006-4.163 2.497-3.252 3-5.572 5.416-8.325 7.493-4.732 1.255-5.455 1.182-9.99.833h-7.494M582.8 337.19h-.832c2.327 0 1.09-.103-3.33 1.665-3.693.923-7.88.982-10.824 0-2.966-1.68-5.955-3.055-8.326-5.828-1.24-.93-1.42-1.306-2.497-1.665M553.66 363v-.833c0 2.61.217 1.006-4.163-2.498-1.872-2.754-3.748-3.795-7.493-6.66-3.236-3.914-3.66-5.482-4.995-9.992-.357-3.323-1.456-6.734 0-9.158M492.05 348.84c1.81 0 8.56-.16 11.656-.833 2.418-1.643 5.094-2.746 8.326-4.162 1.764-4.36 3.27-5.81 3.33-10.824M441.26 323.87c-.652-1.483-3.544-7.436-4.995-10.823-.065-3.638-.833-6.285-.833-9.99M328.86 350.51c.84.126 4.375.403 6.66 0 3.635-1.86 7.022-2.205 10.823-2.498 1.933-1.16 5.086-1.03 6.66-2.497 3.475-2.316 3.938-4.645 5.83-8.326.166-1.674.664-2.49.83-4.164M383.81 338.02c-1.828 0-8.658.125-12.49-.833-1.966-1.273-3.362-3.364-4.994-4.995 1.11 0 .833.277.833-.833M393.8 313.88c.353-.106 4.485-1.665 7.493-1.665 1.79-1.158 4.76-2.237 7.493-3.33 1.48-.797 2.504-1.787 4.163-2.498M293.06 347.18h.833c-2.25 0-1.1.053 3.33-.833 5.18-.32 8.666-2.11 12.49-3.33 2.495-2.318 5.938-4.635 8.324-5.828 0-1.424-.34-1.275.833-1.666M504.54 301.39h.833c-2.328 0-1.09-.103 3.33 1.665 3.517 1.346 6.695 1.78 9.99 2.498 2.994.73 4.128 1.665 8.326 1.665 4.19 1.826 5.103 2.397 8.325 4.995 2.465 1.168 4.22 1.665 8.326 1.665 2.18-1.206 6.162-2.61 8.326-3.33 1.21-.908 1.293-.55 1.665-1.665" transform="matrix(.197 0 0 .18 276.758 173.571)" stroke="#006800" stroke-width="4.05" fill="none"/><path d="M430.94 469.54v18.84c0 6.016-.557 11.276-2.355 16.483 0 5.875-.077 11.554-2.355 15.306-.4 5.617-1.177 10.478-1.177 16.483-1.705 5.116-1.504 12.044-2.355 17.662-.738 5.508-1.393 12.06-2.355 16.484-1.754 3.683-4.745 10.348-7.064 12.95-.29 5.085-1.533 7.588 0 11.775 1.64 4.922 1.176 10.85 1.176 16.484 1.537 4.61 1.178 10.003 1.178 15.305M436.82 493.08c.358 2.36 2.118 10.873 2.355 16.484v25.904c0 6.3.532 11.85 1.178 17.66-.084 6.944-1.346 9.54-4.71 15.308-.662 5.56-1.693 10.924-2.355 16.484-1.64 4.923-1.177 10.85-1.177 16.484 1.405 6.322 3.704 7.453 4.71 12.95 0 3.36.32 5.067 1.178 7.066M447.42 535.47c0 2.155-.14 12.532 1.178 16.484 0 6.023 1.106 10.544 1.177 16.484-.714 5.28-1.453 9.084-4.71 11.774-2.144 4.358-3.314 8.235-3.532 14.13 3.043 2.13 6.35 8.078 9.42 10.596 2.566 5.36 4.955 5.59 5.887 11.774 2.458 2.732-1.733 4.154 0 5.887 1.91 2.547.687 1.468 0 3.532" transform="matrix(.197 0 0 .18 279.382 172.971)" stroke="#000" stroke-width="1pt" fill="none"/><path fill-rule="evenodd" transform="matrix(.156 0 0 .143 357.904 192.375)" stroke="#000" stroke-width="3.125" fill="#ffd100" d="M47.102-26.644l14.175-26.642-14.175-26.642 30.16-1.046 15.986-25.596 15.982 25.596 30.16 1.046-14.17 26.642 14.17 26.642-30.16 1.045L93.248 0 77.262-25.6z"/><path fill-rule="evenodd" transform="matrix(.156 0 0 .143 338.687 192.375)" stroke="#000" stroke-width="3.125" fill="#ffd100" d="M47.102-26.644l14.175-26.642-14.175-26.642 30.16-1.046 15.986-25.596 15.982 25.596 30.16 1.046-14.17 26.642 14.17 26.642-30.16 1.045L93.248 0 77.262-25.6z"/><path fill-rule="evenodd" transform="matrix(.155 -.019 .02 .141 322.226 197.361)" stroke="#000" stroke-width="3.125" fill="#ffd100" d="M47.102-26.644l14.175-26.642-14.175-26.642 30.16-1.046 15.986-25.596 15.982 25.596 30.16 1.046-14.17 26.642 14.17 26.642-30.16 1.045L93.248 0 77.262-25.6z"/><path fill-rule="evenodd" transform="matrix(-.155 -.019 -.02 .141 405.011 196.886)" stroke="#000" stroke-width="3.125" fill="#ffd100" d="M47.102-26.644l14.175-26.642-14.175-26.642 30.16-1.046 15.986-25.596 15.982 25.596 30.16 1.046-14.17 26.642 14.17 26.642-30.16 1.045L93.248 0 77.262-25.6z"/><path fill-rule="evenodd" transform="matrix(-.147 -.047 -.052 .135 419.784 206.804)" stroke="#000" stroke-width="3.125" fill="#ffd100" d="M47.102-26.644l14.175-26.642-14.175-26.642 30.16-1.046 15.986-25.596 15.982 25.596 30.16 1.046-14.17 26.642 14.17 26.642-30.16 1.045L93.248 0 77.262-25.6z"/><path fill-rule="evenodd" transform="matrix(.147 -.047 .052 .135 306.932 205.854)" stroke="#000" stroke-width="3.125" fill="#ffd100" d="M47.102-26.644l14.175-26.642-14.175-26.642 30.16-1.046 15.986-25.596 15.982 25.596 30.16 1.046-14.17 26.642 14.17 26.642-30.16 1.045L93.248 0 77.262-25.6z"/></g></svg>