<svg xmlns="http://www.w3.org/2000/svg" height="512" width="512" version="1" xmlns:xlink="http://www.w3.org/1999/xlink"><defs><linearGradient id="b"><stop stop-color="#d5dfff" offset="0"/><stop stop-color="#fff" offset="1"/></linearGradient><linearGradient id="a"><stop stop-color="#474747" offset="0"/><stop stop-color="#f50" offset="1"/></linearGradient><linearGradient id="d" y2="173.45" xlink:href="#a" gradientUnits="userSpaceOnUse" y1="218.47" gradientTransform="matrix(1.5 0 0 .7 40.5 0)" x2="110.94" x1="109.34"/><linearGradient id="e" y2="337.23" gradientUnits="userSpaceOnUse" y1="316.38" gradientTransform="matrix(1.2 0 0 .8 40.5 0)" x2="126.02" x1="125.91"><stop stop-color="#b50000" offset="0"/><stop stop-color="#ffc500" offset="1"/></linearGradient><linearGradient id="f" y2="147.35" xlink:href="#b" gradientUnits="userSpaceOnUse" y1="149.38" gradientTransform="matrix(.6 0 0 1.8 40.5 0)" x2="456.4" x1="407.87"/><linearGradient id="g" y2="102.99" xlink:href="#a" gradientUnits="userSpaceOnUse" y1="102.99" gradientTransform="matrix(.7 0 0 1.3 40.5 0)" x2="228.97" x1="215.83"/><linearGradient id="h" y2="1003.7" xlink:href="#b" gradientUnits="userSpaceOnUse" y1="1040.4" gradientTransform="matrix(2.6 0 0 .4 40.5 0)" x2="78.221" x1="117.6"/><linearGradient id="i" y2="226.38" xlink:href="#b" gradientUnits="userSpaceOnUse" y1="245.98" gradientTransform="matrix(.9 0 0 1.1 40.5 0)" x2="255.03" x1="264.72"/><clipPath id="c"><path fill-opacity=".67" d="M0 0h512v512H0z"/></clipPath></defs><g clip-path="url(#c)"><g stroke-width="1pt"><path fill="#006" d="M0 0h1023.977v511.984H0z"/><path fill="#fff" d="M0 0v28.62l454.746 227.374h57.24v-28.62L57.24 0H0zm511.986 0v28.62L57.24 255.993H0v-28.62L454.746 0h57.24z"/><path fill="#fff" d="M213.327 0v255.993h85.33V0h-85.33zM0 85.33v85.332h511.986v-85.33H0z"/><path fill="#c00" d="M0 102.397v51.2h511.986v-51.2H0zM230.394 0v255.993h51.198V0h-51.198zM0 255.993l170.662-85.33h38.16L38.16 255.992H0zM0 0l170.662 85.33h-38.16L0 19.08V0zm303.164 85.33L473.826 0h38.16L341.324 85.33h-38.16zm208.822 170.663l-170.662-85.33h38.16l132.502 66.25v19.08z"/></g><path d="M333.75 379.947s-2.878 7.61-4.523 7.61c-1.646 0-7.61-3.29-7.61-3.29s-4.32 6.99-6.58 7.403c-2.263.41-8.227-1.03-8.227-1.03s-5.758 0-5.964-.82c-.206-.824.206-2.47.206-2.47s-8.227 6.582-10.078 6.17c-1.85-.41-8.02-8.226-8.02-8.226l-1.03 4.123-11.723-.413-10.283-6.584s-5.758 9.46-5.964 9.255c-.205-.206-10.077 2.262-10.077 2.262l-.617-1.85-6.582-3.908s5.14-7.2 5.14-7.405c0-.205-2.467-1.028-2.467-1.028l-3.7 3.085-7.61 4.935-7.61-3.496 3.292-6.168.41-4.525 5.965-9.05 73.008-70.95 35.99 66.427-5.347 19.948z" fill-rule="evenodd" stroke="#000" stroke-width=".86059pt" fill="#6a4c2d"/><path d="M385.62 384.25l19.003-.682-8.09-3.996 72.41-2.73-10.232-3.897-9.063-12.28-37.52-2.826s-2.827-2.145-7.407-1.073c-.195-2.923-3.704-6.724-3.704-6.724l-23.097-1.754-14.425 9.842 9.746 24.948 12.378 1.17z" fill-rule="evenodd" stroke="#000" stroke-width=".86059pt" fill="#fff"/><path d="M121.32 150.76l2.224-7.561s3.892-6.562 3.892-9.453c0-2.892 2.89-6.34 2.89-6.34s8.897-2.557 10.787 2.892c9.563-14.457 20.794-.668 20.794-.668l3.114-3.67 6.34-7.783s9.006 8.45 9.117 9.895 1.557.445 1.557.445l9.786-.778s4.644 3.635 3.67 10.564c3.448 2.034 6.56 14.01 6.56 14.01l-80.73-1.556z" fill-rule="evenodd" stroke="#000" stroke-width="1pt" fill="url(#d)" transform="matrix(.9 0 0 .9 207.3 41.7)"/><path d="M393.825 258.348c1.517-.934 6.303-2.45 5.72-9.455-.584-7.003-6.654-7.82-10.04-7.587-3.384.234-6.42 3.152-6.42 3.152l-11.205-7.12s5.603-35.37 11.556-37.586c5.654-4.074 6.654-5.836 6.654-6.77s-2.1-3.27-2.1-3.27l-36.537-4.318-34.55 4.086s-2.686 4.085-2.335 5.72.467 3.384 6.653 8.17c6.846 5.265 11.557 35.486 11.557 35.486s-9.688 4.785-10.272 4.202c-.583-.584-3.5-1.168-5.02-.934-1.516.233-6.536 2.8-6.536 9.454 0 6.654 5.02 10.506 5.02 10.506s33.032-3.852 37.935 5.253c4.785-10.972 36.185-7.12 39.92-8.988z" fill-rule="evenodd" stroke="#000" stroke-width=".9pt" fill="#656263"/><path stroke-linejoin="round" d="M429.41 221.583s.367-3.84 3.11-5.667c2.74-1.828 21.022-2.743 25.41 0s6.032 16.27 6.032 16.27 2.742 4.753 2.925 8.226.548 5.85.548 5.85 14.625 19.012 14.808 36.196c1.646 11.7 1.28 42.96-3.29 54.842-.183 14.807-6.4 24.497-6.4 24.497s1.464 2.558 1.28 5.3c-.182 2.743-1.645 5.303-1.645 5.303l21.39 10.602-7.862-2.925s8.044 6.764 7.86 6.58c-.182-.18-8.956-4.204-8.956-4.204l5.3 5.302c-.182-.183-12.978-5.85-12.978-5.85s6.032 5.668 5.666 5.484c-.365-.184-9.688-4.57-9.688-4.57s5.85 6.214 5.667 5.85-8.41-3.657-8.41-3.657l.366 3.108s-6.58-.365-6.58-5.3c-3.29-1.83-5.486-4.39-5.486-4.39l-15.172-2.557-17.184-51.37 4.023-86.833 1.097-4.388-1.83-11.7z" stroke-opacity=".979" fill-rule="evenodd" stroke="#000" stroke-width="1.125"/><path d="M417.927 499.08s-8.8-18.52-13.19-18.78c-3.96-7.55 13.76-69.266 48.042-72.784 18.846 1.552 1.55 21.727-10.843 15.518 1.548 5.432 7.745 13.192 7.745 13.192s-24.527 10.604-31.755 62.854z" fill-rule="evenodd" stroke="#000" stroke-width="1.1916" fill="#fb0"/><path d="M299.92 501.78s7.284-21.074 11.707-21.334c4.423-.26-11.708-70.248-46.83-70.768-18.994 1.56-1.562 21.854 10.926 15.61-1.56 5.464-7.805 13.27-7.805 13.27s24.717 10.667 32 63.222z" fill-rule="evenodd" stroke="#000" stroke-width=".9pt" fill="#fb0"/><path d="M332.14 370.137c-.086-.17-8.718 2.708-3.132 12.103.423-3.64 4.316-5.84 4.316-5.84s-5.924 7.025.34 12.95c.76-5.586 4.315-7.364 4.315-7.364s-4.402 12.95.084 15.573c.507-5.164 3.808-7.45 3.808-7.45s-3.978 11.596-.423 14.22c.423-4.4 3.384-6.348 3.384-6.348s-1.777 12.02 2.88 12.865c.083-4.23 3.468-8.38 3.468-8.38s-1.524 9.82 5.756 10.242c.084-3.725 1.44-7.957 1.44-7.957s3.3 10.41 8.123 8.717c-.083-3.046.086-8.802 0-8.802s3.048 9.903 8.803 8.04c-.846-2.792.34-6.093.34-6.093s3.046 6.178 8.548 4.147c.93-1.862-.254-5.5-.254-5.5s8.04 8.294 10.495 3.3c2.456-4.994-6.432-6.687-6.432-6.687h6.01s-1.947-5.077-10.072-6.178c2.793-1.27 5.67-.338 5.67-.338s-1.692-6.35-9.987-7.026c3.216-1.1 6.77-.34 6.77-.34s-1.1-6.008-10.24-7.7c1.44-1.61 5.33-1.1 5.33-1.1s-3.637-5.67-7.784-5.333-41.642-3.808-41.557-3.723z" fill-rule="evenodd" stroke="#000" stroke-width=".9pt" fill="#00713d"/><g stroke="#3ec26d" stroke-linecap="round" stroke-width="1.25" fill="none"><path d="M369.12 400.692s3.3 1.608 3.216 3.047M371.073 398.073s4.232 2.962 4.147 5.162M374.79 396.543s3.386 2.116 3.555 5.417M380.46 397.902s1.693 3.64 1.1 4.316M383.853 399.846c.254 2.877-.255 3.13-.255 3.13M342.12 381.648s3.978 2.54 3.64 6.094M341.868 384.7s1.862 1.776 1.44 2.96M346.782 381.738s2.624 3.64 1.778 6.18M351.264 384.105s1.185 2.285.085 3.555M353.38 385.203s1.438 2.285.168 3.047M351.777 392.736s3.723.847 4.232 3.64M353.973 390.198s3.893.254 4.316 4.4M359.14 388.758c.084 0 2.623 4.486 2.2 5.924M364.134 389.18s1.016 4.317.254 5.67M367.347 390.873c0 .085.085 4.993.085 4.993M362.442 384.105s2.454.93 2.285 3.3M364.72 381.9s3.13 1.778 2.792 5.163M368.364 380.47s2.71 3.215 1.693 6.77M373.098 381.225s-1.016 3.978-.593 5.586M375.978 383.934s-1.778 1.354-.847 3.047M360.58 399.423s.59 3.046 0 3.554M356.682 397.65s1.947 3.385 1.27 5.078M352.533 397.48s2.2 2.538 2.116 4.57M349.15 397.983s2.03 1.947 1.86 3.046M347.376 400.944s1.947 2.03 1.862 2.454" stroke-width="1.125"/></g><path d="M305.274 262.002l27.993-.5s18.496 0 20.495 6c3.5-8 19.495-7.5 19.495-7.5 9.664-.332 19.33-.666 28.993-1l.5 69.984c-5.665 27.16-25.328 46.322-46.99 54.487-25.825-8.332-42.156-30.16-47.487-54.987l-3-66.484z" fill-rule="evenodd" stroke="#000" stroke-width=".9pt" fill="#fff"/><path d="M315.246 261.74l40.776 108.667 36.837-111.033c-11.427.737-35.946-1.798-38.99 8.628-4.714-9.332-30.507-5.57-38.624-6.26z" fill-rule="evenodd" stroke="#000" stroke-width=".9pt" fill="#006b00"/><path d="M343.002 320.574c1.568.82 1.526-29.49 3.585-30.432.588-2.51.884-3.61 1.62-6.274-1.767-3.14-9.712-2.98-12.655-.315 1.324 4.236 1.912 5.648 1.912 5.648 3.974 6.432 3.185 32.058 5.538 31.374z" fill-rule="evenodd" stroke="#006b00" stroke-linecap="round" stroke-width=".6201" fill="#ffc900"/><path stroke-linejoin="round" d="M332.076 86.293s2.88-3.273 3.01-4.06c.133-.784 13.095-1.308 20.82-15.71 4.32-7.595 0-3.143 0-3.143l-.262-3.666s5.37-5.107 3.405-7.857c-1.965-2.75-1.31 3.536-4.453 3.405-3.142-.13-1.44-6.81-1.44-6.81s-.26-.785-1.178-1.177c-1.31.13-.918 2.487-2.097 2.75-1.178.26-2.225-5.5-2.225-5.5s-1.964-2.62-3.667 5.63c.918 8.773 6.548 7.07 6.548 12.832 0 5.76-4.975 10.213-6.415 10.343-1.44.13-.918-4.844-.918-4.844s-.784-2.357-1.308-2.357 2.88-.525 2.357-7.072c-1.18-7.856-2.095 1.833-4.19 1.44s-.524-7.2.26-7.986-.916-4.06-5.5 4.32c-.39 4.06-.915-1.047-1.83-.785-1.572 3.273-1.31 5.63.915 8.642 3.273 3.01 5.368 6.022 5.236 7.593-.13 1.57-1.832 5.106-4.19 5.106s.13-4.322 0-5.762c-.13-1.44-4.058-6.677-4.058-6.677s-2.75-4.45-2.488-4.582c.262-.13-.262-.786-1.57 3.797s-2.882-3.012-2.882-3.012-1.832 5.63 2.095 9.035c-3.01-.393-3.273.785-3.273.785 0 1.57 4.06 2.226 4.583 4.976s-4.19 4.32-4.19 4.32 1.964 2.75 7.463-2.62c.13 3.405-2.095 5.762-2.095 5.762 1.834.83 3.274.742 3.536 2.88z" fill-rule="evenodd" stroke="#000" stroke-width="1.125" fill="#cdad56"/><path stroke-linejoin="round" d="M314.112 86.293s-2.446-3.633-2.558-4.348c-.11-.715-12.037.904-17.68-13.642-3.67-6.91 0-2.86 0-2.86l.22-3.335s-3.904-4.778-2.236-7.28c1.668-2.502.98 3.217 3.127 3.23 2.668-.12 1.223-6.197 1.223-6.197s.222-.714 1-1.07c1.112.118 1.565 3.703 2.567 3.94 1 .24 3.067-4.217 3.722-5.134.916-.13.882-3.692 2.328 3.814-.778 7.983-7.392 6.434-7.392 11.676s4.225 9.293 5.447 9.412c1.224.12.78-4.408.78-4.408s.666-2.145 1.11-2.145c.446 0-3.885.833-3.44-5.124 1-5.577 3.22.36 4.997.002 1.78-.357-.208-5.898.302-6.744.118-.846 2.74-4.48 3.754 3.54.334 3.692 2.35-3.18 3.127-2.942 1.336 2.98-.59 6.956-2.48 9.697-2.778 2.74-4.035 5.742-3.923 7.172.11 1.43.77 3.206 2.773 3.206 2 0 .674-2.49.785-3.8.11-1.31 3.447-5.553 3.447-5.553.655-1.048.11-3.004.804-3.908 1.086.01 1.532-1.502 2.644 2.668s2.446-2.74 2.446-2.74 1.557 5.123-1.78 8.22c2.56-.357 2.78.716 2.78.716 0 1.43-1.22 2.025-1.666 4.527-.445 2.503 1.332 3.933 1.332 3.933s-1.667 2.502-6.337-2.383c-.112 3.098 1.78 5.242 1.78 5.242-1.558.755-2.78.675-3.003 2.62z" fill-rule="evenodd" stroke="#000" stroke-width=".9891" fill="#cdad56"/><path d="M386.058 277.95c-2.44-2.213-2.73-.28-3.929-.775-.588-.247-1.05-.797-1.56-1.298-.445-.456-.973-.645-1.56-.893-.222.656-.445 1.31-.666 1.967-.222.656.617 1.742.6 2.725-.168 1.463-.764 2.672-2.598 3.174.523-1.038.82-1.09.66-2.353-.08-.632-1.847-1.753-1.63-2.352.326-.96.878-2.073.47-3.034-.755.515-1.736.246-2.49.56-.632.282-.676 1.458-1.556 1.948-.902.422-2.892.213-4.552-.73 1.015-.77 1.854-.25 2.87-1.02.507-.386.483-2.035.99-2.42s1.724-.795 2.232-1.18c-.456-.52-.432-1.344-.888-1.864-.457-.52-2.482-.407-2.94-.927-.91-1.04-.738-2.41-1.65-3.448 2.362.846 2.02 1.998 2.612 1.91 1.12-.535 2.238-.642 2.825-.396.586.248 1.704 1.708 2.292 1.956.22-.655.544-1.488.767-2.143.22-.656-1-1.792-.776-2.447.443-1.31 1.545-2.47 1.99-3.78.158 1.264.368 2.326.527 3.59.08.633 1.323.96 1.403 1.594.08.632-.65 2.1-.57 2.73.68-.134 1.66-.043 2.34-.18.677-.134 1.128-1.71 1.807-1.845 1.357-.272 2.334-.19 3.717.07-1.015.947-1.803.884-2.44 1.755-.507.385.2 1.655-1.27 2.546-.55.32-2-.064-2.508.32.455.52.912 1.04 1.37 1.56s2.505.762 2.96 1.283c.914 1.04 1.398 2.282 1.148 3.397zM323.355 279.02c2.44-2.213 2.73-.28 3.929-.774.586-.247 1.048-.798 1.56-1.298.444-.457.97-.646 1.56-.893.22.656.443 1.31.665 1.966s-.62 1.742-.6 2.725c.166 1.463.762 2.673 2.596 3.175-.523-1.037-.82-1.088-.66-2.352.08-.633 1.847-1.753 1.63-2.353-.325-.96-.877-2.072-.47-3.033.756.514 1.737.245 2.492.558.63.282.675 1.458 1.555 1.948.902.423 2.892.213 4.552-.73-1.016-.77-1.855-.25-2.87-1.02-.507-.386-.483-2.034-.99-2.42-.51-.385-1.725-.795-2.233-1.18.457-.52.433-1.343.89-1.863.456-.52 2.48-.408 2.937-.928.912-1.04.74-2.41 1.65-3.448-2.36.847-2.018 2-2.612 1.91-1.12-.535-2.237-.642-2.825-.395-.586.247-1.704 1.708-2.292 1.955-.22-.655-.544-1.488-.766-2.143-.222-.655.998-1.79.775-2.446-.444-1.31-1.546-2.47-1.99-3.78-.16 1.265-.37 2.327-.528 3.59-.08.633-1.323.962-1.403 1.594-.08.633.65 2.1.57 2.732-.68-.136-1.66-.045-2.34-.18-.677-.135-1.128-1.71-1.808-1.847-1.357-.272-2.333-.19-3.717.07 1.015.948 1.804.884 2.44 1.755.508.385-.2 1.655 1.27 2.546.55.32 2.002-.063 2.51.322-.458.52-.914 1.04-1.37 1.56-.457.52-2.507.76-2.963 1.282-.914 1.04-1.397 2.28-1.147 3.397z" fill-rule="evenodd" fill="#ffc900"/><path stroke-linejoin="round" d="M383.87 284.952c-2.207 1.725-16.48 5.332-16.626 17.726-.146 12.392 2.502 15.216-.146 15.53-5.15 0-5.886-13.804-5.74-19.923.147-6.118.295-5.176.295-5.176s3.53.94 3.237 3.92c-.294 2.98 3.53-7.372 2.208-10.196 2.353 2.353 5.443 1.412 5.443 1.254 0-.156-1.764-2.038-2.5-3.45-.736-1.412 2.648.784 2.648.784s.147-2.353-2.796-2.196c-3.825 0 .59-1.255.59-1.255s2.206 2.04 3.678-.156c-1.62-1.725-3.973-2.667-3.973-2.667s-2.06-3.92-4.855-4.705c-3.237-.785-2.796 1.41-6.475 1.098-.735 1.41-.735 1.568.736 2.038-2.5 1.726-1.177 5.177-1.177 5.177s3.973-1.725 3.825 1.098c-.145 2.824-2.353 2.354-3.824.628-1.324-.784-1.766.785-1.766.785l2.06 2.196s-3.973-.155-5.003 2.51c2.208-.155 3.385.472 3.385.472s-4.562 2.04-5.004 3.137c-.44 1.097-.587-1.256-.735-1.256-.147 0-4.414-1.568-4.414-1.568l-1.474 6.783s2.945 2.942 4.563 2c1.618-.94 4.56-3.765 6.326-2.98-5.15 3.922-10.3 9.568-13.095 10.353-.735-.627-3.236-3.137-4.266-1.883-1.03 1.256-.295 2.824 1.03 2.667 1.324-.157-4.267 1.255-3.09 3.608 1.177 2.353 1.03 2.196 2.06 1.57 1.03-.63-.883-.785 2.942-1.883 3.826-1.098 3.68-2.197 3.68-2.197s-.737 1.726-2.796 2.197c-2.06.47-3.68.47-3.237 1.098.44.627 1.323 1.725 1.03 2.353-.295.627 4.266-3.295 5.444-.157 3.09-.157 5.15-3.922 3.678-6.118.147 2.353 1.618 3.137.735 4.235s6.916-3.608 3.09-6.43c1.03 2.352 1.177 4.234 1.177 4.234s1.766-.157 2.208-.784c.44-.628-.883 1.725-.295 2.196.588.47 3.384 3.136 2.207 5.02-.735-1.1-.883-2.825-1.765-2.668-.883.157-4.562 2.824-6.77 2.98s2.65 8.158 2.65 8.158-3.385-.47-3.825-.157c-.442.314-2.65-2.824-3.09-.94-.737 2.352.735 1.41.735 1.41s-1.913-.94-2.942.158c-1.03 1.1-2.06 2.197-1.325 2.667.736.47 3.973.47 4.414.314s-3.68.315-3.973.785c-.295.47-.883 2.196 0 2.824s3.09-.315 3.236-.785c.148-.472.295 1.725.295 1.725s3.825.313 3.825-3.608.296 2.823.296 2.823 3.824.628 3.97-3.294.44 2.668.44 2.668 2.503-.785 2.503-1.41c0-.63-.147 7.84-1.912 10.195-2.795-1.883-4.56 1.255-4.56 1.255s.146 4.55-.148 5.647c-.293 1.098 1.913-.628 2.06-1.098.147-.47 2.796-1.726 2.943-2.04l.882-1.882s-.588 2.196-1.618 2.51-2.06 1.412-1.62 2.353c.442.94 2.06 1.57 2.65 2.51.587.94 2.647-5.49 2.647-5.49l.147 1.41s2.65-.626 2.943-1.88c.294-1.256-2.795-2.354-.294-4.394 2.5-2.038 0 1.883 0 1.883s.883 2.98 1.47 2.98 2.06-5.647.59-7.06c-1.472-1.41 2.207 1.727 2.207 1.727s2.06-5.804-.147-6.59c-2.207-.783-3.237-1.097-3.237-1.097s1.177-1.568.588-1.725 3.09 3.452 3.678 2.51 1.472-3.765-2.794-5.333c-4.268-1.57-.148-5.963-.148-5.963s2.65 3.138 4.562 1.41c1.912-1.723-.148-1.723-.148-1.723s5.444-3.45 5.59-5.177c-1.03-.157-2.795.157-2.795.157s3.09-2.04 2.355-5.334c-1.178 1.726-2.797 1.727-2.797 1.727s2.65-2.668 2.207-5.177c-1.618 1.254-1.47 2.195-2.5 1.882s-2.796-10.196 1.323-10.825c4.12-.626 1.912 4.864 2.06 4.864.147 0 6.18-2.51 0-6.588 1.472-.47 4.56 2.354 4.56 2.354s-1.323-6.903-7.944-2.667c1.62-1.726 2.65-2.825 3.973-2.51 1.324.313 6.033-.158 6.033-1.57-1.177-.94-3.68.47-5.004 0-1.324-.47 9.417-1.255 8.535-6.588z" fill-rule="evenodd" stroke="#006b00" stroke-linecap="round" stroke-width=".6201" fill="#ffc900"/><path d="M481.3 118.54s12.247-6.43 18.37 1.53M504.57 132.32c-.306 0-4.286 3.98-5.205 3.98M512.84 145.18s11.328.918 18.676-10.41" transform="matrix(.5 0 0 .5 110.3 220.1)" stroke="#006b00" stroke-linecap="round" stroke-width="1.25" fill="none"/><path d="M525.08 141.81s.92 6.123 2.756 6.123-3.062 1.53-4.9.306c2.144 2.755 3.37 7.654 0 9.49" transform="matrix(.5 0 0 .5 110.3 220.1)" stroke="#006b00" stroke-linecap="round" stroke-width="1.25" fill="none"/><path d="M519.26 218.97s-3.98 4.286-8.88 4.592" fill-rule="evenodd" transform="matrix(.5 0 0 .5 110.3 220.1)" stroke="#006b00" stroke-linecap="round" stroke-width="1.25" fill="#e80000"/><path d="M523.86 199.37s-2.45-12.247-.92-15.31c.92-3.978 4.9-5.51 7.962-10.715M522.63 190.49s-3.062 7.348-16.533 4.9M526.31 172.12s.92 9.797-11.328 6.123M511.3 128.04s-4.9 4.287-3.062 10.104" transform="matrix(.5 0 0 .5 110.3 220.1)" stroke="#006b00" stroke-linecap="round" stroke-width="1.25" fill="none"/><path d="M353.732 277.596s2.955-1.2 3.517-1.8c.562-.6 1.547-1.8 1.828-2.7.282-.9-1.97-2.25-.844-4.2.704-.9 1.688-1.05 3.377 0 1.69 1.05-1.547-3.3-3.235-3.45s-2.814 1.2-3.236.9c-.423-.3.14 1.2-.564 1.2s1.407 1.2 1.267 1.95c-.14.75 2.25 3.3 2.11 3.9-.14.6-3.517 4.05-4.22 4.2z" fill-rule="evenodd" fill="#006b00"/><path stroke-linejoin="round" d="M534.27 97.112c2.794-.636 3.243.07 2.755 2.45-1.31-.66-1.79-1.218-2.755-2.45z" fill-rule="evenodd" transform="matrix(.5 0 0 .5 110.3 220.1)" stroke="#ffc900" stroke-linecap="round" stroke-width="1.25" fill="#ffc900"/><path stroke-linejoin="round" d="M514.71 233.52s-1.033 6.41 1.49 6.946c-.125-2.48.537-4.176 1.157-4.837-.538-.25-2.522-2.068-2.647-2.11zM509.03 225.63c-2.316-.33-6.23 1.59-5.105 3.91 1.88-1.62 3.626.135 4.94-1.518.405-.453.29-1.812.165-2.392zM509.01 221.05s-3.65-.58-4.157 1.948c2.52-.32 3.274-.59 4.11-.06.24-.54.007-1.762.047-1.888z" fill-rule="evenodd" transform="matrix(.5 0 0 .5 110.3 220.1)" stroke="#006b00" stroke-width="1.25" fill="#e80000"/><path stroke-linejoin="round" d="M493.54 184.94s2.19.828 2.81 3.06c1.737-1.075 2.565-5.83-2.81-3.06zM488.12 190.39c.083-.04 4.59-2.77 5.045-.165-.952.95-1.365 1.57-2.11 1.778-.578 0-1.736-1.778-2.935-1.613zM487.67 199.24c.082-.042 2.894-2.522 3.97-.868 1.074 1.653-.87 1.57-.87 1.57s-.992-.454-3.1-.702zM483.7 149.96c-.04 0-3.597-1.364-5.085 1.116 2.357.29 3.184 1.117 4.258 1.944-.29-1.034-.785-2.605.827-3.06zM476.8 168.52s.165-4.176 2.15-5.87c1.116.62 1.446 1.61 2.19 2.852-1.487.33-3.472.413-4.34 3.018zM486.3 165.54s-3.928 1.82-2.646 3.804c1.282-1.364 2.688-.95 2.688-.992s0-2.77-.042-2.812z" fill-rule="evenodd" transform="matrix(.5 0 0 .5 110.3 220.1)" stroke="#006b00" stroke-width="1pt" fill="#e80000"/><path stroke-linejoin="round" d="M480.64 125.6c-1.406 1.57 1.736 5.003 5.044 4.507.827-3.72-4.217-5.664-5.044-4.507z" fill-rule="evenodd" transform="matrix(.5 0 0 .5 110.3 220.1)" stroke="#006b00" stroke-width="1pt" fill="#ffc900"/><path d="M331.183 278.13c-.317.857.943 2.06 1.672 1.72.297-.877-1.343-2.402-1.672-1.72z" fill="none"/><path stroke-linejoin="round" d="M484.28 122.75s.62 2.936 3.473 2.15c-.455-2.274-2.44-3.97-2.44-3.97-.123.663.414 1.696-1.033 1.82zM486.18 131.27s1.57 1.695 4.672-1.778c-1.405.413-3.886-.827-3.886-.827s0 2.398-.786 2.605z" fill-rule="evenodd" transform="matrix(.5 0 0 .5 110.3 220.1)" stroke="#006b00" stroke-width="1pt" fill="#e80000"/><path stroke-linejoin="round" d="M480.46 118.86c-1.406 1.57.583 3.762 3.89 3.266.828-3.72-3.063-4.423-3.89-3.266z" fill-rule="evenodd" transform="matrix(.5 0 0 .5 110.3 220.1)" stroke="#006b00" stroke-width="1pt" fill="#ffc900"/><path d="M144.62 266.62s7.037-2.01 10.77 1.005 3.735.287 3.735.287 5.457 2.01 7.037 1.58-1.148.144 1.006-1.15c2.154-1.29-4.31.29-4.883-2.44-1.006-1.724.143-3.878-2.154-3.16-1.58-2.01 1.006-3.446.43-5.6-1.578 1.148-2.44-.432-3.733 2.44-3.015-.574-.43-4.74-3.734-5.17 0 3.016-2.442 3.16-2.585 4.883-1.436 1.006-7.755 4.74-5.888 7.325z" fill-rule="evenodd" fill="url(#e)" transform="matrix(.9 0 0 .9 207.3 41.7)"/><path d="M264.562 487.722c4.11-.992 26.375 4.916 34.96 14.12-1.822-16.392-6.364-28.95-6.364-28.95s-13.27-3.784-15.09-1.962c-2.672 2.813-10.696 11.243-13.506 16.792zM257.774 412.014c-1.56.26-3.122 1.3-4.683 3.902-1.82 4.423-3.12 15.61-5.723 18.213-2.602 2.6-4.944 2.86-4.944 5.203 0 2.34.26 7.804 7.285 9.886 7.025.26 18.213-11.19 18.213-11.19s5.725-6.243 8.066-13.007c-13.53 4.683-23.155-7.806-18.212-13.01z" fill-rule="evenodd" stroke="#000" stroke-width=".9pt" fill="#c01500"/><path d="M453.44 485.112c-4.077-.986-26.6 4.887-35.117 14.037 1.808-16.296 6.314-28.78 6.314-28.78 1.573-.43 13.023-3.763 14.832-1.952 2.65 2.797 11.182 11.177 13.97 16.694zM459.75 409.845c1.55.258 2.097 2.294 3.361 4.88 1.808 4.396 3.67 10.802 6.253 13.388 2.58 2.588 4.905 6.42 4.905 8.747s-.545 5.473-7.515 7.54c-6.97.26-17.07-8.69-17.07-8.69s-5.68-6.208-8.005-12.933c13.425 4.657 22.12-7.33 18.072-12.932z" fill-rule="evenodd" stroke="#000" stroke-width="1.1916" fill="#c01500"/><path d="M249.97 473.42s14.048 9.627 14.31 14.05c37.725-55.938 133.99-73.37 188.89-3.902 7.286-9.627 14.83-12.75 14.83-12.75-57.76-75.455-172.763-66.086-218.033 2.602z" fill-rule="evenodd" stroke="#000" stroke-width=".9pt" fill="#fb0"/><g stroke="#000" fill-rule="evenodd" fill="#1e5aa6"><path d="M384.93 249.86l5.258-.124-9.39 11.893 11.27 13.145-22.162 27.92 20.91 25.166c-2.296 5.635-4.968 10.77-8.515 15.4l-12.018-13.27 21.785-27.17-17.904-20.282 10.767-32.677zM309.81 252.236l-5.634.125 10.516 11.394-11.143 13.898 23.16 25.165-19.155 25.666c2.296 5.634 5.593 11.894 9.14 16.526l11.393-14.4-23.412-26.04 17.152-21.785-12.02-30.55z" stroke-width=".86059pt"/><path d="M335.85 319.844l-8.263 11.018 29.548 34.18c5.217-2.63 9.307-5.634 13.772-9.265l-15.4-17.78 6.26-18.404 9.015 10.392-28.17 35.933c-4.716-2.003-9.933-5.133-14.65-9.015l14.9-18.905-7.01-18.154zM326.71 302.692l5.385 6.76-3.505-9.14-1.88 2.38z" stroke-width=".86059pt"/><path d="M365.274 308.673c.118-.125 4.345-5.76 4.345-5.76l-1.645-2.253-2.7 8.013z" stroke-width="1.1110216899999998"/></g><text font-weight="bold" transform="matrix(.6 -.7 .7 .6 207.3 41.7)" font-size="14" y="362.397" x="-328.344" font-family="Timmons"><tspan x="-328.344" y="362.397">L</tspan></text><text font-weight="bold" transform="matrix(.6 -.6 .6 .6 207.3 41.7)" font-size="14" y="384.266" x="-292.335" font-family="Timmons"><tspan x="-292.335" y="384.266">E</tspan></text><text font-weight="bold" transform="matrix(.7 -.5 .5 .6 207.3 41.7)" font-size="14" y="451.681" x="-239.78" font-family="Timmons"><tspan x="-239.78" y="451.681">O</tspan></text><text font-weight="bold" transform="matrix(.7 -.5 .5 .7 207.3 41.7)" font-size="14" y="429.958" x="-188.526" font-family="Timmons"><tspan x="-188.526" y="429.958">T</tspan></text><text font-weight="bold" transform="matrix(.8 -.4 .4 .8 207.3 41.7)" font-size="14" y="451.479" x="-115.426" font-family="Timmons"><tspan x="-115.426" y="451.479">E</tspan></text><text font-weight="bold" transform="matrix(.8 -.3 .3 .8 207.3 41.7)" font-size="14" y="453.046" x="-94.111" font-family="Timmons"><tspan x="-94.111" y="453.046">R</tspan></text><text font-weight="bold" transform="matrix(.8 -.3 .3 .8 207.3 41.7)" font-size="14" y="454.982" x="-68.371" font-family="Timmons"><tspan x="-68.371" y="454.982">R</tspan></text><text font-weight="bold" transform="matrix(.9 -.1 .1 .9 207.3 41.7)" font-size="14" y="445.666" x="112.016" font-family="Timmons"><tspan x="112.016" y="445.666">R</tspan></text><text font-weight="bold" transform="matrix(.9 0 0 .9 207.3 41.7)" font-size="14" y="430.793" x="180.225" font-family="Timmons"><tspan x="180.225" y="430.793">R</tspan></text><text font-weight="bold" transform="matrix(.7 .4 -.4 .7 207.3 41.7)" font-size="14" y="275.217" x="414.759" font-family="Timmons"><tspan x="414.759" y="275.217">R</tspan></text><text font-weight="bold" transform="matrix(.7 .6 -.6 .7 207.3 41.7)" font-size="14" y="193.05" x="483.878" font-family="Timmons"><tspan x="483.878" y="193.05">E</tspan></text><text font-weight="bold" transform="matrix(.8 .2 -.1 .8 207.3 41.7)" font-size="14" y="414.028" x="309.116" font-family="Timmons"><tspan x="309.116" y="414.028">O</tspan></text><text font-weight="bold" transform="matrix(.8 -.1 .1 .8 207.3 41.7)" font-size="14" y="459.272" x="105.058" font-family="Timmons"><tspan x="105.058" y="459.272">O</tspan></text><text font-weight="bold" transform="matrix(.8 -.3 .3 .8 207.3 41.7)" font-size="14" y="455.835" x="-45.708" font-family="Timmons"><tspan x="-45.708" y="455.835">A</tspan></text><text font-weight="bold" transform="matrix(.6 .6 -.6 .6 207.3 41.7)" font-size="14" y="144.724" x="518.35" font-family="Timmons"><tspan x="518.35" y="144.724">A</tspan></text><text font-weight="bold" transform="matrix(.8 .2 -.2 .8 207.3 41.7)" font-size="14" y="388.298" x="271.188" font-family="Timmons"><tspan x="271.188" y="388.298">A</tspan></text><text font-weight="bold" transform="matrix(.8 -.2 .2 .8 207.3 41.7)" font-size="14" y="455.168" x="40.322" font-family="Timmons"><tspan x="40.322" y="455.168">M</tspan></text><text font-weight="bold" transform="matrix(.9 -.1 .1 .9 207.3 41.7)" font-size="14" y="448.079" x="94.429" font-family="Timmons"><tspan x="94.429" y="448.079">P</tspan></text><text font-weight="bold" transform="matrix(.9 0 0 .9 207.3 41.7)" font-size="14" y="437.607" x="155.088" font-family="Timmons"><tspan x="155.088" y="437.607">P</tspan></text><text font-weight="bold" transform="matrix(.7 .4 -.4 .7 207.3 41.7)" font-size="14" y="276.665" x="405.134" font-family="Timmons"><tspan x="405.134" y="276.665">P</tspan></text><text font-weight="bold" transform="matrix(.9 .1 -.1 .9 207.3 41.7)" font-size="14" y="409.793" x="232.095" font-family="Timmons"><tspan x="232.095" y="409.793">I</tspan></text><text font-weight="bold" transform="matrix(.6 .6 -.6 .6 207.3 41.7)" font-size="14" y="132.089" x="530.392" font-family="Timmons"><tspan x="530.392" y="132.089">T</tspan></text><text font-weight="bold" transform="matrix(.7 .5 -.5 .7 207.3 41.7)" font-size="14" y="218.519" x="464.158" font-family="Timmons"><tspan x="464.158" y="218.519">T</tspan></text><text font-weight="bold" transform="matrix(.8 .2 -.2 .8 207.3 41.7)" font-size="14" y="361.961" x="313.725" font-family="Timmons"><tspan x="313.725" y="361.961">M</tspan></text><text font-weight="bold" transform="matrix(.6 .6 -.6 .6 207.3 41.7)" font-size="14" y="123.248" x="513.704" font-family="Timmons"><tspan x="513.704" y="123.248">G</tspan></text><g stroke="#fff700" stroke-linecap="round" stroke-width="1pt" fill="none"><path d="M437.646 222.546s5.43-4.654 9.307-4.784M438.43 221.898c.128-.13 32.444-4.653 33.478-5.687M438.555 222.16c.13-.13 36.194-3.103 36.194-3.103M438.43 222.285s38.39-1.81 40.717.13M438.294 222.16s37.616.257 38.263 1.162M438.43 222.16l36.193 2.972M438.042 222.42c.13 0 36.84 3.232 40.46 7.885M480.432 236.892c-.13-.13-12.538-14.865-42.528-14.607M438.042 222.546s20.812 1.42 27.404 8.66M438.43 222.285s13.442-2.585 27.532 14.35" stroke-width=".9pt"/></g><path d="M247.4 217.74s20.718.813 20.718 2.844-15.437 5.89-15.64 14.422c-.203 8.53 11.78 9.14 12.593 19.905.814 10.767-9.342 12.39-11.374 15.235-2.03 1.422-6.906 16.656-6.296 25.593.61 8.938 3.25 39.203 7.92 45.296 3.658 2.844 9.142 11.984 15.032 9.14 5.89-2.843 1.828-13.202 1.22-16.046s2.436-7.516 2.436-11.78c0-4.267-2.234-7.72-2.03-8.735.202-1.016 16.452 3.86 15.436 19.906-1.015 16.045-7.515 11.17-7.515 11.17s2.03 19.703-3.048 22.343c-9.14 4.875-15.843-1.015-15.843-1.015l.858 4.007-6.953-3.6s-8.937-12.798-10.968-18.485-4.47-31.077-3.656-36.56c.813-5.486 1.422-37.58 1.016-39.204s-2.03-28.436-1.015-32.5c1.016-4.06 7.313-21.936 7.11-21.936z" fill-rule="evenodd" stroke="#000" stroke-width="1pt" fill="url(#f)" transform="matrix(.9 0 0 .9 207.3 41.7)"/><path d="M409.854 232.914s12.98-12.614 20.474-11.15c3.84 0 .183 2.74.183 2.74s6.582.55 7.496 3.474c.183 1.28-3.108 1.646-3.108 1.646s2.743.548 2.925 2.925-27.786.547-27.97.364z" fill-rule="evenodd" stroke="#000" stroke-width=".9pt" fill="#ff7000"/><path d="M410.583 232.365s13.893-1.828 19.743-7.678M424.66 228.53s10.236-.364 10.236 1.098" stroke="#000" stroke-width=".9pt" fill="none"/><path stroke-linejoin="round" d="M461.037 378.066s8.775-2.01 11.15-5.118c1.464-1.097 9.142 11.516-11.15 5.118z" fill-rule="evenodd" stroke="#000" stroke-width="1.125" fill="#fff"/><path d="M458.66 305.49s1.098 6.763-2.01 11.334c-1.646 1.828-6.58 4.935-6.58 7.13 0 2.193 1.827 5.118 1.46 7.677s-3.106 5.12-2.924 7.314c0 2.193 3.108 13.893 2.743 14.076M442.578 283.557s-6.946 2.377-8.41 9.324" stroke="#fff" stroke-linecap="round" stroke-width="1.125" fill="none"/><path d="M439.644 228.53s2.377 6.583 10.055.367c-4.937-6.763-10.056-.183-10.056-.366z" fill-rule="evenodd" stroke="#000" stroke-width=".9pt" fill="#c75b00"/><path d="M434.865 220.086c0 .338-.352.612-.787.612s-.786-.274-.786-.612c0-.338.352-.612.786-.612s.787.274.787.612z" fill-rule="evenodd"/><path d="M376.87 213.258s14.558 15.758 23.98 15.587c1.71 4.625-4.278 8.927-6.676 10.982-4.796-1.542-9.13.28-20.264-13.422.686-8.735 3.13-12.804 2.96-13.147zM396.57 176.6c1.884-5.823 5.652-10.447 8.907-10.96-.857-4.454 6.85-24.152 29.29-31.688 1.37 10.105-9.593 20.04-9.593 20.04s33.058-5.652 39.738-14.045c-.685 3.768-7.365 27.234-42.65 27.063 13.36 12.674-4.28 22.78-11.818 19.697 13.874-10.62-3.94-16.957-13.875-10.106z" fill-rule="evenodd" stroke="#000" stroke-width=".9pt" fill="#fff"/><path d="M407.874 168.384c6.68-4.282 9.078-4.282 14.56-3.426-3.94.514-3.94.686-3.94.686s-.343.513 2.055 2.74c-2.74-.685-5.14-2.227-12.676 0z" fill-rule="evenodd" stroke="#ccc" stroke-width=".9pt" fill="#cccccd"/><path d="M405.3 165.64s13.19-7.024 20.554-11.82" stroke="#000" stroke-width=".9pt" fill="none"/><path d="M393.996 239.808s18.156 4.967 20.21-21.068c-3.938-11.305-9.42-35.627-1.026-42.65-7.708-5.31-16.1.172-16.1.172-.515 1.2-7.367 10.962 1.883 28.09-21.924-5.823-13.018 14.902-13.018 14.902.856-3.254 12.504-6.337 15.415 10.277 1.2 4.112-7.88 10.45-7.365 10.278z" fill-rule="evenodd" stroke="#000" stroke-width=".9pt" fill="#00f"/><path d="M414.38 218.91s19.185-10.277 18.67-34.428c-16.27.343-22.094 21.41-22.094 21.41l3.425 13.018z" fill-rule="evenodd" stroke="#000" stroke-width=".9pt" fill="#00f"/><path d="M328.395 217.713s-14.216 12.333-22.267 8.393c-5.995 3.597-13.017-2.74-13.017-2.74s8.222 30.317 37.683 8.392c-.514-6.68-2.056-13.53-2.398-14.045z" fill-rule="evenodd" stroke="#000" stroke-width=".9pt" fill="#fff"/><path d="M305.958 225.588c1.2-6.337 6.166-9.42 10.106-3.426 5.31 1.028 10.62-20.725-8.22-17.128 5.308-28.432-10.62-39.052-10.62-39.052s-5.653 31.516-3.084 37.34c2.57 5.823-3.768-10.79-24.15-15.415-.343 23.808 22.78 34.94 22.78 34.94s6.51 5.996 13.19 2.742z" fill-rule="evenodd" stroke="#000" stroke-width=".9pt" fill="#00f"/><path d="M307.84 204.86s-8.908 7.538-6.852 17.815M294.312 203.835s-2.055 7.365 2.398 17.814M292.94 224.05s4.112-6.68 13.02 1.883" stroke="#000" stroke-width=".9pt" fill="none"/><path d="M294.654 177.798c0-.17-13.532 0-5.48 13.703-5.996 1.885-19.356-6.85-10.107-18.498-30.318-.685-42.65-15.244-42.65-28.604 8.907 9.25 30.146 5.48 37.683 11.133-9.25-8.563-7.365-20.38-7.365-20.38s25.864 7.706 30.488 30.658c-1.542 4.453-2.227 12.333-2.57 11.99z" fill-rule="evenodd" stroke="#000" stroke-width=".9pt" fill="#fff"/><path d="M273.848 154.938c4.99 5.078 17.816 6.596 24.325 12.248" stroke="#000" stroke-width=".9pt" fill="none"/><path d="M279.753 169.923s10.617-1.37 13.694 2.398c-4.154 0-5.54-1.027-11.54 1.2 1.692-.856 1.23-2.398 2.154-2.398s-3.846-1.2-4.308-1.2z" fill-rule="evenodd" stroke="#ccc" stroke-width=".8532" fill="#cccccd"/><path d="M332.68 86.85s5.823-5.14 12.16-.514c-2.863 8.555-13.19 5.31-13.19 5.31s.344 4.28-.684 6.337c2.067 1.553 3.768 6.68 3.768 6.68s10.62-2.57 12.847 2.055c4.068-.56 7.024 0 7.024 0s8.22-2.055 11.133-2.055c2.91 0 12.16 2.398 13.017 4.11.857 1.713 3.94 13.19 5.995 13.018 2.054-.17-4.968 2.742-6.852-.17-1.884-2.912-1.37 3.768-1.37 3.768s5.823 6.166 6.508 7.537c.685 1.37-3.597 12.503-.342 20.21-2.852.264-3.083 3.255-3.083 3.255-.156 3.393-4.453 4.282-4.453 4.282l-1.028-4.624-2.912 1.712 1.2-3.597s3.938-9.592 4.28-12.674c.343-3.084-3.596-8.565-6.68-8.565-3.082 0-5.31 9.763-5.31 9.763s-1.54 7.365-1.027 8.05c.515.685-2.054-2.398-2.054-2.398s-1.37 4.453-2.398 5.824c-1.028 1.37-3.254 1.884-3.254 1.884s-1.542-4.454-1.028-6.166c.514-1.713 8.393-8.393 7.708-13.19-.686-4.795 0-3.596-.172-3.767-.17-.17-4.11-3.597-4.282-5.48-.17-1.885-5.138 2.397-11.647 1.026-1.992 3.483-2.226 12.162-2.226 12.162s-.685 10.448.685 11.647c1.37 1.198-3.426 3.767-3.426 3.767l-3.426 4.625s-1.2-2.912-1.2-2.74c0 .17-2.396 1.712-2.396 1.712l1.37-3.425c-.084-2.594 3.33-9.676 3.33-15.672 0-5.995.438-12.42.438-12.42s-6.337-.343-6.166 6.166c.17 6.51-1.542 6.85-1.2 8.736.343 1.884 2.056 7.193 1.542 8.735-.513 1.54-2.57 2.055-2.57 2.055l-.513.857s-6.337 2.912-6.166 4.11c.17 1.2-.172-3.425-.172-3.425l-.343-4.967s3.768-2.398 3.768-8.393c0-5.995-.868-6.847-.697-8.218.172-1.37 1.04-6.34.87-6.855-.173-.515-3.598 1.37-4.626 1.37s1.884-3.598 2.227-6.167c.342-2.57-3.426 2.398-6.51-.514 1.435-3.164 3.598-4.112 3.94-6.51s-2.397 2.056-4.795.343c.195-2.298 2.57-4.282 2.57-4.282s-1.953-.238-2.742 0c-1.54-.513 1.713-2.91 1.884-6.337.172-3.425-1.884-4.796-1.884-4.967 0-.17-3.425-3.083-3.94-4.282-.513-1.2-.513-2.57-.513-2.57s-5.652 4.112-12.333-4.624c6.118-5.222 12.675-1.37 12.675-1.37s1.712-4.796 9.59-4.454c7.88.343 9.42 4.796 9.08 4.283z" fill-rule="evenodd" stroke="#000" stroke-width=".9pt" fill="#923f00"/><path d="M375.77 175.45c.144 0 14.55.427 14.694 8.13.142 7.703-4.423 5.706-4.565 5.706s-10.557-1.284-10.557-1.284l.428-12.553z" fill-rule="evenodd" stroke="#000" stroke-width=".9pt" fill="#00f"/><path d="M361.785 173.307s17.974-.143 16.975 7.703c-1 7.845-5.563 6.276-5.563 6.276l-8.702-.713-2.71-13.266z" fill-rule="evenodd" stroke="#000" stroke-width=".9pt" fill="#fffeff"/><path d="M351.66 172.452l10.413.856s6.277.856 5.99 6.847c-.284 5.99-6.418 6.134-6.418 6.134l-10.128-.572.143-13.266z" fill-rule="evenodd" stroke="#000" stroke-width=".9pt" fill="#00f"/><path d="M327.27 175.45c-.143 0-14.55.427-14.692 8.13-.143 7.703 4.422 5.706 4.564 5.706s10.556-1.284 10.556-1.284l-.432-12.555z" fill-rule="evenodd" stroke="#000" stroke-width=".9pt" fill="#fff"/><path d="M341.247 173.307s-17.974-.143-16.975 7.703c1 7.845 5.563 6.276 5.563 6.276l8.702-.713 2.71-13.266z" fill-rule="evenodd" stroke="#000" stroke-width=".9pt" fill="#00f"/><path d="M351.38 172.452l-10.412.856s-6.277.856-5.99 6.847c.284 5.99 6.418 6.134 6.418 6.134l10.128-.572-.143-13.266z" fill-rule="evenodd" stroke="#000" stroke-width=".9pt" fill="#fff"/><path d="M379.263 259.06s7.488-11.036 10.64-9.854c2.76.92.658 9.46-.656 10.247l-9.985-.394zM327.936 261.03c-2.365-3.284-5.78-12.35-8.933-9.853-2.76.92-.657 9.46.657 10.247l8.276-.394z" fill-rule="evenodd" stroke="#000" stroke-width=".9pt" fill="#5e0043"/><path d="M332.895 239.205s14.59 8.988 19.377 9.22c4.786.235 19.96-11.672 19.96-11.672" stroke="#000" stroke-width=".9pt" fill="none"/><path d="M334.3 203.96l2.8-3.5 14.008 7.12 14.24-6.304 2.802 2.918-15.875 11.206-17.976-11.44z" fill-rule="evenodd" stroke="#000" stroke-width=".9pt" fill="#5e0043"/><path stroke-linejoin="round" d="M323.175 203.772c1.138 1.437 10.19 12.445 11.825 21.55 1.634 9.104-.934-12.49-.934-12.49s11.206 5.486 11.556 8.987c.35 3.5 5.358-.237 5.597-.836l-32.444-21.072 4.4 3.86zM378.534 203.142s-11.79 15.525-10.39 32.45c-2.43-8.104-.466-21.478-.466-21.478l-2.568 1.634s-2.684 11.44-6.07 13.19c-.57-1.362-.466-1.867-.466-1.867s-3.62 4.67-4.32 5.137c-.7.467.234 15.758.234 15.758s1.215 11.082 2.616 10.966c-1.593.783-3.55 1.995-3.55 1.995l-1.452-29.594 3.32-3.325s4.436-5.37 4.786-10.622c-1.925 1.634-4.086 2.1-4.086 2.1s-.583 7.472-2.334 8.522c-1.75 1.05-1.8 3-1.8 3l-.415-9.764 26.96-18.098z" fill-rule="evenodd" stroke="#474747" stroke-width="1.125" fill="#474747"/><path d="M351.57 221.115l2.278 46.685" stroke="#000" stroke-linecap="round" stroke-width="1.125" fill="none"/><path d="M322.86 243.408s5.37 3.152 7.354 12.723c17.508-1.283 22.995 4.904 22.995 4.904s14.357-6.887 21.01-5.603c2.334-4.902 8.987-11.205 8.987-11.205" stroke="#000" stroke-width=".9pt" fill="none"/><path d="M315.534 197.652l36.04 23.58 32.45-21.83s6.77-3.734 6.187-6.418-2.917-1.635-4.084-1.168c-1.167.467-33.968 23.695-33.968 23.695l-34.9-22.06s-2.57-.817-3.036.818.962 2.568 1.312 3.385z" fill-rule="evenodd" stroke="#000" stroke-width=".9pt" fill="#b4b6b9"/><path stroke-linejoin="round" d="M379.983 191.532s-9.22-3.915-9.22-.522.26 3.74 1.738 5.916c1.48 2.174-1.13 3.566-1.13 3.566s-.347-.957-.87-2.435c-.52-1.48-5.48-2.523-5.915-4.263-.435-1.74 1.044-4.524-1.914-4.872-2.957-.348-5.827 1.218-6.436 4.61-.61 3.394-4.437 11.31-4.437 11.31l.522-18.008c6.494.464 18.558 1.885 27.837 2.958-2.784-.435 1.044.174.957 1.13-.26.784-1.218.87-1.13.61zM347.358 187.005c-1.653 0-9.917.957-12.005 2.175-2.088 1.218 3.393 3.132 2.697 4.785-.696 1.653-.783 4.958-3.393 4.262-2.61-.696-11.396-5.045-11.657-6.524-.26-1.48-2.088-1.566-2.088-1.566s25.228-3.393 26.447-3.132z" fill-rule="evenodd" stroke="#474747" stroke-width="1.125" fill="#474747"/><path d="M351.336 184.935l-.063 22.124M334.3 158.87s-10.11 16.414-10.31 16.915" stroke="#000" stroke-width=".9pt" fill="none"/><path d="M161.8 129.74s4.893 6.672 4.337 8.562c2 1.557 4.225 7.784 4.225 7.784" fill-rule="evenodd" stroke="#000" stroke-width="1pt" fill="url(#g)" transform="matrix(.9 0 0 .9 207.3 41.7)"/><path d="M369.93 157.467s-9.508 13.41-9.207 14.412" stroke="#000" stroke-width=".9pt" fill="none"/><path d="M316.213 91.426c-.206.717-1.364.995-2.588.62s-2.048-1.26-1.842-1.976c.206-.717 1.365-.995 2.588-.62s2.05 1.26 1.843 1.976zM319.886 91.173c.206.717 1.364.995 2.588.62s2.047-1.26 1.842-1.976c-.206-.717-1.365-.995-2.588-.62s-2.048 1.26-1.842 1.976z" fill-rule="evenodd"/><path stroke-linejoin="round" d="M436.34 371.217s-3.524.66-3.414.992-10.246.66-10.466.33c-.22-.33-1.543 1.762-1.543 1.762l1.653-.992s2.534 2.644 3.305 2.424c.77-.22-.33.99-.11 1.212.22.22.99-.44.99-.44l17.122-.287-7.536-5.003z" fill-rule="evenodd" stroke="#000" stroke-width=".9pt" fill="#ff7000"/><path stroke-linejoin="round" d="M442.722 376.545l-13.983.405s-3.527 3.195-3.747 3.966 2.314.99 2.314.99l.77 2.645 1.763-.66s11.89 1.768 22.805-.66c5.51-1.928 6.473-4.242 2.617-5.647-3.856-1.404-12.43-.983-12.54-1.038z" fill-rule="evenodd" stroke="#000" stroke-width="1.125" fill="#ff7000"/><path d="M208.37 403.93l27.97-1.246-5.208-4.416 75.647-3.058-2.606-6.002-84.707 3.398 10.192 4.756-22.876.68.68 2.377-6.002-.227s6.68 2.605 6.908 3.737z" fill-rule="evenodd" stroke="#000" stroke-width="1pt" fill="url(#h)" transform="matrix(.9 0 0 .9 207.3 41.7)"/><path d="M239.73 249.42c-2.222-1.11-11.998-2.444-22.884 4.666l.444 25.106s15.997-8.665 23.773-6.666c-.444-7.776-.444-17.774-1.333-23.106z" fill-rule="evenodd" stroke="#000" stroke-width="1pt" fill="url(#i)" transform="matrix(.9 0 0 .9 207.3 41.7)"/><path d="M283.867 334.785l-59.36 58.93M310.323 335.217l-48.18 63.45M308.172 318.657l-64.31 77.86M241.927 395.436l6.237-7.312M320.43 357.798l-24.95 34.416M294.405 396.732l.645 13.113M331.824 369.84l-26.454 33.122M327.1 400.386l10.753-17.636M331.185 379.308l-12.904 14.625M327.315 365.547l-8.818 10.754M315.912 349.842s-26.884 39.36-26.454 42.584M313.113 344.685c-.645.43-23.228 30.326-23.228 30.326M288.598 384.465l-4.086 4.947M279.35 396.948l-6.237 8.172" stroke="#000" stroke-width=".9pt" fill="none"/><path d="M280.93 244.2s-1.82 5.724 0 8.586 13.27 26.017 13.27 26.017 7.804-9.626 10.666-9.886c2.862-.26 1.56 24.977 1.56 24.977s-4.682 4.423-7.544 4.163c-2.862-.26 7.025 9.886 6.765 18.472s-13.01 51.254-17.693 52.035c-4.683.78 2.082-7.806 1.822-10.148-.26-2.34-1.56-.78-2.602-3.382-1.04-2.602 1.56-6.504 1.04-9.106s-2.86-2.082-3.122-3.904 1.562-2.34 1.3-4.422c-.26-2.082-3.12-1.562-2.86-3.383.26-1.82.52-1.04.26-4.422-.26-3.382-.78 2.342-3.643 2.602-2.863.26-5.204 6.764-5.204 6.764s-5.724 8.066-11.448 4.423c3.382 7.286.78 10.408-.52 10.668s1.04 5.724-2.082 5.984 2.34 12.227-1.3 13.268c3.902 1.82.78 4.163.78 4.163s-9.02.75-7.025 12.49c-26.538-9.352-39.546-25.48-39.286-41.87.26-16.39 5.464-31.22 18.212-36.684 3.643-13.53 9.887-28.098 9.887-28.098s-1.04-5.985-.26-9.888c.78-3.902 4.423-7.805 4.423-7.805s-.52-9.366-.26-14.05c.26-4.682 2.08-6.764 2.34-9.365.26-2.602-.78-15.87 1.822-18.212 2.602-2.342 7.545-2.082 10.147-3.644 2.602-1.56 5.984-4.422 9.366-4.162s6.245 2.602 6.245 2.602 12.75 0 13.53 4.944c.78 4.942-2.602 6.764-2.602 6.764s1.82 7.024-5.985 13.53z" fill-rule="evenodd" stroke="#2b2b2b" stroke-width=".9pt" fill="#8a9396"/><path d="M266.852 218.097c.39.722-.5 1.96-1.986 2.764s-3.01.875-3.4.153c-.39-.72.498-1.958 1.986-2.764s3.01-.874 3.4-.153z" fill-rule="evenodd" stroke="#2b2b2b" stroke-width=".86059pt" fill="#cecfcf"/><path d="M264.787 219.354c0 .455-.414.824-.925.824-.51 0-.924-.37-.924-.824 0-.454.414-.823.924-.823s.925.37.925.824z" fill-rule="evenodd"/><path d="M286.474 236.1s3.16 14.108-.62 23.854M287.446 229.926s6.165 8.154 5.37 18.296M288.043 228.135c.198 0 5.17 4.375 4.97 7.358M289.236 226.344s3.38 2.386 4.176 4.773" stroke="#2b2b2b" stroke-width=".5625" fill="none"/><path d="M287.645 224.95s-12.13 19.687-10.54 32.017" stroke="#000" stroke-width=".9pt" fill="none"/><path d="M288.44 224.355s-16.11 9.546-19.09 40.77" stroke="#2b2b2b" stroke-width=".5625" fill="none"/><path d="M286.65 230.124l-6.364 4.773" stroke="#000" stroke-width=".9pt" fill="none"/><path d="M263.383 266.916s8.95-37.19 24.86-42.56" stroke="#2b2b2b" stroke-width=".5625" fill="none"/><path d="M294.406 279.444s8.552-10.74 10.54-10.34c1.99.397 1.393 24.858 1.393 24.858s-6.365 4.773-7.758 4.574c-1.392-.2 7.16 11.534 6.96 15.91-.198 4.375-.397 4.375-.397 4.375s0-2.584-1.988-6.76c-1.99-4.177-.796-8.95-13.723-19.49-3.182-6.563 6.364 3.978 8.353 2.387 1.99-1.59-3.58-15.314-3.38-15.513z" fill-rule="evenodd" stroke="#2b2b2b" stroke-width=".9pt" fill="#2b2b2b"/><path d="M279.204 218.964s-3.596.98-4.086 2.45c-.49 1.472-2.614 2.943-3.758 2.453-1.144-.49-3.27-2.288-3.27-2.288" stroke="#2b2b2b" stroke-width=".9pt" fill="none"/><path stroke-linejoin="round" d="M258.776 231.546s-5.392 5.393-2.778 6.046c2.615.654 5.393-4.248 5.393-4.248s0 8.334 2.29 7.027 8.987-6.046 8.987-6.046 2.288-.163 2.778 0c.49.163 6.21 5.066 9.97 3.268-2.126 5.557-4.577 6.21-4.577 6.21s-3.922 5.066-8.988 3.922c-5.066-1.143-6.374-3.268-6.374-3.268s-4.248.327-5.556-1.634c-1.307-1.96-1.797-3.105-1.797-3.105s-2.452 2.45-3.105 1.307c-.654-1.144 0-7.844 3.758-9.478z" fill-rule="evenodd" stroke="#2b2b2b" stroke-width="1.125" fill="#2b2b2b"/><path d="M289.336 224.03s-9.968-2.94-13.4 1.962c-3.432 4.902-2.615 7.68-.817 8.17" stroke="#2b2b2b" stroke-width=".9pt" fill="none"/><path d="M290.874 223.752c0 1.175-.84 2.128-1.88 2.128s-1.88-.953-1.88-2.128.843-2.128 1.88-2.128 1.88.953 1.88 2.128z" fill-rule="evenodd"/><path d="M261.862 249.186s4.064 6.253 8.91 7.973-3.36 3.204-8.207-.08c-3.518-4.767-2.58-8.207-2.58-8.207s.94-.938 1.877.313zM296.648 286.086s-11.413-15.868-14.697-16.728c-3.282-.86 2.503-1.564 6.02 1.798 3.518 3.36-.938-5.472-.938-5.472l9.615 20.402z" fill-rule="evenodd" stroke="#2b2b2b" stroke-width=".9pt" fill="#2b2b2b"/><path stroke-linejoin="round" d="M260.768 377.778c4.378-1.173 23.45 10.944 27.75 13.992 4.3 3.05 13.288 1.095 13.288 1.095s-4.143 2.5-6.722 3.126 7.66.627 7.66.627-24.39 6.722-49.168-6.332c-2.267-10.162 5.315-12.43 7.19-12.507z" fill-rule="evenodd" stroke="#2b2b2b" stroke-width="1.125" fill="#2b2b2b"/><path d="M288.674 289.992s-3.204-.625-4.846-2.5c-1.642-1.878-3.987-6.49-6.41-8.444s-14.54-8.598-18.917-8.13c-4.377.47-5.705-.468-6.253-1.016-.547-.547-2.345.235-2.032 2.502.313 2.267-3.36 7.27-2.032 9.615 1.328 2.344 7.582 11.88 8.833 12.193 1.25.312.47 5.55.47 5.55s5.55 5.628 6.956 5.94c1.407.313 2.814 1.33 2.658 2.658-.157 1.33-6.098 8.6-6.098 8.6s-6.41 3.36-6.488 5.237c-.078 1.876 1.564 5.785 6.645 7.035 5.08 1.25 18.76.235 19.463-.938.703-1.172 1.798-8.207 1.33-8.91-.47-.704-3.832-2.815-5.55-2.502-1.72.312-3.284 1.72-3.128 2.032.156.313-2.423 1.642-2.423.39 0-1.25 5.08-6.878 5.55-6.41.47.47 7.66 1.174 8.99 4.77s1.328 6.175 5.08 5.784c3.752-.39 8.99-3.83 9.458-11.022.47-7.19-4.22-12.038-5.393-12.74-1.173-.704-5.08-3.05-5.394-4.144-.313-1.094-1.095-4.69-.47-5.55z" fill-rule="evenodd" stroke="#2b2b2b" stroke-width=".9pt" fill="#2b2b2b"/><path d="M221.057 321.735s12.116-3.127 15.244-3.05c3.127.08 14.93 5.55 18.37 8.913 3.44 3.36 10.475 11.334 15.087 10.63 4.612-.703 5.94-1.64 5.94-1.64l-1.797 3.438s-3.752 1.017-5.628.548c-1.876-.47-5.55-1.642-9.224-5.238-3.674-3.596-15.008-13.288-24.623-12.585-9.615.704-15.165 10.163-15.165 10.163s.078-4.613.47-5.63c.39-1.015-2.033 2.19-2.033 2.19l3.36-7.74z" fill-rule="evenodd" stroke="#2b2b2b" stroke-width=".9pt" fill="#2b2b2b"/><path d="M265.692 331.113c.078.078 3.05.86 8.05.86s7.662-2.19 7.662-2.19l-.313-1.953.783-2.736s3.83 3.908 3.752 4.69c-.078.782-1.563 1.094-1.563 1.094l-.547-1.876-1.33 1.642s-7.27 5.784-11.256 4.925c-3.987-.86-7.66-3.44-6.645-4.066s1.563-.39 1.407-.39zM248.026 341.355s-4.378-.078-6.332.86c-1.954.938-2.658 2.11-3.986 1.954-1.33-.157-2.345-1.877-1.955-2.58.548-1.095 3.127-2.502 8.052-2.11s4.22 1.875 4.22 1.875zM263.348 353.235c0-.234-.313-6.41-2.736-8.91s-5.394-2.503-6.723-2.19c-1.33.313 4.924 3.05 5.55 4.846.624 1.8 2.657 6.802 2.11 8.053-.548 1.25-1.564-3.518-5.394-4.847s-9.146-.625-8.05 1.095 5.392.157 7.58 3.83 3.83 7.583 3.83 7.583l.705-2.657 1.955-.547.235-5.082.938-1.173z" fill-rule="evenodd" stroke="#2b2b2b" stroke-width=".9pt" fill="#2b2b2b"/><path stroke-linejoin="round" d="M260.22 373.242l-3.986-7.973s-1.25-5.082-4.612-6.49c-3.36-1.406-7.817-1.172-7.895.548-.078 1.72 7.192 3.908 7.66 4.846.47.938.235 2.502-.39 2.58-.625.078-3.83-1.173-5.472-.782-1.64.39-2.58 2.502-5.003 1.876-2.423-.625-4.455-8.364-3.517-9.145.938-.782-1.798 1.407-2.345-.626-.548-2.032.78-8.364-.157-9.146-.938-.78-5.47-3.516-5.55-4.063-.078-.548.235-31.112 25.796-5.785-10.945-12.976-15.244-11.57-17.276-11.647-1.486 0-11.413.86-13.914 13.524-2.502 12.662-5.472 4.767-5.472 4.767s-.547 5.472 2.11 7.035c2.658 1.564-1.25 6.097-1.25 6.097s-4.77-11.648-4.065-16.73c-.938 4.066-.86 14.15 5.16 25.17 7.034 7.427 13.68 14.306 31.345 22.045 9.303-14.227 8.833-15.946 8.833-16.103z" fill-rule="evenodd" stroke="#2b2b2b" stroke-width="1.125" fill="#2b2b2b"/><path stroke-linejoin="round" d="M243.493 373.323s5.16.625 6.566 3.283c1.406 2.658 2.03 6.723 2.03 6.723.86-1.72 1.252-3.206 2.972-4.457s2.97-1.407 2.892-2.345c-.078-.938-5.472-6.644-8.208-6.957-2.736-.312-7.504 2.97-7.504 2.97s-.86 1.252 1.25.783z" fill-rule="evenodd" stroke="#2b2b2b" stroke-width="1.125" fill="#8a9396"/><path d="M255.276 386.77s13.37 6.094 35.393 6.488" stroke="#8a9396" stroke-linecap="round" stroke-width="1.125" fill="none"/><path d="M299.91 324.705s-1.15 11.218-9.78 33.364" stroke="#2b2b2b" stroke-linecap="round" stroke-width="1.125" fill="none"/><path d="M298.19 331.608s-2.588 8.053-9.778 14.093" stroke="#2b2b2b" stroke-width=".9pt" fill="none"/></g></svg>