<svg xmlns="http://www.w3.org/2000/svg" height="512" width="512"><g fill-rule="evenodd" stroke-width="1pt"><path fill="#06f" d="M0 0h512.003v511.994H0z"/><path fill="#fff" d="M170.67 0h170.67v512.004H170.67z"/></g><path d="M253.363 316.796c1.816-1.89 11.484-4.84 18.357-5.433 5.94-.468 9.77-4.373 13.29-4.76 10.17-10.227 23.468-14.135 32.163-34.045 1.654-5.975 2.83-13.252 3.006-20.212-3.283-23.25-5.407-22.623-10.306-37.996" stroke="#000" stroke-width=".516" fill="none"/><path d="M271.566 313.614c.178 1.715 5.418 8.043 14.47 6.93-.81-1.746-2.776-3-5.597-5.627-1.292-1.33-8.94-2.114-8.874-1.303zM282.342 311.816c-1.053.092-1.99.718-.19 2.298 3.034 2.55 13.918 4.896 15.558 1.66-4.818-.65-8.03-1.672-8.525-1.654-2.237-.732-5.122-2.466-6.843-2.304zM276.913 311.037c2.195-1.51 3.896-1.385 5.316-1.683 3.636-.252 6.123.248 7.645.877 2.253.97 5.535 3.4 5.95 5.163-3.344-.063-5.56-2.587-9.868-3.544-2.197-.19-6.258-.473-9.044-.813zM271.137 310.558c6.344-3.907 12.357-11.067 12.972-18.55-7.923 6.204-13.293 15.16-12.973 18.55z" fill-rule="evenodd" fill="#0c5c1d"/><path d="M274.684 310.304c5.364-2.327 12.632-7.54 13.514-18.38-7.36 4.632-9.714 11.482-13.514 18.38zM286.005 305.08c-.414-3.06 6.934-19.05 11.22-23.165.47 6.155-5.516 23.44-11.22 23.165zM285.778 305.693c1.115 4.742 13.243 5.973 17.16.413-4.876-.813-10.903-1.287-17.16-.413z" fill-rule="evenodd" fill="#0c5c1d"/><path d="M290.992 302.265c4.96 3.126 17.05.942 24.098-4.64-10.523-3.176-23.554 2.865-24.098 4.64zM300.67 295.6c.787-3.445 10.99-10.25 17.572-9.873-4.18 5.674-5.614 4.702-7.792 7.22-1.488 1.866-6.68 3.238-9.78 2.654zM304.14 287.922c-3.614-1.37-2.812-11.795-.398-16.05 2.45 5.743 3.107 14.69.397 16.05zM309.008 283.92c-4.807-2.673-3.075-15.75-.513-19.416 2.008 3.905 3.062 17.517.513 19.417zM311.112 283.824c2.783-4.38 12.473-4.565 16.725-2.87-4.624 4.522-11.743 4.748-16.725 2.87zM313.714 280.99c-4.005-6.263-1.518-9.58.927-17.335 1.184 6.584.23 13.532-.926 17.335zM318.887 267.013c.69-5.804 5.95-8.544 11.926-10.54-1.24 4.275-3.82 8.9-11.926 10.54z" fill-rule="evenodd" fill="#0c5c1d"/><path d="M317.357 270.402c-6.26-1.07-6.553-7.042-6.422-12.883 1.786 3.216 6.067 7.358 6.422 12.882zM315.663 260.272c1.483-3.628-1.116-13.44-7.505-17.054.1 6.006 4.187 13.472 7.505 17.054zM319.188 257.878c.917-2.163 1.51-3.263 2.895-6.018 2.4-5.034.85-3.348 4.093-9.44 1.747 6.802-1.76 14.917-6.987 15.458zM319.788 239.753c-4.33 2.377-8.722.838-14.736-3.977 4.96-.45 9.412 1.934 14.736 3.977zM318.61 237.4c2.59-8.6 4.114-10.063 6.24-19.398-5.318 4.3-8.053 13.624-6.24 19.4zM317.768 236.807c-5.837-4.238-7.21-9.05-13.928-10.804.142 2.406 9.802 12.45 13.928 10.804zM316.26 230.915c-3.726-4.637-5.783-8.423-11.304-11.774.884 5.658 7.064 13.878 11.304 11.775zM309.112 220.677c1.184-6.47-6.828-10.764-9.607-14.082-.314 5.717 4.688 12.444 9.607 14.082z" fill-rule="evenodd" fill="#0c5c1d"/><path d="M309.064 213.28c1.86-5.83-3.363-9.78-5.964-12.754.415 5.688 1.276 11.557 5.964 12.754zM316.53 224.667c2.3-3.755.988-12.37-.5-15.998-1.856 1.988-2.74 15.32.5 15.997z" fill-rule="evenodd" fill="#0c5c1d"/><path d="M313.11 217.024c2.604-4.607 1.14-9.527-.39-13.15-1.686 5.38-2.905 10.556.39 13.15zM318.458 253.534c3.865-.497 6.597-8.56 3.932-15.77-2.474 6.42-2.467 9.472-3.932 15.77zM317.407 239.254c4.81.245 7.84-3.914 10.385-11.183-3.96 2.546-5.905 9.267-10.385 11.184zM320.497 255.786c-4.4 1.054-9.365-10.473-5.96-16.97 3.737 7.445 4.58 10.567 5.96 16.97zM315.92 272.335c.607-4.4 10.046-5.515 14.785-4.547-3.792 3.046-11.506 4.928-14.784 4.547z" fill-rule="evenodd" fill="#0c5c1d"/><path d="M313.837 279.413c2.68-2.34 6.92.182 13.714-13.085-9.144 5.222-12.656 11.3-13.713 13.085z" fill-rule="evenodd" fill="#0c5c1d"/><path d="M259.836 316.8c-1.457-2.07-9.15-4.303-16.024-4.895-5.94.25-11.385-1.142-16.34-3.682-10.172-10.227-21.494-17.008-30.19-36.918-1.653-5.975-2.65-11.457-2.826-18.417 3.28-23.25 3.61-25.495 12.637-40.867" stroke="#000" stroke-width=".516" fill="none"/><path d="M238 313.754c-.18 1.715-6.18 7.027-14.47 6.93.81-1.746 8.96-3.616 11.18-6.77.656-.95 3.354-.97 3.29-.16zM231.912 311.32c1.042-.174 1.608.338-.19 1.918-3.035 2.55-8.207 3.754-15.812 5.085 2.533-2.553 8.663-4.716 9.16-4.698 2.236-.732 4.867-1.958 6.842-2.304z" fill-rule="evenodd" fill="#0c5c1d"/><path d="M236.327 311.05c-.8-1.763-1.61-2.654-3.03-2.952-3.638-.252-6.506.375-7.647.877-1.237.716-5.154 3.272-5.57 5.035 2.964-.824 4.927-3.095 9.233-3.67 2.07-.698 4.99-.6 7.014.71zM244.392 309.302c-6.344-3.907-10.327-8.91-10.942-16.39 7.922 6.202 11.262 13 10.942 16.39z" fill-rule="evenodd" fill="#0c5c1d"/><path d="M240.465 310.194c-6-2.58-8.19-7.413-12.37-15.336 7.486 3.744 10.6 7.676 12.37 15.336zM226.987 307.5c1.302-5.344-.97-13.21-4.876-17.072-.34 6.028.823 16.08 4.877 17.072zM224.923 306.087c-1.115 4.742-13.497 4.83-17.16.413 3.734.837 11.92.998 17.16-.413zM221.747 302.15c-3.817 2.873-19.208-1.848-19.403-4.515 2.023-.254 18.86 2.74 19.403 4.516zM220.517 301.33c2.23-4.408-3.905-18.354-6.36-18.243 1.45 10.432 4.073 15.174 6.36 18.242zM216.502 297.645c-1.422-3.32-12.133-8.982-17.572-9.874 4.435 4.66 7.288 4.005 8.807 6.967 1.108 1.993 5.92 2.35 8.765 2.908zM214.49 295.137c1.115-4.184.557-5.858-2.177-8.87-.278 4.407.28 6.136 2.177 8.87zM210.475 290.53c3.012-1.974 1.172-12.075-1.506-14.898-.56 7.28-1.284 13.713 1.505 14.898zM205.12 282.918c5.187-1.785 1.17-11.435-.503-15.228-2.01 3.904 1.506 5.968.502 15.228zM203.908 283.576c-4.305-4.125-11.965-4.44-16.218-2.744 5.13 1.732 13.01 2.845 16.218 2.744zM199.39 274.37c-1.127-4.292-10.627-4.27-15.214-2.744 4.127 2.57 12.007 3.515 15.214 2.745z" fill-rule="evenodd" fill="#0c5c1d"/><path d="M202.417 281.075c-2.68-2.34-6.92.182-13.714-13.085 9.145 5.222 12.657 11.3 13.714 13.085z" fill-rule="evenodd" fill="#0c5c1d"/><path d="M201.56 281.257c4.004-6.263 1.517-9.58-.928-17.335-1.183 6.584-.23 13.532.927 17.335zM195.364 266.9c-1.198-5.677-6.583-8.544-12.052-9.27 1.495 2.878 5.597 3.95 12.052 9.27z" fill-rule="evenodd" fill="#0c5c1d"/><path d="M196.48 269.858c6.32-.576 7.083-6.504 7.41-12.335-2.03 3.066-6.624 6.858-7.41 12.335zM196.468 262.41c3.69.37 8.298-7.644 6.652-14.088-3.01 7.137-3.278 9.642-6.652 14.087zM194.898 255.592c3.893-.232 7.168-8.087 4.997-15.46-1.8 6.816-.978 9.805-4.997 15.46zM194.026 259.11c-.937-2.273-2.718-3.002-3.55-5.97-1.512-5.308-4.387-6.144-3.947-10.293 6.686 7.777 8.453 12.426 7.496 16.263zM194.357 253.287c-1.678-15.04 1.305-8.642-5.215-22.82 9.712 8.688 7.027 22.232 5.215 22.82z" fill-rule="evenodd" fill="#0c5c1d"/><path d="M194.67 246.9c-.324-4.808 3.787-7.908 11.018-10.576-2.48 4.003-9.174 6.062-11.018 10.576zM196.53 235.895c-2.59-8.6-4.115-10.064-6.242-19.4 5.32 4.302 8.054 13.625 6.242 19.4zM198.775 235.548c5.837-4.238 7.21-9.05 13.928-10.804-.142 2.406-9.802 12.45-13.928 10.804z" fill-rule="evenodd" fill="#0c5c1d"/><path d="M198.38 231.565c3.726-4.637 5.783-8.423 11.304-11.774-.884 5.658-7.064 13.878-11.304 11.775zM206.874 217.024c.19-6.577 8.922-9.107 12.33-11.774-.883 5.657-7.177 11.196-12.33 11.774z" fill-rule="evenodd" fill="#0c5c1d"/><path d="M206.363 212.51c-1.16-6.007 4.49-9.315 7.42-11.96-1.08 5.597-2.625 11.323-7.42 11.96zM198.62 222.14c-2.3-3.754-.99-12.368.5-15.997 1.855 1.99 2.74 15.32-.5 15.998zM202.593 216.978c-1.918-4.933.236-9.593 2.27-12.96.897 5.566 1.362 10.864-2.27 12.96z" fill-rule="evenodd" fill="#0c5c1d"/><path d="M233.56 298.336c17.485-17.102 32.688-31.925 57.013-47.205-39.376 30.674-38.16 33.068-54.73 48.46-.685-.57-1.598-.683-2.282-1.254z" fill-rule="evenodd" fill="#6f8593"/><path d="M283.33 284.55c.173-1.084 1.596-3.193-1.596-6.044.076-1.52 1.633-3.097 2.85-3.876 1.027 0 3.99 2.07 5.303 4.39.742 1.615 1.12 4.123.17 6.042-.703 1.064-1.52 2.3-2.393 2.794-.418.303-1.35.208-2.11-.115-1.197-.607-2.11-2.355-2.223-3.19z" fill-rule="evenodd" fill="#bbcdcd"/><path d="M262.354 318.768c26.64-43.265 49.847-73.082 7.335-111.312-1.59-1.6-7.082-6.67-10.522-7.762-.48-3.097 1.868-7.987-4.13-8.392-2.55.135-3.808 1.047-3.756 3.35.005 1.788.95 2.572.463 4.172-.18.8-2.166 2.625-2.044 4.952.773 4.958 2.687 6.17 3.268 6.877 1.04 1.034 1.663 1.763 4.717 3.024.34.407 1.24 1.165 1.704 1.675 5.612 1.2 10.73.588 14.355 2.396 1.58.487 4.117 3.17 4.94 4.514 10.244 11.23 14.676 29.252-.985 48.28 3.137.256 10.646-12.598 12.36-23.515-2.398 16.282-7.71 21.968-10.34 26.834 5.26-3.504 9.495-15.845 10.48-18.38-4.17 22.464-25.772 50.202-39.362 56.025 12.3-2.852 20.554-15.11 24.93-19.503-4.26 8.79-13.028 21.23-13.414 26.77z" fill-rule="evenodd"/><path d="M280.742 299.476c-17.028-17.216-44.203-43.213-57.696-46.064 21.02 13.57 39.527 31.812 55.415 47.32.685-.572 1.598-.685 2.282-1.256z" fill-rule="evenodd" fill="#6f8593"/><path d="M227.638 226.5c.836-4.563 2.242-7.87 6.955-8.667 12.352-.533 23.793-.61 36.715-.343 3.686 2.927-.152 8.932-3.99 9.237 5.89 10.185 13.948 17.976 15.05 29.987.38 6.31-1.842 10.4-4.074 12.67-16.98.414-25.207 2.528-39.4 3.628-3.966.477-6.948-4.135-6.91-7.974.023-3.968 1.655-7.072 6.063-7.62 1.37-.15 3.274-.058 4.984-.02-3.306-9.882-16.076-21.588-15.392-30.9z" fill-rule="evenodd" fill="#e3cf6e"/><path d="M249.934 202.193c-1.465 4.706 2.217 8.747 2.798 9.453 1.04 1.034 1.72 1.877 4.774 3.14.34.405 4.71 2.897 5.336 3.488 4.65 1.218 7.118-.87 12.413.43-1.363-3.365-15.506-17.163-25.32-16.51z" fill-rule="evenodd" fill="#336446"/><path d="M250.053 204.33c-1.425 2.328 2.337 7.9 2.918 8.607 1.04 1.034 1.72 1.877 4.775 3.138.34.407 1.853 1.173 2.074 1.44l4.004.733c-1.363-3.364-9.1-15.003-13.77-13.917z" fill-rule="evenodd" fill="#402e08"/><path d="M249.69 205.962c.773 4.958 2.62 6.306 3.242 6.974 1 1.072 1.76 1.757 4.814 3.138 1.226 1.012 1.692 1.295 2.64 1.803l3.234.48c-1.362-3.363-9.428-11.028-13.93-12.395z" fill-rule="evenodd" fill="#8c361d"/><path d="M228.773 284.146c-.172-1.083-1.595-3.192 1.597-6.043-.076-1.52-1.633-3.097-2.85-3.876-1.027 0-3.99 2.07-5.303 4.39-.742 1.615-1.12 4.123-.17 6.042.703 1.063 1.52 2.298 2.393 2.793.418.303 1.35.208 2.11-.115 1.197-.608 2.11-2.356 2.223-3.192z" fill-rule="evenodd" fill="#bbcdcd"/><path d="M231.053 299.936c-1.444 1.673-7.106 4.94-8.21 6.044-.91 1.216 1.255 2.89 2.623 3.08 2.433-1.826 4.865-4.335 7.068-5.816 3.075-2.84 2.87-3.073 7.87-1.597-.723-2.66-5.778-4.75-8.666-5.358-4.866.53-7.11 2.545-8.096 5.357 3.23-2.433 5.435-3.61 7.41-1.71z" fill-rule="evenodd" fill="#d4be72"/><path d="M284.168 284.478c.09-.52.383-.8.39-1.823 1.067 1.534 1.576 2.314 2.962 4.26-.5.668-1.22.353-1.9.03-.632-.405-1.54-1.712-1.452-2.467zM228.08 284.136c-.09-.52-.382-.8-.39-1.823-1.066 1.534-1.575 2.314-2.96 4.26.5.668 1.22.353 1.898.03.633-.405 1.54-1.712 1.453-2.467z" fill-rule="evenodd" fill="#fff"/><path d="M282.228 301.076c1.444 1.673 7.106 4.94 8.21 6.044.91 1.216-1.255 2.89-2.623 3.08-2.433-1.826-4.865-4.335-7.068-5.816-2.52-3.025-3.612-2.888-7.87-1.597.723-2.66 5.778-4.75 8.666-5.358 4.866.53 7.11 2.545 8.096 5.357-3.23-2.433-5.436-3.61-7.412-1.71z" fill-rule="evenodd" fill="#d4be72"/><path d="M242.952 257.438c1.21 1.734 2.217 5.563 2.38 8.022.214 4.756-4.61 7.175-6.25 6.974-3.117-.377-5.67-2.728-5.926-6.37.496-4.245 2.283-6.598 5.24-6.772 1.936.336 4.113 2.648 4.113 5.442-.055 2.312-.713 4.623-2.14 4.676-3.465-.268-3.264-2.27-3.828-3.345-.148-.793-.272-2.94.12-3.467.518-.642 2.903-1.49 4.072.16 1.263 1.29-1.867-.684-3.104.2-.63.902-.214 2.367-.04 2.945.216.577.19 2.486 2.58 2.378.874-.132 1.183-1.92 1.25-3.667.135-1.196-1.545-3.6-3.225-4.112-1.17-.187-4.03 2.204-3.91 5.565.23 3.816 3.36 5.133 5.04 4.877 1.705-.456 5.266-1.8 5.12-5.603-.378-4.194-1.158-5.928-2.502-7.943.524 0 .485 0 1.01.04zM267.947 227.81l-.726-1.17h-15.64c-4.435.404-11.188 1.075-13.512 2.083-5.953 2.93-7.574-2.244-7.897-3.534-.345-1.184.394-3.32 1.55-4.072.457-.874 3.013-1.83 4.557-1.253 1.748.74 2.507 2.944 2.23 4.437-.526 2.217-4.722 3.587-3.23 1.33.188-.992.944-3.75-.387-5.725l-1.217.242c1.692 3.523.14 5.27.058 6.28-.078 1.692 1.37 1.544 2.49 1.5.765-.04 2.057-1.008 2.582-1.532.63-.55.727-1.618.805-2.86.198-3.283-2.808-5.618-4.837-5.323-6.168 1.532-6.316 6.678-4.92 9.352.78 1.343 1.68 2.164 3.186 2.943 1.263.377 3.173.16 4.676-.403 2.975-1.07 7.797-2.016 13.804-2.164l16.43-.134z" fill-rule="evenodd"/><g stroke-width="1pt" fill="#8c361d"><path d="M257.035 235.886l.645.943-.097.01c-.207-.212-.377-.36-.51-.448-.137-.09-.285-.155-.446-.198-.09-.023-.22-.026-.39-.008l-.27.03 1.837 2.685c.12.18.207.29.257.332.053.042.12.077.203.105.084.026.177.034.28.022l.123-.014.065.096-1.91.203-.066-.095.12-.013c.107-.01.18-.038.22-.08.03-.03.04-.075.026-.136-.008-.042-.072-.15-.192-.326l-1.837-2.686-.263.03c-.246.025-.39.093-.435.204-.06.156-.024.364.11.625l-.102.01-.645-.94 3.28-.35zM247.537 237.117l.97 1.417.072-.007c.23-.025.352-.112.36-.262.01-.15-.064-.362-.22-.635l.102-.01 1.247 1.822-.102.01c-.158-.195-.315-.353-.472-.472-.155-.12-.293-.196-.414-.23-.122-.034-.27-.042-.444-.024l.672.982c.13.19.22.308.265.35.047.04.103.072.17.094.063.022.148.028.252.017l.22-.025c.34-.036.562-.14.663-.313.103-.172.094-.417-.026-.735l.1-.01.592 1.124-3.156.337-.065-.095.12-.013c.107-.012.18-.04.22-.082.03-.03.038-.074.024-.135-.01-.043-.074-.152-.193-.327l-1.568-2.29c-.108-.158-.18-.254-.213-.29-.06-.057-.123-.1-.194-.127-.102-.042-.21-.056-.33-.043l-.12.012-.065-.095 3.055-.326.705 1.028-.102.012c-.224-.247-.42-.42-.592-.52-.168-.098-.356-.165-.563-.198-.12-.02-.32-.015-.596.015l-.377.04zM244.408 240.865l.065.095-1.91.204-.064-.095.12-.014c.106-.012.18-.04.22-.08.03-.03.037-.075.023-.136-.01-.044-.073-.152-.192-.327l-1.567-2.29c-.12-.178-.207-.29-.257-.33-.05-.043-.118-.078-.2-.104-.084-.03-.176-.037-.278-.027l-.12.013-.066-.094 1.91-.204.063.095-.12.013c-.107.01-.18.038-.22.08-.03.03-.038.075-.025.136.008.043.072.153.19.327l1.568 2.29c.122.178.21.288.258.33.053.042.12.078.203.105.082.027.175.034.277.023l.12-.013zM241.42 239.974l.7 1.237-3.243.347-.065-.095.12-.013c.107-.012.18-.04.22-.083.03-.03.038-.073.023-.134-.008-.043-.07-.152-.19-.327l-1.568-2.29c-.122-.18-.21-.29-.26-.33s-.116-.078-.198-.103c-.084-.03-.177-.037-.28-.026l-.12.012-.065-.095 1.946-.208.066.095-.16.017c-.104.01-.177.037-.218.08-.03.03-.038.074-.026.135.01.043.073.153.193.327l1.517 2.218c.123.18.21.29.267.34.052.045.12.076.2.093.054.01.168.007.34-.01l.305-.034c.194-.02.333-.07.417-.15.085-.08.127-.193.124-.344 0-.15-.053-.367-.156-.65l.11-.012zM263.69 238.74l-.065-.095.12-.013c.107-.01.177-.035.21-.072.036-.04.05-.086.038-.144-.01-.038-.074-.146-.197-.326l-1.57-2.288c-.122-.178-.208-.288-.258-.33s-.117-.077-.2-.103c-.083-.03-.176-.038-.278-.027l-.12.013-.066-.095 1.633-.172c.436-.047.825-.028 1.167.057.42.104.81.287 1.17.55.36.262.66.57.905.925.166.244.28.474.34.69.057.214.067.396.03.545-.04.147-.118.27-.234.37-.115.1-.28.185-.498.255-.095.032-.26.06-.495.086l-1.633.174zm-.86-3.43l1.862 2.715c.098.144.166.23.203.262.036.03.077.053.123.067.066.02.145.025.236.015.3-.032.46-.154.486-.366.034-.286-.14-.706-.52-1.26-.305-.447-.623-.795-.953-1.047-.26-.196-.506-.322-.74-.378-.167-.04-.4-.043-.697-.01zM261.252 237.938l-1.29.137.08.356c.027.118.066.214.117.288.065.097.156.165.27.202.068.023.2.03.4.024l.066.095-1.214.128-.065-.095c.118-.033.19-.096.218-.188.025-.095.01-.28-.05-.56l-.598-2.914.05-.005 3.272 2.713c.31.257.53.416.66.477.096.047.204.07.32.065l.066.095-1.765.19-.064-.097.072-.008c.143-.015.23-.044.26-.088.02-.03.014-.072-.022-.124-.02-.03-.047-.062-.08-.093-.015-.015-.086-.077-.213-.184l-.49-.412zm-.222-.18l-1.365-1.14.262 1.258 1.103-.118zM252.364 238.247l.668.974c.13.19.222.307.28.354.058.045.127.08.208.102.08.023.204.025.372.007l.065.095-1.867.2-.065-.096c.168-.018.272-.045.31-.08.04-.037.056-.08.047-.132-.008-.05-.076-.17-.205-.358l-1.55-2.257c-.128-.19-.22-.305-.28-.35-.056-.048-.126-.082-.207-.105s-.205-.025-.37-.007l-.066-.095 1.695-.18c.44-.047.782-.053 1.027-.016.244.036.485.126.722.27.234.142.425.318.57.528.175.257.223.48.145.667-.052.12-.17.217-.356.294l1.684 1.085c.22.14.366.226.44.26.11.044.214.064.315.06l.064.094-1.148.12-2.263-1.46-.24.027zm-1.17-1.707l1.045 1.524.152-.016c.25-.027.42-.068.515-.124.094-.057.136-.147.13-.267-.008-.122-.074-.274-.2-.458-.182-.266-.382-.454-.6-.567-.215-.113-.467-.154-.756-.124l-.287.03zM245.823 238.665c.4.04.706.108.92.202.308.134.547.325.717.574.18.262.218.49.114.685-.128.236-.45.38-.967.436l-1.854.198-.065-.094c.17-.02.272-.045.312-.08.04-.038.055-.082.046-.132-.008-.05-.077-.17-.206-.358l-1.55-2.258c-.128-.188-.22-.304-.278-.35-.06-.047-.127-.082-.208-.104-.08-.023-.205-.025-.372-.008l-.065-.094 1.75-.186c.417-.045.737-.04.96.012.222.052.432.144.63.274.197.13.35.274.46.434.113.167.153.324.115.47-.038.142-.19.27-.46.38zm-1.027.035c.255-.027.423-.075.506-.142.084-.068.125-.154.122-.26-.004-.107-.06-.237-.164-.39-.106-.155-.224-.277-.356-.368-.13-.092-.272-.158-.426-.196-.154-.04-.36-.043-.62-.014l.938 1.37zm.138.2l.765 1.116.085.13c.063.09.135.16.216.2.083.042.172.057.27.047.143-.015.254-.06.333-.132.08-.073.113-.17.1-.293-.017-.123-.073-.256-.17-.397-.112-.163-.25-.304-.418-.424-.168-.122-.34-.2-.512-.237-.173-.038-.397-.04-.67-.01z"/></g><g stroke-width="1pt" fill="#8c361d"><path d="M258.98 241.422l.917 1.417.074-.008c.233-.025.357-.112.37-.262.016-.15-.05-.36-.196-.635l.102-.01 1.182 1.822-.103.01c-.15-.195-.302-.353-.454-.472-.15-.12-.285-.196-.404-.23-.122-.034-.27-.042-.444-.023l.636.98c.124.193.208.31.252.35.046.04.1.073.166.095.064.022.15.028.253.017l.218-.023c.343-.035.568-.14.676-.312.11-.173.11-.418 0-.736l.1-.01.552 1.124-3.168.336-.062-.095.122-.013c.106-.01.18-.038.222-.08.03-.03.04-.075.03-.136-.008-.043-.07-.152-.182-.326l-1.484-2.29c-.102-.158-.17-.255-.2-.29-.058-.058-.12-.1-.19-.128-.1-.04-.21-.055-.33-.042l-.12.013-.062-.095 3.068-.326.667 1.03-.103.01c-.215-.245-.406-.418-.573-.517-.163-.1-.35-.166-.555-.2-.12-.02-.32-.015-.597.015l-.38.04zM250.035 242.158l1.717-.182.155.69-1.443.155.087.362c.637-.044 1.21.053 1.723.29.42.195.74.46.955.793.14.214.21.43.216.65.004.217-.074.393-.234.53-.162.133-.382.215-.66.245-.298.032-.563.003-.79-.086-.162-.064-.274-.143-.335-.24-.048-.073-.062-.14-.04-.204.023-.062.072-.098.15-.106.07-.008.15-.002.24.018s.26.08.51.176c.157.06.283.1.38.12.07.014.14.018.21.01.148-.016.24-.08.276-.193.04-.115.01-.243-.082-.387-.195-.302-.512-.53-.952-.684-.44-.155-.9-.207-1.382-.155-.05.004-.122.013-.218.024l-.48-1.826zM248.182 242.277l1.845 2.848c.138.214.237.35.295.408.058.056.13.1.218.13s.2.04.34.025l.083-.01.06.096-1.93.205-.06-.096.097-.01c.157-.017.258-.046.302-.088.045-.04.06-.093.044-.155-.015-.06-.094-.202-.236-.42l-1.17-1.807c-.104-.16-.177-.26-.22-.297-.042-.04-.094-.07-.157-.093-.062-.025-.122-.034-.18-.028-.09.01-.186.05-.282.118l-.108-.088.97-.728.09-.01zM255.35 245.097l-.06-.094.12-.014c.108-.012.18-.036.214-.072.037-.04.05-.087.043-.145-.007-.037-.07-.146-.186-.326L254 242.16c-.116-.18-.197-.29-.246-.33s-.114-.078-.196-.104c-.082-.028-.174-.037-.276-.026l-.122.013-.062-.094 1.64-.175c.437-.047.826-.027 1.166.057.415.104.797.287 1.146.55.35.262.642.57.87.925.16.244.264.475.315.69.05.214.053.396.01.545-.046.147-.128.27-.248.372-.12.098-.288.183-.508.254-.098.03-.264.06-.5.085l-1.64.174zm-.727-3.43l1.757 2.715c.093.144.158.23.193.262.036.03.076.053.12.067.066.02.145.026.237.017.3-.032.467-.154.5-.366.044-.285-.112-.705-.47-1.26-.29-.446-.594-.794-.916-1.046-.25-.196-.494-.322-.726-.377-.164-.04-.396-.043-.695-.01z"/></g><g stroke-width="1pt" fill="#8c361d"><path d="M274.2 245.51l.987 1.417.073-.007c.23-.025.35-.112.358-.262.008-.15-.068-.36-.228-.635l.102-.01 1.268 1.822-.102.01c-.16-.195-.318-.353-.476-.472-.157-.12-.295-.196-.417-.23-.122-.033-.27-.042-.444-.023l.683.98c.133.193.223.31.27.35.047.04.104.073.17.095.065.022.15.028.254.017l.217-.023c.34-.037.56-.14.66-.314.102-.173.09-.418-.034-.735l.1-.01.605 1.124-3.15.336-.068-.095.12-.013c.107-.01.18-.038.22-.08.03-.03.037-.075.02-.136-.008-.043-.073-.152-.194-.326L273.6 246c-.11-.158-.182-.255-.216-.29-.06-.058-.125-.1-.196-.128-.102-.04-.212-.055-.33-.042l-.12.013-.066-.095 3.052-.325.716 1.03-.102.01c-.227-.246-.426-.42-.598-.518-.17-.1-.358-.167-.565-.2-.122-.02-.32-.015-.597.015l-.377.04zM263.93 248.853l-.607-2.4 1.485-.16.066.095-.118.013c-.108.012-.182.04-.22.082-.03.03-.037.073-.025.133.01.043.075.15.195.323l1.597 2.297c.124.177.21.288.262.33.05.043.118.078.203.105.083.026.176.034.278.023l.12-.012.065.095-1.904.204-.067-.097.118-.012c.108-.01.18-.038.22-.08.03-.03.036-.074.023-.135-.008-.044-.074-.153-.195-.327l-1.795-2.58.81 3.325-.064.007-3.613-3.002 1.705 2.452c.12.17.197.276.234.315.083.082.182.147.297.194.115.044.256.057.423.04l.066.094-1.25.134-.065-.096.038-.004c.08-.006.148-.026.2-.06.05-.034.08-.076.084-.124s-.01-.114-.047-.197c-.01-.02-.068-.106-.177-.262l-1.533-2.204c-.122-.175-.208-.284-.258-.324-.05-.042-.117-.077-.2-.102-.086-.03-.18-.037-.28-.026l-.117.012-.066-.094 1.49-.16 2.62 2.187zM257.675 247.27l.985 1.417.073-.008c.23-.025.35-.113.36-.262.006-.15-.07-.362-.23-.635l.103-.01 1.268 1.822-.102.01c-.16-.195-.32-.353-.476-.472-.157-.12-.296-.196-.417-.23-.124-.034-.272-.042-.445-.023l.682.98c.133.192.223.31.27.35.047.04.103.073.17.095.064.022.15.028.253.017l.218-.024c.34-.036.56-.14.66-.312.102-.173.09-.418-.034-.736l.1-.01.605 1.124-3.153.336-.066-.095.12-.013c.108-.01.18-.04.22-.082.03-.03.037-.073.022-.134-.01-.043-.075-.152-.196-.327l-1.593-2.29c-.11-.16-.18-.255-.215-.29-.06-.058-.125-.1-.196-.13-.102-.04-.212-.053-.33-.04l-.12.012-.067-.094 3.052-.326.717 1.03-.103.01c-.226-.246-.425-.418-.596-.518-.17-.1-.358-.166-.566-.2-.122-.018-.32-.014-.597.015l-.375.04zM258.262 250.63l.066.095-1.906.204-.067-.097.122-.012c.105-.01.178-.038.217-.08.03-.03.038-.074.022-.136-.008-.043-.074-.152-.195-.326l-1.592-2.29c-.124-.18-.21-.29-.262-.332-.05-.042-.118-.076-.202-.102-.083-.028-.176-.037-.278-.026l-.12.013-.066-.094 1.906-.203.066.095-.12.013c-.107.012-.18.04-.22.082-.03.03-.037.074-.023.135.008.043.073.152.194.327l1.593 2.29c.124.178.212.29.262.33.05.043.12.08.203.106.083.026.176.034.278.023l.122-.013zM253.694 247.48l.656.943-.097.01c-.21-.21-.38-.36-.516-.446-.137-.09-.286-.155-.447-.198-.09-.025-.22-.027-.39-.01l-.27.03 1.867 2.686c.124.178.212.288.26.33.054.043.122.078.205.106.083.026.177.033.28.022l.122-.013.066.096-1.91.204-.065-.095.12-.013c.107-.01.18-.038.22-.08.028-.03.037-.075.023-.136-.01-.043-.074-.152-.195-.327l-1.868-2.687-.264.028c-.245.028-.388.096-.43.207-.06.155-.02.363.116.625l-.102.01-.656-.94 3.276-.35zM244.817 248.64l.986 1.418.072-.007c.232-.024.35-.11.36-.26.006-.15-.07-.362-.23-.636l.103-.01 1.268 1.822-.102.012c-.16-.197-.32-.355-.476-.474-.157-.12-.295-.195-.417-.23-.122-.033-.27-.04-.443-.023l.682.982c.132.192.222.308.268.35.048.04.104.072.17.095.065.022.15.027.254.016l.218-.023c.34-.036.562-.14.66-.313.102-.173.09-.418-.034-.735l.1-.01.605 1.123-3.15.336-.067-.094.12-.013c.107-.01.18-.038.22-.08.03-.03.036-.075.02-.135-.008-.044-.073-.153-.195-.327l-1.593-2.29c-.11-.157-.18-.254-.215-.29-.06-.057-.125-.1-.196-.127-.1-.04-.212-.055-.33-.042l-.12.014-.067-.095 3.053-.326.716 1.03-.102.01c-.228-.246-.427-.42-.598-.518-.17-.1-.358-.166-.566-.2-.12-.02-.32-.015-.596.015l-.377.04zM242.645 248.57l.836 1.158-.11.012c-.253-.286-.544-.506-.87-.66-.327-.156-.61-.222-.846-.197-.183.02-.295.082-.337.188-.04.105-.02.217.064.34.055.076.12.142.2.198.11.075.247.146.417.212.124.048.388.127.793.238.566.155.986.314 1.258.476.27.162.485.358.645.588.203.29.258.554.166.79-.093.234-.32.37-.687.41-.115.012-.23.012-.35 0-.116-.01-.273-.038-.47-.084-.11-.025-.193-.034-.25-.028-.045.005-.083.027-.11.067-.03.04-.035.096-.018.17l-.1.01-.914-1.314.1-.01c.336.36.685.627 1.044.798.36.17.67.24.93.214.2-.022.325-.09.37-.208.05-.117.023-.245-.073-.384-.056-.082-.135-.16-.235-.23-.098-.074-.218-.14-.36-.198-.14-.06-.37-.133-.683-.22-.44-.12-.77-.226-.992-.32-.22-.095-.42-.205-.592-.332-.17-.127-.313-.272-.426-.435-.193-.277-.25-.525-.173-.742.076-.218.278-.345.602-.38.118-.012.243-.01.373.005.1.012.227.04.387.083.16.042.264.06.313.055.046-.005.073-.023.08-.053.01-.03-.012-.1-.06-.206l.08-.01zM249.63 249.773l.672.964c.13.19.226.306.284.353.058.045.127.08.21.102.082.022.206.025.37.007l.067.094-1.852.198-.065-.095c.17-.018.273-.045.31-.08.04-.037.055-.082.045-.132-.008-.05-.078-.17-.21-.358l-1.572-2.257c-.13-.19-.225-.305-.284-.35-.058-.048-.128-.083-.21-.105s-.204-.025-.37-.008l-.067-.094 1.588-.17c.524-.055.96-.006 1.312.147.35.154.62.364.806.63.157.227.218.428.184.604-.035.176-.16.308-.38.393-.144.06-.423.112-.837.156zm-1.187-1.703l1.048 1.503c.062-.003.108-.006.14-.01.217-.023.343-.103.375-.238.03-.137-.044-.336-.225-.596-.18-.26-.37-.442-.572-.55-.202-.107-.42-.147-.655-.122l-.11.012zM268.44 247.473c.398.04.706.107.922.202.31.134.55.325.723.573.182.262.222.49.12.685-.125.236-.446.38-.96.436l-1.852.196-.067-.095c.168-.017.272-.044.31-.078.04-.038.055-.082.045-.132-.007-.05-.077-.17-.208-.358l-1.573-2.258c-.133-.188-.227-.305-.286-.35-.058-.047-.127-.082-.208-.104-.08-.023-.205-.026-.37-.008l-.067-.095 1.745-.186c.417-.043.738-.04.96.014.224.052.435.143.633.274.2.13.353.274.464.434.117.167.158.324.122.47-.037.142-.188.27-.455.38zm-1.027.035c.254-.027.422-.075.504-.142.084-.068.123-.155.118-.26-.005-.107-.06-.237-.167-.39-.107-.155-.228-.277-.36-.368-.132-.092-.275-.158-.428-.196-.154-.04-.36-.043-.622-.014l.955 1.37zm.14.2l.777 1.116.086.13c.065.09.138.16.22.2.082.042.17.057.268.047.143-.015.254-.058.333-.13.078-.075.11-.174.095-.295-.017-.123-.074-.256-.173-.398-.115-.162-.255-.303-.424-.423-.17-.122-.34-.2-.514-.237-.174-.037-.397-.04-.67-.01zM271.302 247.447l.68.975c.13.188.225.305.283.352.06.045.128.08.21.102.08.023.204.025.37.007l.068.095-1.865.2-.067-.096c.17-.018.273-.045.313-.08.04-.037.053-.08.044-.132-.01-.05-.08-.17-.21-.358l-1.573-2.257c-.13-.188-.226-.305-.284-.35-.058-.047-.128-.082-.208-.104-.08-.022-.206-.025-.372-.007l-.066-.095 1.692-.18c.442-.047.784-.053 1.03-.016s.485.126.723.27c.237.142.43.318.575.528.18.257.23.48.154.667-.05.12-.17.217-.354.294l1.697 1.086c.22.14.368.226.442.258.11.045.216.065.316.06l.067.095-1.146.12-2.278-1.46-.24.027zm-1.19-1.707l1.064 1.525.153-.017c.248-.026.42-.068.513-.124.092-.057.134-.146.125-.267-.007-.122-.075-.274-.203-.457-.185-.265-.387-.454-.606-.567-.217-.113-.47-.154-.76-.123l-.287.03z"/></g><g stroke-width="1pt" fill="#8c361d"><path d="M268.527 251.436l1.34 2.848c.102.214.177.35.225.407.048.058.113.1.194.132.083.03.194.04.336.025l.085-.01.045.096-1.966.205-.045-.096.1-.01c.16-.017.265-.046.318-.087.05-.04.075-.093.07-.155-.003-.063-.058-.204-.16-.423l-.85-1.805c-.077-.16-.133-.26-.167-.298-.036-.04-.083-.07-.14-.093-.06-.024-.118-.032-.176-.026-.094.01-.195.048-.303.117l-.092-.086 1.098-.728.09-.01zM267.878 255.23l-2.197.228-.026-.057c.32-.817.493-1.363.514-1.637.023-.273-.023-.533-.14-.78-.084-.18-.214-.322-.39-.428-.175-.107-.35-.152-.52-.134-.284.03-.44.185-.473.465l-.118-.023c-.056-.34-.02-.597.108-.776.128-.18.324-.28.59-.31.188-.02.38.004.574.07.194.066.37.166.525.3.155.134.263.263.32.388.11.228.15.466.124.714-.037.336-.234.82-.59 1.452l.806-.084c.198-.02.322-.042.374-.064.053-.02.09-.052.113-.092.02-.042.034-.125.04-.25l.1-.01.265 1.028zM260.067 252.318l1.34 2.848c.103.214.177.35.225.407.048.057.113.1.195.13.082.032.193.04.335.026l.085-.01.045.095-1.966.205-.045-.096.1-.01c.16-.017.265-.046.318-.087.05-.04.075-.093.07-.155-.004-.063-.058-.204-.16-.422l-.85-1.806c-.077-.16-.132-.26-.168-.298-.035-.04-.083-.07-.14-.093-.06-.025-.118-.033-.176-.027-.094.01-.195.048-.304.117l-.092-.087 1.098-.728.09-.01zM254.72 253.16l.667 1.418.075-.008c.237-.025.375-.112.416-.262.042-.15.013-.36-.085-.635l.105-.01.86 1.823-.106.01c-.116-.196-.24-.353-.37-.473s-.25-.196-.365-.228c-.115-.035-.26-.044-.44-.025l.463.98c.09.193.154.31.19.35.04.04.09.073.15.096.06.022.143.027.25.016l.223-.023c.35-.038.592-.14.73-.314.14-.173.185-.418.13-.735l.103-.01.353 1.124-3.228.336-.045-.095.124-.013c.11-.01.188-.038.237-.08.036-.03.054-.075.052-.135 0-.044-.04-.153-.123-.327l-1.08-2.29c-.073-.158-.123-.255-.15-.29-.046-.058-.102-.1-.167-.128-.092-.04-.2-.055-.32-.042l-.124.013-.045-.095 3.127-.325.485 1.03-.105.01c-.17-.246-.332-.418-.48-.518-.148-.1-.322-.166-.522-.2-.117-.02-.317-.014-.6.015l-.386.04zM250.527 256.824l-.044-.095.123-.014c.11-.01.184-.035.226-.07.044-.04.067-.088.068-.146 0-.037-.043-.146-.128-.325l-1.078-2.29c-.084-.177-.146-.287-.187-.33-.04-.04-.1-.076-.178-.102-.078-.028-.17-.036-.273-.026l-.124.013-.045-.094 1.67-.174c.446-.047.832-.028 1.156.057.398.103.747.286 1.05.55.304.26.54.57.707.924.116.244.18.474.193.69.013.214-.016.396-.086.545-.07.146-.176.27-.313.37-.136.1-.32.184-.553.255-.1.032-.272.06-.512.085l-1.67.174zm-.123-3.43l1.278 2.715c.068.143.117.23.147.262.03.03.065.052.108.066.062.02.14.026.234.016.306-.032.494-.153.563-.366.096-.286.014-.706-.248-1.26-.21-.447-.453-.795-.73-1.047-.217-.195-.437-.32-.66-.377-.157-.04-.387-.04-.693-.008zM263.5 253.41c.347.152.608.3.782.446.175.143.31.315.404.515.132.282.13.53-.005.75-.134.216-.395.345-.784.385-.37.04-.694-.016-.976-.164-.28-.148-.48-.344-.594-.588-.088-.187-.107-.356-.058-.508.05-.153.185-.3.402-.446-.395-.18-.665-.332-.813-.457-.146-.124-.26-.274-.342-.45-.11-.233-.1-.448.027-.646.13-.2.378-.32.747-.358.355-.037.665.013.93.15.266.136.45.314.553.533.078.163.094.314.05.45-.045.136-.152.266-.322.39zm-.27-.11c.027-.092.032-.193.016-.302-.018-.11-.056-.228-.116-.354-.104-.223-.236-.388-.394-.495-.12-.083-.248-.118-.383-.104-.123.013-.208.066-.255.16-.047.09-.042.197.016.32.06.125.167.25.327.375.16.124.424.258.79.4zm-.296.6c-.034.053-.054.1-.06.143-.008.064 0 .154.025.272.024.117.065.24.124.363.076.16.162.294.258.4.094.102.193.174.297.213.104.04.2.055.285.047.134-.014.226-.072.275-.172.048-.102.034-.232-.04-.39-.157-.333-.545-.624-1.166-.876z"/></g></svg>