<svg xmlns="http://www.w3.org/2000/svg" height="512" width="512" version="1"><defs><clipPath id="a"><path fill-opacity=".67" d="M164.85 0h744.09v744.09H164.85z"/></clipPath></defs><g clip-path="url(#a)" transform="matrix(.688 0 0 .688 -113.43 0)"><path fill-rule="evenodd" fill="#ba0000" d="M1063 744.094H0V.004h1063z"/><path d="M516.372 360.137s-75.02-32.3-64.255-116c10.42-40.29 28.828-67.727 62.17-82.66 15.63-4.864 31.607-6.948 47.93-8.337-4.284 4.052-7.872 8.104-9.724 13.198-3.59 9.146-.927 17.945 3.82 26.743 6.02 10.19 9.606 20.724 10.765 34.385 2.2 19.218-6.02 37.743-21.186 48.973-9.61 7.41-20.954 9.956-30.217 18.407-7.177 7.063-11.576 14.126-13.197 26.396-.232 23.387 6.137 26.63 13.894 38.9z" fill-rule="evenodd" fill="#fff"/><path d="M502.132 239.037v-.347" fill-rule="evenodd" stroke="#000" stroke-width="3.127" fill="#ba0000"/><path d="M506.872 351.447c-29.18-25.82-26.63-90.76-4.4-112.41" stroke="#ba0000" stroke-width="3.127" fill="none"/><path fill-rule="evenodd" fill="#ba0000" d="M502.048 222.895l9.635-2.186 1.15-9.37 4.788 8.015 9.632-2.202-6.676 7.14 4.803 8.01-8.915-3.602-6.664 7.152 1.168-9.367"/><path d="M522.776 354.534s8.9-81.183 92.07-95.416c41.57-1.842 73.193 7.716 97.24 35.215 9.228 13.517 15.9 28.18 22.012 43.38-5.13-2.91-10.054-5.152-15.467-5.43-9.794-.752-17.426 4.37-24.446 11.486-7.976 8.74-16.996 15.256-29.717 20.366-17.728 7.733-37.846 5.304-53.025-5.904-9.9-7.017-15.658-17.115-26.45-23.495-8.856-4.79-16.897-6.927-29.102-4.882-22.425 6.63-23.66 13.67-33.118 24.68z" fill-rule="evenodd" fill="#fff"/><path d="M634.375 305.438l.332-.1" fill-rule="evenodd" stroke="#000" stroke-width="3.127" fill="#ba0000"/><path d="M528.3 342.906c16.134-35.46 78.964-52.05 106.175-37.142" stroke="#ba0000" stroke-width="3.127" fill="none"/><path fill-rule="evenodd" fill="#ba0000" d="M649.38 300.785l4.878 8.575 9.322-1.67-6.31 6.953 4.894 8.567-8.78-4.277-6.3 6.965.884-9.597-8.785-4.262 9.326-1.654"/><g><path d="M527.933 360.56s79.865-17.368 119.815 57.03c14.966 38.86 15.95 71.906-2.497 103.468-9.89 13.054-21.684 24.05-34.163 34.68 1.13-5.79 1.69-11.178.234-16.402-2.4-9.534-9.688-15.147-18.672-19.546-10.83-4.79-19.88-11.278-28.775-21.723-12.975-14.364-17.066-34.227-11.257-52.194 3.51-11.624 11.262-20.3 13.884-32.57 1.73-9.926 1.202-18.236-4.62-29.167-13.422-19.17-20.494-18.104-33.95-23.578z" fill-rule="evenodd" fill="#fff"/><path d="M610.004 450.85l.202.28" fill-rule="evenodd" stroke="#000" stroke-width="3.1301269999999994" fill="#ba0000"/><path d="M540.723 362.106c38.78 4.034 74.5 58.38 69.005 88.94" stroke="#ba0000" stroke-width="3.1301269999999994" fill="none"/><path fill-rule="evenodd" fill="#ba0000" d="M619.336 463.864l-6.594 7.36 4.506 8.267-8.566-3.725-6.582 7.37 1.3-9.664-8.574-3.71 9.37-2.248 1.283-9.664 4.49 8.276"/></g><g><path d="M526.51 368.278s39.078 71.783-21.12 131c-33.1 25.27-64.543 35.487-100.013 26.634-15.305-5.83-29.168-14.066-42.872-23.06 5.875-.54 11.203-1.513 15.81-4.377 8.476-4.98 11.818-13.55 13.52-23.407 1.56-11.74 5.247-22.246 12.777-33.714 10.146-16.483 28.063-25.983 46.94-25.45 12.14.11 22.642 5.115 35.155 4.19 10.013-1.124 17.84-3.964 26.7-12.62 14.634-18.26 11.626-24.75 13.104-39.2z" fill-rule="evenodd" fill="#fff"/><path d="M462.876 472.384l-.214.273" fill-rule="evenodd" stroke="#000" stroke-width="3.1301269999999994" fill="#ba0000"/><path d="M528.615 380.988c7.008 38.353-35.132 87.885-66.007 91.185" stroke="#ba0000" stroke-width="3.1301269999999994" fill="none"/><path fill-rule="evenodd" fill="#ba0000" d="M453.22 485.053l-8.92-4.258-6.725 6.64 1.225-9.26-8.928-4.244 9.678-1.465 1.21-9.263 4.756 8.354 9.675-1.48-6.738 6.628"/></g><g><path d="M517.652 367.14s-54.67 60.675-130.478 23.613c-34.81-22.802-54.884-49.04-58.324-85.41.412-16.36 3.567-32.16 7.492-48.065 2.462 5.358 5.147 10.057 9.377 13.446 7.508 6.335 16.695 6.638 26.55 4.968 11.58-2.43 22.71-2.446 36.018.84 18.905 4.088 33.81 17.818 39.577 35.785 3.93 11.48 2.702 23.04 7.73 34.524 4.386 9.065 9.663 15.498 20.762 20.972 22.072 7.726 27.188 2.736 41.298-.67z" fill-rule="evenodd" fill="#fff"/><path d="M398.4 341.752l-.33-.11" fill-rule="evenodd" stroke="#000" stroke-width="3.127" fill="#ba0000"/><path d="M506.373 373.347c-33.82 19.345-94.498-3.916-107.865-31.917" stroke="#ba0000" stroke-width="3.127" fill="none"/><path fill-rule="evenodd" fill="#ba0000" d="M383.01 337.03l1-9.774-8.52-4.09 9.13-1.935.986-9.774 4.645 8.578 9.13-1.95-6.26 7.236 4.656 8.57-8.515-4.106"/></g></g></svg>