<svg xmlns="http://www.w3.org/2000/svg" height="512" width="512"><defs><clipPath id="a"><path fill-opacity=".67" d="M0 0h512v512H0z"/></clipPath></defs><g clip-path="url(#a)"><g fill-rule="evenodd"><path fill="#fff" d="M0 0h1023.977v511.984H0z"/><path d="M1023.878 445.378c-11.473 6.905-21.33 23.045-51.807 23.045-60.94 0-76.178-33.98-121.89-33.98-30.47 0-45.705 33.98-76.177 33.98-60.945 0-76.18-33.98-121.89-33.98-30.472 0-45.71 33.98-76.18 33.98-60.945 0-76.182-33.98-121.89-33.98-30.473 0-45.71 33.98-76.18 33.98-60.946 0-76.183-33.98-121.89-33.98-30.475 0-45.71 33.98-76.182 33.98-60.944 0-76.18-33.98-121.89-33.98-30.472 0-39.613 24.214-57.896 24.214v43.747c18.283 0 27.426-24.214 57.897-24.214 45.71 0 60.947 33.98 121.89 33.98 30.473 0 45.708-33.98 76.182-33.98 45.707 0 60.945 33.98 121.89 33.98 30.472 0 45.708-33.98 76.18-33.98 45.71 0 60.946 33.98 121.89 33.98 30.472 0 45.71-33.98 76.182-33.98 45.708 0 60.944 33.98 121.89 33.98 30.47 0 45.707-33.98 76.177-33.98 45.71 0 60.95 33.98 121.89 33.98 30.48 0 40.335-9.63 51.808-16.535v-50.257zM1023.878 360.466c-11.473 6.905-21.33 23.045-51.807 23.045-60.94 0-76.178-33.98-121.89-33.98-30.47 0-45.705 33.98-76.177 33.98-60.945 0-76.18-33.98-121.89-33.98-30.472 0-45.71 33.98-76.18 33.98-60.945 0-76.182-33.98-121.89-33.98-30.473 0-45.71 33.98-76.18 33.98-60.946 0-76.183-33.98-121.89-33.98-30.475 0-45.71 33.98-76.182 33.98-60.944 0-76.18-33.98-121.89-33.98-30.472 0-39.613 24.215-57.896 24.215v43.747c18.283 0 27.426-24.214 57.897-24.214 45.71 0 60.947 33.98 121.89 33.98 30.473 0 45.708-33.98 76.182-33.98 45.707 0 60.945 33.98 121.89 33.98 30.472 0 45.708-33.98 76.18-33.98 45.71 0 60.946 33.98 121.89 33.98 30.472 0 45.71-33.98 76.182-33.98 45.708 0 60.944 33.98 121.89 33.98 30.47 0 45.707-33.98 76.177-33.98 45.71 0 60.95 33.98 121.89 33.98 30.48 0 40.335-9.63 51.808-16.535v-50.257zM1023.878 275.556c-11.473 6.905-21.33 23.045-51.807 23.045-60.94 0-76.178-33.98-121.89-33.98-30.47 0-45.705 33.98-76.177 33.98-60.945 0-76.18-33.98-121.89-33.98-30.472 0-45.71 33.98-76.18 33.98-60.945 0-76.182-33.98-121.89-33.98-30.473 0-45.71 33.98-76.18 33.98-60.946 0-76.183-33.98-121.89-33.98-30.475 0-45.71 33.98-76.182 33.98-60.944 0-76.18-33.98-121.89-33.98-30.472 0-39.613 24.215-57.896 24.215v43.747c18.283 0 27.426-24.214 57.897-24.214 45.71 0 60.947 33.98 121.89 33.98 30.473 0 45.708-33.98 76.182-33.98 45.707 0 60.945 33.98 121.89 33.98 30.472 0 45.708-33.98 76.18-33.98 45.71 0 60.946 33.98 121.89 33.98 30.472 0 45.71-33.98 76.182-33.98 45.708 0 60.944 33.98 121.89 33.98 30.47 0 45.707-33.98 76.177-33.98 45.71 0 60.95 33.98 121.89 33.98 30.48 0 40.335-9.63 51.808-16.535v-50.257zM1023.878 190.646c-11.473 6.905-21.33 23.045-51.807 23.045-60.94 0-76.178-33.98-121.89-33.98-30.47 0-45.705 33.98-76.177 33.98-60.945 0-76.18-33.98-121.89-33.98-30.472 0-45.71 33.98-76.18 33.98-60.945 0-76.182-33.98-121.89-33.98-30.473 0-45.71 33.98-76.18 33.98-60.946 0-76.183-33.98-121.89-33.98-30.475 0-45.71 33.98-76.182 33.98-60.944 0-76.18-33.98-121.89-33.98-30.472 0-39.613 24.215-57.896 24.215v43.747c18.283 0 27.426-24.214 57.897-24.214 45.71 0 60.947 33.98 121.89 33.98 30.473 0 45.708-33.98 76.182-33.98 45.707 0 60.945 33.98 121.89 33.98 30.472 0 45.708-33.98 76.18-33.98 45.71 0 60.946 33.98 121.89 33.98 30.472 0 45.71-33.98 76.182-33.98 45.708 0 60.944 33.98 121.89 33.98 30.47 0 45.707-33.98 76.177-33.98 45.71 0 60.95 33.98 121.89 33.98 30.48 0 40.335-9.63 51.808-16.535v-50.257zM1023.878 105.735c-11.473 6.905-21.33 23.045-51.807 23.045-60.94 0-76.178-33.98-121.89-33.98-30.47 0-45.705 33.98-76.177 33.98-60.945 0-76.18-33.98-121.89-33.98-30.472 0-45.71 33.98-76.18 33.98-60.945 0-76.182-33.98-121.89-33.98-30.473 0-45.71 33.98-76.18 33.98-60.946 0-76.183-33.98-121.89-33.98-30.475 0-45.71 33.98-76.182 33.98-60.944 0-76.18-33.98-121.89-33.98-30.472 0-39.613 24.214-57.896 24.214v43.747c18.283 0 27.426-24.213 57.897-24.213 45.71 0 60.947 33.98 121.89 33.98 30.473 0 45.708-33.98 76.182-33.98 45.707 0 60.945 33.98 121.89 33.98 30.472 0 45.708-33.98 76.18-33.98 45.71 0 60.946 33.98 121.89 33.98 30.472 0 45.71-33.98 76.182-33.98 45.708 0 60.944 33.98 121.89 33.98 30.47 0 45.707-33.98 76.177-33.98 45.71 0 60.95 33.98 121.89 33.98 30.48 0 40.335-9.63 51.808-16.535v-50.257zM1023.878 20.824c-11.473 6.905-21.33 23.045-51.807 23.045-60.94 0-76.178-33.98-121.89-33.98-30.47 0-45.705 33.98-76.177 33.98-60.945 0-76.18-33.98-121.89-33.98-30.472 0-45.71 33.98-76.18 33.98-60.945 0-76.182-33.98-121.89-33.98-30.473 0-45.71 33.98-76.18 33.98-60.946 0-76.183-33.98-121.89-33.98-30.475 0-45.71 33.98-76.182 33.98-60.944 0-76.18-33.98-121.89-33.98C27.43 9.89 18.288 34.102.005 34.102V77.85c18.283 0 27.426-24.214 57.897-24.214 45.71 0 60.947 33.98 121.89 33.98 30.473 0 45.708-33.98 76.182-33.98 45.707 0 60.945 33.98 121.89 33.98 30.472 0 45.708-33.98 76.18-33.98 45.71 0 60.946 33.98 121.89 33.98 30.472 0 45.71-33.98 76.182-33.98 45.708 0 60.944 33.98 121.89 33.98 30.47 0 45.707-33.98 76.177-33.98 45.71 0 60.95 33.98 121.89 33.98 30.48 0 40.335-9.63 51.808-16.535V20.825z" fill="#000063"/></g><g stroke-width="1pt"><path fill-rule="evenodd" fill="#000063" d="M0 .063h261.314v157.903H0z"/><path fill="#fff" d="M0 .063v17.653l232.087 140.238H261.3V140.3L29.213.065H0zm261.3 0v17.652L29.213 157.953H0V140.3L232.087.064H261.3z"/><path fill="#fff" d="M108.875.063v157.89h43.55V.063h-43.55zM0 52.693v52.63h261.3v-52.63H0z"/><path fill="#c00" d="M0 63.22v31.577h261.3V63.22H0zM117.585.062v157.89h26.13V.063h-26.13zM0 157.953l87.1-52.63h19.476l-87.1 52.63H0zM0 .063l87.1 52.63H67.624L0 11.833V.062zm154.724 52.63l87.1-52.63H261.3l-87.1 52.63h-19.476zM261.3 157.953l-87.1-52.63h19.476l67.624 40.862v11.768z"/></g><path d="M814.96-301.18l-17.72 708.66c0 37.298 80.097 37.298 88.583 0l-17.717-708.66h-53.15z" fill-rule="evenodd" transform="matrix(.206 0 0 .49 211.575 267.409)" stroke="#fff" stroke-width="6.935" fill="#a24300"/><path d="M496.06 549.21v496.07" transform="matrix(-.236 .068 -.103 -.195 590.573 322.605)" stroke="#000" stroke-width="1pt" fill="none"/><path d="M496.06 549.21v496.07" transform="matrix(.177 -.181 .221 .147 73.588 93.41)" stroke="#000" stroke-width="1pt" fill="none"/><path d="M496.06 549.21v496.07" transform="matrix(.114 .215 -.249 .107 581.352 -57.74)" stroke="#000" stroke-width="1pt" fill="none"/><path d="M496.06 549.21v496.07" transform="matrix(-.157 .194 -.236 -.128 705.353 197.626)" stroke="#000" stroke-width="1pt" fill="none"/><path d="M496.06 549.21v496.07" transform="matrix(-.156 -.166 .177 -.151 275.344 396.005)" stroke="#000" stroke-width="1pt" fill="none"/><path d="M467.21 584.65l28.855 124.02v336.62" transform="matrix(-.271 -.064 -.157 .204 683.534 -32.198)" stroke="#000" stroke-width="1pt" fill="none"/><path d="M467.21 584.65l28.855 124.02v336.62" transform="matrix(.27 .067 .01 .245 240.484 -138.421)" stroke="#000" stroke-width="1pt" fill="none"/><path d="M354.33 531.5l88.583 88.583 17.716-53.15v88.583l35.432-35.433-17.716 88.583 35.432-35.434-17.716 88.584 35.433-35.433-17.716 106.3 35.432-35.433-35.433 106.3 35.432-35.433-17.717 106.3-17.716 53.15-17.718 17.72-17.717-17.72-17.716-53.15-53.15-82.294 35.433 11.43-35.433-106.3 35.433 35.432-53.15-106.3 35.433 35.433-53.15-88.584 53.15 35.434-70.866-88.583 53.15 35.433-70.867-70.866 70.866 35.433-53.15-88.583z" fill-rule="evenodd" transform="matrix(.034 -.235 .244 .042 115.027 229.279)" stroke="#fff" stroke-width="8.25" fill="#006d00"/><g fill-rule="evenodd"><path d="M541.46 1173.3l-1.7-229.13-61.1-106.94c-15.277-52.618-7.754-78.08 16.973-79.776 24.728-1.698 49.224 13.58 84.868 15.276 35.646 1.697 28.857-59.408 81.475-57.71 52.618 1.697 144.28 32.25 222.36 37.342 78.078 5.092 118.81-27.158 208.77-30.553 89.97-3.396 113.73 42.434 118.82 42.434s30.55-18.672 56.01-22.066c25.46-3.395 33.95 10.184 33.95 10.184s-1.7 57.71-13.58 91.657c-11.88 33.947-54.32 89.96-56.01 89.96-1.7 0-15.28 249.52-15.28 251.21 0 1.7-675.55-6.79-675.55-11.88z" stroke="#000" stroke-width="1pt" fill="#c00" transform="matrix(.137 0 0 .126 266.36 208.19)"/><g stroke="#000" stroke-width="1pt"><path d="M531.5 584.65s-67.982-52.097-69.813-177.17c-1.053-71.93 34.38-124.02 122.96-124.02 124.02 0 301.18 53.15 301.18 53.15v17.716s-141.73-53.15-301.18-53.15c-70.866 0-106.3 52.087-106.3 105.24 0 88.583 70.867 178.23 70.867 178.23v141.73h-17.717v-141.73z" fill="#fff100" transform="matrix(-.137 0 0 .126 509.083 252.836)"/><path d="M478.35 549.21c0 9.785-7.932 17.717-17.717 17.717-9.785 0-17.717-7.932-17.717-17.717 0-9.785 7.932-17.717 17.717-17.717 9.785 0 17.717 7.932 17.717 17.717z" transform="matrix(-.137 0 0 .126 506.888 252.622)" fill="#fff"/><path d="M478.35 549.21c0 9.785-7.932 17.717-17.717 17.717-9.785 0-17.717-7.932-17.717-17.717 0-9.785 7.932-17.717 17.717-17.717 9.785 0 17.717 7.932 17.717 17.717z" transform="matrix(-.137 0 0 .126 509.315 247.516)" fill="#fff"/><path d="M478.35 549.21c0 9.785-7.932 17.717-17.717 17.717-9.785 0-17.717-7.932-17.717-17.717 0-9.785 7.932-17.717 17.717-17.717 9.785 0 17.717 7.932 17.717 17.717z" transform="matrix(-.137 0 0 .126 510.58 242.316)" fill="#fff"/><path d="M478.35 549.21c0 9.785-7.932 17.717-17.717 17.717-9.785 0-17.717-7.932-17.717-17.717 0-9.785 7.932-17.717 17.717-17.717 9.785 0 17.717 7.932 17.717 17.717z" transform="matrix(-.137 0 0 .126 511.51 236.756)" fill="#fff"/><path d="M478.35 549.21c0 9.785-7.932 17.717-17.717 17.717-9.785 0-17.717-7.932-17.717-17.717 0-9.785 7.932-17.717 17.717-17.717 9.785 0 17.717 7.932 17.717 17.717z" transform="matrix(-.137 0 0 .126 511.278 230.727)" fill="#fff"/><path d="M478.35 549.21c0 9.785-7.932 17.717-17.717 17.717-9.785 0-17.717-7.932-17.717-17.717 0-9.785 7.932-17.717 17.717-17.717 9.785 0 17.717 7.932 17.717 17.717z" transform="matrix(-.137 0 0 .126 503.4 257.113)" fill="#fff"/><path d="M478.35 549.21c0 9.785-7.932 17.717-17.717 17.717-9.785 0-17.717-7.932-17.717-17.717 0-9.785 7.932-17.717 17.717-17.717 9.785 0 17.717 7.932 17.717 17.717z" transform="matrix(-.137 0 0 .126 509.214 225.033)" fill="#fff"/><path d="M478.35 549.21c0 9.785-7.932 17.717-17.717 17.717-9.785 0-17.717-7.932-17.717-17.717 0-9.785 7.932-17.717 17.717-17.717 9.785 0 17.717 7.932 17.717 17.717z" transform="matrix(-.137 0 0 .126 504.796 220.542)" fill="#fff"/><path d="M478.35 549.21c0 9.785-7.932 17.717-17.717 17.717-9.785 0-17.717-7.932-17.717-17.717 0-9.785 7.932-17.717 17.717-17.717 9.785 0 17.717 7.932 17.717 17.717z" transform="matrix(-.137 0 0 .126 498.75 217.548)" fill="#fff"/><path d="M478.35 549.21c0 9.785-7.932 17.717-17.717 17.717-9.785 0-17.717-7.932-17.717-17.717 0-9.785 7.932-17.717 17.717-17.717 9.785 0 17.717 7.932 17.717 17.717z" transform="matrix(-.137 0 0 .126 492.703 217.12)" fill="#fff"/><path d="M478.35 549.21c0 9.785-7.932 17.717-17.717 17.717-9.785 0-17.717-7.932-17.717-17.717 0-9.785 7.932-17.717 17.717-17.717 9.785 0 17.717 7.932 17.717 17.717z" transform="matrix(-.137 0 0 .126 486.193 217.334)" fill="#fff"/><path d="M478.35 549.21c0 9.785-7.932 17.717-17.717 17.717-9.785 0-17.717-7.932-17.717-17.717 0-9.785 7.932-17.717 17.717-17.717 9.785 0 17.717 7.932 17.717 17.717z" transform="matrix(-.137 0 0 .126 479.681 218.19)" fill="#fff"/><path d="M478.35 549.21c0 9.785-7.932 17.717-17.717 17.717-9.785 0-17.717-7.932-17.717-17.717 0-9.785 7.932-17.717 17.717-17.717 9.785 0 17.717 7.932 17.717 17.717z" transform="matrix(-.137 0 0 .126 473.17 219.045)" fill="#fff"/><path d="M478.35 549.21c0 9.785-7.932 17.717-17.717 17.717-9.785 0-17.717-7.932-17.717-17.717 0-9.785 7.932-17.717 17.717-17.717 9.785 0 17.717 7.932 17.717 17.717z" transform="matrix(-.137 0 0 .126 466.194 220.114)" fill="#fff"/><path d="M478.35 549.21c0 9.785-7.932 17.717-17.717 17.717-9.785 0-17.717-7.932-17.717-17.717 0-9.785 7.932-17.717 17.717-17.717 9.785 0 17.717 7.932 17.717 17.717z" transform="matrix(-.137 0 0 .126 460.148 221.612)" fill="#fff"/></g><path d="M478.35 549.21c0 9.785-7.932 17.717-17.717 17.717-9.785 0-17.717-7.932-17.717-17.717 0-9.785 7.932-17.717 17.717-17.717 9.785 0 17.717 7.932 17.717 17.717z" transform="matrix(.137 0 0 .126 268.555 252.621)" stroke="#000" stroke-width="1pt" fill="#fff"/><path d="M478.35 549.21c0 9.785-7.932 17.717-17.717 17.717-9.785 0-17.717-7.932-17.717-17.717 0-9.785 7.932-17.717 17.717-17.717 9.785 0 17.717 7.932 17.717 17.717z" transform="matrix(.137 0 0 .126 266.127 247.516)" stroke="#000" stroke-width="1pt" fill="#fff"/><path d="M478.35 549.21c0 9.785-7.932 17.717-17.717 17.717-9.785 0-17.717-7.932-17.717-17.717 0-9.785 7.932-17.717 17.717-17.717 9.785 0 17.717 7.932 17.717 17.717z" transform="matrix(.137 0 0 .126 264.863 242.316)" stroke="#000" stroke-width="1pt" fill="#fff"/><path d="M478.35 549.21c0 9.785-7.932 17.717-17.717 17.717-9.785 0-17.717-7.932-17.717-17.717 0-9.785 7.932-17.717 17.717-17.717 9.785 0 17.717 7.932 17.717 17.717z" transform="matrix(.137 0 0 .126 263.933 236.755)" stroke="#000" stroke-width="1pt" fill="#fff"/><path d="M478.35 549.21c0 9.785-7.932 17.717-17.717 17.717-9.785 0-17.717-7.932-17.717-17.717 0-9.785 7.932-17.717 17.717-17.717 9.785 0 17.717 7.932 17.717 17.717z" transform="matrix(.137 0 0 .126 264.165 230.726)" stroke="#000" stroke-width="1pt" fill="#fff"/><path d="M478.35 549.21c0 9.785-7.932 17.717-17.717 17.717-9.785 0-17.717-7.932-17.717-17.717 0-9.785 7.932-17.717 17.717-17.717 9.785 0 17.717 7.932 17.717 17.717z" transform="matrix(.137 0 0 .126 266.229 225.032)" stroke="#000" stroke-width="1pt" fill="#fff"/><path d="M478.35 549.21c0 9.785-7.932 17.717-17.717 17.717-9.785 0-17.717-7.932-17.717-17.717 0-9.785 7.932-17.717 17.717-17.717 9.785 0 17.717 7.932 17.717 17.717z" transform="matrix(.137 0 0 .126 270.647 220.542)" stroke="#000" stroke-width="1pt" fill="#fff"/><path d="M478.35 549.21c0 9.785-7.932 17.717-17.717 17.717-9.785 0-17.717-7.932-17.717-17.717 0-9.785 7.932-17.717 17.717-17.717 9.785 0 17.717 7.932 17.717 17.717z" transform="matrix(.137 0 0 .126 276.693 217.548)" stroke="#000" stroke-width="1pt" fill="#fff"/><path d="M478.35 549.21c0 9.785-7.932 17.717-17.717 17.717-9.785 0-17.717-7.932-17.717-17.717 0-9.785 7.932-17.717 17.717-17.717 9.785 0 17.717 7.932 17.717 17.717z" transform="matrix(.137 0 0 .126 282.74 217.12)" stroke="#000" stroke-width="1pt" fill="#fff"/><path d="M478.35 549.21c0 9.785-7.932 17.717-17.717 17.717-9.785 0-17.717-7.932-17.717-17.717 0-9.785 7.932-17.717 17.717-17.717 9.785 0 17.717 7.932 17.717 17.717z" transform="matrix(.137 0 0 .126 289.25 217.334)" stroke="#000" stroke-width="1pt" fill="#fff"/><path d="M478.35 549.21c0 9.785-7.932 17.717-17.717 17.717-9.785 0-17.717-7.932-17.717-17.717 0-9.785 7.932-17.717 17.717-17.717 9.785 0 17.717 7.932 17.717 17.717z" transform="matrix(.137 0 0 .126 295.762 218.189)" stroke="#000" stroke-width="1pt" fill="#fff"/><path d="M478.35 549.21c0 9.785-7.932 17.717-17.717 17.717-9.785 0-17.717-7.932-17.717-17.717 0-9.785 7.932-17.717 17.717-17.717 9.785 0 17.717 7.932 17.717 17.717z" transform="matrix(.137 0 0 .126 302.273 219.045)" stroke="#000" stroke-width="1pt" fill="#fff"/><path d="M478.35 549.21c0 9.785-7.932 17.717-17.717 17.717-9.785 0-17.717-7.932-17.717-17.717 0-9.785 7.932-17.717 17.717-17.717 9.785 0 17.717 7.932 17.717 17.717z" transform="matrix(.137 0 0 .126 309.249 220.114)" stroke="#000" stroke-width="1pt" fill="#fff"/><path d="M478.35 549.21c0 9.785-7.932 17.717-17.717 17.717-9.785 0-17.717-7.932-17.717-17.717 0-9.785 7.932-17.717 17.717-17.717 9.785 0 17.717 7.932 17.717 17.717z" transform="matrix(.137 0 0 .126 315.295 221.612)" stroke="#000" stroke-width="1pt" fill="#fff"/><path d="M478.35 549.21c0 9.785-7.932 17.717-17.717 17.717-9.785 0-17.717-7.932-17.717-17.717 0-9.785 7.932-17.717 17.717-17.717 9.785 0 17.717 7.932 17.717 17.717z" transform="matrix(.137 0 0 .126 272.043 257.113)" stroke="#000" stroke-width="1pt" fill="#fff"/><path d="M531.5 584.65s-67.982-52.097-69.813-177.17c-1.053-71.93 34.38-124.02 122.96-124.02 124.02 0 301.18 53.15 301.18 53.15v17.716s-141.73-53.15-301.18-53.15c-70.866 0-106.3 52.087-106.3 105.24 0 88.583 70.867 178.23 70.867 178.23v141.73h-17.717v-141.73z" transform="matrix(.137 0 0 .126 266.36 252.836)" stroke="#000" stroke-width="1pt" fill="#fff100"/><path d="M1240.2 531.5s15.35-35.433 70.86-35.433c37.79 0 70.87 35.433 70.87 70.866V637.8h35.43v-70.867c0-35.47 35.44-70.866 70.87-70.866 53.15 0 70.87 35.433 70.87 35.433s0-106.3-70.87-106.3c-53.15 0-70.87 35.433-70.87 35.433s17.72-53.15 17.72-106.3-35.43-88.583-35.43-88.583c0 6.79-35.44 35.433-35.44 88.583s17.72 106.3 17.72 106.3-17.72-35.433-70.87-35.433c-70.86 0-70.86 106.3-70.86 106.3z" transform="matrix(.046 0 0 .048 299.532 309.281)" stroke="#000" stroke-width="2.991" fill="#fff100"/><path d="M1240.2 531.5s15.35-35.433 70.86-35.433c37.79 0 70.87 35.433 70.87 70.866V637.8h35.43v-70.867c0-35.47 35.44-70.866 70.87-70.866 53.15 0 70.87 35.433 70.87 35.433s0-106.3-70.87-106.3c-53.15 0-70.87 35.433-70.87 35.433s17.72-53.15 17.72-106.3-35.43-88.583-35.43-88.583c0 6.79-35.44 35.433-35.44 88.583s17.72 106.3 17.72 106.3-17.72-35.433-70.87-35.433c-70.86 0-70.86 106.3-70.86 106.3z" transform="matrix(.046 0 0 .048 348.075 309.281)" stroke="#000" stroke-width="2.991" fill="#fff100"/><path d="M531.5 832.68V673.23s35.433 53.15 88.583 53.15c43.49 0 88.582-70.866 88.582-70.866s41.515 53.15 88.583 53.15c42.02 0 88.516-68.573 88.516-68.573s43.207 68.573 88.65 68.573c45.44 0 88.58-53.15 88.58-53.15s46.29 70.867 106.3 70.867c53.15 0 70.87-53.15 70.87-53.15v159.45h-708.66z" transform="matrix(.137 0 0 .126 266.36 252.836)" stroke="#000" stroke-width="1pt" fill="#fff100"/><path d="M708.66 832.68V708.66s106.3 35.433 106.3 124.02h-106.3z" transform="matrix(.137 0 0 .126 242.088 252.836)" stroke="#000" stroke-width="1pt" fill="#fff100"/><path d="M708.66 832.68V708.66s106.3 35.433 106.3 124.02h-106.3z" transform="matrix(-.137 0 0 .126 533.346 252.836)" stroke="#000" stroke-width="1pt" fill="#fff100"/><path d="M602.36 832.68c0-88.583 106.37-144.6 106.37-144.6s106.23 56.016 106.23 144.6h-212.6z" transform="matrix(.137 0 0 .126 266.36 252.836)" stroke="#000" stroke-width="1pt" fill="#fff100"/><path d="M602.36 832.68c0-88.583 106.37-144.6 106.37-144.6s106.23 56.016 106.23 144.6h-212.6z" transform="matrix(.137 0 0 .126 314.903 252.836)" stroke="#000" stroke-width="1pt" fill="#fff100"/><path d="M584.65 847.53c0-88.583 124.08-159.45 124.08-159.45s123.95 70.866 123.95 159.45H584.65z" transform="matrix(.137 0 0 .126 290.631 250.964)" stroke="#000" stroke-width="1pt" fill="#fff100"/><path d="M1275.6 655.51c-35.43-17.716-166.02-35.433-376.28-35.433s-350.1 17.717-385.53 35.433c-35.434 17.717-35.434 53.15 0 70.866 35.432 17.716 175.28 35.433 385.54 35.433s340.84-17.717 376.28-35.434c35.43-17.716 35.43-53.15 0-70.866z" transform="matrix(.135 0 0 .126 265.896 275.159)" stroke="#000" stroke-width="1pt" fill="#fff"/><path d="M435.988 366.423c0 4.443-40.31 4.443-48.462 4.443-8.81 0-48.462 1.204-48.462-4.443 0-4.443 39.98-4.443 48.462-4.443 8.48 0 48.462.903 48.462 4.443z" fill="gray"/><path d="M344.03 350.647c0 1.46-1.087 2.642-2.428 2.642-1.34 0-2.427-1.184-2.427-2.643s1.087-2.642 2.427-2.642 2.427 1.183 2.427 2.642zM436.262 350.647c0 1.46-1.086 2.642-2.427 2.642-1.34 0-2.427-1.184-2.427-2.643s1.087-2.642 2.427-2.642 2.427 1.183 2.427 2.642z" fill="#c00"/><path d="M392.573 349.234c0 1.46-2.174 2.642-4.855 2.642-2.68 0-4.854-1.183-4.854-2.642s2.173-2.642 4.854-2.642c2.68 0 4.855 1.183 4.855 2.642z"/><path d="M416.142 349.234c0 1.46-1.634 2.642-3.65 2.642s-3.65-1.183-3.65-2.642 1.634-2.642 3.65-2.642 3.65 1.183 3.65 2.642zM366.157 349.234c0 1.46-1.634 2.642-3.65 2.642s-3.65-1.183-3.65-2.642 1.634-2.642 3.65-2.642 3.65 1.183 3.65 2.642z" fill="#006300"/><path d="M1257.9 496.06s35.44-53.15 70.87-53.15h35.43v35.433c0 53.15-53.15 70.867-53.15 70.867h141.74s-53.15-17.717-53.15-70.867V442.91h35.43c35.43 0 70.87 53.15 70.87 53.15V354.33s-35.44 53.15-70.87 53.15h-35.43v-35.433c0-53.15 53.15-70.867 53.15-70.867h-141.74s53.15 17.717 53.15 70.867v35.433h-35.43c-35.43 0-70.87-53.15-70.87-53.15v141.73z" transform="matrix(.078 0 0 .072 279.539 298.119)" stroke="#000" stroke-width="2.188" fill="#fff100"/><path d="M1381.9 549.21h70.87s-53.15-17.716-53.15-70.866V442.91h35.43c35.43 0 70.87 53.15 70.87 53.15V354.33s-35.44 53.15-70.87 53.15h-35.43V372.05c0-53.15 53.15-70.867 53.15-70.867h-70.87v248.03z" transform="matrix(.039 0 0 .063 285.085 307.527)" stroke="#000" stroke-width="3.307" fill="#fff100"/><path d="M1381.9 549.21h70.87s-53.15-17.716-53.15-70.866V442.91h35.43c35.43 0 70.87 53.15 70.87 53.15V354.33s-35.44 53.15-70.87 53.15h-35.43V372.05c0-53.15 53.15-70.867 53.15-70.867h-70.87v248.03z" transform="matrix(-.039 0 0 .063 490.355 307.527)" stroke="#000" stroke-width="3.307" fill="#fff100"/><path d="M903.54 602.36c0 9.785-7.932 17.717-17.717 17.717-9.785 0-17.717-7.932-17.717-17.717 0-9.785 7.932-17.717 17.717-17.717 9.785 0 17.717 7.932 17.717 17.717z" transform="matrix(.137 0 0 .126 266.36 252.836)" stroke="#000" stroke-width="1pt" fill="#fff"/><path d="M1257.9 496.06s35.44-53.15 70.87-53.15h35.43v35.433c0 53.15-53.15 70.867-53.15 70.867h141.74s-53.15-17.717-53.15-70.867V442.91h35.43c35.43 0 70.87 53.15 70.87 53.15V354.33s-35.44 53.15-70.87 53.15h-35.43v-35.433c0-53.15 53.15-70.867 53.15-70.867h-141.74s53.15 17.717 53.15 70.867v35.433h-35.43c-35.43 0-70.87-53.15-70.87-53.15v141.73z" transform="matrix(.078 0 0 .072 279.54 251.242)" stroke="#000" stroke-width="2.188" fill="#fff100"/><path d="M903.54 602.36c0 9.785-7.932 17.717-17.717 17.717-9.785 0-17.717-7.932-17.717-17.717 0-9.785 7.932-17.717 17.717-17.717 9.785 0 17.717 7.932 17.717 17.717z" transform="matrix(.137 0 0 .126 266.592 206.332)" stroke="#000" stroke-width="1pt" fill="#fff"/><path stroke="#000" stroke-width="1pt" fill="#fff100" d="M850.39 655.51h70.866v53.15H850.39z" transform="matrix(.137 0 0 .126 266.36 208.19)"/><path stroke="#000" stroke-width="1pt" fill="#fff100" d="M850.39 683.3h70.866v202.53H850.39z" transform="matrix(.137 0 0 .126 266.36 208.19)"/><path d="M478.35 549.21c0 9.785-7.932 17.717-17.717 17.717-9.785 0-17.717-7.932-17.717-17.717 0-9.785 7.932-17.717 17.717-17.717 9.785 0 17.717 7.932 17.717 17.717z" transform="matrix(.137 0 0 .126 324.612 246.139)" stroke="#000" stroke-width="1pt" fill="#fff"/><path d="M478.35 549.21c0 9.785-7.932 17.717-17.717 17.717-9.785 0-17.717-7.932-17.717-17.717 0-9.785 7.932-17.717 17.717-17.717 9.785 0 17.717 7.932 17.717 17.717z" transform="matrix(.137 0 0 .126 324.612 240.364)" stroke="#000" stroke-width="1pt" fill="#fff"/><path d="M478.35 549.21c0 9.785-7.932 17.717-17.717 17.717-9.785 0-17.717-7.932-17.717-17.717 0-9.785 7.932-17.717 17.717-17.717 9.785 0 17.717 7.932 17.717 17.717z" transform="matrix(.137 0 0 .126 324.612 234.978)" stroke="#000" stroke-width="1pt" fill="#fff"/><path d="M478.35 549.21c0 9.785-7.932 17.717-17.717 17.717-9.785 0-17.717-7.932-17.717-17.717 0-9.785 7.932-17.717 17.717-17.717 9.785 0 17.717 7.932 17.717 17.717z" transform="matrix(.137 0 0 .126 324.612 229.417)" stroke="#000" stroke-width="1pt" fill="#fff"/><path d="M392.874 357.802c0 1.002-2.21 1.815-4.933 1.815s-4.932-.813-4.932-1.815 2.21-1.815 4.933-1.815c2.725 0 4.934.813 4.934 1.815zM437.754 361.774c-.27.684-2.666.74-5.35.122-2.685-.616-4.642-1.67-4.372-2.355.27-.683 2.666-.738 5.35-.12 2.685.615 4.642 1.67 4.372 2.354zM418.628 359.228c-.11.883-2.458 1.437-5.242 1.24-2.784-.2-4.95-1.077-4.84-1.96.112-.883 2.46-1.438 5.243-1.24 2.783.2 4.95 1.077 4.838 1.96zM336.6 361.774c.272.684 2.667.74 5.352.122 2.684-.616 4.64-1.67 4.37-2.355-.27-.683-2.665-.738-5.35-.12-2.684.615-4.64 1.67-4.37 2.354zM356.663 358.8c.11.884 2.458 1.438 5.242 1.24 2.784-.2 4.95-1.076 4.84-1.96-.112-.882-2.46-1.437-5.243-1.238-2.784.2-4.95 1.076-4.84 1.96z"/></g></g></svg>