<svg xmlns="http://www.w3.org/2000/svg" height="512" width="512"><g fill-rule="evenodd"><path fill="#fff" d="M.002 0h512.003v512H.002z"/><path d="M.002 341.334h512.003v170.67H.002z"/><path fill="#f30000" d="M.002 0h512.003v170.67H.002z"/></g><g fill-rule="evenodd" fill="#005623"><path d="M487.597 284.03l-21.114-15.274-21.013 15.483 8-24.81-21.217-15.196 26.064-.06 7.903-24.868 8.106 24.767 26.094-.174-21.05 15.363M193.24 233.168c.216 24.34 0 39.987 0 44.986-2.61 3.042-5.216 6.302-7.173 8.91-.87-.652-1.086-.652-1.086-1.957 0-1.303-.216-33.25 0-44.986 3.913-1.955 6.52-7.388 8.26-6.953zm-8.91-.435c1.955-3.26 4.128-6.52 5.65-8.04 1.52.868 1.303 3.26 1.52 3.91-1.52 2.174-5.215 5.65-6.302 6.738-.435-.65 0-.434-.87-2.607zm10.865-27.818c-13.257 8.693-28.253 19.125-33.686 23.69-5.434 4.563-7.39 7.388-7.39 15.212s.218 16.734-.434 20.863c-.652 4.13-2.608 8.475-7.39 4.564-4.78-3.912-8.258-7.824-10.43-9.562-2.174-1.74-6.086-4.13-11.302.434-5.215 4.564-29.556 30.21-34.12 33.034-4.564 2.825-5.433 3.477-8.693 5.215 6.738.435 14.344.87 20.43-.434 8.04-5.867 17.386-19.124 20.428-22.384 3.043-3.26 6.085-10.214 12.823-2.608 6.738 7.607 6.52 7.824 9.78 10.214 3.26 2.39 7.39 1.956 10.215-2.825 2.825-4.782 3.042-6.955 4.13-14.78 1.085-7.822 1.737-17.602 3.476-21.95 1.74-4.345 5.217-8.692 11.084-12.17 5.868-3.476 6.955-3.694 8.26-4.345 2.607-5 8.91-16.735 11.517-19.56 1.087-1.303 1.305-1.956 1.305-2.608zM136.3 284.022c-3.26-2.173-4.347-3.912-6.085-3.695-1.74.218-5.433 5.216-7.607 6.52 2.825 2.39 5.434 4.564 7.607 4.13 2.173-.436 3.694-5.216 6.085-6.955zM411.653 222.957c-4.563 1.087-6.954 7.172-10.866 11.3-.435 12.172-.435 49.987-.435 54.985 3.912-4.564 6.303-7.172 9.128-8.91.652-20.212 3.043-48.463 2.173-57.375zm-21.515-.217c-5.433 3.477-6.737 6.955-11.3 10.867-.218 14.56.434 35.207-.653 38.032-1.086 2.824-3.477 8.69-9.344 8.04-5.867-.652-7.606-1.74-7.606-7.824s1.304-44.986 1.304-51.29c-4.564 2.174-8.475 8.91-11.735 11.737 0 15.212.65 34.554.217 38.684-.435 4.13-2.173 10.866-9.563 10.648-7.39-.217-11.3-3.912-11.3-8.258 0-4.346-.218-32.816.217-37.814-6.52 4.563-21.732 13.69-24.776 25.426-3.042 11.735 1.74 15.212 6.085 13.04 4.347-2.174 6.303-4.13 8.693-5.87.653 7.39.87 15.43 8.258 20.213 7.39 4.78 16.735 3.042 20.212.434 3.477-2.608 4.78-4.346 5.65-5.65 6.52 4.998 16.082 7.606 22.385 2.173 6.303-5.433 9.78-10.867 10.433-16.952.652-6.085 3.695-37.38 2.825-45.638zm-68.24 29.557c-6.52 3.043-9.345 7.606-7.606 10.43 1.738 2.826 5.216-.434 7.606-1.52-.434-4.346 0-6.737 0-8.91zm41.944-46.073c-1.522 5-2.608 4.13-4.564 4.347-1.956.218-3.26-1.738-4.78-3.476-1.523.217-1.74.652-2.826 1.086 3.476 5 6.085 7.172 10.213 6.085 4.13-1.086 4.347-4.78 4.347-6.737-.652-.434-.87-.652-2.39-1.304zm-3.695-6.302c-1.956.652-2.39 1.087-3.043 2.825 1.087 2.39 2.61 3.694 4.13 3.043 1.52-.652 1.74-3.26.87-3.912-.87-.652-.435-1.087-1.957-1.956zM62.51 284.03l-21.114-15.274-21.013 15.483 8-24.81-21.217-15.196 26.064-.06 7.903-24.868 8.106 24.767 26.093-.174-21.05 15.363M274.62 284.03l-21.115-15.274-21.013 15.483 8-24.81-21.217-15.196 26.064-.06 7.902-24.868 8.106 24.767 26.094-.173-21.048 15.363"/></g></svg>