<svg xmlns="http://www.w3.org/2000/svg" height="512" width="512"><defs><clipPath id="a"><path fill-opacity=".67" d="M185.98 0h496.06v496.06H185.98z"/></clipPath></defs><g clip-path="url(#a)" fill-rule="evenodd" transform="matrix(1 0 0 1 -192 0)"><path fill="#fff" d="M0 0h868.11v496.06H0z"/><path fill="#da0000" d="M0 333.13h868.11v162.93H0z"/><g stroke-width="1pt" fill="#fff"><path d="M165.025 340.035h47.543v3.27h-47.543zM172.114 356.393h3.27v3.177h-3.27zM212.69 356.29v3.27h-9.5v-3.27zM217.802 340.035h3.272v19.532h-3.272z"/><path d="M236.728 356.29v3.27h-18.006v-3.27zM203.19 348.648h3.272v10.92h-3.272z"/><path d="M234.05 340.035h3.272v19.532h-3.272zM225.87 340.035h3.273v19.532h-3.272zM182.466 347.81v3.27h-17.352v-3.27zM220.542 347.81v3.27H203.19v-3.27z"/><path d="M203.19 348.648h3.272v10.92h-3.272z"/><path d="M203.19 348.648h3.272v10.92h-3.272z"/><path d="M203.19 348.648h3.272v10.92h-3.272zM165.114 348.648h3.27v10.92h-3.27zM193.023 348.648h3.272v10.92h-3.272zM179.196 348.648h3.272v10.92h-3.272z"/><path d="M195.32 356.29v3.27h-14.67v-3.27zM196.295 347.81v3.27h-9.3v-3.27z"/></g><g stroke-width="1pt" fill="#fff"><path d="M86.94 340.035h47.543v3.27H86.94zM94.03 356.393h3.27v3.177h-3.27zM134.606 356.29v3.27h-9.5v-3.27zM139.717 340.035h3.272v19.532h-3.273z"/><path d="M158.643 356.29v3.27h-18.006v-3.27zM125.105 348.648h3.272v10.92h-3.272z"/><path d="M155.965 340.035h3.272v19.532h-3.272zM147.786 340.035h3.272v19.532h-3.272zM104.38 347.81v3.27H87.03v-3.27zM142.457 347.81v3.27h-17.352v-3.27z"/><path d="M125.105 348.648h3.272v10.92h-3.272z"/><path d="M125.105 348.648h3.272v10.92h-3.272z"/><path d="M125.105 348.648h3.272v10.92h-3.272zM87.03 348.648h3.27v10.92h-3.27zM114.938 348.648h3.272v10.92h-3.272zM101.11 348.648h3.273v10.92h-3.272z"/><path d="M117.234 356.29v3.27h-14.668v-3.27zM118.21 347.81v3.27h-9.3v-3.27z"/></g><g stroke-width="1pt" fill="#fff"><path d="M242.465 340.035h47.543v3.27h-47.543zM249.554 356.393h3.27v3.177h-3.27zM290.13 356.29v3.27h-9.5v-3.27zM295.242 340.035h3.272v19.532h-3.272z"/><path d="M314.168 356.29v3.27h-18.006v-3.27zM280.63 348.648h3.272v10.92h-3.272z"/><path d="M311.49 340.035h3.272v19.532h-3.272zM303.31 340.035h3.273v19.532h-3.272zM259.906 347.81v3.27h-17.352v-3.27zM297.982 347.81v3.27H280.63v-3.27z"/><path d="M280.63 348.648h3.272v10.92h-3.272z"/><path d="M280.63 348.648h3.272v10.92h-3.272z"/><path d="M280.63 348.648h3.272v10.92h-3.272zM242.554 348.648h3.27v10.92h-3.27zM270.463 348.648h3.272v10.92h-3.272zM256.636 348.648h3.272v10.92h-3.272z"/><path d="M272.76 356.29v3.27h-14.67v-3.27zM273.735 347.81v3.27h-9.3v-3.27z"/></g><g stroke-width="1pt" fill="#fff"><path d="M789.275 340.035h47.543v3.27h-47.543zM796.364 356.393h3.27v3.177h-3.27zM836.94 356.29v3.27h-9.5v-3.27zM842.052 340.035h3.272v19.532h-3.272z"/><path d="M860.978 356.29v3.27h-18.006v-3.27zM827.44 348.648h3.272v10.92h-3.272z"/><path d="M858.3 340.035h3.272v19.532H858.3zM850.12 340.035h3.273v19.532h-3.272zM806.716 347.81v3.27h-17.352v-3.27zM844.792 347.81v3.27H827.44v-3.27z"/><path d="M827.44 348.648h3.272v10.92h-3.272z"/><path d="M827.44 348.648h3.272v10.92h-3.272z"/><path d="M827.44 348.648h3.272v10.92h-3.272zM789.364 348.648h3.27v10.92h-3.27zM817.273 348.648h3.272v10.92h-3.272zM803.446 348.648h3.272v10.92h-3.272z"/><path d="M819.57 356.29v3.27H804.9v-3.27zM820.545 347.81v3.27h-9.3v-3.27z"/></g><g stroke-width="1pt" fill="#fff"><path d="M320.405 340.035h47.543v3.27h-47.543zM327.494 356.393h3.27v3.177h-3.27zM368.07 356.29v3.27h-9.5v-3.27zM373.182 340.035h3.272v19.532h-3.272z"/><path d="M392.108 356.29v3.27h-18.006v-3.27zM358.57 348.648h3.272v10.92h-3.272z"/><path d="M389.43 340.035h3.272v19.532h-3.272zM381.25 340.035h3.273v19.532h-3.272zM337.846 347.81v3.27h-17.352v-3.27zM375.922 347.81v3.27H358.57v-3.27z"/><path d="M358.57 348.648h3.272v10.92h-3.272z"/><path d="M358.57 348.648h3.272v10.92h-3.272z"/><path d="M358.57 348.648h3.272v10.92h-3.272zM320.494 348.648h3.27v10.92h-3.27zM348.403 348.648h3.272v10.92h-3.272zM334.576 348.648h3.272v10.92h-3.272z"/><path d="M350.7 356.29v3.27h-14.67v-3.27zM351.675 347.81v3.27h-9.3v-3.27z"/></g><g stroke-width="1pt" fill="#fff"><path d="M398.625 340.035h47.543v3.27h-47.543zM405.714 356.393h3.27v3.177h-3.27zM446.29 356.29v3.27h-9.5v-3.27zM451.402 340.035h3.272v19.532h-3.272z"/><path d="M470.328 356.29v3.27h-18.006v-3.27zM436.79 348.648h3.272v10.92h-3.272z"/><path d="M467.65 340.035h3.272v19.532h-3.272zM459.47 340.035h3.273v19.532h-3.272zM416.066 347.81v3.27h-17.352v-3.27zM454.142 347.81v3.27H436.79v-3.27z"/><path d="M436.79 348.648h3.272v10.92h-3.272z"/><path d="M436.79 348.648h3.272v10.92h-3.272z"/><path d="M436.79 348.648h3.272v10.92h-3.272zM398.714 348.648h3.27v10.92h-3.27zM426.623 348.648h3.272v10.92h-3.272zM412.796 348.648h3.272v10.92h-3.272z"/><path d="M428.92 356.29v3.27h-14.67v-3.27zM429.895 347.81v3.27h-9.3v-3.27z"/></g><path fill="#239f40" d="M0 0h868.11v162.93H0z"/><g stroke-width="1pt" fill="#fff"><path d="M477.305 340.035h47.543v3.27h-47.543zM484.394 356.393h3.27v3.177h-3.27zM524.97 356.29v3.27h-9.5v-3.27zM530.082 340.035h3.272v19.532h-3.272z"/><path d="M549.008 356.29v3.27h-18.006v-3.27zM515.47 348.648h3.272v10.92h-3.272z"/><path d="M546.33 340.035h3.272v19.532h-3.272zM538.15 340.035h3.273v19.532h-3.272zM494.746 347.81v3.27h-17.352v-3.27zM532.822 347.81v3.27H515.47v-3.27z"/><path d="M515.47 348.648h3.272v10.92h-3.272z"/><path d="M515.47 348.648h3.272v10.92h-3.272z"/><path d="M515.47 348.648h3.272v10.92h-3.272zM477.394 348.648h3.27v10.92h-3.27zM505.303 348.648h3.272v10.92h-3.272zM491.476 348.648h3.272v10.92h-3.272z"/><path d="M507.6 356.29v3.27h-14.67v-3.27zM508.575 347.81v3.27h-9.3v-3.27z"/></g><g stroke-width="1pt" fill="#fff"><path d="M555.535 340.035h47.543v3.27h-47.543zM562.624 356.393h3.27v3.177h-3.27zM603.2 356.29v3.27h-9.5v-3.27zM608.312 340.035h3.272v19.532h-3.272z"/><path d="M627.238 356.29v3.27h-18.006v-3.27zM593.7 348.648h3.272v10.92H593.7z"/><path d="M624.56 340.035h3.272v19.532h-3.272zM616.38 340.035h3.273v19.532h-3.272zM572.976 347.81v3.27h-17.352v-3.27zM611.052 347.81v3.27H593.7v-3.27z"/><path d="M593.7 348.648h3.272v10.92H593.7z"/><path d="M593.7 348.648h3.272v10.92H593.7z"/><path d="M593.7 348.648h3.272v10.92H593.7zM555.624 348.648h3.27v10.92h-3.27zM583.533 348.648h3.272v10.92h-3.272zM569.706 348.648h3.272v10.92h-3.272z"/><path d="M585.83 356.29v3.27h-14.67v-3.27zM586.805 347.81v3.27h-9.3v-3.27z"/></g><g stroke-width="1pt" fill="#fff"><path d="M633.755 340.035h47.543v3.27h-47.543zM640.844 356.393h3.27v3.177h-3.27zM681.42 356.29v3.27h-9.5v-3.27zM686.532 340.035h3.272v19.532h-3.272z"/><path d="M705.458 356.29v3.27h-18.006v-3.27zM671.92 348.648h3.272v10.92h-3.272z"/><path d="M702.78 340.035h3.272v19.532h-3.272zM694.6 340.035h3.273v19.532H694.6zM651.196 347.81v3.27h-17.352v-3.27zM689.272 347.81v3.27H671.92v-3.27z"/><path d="M671.92 348.648h3.272v10.92h-3.272z"/><path d="M671.92 348.648h3.272v10.92h-3.272z"/><path d="M671.92 348.648h3.272v10.92h-3.272zM633.844 348.648h3.27v10.92h-3.27zM661.753 348.648h3.272v10.92h-3.272zM647.926 348.648h3.272v10.92h-3.272z"/><path d="M664.05 356.29v3.27h-14.67v-3.27zM665.025 347.81v3.27h-9.3v-3.27z"/></g><g stroke-width="1pt" fill="#fff"><path d="M712.435 340.035h47.543v3.27h-47.543zM719.524 356.393h3.27v3.177h-3.27zM760.1 356.29v3.27h-9.5v-3.27zM765.212 340.035h3.272v19.532h-3.272z"/><path d="M784.138 356.29v3.27h-18.006v-3.27zM750.6 348.648h3.272v10.92H750.6z"/><path d="M781.46 340.035h3.272v19.532h-3.272zM773.28 340.035h3.273v19.532h-3.272zM729.876 347.81v3.27h-17.352v-3.27zM767.952 347.81v3.27H750.6v-3.27z"/><path d="M750.6 348.648h3.272v10.92H750.6z"/><path d="M750.6 348.648h3.272v10.92H750.6z"/><path d="M750.6 348.648h3.272v10.92H750.6zM712.524 348.648h3.27v10.92h-3.27zM740.433 348.648h3.272v10.92h-3.272zM726.606 348.648h3.272v10.92h-3.272z"/><path d="M742.73 356.29v3.27h-14.67v-3.27zM743.705 347.81v3.27h-9.3v-3.27z"/></g><g stroke-width="1pt" fill="#fff"><path d="M7.92 340.035H55.46v3.27H7.92zM15.008 356.393h3.27v3.177h-3.27zM55.585 356.29v3.27h-9.5v-3.27zM60.696 340.035h3.272v19.532h-3.272z"/><path d="M79.622 356.29v3.27H61.616v-3.27zM46.084 348.648h3.272v10.92h-3.272z"/><path d="M76.944 340.035h3.272v19.532h-3.272zM68.765 340.035h3.272v19.532h-3.272zM25.36 347.81v3.27H8.008v-3.27zM63.436 347.81v3.27H46.084v-3.27z"/><path d="M46.084 348.648h3.272v10.92h-3.272z"/><path d="M46.084 348.648h3.272v10.92h-3.272z"/><path d="M46.084 348.648h3.272v10.92h-3.272zM8.008 348.648h3.27v10.92H8.01zM35.917 348.648h3.272v10.92h-3.273zM22.09 348.648h3.272v10.92H22.09z"/><path d="M38.213 356.29v3.27H23.545v-3.27zM39.19 347.81v3.27h-9.3v-3.27z"/></g><g stroke-width="1pt" fill="#fff"><path d="M165.025 138.975h47.543v3.27h-47.543zM172.114 155.333h3.27v3.177h-3.27zM212.69 155.23v3.27h-9.5v-3.27zM217.802 138.975h3.272v19.532h-3.272z"/><path d="M236.728 155.23v3.27h-18.006v-3.27zM203.19 147.588h3.272v10.92h-3.272z"/><path d="M234.05 138.975h3.272v19.532h-3.272zM225.87 138.975h3.273v19.532h-3.272zM182.466 146.75v3.27h-17.352v-3.27zM220.542 146.75v3.27H203.19v-3.27z"/><path d="M203.19 147.588h3.272v10.92h-3.272z"/><path d="M203.19 147.588h3.272v10.92h-3.272z"/><path d="M203.19 147.588h3.272v10.92h-3.272zM165.114 147.588h3.27v10.92h-3.27zM193.023 147.588h3.272v10.92h-3.272zM179.196 147.588h3.272v10.92h-3.272z"/><path d="M195.32 155.23v3.27h-14.67v-3.27zM196.295 146.75v3.27h-9.3v-3.27z"/></g><g stroke-width="1pt" fill="#fff"><path d="M86.94 138.975h47.543v3.27H86.94zM94.03 155.333h3.27v3.177h-3.27zM134.606 155.23v3.27h-9.5v-3.27zM139.717 138.975h3.272v19.532h-3.273z"/><path d="M158.643 155.23v3.27h-18.006v-3.27zM125.105 147.588h3.272v10.92h-3.272z"/><path d="M155.965 138.975h3.272v19.532h-3.272zM147.786 138.975h3.272v19.532h-3.272zM104.38 146.75v3.27H87.03v-3.27zM142.457 146.75v3.27h-17.352v-3.27z"/><path d="M125.105 147.588h3.272v10.92h-3.272z"/><path d="M125.105 147.588h3.272v10.92h-3.272z"/><path d="M125.105 147.588h3.272v10.92h-3.272zM87.03 147.588h3.27v10.92h-3.27zM114.938 147.588h3.272v10.92h-3.272zM101.11 147.588h3.273v10.92h-3.272z"/><path d="M117.234 155.23v3.27h-14.668v-3.27zM118.21 146.75v3.27h-9.3v-3.27z"/></g><g stroke-width="1pt" fill="#fff"><path d="M242.465 138.975h47.543v3.27h-47.543zM249.554 155.333h3.27v3.177h-3.27zM290.13 155.23v3.27h-9.5v-3.27zM295.242 138.975h3.272v19.532h-3.272z"/><path d="M314.168 155.23v3.27h-18.006v-3.27zM280.63 147.588h3.272v10.92h-3.272z"/><path d="M311.49 138.975h3.272v19.532h-3.272zM303.31 138.975h3.273v19.532h-3.272zM259.906 146.75v3.27h-17.352v-3.27zM297.982 146.75v3.27H280.63v-3.27z"/><path d="M280.63 147.588h3.272v10.92h-3.272z"/><path d="M280.63 147.588h3.272v10.92h-3.272z"/><path d="M280.63 147.588h3.272v10.92h-3.272zM242.554 147.588h3.27v10.92h-3.27zM270.463 147.588h3.272v10.92h-3.272zM256.636 147.588h3.272v10.92h-3.272z"/><path d="M272.76 155.23v3.27h-14.67v-3.27zM273.735 146.75v3.27h-9.3v-3.27z"/></g><g stroke-width="1pt" fill="#fff"><path d="M789.275 138.975h47.543v3.27h-47.543zM796.364 155.333h3.27v3.177h-3.27zM836.94 155.23v3.27h-9.5v-3.27zM842.052 138.975h3.272v19.532h-3.272z"/><path d="M860.978 155.23v3.27h-18.006v-3.27zM827.44 147.588h3.272v10.92h-3.272z"/><path d="M858.3 138.975h3.272v19.532H858.3zM850.12 138.975h3.273v19.532h-3.272zM806.716 146.75v3.27h-17.352v-3.27zM844.792 146.75v3.27H827.44v-3.27z"/><path d="M827.44 147.588h3.272v10.92h-3.272z"/><path d="M827.44 147.588h3.272v10.92h-3.272z"/><path d="M827.44 147.588h3.272v10.92h-3.272zM789.364 147.588h3.27v10.92h-3.27zM817.273 147.588h3.272v10.92h-3.272zM803.446 147.588h3.272v10.92h-3.272z"/><path d="M819.57 155.23v3.27H804.9v-3.27zM820.545 146.75v3.27h-9.3v-3.27z"/></g><g stroke-width="1pt" fill="#fff"><path d="M320.405 138.975h47.543v3.27h-47.543zM327.494 155.333h3.27v3.177h-3.27zM368.07 155.23v3.27h-9.5v-3.27zM373.182 138.975h3.272v19.532h-3.272z"/><path d="M392.108 155.23v3.27h-18.006v-3.27zM358.57 147.588h3.272v10.92h-3.272z"/><path d="M389.43 138.975h3.272v19.532h-3.272zM381.25 138.975h3.273v19.532h-3.272zM337.846 146.75v3.27h-17.352v-3.27zM375.922 146.75v3.27H358.57v-3.27z"/><path d="M358.57 147.588h3.272v10.92h-3.272z"/><path d="M358.57 147.588h3.272v10.92h-3.272z"/><path d="M358.57 147.588h3.272v10.92h-3.272zM320.494 147.588h3.27v10.92h-3.27zM348.403 147.588h3.272v10.92h-3.272zM334.576 147.588h3.272v10.92h-3.272z"/><path d="M350.7 155.23v3.27h-14.67v-3.27zM351.675 146.75v3.27h-9.3v-3.27z"/></g><g stroke-width="1pt" fill="#fff"><path d="M398.625 138.975h47.543v3.27h-47.543zM405.714 155.333h3.27v3.177h-3.27zM446.29 155.23v3.27h-9.5v-3.27zM451.402 138.975h3.272v19.532h-3.272z"/><path d="M470.328 155.23v3.27h-18.006v-3.27zM436.79 147.588h3.272v10.92h-3.272z"/><path d="M467.65 138.975h3.272v19.532h-3.272zM459.47 138.975h3.273v19.532h-3.272zM416.066 146.75v3.27h-17.352v-3.27zM454.142 146.75v3.27H436.79v-3.27z"/><path d="M436.79 147.588h3.272v10.92h-3.272z"/><path d="M436.79 147.588h3.272v10.92h-3.272z"/><path d="M436.79 147.588h3.272v10.92h-3.272zM398.714 147.588h3.27v10.92h-3.27zM426.623 147.588h3.272v10.92h-3.272zM412.796 147.588h3.272v10.92h-3.272z"/><path d="M428.92 155.23v3.27h-14.67v-3.27zM429.895 146.75v3.27h-9.3v-3.27z"/></g><g stroke-width="1pt" fill="#fff"><path d="M477.305 138.975h47.543v3.27h-47.543zM484.394 155.333h3.27v3.177h-3.27zM524.97 155.23v3.27h-9.5v-3.27zM530.082 138.975h3.272v19.532h-3.272z"/><path d="M549.008 155.23v3.27h-18.006v-3.27zM515.47 147.588h3.272v10.92h-3.272z"/><path d="M546.33 138.975h3.272v19.532h-3.272zM538.15 138.975h3.273v19.532h-3.272zM494.746 146.75v3.27h-17.352v-3.27zM532.822 146.75v3.27H515.47v-3.27z"/><path d="M515.47 147.588h3.272v10.92h-3.272z"/><path d="M515.47 147.588h3.272v10.92h-3.272z"/><path d="M515.47 147.588h3.272v10.92h-3.272zM477.394 147.588h3.27v10.92h-3.27zM505.303 147.588h3.272v10.92h-3.272zM491.476 147.588h3.272v10.92h-3.272z"/><path d="M507.6 155.23v3.27h-14.67v-3.27zM508.575 146.75v3.27h-9.3v-3.27z"/></g><g stroke-width="1pt" fill="#fff"><path d="M555.535 138.975h47.543v3.27h-47.543zM562.624 155.333h3.27v3.177h-3.27zM603.2 155.23v3.27h-9.5v-3.27zM608.312 138.975h3.272v19.532h-3.272z"/><path d="M627.238 155.23v3.27h-18.006v-3.27zM593.7 147.588h3.272v10.92H593.7z"/><path d="M624.56 138.975h3.272v19.532h-3.272zM616.38 138.975h3.273v19.532h-3.272zM572.976 146.75v3.27h-17.352v-3.27zM611.052 146.75v3.27H593.7v-3.27z"/><path d="M593.7 147.588h3.272v10.92H593.7z"/><path d="M593.7 147.588h3.272v10.92H593.7z"/><path d="M593.7 147.588h3.272v10.92H593.7zM555.624 147.588h3.27v10.92h-3.27zM583.533 147.588h3.272v10.92h-3.272zM569.706 147.588h3.272v10.92h-3.272z"/><path d="M585.83 155.23v3.27h-14.67v-3.27zM586.805 146.75v3.27h-9.3v-3.27z"/></g><g stroke-width="1pt" fill="#fff"><path d="M633.755 138.975h47.543v3.27h-47.543zM640.844 155.333h3.27v3.177h-3.27zM681.42 155.23v3.27h-9.5v-3.27zM686.532 138.975h3.272v19.532h-3.272z"/><path d="M705.458 155.23v3.27h-18.006v-3.27zM671.92 147.588h3.272v10.92h-3.272z"/><path d="M702.78 138.975h3.272v19.532h-3.272zM694.6 138.975h3.273v19.532H694.6zM651.196 146.75v3.27h-17.352v-3.27zM689.272 146.75v3.27H671.92v-3.27z"/><path d="M671.92 147.588h3.272v10.92h-3.272z"/><path d="M671.92 147.588h3.272v10.92h-3.272z"/><path d="M671.92 147.588h3.272v10.92h-3.272zM633.844 147.588h3.27v10.92h-3.27zM661.753 147.588h3.272v10.92h-3.272zM647.926 147.588h3.272v10.92h-3.272z"/><path d="M664.05 155.23v3.27h-14.67v-3.27zM665.025 146.75v3.27h-9.3v-3.27z"/></g><g stroke-width="1pt" fill="#fff"><path d="M712.435 138.975h47.543v3.27h-47.543zM719.524 155.333h3.27v3.177h-3.27zM760.1 155.23v3.27h-9.5v-3.27zM765.212 138.975h3.272v19.532h-3.272z"/><path d="M784.138 155.23v3.27h-18.006v-3.27zM750.6 147.588h3.272v10.92H750.6z"/><path d="M781.46 138.975h3.272v19.532h-3.272zM773.28 138.975h3.273v19.532h-3.272zM729.876 146.75v3.27h-17.352v-3.27zM767.952 146.75v3.27H750.6v-3.27z"/><path d="M750.6 147.588h3.272v10.92H750.6z"/><path d="M750.6 147.588h3.272v10.92H750.6z"/><path d="M750.6 147.588h3.272v10.92H750.6zM712.524 147.588h3.27v10.92h-3.27zM740.433 147.588h3.272v10.92h-3.272zM726.606 147.588h3.272v10.92h-3.272z"/><path d="M742.73 155.23v3.27h-14.67v-3.27zM743.705 146.75v3.27h-9.3v-3.27z"/></g><g stroke-width="1pt" fill="#fff"><path d="M7.92 138.975H55.46v3.27H7.92zM15.008 155.333h3.27v3.177h-3.27zM55.585 155.23v3.27h-9.5v-3.27zM60.696 138.975h3.272v19.532h-3.272z"/><path d="M79.622 155.23v3.27H61.616v-3.27zM46.084 147.588h3.272v10.92h-3.272z"/><path d="M76.944 138.975h3.272v19.532h-3.272zM68.765 138.975h3.272v19.532h-3.272zM25.36 146.75v3.27H8.008v-3.27zM63.436 146.75v3.27H46.084v-3.27z"/><path d="M46.084 147.588h3.272v10.92h-3.272z"/><path d="M46.084 147.588h3.272v10.92h-3.272z"/><path d="M46.084 147.588h3.272v10.92h-3.272zM8.008 147.588h3.27v10.92H8.01zM35.917 147.588h3.272v10.92h-3.273zM22.09 147.588h3.272v10.92H22.09z"/><path d="M38.213 155.23v3.27H23.545v-3.27zM39.19 146.75v3.27h-9.3v-3.27z"/></g><g stroke-width="1pt" fill="#d90000"><path d="M119.3 328.94h5.86v10.178h-5.86zM274.84 328.94h5.86v10.178h-5.86zM-.042 328.94h5.86v10.178h-5.86zM78.9 328.94h5.86v10.178H78.9zM157.278 328.94h5.86v10.178h-5.86zM196.058 328.94h5.86v10.178h-5.86zM235.648 328.94h5.86v10.178h-5.86zM313.62 328.94h5.86v10.178h-5.86zM510.36 328.94h5.86v10.178h-5.86zM353.208 328.94h5.86v10.178h-5.86zM391.998 328.94h5.86v10.178h-5.86zM431.178 328.94h5.86v10.178h-5.86zM470.368 328.94h5.86v10.178h-5.86zM783.46 328.94h5.86v10.178h-5.86zM548.338 328.94h5.86v10.178h-5.86zM587.928 328.94h5.86v10.178h-5.86zM627.928 328.94h5.86v10.178h-5.86zM665.498 328.94h5.86v10.178h-5.86zM705.488 328.94h5.86v10.178h-5.86zM744.678 328.94h5.86v10.178h-5.86zM860.63 328.94h5.86v10.178h-5.86zM823.058 328.94h5.86v10.178h-5.86zM39.308 328.94h5.86v10.178h-5.86z"/></g><g stroke-width="1pt" fill="#239e3f"><path d="M119.3 157.55h5.86v10.178h-5.86zM274.84 157.55h5.86v10.178h-5.86zM-.042 157.55h5.86v10.178h-5.86zM78.9 157.55h5.86v10.178H78.9zM157.278 157.55h5.86v10.178h-5.86zM196.058 157.55h5.86v10.178h-5.86zM235.648 157.55h5.86v10.178h-5.86zM313.62 157.55h5.86v10.178h-5.86zM510.36 157.55h5.86v10.178h-5.86zM353.208 157.55h5.86v10.178h-5.86zM391.998 157.55h5.86v10.178h-5.86zM431.178 157.55h5.86v10.178h-5.86zM470.368 157.55h5.86v10.178h-5.86zM783.46 157.55h5.86v10.178h-5.86zM548.338 157.55h5.86v10.178h-5.86zM587.928 157.55h5.86v10.178h-5.86zM627.928 157.55h5.86v10.178h-5.86zM665.498 157.55h5.86v10.178h-5.86zM705.488 157.55h5.86v10.178h-5.86zM744.678 157.55h5.86v10.178h-5.86zM860.63 157.55h5.86v10.178h-5.86zM823.058 157.55h5.86v10.178h-5.86zM39.308 157.55h5.86v10.178h-5.86z"/></g><g fill="#da0000"><path d="M457.08 191.36c8.19 10.04 33.437 65.548-15.242 101.91-22.884 17.223-8.714 18.093-8.037 20.988 36.786-19.54 48.8-46.013 48.52-69.727-.28-23.714-12.852-44.668-25.24-53.166z"/><path d="M461.95 188.78c18.165 9.3 57.7 56.08 15.148 108.85 26.44-5.868 60.053-83.73-15.15-108.85zM406.16 188.78c-18.167 9.3-57.702 56.08-15.15 108.85-26.44-5.868-60.053-83.73 15.15-108.85z"/><path d="M410.96 191.36c-8.19 10.04-33.44 65.548 15.24 101.91 22.884 17.223 8.714 18.093 8.037 20.988-36.785-19.54-48.8-46.013-48.52-69.727.28-23.714 12.853-44.668 25.242-53.166z"/><path d="M480.72 309.2c-14.4.228-32.55-1.984-46.01-8.98 2.216 4.312 4.058 7.027 6.275 11.338 12.838 1.184 30.554 2.65 39.734-2.358zM388.7 309.2c14.397.228 32.548-1.984 46.01-8.98-2.218 4.312-4.06 7.027-6.277 11.338-12.838 1.184-30.554 2.65-39.734-2.358zM415.11 174.8c2.916 7.753 10.57 8.88 18.76 4.315 5.97 3.582 15.203 3.81 18.387-3.94 2.42 19.17-17.736 14.634-18.487 10.882-7.504 7.254-21.475 3.064-18.66-11.257z"/><path d="M434.41 321.27l7.57-8.652 1.08-116.44-9.01-7.93-9.013 7.57 1.802 117.16 7.57 8.29z"/></g></g></svg>