<svg xmlns="http://www.w3.org/2000/svg" height="512" width="512" version="1"><defs><clipPath id="a"><path fill-opacity=".67" d="M113.56 0h493.5v493.5h-493.5z"/></clipPath></defs><g clip-path="url(#a)" transform="matrix(1 0 0 1 -117.8 0)"><g fill-rule="evenodd" stroke-width="1pt"><path d="M0 0h987v164.5H0z"/><path fill="#fff" d="M0 164.5h987V329H0z"/><path fill="#090" d="M0 329h987v164.5H0z"/><path d="M0 493.5l493.5-246.75L0 0v493.5z" fill="red"/><path fill="#fff" d="M164.766 243.954l22.1 10.645h-24.53l5.46 23.922-15.295-19.2-15.295 19.2 5.46-23.923h-24.53l22.1-10.646-15.295-19.18 22.102 10.65 5.46-23.924 5.456 23.923 22.1-10.65"/></g></g></svg>