<svg xmlns="http://www.w3.org/2000/svg" height="512" width="512"><defs><clipPath id="a"><path fill-opacity=".67" d="M104.06 0h416.25v416.25H104.06z"/></clipPath></defs><g clip-path="url(#a)" fill-rule="evenodd" transform="matrix(1.2 0 0 1.2 -128 0)"><path fill="#be0027" d="M0 0h625v416.25H0z"/><path d="M189.795 212.303c11.104-13.504 34.105-.324 52.88-10.048-22.24 1.223-34.364-10.674-51.936-9.006 18.206-11.185 33.706 3.657 54.064-2.31-26.963-2.267-25.794-14.32-50.31-16.032 21.777-9.288 32.548 9.553 53.88 5.268-25.142-5.804-28.49-20.614-47.184-23.75 27.323-4.123 25.542 12.028 52.327 14-27.187-11.66-20.06-21.785-42.8-30.667 25.444-.602 23.757 17.032 49.535 21.657-22.068-14-19.342-26.776-37.52-36.773 21.565.39 23.67 22.462 45.678 29.3-19.632-15.576-14.47-28.71-31.433-42.62 21.45 5.032 18.326 24.074 40.665 36.22-16.555-18.385-10.203-31.547-24.645-46.597 20.63 6.643 12.792 24.74 34.198 41.946-12.27-20.207-4.695-33.094-16.77-50.142 19.152 9.892 9.878 28.35 27.66 46.795-8.37-20.738.01-33.62-8.543-51.983 16.383 12.24 6.64 31.97 19.855 50.79-4.818-25.95 6.375-30.22 2.892-52.946 12.443 15.276-1.466 30.553 8.087 53.056-1.163-25.59 12.434-31.54 10.076-52.085 12.332 18.41-6.916 34.432 1.134 54.15 2.082-24.28 18.036-30.567 18.284-49.46 9.702 17.343-11.47 29.814-8.034 52.808 6.967-25.362 23.964-28.496 25.97-45.548 5.88 20.063-17.29 29.39-15.934 51.626 6.9-22.55 28.146-25.194 32.49-41.85 2.68 21.226-18.213 24.994-24.094 48.443 10.985-19.138 30.197-20.708 38.847-35.844-.68 20.987-24.263 23.74-31.502 43.39 13.597-16.673 30.642-13.78 44.24-28.563-1.436 18.94-25.442 17.87-38.22 37.48 14.745-13.602 36.94-9.526 48.236-21.238-.55 16.754-30.007 15.495-43.9 30.47 17.135-9.386 38.827-3.873 51.402-12.59-2.298 14.688-33.394 11.255-48.256 22.72 20.496-5.68 36.322 3.096 52.927-3.25-8.08 14.3-36.287 5.25-51.262 14.544 17.788-3.012 36.688 7.764 52.92 4.307-5.336 12.358-36.244-.747-52.92 6.94 19.927-.174 32.848 12.55 51.328 11.707-10.05 11.19-37.225-4.197-53.057-1.57 19.317 3.997 34.074 20.002 48.72 20.773-12.02 9.23-34.49-11.786-52.734-9.118 18.784 5.028 34.565 26.4 45.344 26.868-11.613 7.936-34.566-18.263-50.292-17.332 19.102 8.635 27.863 30.5 40.404 33.574-15.527 4.982-30.786-23.753-47.47-24.75 19.325 12.19 20.417 30.828 35.297 39.125-15.657 3.826-26.8-28.59-43.3-31.327 15.844 11.648 18.234 36.528 28.74 44.396-15.94.84-21.7-33.1-38.037-37.95 13.996 11.69 10.645 37.055 21.527 47.855-16.605-3.406-14.465-32.957-31.802-42.908 12.455 15.707 6.12 38.085 14.237 50.68-16.155-6.536-9.138-32.982-24.56-47.96 8.413 16.734-.63 36.25 6.005 52.427-14.758-7.198-4.832-38.523-16.143-50.947 5.2 19.338-4.39 35.34-.525 52.677-15.088-17.5 2.29-35.112-10.797-52.946 3.474 20.47-10.842 34.712-8.59 51.845-11.965-13.975 6.426-36.4-2.87-54.046 2.002 20.125-16.483 37.754-15.214 50.43-9.737-16.234 10.812-35.433 5.31-53.89-1.16 19.164-19.813 29.578-23.326 47.036-6.27-19.26 15.905-33.18 13.99-52.105-6.35 18.004-24.374 25.222-30.724 42.67-5.2-19.205 21.068-29.403 21.762-49.61-8.12 18.95-29.692 23.112-36.81 37.614-2.66-19.105 27.484-27.647 28.606-45.75-9.704 17.382-33.307 18.087-41.455 31.912-1.235-19.037 30.554-21.395 35.545-41.32-9.66 14.86-35.556 12.932-46.33 25.013 1.7-17.66 36.087-18.752 41.567-34.633-12.783 12.33-36.554 7.22-49.94 17.002 7.45-17.345 39.706-13.668 46.998-26.233-14.28 7.45-39.576.228-52.03 7.678 11.32-16.426 36.425-6.613 50.634-17.925-23.112 3.368-36.996-5.83-52.992-1.572z" fill="#ff0"/><path d="M393.427 208.21c0 44.553-36.115 80.667-80.665 80.667-44.55 0-80.666-36.116-80.666-80.666s36.116-80.664 80.666-80.664 80.665 36.116 80.665 80.665z" fill="#ff0"/><path d="M383.05 208.37c0 38.732-31.4 70.13-70.13 70.13-38.734 0-70.132-31.4-70.132-70.13 0-38.733 31.4-70.13 70.13-70.13 38.733 0 70.13 31.398 70.13 70.13z" fill="#be0027"/><path d="M373.3 208.527c0 33.26-26.964 60.224-60.224 60.224-33.262 0-60.224-26.962-60.224-60.223 0-33.26 26.963-60.224 60.224-60.224 33.26 0 60.224 26.964 60.224 60.224z" fill="#ff0"/><path d="M261.815 169.063c16.667-.367 37.424 1.153 51.104 12.108 14.518-9.067 31.71-13.26 49.217-11.635l8.963 16.353c-13-1.31-25.683.525-40.727 6.605 19.184 15.2 28.776 34.803 28.147 58.652-2.2 2.725-5.66 5.765-7.862 8.49 3.197-23.167-9.015-49.006-26.732-62.582 14.414 20.81 23.01 39.573 20.6 65.413-2.568 1.52-5.61 3.67-8.177 5.19 3.772-22.8-1.572-49.533-18.398-65.1 9.696 14.257 19.393 39.836 13.365 65.885-2.62.787-6.656 2.99-9.277 3.775 6.762-21.332 2.515-48.012-8.806-63.998-11.216 16.092-14.886 40.673-8.492 63.37-3.145-.787-5.503-1.73-8.648-2.517-4.612-24.425 1.783-51.996 12.895-66.356-11.323 6.552-22.016 34.645-19.03 63.37-2.724-1.26-4.82-2.203-7.546-3.46-3.67-21.44 6.027-49.322 19.97-65.415-15.83 9.958-28.67 34.384-26.417 60.696-2.41-2.15-4.665-3.197-7.076-5.346-2.777-22.958 10.484-46.072 26.103-59.91-13.156-5.87-24.425-7.024-40.726-6.762 2.568-5.294 4.98-11.53 7.548-16.825z" fill="#be0027"/></g></svg>