<svg xmlns="http://www.w3.org/2000/svg" height="512" width="512" version="1"><defs><clipPath id="a"><path fill-opacity=".67" d="M124.02 0h496.06v496.06H124.02z"/></clipPath></defs><g fill-rule="evenodd" clip-path="url(#a)" transform="matrix(1.03 0 0 1.03 -128 0)"><path fill="#1b0073" d="M0 0h744.09v496.06H0z"/><path fill="#e60006" d="M0 124.02h744.09v248.03H0z"/><g stroke="#e60000" fill="#fff"><path stroke-width="1.17" d="M214.37 240.35h315.35v50.992H214.37z"/><path d="M220 280l-5 15h320l-5-15H220z" transform="matrix(1.02 0 0 .8 -9.96 67.38)" stroke-width="1.25"/><path d="M245 280l-5 15h60l-5-15h-50z" transform="matrix(1.24 0 0 .8 160.47 67.38)" stroke-width="1.123"/><path d="M245 280l-5 15h60l-5-15h-50z" transform="matrix(.62 0 0 .8 328.64 67.38)" stroke-width="1.52"/><path d="M245 280l-5 15h60l-5-15h-50z" transform="matrix(.4 0 0 .8 388.1 67.38)" stroke-width="2.024"/><path d="M245 280l-5 15h60l-5-15h-50z" transform="matrix(1.3 0 0 .8 21.26 67.38)" stroke-width="1.098"/><path stroke-width="1.265" d="M212.6 239.58h318.9v11.998H212.6z"/><path stroke-width="1.191" d="M462.79 240.46h62.5v50.792h-62.5z"/><path stroke-width=".805" d="M507.5 264.262h6.25v26.986h-6.25zM480 264.262h6.25v26.986H480z"/><path d="M245 280l-5 15h60l-5-15h-50z" transform="matrix(.65 0 0 .8 195.63 67.38)" stroke-width="1.554"/><path d="M245 280l-5 15h60l-5-15h-50z" transform="matrix(.4 0 0 .8 261.53 67.38)" stroke-width="1.956"/><path stroke-width="1.225" d="M338.8 240.35h65.854v50.992H338.8z"/><path stroke-width="1.04" d="M391.27 264.258h6.25v26.986h-6.25zM347.78 264.255h6.254v26.986h-6.254z"/><path stroke-width=".95" d="M356.1 228.01h31.89v63.32H356.1z"/><path stroke-width="1.04" d="M380.02 264.256h6.25v26.986h-6.25zM359.03 264.257h6.254v26.986h-6.254z"/><path d="M358.18 217.13l13.47 22.98 14.265-22.98H358.18z" transform="matrix(1 0 0 .85 0 54.38)" stroke-width="1pt"/><path stroke-width="1.179" d="M487.59 240.35h17.717v62.99H487.59z"/><path stroke-width="1.178" d="M490.54 240.35h11.8v62.99h-11.8z"/><g><path d="M245 280l-5 15h60l-5-15h-50z" transform="matrix(1.24 0 0 .8 -84.45 67.38)" stroke-width="1.123"/><path d="M245 280l-5 15h60l-5-15h-50z" transform="matrix(.58 0 0 .8 90.86 67.38)" stroke-width="1.637"/><path d="M245 280l-5 15h60l-5-15h-50z" transform="matrix(.37 0 0 .8 147.56 67.38)" stroke-width="2.049"/><path stroke-width="1.189" d="M217.91 240.35h62.008v50.992H217.91z"/><path stroke-width=".805" d="M230 264.264h6.25v26.986H230zM258.75 264.265H265v26.986h-6.25z"/><path stroke-width="1.179" d="M239.17 240.35h17.717v62.99H239.17z"/><path stroke-width="1.178" d="M242.11 240.35h11.8v62.99h-11.8z"/></g><path stroke-width="1.279" d="M209.06 228.35h325.98v11.998H209.06z"/><g><path stroke-width="1pt" d="M187.5 328.56h406.25v17.5H187.5z" transform="matrix(1.05 0 0 .88 -36.8 49.28)"/><path stroke-width="1.197" d="M226.25 284.81h327.5v17.5h-327.5z" transform="matrix(1.05 0 0 .88 -36.8 49.28)"/><path stroke-width="1.215" d="M221.25 288.56h337.5v17.5h-337.5z" transform="matrix(1.05 0 0 .88 -36.8 49.28)"/><path stroke-width="1pt" d="M187.5 328.56h406.25v17.5H187.5z" transform="matrix(1.05 0 0 .88 -36.8 49.28)"/><path stroke-width="1.249" d="M212.5 298.56h356.25v17.5H212.5z" transform="matrix(1.05 0 0 .88 -36.8 49.28)"/><path stroke-width="1.292" d="M200 311.06h381.25v17.5H200z" transform="matrix(1.05 0 0 .88 -36.8 49.28)"/><g><path stroke-width="1.373" d="M287.5 283.56h18.75v62.5H287.5z" transform="matrix(.94 0 0 .86 -32.48 55.38)"/><path stroke-width="1.121" d="M290.62 283.56h12.5v62.5h-12.5z" transform="matrix(.94 0 0 .86 -32.48 55.38)"/></g><g><path stroke-width="1.373" d="M287.5 283.56h18.75v62.5H287.5z" transform="matrix(.94 0 0 .86 215.55 55.38)"/><path stroke-width="1.121" d="M290.62 283.56h12.5v62.5h-12.5z" transform="matrix(.94 0 0 .86 215.55 55.38)"/></g></g><path stroke-width="1.201" d="M365.5 240.35h14.24v113.98H365.5z"/><g><path d="M217.92 220.3l.184-36.915s3.362 7.236 29.512 8.82c24.75-.936 28.848-5.36 29.97-9.283l-1.026 37.515-58.64-.137z" transform="matrix(.94 0 0 .85 261.19 54.38)" stroke-width="1pt"/><path d="M330.92 208.56l-18.42-20.45c6.14-5.303 17.543 3.79 17.543 3.79s6.14-23.486 32.457-33.335c26.316 9.85 32.456 33.334 32.456 33.334s11.403-9.093 17.544-3.79l-18.422 20.455H330.92z" transform="matrix(.4 0 0 .3 345.56 141.72)" stroke-width="3.528"/><path d="M330.92 208.56l-18.42-20.45c6.14-5.303 17.543 3.79 17.543 3.79s6.14-23.486 32.457-33.335c26.316 9.85 32.456 33.334 32.456 33.334s11.403-9.093 17.544-3.79l-18.422 20.455H330.92z" transform="matrix(.54 0 0 .42 300.47 132.59)" stroke-width="2.615"/><g><path d="M0 280.52c.792 0 30.112 52.3 0 53.093-30.112.793 0-51.508 0-53.093z" transform="matrix(.4 0 0 .4 496.04 45.44)" stroke-width="3.383"/><path d="M330.92 208.56l-18.42-20.45c6.14-5.303 17.543 3.79 17.543 3.79s6.14-23.486 32.457-33.335c26.316 9.85 32.456 33.334 32.456 33.334s11.403-9.093 17.544-3.79l-18.422 20.455H330.92z" transform="matrix(.32 0 0 .16 380.47 149.76)" stroke-width="5.963"/><path d="M330.92 208.56l-.878-16.666s6.14-23.485 32.457-33.334c26.315 9.85 32.455 33.334 32.455 33.334l-.878 16.666H330.92z" transform="matrix(.16 0 0 .16 436.71 152.39)" stroke-width="8.321"/><path d="M330.92 208.56l-.878-16.666s6.14-23.485 32.457-33.334c26.315 9.85 32.455 33.334 32.455 33.334l-.878 16.666H330.92z" transform="matrix(.33 0 0 .2 377.35 149.31)" stroke-width="5.096"/><path d="M330.92 208.56l-.878-16.666s6.14-23.485 32.457-33.334c26.315 9.85 32.455 33.334 32.455 33.334l-.878 16.666H330.92z" transform="matrix(.33 0 0 .2 377.35 154.56)" stroke-width="5.096"/><path d="M330.92 208.56l-18.42-20.45c6.14-5.303 17.543 3.79 17.543 3.79s6.14-23.486 32.457-33.335c26.316 9.85 32.456 33.334 32.456 33.334s11.403-9.093 17.544-3.79l-18.422 20.455H330.92z" transform="matrix(.32 0 0 .42 380.47 126.52)" stroke-width="3.651"/><path d="M330.92 208.56l-18.42-20.45c6.14-5.303 17.543 3.79 17.543 3.79s6.14-23.486 32.457-33.335c26.316 9.85 32.456 33.334 32.456 33.334s11.403-9.093 17.544-3.79l-18.422 20.455H330.92z" transform="matrix(.32 0 0 .42 380.47 137.02)" stroke-width="3.651"/><path d="M330.92 208.56l-.878-16.666s6.14-23.485 32.457-33.334c26.315 9.85 32.455 33.334 32.455 33.334l-.878 16.666H330.92z" transform="matrix(.33 0 0 .52 377.35 130.87)" stroke-width="3.223"/><path d="M330.92 208.56l-18.42-20.45c6.14-5.303 17.543 3.79 17.543 3.79s6.14-23.486 32.457-33.335c26.316 9.85 32.456 33.334 32.456 33.334s11.403-9.093 17.544-3.79l-18.422 20.455H330.92z" transform="matrix(.32 0 0 .3 380.47 174.66)" stroke-width="4.216"/></g></g><g><path d="M330.92 208.56l-18.42-20.45c6.14-5.303 17.543 3.79 17.543 3.79s6.14-23.486 32.457-33.335c26.316 9.85 32.456 33.334 32.456 33.334s11.403-9.093 17.544-3.79l-18.422 20.455H330.92z" transform="matrix(.4 0 0 .3 97.89 139.48)" stroke-width="3.528"/><path d="M330.92 208.56l-18.42-20.45c6.14-5.303 17.543 3.79 17.543 3.79s6.14-23.486 32.457-33.335c26.316 9.85 32.456 33.334 32.456 33.334s11.403-9.093 17.544-3.79l-18.422 20.455H330.92z" transform="matrix(.54 0 0 .42 52.8 130.35)" stroke-width="2.615"/><path d="M217.92 220.3l.184-36.915s3.362 7.236 29.512 8.82c24.75-.936 28.848-5.36 29.97-9.283l-1.026 37.515-58.64-.137z" transform="matrix(.94 0 0 .85 15.64 54.38)" stroke-width="1pt"/><g><path d="M0 280.52c.792 0 30.112 52.3 0 53.093-30.112.793 0-51.508 0-53.093z" transform="matrix(.4 0 0 .4 248.01 45.44)" stroke-width="3.383"/><path d="M330.92 208.56l-18.42-20.45c6.14-5.303 17.543 3.79 17.543 3.79s6.14-23.486 32.457-33.335c26.316 9.85 32.456 33.334 32.456 33.334s11.403-9.093 17.544-3.79l-18.422 20.455H330.92z" transform="matrix(.32 0 0 .16 132.44 149.76)" stroke-width="5.963"/><path d="M330.92 208.56l-.878-16.666s6.14-23.485 32.457-33.334c26.315 9.85 32.455 33.334 32.455 33.334l-.878 16.666H330.92z" transform="matrix(.16 0 0 .16 188.68 152.39)" stroke-width="8.321"/><path d="M330.92 208.56l-.878-16.666s6.14-23.485 32.457-33.334c26.315 9.85 32.455 33.334 32.455 33.334l-.878 16.666H330.92z" transform="matrix(.33 0 0 .2 129.31 149.31)" stroke-width="5.096"/><path d="M330.92 208.56l-.878-16.666s6.14-23.485 32.457-33.334c26.315 9.85 32.455 33.334 32.455 33.334l-.878 16.666H330.92z" transform="matrix(.33 0 0 .2 129.31 154.56)" stroke-width="5.096"/><path d="M330.92 208.56l-18.42-20.45c6.14-5.303 17.543 3.79 17.543 3.79s6.14-23.486 32.457-33.335c26.316 9.85 32.456 33.334 32.456 33.334s11.403-9.093 17.544-3.79l-18.422 20.455H330.92z" transform="matrix(.32 0 0 .42 132.44 126.52)" stroke-width="3.651"/><path d="M330.92 208.56l-18.42-20.45c6.14-5.303 17.543 3.79 17.543 3.79s6.14-23.486 32.457-33.335c26.316 9.85 32.456 33.334 32.456 33.334s11.403-9.093 17.544-3.79l-18.422 20.455H330.92z" transform="matrix(.32 0 0 .42 132.44 137.02)" stroke-width="3.651"/><path d="M330.92 208.56l-.878-16.666s6.14-23.485 32.457-33.334c26.315 9.85 32.455 33.334 32.455 33.334l-.878 16.666H330.92z" transform="matrix(.33 0 0 .52 129.31 130.87)" stroke-width="3.223"/><path d="M330.92 208.56l-18.42-20.45c6.14-5.303 17.543 3.79 17.543 3.79s6.14-23.486 32.457-33.335c26.316 9.85 32.456 33.334 32.456 33.334s11.403-9.093 17.544-3.79l-18.422 20.455H330.92z" transform="matrix(.32 0 0 .3 132.44 174.66)" stroke-width="4.216"/></g></g><g><rect ry="6.449" height="12.898" width="85.039" y="226.28" x="329.53" stroke-width="1.226"/><path d="M353.24-212.6l1.093-56.693s-3.28 13.906-13.123 13.906H190.29c-9.843 0-13.124-13.906-13.124-13.906l1.093 56.693h174.98z" transform="matrix(.5 0 0 .75 239.17 393.31)" stroke-width="1.579"/><path d="M510.49 70.22l.41-25.61s23.557-2.998 20.288-9.332c-3.27-6.333-31.604 7.986-31.604 7.986h-113.34s-28.335-14.32-31.604-7.986c-3.27 6.334 20.288 9.332 20.288 9.332l.408 25.61h135.15z" transform="matrix(.4 0 0 .57 194.88 174.23)" stroke-width="2.4"/><path d="M510.49 70.22l.41-25.61s23.557-2.998 20.288-9.332c-3.27-6.333-31.604 7.986-31.604 7.986h-113.34s-28.335-14.32-31.604-7.986c-3.27 6.334 20.288 9.332 20.288 9.332l.408 25.61h135.15z" transform="matrix(.48 0 0 .57 159.45 186.23)" stroke-width="2.19"/><path d="M510.49 70.22l.41-25.61s23.557-3 20.288-9.332c-3.27-6.333-27.29-18.36-61.81-31.08-24.29-5.905 31.26-26.346-21.07-27.71-48.02.758-5.42 23.32-21.07 28.62-38.84 11.81-69.33 23.837-72.6 30.17-3.27 6.334 20.29 9.332 20.29 9.332l.408 25.61h135.15z" transform="matrix(.13 0 0 .26 314.17 134.08)" stroke-width="6.247"/><path d="M510.49 70.22l.41-25.61s23.557-2.998 20.288-9.332c-3.27-6.333-31.604 7.986-31.604 7.986h-113.34s-28.335-14.32-31.604-7.986c-3.27 6.334 20.288 9.332 20.288 9.332l.408 25.61h135.15z" transform="matrix(.28 0 0 .47 246.55 156.75)" stroke-width="3.152"/><path d="M510.49 70.22l.41-25.61s23.557-2.998 20.288-9.332c-3.27-6.333-31.604 7.986-31.604 7.986h-113.34s-28.335-14.32-31.604-7.986c-3.27 6.334 20.288 9.332 20.288 9.332l.408 25.61h135.15z" transform="matrix(.34 0 0 .47 221.46 166.57)" stroke-width="2.877"/><path d="M510.49 70.22l.41-25.61s23.557-2.998 20.288-9.332c-3.27-6.333-31.604 7.986-31.604 7.986h-113.34s-28.335-14.32-31.604-7.986c-3.27 6.334 20.288 9.332 20.288 9.332l.408 25.61h135.15z" transform="matrix(.18 0 0 .32 290.85 149.49)" stroke-width="4.755"/><path d="M510.49 70.22l.41-25.61s23.557-2.998 20.288-9.332c-3.27-6.333-31.604 7.986-31.604 7.986h-113.34s-28.335-14.32-31.604-7.986c-3.27 6.334 20.288 9.332 20.288 9.332l.408 25.61h135.15z" transform="matrix(.22 0 0 .32 274.61 156.16)" stroke-width="4.341"/><path d="M510.49 70.22l.41-25.61s23.557-2.998 20.288-9.332c-3.27-6.333-31.604 7.986-31.604 7.986h-113.34s-28.335-14.32-31.604-7.986c-3.27 6.334 20.288 9.332 20.288 9.332l.408 25.61h135.15z" transform="matrix(.13 0 0 .26 314.53 139.78)" stroke-width="6.247"/><path d="M510.49 70.22l.41-25.61s23.557-2.998 20.288-9.332c-3.27-6.333-31.604 7.986-31.604 7.986h-113.34s-28.335-14.32-31.604-7.986c-3.27 6.334 20.288 9.332 20.288 9.332l.408 25.61h135.15z" transform="matrix(.16 0 0 .26 303.03 145.24)" stroke-width="5.702"/><g><path d="M330.92 208.56l-18.42-20.45c6.14-5.303 17.543 3.79 17.543 3.79s6.14-23.486 32.457-33.335c26.316 9.85 32.456 33.334 32.456 33.334s11.403-9.093 17.544-3.79l-18.422 20.455H330.92z" transform="matrix(.18 0 0 .18 307.82 126.34)" stroke-width="5.444"/><path d="M330.92 208.56l-18.42-20.45c6.14-5.303 17.543 3.79 17.543 3.79s6.14-23.486 32.457-33.335c26.316 9.85 32.456 33.334 32.456 33.334s11.403-9.093 17.544-3.79l-18.422 20.455H330.92z" transform="matrix(.25 0 0 .18 282.14 132.34)" stroke-width="5.444"/><path d="M330.92 208.56l-18.42-20.45c6.14-5.303 17.543 3.79 17.543 3.79s6.14-23.486 32.457-33.335c26.316 9.85 32.456 33.334 32.456 33.334s11.403-9.093 17.544-3.79l-18.422 20.455H330.92z" transform="matrix(.28 0 0 .24 269.29 130.32)" stroke-width="4.41"/><path d="M330.92 208.56l-18.42-20.45c6.14-5.303 17.543 3.79 17.543 3.79s6.14-23.486 32.457-33.335c26.316 9.85 32.456 33.334 32.456 33.334s11.403-9.093 17.544-3.79l-18.422 20.455H330.92z" transform="matrix(.35 0 0 .3 243.6 130.7)" stroke-width="3.528"/><path d="M358.18 217.13l13.47 22.98 14.265-22.98H358.18z" transform="matrix(.92 0 0 .67 28.62 57.55)" stroke-width="1.458"/><path d="M330.92 208.56l-18.42-20.45c6.14-5.303 17.543 3.79 17.543 3.79s6.14-23.486 32.457-33.335c26.316 9.85 32.456 33.334 32.456 33.334s11.403-9.093 17.544-3.79l-18.422 20.455H330.92z" transform="matrix(.43 0 0 .33 217.91 135.87)" stroke-width="3.051"/><path d="M358.18 217.13l13.47 22.98 14.265-22.98H358.18z" transform="matrix(1 0 0 .85 0 37.09)" stroke-width="1.25"/><path d="M330.92 208.56l-18.42-20.45c6.14-5.303 17.543 3.79 17.543 3.79s6.14-23.486 32.457-33.335c26.316 9.85 32.456 33.334 32.456 33.334s11.403-9.093 17.544-3.79l-18.422 20.455H330.92z" transform="matrix(.46 0 0 .42 205.07 135.49)" stroke-width="2.615"/><path d="M330.92 208.56l-18.42-20.45c6.14-5.303 17.543 3.79 17.543 3.79s6.14-23.486 32.457-33.335c26.316 9.85 32.456 33.334 32.456 33.334s11.403-9.093 17.544-3.79l-18.422 20.455H330.92z" transform="matrix(.46 0 0 .42 205.07 152.76)" stroke-width="2.615"/></g></g><g stroke-width="1.04"><path d="M285.34 264.26h6.25v26.986h-6.25zM306.59 264.258h6.25v26.986h-6.25zM296.59 264.257h6.25v26.986h-6.25zM410.14 264.26h6.25v26.985h-6.25zM452.64 264.257h6.25v26.986h-6.25zM431.39 264.256h6.25v26.986h-6.25zM421.39 264.255h6.25v26.986h-6.25zM441.39 264.255h6.25v26.986h-6.25zM327.84 264.26h6.25v26.985h-6.25zM316.59 264.257h6.25v26.986h-6.25z"/></g></g></g></svg>