<svg xmlns="http://www.w3.org/2000/svg" height="512" width="512" version="1"><defs><clipPath id="a"><path fill-opacity=".67" d="M0 0h512v512H0z"/></clipPath></defs><g clip-path="url(#a)"><path fill="#006" d="M0 0h1024v512H0z"/><path fill-rule="evenodd" fill="#006" d="M0 0h512v256H0z"/><g stroke-width="1pt"><path fill="#fff" d="M0 0v28.622L454.757 256h57.24v-28.62L57.242 0H0zm511.998 0v28.62L57.24 256H0v-28.622L454.757 0h57.24z"/><path fill="#fff" d="M213.333 0v256h85.333V0h-85.333zM0 85.333v85.333h511.998V85.333H0z"/><path fill="#c00" d="M0 102.4v51.2h511.998v-51.2H0zM230.4 0v256h51.2V0h-51.2zM0 256l170.666-85.334h38.16L38.162 256H0zM0 0l170.666 85.333h-38.16L0 19.08V0zm303.17 85.333L473.838 0h38.16L341.333 85.333h-38.16zM512 256l-170.666-85.334h38.16L512 236.92V256z"/></g><path d="M307.91 185.907c-1.133.684-3.4 2.74-5.666 2.054-2.266-.683-7.366-9.587-13.032-8.217-5.666 1.37-9.066 3.424-11.332 3.424s-8.5 2.055-8.5 7.533c0 5.48.568 9.59 1.7 9.59 1.134 0 2.834-3.426 2.834-3.426s.566 6.85 4.533 6.85 12.465.684 13.032 2.738c.565 2.055-3.967 6.85-2.834 10.958 1.133 4.11 6.232 10.958 6.232 10.958s-7.365 5.48-7.365 8.903 1.133 6.85 1.133 6.85l-32.863 1.37s-2.267 97.25-1.134 104.784c1.133 7.53 3.965 26.023 3.965 26.023s-7.365-2.395-13.598 3.77c-6.233 6.163-28.046 16.775-28.613 21.57-.567 4.793-2.55 8.903-.283 12.327 2.267 3.424 10.242 12.728 7.933 12.33-7.607-1.313-10.437-12.12-15.58-16.095-5.055-3.903-15.015-3.083-16.15 1.024-1.132 4.11-.565 10.958 0 12.328.568 1.37 6.8 23.286 8.5 28.08s19.548 11.983 27.48 11.3c15.015.34 21.814-6.506 22.38-5.82.567.684 32.303 33.41 97.455 33.557 50.718.112 88.956-32.874 88.956-32.187 0 .683 20.965 6.847 28.33 4.794 7.366-2.058 18.132-6.85 20.398-11.645 2.267-4.794 8.5-29.45 9.066-33.556.567-4.11 0-8.905-5.1-10.275s-7.932-1.027-10.765.343-3.683 5.14-7.932 11.986c-2.265 2.056-8.215 7.533-6.515 6.163s5.382-11.64 5.95-15.07c.566-3.422 2.265-9.586-1.7-13.01-3.967-3.423-10.042-4.823-17-9.93-6.605-4.526-11.896-11.985-15.864-11.985-3.965 0-8.498-2.053-7.93-2.053.566 0 5.108-9.95 3.974-20.22-1.133-10.276.558-108.534-.01-108.534-.565 0-28.33 2.056-28.33.686s2.267-10.958 0-17.12c-2.265-6.165-11.898-10.274-9.065-11.643 2.832-1.37 15.298-4.795 14.73-10.274-.566-5.48-8.498-4.794-11.898-6.85-3.4-2.054-13.598-11.64-14.73-11.64-1.135 0 29.46-18.492 27.196-18.492-2.267 0-14.166-3.424-18.132-1.37 0-3.424 16.432-13.697 13.6-15.067-2.834-1.37-15.866-2.74-12.467-3.423 3.4-.685 4.532-8.904 3.966-8.904-.567 0-14.732 2.055-14.732 2.055s-3.4-4.794-4.533-4.794c-1.132 0-6.23 2.74-6.23 2.74l-2.834-7.534-6.233 4.11-2.833-3.425s-5.1 1.37-5.1 0c.215-.05-.586-3.44-1.387-3.44-.802 0-6.41 4.36-6.61 4.117-.2-.242-6.41-8.96-6.41-8.717 0 .243-4.41 16.465-4.61 16.465-.2 0-4.406.485-4.606.727-.2.242-22.437-12.833-22.236-12.59.202.242 5.81 12.59 5.81 12.59s-4.807 2.664-4.807 2.906.8 5.568.8 5.568l-14.825-5.084s5.61 11.38 5.21 11.38c-.402 0-11.02.484-10.82.484.202 0 5.01 9.443 5.01 9.443l-1.803 5.57s15.956 11.26 14.823 11.945zm94.622 238.33c1.416 2.053 9.065 11.64 7.932 11.64-1.133 0-20.114 12.67-27.763 15.07-7.65 2.395-32.58 6.847-31.163 6.505 1.417-.34 22.388-11.824 30.887-17.3 8.5-5.477 20.107-15.23 20.107-15.914zm-118.424-.346c-1.133 1.372-6.516 11.987-6.516 11.987s15.58 10.958 27.197 15.07c11.614 4.106 31.445 5.476 30.312 5.134-1.133-.34-24.93-10.957-31.73-16.434-6.8-5.48-18.98-15.755-19.264-15.755z" fill-rule="evenodd" fill="#fff"/><g fill-rule="evenodd" stroke="#6d6666" fill="#fec500"><path d="M394.65-212.97s28.777 17.265 35.354 21.376 27.954 22.2 29.598 21.377c1.645-.822 13.155-9.866 13.155-9.866s-23.843-18.91-38.642-23.02-39.465-8.223-39.465-9.867z" stroke-width="1.25" transform="matrix(.3 0 0 .4 160.6 259)"/><path d="M390.54-231.88c2.467 0 47.687 23.022 61.664 34.532s19.732 26.31 21.377 26.31c1.645 0 23.022-3.29 22.2-3.29-.823 0-9.867-29.597-30.42-38.64-20.556-9.045-73.997-18.912-74.82-18.912z" stroke-width="1.25" transform="matrix(.3 0 0 .4 160.6 259)"/><path d="M603.48-296.01c-.822 0-9.044 24.666-11.51 32.065-2.467 7.4-6.578 23.02-6.578 23.02s-36.176 3.29-34.532-.82c1.645-4.112 55.086-54.265 52.62-54.265z" transform="matrix(.3 0 0 .4 160.6 260.9)" stroke-width="1.25"/><path d="M398.76-261.48s42.754 28.776 57.553 45.22c14.8 16.443 29.598 45.22 30.42 45.22.823 0 40.287-8.222 40.287-7.4s-46.042-46.042-68.24-60.02-59.198-21.376-60.02-23.02z" stroke-width="1.25" transform="matrix(.3 0 0 .4 160.6 259)"/><path d="M443.16-273.81s21.377 32.887 25.487 44.398c4.11 11.51 16.444 41.11 16.444 41.11h33.71s-16.443-37-34.53-55.087-40.288-28.775-41.11-30.42z" transform="matrix(.3 0 0 .4 160.6 260.9)" stroke-width="1.25"/><path d="M454.66-291.9c.823 2.467 31.243 31.243 38.643 50.153 7.4 18.91 13.155 42.754 13.155 42.754l29.598-7.4s-26.31-48.51-42.753-61.664c-16.444-13.154-36.998-22.198-38.643-23.843z" transform="matrix(.3 0 0 .4 160.6 260.9)" stroke-width="1.25"/><path d="M700.5-209.68s-61.663 6.578-83.862 12.333-34.532 27.132-34.532 27.132 28.777 10.688 30.42 9.044 18.91-18.91 37.82-25.49c18.91-6.576 51.798-22.198 50.154-23.02z" stroke-width="1.25" transform="matrix(.3 0 0 .4 160.6 259)"/><path d="M698.03-249.97c-1.645.823-50.975 41.11-66.597 54.264-15.62 13.155-30.42 27.132-32.065 27.954-1.644.823-32.065-4.11-30.42-5.755 1.644-1.644 45.22-36.998 73.996-52.62 28.776-15.62 52.62-22.198 55.086-23.843z" stroke-width="1.25" transform="matrix(.3 0 0 .4 160.6 259)"/><path d="M685.7-278.75c-4.933 5.755-53.442 45.22-66.597 59.197s-34.53 38.643-34.53 38.643-25.49-11.51-23.844-16.444c1.643-4.933 36.174-33.71 60.84-50.153 24.665-16.444 66.596-29.6 64.13-31.243z" stroke-width="1.25" transform="matrix(.3 0 0 .4 160.6 259)"/><path d="M636.37-282.04c-.822.823-29.598 31.243-35.354 39.465-5.755 8.222-23.02 44.398-23.02 44.398s-25.488-22.2-25.488-23.02 32.065-34.533 50.975-47.688 33.71-10.688 32.887-13.155z" stroke-width="1.25" transform="matrix(.3 0 0 .4 160.6 259)"/><path d="M565.09-241.77c0 5.78-4.685 10.465-10.465 10.465s-10.465-4.685-10.465-10.465 4.685-10.465 10.465-10.465 10.465 4.685 10.465 10.465zM586.02-227.81c0 5.137-4.685 9.302-10.465 9.302s-10.465-4.165-10.465-9.302 4.685-9.302 10.465-9.302 10.465 4.165 10.465 9.302zM539.51-238.28c0 5.137-5.726 9.302-12.79 9.302-7.064 0-12.79-4.165-12.79-9.302s5.726-9.302 12.79-9.302c7.064 0 12.79 4.165 12.79 9.302z" transform="matrix(.3 0 0 .4 160.6 260.9)" stroke-width="1pt"/><path d="M573.23-219.09c0 9.954-6.507 18.022-14.534 18.022-8.027 0-14.534-8.07-14.534-18.022 0-9.954 6.507-18.022 14.534-18.022 8.027 0 14.534 8.07 14.534 18.022zM533.7-218.51c0 7.706-6.507 13.953-14.534 13.953-8.027 0-14.534-6.247-14.534-13.953 0-7.706 6.507-13.953 14.534-13.953 8.027 0 14.534 6.247 14.534 13.953z" transform="matrix(.3 0 0 .4 160.6 260.9)" stroke-width="1pt"/><path d="M513.93-207.46c0 6.743-4.946 12.21-11.046 12.21s-11.046-5.467-11.046-12.21c0-6.743 4.945-12.21 11.046-12.21 6.1 0 11.046 5.467 11.046 12.21zM595.32-208.63c0 8.027-7.548 14.534-16.86 14.534-9.31 0-16.86-6.507-16.86-14.534 0-8.027 7.548-14.534 16.86-14.534 9.31 0 16.86 6.507 16.86 14.534zM554.63-229.56c0 4.816-5.987 8.72-13.372 8.72s-13.372-3.904-13.372-8.72 5.987-8.72 13.372-8.72 13.372 3.904 13.372 8.72z" transform="matrix(.3 0 0 .4 160.6 260.9)" stroke-width="1pt"/><path d="M556.95-210.37c0 7.064-8.33 12.79-18.604 12.79s-18.604-5.726-18.604-12.79c0-7.064 8.33-12.79 18.604-12.79s18.604 5.726 18.604 12.79zM604.62-187.7c0 8.67-7.81 15.697-17.44 15.697s-17.442-7.028-17.442-15.697 7.81-15.697 17.44-15.697c9.633 0 17.442 7.028 17.442 15.697zM509.28-191.77c0 5.78-4.425 10.465-9.883 10.465s-9.884-4.685-9.884-10.465 4.425-10.465 9.884-10.465 9.883 4.685 9.883 10.465z" transform="matrix(.3 0 0 .4 160.6 260.9)" stroke-width="1pt"/><path d="M579.04-193.51c0 7.385-6.768 13.372-15.116 13.372-8.348 0-15.116-5.987-15.116-13.372s6.768-13.372 15.116-13.372c8.348 0 15.116 5.987 15.116 13.372zM531.37-194.09c0 6.422-5.987 11.627-13.37 11.627-7.386 0-13.372-5.206-13.372-11.627 0-6.422 5.987-11.627 13.37-11.627 7.386 0 13.372 5.206 13.372 11.627z" transform="matrix(.3 0 0 .4 160.6 260.9)" stroke-width="1pt"/><path d="M554.63-190.61c0 7.064-6.247 12.79-13.953 12.79-7.706 0-13.953-5.726-13.953-12.79 0-7.064 6.247-12.79 13.953-12.79 7.706 0 13.953 5.726 13.953 12.79zM494.16-267.35c3.488 0 27.906 8.14 27.906 8.14s-30.232 11.627-25.58 10.464 33.72-4.65 31.393-4.65c-2.326 0-25.58 22.09-18.605 20.928 6.977-1.162 20.93-15.115 22.092-15.115 1.163 0 15.116 22.092 16.28 20.93 1.16-1.164 0-22.093 1.16-22.093 1.164 0 29.07 13.953 26.744 12.79-2.324-1.163-18.602-17.44-17.44-17.44 1.163 0 38.37 3.487 36.045 2.324-2.325-1.162-24.417-11.627-24.417-11.627s16.278-15.114 12.79-15.114-30.23 15.115-27.906 13.952c2.326-1.162 29.07-31.393 29.07-31.393l-26.744 12.79s4.65-18.604 2.325-17.442c-2.325 1.163-20.93 24.418-22.092 24.418s-5.813-23.254-5.813-23.254 1.163 25.58-5.813 26.743c-6.977 1.162-31.394 5.813-31.394 4.65z" transform="matrix(.3 0 0 .4 160.6 260.9)" stroke-width="1pt"/></g><g fill-rule="evenodd"><path d="M304.743 227.877c.2.97 6.61 18.402 16.426 17.918s13.822-3.39 13.42-3.632c-.4-.242-4.606-3.148-7.01-9.443-2.404-6.296-2.805-8.96-2.805-8.96l-20.032 4.117zM339.8 221.098s7.21 17.19 10.416 19.612c3.206 2.42 10.618 4.358 13.823 4.116 3.204-.242 7.01 0 7.01 0s-3.205-1.695-5.81-11.138-3.405-12.59-3.405-12.59H339.8zM383.87 227.393s-1.402 12.59 0 15.738c1.403 3.15 8.414 8.96 8.414 8.96s8.414-1.21 8.614-8.96c.2-7.747-2.805-15.01-2.805-15.01l-14.223-.727z" fill="#00389b"/><path d="M288.94 21.015s1.163 4.65 0 8.14-11.046 12.79-11.046 20.347c0 7.558 11.627 30.812 47.09 31.394 35.464.58 80.23-19.185 79.648-19.767-.58-.582-84.88-56.975-86.04-56.394-1.16.582-29.65 17.44-29.65 16.28zM523.23 61.13s7.557 20.347 10.464 22.673c2.907 2.325 4.07 6.976 4.65 6.976s48.836 10.463 48.836 10.463 4.65-13.37-2.325-23.836c-6.977-10.465-33.138-37.79-33.138-37.79l-28.49 21.512zM556.37 36.13c1.162 0 12.79 9.883 22.092 4.65 9.3-5.23 24.417-19.184 24.417-19.184s-12.79 4.07-22.093 3.488c-9.302-.58-23.836 11.627-24.417 11.046z" stroke="#000" stroke-width="1pt" fill="#005120" transform="matrix(.3 0 0 .4 198.4 196.6)"/><path d="M287.2 23.34s-3.488-9.883-12.79-10.465c-9.302-.58-26.162 1.163-31.975-3.488-5.814-4.65-7.558-15.697-10.465-15.116-2.907.582-10.465 0-11.046 0s-3.488-9.3 4.65-13.952c8.14-4.65 15.117-.582 19.767-4.07 4.652-3.488 11.63-5.814 20.93-6.395 9.303-.58 24.418 11.628 31.395 14.534 6.976 2.907 22.092 6.395 27.905 3.488 5.814-2.907 38.37-15.697 49.998-16.278 11.627-.58 36.045-1.162 45.347-.58 9.302.58 45.928 5.23 56.974 10.464 11.045 5.233 69.763 25.58 77.902 30.232 8.14 4.65 26.162 11.627 26.162 11.627s-31.976 31.393-47.672 36.625c-15.697 5.232-65.695 13.372-95.345 11.627-29.65-1.744-52.904-4.65-75.578-16.278-22.68-11.626-47.1-22.672-48.26-28.486-1.16-5.813-.58-13.37-.58-13.37l-27.325 9.882z" stroke="#000" stroke-width="1pt" fill="#005120" transform="matrix(.3 0 0 .4 198.4 196.6)"/><path d="M251.15-14.45c-1.163.582-6.976 2.908-5.814 4.07 1.163 1.163 3.49 4.652 10.465 4.07 6.978-.58 14.535-4.65 14.535-4.65s-8.72-4.07-19.185-3.49z" stroke="#000" stroke-width="1pt" fill="#005120" transform="matrix(.3 0 0 .4 198.4 196.6)"/><path d="M250.57-13.286v6.395s8.14 2.324 8.14.58c0-1.744.58-5.813-1.164-5.813s-6.395-.582-6.976-1.163z" stroke="#000" stroke-width="1pt" transform="matrix(.3 0 0 .4 198.4 196.6)"/><path d="M331.95-8.453c2.056-3.7 0-8.632 11.922-14.388 11.92-5.756 32.68-4.112 32.68-4.112s-5.96 4.522-6.165 9.25c-.205 4.727.41 6.783.41 6.783s-11.304-3.7-19.937-1.438c-8.633 2.26-18.704 4.522-18.91 3.905zM385.4-28.596c-1.233.617-10.277 10.688-9.25 13.772 1.028 3.083 13.155 10.483 17.06 9.866 3.906-.616 21.788-9.25 22.816-13.566 1.028-4.316 1.85-10.072.41-11.305-1.438-1.232-30.83 1.646-31.036 1.234zM424.66-30.24c-2.26 2.26-1.44 13.155-.617 14.388.822 1.233 15.005 15.416 18.088 16.238 3.084.822 25.9-1.44 27.75-3.905s7.4-12.948 5.755-15.415c-1.645-2.467-6.578-5.756-21.788-9.044s-24.254-2.877-29.187-2.26zM482.82-16.47c3.7 1.85 25.282 12.334 38.026 20.76 12.743 8.428 17.882 18.09 21.582 18.91 3.7.823 18.704-8.22 19.32-10.687.618-2.467-18.292-15.62-31.036-21.582-12.744-5.96-47.892-6.782-47.892-7.4zM478.3-7.63c-1.85 1.644 23.02 45.014 27.748 46.453 4.728 1.438 33.093-8.428 32.682-11.716-.41-3.288-7.81-9.866-25.28-19.526C495.98-2.08 481.8-8.45 478.3-7.63zM447.47 8.196c-3.905 2.26-10.07 41.11-6.166 42.96 3.905 1.85 52.003-4.728 53.853-9.044 1.85-4.317-19.733-38.643-26.105-38.643-6.37 0-17.882 1.644-21.582 4.727zM397.73-.025c-5.14 4.727-4.11 40.903-1.85 43.164 2.26 2.26 30.83 9.66 33.914 6.987 3.084-2.672 7.195-43.37 4.317-46.453-2.877-3.083-10.893-10.483-17.06-11.1-6.166-.615-16.443 5.962-19.32 7.4zM333.19-.642c-4.728 3.7-4.933 13.36.205 15.005 5.14 1.644 17.882 7.194 29.804 12.333 11.92 5.14 18.704 11.305 22.198 11.1 3.494-.207 6.783-36.382 3.083-38.438-3.7-2.055-14.593-3.7-24.87-3.29-10.277.412-25.282 1.44-30.42 3.29z" stroke="#000007" stroke-width="1pt" fill="#001707" transform="matrix(.3 0 0 .4 198.4 196.6)"/></g><path d="M240.17 388c2.906-2.83 7.426-9.745 13.56-10.06 6.134-.314 12.59 5.345 12.59 5.345s6.458 26.406 6.136 26.406c-.323 0-10.654 7.545-10.977 7.545-.324 0-4.52-10.373-8.395-9.43-3.875.942-3.552 15.088-4.197 14.146-.646-.943-17.11-20.433-16.465-21.06.645-.63 8.07-11.946 7.748-12.89zM410.646 384.54c1.937-.313 10.654-6.915 16.788-6.6 6.135.313 9.686 3.142 12.914 5.972 3.228 2.83 7.103 10.058 7.103 10.058s-7.747 21.376-8.393 21.376-3.875 1.888-4.52.315-2.582-6.6-6.457-7.23c-3.874-.628-4.843 6.916-4.843 6.916l-12.59-30.806z" fill-opacity=".996" fill-rule="evenodd" fill="#d40f0f"/><path d="M414.84 391.15c0 1.886 11.947 31.436 31.318 37.092 19.37 5.66 25.505-5.343 27.764-9.115 2.26-3.773 10.332-3.458 10.332-3.458s-1.937 27.663-5.166 31.12c-3.228 3.458-5.812 11.003-23.89 11.316-18.08.315-34.545-16.974-40.033-22.005-5.49-5.03-12.593-18.23-15.498-24.204-2.905-5.972 15.497-20.117 15.174-20.747zM204.335 449.924c.323 0 8.717 9.117 20.985 8.173 12.27-.942 33.254-8.173 42.94-20.747 9.685-12.574 14.528-26.092 14.528-26.092s-14.206-25.147-14.53-25.147c-.322 0-1.613 8.174-4.196 13.518-2.583 5.343-9.685 20.432-21.63 25.148-11.947 4.716-11.947 6.6-16.79 5.973-4.84-.63-17.432-8.174-17.432-8.49 0-.313-6.134 14.776-6.134 14.776s-1.292 9.745 2.26 12.888z" fill-rule="evenodd" fill-opacity=".996" fill="#fddc59"/><path d="M239.952 387.126c-.913 0-23.742 12.448-22.83 17.783.914 5.334 39.267 80.91 121.448 81.797 82.183.89 132.41-68.462 128.756-80.02-3.652-11.558-29.22-24.896-29.22-24.896s6.39 5.336 5.48 12.45c-.915 7.112-29.223 68.462-100.45 66.685-71.225-1.78-105.013-56.014-105.013-62.24 0-6.222 3.653-9.78 1.827-11.558z" fill-rule="evenodd" fill-opacity=".996" fill="#fddc59"/><path d="M462.617 442.074c1.94-1.572 13.884-34.265 20.664-33.32 6.78.942 4.52 10.686 3.876 13.202-.646 2.514-7.427 25.148-7.427 25.148s.323-5.344-4.198-6.6c-4.52-1.258-11.946 2.2-12.914 1.57zM204.335 450.257c0-1.777-5.48-8 .913-9.78 6.392-1.777 14.61 1.78 14.61 1.78s-4.565-13.34-10.044-24.008c-5.478-10.67-7.305-8.89-11.87-7.114-4.566 1.78-4.456 6.484-1.716 13.597 2.74 7.113 8.108 27.303 8.108 25.524z" fill-opacity=".996" fill-rule="evenodd" fill="#d40f0f"/><path fill-rule="evenodd" fill="#fdc400" d="M279.677 389.286l7.927-26.85-22.015-16.88 27.572-.635 8.993-26.496 9.116 26.452 27.575.51-21.94 16.982 8.045 26.81-22.672-15.956"/><path d="M428.346 249.536v103.302c.203 50.488-51.28 94.698-85.464 103.303-34.188-8.604-85.667-52.814-85.464-103.298V249.54h170.928z" fill-rule="evenodd" fill="#fff"/><path d="M177.16 325.98l.42 160.73s2.387-3.288 35.013-1.284c32.627 2.004 35.433 35.433 70.867 35.433 35.433 0 35.433-35.434 70.866-35.434s35.433 35.433 70.866 35.433 35.433-35.434 70.866-35.434 35.433 35.433 72.87 37.46c33.43-2.027 33.43-37.46 69.062-39.464l35.233 2.004v-159.45h-496.06z" fill-rule="evenodd" fill-opacity=".996" transform="matrix(.3 0 0 .4 196.4 118.5)" stroke="#000" stroke-width="1pt" fill="#d40f0f"/><path d="M257.415 335.03V356.4h12.21c11.24.806 12.208 14.25 24.417 14.25 12.21 0 12.21-14.25 24.42-14.25s12.208 14.25 24.417 14.25 12.21-14.25 24.418-14.25 11.52 13.434 24.418 14.25c11.52-.816 12.14-13.444 24.42-14.25h12.208V335.03h-12.21c-12.208 0-12.208 14.248-24.418 14.248-12.21 0-12.21-14.25-24.418-14.25s-12.21 14.25-24.42 14.25c-12.208 0-12.208-14.25-24.417-14.25s-12.208 14.25-24.418 14.25-12.21-14.25-24.418-14.25h-12.21zM261.098 377.77l8.527 21.375c11.242.805 12.21 14.248 24.418 14.248 12.21 0 12.21-14.248 24.42-14.248s12.208 14.248 24.417 14.248 12.21-14.248 24.42-14.248 11.517 13.433 24.417 14.248c11.52-.815 11.857-13.443 24.135-14.248l8.81-21.704-8.526.33c-12.21 0-12.21 14.25-24.42 14.25-12.208 0-12.208-14.25-24.417-14.25s-12.21 14.25-24.42 14.25-12.21-14.25-24.418-14.25-12.21 14.25-24.42 14.25-12.208-14.25-24.417-14.25h-8.527zM342.882 456.138c12.21 0 40.184-21.373 39.898-21.373.284 0-3.27-14.248-15.48-14.248s-12.21 14.248-24.42 14.248c-12.208 0-12.208-14.248-24.417-14.248s-15.326 14.248-15.353 14.248c-.567 0 27.562 21.373 39.77 21.373z" fill-rule="evenodd" fill-opacity=".996" fill="#0062bb"/><path d="M90.85 117.57c.82 0 8.22 1.233 13.564.822 5.344-.41 7.4-2.467 7.4-2.878v-1.233h6.988s1.233 5.756.41 6.167-2.877 2.056-3.288 2.056 0-2.878-.822-2.056-1.233 2.056-1.233 2.056-.823-1.234-1.234-1.234-1.233 1.233-1.233 1.233 0-1.234-.412-1.234c-.41 0-2.465 2.055-2.465 2.055l-2.055-1.645s-1.234 2.056-1.645 2.056-2.877-1.644-2.877-1.644l-4.11 2.466s0-3.7-.823-3.29c-.822.412-5.344.412-5.344.412s-1.233 2.467-1.644 2.467-2.055-2.055-1.644-2.055 1.233-1.234.822-1.645c-.41-.41-2.466 0-2.466-.41s-.822-2.88-.41-2.88 2.054.413 2.054.413v-2.467h2.055l.412 2.467z" fill-rule="evenodd" fill-opacity=".996" transform="matrix(1.7 0 0 1.5 126.8 126.6)" stroke="#000" stroke-width=".625" fill="#fdc400"/><path d="M98.248 94.136c-.41 0-3.29 3.29-2.878 6.988.41 3.7 7.4 9.044 7.4 9.044s3.7-1.644 4.933 0 1.233 6.577.822 6.577-5.344 1.234-5.344.41c0-.82 0-1.643-.41-1.643s-4.933.41-4.933.41l.41-1.643-4.11-.823 1.645-1.645s-6.578-2.877-6.167-2.877 2.878-1.644 2.878-1.644l-4.933-3.288h2.878s-4.11-3.29-3.7-3.29c.41 0 2.466.412 2.466.412l-1.233-3.288h1.234L87.97 95.37l2.056-.823 1.234 2.055-.41-4.933 2.876.41v4.11s1.233-2.465 1.233-2.876c0-.41 3.7 1.644 3.288.822z" fill-rule="evenodd" fill-opacity=".996" transform="matrix(1.7 0 0 1.5 126.8 126.6)" stroke="#000" stroke-width=".625" fill="#fdc400"/><path d="M399.533 301.86c-.865.753-3.462 2.41-3.462 2.41s5.887-.452 5.713-.452-2.076-1.507-2.25-1.958zM404.552 304.717c-.345.45-1.384 5.12-.692 4.817.692-.3 3.46-3.763 3.46-3.763l-2.768-1.053zM412.5 305.318c.865.753 4.846 4.215 4.327 3.462-.52-.752-1.04-3.915-1.384-4.064-.347-.15-2.597.902-2.942.602zM342.763 300.35c-.518.152-4.845 3.013-4.845 3.013s7.27-1.205 6.922-1.205c-.345 0-2.25-1.354-2.077-1.807zM347.26 303.97c-.692.602-2.942 4.817-2.077 4.668.866-.15 4.674-2.862 4.674-2.862l-2.597-1.806zM344.48 298.095c-.518-.15-4.153-1.657-3.98-1.657s4.847-1.054 4.847-1.054l-.866 2.71zM275.953 296.146l-5.192-3.614 6.578 1.806-1.385 1.808zM271.453 298.55c-.692 0-7.27 3.612-7.096 3.612s9.173.15 9 0c-.173-.15-1.558-3.31-1.904-3.613zM275.606 303.823c-.692.302-5.884 3.764-5.538 3.764.346 0 7.788.15 7.788 0s-2.077-3.613-2.25-3.764zM274.914 266.325s-1.904-4.216-1.73-4.216c.172 0 4.845 3.312 4.845 3.312l-3.116.903zM280.106 261.055c0-.15.52-2.71.52-2.71s4.672 3.162 4.5 3.162c-.174 0-4.674 0-5.02-.452zM287.376 263.012c0-.15.52-3.915.52-3.915s4.326 5.12 3.98 5.27c-.346.15-4.154-.752-4.5-1.355z" fill-opacity=".996" fill-rule="evenodd"/><path d="M137.26 110.86c0 .206 4.316 3.7 4.42 4.522.1.822-7.812 1.028-7.812 1.028s-2.26-1.747-2.98-1.645c-.72.103-1.028 1.85-1.028 1.85l1.85 1.028-3.494.205 1.028 1.953 2.672-.205-.617 1.85s1.643 1.234 1.952 1.028c.308-.205 1.336-2.055 2.158-2.364.822-.31 2.57-.31 2.57-.31s-1.337 2.262-.72 2.262c.616 0 3.39-2.364 3.39-2.364s.618 2.158.72 2.158c.103 0 2.056-2.466 2.056-2.466s0 1.953.308 1.953 3.186-2.467 3.186-2.467 2.26 2.878 2.57 2.672c.308-.205.616-3.083.924-3.083s2.26-.308 2.26-.41-1.232-1.132-1.438-2.57c-.205-1.44.206-4.83.103-4.83s-13.875.513-14.08.205z" fill-rule="evenodd" fill-opacity=".996" transform="matrix(1.7 0 0 1.5 125.6 126.9)" stroke="#000" stroke-width=".625" fill="#fdc400"/><path d="M115.37 104.6h40.286c4.11 0 7.81-1.644 7.81-4.11 0-2.467-6.577-2.878-9.043-2.056-2.467.822-13.155 5.755-17.677 5.344s-8.632-3.29-9.043-6.166c-.412-2.878 2.055-5.344 6.577-5.344s10.277 1.644 11.51 1.233 4.11-3.7 5.344-4.11c1.233-.41 4.933-.822 4.933-.822l-1.644 1.233 5.344-1.232s-4.11 4.522-8.222 5.755c-4.11 1.234-12.743.822-16.032.822s-4.933-.41-4.522 2.056c.412 2.467 2.88 4.112 4.934 3.7 2.056-.41 8.222-2.466 8.222-2.466L142.5 97.2l7.4-.41s-.41-1.233 0-1.233 4.112.41 4.112.41-2.467-1.233-2.056-1.233 2.056 0 5.344.412c3.29.41 10.277 1.644 9.866 4.932-.41 3.29-2.877 6.166-5.755 6.166s-5.343-.822-5.343.412c0 1.233 3.29 2.055 5.344 2.055s4.523-1.643 4.934-1.643 1.233 2.466 1.644 2.466 2.878-.822 2.878-.822l-1.644 4.523 2.877.822s-1.645 1.644-1.234 1.644 2.877 0 2.877.41-3.288 2.878-3.288 3.29 2.466 1.643 2.466 1.643-1.643 2.467-2.054 2.056-2.056-2.468-2.056-2.468-.41 1.645-1.233 1.645-2.466-.41-2.466-.41 1.234-2.468.823-2.468-2.467 1.643-2.467 1.232l-1.232-1.236s3.288-1.336 3.288-3.29c0-1.95-1.336-3.904-7.296-4.212-5.96-.31-6.064 1.438-10.483 1.233-4.42-.206-4.42-1.953-7.708-1.953-3.288 0-13.463 4.11-18.19 4.008-4.727-.102-10.688-.41-10.483-.616.206-.206 3.906-9.66 4.008-9.966z" fill-rule="evenodd" fill-opacity=".996" transform="matrix(1.7 0 0 1.5 125.6 126.9)" stroke="#000" stroke-width=".625" fill="#fdc400"/><path d="M106.88 102.46c-.41.206-4.008.72-4.214 4.522-.205 3.803.31 3.803.72 3.597.41-.206 1.233-3.495 1.233-3.495s-1.234 4.522.102 5.55c1.336 1.027 2.775 1.438 2.775 1.438l.513-3.597s-1.027 3.495 1.44 4.728c2.466 1.233 3.39.308 3.185-.617-.205-.925-.925-3.288-.925-3.288s1.953 2.157 2.056 2.362c.102.206 1.027 1.85 3.494 1.13 2.466-.72.72-2.363.72-2.363l-2.98-2.46s3.082 3.184 4.418 2.054-1.028-3.597-.925-3.494 1.953 3.494 2.672 1.336-1.13-2.775-1.747-4.83c-.617-2.056-1.13-2.26-.514-3.495.617-1.232.72-3.596.72-3.596s2.57.617 2.363-1.54c-.205-2.16-2.775-2.673-3.288-2.776-.515-.103-.413-2.26-.618-2.158-.206.103-1.85 1.336-1.85 1.336s-1.44-3.392-1.747-3.186-1.953 1.953-3.186 2.055c-1.234.103-1.954 1.85-1.954 1.85s-4.316-2.055-4.213 1.336c.103 3.393 2.57 2.57 2.57 2.673s-.412 4.728-.823 4.933z" fill-rule="evenodd" fill-opacity=".996" transform="matrix(1.7 0 0 1.5 126.8 126.6)" stroke="#000" stroke-width=".625" fill="#fdc400"/><path d="M310.765 269.092c.832-.255 2.057-1.318 3.476-1.19s3.695 1.218 2.57 1.813c-1.128.595-1.96.85-3.233.55-1.272-.3-2.25-.938-2.812-1.173zM324.882 268.94c-.833-.254-2.058-1.317-3.477-1.188s-3.694 1.217-2.568 1.812c1.128.595 1.96.85 3.232.55 1.27-.3 2.25-.938 2.812-1.173z" fill-opacity=".996" fill-rule="evenodd"/><path d="M110.99 103.17c.103.514.41 4.83.616 4.522.206-.308 1.748-4.42 1.645-4.42s-2.157.104-2.26-.102z" fill-rule="evenodd" fill-opacity=".996" transform="matrix(1.7 0 0 1.5 127 126.7)" stroke="#000" stroke-width=".375" fill="#000039"/><path d="M109.96 103.17c.05-1.215.822-1.13 2.467-.925 1.644.206 2.466 1.028 2.363 1.234-.102.204-1.438.718-2.57.615-1.335-.41-2.297.09-2.26-.925z" transform="matrix(1.7 0 0 1.5 127 126.9)" stroke="#000" stroke-width=".75" fill="none"/><path d="M112.43 100.08l-.206 1.953M119.32 94.844s1.336.617 1.13 1.233c-.205.617-1.13.925-1.13.925M108.12 94.33c-.308.103-.72.308-.925 1.13-.205.823.925 1.337.925 1.337" transform="matrix(1.7 0 0 1.5 127 126.9)" stroke="#000" stroke-width="1pt" fill="none"/><path d="M111.19 136.13s-1.454 1.454 1.017 1.454.727-1.308.727-1.308" transform="matrix(1.7 0 0 1.5 127.2 71.9)" stroke="#000" stroke-width="1pt" fill="none"/><path fill-rule="evenodd" fill="#fdc400" d="M323.643 438.01l7.193-23.638-19.977-14.86 25.02-.56 8.16-23.327 8.273 23.288 25.02.45-19.91 14.95 7.302 23.603-20.573-14.047"/><path fill-rule="evenodd" fill-opacity=".996" fill="#003017" d="M327.05 431.675l5.993-18.778-16.647-11.804 20.85-.445 6.8-18.53 6.894 18.5 20.85.356-16.59 11.876 6.083 18.75-17.143-11.16"/><path fill-rule="evenodd" fill="#fdc400" d="M282.467 390.136l7.116-22.354-19.763-14.052 24.752-.53 8.072-22.06 8.183 22.023 24.752.425-19.697 14.138 7.223 22.32-20.35-13.284"/><path fill-rule="evenodd" fill-opacity=".996" fill="#003017" d="M285.847 384.142l5.93-17.758-16.47-11.163 20.627-.42 6.727-17.523 6.82 17.494 20.626.34-16.412 11.23 6.02 17.73-16.96-10.552"/><path fill-rule="evenodd" fill="#fdc400" d="M365.42 390.136l7.207-22.354-20.016-14.052 25.07-.53 8.177-22.06 8.29 22.023 25.07.425-19.95 14.138 7.316 22.32-20.614-13.284"/><path fill-rule="evenodd" fill-opacity=".996" fill="#003017" d="M368.84 384.142l6.006-17.758-16.68-11.163 20.89-.42 6.815-17.523 6.908 17.494 20.892.34-16.624 11.23 6.096 17.73-17.177-10.552"/><path fill="none" d="M223.666 402.987c9.01 38.77 47.03 67.544 98.24 74.348 65.775 8.74 128.525-24.586 140.064-74.388"/><path d="M223.505 408.985l12.353-6.98 1.163 2.54-4.844 2.738 1.603 3.503 4.844-2.737 1.162 2.54-12.353 6.978-1.162-2.54 5.6-3.163-1.604-3.503-5.598 3.163-1.163-2.54m5.17 10.808l11.534-8.537 3.946 6.582-1.917 1.42-2.526-4.21-2.666 1.972 2.35 3.92-1.827 1.352-2.35-3.92-3.175 2.35 2.585 4.31-1.947 1.443-4.007-6.682m8.037 12.397l10.173-10.455 1.742 2.092-3.99 4.1 2.4 2.885 3.99-4.1 1.743 2.092-10.173 10.455-1.742-2.093 4.612-4.74-2.402-2.884-4.61 4.74-1.742-2.093M250 438.38l1.65 1.61 3-5.667-4.65 4.058m-6.456 1.93l11.485-9.288 2.604 2.538-6.77 13.885-2.09-2.037 1.782-3.41-2.232-2.176-2.797 2.42-1.983-1.93m10.022 9.31l6.843-10.37-2.395-1.95 1.35-2.048 6.873 5.6-1.35 2.047-2.396-1.95-6.844 10.37-2.083-1.698m5.62 4.493l7.22-13.144 2.19 1.486-2.832 5.155 3.018 2.048 2.833-5.155 2.19 1.484-7.22 13.144-2.19-1.484 3.273-5.957-3.02-2.048-3.27 5.957-2.19-1.485m13.57 8.587l5.826-13.97 6.573 3.382-.954 2.287-4.228-2.176-1.377 3.302 3.993 2.055-.93 2.233-3.993-2.055-2.565 6.15-2.343-1.205m12.854-2.122c-.808 2.37-1.195 3.914-1.16 4.635.045.717.403 1.218 1.077 1.5.66.28 1.215.172 1.66-.325.454-.5 1.09-1.947 1.907-4.34s1.207-3.947 1.17-4.662c-.04-.715-.392-1.213-1.06-1.494-.667-.282-1.23-.17-1.684.337-.455.508-1.092 1.958-1.91 4.35m-2.464-1.04c.52-1.525 1.002-2.717 1.442-3.572.442-.862.88-1.465 1.31-1.81.6-.496 1.21-.774 1.826-.835.618-.06 1.352.09 2.205.45.852.358 1.49.788 1.917 1.29.425.5.717 1.157.875 1.972.113.59.076 1.365-.11 2.327-.183.965-.534 2.207-1.053 3.728-.52 1.514-.998 2.702-1.44 3.564-.44.855-.875 1.463-1.306 1.823-.605.494-1.217.77-1.834.83-.617.06-1.352-.088-2.205-.448-.852-.36-1.492-.79-1.917-1.29-.426-.5-.715-1.158-.868-1.97-.117-.578-.085-1.348.097-2.313.184-.97.537-2.22 1.058-3.746m11.92-3.27l2.475.82-2.665 9.947c-.305 1.137-.39 1.95-.25 2.44.144.488.536.836 1.174 1.047.63.21 1.123.15 1.474-.18.357-.326.69-1.068 1-2.224l2.656-9.91 2.44.81-2.73 10.185c-.265.99-.51 1.698-.738 2.124-.22.42-.493.765-.82 1.032-.496.4-1.072.633-1.73.7-.654.062-1.384-.04-2.19-.306-1.516-.503-2.49-1.222-2.923-2.157-.425-.94-.393-2.322.095-4.143l2.73-10.186m6.628 18.158l3.026-15.026 2.59.644 1.405 11.384 2.046-10.526 2.38.592-3.025 15.026-2.573-.64-1.428-11.41-2.05 10.545-2.37-.59m13.546.766l1.13.197c.574.1.984.124 1.228.072.244-.052.45-.178.618-.378.293-.354.538-.865.735-1.532.2-.674.405-1.768.618-3.283.208-1.476.3-2.56.277-3.252-.024-.693-.154-1.235-.39-1.627-.125-.196-.3-.348-.528-.455-.22-.113-.58-.212-1.08-.3l-1.092-.19-1.515 10.748M312.426 477l2.144-15.212 4.098.714c.836.145 1.49.34 1.958.583.476.245.85.573 1.12.984.405.603.65 1.32.734 2.15.09.827.017 2.076-.22 3.748-.303 2.16-.587 3.676-.85 4.548-.26.865-.6 1.583-1.013 2.15-.402.572-.903.934-1.5 1.086-.592.147-1.578.1-2.96-.14l-3.51-.61m10.718 1.76l1.332-15.325 7.085.76-.22 2.548-4.533-.487-.31 3.543 4.22.454-.212 2.428-4.22-.452-.365 4.22 4.64.497-.226 2.588-7.192-.772m11.707-1.24l1.142.045c.58.024.99-.006 1.227-.09.238-.085.43-.237.574-.458.253-.39.442-.93.566-1.618.125-.696.212-1.81.26-3.342.05-1.492.025-2.58-.073-3.264-.098-.685-.285-1.206-.562-1.564-.144-.18-.335-.306-.572-.383-.232-.083-.6-.135-1.103-.155l-1.106-.044-.352 10.873m-2.6 2.167l.498-15.388 4.146.166c.845.034 1.514.14 2.006.32.5.18.904.457 1.216.83.47.545.79 1.225.96 2.04.178.806.24 2.056.185 3.748-.07 2.185-.19 3.728-.357 4.628-.167.894-.426 1.65-.776 2.27-.338.62-.796 1.046-1.374 1.276-.572.224-1.556.308-2.953.252l-3.552-.142m15.438.2l-.55-15.385 2.58-.114.55 15.387-2.58.114m6.893-.404l-.946-12.815-2.96.27-.187-2.53 8.493-.775.187 2.53-2.96.27.948 12.816-2.574.236m9.092-16.51l2.545-.49 1.6 10.224c.182 1.17.434 1.94.754 2.31.325.364.816.482 1.472.356.65-.126 1.066-.423 1.25-.89.187-.47.19-1.3.003-2.488l-1.594-10.186 2.51-.485 1.638 10.472c.16 1.017.223 1.772.19 2.266-.027.485-.134.93-.32 1.33-.284.603-.706 1.097-1.267 1.483-.56.378-1.255.648-2.083.808-1.56.3-2.72.14-3.483-.485-.756-.632-1.28-1.883-1.574-3.755l-1.638-10.472m13.788 3.905l1.05-.283c.78-.21 1.29-.528 1.532-.95.24-.43.27-1.054.09-1.876-.183-.828-.454-1.362-.815-1.6-.357-.247-.94-.26-1.75-.042l-1.084.294.977 4.46m-.578 9.067l-3.28-14.962 4.355-1.178c1.33-.36 2.357-.288 3.085.215.728.503 1.256 1.506 1.586 3.008.323 1.477.253 2.662-.212 3.556-.46.885-1.33 1.5-2.605 1.846l-1.826.495 1.39 6.345-2.49.674m9.895-10.842c.688 2.415 1.248 3.892 1.68 4.432.435.532.995.677 1.682.436.674-.238 1.048-.705 1.12-1.402.075-.705-.235-2.277-.932-4.717s-1.26-3.927-1.688-4.46c-.43-.535-.985-.682-1.665-.442-.68.24-1.058.715-1.132 1.426-.074.713.238 2.288.934 4.728m-2.514.886c-.444-1.557-.733-2.822-.867-3.796-.136-.98-.13-1.755.016-2.324.193-.802.514-1.44.964-1.913.45-.473 1.11-.863 1.98-1.17.868-.305 1.61-.41 2.223-.31.614.098 1.21.412 1.79.942.417.384.822 1.018 1.212 1.9.397.883.816 2.1 1.26 3.65.44 1.543.727 2.805.862 3.785.134.975.132 1.75-.004 2.33-.2.805-.523 1.444-.973 1.917-.45.474-1.11.863-1.98 1.17-.87.306-1.61.41-2.223.31-.614-.097-1.207-.412-1.78-.945-.415-.372-.82-.998-1.217-1.88-.398-.887-.82-2.11-1.264-3.666m12.667 3.52l-5.156-14.294 2.464-1.097 6.956 8.503-3.672-9.965 2.263-1.007 5.156 14.293-2.447 1.09-6.987-8.51 3.68 9.983-2.257 1.003m16.05-7.884l-5.406-11.37-2.626 1.542-1.067-2.245 7.535-4.424 1.068 2.246-2.626 1.54 5.407 11.37-2.284 1.34m6.1-3.638l-7.4-13.018 2.17-1.522 2.9 5.106 2.992-2.098-2.903-5.106 2.17-1.522 7.4 13.02-2.17 1.52-3.354-5.9-2.99 2.098 3.354 5.9-2.168 1.522m9.244-6.657l-8.352-12.288 5.68-4.766 1.388 2.043-3.633 3.05 1.932 2.84 3.382-2.838 1.323 1.946-3.382 2.84 2.3 3.383 3.72-3.122 1.41 2.076-5.767 4.84m7.13-13.214l1.84-2.01.625.705c.597.675 1.08 1.054 1.448 1.138.37.074.74-.092 1.113-.498.39-.425.588-.857.595-1.295.012-.443-.17-.88-.55-1.307-.29-.328-.608-.53-.955-.61-.352-.083-.927-.054-1.726.09l-1.6.288c-1.367.26-2.343.307-2.927.14-.58-.17-1.143-.564-1.69-1.182-.816-.92-1.21-1.913-1.18-2.973.03-1.06.477-2.062 1.342-3.006.915-1 1.863-1.487 2.843-1.463s1.93.556 2.85 1.597c.093.105.163.188.21.25.05.057.09.11.125.157l-1.746 1.907-.26-.293c-.524-.594-.988-.924-1.39-.99-.403-.064-.806.123-1.208.562-.295.322-.442.675-.44 1.056 0 .373.152.73.455 1.072.41.462 1.24.56 2.493.293.013-.004.024-.006.032-.006l1.69-.343c1.193-.257 2.13-.288 2.806-.093.674.19 1.334.65 1.982 1.384.883.998 1.307 2.05 1.273 3.15-.034 1.104-.528 2.176-1.483 3.218-.992 1.084-1.985 1.607-2.977 1.57-.988-.044-2-.65-3.034-1.82-.108-.123-.28-.337-.516-.64l-.038-.044m10.724-4.324l-10.622-9.89 4.572-6.062 1.766 1.644-2.925 3.878 2.457 2.286 2.722-3.61 1.682 1.567-2.722 3.61 2.924 2.724 2.994-3.97 1.793 1.67-4.64 6.154m2.697-13.786l1.227-2.023-5.44-2.59 4.213 4.612m2.54 6.87l-9.747-11.48 1.935-3.194 13.254 5.7-1.555 2.563-3.27-1.53-1.66 2.736 2.517 2.776-1.473 2.43m1.644-12.522l1.18-2.553.792.452c.758.432 1.323.623 1.697.574.37-.058.675-.345.914-.86.25-.54.315-1.02.2-1.44-.115-.423-.413-.773-.893-1.047-.368-.21-.728-.29-1.08-.245-.357.043-.895.273-1.612.687l-1.437.832c-1.225.725-2.14 1.11-2.74 1.157-.6.04-1.245-.138-1.94-.534-1.034-.59-1.688-1.394-1.96-2.41-.272-1.018-.13-2.125.423-3.323.586-1.27 1.348-2.064 2.284-2.383.937-.32 1.99-.147 3.16.52.116.067.206.122.267.164.063.037.117.072.163.105l-1.118 2.418-.328-.187c-.667-.38-1.2-.53-1.602-.452-.4.08-.73.397-.987.955-.19.41-.23.794-.12 1.156.107.352.352.638.736.858.518.295 1.334.098 2.45-.593.01-.01.02-.014.028-.017l1.506-.917c1.06-.66 1.94-1.016 2.638-1.068.693-.054 1.45.153 2.272.622 1.12.64 1.82 1.49 2.1 2.547.28 1.06.114 2.25-.497 3.573-.635 1.376-1.43 2.22-2.382 2.53-.95.304-2.08.082-3.394-.667-.14-.08-.363-.222-.672-.43l-.048-.026"/></g></svg>