<svg xmlns="http://www.w3.org/2000/svg" height="512" width="512"><defs><clipPath id="a"><path fill-opacity=".67" d="M124.02 0h496.06v496.06H124.02z"/></clipPath></defs><g clip-path="url(#a)" transform="matrix(1 0 0 1 -128 0)"><g fill-rule="evenodd" stroke-width="1pt"><path fill="red" d="M0 372.05h744.09v124.02H0zM0 0h744.09v124.02H0z"/><path fill="#fff" d="M0 124.02h744.09v248.03H0z"/></g><path d="M368.26 125.9c-7.567 15.108-12.613 15.108-25.224 25.18-5.044 5.037-12.61 7.555-2.522 12.592-10.09 5.035-15.134 7.554-20.18 17.626l2.523 2.518s9.587-4.7 10.09-2.518c1.677 2.013-12.62 9.738-14.464 10.912s-10.76 6.715-10.76 6.715c-12.61 10.072-20.18 7.553-27.746 22.662l25.224-2.517c5.046 17.626-12.61 20.144-25.223 27.698l-20.18 12.59c5.047 17.627 20.18 7.555 32.792 2.518l2.522 2.52v5.035l-25.224 12.592s-29.776 17.037-30.268 17.626c-.203.912 0 5.036 0 5.036 10.09 2.518 25.224 5.037 35.313 0 12.61-5.036 15.133-10.072 30.268-10.072-17.656 12.59-30.267 17.627-50.446 20.144v10.073c15.134 0 25.223 0 37.835-2.52l32.79-10.07c7.567 0 15.134 7.553 12.612 15.107-7.567 27.698-37.836 22.663-47.926 45.325l40.36-15.108c10.088-5.036 20.177-10.072 32.79-7.554 15.133 5.035 15.133 15.11 35.312 20.144l-5.044-12.59c5.044 2.518 10.09 2.518 15.133 5.036 12.613 5.037 15.135 10.072 30.268 7.554-12.61-15.11-15.133-12.59-25.223-22.662-10.09-15.11-15.134-37.77 0-40.29l17.657 5.037c17.655 2.516 17.655-2.52 42.878 7.553 15.135 5.036 20.18 12.59 37.836 7.554-7.567-17.626-35.313-30.217-52.97-35.253 20.18-12.59 15.134 5.036 42.88-2.52v-5.034c-20.178-15.11-27.746-27.7-55.492-27.7l42.88-5.036v-5.036s-42.29-11.095-43.273-11.49c.294-1.277 1.328-3.26 4.136-4.356 8.03 5.2 32.32 4.593 33.698 4.495-.71-6.196-12.218-11.312-22.307-16.347 0 0-43.2-26.628-43.416-28.985.858-6.75 17.745 1.072 35.85 6.32-5.045-10.07-15.135-15.107-25.224-17.625l15.134-2.518c-10.09-22.663-35.313-20.145-50.446-30.217-10.09-7.554-10.09-12.59-25.224-20.145z" fill="#007900"/><path stroke-linejoin="round" d="M341.01 293.63c1.872-6 4.337-11.31-6.895-16.426-11.233-5.114 5.614 20.457 6.895 16.426zM354.31 281.63c-2.264.295-3.45 8.56 1.082 10.82 5.027.786.89-10.72-1.082-10.82zM367.42 280.75c-2.366.69-2.464 12.296 5.814 10.23 8.276-2.063-.1-11.212-5.814-10.23zM382.69 250.94c1.773-2.853-.098-14.557-7.194-9.64-7.093 4.92 4.927 10.427 7.194 9.64zM367.22 241.21c2.17-.787 2.366-7.967-3.84-6.098-6.206 1.87 2.168 7.574 3.84 6.098zM353.23 244.06s-4.336-6-7.686-4.722c-4.237 4.033 7.98 4.82 7.686 4.722zM305.18 263.23c1.846.168 15.528-2.256 20.257-7.567 4.73-5.312-24.345 2.273-24.345 2.37s2.747 4.694 4.088 5.197zM441.91 229.36c.705-1.255-7.283-6.95-12.03-4.705-1.222 4.204 11.99 5.57 12.03 4.705zM415 215.83c1.48-2.164-3.447-11.016-13.3-6.098s10.344 9.54 13.3 6.098zM383.87 210.62s2.462-7.967 8.375-6.394c6.7 5.116-8.08 6.69-8.375 6.394zM378.06 204.62c-.888-2.262-7.095-.885-14.188 3.738-7.096 4.623 16.355 1.378 14.188-3.738zM396.19 183.17s6.32-2.83 8.178 0c2.66 4.23-8.276.1-8.178 0zM390.88 180.41c-1.28-2.558-8.274-2.8-8.095.896-1.172 2.896 9.088 2.357 8.095-.896zM374.21 180.42c-.69-1.476-10.638.028-13.595 6 4.746 2.308 15.765-2.262 13.595-6zM352.93 186.52s-13.09 8.002-13.893 13.87c.397 5.065 16.256-9.15 16.256-9.15s1.38-5.606-2.363-4.72zM338.45 179.24c.366-1.628 6.467-5.4 6.995-5.115.494 1.64-4.983 6.083-6.995 5.115zM342.59 209.83c.295-2.36-15.568-2.165-9.557 5.114 5.005 6.105 10.642-4.032 9.557-5.114zM328.14 220.28c-.827-1.596-2.017-5.85-4.19-6.242-1.77-.1-11.308 1.868-12.037 3.483-.394 1.28 3.948 9.142 5.427 9.34 1.675.687 10.505-5.793 10.8-6.58zM413.72 273.66c.492-1.67 16.702-7.273 22.3-1.915 6.6 9.05-22.693 4.77-22.3 1.915zM458.28 284.26c3.552-6.01-10.907-13.137-17.044-6.27 2.098 8.253 14.173 11.24 17.044 6.27z" fill-rule="evenodd" stroke="#fff" stroke-linecap="round" stroke-width="3.119" fill="#fff"/></g></svg>