<svg xmlns="http://www.w3.org/2000/svg" height="512" width="512"><defs><clipPath id="a"><path fill-opacity=".67" d="M0 .354h495.71v495.71H0z"/></clipPath></defs><g fill-rule="evenodd" clip-path="url(#a)" transform="matrix(1 0 0 1 0 -.4)"><g stroke-width="1pt"><path fill="#e4104d" d="M0 248.03h744.09v248.03H0z"/><path fill="#8a85ff" d="M0 .354h744.09v247.68H0z"/></g><path d="M145.2 150.51l48.58-.185s17.94-21.555 8.442-35.678c-9.497-14.122-46.733-.446-46.883-.446-.15 0-.302-7.58-9.498-7.73-9.196.15-9.347 7.73-9.497 7.73-.15 0-37.387-13.675-46.883.447-9.498 14.123 8.442 35.678 8.442 35.678l47.3.184z" fill="#f3ef7d"/><path d="M145.227 150.506l46.635-.18s17.223-20.938 8.105-34.657c-9.118-13.72-44.864-.435-45.008-.435-.145 0-.29-7.365-9.118-7.51-8.828.145-8.973 7.51-9.118 7.51-.144 0-35.89-13.285-45.007.434-9.118 13.718 8.104 34.657 8.104 34.657l45.41.18z"/><g stroke-width="1pt" fill="#f3ef7d"><path d="M199.445 121.21h-.553v6.63h.553zM197.435 117.612h-.553v13.634h.553zM195.515 115.747h-.65v17.935h.65zM193.055 114.436h-.703v21.45h.703zM190.265 113.668h-.703v24.04h.703zM187.415 112.737h-.697v26.196h.697zM184.995 112.534h-.703v27.3h.703zM182.565 112.534h-.703v28.07h.703zM179.525 112.594h-.65v29.277h.65zM176.675 112.876h-.8v29.293h.8zM173.555 113.595h-.8v28.86h.8zM170.505 114.715h-.75v27.946h.75zM167.315 115.996h-.703v26.46h.703zM164.675 116.86h-.703v24.685h.703zM161.865 118.528h-.6v22.263h.6zM159.405 120.688h-.505v19.025h.505zM157.195 122.8h-.6v15.474h.6zM155.035 126.033h-.54v9.88h.54z"/></g><g stroke-width="1pt" fill="#f3ef7d"><path d="M91.955 120.547h.553v6.63h-.553zM93.965 116.95h.553v13.633h-.553zM95.885 115.084h.65v17.935h-.65zM98.345 113.773h.703v21.45h-.703zM101.135 113.005h.703v24.04h-.703zM103.985 112.074h.697v26.196h-.697zM106.405 111.87h.703v27.302h-.703zM108.835 111.87h.703v28.07h-.703zM111.875 111.93h.65v29.278h-.65zM114.725 112.213h.8v29.293h-.8zM117.845 112.932h.8v28.86h-.8zM120.895 114.052h.75v27.946h-.75zM124.085 115.333h.703v26.46h-.703zM126.725 116.196h.703v24.686h-.703zM129.535 117.865h.6v22.263h-.6zM131.995 120.025h.505v19.025h-.505zM134.205 122.136h.6v15.475h-.6zM136.365 125.37h.54v9.88h-.54z"/></g><path d="M145.012 90.453l-.064-1.003c0-.2-1.41-1.337-1.41-4.212s1.218-4.01 1.858-4.01 2.05.935 2.113 3.943c.063 3.01-1.41 4.146-1.41 4.146l-.127 1.204s1.024.066 1.088.066c.065 0 1.41-1.203 4.868-1.07s3.65 1.605 3.714 2.073c.064.467-.512 1.87-3.97 1.87s-4.483-1.67-4.547-1.67c-.064 0-1.088-.067-1.088-.067v.87s1.344 1.07 1.28 4.612c-.064 3.543-1.41 3.744-1.793 3.744-.512 0-1.6-.202-1.665-3.678.127-3.543 1.024-4.546 1.024-4.613v-.87h-.96s-1.025.87-4.547.936c-3.522.067-3.715-1.003-3.78-1.605-.063-.6.642-1.67 3.716-1.737 3.073-.067 4.546 1.07 4.546 1.07h1.152z" fill="#f3ef7d"/><g transform="matrix(.3 0 0 .4 69.7 71.5)" stroke-width="1pt" fill="#f3ef7d"><rect rx="5.828" ry="5.828" height="11.656" width="11.656" y="105.59" x="188.99"/><rect rx="5.828" ry="5.828" height="11.656" width="11.656" y="103.23" x="177.22"/><rect rx="5.828" ry="5.828" height="11.656" width="11.656" y="99.703" x="164.86"/><rect rx="5.828" ry="5.828" height="11.656" width="11.656" y="96.759" x="152.49"/><rect rx="5.828" ry="5.828" height="11.656" width="11.656" y="94.404" x="139.54"/><rect rx="5.828" ry="5.828" height="11.656" width="11.656" y="92.638" x="126.59"/><rect rx="5.828" ry="5.828" height="11.656" width="11.656" y="91.461" x="114.23"/><rect rx="5.828" ry="5.828" height="11.656" width="11.656" y="90.872" x="101.27"/><rect rx="5.828" ry="5.828" height="11.656" width="11.656" y="92.638" x="88.911"/><rect rx="5.828" ry="5.828" height="11.656" width="11.656" y="94.404" x="75.96"/><rect rx="5.828" ry="5.828" height="11.656" width="11.656" y="98.525" x="64.185"/><rect rx="5.828" ry="5.828" height="11.656" width="11.656" y="106.18" x="53"/><rect rx="5.828" ry="5.828" height="11.656" width="11.656" y="116.78" x="45.346"/><rect rx="5.828" ry="5.828" height="11.656" width="11.656" y="127.96" x="40.637"/><rect rx="5.828" ry="5.828" height="11.656" width="11.656" y="140.32" x="38.871"/><rect rx="5.828" ry="5.828" height="11.656" width="11.656" y="153.28" x="39.459"/><rect rx="5.828" ry="5.828" height="11.656" width="11.656" y="165.64" x="42.403"/><rect rx="5.828" ry="5.828" height="11.656" width="11.656" y="178" x="47.113"/><rect rx="5.828" ry="5.828" height="11.656" width="11.656" y="188.6" x="52.411"/></g><g transform="matrix(-.3 0 0 .4 222 71.5)" stroke-width="1pt" fill="#f3ef7d"><rect rx="5.828" ry="5.828" height="11.656" width="11.656" y="105.59" x="188.99"/><rect rx="5.828" ry="5.828" height="11.656" width="11.656" y="103.23" x="177.22"/><rect rx="5.828" ry="5.828" height="11.656" width="11.656" y="99.703" x="164.86"/><rect rx="5.828" ry="5.828" height="11.656" width="11.656" y="96.759" x="152.49"/><rect rx="5.828" ry="5.828" height="11.656" width="11.656" y="94.404" x="139.54"/><rect rx="5.828" ry="5.828" height="11.656" width="11.656" y="92.638" x="126.59"/><rect rx="5.828" ry="5.828" height="11.656" width="11.656" y="91.461" x="114.23"/><rect rx="5.828" ry="5.828" height="11.656" width="11.656" y="90.872" x="101.27"/><rect rx="5.828" ry="5.828" height="11.656" width="11.656" y="92.638" x="88.911"/><rect rx="5.828" ry="5.828" height="11.656" width="11.656" y="94.404" x="75.96"/><rect rx="5.828" ry="5.828" height="11.656" width="11.656" y="98.525" x="64.185"/><rect rx="5.828" ry="5.828" height="11.656" width="11.656" y="106.18" x="53"/><rect rx="5.828" ry="5.828" height="11.656" width="11.656" y="116.78" x="45.346"/><rect rx="5.828" ry="5.828" height="11.656" width="11.656" y="127.96" x="40.637"/><rect rx="5.828" ry="5.828" height="11.656" width="11.656" y="140.32" x="38.871"/><rect rx="5.828" ry="5.828" height="11.656" width="11.656" y="153.28" x="39.459"/><rect rx="5.828" ry="5.828" height="11.656" width="11.656" y="165.64" x="42.403"/><rect rx="5.828" ry="5.828" height="11.656" width="11.656" y="178" x="47.113"/><rect rx="5.828" ry="5.828" height="11.656" width="11.656" y="188.6" x="52.411"/></g><g stroke-width="1pt" transform="translate(-16.4 221.8)"><path d="M227.04-79.384L215.936-46.58s-18.36-7.677-52.782-7.677c-34.424 0-50.108 6.716-50.108 6.716l-16.15-32.235c14.367-2.67 18.746 9.57 18.746 9.57s.978-14.295 12.26-16.832c9.532-1.652 17.954 10.712 17.954 10.712s1.985-13.914 16.07-14.296c14.085.38 16.07 14.295 16.07 14.295s8.422-12.363 17.953-10.712c11.282 2.537 12.26 16.834 12.26 16.834s4.38-12.243 18.83-9.182z" fill="#f3ef7d"/><rect transform="translate(13.3 -218.3)" rx="51.429" ry="8.13" height="16.261" width="102.86" y="162.27" x="100.1"/><g transform="matrix(.3 0 0 .4 86.1 -150.3)"><rect rx="3.434" ry="4.651" height="9.301" width="6.868" y="175.06" x="228.46"/><rect rx="3.434" ry="4.651" height="9.301" width="6.868" y="177.41" x="237.82"/><rect rx="3.434" ry="4.651" height="9.301" width="6.868" y="175.06" x="219.87"/><rect rx="3.434" ry="4.651" height="9.301" width="6.868" y="182.12" x="203.48"/><rect rx="3.434" ry="4.651" height="9.301" width="6.868" y="177.41" x="211.28"/><rect rx="3.434" ry="4.651" height="9.301" width="6.868" y="189.19" x="197.23"/><rect rx="3.434" ry="4.651" height="9.301" width="6.868" y="182.71" x="245.63"/><rect rx="3.434" ry="4.651" height="9.301" width="6.868" y="189.19" x="252.65"/></g><g transform="matrix(.3 .1 -.1 .4 129.4 -157.7)"><rect rx="3.434" ry="4.651" height="9.301" width="6.868" y="175.06" x="228.46"/><rect rx="3.434" ry="4.651" height="9.301" width="6.868" y="177.41" x="237.82"/><rect rx="3.434" ry="4.651" height="9.301" width="6.868" y="175.06" x="219.87"/><rect rx="3.434" ry="4.651" height="9.301" width="6.868" y="182.12" x="203.48"/><rect rx="3.434" ry="4.651" height="9.301" width="6.868" y="177.41" x="211.28"/><rect rx="3.434" ry="4.651" height="9.301" width="6.868" y="189.19" x="197.23"/><rect rx="3.434" ry="4.651" height="9.301" width="6.868" y="182.71" x="245.63"/><rect rx="3.434" ry="4.651" height="9.301" width="6.868" y="189.19" x="252.65"/></g><g transform="matrix(.3 -.1 .1 .3 42.9 -131)"><rect rx="3.434" ry="4.651" height="9.301" width="6.868" y="175.06" x="228.46"/><rect rx="3.434" ry="4.651" height="9.301" width="6.868" y="177.41" x="237.82"/><rect rx="3.434" ry="4.651" height="9.301" width="6.868" y="175.06" x="219.87"/><rect rx="3.434" ry="4.651" height="9.301" width="6.868" y="182.12" x="203.48"/><rect rx="3.434" ry="4.651" height="9.301" width="6.868" y="177.41" x="211.28"/><rect rx="3.434" ry="4.651" height="9.301" width="6.868" y="189.19" x="197.23"/><rect rx="3.434" ry="4.651" height="9.301" width="6.868" y="182.71" x="245.63"/><rect rx="3.434" ry="4.651" height="9.301" width="6.868" y="189.19" x="252.65"/></g><rect transform="matrix(1 -.2 .2 1 13.3 -218.3)" rx="1.15" ry="1.647" height="3.295" width="2.299" y="155.25" x="57.043"/><rect transform="matrix(1 -.2 .2 1 13.3 -218.3)" rx="1.15" ry="1.647" height="3.295" width="2.299" y="156.09" x="60.179"/><rect transform="matrix(1 -.2 .2 1 13.3 -218.3)" rx="1.15" ry="1.647" height="3.295" width="2.299" y="157.96" x="62.792"/><rect transform="matrix(1 -.2 .2 1 13.3 -218.3)" rx="1.15" ry="1.647" height="3.295" width="2.299" y="160.26" x="65.144"/><g transform="matrix(.3 .1 -.1 .3 148.9 -220.3)"><rect rx="3.434" ry="4.651" height="9.301" width="6.868" y="285.4" x="359.08"/><rect rx="3.434" ry="4.651" height="9.301" width="6.868" y="292.46" x="342.69"/><rect rx="3.434" ry="4.651" height="9.301" width="6.868" y="287.75" x="350.49"/><rect rx="3.434" ry="4.651" height="9.301" width="6.868" y="299.53" x="336.44"/></g><path d="M154.13-76.395c8.052 6.397 8.196 18.41 8.196 18.41s-1.295-12.637 7.333-17.786c-4.458 1.404-4.315 1.092-6.76.936l-.574-4.057s-.432 2.027-1.294 3.9c-1.87.623-2.3.623-6.902-1.405zM122.316-71.72c9.24 4.202 12.04 15.84 12.04 15.84S130.3-67.836 137.546-75c-4.02 2.48-3.95 2.14-6.36 2.6l-1.457-3.797s.03 2.08-.395 4.114c-1.68 1.075-2.098 1.183-7.02.363zM187.687-75.48c6.304 8.325 3.635 20 3.635 20s1.7-12.584 11.26-15.29c-4.645.182-4.433-.082-6.764-.88l.39-4.08s-.89 1.85-2.164 3.435c-1.957.11-2.374-.004-6.357-3.185zM104.92-65.762c6.946 3.425 10.553 13.58 10.553 13.58s-4.514-10.4-.584-16.91c-2.4 2.3-2.4 2-3.986 2.474l-1.55-3.298s.322 1.828.326 3.63c-.995.994-1.267 1.1-4.76.524zM211.656-70.23c1.328 8.02-4.446 16.97-4.446 16.97s5.443-9.882 12.713-10.172c-3.144-.78-2.913-.952-4.186-2.065l1.66-3.237s-1.228 1.325-2.616 2.36c-1.335-.302-1.573-.478-3.124-3.856z"/></g><g stroke-width="1pt" transform="translate(-16.4 221.8)"><rect transform="translate(13.3 -218.3)" rx="3.362" ry="3.51" height="7.02" width="6.724" y="97.304" x="145.26" fill="#f3ef7d"/><path d="M161.658-121.016h.704v7.02h-.704z"/><rect transform="translate(13.3 -218.3)" rx="1.553" ry="1.756" height="3.512" width="3.106" y="119.51" x="147.36" fill="#f3ef7d"/><rect transform="translate(13.3 -218.3)" rx="1.454" ry="1.651" height="3.303" width="2.909" y="115.96" x="147.36" fill="#f3ef7d"/><rect transform="translate(13.3 -218.3)" rx="1.454" ry="1.547" height="3.094" width="2.909" y="112.61" x="147.36" fill="#f3ef7d"/><rect transform="translate(13.3 -218.3)" rx="1.258" ry="1.233" height="2.467" width="2.516" y="109.9" x="147.56" fill="#f3ef7d"/><rect transform="translate(13.3 -218.3)" rx="1.258" ry="1.442" height="2.885" width="2.516" y="106.76" x="147.56" fill="#f3ef7d"/><rect transform="translate(13.3 -218.3)" rx="1.061" ry="1.024" height="2.049" width="2.123" y="104.46" x="147.76" fill="#f3ef7d"/><path d="M165.368-117.9l.004.735-6.724.04-.004-.734z"/><rect transform="translate(13.3 -218.3)" rx="1.946" ry="2.07" height="4.139" width="3.892" y="123.07" x="146.97" fill="#f3ef7d"/></g></g></svg>