<svg xmlns="http://www.w3.org/2000/svg" height="512" width="512"><path fill-rule="evenodd" fill="#fc0" d="M0 0h512v512H0z"/><path fill-rule="evenodd" fill="#f60" d="M203.76 42.685h163.63v426.63H203.76z"/><path fill-rule="evenodd" fill="#060" d="M42.663 42.685h161.23v426.7H42.663z"/><path fill-rule="evenodd" fill="#991b33" d="M138.017 220.2H470.29v248.21H138.017z"/><g fill="#fc0"><path stroke-linejoin="round" d="M268.96 335.128l4.902.125s-5.53 4.65-4.274 10.934c5.782-8.545 7.918-6.912 7.918-6.912-1.76 1.885-5.153 4.524-2.514 10.306 2.263-5.906 6.913-10.43 6.913-10.43s-1.257 6.534 1.508 12.567c2.01-6.033 5.404-11.185 5.404-11.185s-.502 6.535 2.388 8.922c2.262-2.01 3.77-7.164 3.77-7.164s4.274 7.542 6.913 8.673c2.136-5.153 2.136-9.175 2.136-9.175s8.798 6.285 15.836 2.64c-6.285-2.262-8.42-7.54-8.42-7.54s11.437 5.026 16.338 2.764c-4.777-3.646-15.96-9.05-15.96-9.05s8.294 3.017 10.68 2.263c-1.13-1.634-4.775-3.645-4.775-3.645" fill-rule="evenodd" stroke="#991b33" stroke-linecap="round" stroke-width="1.379pt"/><path d="M337.606 273.818c15.155-1.38 38.57 11.004 50.982 19.264 0-2.758 0-5.502 2.744-6.88 2.758-1.38 6.895 1.378 5.516 5.5-4.137 9.627-20.67-1.378-26.174-4.122l2.758 5.502c-8.274-1.38-9.653-2.758-15.155-9.64-1.38 5.503-1.38 6.882-8.274 6.882 2.593-4.082 3.46-5.447 0-9.625l-1.38 8.245-6.88-9.625v9.625c-1.38-1.365-6.895-5.502-9.653-5.502-4.123-1.38-6.88 6.88-8.26 11.018 4.137-4.136 5.502-6.88 12.397-4.136-3.737 3.53-2.648 7.764 1.38 11.005 0 0 .716-5.724 1.157-7.034 2.193 1.64 6.84 7.805 12.618 8.412 4.137 0 8.274-1.38 12.397-2.745 13.776-1.38 44.086 1.366 37.205 22.01-1.38 4.136-2.758 6.88-5.516 9.638 19.29 6.883 2.757 31.65-1.38 44.033-2.758 11.004-.84 19.775 12.742 18.354-2.745 5.503-7.226 6.413-12.742 6.413 0 0 .69 3.31 4.233 4.868-5.888 5.28 2.04 13.197-1.475 17.154-5.93 2.84-13.776-1.38-13.776-1.38l-.387 3.904s-10.41-.717-10.632-1.158c0 0 2.965-5.544 2.745-5.654-2.758 4.123-5.392 6.536-11.02 5.654 0 0 .443-2.593 3.518-5.875-4.18 4.165-4.634 5.985-9.02 5.875 0-6.882 4.124-15.128 12.398-12.384 1.38 0 5.723 3.42 7.764 1.214 1.655-2.372.676-10.398.676-13.156.87-12.163-1.558-11.446-8.44-18.327-5.516-4.123-9.545-10.444-16.426-11.823-6.895-1.38-18.02 6.32-23.537 9.065-13.775 8.26-26.173 13.763-41.328 16.52 0 0 .3-.703.3-2.08 0-.927 14.875-12.505 17.477-32.833-4.073 20.063-18.536 30.662-19.08 34.39-.544 3.728-3.498 10.09-3.857 10.506 1.79-1.073 7.527-3.885 14.798-4.48-1.566 8.617-9.638 6.88-11.017 11.004 0 4.137 5.516 9.64 0 12.384h-22.036s3.39-4.695 3.552-5.988c-2.967 1.8-4.85 6.523-11.346 6.04.237-1.778 3.348-4.56 2.826-5.65-3.717 3.446-5.46 6.352-10.202 5.598 1.38-4.124 1.38-9.626 6.895-9.626 4.137-1.38 8.274 1.38 11.018-2.758 5.517-6.88-1.004-21.934-2.37-30.194 0-6.882.02-8.186-1.752-16.582l1.38 24.767c-5.517-4.137-11.033-6.88-15.17-12.383-9.64-12.384-6.88-26.146 5.516-34.406 5.516-4.123 8.494-6.275 15.39-9.02-1.38-4.136 1.958-7.183-2.924-8.466-1.462 2.55-2.896 5.337-5.68 5.102l1.488-6.88s-4.965.303-3.985 9.183c-5.71-2.744-2.91-9.184-2.91-9.184h-2.758s-.014 8.192-4.51 9.847c1.214-3.847 1.752-9.846 1.752-9.846s-7.378 8.8-11.667 5.945c2.524-2.855 4.482-3.324 4.137-6.77-.33-3.435-2.11-7.865-2.432-8.565 1.56.754 11.954 3.857 18.473.625-.432 2.154-.237 4.643-.237 4.643 6.882-1.38 8.26-1.38 15.156 1.365-1.38-9.625-6.895-11.004-12.397-17.885v5.502c-5.517-1.365-6.896-2.744-9.654-8.247l-4.123 2.745c-7.268-4.29-12.632-14.466-2.317-13.873 6.15.772.938 5.626.938 5.626s15.775-4.963 22.036-5.515c0 0-1.82-3.847-7.64-4.51 4.827-3.626 9.68-4.798 13.156 2.842 3.46.193 6.688-3.972 4.633-9.378 5.116-.083 7.64 3.157 9.97 6.563 1.903.345 3.82-1.654 3.364-8.494 4.827 4.122 7.2 5.39 7.516 8.866 4.11.91 6.895-.014 13.087-2.772-1.366 5.516-1.366 6.88-6.882 9.64 3.89 4.805 4.3 10.605 3.484 12.713-1.35-.39-1.688-.48-2.646-.742.3 2.126.73 7.975.54 11.416h-2.758l4.137 12.384-2.758 4.137c9.64-4.136 19.293-2.757 28.932-5.5 11.018-1.38 22.05-5.517 34.447-5.517 8.26 0 8.26 4.137 19.293 4.137v-6.88c0-5.503-4.137-11.005-11.032-12.384-4.124 0-11.02 2.744-15.156 4.123-5.503 1.378-13.777 1.378-19.293 1.378-17.9-2.758-15.045-4.496-21.292-7.847-3.737.994-5.833 4.166-7.694 9.765-3.46-5.075-2.69-11.556 1.435-14.3-4.124-15.142 6.895-22.023 20.67-24.767z"/><path stroke-linejoin="round" d="M341.743 397.666c-2.758-4.137-12.41-11.02-9.653-17.9 4.137-6.88 27.566-17.886 31.69-2.744 1.378 4.123-2.872 15.068-4.25 19.205 2.086-.536 4.405-3.74 11.195-2.58-1.264 5.406-9.524 9.575-9.524 9.575.84 3.657-5.68 20.576-5.68 20.576h-17.914l2.758-5.503-4.137 5.503h-6.895l5.516-6.882s-6.524 7.643-12.084 7.338c1.38-11.004 7.947-12.84 17.6-8.703 1.38-5.5 4.123-12.382 1.38-17.884z" stroke="#991b33" stroke-width="1.379"/><path d="M267.966 294.036c-1.857 1.143-.34 8.702 2.513 7.416 3.555-1.604-1.103-8.284-2.514-7.416z" fill-rule="evenodd" stroke="#991b33" stroke-width="1.379pt"/><path stroke-linejoin="round" d="M269.718 291.65c3.393 2.387 8.798 8.797 15.458 8.42-5.028-4.148-4.02-7.164-4.02-7.164 2.64 3.142 11.435 6.033 14.326 4.776-3.393-2.514-4.022-2.765-4.776-5.153 4.023.502 9.05 1.382 13.07-.378M276.254 333.625l.377-5.782s3.77 8.798 6.536 8.923c-1.76-6.408-1.006-11.562-1.006-11.562M285.052 326.588s7.54 13.824 11.185 11.562c-5.53-4.902-4.9-11.31-4.9-11.31s2.513 8.545 9.928 11.185c.502-4.776-2.89-12.568-2.89-12.568s6.157 10.808 9.3 11.06c2.01-2.513 1.256-5.154 1.256-5.154M279.15 317.037l5.53 7.038.88-9.426s5.404 4.272 6.41 4.146-1.51-10.054-1.51-10.054 7.29 11.06 7.793 10.808c.502-.25.753-10.934.753-10.934s5.53 15.208 7.417 15.082c1.885-.125 1.38-2.136 1.38-2.136" fill-rule="evenodd" stroke="#991b33" stroke-linecap="round" stroke-width="1.379pt"/><path stroke-linejoin="round" d="M275 304.72s8.545 7.792 9.425 7.29c.88-.504-3.518-9.05-3.518-9.05s4.9 4.65 6.786 5.027.63-6.033.63-6.033 5.78 4.902 6.785 4.65.503-4.65.503-4.65 3.77 3.77 4.022 3.77-.754-10.808-.754-10.808 8.422 8.924 9.05 8.798M240.814 307.484c.376.63 1.776 11.743 18.994 7.218 1.634-.88.916 3.106.844 4.273.754-.126 8.96-3.052 14.616 1.095-.664-4.596-1.904-7.684-6.805-10.323-2.387-.503-4.13.718-4.13.718s-20.754.16-23.52-2.98z" fill-rule="evenodd" stroke="#991b33" stroke-linecap="round" stroke-width="1.379pt"/><path stroke-linejoin="round" d="M231.423 378.25c-.286 1.286-1.186 1.657-3.758 5.373 1.143 1.572 6.403 4.03 7.83 2.744 1.288-.715 1.38-4.123 1.38-4.123 2.758 4.123 7.61 10.625 13.126 12.004 4.124 1.38 8.26-1.38 8.26-5.502s-6.23-10.782-8.974-13.526c-6.895-8.26-6.286-23.86-19.32-21.69-.068.118-.59 1.893-1.84 2.21 1.048 2.003 1.635 3.697-.87 4.327 1.948 1.914 2.254 3.304-.25 4.265 1.515 2.033 3.29 2.78-.2 4.518 3.652 3.558 4.438 8.792 4.617 9.4" stroke="#991b33" stroke-linecap="round" stroke-width="1.379"/><path d="M228.03 261.63c-4.143 6-4.574 72.028-3.287 85.32-4.144 2.714-11.86 1.57-14.005.713 1-4.716 4.573-81.318 17.293-86.034z" fill-rule="evenodd" stroke="#991b33" stroke-width="1.379pt"/><path d="M216.31 396.962s-18.295 2.572-10.578-8.288c6.575-2.858 6.432 3.86 4.002 6.145 3.002.333 5.003-1.62 5.43-4.575-3.715-5.002 1.573-8.29 1.287-8.29-12.717 2.86-14.433-5.858-9.717-7.287 5.956.332 4.05 2.238 6.432 4.002 4.287-3.954 6.86-4.334 9.432-.286 2.572-4.002 6.29-3.573 6.43-3.144 4.146 7-5 7.43-8.716 6.573 3.145 3.43 1.858 6.717.857 9.148.095 2.382 1.907 2.763 4.86 3.716-6.287-17.34 22.152 4.62-6.432 2.43.048.76.097 1.523.144 2.286 2.333.43 3.952 1 4.713 3.43-.998 1.333-2.57 1.523-5 .572 0 0 1.43 4.002-1.143 5.145-2.144-1.288-2.43-4.432-2.43-4.432-1.19 1.477-2.954.523-4.43-.714 1.334-3.288 5.098-1.717 4.86-6.432zM200.588 344.09c1.095-4.955 12.624-4.336 7.146 1 3.667 5.86 14.91 5.004 19.15 1.717-3.574-6.814 6.147-5.337 5.718-.144-1.192 9.193-33.252 7.956-32.014-2.572z" fill-rule="evenodd"/><path d="M429.378 431.796c3.434 6.426 9.53 21.653 12.908 25.29 3.165 2.83 11.046 2.497 13.473-.703 0 0 5.046 5.2 7.087 6.77 1.213-.412 1.958-1.57 1.958-1.57-2.055-2.235-4.854-3.49-6.233-7.627 2.054-2.744 3.185-8.08 1.806-12.218-6.026-10.094-26.077-6.11-31-9.942zM179.13 256.452c-3.433-6.426-9.53-21.653-12.906-25.29-3.165-2.83-11.046-2.497-13.473.702 0 0-5.046-5.2-7.087-6.77-1.214.413-1.958 1.57-1.958 1.57 2.054 2.235 4.854 3.49 6.233 7.627-2.055 2.745-3.186 8.082-1.807 12.22 6.028 10.093 26.078 6.108 31 9.942zM177.09 430.817c-6.426 3.433-21.653 9.53-25.29 12.907-2.83 3.165-2.497 11.046.703 13.473 0 0-5.2 5.047-6.77 7.088.413 1.214 1.57 1.958 1.57 1.958 2.235-2.055 3.49-4.854 7.627-6.233 2.744 2.055 8.08 3.186 12.218 1.807 10.094-6.027 6.11-26.077 9.942-31zM429.902 256.45c3.434-6.426 9.53-21.653 12.908-25.29 3.165-2.83 11.046-2.496 13.473.703 0 0 5.047-5.2 7.088-6.77 1.214.413 1.96 1.57 1.96 1.57-2.056 2.235-4.855 3.49-6.234 7.627 2.054 2.744 3.185 8.08 1.806 12.218-6.026 10.094-26.077 6.11-31 9.942z" stroke="#991b33" stroke-width="1.379"/><path stroke-linejoin="round" d="M205.746 355.385c-.27 2.094 4.726 3.005 9.847 3.03 5.122.026 10.372-.834 10.608-2.286.068-2.6-4.47-.39-9.636-.433-5.164-.04-9.468-2.067-10.818-.312zM206.16 361.19c.066 1.96 5.03 2.43 9.417 2.566 4.39.135 8.81-.742 9.62-2.16-.778-2.228-5.654-.37-9.622-.27-3.966.102-8.37-1.958-9.415-.135zM207.58 366.39c-.338 1.485 4.034 2.548 8.06 2.573s9.73-1.528 9.762-3.114c-.236-1.25-5.873.438-9.66.565-3.79.126-8.162-1.375-8.162-.025zM207.097 371.727c.338 1.45 5.3 1.94 9.663 1.612 4.363-.33 8.8-1.68 9.172-3.234-.202-.98-5.214.76-9.366.97s-9.536-.498-9.47.65z" fill-rule="evenodd" stroke="#fc0" stroke-width="1.379pt"/></g></svg>