<svg xmlns="http://www.w3.org/2000/svg" height="512" width="512"><path fill-rule="evenodd" fill="#fc0" d="M0 0h512v512H0z"/><path fill-rule="evenodd" fill="#f60" d="M203.76 42.685h163.63v426.63H203.76z"/><path fill-rule="evenodd" fill="#060" d="M42.663 42.685h161.23v426.7H42.663z"/><path fill-rule="evenodd" fill="#991b33" d="M138.017 220.2H470.29v248.21H138.017z"/><g fill="#fc0"><path stroke-linejoin="round" d="M268.863 335.09l4.9.127s-5.528 4.65-4.272 10.93c5.782-8.542 7.918-6.91 7.918-6.91-1.76 1.884-5.152 4.523-2.514 10.304 2.263-5.905 6.91-10.43 6.91-10.43s-1.256 6.535 1.508 12.566c2.01-6.03 5.403-11.182 5.403-11.182s-.502 6.534 2.388 8.92c2.26-2.01 3.77-7.162 3.77-7.162s4.272 7.54 6.91 8.67c2.136-5.152 2.136-9.172 2.136-9.172s8.795 6.283 15.83 2.64c-6.283-2.262-8.418-7.54-8.418-7.54s11.434 5.026 16.334 2.765c-4.776-3.645-15.957-9.047-15.957-9.047s8.292 3.015 10.678 2.26c-1.13-1.632-4.774-3.643-4.774-3.643" fill-rule="evenodd" stroke="#991b33" stroke-linecap="round" stroke-width="1.37864pt"/><path d="M337.49 273.797c15.153-1.38 38.562 11.002 50.97 19.26 0-2.758 0-5.5 2.743-6.88 2.758-1.378 6.893 1.38 5.515 5.5-4.136 9.624-20.666-1.378-26.167-4.12l2.758 5.5c-8.27-1.38-9.65-2.758-15.15-9.637-1.38 5.5-1.38 6.88-8.273 6.88 2.592-4.08 3.46-5.446 0-9.624l-1.378 8.245-6.88-9.622v9.623c-1.378-1.364-6.893-5.5-9.65-5.5-4.122-1.38-6.88 6.88-8.258 11.015 4.135-4.136 5.5-6.88 12.393-4.136-3.736 3.53-2.647 7.76 1.378 11 0 0 .718-5.72 1.16-7.03 2.192 1.64 6.838 7.803 12.614 8.41 4.136 0 8.272-1.38 12.394-2.744 13.773-1.38 44.075 1.365 37.196 22.003-1.38 4.135-2.758 6.878-5.515 9.636 19.286 6.88 2.756 31.64-1.38 44.02-2.757 11-.84 19.77 12.74 18.35-2.744 5.5-7.225 6.41-12.74 6.41 0 0 .69 3.31 4.233 4.867-5.887 5.28 2.04 13.193-1.475 17.15-5.928 2.84-13.773-1.38-13.773-1.38l-.386 3.903s-10.41-.717-10.63-1.158c0 0 2.964-5.542 2.743-5.653-2.757 4.123-5.39 6.535-11.015 5.653 0 0 .44-2.592 3.516-5.873-4.178 4.163-4.633 5.983-9.017 5.873 0-6.88 4.122-15.124 12.394-12.38 1.38 0 5.723 3.42 7.763 1.213 1.654-2.37.675-10.394.675-13.15.87-12.16-1.557-11.444-8.437-18.323-5.513-4.123-9.542-10.442-16.42-11.82-6.894-1.38-18.017 6.32-23.532 9.062-13.772 8.257-26.166 13.758-41.318 16.515 0 0 .3-.703.3-2.08 0-.926 14.87-12.502 17.472-32.824-4.07 20.06-18.53 30.655-19.074 34.38-.544 3.73-3.497 10.09-3.855 10.505 1.788-1.072 7.525-3.883 14.794-4.48-1.567 8.616-9.637 6.88-11.015 11.003 0 4.136 5.514 9.636 0 12.38h-22.03s3.39-4.693 3.55-5.986c-2.965 1.8-4.847 6.52-11.342 6.037.238-1.777 3.348-4.558 2.825-5.65-3.715 3.447-5.46 6.352-10.2 5.598 1.38-4.122 1.38-9.623 6.894-9.623 4.135-1.38 8.27 1.38 11.015-2.757 5.514-6.88-1.005-21.93-2.37-30.187 0-6.878.02-8.183-1.753-16.576l1.38 24.76c-5.515-4.135-11.03-6.88-15.166-12.38-9.637-12.38-6.88-26.14 5.515-34.397 5.515-4.122 8.493-6.272 15.386-9.016-1.378-4.135 1.958-7.182-2.922-8.464-1.462 2.55-2.896 5.336-5.68 5.1l1.488-6.878s-4.963.303-3.984 9.18c-5.707-2.742-2.91-9.18-2.91-9.18h-2.756s-.014 8.19-4.508 9.843c1.213-3.845 1.75-9.842 1.75-9.842s-7.375 8.795-11.663 5.942c2.524-2.854 4.482-3.323 4.137-6.77-.33-3.432-2.11-7.86-2.432-8.56 1.56.753 11.952 3.855 18.47.623-.433 2.155-.238 4.643-.238 4.643 6.88-1.38 8.258-1.38 15.15 1.364-1.378-9.622-6.892-11-12.393-17.88v5.5c-5.515-1.365-6.893-2.743-9.65-8.244l-4.123 2.743c-7.264-4.288-12.627-14.462-2.315-13.87 6.15.772.938 5.625.938 5.625s15.77-4.963 22.03-5.514c0 0-1.82-3.846-7.637-4.507 4.825-3.626 9.678-4.798 13.152 2.84 3.46.193 6.686-3.97 4.632-9.375 5.115-.083 7.638 3.157 9.968 6.562 1.902.345 3.818-1.654 3.363-8.492 4.827 4.122 7.198 5.39 7.515 8.864 4.108.91 6.893-.013 13.083-2.77-1.365 5.514-1.365 6.88-6.88 9.636 3.89 4.805 4.298 10.603 3.483 12.71-1.348-.39-1.685-.48-2.643-.74.3 2.124.73 7.972.54 11.412h-2.757l4.136 12.38-2.757 4.136c9.636-4.136 19.286-2.758 28.923-5.5 11.015-1.38 22.044-5.516 34.438-5.516 8.26 0 8.26 4.136 19.288 4.136v-6.88c0-5.5-4.136-11-11.03-12.38-4.12 0-11.014 2.744-15.15 4.123-5.5 1.378-13.773 1.378-19.287 1.378-17.894-2.758-15.04-4.495-21.285-7.845-3.736.993-5.832 4.164-7.693 9.76-3.46-5.073-2.69-11.552 1.434-14.296-4.123-15.137 6.893-22.017 20.665-24.76z"/><path stroke-linejoin="round" d="M341.627 397.613c-2.757-4.136-12.407-11.016-9.65-17.895 4.136-6.88 27.56-17.88 31.68-2.744 1.38 4.123-2.87 15.065-4.248 19.2 2.085-.536 4.404-3.74 11.192-2.58-1.264 5.406-9.522 9.573-9.522 9.573.838 3.656-5.68 20.57-5.68 20.57h-17.91l2.76-5.5-4.137 5.5h-6.893l5.514-6.88s-6.522 7.642-12.08 7.337c1.378-11 7.944-12.836 17.595-8.7 1.377-5.5 4.12-12.38 1.377-17.88z" stroke="#991b33" stroke-width="1.37864"/><path d="M267.87 294.01c-1.857 1.143-.34 8.7 2.512 7.414 3.556-1.603-1.102-8.28-2.512-7.413z" fill-rule="evenodd" stroke="#991b33" stroke-width="1.37864pt"/><path stroke-linejoin="round" d="M269.62 291.624c3.394 2.387 8.797 8.795 15.456 8.42-5.027-4.148-4.02-7.163-4.02-7.163 2.638 3.142 11.432 6.032 14.322 4.775-3.39-2.513-4.02-2.764-4.774-5.15 4.02.5 9.047 1.38 13.067-.378M276.156 333.59l.376-5.78s3.77 8.794 6.533 8.92c-1.76-6.408-1.005-11.56-1.005-11.56M284.95 326.553s7.54 13.82 11.184 11.56c-5.53-4.9-4.9-11.308-4.9-11.308s2.513 8.544 9.926 11.182c.502-4.775-2.89-12.565-2.89-12.565s6.156 10.806 9.298 11.057c2.01-2.513 1.256-5.152 1.256-5.152M279.05 317.005l5.53 7.036.88-9.422s5.402 4.272 6.407 4.146-1.51-10.052-1.51-10.052 7.29 11.057 7.792 10.806c.5-.252.752-10.93.752-10.93s5.53 15.202 7.414 15.077c1.885-.126 1.382-2.136 1.382-2.136" fill-rule="evenodd" stroke="#991b33" stroke-linecap="round" stroke-width="1.37864pt"/><path stroke-linejoin="round" d="M274.9 304.69s8.545 7.79 9.424 7.288c.88-.502-3.517-9.046-3.517-9.046s4.9 4.65 6.785 5.026.628-6.03.628-6.03 5.78 4.9 6.785 4.648.503-4.65.503-4.65 3.77 3.77 4.02 3.77-.754-10.806-.754-10.806 8.42 8.92 9.046 8.796M240.725 307.455c.376.628 1.775 11.74 18.99 7.216 1.633-.88.915 3.106.843 4.273.754-.126 8.958-3.052 14.612 1.095-.664-4.596-1.904-7.683-6.804-10.32-2.386-.504-4.13.717-4.13.717s-20.747.16-23.51-2.98z" fill-rule="evenodd" stroke="#991b33" stroke-linecap="round" stroke-width="1.37864pt"/><path stroke-linejoin="round" d="M231.336 378.2c-.285 1.288-1.185 1.66-3.757 5.374 1.142 1.572 6.4 4.028 7.83 2.743 1.285-.715 1.377-4.122 1.377-4.122 2.758 4.122 7.608 10.623 13.122 12 4.12 1.38 8.257-1.377 8.257-5.5s-6.228-10.78-8.972-13.522c-6.893-8.26-6.285-23.855-19.316-21.685-.07.118-.59 1.893-1.84 2.21 1.048 2.003 1.635 3.696-.87 4.326 1.948 1.914 2.254 3.303-.25 4.264 1.516 2.032 3.29 2.778-.198 4.517 3.65 3.556 4.435 8.79 4.614 9.396" stroke="#991b33" stroke-linecap="round" stroke-width="1.37864"/><path d="M227.945 261.61c-4.143 6.002-4.573 72.012-3.287 85.3-4.143 2.714-11.858 1.57-14 .713 1-4.715 4.57-81.297 17.287-86.012z" fill-rule="evenodd" stroke="#991b33" stroke-width="1.37864pt"/><path d="M216.226 396.91s-18.29 2.57-10.574-8.286c6.573-2.858 6.43 3.857 4 6.143 3.002.334 5.003-1.62 5.43-4.573-3.714-5 1.572-8.287 1.286-8.287-12.715 2.858-14.43-5.858-9.715-7.286 5.954.333 4.05 2.24 6.43 4.002 4.286-3.953 6.86-4.333 9.43-.286 2.57-4 6.286-3.572 6.428-3.143 4.146 7-5 7.428-8.713 6.57 3.143 3.43 1.857 6.716.856 9.147.095 2.38 1.907 2.76 4.86 3.714-6.287-17.337 22.145 4.618-6.43 2.43l.142 2.285c2.334.427 3.953.998 4.714 3.427-1 1.334-2.57 1.524-5 .572 0 0 1.428 4-1.143 5.143-2.144-1.286-2.43-4.43-2.43-4.43-1.19 1.477-2.953.523-4.43-.714 1.335-3.287 5.098-1.717 4.86-6.43zM200.51 344.052c1.094-4.954 12.62-4.335 7.144 1 3.666 5.858 14.906 5.002 19.145 1.715-3.574-6.812 6.144-5.335 5.715-.143-1.19 9.19-33.243 7.953-32.005-2.572z" fill-rule="evenodd"/><path d="M429.24 431.734c3.433 6.424 9.528 21.647 12.904 25.284 3.164 2.83 11.043 2.496 13.47-.703 0 0 5.045 5.198 7.085 6.77 1.213-.414 1.957-1.572 1.957-1.572-2.054-2.234-4.853-3.488-6.23-7.624 2.053-2.745 3.183-8.08 1.805-12.216-6.025-10.092-26.07-6.107-30.992-9.94zM179.058 256.436c-3.433-6.425-9.528-21.648-12.904-25.284-3.164-2.83-11.043-2.496-13.47.703 0 0-5.045-5.198-7.085-6.77-1.215.414-1.96 1.572-1.96 1.572 2.055 2.234 4.854 3.488 6.232 7.624-2.054 2.745-3.184 8.08-1.806 12.216 6.025 10.09 26.07 6.107 30.992 9.94zM177.018 430.755c-6.425 3.433-21.648 9.528-25.284 12.904-2.83 3.163-2.496 11.042.703 13.47 0 0-5.198 5.044-6.77 7.085.414 1.213 1.572 1.957 1.572 1.957 2.233-2.054 3.487-4.852 7.623-6.23 2.744 2.053 8.08 3.184 12.215 1.805 10.09-6.025 6.107-26.07 9.94-30.992zM429.764 256.434c3.433-6.424 9.528-21.647 12.904-25.284 3.164-2.83 11.043-2.495 13.47.703 0 0 5.045-5.197 7.085-6.77 1.214.415 1.958 1.573 1.958 1.573-2.053 2.233-4.852 3.488-6.23 7.624 2.054 2.743 3.184 8.078 1.806 12.214-6.025 10.092-26.07 6.108-30.992 9.94z" stroke="#991b33" stroke-width="1.37864"/><path stroke-linejoin="round" d="M205.666 355.344c-.27 2.092 4.724 3.004 9.845 3.028 5.12.027 10.37-.834 10.605-2.285.068-2.6-4.47-.39-9.634-.432-5.162-.04-9.464-2.066-10.814-.31zM206.08 361.148c.066 1.957 5.027 2.43 9.414 2.564 4.388.135 8.808-.742 9.618-2.16-.778-2.227-5.653-.37-9.62-.27-3.964.103-8.368-1.957-9.413-.134zM207.5 366.345c-.338 1.485 4.032 2.548 8.056 2.573s9.728-1.528 9.76-3.113c-.235-1.248-5.87.438-9.658.565-3.788.127-8.16-1.375-8.16-.025zM207.017 371.68c.338 1.45 5.3 1.942 9.66 1.612 4.362-.328 8.8-1.68 9.17-3.23-.202-.98-5.213.758-9.364.97s-9.534-.5-9.466.648z" fill-rule="evenodd" stroke="#fc0" stroke-width="1.37864pt"/></g></svg>