<svg xmlns="http://www.w3.org/2000/svg" version="1" width="512" height="512" viewBox="0 0 256 256"><defs><clipPath id="a"><path d="M73.828-44h300v300h-300z"/></clipPath></defs><g transform="matrix(.853 0 0 .853 -63 37.547)" clip-path="url(#a)"><path fill="#fff" d="M0-44h450v300H0z"/><path fill="#009543" d="M0 166h450v90H0z"/><path fill="#00209f" d="M0-44h450v90H0z"/><path d="M224.764 51.57c-1.71.036-3.378 1.93-3.378 1.93l.148 20.233-6.388 6.692h5.17l-.043 11.602-30.59 41.193-4.523-1.563-7.905 16.86s19.55 12.242 47.926 11.908c31.144-.37 48.065-12.472 48.065-12.472l-8.168-16.644-4 1.738-30.983-40.98-.043-11.947h5.172l-7.038-6.608.042-20.16s-1.752-1.82-3.462-1.783z" stroke="#000" stroke-width="1.0005600000000001"/><path d="M235.43 100.01h-21.153s-7.678-16.177-6.433-27.486c1.267-11.516 7.848-16.963 16.598-17.06 10.345-.115 15.767 5.07 17.405 16.6 1.623 11.423-6.418 27.945-6.418 27.945z" fill="none" stroke="#000" stroke-width="5.000526"/><path d="M187.788 138.57c-.346.46-2.882 5.532-2.882 5.532l4.38-.922-1.498-4.61z" fill="#fff"/></g></svg>