<svg xmlns="http://www.w3.org/2000/svg" height="512" width="512" version="1"><g stroke-width="1pt" fill-rule="evenodd"><path fill="#eb0013" d="M0 0h512v512H0z"/><path d="M296.81 313.37l-133.4 93.29 34.373-105.26 17.854 12.93-12.81 38.45 87-62.694 6.983 23.284zm13.684-60.925l46.566 156.5-87.443-65.253 17.986-12.747 31.118 23.35-32.52-102.72 24.294.873zm-55.2-31.074l163.91.194-89.322 64.423-7.146-20.854 33.212-22.235-108.35 1.53 7.703-23.058zm-46.342 41.84l51.9-156.73 35.722 107.75-22.043.28-13.157-41.273-32.922 104.49-19.5-14.516zm26.6 56.326L103.32 222.48l111.62-.864-6.512 21.06-41.43-.168 88.36 62.936-19.81 14.092z" fill="#0b5035"/></g></svg>