<svg xmlns="http://www.w3.org/2000/svg" height="512" width="512"><g fill-rule="evenodd" stroke-width="1pt"><path fill="#00319c" d="M0 0h170.667v512H0z"/><path fill="#ffde00" d="M170.667 0h170.666v512H170.667z"/><path fill="#de2110" d="M341.333 0H512v512H341.333z"/></g><path d="M173.62 690.94v63.78c0 3.543 0 7.086-3.543 7.086-3.544 0-7.087 7.087-7.087 10.63 0 7.087 3.543 10.63 7.087 10.63h31.89c3.543 0 7.086-3.543 7.086-10.63-.228-3.723-3.543-10.63-7.087-10.63-3.543 0-3.543-3.543-3.543-7.087v-63.78" fill-rule="evenodd" transform="matrix(.467 -.295 .309 .446 -5.141 64.457)" stroke="#000" stroke-width="1pt" fill="#ff1900"/><path d="M177.17 696.26c0 24.46-9.518 44.29-21.26 44.29-11.74 0-21.26-19.83-21.26-44.29s9.518-44.29 21.26-44.29c11.74 0 21.26 19.83 21.26 44.29z" fill-rule="evenodd" transform="matrix(.428 -.345 .361 .409 -29.653 77.217)" stroke="#000" stroke-width="3.125" fill="#a77b3b"/><path d="M173.62 690.94v63.78c0 3.543 0 7.086-3.543 7.086-3.544 0-7.087 7.087-7.087 10.63 0 7.087 3.543 10.63 7.087 10.63h31.89c3.543 0 7.086-3.543 7.086-10.63-.228-3.723-3.543-10.63-7.087-10.63-3.543 0-3.543-3.543-3.543-7.087v-63.78" fill-rule="evenodd" transform="matrix(.489 .261 -.273 .467 313.316 -58.252)" stroke="#000" stroke-width="1pt" fill="#ff1900"/><path d="M421.65 701.58h-28.347c-.937.938-8.998 54.066-17.716 74.41-10.63 24.802-42.465 46.69-42.465 46.69s19.073 6.044 24.748 10.002c1.41-.415 31.835-7.086 35.378-46.063 3.544 38.976-21.205 56.692-21.205 56.692s35.433 10.63 35.433 35.433c0-24.803 35.434-35.433 35.434-35.433s-17.772-17.716-21.315-56.693c7.086 38.976 34.077 45.647 35.488 46.062 5.675-3.958 24.748-10.003 24.748-10.003s-31.834-21.888-42.464-46.69c-8.718-20.344-16.78-73.472-17.716-74.41z" fill-rule="evenodd" transform="matrix(.56 0 0 .535 29.714 -86.329)" stroke="#000" stroke-width="3.125" fill="#a77b3b"/><path d="M336.61 467.7l53.15 17.716c17.716 0 35.433-17.697 35.433-35.414.59-39.414-14.174-53.168-17.717-53.168l7.087-7.087-10.63-10.63s3.554-18.382 38.976-17.698c35.42.684 35.432 17.716 35.432 35.432 0 17.717-17.716 17.717-17.716 53.15 0 17.717 17.716 35.433 35.433 35.433l53.15-17.716v177.16h-212.6V467.7z" fill-rule="evenodd" transform="matrix(.56 0 0 .535 9.841 -55.998)" stroke="#000" stroke-width="3.125" fill="#a77b3b"/><g stroke="#000" fill="none" stroke-width=".25"><path d="M435.83 435.83v38.976M442.91 435.83v38.976" transform="matrix(.56 0 0 .535 9.841 -55.998)"/></g><g stroke="#000" stroke-width="3.125"><path d="M318.9 361.42c35.433 17.717 35.433 53.15 35.433 70.866-1.25 16.117 0 354.33 0 354.33s-2.306-20.022-17.717-35.433L318.9 733.467l-17.717-17.717c-12.95-11.774-17.716-35.433-17.716-53.15V414.57s0-17.717 35.433-53.15z" fill-rule="evenodd" transform="matrix(-.56 0 0 .535 357.086 -55.998)" fill="#a77b3b"/><path d="M283.46 574.02c.417 0 17.716-17.717 17.716-17.717l17.717 17.717 17.716-17.717 17.716 17.717" transform="matrix(-.56 0 0 .535 357.086 -131.824)" fill="none"/><path d="M283.46 574.02c.417 0 17.716-17.717 17.716-17.717l17.717 17.717 17.716-17.717 17.716 17.717" transform="matrix(-.56 0 0 -.535 357.086 491.842)" fill="none"/><path d="M283.46 574.02c.417 0 17.716-17.717 17.716-17.717l17.717 17.717 17.716-17.717 17.716 17.717" transform="matrix(-.56 0 0 .535 357.086 -93.911)" fill="none"/></g><g stroke="#000" stroke-width="3.125"><path d="M318.9 361.42c35.433 17.717 35.433 53.15 35.433 70.866-1.25 16.117 0 354.33 0 354.33s-2.306-20.022-17.717-35.433L318.9 733.467l-17.717-17.717c-12.95-11.774-17.716-35.433-17.716-53.15V414.57s0-17.717 35.433-53.15z" fill-rule="evenodd" transform="matrix(.56 0 0 .535 158.661 -55.998)" fill="#a77b3b"/><path d="M283.46 574.02c.417 0 17.716-17.717 17.716-17.717l17.717 17.717 17.716-17.717 17.716 17.717" transform="matrix(.56 0 0 .535 158.661 -131.824)" fill="none"/><path d="M283.46 574.02c.417 0 17.716-17.717 17.716-17.717l17.717 17.717 17.716-17.717 17.716 17.717" transform="matrix(.56 0 0 -.535 158.661 491.842)" fill="none"/><path d="M283.46 574.02c.417 0 17.716-17.717 17.716-17.717l17.717 17.717 17.716-17.717 17.716 17.717" transform="matrix(.56 0 0 .535 158.661 -93.911)" fill="none"/></g><path d="M177.17 696.26c0 24.46-9.518 44.29-21.26 44.29-11.74 0-21.26-19.83-21.26-44.29s9.518-44.29 21.26-44.29c11.74 0 21.26 19.83 21.26 44.29z" fill-rule="evenodd" transform="matrix(.517 .206 -.216 .494 290.199 -73.205)" stroke="#000" stroke-width="3.125" fill="#a77b3b"/><path fill-rule="evenodd" fill="red" d="M198.343 203.707H317.4v56.87H198.342z"/><path d="M198.343 260.578H317.4v28.435c0 18.956-29.765 18.956-59.53 37.913-29.763-18.957-59.527-18.957-59.527-37.913v-28.435z" fill-rule="evenodd" fill="#564dff"/><path d="M336.61 485.43h212.6v159.45c0 35.433-53.15 35.433-106.3 70.866-53.15-35.433-106.3-35.433-106.3-70.866V485.43z" transform="matrix(.56 0 0 .535 9.842 -55.998)" stroke="#ff0" stroke-width="2.5" fill="none"/><path d="M385.59 129.9s-50.618 55.447-50.618 108.6c0 53.15 53.15 70.866 53.15 70.866s-17.718 0-17.718 70.866c0 35.433 53.15 17.717 53.15 35.433 0 17.717-.75 60.578 0 88.583 0 17.716-35.433 0-35.433 17.716 0 8.86 26.576 53.15 53.15 53.15 26.575 0 53.15-44.29 53.15-53.15 0-17.716-35.433 0-35.433-17.716v-88.583c0-17.716 53.15 0 53.15-35.433 0-70.866-17.717-70.866-17.717-70.866s53.15-17.717 53.15-70.866-50.62-108.6-50.62-108.6 28.474 73.163 28.474 108.6c0 17.717-13.287 53.15-48.72 53.15 0 0-8.96-17.717-17.717 0 0 0-10.19-17.717-17.716 0-2.597 6.114-7.206-17.717-17.716 0-4.465 4.696-7.984-17.717-17.717 0-17.716 0-53.148-17.717-53.15-53.15 0-35.433 32.903-108.6 32.903-108.6z" fill-rule="evenodd" transform="matrix(.392 0 0 .251 84.892 174.865)" stroke="#000" stroke-width="3.011" fill="#ff0"/><path d="M382.68 248.03c-3.543 3.543 4.58 61.274 7.087 63.78 3.543 3.542 24.803 3.542 28.346 0 2.525-2.526 0-56.694-3.543-60.237-3.543-3.544-29.384-6.05-31.89-3.543z" fill-rule="evenodd" transform="matrix(.392 0 0 .251 86.387 224.834)" stroke="#000" stroke-width="3.011" fill="#ff0"/><path d="M382.68 248.03c-3.543 3.543 4.58 61.274 7.087 63.78 3.543 3.542 24.803 3.542 28.346 0 2.525-2.526 0-56.694-3.543-60.237-3.543-3.544-29.384-6.05-31.89-3.543z" fill-rule="evenodd" transform="matrix(-.392 0 0 .251 429.359 224.834)" stroke="#000" stroke-width="3.011" fill="#ff0"/><path d="M414.57 228.54c0 8.806-7.14 15.945-15.945 15.945-8.806 0-15.945-7.14-15.945-15.945 0-8.806 7.14-15.945 15.945-15.945 8.806 0 15.945 7.14 15.945 15.945z" fill-rule="evenodd" transform="matrix(.451 0 0 .313 63.897 210.32)" stroke="#000" stroke-width="3.011" fill="#ff0"/><path d="M414.57 228.54c0 8.806-7.14 15.945-15.945 15.945-8.806 0-15.945-7.14-15.945-15.945 0-8.806 7.14-15.945 15.945-15.945 8.806 0 15.945 7.14 15.945 15.945z" fill-rule="evenodd" transform="matrix(.451 0 0 .313 92.631 210.32)" stroke="#000" stroke-width="3.011" fill="#ff0"/><path d="M270.49 311.1c0 1.233-1.557 2.233-3.477 2.233s-3.476-1-3.476-2.232c0-1.232 1.556-2.232 3.476-2.232s3.476 1 3.476 2.233zM252.427 311.1c0 1.233-1.556 2.233-3.476 2.233-1.918 0-3.475-1-3.475-2.232 0-1.232 1.556-2.232 3.476-2.232s3.477 1 3.477 2.233z" fill-rule="evenodd"/><path fill-rule="evenodd" transform="matrix(.547 0 0 .522 17.827 -47.305)" stroke="#000" stroke-width="1pt" fill="#ff0" d="M439.37 549.92l-7.78-10.26-12.77 1.75 1.76-12.76-10.26-7.78 10.26-7.79-1.76-12.76 12.77 1.76 7.78-10.27 7.78 10.27 12.77-1.76-1.76 12.76 10.26 7.79-10.26 7.78 1.76 12.76-12.77-1.75z"/><path d="M496.06 591.73l21.26 10.63 21.26-10.63-21.26-10.63-21.26 10.63z" fill-rule="evenodd" transform="matrix(.56 0 0 .535 9.841 -55.998)" stroke="#000" stroke-width="1pt" fill="#ff0"/><path d="M496.06 591.73l21.26 10.63 21.26-10.63-21.26-10.63-21.26 10.63z" fill-rule="evenodd" transform="matrix(.56 0 0 .535 -75.481 -55.998)" stroke="#000" stroke-width="1pt" fill="#ff0"/><path d="M535.04 659.06c-3.543-7.086-14.173-10.63-21.26-10.63-7.086 0-14.173 0-21.26 10.63 0-14.173 10.503-21.26 21.26-21.26 10.757 0 21.26 10.503 21.26 21.26z" fill-rule="evenodd" transform="matrix(.486 -.266 .279 .464 -137.523 131.311)" stroke="#000" stroke-width="1pt" fill="#ff0"/><path d="M386.22 651.97c0 3.914-3.173 7.087-7.087 7.087s-7.086-3.173-7.086-7.087 3.173-7.087 7.086-7.087 7.087 3.173 7.087 7.087z" fill-rule="evenodd" transform="matrix(.56 0 0 .535 7.857 -65.477)" stroke="#000" stroke-width="1pt" fill="#ff0"/><path d="M386.22 651.97c0 3.914-3.173 7.087-7.087 7.087s-7.086-3.173-7.086-7.087 3.173-7.087 7.086-7.087 7.087 3.173 7.087 7.087z" fill-rule="evenodd" transform="matrix(.56 0 0 .535 3.888 -52.207)" stroke="#000" stroke-width="1pt" fill="#ff0"/><path d="M386.22 651.97c0 3.914-3.173 7.087-7.087 7.087s-7.086-3.173-7.086-7.087 3.173-7.087 7.086-7.087 7.087 3.173 7.087 7.087z" fill-rule="evenodd" transform="matrix(.56 0 0 .535 1.904 -59.79)" stroke="#000" stroke-width="1pt" fill="#ff0"/><path d="M386.22 651.97c0 3.914-3.173 7.087-7.087 7.087s-7.086-3.173-7.086-7.087 3.173-7.087 7.086-7.087 7.087 3.173 7.087 7.087z" fill-rule="evenodd" transform="matrix(.56 0 0 .535 11.825 -52.207)" stroke="#000" stroke-width="1pt" fill="#ff0"/><path d="M386.22 651.97c0 3.914-3.173 7.087-7.087 7.087s-7.086-3.173-7.086-7.087 3.173-7.087 7.086-7.087 7.087 3.173 7.087 7.087z" fill-rule="evenodd" transform="matrix(.56 0 0 .535 13.81 -59.79)" stroke="#000" stroke-width="1pt" fill="#ff0"/><path d="M386.22 651.97c0 3.914-3.173 7.087-7.087 7.087s-7.086-3.173-7.086-7.087 3.173-7.087 7.086-7.087 7.087 3.173 7.087 7.087z" fill-rule="evenodd" transform="matrix(.56 0 0 .535 7.857 -57.894)" stroke="#000" stroke-width="1pt" fill="#ff0"/><g fill-rule="evenodd"><path d="M238.685 158.927c-10.014 0-11.338 1.58-15.874 3.16 0-4.36 11.153-9.48 21.167-9.48 0 3.16-2.646 6.32-5.292 6.32z" fill="#da4500"/><path d="M253.904 148.734c0 2.094-1.776 3.79-3.968 3.79s-3.97-1.696-3.97-3.79 1.778-3.792 3.97-3.792 3.968 1.698 3.968 3.792z" fill="#cac9c7"/><path d="M361.42 357.87v10.63h17.717v53.15h10.63V368.5h17.716v-10.63h-17.716v-14.173h-10.63v14.173H361.42z" stroke="#000" stroke-width="1pt" fill="#ff0" transform="matrix(.56 0 0 .535 9.841 -55.998)"/><path d="M244.103 152.495c-11.688 0-18.528 1.052-23.822 3.16 0-5.815 6.84-12.64 18.53-12.64 2.646 0 5.293 6.32 5.293 9.48z" fill="#da4500"/></g><g fill-rule="evenodd"><path d="M67.323 612.99c-14.173-14.17-16.634-21.36 3.543-10.1l283.75 247.5-3.366 6.968-283.93-244.37z" transform="matrix(.315 .241 -.114 .193 189.674 118.958)" stroke="#000" stroke-width=".875" fill="#008500"/><path d="M182.06 329.62c.646-8.575-15.08-17.88-15.703-17.28-.625.602.943 5.598 3.923 8.206-5.712-2.948-11.698-4.768-11.826-3.493-.47 1.72 8.873 5.842 9.645 7.43.123 1.133-6.873.973-6.75 2.106.125 1.133 19.68 11.033 20.71 3.03zM166.32 304.558c.647-8.576-15.078-17.882-15.702-17.28-.625.6.943 5.597 3.923 8.205-5.71-2.948-11.697-4.768-11.825-3.493-.47 1.72 8.873 5.842 9.645 7.43.124 1.133-6.872.973-6.748 2.106.124 1.134 19.68 11.034 20.708 3.03zM154.276 281.803c.647-8.576-15.078-17.882-15.702-17.28-.625.6.943 5.597 3.923 8.205-5.712-2.948-11.698-4.768-11.826-3.493-.47 1.72 8.874 5.842 9.646 7.43.124 1.133-6.872.973-6.748 2.106.124 1.135 19.68 11.035 20.708 3.032zM142.37 257.147c.646-8.576-15.08-17.882-15.703-17.28-.625.6.943 5.597 3.923 8.205-5.712-2.948-11.698-4.768-11.826-3.493-.47 1.718 8.873 5.84 9.645 7.428.123 1.134-6.873.974-6.75 2.107.125 1.134 19.68 11.034 20.71 3.03z" fill="#008f00"/><path d="M146.945 256.056c7.616-4.594 6.103-22.236 5.224-22.36-.88-.124-4.16 4.05-4.585 7.896-.914-6.15-2.942-11.844-4.094-11.186-1.73.658.357 10.306-.522 11.844-.882.77-4.91-4.717-5.794-3.948-.882.77 2.41 21.713 9.77 17.753zM157.884 277.888c8.798-1.896 13.544-19.02 12.757-19.42-.785-.397-5.343 2.492-7.09 5.982 1.29-6.094 1.368-12.113.05-11.86-1.863.066-3.27 9.834-4.638 11.003-1.102.443-2.986-6.02-4.088-5.578-1.102.443-5.324 21.252 3.01 19.872zM170.69 299.61c8.06-3.96 8.254-21.636 7.387-21.83-.867-.193-4.55 3.7-5.348 7.49-.32-6.193-1.798-12.02-3.013-11.457-1.793.516-.642 10.283-1.67 11.743-.956.694-4.454-5.086-5.41-4.392-.957.695.308 21.798 8.052 18.447zM185.587 328.524c8.404-3.165 10.41-20.734 9.57-21.01-.84-.276-4.895 3.24-6.075 6.937.32-6.192-.55-12.132-1.813-11.69-1.833.34-1.692 10.17-2.862 11.524-1.02.6-3.898-5.49-4.918-4.892-1.02.6-1.93 21.72 6.097 19.132z" fill="#008f00"/></g><path d="M209.06 775.98c0 7.828-10.312 14.173-23.03 14.173-12.72 0-23.032-6.346-23.032-14.173 0-7.828 10.312-14.173 23.03-14.173 12.72 0 23.032 6.346 23.032 14.173z" fill-rule="evenodd" transform="matrix(.489 .261 -.273 .467 313.316 -58.252)" stroke="#000" stroke-width="1pt" fill="#ff1900"/><g stroke="#000" fill-rule="evenodd" fill="#ff0"><path d="M155.91 414.57v-7.087h7.086v-7.086h7.087v7.086h7.086v7.087h-7.087v17.716h-7.087V414.57h-7.086z" transform="matrix(.405 .128 -.148 .383 363.582 58.011)" stroke-width=".625"/><path stroke-width=".63" d="M162.99 474.8h7.087v205.51h-7.087z" transform="matrix(.405 .128 -.148 .383 363.582 58.011)"/><path stroke-width=".625" d="M159.45 676.77h14.173v56.693H159.45zM155.91 439.37h21.26c14.173 0-3.544 38.976-3.544 38.976h-14.173s-17.717-38.976-3.543-38.976z" transform="matrix(.405 .128 -.148 .383 363.582 58.011)"/><path d="M173.62 434.06c0 2.935-3.173 5.315-7.087 5.315s-7.086-2.38-7.086-5.315 3.173-5.315 7.086-5.315 7.087 2.38 7.087 5.315z" stroke-width=".625" transform="matrix(.405 .128 -.148 .383 363.582 58.011)"/></g><path d="M209.06 775.98c0 7.828-10.312 14.173-23.03 14.173-12.72 0-23.032-6.346-23.032-14.173 0-7.828 10.312-14.173 23.03-14.173 12.72 0 23.032 6.346 23.032 14.173z" fill-rule="evenodd" transform="matrix(.467 -.295 .309 .446 -5.141 64.457)" stroke="#000" stroke-width="1pt" fill="#ff1900"/></svg>