<svg xmlns="http://www.w3.org/2000/svg" height="512" width="512"><g fill-rule="evenodd"><path fill="#3b5aa3" d="M0 0h511.9v512H0z"/><path d="M139.06 1.24l-5.4 87.963-23.12-56.095 8.87 59.71-35.796-48.252L107.08 99.62 60.067 63.155 96.66 108.98 43.52 85.428l46.548 35.244-57.895-7.655 54.706 21.687-85.872 7.854 86.083 5.754-54.546 22.427 57.31-7.756L43.48 197.23l53.82-23.616-36.71 46.202 46.7-35.358-23.135 53.817 37.382-46.8-10.12 58.337 23.515-54.51 5.315 86.11 8.293-85.898 20.274 54.843-7.73-59.095 37.2 46.84-24.442-54.707 46.68 37.65-37.112-47.006 55.48 23.1-49.1-35.858 59.796 10.08-57.246-21.987 89.038-5.53-89.038-8.292 58.605-19.535-60.733 7.63 50.18-35.083-56.558 22.75 39.06-47.352-47.565 37.146 22.888-56.833-36.92 48.327 7.93-60.27-21.963 56.868-8.204-87.962z" fill="#fff"/><path d="M0 498.22L511.94 0l-.03 92.71L0 512v-13.78z" fill="#e2ae57"/><path d="M17.918 511.98l494.08-320.81-.11-101.85L-.002 512l17.918-.02z" fill="#fff"/></g></svg>