<svg xmlns="http://www.w3.org/2000/svg" height="512" width="512"><defs><clipPath id="a"><path fill-opacity=".67" d="M124.02 0h496.06v496.06H124.02z"/></clipPath></defs><g fill-rule="evenodd" clip-path="url(#a)" transform="matrix(1 0 0 1 -128 0)"><path fill="#199d00" d="M0 0h744.09v496.06H0z"/><path d="M370.8 277.77c-11.663 8.12-23.864 15.3-35.527 23.42-14.615 1.033-28.788 1.18-43.846.442 0 0-31.445-5.314-39.417-19.044-.443-1.33 10.186-6.2 10.186-6.2 16.092 11.367 33.955 21.406 67.32 19.93-41.19-3.69-69.09-26.426-77.506-47.39 22.292-15.65 59.2-15.354 89.464 6.2-9.448-11.81-41.04-24.95-64.662-21.258-3.396-3.544-6.348-7.973-9.744-11.516 27.164-6.053 64.958 11.368 78.835 25.688-14.615-23.473-25.245-50.047-7.972-82.378 3.396 3.248 7.235 6.496 10.63 9.744-12.99 23.768-8.267 51.523 2.215 70.862-18.16-37.498-3.544-74.553 20.372-92.564 27.902 16.83 35.875 61.562 19.488 93.45 9.3-5.314 16.83-45.175 3.986-71.748l8.86-10.63c19.34 26.13 7.676 68.206-8.416 84.15 12.253-10.63 43.993-31.445 81.05-26.573-2.954 3.543-7.678 6.643-10.63 10.186-30.413-1.18-55.066 11.81-65.99 23.03 26.72-17.714 63.627-26.573 90.79-6.642-12.547 33.512-48.127 43.55-77.505 46.503 24.948 1.92 48.127-5.46 66.876-18.6 3.543 1.92 7.086 3.84 10.63 5.758-7.973 7.53-19.488 15.058-35.875 17.272-15.795 2.067-30.706 1.477-46.502 1.772-12.253-7.972-24.855-15.89-37.108-23.862z" fill="#feffff"/><path d="M370.8 285.61l-30.378 22.86-81.424-.312c1 3.28 4.113 7.474 5.95 9.395l80.798.314L370.8 298.45l24.114 19.103h81.738c2.35-2.505 4.854-5.95 7.046-8.925l-82.834.157L370.8 285.61zM324.13 364.13c23.384 11.542 73.074 10.595 95.518-.283l-95.518.283zM270.36 325.38l200.81-.157c-3.497 3.967-7.62 8.247-11.9 11.9l-178.63-.782c-3.354-2.324-7.814-7.75-10.28-10.96zM284.15 339.79l172.45.47c-3.236 2.506-5.845 5.48-9.55 7.36l-153.3-.13c-3.54-1.902-7.17-5.133-9.602-7.7zM299.86 352.62l140.93-.344c-3.758 2.413-7.986 4.983-12.683 7.24h-115.56c-3.915-1.36-8.456-4.284-12.683-6.896z" fill="#fff"/><path fill="#feb700" d="M445.544 153.273l-5.077-7.46-8.766 2.168 5.527-7.135-4.767-7.658 8.49 3.045 5.813-6.908-.272 9.02 8.363 3.394-8.66 2.53M381.82 142.643l-10.063-6.886-9.963 7.047 3.438-11.702-9.77-7.288 12.183-.352 3.91-11.556 4.102 11.486 12.194.15-9.65 7.45M487.78 202.723l-8.31-3.516-6.19 6.574.775-8.99-8.157-3.852 8.785-2.045 1.14-8.955 4.66 7.727 8.867-1.68-5.905 6.82M296.316 153.134l5.077-7.46 8.766 2.168-5.527-7.135 4.767-7.66-8.49 3.046-5.813-6.908.272 9.02-8.363 3.395 8.66 2.53M252.09 202.393l8.31-3.516 6.19 6.574-.775-8.99 8.157-3.852-8.785-2.045-1.14-8.955-4.66 7.727-8.867-1.68 5.905 6.82"/></g></svg>