<svg xmlns="http://www.w3.org/2000/svg" height="512" width="512" version="1"><defs><clipPath id="a"><path fill-opacity=".67" d="M248.03 0h496.06v496.06H248.03z"/></clipPath></defs><g clip-path="url(#a)" transform="matrix(1 0 0 1 -256 0)"><path fill-rule="evenodd" fill="#0071bc" d="M0 0h992.13v496.06H0z"/><path d="M553.43 392.43s17.493-18.502 34.313-14.97c5.046-19.51 24.053-21.025 24.053-21.025s-1.85-21.53 22.54-26.24c.672-14.633 15.474-26.743 15.474-26.743s-3.028-22.707 12.447-27.92c-9.42-18 3.196-31.12 3.028-31.455-.168-.336-15.98-28.426-1.85-36.5-14.97-12.615-10.093-26.912-10.093-26.912s-16.316-4.205-10.43-23.717c-13.455-2.355-16.146-24.053-16.146-24.053s-20.69 4.205-23.212-13.793c-13.624 2.187-15.138-11.27-15.306-11.27-.168 0-27.08 7.234-32.463-13.12-10.428 5.384-14.97-4.204-14.97-4.204s-14.97 7.4-23.885-6.896c-17.83 11.1-27.753-.505-27.753-.505s-23.38 15.475-31.117 3.532c-13.793 13.96-26.07 7.905-26.07 7.905s-10.43 18.502-27.25 13.792c-3.868 17.157-23.212 17.493-23.212 17.493s2.02 15.138-21.193 19.175c-3.027 17.83-15.138 20.857-15.138 20.857s1.178 17.325-9.755 22.875c3.868 9.756-6.224 21.698-6.224 21.698s10.765 13.456-3.868 28.594c14.13 3.7 3.868 28.09 3.868 28.09s19.51 8.745 7.233 24.893c13.962 4.54 9.588 15.643 9.757 22.203 8.914 4.037 16.82 2.018 12.952 20.016 27.416 3.028 14.464 18.166 14.464 18.166s12.783.505 7.737 10.597c23.38-.505 26.745 17.493 26.745 17.493s21.698-5.72 24.558 2.69c2.86 8.41-9.42 65.095-9.42 65.095s-18.333 0-31.957-14.633c-31.958-.84-24.894-21.866-25.4-21.866-.504 0-10.596 3.87-15.81-13.624-21.362 4.373-20.69-13.624-20.857-13.792-.17-.168-9.59-4.373-6.057-13.288-22.034 2.018-20.352-19.51-20.352-19.51-4.82-1.963-6.615-6.45-5.886-10.934-2.86-1.01-22.37-1.346-12.28-27.08-18.67-11.27-7.063-24.22-7.063-24.22s-25.734-13.29-5.886-28.595c-14.802-21.865 1.177-32.798 1.177-32.798s-20.52-20.857.337-35.66c-3.364-31.62 15.475-39.19 15.475-39.19s-9.923-25.735 16.988-36.5c1.682-26.07 20.52-26.744 20.52-26.744s.506-20.69 30.11-18.67c5.718-18.502 25.902-14.802 25.902-14.802s6.224-22.37 33.64-11.606c13.96-27.25 34.65-13.288 34.65-13.288s13.12-8.578 19.68-5.887c8.33-14.315 26.063-.555 37.53 2.215 4.155-1.616 18.986-12.812 30.424 1.317 15.138-9.924 28.09 7.906 28.09 7.906s20.857-10.596 30.613 13.624c44.236-4.037 37.844 24.894 37.844 24.894s34.818-7.905 27.25 26.745c31.62 2.186 28.425 23.044 28.425 23.044s20.015 15.137 11.268 28.76c17.83.842 11.27 18 11.27 18s13.623 5.213 2.354 26.407c26.07 20.857 5.046 41.546 4.878 41.378-.168-.168 13.96 16.82 1.178 36.332 3.868 30.95-11.774 38.855-11.774 38.855s4.036 20.016-13.456 25.735c-.337 23.548-22.54 26.408-22.54 26.408s5.888 10.23-16.146 20.994c-.87 15.756-23.885 17.02-23.885 17.02s-2.187 28.93-31.454 21.192c-7.104 23.212-41.378 16.316-42.05 15.98-.673-.338-6.56-49.79-6.56-49.957z" fill-rule="evenodd" stroke="#000" stroke-width="1.92" fill="#fff"/><path stroke-linejoin="round" d="M340.86 114.83c.086 0 7.418 6.36 6.048 15.944-1.37 9.585-6.904 22.908-5.79 32.834.68 3.98.42 11.11.42 11.11s-6.646-9.445-6.73-19.543 7.196-19.686 7.196-27.13-1.315-13.386-1.144-13.215zM337.22 117.69s-9.622 9.185-10.86 18.112c-.916 4.6-1.27 26.04-1.38 35.556-.215 2.92-1.425 14.444-1.682 18.637-.257 4.193 7.078-7.158 7.497-16.4-.23-9.567-.23-29.717.743-32.745.865-3.893.676-8.194 2.015-12.098 1.77-5.418 3.752-10.976 3.667-11.062z" fill-rule="evenodd" stroke="#000" stroke-width="1.92" fill="#217900"/><g fill-rule="evenodd" stroke="#ef8a10" fill="#ffd200"><path d="M548.877 87.677s12.475-5.755 16.04-16.472-10.795-10.82-12.693-7.414c-1.897 3.408 1.62 11.89.713 14.13-.905 2.244-5.98 7.657-4.06 9.757z" stroke-width="1.9196"/><path d="M438.31 91.587s8.1-11.098 6-22.197c-2.1-11.097-14.698-4.2-14.698-.3 0 3.9 7.198 9.6 7.498 11.998.3 2.4-1.5 9.598 1.2 10.498zM416.415 98.186s8.1-11.097 6-22.196c-2.1-11.098-14.698-4.2-14.698-.3 0 3.9 7.198 9.598 7.498 11.998.3 2.4-1.5 9.598 1.2 10.498zM392.12 105.684s8.1-11.098 6-22.196c-2.1-11.098-14.697-4.2-14.697-.3 0 3.9 7.198 9.598 7.498 11.998.3 2.4-1.5 9.598 1.2 10.498zM375.025 122.78s8.098-11.098 6-22.196c-2.1-11.098-14.698-4.2-14.698-.3 0 3.9 7.198 9.598 7.498 11.998.3 2.4-1.5 9.598 1.2 10.498zM357.03 139.277s8.097-11.098 5.997-22.196c-2.1-11.097-14.697-4.198-14.697-.3 0 3.9 7.2 9.6 7.5 12 .3 2.398-1.5 9.597 1.2 10.497z" stroke-width="1.9196pt"/><path d="M398.406 43.176s-10.785 8.51-11.747 19.765c-.963 11.254 13.025 7.998 14.074 4.242 1.048-3.756-4.352-11.18-3.996-13.572.356-2.392 4.026-8.84 1.667-10.434zM434.398 32.077s-10.785 8.51-11.747 19.764c-.96 11.255 13.028 7.998 14.076 4.243 1.05-3.756-4.352-11.18-3.996-13.572.357-2.39 4.026-8.84 1.668-10.433zM300.27 129.24s2.278 13.548 11.683 19.802 13.275-7.577 10.486-10.302-11.897-1.56-13.823-3.02c-1.926-1.464-5.817-7.782-8.347-6.48zM282.295 175.243s.11 13.738 8.41 21.398c8.302 7.66 14.306-5.387 11.982-8.518s-11.5-3.417-13.172-5.165c-1.67-1.748-4.517-8.6-7.22-7.714zM323.766 226.636s-4.904-12.834-15.357-17.11c-10.454-4.28-11.522 10.044-8.25 12.166 3.27 2.122 11.97-.816 14.146.238 2.176 1.054 7.236 6.48 9.46 4.706zM315.15 204.427s8.314-10.938 6.43-22.076c-1.883-11.135-14.612-4.483-14.688-.585-.076 3.9 7.01 9.737 7.263 12.142.254 2.404-1.686 9.566.996 10.52zM574.37 98.774s12.475-5.755 16.04-16.472-10.796-10.82-12.693-7.413c-1.898 3.405 1.618 11.886.713 14.13-.906 2.24-5.98 7.654-4.06 9.754zM612.09 117.59s7.338-11.615 4.5-22.548c-2.837-10.932-14.944-3.207-14.684.684.26 3.89 7.825 9.095 8.285 11.47.46 2.373-.854 9.676 1.9 10.393zM715.057 224.486s-4.92-12.826-15.38-17.09c-10.46-4.263-11.507 10.06-8.233 12.178 3.274 2.118 11.97-.832 14.147.22 2.178 1.05 7.245 6.47 9.467 4.692zM664.706 232.453s.285-13.736 8.682-21.29c8.397-7.555 14.235 5.567 11.87 8.67-2.362 3.1-11.54 3.27-13.235 4.996-1.693 1.726-4.624 8.543-7.317 7.622zM656.605 86.793s-12.843-4.878-22.99.08c-10.15 4.957-.168 15.283 3.593 14.253 3.76-1.03 7.355-9.478 9.59-10.402 2.235-.923 9.653-1.09 9.808-3.93zM627.216 62.198s-12.843-4.88-22.99.078c-10.15 4.958-.168 15.284 3.593 14.254 3.76-1.03 7.354-9.478 9.59-10.402 2.234-.923 9.652-1.09 9.807-3.93zM583.392 38.744s-10.888 8.378-11.988 19.618c-1.1 11.24 12.927 8.157 14.02 4.414 1.096-3.743-4.213-11.233-3.828-13.62.386-2.388 4.134-8.79 1.796-10.413zM554.847 31.878s-4.965 12.81-.076 22.99c4.89 10.183 15.283.27 14.278-3.497-1.004-3.766-9.428-7.417-10.336-9.66-.908-2.24-1.024-9.66-3.865-9.833zM473.898 81.24s8.88-10.482 7.59-21.703c-1.29-11.22-14.354-5.253-14.636-1.364-.283 3.89 6.484 10.094 6.61 12.51.125 2.415-2.192 9.464.436 10.557z" stroke-width="1.9196"/></g><path d="M522.23 103.74s21.288 1.34 22.33 13.547-5.06 19.65-5.06 19.65 2.678 26.35-18.163 34.092c-22.33 2.68-57.314.595-57.314.595s-10.273 2.53-14.44-18.757c-4.17-21.288-5.36-36.324-5.36-36.324s2.084-11.91 17.12-12.654c15.036-.745 60.738.148 60.887-.15z" fill-rule="evenodd" stroke="#000" stroke-width="1.92" fill="#8c8a8c"/><path d="M539.35 136.79s-11.463 14.29-10.272 20.097" stroke="#000" stroke-linecap="round" stroke-width="1.92" fill="none"/><path d="M524.02 170.28c2.83 2.382 5.508 5.06 6.104 13.845l1.19 17.567 14.887 133.98 13.1 96.914.895 15.036s-3.126 11.016-11.91 11.91c-6.4 13.397-41.087 17.268-44.51 17.12-3.128-.15-14.144-4.765-20.843-4.17-6.7.596-18.31 5.062-23.52 4.318-5.212-.744-16.972-4.764-19.056-13.25-14.59-4.614-16.97-15.78-16.97-15.78l15.78-112.1 15.332-141.72s1.786-18.905 9.378-21.734c7.89-.745 48.68.744 60.143-1.936z" fill-rule="evenodd" stroke="#000" stroke-width="1.92" fill="#8c8a8c"/><path d="M443.63 364.26l-3.126 99.147M539.95 377.36l8.783 81.73" stroke="#000" stroke-width="1.92" fill="none"/><path fill="none" stroke="#000" d="M285.28 312.74l-.327 1.144M697.12 309.15l.327 1.144"/><path stroke-linejoin="round" d="M274.24 178.89s6.522 9.03 7.693 14.215c1.17 5.184 3.344 15.386 6.187 19.566 2.843 4.182 19.065 27.428 19.9 37.127.17 6.355-6.688 17.225-16.89 17.392-6.355-.168-22.744-4.35-23.413-18.397-.668-14.048 5.017-14.382 5.686-22.91.67-8.53.837-46.827.837-46.994z" stroke="#6b18b5" stroke-width="1.92" fill="none"/><path stroke-linejoin="round" d="M386.28 55.917s-6.753.482-11.95 3.3c-4.03 2.484-10.852 6.057-15.62 12.668-12.127 9.454-30.37 13.865-36.125 21.72-3.444 5.342-3.233 18.193 5.397 23.635 5.517 3.16 21.693 8.1 29.562-3.555 7.87-11.657 3.185-14.897 7.044-22.532 6.368-17.5 21.605-35.093 21.692-35.236zM550.08 38.857s-5.043-4.516-10.684-6.29c-4.586-1.166-12.224-.66-20.128-1.435-15.227-2.135-30.926-13.148-40.57-11.818-6.234 1.243-15.32 10.334-13.226 20.32 1.568 6.16 8.458 18.62 22.306 16.165 13.848-2.455 13.728-5.476 21.898-8.015 19.926-11.173 40.24-8.89 40.404-8.928zM712.52 196.74c1.137-2.598-.957-7.482-2.444-13.206-1.444-4.507-3.6-11.5-8.872-17.718-6.264-14.042-5.19-33.3-11.433-40.77-4.358-4.628-16.884-7.508-24.24-.438-4.39 4.597-13.072 19.112-3.647 29.55 9.425 10.44 13.532 6.508 20.017 12.087 15.46 10.385 23.032 28.59 30.62 30.494zM706.98 319.41c2.11-2.923 5.892-8.557 5.442-13.25-.356-3.715 1.703-14.98 1.928-19.896 1.397-15.313 10.982-27.742 8.376-41.046-1.542-6.167-10.575-14.964-20.447-12.39-6.08 1.863-19.61 9.31-16.49 23.022 3.12 13.713 7.552 13.486 10.482 21.523 8.413 16.616 3.03 36.354 10.708 42.036z" stroke="#6b18b5" fill="none"/><path d="M594.29 416.76s-2.596 4.992 7.787 9.385M615.06 404.98s11.58-2.795 19.368 0M649.6 375.82c0 .2-1.597 5.192 7.588 12.38M656.19 362.85s6.79 4.992 18.17 4.792M587.7 377.42s.4 13.178-6.39 19.368M610.46 357.05s11.182 2.795 20.367-1.797M682.15 337.69s2.396 3.394 14.776 2.796M633.83 329.9c.4.2 14.576 4.792 23.562.6M662.18 275.59s.6-.8 4.992 14.576M673.16 232.26s-.6 8.187-7.188 11.78M715.29 198.71s-9.584 7.787-7.787 10.982M667.57 193.12s4.992 8.386-3.195 14.177M643.41 157.18s8.586-.4 12.38 6.989M627.24 132.82h6.59M661.38 102.87c0 .2 1.797 1.797-1.597 5.19M600.08 103.67s4.593 7.188 3.794 15.974M626.64 79.308c1.997-.2 8.786-3.195 8.786-3.195M597.09 50.754c-.2 0-2.596 8.985 1.797 12.18M586.1 91.688c0 9.584 7.588 7.188 2.396 16.373M567.53 83.7c-.2 0-11.98 9.185-11.98 10.782M536.78 78.71s4.992 4.99 3.794 11.78M522.21 74.715s-2.596 7.588-5.99 9.584M495.65 72.718c-.2.4-4.193 8.985-6.99 10.583M459.31 72.918c.2 0 3.993 7.987-.998 13.778M450.92 31.585c.2.2.8 6.19-2.995 11.38M414.98 45.163c0 .2 1.597 6.79-8.985 8.985M394.62 106.06c.2.4 10.183 1.997 10.183 1.997M369.66 129.23c.2-.2 12.18-3.794 12.18-3.794M350.29 144.2c.4 0 8.386 1.398 10.383.4M344.7 151.59s2.596 1.398.4 14.776M305.76 116.45l4.792 7.188M289.39 153.39c0-.2 4.792 7.188 11.182 8.586M327.13 190.93c.2 0 7.787-1.598 8.985-2.396M323.73 218.08c.2 0-.2-4.992 5.99-8.386M315.54 230.46c0 .2 5.79 7.388 9.784 8.386M312.15 244.24c.6-.2 6.79-5.59 13.977-5.192M310.15 262.81s.2 6.19 18.57 4.593M311.95 284.57c0-.2 5.39-12.38 16.373-16.972M326.73 300.15s1.597-5.192 10.782-8.786M336.91 320.71s6.59-5.39 8.985-6.19M345.1 336.69s3.994 4.193 13.977-2.995M296.97 340.08c1.198-.2 15.774-3.594 20.766 3.994M302.77 352.06s15.375-1.997 17.372-.4M357.68 355.26s-1.997 4.193 16.972-2.795M381.24 362.85c-3.394 5.79.8 10.383-3.594 12.98M323.53 370.83c.6-.4 6.99-2.596 5.99-11.78M329.32 384.61c.8-.2 11.38-4.792 13.578-2.396M350.09 397.99s1.398-9.385 4.393-10.383M366.06 412.16s8.786-.2 12.58-2.995M383.03 380.42c.2.2 8.187 4.393 25.16.2M389.42 418.55s2.396 12.18 2.196 14.976" stroke="#000" stroke-width="1.92" fill="none"/><g fill-rule="evenodd" stroke="#000" stroke-width="1pt" fill="#de2010"><path d="M232.84 119.03c.002-2.11-.794-4.058-2.087-5.114-1.294-1.055-2.888-1.055-4.18 0s-2.09 3.005-2.088 5.114c-.002 2.11.794 4.058 2.087 5.114 1.293 1.055 2.887 1.055 4.18 0s2.09-3.005 2.088-5.114z" transform="matrix(1.8 -.2 .2 1.9 237.3 58.3)"/><path d="M232.84 119.03c.002-2.11-.794-4.058-2.087-5.114-1.294-1.055-2.888-1.055-4.18 0s-2.09 3.005-2.088 5.114c-.002 2.11.794 4.058 2.087 5.114 1.293 1.055 2.887 1.055 4.18 0s2.09-3.005 2.088-5.114z" transform="matrix(1.8 -.2 .2 1.9 235.6 38.1)"/><path d="M232.84 119.03c.002-2.11-.794-4.058-2.087-5.114-1.294-1.055-2.888-1.055-4.18 0s-2.09 3.005-2.088 5.114c-.002 2.11.794 4.058 2.087 5.114 1.293 1.055 2.887 1.055 4.18 0s2.09-3.005 2.088-5.114z" transform="matrix(1.8 -.4 .4 1.9 218.1 57.4)"/><path d="M232.84 119.03c.002-2.11-.794-4.058-2.087-5.114-1.294-1.055-2.888-1.055-4.18 0s-2.09 3.005-2.088 5.114c-.002 2.11.794 4.058 2.087 5.114 1.293 1.055 2.887 1.055 4.18 0s2.09-3.005 2.088-5.114z" transform="matrix(1.7 -.8 .9 1.7 192.5 159.5)"/><path d="M232.84 119.03c.002-2.11-.794-4.058-2.087-5.114-1.294-1.055-2.888-1.055-4.18 0s-2.09 3.005-2.088 5.114c-.002 2.11.794 4.058 2.087 5.114 1.293 1.055 2.887 1.055 4.18 0s2.09-3.005 2.088-5.114z" transform="matrix(1.7 -.8 .9 1.7 184.5 141.3)"/><path d="M232.84 119.03c.002-2.11-.794-4.058-2.087-5.114-1.294-1.055-2.888-1.055-4.18 0s-2.09 3.005-2.088 5.114c-.002 2.11.794 4.058 2.087 5.114 1.293 1.055 2.887 1.055 4.18 0s2.09-3.005 2.088-5.114z" transform="matrix(1.6 -1 1 1.6 174.3 164.6)"/><path d="M232.84 119.03c.002-2.11-.794-4.058-2.087-5.114-1.294-1.055-2.888-1.055-4.18 0s-2.09 3.005-2.088 5.114c-.002 2.11.794 4.058 2.087 5.114 1.293 1.055 2.887 1.055 4.18 0s2.09-3.005 2.088-5.114z" transform="matrix(1.5 -1.1 1.2 1.5 167.2 194.1)"/><path d="M232.84 119.03c.002-2.11-.794-4.058-2.087-5.114-1.294-1.055-2.888-1.055-4.18 0s-2.09 3.005-2.088 5.114c-.002 2.11.794 4.058 2.087 5.114 1.293 1.055 2.887 1.055 4.18 0s2.09-3.005 2.088-5.114z" transform="matrix(1.3 -1.3 1.4 1.3 169 246.9)"/><path d="M232.84 119.03c.002-2.11-.794-4.058-2.087-5.114-1.294-1.055-2.888-1.055-4.18 0s-2.09 3.005-2.088 5.114c-.002 2.11.794 4.058 2.087 5.114 1.293 1.055 2.887 1.055 4.18 0s2.09-3.005 2.088-5.114z" transform="matrix(1.2 -1.4 1.5 1.2 167.8 274.1)"/><path d="M232.84 119.03c.002-2.11-.794-4.058-2.087-5.114-1.294-1.055-2.888-1.055-4.18 0s-2.09 3.005-2.088 5.114c-.002 2.11.794 4.058 2.087 5.114 1.293 1.055 2.887 1.055 4.18 0s2.09-3.005 2.088-5.114z" transform="matrix(.9 -1.6 1.7 .9 188 334.2)"/><path d="M232.84 119.03c.002-2.11-.794-4.058-2.087-5.114-1.294-1.055-2.888-1.055-4.18 0s-2.09 3.005-2.088 5.114c-.002 2.11.794 4.058 2.087 5.114 1.293 1.055 2.887 1.055 4.18 0s2.09-3.005 2.088-5.114z" transform="matrix(.8 -1.7 1.7 .8 193.6 359.9)"/><path d="M232.84 119.03c.002-2.11-.794-4.058-2.087-5.114-1.294-1.055-2.888-1.055-4.18 0s-2.09 3.005-2.088 5.114c-.002 2.11.794 4.058 2.087 5.114 1.293 1.055 2.887 1.055 4.18 0s2.09-3.005 2.088-5.114z" transform="matrix(.7 -1.7 1.8 .7 194.9 377.2)"/><path d="M232.84 119.03c.002-2.11-.794-4.058-2.087-5.114-1.294-1.055-2.888-1.055-4.18 0s-2.09 3.005-2.088 5.114c-.002 2.11.794 4.058 2.087 5.114 1.293 1.055 2.887 1.055 4.18 0s2.09-3.005 2.088-5.114z" transform="matrix(.5 -1.8 1.8 .5 200.8 397.8)"/><path d="M232.84 119.03c.002-2.11-.794-4.058-2.087-5.114-1.294-1.055-2.888-1.055-4.18 0s-2.09 3.005-2.088 5.114c-.002 2.11.794 4.058 2.087 5.114 1.293 1.055 2.887 1.055 4.18 0s2.09-3.005 2.088-5.114z" transform="matrix(.2 -1.8 1.9 .2 237.1 442.1)"/><path d="M232.84 119.03c.002-2.11-.794-4.058-2.087-5.114-1.294-1.055-2.888-1.055-4.18 0s-2.09 3.005-2.088 5.114c-.002 2.11.794 4.058 2.087 5.114 1.293 1.055 2.887 1.055 4.18 0s2.09-3.005 2.088-5.114z" transform="matrix(.1 -1.9 1.9 .1 250.5 463.4)"/><path d="M232.84 119.03c.002-2.11-.794-4.058-2.087-5.114-1.294-1.055-2.888-1.055-4.18 0s-2.09 3.005-2.088 5.114c-.002 2.11.794 4.058 2.087 5.114 1.293 1.055 2.887 1.055 4.18 0s2.09-3.005 2.088-5.114z" transform="matrix(.1 -1.9 1.9 .1 230.4 464.1)"/><path d="M232.84 119.03c.002-2.11-.794-4.058-2.087-5.114-1.294-1.055-2.888-1.055-4.18 0s-2.09 3.005-2.088 5.114c-.002 2.11.794 4.058 2.087 5.114 1.293 1.055 2.887 1.055 4.18 0s2.09-3.005 2.088-5.114z" transform="matrix(-.4 -1.8 1.9 -.4 326.6 516.4)"/><path d="M232.84 119.03c.002-2.11-.794-4.058-2.087-5.114-1.294-1.055-2.888-1.055-4.18 0s-2.09 3.005-2.088 5.114c-.002 2.11.794 4.058 2.087 5.114 1.293 1.055 2.887 1.055 4.18 0s2.09-3.005 2.088-5.114z" transform="matrix(-.6 -1.8 1.8 -.6 344.7 530.5)"/><path d="M232.84 119.03c.002-2.11-.794-4.058-2.087-5.114-1.294-1.055-2.888-1.055-4.18 0s-2.09 3.005-2.088 5.114c-.002 2.11.794 4.058 2.087 5.114 1.293 1.055 2.887 1.055 4.18 0s2.09-3.005 2.088-5.114z" transform="matrix(-.8 -1.7 1.7 -.8 383.3 545.8)"/><path d="M232.84 119.03c.002-2.11-.794-4.058-2.087-5.114-1.294-1.055-2.888-1.055-4.18 0s-2.09 3.005-2.088 5.114c-.002 2.11.794 4.058 2.087 5.114 1.293 1.055 2.887 1.055 4.18 0s2.09-3.005 2.088-5.114z" transform="matrix(-.9 -1.6 1.7 -.9 405.7 556.4)"/><path d="M232.84 119.03c.002-2.11-.794-4.058-2.087-5.114-1.294-1.055-2.888-1.055-4.18 0s-2.09 3.005-2.088 5.114c-.002 2.11.794 4.058 2.087 5.114 1.293 1.055 2.887 1.055 4.18 0s2.09-3.005 2.088-5.114z" transform="matrix(-1.1 -1.5 1.6 -1.1 440.5 564.5)"/><path d="M232.84 119.03c.002-2.11-.794-4.058-2.087-5.114-1.294-1.055-2.888-1.055-4.18 0s-2.09 3.005-2.088 5.114c-.002 2.11.794 4.058 2.087 5.114 1.293 1.055 2.887 1.055 4.18 0s2.09-3.005 2.088-5.114z" transform="matrix(-1.2 -1.4 1.5 -1.2 464.3 570)"/><path d="M232.84 119.03c.002-2.11-.794-4.058-2.087-5.114-1.294-1.055-2.888-1.055-4.18 0s-2.09 3.005-2.088 5.114c-.002 2.11.794 4.058 2.087 5.114 1.293 1.055 2.887 1.055 4.18 0s2.09-3.005 2.088-5.114z" transform="matrix(-1.3 -1.3 1.4 -1.3 483.3 576.8)"/><path d="M232.84 119.03c.002-2.11-.794-4.058-2.087-5.114-1.294-1.055-2.888-1.055-4.18 0s-2.09 3.005-2.088 5.114c-.002 2.11.794 4.058 2.087 5.114 1.293 1.055 2.887 1.055 4.18 0s2.09-3.005 2.088-5.114z" transform="matrix(-1.4 -1.2 1.3 -1.5 509.2 580.8)"/><path d="M232.84 119.03c.002-2.11-.794-4.058-2.087-5.114-1.294-1.055-2.888-1.055-4.18 0s-2.09 3.005-2.088 5.114c-.002 2.11.794 4.058 2.087 5.114 1.293 1.055 2.887 1.055 4.18 0s2.09-3.005 2.088-5.114z" transform="matrix(-1.5 -1.1 1.1 -1.6 544.9 576.8)"/><path d="M232.84 119.03c.002-2.11-.794-4.058-2.087-5.114-1.294-1.055-2.888-1.055-4.18 0s-2.09 3.005-2.088 5.114c-.002 2.11.794 4.058 2.087 5.114 1.293 1.055 2.887 1.055 4.18 0s2.09-3.005 2.088-5.114z" transform="matrix(-1.7 -.8 .8 -1.7 606.3 551.5)"/><path d="M232.84 119.03c.002-2.11-.794-4.058-2.087-5.114-1.294-1.055-2.888-1.055-4.18 0s-2.09 3.005-2.088 5.114c-.002 2.11.794 4.058 2.087 5.114 1.293 1.055 2.887 1.055 4.18 0s2.09-3.005 2.088-5.114z" transform="matrix(-1.8 -.6 .6 -1.8 632.4 544)"/><path d="M232.84 119.03c.002-2.11-.794-4.058-2.087-5.114-1.294-1.055-2.888-1.055-4.18 0s-2.09 3.005-2.088 5.114c-.002 2.11.794 4.058 2.087 5.114 1.293 1.055 2.887 1.055 4.18 0s2.09-3.005 2.088-5.114z" transform="matrix(-1.9 -.1 .2 -1.5 703.5 438.7)"/><path d="M232.84 119.03c.002-2.11-.794-4.058-2.087-5.114-1.294-1.055-2.888-1.055-4.18 0s-2.09 3.005-2.088 5.114c-.002 2.11.794 4.058 2.087 5.114 1.293 1.055 2.887 1.055 4.18 0s2.09-3.005 2.088-5.114z" transform="matrix(-1.8 -.4 .4 -1.9 666.6 524.7)"/></g><path d="M679.93 195.92c2.466-2.64 4.76-3.386 7.663-2.424-1.024-6.963-3.227-9.326-5.912-8.488-2.683.84-3.898 4.42-1.75 10.912zM683.7 216.93c2.658-2.446 5.002-3.018 7.824-1.84-.496-7.02-2.515-9.542-5.255-8.908-2.74.633-4.222 4.112-2.57 10.748zM674.78 176.73c1.715-3.18 3.744-4.484 6.796-4.29-2.758-6.476-5.49-8.2-7.873-6.71-2.384 1.494-2.65 5.265 1.077 11zM665.43 157.61c1.715-3.18 3.744-4.484 6.796-4.29-2.758-6.476-5.49-8.2-7.873-6.71-2.384 1.494-2.65 5.265 1.077 11zM643 122.57c1.18-3.414 2.975-5.027 6.02-5.327-3.765-5.948-6.738-7.212-8.85-5.356s-1.77 5.622 2.83 10.682zM628.34 107.3c1.052-3.456 2.783-5.136 5.813-5.55-3.986-5.802-7.005-6.953-9.045-5.018-2.04 1.935-1.556 5.684 3.232 10.568zM597.51 81.29c-.064-3.612 1.066-5.744 3.82-7.07-5.578-4.293-8.804-4.458-10.15-1.99-1.346 2.47.27 5.888 6.33 9.06zM613.55 93.316c.562-3.568 2.044-5.472 4.987-6.303-4.75-5.193-7.9-5.914-9.653-3.715-1.753 2.2-.752 5.845 4.666 10.018zM579.21 71.19c-.436-3.585.467-5.822 3.07-7.426-5.99-3.694-9.217-3.525-10.3-.93-1.085 2.595.876 5.827 7.23 8.357zM560.51 63.027c-.945-3.487-.37-5.83 1.976-7.79-6.458-2.798-9.627-2.17-10.33.554-.7 2.724 1.703 5.643 8.354 7.237zM540.36 56.784c-1.237-3.394-.863-5.778 1.31-7.93-6.673-2.24-9.777-1.346-10.245 1.427-.47 2.774 2.173 5.478 8.935 6.504zM520.57 52.952c-1.48-3.296-1.28-5.7.733-8.004-6.817-1.753-9.85-.636-10.115 2.164-.267 2.8 2.563 5.306 9.382 5.84zM499.61 51.346c-1.813-3.125-1.863-5.537-.1-8.037-6.963-1.037-9.863.388-9.837 3.2.025 2.813 3.1 5.012 9.937 4.836zM458.57 54.437c-2.512-2.595-3.143-4.924-2.036-7.775-7.006.673-9.476 2.755-8.773 5.478.703 2.723 4.217 4.116 10.81 2.297zM478.77 51.778c-2.138-2.912-2.447-5.304-.965-7.98-7.033-.28-9.762 1.448-9.434 4.24.328 2.794 3.622 4.65 10.4 3.74zM438.75 58.72c-2.86-2.21-3.816-4.424-3.13-7.404-6.837 1.67-8.983 4.085-7.897 6.68 1.085 2.593 4.763 3.468 11.027.723zM400.8 76.168c-3.227-1.624-4.588-3.616-4.48-6.672-6.396 2.94-8.043 5.72-6.484 8.06 1.56 2.34 5.337 2.5 10.964-1.388zM419.1 66.82c-3.005-2.004-4.115-4.147-3.637-7.167-6.705 2.142-8.678 4.7-7.414 7.212 1.263 2.513 4.993 3.13 11.05-.045zM366.76 99.867c-3.494-.916-5.24-2.58-5.772-5.592-5.642 4.208-6.675 7.27-4.662 9.233 2.013 1.965 5.74 1.333 10.434-3.64zM383 86.576c-3.412-1.187-5.022-2.983-5.317-6.027-5.954 3.753-7.223 6.724-5.37 8.84 1.853 2.115 5.62 1.777 10.687-2.814zM352.33 114.08c-3.563-.595-5.454-2.094-6.257-5.044-5.236 4.704-5.986 7.846-3.803 9.62 2.184 1.772 5.838.804 10.06-4.576zM339.4 130.86c-3.602-.27-5.62-1.59-6.69-4.455-4.786 5.16-5.248 8.357-2.913 9.924 2.335 1.567 5.887.27 9.603-5.47zM328.58 148.02c-3.6.286-5.798-.71-7.292-3.38-3.94 5.834-3.908 9.064-1.36 10.255 2.547 1.192 5.86-.632 8.652-6.875zM319.08 166.35c-3.533.75-5.84.048-7.67-2.404-3.15 6.294-2.697 9.493-.017 10.343 2.68.85 5.728-1.388 7.687-7.94zM311.48 185.16c-3.37 1.3-5.76.973-7.953-1.158-2.114 6.713-1.16 9.8 1.62 10.216 2.783.415 5.436-2.278 6.333-9.058zM306.39 206.11c-3.275 1.524-5.682 1.356-8.013-.623-1.66 6.84-.5 9.856 2.302 10.084 2.802.23 5.27-2.635 5.71-9.46zM304.32 223.56c-3.083 1.633-5.486 1.826-8.006.59-.917 5.576.55 7.78 3.353 7.58 2.802-.198 4.942-2.772 4.653-8.17zM657.08 140.57c1.233-3.395 3.05-4.982 6.098-5.235-3.672-6.004-6.626-7.313-8.767-5.49-2.14 1.825-1.853 5.595 2.67 10.725zM686 238.23c2.658-2.446 5.002-3.018 7.824-1.84-.496-7.02-2.515-9.542-5.255-8.908-2.74.633-4.222 4.112-2.57 10.747z" fill-rule="evenodd" fill="#ffe300"/><path stroke-linejoin="round" d="M658.45 123.94c-.086 0-7.958 7.873-6.59 17.457 1.37 9.585 7.446 21.394 6.333 31.32-1.112 9.928-2.91 16.517-2.91 16.517s9.243-10.526 9.33-20.624c.084-10.098-6.334-23.362-6.334-30.807s.34-14.034.17-13.863zM673.08 156.11s-6.162 4.535-5.562 14.976c.6 10.44 11.38 29.61 11.38 29.61s7.874 16.173 7.617 20.366c-.257 4.193 1.455-4.022.685-13.264-.77-9.242-12.665-29.61-12.665-29.61s-2.568-4.192-2.31-11.124c.256-6.932.94-10.868.855-10.954z" fill-rule="evenodd" stroke="#000" stroke-width="1.92" fill="#217900"/><path d="M487.93 26.748c0-2.16-2.43-3.913-5.428-3.913s-5.43 1.752-5.428 3.913c0 2.16 2.43 3.913 5.428 3.913s5.43-1.75 5.428-3.912zM490.25 35.848c0-2.072-2.502-3.752-5.588-3.752-3.086 0-5.588 1.68-5.588 3.752s2.502 3.752 5.588 3.752c3.086 0 5.588-1.68 5.588-3.752zM497.19 25.072s-6.386 4.79-3.752 6.705c2.634 1.916 9.9-4.15 9.9-4.15l-6.148-2.555zM684.88 134.73c.002-1.36-.636-2.62-1.674-3.302-1.037-.68-2.316-.68-3.353 0-1.037.68-1.675 1.94-1.674 3.302-.003 1.36.636 2.62 1.673 3.302 1.037.68 2.316.68 3.353 0 1.038-.68 1.676-1.94 1.674-3.302zM682.44 125.6c0-2.27-1.568-4.112-3.502-4.112s-3.503 1.84-3.503 4.112 1.568 4.112 3.502 4.112 3.503-1.84 3.503-4.112zM684.12 144.17c0-1.177-.614-2.132-1.37-2.132-.758 0-1.37.955-1.37 2.132s.612 2.132 1.37 2.132c.756 0 1.37-.955 1.37-2.132zM689.75 127.57c0-1.346-.614-2.437-1.37-2.437-.758 0-1.37 1.09-1.37 2.437s.612 2.437 1.37 2.437c.756 0 1.37-1.09 1.37-2.437zM674.37 129.25c0-1.093-.614-1.98-1.37-1.98-.758 0-1.37.887-1.37 1.98s.612 1.98 1.37 1.98c.756 0 1.37-.887 1.37-1.98zM676.81 142.35c0-1.767-1.295-3.2-2.893-3.2s-2.894 1.433-2.894 3.2c0 1.767 1.295 3.2 2.894 3.2s2.893-1.433 2.893-3.2zM669.19 136.56c0-1.514-1.09-2.74-2.437-2.74-1.345 0-2.436 1.226-2.436 2.74s1.09 2.74 2.436 2.74c1.346 0 2.437-1.226 2.437-2.74zM667.98 128.79c0-.817-.405-1.572-1.065-1.98-.66-.41-1.474-.41-2.134 0-.66.408-1.065 1.163-1.064 1.98 0 .817.405 1.572 1.065 1.98.66.41 1.475.41 2.135 0 .66-.408 1.066-1.163 1.065-1.98zM702.69 168.28c-3.146-4.15-8.18-5.9-11.248-3.907-3.066 1.994-3.002 6.975.143 11.126 3.146 4.15 8.18 5.9 11.248 3.906 3.067-1.994 3.002-6.975-.143-11.126zM711.63 244.87c.61-5.094-1.875-9.58-5.55-10.02-3.674-.44-7.147 3.333-7.756 8.428-.61 5.094 1.875 9.58 5.55 10.02 3.674.44 7.146-3.334 7.756-8.428zM713.52 289.45c1.047-5.022-1.04-9.706-4.663-10.46-3.623-.756-7.41 2.703-8.456 7.725-1.046 5.023 1.042 9.706 4.664 10.46 3.623.757 7.41-2.703 8.456-7.725zM722.11 247.72c0-2.018-1.364-3.655-3.046-3.655s-3.045 1.637-3.045 3.655 1.362 3.655 3.044 3.655 3.046-1.637 3.046-3.655zM714.65 256.1l-6.244 7.08s-5.862.153-5.558 2.057c.305 1.903 8.07 7.614 7.995 9.899-.076 2.284 5.178-.533 5.178-.533s4.188-12.716 4.188-12.792c0-.076-.228-8.832-2.512-8.68-2.285.153-2.904 2.81-3.046 2.97zM303.97 253.3c0-1.64-1.33-2.97-2.972-2.97-1.64 0-2.97 1.33-2.97 2.97s1.33 2.97 2.97 2.97 2.972-1.33 2.972-2.97zM306.77 244.22c0-1.732-1.33-3.137-2.972-3.137s-2.97 1.405-2.97 3.137 1.33 3.137 2.97 3.137c1.64 0 2.972-1.405 2.972-3.137zM282.37 201.04c-1.115-2.498-3.435-3.89-5.184-3.11-1.748.78-2.262 3.437-1.148 5.935 1.115 2.498 3.435 3.89 5.184 3.11 1.748-.78 2.262-3.437 1.148-5.935zM289.74 227.94c-1.53-3.237-4.72-5.042-7.12-4.03s-3.11 4.454-1.578 7.692 4.72 5.042 7.12 4.03 3.11-4.455 1.578-7.692zM297.63 247.67c.496-4.044-1.18-7.758-3.743-8.297-2.563-.538-5.042 2.303-5.538 6.347-.497 4.044 1.178 7.758 3.74 8.297 2.564.538 5.044-2.303 5.54-6.347zM284.97 250.55c1.585-3.753.992-7.785-1.326-9.005s-5.48.833-7.066 4.586-.99 7.786 1.326 9.006 5.48-.833 7.066-4.586z" fill-rule="evenodd" fill="#6b18b5"/><path d="M279.2 242.07c0-1.915-1.478-3.467-3.302-3.467s-3.3 1.552-3.3 3.467 1.477 3.467 3.3 3.467 3.302-1.552 3.302-3.467zM276.56 233.49c0-1.732-1.33-3.137-2.972-3.137-1.64 0-2.97 1.405-2.97 3.137s1.33 3.137 2.97 3.137 2.972-1.405 2.972-3.137zM279.37 216.98c0-2.918-1.294-5.283-2.89-5.283-1.595 0-2.888 2.365-2.888 5.283s1.293 5.283 2.89 5.283 2.888-2.365 2.888-5.283zM288.26 215.71c.385-2.892-.585-5.407-2.167-5.618-1.58-.21-3.176 1.964-3.56 4.856-.386 2.892.585 5.407 2.166 5.618 1.58.21 3.175-1.964 3.56-4.856zM351.6 89.333c1.177-4.096-.037-8.212-2.712-9.194-2.676-.983-5.8 1.54-6.977 5.637-1.176 4.096.038 8.212 2.714 9.194 2.675.983 5.8-1.54 6.976-5.637zM339.57 107.56c3.53-3.003 5.036-7.156 3.367-9.275-1.67-2.12-5.883-1.403-9.41 1.6s-5.037 7.156-3.368 9.275c1.668 2.12 5.88 1.403 9.41-1.6zM332.55 97.443c3.49-2.578 4.98-6.143 3.33-7.962s-5.818-1.204-9.307 1.374c-3.49 2.578-4.98 6.143-3.33 7.963s5.818 1.204 9.307-1.374zM359.61 79.65c2.353-1.8 3.358-4.287 2.245-5.557-1.113-1.27-3.923-.84-6.276.96s-3.36 4.285-2.246 5.555c1.113 1.27 3.923.84 6.276-.96z" fill-rule="evenodd" fill="#6b18b5"/><path d="M345.5 96.89c1.61-2.487 1.717-5.167.24-5.987-1.474-.82-3.975.53-5.584 3.017s-1.717 5.168-.242 5.988c1.476.82 3.977-.53 5.586-3.018zM365.86 86.235c2.53-2.133 3.517-4.958 2.202-6.31-1.314-1.352-4.43-.72-6.96 1.413s-3.518 4.958-2.204 6.31c1.315 1.352 4.43.72 6.962-1.413zM329.07 111.09c2.366-.118 4.15-1.296 3.988-2.632-.162-1.335-2.212-2.322-4.578-2.204-2.365.118-4.15 1.296-3.988 2.632.163 1.335 2.212 2.322 4.578 2.204zM373.61 73.026c1.61-2.487 1.717-5.167.24-5.987-1.474-.82-3.975.53-5.584 3.016s-1.717 5.168-.242 5.988c1.476.82 3.977-.53 5.586-3.018z" fill-rule="evenodd" fill="#6b18b5"/><path d="M641.8 148.49s7.338-11.615 4.5-22.547c-2.836-10.933-14.944-3.207-14.684.684.26 3.89 7.824 9.095 8.284 11.47.46 2.374-.854 9.677 1.9 10.394z" fill-rule="evenodd" stroke="#ef8a10" fill="#ffd200"/><path stroke-linejoin="round" d="M501.67 51.882s26.443 1.027 26.614 18.142c-.086 2.653 0 5.82-.94 13.435 5.22-2.825 8.727-10.698 8.043-15.747.085-17.372-23.62-29.267-33.717-15.832z" fill-rule="evenodd" stroke="#000" stroke-width="2.4" fill="#217900"/><path stroke-linejoin="round" d="M484.9 51.112s21.308-4.45 21.48 12.665c.17 17.115-6.76 19.853-6.76 19.853s16.344-3.51 16.43-20.88c.084-17.372-21.052-25.073-31.15-11.638z" fill-rule="evenodd" stroke="#000" stroke-width="2.4" fill="#217900"/><path stroke-linejoin="round" d="M557.285 420.343s99.74-28.174 129.855-150.58c-17.487 125.644-126.617 165.476-126.617 165.476l-3.238-14.897z" fill-rule="evenodd" stroke="#000" stroke-width="1.9196pt" fill="#f7df73"/><path d="M567.517 427.964c3.082 0 10.71-8.438 15.09-9.41 4.38-.975 4.867-5.356-.163-5.518-5.03-.162-9.41 5.68-9.41 5.68s-4.382 3.73-8.925 4.218c-4.544.487-1.623 6.165 3.407 5.03z" fill-rule="evenodd" fill="#8c1800"/><path d="M624.95 385.118s-10.383 6.004-8.923 7.464c1.46 1.46 10.71-5.68 10.87-5.84.163-.163 3.895-4.707-1.946-1.624z" fill-rule="evenodd" stroke="#8c1800" stroke-width="1.9196pt" fill="#8c1800"/><path d="M588.767 412.396s-3.084-1.136 4.867-4.22c7.95-3.082 7.464-6.65 10.06-8.112 2.596-1.46 8.113-5.354 9.25-3.083s-5.842 6.816-7.465 7.303c-1.623.487-9.574 7.788-11.846 8.437-2.27.65-3.894.325-4.867-.324z" fill-rule="evenodd" fill="#8c1800"/><path d="M640.365 369.877c-6.814 7.626-6.814 7.464-6.814 7.464" stroke="#8c1800" stroke-linecap="round" stroke-width="3.11935" fill="none"/><path d="M650.597 357.38l-6.49 7.95" stroke="#8c1800" stroke-linecap="round" stroke-width="2.8794" fill="none"/><path d="M660.81 341.16l-7.303 11.682" stroke="#8c1800" stroke-linecap="round" stroke-width="2.63945" fill="none"/><path d="M669.41 324.613l-6.005 12.007M673.306 315.84l-1.947 4.22" stroke="#8c1800" stroke-linecap="round" stroke-width="2.3994999999999997" fill="none"/><path d="M677.682 304.322l-1.622 5.03" stroke="#8c1800" stroke-linecap="round" stroke-width="1.4397" fill="none"/><g><path stroke-linejoin="round" d="M160.26 215.97s51.958-14.677 67.647-78.444c-9.11 65.454-65.96 86.204-65.96 86.204l-1.687-7.76z" fill-rule="evenodd" stroke="#000" stroke-width="1pt" fill="#f7df73" transform="matrix(-1.9 0 0 2 731.4 -4.3)"/><path d="M416.78 435.58c-3.052 0-10.6-8.79-14.937-9.805-4.336-1.014-4.818-5.58.16-5.748 4.98-.17 9.315 5.917 9.315 5.917s4.337 3.888 8.834 4.395c4.496.507 1.606 6.423-3.373 5.24z" fill-rule="evenodd" fill="#8c1800"/><path d="M195.51 197.62s-5.41 3.127-4.65 3.888c.762.76 5.58-2.958 5.664-3.043.085-.084 2.03-2.45-1.014-.845z" fill-rule="evenodd" stroke="#8c1800" stroke-width="1pt" fill="#8c1800" transform="matrix(-1.9 0 0 2 731.4 -4.3)"/><path d="M395.746 419.36s3.052-1.183-4.818-4.395c-7.87-3.212-7.388-6.932-9.957-8.453-2.57-1.522-8.03-5.58-9.154-3.212s5.782 7.1 7.388 7.607c1.606.508 9.476 8.115 11.724 8.79 2.248.677 3.855.34 4.818-.337z" fill-rule="evenodd" fill="#8c1800"/><path d="M203.54 189.68c-3.55 3.973-3.55 3.888-3.55 3.888" stroke="#8c1800" stroke-linecap="round" stroke-width="1.625" fill="none" transform="matrix(-1.9 0 0 2 731.4 -4.3)"/><path d="M208.87 183.17l-3.38 4.142" stroke="#8c1800" stroke-linecap="round" stroke-width="1.5" fill="none" transform="matrix(-1.9 0 0 2 731.4 -4.3)"/><path d="M214.19 174.72l-3.804 6.086" stroke="#8c1800" stroke-linecap="round" stroke-width="1.375" fill="none" transform="matrix(-1.9 0 0 2 731.4 -4.3)"/><path d="M218.67 166.1l-3.127 6.255M220.7 161.53l-1.014 2.198" stroke="#8c1800" stroke-linecap="round" stroke-width="1.25" fill="none" transform="matrix(-1.9 0 0 2 731.4 -4.3)"/><path d="M222.98 155.53l-.845 2.62" stroke="#8c1800" stroke-linecap="round" stroke-width=".75" fill="none" transform="matrix(-1.9 0 0 2 731.4 -4.3)"/></g><path stroke-linejoin="round" d="M691.89 247.23c.49 7.678 8.005 15.03 5.065 28.426-3.758 15.193-16.99 51.298-14.703 57.67-3.92-5.392-3.268-10.457-3.595-17.972-.326-7.515 10.946-35.45 11.926-44.926 0-8.495.817-20.094 1.307-23.198z" fill-rule="evenodd" stroke="#000" stroke-width="2.4" fill="#217900"/><path stroke-linejoin="round" d="M691.89 247.39s12.253 15.52 11.6 27.773c-.654 12.253-7.516 26.63-5.23 33-3.92-5.39-4.9-8.822-5.227-16.337-.326-7.515 6.045-15.847 4.738-24.015-1.306-8.167-6.044-20.42-5.88-20.42zM290.51 250.82c-.49 7.678-6.208 14.54-3.268 27.936 3.758 15.193 17.154 34.47 15.03 56.526 3.92-5.391 5.065-11.436 5.392-18.95.326-7.516-14.867-32.838-15.847-42.313 0-8.496-.817-20.095-1.307-23.2z" fill-rule="evenodd" stroke="#000" stroke-width="2.4" fill="#217900"/><path stroke-linejoin="round" d="M290.51 250.99s-11.926 15.03-11.273 27.283c.163 8.168 15.193 42.312 12.906 48.684 3.92-5.39 5.064-4.738 4.9-12.906-4.41-20.91-12.252-34.307-10.945-42.475 1.307-8.168 4.574-20.584 4.41-20.584z" fill-rule="evenodd" stroke="#000" stroke-width="2.4" fill="#217900"/><path stroke-linejoin="round" d="M99.96 125.78l22.17 68.23 71.744.004-58.04 42.172L158 304.42l-58.04-42.15-58.044 42.16 22.168-68.23-58.04-42.17h71.743z" transform="matrix(1.3 0 0 1.3 360.4 -54.9)" stroke-dashoffset="1" stroke="#000" stroke-linecap="square" stroke-width="1.494" fill="#fff"/></g></svg>