<svg xmlns="http://www.w3.org/2000/svg" height="512" width="512"><path fill="#006" d="M0 0h512v512H0z"/><g fill-rule="evenodd"><path d="M281.518 230.94h201.077l-.24 143.974c1.673 57.876-34.176 93.79-100.138 109.982-46.847-11.707-100.86-35.92-100.94-108.34l.24-145.618z" fill="#fff"/><path d="M44.07 22.713h169.3l-.202 120.79c1.408 48.558-28.777 78.69-84.317 92.276-39.436-9.82-84.915-30.13-84.98-90.9l.2-122.17z" stroke="#000" stroke-width="1pt" fill="#00a2bd" transform="matrix(1.1 0 0 1.1 235.9 209.3)"/><path d="M469.166 382.902c-6.775 50.986-46.042 73.263-91.53 85.087-40.264-10.802-83.582-28.045-91.98-84.832l183.514-.256z" fill="#a53d08"/></g><g stroke="#000" fill-rule="evenodd"><path stroke-linejoin="round" d="M407.247 426.187c.103.103.724 10.225-4.75 16.422 4.853 1.55 8.16-.31 9.708-2.274 1.55-1.962 2.067-4.44 2.067-4.44s1.342-.827 1.548-2.686c.104-2.582-1.032-2.582-1.962-3.098l.206-5.784s-5.577-3.41-6.817 1.86z" stroke-width="1.375" fill="#ffc6b5"/><path d="M406.94 440.652l-1.654-1.343" stroke-linecap="round" stroke-width="1.1pt" fill="#ff9a08"/></g><path d="M391.704 285.632s.13 6.188-.259 6.832c-.386.645-3.91 2.278-3.91 2.278l3.008 6.402s8.465-1.203 8.508-1.203 3.654-9.58 3.654-9.58-1.89-3.18-1.418-6.49c-2.836-8.98-9.453 1.805-9.582 1.762z" fill-rule="evenodd" stroke="#000" stroke-width="1.1pt" fill="#ffc6b5"/><path stroke-linejoin="round" d="M380.495 432.7s4.75 4.75 10.225 4.13c12.394-1.34 16.01-12.393 19.83-12.496s6.198 6.713 9.812 5.887c-3.098-5.68-6.403-18.28-5.887-27.163.517-8.882.517-46.27.517-46.27s-6.197-19.315-9.09-22.517c2.893-3.1 4.855-8.572 4.752-14.563-.104-5.99 0-12.6 0-12.6s1.445-1.653 1.343-6.3c-.104-4.648-7.85-11.362-8.883-11.052-1.033.31-10.74 8.675-11.567 10.638-.828 1.962-1.963-7.127-.104-7.953 1.86-.826-4.338-1.343-8.263 3.305s-2.788 137.16-2.685 136.95z" fill-rule="evenodd" stroke="#000" stroke-width="1.375" fill="#005121"/><path d="M333.912 258.907l36.35.13-.26-16.747 13.24.13.13 16.616h36.22l.13 12.983-36.35.128-.29 153.098-12.916.082L370 272.02l-36.096.13.008-13.24z" fill-rule="evenodd"/><path d="M370.133 299.455s-2.484-.438-4.382.146 2.922-21.544 2.922-23.37c1.68-.803 10.078-2.337 9.86-8.252-.585-3.58-13 .22-12.78 4.747-.804 2.264-8.91 25.342-7.304 32.937 2.848 2.264 8.107 1.826 11.685 1.242v-7.45z" fill-rule="evenodd" stroke="#000" stroke-width="1.1pt" fill="#ffc6b5"/><path d="M372.542 267.832s-.73 4.09 2.994 4.674" stroke="#000" stroke-linecap="round" stroke-width=".6875" fill="none"/><path d="M378.02 267.758c-.146.073-4.82 2.995-4.82 2.995M377.734 269.584l-3.287 2.41M376.49 266.883l-3.65 2.19" stroke="#000" stroke-width=".41250000000000003" fill="none"/><path d="M340.94 389.216l33.153 34.394c11.464-12.6 3.512-59.7-11.567-68.374-1.807 5.577-4.88 12.264-8.147 14.42-7.19 4.898-24.802 10.625-18.915 14.292 1.343-1.86 4.855-3.614 6.507.517 1.963 6.507-7.333 6.92-7.333 6.92s-5.888-.724-6.92-6.714c-1.034-5.99 8.768-11.458 9.605-11.876.826-.31 13.633-3.718 15.802-15.08 2.685-11.155 5.474-9.502 5.99-9.708 16.732 1.652 27.68 31.605 28.3 52.674.62 21.07-8.572 35.013-10.225 35.943-1.652.93-39.867-45.34-39.867-45.34l3.614-2.067z" fill-rule="evenodd" stroke="#000" stroke-width="1.1pt" fill="#ff9a08"/><path d="M365.106 357.195l.206 62.073M361.388 358.328l.206 56.394M357.362 366.49l.206 44.825M354.062 369.69l.207 37.08M350.542 371.352v31.295M346.725 373.827v24.787M343.418 375.785v19.004" stroke="#000" stroke-width="1.1pt" fill="none"/><path d="M340.423 393.143l34.187 39.138M376.26 368.46s15.494 33.877 1.136 61.763M336.395 386.015s1.136-2.995 2.582-1.756M333.71 377.336s-6.197 5.474-2.79 8.986" stroke="#ffdf00" stroke-linecap="round" stroke-width="1.375" fill="none"/><path d="M391.033 300.6s.517 4.75-.516 8.365 3.925 13.633 2.065 15.7M393.1 334.37l13.015-.103" stroke="#000" stroke-width="1.1pt" fill="none"/><path d="M388.35 339.64c.102.205 1.548 6.816 1.134 11.36M392.584 342.015c-.413 1.343-5.784 16.63-5.577 17.248M395.785 335.096c.103.31-.413 9.71-1.86 11.052M402.396 334.37s8.47 19.624 8.367 27.37 2.892 23.446.93 30.366M405.08 361.54s-.62 14.563-6.713 20.243c-6.094 5.682 14.563 21.897 14.563 21.897" stroke="#000" stroke-linecap="round" stroke-width="1.1pt" fill="none"/><path d="M404.87 402.746s2.274 20.037 6.095 21.483M386.182 369.174c.103.207-2.066 13.53-.31 15.7 1.756 2.168 16.32 22.515 15.7 43.586M397.435 422.16s-.414 12.705-12.188 13.738M393.926 413.8s3.512 13.22-8.47 21.587" stroke="#000" stroke-linecap="round" stroke-width="1.375" fill="none"/><path d="M398.568 381.88s13.53 14.046 14.15 20.243M402.495 334.678s2.376 10.018 1.447 11.774" stroke="#000" stroke-linecap="round" stroke-width="1.1pt" fill="none"/><path d="M360.76 355.26s-1.448-2.536-1.266-5.344-.453-7.152 8.602-10.684c5.523-5.613 11.68-8.964 15.03-10.683 4.89-3.17 8.06-2.446 10.955-3.533 1.903-2.173 1.812-6.972 3.804-11.227 1.992-4.255 5.523-13.038 9.326-11.68 3.803 1.358.815 12.767-.634 16.75-1.45 3.985-2.716 8.15-5.25 10.595-2.537 2.444-14.035 6.88-16.3 7.696s-12.584 3.17-15.21 6.792c-2.627 3.62-2.445 8.964-9.055 11.318z" fill-rule="evenodd" stroke="#000" stroke-width="1.1pt" fill="#ffc6b5"/><path d="M360.035 347.658c.272-.09 4.527-1.45 6.52 2.355" stroke="#000" stroke-width="1.1pt" fill="none"/><path stroke-linejoin="round" d="M392 270.02s-1.913 3.12-2.443 5.017c-.412 1.418-1.738-.095-2.44 2.98l1.138.198c-.453.906-.6 2.436-.69 2.798-.092.362-.73 2.016-.634 3.26.052.64 1.268 3.44 11.137-.816 9.87-4.255-3.17-16.335-6.066-13.437z" fill-rule="evenodd" stroke="#000" stroke-width="1.375" fill="#ffc6b5"/><path stroke-linejoin="round" d="M390.89 270.42c1.013-.544 8.203-1.178 7.005 12.856 1.382-.18 2.212-.362 3.04.996.83 1.358.738 2.988 2.212 2.988 1.475 0 1.66-.272 2.03-1.358.366-1.087 6.082 1.267 7.555-3.803-.256-.988-3.502-2.536-3.87-4.347.83-2.535-.37-10.775-10.875-11.228-5.438-.09-6.543 2.173-7.097 3.894z" fill-rule="evenodd" stroke="#000" stroke-linecap="round" stroke-width="1.3871" fill="#c59200"/><path d="M390.362 273.226c.09.09 3.26.997 3.622 2.536" stroke="#000" stroke-linecap="round" stroke-width="1.1pt" fill="none"/><path d="M392.31 276.953c0 .475-.367.86-.817.86s-.817-.385-.817-.86.366-.86.817-.86.816.386.816.86z" fill-rule="evenodd"/><path stroke-linejoin="round" d="M405.718 276.996s-1.16 5.586 3.953 7.778M401.934 277.684s1.894.086 1.894 1.847c0 1.763-1.555 1.978-1.425 3.396.128 1.418 2.667 1.89 2.753 3.094M393.64 267.37c.086 0 9.067 1.032 8.55 3.267-.515 2.234-1.932 1.332-1.89 3.265s3.61.774 3.61.774.215-1.633 1.72-1.504.815 1.848 2.878 1.804" stroke="#000" stroke-linecap="round" stroke-width="1.375" fill="none"/><path d="M388.15 281.304l2.13-.07" stroke="#000" stroke-linecap="round" stroke-width="1.375" fill="none"/><path d="M393.695 290.366s.792 3.695-2.2 3.343" stroke="#000" stroke-linecap="round" stroke-width="1.1pt" fill="none"/><g stroke-width="1pt"><path d="M0 .063v21.182L255.95 189.52h32.218v-21.182L32.218.064H0zm288.168 0v21.18L32.218 189.52H0v-21.182L255.95.063h32.218z" fill="#fff"/><path d="M120.07.063V189.52h48.028V.062H120.07zM0 63.215v63.152h288.168V63.215H0z" fill="#fff"/><path d="M0 75.845v37.892h288.168V75.845H0zM129.676.063V189.52h28.816V.062h-28.816zM0 189.52l96.056-63.153h21.478L21.478 189.52H0zM0 .062l96.056 63.152H74.578L0 14.185V.062zm170.634 63.152L266.69.063h21.478l-96.056 63.152h-21.478zM288.168 189.52l-96.056-63.153h21.478l74.578 49.03v14.122z" fill="#c00"/></g></svg>