<svg xmlns="http://www.w3.org/2000/svg" height="512" width="512" version="1"><defs><clipPath id="a"><path fill-opacity=".67" d="M179.71 0h708.66v708.66H179.71z"/></clipPath></defs><g fill-rule="evenodd" clip-path="url(#a)" transform="matrix(.7 0 0 .7 -129.8 0)" stroke-width="1pt"><path fill="#f41408" d="M0 0h1063v708.66H0z"/><path fill="#21873b" d="M0 472.44h1063v236.22H0z"/><path d="M0 0h1063v236.22H0z"/><path d="M401.415 214.037c30.876-75.192 116.965-111.16 192.157-80.283 37.867 15.55 64.692 42.36 80.258 80.228l-272.415.056zM365.47 223.756c-32.46-2.415-66.953-9.857-72.58-11.907-5.63-2.05-5.846-5.473-5.152-8.094.693-2.622 4.285-5.6 8.48-4.49 7.864 2.08 39.845 10.54 69.253 24.49zM537.98 92.623c-5.825-32.024-7.295-67.28-6.727-73.243.57-5.963 3.827-7.033 6.538-7.02 2.713.01 6.497 2.74 6.478 7.078-.036 8.134-.18 41.215-6.288 73.185zM553.95 93.365c-3.06-32.404-1.503-67.657-.426-73.55 1.078-5.89 4.416-6.68 7.116-6.434 2.7.245 6.237 3.287 5.846 7.608-.732 8.102-3.71 41.05-12.536 72.378zM568.423 95.328c-.383-32.546 4.07-67.55 5.627-73.334 1.56-5.784 4.95-6.294 7.62-5.828 2.673.465 5.947 3.79 5.202 8.063-1.397 8.013-7.077 40.602-18.45 71.1zM583.668 98.737c2.482-32.454 9.996-66.932 12.057-72.556 2.06-5.623 5.484-5.833 8.104-5.134 2.62.7 5.588 4.297 4.47 8.49-2.097 7.86-10.622 39.823-24.633 69.202zM598.672 103.518c5.354-32.105 15.898-65.78 18.45-71.198 2.553-5.42 5.98-5.324 8.528-4.395 2.548.928 5.186 4.776 3.7 8.852-2.786 7.643-14.114 38.724-30.678 66.742zM612.68 109.367c8.077-31.53 21.462-64.18 24.468-69.36 3.006-5.182 6.414-4.793 8.873-3.65 2.46 1.143 4.76 5.202 2.93 9.136-3.43 7.376-17.374 37.375-36.272 63.875zM626.448 116.58c10.808-30.7 27-62.053 30.45-66.95 3.447-4.898 6.808-4.213 9.157-2.86 2.35 1.354 4.284 5.6 2.118 9.358-4.062 7.048-20.58 35.71-41.726 60.454zM639.48 124.928c13.442-29.643 32.305-59.466 36.167-64.044 3.862-4.58 7.15-3.603 9.373-2.05 2.222 1.554 3.78 5.95 1.294 9.507-4.66 6.668-23.613 33.782-46.835 56.59zM651.74 134.386c15.98-28.356 37.373-56.418 41.62-60.642 4.247-4.224 7.437-2.965 9.515-1.224 2.08 1.742 3.247 6.258.46 9.584-5.225 6.235-26.472 31.59-51.596 52.283zM663.165 144.905c18.398-26.85 42.165-52.933 46.765-56.77 4.6-3.835 7.668-2.303 9.586-.386 1.918 1.916 2.686 6.517-.38 9.586-5.75 5.754-29.134 29.154-55.972 47.57zM673.643 156.43c20.682-25.133 46.646-49.03 51.564-52.448 4.92-3.42 7.842-1.622 9.584.455 1.743 2.078 2.105 6.73-1.22 9.517-6.232 5.227-31.578 26.486-59.928 42.476zM682.67 168.237c22.712-23.312 50.586-44.952 55.773-47.946 5.188-2.994 7.95-.96 9.512 1.257 1.562 2.216 1.533 6.88-2.012 9.38-6.65 4.688-33.686 23.75-63.275 37.31zM690.835 181.036c24.626-21.284 54.248-40.46 59.673-43 5.425-2.54 8.002-.276 9.37 2.066 1.366 2.342.938 6.987-2.81 9.174-7.024 4.102-35.593 20.78-66.233 31.76zM698.408 195.63c26.49-18.914 57.76-35.265 63.397-37.29 5.637-2.027 7.994.465 9.138 2.923 1.144 2.46.288 7.044-3.645 8.875-7.375 3.434-37.365 17.396-68.89 25.49zM704.183 209.713c28.014-16.57 60.572-30.18 66.362-31.715 5.79-1.535 7.924 1.15 8.853 3.697.93 2.548-.317 7.043-4.392 8.53-7.643 2.788-38.72 14.127-70.824 19.488zM708.846 224.643c29.366-14.038 62.996-24.725 68.898-25.744 5.903-1.02 7.792 1.843 8.493 4.462.7 2.62-.936 6.988-5.127 8.11-7.858 2.103-39.814 10.66-72.265 13.17zM522.354 93.228c-8.762-31.347-13.487-66.317-13.472-72.307.014-5.99 3.16-7.356 5.86-7.594 2.702-.24 6.722 2.127 7.104 6.45.717 8.102 3.632 41.054.508 73.452zM506.988 95.212c-11.464-30.462-19.224-64.886-19.732-70.854-.51-5.968 2.506-7.605 5.175-8.078 2.67-.474 6.883 1.533 7.64 5.804 1.422 8.01 7.203 40.582 6.92 73.13zM491.714 98.573c-14.104-29.334-24.866-62.94-25.9-68.84-1.03-5.9 1.828-7.797 4.445-8.504 2.617-.708 6.99.92 8.12 5.108 2.122 7.854 10.75 39.79 13.334 72.236zM477.33 103.067c-16.545-28.03-30.12-60.6-31.65-66.392-1.53-5.792 1.157-7.923 3.704-8.85 2.55-.927 7.043.324 8.526 4.4 2.78 7.646 14.09 38.734 19.42 70.843zM463.258 108.827c-18.884-26.51-35.2-57.8-37.22-63.438-2.02-5.64.474-7.994 2.933-9.135 2.46-1.142 7.046-.28 8.872 3.654 3.426 7.378 17.355 37.384 25.416 68.918zM449.05 116.162c-21.195-24.702-40.264-54.394-42.784-59.828-2.52-5.434-.247-8.003 2.1-9.362 2.346-1.358 6.99-.914 9.164 2.84 4.076 7.04 20.652 35.67 31.52 66.35zM436.106 124.357c-23.248-22.78-44.81-50.715-47.788-55.91-2.98-5.198-.937-7.953 1.283-9.51 2.222-1.556 6.887-1.513 9.377 2.04 4.668 6.662 23.653 33.753 37.13 63.38zM423.986 133.476c-25.107-20.713-48.972-46.706-52.384-51.63-3.412-4.922-1.613-7.842.467-9.582 2.08-1.74 6.73-2.096 9.514 1.232 5.22 6.24 26.447 31.61 42.403 59.98zM412.2 144.08c-26.853-18.392-52.942-42.153-56.78-46.752-3.836-4.6-2.304-7.668-.388-9.586 1.917-1.92 6.518-2.688 9.587.378 5.754 5.75 29.16 29.127 47.58 55.96zM402.03 154.955c-28.3-16.077-56.29-37.568-60.498-41.83-4.21-4.26-2.94-7.447-1.19-9.52 1.748-2.072 6.268-3.224 9.584-.426 6.217 5.246 31.5 26.58 52.104 51.776zM392.28 167.39c-29.62-13.497-59.407-32.415-63.978-36.285-4.572-3.87-3.59-7.157-2.033-9.376 1.557-2.22 5.957-3.77 9.508-1.28 6.66 4.675 33.738 23.677 56.502 46.94zM383.55 180.856c-30.717-10.77-62.09-26.922-66.992-30.364-4.902-3.442-4.222-6.804-2.87-9.154 1.35-2.352 5.593-4.292 9.354-2.13 7.053 4.053 35.737 20.534 60.508 41.65zM376.302 194.54c-31.537-8.05-64.2-21.408-69.383-24.41-5.184-3-4.8-6.41-3.658-8.87 1.14-2.46 5.198-4.762 9.134-2.937 7.38 3.423 37.39 17.342 63.906 36.218zM370.49 208.26c-32.102-5.38-65.768-15.952-71.184-18.51-5.417-2.555-5.32-5.984-4.39-8.53.932-2.548 4.782-5.182 8.857-3.693 7.64 2.792 38.712 14.147 66.717 30.734z" fill="#f31509"/><path d="M365.47 223.756c-32.46-2.415-66.953-9.857-72.58-11.907-5.63-2.05-5.846-5.473-5.152-8.094.693-2.622 4.285-5.6 8.48-4.49 7.864 2.08 39.845 10.54 69.253 24.49z" fill="#f31509"/><path d="M275.33 214.74h527.66v19.174H275.33z"/></g></svg>