<svg xmlns="http://www.w3.org/2000/svg" height="512" width="512"><g fill-rule="evenodd" stroke-width="1pt"><path fill="#fff" d="M0 0h512v512H0z"/><path fill="#0b7226" d="M0 0h171.446v512H0z"/><path fill="#bc0000" d="M341.544 0H512v512H341.545z"/></g><path d="M143.284 279.146c.082-.106 3.7-6.44 3.27-5.42 1.667 1.278 4.71.068 2.502-2.804.537-1.162 1.215-2.047 1.753-3.21 1.213-2.273-1.387-3.253-2.415-1.68-.63 1.203-1.236 1.92-1.865 3.124-3.275-1.555-3.49 2.102-1.924 2.74-.695.985-1.88 2.608-2.574 3.592l1.252 3.658z" fill-rule="evenodd" fill="#9c4314"/><path d="M142.85 277.73c-.108-.08-6.492-3.607-5.466-3.193 1.254-1.684 0-4.71-2.84-2.46-1.17-.522-2.064-1.188-3.233-1.708-2.29-1.182-3.232 1.43-1.646 2.436 1.213.613 1.937 1.21 3.15 1.82-1.507 3.298 2.153 3.462 2.768 1.886.995.68 4.847 2.914 5.84 3.595 1.215-.434.214-1.942 1.428-2.377zM165.943 316.428c.022-.133.186-7.425.295-6.323 2.073.33 4.172-2.184.863-3.658-.08-1.277.095-2.378.014-3.656-.015-2.577-2.768-2.2-2.923-.328.02 1.36-.172 2.277-.15 3.636-3.622.193-2.07 3.51-.387 3.326-.143 1.197-.41 3.187-.553 4.384l2.843 2.62z" fill-rule="evenodd" fill="#9c4314"/><path d="M164.888 315.39c-.133-.02-7.426-.08-6.326-.206.3-2.078-2.243-4.14-3.67-.81-1.276.097-2.38-.06-3.656.037-2.577.054-2.16 2.8-.287 2.93 1.357-.04 2.278.14 3.637.1.244 3.617 3.54 2.017 3.33.338l6.14.642c.86-.96-.03-2.07.83-3.03z" fill-rule="evenodd" fill="#9c4314"/><path d="M240.35 340.386s2.502 3.377 3.627 3.502c3.502.25 31.266 0 31.266 0 0-.042 1-.584 1-.626.918-1.167.835-1.834 1.752-3 1.46-1.46 3.543-1.92 5.002-3.378 6.254-1.5 11.882-3 18.135-4.002-.5-3.71-4.252-2.918-6.253-4.377-.626-.584-.502-1.168-.126-1.752 4.627-2.126 9.254-4.25 13.882-6.378v-1.5c-9.84 1.167-18.927 3.084-29.516 3.5l-36.144 14.884-2.626 3.126z" fill-rule="evenodd" stroke="#000" stroke-width="1.055475" fill="#42b2f3"/><path d="M140.422 273.976h-.125c.627 0 .128.042 0-1.5" stroke="#000" stroke-width=".42219pt" fill="none"/><path d="M140.958 275.638c-1.876-6.628-4.907-12.436-11.982-14.153-1.326-.302-2.27-4.09-.058-3.914 1.25.5.025-.237 1.276.263 1.238.443 3.166-.534 2.37-2.64 0-.25-2.36-4.443-2.36-4.568-.444-.478.378-3.166 2.5-1.75 1 .656 2 2.198 3.444 2.5.53-.088.88-1.735.793-3.01 0-.125.126-4.323.126-4.323-.503-2.53 1.736-3.82 3.532-1.928.125.626-.015.632.11 1.258.412.837.912.967 1.5.125l2.377-2.377c1.41-.524 2.292-1.048 2.376 1.876 0 0-1.945 2.44-2.866 3.325-.48.708-1.52 1.67.287 2.2.125 0 2.58.355 2.58.355 1.682.698 1.86 2.546.62 2.714 0 0-1.31 1.528-3.61 2.802-.706.568-1.288 1.25-.67 2.032 1.327.515.905.02 3.167.02 1.91-.44 1.733 4.234-1.716 3.918-1.03.246-2.393.144-2.953 1.793-.25 1.285-.31 3.752-.31 4.377-.216 2.977.222 7.106.222 7.23.25 2.127-.5 1.376-.752 1.876zM161.43 313.777c-.244-.31-6.51-7.18-13.75-6.407-1.35.163-3.517-3.085-1.376-3.665 1.346.05.298-.144 1.644-.095 1.137-.798-.92-3.254-1.85-2.4-.084-.236-2.48.512-3.498.306-3.146-.3-4.52-3.817-2.22-5.15 1.428.546 4.13.597 5.59.395 1.444-.438.775-1.753-.624-1.95-1.99-.294-10.02-2.25-9.31-3.224-1.33-2.212-.01-3.917 2.32-2.742 1.922 1.166 2.146.51 1.678-.36-.57-1.652-1.118-1.256-1.202-2.69-.142-.925.16-1.76 1.523-1.18.575-.485 1.522 2.978 5.097 1.665.662.552 1.225-3.747 3.706-3.093 1.86.575.59 2.51.953 5.24.3 1.798 2.095 1.385 2.342.452-.39-4.133 3.65-4.206 4.112-2.81.384 1.02.73 3.8.24 6.413-.266 1.328-.055 3.965.79 4.49 1.424.038.506-.285 1.484-1.757 1.648-1.06 4.21 2.78 1.21 4.71-3.162.68 1.794 12.733 2.212 13.405-.458.494-1.003-.108-1.07.447z" fill-rule="evenodd" stroke="#286726" stroke-width="1.9526287500000001" fill="#008d00"/><path d="M200.28 346.014c0-.134-.98-7.36-.7-6.29 2.1 0 3.78-2.81.28-3.748-.28-1.25-.28-2.364-.56-3.614-.42-2.543-3.08-1.74-2.94.134.234 1.338.188 2.276.42 3.614-3.545.758-1.492 3.792.14 3.346.048 1.204.094 3.212.14 4.416l3.22 2.142z" fill-rule="evenodd" fill="#9c4314"/><path d="M200.153 345.162c-.133 0-7.346 1.084-6.28.788-.03-2.1-2.864-3.738-3.75-.226-1.246.297-2.36.313-3.606.61-2.537.456-1.696 3.104.175 2.938 1.335-.252 2.273-.22 3.608-.47.808 3.533 3.813 1.437 3.343-.19 1.204-.062 4.96-.262 6.165-.326.7-1.083-.353-2.04.345-3.124z" fill-rule="evenodd" fill="#9c4314"/><path d="M197.692 305.638c17.653 10.42 22.19 8.907 21.452 4.29.847 0 1.03.737 3.535-1.11-.35 6.827 7.084 10.752 11.615 9.928 4.09.264 3.562 5.672 3.562 5.672.248 5.534-1.613 7.77-1.364 13.304-.062 0-.125-.66-.187-.66-5.03-1.196-14.942-1.337-18.654-2.137 17.016-11.608-13.086-11.926-15.78-12.322-2.032-.264-.58-2.242.606-2.77 9.366-1.846-8.803-10.715-8.33-11.77-1.11-.66.078-1.188.078-1.188 1.243-.808 2.223-.43 3.466-1.237z" fill-rule="evenodd" stroke="#000" stroke-width="1.10824875" fill="#33b1e9"/><path d="M241.773 314.467c-3.07 0-5.54 2.47-5.54 5.54-.923 4.22-.792 10.156 0 15.828 0 3.07 2.47 5.54 5.54 5.54 12.223 1.32 25.37.923 36.67 0 3.068 0 5.54-2.47 5.54-5.54 1.45-5.012 1.054-10.288 0-15.828 0-3.07-2.472-5.54-5.54-5.54-12.224-.528-24.71-1.188-36.67 0z" fill-rule="evenodd" stroke="#000" stroke-width="1.5832125000000001" fill="#983d25"/><path stroke-linejoin="round" d="M200.487 163.794l-8.367 7.246c-3.436 1.52-7.17 3.412-4.482 11.505-1.57 10.384 6.798 12.027 14.12 9.86 1.22-2.69 1.607-4.545 2.827-7.235-3.238-.497-4.97.637-7.908.437-2.017-.323-2.166-1.842-1.42-2.838 3.163-1.57 6.027-3.064 9.19-4.632-.076-.474-.15-.125-.225-.598-2.615 1.344-4.482 1.793-7.246 2.913-2.192.772-2.814-2.042-1.942-3.287 0 0 5.677-8.142 5.677-8.217.476-1.713.147-4.597-.223-5.156z" fill-rule="evenodd" stroke="#000003" stroke-linecap="round" stroke-width="1.055475" fill="#268728"/><path d="M223.876 306.148c0 2.42-1.962 4.384-4.383 4.384-2.42 0-4.384-1.962-4.384-4.384 0-2.42 1.962-4.383 4.383-4.383 2.42 0 4.383 1.962 4.383 4.383z" fill-rule="evenodd" stroke="#000" stroke-width="1.055475" fill="#fff"/><path d="M203.086 322.68c0 2.283-1.85 4.134-4.133 4.134s-4.133-1.85-4.133-4.133c0-2.282 1.85-4.132 4.133-4.132s4.133 1.85 4.133 4.133z" fill-rule="evenodd" stroke="#000" stroke-width="1.0552835699999998" fill="#fff"/><path d="M305.784 331.948c0 2.282-1.85 4.133-4.133 4.133-2.282 0-4.132-1.85-4.132-4.132 0-2.283 1.85-4.133 4.133-4.133s4.134 1.85 4.134 4.133z" fill-rule="evenodd" stroke="#000" stroke-width="1.04493375" fill="#fff"/><path stroke-linejoin="round" d="M200.884 169.317c.1 2.485.166 5.606.166 6.556-.105-2.324-.92-4.185-1.22-5.1.36-.596.948-1.456 1.054-1.456z" fill-rule="evenodd" stroke="#000" stroke-width=".42219pt" fill="#ba4600"/><path d="M241.413 336.96c0 2.282-1.85 4.132-4.134 4.132-2.283 0-4.134-1.85-4.134-4.133s1.85-4.134 4.133-4.134c2.282 0 4.133 1.85 4.133 4.133zM284.995 336.96c0 2.282-1.85 4.132-4.133 4.132s-4.133-1.85-4.133-4.133 1.85-4.134 4.132-4.134c2.283 0 4.133 1.85 4.133 4.133zM284.995 316.918c0 2.282-1.85 4.133-4.133 4.133s-4.133-1.85-4.133-4.132c0-2.283 1.85-4.133 4.132-4.133 2.283 0 4.133 1.85 4.133 4.133zM241.662 316.918c0 2.282-1.85 4.133-4.134 4.133-2.282 0-4.133-1.85-4.133-4.132 0-2.283 1.85-4.133 4.133-4.133s4.134 1.85 4.134 4.133z" fill-rule="evenodd" stroke="#000" stroke-width="1.51983126" fill="#973100"/><path d="M200.897 348.257c-.244-.31-2.1-5.573-12.59-5.8-1.477-.088-2.413.336-5.402.13-1.732.142-1.053-1.922-.367-2.665 1.138-.798-4.053-.41-5.838-.198-1.8-.103-3.01-.41-4.026-.616-3.146-.3-4.986-2.51-2.688-3.844.963-.946 4.877.13 6.338-.07 1.444-.44 1.24-2.874-.158-3.07-1.99-.295-10.673-.946-9.964-1.92-1.328-2.212-.943-3.357 2.506-2.93 1.923 1.167 1.868-.327 1.4-1.197-.57-1.653-3.73-1.91-3.814-3.344-.514-3.443 1.745-3.907 3.11-3.325.574-.485-2.583-3.178.992-4.49.89-.28 2.717-.062 3.333 3.203 1.86.576.574-2.142 3.097-3.247 2.163-.906-.144 9.687 2.434 9.593 2.224.904 1.786-5.79 3.647-4.488 4.02-1.03 2.075 12.85 3.825 12.01 2.905 2.54 3.21-2.284 4.055-1.76 1.423.04 2.37.09 1.576 3.28-.59 2.485.293 3.06.745 4.056 2.717 5.988 6.795 5.933 8.156 8.688.438 4.075-.3 1.45-.367 2.005z" fill-rule="evenodd" stroke="#286726" stroke-width="1.9526287500000001" fill="#008d00"/><path d="M251.137 357.467c-5.016 4.12-10.227 6.79-12.135 11.08 2.286-.308 3.17-.69 4.875-.475 1.847-4.132 7.656-6.34 11.086-9.68-1.275-.31-2.55-.617-3.826-.924zM264.554 357.91c4.536 4.19 10.16 6.583 12.135 11.01-2.287-.308-3.24-.62-4.603-.268-1.847-4.133-7.93-6.546-11.358-9.888 1.274-.308 2.55-.547 3.824-.855z" fill-rule="evenodd" stroke="#000" stroke-width="1.055475" fill="#009400"/><path d="M261.126 358.762c5.496 3.298 7.69 5.67 11.075 9.892-1.626.098-3.908.836-4.743 1.32-4.09-5.32-7.255-7.21-10.684-10.553 1.275-.307 3.078-.35 4.353-.658z" fill-rule="evenodd" stroke="#000" stroke-width="1.055475" fill="#fff"/><path d="M209.243 180.192c-2.2.606-3.15 2.462-3.352 4.194-8.11 5.68-2.214 16.865 5.308 14.542-5.566-8.335 0-13.042 6.19-10.12 1.876 1.375 3.184 4.244 3.36 4.067 1.178-2.553 5.838-4.775 5.838-4.775s3.753.504 4.43-1.924c.427-1.553 3.882-7.98 3.882-7.98l-12.027-2.477c-2.77-.06-5.54-.12-8.312-.178l-4.42 1.945c-.59.944-.305 1.762-.895 2.705z" stroke-opacity=".772" fill-rule="evenodd" stroke="#000" stroke-width="1.055475" fill="#ffba00"/><path d="M256.643 359.028c5.496 3.298 8.016 6.385 11.402 10.606-1.49.44-1.994 2.892-2.83 3.375-2.637-5.32-7-9.854-11.617-14.383 1.275-.308 1.77.71 3.045.4z" fill-rule="evenodd" stroke="#000" stroke-width="1.055475" fill="#d40000"/><path d="M254.565 358.39c-5.496 3.298-7.414 5.398-10.8 9.62 1.627.097 3.634 1.108 4.47 1.592 4.09-5.32 7.254-7.21 10.684-10.552-1.276-.308-3.08-.352-4.355-.66z" fill-rule="evenodd" stroke="#000" stroke-width="1.055475" fill="#fff"/><path d="M259.05 358.656c-5.497 3.298-7.81 6.59-11.197 10.81 2.725 1.952 2.06 2.07 2.622 3.172 2.64-5.32 8.442-9.717 13.06-14.246-1.276-.307-3.21.572-4.486.264z" fill-rule="evenodd" stroke="#000" stroke-width="1.055475" fill="#d40000"/><path d="M203.69 472.45c0 5.002-7.22 9.058-16.127 9.058s-16.127-4.056-16.127-9.058 7.22-9.058 16.127-9.058 16.127 4.056 16.127 9.058z" fill-rule="evenodd" transform="matrix(.4 .1 -.1 .5 170.3 53.1)" stroke="#000" stroke-width="2.243" fill="#973000"/><path d="M250.12 351.734c-3.962 2.847-9.565 6.65-13.526 9.498-.814.694 2.746 1.423 4.05.784 4.183-2.87 6.383-4.75 10.565-7.623l2.39-1.335c-1.706-.122-1.773-1.2-3.48-1.324z" fill-rule="evenodd" stroke="#005e00" stroke-width="1.055475" fill="#008d2b"/><path d="M203.69 472.45c0 5.002-7.22 9.058-16.127 9.058s-16.127-4.056-16.127-9.058 7.22-9.058 16.127-9.058 16.127 4.056 16.127 9.058z" fill-rule="evenodd" transform="matrix(.4 -.1 .2 .4 63 178.2)" stroke="#000" stroke-width="2.549" fill="#973000"/><path d="M290.527 307.866c.207-10.87 9.74-1.353 13.482-5.832 8.793-10.365 9.547-11.154 17.317-10.03 20.824 8.184-.912 27.107-22.195 18.49-2.336-1.285-6.27-1.343-8.605-2.628z" fill-rule="evenodd" stroke="#000" stroke-width="1.10951532" fill="#008d00"/><g fill-rule="evenodd" fill="#6d390b"><path d="M369.062 272.042c-.278 1.214-1.698 1.86-3.173 1.44s-2.445-1.743-2.167-2.958 1.698-1.86 3.172-1.44 2.445 1.743 2.167 2.958z"/><path d="M368.36 271.49l5.067 4.395-1.335 1.538-5.066-4.395z"/></g><path d="M337.62 287.578l1.105 1.55 3.822-3.33-1.106-1.55-3.82 3.33z" fill-rule="evenodd" fill="#6d390b"/><path d="M241.773 314.334c6.463 1.98 11.212 25.458 17.543 27.568M247.97 314.203c6.464 1.98 11.08 25.457 17.412 27.568M254.038 313.94c6.463 1.978 11.21 25.588 17.543 27.698" stroke="#000" stroke-linecap="round" stroke-width="1.5832125000000001" fill="none"/><path d="M203.69 472.45c0 5.002-7.22 9.058-16.127 9.058s-16.127-4.056-16.127-9.058 7.22-9.058 16.127-9.058 16.127 4.056 16.127 9.058z" fill-rule="evenodd" transform="matrix(.4 -.1 .2 .4 157.4 161.9)" stroke="#000" stroke-width="2.243" fill="#973000"/><path d="M340.658 292.968c.324 1.253-.237 2.88-2.443 3.45-2.205.57-4.276-.29-4.6-1.545s.954-3.056 3.16-3.626c2.205-.57 3.56.467 3.883 1.72z" fill-rule="evenodd" stroke="#000" stroke-width="1.00818972" fill="#dc0000"/><path d="M243.597 353.066c-3.27.663-10.724 2.278-13.974 8.793-.59 1.225-5.493 2.175-4.83.06.767-1.108 1.04-1.205 1.808-2.312-.06-1.39-3.237-.978-3.018.264-.244-.056-1.78.24-2.502.986-1.95 2.488-5.276 2.378-5.16-.277 1.23-.908 1.852-1.782 2.47-3.12.407-1.454-2.436-1.974-3.356-.9-1.945 1.017-3.167 2.475-5.482 3.605-2.578.927-5.056-.726-2.81-2.056 2.017-.992.335-3.285-.65-3.36-1.7-.41-8.665.765-9.918.063-.98-.13-2.774-2.708-.674-3.17 1.903-.62 5.08.698 5.9-3.02.822-6.264 10.76 3.202 9.147.59-3.64-5.386 2.556-6.65 4.427-2.984.763 1.655 4.547 4.11 5.644 3.648 2.063.228-3.827-5.215.85-6.103 1.066.227 2.968.308 4.28 2.127.977.94 1.185 4.808 4.835 5.13.798-1.18.032-.58-.68-2.197-.007-1.96 3.234-1.8 4.618 1.517 1.373 2.53 8.614.812 15.24.964 2.122-.347 5.537 1.52-6.163 1.75z" fill-rule="evenodd" stroke="#286026" stroke-width="1.9526287500000001" fill="#008d00"/><path d="M333.325 292.736c1.166 1.79 1.14 4.628-2.01 6.678s-6.838 1.795-8.003.004c-1.166-1.79-.115-5.28 3.035-7.33 3.15-2.052 5.812-1.143 6.978.648z" fill-rule="evenodd" stroke="#000" stroke-width="1.055475" fill="#dc0000"/><path d="M335.58 285.31c1.09.697 1.788 2.27.563 4.19-1.226 1.92-3.326 2.703-4.418 2.006-1.09-.697-1.385-2.886-.16-4.807 1.225-1.92 2.922-2.086 4.014-1.39z" fill-rule="evenodd" stroke="#000" stroke-width="1.00818972" fill="#dc0000"/><path d="M338.898 288.567c.706 1.085.69 2.805-1.218 4.048-1.91 1.243-4.145 1.088-4.85.002s-.07-3.2 1.838-4.443c1.91-1.243 3.523-.692 4.23.393z" fill-rule="evenodd" stroke="#000" stroke-width="1.00818972" fill="#dc0000"/><path d="M346 282.138c.53.816.52 2.11-.917 3.045-1.436.936-3.12.82-3.65.002-.532-.816-.053-2.408 1.384-3.343 1.436-.935 2.65-.52 3.182.296z" fill-rule="evenodd" stroke="#000" stroke-width=".75825324" fill="#d90000"/><path d="M255.24 348.067c-2.81.33-4.41.503-4.948 2.536-.3 1.38-.06 3.184.18 4.733 0 1.78 2.245 2.958 4.86 3.465h4.498c1.895 0 5.4-1.854 5.4-3.633.28-1.005.27-2.63.27-3.728 0-2.993-2.113-3.178-4.753-3.458l-5.506.085z" fill-rule="evenodd" stroke="#000" stroke-width="1.055475" fill="#fff"/><path d="M355.13 312.726c-.31-10.384-3.046-25.432 9.7-30.593 1.646-.43 2.24.498 1.68 1.866l-11.38 28.726z" fill-rule="evenodd" stroke="#286326" stroke-width="1.74153375" fill="#008f00"/><path d="M371.605 291.582c2.27-4.27 7.877-5.344 9.855-5.21-3.913 4-7.826 13.805-10.024 17.014-3.166 5.452-12.4 9.32-17.94 12.53 6.2-8.44 11.91-15.893 18.11-24.334z" fill-rule="evenodd" stroke="#286326" stroke-width="1.74153375" fill="#008c00"/><path d="M255.48 348.015s-2.813.5-2.875.5-2.19 1.376-2.19 1.376-.437 2.69-.437 2.752.5 3.064.5 3.064l1.314 1.814 3.44 1.188.25-10.693z" fill-rule="evenodd" stroke="#000" stroke-width=".42219pt" fill="#009400"/><path d="M353.455 315.897c.373-.373 7.296-33.014 18.84-36.88 1.866 2.425.966 7.696.22 10.494-3.544 12.19-12.158 20.542-19.06 26.387z" fill-rule="evenodd" stroke="#286326" stroke-width="1.74153375" fill="#008d00"/><g fill-rule="evenodd" fill="#6d390b"><path d="M378.938 275.73c-.498 1.143.26 2.505 1.696 3.044s3.002.05 3.5-1.092-.26-2.505-1.695-3.044-3.003-.05-3.502 1.092z"/><path d="M379.83 275.703l-6.686.525.16 2.03 6.686-.525z"/></g><g fill-rule="evenodd" fill="#6d390b"><path d="M350.758 309.148c-.717 1.154-2.376 1.293-3.704.31s-1.824-2.713-1.107-3.866 2.375-1.293 3.704-.31 1.825 2.713 1.108 3.866z"/><path d="M350.253 308.316l3.5 6.433-1.896 1.094-3.498-6.433z"/></g><g fill-rule="evenodd" fill="#6d390b"><path d="M359.07 318.15c-.623-1.207.108-2.702 1.633-3.34s3.265-.173 3.887 1.035-.11 2.702-1.634 3.34-3.265.173-3.887-1.035z"/><path d="M360.042 318.144l-7.317-.296.032-2.188 7.317.296z"/></g><path d="M348.435 325.625c7.093-3.844 2.65 1.55 2.208 4.5-2.096 7.287-4.055 7.333-6.52 8.575-3.675 3.352-15.452 1.726-20.925 3.108 6.86-4.98 18.378-11.203 25.237-16.183zM337.817 323.935c2.962-2.35 3.448-7.54 3.25-9.338-2.684 3.834-9.554 8.046-11.755 10.263-3.77 3.245-6.085 11.928-8.114 17.195 5.77-6.21 10.85-11.91 16.62-18.12z" fill-rule="evenodd" stroke="#286326" stroke-width="1.41686964" fill="#008c00"/><path d="M300.934 353.745c4.64-1.36 12.546 2.067 13.835 3.574-5.598-.002-14.667 3.884-18.5 4.556-6.11 1.548-23.06-8.015-29.13-9.38 10.132-.51 23.425 2.718 33.794 1.25z" fill-rule="evenodd" stroke="#286326" stroke-width="1.74153375" fill="#008c00"/><path d="M265.622 352.76c3.962 2.846 9.565 6.65 13.527 9.497.812.694-2.748 1.423-4.053.785-4.182-2.872-6.382-4.752-10.564-7.624l-2.39-1.335c1.705-.122 1.773-1.2 3.48-1.323z" fill-rule="evenodd" stroke="#004500" stroke-width="1.055475" fill="#00602b"/><path d="M320.61 341.814c.474-.18 19.36-25.678 31.103-24.624.705 2.8-2.15 7-3.905 9.127-7.902 9.156-18.8 13.082-27.2 15.497z" fill-rule="evenodd" stroke="#286326" stroke-width="1.6630064100000002" fill="#008c00"/><g fill-rule="evenodd" fill="#6d390b"><path d="M318.29 338.066c-1.177.68-2.705.02-3.414-1.472s-.33-3.253.846-3.932 2.705-.02 3.414 1.47.33 3.254-.846 3.934z"/><path d="M318.237 337.094l.054 7.323-2.186.073-.054-7.323z"/></g><g fill-rule="evenodd" fill="#6d390b"><path d="M323.224 348.525c.08-1.356 1.47-2.27 3.106-2.043s2.9 1.512 2.82 2.868-1.47 2.27-3.106 2.043-2.898-1.512-2.82-2.868z"/><path d="M324.066 349.015l-6.148-3.98 1.14-1.867 6.148 3.98z"/></g><path d="M163 255.92c.554-.825 1.83-1.368 3.418-.477 1.59.89 2.26 2.45 1.707 3.275-.553.826-2.34 1.075-3.93.185-1.587-.89-1.748-2.156-1.194-2.982z" fill-rule="evenodd" stroke="#000" stroke-width=".78822873" fill="#dc0000"/><path d="M297.696 350.338c7.8-2.062 7.335-5.818 10.98-9.103-8.436-1.234-15.165 1.752-18.77 3.734-5.692 3.67-7.165 7.656-12.097 10.4 8.408-1.073 12.196-2.28 19.886-5.032z" fill-rule="evenodd" stroke="#286326" stroke-width="1.41686964" fill="#008c00"/><path d="M272.26 352.62c22.307 1.683 18.753-7.373 43.202-7.15-.36 2.863-5.03 6.455-7.437 7.8-10.69 5.653-28.26 8.3-35.764-.65z" fill-rule="evenodd" stroke="#286326" stroke-width="1.6630064100000002" fill="#008c00"/><path d="M260.924 347.952l.062 10.506 2.876-1.126s1.188-1.876 1.188-2 .5-2.565.5-2.627-.25-3.002-.25-3.002l-2.188-1.438-2.188-.312z" fill-rule="evenodd" stroke="#000" stroke-width=".42219pt" fill="#d40000"/><path fill-rule="evenodd" fill="#6d390b" d="M168.05 250.404l-3.57-3.923 1.216-1.027 3.57 3.922z"/><path d="M163.558 252.817c.605-1.053 2.002-1.746 3.74-.61 1.74 1.136 2.476 3.127 1.87 4.18s-2.562 1.374-4.3.238c-1.74-1.136-1.916-2.753-1.31-3.808z" fill-rule="evenodd" stroke="#000" stroke-width=".93177333" fill="#dc0000"/><path d="M173.387 248.422c1.016.042 2.12.94 2.062 2.987-.058 2.044-1.163 3.607-2.18 3.565s-2.097-1.602-2.04-3.648c.057-2.045 1.138-2.946 2.157-2.905z" fill-rule="evenodd" stroke="#000" stroke-width=".84691314" fill="#dc0000"/><path d="M168.384 249.237c1.152-.302 2.654.21 3.195 2.238.54 2.028-.235 3.937-1.388 4.24s-2.823-.867-3.365-2.896c-.54-2.03.404-3.28 1.557-3.583z" fill-rule="evenodd" stroke="#000" stroke-width=".9283958099999999" fill="#dc0000"/><path stroke-linejoin="round" d="M197.118 281.77c-3.478-8.843-12.97-23.523-22.64-16.448-10.73 9.256 4.894 23.818 18.218 22.993l4.422-6.545z" fill-rule="evenodd" stroke="#000" stroke-linecap="round" stroke-width="1.055475" fill="#008d00"/><path d="M169.51 255.85c1.86-1.25 4.84-1.28 7.053 1.967 2.214 3.246 2.015 7.098.158 8.348-1.858 1.25-5.543.22-7.757-3.026-2.214-3.247-1.31-6.04.548-7.29z" fill-rule="evenodd" stroke="#000" stroke-width="1.10487123" fill="#dc0000"/><path d="M162.638 241.076c.847-.57 2.206-.582 3.216.898 1.01 1.48.92 3.237.07 3.807-.846.57-2.527.102-3.537-1.38-1.01-1.48-.597-2.753.25-3.324z" fill-rule="evenodd" stroke="#000" stroke-width=".7937172" fill="#dc0000"/><path d="M226.66 292.293c-4.372-7.775-16.298-17.498-28.446-11.278-14.366 10.083 5.795 25.186 26.427 17.74 1.852-1.92.167-4.544 2.02-6.462z" fill-rule="evenodd" stroke="#000" stroke-width="1.10951532" fill="#008d00"/><path d="M267.16 296.892c-4.37-7.776-27.794-16.615-37.997-9.156-12.774 14.328 5.972 24.3 31.203 17.208 1.852-1.918 4.942-6.134 6.793-8.052z" fill-rule="evenodd" stroke="#000" stroke-width="1.10951532" fill="#008d00"/><path stroke-linejoin="round" d="M176.19 267.847c.125 0 2.626 3.127 2.626 3.127l-.125-4.378M180.568 273.976l2.627 2.626M189.822 272.226l.25 3 1.626-.124M189.822 282.23c-.625-.375-2.75-2.126-2.75-2.126M183.692 282.48l-3.502-1.125" stroke="#000" stroke-linecap="round" stroke-width="1.055475" fill="none"/><path d="M177.064 275.852l-3.377-1.126" stroke="#000" stroke-width="1.055475" fill="none"/><path stroke-linejoin="round" d="M170.69 273.85h-2.878" stroke="#000" stroke-linecap="round" stroke-width="1.055475" fill="none"/><path stroke-linejoin="round" d="M184.195 264.347v-3.752" stroke="#000" stroke-linecap="round" stroke-width=".42219pt" fill="none"/><path stroke-linejoin="round" d="M179.192 284.607c-.375 0-5.253-.25-5.253-.25M187.948 287.983l-3.752 1.25M193.576 274.6c.125-.124 3.127-1.625 3.127-1.625M185.07 270.347c0-.125-1.002-4.127-1.002-4.127" stroke="#000" stroke-linecap="round" stroke-width="1.055475" fill="none"/><path d="M255.178 348.004c-2.81.33-4.41.503-4.95 2.536-.3 1.38-.06 3.184.18 4.734.5 2.592 2.245 2.957 4.86 3.465h4.5c1.894 0 4.96-1.23 5.46-3.573.343-1.193.208-2.69.208-3.79-.25-2.743-2.112-3.177-4.753-3.457l-5.505.084zM255.486 348.008l-.09 10.435M260.97 348.008l-.09 10.435" stroke="#000" stroke-width="1.055475" fill="none"/><path d="M373.82 258.77c1.65-5.424-4.06-6.707-5.33-9.753-2.61 5.103-1.696 10.3-1.234 13.033 1.07 4.438 5.003 7.505 5.655 11.253 1.154-5.595.968-9.026.91-14.533z" fill-rule="evenodd" stroke="#286326" stroke-width=".94823874" fill="#008c00"/><path d="M381.38 253.734c.11-2.97 3.98-5.095 5.542-5.563-.967 5.773.77 8.485.31 10.852-.344 3.864-7.424 9.77-10.433 13.05 1.525-6.34 3.052-12 4.58-18.338z" fill-rule="evenodd" stroke="#286326" stroke-width="1.26023715" fill="#008c00"/><path d="M373.226 276.87c.19-.355-2.946-27.59 4.908-33.242 2.058 1.208 2.732 5.106 2.884 7.244.434 9.388.742 14.158-7.792 25.998z" fill-rule="evenodd" stroke="#286326" stroke-width="1.34889705" fill="#008c00"/><path d="M215.694 276.223c2.247.713 4.227 3.164 3.012 7.147-1.216 3.983-3.097 6.545-6.05 5.656-3.84-.89-4.528-4.448-3.314-8.432 1.216-3.983 4.105-5.083 6.352-4.37z" fill-rule="evenodd" stroke="#000" stroke-width="1.16693316" fill="#dc0000"/><path d="M219.494 272.154c.714.5 1.14 1.553.27 2.742-.87 1.19-2.3 1.6-3.013 1.1-.713-.5-.853-1.934.017-3.125.87-1.188 2.013-1.218 2.727-.716zM213.588 270.93c.852-.182 1.913.223 2.19 1.67.278 1.45-.394 2.774-1.247 2.955-.853.18-1.997-.692-2.276-2.14-.277-1.448.48-2.305 1.334-2.486z" fill-rule="evenodd" stroke="#000" stroke-width="1.3374979200000001" fill="#dc0000"/><path d="M216.066 274.09c.835.252 1.572 1.116 1.12 2.52-.452 1.402-1.678 2.242-2.513 1.99-.836-.25-1.42-1.566-.97-2.97.452-1.402 1.527-1.79 2.363-1.54z" fill-rule="evenodd" stroke="#000" stroke-width="1.3374979200000001" fill="#dc0000"/><path d="M217.278 269.072c.697.19 1.31.843.934 1.905-.377 1.062-1.4 1.698-2.097 1.508-.698-.19-1.185-1.186-.81-2.248.378-1.062 1.275-1.355 1.973-1.165z" fill-rule="evenodd" stroke="#000" stroke-width="1.06265223" fill="#dc0000"/><path d="M220.938 275.462c.763.524 1.19 1.522.19 2.523-1.002 1-2.583 1.24-3.346.714-.763-.525-.86-1.844.14-2.845 1-1 2.253-.918 3.016-.393z" fill-rule="evenodd" stroke="#000" stroke-width="1.3383423" fill="#dc0000"/><path d="M211.337 273.273c.777-.093 1.69.368 1.817 1.718.128 1.352-.582 2.51-1.358 2.602-.777.094-1.726-.804-1.854-2.155-.128-1.35.618-2.07 1.395-2.164z" fill-rule="evenodd" stroke="#000" stroke-width="1.2146406299999999" fill="#dc0000"/><path d="M199.702 343.513v-.125.125z" stroke="#000" stroke-width=".42219pt" fill="none"/><path d="M300.567 291.21c4.377 2.336 2.877 7.797-.25 9.256-.167-3.585-2.46-4.67-5.878-5.502 1.792-1 3.71-4.253 6.127-3.753z" fill-rule="evenodd" stroke="#000" stroke-width="1.055475" fill="#fff"/><path d="M258.766 313.048c1.61-23.734 19.645-26.613 31.597-22.505 17.503 12.7-.248 23.253-26.447 23.938-2.336-1.284-2.814-.147-5.15-1.432z" fill-rule="evenodd" stroke="#000" stroke-width="1.10951532" fill="#008d00"/><path d="M264.01 286.383c-5.6-.226-7.288 5.237-5.092 8.087 2.23-2.998 5.08-2.76 8.882-1.732-1.165-1.776-1.153-5.55-3.79-6.355z" fill-rule="evenodd" stroke="#000" stroke-width="1.12175883" fill="#fff"/><path d="M266.93 293.486c-4.376 2.334-3.444 7.795-.317 9.255.167-3.585 2.46-4.668 5.878-5.502-1.792-1-3.14-4.253-5.56-3.752z" fill-rule="evenodd" stroke="#000" stroke-width="1.055475" fill="#fff"/><path stroke-linejoin="round" d="M301.146 291.662c.05-1.953-1.49-3.642-3.298-3.914-2.177-.265-4.267 1.238-6.445-.354-.265-.177-5.324-4.542-6.775-6.577-1.452-.795-4.494-2.287-4.494-2.287-1.792 2.334-3.054 5.022-5.643 6.56-1.286.517-1.777 1.12-4.126.93-2.428-1.136-5.1-1.72-6.488-.487 1.18 2.34.86 5.3.36 7.55.876.5 1.84-.1 2.892.136 3.243.085 2.418 3.57 3.627 5.07 3.416.93 5.152-.707 5.65-3.493.902-1.42 3.663-1.605 5.627-2.14 2.126-.412 4.783-1.088 6.732.005 1.61.855 2.688 1.888 3.502 3.627 0 0 2.563.228 5.128-.25.088-1.54-.228-4.342 3.752-4.378z" fill-rule="evenodd" stroke="#000" stroke-linecap="round" stroke-width="1.055475" fill="#f6aa00"/><path d="M278.495 280.98l.125 5.627c.667 2.043 5.21 1.834 5.753.5l-.125-6.378" stroke="#000" stroke-width="1.055475" fill="none"/><path d="M279.994 292.986c.98-.332 1.345-3.06 1.345-3.06M283.996 292.235l.25-2.25M288.125 292.235l-.375-2.376M277.245 290.484c-.15.085-2.125-2.376-1.5-2.126M273.615 294.11c.25 0-3.267-3.64-2.642-3.39M270.364 287.358c-.092-.28-.25-1.626.375-1.376M278.204 286.52c-5.343 4.612-10.375 2.672-11.1 6.55M291.43 289.127c.188-.226.83-1.42.158-1.417" stroke="#000" stroke-linecap="round" stroke-width="1.055475" fill="none"/><path stroke-linejoin="round" d="M205.625 291.41c.07-.105 4.06-.435 4.06-.435l-3.7-2.34M229.94 295.395c.07-.104 4.06-.433 4.06-.433l-3.17-3.67M239.772 296.06c-.196-.636 4.193.098 4.06-.434l-2.77-3.004M234.524 282.065c.125 0 2.626 3.127 2.626 3.127l-.125-4.377M309.834 302.936c.095.08-.023 4.46-.023 4.46l2.873-3.116M277.777 301.806c.086.09-.483 4.055-.483 4.055l4.283-2.27M202.712 281.494l2.626 2.626M197.93 285.868l2.625 2.627M215.842 292.677l3.7-.33M209.965 296.334l3.705-.263M236.75 287.918l2.625 2.627M247.684 289.285l2.626 2.627M227.317 284.5l2.627 2.628M199.706 276.163l2.626 2.626M229.052 308.133l2.43-2.81M241.355 310.457l2.43-2.81M194.108 296.094l3.7-.33" stroke="#000" stroke-linecap="round" stroke-width="1.055475" fill="none"/><path stroke-linejoin="round" d="M201.112 293.46c-.604.032 1.873-.16 2.557.113l-3.655-2.614" stroke="#000" stroke-linecap="round" stroke-width="1.12429197" fill="none"/><path stroke-linejoin="round" d="M205.726 301.29l3.7-.332M249.605 297.7l3.704-.262M243.318 302.896l3.705-.264M247.78 283.842c.126 0 2.627 3.127 2.627 3.127l-.125-4.378M283.827 295.026l-2.626 2.627M292.44 297.897l-2.626 2.626M288.61 305.278l-2.626 2.627M319.502 305.96l-2.626 2.628M303.24 304.048l-2.627 2.627M319.232 288.33l-2.626 2.625M331.657 306.084l-3.698-.353M300.605 314.324l.18-3.71M312.325 297.53l1.89-3.2M318.202 301.083l1.89-3.198M323.095 311.256c-.08.095-4.083-.03-4.083-.03l2.87 2.09M267.527 310.145c.085.09-.483 4.054-.483 4.054l4.283-2.273M234.58 302.894c.486-.362 2.962-1.132 2.83-1.663l-2.636-.953" stroke="#000" stroke-linecap="round" stroke-width="1.055475" fill="none"/><path stroke-linejoin="round" d="M346.11 277.88c1.734 1.347 4.66-13.978 4.212-18.774 0-.317-.544-10.487 1.585-17.753 1.345-2.446 1.393-20.772-.624-25.59 1.607-.137 3.554-.657 3.794-2.62-7.422 2.747-9.185-15.688-16.326-26.275-6.972-10.617-15.627-16.807-24.618-23.25.7-1.8 1.74-3.492 3.113-5.182-11.04 5.53-28.244-14.492-53.627-12.996-5.722.57-8.418.915-9.88 4.4-4.72.4-9.552 1.472-9.564 7.7.01 1.49 1.363 4.216 4.398 4.25 4.16 1.198 7.534.267 10.35 6.06.21 1.584.534 4.402.745 5.987 0 0-3.724-4.717-5.76-5.5.54-.785-.32-1.324 1.25-2.537-1.906-1.102-5.316-.205-5.316-.205s-7.373-3.47-13.313-2.536c0-.635-1.136-4.81-1.136-4.81-1.05 2.94-3.37 2.782-3.71 5.574-.634-2.007-1.492-4.463-2.126-6.47-2.084 2.846-1.48 5.917-2.22 8.875-.825.67-2.473.71-2.89-1.196-.21-2.325-.496-2.558-.483-5.33-1.503 2.622-3.307 3.9-3.915 8.427-.635-1.69-.97-3.306-1.604-4.996.082 5.888-4.997 9.422-9.807 13.555-1.35 2.5.212 2.535.317 3.803l2.536 1.268c1.48-.104 3.07-.21 4.55-.316.74.95.134 1.008 2.107 1.623 5.282 1.48 11.894-4.873 17.08 5.107-2.387 1.988-4.776 6.667-4.027 7.534.95 0-1.908 1.345 1.956.112-4.034 3.923-6.768 9.08-6.768 9.398-.448 1.1 1.626-.15 1.192 1.852.567-1.5.96-.125.96-.125-9.208 9.96-.308 20.64-1.3 26.393 1.53 2.466 1.72-.046 3.635-.32 1.62 7.058 6.254 11.337 9.107 16.94-1.473-.453-4.4-.613-5.985.058.134 2.655 2.535 5.18 4.437 7.502-1.374.422-2.642.844-4.016 1.27-2.853 1.48-4.75 3.032-6.757 5.25-1.338 3.233 6.39 4.018 10.095 4.563-.336 1.162-.81 2.622-.137 3.897 5.828.562 12.562-1.16 12.562-1.477 0-.32 1.46-1.14 1.46-1.14.784 1.57 2.51 2.035 3.275 1.81 1.1 0 2.81-4.386 2.027-7.746 2.112 2.533 4.1 6.57 6.214 9.106.64.672 1.466.178 1.994-.274 1.797 2.854 4.276 5.708 6.073 8.558.952 1.09.747.688 2.034.768 1.175-.38 2.175-.536 2.79-2.816 0 0 .39.354.944 1.61 1.418 1.01 2.42-1.416 3.205-2.2.448-1.082 2.197.21 2.197-.423.634.422 1.05 2.28 1.684 2.702.97-.36 1.934-2.49 2.008-4.754.964 1.985 1.26 1.82 2 2.353.635-.532.834-2.6 1.468-3.13-.137-1.092 7.613 7.474 7.93 7.474.766.557 5.146 1.9 6.042.334 2.187 1.46 8.072 2.365 9.026.017 4.844 2.07 10.545-.25 10.304-2.562 4.418 1.765 11.305.587 11.305.27.784-.093 2.914-2.162.897-3.728-14.687-10.25-36.546-27.223-44.955-31.31 0-3.025-2.29-13.94-4.756-16.946-.448-1.55.56-3.464 2.018-3.352 5.716 5.344 7.793 4.835 10.82 5.696 3.274 2.584 4.45 6.528 7.725 10.12 1.544.494 3.368 2.057 2.894.533-2.044-5.13-4.515-10.096-10.634-16.766 3.17 1.586 8.362 5.785 11.868 8.826 2.337 3.852 2.993 6.92 5.106 11.78 1.532.97 3.097 4.553 2.872 1.585-.336-5.583-4.25-14.45-4.25-15.083 6.223 4.967 6.16 12.663 8.035 17.372 1.625 2.39 2.443 5.564 3.116 4.82.784-1.084-1.848-14.527-1.848-14.527-.423-1.69-.634-3.606-1.057-5.296 4.633 2.666 6.253 12.842 8.42 25.033.007 1.942.798 4.07.693 5.337.995 1.228 2.14 4.62 2.088 2.596 0 0 .004-19.832-1.34-24.39-.337-2.426.594-6.396.594-6.396 1.69 8.24 3.494 17.154 5.184 25.395v6.025c.845.844 1.69 1.688 2.536 2.537l1.585-14.9s-1.902-17.434-1.902-17.75v-5.072c-.04-1.787 1.604-1.445 2.686.58.213 4.33.2 7.767.41 12.1.74 4.963 1.256 8.585 1.66 14.897.198 5.17.397 17.4 1.492 17.19z" stroke-opacity=".772" fill-rule="evenodd" stroke="#000" stroke-width="1.055475" fill="#9c4314"/><path stroke-linejoin="round" d="M264 306.55c-.237-.56-.408-3.145-.956-3.14l-1.543 2.34M310.354 292.434l-.316 2.616M287.298 311.733c-.603.074-3.135-.48-3.282.048l1.818 2.133" stroke="#000" stroke-linecap="round" stroke-width="1.055475" fill="none"/><path d="M248.536 253.1v.274-.274.274-.274 4.784c.14.68.137 1.434.137 2.188.086.58.29 1.275.547 1.913.038.81.263 1.343.547 2.05.058.7.297 1.297.546 1.915.06.7.287 1.07.41 1.64.198.656.44 1.084.684 1.503.178.178.246.356.41.41" stroke="#000" stroke-width=".42219pt" fill="none"/><path d="M237.872 269.912c0-.222-.035-.893.274-1.367.483-.688.872-1.114 1.503-1.777.745-.475 1.278-1.038 1.913-1.64.68-.435 1.022-.82 1.64-1.23.38-.387.817-.58 1.23-.82.47-.232.813-.573 1.504-.684.417-.21 1.28-.137 1.913-.137.653 0 .88-.125 1.504-.137" stroke="#000" stroke-width=".42219pt" fill="none"/><path d="M337.24 222.428c2.11 1.532 4.437 4.86 5.387 10.883M325.358 224.48c3.064 2.747 4.793 5.735 7.08 12.468" stroke-opacity=".772" stroke="#000" stroke-linecap="round" stroke-width="1.055475" fill="none"/><path d="M317.957 227.765c1.867 2.13 2.994 4.367 4.016 7.026M305.28 220.79c2.43 2.8 6.338 7.08 8.346 11.41" stroke-opacity=".772" fill-rule="evenodd" stroke="#000" stroke-linecap="round" stroke-width="1.055475" fill="#00c600"/><path d="M253.67 149.288c.178 12.18 18.005 9.21 19.505 20.652 3.412 12.488 1.99 20.556-3 24.52-2.834 2.92-.667 7.454.176 9.784 4.635 11.742 11.63 13.633 14.64 23.77" stroke-opacity=".772" stroke="#000" stroke-width="1.055475" fill="none"/><path d="M247.004 157.6c0-.233.418-.64.832-.83 1.775-.58 2.865-.613 4.68-.73 1.56 0 3.016.07 4.576.313" stroke-opacity=".772" stroke="#000" stroke-linecap="round" stroke-width="1.055475" fill="none"/><path d="M270.085 269.397l6.198 10.082M289.84 254.396l33.182 25.412M288.957 261.367l24.25 21.287M243.327 234.963c3.193 6.34 12.218 14.762 17.633 16.105.185-4.073-.046-5.646-.694-8.47" stroke-opacity=".772" stroke="#000" stroke-width="1.055475" fill="none"/><path d="M253.603 231.353c3.193 6.34 6.11 13.097 14.578 16.94.88-6.157-1.017-14.533-5.69-23.05" stroke-opacity=".772" stroke="#000" stroke-width="1.055475" fill="none"/><path d="M255.097 222.85c2.916 1.76 5.554 2.545 7.498 2.777.88-6.155 1.65-12.67-3.372-21.482" stroke-opacity=".772" stroke="#000" stroke-width="1.055475" fill="none"/><path d="M243.884 226.494c4.304 4.674 7.775 4.905 9.72 5.137 1.434-4.21 2.036-13.143.277-22.77M232.734 230.243c4.285 5.546 14.165 16.073 19.48 19.9.186-.884.46-1.294.39-4.116M305.92 169.33c4.59 5.292 22.307 23.102 25.814 31.44 6.054 13.624 17.217 16.214 20 14.69M275.565 242.955c1.594 6.52 4.49 18.378 8.66 20.253.72-.7 1.326-1.997 1.255-4.82" stroke-opacity=".772" stroke="#000" stroke-width="1.055475" fill="none"/><path d="M251.496 206.01c1.873 1.907 2.298 3.644 4.242 3.875 2.368-1.937 6.54-12.734 5.04-20.703" stroke-opacity=".772" stroke="#000" stroke-width="1.055475" fill="none"/><path d="M241.667 205.714c.88 4.29 1.702 7.912 4.738 7.945 5.048-4.22 6.54-13.667 5.04-21.636M239.713 228.406l-2.273-4.995M288.76 268.83l15.215 13.824M281.514 263.27l4.695 13.22M260.822 251.167c3.194 6.34 9.997 15.494 15.412 16.837.185-.88.082-1.643.01-4.463M252.58 249.896c3.194 6.337 12.58 16.668 17.994 19.695.184-.877.974-1.046.904-3.866M275.953 267.738l6.78 11.243M267.843 239.523c2.916 1.76 5.976 3.232 7.92 3.464.298-6.854-2.092-17.91-6.998-26.373" stroke-opacity=".772" stroke="#000" stroke-width="1.055475" fill="none"/><path d="M234.102 203.577c-.867 3.242-.746 6.785 2.29 6.82 8.425-3.638 3.395-7.262 10.63-19.54M245.218 181.277c3.193 6.34 4.13 10.652 9.105 12.28.996-.45 3.474-11.656-4.927-20.753" stroke-opacity=".772" stroke="#000" stroke-width="1.055475" fill="none"/><path d="M255.452 186.563c1.64 1.908 4.045 2.364 5.99 2.246 1.9-3.8-2.166-14.566-7.52-20.133M302.51 177.786c4.008 5.642 21.596 25.335 29.135 31.622 1.694-.216 4.2 1.888 1.855-5.23" stroke-opacity=".772" stroke="#000" stroke-width="1.055475" fill="none"/><path d="M300.533 190.245c4.01 5.64 11.35 15.193 18.888 21.48 1.896.707 3.73.48 4.332-.013.646-.623.058-5.094.224-9.643" stroke-opacity=".772" stroke="#000" stroke-width="1.055475" fill="none"/><path d="M295.758 197.35c4.59 5.06 10.65 10.885 18.073 17.637 1.895.707 3.533.735 3.75-.013.18-.74.523-.552.107-5.1" stroke-opacity=".772" stroke="#000" stroke-width="1.055475" fill="none"/><path d="M289.354 206.43c4.59 5.06 8.787 8.79 12.948 9.72 2.012.24 3.067.27 3.283-.48.18-.738.058-4.278-.008-8.36M282.83 213.186c4.592 5.06 4.596 7.158 8.757 8.088 2.01.24 3.5-.023 3.865-.71.647-1.44.873-3 .807-7.082" stroke-opacity=".772" stroke="#000" stroke-width="1.055475" fill="none"/><path d="M280.97 180.112c4.623.842 5.006-3.156 4.63-6.017-.454-3.585-2.99-5.154-5.992-4.4M278.406 195.948c2.18.842 4.917.788 5.914-1.707.804-1.898.502-6.552-2.5-5.798" stroke-opacity=".772" stroke="#000" stroke-linecap="round" stroke-width="1.055475" fill="none"/><path d="M281.666 188.383c4.158.26 4.547-1.64 4.4-4.037-.166-2.795-2.06-4.922-5.063-4.168" stroke-opacity=".772" stroke="#000" stroke-linecap="round" stroke-width="1.055475" fill="none"/><path d="M285.71 177.516c6.073-3.656 23.566 11.003 10.26 15.67M284.423 187.902c6.072-3.656 19.446 8.303 5.886 12.96M282.147 196.15c6.78.237 14.582 11.12 1.29 12.45" stroke-opacity=".772" stroke="#000" stroke-width="1.055475" fill="none"/><path d="M274.16 201.965c2.178.84 3.437 1.387 5.382-.293.767-.704 1.78-3.933-1.085-5.725" stroke-opacity=".772" stroke="#000" stroke-linecap="round" stroke-width="1.055475" fill="none"/><path d="M217.392 188.813c2.292-2.96 7.897-4.846 9.815-.927M278.25 202.492c3.95 1.298 10.234 12.286-.32 13.407" stroke-opacity=".772" stroke="#000" stroke-width="1.055475" fill="none"/><path d="M273.213 152.788c4.555.86 6.855 8.22 10.486 8.788 6.638.99-.858-7.683-2.296-8.66" stroke-opacity=".772" stroke="#000" stroke-linecap="round" stroke-width="1.055475" fill="none"/><path d="M206.05 184.245c2.044.084 3.962-.292 5.254-2.71M226.304 205.342c1.135 2.116 4.052 1.27 6.462-.197 3.298-1.886.52-8.51 8.38-14.16M230.48 233.245c4.285 5.546 12.414 13.82 17.48 18.27.185-.88 1.007-1.327.936-4.15M247.798 251.137l9.745 13.54M268.122 247.874c1.594 6.517 7.933 16.84 12.104 18.714.718-.705 1.2-3.5 1.13-6.325M265.855 266.54l-.596 6.04M280.446 236.327c1.594 6.518 3.988 22.38 7.66 25.256.718-.7 2.2-13.88 2.13-16.703M275.52 235.88c2.164.258 3.426.25 5.12.232.297-6.854-2.672-14.91-7.578-23.375" stroke-opacity=".772" stroke="#000" stroke-width="1.055475" fill="none"/><path d="M287.593 218.954l-.338 6.93" stroke-opacity=".772" fill-rule="evenodd" stroke="#000" stroke-linecap="round" stroke-width="1.055475" fill="#00c600"/><path d="M263.12 215.99c2.29.883 3.927 1.17 5.746 1.026 1.88-9.283-2.853-9.292-8.75-15.854" stroke-opacity=".772" stroke="#000" stroke-width="1.055475" fill="none"/><path d="M289.472 154.287c4.555.86 1.667 7.674 7.86 9.79 5.197 1.73 2.268-5.433.83-6.41" stroke-opacity=".772" stroke="#000" stroke-linecap="round" stroke-width="1.055475" fill="none"/><path d="M282.7 169.59c3.286-2.39 15.036.92 19.01 4.26 1.14 1.06 2.88 5.3-2.523 9.197M220.452 175.206c9.432-9.203 13.806-8.156 24.605-1.367 1.55.364 3.235.045 4.237-.548.547-1.32.026-2.667-.683-3.69-4.83-3.463-8.428-4.465-12.985-3.827M234.026 209.36c-2.12 3.127-3.855 9.926-.273 17.498.142.87 1.057 1.743.136 2.324-1.766.89-2.564 2.358-3.555 3.827M288.99 257.698c.065-11.47-1.61-20.62-6.185-28.9M269.177 213.047c1.515-.16 3.415.258 4.35-.193.45-1.675-.838-3.737-1.353-5.316.87-.097 1.933-.097 2.61-.29.386-1.45 0-3.48 0-5.22" stroke-opacity=".772" stroke="#000" stroke-width="1.055475" fill="none"/><path d="M212.524 180.4c.364-2.553 2.642-5.377 5.194-6.835 1.23-.684 2.05.137 2.597.41.684 1.093.273 3.143 0 3.964-.683 1.366-2.05 2.46-4.51 3.416-1.276-.547-2.005-.41-3.28-.957z" stroke-opacity=".772" fill-rule="evenodd" stroke="#000" stroke-width="1.055475" fill="#fff"/><path d="M234.397 229.06c.547.274 6.014 6.288 6.014 6.288h3.282l.273-9.158" stroke-opacity=".772" stroke="#000" stroke-width="1.055475" fill="none"/><path stroke-linejoin="round" d="M243.28 211.43c-1.093 3.6-.683 7.2 0 10.8" stroke-opacity=".772" stroke="#000" stroke-linecap="round" stroke-width="1.055475" fill="none"/><path d="M236.158 228.406l1.28-4.995M238.497 209.513c-1.64 3.008-2.107 7.948-1.254 11.535M283.18 229.5l-3.092.062" stroke-opacity=".772" stroke="#000" stroke-width="1.055475" fill="none"/><path d="M172.37 217.88c.434 1.34-1.028.62-1.34.998-1.537.542-3.972-1.34-5.51-5.89.75-1.273 5.162-4.012 6.577-3.423 0 0 2.776 1.058 3.108 2.217-.532 1.692-2.93 6.288-2.836 6.1z" fill-rule="evenodd" stroke="#000" stroke-width="1.055475" fill="#9f3000"/><path d="M283.18 229.5l.052-6.09M288.21 261.493l.868 14.857" stroke-opacity=".772" stroke="#000" stroke-width="1.055475" fill="none"/><path d="M172.268 218.4c2.997 2.82 7.706.928 8.455 7.814.322 3.854-5.137 11.56 0 18.517 1.82 2.677 6.53 5.567 6.53 5.567 2.462 2.748 3.21 7.636 4.816 11.453 3.39 5.067 8.063 6.173 11.773 4.924 0 0 12.203-5.46 12.203-5.566 0-.107-6.208-8.35-6.208-8.242 0 .107-6.958 5.887-7.065 5.887-.75-.107-4.816.32-6.315-4.816-.107-6.565-3.353-10.2-8.563-12.845-2.64-1.998-4.745-5.173-2.462-9.633 1.32-4.07 2.64-10.92-2.033-15.52-2.997-2-5.138-3.57-8.35-4.176-4.245 1.606-4.21 1.178-2.782 6.637z" fill-rule="evenodd" stroke="#000" stroke-width="1.055475" fill="#238700"/><path d="M232.607 161.1c-1.64 3.008-1.49 4.81-1.217 7.818M224.282 175.89h3.827c1.017-.027 1.452-.413 2.186-.956.493-.28 1.017-.7 1.504-1.094.404-.29.892-.63 1.367-.82.775 0 1.38.057 2.05.273.618.26 1.127.63 1.64.957.512.205.974.274 1.777.274.834 0 1.71-.04 2.46.136.723.048 1.532.207 2.05.41.663.417 1.06.915 1.505 1.367.025.726.263 1.17.272 1.914 0 .636.072 1.497-.137 1.915 0 .786-.125 1.345-.273 1.913-.503.472-.684.837-1.367.957-.537.422-1.342.41-2.187.41h-2.187c-.474-.396-1.05-.807-1.64-1.367-.317-.735-.526-.974-1.23-1.23-.59-.092-1.294-.137-2.05-.137-.668 0-1.224.048-1.64-.272-.378-.36-.922-.548-1.504-.683-.62-.176-1.35-.137-2.05-.137h-1.094" stroke-opacity=".772" stroke="#000" stroke-width="1.055475" fill="none"/><path d="M227.836 177.12l.137.136c-.31-.31-.196-.16.547.136.905.21 1.878.382 2.87.41.94 0 1.796.116 2.734.137.654 0 1.342.053 1.914-.138" stroke-opacity=".772" stroke="#000" stroke-width="1.055475" fill="none"/><path d="M236.584 174.932h-.137c.43 0 .166-.036-.41.683-.055.78-.222 1.212.137 1.914.446.147 1.2.478 1.504.82.44.314.41.596.41 1.366-.263.427-.5.77-.82 1.367-.172.43-.396 1.006-.547 1.504-.155.624-.264 1.218-.273 1.913v1.367M286.065 159.015c.152.292 2.772 5.525 6.028 2.206.483-.565.65-.976.65-1.94 0-.504-.067-1.09-.192-1.504" stroke-opacity=".772" stroke="#000" stroke-width="1.055475" fill="none"/><path d="M207.183 264.255c1.576 2.197 4.442 1.065 5.016-.693-1.963.127-2.712-1.032-3.405-2.807-.42 1.018-2.054 2.238-1.612 3.5z" fill-rule="evenodd" stroke="#000" stroke-width=".57291183" fill="#fff"/><path d="M299.896 163.9c0 .1 2.776 2.655 6.977 2.655 1.013 0 5.83-1.217 7.363-3.356" stroke-opacity=".772" stroke="#000" stroke-width="1.055475" fill="none"/><path d="M305.714 166.36c.062.41.193 1.907.193 2.9-.013 1.054.24 1.935-.157 2.813-.432 1.12-.912 1.567-1.97 1.95-.86.39-1.043.018-2.002.053M282.595 161.07c0 .066 2.962 7.102 3.935 7.816" stroke-opacity=".772" stroke="#000" stroke-width="1.055475" fill="none"/><path d="M209.108 262.97c1.577 2.198 4.442 1.067 5.017-.692-1.962.128-2.712-1.03-3.405-2.806-.42 1.017-2.053 2.238-1.612 3.5z" fill-rule="evenodd" stroke="#000" stroke-width=".57291183" fill="#fff"/><path d="M212.1 261.688c1.578 2.197 4.443 1.065 5.018-.693-1.962.127-2.712-1.032-3.404-2.807-.42 1.018-2.054 2.24-1.613 3.5z" fill-rule="evenodd" stroke="#000" stroke-width=".57291183" fill="#fff"/><path d="M265.698 157.47H266.665c3.07-.518 13.39 1.386 15.184 3.285M267.632 207.343c-.064-.064.144 1.183.08 1.12.38.38-.058-1.03-.273-1.893-.323-.77-.388-1.276-.388-2.32v-.773M248.338 252.843v.274-.274.274-1.12 5.628c.14.68.137 1.436.137 2.187.086.583.288 1.275.547 1.917.037.81.263 1.342.546 2.047.06.7.297 1.3.547 1.917.06.7.286 1.068.41 1.638.198.66.438 1.085.684 1.503.177.182.35 1.098.514 1.15" stroke-opacity=".772" stroke="#000" stroke-width="1.055475" fill="none"/><path d="M240 244.78v3.69c.178.906.21 1.865.41 2.734.074.78.262 1.448.41 2.187.065.732.94 3.324 1.23 3.966.324.603.802 1.232 1.094 1.638.546.17.992.363 1.64.41h1.914c.767-.15 1.03-.23 1.366-.82.185-.367.174-.625.41-.82M237.678 269.66c0-.225-.035-.896.273-1.37.485-.687.874-1.114 1.505-1.777.746-.477 2.604-3.03 8.2-4.51.653 0 .88-.125 1.505-.138M238.34 257.255c.046.046 3.06 1.62 4.623 1.688" stroke-opacity=".772" stroke="#000" stroke-width="1.055475" fill="none"/><path d="M246.95 262.55h-.15.15c-.05 0-.1 0 0 0z" stroke="#000" stroke-width=".42219pt" fill="none"/><path d="M245.606 262.4c-.447-.297-14.94-4.48-14.64-4.48s-5.305 3.81-5.305 3.81l13.82 4.705 5.53-4.034h.596z" fill-rule="evenodd" stroke="#000" stroke-width="1.055475" fill="#ffbc00"/><path d="M231.76 257.808c.914-2.324.668-5.388-2.326-7.29-6.83-4.19-18.31-3.838-20.494 1.057-2.36-.318-3.557 1.584-3.91 3.486-6.092 1.656-.456 8.695 1.057 8.98 2.047.7 2.606.185 2.958-.484 1.14.28 2.702-.938 3.095-1.778 1.447.267 2.546.24 2.574-1.21 4.145 3.885 9.86 6.575 10.495 1.57l6.55-4.33z" fill-rule="evenodd" stroke="#000" stroke-width="1.055475" fill="#f7b200"/><path d="M205.038 254.954c-.387 2.71 1.434 5.634 4.322 8.452M208.834 251.572c-.388 2.712.387 7.325 3.275 10.142M213.115 248.66c-2.652 2.226-1.207 9.116 1.68 11.934" stroke="#000" stroke-width="1.055475" fill="none"/><path stroke-linejoin="round" d="M220.208 192.33c6.12 8.104-2.438 17.058-9.915 22.218-8.815 6.932-13.575 20.447 1.97 21.277 5.614-.103 11.71-.6 15.14 3.796 3.43 4.396 3.557 12.517-5.084 17.72-.847-.746-2.106-2.975-3.043-3.654-.938-.68-1.554.192-2.4-.556-.3-2.79 4.258-6.94-.052-7.942-5.578.946-25.104 1.027-24.855-17.6.43-4.15 2.648-8.81 6.208-13.55 3.562-4.74 13.324-10.618 14.26-13.192 1.504-2.222-1.245-6.547-3.436-7.145-1.792-4.78 6.126-9.885 11.206-1.37z" fill-rule="evenodd" stroke="#000100" stroke-width="1.055475" fill="#288800"/><path d="M206.613 206.672l.21 10.882M200.91 211.004l11.62 1.69M209.467 204.244l9.825 2.008" stroke="#000" stroke-width="1.055475" fill="none"/><path d="M199.123 212.9l8.182 4.845M193.293 223.133l6.388 6.788M199.195 213.347l1.085 16.05M194.787 220.072l10.497.214" stroke-opacity=".642" stroke="#000" stroke-width="1.055475" fill="none"/><path d="M183.806 247.185c1.625-1.54 3.322-3.75 4.372-5.912M187.095 249.95c2.196-1.358 5.014-2.43 7.81-2.998M191.127 259.29c1.904-1.587 3.95-3.27 5.352-5.478M191.203 259.653c3.35-.082 6.748-.426 10.05-1.034M197.18 266.235c2.493-.938 4.77-2.38 6.614-3.82M179.846 243.825c1.932-1.56 3.864-3.335 5.436-5.182M178.428 238.822c2.1-.564 4.15-1.63 5.94-2.625M179.162 233.612c1.7-.66 3.685-.933 5.527-1.04M180.745 228.812c2.055-.203 3.44-.078 5.495.565M181.087 225.76c1.7-.913 3.612-1.508 5.523-1.258M180.243 223.505l5.92-4.043M179.196 221.833l5.042-4.998M177.765 221.14l3.694-6.31M192.503 183.84l-.046 8.993M201.602 185.275c-1.326 2.59-3.182 5.656-5.568 7.944M194.89 183.536c-2.642-.21-5.138 1.22-7.146 2.91" stroke="#000" stroke-width="1.055475" fill="none"/><path stroke-linejoin="round" d="M208.97 190.4c4.39 1.616 10.217 3.836 9.61 16.728 3.634-3.936 5.3-9.46.682-16.424-3.103-3.356-7.644-4.062-10.293-.303z" fill-rule="evenodd" fill-opacity=".994" stroke="#000" stroke-linecap="round" stroke-width=".42219pt" fill="#9d4600"/><path d="M210.95 194.7c.175-2.5 3.67-5.59 5.51-6.27M212.29 196.957c.922-3.19 4.9-5.726 6.743-6.407M212.376 201.483c1.7.027 8.133-3.54 9.605-5.665M212.904 199.102c2.068-1.438 5.953-4.692 7.795-5.373M218.582 201.707c1.55-.882 2.078-.665 3.7-2.335M208.97 190.477c4.414 1.438 9.812 4.693 9.46 16.65" stroke="#000" stroke-width="1.055475" fill="none"/><path d="M194.272 236.68l6.01-7.282M195.02 238.18l5.366-.005M192.026 230.902l7.507 4.276" stroke-opacity=".642" stroke="#000" stroke-width="1.055475" fill="none"/><path d="M202.134 230.175c-1.438-.133-2.263-.407-3.51-.87.587 9.676 1.552 10.172 3.08 13.82 4.576 2.902 12.492 2.224 15.843 1.5.36.506 2.34 2.964 1.122 3.68-1.314.822-1.847 2.42-1.894 5 .776.873 1.584.114 2.373.676s1.718 2.552 2.45 4.264c0 0 9.727-6.686 8.15-12.977-1.037-5.91-5.032-7.92-5.032-7.92-5.648-2.824-13.587-.95-16.483-2.034-3.603-.8-5.87-3.914-6.1-5.138z" fill-rule="evenodd" stroke="#000" stroke-width=".42219pt" fill="#9d4600"/><path d="M218.16 247.245c4.872-2.225 10.024-2.407 11.423-2.202M199.102 234.32c1.058-.618 2.614-1.94 4.407-1.912M208.065 244.977c.866-5.125 3.062-8.586 4.194-9.452M210.99 245.378c.867-5.125 3.263-8.786 4.394-9.65M214.255 245.045c.865-5.125 3.062-8.453 4.193-9.32M216.716 244.644c.865-5.126 3.728-7.654 4.86-8.52M218.354 246.096c.866-5.125 5.22-7.973 6.35-8.838M218.49 246.894c2.966-4.267 7.843-6.34 9.235-6.64M205 244.315c.866-5.126 3.13-7.92 4.26-8.787M202.074 243.38c.866-5.124 3.53-7.72 4.66-8.585M217.278 253.91c2.3-1.81 3.863 4.035 3.977 4.744s.544 1.43 1.69 2.09M200.276 239.852c.932-2.596 2.996-5.458 4.127-6.323" stroke="#000" stroke-width="1.055475" fill="none"/><path d="M212.887 248.895c-2.986 4.742.46 8.928 4.325 7.25-.444-3.278-1.282-5.36 1.707-8.51-2.12.124-4.023-.626-6.033 1.26z" fill-rule="evenodd" stroke="#000" stroke-width="1.12175883" fill="#fff"/><path d="M201.627 214.03l1.412 6.967M203.04 220.43l-2.54 8.567M218.054 247.692c5.257-1.025 10.31 0 11.62.526" stroke="#000" stroke-width="1.055475" fill="none"/><path d="M217.434 248.532c5.388-.078 10.088 2.123 11.246 2.988" stroke="#000" stroke-width="1.13526891" fill="none"/><path d="M217.49 249.533c5.183 1.18 7.506 3.808 8.412 4.918M217.13 250.728c4.65 2.575 5.697 4.688 6.26 6.007" stroke="#000" stroke-width="1.12766949" fill="none"/><path fill-rule="evenodd" fill="#296526" d="M140.18 275.644l2.498-.586 2.71 11.55-2.5.587zM160.953 314.674l5.244 5.972 1.958-1.656-4.922-6.186-2.28 1.87zM321.018 340.188l-6.497 4.578 1.44 2.123 6.675-4.236-1.617-2.466zM355.29 311.614l-5.794 5.438 1.72 1.903 6.02-5.125-1.945-2.216zM373.665 273.25l-2.108 5.202 1.152 1.492 2.267-4.95-1.312-1.745z"/><path d="M202.003 243.664c-2.815-4.63-3.17-9.477-3.314-14.216 1.496.713 2.67 1.105 3.526.855M192.2 183.57c-2.318-5.795.357-8.934 3.248-11.686" stroke="#000" stroke-width="1.055475" fill="none"/><path d="M195.976 170.27c.488.62.19 1.738-.662 2.5-.854.764-1.942.882-2.43.265-.487-.618-.19-1.738.663-2.5.854-.764 1.942-.882 2.43-.264z" fill-rule="evenodd"/><path d="M180.97 214.385c-.485 0-8.88-1.13-8.88-1.13M177.42 220.52c0-.323-5.49-7.104-5.49-7.104" stroke="#000" stroke-width="1.3721175" fill="none"/></svg>