<svg xmlns="http://www.w3.org/2000/svg" height="512" width="512" version="1"><g fill-rule="evenodd" stroke-width="1pt"><path fill="#e80008" d="M0 0h512.002v512.005H0z"/><path fill="#fff" d="M0 36.573h512.002v36.572H0zM0 109.717h512.002v36.572H0zM0 182.86h512.002v36.57H0zM0 256.004h512.002v36.572H0zM0 329.148h512.002v36.573H0zM0 402.293h512.002v36.573H0zM0 475.438h512.002v36.573H0z"/></g><g fill-rule="evenodd" stroke-width="1pt"><path fill="#000689" d="M-.962-.666H260.89v151.014H-.962z"/><g fill="#fe0"><path d="M131.975 127.69c-28.173 15.677-63.395 5.084-78.62-23.31-15.222-28.397-4.712-63.897 23.462-79.24 17.42-9.487 36.553-9.675 53.936-.344-9.81-2.36-18.57-2.234-28.087.594C74.94 33.626 59.003 63.225 67.09 91.46c8.09 28.235 37.156 44.465 64.88 36.23z"/><path d="M122.272 39.456L151.65 56.99l-9.854-32.76 18.857 28.543 5.34-33.793 4.6 33.903 19.472-28.135-10.56 32.544 29.75-16.902-23.634 24.74 34.138-2.32-32.03 12.038 31.763 12.72-34.075-3.05 23.096 25.24-29.377-17.535 9.854 32.762L170.13 96.44l-5.34 33.792-4.602-33.9-19.47 28.135 10.56-32.546-29.75 16.903 23.634-24.74-34.138 2.32 32.03-12.038-31.762-12.72 34.076 3.05"/></g></g></svg>