<svg xmlns="http://www.w3.org/2000/svg" height="512" width="512" version="1"><g fill-rule="evenodd" stroke-width="1pt"><path fill="#e80008" d="M0 0h512.002v512.005H0z"/><path fill="#fff" d="M0 36.573h512.002v36.572H0zM0 109.717h512.002v36.572H0zM0 182.86h512.002v36.57H0zM0 256.004h512.002v36.572H0zM0 329.148h512.002v36.573H0zM0 402.293h512.002v36.573H0zM0 475.438h512.002v36.573H0z"/></g><g fill-rule="evenodd" stroke-width="1pt"><path fill="#000689" d="M-.962-.666H260.89v151.014H-.962z"/><g fill="#fe0"><path d="M131.975 127.69c-28.173 15.677-63.395 5.084-78.62-23.31-15.222-28.397-4.712-63.897 23.462-79.24 17.42-9.487 36.553-9.675 53.936-.344-9.81-2.36-18.57-2.234-28.087.594C74.94 33.626 59.003 63.225 67.09 91.46c8.09 28.235 37.156 44.465 64.88 36.23z"/><path d="M122.19 39.415l29.355 17.52L141.7 24.2l18.842 28.522 5.335-33.767 4.6 33.876 19.455-28.11-10.552 32.518 29.727-16.89-23.617 24.72 34.112-2.316-32.005 12.027 31.738 12.71-34.05-3.048 23.078 25.22-29.355-17.52 9.846 32.736-18.843-28.523-5.333 33.766-4.6-33.874-19.455 28.115 10.55-32.52-29.726 16.89 23.617-24.722-34.112 2.317 32.006-12.027-31.737-12.71 34.05 3.047"/></g></g></svg>