<svg xmlns="http://www.w3.org/2000/svg" height="512" width="512"><defs><clipPath id="a"><path fill-opacity=".67" d="M0 0h496.06v496.06H0z"/></clipPath></defs><g clip-path="url(#a)"><path fill-rule="evenodd" fill="#009a00" d="M0 0h744.09v155.02H0z"/><path fill-rule="evenodd" fill="#fff" d="M0 154.98h744.09v15.52H0z"/><path fill-rule="evenodd" d="M0 170.5h744.09v155.02H0z"/><path fill-rule="evenodd" fill="#fff" d="M0 325.52h744.09v15.52H0z"/><path fill-rule="evenodd" fill="#ffca00" d="M0 341.04h744.09v155.02H0z"/><path d="M0 0v496.06l325.56-248.03L0 0z" fill-rule="evenodd" fill="red"/><path fill="#ffca00" fill-rule="evenodd" d="M192.35 322.606l-49.633-36.338-49.57 36.347 19.223-58.433-49.888-35.912 61.517.227 18.733-58.542 18.793 58.577 61.467-.28-49.903 35.974"/><path stroke-linejoin="round" d="M99.635 281.854h35.756c2.878 3.228 9.297 4.544 15.41-.038 11.208-6.137 32.89.038 32.89.038l4.27-4.536-10.408-34.155-3.736-4.002s-8.005-4.802-23.215-3.2c-15.21 1.6-20.545-.534-20.545-.534s-13.342 1.6-17.078 3.468c-.41.333-4.27 4.27-4.27 4.27l-9.072 38.69z" fill-rule="evenodd" stroke="#000" stroke-linecap="round" stroke-width="1.0683875" fill="#fff"/><path stroke-linejoin="round" d="M106.84 273.05s34.155-4.268 44.028 8.806c-5.576 3.815-10.485 4.13-15.743.268.837-1.396 12.274-13.342 41.36-9.34" stroke="#000" stroke-linecap="round" stroke-width="1.0683875" fill="none"/><path d="M143.395 238.897l-.265 37.624M173.814 239.427l6.404 29.885" stroke="#000" stroke-width=".85471pt" fill="none"/><path stroke-linejoin="round" d="M113.33 238.956l-3.555 15.413" stroke="#000" stroke-linecap="round" stroke-width="1.0683875" fill="none"/><path stroke-linejoin="round" d="M76.413 285.957l8.41 9.86c.986.588 1.863.55 2.74 0l12.462-14.955 5.234-6.48c.81-.96 1.068-2.03.996-2.99l10.006-8.893c.82.056 1.306.148 2.125.204-.967-.25-1.677-.722-.915-1.78l2.243-1.746 1.744 2.243s-2.493 3.24-2.742 3.24h-2.742l-5.234 4.737 2.288 2.022 3.445 9.442 4.237-2.99-2.742-9.72 5.982-6.482-2.243-3.49 1.494-1.993s20.703 13.034 28.68 9.545c.215.078.48-9.296.48-9.296s-21.433-2.243-21.932-6.48c-.5-4.237 4.736-4.735 4.736-4.735l-2.244-3.24.5-1.745 3.738 4.736 8.474-7.227 49.848 56.827c2.72-1.104 3.302-1.77 3.49-4.486-.07-.07-48.85-56.08-48.85-56.08l3.737-3.987c.738-.83.997-1.184.998-2.493l5.732-4.985c1.724.592 2.823 1.625 3.74 2.99l15.76-13.357c.414.416 1.676.83 2.532.364l26.052-25.012-28.394 20.058-1-.748c0-.83 1.03-1.036 0-2.492-1.103-1.324-2.742 1.246-2.99 1.246-.25 0-4.11-1.366-4.957-3.094l-.278 4.588-7.228 6.73-5.483-.25-7.976 7.727-.997 2.992 1.247 2.493s-4.237 3.738-4.237 3.49c0-.25-.857-1.103-.893-1.213l3.635-3.275.498-2.243-1.213-1.894c-.367.268-5.018 5.135-5.267 4.636-.42-.462-13.462-15.202-13.462-15.202l.747-2.742-8.474-9.222c-3.088-1.067-7.975-1.246-8.97 5.483-.778 1.58-7.23.25-7.23.25l-3.49.747-19.69 27.915 10.968 13.21L115.97 218.3l.666-8.048 4.707 5.263c1.57.2 3.064.22 4.486-.5l13.29 14.836-2.214 2.16c.748.83 1.262 1.36 2.01 2.192.748-.498 1.462-1.097 2.21-1.596.25.334.665.965.914 1.298-1.113.606-1.895 1.413-3.008 2.018-1.782-1.16-3.503-2.607-3.372-4.91l-7.477 6.232-.25 1.246-22.182 18.444-1.993.25-.498 5.732 14.454-11.963v-1.746l1.496 1.246 11.215-8.97s.748.995.5.995c-.25 0-9.97 8.973-9.97 8.973l-.25.997-1.745 1.496-.997-.748-13.46 11.964h-1.993l-7.477 7.477c-1.928.167-3.6.37-5.234 1.494l-13.394 11.826z" fill-rule="evenodd" stroke="#000" stroke-linecap="round" stroke-width="1.0683875"/></g></svg>