<svg xmlns="http://www.w3.org/2000/svg" height="512" width="512" version="1"><defs><clipPath id="a"><path fill-opacity=".67" d="M0 0h512v512H0z"/></clipPath></defs><g fill-rule="evenodd" clip-path="url(#a)"><path fill="#fff" d="M0 0h512v512H0z"/><path fill="#ffe700" d="M154.085 183.39l-23.183-13.998-13.413 23.577-13.05-23.73-23.394 13.74.572-27.098-27.107.21 14.046-23.208-23.554-13.367 23.754-13.097-13.693-23.368 27.1.52-.16-27.104 23.182 14 13.413-23.58 13.05 23.73 23.393-13.74-.57 27.102 27.102-.215-14.042 23.21 23.552 13.37-23.754 13.095 13.696 23.366-27.1-.52"/><path d="M167.768 119.933c0 27.247-22.26 49.336-49.72 49.336s-49.723-22.09-49.723-49.337 22.262-49.336 49.722-49.336 49.72 22.088 49.72 49.336z" fill="#3662a2"/><path d="M156.976 119.932c0 21.5-17.43 38.93-38.93 38.93s-38.93-17.43-38.93-38.93 17.43-38.93 38.93-38.93 38.93 17.43 38.93 38.93z" fill="#ffe700"/></g></svg>