<svg xmlns="http://www.w3.org/2000/svg" height="512" width="512"><g fill-rule="evenodd" stroke-width="1pt"><path fill="#fff" d="M155.83 0h200.356v512H155.83z"/><path fill="#198200" d="M0 0h155.83v512H0zM356.185 0H512v512H356.185z"/></g><g stroke-linejoin="round" fill-rule="evenodd" stroke="#000"><path d="M242.96 332.355v41.025l16.582.17s-5.3-35.725-2.393-40.51c2.905-4.787 5.64-4.104 5.64-4.104s10.77 3.25 11.965 2.736c1.197-.513-.17-4.103 5.64-3.59 1.882-.684.856-3.932 2.566-4.103 1.71-.172 34.7 9.23 41.88.34-1.88-4.956-8.376-.34-10.085-.17-1.54 0-8.034-3.076-11.795 0-3.42-2.563-18.974-4.273-18.974-4.273-2.052-2.052 37.093 1.026 39.315-.513 4.616-4.615-8.545-4.102-10.597-2.564-3.646-2.222-8.22-2.05-11.012-.513-1.338-3.202-14.058-1.823-21.123-2.735-2.262-1.326-1.874-2.08-.342-2.906 14.758.627 29.443 2.542 44.273 1.88 4.008-5.225-5.05-7.185-10.598-2.735-3.257-5.355-9.914-.17-14.36-.682-4.443-.513-2.39-5.983 3.25-5.13 5.64.856 15.726-.34 17.606-2.904 1.88-2.564-1.123-5.17-10.427-2.735-3.15-3.08-10.087 0-13.334 1.024-4.32-2.41-14.36-.342-17.777.513-3.348-2.08 17.605-5.47 17.605-5.47 8.09-.143 12.65-1.538 15.213-2.222 12.228-6.554-.175-7.252-6.59-2.488-3.984-3.11-7.768.266-11.357 1.463-3.59 1.196-10.427 2.05-10.427 1.538 0-.513 9.744-6.496 9.744-6.496s11.965-.854 14.358-1.196c2.394-.342 14.64-6.628-2.05-2.393-5.813.513-9.23.17-11.454.342-12.886-1.333 1.198-2.564 1.198-2.564s18.246-1.676 18.46-2.563c.36-7.115-14.87-3.76-15.042-3.76.044-5.084-14.187.17-14.187 0-2.72-1.604 1.537-3.25 1.537-3.25 3.76-.91 9.382-1.178 10.853-2.376 0 0 10.62-.1 11.88-2.92-2.603-7.187-22.467 1.275-25.127 2.563-3.59 0 2.394-5.81 2.565-5.983.17-.17 16.41-.854 24.1-11.282.536-6.346-9.058 3.59-9.058 3.59-.716-8.23-10.427.513-16.068 1.197-5.64.684-5.81-2.564-1.88-3.077 3.93-.513 8.376-.17 10.598-6.154 2.222-5.983 8.89.342 10.085-1.88 1.197-2.222-2.393-4.103-2.393-4.103s4.957-5.127-3.077-4.956c-8.034.17-18.46-1.025-18.46-1.025s8.375-3.25 16.238-3.078c7.863.17 3.59-5.64-3.932-5.64-7.52 0-11.45-2.565-11.45-2.565 4.272-1.596 8.545-3.19 12.82-4.786l-.856-3.59s7.522-5.982-3.076-4.615c-10.598 1.368-11.795 1.54-11.795 1.54s-21.196 3.247-21.367 3.247c-.17 0-5.812-1.71-.342-3.077 5.47-1.368 24.786-5.3 27.692-4.273 2.906 1.025-.342-7.18-10.598-8.206-10.256-1.025-16.58 2.565-16.58 2.565s-6.668-2.393-.514-4.444c6.154-2.05 15.897.684 15.897.684s10.94-3.248 1.882-4.615c-9.06-1.368-11.917 1.224-16.068 1.367-1.657-2.068 14.222-2.563 15.213-4.273-1.675-3.08-11.51 0-17.265 0-2.448-1.04-2.605-2.724.17-3.762 5.87-.228 11.38.117 17.25-.11-.17-3.135.016-6.84-.155-9.975-7.445-1.36-16.18.98-20.358.783 1.117-3.42 17.2-4.297 18.99-5.227 3.722-4.654-15.727 0-15.898 0-3.392-.503-3.173-2.645-1.025-3.933 4.957-.57 16.07.72 15.23-2.64-.645-3.15-7.71-1.463-10.615-.78-2.905.685-7.18.172-7.18.172-1.86-2.506 16.752-1.487 16.582-3.42-.243-2.22-11.795-.684-15.727-.513-3.072-2.12 14.757-3.518 15.043-3.76.644-5.683-11.965 0-14.36 0-2.392 0-1.195-3.59-1.195-3.59s4.957-2.222 4.786-2.564c-.17-.342-3.76-1.538-4.102-1.538-.34 0 0-3.932 0-3.932s4.103-3.077 3.76-3.93c-.34-.856-4.785.682-4.785.682v-3.418s3.248-.342 3.59-1.88c.342-1.54-3.932-1.71-3.932-1.71l-1.708-17.948-1.54 16.75-5.64.855s3.932 2.222 4.616 4.444c.683 2.222-4.787 1.538-4.787 1.538s4.446 3.76 4.788 5.128c.34 1.367-6.154 1.71-6.154 1.71s5.47 3.93 5.812 6.153c.342 2.22 0 3.418 0 3.418s-9.06-7.864-14.872-5.64c-3.02 1.577 6.92 2.307 13.504 8.033-.015 1.276-15.992-3.89-16.58-.683.37.893 17.06 3.29 18.29 5.47-6.097.228-18.707-1.334-18.29.683-1.275 2.33 11.91 1.007 17.435 2.907 1.62 1.84 1.45 3.395-1.368 3.59-5.326-2.547-17.236-4.45-17.264-1.198.073.867 12.313.304 16.752 3.248-5.925 1.347-26.022-2.743-26.15-.75.573.93 3.758 5.023 9.227 4.852 5.47-.17 18.118 2.222 18.973 3.932.855 1.71-16.41-3.59-22.905-.513-6.495 3.076 18.632 1.196 22.735 4.956s-8.205-.342-8.205-.342-17.094-2.393-19.658-1.197c-2.565 1.197-5.47 3.932-5.47 3.932s1.71 3.418 3.418 2.734c1.71-.684-.513 2.052-.513 2.052s23.932 5.81 29.23 10.94c5.3 5.128-30.425-8.035-30.425-8.035s-14.36 5.3.854 5.642c-1.75 2.56.855 4.102.855 4.102s25.298 5.3 27.862 9.402c2.564 4.103-17.265-3.932-21.71-6.153-4.444-2.223-17.093 1.367-16.922 2.22.17.856 6.154 2.053 6.324 3.59.17 1.54-7.35 2.052-7.35 3.42 0 1.368 31.965 8.034 40.512 15.213s-25.128-8.546-25.128-8.546 1.88 2.564 0 3.248c-1.88.683-8.547-9.573-19.487-3.248-1.99 2.602 9.545 4.67 12.48 4.957-1.003 2.577-1.88 3.42 2.222 5.983 4.102 2.564-8.035-3.76-8.035-3.42 0 .343.855 4.446.855 4.446-3.787-3.077-8.36-4.006-12.65-.855 0 0-.17 3.078 4.274 4.958-2.426 4.958 2.736 3.42 10.94 8.034-12.194-3.187-13.16 2.735-4.444 4.103 8.718 1.367 32.65 2.222 38.29 9.572 5.64 7.35-8.014-2.818-9.572-3.077-.342.17-.684 3.76-.684 3.76-3.647-2.11-7.007-4.006-11.37-4.9-.34.683-.253 1.653-.595 2.337-3.958-2.855-7.414-4.85-13.162-5.128l-.684 2.734s-4.786-5.983-14.188 0c-5.25 3.763 19.83 1.367 23.932 5.812 4.103 4.444.854 5.128.854 5.128-3.418-1.254-6.837-2.508-10.256-3.76 0 0-12.136-2.223-15.555.51-3.418 2.737 49.915 9.403 51.453 16.753 1.037 3.987-12.534-4.185-24.273-7.692l-1.368 3.932s-4.66-4.683-9.914-5.47c-.17 0 1.026 4.615 1.026 4.615s-13.162-6.154-19.828-2.906c-6.668 3.248 23.247 4.957 25.982 8.034 2.735 3.077-9.06-2.05-10.085 0-1.026 2.052-15.556-3.76-15.385-1.026.17 2.736 2.05 4.274 2.05 4.274s30.257 2.906 31.284 6.495c1.025 3.59-16.752-2.05-16.752-2.05s-1.71 2.563-.342 3.76c1.367 1.197-10.256-6.838-9.23-1.54-3.77-1.5-13.505-6.152-12.137-2.562 1.368 3.59 27.522 8.72 27.522 8.72s-11.454.853-10.94 3.76c-14.734-8.977-14.36-3.25-14.017-3.078.342.17-18.974-4.786-4.445 3.077 14.53 7.862 7.863 6.494 8.035 6.666.17.17 1.538 3.93 1.196 3.93-.34 0-9.913-5.127-13.16-5.47-3.25-.34-18.633 4.275-2.223 11.454 16.41 7.18 26.496-1.71 35.555-.683 9.06 1.025 13.333 2.563 12.48 5.47-.856 2.905-9.257-9.523-18.098 1.228-10.057-1.99-16.883-3.145-11.69 4.246-16.426-6.137-26.452 1.877-5.768 5.125 20.325.6 32.82-4.958 32.82-4.958s3.418 6.325 8.375 1.88c4.96-4.444 5.13 1.71 5.3 1.71.17 0 4.787-2.05 4.787-2.05h1.196z" stroke-linecap="round" stroke-width=".7420725" fill="#198200"/><path d="M244.963 308.085v-2.863s-6.456-1.145-9.605-.5c-1.865-1.07-3.627-2.477-5.856-1.29-.43.93 4.08 3.365 5.583 3.365 1.76 1.114 9.878 1.43 9.878 1.288zM244.888 312.74s-6.456-2.362-9.033.358c.42 2.89 7.602 4.293 9.105 3.506 1.504-.787 0-3.722-.072-3.865zM255.772 313.884v2.004s7.73 1.503 9.09-.143c1.36-1.646-6.155-2.72-9.09-1.86zM255.415 305.9l.285 2.26s6.657 1.503 9.234-2.147c2.577-3.65-5.85.03-9.518-.114zM255.772 298.14v1.502s5.01.788 6.156-1.36c1.145-2.147-6.013 0-6.156-.143zM245.303 293.514c-.77-1.1-3.492-3.823-10.793-4.61-5.074-.017 9.165 7.466 10.793 4.61zM255.628 285.898s-.286 2.075-.215 2.075c.072 0 17.18-5.082 21.187-4.724 3.58-1.013 4.295-3.508 4.152-3.508-3.056-2.227-17.823 1.79-25.124 6.156zM255.985 279.812c-.072.358-.215 2.004-.215 2.004s12.097-2.362 15.318-4.652c3.22-2.29-14.96 2.72-15.103 2.648zM255.484 273.875l.002 2.018s8.074-.246 9.733-1.875c1.06-1.63-7.116-.232-9.736-.143zM272.334 290.822s4.194.586 4.98-.63c-.154-2.16-4.98.7-4.98.63zM255.84 266.356c-.07.358.072 4.438.072 4.438s19.398-6.156 20.615-7.3c1.217-1.146 3.917-4.594-20.686 2.862zM255.266 260.2v3.222s7.802-.573 11.38-3.508c3.58-2.934-11.38.36-11.38.287zM245.89 252.9l.5 2.936s-25.696-8.303-25.625-8.303c.072 0-1.294-4.23 25.124 5.368zM246.32 242.593c-.07.286-.07 2.79-.143 2.72-.07-.072-17.822-7.445-18.467-6.8-2.357-5.524 18.61 4.223 18.61 4.08zM254.984 247.172c0 .072.286 2.505.286 2.505s10.88-2.29 11.525-3.364c.644-1.074-11.81.93-11.81.86zM255.237 252.97c.1.615.315 2.578.315 2.578s4.367-.358 5.01-1.36c.645-1.003-5.325-1.146-5.325-1.218zM254.553 239.728c0 .215.07 2.434.07 2.434s11.955-2.362 13.243-3.507c1.288-1.146-13.528 1.073-13.313 1.073zM254.622 233.14c0 .145-.43 2.435-.143 2.435.285 0 14.53-2.434 16.748-4.437 2.22-2.005-16.392 2.218-16.607 2.003zM254.41 221.55v2.506s9.233-1.933 10.95-3.866c1.72-1.933-10.95 1.503-10.95 1.36zM252.833 204.655l.215 3.793s12.382-1.717 14.172-3.793c1.79-2.076-14.458 0-14.387 0zM247.11 176.238v2.362s-5.87-.287-4.44-1.29c1.432-1 4.44-.858 4.44-1.072zM252.55 179.39l.144 3.22s7.587-.714 8.16-1.93c.573-1.218-8.16-1.29-8.303-1.29zM252.12 184.044s.142 2.004.285 2.004 3.007-.215 3.65-1.002-3.65-.86-3.936-1.002zM245.676 193.202c0 .214.215 3.078.072 3.006-.143-.072-16.607-4.796-18.11-4.724-1.502.072-1.932-3.794 18.038 1.718zM247.034 198.575c0 .573.358 3.58-.215 3.436-.573-.142-11.166-3.507-10.093-4.51 1.073-1 10.307 1.29 10.307 1.075zM246.108 221.188l.07 2.72s-18.466-5.583-19.11-6.513c-.644-.93-2.433-5.297 19.04 3.793zM246.82 227.85c0 .07.145 2.576.073 2.576s-25.123-8.804-25.123-8.804-2.005-6.585 25.052 6.227z" stroke-linecap="round" stroke-width=".791544" fill="#fff"/><path d="M217.046 314.73c0 .085-.085 2.74-.085 2.74s-4.882-1.37-6.424-4.11c2.827-.772 6.596 1.455 6.51 1.37z" stroke-width=".791544" fill="#fff"/></g></svg>