<svg xmlns="http://www.w3.org/2000/svg" height="512" width="512" version="1"><defs><clipPath id="a"><path fill-opacity=".67" d="M164.71 0h496.06v496.06H164.71z"/></clipPath></defs><g clip-path="url(#a)" transform="matrix(1 0 0 1 -170 0)"><path fill-rule="evenodd" fill="#5387f4" d="M0 329.53h825.59v166.54H0zM0 0h825.59v166.54H0z"/><path fill-rule="evenodd" fill="#fff" d="M0 166.54h825.59v162.99H0z"/><g transform="matrix(.2 0 0 .2 306.7 101.4)"><path d="M240.03 725.163l196.604-338.64 196.595 338.64h-393.2z" fill-rule="evenodd" fill="#ffd200"/><path d="M259.85 716.038l177.17-306.86 177.16 306.86H259.85z" fill-rule="evenodd" fill="#0ff"/><g stroke="#ffd200" stroke-width="1pt" fill="none"><path d="M439.18 556.66L438 448.34M445.07 563.73l38.856-54.162M450.96 569.61l62.4-25.9M455.67 577.86l73.002 2.355M450.96 587.28l42.39 37.677M439.18 583.74v34.146M426.23 575.5l-55.338 48.275M432.12 579.03l-24.725 45.92M422.7 569.61l-91.84 31.79M421.52 564.9l-64.76-2.355M369.71 537.82l56.518 18.84M396.79 489.55l34.147 65.936"/></g><g fill-rule="evenodd"><path d="M437.082 538.226c-35.433 0-61.25 6.505-83.044 14.145l5.54-9.578 5.53-9.595 5.54-9.596 5.54-9.577 5.53-9.595 5.54-9.58 6.13-9.768c8.26-7.257 25.98-10.652 43.69-10.652 17.72 0 35.44 3.586 44.3 10.826l5.54 9.595 5.53 9.578 5.54 9.595 5.54 9.578 5.53 9.597 5.54 9.595 5.53 9.58c-22.972-7.64-47.613-14.146-83.046-14.146z" fill="#c453d7"/><path d="M437.094 531.47c-35.548-.05-75.28 10.598-77.504 11.33l5.53-9.595 5.54-9.596 5.54-9.58 5.53-9.594 5.54-9.58 6.13-9.768c8.26-7.257 25.98-10.652 43.69-10.652 17.72 0 35.44 3.586 44.3 10.826l5.54 9.595 5.53 9.58 5.54 9.594 5.54 9.58 5.53 9.595 5.54 9.595s-42.083-11.33-77.516-11.33z" fill="#5000c1"/><path d="M437.08 523.803c-26.247-.11-68.685 7.14-71.68 8.504l5.247-8.713 5.54-9.578 5.53-9.595 5.54-9.578 6.13-9.77c8.26-7.256 25.98-10.65 43.69-10.65 17.72 0 35.44 3.585 44.3 10.825l5.54 9.595 5.53 9.58 5.54 9.594 5.54 9.578 5.53 9.596s-36.543-9.387-71.976-9.387z" fill="#0053d7"/><path d="M437.066 515.852c-34.802-.07-63.717 6.63-66.434 7.74l5.54-9.58 5.53-9.594 5.54-9.58 6.13-9.768c8.26-7.257 25.98-10.652 43.69-10.652 17.72 0 35.44 3.586 44.3 10.826l5.54 9.595 5.53 9.578 5.54 9.595 5.54 9.578s-31.013-7.738-66.446-7.738z" fill="#009f9f"/><path d="M437.08 509.087c-35.604-.123-57.962 4.465-60.893 4.93l5.53-9.594 5.54-9.58 6.13-9.768c8.26-7.257 25.98-10.652 43.69-10.652 17.72 0 35.44 3.586 44.3 10.826l5.54 9.594 5.53 9.58 5.54 9.594s-25.473-4.93-60.906-4.93z" fill="#ff0"/><path d="M436.776 500.247c-31.014-.67-53.786 4.25-55.07 4.167l5.54-9.58 6.13-9.768c8.26-7.257 25.98-10.652 43.69-10.652 17.72 0 35.44 3.586 44.3 10.826l5.54 9.595 5.53 9.58s-20.227-4.168-55.66-4.168z" fill="#f50"/><path d="M437.932 489.963c-31.13.257-47.247 4.34-50.707 4.89l6.13-9.768c8.26-7.257 25.98-10.652 43.69-10.652 17.72 0 35.44 3.586 44.3 10.826l5.54 9.594s-13.52-4.89-48.953-4.89z" fill="#ff0b00"/></g><path d="M259.85 716.038l49.83-86.31h254.67l49.83 86.31H259.85z" fill-rule="evenodd" fill="#4363ff"/><g fill-rule="evenodd" stroke-width="1pt"><path d="M334.69 674.38s28.307-4.996 46.624-19.982c18.316-14.986 18.317-39.964 26.642-39.964 8.326 0 9.99 28.308 29.973 38.3 19.98 9.99 51.62 23.31 51.62 23.31l-154.86-1.664z" transform="matrix(1 0 0 1 109.9 -5.8)" stroke="#000" fill="#6da700"/><path d="M543.13 656.892c-43.48-19.982-17.714-9.99-30.597-18.317-6.442-16.65-16.104-29.973-8.053-29.973 8.053 0 9.663 28.308 28.988 38.3 19.324 9.99 27.377 12.488 27.377 12.488l-17.715-2.498z" fill="#ffbd00"/><path d="M334.69 674.38s28.307-4.996 46.624-19.982c18.316-14.986 18.317-39.964 26.642-39.964 8.326 0 9.99 28.308 29.973 38.3 19.98 9.99 51.62 23.31 51.62 23.31l-154.86-1.664z" transform="matrix(1 0 0 1 73.7 -5.8)" stroke="#000" fill="#6da700"/><path d="M506.892 656.892c-43.48-19.982-17.714-9.99-30.597-18.317-6.442-16.65-16.104-29.973-8.053-29.973 8.053 0 9.663 28.308 28.988 38.3 19.324 9.99 27.377 12.488 27.377 12.488l-17.715-2.498z" fill="#ffbd00"/><path d="M334.69 674.38s28.307-4.996 46.624-19.982c18.316-14.986 18.317-39.964 26.642-39.964 8.326 0 9.99 28.308 29.973 38.3 19.98 9.99 51.62 23.31 51.62 23.31l-154.86-1.664z" transform="matrix(1 0 0 1 37.5 -5.8)" stroke="#000" fill="#6da700"/><path d="M470.663 656.892c-43.48-19.982-17.715-9.99-30.598-18.317-6.442-16.65-16.103-29.973-8.052-29.973 8.052 0 9.663 28.308 28.988 38.3 19.325 9.99 27.378 12.488 27.378 12.488l-17.715-2.498z" fill="#ffbd00"/><path d="M334.69 674.38s28.307-4.996 46.624-19.982c18.316-14.986 18.317-39.964 26.642-39.964 8.326 0 9.99 28.308 29.973 38.3 19.98 9.99 51.62 23.31 51.62 23.31l-154.86-1.664z" transform="matrix(1 0 0 1 -3.6 -6.7)" stroke="#000" fill="#6da700"/><path d="M429.598 656.06c-43.48-19.983-17.715-9.992-30.598-18.318-6.442-16.65-16.103-29.973-8.052-29.973 8.052 0 9.663 28.307 28.988 38.298 19.324 9.99 27.377 12.49 27.377 12.49l-17.715-2.5z" fill="#ffbd00"/><path d="M334.69 674.38s28.307-4.996 46.624-19.982c18.316-14.986 18.317-39.964 26.642-39.964 8.326 0 9.99 28.308 29.973 38.3 19.98 9.99 51.62 23.31 51.62 23.31l-154.86-1.664z" stroke="#000" fill="#6da700" transform="matrix(1 0 0 1 -34.2 -6.7)"/><path d="M413.72 656.02c-44.96-19.982-18.317-9.99-31.638-18.317-6.66-16.65-16.65-29.973-8.326-29.973 8.326 0 9.99 28.308 29.973 38.3 19.98 9.99 28.307 12.488 28.307 12.488l-18.317-2.498z" fill="#ffbd00"/></g><path d="M438.01 565.49c.41 0 .727-1.87 1.766-3.532 2.222-1.61 4.568-2.87 7.653-3.533 1.664-.832 5.08-.588 7.652-.588 3.61.324 3.837 1.865 5.888 4.12.902 1.838 3.038 4.39 4.12 7.065 1.173 1.42 2.108 3.626 2.944 5.3.855 1.803 1.765 4.525 2.944 7.063.605 2.824 1.177 5.028 1.177 8.242 0 3.352-.554 4.78-1.177 7.065-1.794.598-5.29.888-7.065 0-1.9-1.7-5.162-.617-6.475-2.355-3.386-.474-4.208-4.46-5.888-6.475-1.175-1.73-1.156-3.032-2.355-4.71-1.857-1.327-2.108-2.945-2.943-5.3.736-2.516 2.015-3.067 4.12-4.12 1.128-1.644 1.767-2.304 1.767-5.298-.425-3.334-1.626-2.982-4.71-3.533-3.815 0-5.77.394-9.42.59z" fill-rule="evenodd" transform="matrix(.7 0 0 .5 132.3 268.7)" stroke="#000" stroke-width="1pt" fill="red"/><g stroke="#0ff" stroke-width="1pt" fill="none"><path d="M314.38 690.89h1.177c-3.178 0-1.56-.077 4.71 1.177 5.434.647 10.545 1.178 16.484 1.178M308.49 708.55v-1.177c0 3.69-.307 1.422 5.887-3.532 5.262-.915 7.744.94 14.13 1.178 3.387 1.694 9.525 1.142 12.95 0 1.754-.75 1.78-1.604 3.533-2.355M321.44 710.91v-1.177c.784.313 5.255 0 8.242 0 6.162 0 10.917-.3 14.13 2.355h2.354M366.18 686.18h5.888c3.748-1.25 9.203-1.25 12.95 0 1.485 4.877 3.39 5.78 9.42 5.887 1.975-1.48 6.047-2.526 8.243-3.532M369.71 694.42h16.485M380.31 705.02v-1.177c0 3.69-.306 1.422 5.888-3.533 4.69-2.304 7.16-3.6 14.13-2.355 5.012 2.68 6.788 4.236 12.95 4.71 5.602 0 8.066-.9 12.952-1.177M395.62 710.91h1.177c-3.29 0-1.54.146 4.71-2.355 5.854 1.464 9.805 3.453 16.484 3.533 3.825-.192 6.576-1.178 10.598-1.178M438.01 686.18H443.897c5.76 0 11.38-.098 16.484 1.177h16.485c1.57 0 1.177.393 1.177-1.177M433.3 695.6h1.177c-3.29 0-1.54.146 4.71-2.354 4.946.38 10.524 1.085 14.13 3.532 5.17 2.267 7.213 4.216 14.13 4.71 3.944-.208 4.214-1.75 8.24-2.355M450.96 707.37c1.847-.923 8.04-3.283 12.952-1.178 5.104 1.276 10.723 1.178 16.484 1.178 3.665-1.57 9.865-2.905 12.952-4.71h3.532M500.41 692.07c2.368 0 12.454-.558 17.66 1.178 6.372-.768 8.618-3.877 12.953-7.065 4.347 0 8.014.103 11.774 1.177M522.78 706.2c.095-.012 4.706-.924 8.242-1.177 5.307-3.98 6.228.084 11.774 1.177 6.15-1.39 9.25-4.42 11.775-8.242M535.73 697.95h1.177c-3.466 0-1.513.202 4.71-3.532 4.142-2.07 4.632-4.167 10.597-4.71 3.294-2.47 5.733-.305 8.242 1.178M560.46 707.37c.197-.935 2.335-6.02 3.532-8.242 5.25-2.1 7.76-3.058 11.775 2.355 4.27 1.164 8.28 3.49 12.95 4.71 1.734 0 .9.277 2.356-1.178M576.94 690.89v-1.178c0 3.69-.245 1.485 4.71-4.71 5.457 1 6.892 4.303 9.42 8.243 5.85 0 9.696-.142 12.95-2.355M605.2 703.84c.715-1.044 5.415-8.715 9.42-4.71 5.226 1.425 6.044 3.803 11.774 5.887 1.002-1.753 2.103-2.094 4.71-2.355" transform="matrix(1 0 0 1.4 -35.2 -306.5)"/><path d="M501.59 708.55h1.178c-3.29 0-1.542.146 4.71-2.355 4.894-2.826 7.32-3.976 10.596-8.242 5.468.196 9.662 1.178 15.307 1.178 0-1.57-.392-1.177 1.178-1.177M350.88 694.42c0-.815 3.214-2.088 7.064-3.532 2.806-2.105 5.133-.126 9.42 0M356.76 705.02h1.177c-3.29 0-1.54.146 4.71-2.355 4.516.632 6.547 2.88 11.774 3.532" transform="matrix(1 0 0 1.4 -35.2 -306.5)"/></g><path d="M704.686 581.383c-11.71-.183-17.16 4.468-17.342 16.115-.042 2.688.608 6.154 1.536 8.217 3.342 7.285 8.963 8.013 16.195 8.126l20.157.317c1.856.03 3.89 1.02 3.81 6.076l1.215.02.233-14.847-1.216-.02c-.08 5.056-2.142 5.984-3.998 5.955l-20.157-.314c-6.08-.095-15.103-.3-14.915-12.267.125-8 3.95-11.013 13.93-10.856l21.503.336c1.856.03 3.888 1.02 3.815 5.692l1.216.02.277-17.79-1.215-.02c-.074 4.672-2.136 5.6-3.992 5.57l-21.054-.33z" stroke="#000" stroke-width="1pt" fill="#ffd200"/><path d="M727.47 563.852l-.213-1.327c-4.93-.833-1.04-6.51-2.27-14.22-2.01-12.576-12.817-20.183-25.393-18.174-14.852 2.373-19.81 15.154-18.094 25.898.827 5.183 4.36 11.877 7.03 15.21l12.008-1.918c3.602-.575 5.675-.582 6.394 3.515l1.2-.19-2.573-16.117-1.2.192c.836 5.245-1.2 5.894-4.8 6.47l-9.418 1.504c-1.832.292-2.212.353-3.39-1.34-1.353-1.986-2.157-4.58-2.53-6.918-1.696-10.617 6.294-17.402 16.027-18.957 11.06-1.767 20.633 1.37 22.31 11.86 1.19 7.46-2.315 12.296-8.63 15.767l.23 1.454 13.31-2.708z" stroke="#000" stroke-width=".99999pt" fill="#ffd200"/><path d="M630.183 384.82l-1.03-.86c-4.945 2.625-4.038-3.454-10.77-9.073-9.874-8.244-22.83-6.806-30.992 2.97-8.982 10.76-6.79 23.013 2.79 31.01 4.718 3.938 11.83 5.707 17.902 4.524l-.015-1.68c-6.18.512-10.783-.664-15.598-4.684-8.058-6.727-5.45-17.14.29-24.017 7.384-8.844 16.328-12.466 24.434-5.7 5.6 4.677 6.11 11.356 3.024 17.95l1.18.984 8.785-11.423z" stroke="#000" stroke-width="1pt" fill="#ffd200"/><path d="M511.41 334.07c0-1.856.96-3.904 6.272-3.904v-1.216H498.61v1.216c5.312 0 6.272 2.048 6.272 3.904v32.128c0 1.856-.96 3.904-6.272 3.904v1.216h19.072v-1.216c-5.312 0-6.272-2.048-6.272-3.904V334.07z" transform="matrix(.9 .5 -.5 .8 302.2 -196.2)" stroke="#000" stroke-width="1pt" fill="#ffd200"/><path d="M564.698 346.357c.72-1.71 2.4-3.226 7.236-1.19l.472-1.12-14.038-5.91-.472 1.12c4.837 2.037 4.927 4.297 4.207 6.007l-9.958 23.654-10.765-37.933-10.087-4.247-.472 1.12c2.867 1.277 3.174 2.03 4.133 4.866l.224.788-12.615 29.965c-.72 1.71-2.4 3.226-7.237 1.19l-.47 1.12 14.037 5.91.472-1.12c-4.837-2.037-4.927-4.297-4.207-6.007l11.35-26.957 12.506 43.527.885.373 14.8-35.156zM474.834 357.286l3.61-10.596-1.79-.122c-3.936 7.88-8.793 7.612-13.9 7.265l-8.43-.574c-1.276-.088-1.568-1.455-1.49-2.605l1.07-15.707 9.003.613c4.278.292 7.835 1.753 7.496 6.734l1.34.09 1.018-14.94-1.34-.092c-.34 4.98-4.057 5.882-8.335 5.59l-9.003-.612.935-13.73c.11-1.595 1.383-2.406 2.98-2.297l10.28.7c4.47.304 6.368 3.513 6.835 7.008l1.405.097.622-9.13-33.907-2.31-.082 1.213c4.662.318 5.48 2.426 5.354 4.278l-2.183 32.054c-.125 1.85-1.222 3.83-5.883 3.512l-.083 1.213 34.48 2.35zM299.69 344.248l-1.15.696c.882 5.528-4.575 2.7-12.073 7.243-11.002 6.667-13.844 19.39-7.243 30.282 7.264 11.985 19.566 13.885 30.24 7.417 5.253-3.184 9.232-9.337 10.084-15.466l-1.594-.53c-1.52 6.01-4.127 9.985-9.49 13.235-8.978 5.44-17.982-.403-22.625-8.066-5.972-9.853-6.497-19.488 2.534-24.96 6.24-3.782 12.723-2.098 17.96 2.96l1.312-.796-7.955-12.016zM260.884 378.034c-1.18-1.434-1.737-3.626 2.367-7l-.77-.938-14.736 12.11.772.938c4.104-3.372 6.146-2.4 7.324-.966L276.238 407c1.18 1.434 1.737 3.626-2.366 7l.772.938 14.734-12.11-.772-.938c-4.104 3.372-6.146 2.4-7.324.966l-20.398-24.822zM271.516 418.068l-5.98-9.885-1.098 1.163c3.95 8.582-.15 12.544-5.737 18.448-2.726 2.883-4.908 4.166-6.21 2.934l-23.34-22.08c-1.347-1.275-2.175-3.38 1.036-6.774l-.883-.836-12.228 12.925.884.835c3.21-3.393 5.357-2.683 6.705-1.408l23.338 22.08c1.35 1.276 2.177 3.38-1.034 6.774l.882.836 23.664-25.012zM191.566 503.776c10.316 5.545 17.294 3.92 22.81-6.34 1.27-2.368 2.287-5.745 2.412-8.004.38-8.006-4.278-11.237-10.648-14.66l-17.757-9.546c-1.635-.88-2.984-2.694-.59-7.147l-1.072-.577-7.03 13.078 1.072.577c2.394-4.453 4.653-4.33 6.287-3.45l17.757 9.545c5.355 2.878 13.273 7.207 7.607 17.75-3.788 7.045-8.57 7.963-17.363 3.236l-18.94-10.18c-1.634-.88-2.984-2.695-.772-6.81l-1.07-.576-8.425 15.67 1.07.577c2.213-4.116 4.472-3.992 6.107-3.113l18.546 9.97zM193.916 554.2l-10.048-4.93-.35 1.756c7.312 4.91 6.428 9.694 5.43 14.716l-1.645 8.286c-.25 1.255-1.643 1.37-2.773 1.146l-15.442-3.067 1.758-8.85c.835-4.207 2.738-7.548 7.635-6.576l.263-1.317-14.69-2.917-.26 1.318c4.895.973 5.314 4.775 4.48 8.98l-1.76 8.852-13.495-2.68c-1.57-.312-2.21-1.68-1.9-3.25l2.007-10.105c.873-4.393 4.298-5.866 7.825-5.884l.274-1.38-8.977-1.783-6.62 33.332 1.193.237c.91-4.582 3.106-5.125 4.926-4.763l31.513 6.257c1.82.36 3.64 1.702 2.73 6.284l1.194.238 6.732-33.898zM183.944 627.977c1.856.02 3.894 1 3.846 5.48l1.216.014.187-17.598-1.216-.013c-.05 4.67-2.108 5.61-3.964 5.59l-14.463-.154-.09-3.586 19.873-15.02.11-10.305-1.217-.013c-.222 2.878-1.518 4.336-3.648 6.042l-15.754 12.505c-.768-6.025-3.844-11.626-10.628-11.698-7.487-.08-11.267 6.28-11.38 16.904l-.18 16.895 1.216.014c.048-4.48 2.106-5.418 3.962-5.398l32.126.34zm-31.737-6.866c-3.008-.03-3-.607-2.957-4.766.06-5.76 2.604-10.213 8.94-10.146 6.912.074 8.77 5.79 8.992 15.072l-14.975-.16zM191.814 540.397c1.8.455 3.55 1.888 2.404 6.417l1.18.298 4.36-17.25-1.178-.297c-1.145 4.53-3.366 4.958-5.165 4.503l-13.278-3.358c.64-1.753 1.22-3.52 1.675-5.32 2.01-7.942.822-16.56-8.36-18.883-7.323-1.85-12.68 4.716-15.097 14.27l-3.955 15.637 1.18.298c1.066-4.22 3.287-4.648 5.087-4.193l31.147 7.877zm-29.36-14.16c-2.545-.643-2.823-.846-2.164-3.45 1.506-5.958 4.935-11.164 11.947-9.39 7.197 1.82 8.254 7.038 6.56 13.74-.252.992-.643 2.015-.956 2.992l-15.387-3.893zM223.126 467.222c1.518 1.068 2.64 3.032-.344 7.27l.994.7 11.606-16.484c5.784-8.216 6.37-15.942.09-20.363-5.023-3.537-10.78-1.25-14.84 2.623 1.896-4.693 1.71-9.207-2.687-12.302-6.698-4.716-13.265.053-18.938 8.112l-9.874 14.025.994.7c2.984-4.24 5.21-3.845 6.73-2.776l26.27 18.495zm-9.115-14.4l1.843-2.618c3.463-4.92 9-10.336 15.226-5.952 6.122 4.31 4.907 9.482 1.076 14.925-2.69 3.82-3.963 3.628-5.795 2.338l-12.35-8.694zm-2.092-1.475l-11.88-8.364c-1.83-1.29-.548-2.89 3.156-7.483 3.26-3.185 7.173-4.186 11.15-1.386 4.24 2.984 4.316 7.656.595 12.942l-3.022 4.29z" stroke="#000" stroke-width="1pt" fill="#ffd200"/><path d="M418.26 355.16c17.1-1.335 25.086-10.048 24.073-23-1.122-14.356-11.55-20.474-27.884-19.198l-16.463 1.287.095 1.21c4.657-.363 5.774 1.604 5.92 3.454l2.502 32.03c.145 1.85-.653 3.968-5.31 4.332l.094 1.212 16.972-1.327zm-7.71-36.244c-.24-3.063.32-3.3 3.38-3.538 11.805-.923 20.476 4.883 21.454 17.39.927 11.867-6.053 19.474-19.115 19.917-1.41.046-3.123-.526-3.308-2.887l-2.413-30.882zM643.62 456.026c-1.598.945-3.85 1.162-6.13-2.694l-1.047.62 8.96 15.147 1.047-.62c-2.38-4.02-1.105-5.89.493-6.835l12.45-7.363 1.934 3.02-9.212 23.145 5.246 8.87 1.047-.62c-1.3-2.577-.948-4.496-.01-7.058l6.99-18.858c3.778 4.754 9.312 7.95 15.15 4.496 6.446-3.812 6.383-11.21.974-20.354l-8.6-14.543-1.047.62c2.28 3.856 1.007 5.725-.59 6.67l-27.654 16.356zm30.7-10.574c2.59-1.532 2.882-1.036 5 2.545 2.933 4.957 3.065 10.084-2.388 13.31-5.95 3.52-10.502-.407-15.502-8.23l12.89-7.625zM653.037 405.782l-.86-.947-31.567 11.133c-6.36 2.233-10.936 4.144-13.842 1.422l-.9.818 8.523 9.378.9-.818c-1.462-1.61-2.5-3.608-.937-5.028 1.753-1.593 7.307-3.094 9.666-4.114l11.276 12.41-2.476 5.362c-2.58 5.63-3.436 6.496-7.284 2.643l-.9.818 10.976 12.078.9-.818c-2.553-2.523-.615-6.1.552-8.718l15.973-35.618zm-8.37 4.494l-8.03 17.33-9.944-10.94 17.974-6.39zM709.547 496.833l-.514-1.172-33.47.498c-6.738.09-11.685.445-13.572-3.06l-1.113.488 5.092 11.604 1.112-.488c-.874-1.993-1.22-4.217.713-5.066 2.17-.95 7.91-.605 10.473-.82l6.737 15.354-4.056 4.296c-4.24 4.516-5.327 5.063-7.748.184l-1.113.49 6.556 14.943 1.114-.488c-1.616-3.205 1.36-5.98 3.3-8.088l26.487-28.674zm-9.365 1.593l-13.134 13.87-5.94-13.54 19.074-.33zM727.15 645.89l.15-1.27-29.106-16.532c-5.856-3.336-10.3-5.538-10.15-9.516l-1.21-.144-1.49 12.585 1.208.143c.256-2.16 1.084-4.254 3.18-4.006 2.353.28 7.13 3.487 9.446 4.6l-1.973 16.65-5.673 1.65c-5.942 1.744-7.157 1.664-6.772-3.768l-1.207-.143-1.92 16.206 1.207.143c.23-3.583 4.203-4.466 6.944-5.3l37.365-11.3zm-8.882-3.372l-18.35 5.302 1.738-14.682 16.612 9.38zM332.643 330.605l-1.19.472-.69 33.465c-.147 6.738.03 11.695-3.54 13.457l.45 1.13 11.777-4.678-.45-1.13c-2.02.803-4.256 1.07-5.035-.892-.874-2.2-.325-7.928-.45-10.496l15.585-6.188 4.15 4.205c4.36 4.398 4.87 5.504-.092 7.75l.45 1.13 15.167-6.023-.45-1.13c-3.26 1.5-5.926-1.572-7.965-3.586l-27.717-27.485zm1.26 9.415l13.395 13.618-13.74 5.456.345-19.074z" stroke="#000" stroke-width="1pt" fill="#ffd200"/><path d="M699.547 735.633l-7.9-8.43-.834 1.366c5.645 7.574 2.457 12.302-1.78 19.237-2.07 3.385-3.94 5.094-5.47 4.16l-27.413-16.754c-1.584-.968-2.83-2.855-.394-6.842l-1.038-.633-9.278 15.182 1.037.633c2.437-3.987 4.685-3.738 6.27-2.77l27.413 16.753c1.584.968 2.83 2.855.395 6.842l1.037.635 17.955-29.38z" stroke="#000" stroke-width="1.00001pt" fill="#ffd200"/><path d="M578.87 811.163l3.73-2.708c3.624-2.632 6.1-4.668 12.166 1.29l1.243-.903-6.704-8.58-29.21 21.21 6.084 9.03 1.242-.904c-.803-1.868-1.822-3.817-1.712-5.953-.078-3.265 4.15-5.94 7.878-8.647l20.306 27.965c1.09 1.502 1.517 3.723-2.263 6.468l.714.986 14.398-10.455-.715-.982c-3.78 2.745-5.76 1.65-6.85.15l-20.306-27.965zM555.002 830.755c-.72-1.71-.627-3.97 4.21-6.004l-.47-1.12-14.043 5.9.47 1.123c4.838-2.034 6.517-.518 7.235 1.193l9.944 23.66-34.643-18.834-10.09 4.24.472 1.122c2.914-1.156 3.67-.85 6.366.448l.72.392 12.595 29.973c.72 1.71.63 3.97-4.21 6.004l.472 1.12 14.043-5.9-.47-1.12c-4.84 2.032-6.52.516-7.237-1.195l-11.332-26.963 39.86 21.5.884-.372-14.778-35.165zM525.154 883.158l.29-11.19-1.744.418c-1.41 8.693-6.127 9.886-11.107 11.074l-8.217 1.963c-1.244.298-1.93-.92-2.198-2.04l-3.657-15.314 8.778-2.098c4.17-.995 8-.66 9.16 4.195l1.308-.312-3.48-14.566-1.306.31c1.16 4.856-2.12 6.824-6.292 7.82l-8.777 2.096-3.195-13.383c-.372-1.556.602-2.71 2.16-3.082l10.02-2.393c4.358-1.04 7.126 1.457 8.614 4.654l1.368-.326-2.126-8.9-33.054 7.893.282 1.184c4.545-1.085 5.954.684 6.385 2.49l7.464 31.25c.43 1.804-.03 4.02-4.573 5.104l.283 1.183 33.614-8.03zM477.87 852.56l-1.342.064c-1.868 5.276-5.308.182-14.068.59-12.85.597-21.427 10.414-20.835 23.136.65 14 10.548 21.55 23.014 20.97 6.137-.285 12.573-3.788 16.25-8.764l-1.146-1.228c-4.21 4.552-8.398 6.797-14.663 7.088-10.483.488-15.6-8.95-16.015-17.9-.535-11.507 3.608-20.22 14.157-20.71 7.288-.34 12.178 4.238 14.36 11.184l1.533-.07-1.244-14.36zM388.046 849.397l-1.287-.387c-3.516 4.356-5.07-1.59-13.466-4.115-12.32-3.705-23.67 2.706-27.338 14.903-4.035 13.423 2.794 23.83 14.745 27.423 5.884 1.77 13.12.603 18.24-2.87l-.674-1.538c-5.482 2.896-10.178 3.623-16.184 1.817-10.052-3.024-11.744-13.624-9.163-22.204 3.315-11.032 10.12-17.875 20.23-14.835 6.988 2.102 10.08 8.044 9.83 15.32l1.47.442 3.596-13.955zM345.207 841.417c.726-1.708 2.41-3.217 7.298-1.14l.477-1.118-17.553-7.462-.476 1.12c4.89 2.078 4.97 4.338 4.245 6.046l-12.57 29.567c-.727 1.71-2.41 3.218-7.3 1.14l-.476 1.12 17.552 7.46.476-1.118c-4.888-2.078-4.97-4.34-4.245-6.048l12.57-29.567zM270.177 842.78l9.096-6.523-1.383-1.14c-7.784 4.124-11.58 1.082-15.535-2.17l-6.524-5.367c-.988-.814-.43-2.096.302-2.985l10-12.158 6.97 5.732c3.312 2.723 5.357 5.98 2.185 9.835l1.038.855 9.515-11.566-1.04-.854c-3.17 3.855-6.72 2.427-10.03-.297l-6.97-5.733 8.742-10.626c1.017-1.236 2.525-1.155 3.76-.14l7.958 6.548c3.46 2.845 3.14 6.56 1.487 9.676l1.088.894 5.813-7.067-26.244-21.59-.773.94c3.61 2.967 3.05 5.158 1.87 6.59l-20.41 24.813c-1.18 1.433-3.22 2.405-6.83-.563l-.772.94 26.69 21.955z" stroke="#000" stroke-width="1pt" fill="#ffd200"/><path d="M260.553 785.15c1.382-1.24 3.547-1.894 6.667 1.583l.905-.81-8.505-9.48-33.502 11.056 14.182-32.59-8.462-9.43-.905.81c3.42 3.81 2.536 5.895 1.155 7.134l-23.914 21.456c-1.38 1.24-3.546 1.892-7.05-2.014l-.906.812 10.172 11.337.905-.81c-3.504-3.907-2.622-5.99-1.24-7.23l22.198-19.917-15.28 35.294.597.666 38.048-12.125-23.294 20.9c-1.382 1.24-3.547 1.894-6.668-1.584l-.904.81 11.882 13.244.904-.812c-3.12-3.478-2.236-5.56-.855-6.8l23.87-21.503z" stroke="#000" stroke-width=".99999pt" fill="#ffd200"/><path d="M287.214 848.33c-.87 1.64-2.677 2.998-6.634.898l-.57 1.074 15.547 8.25.57-1.075c-4.128-2.19-4.016-4.45-3.146-6.09l6.78-12.776 3.226 1.568 4.217 24.552 9.102 4.83.57-1.075c-2.454-1.52-3.154-3.34-3.69-6.015l-3.876-19.734c5.703 2.084 12.09 1.924 15.27-4.07 3.51-6.613-.404-12.892-9.79-17.87l-14.924-7.92-.57 1.074c3.957 2.1 3.846 4.36 2.976 5.998l-15.058 28.38zm20.675-25.04c1.408-2.657 1.917-2.387 5.592-.437 5.088 2.7 7.876 7.004 4.906 12.6-3.24 6.107-9.17 5.133-17.518 1.066l7.02-13.23zM406.47 852.102l-1.27-.152-16.56 29.09c-3.34 5.852-5.548 10.294-9.526 10.14l-.144 1.21 12.583 1.502.144-1.208c-2.16-.258-4.253-1.088-4.003-3.185.28-2.352 3.494-7.125 4.608-9.44l16.65 1.988 1.643 5.674c1.74 5.945 1.658 7.16-3.774 6.77l-.143 1.206 16.205 1.936.144-1.208c-3.58-.234-4.46-4.207-5.293-6.95l-11.26-37.36zm-3.38 8.878l5.284 18.356-14.68-1.754 9.395-16.602zM224.807 731.276l-.59-1.135-33.364 2.704c-6.718.536-11.63 1.214-13.745-2.16l-1.08.563 5.846 11.243 1.08-.56c-1.004-1.932-1.497-4.128.377-5.103 2.102-1.092 7.855-1.125 10.396-1.51l7.736 14.878-3.765 4.554c-3.93 4.784-4.98 5.402-7.717.693l-1.078.56 7.528 14.48 1.08-.56c-1.825-3.092.962-6.055 2.76-8.287l24.526-30.348zm-9.24 2.208l-12.19 14.705-6.82-13.117 19.01-1.59zM621.305 824.605c1.235 1.386 1.88 3.554-1.465 6.535l.81.907 13.14-11.708-.81-.908c-3.487 3.107-5.566 2.216-6.8.83l-9.622-10.798 2.59-2.48 24.486 4.585 7.694-6.855-.81-.907c-2.278 1.772-4.228 1.796-6.923 1.368l-19.85-3.23c3.94-4.624 6.01-10.67 1.498-15.734-4.98-5.59-12.23-4.105-20.162 2.962l-12.614 11.238.81.908c3.344-2.98 5.422-2.09 6.657-.703l21.372 23.988zm-16.285-28.092c-2-2.246-1.57-2.63 1.535-5.396 4.302-3.832 9.307-4.948 13.522-.218 4.597 5.16 1.62 10.383-5.095 16.795l-9.962-11.182zM631.662 760.315l-.75 1.037 17.377 28.607c3.49 5.764 6.3 9.852 4.234 13.254l.986.713 7.427-10.268-.985-.713c-1.276 1.763-3.018 3.188-4.728 1.95-1.92-1.387-4.53-6.515-6.012-8.615l9.828-13.585 5.758 1.322c6.04 1.368 7.064 2.028 4.083 6.586l.985.713 9.567-13.223-.986-.713c-1.944 3.016-5.844 1.853-8.645 1.25l-38.123-8.314zm6.116 7.268l18.612 4.302-8.667 11.978-9.945-16.28z" stroke="#000" stroke-width="1pt" fill="#ffd200"/><ellipse fill="#ffd200" transform="translate(2.5 8.3)" fill-rule="evenodd" cx="176.92" rx="9.575" cy="676.04" ry="9.158" stroke="#000" stroke-width="1pt"/><ellipse fill="#ffd200" transform="translate(514.5 20)" fill-rule="evenodd" cx="176.92" rx="9.575" cy="676.04" ry="9.158" stroke="#000" stroke-width="1pt"/></g></g></svg>