<svg xmlns="http://www.w3.org/2000/svg" height="512" width="512"><defs><clipPath id="b"><path fill-opacity=".67" d="M0-15.957h512v512H0z"/></clipPath><clipPath id="a"><path fill-opacity=".67" d="M0 0h512v512H0z"/></clipPath></defs><g clip-path="url(#a)"><path style="width:0" fill="#fff" d="M0 0h512v512H0z"/><g transform="translate(0 15.957)" clip-path="url(#b)"><g fill-rule="evenodd" fill="#fff"><path d="M180.666 356.05l-26.98 8.94 21.104 19.87-28.43-1.83 11.713 26.243-25.545-12.295.526 28.61-18.783-20.91-10.738 26.643-9.147-26.33-20.362 20.597 1.86-27.745-26.878 11.43 12.6-24.926-29.33.513L53.7 366.53l-27.29-10.48 26.983-8.926-21.118-19.87 28.43 1.816-11.7-26.23 25.544 12.295-.527-28.62 18.783 20.908 10.726-26.63 9.16 26.33 20.362-20.61-1.873 27.746 26.893-11.42-12.6 24.928 29.317-.514-21.426 18.33M148.32 171.125l-11.33 8.387 5.584 4.614c13.56-10.482 23.21-20.062 30.753-35.96 1.77 21.22-17.683 68.855-68.73 69.38-54.633-.045-73.59-50.586-71.482-70.275 10.037 18.21 16.16 27.09 31.916 36.57l4.82-4.425-10.67-8.89 13.737-3.573-7.39-12.44 14.39 1.05-1.807-14.486 12.616 7.383 3.948-13.485 9.065 10.86 8.49-10.296 4.624 13.99 11.79-8.204-1.512 14.228 14.133-1.66-6.626 13.154 13.68 4.077z"/></g></g></g></svg>