<svg xmlns="http://www.w3.org/2000/svg" height="512" width="512"><defs><clipPath id="a"><path fill-opacity=".67" d="M135.64 0H631.7v496.06H135.64z"/></clipPath></defs><g fill-rule="evenodd" clip-path="url(#a)" transform="matrix(1 0 0 1 -140 0)" stroke-width="1pt"><path fill="#002170" d="M0 0h992.13v496.06H0z"/><path fill="#ffb20d" d="M0 226.82h992.13v42.42H0z"/><path fill="#fff" d="M292.413 424.352l-31.89-31.944-10.275 43.95-11.634-43.613-30.883 32.92 11.73-43.588-43.2 13.078 31.945-31.883-43.952-10.282 43.613-11.635-32.928-30.88 43.588 11.73L205.456 279l31.883 31.946 10.282-43.952 11.634 43.614 30.874-32.92-11.722 43.588 43.203-13.078-31.953 31.884 43.952 10.282L289.994 362l32.93 30.88-43.59-11.73"/></g></svg>