<svg xmlns="http://www.w3.org/2000/svg" height="512" width="512"><g fill-rule="evenodd" stroke-width="1pt"><path fill="#00006a" d="M.004 0h512v512h-512z"/><path d="M.03.083L242.164 231h49.667L54.926.193.03.082z" fill="#fff"/><path d="M273.37 230.888L36.567.33l-18.43.282 237.798 230.28h17.437z" fill="red"/><path d="M291.466.083L49.334 231H-.333L236.57.193l54.896-.11z" fill="#fff"/><path d="M273.3-.12L36.495 230.44l-18.43.01L255.864-.12H273.3z" fill="red"/><path fill="#fff" d="M122.426.003h46.638v230.772h-46.638z"/><path fill="#fff" d="M.004 92.31h291.48v46.155H.005z"/><path fill="red" d="M132.633.003h26.234v230.772h-26.234z"/><path fill="red" d="M.004 103.854h291.48v23.077H.005z"/><g><path fill="#fff" d="M400.192 199.28l-19.584-14.462-20.305 13.417 7.645-23.175-18.98-15.25 24.305.14 8.57-22.844 7.388 23.26 24.27 1.132-19.735 14.237"/><path fill="red" d="M392.358 187.48l-11.586-8.37-11.84 8.006 4.35-13.655-11.242-8.836 14.28-.07 4.895-13.468 4.47 13.612 14.262.514-11.5 8.484"/><path fill="#fff" d="M325.062 324l-19.584-14.463-20.305 13.417 7.645-23.175-18.98-15.25 24.305.138 8.57-22.843 7.388 23.26 24.27 1.132-19.735 14.237"/><path fill="red" d="M317.228 312.198l-11.586-8.37-11.84 8.007 4.35-13.655-11.242-8.837 14.28-.07 4.895-13.468 4.47 13.612 14.262.514-11.5 8.485"/><g><path fill="#fff" d="M478.817 311.707l-19.584-14.462-20.305 13.417 7.645-23.175-18.98-15.25 24.305.14 8.57-22.844 7.388 23.26 24.27 1.132-19.736 14.237"/><path fill="red" d="M470.983 299.906l-11.586-8.37-11.84 8.007 4.35-13.655-11.242-8.837 14.28-.07 4.895-13.467 4.47 13.612 14.262.514-11.5 8.483"/></g><g><path fill="#fff" d="M398.445 489.124l-19.584-14.462-20.304 13.417 7.645-23.176-18.98-15.25 24.306.14 8.57-22.844 7.388 23.26 24.27 1.132-19.736 14.237"/><path fill="red" d="M390.61 477.323l-11.585-8.37-11.84 8.007 4.35-13.655-11.242-8.837 14.28-.07 4.895-13.468 4.47 13.612 14.262.514-11.5 8.484"/></g></g></g></svg>