<svg xmlns="http://www.w3.org/2000/svg" height="512" width="512"><g fill-rule="evenodd" stroke-width="1pt"><path fill="#00006a" d="M.004 0h512v512h-512z"/><path d="M0 .002l241.878 230.776h49.615L54.837.11 0 .003z" fill="#fff"/><path d="M273.368 230.766L36.548-.002 18.12.28 255.93 230.77h17.438z" fill="red"/><path d="M291.497.002L49.62 230.778H.003L236.66.11l54.837-.108z" fill="#fff"/><path d="M273.316.003L36.59 230.77l-18.424.01L255.884.002h17.432z" fill="red"/><path fill="#fff" d="M122.426.003h46.638v230.772h-46.638z"/><path fill="#fff" d="M.004 92.31h291.48v46.155H.005z"/><path fill="red" d="M132.633.003h26.234v230.772h-26.234z"/><path fill="red" d="M.004 103.854h291.48v23.077H.005z"/><g><path fill="#fff" d="M400.008 199.324l-19.577-14.47-20.295 13.425 7.642-23.187-18.972-15.257 24.295.14 8.567-22.855 7.384 23.272 24.26 1.133-19.727 14.243"/><path fill="red" d="M392.157 187.61l-11.58-8.375-11.837 8.007 4.35-13.66-11.237-8.844 14.273-.067 4.893-13.47 4.468 13.618 14.254.517-11.494 8.485"/><path fill="#fff" d="M324.878 324.042l-19.577-14.47-20.296 13.425 7.643-23.186-18.973-15.256 24.296.14 8.566-22.855 7.385 23.27 24.26 1.133-19.727 14.243"/><path fill="red" d="M317.026 312.328l-11.58-8.375-11.836 8.007 4.35-13.66-11.238-8.843 14.274-.068 4.892-13.473 4.47 13.62 14.254.516-11.494 8.485"/><g><path fill="#fff" d="M478.633 311.75l-19.576-14.47-20.297 13.425 7.642-23.186-18.972-15.257 24.295.138 8.567-22.852 7.384 23.27 24.26 1.133-19.727 14.245"/><path fill="red" d="M470.782 300.036l-11.58-8.375-11.836 8.008 4.35-13.66-11.238-8.843 14.274-.067 4.892-13.472 4.47 13.62 14.253.515-11.494 8.487"/></g><g><path fill="#fff" d="M398.26 489.168l-19.576-14.47-20.296 13.424 7.642-23.185-18.973-15.257 24.296.138 8.566-22.853 7.384 23.27 24.26 1.134-19.728 14.242"/><path fill="red" d="M390.41 477.454l-11.58-8.375-11.837 8.006 4.35-13.66-11.238-8.844 14.274-.067 4.892-13.472 4.468 13.62 14.255.516-11.494 8.484"/></g></g></g></svg>