<svg xmlns="http://www.w3.org/2000/svg" height="512" width="512" version="1"><defs><clipPath id="a"><path fill-opacity=".67" d="M0 0h512v512H0z"/></clipPath></defs><g clip-path="url(#a)"><path fill-rule="evenodd" fill="#ef2d29" d="M-23.298-21.61h554.71v553.02h-554.71z"/><path fill-rule="evenodd" fill="#009025" d="M164.57 341.33h376.55v207.56H164.57z"/><path fill-rule="evenodd" fill="#fff" d="M164.57-19.415h376.55v190.08H164.57z"/><g stroke="#ef2d28"><g fill-rule="evenodd" fill="#fff" transform="matrix(.2 0 0 .2 109.2 -5.3)"><rect rx="11.491" ry="12.053" height="85.039" width="138.19" y="467.72" x="17.717" stroke-width="1.43"/><rect rx="10.901" ry="11.049" height="77.953" width="131.1" y="471.26" x="21.26" stroke-width="1pt"/><path d="M64.966 396.07l9.723.443.44 5.745 7.956 5.303 6.187-6.628 7.513 5.303-7.07 5.746 1.767 7.956 8.838-.442V430.1l-7.07-.44-3.535 6.628 7.955 7.513-6.187 6.188-6.63-6.63-9.722 2.653.443 9.724-10.607.884-1.326-9.28-8.84-4.863-4.86 6.63-7.514-4.862 4.42-7.513-5.304-4.862H34.03l-.443-13.7 7.513.884 5.304-7.955-6.187-6.187 7.955-7.07 5.745 5.744 9.723-1.768 1.326-5.746z" transform="matrix(.7 0 0 .6 38 260.7)" stroke-width="1pt"/><ellipse transform="matrix(.7 0 0 .7 38.8 209.6)" cx="68.944" rx="11.049" cy="426.78" ry="9.944" stroke-width="1pt"/><g stroke-width="1pt"><path d="M38.976 474.8l-10.63 10.63M46.063 474.8l-10.63 10.63M53.15 474.8l-10.63 10.63M60.236 474.8l-10.63 10.63M67.322 474.8l-10.63 10.63M74.41 474.8l-10.63 10.63M81.496 474.8l-10.63 10.63M88.582 474.8l-10.63 10.63M95.67 474.8l-10.63 10.63M102.755 474.8l-10.63 10.63M109.842 474.8l-10.63 10.63M116.93 474.8l-10.63 10.63M88.582 474.8l-10.63 10.63M124.015 474.8l-10.63 10.63M131.102 474.8l-10.63 10.63M138.19 474.8l-10.63 10.63M145.276 474.8l-10.63 10.63M134.644 474.8l10.63 10.63M127.564 474.8l10.63 10.63M120.474 474.8l10.63 10.63M113.384 474.8l10.63 10.63M106.304 474.8l10.63 10.63M99.214 474.8l10.63 10.63M92.124 474.8l10.63 10.63M85.044 474.8l10.63 10.63M77.954 474.8l10.63 10.63M70.864 474.8l10.63 10.63M63.784 474.8l10.63 10.63M56.693 474.8l10.63 10.63M85.044 474.8l10.63 10.63M49.607 474.8l10.63 10.63M42.52 474.8l10.63 10.63M35.434 474.8l10.63 10.63M28.347 474.8l10.63 10.63"/></g><g stroke-width="1pt"><path d="M38.976 535.036l-10.63 10.63M46.063 535.036l-10.63 10.63M53.15 535.036l-10.63 10.63M60.236 535.036l-10.63 10.63M67.322 535.036l-10.63 10.63M74.41 535.036l-10.63 10.63M81.496 535.036l-10.63 10.63M88.582 535.036l-10.63 10.63M95.67 535.036l-10.63 10.63M102.755 535.036l-10.63 10.63M109.842 535.036l-10.63 10.63M116.93 535.036l-10.63 10.63M88.582 535.036l-10.63 10.63M124.015 535.036l-10.63 10.63M131.102 535.036l-10.63 10.63M138.19 535.036l-10.63 10.63M145.276 535.036l-10.63 10.63M134.644 535.036l10.63 10.63M127.564 535.036l10.63 10.63M120.474 535.036l10.63 10.63M113.384 535.036l10.63 10.63M106.304 535.036l10.63 10.63M99.214 535.036l10.63 10.63M92.124 535.036l10.63 10.63M85.044 535.036l10.63 10.63M77.954 535.036l10.63 10.63M70.864 535.036l10.63 10.63M63.784 535.036l10.63 10.63M56.693 535.036l10.63 10.63M85.044 535.036l10.63 10.63M49.607 535.036l10.63 10.63M42.52 535.036l10.63 10.63M35.434 535.036l10.63 10.63M28.347 535.036l10.63 10.63"/></g></g><g fill-rule="evenodd" fill="#fff" transform="matrix(.2 0 0 .2 18.6 -6)"><rect rx="11.491" ry="12.053" height="85.039" width="138.19" y="467.72" x="17.717" stroke-width="1.43"/><rect rx="10.901" ry="11.049" height="77.953" width="131.1" y="471.26" x="21.26" stroke-width="1pt"/><path d="M64.966 396.07l9.723.443.44 5.745 7.956 5.303 6.187-6.628 7.513 5.303-7.07 5.746 1.767 7.956 8.838-.442V430.1l-7.07-.44-3.535 6.628 7.955 7.513-6.187 6.188-6.63-6.63-9.722 2.653.443 9.724-10.607.884-1.326-9.28-8.84-4.863-4.86 6.63-7.514-4.862 4.42-7.513-5.304-4.862H34.03l-.443-13.7 7.513.884 5.304-7.955-6.187-6.187 7.955-7.07 5.745 5.744 9.723-1.768 1.326-5.746z" transform="matrix(.7 0 0 .6 38 260.7)" stroke-width="1pt"/><ellipse transform="matrix(.7 0 0 .7 38.8 209.6)" cx="68.944" rx="11.049" cy="426.78" ry="9.944" stroke-width="1pt"/><g stroke-width="1pt"><path d="M38.976 474.8l-10.63 10.63M46.063 474.8l-10.63 10.63M53.15 474.8l-10.63 10.63M60.236 474.8l-10.63 10.63M67.322 474.8l-10.63 10.63M74.41 474.8l-10.63 10.63M81.496 474.8l-10.63 10.63M88.582 474.8l-10.63 10.63M95.67 474.8l-10.63 10.63M102.755 474.8l-10.63 10.63M109.842 474.8l-10.63 10.63M116.93 474.8l-10.63 10.63M88.582 474.8l-10.63 10.63M124.015 474.8l-10.63 10.63M131.102 474.8l-10.63 10.63M138.19 474.8l-10.63 10.63M145.276 474.8l-10.63 10.63M134.644 474.8l10.63 10.63M127.564 474.8l10.63 10.63M120.474 474.8l10.63 10.63M113.384 474.8l10.63 10.63M106.304 474.8l10.63 10.63M99.214 474.8l10.63 10.63M92.124 474.8l10.63 10.63M85.044 474.8l10.63 10.63M77.954 474.8l10.63 10.63M70.864 474.8l10.63 10.63M63.784 474.8l10.63 10.63M56.693 474.8l10.63 10.63M85.044 474.8l10.63 10.63M49.607 474.8l10.63 10.63M42.52 474.8l10.63 10.63M35.434 474.8l10.63 10.63M28.347 474.8l10.63 10.63"/></g><g stroke-width="1pt"><path d="M38.976 535.036l-10.63 10.63M46.063 535.036l-10.63 10.63M53.15 535.036l-10.63 10.63M60.236 535.036l-10.63 10.63M67.322 535.036l-10.63 10.63M74.41 535.036l-10.63 10.63M81.496 535.036l-10.63 10.63M88.582 535.036l-10.63 10.63M95.67 535.036l-10.63 10.63M102.755 535.036l-10.63 10.63M109.842 535.036l-10.63 10.63M116.93 535.036l-10.63 10.63M88.582 535.036l-10.63 10.63M124.015 535.036l-10.63 10.63M131.102 535.036l-10.63 10.63M138.19 535.036l-10.63 10.63M145.276 535.036l-10.63 10.63M134.644 535.036l10.63 10.63M127.564 535.036l10.63 10.63M120.474 535.036l10.63 10.63M113.384 535.036l10.63 10.63M106.304 535.036l10.63 10.63M99.214 535.036l10.63 10.63M92.124 535.036l10.63 10.63M85.044 535.036l10.63 10.63M77.954 535.036l10.63 10.63M70.864 535.036l10.63 10.63M63.784 535.036l10.63 10.63M56.693 535.036l10.63 10.63M85.044 535.036l10.63 10.63M49.607 535.036l10.63 10.63M42.52 535.036l10.63 10.63M35.434 535.036l10.63 10.63M28.347 535.036l10.63 10.63"/></g></g><path d="M538.58 531.5c1.717 166.56 24.803 201.97 3.543 201.97s-31.89-92.07-31.89-205.51 14.173-205.51 35.433-205.51-8.913 31.91-7.086 209.06z" fill-rule="evenodd" transform="matrix(-.3 -.1 -.2 .2 339.9 68.2)" stroke-width="1pt" fill="#fff"/><path d="M545.67 779.53l-60.236 17.716c56.693 60.236 120.47 85.04 138.19 74.41 17.717-10.63-31.89-35.434-77.953-92.126z" fill-rule="evenodd" stroke-width="1.25" fill="#fff" transform="matrix(-.2 0 0 .2 142.6 -5.3)"/><path d="M547.27 786.9l-50.926 14.74c56.693 60.236 112.77 77.385 127.28 70.015 14.59-7.37-30.287-28.063-76.35-84.755z" fill-rule="evenodd" transform="matrix(-.2 0 0 .2 140.2 -.1)" stroke-width="1.292" fill="#fff"/><path d="M353.13 634.23c.187 1.273.748 7.068 1.25 9.375 0 3.186.288 5.632.625 8.125.796 2.177.66 4.198 3.125 5 1.694 2.632 2.76 3.314 5 4.376 1.527 1.323 3.84 2.642 6.25 3.75 2.5 1.07 4.77 1.218 7.5.625 2.19-1.525 3.804-3.1 5.625-4.374.43-1.973.822-4.903 1.25-6.875-.674 2.025-1.147 5.266-1.25 8.126.24 3.12 1.265 4.48 2.5 6.875" transform="matrix(-.1 0 0 .1 120.8 27.9)" stroke-width="1.781" fill="none"/><path d="M389.38 681.73l.625-.625c-1.484 1.484-.878.776 2.5-1.25 2.426-1.246 5.015-1.908 8.125-2.5h8.75c3.405 0 5.696.51 8.125 1.25 1.762 1.762 4.393 2.763 6.25 4.375 1.905 1.295 2.722 2.83 3.75 5 1.7 1.7 2.803 4.326 4.375 5.625.704 2.87 2.14 2.773 3.125 5-2.948.227-5.31.63-6.875 2.5-2.597 1.344 2.18-1.317 3.125-2.5 2.046-.618 2.576-1.25 5.625-1.25 2.85-.904 4.58.737 7.5 1.25 1.705.987 2.178 1.25 4.376 1.25" transform="matrix(-.1 0 0 .1 122.6 27.2)" stroke-width="1.781" fill="none"/><path d="M438.13 724.86c1.273.075 7.083 1.146 9.376 0 2.552-.696 4.068-2.04 5.625-4.375.768-1.69 0 2.998 0 5 .284 3.68 1.367 3.714 3.126 6.25 1.814 1.163 3.725 2.8 5.625 3.75 1.577 1.366 3.514 2.28 5.626 3.125 1.896.898 4.11 1.813 5.625 3.125 2.09 1.493 1.89 3.278 3.126 5.625-.235 3.057-.733 4.79-2.5 6.25-.738 2.113-2.395 4.205-3.75 5.625-1.545 2.87-3.256 4.224.625 5 2.133.914 3.328.197 5.626 0" transform="matrix(-.1 0 0 .1 124.7 25.8)" stroke-width="1.781" fill="none"/><path d="M480.63 771.73c1.536-.39 6.983-2.213 9.375-3.125h8.75c3.39.26 4.037 1.256 6.876 2.5 1.833 1.87 3.09 3.162 5.626 4.376 1.34 1.734 3.953 4.678 5 6.876.745 2.133 1.25 5.018 1.25 8.125-.044 3.65-1.002 4.272-1.25 7.5-.7 2.685-1.84 5.144-3.75 7.5-.265.794-.457.987-1.25 1.25" transform="matrix(-.1 0 0 .1 125.1 25.4)" stroke-width="1.781" fill="none"/><path d="M538.13 817.98c.374 0 1.2 2.018 2.5 3.75 2.828 2.906 3.192 3.125 7.5 3.125 3.884-.143 3.522-1.532 6.25-2.5 1.29-2.008 2.896-3.6 4.375-6.25 1.006-1.634 1.89-4.13 3.125-5.625 1.14-1.854 2.563-3.254 3.75-5 1.172-.502 1.618-.984 3.126-1.25-3.6.578-3.915 1.867-6.25 3.75-1.095 1.78-2.182 3.633-3.126 5.625-.36 2.673-1.21 4.78-1.25 8.125 0 3.457.017 5.872 1.25 8.75 1.473 1.545 2.563 3.143 4.375 4.376 1.44 1.405 3.244 3.336 4.376 5 1.96 1.206 3.386 2.19 5.626 3.75 1.884 1.102 3.915 2.234 6.875 2.5 3.67-.262 4.756-1.297 7.5-2.5 2.33-1.713 4.164-2.838 6.25-4.375 1.63-1.14 3.29-3.402 4.376-5 3.382-.845 5.53-.507 7.5 1.25 1.718 1.168 3.207 2.658 4.375 4.376 1.02.51 2.73 1.99 3.75 2.5" transform="matrix(-.1 0 0 .1 107.4 46)" stroke-width="2.379" fill="none"/><path d="M503.76 836.11c-.802.334-3.717 2.367-5 3.125-.8 2.63-2.077 4.07-2.5 6.875-.677 2.71-.625 5.692-.625 8.75.685 3.194 2.015 5.557 3.125 8.125 1.974 1.342 2.967 2.33 5.625 3.75 2.494.337 4.94.625 8.126.625 1.905.635 5.616.942 7.5 0 2.784-.376 4.855-1.507 6.876-2.5 2.306-1.307 3.728-2.542 6.25-3.75 1.225-1.8 3.13-3.46 5-5.625 1.556-2.105 2.7-3.286 3.75-5.625-.924 2.67-2.327 5-3.125 7.5-1.42 2.66-2.247 3.604-2.5 6.875-.87 2.613-.624 5.76-.624 8.75.274 2.03.418 5.837 1.25 7.5v1.875" transform="matrix(-.1 0 0 .1 109.3 26.8)" stroke-width="1.91" fill="none"/><path d="M34.348 154.546v.125c0-.336-.008-.165.125.5.236.293.79.375 1.25.25.404-.333.392-.586 1.125-.75.708.052.978.257 1.375.5.47.236.688.355 1 .876.155.424.242.71-.25.875-.39.278-.855.43-1.375.5-.577 0-.994-.067-1.25.25-.397.412-.375.656-.375 1.376-.133.222-.16.88-.25 1.125-.347.166-.55.25-1.125.25-.135-.385-.285-1.083-.375-1.5-.098-.45-.128-1.075-.375-1.374-.234-.343-.532-.64-.875-.875-.153-.214-.445-.392-.75-.5.49.25.56.522.625 1.126-.43.216-.546.367-1.25.375-.692-.057-.86-.233-1.125-.624-.048.627-.25.837-.375 1.375-.257.38-.366.767-.625 1.25.11.603.347.634.375 1.376.162.487.145.957.5 1.25.158.194.277.232.625.25-.724 0-1.145-.078-1.625-.375-.37-.227-.65-.51-1-.75-.443-.32-.99-.616-1.5-.75-.578 0-.994-.067-1.25.25-.354.254-.592.69-.75 1.25-.116.65-.16 1.082.125 1.5.21.483.26.67 0 1.25-.29.408-.724.456-1.375.626-.476-.025-.934-.134-1.25-.25" stroke-width=".25" fill="none"/><g fill-rule="evenodd" stroke-width="1pt" transform="matrix(-.2 0 0 .2 142.6 -5.3)"><path d="M531.5 359.64c0-165.27 7.937-299.41 17.717-299.41 9.78 0 17.716 134.13 17.716 299.41H531.5z" transform="matrix(1.4 -.7 .5 .9 -716.8 541.1)" fill="#fff"/><path d="M531.5 359.64c0-165.27 7.937-299.41 17.717-299.41 9.78 0 17.716 134.13 17.716 299.41" transform="matrix(1.1 -.6 .4 .9 -554.8 471.8)" fill="#fff"/><path d="M563.39 301.18c.19 18.908 0 40.188 0 60.236h-28.347c0-20.048-.19-41.328 0-60.236h28.347z" transform="matrix(1.4 -.7 .5 .9 -716.7 541.4)" fill="#fff"/><path d="M559.84 304.72c.19 18.908 0 33.102 0 53.15h-21.26c0-20.048-.19-34.242 0-53.15h21.26z" transform="matrix(1.4 -.7 .5 .9 -716.7 541.4)" fill="#fff"/><path transform="matrix(1.4 -.7 .5 .9 -716.7 541.4)" fill="#fff" d="M542.13 311.81h14.173v38.976H542.13zM542.13 311.81l14.173 38.976M542.13 350.79l14.173-38.976M542.13 113.39h14.173"/><ellipse fill="#ef0000" transform="matrix(1.6 .5 -.4 1.6 -734.9 -170.8)" cx="545.67" rx="3.543" cy="92.126" ry="3.543"/></g><g><path d="M538.58 531.5c1.717 166.56 24.803 201.97 3.543 201.97s-31.89-92.07-31.89-205.51 14.173-205.51 35.433-205.51-8.913 31.91-7.086 209.06z" fill-rule="evenodd" transform="matrix(.3 -.1 .2 .2 -178.7 67.6)" stroke-width="1pt" fill="#fff"/><path d="M127.734 149.906l-12.047 3.543c11.338 12.046 24.094 17.007 27.638 14.88 3.543-2.125-6.378-7.086-15.59-18.424z" fill-rule="evenodd" stroke-width=".25" fill="#fff"/><path d="M547.27 786.9l-50.926 14.74c56.693 60.236 112.77 77.385 127.28 70.015 14.59-7.37-30.287-28.063-76.35-84.755z" fill-rule="evenodd" transform="matrix(.2 0 0 .2 21.1 -.7)" stroke-width="1.292" fill="#fff"/><path d="M353.13 634.23c.187 1.273.748 7.068 1.25 9.375 0 3.186.288 5.632.625 8.125.796 2.177.66 4.198 3.125 5 1.694 2.632 2.76 3.314 5 4.376 1.527 1.323 3.84 2.642 6.25 3.75 2.5 1.07 4.77 1.218 7.5.625 2.19-1.525 3.804-3.1 5.625-4.374.43-1.973.822-4.903 1.25-6.875-.674 2.025-1.147 5.266-1.25 8.126.24 3.12 1.265 4.48 2.5 6.875" transform="matrix(.1 0 0 .1 40.5 27.3)" stroke-width="1.781" fill="none"/><path d="M389.38 681.73l.625-.625c-1.484 1.484-.878.776 2.5-1.25 2.426-1.246 5.015-1.908 8.125-2.5h8.75c3.405 0 5.696.51 8.125 1.25 1.762 1.762 4.393 2.763 6.25 4.375 1.905 1.295 2.722 2.83 3.75 5 1.7 1.7 2.803 4.326 4.375 5.625.704 2.87 2.14 2.773 3.125 5-2.948.227-5.31.63-6.875 2.5-2.597 1.344 2.18-1.317 3.125-2.5 2.046-.618 2.576-1.25 5.625-1.25 2.85-.904 4.58.737 7.5 1.25 1.705.987 2.178 1.25 4.376 1.25" transform="matrix(.1 0 0 .1 38.7 26.6)" stroke-width="1.781" fill="none"/><path d="M438.13 724.86c1.273.075 7.083 1.146 9.376 0 2.552-.696 4.068-2.04 5.625-4.375.768-1.69 0 2.998 0 5 .284 3.68 1.367 3.714 3.126 6.25 1.814 1.163 3.725 2.8 5.625 3.75 1.577 1.366 3.514 2.28 5.626 3.125 1.896.898 4.11 1.813 5.625 3.125 2.09 1.493 1.89 3.278 3.126 5.625-.235 3.057-.733 4.79-2.5 6.25-.738 2.113-2.395 4.205-3.75 5.625-1.545 2.87-3.256 4.224.625 5 2.133.914 3.328.197 5.626 0" transform="matrix(.1 0 0 .1 36.6 25.1)" stroke-width="1.781" fill="none"/><path d="M480.63 771.73c1.536-.39 6.983-2.213 9.375-3.125h8.75c3.39.26 4.037 1.256 6.876 2.5 1.833 1.87 3.09 3.162 5.626 4.376 1.34 1.734 3.953 4.678 5 6.876.745 2.133 1.25 5.018 1.25 8.125-.044 3.65-1.002 4.272-1.25 7.5-.7 2.685-1.84 5.144-3.75 7.5-.265.794-.457.987-1.25 1.25" transform="matrix(.1 0 0 .1 36.2 24.8)" stroke-width="1.781" fill="none"/><path d="M538.13 817.98c.374 0 1.2 2.018 2.5 3.75 2.828 2.906 3.192 3.125 7.5 3.125 3.884-.143 3.522-1.532 6.25-2.5 1.29-2.008 2.896-3.6 4.375-6.25 1.006-1.634 1.89-4.13 3.125-5.625 1.14-1.854 2.563-3.254 3.75-5 1.172-.502 1.618-.984 3.126-1.25-3.6.578-3.915 1.867-6.25 3.75-1.095 1.78-2.182 3.633-3.126 5.625-.36 2.673-1.21 4.78-1.25 8.125 0 3.457.017 5.872 1.25 8.75 1.473 1.545 2.563 3.143 4.375 4.376 1.44 1.405 3.244 3.336 4.376 5 1.96 1.206 3.386 2.19 5.626 3.75 1.884 1.102 3.915 2.234 6.875 2.5 3.67-.262 4.756-1.297 7.5-2.5 2.33-1.713 4.164-2.838 6.25-4.375 1.63-1.14 3.29-3.402 4.376-5 3.382-.845 5.53-.507 7.5 1.25 1.718 1.168 3.207 2.658 4.375 4.376 1.02.51 2.73 1.99 3.75 2.5" transform="matrix(.1 0 0 .1 53.8 45.4)" stroke-width="2.379" fill="none"/><path d="M503.76 836.11c-.802.334-3.717 2.367-5 3.125-.8 2.63-2.077 4.07-2.5 6.875-.677 2.71-.625 5.692-.625 8.75.685 3.194 2.015 5.557 3.125 8.125 1.974 1.342 2.967 2.33 5.625 3.75 2.494.337 4.94.625 8.126.625 1.905.635 5.616.942 7.5 0 2.784-.376 4.855-1.507 6.876-2.5 2.306-1.307 3.728-2.542 6.25-3.75 1.225-1.8 3.13-3.46 5-5.625 1.556-2.105 2.7-3.286 3.75-5.625-.924 2.67-2.327 5-3.125 7.5-1.42 2.66-2.247 3.604-2.5 6.875-.87 2.613-.624 5.76-.624 8.75.274 2.03.418 5.837 1.25 7.5v1.875" transform="matrix(.1 0 0 .1 51.9 26.2)" stroke-width="1.91" fill="none"/><path d="M126.852 153.846v.125c0-.336.008-.165-.125.5-.236.293-.79.375-1.25.25-.404-.333-.392-.586-1.125-.75-.708.052-.978.257-1.375.5-.47.236-.688.355-1 .876-.155.424-.242.71.25.875.39.278.855.43 1.375.5.577 0 .994-.067 1.25.25.397.412.375.656.375 1.376.133.222.16.88.25 1.125.347.166.55.25 1.125.25.135-.385.285-1.083.375-1.5.098-.45.128-1.075.375-1.374.234-.343.532-.64.875-.875.153-.214.445-.392.75-.5-.49.25-.56.522-.625 1.126.43.216.546.367 1.25.375.692-.057.86-.233 1.125-.624.048.627.25.837.375 1.375.257.38.366.767.625 1.25-.11.603-.347.634-.375 1.376-.162.487-.145.957-.5 1.25-.158.194-.277.232-.625.25.724 0 1.145-.078 1.625-.375.37-.227.65-.51 1-.75.443-.32.99-.616 1.5-.75.578 0 .994-.067 1.25.25.354.254.592.69.75 1.25.116.65.16 1.082-.125 1.5-.21.483-.26.67 0 1.25.29.408.724.456 1.375.626.476-.025.934-.134 1.25-.25" stroke-width=".25" fill="none"/></g><g stroke-width="1pt" fill-rule="evenodd" transform="matrix(.2 0 0 .2 18.6 -6)"><path d="M531.5 359.64c0-165.27 7.937-299.41 17.717-299.41 9.78 0 17.716 134.13 17.716 299.41H531.5z" transform="matrix(1.4 -.7 .5 .9 -716.8 541.1)" fill="#fff"/><path d="M531.5 359.64c0-165.27 7.937-299.41 17.717-299.41 9.78 0 17.716 134.13 17.716 299.41" transform="matrix(1.1 -.6 .4 .9 -554.8 471.8)" fill="#fff"/><path d="M563.39 301.18c.19 18.908 0 40.188 0 60.236h-28.347c0-20.048-.19-41.328 0-60.236h28.347z" transform="matrix(1.4 -.7 .5 .9 -716.7 541.4)" fill="#fff"/><path d="M559.84 304.72c.19 18.908 0 33.102 0 53.15h-21.26c0-20.048-.19-34.242 0-53.15h21.26z" transform="matrix(1.4 -.7 .5 .9 -716.7 541.4)" fill="#fff"/><path transform="matrix(1.4 -.7 .5 .9 -716.7 541.4)" fill="#fff" d="M542.13 311.81h14.173v38.976H542.13zM542.13 311.81l14.173 38.976M542.13 350.79l14.173-38.976M542.13 113.39h14.173"/><ellipse fill="#ef0000" transform="matrix(1.6 .5 -.4 1.6 -734.9 -170.8)" cx="545.67" rx="3.543" cy="92.126" ry="3.543"/></g><g fill-rule="evenodd" fill="#fff" transform="matrix(.2 0 0 .2 18.6 -6)"><path d="M305.61 396.85c0 124.02.49 170.76-5.62 177.17-5.79 6.857-167.12 0-167.12 35.433s132.87 70.867 172.74 70.866c53.15 0 79.723-35.434 79.723-106.3V396.85H305.61z" transform="matrix(1.3 0 0 1 -141.7 0)" stroke-width="1pt"/><path d="M265.75 396.85v17.717c35.433 5.906 70.866 5.906 106.3 0V396.85c-35.433 5.906-70.866 5.906-106.3 0z" transform="translate(0 35.4)" stroke-width="1pt"/><path d="M265.75 396.85v17.717c35.433 5.906 70.866 5.906 106.3 0V396.85c-35.433 5.906-70.866 5.906-106.3 0z" stroke-width="1pt"/><path d="M265.75 396.85v17.717c35.433 5.906 70.866 5.906 106.3 0V396.85c-35.433 5.906-70.866 5.906-106.3 0z" transform="translate(0 17.7)" stroke-width="1pt"/><path d="M265.75 396.85v17.717c35.433 5.906 70.866 5.906 106.3 0V396.85c-35.433 5.906-70.866 5.906-106.3 0z" transform="translate(0 53.2)" stroke-width="1pt"/><ellipse transform="matrix(.5 0 0 .1 130.5 394.3)" cx="256.89" rx="8.858" cy="210.83" ry="26.575" stroke-width="4.463"/><ellipse transform="matrix(.5 0 0 .1 130.5 391.1)" cx="292.32" rx="8.858" cy="246.26" ry="26.575" stroke-width="4.463"/><ellipse transform="matrix(.5 0 0 .1 130.5 390.5)" cx="327.76" rx="8.858" cy="263.98" ry="26.575" stroke-width="4.463"/><ellipse transform="matrix(.5 0 0 .1 130.5 390.5)" cx="363.19" rx="8.858" cy="263.98" ry="26.575" stroke-width="4.463"/><ellipse transform="matrix(.5 0 0 .1 130.5 391.1)" cx="398.62" rx="8.858" cy="246.26" ry="26.575" stroke-width="4.463"/><ellipse transform="matrix(.5 0 0 .1 130.5 394.3)" cx="434.06" rx="8.858" cy="210.83" ry="26.575" stroke-width="4.463"/><path d="M265.75 485.43l106.3 95.67M276.38 485.43l95.67 85.04M290.55 488.98l81.496 70.866M301.18 488.98l70.866 60.237M311.81 488.98l60.236 49.607M322.44 488.98l49.606 38.977M333.07 488.98l38.976 28.347M343.7 488.98l28.346 21.26M354.33 488.98l17.716 14.174M364.96 488.98l7.086 7.087M265.75 496.06l106.3 95.67M372.05 485.43l-116.93 106.3M361.42 485.43l-102.76 92.126M347.25 488.98l-81.496 70.866M336.62 488.98l-70.866 60.237M325.99 488.98l-60.236 49.607M315.36 488.98l-49.606 38.977M304.73 488.98l-38.976 28.347M294.1 488.98l-28.346 21.26M283.47 488.98l-17.716 14.174M272.84 488.98l-7.086 7.087M372.05 496.06l-116.93 106.3M372.05 506.69l-116.93 106.3M372.05 517.32l-116.93 106.3M372.05 527.95l-116.93 106.3M372.05 538.58l-116.93 106.3M372.05 549.21l-116.93 106.3M372.05 559.84l-116.93 106.3M372.05 570.47l-116.93 106.3M372.05 581.1l-109.84 99.21M372.05 591.73l-99.212 88.583M368.5 605.9l-77.953 70.866M364.96 620.08l-63.78 56.693M357.87 637.79l-31.89 28.346M265.75 506.69l102.76 92.126M265.747 517.327l102.76 92.126M265.747 527.957l99.213 88.583M265.747 538.587l99.213 88.583M265.753 549.213l95.67 85.04M262.204 556.303l95.67 85.04M262.204 566.933l88.583 77.953M258.663 574.013l88.583 77.953M255.114 581.103l85.04 74.41M255.113 591.73l81.496 70.865M255.113 602.36l70.866 63.78" stroke-width="1pt"/><path d="M265.75 396.85v17.717c35.433 5.906 70.866 5.906 106.3 0V396.85c-35.433 5.906-70.866 5.906-106.3 0z" transform="translate(0 70.9)" stroke-width="1pt"/><path d="M255.114 612.99l63.78 56.692M255.114 623.62l56.693 49.606M255.113 634.25l49.606 42.52M255.114 644.88l35.434 31.89M255.114 655.51l28.347 24.804M255.113 666.14l17.716 14.173" stroke-width="1pt"/><ellipse transform="matrix(.5 0 0 .1 130.5 447.5)" cx="256.89" rx="8.858" cy="210.83" ry="26.575" stroke-width="4.463"/><ellipse transform="matrix(.5 0 0 .1 130.5 444.3)" cx="292.32" rx="8.858" cy="246.26" ry="26.575" stroke-width="4.463"/><ellipse transform="matrix(.5 0 0 .1 130.5 443.6)" cx="327.76" rx="8.858" cy="263.98" ry="26.575" stroke-width="4.463"/><ellipse transform="matrix(.5 0 0 .1 130.5 443.6)" cx="363.19" rx="8.858" cy="263.98" ry="26.575" stroke-width="4.463"/><ellipse transform="matrix(.5 0 0 .1 130.5 444.3)" cx="398.62" rx="8.858" cy="246.26" ry="26.575" stroke-width="4.463"/><ellipse transform="matrix(.5 0 0 .1 130.5 447.5)" cx="434.06" rx="8.858" cy="210.83" ry="26.575" stroke-width="4.463"/><path d="M113.39 651.97l127.55-74.41M106.303 648.427l120.47-70.87M102.76 641.34l109.84-63.78M99.217 634.254l95.67-56.693M92.127 627.16l88.583-49.606M95.667 616.537l60.236-35.433M92.127 609.454l46.063-28.346M92.124 598.817l31.89-17.717M124.013 655.507l120.47-70.86M134.647 659.054l113.38-67.32M145.28 662.6l106.3-63.78M155.91 666.144l88.583-53.15M170.083 666.136l77.952-46.063M180.713 669.68l67.323-38.976M191.336 673.227l53.15-31.89M205.51 673.233l42.52-24.803M219.68 676.777l28.347-17.717M233.863 676.773l17.717-10.63" stroke-width="1pt"/><path d="M265.75 396.85v17.717c35.433 5.906 70.866 5.906 106.3 0V396.85c-35.433 5.906-70.866 5.906-106.3 0z" transform="rotate(90 173.6 481.9)" stroke-width="1pt"/><path d="M49.61 623.624l42.52-35.433M49.61 598.8l42.52 42.52" stroke-width="1pt"/><path d="M260.15 387.99l5.595 26.575c35.433 5.906 65.27 5.906 100.7 0l11.19-26.575c-35.433 5.906-82.056 5.906-117.49 0z" transform="matrix(0 .6 -.8 0 423.8 416.3)" stroke-width="1pt"/><path d="M258.66 350.79v-17.865c-10.63.15-17.716-10.48-17.717-21.26l-35.432.15c0 10.63-7.086 21.26-17.716 21.26v17.715h70.866z" transform="matrix(1.5 0 0 1 -15.6 53.1)" stroke-width="1pt"/><path stroke-width="1.379" d="M296.09 343.7h45.506v21.26H296.09zM299.88 322.44h37.922v21.26H299.88zM299.88 301.18h37.922v21.26H299.88zM303.67 272.83h30.337v28.346H303.67z"/><path stroke-width="1.438" d="M302.36 248.03h32.953v24.803H302.36z"/><ellipse transform="translate(75.4 63.8)" cx="237.4" rx="42.52" cy="161.22" ry="33.661" stroke-width="1pt"/><path d="M258.66 159.45c0 9.29 10.63 24.803 10.63 24.803-7.696 6.093-20.154 10.63-31.89 10.63s-26.348-2.528-31.89-10.63c0 0 10.63-15.512 10.63-24.803s-10.63-21.26-10.63-21.26c7.697-6.093 20.155-10.63 31.89-10.63 11.736 0 24.194 4.537 31.89 10.63 0 0-10.63 11.97-10.63 21.26z" transform="translate(75.4 63.8)" stroke-width="1pt"/><path d="M251.58 159.45c0 9.29 10.63 28.346 10.63 28.346-7.696 6.093-13.068 7.087-24.803 7.087s-19.262 1.015-24.803-7.087c0 0 10.63-19.055 10.63-28.346s-10.63-24.803-10.63-24.803c7.696-6.093 13.067-7.087 24.803-7.087 11.735 0 17.107.994 24.803 7.087 0 0-10.63 15.512-10.63 24.803z" transform="translate(75.4 63.8)" stroke-width="1pt"/><ellipse transform="translate(75.4 60.2)" cx="194.88" rx="10.63" cy="166.54" ry="10.63" stroke-width="1pt"/><ellipse transform="translate(163.2 60.2)" cx="194.88" rx="10.63" cy="166.54" ry="10.63" stroke-width="1pt"/><ellipse transform="translate(119.3 60.2)" cx="194.88" rx="10.63" cy="166.54" ry="10.63" stroke-width="1pt"/><ellipse transform="translate(119.3 24.8)" cx="194.88" rx="10.63" cy="166.54" ry="10.63" stroke-width="1pt"/><ellipse transform="matrix(1.1 0 0 1 79.9 226.8)" cx="194.88" rx="10.63" cy="166.54" ry="10.63" stroke-width="1pt"/><ellipse transform="matrix(1.1 0 0 1 140.6 226.8)" cx="194.88" rx="10.63" cy="166.54" ry="10.63" stroke-width="1pt"/><path d="M212.6 311.81h49.607l-24.803 31.89-24.804-31.89z" transform="matrix(1.1 0 0 1 64.8 53.1)" stroke-width="1pt"/><ellipse transform="matrix(1.4 0 0 1.3 40.7 167.7)" cx="194.88" rx="10.63" cy="166.54" ry="10.63" stroke-width="1pt"/></g><g fill-rule="evenodd" fill="#fff" transform="matrix(.2 0 0 .2 18.3 -10.9)"><rect rx="4.423" ry="3.75" height="21.26" width="81.496" y="524.41" x="262.2" stroke-width="1.25"/><path d="M368.51 506.69c-9.814 0-17.716 8.26-17.716 18.52v16.11c0 10.26 7.902 18.52 17.716 18.52 9.815 0 17.717-8.26 17.717-18.52v-16.11c0-10.26-7.902-18.52-17.717-18.52zm0 7.087c-5.888 0-10.63 6.608-10.63 14.816v9.345c0 8.208 4.742 14.816 10.63 14.816 5.89 0 10.63-6.608 10.63-14.816v-9.345c0-8.208-4.74-14.816-10.63-14.816zM276.38 510.24c-5.888 0-10.63 6.608-10.63 14.816v16.432c0 8.208 4.742 14.816 10.63 14.816 5.89 0 10.63-6.608 10.63-14.816v-16.432c0-8.208-4.74-14.816-10.63-14.816zm0-7.087c-9.814 0-17.716 8.26-17.716 18.52v23.197c0 10.26 7.902 18.52 17.716 18.52 9.815 0 17.717-8.26 17.717-18.52v-23.198c0-10.26-7.902-18.52-17.717-18.52z" stroke-width="1.25"/><path d="M248.03 517.32c-5.888 0-10.63 6.608-10.63 14.816V536c0 8.208 4.74 14.816 10.63 14.816 5.888 0 10.63-6.608 10.63-14.816v-3.864c0-8.208-4.74-14.816-10.63-14.816zm0-7.087c-9.814 0-17.716 8.26-17.716 18.52v10.63c0 10.26 7.9 18.52 17.715 18.52 9.814 0 17.716-8.26 17.716-18.52v-10.63c0-10.26-7.9-18.52-17.716-18.52z" stroke-width="1.25"/><path d="M478.35 237.4c-5.888 0-10.63 6.608-10.63 14.816v16.432c0 8.208 4.742 14.816 10.63 14.816 5.89 0 10.63-6.608 10.63-14.816v-16.432c0-8.208-4.74-14.816-10.63-14.816zm0-7.087c-9.814 0-17.716 8.26-17.716 18.52v23.197c0 10.26 7.902 18.52 17.716 18.52 9.815 0 17.717-8.26 17.717-18.52v-23.198c0-10.26-7.902-18.52-17.717-18.52z" transform="matrix(1.8 0 0 1.1 -655.5 242.2)" stroke-width=".881"/><path d="M478.35 237.4c-5.888 0-10.63 6.608-10.63 14.816v16.432c0 8.208 4.742 14.816 10.63 14.816 5.89 0 10.63-6.608 10.63-14.816v-16.432c0-8.208-4.74-14.816-10.63-14.816zm0-7.087c-9.814 0-17.716 8.26-17.716 18.52v23.197c0 10.26 7.902 18.52 17.716 18.52 9.815 0 17.717-8.26 17.717-18.52v-23.198c0-10.26-7.902-18.52-17.717-18.52z" transform="matrix(1.8 0 0 1.1 -425.2 245.7)" stroke-width=".881"/><rect rx="2.308" ry="3.75" height="21.26" width="42.52" y="524.41" x="375.59" stroke-width="1.25"/><rect rx="1.346" ry="5" height="28.346" width="24.803" y="520.87" x="336.61" stroke-width="1.25"/><rect rx="1.346" ry="5" height="28.346" width="24.803" y="520.87" x="219.69" stroke-width="1.25"/><rect rx="2.692" ry="6.25" height="35.433" width="49.606" y="517.32" x="141.73" stroke-width="1.25"/><rect rx="2.5" ry="6.25" height="35.433" width="46.063" y="520.87" x="450" stroke-width="1.25"/></g></g></g></svg>