<svg xmlns="http://www.w3.org/2000/svg" height="512" width="512"><defs><clipPath id="a"><path fill-opacity=".67" d="M81.385 0h496.06v496.06H81.385z"/></clipPath></defs><g clip-path="url(#a)" transform="matrix(1 0 0 1 -84 0)"><g fill-rule="evenodd"><path d="M.514 0L0 496.06h659.05L.51 0z"/><path d="M658.536 496.06L659.05 0H0l658.54 496.06z" fill="red"/></g><path d="M406.908 123.444l-8.778-.457c-2.698-6.355-10.317-8.74-15.003-6.066-4.252.367-26.518-.335-26.518-.335l16.275 7.133c4.024 10.88 18.014 13.44 18.014 13.44-1.242 20.06-20.303-2.587-36.305 8.843-11.43 6.86-11.565 15.05-17.74 28.28-1.922 3.68-9.968 13.17-9.968 13.17l13.44-1.143-4.296 5.715 16.003-2.286s-2.15 1.794-3.43 3.155c2.37.465 18.29-3.725 18.29-3.725l-1.144 5.143c8.16-3.27 18.287-6.583 18.287-6.583s3.59 2.994 6.858 4.297l2.286-9.144 9.145 2.286 2.286-9.144c13.717 18.288 18.29 36.576 43.435 41.148l-2.286-9.144c6.994 2.995 19.978 9.35 19.978 9.35l1.966-4.183c10.904 7.82 19.957 7.682 26.06 8.55 0 0-4.55-11.384-4.57-11.43.296.115 4.548 2.31 4.57 2.286l-6.857-18.288 6.858 2.286-9.144-13.716 3.43-2.286-1.143-6.858c13.716 4.572 32.004 11.43 34.29 27.432 2.286 25.146-25.146 32.004-43.434 29.718 13.716 11.43 38.862 6.858 50.292-4.572 4.572-4.572 6.858-11.43 9.144-18.288 2.285 6.858 6.857 16.002 6.857 25.146-2.286 20.574-29.718 27.432-48.006 29.718 20.575 11.43 57.15-2.286 59.437-32.004 0-25.146-16.002-36.576-22.86-48.006-1.03-4.16-2.286-12.298-2.286-12.298.888.26 6.86 3.177 6.86 3.177s-4.048-7.566-4.573-9.167c0 0-7.133-19.43-9.716-23.728.426-.24 5.145.8 5.145.8l-18.723-23.477s4.517-.41 5.304-.55c0 0-21.763-17.167-27.73-19.34l6.86-2.285c-13.717-6.858-29.72-2.286-43.435 6.858l2.287-6.858-4.184.39v-7.842l4.184-6.264-6.858-2.286 4.57-11.43-6.857 2.286 2.286-11.43s-5.122 2.378-8.23 2.035c.113.25 3.634-7.82 3.634-7.82-2.172-3.405.023-10.218.023-10.218-16.002 2.286-18.288 4.572-27.432 18.288-13.716 25.146-9.144 36.576-6.858 61.722z" stroke="#fc0" fill="#fc0" stroke-width="2.286"/><path d="M493.273 161.02c1.19 1.966 14.166 8.216 23.93 13.753-2.62-10.537-21.67-12.86-23.93-13.752z" fill-rule="evenodd" stroke="red" stroke-width="2.286pt" fill="red"/><path fill="#fff" fill-rule="evenodd" d="M178.98 412.394l-14.54-9.28-19.514 9.35 4.327-16.69-14.918-15.68 17.215-1.052 10.294-19.02 6.31 16.048 21.282 3.91-13.313 10.972M216.294 330.807l-6.746-3.223-6.483 3.726.988-7.43-5.548-5.006 7.354-1.35 3.053-6.834 3.56 6.584 7.436.8-5.156 5.418M249.174 284.013l-14.79-7.224-14.338 8.09 2.288-16.298-12.136-11.133 16.214-2.858 6.83-14.973 7.748 14.537 16.345 1.875-11.43 11.84M181.51 218.862l-17.423-8.73-17.067 9.402 2.92-19.267-14.22-13.327 19.227-3.178 8.283-17.64 8.963 17.304 19.335 2.426-13.686 13.87M118.9 286.527l-17.572-10.424-17.522 10.653 4.492-19.934-15.56-13.35 20.347-1.898 7.905-18.928 8.083 18.768 20.446 1.67-15.35 13.486"/></g></svg>