<svg xmlns="http://www.w3.org/2000/svg" height="512" width="512" version="1" viewBox="-15 -7.5 30 15"><defs><clipPath id="b"><path d="M-15-7.5h30v15h-30z"/></clipPath><clipPath id="a"><path fill-opacity=".67" d="M-15-15h30v30h-30z"/></clipPath></defs><g clip-path="url(#a)"><path fill="#00247d" d="M-15-15h60v30h-60z"/><g clip-path="url(#b)" transform="translate(0 -7.5)"><circle r="20" fill="#00247d"/><path stroke-width="3" stroke="#fff" d="M-20-10l40 20m-40 0l40-20"/><path stroke-width="2" stroke="#cf142b" d="M-20-10l40 20m-40 0l40-20"/><path fill="#fff" d="M0 0l20 10h-3L-3 0m3 0l20-10h3L3 0M0 0l-20 10h-3L-3 0m3 0l-20-10h3L3 0"/><path stroke-width="5" stroke="#fff" d="M-20 0h40M0-10v20"/><path stroke-width="3" stroke="#cf142b" d="M-20 0h40M0-10v20"/></g><path d="M-.267 3.844c-.64.543-1.25 1.334-1.4 2.05-.42 2.013-.98 2.46-1.846 2.03 0 1.08.948 1.163 1.364.53 0 1.015.37 1.895 1.2 2.645.348.315.414.1.248-.25-.166-.35-.166-1.48-.5-2.13.533.383 1.315.167 1.248-.88-.68.398-1.36.383-1.43-.566-.083-1.114.352-2.73 1.117-3.43zM-1.076-4.166c.045-.4-.04-.81-.332-1.067-.564-.497-1.116-.332-1.528.068-.615-.333-.942.847-1.64.647.116.383.3.55.648.416-.366.333 0 .732-.432 1.13.782.25 1.197-.182 1.164-.93.3.266.765.25 1.015-.05-.417-.133-.42-.495-.25-.832.25-.5 1.42-.48 1.354.618z" stroke="#000" stroke-width=".0295675" fill="#f7e017"/><path d="M.73 1.62c-.883.465-2.496.265-2.646-.882C-2.066-.41-.95-.926-.652-1.075c.467-.234.832.183.682.665.516-.183.632-.782.383-1.13.682.05 1.314-.467 1.58-1.198-.24.227-.89.073-1.428.04.166-.184.164-.54.114-.722-.567.582-1.38.316-2.462 1.996.166-.583.482-1.747.665-2.512.018-.076.032-.152.04-.23.067-1.098-1.103-1.117-1.353-.618.274.308.13.668.032 1.214-.116.65-.366 2.146-.582 2.645-.067-.782-.582-.832-.682-1.215-.15.1-.233.366-.2.55-.182-.2-.815.05-1.047-.25-.25.5.15.998.566 1.214-.24.017-.3.308-.565.308.358.415.724.582 1.148.615s.74.19.998.707c.416.83 2 1.372 3.493.615z" stroke="#000" stroke-width=".0295675" fill="#337321"/><path d="M2.924.605c-.5 1.38-1.863 2.36-2.478 2.51C-.6 3.372-2.737 4.408-3.31 4.942c-.09-.02-.175-.052-.236-.094-.283-.2-.515-.85-.016-1.397C-2 1.984-.32 2.616.728 1.62c-.88.465-2.494.265-2.644-.882.948.25 2.66.266 4.025-1.198.182.2.714.832.814 1.065z" stroke="#000" stroke-width=".0295675" fill="#f7e017"/><path d="M-.267 3.844c-.79.67-1.2 2.316-1.117 3.43.023.31.11.52.242.65.058-.633.498-2.266 1.62-2.995.95-.617 2.43-1.997 2.978-3.577-.1-.283-.266-.482-.582-.682C2.33 2.163.872 2.878-.266 3.845z" stroke="#000" stroke-width=".0295675" fill="#337321"/><path d="M2.418-.036C2.135.388 1.495.97.878 1.204c.134-.15.176-.342.184-.5-.782.3-2.345.267-2.977.034.948.25 2.66.266 4.025-1.198.133.15.25.283.308.424z" stroke="#000" stroke-width=".0295675" fill="#316d3a"/><path d="M-3.562 3.45c-1.27 1.188-.432 2.227.067 2.46-.133.832.648.732.632 1.43.316-.183.4-.665.35-1.048.398.433 1.413-.05 1.63.75.132-.883-.55-1.764-1.398-1.68.348-.317.148-.832-.184-.966-.067.65-.798.65-1.08.45-.284-.2-.517-.85-.018-1.398z" stroke="#000" stroke-width=".0295675" fill="#337321"/><path d="M-.81 11.015c-.137.08-.127.258-.04.374.174.232-.123.76.44.872.167.034.295-.068.358-.258.175-.524-.382-.582-.432-.83-.05-.25-.208-.226-.325-.16z" stroke="#000" stroke-width=".0295675" fill="#f7e017"/><path d="M-.336 11.997c-.186.086-.35.208-.274.806.03.248.017.848-.2.857.133.066.416.137.533-.017.112.187.366.133.465-.1.133.108.316-.074.316-.232.117.075.35-.033.29-.39.143.05.326-.05.392-.142-.208-.04-.73-.324-.856-.548-.125-.225-.45-.333-.666-.233z" stroke="#000" stroke-width=".0295675" fill="#f7e017"/><g stroke="#000" stroke-width=".125" fill="none"><path d="M-3.217-4.824c.084-.124.178-.24.282-.34M-.052-2.622c.147-.084.37-.093.618-.077M-.276 13.643c-.06-.083-.08-.432-.038-.645M.19 13.544c-.092-.07-.267-.312-.296-.524M.504 13.312c-.116-.054-.4-.42-.462-.657M.795 12.92c-.137-.028-.557-.302-.732-.593" stroke-width=".0295675"/></g><path d="M8.464 3.465c2.046 1.713 2.18 3.077 1.863 3.876-.167-.748-1.015-1.912-1.897-2.21l.034-1.665z" stroke="#000" stroke-width=".0295675" fill="#f7e017"/><path d="M4.804 2.5h3.793v4.49c0 3.827-2.13 6.088-4.29 7.286C2.142 13.078.014 10.816.014 6.99V2.5h2.66c.005.234.026.583.3.932.628-.062 1.34-.532 1.83-.93z" stroke="#000" stroke-width=".0295675" fill="#337321"/><path d="M8.596 2.5v4.49c0 1.156-.194 2.168-.524 3.052l-3.766-6.91-3.766 6.91C.21 9.158.016 8.146.016 6.992V2.5h8.582z" stroke="#000" stroke-width=".0295675" fill="#006ec7"/><path fill="#f7e017" d="M8.187 9.71c-.066.203-.187.534-.28.737l-3.6-6.69-3.6 6.69c-.094-.203-.215-.534-.28-.738l3.88-7.197L8.19 9.71z"/><g stroke="#000" stroke-width=".125" fill="#f7e017"><path d="M6.018 12.172c.1.05.284.142.367.175.2-.4.233-.964.166-1.464-.215.55-.947.533-1.146.865.122.062.236.142.334.213-.25.25-.833.67-1.166.77V9.162c0-.25-.083-.457-.083-.665V7.76c0-.167-.034-.408-.184-.408s-.183.24-.183.407v.737c0 .208-.083.45-.083.665v3.568c-.183-.533-.9-.35-1.232-.883.13-.03.267-.04.4-.015-.25-.85-.93-.915-1.064-1.165 0 .35-.15 1.165.083 1.514.052-.062.13-.126.225-.184.283.616 1.554.617 1.854 1.632.24-.373 1.106-.806 1.712-1.456z" stroke-width=".0295675"/><path d="M4.305 9.203c.283 0 1.18-.092 1.505-.092.085 0 .154-.125.154-.28s-.07-.283-.154-.283c-.324 0-1.222-.092-1.505-.092s-1.18.092-1.505.092c-.084 0-.153.126-.153.282s.07.28.153.28c.325 0 1.223.093 1.505.093zM4.123 7.74c-.06-.047-.14-.076-.225-.076-.188 0-.34.14-.34.31 0 .173.152.312.34.312.188 0 .34-.14.34-.31 0-.134.194-.134.194 0 0 .27-.24.487-.534.487s-.535-.218-.535-.488.24-.488.535-.488c.09 0 .172.02.246.055-.007.044-.02.128-.02.2z" stroke-width=".0295675"/><path d="M2.8 9.11c.085 0 .154-.125.154-.28s-.07-.283-.153-.283" stroke-width=".0295675"/><path d="M2.926 9.11c.085 0 .153-.125.153-.28s-.07-.283-.154-.283M3.747 9.17c.102 0 .184-.153.184-.34 0-.19-.08-.34-.183-.34M3.94 9.185c.105 0 .192-.16.192-.356 0-.197-.087-.357-.193-.357M4.577 9.19c.108 0 .195-.162.195-.36 0-.2-.087-.36-.195-.36M4.778 9.177c.107 0 .193-.156.193-.348 0-.193-.085-.35-.192-.35M5.67 9.117c.086 0 .156-.13.156-.288s-.07-.29-.156-.29M2.45 11.997c.104-.063.226-.117.357-.15M5.836 12.03l-.098-.07M6.018 12.172c.233-.25.427-.533.533-.856" stroke-width=".0295675"/></g><g stroke="#000" stroke-width=".125"><path d="M3.544 5.675c0-.08.066-.116.144-.174.094-.07.13-.103.216-.103h1.092c.08 0 .1.02.1.095v1.485c0 .075-.02.095-.1.095H3.544v-1.41" fill="#fff" stroke-width=".0295675"/><path d="M4.726 7.2c.144 0 .118-.002.22-.103.104-.105.094-.095.094-.192V5.548c0-.07-.017-.09-.093-.09h-1.01c-.08 0-.113.03-.2.098-.072.055-.132.087-.132.163V7.2h1.12z" fill="#e5e5e5" stroke-width=".0295675"/><path d="M4.833 7.17c0 .075-.02.096-.1.096h-1.09c-.082 0-.1-.02-.1-.096V5.686c0-.075.018-.096.1-.096h1.09c.08 0 .1.02.1.096V7.17z" fill="#fff" stroke-width=".0295675"/></g><path d="M6.95 1.63c.213.238.283.557.167.87H6.8c.134-.4.05-.78-.515-.83-.846-.075-1.83 1.563-3.31 1.762-.432-.515-.41-1.498.14-1.963C2.83.65 2.232-.25 1.817-.64c-.27-.044-.585-.066-.788-.055.216-.465.832-.955 1.33-1.155.08-.118.168-.232.25-.333.05-.64 3.093-.342 3.74.057 0 .715.284 3.105.6 3.754z" stroke="#000" stroke-width=".0295675" fill="#96877d"/><path d="M3.26 2.067C3.188.96 2.74.047 2.11-.576c.3.083.914.083 1.33-.216.55-.366 1.98-1.007 2.503-.732.042.09.067.3.033.432-.124-.332-1.505.183-1.896.34-.374.176-.54.41-.407.933C3.457 0 3.53-.176 3.307-.31c.09.216.166.607.19.923-.082-.225-.232-.707-.556-.99.284.55.53 1.867.413 2.566.224 0 .72-.22.92-.38-.176.25-.68.425-1.003.49-.146.176-.246.625-.237.874-.025-.307.072-1.057.227-1.106zM6.95 1.63c-.275-.306-.79-.472-1.447-.293.1-.05.316-.134.508-.167C5.987.996 5.83.247 5.804.064l.183-.075c.09.448.207.964.282 1.172.06.017.192.04.308.1-.05-.175-.333-1.43-.324-1.564l.25-.133c.1.682.257 1.672.448 2.066z"/><g stroke="#000" stroke-width=".125" fill="#96877d"><path d="M6.8 2.5c.134-.4.05-.78-.515-.83-.438-.04-.914.386-1.476.83H6.8zM3.125-1.084c-.25.034-.807-.016-1.09-.108.017-.075.046-.153.083-.235-.174.117-.507.343-.63.5.398.085 1.222.126 1.637-.157z" stroke-width=".0295675"/></g><path d="M3.116 1.47c.09.264.15.52.16.748M2.36-1.848c-.15.22-.28.456-.324.656.283.092.84.142 1.09.108" stroke="#000" stroke-width=".0295675" fill="none"/><path d="M1.817-.638c.108.017.208.038.293.062.3.083.915.083 1.33-.217s1.548-1.23 2.828-1.33" stroke="#000" stroke-width=".0295675" fill="none"/><path d="M1.486-.926c.4.084 1.223.125 1.638-.158.965-.657 1.896-1.04 2.827-1.09" stroke="#000" stroke-width=".0295675" fill="none"/><path d="M8.464 3.465c1.397.965 2.428 1.896 2.727 3.393.3 1.497.866 1.896 1.565 1.497-.166.865-1.03.965-1.763.3.066.997-.333 2.195-1.364 2.627-.066-.598.33-1.073.216-1.563-.05-.217-.066-.716.216-.95-.548.184-1.413-.165-1.496-.98.632.3 1.447.35 1.763-.45s.183-2.16-1.863-3.875zM10.226-4.318c.432-1.13 1.564-1.015 1.946-.532 1.114-.632 1.264.798 2.212.515-.017.266-.333.516-.682.5.366.332-.15.83.632 1.13-.665.333-1.597-.017-1.846-.93-.216.43-.998.43-1.314.082.682-.183.632-.815.25-1.065-.386-.25-1.065-.15-1.198.3zM6.853-1.828c.31 1 .952 1.932 1.644 2.566.798.732 2.004.55 2.678-.15.016 1.393-1.426 1.5-2.23 1.065-.353-.193-.64-.092-.298.216.515.464 1.643.81 2.977 1.096 2.328.5 1.497 2.345.815 2.33.194-.005.355-.21.074-.463-2.02-1.817-6.13-1.102-6.063-5.16-.43 1.065-2.21.65-1.38-.615.267.216.733.233.866-.1.103-.26.036-.71-.43-1.096.076-.006.24 0 .224-.19.02.112.123.278.384.222.075.118.154.196.26.154.02-.01.084-.04.06-.158.02.22.28.3.42.282z" stroke="#000" stroke-width=".0295675" fill="#337321"/><path d="M8.946 1.652c.965.632 2.056.632 3.06-.532.317-.366.816-.682 1.165-.715.35-.033.333-.366.6-.432-.167-.05-.233-.25-.483-.225.624-.216.44-.715.75-.956-.25.09-.642-.283-1 .19.092-.215-.033-.473-.124-.573.033.25-.49.3-.59.93-.056.355-.25.333-.283-.216-.025-.4-.216-1.513-.45-2.078-.232-.566-.285-1.342.03-1.46-.047-.08-.114-.15-.195-.204-.386-.25-1.065-.15-1.198.3-.432 1.13.782 1.78.682 3.01-.184-.915-1.664-1.148-1.648-2.046-.482.216-.416.616-.232.932-.3-.466-.982.3-1.564-.333-.066.832.665 1.148 1.264 1.18-.3.533.1.982.5 1.132.016-.932 1.926-.55 1.945 1.048.017 1.363-1.447 1.48-2.23 1.047zM11.624 2.966c2.328.5 1.497 2.345.815 2.33-.435-.012-.85-.376-.874-.692-.5.267-.366.79.017.998-1.048-.124-1.49.566-1.514 1.323.19-.35.772-.375.99-.3.215.075.772.117.997-.133-.184.158.116.524-.142.807.873-.034 1.256-.85 1.106-1.207 1.132-1.03.916-2.71-1.396-3.127zM9.85 10.868c.152.095.132.294.03.42-.205.252.104.854-.53.955-.187.03-.326-.09-.388-.303-.172-.592.452-.633.52-.91.066-.276.24-.24.368-.162z" stroke="#000" stroke-width=".0295675" fill="#f7e017"/><path d="M9.28 11.942c.204.105.38.247.27.913-.044.275-.054.945.187.964-.152.068-.47.134-.594-.042-.133.203-.414.132-.515-.132-.154.115-.35-.097-.343-.274-.133.08-.388-.052-.308-.45-.16.05-.36-.07-.43-.174.234-.037.83-.33.98-.575.15-.245.516-.352.753-.23z" stroke="#000" stroke-width=".0295675" fill="#f7e017"/><g stroke="#000" stroke-width=".125" fill="none"><path d="M9.143 13.778c.068-.09.107-.48.07-.718M8.627 13.648c.105-.075.31-.337.352-.572M8.284 13.373c.132-.055.464-.45.544-.713M7.976 12.924c.155-.027.636-.315.843-.632" stroke-width=".0295675"/></g><path d="M6.45-.327c-.027 1.705.682 2.568 1.663 3.13-.365-.22-.207-.968-.698-1.21.117-.007.3.16.59.093-.14-.316-.373-.8-.914-.865.143-.016.45.034.65-.04C7.457.346 6.71.554 6.45-.328zM6.273-1.948c-.06-.02-.11-.08-.16-.158-.262.056-.364-.11-.385-.223.017.192-.148.185-.225.19.468.39.535.84.43 1.098-.132.333-.597.316-.864.1-.034.707.88.94 1.214.05 0 .15.19.133.24.332.238-.382.06-.93-.25-1.388z" stroke="#000" stroke-width=".0295675" fill="#f7e017"/><g><path d="M4.814-5.325c-.416-.382-.607-1.022-.59-1.388.016-.366.166-.765.698-.6-.166 0-.05.334-.225.367.142.05.333-.067.358-.14.033.115.25.082.266.215.084-.068-.007-.392-.132-.46.09-.048.14-.306.1-.43-.083.016-.208.132-.233.298.042-.133-.008-.465-.24-.515-.068.09-.084.316.007.44-.216-.05-.532.092-.607.275.017-.22.047-.534.183-.732.046-.066-.067-.183-.154-.025-.162-.315-.594-.48-.786-.323s-.45-.075-.607.174c-.157.25-.692.277-.664.542.017.158-.022.402-.1.49-.19.217.092.375.142.566-.034-.632.973-1.863 1.98-1.38-.093.158-.173.473-.2.856-.042.566.04 1.364.59 1.83l.216-.06z" stroke="#000" stroke-width=".0295675" fill="#337321"/><path d="M5.112-7.304c-.005-.15.254-.344.603-.34.42.004.744.386 1.08.35s.17.148.1.198c-.07.05-.11.125-.087.216s-.018.152-.153.067c-.3-.187-.6.075-.994-.07-.342-.127-.54-.196-.548-.42z" stroke="#000" stroke-width=".0295675" fill="#cf142b"/><path d="M3.4-3.38c-.167-.523-.8-1.096-1.107-1.23l-.016-.282c.166-.067.565-.383.748-.557 1.248.6 2.944-.25 3.726-1.13l.3.183-.15.2-.158-.084c-.19.232-.905.904-1.12 1.045.29.074.687.124.796.118.7-.5 1.247-.948 1.514-.98l.224.298-.2.143L7.8-5.75c-.75.617-1.598 1.964-1.93 2.862-.466-.1-2.13-.033-2.47-.49z" stroke="#000" stroke-width=".0295675" fill="#96877d"/><path d="M5.62-5.235c-.107-.027-.2-.058-.258-.09-.133.125-.466.233-.89.25" stroke="#000" stroke-width=".0295675" fill="none"/><path d="M3.466-3.562c-.112-.62.066-1.305.382-1.513.69.457 1.87.457 2.57-.042" stroke="#000" stroke-width=".0295675" fill="none"/><path d="M3.466-3.886c.532-.017 1.688.075 1.97.117.283.042.757.16.69.3M3.712-3.974l.153-.153-.153-.153-.153.153.152.153z" stroke="#000" stroke-width=".0295675" fill="none"/><path d="M4.074-7.07c-.192-.267-.72-.35-.832.007-.05.158-.125.325-.25.4-.124.074-.095.3-.04.4.132.24.016.473.273.63 0-.19.283-.39.524-.44.24-.05.606-.266.656-.507.05-.24.133-.44-.332-.49z" stroke="#000" stroke-width=".0295675" fill="#337321"/><path d="M2.874-4.676h.067l.002.455c.013.004.03.01.04.02l.39-.226.035.057-.394.23c.003.014.005.03.002.045l.392.226-.034.06-.394-.228c-.012.01-.025.02-.04.024v.452h-.066v-.454c-.014-.005-.03-.01-.04-.02l-.392.225-.033-.06.392-.227c-.003-.014-.005-.03-.002-.045l-.39-.227.032-.056.394.226c.01-.01.024-.02.038-.023v-.453z" stroke="#000" stroke-width=".0295675" fill="#96877d"/><path d="M3.468-3.564c-.143.144-.34.233-.56.233-.434 0-.787-.354-.787-.79 0-.434.354-.787.79-.787.255 0 .482.122.626.31-.04.1-.088.322-.092.423-.027-.27-.256-.483-.535-.483-.3 0-.54.24-.54.538 0 .3.24.54.54.54.248 0 .463-.174.525-.404 0 .1.002.337.033.42z" stroke="#000" stroke-width=".0295675" fill="#96877d"/><path d="M2.576-2.813c-.05-.058-.14-.216-.133-.333.075-.008.217.042.283.108-.008-.083-.04-.266-.025-.35.093.034.284.142.35.267-.016-.084-.05-.3-.016-.433.1.058.266.216.3.324.007-.165.066-.44.116-.506.074.075.19.14.266.24.016-.132.083-.29.183-.332.074.083.19.275.215.49.075-.024.175-.15.216-.215.043.066.084.183.06.324.09-.082.2-.2.224-.298.066.05.19.174.224.307-.016-.11-.008-.3-.04-.408.124.066.223.183.248.308.034-.117.108-.325.175-.375.067.133.134.29.126.424.04-.084.108-.233.174-.267.058.092.05.29.033.4.06-.084.167-.183.233-.217.01.05.017.15 0 .225.075-.04.2-.265.24-.382.118.06.234.258.243.358.082-.033.248-.183.298-.266 0 .058.025.216-.008.34.05-.05.1-.15.125-.19.033.083.008.282-.026.39.074-.066.183-.108.25-.108.007.142-.093.39-.184.574-.798-.225-2.47-.308-4.15-.4z" stroke="#000" stroke-width=".0295675" fill="#337321"/><path fill="#f7e017" d="M5.36-7.22c-.004-.06.133-.2.378-.197.294 0 .565.217.8.202s.12.06.07.08c-.05.022-.078.052-.06.09s-.013.062-.108.027c-.21-.077-.42.03-.695-.03-.24-.05-.38-.08-.385-.17z"/></g><g stroke="#000" stroke-width=".125"><g fill="#f7e017"><path d="M2.834-2.314c-.25.3-.5.25-.55.058-.05-.19.135-.283.068-.45-.067-.165.108-.24.19-.165.084.073.35-.168.467.082.115.25.207.424.14.524-.066.1-.266.05-.316-.05zM3.906-2.763c-.047-.11.212-.32.345-.17.134.15.342-.163.458.074.117.238.154.363.212.496.06.133-.316.204-.432.087.017.08-.323.14-.416-.083-.05-.12-.104-.258-.166-.403zM5.637-2.626c-.062-.116.24-.283.4-.07.04-.088.34-.105.36.15.022.253.03.402.038.502s-.182.19-.32-.062c-.245.05-.357-.088-.386-.233s-.06-.215-.093-.286z" stroke-width=".0295675"/></g><g fill="#337321"><path d="M2.995-2.792c-.037-.083.212-.25.382-.125s.407-.108.508.116c.203.453.216.486.154.573-.064.087-.33.054-.396-.066-.013.083-.242.07-.362.004-.137-.074-.233-.353-.287-.502zM4.745-2.772c-.058-.128.333-.24.503-.016.088-.08.28-.083.387.162.108.245.125.383.046.445-.055.043-.257.078-.323-.034-.092.058-.375.008-.437-.15s-.116-.295-.175-.408zM6.4-2.526c-.007-.117.205-.17.284 0s.332.017.353.3c.004.053-.03.26-.108.36s-.466 0-.49-.21c-.026-.213-.035-.334-.04-.45z" stroke-width=".0295675"/></g><g fill="none"><path d="M2.834-2.314c-.09-.125-.216-.325-.374-.108M3.645-2.293c-.053-.07-.124-.188-.15-.28M4.488-2.277c-.06-.042-.146-.125-.192-.212M4.414-2.713c.146.016.245.153.29.216.047.062.143.175.218.187M5.358-2.214c-.05-.08-.1-.15-.112-.208M5.25-2.788c.05.07.086.13.116.195M6.115-2.106c-.067-.125-.17-.246-.258-.287M6.082-2.564c.008.245.337.262.35.437M6.683-2.526c.033.062.045.124.05.228" stroke-width=".0295675"/></g></g></g></svg>