<svg xmlns="http://www.w3.org/2000/svg" height="512" width="512" version="1"><defs><linearGradient id="b" y2="-5035.4" gradientUnits="userSpaceOnUse" y1="-5035.4" gradientTransform="matrix(.1 0 0 .1 -143.8 670.7)" x2="4203.4" x1="359.59"><stop offset="0"/><stop stop-color="#fff" offset="1"/></linearGradient><clipPath id="a"><path fill-opacity=".67" d="M0 0h512v512H0z"/></clipPath></defs><g clip-path="url(#a)"><path stroke="url(#b)" stroke-width=".138" fill="#090" d="M-114.94.065h307.43v511.87h-307.43z"/><path fill-rule="evenodd" fill="red" d="M191.82 0h461.15v512H191.82z"/><g fill-rule="evenodd" stroke-width="1pt"><path d="M175.295 193.867l-.947 19.08 128.254-12.688.947-19.08z"/><path fill="#efef00" d="M176.442 195.967l-.725 14.61 125.738-12.437.725-14.61z"/><path d="M174.634 189.913l-.31 6.262 129.548-12.815.31-6.262z"/><path fill="#efef00" d="M175.673 192.046l-.088 1.774 127.246-12.587.09-1.775z"/><path d="M173.6 210.786l-.31 6.263 129.547-12.816.31-6.262z"/><path fill="#efef00" d="M174.638 212.92l-.088 1.774 127.246-12.588.088-1.774z"/><path d="M194.682 254.795l-.946 19.08 128.254-12.688.946-19.08z"/><path fill="#efef00" d="M195.83 256.895l-.725 14.61 125.738-12.437.724-14.61z"/><path d="M194.022 250.84l-.31 6.263 129.548-12.815.31-6.262z"/><path fill="#efef00" d="M195.06 252.974l-.087 1.774L322.22 242.16l.087-1.773z"/><path d="M192.987 271.714l-.31 6.263 129.547-12.815.31-6.262z"/><path fill="#efef00" d="M194.026 273.847l-.088 1.775 127.245-12.587.088-1.775z"/><path d="M186.925 323.458l-.946 19.08 128.253-12.687.946-19.078z"/><path fill="#efef00" d="M188.072 325.56l-.724 14.61 125.738-12.438.724-14.61z"/><path d="M186.265 319.504l-.31 6.263L315.5 312.952l.31-6.262z"/><path fill="#efef00" d="M187.304 321.637l-.088 1.775 127.246-12.588.087-1.774z"/><g><path d="M185.23 340.378l-.31 6.262 129.547-12.814.31-6.263z"/><path fill="#efef00" d="M186.27 342.51l-.09 1.775 127.246-12.587.088-1.774z"/></g><g><path d="M202.347 318.623l.946 19.08L75.04 325.014l-.947-19.08z"/><path fill="#efef00" d="M201.2 320.723l.725 14.61-125.74-12.437-.723-14.61z"/><path d="M203.007 314.67l.31 6.26L73.77 308.117l-.31-6.262z"/><path fill="#efef00" d="M201.968 316.802l.088 1.774L74.81 305.99l-.087-1.775z"/><g><path d="M204.042 335.543l.31 6.262L74.806 328.99l-.31-6.262z"/><path fill="#efef00" d="M203.004 337.676l.088 1.774-127.246-12.587-.088-1.775z"/></g></g><g><path d="M193.392 263.424l-5.644 17.204L50.99 266.074l5.645-17.203z"/><path fill="#efef00" d="M191.393 265.287l-4.322 13.175-134.073-14.268 4.322-13.175z"/><path d="M195.505 259.88l-1.853 5.646-138.137-14.7 1.852-5.647z"/><path fill="#efef00" d="M193.613 261.775l-.524 1.6-135.684-14.44.525-1.6z"/><g><path d="M189.33 278.702l-1.852 5.646-138.138-14.7L51.193 264z"/><path fill="#efef00" d="M187.44 280.597l-.526 1.6-135.682-14.44.525-1.6z"/></g></g><g><path d="M176.588 260.675l-13.908 14.717-100.57-68.647 13.907-14.717z"/><path fill="#efef00" d="M173.98 261.718l-10.65 11.27-98.6-67.3 10.653-11.27z"/><path d="M180.207 258.02l-4.565 4.83-101.585-69.34 4.565-4.83z"/><path fill="#efef00" d="M177.667 259.137l-1.293 1.37-99.78-68.108 1.293-1.37z"/><g><path d="M164.99 274.12l-4.564 4.832-101.585-69.34 4.565-4.83z"/><path fill="#efef00" d="M162.45 275.24l-1.292 1.367-99.78-68.107 1.293-1.37z"/></g></g><g><path d="M304.306 260.935c.05 63.648-51.68 115.303-115.468 115.303-63.79.1-115.602-51.472-115.653-115.118-.154-63.65 51.493-115.386 115.282-115.49 63.79-.2 115.684 51.29 115.84 114.934.002.13.002.238.002.367zm27.108 0c.06 78.578-63.803 142.346-142.55 142.346-78.753.126-142.727-63.546-142.78-142.12-.19-78.58 63.573-142.448 142.325-142.572 78.752-.25 142.818 63.32 143.004 141.893.003.16.003.295.003.455z" fill="#efef00"/><path d="M328.56 260.938c.06 77.006-62.526 139.5-139.7 139.5-77.178.12-139.87-62.277-139.932-139.278-.186-77.008 62.302-139.6 139.487-139.722 77.18-.244 139.963 62.055 140.145 139.055.004.157.004.29.004.445zm-2.796 0c.058 75.466-61.276 136.712-136.906 136.712-75.634.12-137.067-61.03-137.128-136.5-.183-75.468 61.054-136.813 136.693-136.934 75.635-.24 137.16 60.812 137.34 136.277.004.154.004.283.004.436z"/><path d="M310.036 260.933c.05 66.804-54.242 121.018-121.19 121.018-66.954.107-121.34-54.024-121.393-120.824C67.29 194.32 121.5 140.02 188.46 139.916c66.952-.212 121.418 53.833 121.576 120.632.003.136.003.25.003.385zm-2.425 0c.05 65.468-53.157 118.6-118.767 118.6-65.613.103-118.907-52.945-118.96-118.416-.16-65.468 52.965-118.686 118.583-118.792 65.614-.208 118.986 52.756 119.145 118.223.003.133.003.245.003.377z"/></g><g><path d="M182.39 118.24h17.718v286.274h-17.72z"/><path fill="#efef00" d="M184.455 121.046h13.57v280.66h-13.57z"/><path d="M178.638 116.32h5.816V405.48h-5.816z"/><path fill="#efef00" d="M180.725 118.886h1.647V402.91h-1.647z"/><g><path d="M198.023 116.32h5.816V405.48h-5.817z"/><path fill="#efef00" d="M200.11 118.886h1.647V402.91h-1.647z"/></g></g><g><path d="M183.99 285.455l6.582 17.937-126.247 25.88-6.58-17.937z"/><path fill="#efef00" d="M183.52 287.8l5.04 13.736L64.79 326.91l-5.04-13.738z"/><path d="M183.445 281.483l2.16 5.888-127.52 26.142-2.16-5.887z"/><path fill="#efef00" d="M183.088 283.828l.612 1.668-125.255 25.677-.612-1.668z"/><g><path d="M190.645 301.108l2.16 5.887-127.52 26.142-2.16-5.888z"/><path fill="#efef00" d="M190.287 303.452l.612 1.668-125.255 25.677-.612-1.668z"/></g></g><g><path d="M177.3 232.037l.853 18.303L45.79 264.684l-.854-18.303z"/><path fill="#efef00" d="M176.102 234.312l.653 14.017-129.767 14.06-.654-14.016z"/><path d="M178.007 228.066l.28 6.008-133.7 14.488-.28-6.008z"/><path fill="#efef00" d="M176.92 230.35l.08 1.702-131.324 14.23-.08-1.7z"/><g><path d="M178.94 248.09l.28 6.008-133.7 14.49-.28-6.01z"/><path fill="#efef00" d="M177.855 250.375l.08 1.702-131.325 14.23-.08-1.7z"/></g></g><g><path d="M180.547 228.512l-10.97 17.01-111.474-49.095 10.97-17.01z"/><path fill="#efef00" d="M178.175 230.014l-8.4 13.027-109.29-48.132 8.403-13.027z"/><path d="M183.618 225.24l-3.6 5.583-112.6-49.59 3.6-5.585z"/><path fill="#efef00" d="M181.326 226.803l-1.02 1.582-110.598-48.71 1.02-1.582z"/><g><path d="M171.616 243.85l-3.6 5.584-112.6-49.59 3.6-5.585z"/><path fill="#efef00" d="M169.324 245.414l-1.02 1.582-110.598-48.71 1.02-1.582z"/></g></g><g><path d="M333.26 233.7l-.237 18.293-133.03-6.447.238-18.293z"/><path fill="#efef00" d="M331.928 235.77l-.182 14.01-130.42-6.322.183-14.01z"/><path d="M334.203 229.87l-.078 6.005-134.372-6.512.078-6.004z"/><path fill="#efef00" d="M332.982 231.967l-.022 1.7-131.984-6.395.022-1.7z"/><g><path d="M333.943 249.884l-.078 6.004-134.37-6.512.077-6.004z"/><path fill="#efef00" d="M332.722 251.98l-.022 1.702-131.983-6.397.022-1.7z"/></g></g><g><path d="M309.29 180.938l5.21 16.38-109.837-3.458-5.212-16.38z"/><path fill="#efef00" d="M308.82 182.814l3.992 12.545-107.684-3.392-3.992-12.544z"/><path d="M308.923 177.493l1.71 5.377-110.946-3.493-1.71-5.377z"/><path fill="#efef00" d="M308.55 179.39l.486 1.524-108.975-3.43-.483-1.524z"/><g><path d="M314.625 195.415l1.71 5.376L205.39 197.3l-1.71-5.376z"/><path fill="#efef00" d="M314.254 197.313l.485 1.523-108.976-3.43-.485-1.524z"/></g></g><g><path d="M324.062 310.45l-7.91 17-122.443-44.675 7.91-17z"/><path fill="#efef00" d="M321.94 311.995l-6.06 13.018-120.04-43.8 6.058-13.017z"/><path d="M326.558 307.15l-2.596 5.58-123.68-45.125 2.598-5.58z"/><path fill="#efef00" d="M324.53 308.753l-.737 1.58-121.48-44.324.735-1.58z"/><g><path d="M317.904 325.75l-2.596 5.58-123.68-45.126 2.597-5.58z"/><path fill="#efef00" d="M315.874 327.35l-.735 1.582-121.482-44.324.736-1.58z"/></g></g><g><g fill="#f6f6fb"><g transform="matrix(.1 0 0 .1 194 903.5)"><path d="M-850.89-7147h1590.9v1171.1h-1590.9z"/><ellipse transform="matrix(1.1 0 0 1.1 -3130.4 -10547)" cx="2861.4" rx="740.21" cy="4267.3" ry="696.02"/></g><g transform="matrix(.1 0 0 .1 -422 546.5)"><path d="M5478.8-3340.7h859.09v632.38H5478.8z"/><ellipse transform="matrix(.6 0 0 .6 4247.9 -5088.5)" cx="2861.4" rx="740.21" cy="4267.3" ry="696.02"/></g></g><g fill="red"><g transform="matrix(.1 0 0 .1 193.7 871.5)"><path d="M-850.89-7147h1590.9v1171.1h-1590.9z"/><ellipse transform="matrix(1.1 0 0 1.1 -3130.4 -10547)" cx="2861.4" rx="740.21" cy="4267.3" ry="696.02"/></g><g transform="matrix(.1 0 0 .1 -391.5 532.4)"><path d="M5478.8-3340.7h859.09v632.38H5478.8z"/><ellipse transform="matrix(.6 0 0 .6 4247.9 -5088.5)" cx="2861.4" rx="740.21" cy="4267.3" ry="696.02"/></g></g><g fill="#400"><g transform="matrix(.1 0 0 .1 191.5 626.5)"><path d="M-850.89-7147h1590.9v1171.1h-1590.9z"/><ellipse transform="matrix(1.1 0 0 1.1 -3130.4 -10547)" cx="2861.4" rx="740.21" cy="4267.3" ry="696.02"/></g><g transform="matrix(.1 0 0 .1 -157.8 424.1)"><path d="M5478.8-3340.7h859.09v632.38H5478.8z"/><ellipse transform="matrix(.6 0 0 .6 4247.9 -5088.5)" cx="2861.4" rx="740.21" cy="4267.3" ry="696.02"/></g></g><g fill="#fff"><g transform="matrix(.1 0 0 .1 191.2 591.1)"><path d="M-850.89-7147h1590.9v1171.1h-1590.9z"/><ellipse transform="matrix(1.1 0 0 1.1 -3130.4 -10547)" cx="2861.4" rx="740.21" cy="4267.3" ry="696.02"/></g><g transform="matrix(.1 0 0 .1 -124 408.4)"><path d="M5478.8-3340.7h859.09v632.38H5478.8z"/><ellipse transform="matrix(.6 0 0 .6 4247.9 -5088.5)" cx="2861.4" rx="740.21" cy="4267.3" ry="696.02"/></g></g><g transform="matrix(.1 0 0 .1 -117.9 477.3)"><g fill="#3b3bff"><g transform="matrix(.1 0 0 .1 2979.2 -840.1)"><path d="M-850.89-7147h1590.9v1171.1h-1590.9z"/><ellipse transform="matrix(1.1 0 0 1.1 -3130.4 -10547)" cx="2861.4" rx="740.21" cy="4267.3" ry="696.02"/></g><g transform="matrix(.1 0 0 .1 2084.7 -1359.7)"><path d="M5478.8-3340.7h859.09v632.38H5478.8z"/><ellipse transform="matrix(.6 0 0 .6 4247.9 -5088.5)" cx="2861.4" rx="740.21" cy="4267.3" ry="696.02"/></g><g><g transform="matrix(.1 0 0 .1 2978.8 -886.7)"><path d="M-850.89-7147h1590.9v1171.1h-1590.9z"/><ellipse transform="matrix(1.1 0 0 1.1 -3130.4 -10547)" cx="2861.4" rx="740.21" cy="4267.3" ry="696.02"/></g><g transform="matrix(.1 0 0 .1 2129 -1380.3)"><path d="M5478.8-3340.7h859.09v632.38H5478.8z"/><ellipse transform="matrix(.6 0 0 .6 4247.9 -5088.5)" cx="2861.4" rx="740.21" cy="4267.3" ry="696.02"/></g><g transform="matrix(.1 0 0 .1 2975.6 -1243.4)"><path d="M-850.89-7147h1590.9v1171.1h-1590.9z"/><ellipse transform="matrix(1.1 0 0 1.1 -3130.4 -10547)" cx="2861.4" rx="740.21" cy="4267.3" ry="696.02"/></g><g transform="matrix(.1 0 0 .1 2468.4 -1537.9)"><path d="M5478.8-3340.7h859.09v632.38H5478.8z"/><ellipse transform="matrix(.6 0 0 .6 4247.9 -5088.5)" cx="2861.4" rx="740.21" cy="4267.3" ry="696.02"/></g><g><g transform="matrix(.1 0 0 .1 2975.2 -1294.8)"><path d="M-850.89-7147h1590.9v1171.1h-1590.9z"/><ellipse transform="matrix(1.1 0 0 1.1 -3130.4 -10547)" cx="2861.4" rx="740.21" cy="4267.3" ry="696.02"/></g><g transform="matrix(.1 0 0 .1 2517.4 -1560.7)"><path d="M5478.8-3340.7h859.09v632.38H5478.8z"/><ellipse transform="matrix(.6 0 0 .6 4247.9 -5088.5)" cx="2861.4" rx="740.21" cy="4267.3" ry="696.02"/></g></g></g></g><ellipse fill="#fff" transform="translate(-3.8 -7.6)" cx="2903" rx="35.688" cy="-1854.9" ry="35.688"/><ellipse fill="#fff" transform="translate(130 -7.6)" cx="2903" rx="35.688" cy="-1854.9" ry="35.688"/><ellipse fill="#fff" transform="translate(61.9 67.6)" cx="2903" rx="35.688" cy="-1854.9" ry="35.688"/><ellipse fill="#fff" transform="translate(1.4 140.4)" cx="2903" rx="35.688" cy="-1854.9" ry="35.688"/><ellipse fill="#fff" transform="translate(128.6 142.8)" cx="2903" rx="35.688" cy="-1854.9" ry="35.688"/></g><path d="M112.68 188.623v2.338h31.248v-2.337H112.68zm2.712-6.452v6.51h26.56v-6.51h-26.56zm-2.344 21.398v2.34h31.248v-2.34h-31.248zm8.374-.723c-.003-4.245 3.266-7.69 7.298-7.69 4.032-.007 7.306 3.433 7.31 7.678v.096m-15.42.338c-.004-4.717 3.63-8.545 8.11-8.545 4.478-.008 8.117 3.814 8.12 8.53v.107m-21.448-11.758v11.69h26.56v-11.69h-26.56zm-2.713-11.66v2.21h31.247v-2.21H112.68zm-.003-3.12v3.14h2.407v-3.14h-2.407zm28.855 0v3.14h2.407v-3.14h-2.408zm-24.056.063v3.14h2.407v-3.14h-2.407zm19.13-.064v3.143h2.408v-3.142h-2.407zm-14.46-2.96v3.142h2.41v-3.14h-2.41zm9.6 0v3.142h2.406v-3.142h-2.407zm-4.674-.063v3.142h2.408v-3.143h-2.408zm-4.93 3.228v3.003h11.996v-3.003H122.14z" fill="#ff0"/><g fill="red"><path d="M122.043 181.73h2.407v3.14h-2.407zM132.84 181.665h2.407v3.142h-2.407z"/></g><path d="M232.62 188.997v2.338h31.248v-2.338H232.62zm2.712-6.452v6.51h26.56v-6.51h-26.56zm-2.343 21.398v2.338h31.246v-2.337H232.99zm8.372-.724c-.003-4.246 3.267-7.69 7.298-7.69 4.032-.008 7.307 3.432 7.31 7.677v.096m-15.42.34c-.003-4.718 3.63-8.546 8.11-8.546 4.48-.008 8.117 3.814 8.12 8.53v.108m-21.448-11.76v11.693h26.56v-11.692h-26.56zm-2.712-11.66v2.212h31.247v-2.212H232.62zm-.003-3.12v3.142h2.408v-3.14h-2.408zm28.855 0v3.142h2.408v-3.14h-2.408zm-24.056.064v3.14h2.407v-3.14h-2.407zm19.13-.065v3.142h2.41v-3.142h-2.41zm-14.458-2.96v3.14h2.407v-3.14h-2.407zm9.597 0v3.14h2.408v-3.14h-2.408zm-4.672-.064v3.143h2.407v-3.142h-2.407zm-4.932 3.23v3.002h11.998V177.4H242.08z" fill="#ff0"/><g fill="red"><path d="M241.973 182.103h2.407v3.142h-2.407zM252.77 182.04h2.407v3.14h-2.407z"/></g><path d="M173.777 188.997v2.338h31.247v-2.338h-31.247zm2.71-6.452v6.51h26.56v-6.51h-26.56zm-2.343 21.398v2.338h31.248v-2.337h-31.248zm8.374-.724c-.003-4.246 3.266-7.69 7.298-7.69 4.032-.008 7.306 3.432 7.31 7.677v.096m-15.42.34c-.003-4.718 3.63-8.546 8.11-8.546 4.478-.008 8.117 3.814 8.12 8.53v.108m-21.448-11.76v11.693h26.56v-11.692h-26.56zm-2.712-11.66v2.212h31.247v-2.212h-31.247zm-.003-3.12v3.142h2.407v-3.14h-2.407zm28.855 0v3.142h2.407v-3.14h-2.407zm-24.056.064v3.14h2.407v-3.14h-2.408zm19.13-.065v3.142h2.408v-3.142h-2.407zm-14.46-2.96v3.14h2.41v-3.14h-2.41zm9.6 0v3.14h2.406v-3.14h-2.407zm-4.674-.064v3.143h2.408v-3.142h-2.408zm-4.93 3.23v3.002h11.996V177.4h-11.997z" fill="#ff0"/><g fill="red"><path d="M183.13 182.103h2.406v3.142h-2.407zM193.925 182.04h2.408v3.14h-2.408z"/></g><path d="M110.057 261.918v2.338h31.247v-2.338h-31.247zm2.71-6.452v6.51h26.56v-6.51h-26.56zm-2.342 21.398v2.338h31.247v-2.338h-31.247zm8.373-.724c-.003-4.245 3.267-7.69 7.298-7.69 4.032-.007 7.307 3.433 7.31 7.678v.096m-15.42.34c-.003-4.718 3.63-8.546 8.11-8.546 4.48-.007 8.117 3.815 8.12 8.53v.108m-21.448-11.758v11.69h26.56V264.9h-26.56zm-2.712-11.662v2.212h31.247v-2.212h-31.247zm-.003-3.12v3.143h2.408v-3.143h-2.407zm28.855 0v3.143h2.408v-3.143h-2.408zm-24.056.064v3.142h2.407v-3.142h-2.408zm19.13-.064v3.142h2.41v-3.142h-2.41zm-14.458-2.96v3.142h2.407v-3.142h-2.406zm9.597 0v3.14h2.41v-3.14h-2.41zm-4.67-.064v3.142h2.406v-3.142h-2.407zm-4.933 3.228v3.004h11.997v-3.004h-11.997z" fill="#ff0"/><g fill="red"><path d="M119.42 255.03h2.407v3.14h-2.408zM130.216 254.966h2.408v3.14h-2.408z"/></g><path d="M234.873 261.176v2.338h31.247v-2.338h-31.247zm2.71-6.452v6.51h26.56v-6.51h-26.56zm-2.343 21.398v2.338h31.248v-2.338H235.24zm8.374-.724c-.003-4.245 3.266-7.69 7.298-7.69 4.032-.007 7.306 3.433 7.31 7.678v.096m-15.42.34c-.003-4.718 3.63-8.546 8.11-8.546 4.48-.007 8.117 3.815 8.12 8.53v.108m-21.448-11.758v11.69h26.56v-11.69h-26.56zm-2.712-11.662v2.212h31.247v-2.212H234.87zm-.003-3.12v3.143h2.406v-3.142h-2.407zm28.854 0v3.143h2.407v-3.142h-2.406zm-24.056.064v3.142h2.407v-3.142h-2.407zm19.13-.064v3.142h2.408v-3.142H258.8zm-14.46-2.96v3.142h2.41v-3.142h-2.41zm9.6 0v3.14h2.406v-3.14h-2.407zm-4.674-.064v3.142h2.408v-3.142h-2.408zm-4.93 3.228v3.004h11.996v-3.004h-11.997z" fill="#ff0"/><g fill="red"><path d="M244.225 254.277h2.407v3.142h-2.407zM255.02 254.213h2.41v3.142h-2.41z"/></g><path d="M137.103 332.633l1.775 1.526 20.397-23.62-1.775-1.527-20.397 23.62zm-3.13-6.26l4.943 4.247 17.337-20.076-4.942-4.248-17.336 20.076zm14.718 15.737l1.776 1.527 20.397-23.62-1.775-1.526-20.397 23.62zm4.917-6.8c-3.225-2.77-3.706-7.49-1.075-10.537 2.627-3.052 7.376-3.282 10.6-.514.027.02.048.04.074.062m-9.808 11.877c-3.583-3.078-4.12-8.322-1.195-11.708 2.92-3.39 8.196-3.647 11.78-.57.028.024.052.044.08.07m-22.928 8.536l8.877 7.632 17.337-20.077-8.878-7.63-17.337 20.075zm-10.625-5.562l1.68 1.444 20.397-23.62-1.68-1.443-20.397 23.62zm-2.37-2.034l2.386 2.05 1.57-1.82-2.384-2.05-1.572 1.82zm18.836-21.81l2.385 2.05 1.572-1.82-2.385-2.05-1.57 1.82zm-15.655 18.224l2.386 2.05 1.57-1.82-2.384-2.05-1.57 1.82zm12.44-14.503l2.386 2.05 1.57-1.82-2.384-2.05-1.572 1.82zm-11.686 8.998l2.385 2.05 1.57-1.818-2.384-2.05-1.572 1.82zm6.264-7.254l2.386 2.05 1.57-1.82-2.384-2.05-1.572 1.82zm-3.097 3.49l2.386 2.05 1.57-1.82-2.384-2.05-1.57 1.82zm-.768 5.835l2.28 1.962 7.832-9.07-2.28-1.96-7.832 9.07z" fill="#ff0"/><g fill="red"><path d="M137.975 321.062l1.572-1.82 2.385 2.05-1.572 1.82zM144.974 312.86l1.572-1.82 2.385 2.05-1.57 1.82z"/></g><path d="M240.608 332.262l-1.775 1.526-20.397-23.62 1.775-1.526 20.398 23.62zm3.13-6.26l-4.943 4.247-17.337-20.077 4.94-4.248L243.74 326zm-14.718 15.737l-1.775 1.526-20.397-23.62 1.775-1.526 20.397 23.62zm-4.917-6.802c3.226-2.77 3.707-7.49 1.076-10.536-2.628-3.052-7.377-3.282-10.602-.514-.026.022-.048.04-.073.063m9.808 11.878c3.583-3.077 4.118-8.32 1.194-11.707-2.918-3.39-8.195-3.646-11.78-.57-.027.025-.05.045-.08.07m22.93 8.537l-8.878 7.632-17.338-20.078 8.877-7.63 17.336 20.075zm10.623-5.562l-1.68 1.444-20.396-23.62 1.68-1.444 20.396 23.62zm2.37-2.034l-2.385 2.052-1.57-1.82 2.384-2.05 1.57 1.82zm-18.835-21.81l-2.385 2.05-1.572-1.82 2.386-2.05 1.57 1.82zm15.655 18.225l-2.385 2.05-1.572-1.82 2.386-2.05 1.57 1.82zm-12.44-14.503l-2.385 2.05-1.57-1.82 2.384-2.05 1.57 1.82zm11.687 8.998l-2.386 2.05-1.57-1.82 2.385-2.05 1.572 1.82zm-6.265-7.255l-2.385 2.05-1.57-1.82 2.384-2.05 1.572 1.82zm3.098 3.49l-2.385 2.05-1.572-1.82 2.386-2.05 1.57 1.82zm.77 5.835l-2.282 1.96-7.83-9.068 2.28-1.96 7.83 9.068z" fill="#ff0"/><g fill="red"><path d="M239.735 320.69l-1.572-1.82-2.385 2.052 1.57 1.82zM232.735 312.488l-1.57-1.82-2.386 2.05 1.57 1.82z"/></g><g><g transform="matrix(.1 0 0 .1 -118.3 413)"><g fill="#3b3bff"><g transform="matrix(.1 0 0 .1 2979.2 -840.1)"><path d="M-850.89-7147h1590.9v1171.1h-1590.9z"/><ellipse transform="matrix(1.1 0 0 1.1 -3130.4 -10547)" cx="2861.4" rx="740.21" cy="4267.3" ry="696.02"/></g><g transform="matrix(.1 0 0 .1 2084.7 -1359.7)"><path d="M5478.8-3340.7h859.09v632.38H5478.8z"/><ellipse transform="matrix(.6 0 0 .6 4247.9 -5088.5)" cx="2861.4" rx="740.21" cy="4267.3" ry="696.02"/></g><g><g transform="matrix(.1 0 0 .1 2978.8 -886.7)"><path d="M-850.89-7147h1590.9v1171.1h-1590.9z"/><ellipse transform="matrix(1.1 0 0 1.1 -3130.4 -10547)" cx="2861.4" rx="740.21" cy="4267.3" ry="696.02"/></g><g transform="matrix(.1 0 0 .1 2129 -1380.3)"><path d="M5478.8-3340.7h859.09v632.38H5478.8z"/><ellipse transform="matrix(.6 0 0 .6 4247.9 -5088.5)" cx="2861.4" rx="740.21" cy="4267.3" ry="696.02"/></g><g transform="matrix(.1 0 0 .1 2975.6 -1243.4)"><path d="M-850.89-7147h1590.9v1171.1h-1590.9z"/><ellipse transform="matrix(1.1 0 0 1.1 -3130.4 -10547)" cx="2861.4" rx="740.21" cy="4267.3" ry="696.02"/></g><g transform="matrix(.1 0 0 .1 2468.4 -1537.9)"><path d="M5478.8-3340.7h859.09v632.38H5478.8z"/><ellipse transform="matrix(.6 0 0 .6 4247.9 -5088.5)" cx="2861.4" rx="740.21" cy="4267.3" ry="696.02"/></g><g><g transform="matrix(.1 0 0 .1 2975.2 -1294.8)"><path d="M-850.89-7147h1590.9v1171.1h-1590.9z"/><ellipse transform="matrix(1.1 0 0 1.1 -3130.4 -10547)" cx="2861.4" rx="740.21" cy="4267.3" ry="696.02"/></g><g transform="matrix(.1 0 0 .1 2517.4 -1560.7)"><path d="M5478.8-3340.7h859.09v632.38H5478.8z"/><ellipse transform="matrix(.6 0 0 .6 4247.9 -5088.5)" cx="2861.4" rx="740.21" cy="4267.3" ry="696.02"/></g></g></g></g><ellipse fill="#fff" transform="translate(-3.8 -7.6)" cx="2903" rx="35.688" cy="-1854.9" ry="35.688"/><ellipse fill="#fff" transform="translate(130 -7.6)" cx="2903" rx="35.688" cy="-1854.9" ry="35.688"/><ellipse fill="#fff" transform="translate(61.9 67.6)" cx="2903" rx="35.688" cy="-1854.9" ry="35.688"/><ellipse fill="#fff" transform="translate(1.4 140.4)" cx="2903" rx="35.688" cy="-1854.9" ry="35.688"/><ellipse fill="#fff" transform="translate(128.6 142.8)" cx="2903" rx="35.688" cy="-1854.9" ry="35.688"/></g><g transform="matrix(.1 0 0 .1 -118.3 444.9)"><g fill="#3b3bff"><g transform="matrix(.1 0 0 .1 2979.2 -840.1)"><path d="M-850.89-7147h1590.9v1171.1h-1590.9z"/><ellipse transform="matrix(1.1 0 0 1.1 -3130.4 -10547)" cx="2861.4" rx="740.21" cy="4267.3" ry="696.02"/></g><g transform="matrix(.1 0 0 .1 2084.7 -1359.7)"><path d="M5478.8-3340.7h859.09v632.38H5478.8z"/><ellipse transform="matrix(.6 0 0 .6 4247.9 -5088.5)" cx="2861.4" rx="740.21" cy="4267.3" ry="696.02"/></g><g><g transform="matrix(.1 0 0 .1 2978.8 -886.7)"><path d="M-850.89-7147h1590.9v1171.1h-1590.9z"/><ellipse transform="matrix(1.1 0 0 1.1 -3130.4 -10547)" cx="2861.4" rx="740.21" cy="4267.3" ry="696.02"/></g><g transform="matrix(.1 0 0 .1 2129 -1380.3)"><path d="M5478.8-3340.7h859.09v632.38H5478.8z"/><ellipse transform="matrix(.6 0 0 .6 4247.9 -5088.5)" cx="2861.4" rx="740.21" cy="4267.3" ry="696.02"/></g><g transform="matrix(.1 0 0 .1 2975.6 -1243.4)"><path d="M-850.89-7147h1590.9v1171.1h-1590.9z"/><ellipse transform="matrix(1.1 0 0 1.1 -3130.4 -10547)" cx="2861.4" rx="740.21" cy="4267.3" ry="696.02"/></g><g transform="matrix(.1 0 0 .1 2468.4 -1537.9)"><path d="M5478.8-3340.7h859.09v632.38H5478.8z"/><ellipse transform="matrix(.6 0 0 .6 4247.9 -5088.5)" cx="2861.4" rx="740.21" cy="4267.3" ry="696.02"/></g><g><g transform="matrix(.1 0 0 .1 2975.2 -1294.8)"><path d="M-850.89-7147h1590.9v1171.1h-1590.9z"/><ellipse transform="matrix(1.1 0 0 1.1 -3130.4 -10547)" cx="2861.4" rx="740.21" cy="4267.3" ry="696.02"/></g><g transform="matrix(.1 0 0 .1 2517.4 -1560.7)"><path d="M5478.8-3340.7h859.09v632.38H5478.8z"/><ellipse transform="matrix(.6 0 0 .6 4247.9 -5088.5)" cx="2861.4" rx="740.21" cy="4267.3" ry="696.02"/></g></g></g></g><ellipse fill="#fff" transform="translate(-3.8 -7.6)" cx="2903" rx="35.688" cy="-1854.9" ry="35.688"/><ellipse fill="#fff" transform="translate(130 -7.6)" cx="2903" rx="35.688" cy="-1854.9" ry="35.688"/><ellipse fill="#fff" transform="translate(61.9 67.6)" cx="2903" rx="35.688" cy="-1854.9" ry="35.688"/><ellipse fill="#fff" transform="translate(1.4 140.4)" cx="2903" rx="35.688" cy="-1854.9" ry="35.688"/><ellipse fill="#fff" transform="translate(128.6 142.8)" cx="2903" rx="35.688" cy="-1854.9" ry="35.688"/></g><g transform="matrix(.1 0 0 .1 -91 444.9)"><g fill="#3b3bff"><g transform="matrix(.1 0 0 .1 2979.2 -840.1)"><path d="M-850.89-7147h1590.9v1171.1h-1590.9z"/><ellipse transform="matrix(1.1 0 0 1.1 -3130.4 -10547)" cx="2861.4" rx="740.21" cy="4267.3" ry="696.02"/></g><g transform="matrix(.1 0 0 .1 2084.7 -1359.7)"><path d="M5478.8-3340.7h859.09v632.38H5478.8z"/><ellipse transform="matrix(.6 0 0 .6 4247.9 -5088.5)" cx="2861.4" rx="740.21" cy="4267.3" ry="696.02"/></g><g><g transform="matrix(.1 0 0 .1 2978.8 -886.7)"><path d="M-850.89-7147h1590.9v1171.1h-1590.9z"/><ellipse transform="matrix(1.1 0 0 1.1 -3130.4 -10547)" cx="2861.4" rx="740.21" cy="4267.3" ry="696.02"/></g><g transform="matrix(.1 0 0 .1 2129 -1380.3)"><path d="M5478.8-3340.7h859.09v632.38H5478.8z"/><ellipse transform="matrix(.6 0 0 .6 4247.9 -5088.5)" cx="2861.4" rx="740.21" cy="4267.3" ry="696.02"/></g><g transform="matrix(.1 0 0 .1 2975.6 -1243.4)"><path d="M-850.89-7147h1590.9v1171.1h-1590.9z"/><ellipse transform="matrix(1.1 0 0 1.1 -3130.4 -10547)" cx="2861.4" rx="740.21" cy="4267.3" ry="696.02"/></g><g transform="matrix(.1 0 0 .1 2468.4 -1537.9)"><path d="M5478.8-3340.7h859.09v632.38H5478.8z"/><ellipse transform="matrix(.6 0 0 .6 4247.9 -5088.5)" cx="2861.4" rx="740.21" cy="4267.3" ry="696.02"/></g><g><g transform="matrix(.1 0 0 .1 2975.2 -1294.8)"><path d="M-850.89-7147h1590.9v1171.1h-1590.9z"/><ellipse transform="matrix(1.1 0 0 1.1 -3130.4 -10547)" cx="2861.4" rx="740.21" cy="4267.3" ry="696.02"/></g><g transform="matrix(.1 0 0 .1 2517.4 -1560.7)"><path d="M5478.8-3340.7h859.09v632.38H5478.8z"/><ellipse transform="matrix(.6 0 0 .6 4247.9 -5088.5)" cx="2861.4" rx="740.21" cy="4267.3" ry="696.02"/></g></g></g></g><ellipse fill="#fff" transform="translate(-3.8 -7.6)" cx="2903" rx="35.688" cy="-1854.9" ry="35.688"/><ellipse fill="#fff" transform="translate(130 -7.6)" cx="2903" rx="35.688" cy="-1854.9" ry="35.688"/><ellipse fill="#fff" transform="translate(61.9 67.6)" cx="2903" rx="35.688" cy="-1854.9" ry="35.688"/><ellipse fill="#fff" transform="translate(1.4 140.4)" cx="2903" rx="35.688" cy="-1854.9" ry="35.688"/><ellipse fill="#fff" transform="translate(128.6 142.8)" cx="2903" rx="35.688" cy="-1854.9" ry="35.688"/></g><g transform="matrix(.1 0 0 .1 -145.7 444.9)"><g fill="#3b3bff"><g transform="matrix(.1 0 0 .1 2979.2 -840.1)"><path d="M-850.89-7147h1590.9v1171.1h-1590.9z"/><ellipse transform="matrix(1.1 0 0 1.1 -3130.4 -10547)" cx="2861.4" rx="740.21" cy="4267.3" ry="696.02"/></g><g transform="matrix(.1 0 0 .1 2084.7 -1359.7)"><path d="M5478.8-3340.7h859.09v632.38H5478.8z"/><ellipse transform="matrix(.6 0 0 .6 4247.9 -5088.5)" cx="2861.4" rx="740.21" cy="4267.3" ry="696.02"/></g><g><g transform="matrix(.1 0 0 .1 2978.8 -886.7)"><path d="M-850.89-7147h1590.9v1171.1h-1590.9z"/><ellipse transform="matrix(1.1 0 0 1.1 -3130.4 -10547)" cx="2861.4" rx="740.21" cy="4267.3" ry="696.02"/></g><g transform="matrix(.1 0 0 .1 2129 -1380.3)"><path d="M5478.8-3340.7h859.09v632.38H5478.8z"/><ellipse transform="matrix(.6 0 0 .6 4247.9 -5088.5)" cx="2861.4" rx="740.21" cy="4267.3" ry="696.02"/></g><g transform="matrix(.1 0 0 .1 2975.6 -1243.4)"><path d="M-850.89-7147h1590.9v1171.1h-1590.9z"/><ellipse transform="matrix(1.1 0 0 1.1 -3130.4 -10547)" cx="2861.4" rx="740.21" cy="4267.3" ry="696.02"/></g><g transform="matrix(.1 0 0 .1 2468.4 -1537.9)"><path d="M5478.8-3340.7h859.09v632.38H5478.8z"/><ellipse transform="matrix(.6 0 0 .6 4247.9 -5088.5)" cx="2861.4" rx="740.21" cy="4267.3" ry="696.02"/></g><g><g transform="matrix(.1 0 0 .1 2975.2 -1294.8)"><path d="M-850.89-7147h1590.9v1171.1h-1590.9z"/><ellipse transform="matrix(1.1 0 0 1.1 -3130.4 -10547)" cx="2861.4" rx="740.21" cy="4267.3" ry="696.02"/></g><g transform="matrix(.1 0 0 .1 2517.4 -1560.7)"><path d="M5478.8-3340.7h859.09v632.38H5478.8z"/><ellipse transform="matrix(.6 0 0 .6 4247.9 -5088.5)" cx="2861.4" rx="740.21" cy="4267.3" ry="696.02"/></g></g></g></g><ellipse fill="#fff" transform="translate(-3.8 -7.6)" cx="2903" rx="35.688" cy="-1854.9" ry="35.688"/><ellipse fill="#fff" transform="translate(130 -7.6)" cx="2903" rx="35.688" cy="-1854.9" ry="35.688"/><ellipse fill="#fff" transform="translate(61.9 67.6)" cx="2903" rx="35.688" cy="-1854.9" ry="35.688"/><ellipse fill="#fff" transform="translate(1.4 140.4)" cx="2903" rx="35.688" cy="-1854.9" ry="35.688"/><ellipse fill="#fff" transform="translate(128.6 142.8)" cx="2903" rx="35.688" cy="-1854.9" ry="35.688"/></g></g></g></g></g></svg>