<svg xmlns="http://www.w3.org/2000/svg" height="512" width="512"><defs><clipPath id="a"><path fill-opacity=".67" d="M248.03 0h496.06v496.06H248.03z"/></clipPath></defs><g clip-path="url(#a)" transform="matrix(1 0 0 1 -256 0)"><g fill-rule="evenodd" stroke-width="1pt"><path fill="#fff" d="M0 166.54h992.13v162.99H0z"/><path fill="#3d25ca" d="M0 329.53h992.13v166.54H0z"/><path fill="#d60000" d="M0 0h992.13v166.54H0z"/></g><path d="M744.14 567.26c0 192.48-157.09 348.52-350.87 348.52S42.4 759.74 42.4 567.26s157.09-348.52 350.87-348.52 350.87 156.04 350.87 348.52z" fill-rule="evenodd" transform="matrix(.2 0 0 .2 424.6 144.2)" stroke="#000" stroke-width="12.5" fill="#fff"/><g stroke="#000" stroke-width="2.553"><g fill-rule="evenodd" fill="#006700"><path d="M259.03 105.71s400.32 70.645 414.45 395.62c14.13 324.97-188.39 367.36-259.03 419.16-70.645 51.807-113.03 113.03-146 113.03-32.968 0-80.065-14.13-80.065-14.13s9.42 51.81 75.355 47.1c65.936-4.71 127.16-113.03 164.84-131.87s277.88-98.9 259.04-428.58c-14.13-353.23-423.88-390.91-428.59-400.33z" transform="matrix(.1 0 0 .1 489.8 207.6)"/><path d="M320.26 487.2c0 59.825-11.597 108.32-25.903 108.32s-25.903-48.498-25.903-108.32c0-59.825 11.597-108.32 25.903-108.32s25.903 48.498 25.903 108.32z" transform="matrix(0 0 0 0 503.3 209.1)"/><path d="M320.26 487.2c0 59.825-11.597 108.32-25.903 108.32s-25.903-48.498-25.903-108.32c0-59.825 11.597-108.32 25.903-108.32s25.903 48.498 25.903 108.32z" transform="matrix(0 0 0 0 500.2 212.6)"/><path d="M320.26 487.2c0 59.825-11.597 108.32-25.903 108.32s-25.903-48.498-25.903-108.32c0-59.825 11.597-108.32 25.903-108.32s25.903 48.498 25.903 108.32z" transform="matrix(0 0 0 0 498.6 231)"/><path d="M320.26 487.2c0 59.825-11.597 108.32-25.903 108.32s-25.903-48.498-25.903-108.32c0-59.825 11.597-108.32 25.903-108.32s25.903 48.498 25.903 108.32z" transform="matrix(0 0 0 0 496.9 224)"/><path d="M320.26 487.2c0 59.825-11.597 108.32-25.903 108.32s-25.903-48.498-25.903-108.32c0-59.825 11.597-108.32 25.903-108.32s25.903 48.498 25.903 108.32z" transform="matrix(0 0 0 0 497.6 218.9)"/><path d="M151.53 682.7c0 1.665-41.628-24.978-49.954-33.303-8.333-8.33-6.668-46.62-33.31-64.94s-54.95-9.99-68.27 1.66c-13.32 11.656-8.326 38.298 23.312 61.61s53.284 1.666 69.936 9.99c16.65 8.327 43.294 24.977 56.615 38.298 13.32-9.99 46.622-21.646 64.94-29.972 18.315-8.325 64.94 11.656 96.577-11.656 26.642-18.316 38.297-56.614 19.98-68.27-18.316-11.656-51.618-6.66-71.6 4.996-19.98 11.656-29.97 58.28-49.954 66.605-14.986 4.995-56.614 28.307-58.28 24.977z" transform="matrix(0 0 0 0 508.4 223.3)"/><path d="M320.26 487.2c0 59.825-11.597 108.32-25.903 108.32s-25.903-48.498-25.903-108.32c0-59.825 11.597-108.32 25.903-108.32s25.903 48.498 25.903 108.32z" transform="matrix(0 0 0 0 510 203.1)"/><path d="M320.26 487.2c0 59.825-11.597 108.32-25.903 108.32s-25.903-48.498-25.903-108.32c0-59.825 11.597-108.32 25.903-108.32s25.903 48.498 25.903 108.32z" transform="matrix(0 0 0 0 504.6 206.7)"/><path d="M320.26 487.2c0 59.825-11.597 108.32-25.903 108.32s-25.903-48.498-25.903-108.32c0-59.825 11.597-108.32 25.903-108.32s25.903 48.498 25.903 108.32z" transform="matrix(0 0 0 0 496.3 232.3)"/><path d="M320.26 487.2c0 59.825-11.597 108.32-25.903 108.32s-25.903-48.498-25.903-108.32c0-59.825 11.597-108.32 25.903-108.32s25.903 48.498 25.903 108.32z" transform="matrix(0 0 0 0 496.2 221.5)"/><path d="M320.26 487.2c0 59.825-11.597 108.32-25.903 108.32s-25.903-48.498-25.903-108.32c0-59.825 11.597-108.32 25.903-108.32s25.903 48.498 25.903 108.32z" transform="matrix(0 0 0 0 498.9 214.6)"/><path d="M151.53 682.7c0 1.665-41.628-24.978-49.954-33.303-8.333-8.33-6.668-46.62-33.31-64.94s-54.95-9.99-68.27 1.66c-13.32 11.656-8.326 38.298 23.312 61.61s53.284 1.666 69.936 9.99c16.65 8.327 43.294 24.977 56.615 38.298 13.32-9.99 46.622-21.646 64.94-29.972 18.315-8.325 64.94 11.656 96.577-11.656 26.642-18.316 38.297-56.614 19.98-68.27-18.316-11.656-51.618-6.66-71.6 4.996-19.98 11.656-29.97 58.28-49.954 66.605-14.986 4.995-56.614 28.307-58.28 24.977z" transform="matrix(0 0 0 0 512.3 225.7)"/><g><path d="M320.26 487.2c0 59.825-11.597 108.32-25.903 108.32s-25.903-48.498-25.903-108.32c0-59.825 11.597-108.32 25.903-108.32s25.903 48.498 25.903 108.32z" transform="matrix(0 0 0 0 519 210.8)"/><path d="M320.26 487.2c0 59.825-11.597 108.32-25.903 108.32s-25.903-48.498-25.903-108.32c0-59.825 11.597-108.32 25.903-108.32s25.903 48.498 25.903 108.32z" transform="matrix(0 0 0 0 513.1 213.3)"/><path d="M320.26 487.2c0 59.825-11.597 108.32-25.903 108.32s-25.903-48.498-25.903-108.32c0-59.825 11.597-108.32 25.903-108.32s25.903 48.498 25.903 108.32z" transform="matrix(0 0 0 0 500.4 237)"/><path d="M320.26 487.2c0 59.825-11.597 108.32-25.903 108.32s-25.903-48.498-25.903-108.32c0-59.825 11.597-108.32 25.903-108.32s25.903 48.498 25.903 108.32z" transform="matrix(0 0 0 0 502.2 226.3)"/><path d="M320.26 487.2c0 59.825-11.597 108.32-25.903 108.32s-25.903-48.498-25.903-108.32c0-59.825 11.597-108.32 25.903-108.32s25.903 48.498 25.903 108.32z" transform="matrix(0 0 0 0 506 220)"/><path d="M151.53 682.7c0 1.665-41.628-24.978-49.954-33.303-8.333-8.33-6.668-46.62-33.31-64.94s-54.95-9.99-68.27 1.66c-13.32 11.656-8.326 38.298 23.312 61.61s53.284 1.666 69.936 9.99c16.65 8.327 43.294 24.977 56.615 38.298 13.32-9.99 46.622-21.646 64.94-29.972 18.315-8.325 64.94 11.656 96.577-11.656 26.642-18.316 38.297-56.614 19.98-68.27-18.316-11.656-51.618-6.66-71.6 4.996-19.98 11.656-29.97 58.28-49.954 66.605-14.986 4.995-56.614 28.307-58.28 24.977z" transform="matrix(0 0 0 0 517.2 233.6)"/></g><g><path d="M320.26 487.2c0 59.825-11.597 108.32-25.903 108.32s-25.903-48.498-25.903-108.32c0-59.825 11.597-108.32 25.903-108.32s25.903 48.498 25.903 108.32z" transform="matrix(0 0 0 0 531.2 220.3)"/><path d="M320.26 487.2c0 59.825-11.597 108.32-25.903 108.32s-25.903-48.498-25.903-108.32c0-59.825 11.597-108.32 25.903-108.32s25.903 48.498 25.903 108.32z" transform="matrix(0 0 0 0 524.9 220.2)"/><path d="M320.26 487.2c0 59.825-11.597 108.32-25.903 108.32s-25.903-48.498-25.903-108.32c0-59.825 11.597-108.32 25.903-108.32s25.903 48.498 25.903 108.32z" transform="matrix(0 0 0 0 504.2 236.9)"/><path d="M320.26 487.2c0 59.825-11.597 108.32-25.903 108.32s-25.903-48.498-25.903-108.32c0-59.825 11.597-108.32 25.903-108.32s25.903 48.498 25.903 108.32z" transform="matrix(0 0 0 0 510 227.7)"/><path d="M320.26 487.2c0 59.825-11.597 108.32-25.903 108.32s-25.903-48.498-25.903-108.32c0-59.825 11.597-108.32 25.903-108.32s25.903 48.498 25.903 108.32z" transform="matrix(0 0 0 .1 515.9 223.5)"/><path d="M151.53 682.7c0 1.665-41.628-24.978-49.954-33.303-8.333-8.33-6.668-46.62-33.31-64.94s-54.95-9.99-68.27 1.66c-13.32 11.656-8.326 38.298 23.312 61.61s53.284 1.666 69.936 9.99c16.65 8.327 43.294 24.977 56.615 38.298 13.32-9.99 46.622-21.646 64.94-29.972 18.315-8.325 64.94 11.656 96.577-11.656 26.642-18.316 38.297-56.614 19.98-68.27-18.316-11.656-51.618-6.66-71.6 4.996-19.98 11.656-29.97 58.28-49.954 66.605-14.986 4.995-56.614 28.307-58.28 24.977z" transform="matrix(0 0 0 0 520.8 240.7)"/></g><g><path d="M320.26 487.2c0 59.825-11.597 108.32-25.903 108.32s-25.903-48.498-25.903-108.32c0-59.825 11.597-108.32 25.903-108.32s25.903 48.498 25.903 108.32z" transform="matrix(0 0 0 0 538.4 229.6)"/><path d="M320.26 487.2c0 59.825-11.597 108.32-25.903 108.32s-25.903-48.498-25.903-108.32c0-59.825 11.597-108.32 25.903-108.32s25.903 48.498 25.903 108.32z" transform="matrix(0 0 0 0 531.5 227.1)"/><path d="M320.26 487.2c0 59.825-11.597 108.32-25.903 108.32s-25.903-48.498-25.903-108.32c0-59.825 11.597-108.32 25.903-108.32s25.903 48.498 25.903 108.32z" transform="matrix(0 0 0 .1 503.2 238.1)"/><path d="M320.26 487.2c0 59.825-11.597 108.32-25.903 108.32s-25.903-48.498-25.903-108.32c0-59.825 11.597-108.32 25.903-108.32s25.903 48.498 25.903 108.32z" transform="matrix(0 0 0 .1 512.6 230)"/><path d="M320.26 487.2c0 59.825-11.597 108.32-25.903 108.32s-25.903-48.498-25.903-108.32c0-59.825 11.597-108.32 25.903-108.32s25.903 48.498 25.903 108.32z" transform="matrix(0 0 0 .1 520.5 227.5)"/><path d="M151.53 682.7c0 1.665-41.628-24.978-49.954-33.303-8.333-8.33-6.668-46.62-33.31-64.94s-54.95-9.99-68.27 1.66c-13.32 11.656-8.326 38.298 23.312 61.61s53.284 1.666 69.936 9.99c16.65 8.327 43.294 24.977 56.615 38.298 13.32-9.99 46.622-21.646 64.94-29.972 18.315-8.325 64.94 11.656 96.577-11.656 26.642-18.316 38.297-56.614 19.98-68.27-18.316-11.656-51.618-6.66-71.6 4.996-19.98 11.656-29.97 58.28-49.954 66.605-14.986 4.995-56.614 28.307-58.28 24.977z" transform="matrix(0 0 0 0 520.1 248.3)"/></g><g><path d="M320.26 487.2c0 59.825-11.597 108.32-25.903 108.32s-25.903-48.498-25.903-108.32c0-59.825 11.597-108.32 25.903-108.32s25.903 48.498 25.903 108.32z" transform="matrix(0 .1 -.1 0 547.8 248.6)"/><path d="M320.26 487.2c0 59.825-11.597 108.32-25.903 108.32s-25.903-48.498-25.903-108.32c0-59.825 11.597-108.32 25.903-108.32s25.903 48.498 25.903 108.32z" transform="matrix(0 .1 -.1 0 542.5 242.3)"/><path d="M320.26 487.2c0 59.825-11.597 108.32-25.903 108.32s-25.903-48.498-25.903-108.32c0-59.825 11.597-108.32 25.903-108.32s25.903 48.498 25.903 108.32z" transform="matrix(.1 0 0 .1 509.2 236.3)"/><path d="M320.26 487.2c0 59.825-11.597 108.32-25.903 108.32s-25.903-48.498-25.903-108.32c0-59.825 11.597-108.32 25.903-108.32s25.903 48.498 25.903 108.32z" transform="matrix(0 0 0 0 522.6 234.1)"/><path d="M320.26 487.2c0 59.825-11.597 108.32-25.903 108.32s-25.903-48.498-25.903-108.32c0-59.825 11.597-108.32 25.903-108.32s25.903 48.498 25.903 108.32z" transform="matrix(0 0 -.1 0 531.7 236.3)"/><path d="M151.53 682.7c0 1.665-41.628-24.978-49.954-33.303-8.333-8.33-6.668-46.62-33.31-64.94s-54.95-9.99-68.27 1.66c-13.32 11.656-8.326 38.298 23.312 61.61s53.284 1.666 69.936 9.99c16.65 8.327 43.294 24.977 56.615 38.298 13.32-9.99 46.622-21.646 64.94-29.972 18.315-8.325 64.94 11.656 96.577-11.656 26.642-18.316 38.297-56.614 19.98-68.27-18.316-11.656-51.618-6.66-71.6 4.996-19.98 11.656-29.97 58.28-49.954 66.605-14.986 4.995-56.614 28.307-58.28 24.977z" transform="matrix(0 0 0 0 520 255.9)"/></g><g><path d="M314.71 506.2c0 45.062-10.064 81.59-22.48 81.59s-22.478-36.53-22.478-81.59c0-45.062 10.064-81.59 22.48-81.59s22.478 36.53 22.478 81.59z" transform="matrix(0 .1 -.1 0 547.4 251.3)"/><path d="M314.71 506.2c0 45.062-10.064 81.59-22.48 81.59s-22.478-36.53-22.478-81.59c0-45.062 10.064-81.59 22.48-81.59s22.478 36.53 22.478 81.59z" transform="matrix(.1 .1 0 .1 512.7 223.3)"/><path d="M314.71 506.2c0 45.062-10.064 81.59-22.48 81.59s-22.478-36.53-22.478-81.59c0-45.062 10.064-81.59 22.48-81.59s22.478 36.53 22.478 81.59z" transform="matrix(0 .1 -.1 0 535.4 235)"/></g><g><path d="M314.71 506.2c0 45.062-10.064 81.59-22.48 81.59s-22.478-36.53-22.478-81.59c0-45.062 10.064-81.59 22.48-81.59s22.478 36.53 22.478 81.59z" transform="matrix(0 0 0 0 480.2 208.2)"/><path d="M314.71 506.2c0 45.062-10.064 81.59-22.48 81.59s-22.478-36.53-22.478-81.59c0-45.062 10.064-81.59 22.48-81.59s22.478 36.53 22.478 81.59z" transform="matrix(0 0 0 0 484.6 229)"/><path d="M314.71 506.2c0 45.062-10.064 81.59-22.48 81.59s-22.478-36.53-22.478-81.59c0-45.062 10.064-81.59 22.48-81.59s22.478 36.53 22.478 81.59z" transform="matrix(0 0 0 0 479 216.8)"/></g></g><g fill-rule="evenodd" fill="#006700"><path d="M339.1 586.1s113.03 32.968 211.94 89.484c98.904 56.516 252.16 272.38 292.21 280.92 44.682-1.342 105.85-37.846 126.48-164.27-67.86 43.25-107.82 101.54-174.96 40.06-23.55-14.13-102.44-137.87-187.22-199.09-84.77-61.23-254.32-122.45-254.32-122.45L339.1 586.11z" transform="matrix(0 0 0 0 463.4 255.8)"/><path d="M332.03 604.94c1.177 0 21.194-164.84 21.194-164.84l17.66 164.84-20.015 28.258-18.84-28.258z" transform="matrix(0 0 0 0 514.3 226.8)"/><path d="M248.44 462.47c29.436 48.274 77.71 121.28 101.26 170.73 26.295-51.807 74.962-128.34 104.79-175.44-31.79 36.107-71.822 88.7-104.79 116.56-33.36-27.866-70.253-78.103-101.26-111.86z" transform="matrix(0 0 0 0 513.2 227.1)"/><path d="M332.03 604.94c1.177 0 21.194-164.84 21.194-164.84l17.66 164.84-20.015 28.258-18.84-28.258z" transform="matrix(0 0 0 0 513.3 222.3)"/><path d="M248.44 462.47c29.436 48.274 77.71 121.28 101.26 170.73 26.295-51.807 74.962-128.34 104.79-175.44-31.79 36.107-71.822 88.7-104.79 116.56-33.36-27.866-70.253-78.103-101.26-111.86z" transform="matrix(0 0 0 0 512.2 227.2)"/><path d="M332.03 604.94c1.177 0 21.194-164.84 21.194-164.84l17.66 164.84-20.015 28.258-18.84-28.258z" transform="matrix(0 0 0 0 511.9 230)"/><path d="M248.44 462.47c29.436 48.274 77.71 121.28 101.26 170.73 26.295-51.807 74.962-128.34 104.79-175.44-31.79 36.107-71.822 88.7-104.79 116.56-33.36-27.866-70.253-78.103-101.26-111.86z" transform="matrix(0 0 0 0 511.6 224.9)"/><path d="M332.03 604.94c1.177 0 21.194-164.84 21.194-164.84l17.66 164.84-20.015 28.258-18.84-28.258z" transform="matrix(0 0 0 0 510.6 216.4)"/><path d="M248.44 462.47c29.436 48.274 77.71 121.28 101.26 170.73 26.295-51.807 74.962-128.34 104.79-175.44-31.79 36.107-71.822 88.7-104.79 116.56-33.36-27.866-70.253-78.103-101.26-111.86z" transform="matrix(0 0 0 0 513 223.7)"/><path d="M332.03 604.94c1.177 0 21.194-164.84 21.194-164.84l17.66 164.84-20.015 28.258-18.84-28.258z" transform="matrix(0 0 0 0 512.7 222.3)"/><path d="M248.44 462.47c29.436 48.274 77.71 121.28 101.26 170.73 26.295-51.807 74.962-128.34 104.79-175.44-31.79 36.107-71.822 88.7-104.79 116.56-33.36-27.866-70.253-78.103-101.26-111.86z" transform="matrix(0 0 0 0 513.9 223.2)"/><path d="M332.03 604.94c1.177 0 21.194-164.84 21.194-164.84l17.66 164.84-20.015 28.258-18.84-28.258z" transform="matrix(0 0 0 0 513.8 221.6)"/><path d="M248.44 462.47c29.436 48.274 77.71 121.28 101.26 170.73 26.295-51.807 74.962-128.34 104.79-175.44-31.79 36.107-71.822 88.7-104.79 116.56-33.36-27.866-70.253-78.103-101.26-111.86z" transform="matrix(0 0 0 0 512.4 219.7)"/><path d="M332.03 604.94c1.177 0 21.194-164.84 21.194-164.84l17.66 164.84-20.015 28.258-18.84-28.258z" transform="matrix(0 0 0 0 511.6 213.8)"/><path d="M248.44 462.47c29.436 48.274 77.71 121.28 101.26 170.73 26.295-51.807 74.962-128.34 104.79-175.44-31.79 36.107-71.822 88.7-104.79 116.56-33.36-27.866-70.253-78.103-101.26-111.86z" transform="matrix(0 0 0 0 511.2 221.9)"/><path d="M332.03 604.94c1.177 0 21.194-164.84 21.194-164.84l17.66 164.84-20.015 28.258-18.84-28.258z" transform="matrix(0 0 0 0 511.6 223.7)"/><path d="M248.44 462.47c29.436 48.274 77.71 121.28 101.26 170.73 26.295-51.807 74.962-128.34 104.79-175.44-31.79 36.107-71.822 88.7-104.79 116.56-33.36-27.866-70.253-78.103-101.26-111.86z" transform="matrix(0 0 0 0 510.1 219.1)"/><path d="M332.03 604.94c1.177 0 21.194-164.84 21.194-164.84l17.66 164.84-20.015 28.258-18.84-28.258z" transform="matrix(0 0 0 0 508.1 209.5)"/><path d="M248.44 462.47c29.436 48.274 77.71 121.28 101.26 170.73 26.295-51.807 74.962-128.34 104.79-175.44-31.79 36.107-71.822 88.7-104.79 116.56-33.36-27.866-70.253-78.103-101.26-111.86z" transform="matrix(0 0 0 0 511.8 217.7)"/><path d="M332.03 604.94c1.177 0 21.194-164.84 21.194-164.84l17.66 164.84-20.015 28.258-18.84-28.258z" transform="matrix(0 0 0 0 511.2 216.1)"/><path d="M248.44 462.47c29.436 48.274 77.71 121.28 101.26 170.73 26.295-51.807 74.962-128.34 104.79-175.44-31.79 36.107-71.822 88.7-104.79 116.56-33.36-27.866-70.253-78.103-101.26-111.86z" transform="matrix(0 0 0 0 510.1 217.2)"/><path d="M332.03 604.94c1.177 0 21.194-164.84 21.194-164.84l17.66 164.84-20.015 28.258-18.84-28.258z" transform="matrix(0 0 0 0 507.8 211)"/><path d="M248.44 462.47c29.436 48.274 77.71 121.28 101.26 170.73 26.295-51.807 74.962-128.34 104.79-175.44-31.79 36.107-71.822 88.7-104.79 116.56-33.36-27.866-70.253-78.103-101.26-111.86z" transform="matrix(0 0 0 0 509.8 220.6)"/><path d="M332.03 604.94c1.177 0 21.194-164.84 21.194-164.84l17.66 164.84-20.015 28.258-18.84-28.258z" transform="matrix(0 0 0 0 510.7 224.8)"/><path d="M248.44 462.47c29.436 48.274 77.71 121.28 101.26 170.73 26.295-51.807 74.962-128.34 104.79-175.44-31.79 36.107-71.822 88.7-104.79 116.56-33.36-27.866-70.253-78.103-101.26-111.86z" transform="matrix(0 0 0 0 508.2 224.4)"/><path d="M332.03 604.94c1.177 0 21.194-164.84 21.194-164.84l17.66 164.84-20.015 28.258-18.84-28.258z" transform="matrix(0 0 0 0 506 213.3)"/><path d="M248.44 462.47c29.436 48.274 77.71 121.28 101.26 170.73 26.295-51.807 74.962-128.34 104.79-175.44-31.79 36.107-71.822 88.7-104.79 116.56-33.36-27.866-70.253-78.103-101.26-111.86z" transform="matrix(0 0 0 .1 510.7 214.6)"/><path d="M332.03 604.94c1.177 0 21.194-164.84 21.194-164.84l17.66 164.84-20.015 28.258-18.84-28.258z" transform="matrix(0 0 0 .1 510 212.9)"/><path d="M248.44 462.47c29.436 48.274 77.71 121.28 101.26 170.73 26.295-51.807 74.962-128.34 104.79-175.44-31.79 36.107-71.822 88.7-104.79 116.56-33.36-27.866-70.253-78.103-101.26-111.86z" transform="matrix(0 0 0 .1 508.8 214.3)"/><path d="M332.03 604.94c1.177 0 21.194-164.84 21.194-164.84l17.66 164.84-20.015 28.258-18.84-28.258z" transform="matrix(-.1 0 0 .1 505.9 207.6)"/><path d="M248.44 462.47c29.436 48.274 77.71 121.28 101.26 170.73 26.295-51.807 74.962-128.34 104.79-175.44-31.79 36.107-71.822 88.7-104.79 116.56-33.36-27.866-70.253-78.103-101.26-111.86z" transform="matrix(0 0 0 .1 507.3 215)"/><path d="M332.03 604.94c1.177 0 21.194-164.84 21.194-164.84l17.66 164.84-20.015 28.258-18.84-28.258z" transform="matrix(0 0 0 .1 509.1 219.4)"/><path d="M248.44 462.47c29.436 48.274 77.71 121.28 101.26 170.73 26.295-51.807 74.962-128.34 104.79-175.44-31.79 36.107-71.822 88.7-104.79 116.56-33.36-27.866-70.253-78.103-101.26-111.86z" transform="matrix(-.1 0 0 .1 503.5 207.8)"/><path d="M332.03 604.94c1.177 0 21.194-164.84 21.194-164.84l17.66 164.84-20.015 28.258-18.84-28.258z" transform="matrix(-.1 0 0 .1 496.2 198.4)"/><path d="M248.44 462.47c29.436 48.274 77.71 121.28 101.26 170.73 26.295-51.807 74.962-128.34 104.79-175.44-31.79 36.107-71.822 88.7-104.79 116.56-33.36-27.866-70.253-78.103-101.26-111.86z" transform="matrix(-.1 0 0 .1 502.7 209)"/><path d="M332.03 604.94c1.177 0 21.194-164.84 21.194-164.84l17.66 164.84-20.015 28.258-18.84-28.258z" transform="matrix(-.1 0 0 .1 501.8 207.3)"/><path d="M248.44 462.47c29.436 48.274 77.71 121.28 101.26 170.73 26.295-51.807 74.962-128.34 104.79-175.44-31.79 36.107-71.822 88.7-104.79 116.56-33.36-27.866-70.253-78.103-101.26-111.86z" transform="matrix(-.1 0 0 .1 500.8 205.6)"/><path d="M332.03 604.94c1.177 0 21.194-164.84 21.194-164.84l17.66 164.84-20.015 28.258-18.84-28.258z" transform="matrix(-.1 0 0 .1 495.7 200.3)"/><path d="M248.44 462.47c29.436 48.274 77.71 121.28 101.26 170.73 26.295-51.807 74.962-128.34 104.79-175.44-31.79 36.107-71.822 88.7-104.79 116.56-33.36-27.866-70.253-78.103-101.26-111.86z" transform="matrix(-.1 0 0 .1 501.8 210)"/><path d="M332.03 604.94c1.177 0 21.194-164.84 21.194-164.84l17.66 164.84-20.015 28.258-18.84-28.258z" transform="matrix(-.1 0 0 .1 504.6 213.9)"/><path d="M248.44 462.47c29.436 48.274 77.71 121.28 101.26 170.73 26.295-51.807 74.962-128.34 104.79-175.44-31.79 36.107-71.822 88.7-104.79 116.56-33.36-27.866-70.253-78.103-101.26-111.86z" transform="matrix(-.1 0 0 .1 498.6 207.2)"/><path d="M332.03 604.94c1.177 0 21.194-164.84 21.194-164.84l17.66 164.84-20.015 28.258-18.84-28.258z" transform="matrix(-.1 0 0 .1 491.6 199.4)"/><path d="M248.44 462.47c29.436 48.274 77.71 121.28 101.26 170.73 26.295-51.807 74.962-128.34 104.79-175.44-31.79 36.107-71.822 88.7-104.79 116.56-33.36-27.866-70.253-78.103-101.26-111.86z" transform="matrix(-.1 0 0 .1 496.5 207.8)"/><path d="M332.03 604.94c1.177 0 21.194-164.84 21.194-164.84l17.66 164.84-20.015 28.258-18.84-28.258z" transform="matrix(-.1 0 0 .1 495.4 206.2)"/><path d="M248.44 462.47c29.436 48.274 77.71 121.28 101.26 170.73 26.295-51.807 74.962-128.34 104.79-175.44-31.79 36.107-71.822 88.7-104.79 116.56-33.36-27.866-70.253-78.103-101.26-111.86z" transform="matrix(-.1 0 0 .1 493.9 206.3)"/><path d="M332.03 604.94c1.177 0 21.194-164.84 21.194-164.84l17.66 164.84-20.015 28.258-18.84-28.258z" transform="matrix(-.1 0 0 .1 488.6 201.5)"/><path d="M248.44 462.47c29.436 48.274 77.71 121.28 101.26 170.73 26.295-51.807 74.962-128.34 104.79-175.44-31.79 36.107-71.822 88.7-104.79 116.56-33.36-27.866-70.253-78.103-101.26-111.86z" transform="matrix(-.1 0 0 .1 492.3 205.8)"/><path d="M332.03 604.94c1.177 0 21.194-164.84 21.194-164.84l17.66 164.84-20.015 28.258-18.84-28.258z" transform="matrix(-.1 0 0 .1 495.9 208.9)"/><path d="M248.44 462.47c29.436 48.274 77.71 121.28 101.26 170.73 26.295-51.807 74.962-128.34 104.79-175.44-31.79 36.107-71.822 88.7-104.79 116.56-33.36-27.866-70.253-78.103-101.26-111.86z" transform="matrix(-.1 0 0 .1 489.1 204.5)"/><path d="M332.03 604.94c1.177 0 21.194-164.84 21.194-164.84l17.66 164.84-20.015 28.258-18.84-28.258z" transform="matrix(-.1 0 0 .1 479.1 198.2)"/><path d="M248.44 462.47c29.436 48.274 77.71 121.28 101.26 170.73 26.295-51.807 74.962-128.34 104.79-175.44-31.79 36.107-71.822 88.7-104.79 116.56-33.36-27.866-70.253-78.103-101.26-111.86z" transform="matrix(-.1 0 0 .1 489.7 205.9)"/><path d="M332.03 604.94c1.177 0 21.194-164.84 21.194-164.84l17.66 164.84-20.015 28.258-18.84-28.258z" transform="matrix(-.1 0 0 .1 488.2 204.6)"/><path d="M248.44 462.47c29.436 48.274 77.71 121.28 101.26 170.73 26.295-51.807 74.962-128.34 104.79-175.44-31.79 36.107-71.822 88.7-104.79 116.56-33.36-27.866-70.253-78.103-101.26-111.86z" transform="matrix(-.1 0 0 .1 490.4 207.3)"/><path d="M332.03 604.94c1.177 0 21.194-164.84 21.194-164.84l17.66 164.84-20.015 28.258-18.84-28.258z" transform="matrix(-.1 0 0 .1 484.4 203.4)"/><path d="M248.44 462.47c29.436 48.274 77.71 121.28 101.26 170.73 26.295-51.807 74.962-128.34 104.79-175.44-31.79 36.107-71.822 88.7-104.79 116.56-33.36-27.866-70.253-78.103-101.26-111.86z" transform="matrix(-.1 0 0 .1 491.1 210.2)"/><path d="M332.03 604.94c1.177 0 21.194-164.84 21.194-164.84l17.66 164.84-20.015 28.258-18.84-28.258z" transform="matrix(-.1 0 0 .1 494.5 213.2)"/><path d="M248.44 462.47c29.436 48.274 77.71 121.28 101.26 170.73 26.295-51.807 74.962-128.34 104.79-175.44-31.79 36.107-71.822 88.7-104.79 116.56-33.36-27.866-70.253-78.103-101.26-111.86z" transform="matrix(-.1 0 0 .1 488.2 208.2)"/><path d="M332.03 604.94c1.177 0 21.194-164.84 21.194-164.84l17.66 164.84-20.015 28.258-18.84-28.258z" transform="matrix(-.1 0 0 .1 477 203.2)"/><path d="M248.44 462.47c29.436 48.274 77.71 121.28 101.26 170.73 26.295-51.807 74.962-128.34 104.79-175.44-31.79 36.107-71.822 88.7-104.79 116.56-33.36-27.866-70.253-78.103-101.26-111.86z" transform="matrix(-.1 0 0 .1 482.6 206.3)"/><path d="M332.03 604.94c1.177 0 21.194-164.84 21.194-164.84l17.66 164.84-20.015 28.258-18.84-28.258z" transform="matrix(-.1 0 0 .1 478.9 203.8)"/><path d="M248.44 462.47c29.436 48.274 77.71 121.28 101.26 170.73 26.295-51.807 74.962-128.34 104.79-175.44-31.79 36.107-71.822 88.7-104.79 116.56-33.36-27.866-70.253-78.103-101.26-111.86z" transform="matrix(-.1 0 0 .1 482.3 207.4)"/><path d="M332.03 604.94c1.177 0 21.194-164.84 21.194-164.84l17.66 164.84-20.015 28.258-18.84-28.258z" transform="matrix(-.1 0 0 .1 473.7 204.7)"/><path d="M248.44 462.47c29.436 48.274 77.71 121.28 101.26 170.73 26.295-51.807 74.962-128.34 104.79-175.44-31.79 36.107-71.822 88.7-104.79 116.56-33.36-27.866-70.253-78.103-101.26-111.86z" transform="matrix(-.1 0 0 .1 477.7 207.2)"/><path d="M332.03 604.94c1.177 0 21.194-164.84 21.194-164.84l17.66 164.84-20.015 28.258-18.84-28.258z" transform="matrix(-.1 0 0 .1 484.4 209)"/><path d="M248.44 462.47c29.436 48.274 77.71 121.28 101.26 170.73 26.295-51.807 74.962-128.34 104.79-175.44-31.79 36.107-71.822 88.7-104.79 116.56-33.36-27.866-70.253-78.103-101.26-111.86z" transform="matrix(-.1 0 0 .1 474.2 207.9)"/><path d="M332.03 604.94c1.177 0 21.194-164.84 21.194-164.84l17.66 164.84-20.015 28.258-18.84-28.258z" transform="matrix(0 0 0 .1 462.7 207.7)"/><path d="M248.44 462.47c29.436 48.274 77.71 121.28 101.26 170.73 26.295-51.807 74.962-128.34 104.79-175.44-31.79 36.107-71.822 88.7-104.79 116.56-33.36-27.866-70.253-78.103-101.26-111.86z" transform="matrix(-.1 0 0 .1 474.5 209.3)"/><path d="M332.03 604.94c1.177 0 21.194-164.84 21.194-164.84l17.66 164.84-20.015 28.258-18.84-28.258z" transform="matrix(-.1 0 0 .1 472.7 208.9)"/><path d="M248.44 462.47c29.436 48.274 77.71 121.28 101.26 170.73 26.295-51.807 74.962-128.34 104.79-175.44-31.79 36.107-71.822 88.7-104.79 116.56-33.36-27.866-70.253-78.103-101.26-111.86z" transform="matrix(-.1 0 0 .1 473.3 210.8)"/><path d="M332.03 604.94c1.177 0 21.194-164.84 21.194-164.84l17.66 164.84-20.015 28.258-18.84-28.258z" transform="matrix(0 0 0 .1 466.4 211.1)"/><path d="M248.44 462.47c29.436 48.274 77.71 121.28 101.26 170.73 26.295-51.807 74.962-128.34 104.79-175.44-31.79 36.107-71.822 88.7-104.79 116.56-33.36-27.866-70.253-78.103-101.26-111.86z" transform="matrix(-.1 0 0 .1 473.1 212.7)"/><path d="M332.03 604.94c1.177 0 21.194-164.84 21.194-164.84l17.66 164.84-20.015 28.258-18.84-28.258z" transform="matrix(-.1 0 0 .1 477.6 212.6)"/><path d="M248.44 462.47c29.436 48.274 77.71 121.28 101.26 170.73 26.295-51.807 74.962-128.34 104.79-175.44-31.79 36.107-71.822 88.7-104.79 116.56-33.36-27.866-70.253-78.103-101.26-111.86z" transform="matrix(0 0 0 .1 469.8 214)"/><path d="M332.03 604.94c1.177 0 21.194-164.84 21.194-164.84l17.66 164.84-20.015 28.258-18.84-28.258z" transform="matrix(0 .1 0 0 455.3 216)"/><path d="M248.44 462.47c29.436 48.274 77.71 121.28 101.26 170.73 26.295-51.807 74.962-128.34 104.79-175.44-31.79 36.107-71.822 88.7-104.79 116.56-33.36-27.866-70.253-78.103-101.26-111.86z" transform="matrix(0 0 0 .1 468.1 214.6)"/><path d="M332.03 604.94c1.177 0 21.194-164.84 21.194-164.84l17.66 164.84-20.015 28.258-18.84-28.258z" transform="matrix(0 0 0 .1 466.2 214.8)"/><path d="M248.44 462.47c29.436 48.274 77.71 121.28 101.26 170.73 26.295-51.807 74.962-128.34 104.79-175.44-31.79 36.107-71.822 88.7-104.79 116.56-33.36-27.866-70.253-78.103-101.26-111.86z" transform="matrix(0 0 0 .1 467.2 216.4)"/><path d="M332.03 604.94c1.177 0 21.194-164.84 21.194-164.84l17.66 164.84-20.015 28.258-18.84-28.258z" transform="matrix(0 .1 0 0 458.2 219.4)"/><path d="M248.44 462.47c29.436 48.274 77.71 121.28 101.26 170.73 26.295-51.807 74.962-128.34 104.79-175.44-31.79 36.107-71.822 88.7-104.79 116.56-33.36-27.866-70.253-78.103-101.26-111.86z" transform="matrix(0 0 0 .1 465.1 218.7)"/><path d="M332.03 604.94c1.177 0 21.194-164.84 21.194-164.84l17.66 164.84-20.015 28.258-18.84-28.258z" transform="matrix(0 0 0 .1 469.3 217.3)"/><path d="M248.44 462.47c29.436 48.274 77.71 121.28 101.26 170.73 26.295-51.807 74.962-128.34 104.79-175.44-31.79 36.107-71.822 88.7-104.79 116.56-33.36-27.866-70.253-78.103-101.26-111.86z" transform="matrix(0 .1 0 0 462.2 221.1)"/><path d="M332.03 604.94c1.177 0 21.194-164.84 21.194-164.84l17.66 164.84-20.015 28.258-18.84-28.258z" transform="matrix(0 .1 .1 0 445.4 230.7)"/><path d="M248.44 462.47c29.436 48.274 77.71 121.28 101.26 170.73 26.295-51.807 74.962-128.34 104.79-175.44-31.79 36.107-71.822 88.7-104.79 116.56-33.36-27.866-70.253-78.103-101.26-111.86z" transform="matrix(0 .1 0 0 463 222.2)"/><path d="M332.03 604.94c1.177 0 21.194-164.84 21.194-164.84l17.66 164.84-20.015 28.258-18.84-28.258z" transform="matrix(0 .1 .1 0 453.9 225.3)"/><path d="M248.44 462.47c29.436 48.274 77.71 121.28 101.26 170.73 26.295-51.807 74.962-128.34 104.79-175.44-31.79 36.107-71.822 88.7-104.79 116.56-33.36-27.866-70.253-78.103-101.26-111.86z" transform="matrix(0 .1 .1 0 455.4 226.4)"/><path d="M332.03 604.94c1.177 0 21.194-164.84 21.194-164.84l17.66 164.84-20.015 28.258-18.84-28.258z" transform="matrix(0 .1 .1 0 450.1 231.1)"/><path d="M248.44 462.47c29.436 48.274 77.71 121.28 101.26 170.73 26.295-51.807 74.962-128.34 104.79-175.44-31.79 36.107-71.822 88.7-104.79 116.56-33.36-27.866-70.253-78.103-101.26-111.86z" transform="matrix(0 .1 .1 0 456.3 228)"/><path d="M332.03 604.94c1.177 0 21.194-164.84 21.194-164.84l17.66 164.84-20.015 28.258-18.84-28.258z" transform="matrix(0 .1 .1 0 459.8 225.1)"/><path d="M248.44 462.47c29.436 48.274 77.71 121.28 101.26 170.73 26.295-51.807 74.962-128.34 104.79-175.44-31.79 36.107-71.822 88.7-104.79 116.56-33.36-27.866-70.253-78.103-101.26-111.86z" transform="matrix(0 .1 .1 0 454.3 231.3)"/><path d="M332.03 604.94c1.177 0 21.194-164.84 21.194-164.84l17.66 164.84-20.015 28.258-18.84-28.258z" transform="matrix(0 .1 .1 0 446.5 240.4)"/><path d="M332.03 604.94c1.177 0 21.194-164.84 21.194-164.84l17.66 164.84-20.015 28.258-18.84-28.258z" transform="matrix(0 0 0 0 514.4 227.6)"/><path d="M248.44 462.47c29.436 48.274 77.71 121.28 101.26 170.73 26.295-51.807 74.962-128.34 104.79-175.44-31.79 36.107-71.822 88.7-104.79 116.56-33.36-27.866-70.253-78.103-101.26-111.86z" transform="matrix(0 0 0 0 512.3 227.8)"/><path d="M332.03 604.94c1.177 0 21.194-164.84 21.194-164.84l17.66 164.84-20.015 28.258-18.84-28.258z" transform="matrix(0 0 0 0 516.2 224.8)"/><path d="M248.44 462.47c29.436 48.274 77.71 121.28 101.26 170.73 26.295-51.807 74.962-128.34 104.79-175.44-31.79 36.107-71.822 88.7-104.79 116.56-33.36-27.866-70.253-78.103-101.26-111.86z" transform="matrix(0 0 0 0 515.5 224.2)"/><path d="M332.03 604.94c1.177 0 21.194-164.84 21.194-164.84l17.66 164.84-20.015 28.258-18.84-28.258z" transform="matrix(0 0 0 0 510 229.9)"/><path d="M248.44 462.47c29.436 48.274 77.71 121.28 101.26 170.73 26.295-51.807 74.962-128.34 104.79-175.44-31.79 36.107-71.822 88.7-104.79 116.56-33.36-27.866-70.253-78.103-101.26-111.86z" transform="matrix(0 0 0 0 511.9 226.6)"/><path d="M332.03 604.94c1.177 0 21.194-164.84 21.194-164.84l17.66 164.84-20.015 28.258-18.84-28.258z" transform="matrix(0 0 0 0 514.6 221.2)"/><path d="M248.44 462.47c29.436 48.274 77.71 121.28 101.26 170.73 26.295-51.807 74.962-128.34 104.79-175.44-31.79 36.107-71.822 88.7-104.79 116.56-33.36-27.866-70.253-78.103-101.26-111.86z" transform="matrix(0 0 0 0 507.9 230.3)"/><path d="M332.03 604.94c1.177 0 21.194-164.84 21.194-164.84l17.66 164.84-20.015 28.258-18.84-28.258z" transform="matrix(0 0 0 0 508 229.2)"/><path d="M332.03 604.94c1.177 0 21.194-164.84 21.194-164.84l17.66 164.84-20.015 28.258-18.84-28.258z" transform="matrix(0 .1 .1 0 441.4 241.4)"/><path d="M332.03 604.94c1.177 0 21.194-164.84 21.194-164.84l17.66 164.84-20.015 28.258-18.84-28.258z" transform="matrix(0 .1 .1 0 448.5 234.3)"/><path d="M332.03 604.94c1.177 0 21.194-164.84 21.194-164.84l17.66 164.84-20.015 28.258-18.84-28.258z" transform="matrix(0 .1 .1 0 446.1 240.8)"/><path d="M248.44 462.47c29.436 48.274 77.71 121.28 101.26 170.73 26.295-51.807 74.962-128.34 104.79-175.44-31.79 36.107-71.822 88.7-104.79 116.56-33.36-27.866-70.253-78.103-101.26-111.86z" transform="matrix(0 .1 .1 0 451.4 236.5)"/><path d="M332.03 604.94c1.177 0 21.194-164.84 21.194-164.84l17.66 164.84-20.015 28.258-18.84-28.258z" transform="matrix(0 .1 .1 0 454.2 232.9)"/><path d="M248.44 462.47c29.436 48.274 77.71 121.28 101.26 170.73 26.295-51.807 74.962-128.34 104.79-175.44-31.79 36.107-71.822 88.7-104.79 116.56-33.36-27.866-70.253-78.103-101.26-111.86z" transform="matrix(0 .1 .1 0 450.3 240)"/><path d="M332.03 604.94c1.177 0 21.194-164.84 21.194-164.84l17.66 164.84-20.015 28.258-18.84-28.258z" transform="matrix(0 .1 .1 0 444.8 250.6)"/><path d="M332.03 604.94c1.177 0 21.194-164.84 21.194-164.84l17.66 164.84-20.015 28.258-18.84-28.258z" transform="matrix(0 .1 .1 0 443.3 246.1)"/><path d="M332.03 604.94c1.177 0 21.194-164.84 21.194-164.84l17.66 164.84-20.015 28.258-18.84-28.258z" transform="matrix(0 .1 .1 0 449.8 238.5)"/><path d="M332.03 604.94c1.177 0 21.194-164.84 21.194-164.84l17.66 164.84-20.015 28.258-18.84-28.258z" transform="matrix(0 .1 .1 0 447.9 245.2)"/><path d="M248.44 462.47c29.436 48.274 77.71 121.28 101.26 170.73 26.295-51.807 74.962-128.34 104.79-175.44-31.79 36.107-71.822 88.7-104.79 116.56-33.36-27.866-70.253-78.103-101.26-111.86z" transform="matrix(0 .1 .1 0 452.8 240.5)"/><path d="M332.03 604.94c1.177 0 21.194-164.84 21.194-164.84l17.66 164.84-20.015 28.258-18.84-28.258z" transform="matrix(0 .1 .1 0 455.3 236.7)"/><path d="M248.44 462.47c29.436 48.274 77.71 121.28 101.26 170.73 26.295-51.807 74.962-128.34 104.79-175.44-31.79 36.107-71.822 88.7-104.79 116.56-33.36-27.866-70.253-78.103-101.26-111.86z" transform="matrix(0 .1 .1 0 452 244.2)"/><path d="M332.03 604.94c1.177 0 21.194-164.84 21.194-164.84l17.66 164.84-20.015 28.258-18.84-28.258z" transform="matrix(0 .1 .1 0 447.3 255.1)"/></g><path d="M374.65 434.6c0 66.213-53.676 119.89-119.89 119.89-66.213 0-119.89-53.676-119.89-119.89 0-66.213 53.676-119.89 119.89-119.89 66.213 0 119.89 53.676 119.89 119.89z" fill-rule="evenodd" transform="matrix(.2 0 0 .2 453.7 172.5)" fill="#3d25ca"/><path d="M353.57 628.49l-130.85-89.51-130.85 89.51 49.07-143.21-114.5-89.51h147.21l49.07-143.21 49.068 143.21h147.21l-114.49 89.507 49.07 143.21z" fill-rule="evenodd" transform="matrix(.1 0 0 .1 478.3 211.1)" fill="#ffd900"/><path d="M17.716 379.13l212.6 53.15" fill="none" transform="matrix(.1 0 0 .1 479.1 212.1)"/><path d="M502.132 235.84v19.488M502.132 255.328v8.858M502.132 255.328l8.858 3.543M496.816 250.013l5.315 5.315M502.132 255.328l5.315-5.315M523.39 250.013l-21.258 5.315M502.132 255.328l14.173 17.717M502.132 255.328l-14.174 17.717M493.273 258.872l8.858-3.543" fill="none" stroke-width=".2553"/></g><g stroke-width="1pt"><path d="M536.9 248.04c0 22.542-18.293 40.836-40.836 40.836s-40.836-18.295-40.836-40.837 18.294-40.838 40.836-40.838c22.54 0 40.837 18.295 40.837 40.837zm13.613 0c0 30.054-24.392 54.447-54.447 54.447s-54.448-24.393-54.448-54.448 24.393-54.45 54.448-54.45 54.447 24.394 54.447 54.45z" fill-rule="evenodd" stroke="#000" fill="#d60000" stroke-width=".19208pt"/><path d="M537.564 257.8l3.586 1.327 5.95-1.087-.447 1.208-3.1.536c-.578.096-1.15.173-1.714.233.358.388.756.846 1.19 1.37l1.952 2.376-.427 1.156-3.772-4.8-3.586-1.326.367-.993zM547.648 244.047l.115 1.052-5.184.567c-.903.1-1.63.086-2.18-.036-.55-.123-1.017-.402-1.404-.84-.382-.434-.615-1.034-.7-1.8-.08-.746-.002-1.37.236-1.876.238-.506.62-.89 1.143-1.152.53-.263 1.27-.446 2.22-.55l5.183-.568.115 1.052-5.178.567c-.78.085-1.347.212-1.704.38-.353.17-.612.42-.778.754-.165.336-.223.73-.174 1.183.085.773.343 1.304.775 1.59.432.285 1.21.367 2.337.243l5.178-.566zM540.408 233.53l1.038-.21.68 3.32-3.283.665c-.562-.416-1.015-.872-1.358-1.367-.34-.496-.567-1.028-.682-1.6-.157-.77-.114-1.508.13-2.214.246-.703.688-1.286 1.327-1.75.64-.464 1.393-.784 2.262-.96.86-.174 1.696-.178 2.504-.01.813.167 1.462.515 1.945 1.04.485.526.806 1.18.964 1.96.115.567.114 1.1-.003 1.6-.11.5-.325.92-.642 1.254-.318.335-.76.63-1.328.887l-.48-.877c.427-.21.75-.427.973-.653.222-.228.377-.52.464-.875.09-.355.097-.732.016-1.127-.096-.475-.26-.868-.496-1.18-.23-.314-.502-.55-.81-.71-.308-.157-.633-.262-.975-.315-.588-.09-1.2-.068-1.84.06-.79.16-1.425.415-1.907.76-.482.35-.805.782-.97 1.295-.163.512-.193 1.026-.088 1.543.09.45.276.868.556 1.257.284.388.56.67.825.846l1.647-.335-.467-2.305zM502.567 205.01l1.558-8.892 1.042.183-1.374 7.842 3.88.68-.182 1.05-4.923-.863zM493.776 204.41v-9.025h5.785v1.065h-4.725v2.765h4.426v1.06h-4.425v3.07h4.91v1.066h-5.97zM468.776 210.08l1-.46c.47.89.65 1.72.548 2.49-.104.763-.472 1.416-1.105 1.957-.657.56-1.32.867-1.987.92-.668.046-1.353-.123-2.057-.51-.702-.39-1.332-.91-1.892-1.566-.61-.714-1.022-1.44-1.236-2.175-.212-.74-.213-1.44-.003-2.095.21-.66.585-1.22 1.12-1.678.61-.52 1.27-.783 1.984-.788.713-.006 1.42.24 2.126.732l-.612.888c-.567-.38-1.083-.567-1.546-.566-.463.002-.898.177-1.304.524-.467.4-.75.86-.85 1.383-.097.52-.026 1.048.212 1.584.235.532.547 1.024.934 1.477.5.583 1.01 1.03 1.532 1.34.523.302 1.035.426 1.537.37.5-.057.938-.244 1.308-.56.45-.386.707-.86.77-1.42.06-.56-.1-1.175-.482-1.847zM465 218.02l-6.715-6.03.708-.79 6.714 6.034-.708.787zM460.657 223.146l-7.155-5.5.645-.84 6.31 4.852 2.402-3.124.844.65-3.047 3.962zM447.232 228.47l.39-.985 4.848 1.92c.844.336 1.48.685 1.91 1.05.428.367.71.833.85 1.4.133.562.06 1.202-.225 1.92-.277.696-.638 1.212-1.085 1.548-.446.335-.963.497-1.55.483-.59-.014-1.33-.198-2.218-.55l-4.848-1.922.39-.984 4.843 1.92c.728.288 1.29.442 1.684.462.393.014.74-.087 1.042-.304.304-.22.54-.542.706-.964.287-.724.307-1.314.06-1.77-.25-.453-.9-.89-1.953-1.306l-4.843-1.92zM452.503 250.31l-9.026.074-.048-5.785 1.065-.01.04 4.727 2.763-.023-.037-4.426 1.06-.01.037 4.427 3.072-.025-.042-4.912 1.065-.01.05 5.97zM486.21 205.69l-1.785-8.848 2.7-.546c.61-.123 1.084-.174 1.423-.155.473.028.898.16 1.278.403.493.31.904.754 1.23 1.328.33.57.576 1.25.735 2.04.136.67.187 1.28.153 1.827-.035.547-.126 1.014-.274 1.4-.15.38-.335.697-.556.947-.218.245-.5.455-.848.63-.343.173-.752.308-1.226.404l-2.83.57zm.827-1.254l1.674-.338c.52-.105.912-.24 1.182-.408.275-.17.48-.37.615-.6.19-.33.305-.74.347-1.234.043-.498-.002-1.082-.137-1.75-.187-.925-.465-1.608-.836-2.048-.367-.445-.76-.713-1.18-.804-.303-.065-.762-.035-1.38.09l-1.647.332 1.364 6.76zM515.38 209.29l4.175-8.003 2.676 1.396c.472.246.82.46 1.04.64.314.247.54.524.68.833.14.305.195.66.164 1.065-.027.408-.145.81-.35 1.206-.356.68-.85 1.157-1.48 1.43-.63.27-1.445.142-2.448-.38l-1.82-.95-1.696 3.253-.94-.49zm3.13-3.708l1.833.956c.607.316 1.104.414 1.49.292.39-.122.703-.414.945-.876.174-.335.247-.66.22-.976-.024-.317-.138-.578-.343-.782-.133-.13-.413-.306-.84-.528l-1.814-.947-1.49 2.862zM519.99 211.67l8.316-4.667.85.762-3.592 8.904-.898-.806 1.13-2.658-2.49-2.234-2.478 1.447-.837-.75zm4.194-1.218l2.02 1.812 1.047-2.42c.32-.734.595-1.324.83-1.77-.464.362-.954.694-1.473.995l-2.423 1.382zM526.442 217.736l7.16-5.495 2.16 2.815c.434.566.7 1.046.794 1.44.1.392.054.8-.137 1.227-.19.426-.484.79-.878 1.093-.508.39-1.048.572-1.62.548-.572-.024-1.14-.305-1.7-.84.05.314.06.573.032.78-.066.44-.206.915-.418 1.427l-1.102 2.6-.81-1.057.845-1.983c.24-.575.414-1.03.52-1.363.107-.333.156-.6.15-.796-.004-.193-.038-.37-.102-.526-.05-.113-.158-.278-.324-.494l-.748-.974-3.18 2.44-.644-.84zm4.645-2.23l1.385 1.806c.294.383.57.65.823.8.257.146.527.2.81.163.284-.04.542-.15.773-.326.338-.26.533-.584.583-.97.053-.385-.102-.812-.463-1.283l-1.54-2.008-2.37 1.817zM531.268 223.9l9.378-1.718.556.996-6.283 7.26-.59-1.053 1.933-2.148-1.632-2.92-2.814.565-.548-.98zm4.362.21l1.322 2.367 1.775-1.948c.54-.593.99-1.063 1.358-1.41-.555.194-1.127.35-1.716.465l-2.74.524zM539.207 247.266l8.657 3.995-.118 1.135-9.318 2.318.126-1.2 2.816-.643.348-3.328-2.628-1.158.117-1.118zm3.446 2.68l-.282 2.7 2.574-.57c.782-.176 1.422-.3 1.92-.37-.564-.163-1.12-.365-1.67-.61l-2.54-1.15zM453.928 258.605l-8.814 1.943-.763-3.464c-.153-.696-.19-1.243-.11-1.64.078-.398.292-.75.645-1.054.353-.305.773-.51 1.257-.618.626-.138 1.192-.075 1.7.19.508.264.903.758 1.185 1.482.087-.306.188-.546.3-.72.247-.37.575-.743.984-1.116l2.1-1.888.287 1.3-1.606 1.438c-.46.42-.81.757-1.05 1.014-.236.257-.394.477-.47.658-.08.177-.124.35-.133.52-.002.123.026.318.085.585l.264 1.2 3.914-.864.228 1.035zm-5.152.05l-.49-2.22c-.104-.473-.24-.83-.406-1.074-.17-.24-.392-.404-.663-.49-.275-.084-.555-.095-.84-.032-.416.092-.73.302-.938.63-.21.327-.252.78-.125 1.36l.545 2.47 2.916-.642zM452.83 242.31l-8.994-.772.26-3.007c.045-.53.108-.93.19-1.204.107-.386.276-.7.507-.95.228-.245.534-.432.92-.56.386-.13.802-.177 1.248-.14.766.067 1.395.34 1.89.815.49.478.687 1.28.59 2.407l-.176 2.045 3.656.314-.09 1.055zm-4.627-1.46l.177-2.06c.06-.682-.043-1.177-.304-1.49-.262-.31-.653-.488-1.172-.532-.376-.033-.704.025-.985.172-.285.144-.482.35-.592.617-.068.174-.123.5-.164.978l-.176 2.04 3.215.275zM456.6 228.97l-7.51-5.006 1.666-2.498c.34-.508.687-.864 1.045-1.068.357-.208.752-.293 1.184-.254.43.034.82.167 1.164.397.32.215.572.493.753.836.18.344.255.73.22 1.157.402-.314.835-.47 1.3-.472.466-.003.918.14 1.355.432.352.235.635.52.85.856.214.33.338.647.373.95s-.003.63-.114.98c-.11.346-.31.73-.59 1.154l-1.693 2.54zm-3.766-3.784l.96-1.44c.26-.39.418-.69.472-.897.075-.275.062-.526-.037-.754-.1-.23-.28-.434-.542-.61-.25-.166-.503-.26-.762-.278-.26-.022-.492.043-.692.195-.203.15-.463.462-.782.94l-.887 1.33 2.27 1.513zm3.468 2.313l1.105-1.66c.19-.283.31-.49.364-.622.095-.23.14-.445.135-.645-.005-.2-.068-.405-.19-.613-.127-.21-.31-.396-.548-.555-.28-.187-.565-.285-.855-.294-.293-.01-.557.07-.79.242-.235.167-.493.462-.776.886l-1.026 1.54 2.582 1.72zM471.475 211.67l-2.197-9.278.966-.607 7.572 5.903-1.02.64-2.245-1.817-2.832 1.78.71 2.782-.953.598zm-.015-4.367l2.296-1.442-2.036-1.672c-.62-.507-1.11-.935-1.476-1.283.222.544.406 1.107.55 1.69l.666 2.708z" fill="#ffe600"/></g></g></svg>