<svg xmlns="http://www.w3.org/2000/svg" height="512" width="512"><defs><clipPath id="a"><path fill-opacity=".67" d="M248.03 0h496.06v496.06H248.03z"/></clipPath></defs><g clip-path="url(#a)" transform="matrix(1.032 0 0 1.032 -256 0)"><g fill-rule="evenodd" stroke-width="1pt"><path fill="#fff" d="M0 166.54h992.13v162.99H0z"/><path fill="#3d25ca" d="M0 329.53h992.13v166.54H0z"/><path fill="#d60000" d="M0 0h992.13v166.54H0z"/></g><path d="M744.14 567.26c0 192.48-157.09 348.52-350.87 348.52S42.4 759.74 42.4 567.26s157.09-348.52 350.87-348.52 350.87 156.04 350.87 348.52z" fill-rule="evenodd" transform="matrix(.182 0 0 .183 424.574 144.209)" stroke="#000" stroke-width="12.5" fill="#fff"/><g stroke="#000" stroke-width="2.553"><g fill-rule="evenodd" fill="#006700"><path d="M259.03 105.71s400.32 70.645 414.45 395.62c14.13 324.97-188.39 367.36-259.03 419.16-70.645 51.807-113.03 113.03-146 113.03-32.968 0-80.065-14.13-80.065-14.13s9.42 51.81 75.355 47.1c65.936-4.71 127.16-113.03 164.84-131.87s277.88-98.9 259.04-428.58c-14.13-353.23-423.88-390.91-428.59-400.33z" transform="matrix(.064 .015 -.016 .067 489.792 207.666)"/><path d="M516.684 223.244c.42 1.795.4 3.273-.044 3.302s-1.143-1.403-1.562-3.198c-.418-1.795-.398-3.273.045-3.3s1.143 1.402 1.56 3.196z" stroke-width=".07914299999999999"/><path d="M320.26 487.2c0 59.825-11.597 108.32-25.903 108.32s-25.903-48.498-25.903-108.32c0-59.825 11.597-108.32 25.903-108.32s25.903 48.498 25.903 108.32z" transform="matrix(.028 -.011 .014 .029 500.316 212.683)"/><path d="M320.26 487.2c0 59.825-11.597 108.32-25.903 108.32s-25.903-48.498-25.903-108.32c0-59.825 11.597-108.32 25.903-108.32s25.903 48.498 25.903 108.32z" transform="matrix(.003 -.032 .029 .009 498.496 231.36)"/><path d="M320.26 487.2c0 59.825-11.597 108.32-25.903 108.32s-25.903-48.498-25.903-108.32c0-59.825 11.597-108.32 25.903-108.32s25.903 48.498 25.903 108.32z" transform="matrix(.014 -.027 .026 .018 496.794 224.254)"/><path d="M320.26 487.2c0 59.825-11.597 108.32-25.903 108.32s-25.903-48.498-25.903-108.32c0-59.825 11.597-108.32 25.903-108.32s25.903 48.498 25.903 108.32z" transform="matrix(.021 -.021 .022 .024 497.595 219.137)"/><path d="M151.53 682.7c0 1.665-41.628-24.978-49.954-33.303-8.333-8.33-6.668-46.62-33.31-64.94s-54.95-9.99-68.27 1.66c-13.32 11.656-8.326 38.298 23.312 61.61s53.284 1.666 69.936 9.99c16.65 8.327 43.294 24.977 56.615 38.298 13.32-9.99 46.622-21.646 64.94-29.972 18.315-8.325 64.94 11.656 96.577-11.656 26.642-18.316 38.297-56.614 19.98-68.27-18.316-11.656-51.618-6.66-71.6 4.996-19.98 11.656-29.97 58.28-49.954 66.605-14.986 4.995-56.614 28.307-58.28 24.977z" transform="matrix(.018 -.018 .008 .009 508.344 223.611)"/><path d="M320.26 487.2c0 59.825-11.597 108.32-25.903 108.32s-25.903-48.498-25.903-108.32c0-59.825 11.597-108.32 25.903-108.32s25.903 48.498 25.903 108.32z" transform="matrix(.044 .011 .001 .046 510.133 203.336)"/><path d="M320.26 487.2c0 59.825-11.597 108.32-25.903 108.32s-25.903-48.498-25.903-108.32c0-59.825 11.597-108.32 25.903-108.32s25.903 48.498 25.903 108.32z" transform="matrix(.043 -.002 .01 .047 504.708 206.856)"/><path d="M320.26 487.2c0 59.825-11.597 108.32-25.903 108.32s-25.903-48.498-25.903-108.32c0-59.825 11.597-108.32 25.903-108.32s25.903 48.498 25.903 108.32z" transform="matrix(.015 -.044 .038 .025 496.479 232.459)"/><path d="M320.26 487.2c0 59.825-11.597 108.32-25.903 108.32s-25.903-48.498-25.903-108.32c0-59.825 11.597-108.32 25.903-108.32s25.903 48.498 25.903 108.32z" transform="matrix(.028 -.032 .031 .037 496.276 221.624)"/><path d="M320.26 487.2c0 59.825-11.597 108.32-25.903 108.32s-25.903-48.498-25.903-108.32c0-59.825 11.597-108.32 25.903-108.32s25.903 48.498 25.903 108.32z" transform="matrix(.036 -.021 .024 .044 498.953 214.748)"/><path d="M151.53 682.7c0 1.665-41.628-24.978-49.954-33.303-8.333-8.33-6.668-46.62-33.31-64.94s-54.95-9.99-68.27 1.66c-13.32 11.656-8.326 38.298 23.312 61.61s53.284 1.666 69.936 9.99c16.65 8.327 43.294 24.977 56.615 38.298 13.32-9.99 46.622-21.646 64.94-29.972 18.315-8.325 64.94 11.656 96.577-11.656 26.642-18.316 38.297-56.614 19.98-68.27-18.316-11.656-51.618-6.66-71.6 4.996-19.98 11.656-29.97 58.28-49.954 66.605-14.986 4.995-56.614 28.307-58.28 24.977z" transform="matrix(.03 -.018 .009 .016 512.55 225.992)"/><g><path d="M320.26 487.2c0 59.825-11.597 108.32-25.903 108.32s-25.903-48.498-25.903-108.32c0-59.825 11.597-108.32 25.903-108.32s25.903 48.498 25.903 108.32z" transform="matrix(.041 .019 -.008 .047 519.119 210.993)"/><path d="M320.26 487.2c0 59.825-11.597 108.32-25.903 108.32s-25.903-48.498-25.903-108.32c0-59.825 11.597-108.32 25.903-108.32s25.903 48.498 25.903 108.32z" transform="matrix(.042 .006 .001 .049 513.162 213.485)"/><path d="M320.26 487.2c0 59.825-11.597 108.32-25.903 108.32s-25.903-48.498-25.903-108.32c0-59.825 11.597-108.32 25.903-108.32s25.903 48.498 25.903 108.32z" transform="matrix(.023 -.042 .032 .032 500.279 237.508)"/><path d="M320.26 487.2c0 59.825-11.597 108.32-25.903 108.32s-25.903-48.498-25.903-108.32c0-59.825 11.597-108.32 25.903-108.32s25.903 48.498 25.903 108.32z" transform="matrix(.033 -.027 .023 .043 502.138 226.645)"/><path d="M320.26 487.2c0 59.825-11.597 108.32-25.903 108.32s-25.903-48.498-25.903-108.32c0-59.825 11.597-108.32 25.903-108.32s25.903 48.498 25.903 108.32z" transform="matrix(.039 -.014 .015 .048 506.053 220.281)"/><path d="M151.53 682.7c0 1.665-41.628-24.978-49.954-33.303-8.333-8.33-6.668-46.62-33.31-64.94s-54.95-9.99-68.27 1.66c-13.32 11.656-8.326 38.298 23.312 61.61s53.284 1.666 69.936 9.99c16.65 8.327 43.294 24.977 56.615 38.298 13.32-9.99 46.622-21.646 64.94-29.972 18.315-8.325 64.94 11.656 96.577-11.656 26.642-18.316 38.297-56.614 19.98-68.27-18.316-11.656-51.618-6.66-71.6 4.996-19.98 11.656-29.97 58.28-49.954 66.605-14.986 4.995-56.614 28.307-58.28 24.977z" transform="matrix(.033 -.012 .006 .018 517.175 234.087)"/></g><g><path d="M320.26 487.2c0 59.825-11.597 108.32-25.903 108.32s-25.903-48.498-25.903-108.32c0-59.825 11.597-108.32 25.903-108.32s25.903 48.498 25.903 108.32z" transform="matrix(.03 .035 -.025 .039 531.375 220.639)"/><path d="M320.26 487.2c0 59.825-11.597 108.32-25.903 108.32s-25.903-48.498-25.903-108.32c0-59.825 11.597-108.32 25.903-108.32s25.903 48.498 25.903 108.32z" transform="matrix(.036 .023 -.018 .046 525.012 220.457)"/><path d="M320.26 487.2c0 59.825-11.597 108.32-25.903 108.32s-25.903-48.498-25.903-108.32c0-59.825 11.597-108.32 25.903-108.32s25.903 48.498 25.903 108.32z" transform="matrix(.037 -.029 .016 .043 504.047 237.181)"/><path d="M320.26 487.2c0 59.825-11.597 108.32-25.903 108.32s-25.903-48.498-25.903-108.32c0-59.825 11.597-108.32 25.903-108.32s25.903 48.498 25.903 108.32z" transform="matrix(.041 -.011 .004 .049 509.932 227.974)"/><path d="M320.26 487.2c0 59.825-11.597 108.32-25.903 108.32s-25.903-48.498-25.903-108.32c0-59.825 11.597-108.32 25.903-108.32s25.903 48.498 25.903 108.32z" transform="matrix(.04 .003 -.005 .05 515.941 223.751)"/><path d="M151.53 682.7c0 1.665-41.628-24.978-49.954-33.303-8.333-8.33-6.668-46.62-33.31-64.94s-54.95-9.99-68.27 1.66c-13.32 11.656-8.326 38.298 23.312 61.61s53.284 1.666 69.936 9.99c16.65 8.327 43.294 24.977 56.615 38.298 13.32-9.99 46.622-21.646 64.94-29.972 18.315-8.325 64.94 11.656 96.577-11.656 26.642-18.316 38.297-56.614 19.98-68.27-18.316-11.656-51.618-6.66-71.6 4.996-19.98 11.656-29.97 58.28-49.954 66.605-14.986 4.995-56.614 28.307-58.28 24.977z" transform="matrix(.035 .003 -.002 .019 520.685 241.046)"/></g><g><path d="M320.26 487.2c0 59.825-11.597 108.32-25.903 108.32s-25.903-48.498-25.903-108.32c0-59.825 11.597-108.32 25.903-108.32s25.903 48.498 25.903 108.32z" transform="matrix(.021 .049 -.041 .035 538.517 230.226)"/><path d="M320.26 487.2c0 59.825-11.597 108.32-25.903 108.32s-25.903-48.498-25.903-108.32c0-59.825 11.597-108.32 25.903-108.32s25.903 48.498 25.903 108.32z" transform="matrix(.032 .039 -.035 .044 531.574 227.667)"/><path d="M520.877 257.842c.24 3.17-.147 5.96-.862 6.233s-1.49-2.078-1.728-5.25c-.24-3.17.146-5.96.86-6.232s1.49 2.078 1.73 5.25z" stroke-width=".13530899999999998"/><path d="M320.26 487.2c0 59.825-11.597 108.32-25.903 108.32s-25.903-48.498-25.903-108.32c0-59.825 11.597-108.32 25.903-108.32s25.903 48.498 25.903 108.32z" transform="matrix(.048 .003 -.011 .056 512.512 230.439)"/><path d="M320.26 487.2c0 59.825-11.597 108.32-25.903 108.32s-25.903-48.498-25.903-108.32c0-59.825 11.597-108.32 25.903-108.32s25.903 48.498 25.903 108.32z" transform="matrix(.044 .018 -.022 .054 520.51 227.97)"/><path d="M151.53 682.7c0 1.665-41.628-24.978-49.954-33.303-8.333-8.33-6.668-46.62-33.31-64.94s-54.95-9.99-68.27 1.66c-13.32 11.656-8.326 38.298 23.312 61.61s53.284 1.666 69.936 9.99c16.65 8.327 43.294 24.977 56.615 38.298 13.32-9.99 46.622-21.646 64.94-29.972 18.315-8.325 64.94 11.656 96.577-11.656 26.642-18.316 38.297-56.614 19.98-68.27-18.316-11.656-51.618-6.66-71.6 4.996-19.98 11.656-29.97 58.28-49.954 66.605-14.986 4.995-56.614 28.307-58.28 24.977z" transform="matrix(.037 .016 -.008 .02 520.061 248.953)"/></g><g><path d="M517.503 272.266c-3.47.54-6.213.29-6.127-.553s2.968-1.965 6.438-2.503c3.47-.54 6.213-.29 6.127.553s-2.967 1.965-6.437 2.503z" stroke-width=".15062699999999998"/><path d="M320.26 487.2c0 59.825-11.597 108.32-25.903 108.32s-25.903-48.498-25.903-108.32c0-59.825 11.597-108.32 25.903-108.32s25.903 48.498 25.903 108.32z" transform="matrix(.01 .055 -.057 .022 542.497 242.832)"/><path d="M515.575 265.598c-1.496 3.17-3.38 5.614-4.21 5.456s-.29-2.855 1.205-6.025c1.496-3.172 3.38-5.615 4.21-5.457s.29 2.855-1.205 6.025z" stroke-width=".15062699999999998"/><path d="M320.26 487.2c0 59.825-11.597 108.32-25.903 108.32s-25.903-48.498-25.903-108.32c0-59.825 11.597-108.32 25.903-108.32s25.903 48.498 25.903 108.32z" transform="matrix(.045 .03 -.041 .047 522.72 234.562)"/><path d="M320.26 487.2c0 59.825-11.597 108.32-25.903 108.32s-25.903-48.498-25.903-108.32c0-59.825 11.597-108.32 25.903-108.32s25.903 48.498 25.903 108.32z" transform="matrix(.032 .042 -.05 .038 531.719 236.794)"/><path d="M151.53 682.7c0 1.665-41.628-24.978-49.954-33.303-8.333-8.33-6.668-46.62-33.31-64.94s-54.95-9.99-68.27 1.66c-13.32 11.656-8.326 38.298 23.312 61.61s53.284 1.666 69.936 9.99c16.65 8.327 43.294 24.977 56.615 38.298 13.32-9.99 46.622-21.646 64.94-29.972 18.315-8.325 64.94 11.656 96.577-11.656 26.642-18.316 38.297-56.614 19.98-68.27-18.316-11.656-51.618-6.66-71.6 4.996-19.98 11.656-29.97 58.28-49.954 66.605-14.986 4.995-56.614 28.307-58.28 24.977z" transform="matrix(.027 .036 -.019 .014 520.016 256.414)"/></g><g><path d="M314.71 506.2c0 45.062-10.064 81.59-22.48 81.59s-22.478-36.53-22.478-81.59c0-45.062 10.064-81.59 22.48-81.59s22.478 36.53 22.478 81.59z" transform="matrix(0 .083 -.079 .001 547.426 252.065)"/><path d="M314.71 506.2c0 45.062-10.064 81.59-22.48 81.59s-22.478-36.53-22.478-81.59c0-45.062 10.064-81.59 22.48-81.59s22.478 36.53 22.478 81.59z" transform="matrix(.061 .052 -.05 .065 512.79 223.632)"/><path d="M314.71 506.2c0 45.062-10.064 81.59-22.48 81.59s-22.478-36.53-22.478-81.59c0-45.062 10.064-81.59 22.48-81.59s22.478 36.53 22.478 81.59z" transform="matrix(.029 .077 -.073 .032 535.491 235.576)"/></g><g><path d="M314.71 506.2c0 45.062-10.064 81.59-22.48 81.59s-22.478-36.53-22.478-81.59c0-45.062 10.064-81.59 22.48-81.59s22.478 36.53 22.478 81.59z" transform="matrix(.034 -.018 .036 .033 480.296 208.343)"/><path d="M314.71 506.2c0 45.062-10.064 81.59-22.48 81.59s-22.478-36.53-22.478-81.59c0-45.062 10.064-81.59 22.48-81.59s22.478 36.53 22.478 81.59z" transform="matrix(-.007 -.037 .049 .007 484.486 229.194)"/><path d="M314.71 506.2c0 45.062-10.064 81.59-22.48 81.59s-22.478-36.53-22.478-81.59c0-45.062 10.064-81.59 22.48-81.59s22.478 36.53 22.478 81.59z" transform="matrix(.018 -.029 .046 .024 479.034 216.98)"/></g></g><g fill-rule="evenodd" fill="#006700"><path d="M339.1 586.1s113.03 32.968 211.94 89.484c98.904 56.516 252.16 272.38 292.21 280.92 44.682-1.342 105.85-37.846 126.48-164.27-67.86 43.25-107.82 101.54-174.96 40.06-23.55-14.13-102.44-137.87-187.22-199.09-84.77-61.23-254.32-122.45-254.32-122.45L339.1 586.11z" transform="matrix(.048 .003 -.001 .025 463.399 256.457)"/><path d="M332.03 604.94c1.177 0 21.194-164.84 21.194-164.84l17.66 164.84-20.015 28.258-18.84-28.258z" transform="matrix(-.016 -.04 -.04 .015 514.219 227.022)"/><path d="M248.44 462.47c29.436 48.274 77.71 121.28 101.26 170.73 26.295-51.807 74.962-128.34 104.79-175.44-31.79 36.107-71.822 88.7-104.79 116.56-33.36-27.866-70.253-78.103-101.26-111.86z" transform="matrix(-.016 -.04 -.04 .015 513.075 227.344)"/><path d="M332.03 604.94c1.177 0 21.194-164.84 21.194-164.84l17.66 164.84-20.015 28.258-18.84-28.258z" transform="matrix(-.023 -.036 -.036 .022 513.245 222.438)"/><path d="M489.273 224.067c-2.432-.453-6.173-1.29-8.55-1.49 1.624-1.828 3.858-4.923 5.235-6.822-.904 1.813-2.327 4.203-2.88 5.94 1.68.916 4.318 1.638 6.195 2.372z" stroke-width=".10977899999999999"/><path d="M482.557 223.23c-.015-.046 6.483-2.66 6.483-2.66l-6.988 1.107-.898 1.11 1.403.444z" stroke-width=".107226"/><path d="M248.44 462.47c29.436 48.274 77.71 121.28 101.26 170.73 26.295-51.807 74.962-128.34 104.79-175.44-31.79 36.107-71.822 88.7-104.79 116.56-33.36-27.866-70.253-78.103-101.26-111.86z" transform="matrix(-.022 -.04 -.037 .02 511.492 225.077)"/><path d="M332.03 604.94c1.177 0 21.194-164.84 21.194-164.84l17.66 164.84-20.015 28.258-18.84-28.258z" transform="matrix(-.03 -.031 -.031 .029 510.616 216.51)"/><path d="M248.44 462.47c29.436 48.274 77.71 121.28 101.26 170.73 26.295-51.807 74.962-128.34 104.79-175.44-31.79 36.107-71.822 88.7-104.79 116.56-33.36-27.866-70.253-78.103-101.26-111.86z" transform="matrix(-.027 -.042 -.038 .025 512.945 223.869)"/><path d="M332.03 604.94c1.177 0 21.194-164.84 21.194-164.84l17.66 164.84-20.015 28.258-18.84-28.258z" transform="matrix(-.029 -.04 -.036 .026 512.597 222.468)"/><path d="M248.44 462.47c29.436 48.274 77.71 121.28 101.26 170.73 26.295-51.807 74.962-128.34 104.79-175.44-31.79 36.107-71.822 88.7-104.79 116.56-33.36-27.866-70.253-78.103-101.26-111.86z" transform="matrix(-.02 -.045 -.046 .028 513.868 223.337)"/><path d="M332.03 604.94c1.177 0 21.194-164.84 21.194-164.84l17.66 164.84-20.015 28.258-18.84-28.258z" transform="matrix(-.023 -.044 -.044 .03 513.779 221.801)"/><path d="M248.44 462.47c29.436 48.274 77.71 121.28 101.26 170.73 26.295-51.807 74.962-128.34 104.79-175.44-31.79 36.107-71.822 88.7-104.79 116.56-33.36-27.866-70.253-78.103-101.26-111.86z" transform="matrix(-.027 -.041 -.041 .034 512.392 219.856)"/><path d="M332.03 604.94c1.177 0 21.194-164.84 21.194-164.84l17.66 164.84-20.015 28.258-18.84-28.258z" transform="matrix(-.033 -.035 -.036 .04 511.532 213.88)"/><path d="M248.44 462.47c29.436 48.274 77.71 121.28 101.26 170.73 26.295-51.807 74.962-128.34 104.79-175.44-31.79 36.107-71.822 88.7-104.79 116.56-33.36-27.866-70.253-78.103-101.26-111.86z" transform="matrix(-.024 -.043 -.043 .032 511.111 222.049)"/><path d="M332.03 604.94c1.177 0 21.194-164.84 21.194-164.84l17.66 164.84-20.015 28.258-18.84-28.258z" transform="matrix(-.023 -.044 -.044 .03 511.564 223.914)"/><path d="M248.44 462.47c29.436 48.274 77.71 121.28 101.26 170.73 26.295-51.807 74.962-128.34 104.79-175.44-31.79 36.107-71.822 88.7-104.79 116.56-33.36-27.866-70.253-78.103-101.26-111.86z" transform="matrix(-.029 -.039 -.04 .036 510.061 219.292)"/><path d="M332.03 604.94c1.177 0 21.194-164.84 21.194-164.84l17.66 164.84-20.015 28.258-18.84-28.258z" transform="matrix(-.039 -.028 -.031 .045 508.078 209.59)"/><path d="M248.44 462.47c29.436 48.274 77.71 121.28 101.26 170.73 26.295-51.807 74.962-128.34 104.79-175.44-31.79 36.107-71.822 88.7-104.79 116.56-33.36-27.866-70.253-78.103-101.26-111.86z" transform="matrix(-.037 -.042 -.04 .042 511.764 217.78)"/><path d="M332.03 604.94c1.177 0 21.194-164.84 21.194-164.84l17.66 164.84-20.015 28.258-18.84-28.258z" transform="matrix(-.038 -.04 -.038 .044 511.171 216.19)"/><path d="M248.44 462.47c29.436 48.274 77.71 121.28 101.26 170.73 26.295-51.807 74.962-128.34 104.79-175.44-31.79 36.107-71.822 88.7-104.79 116.56-33.36-27.866-70.253-78.103-101.26-111.86z" transform="matrix(-.038 -.04 -.038 .044 510.029 217.31)"/><path d="M332.03 604.94c1.177 0 21.194-164.84 21.194-164.84l17.66 164.84-20.015 28.258-18.84-28.258z" transform="matrix(-.044 -.032 -.031 .05 507.76 211.041)"/><path d="M248.44 462.47c29.436 48.274 77.71 121.28 101.26 170.73 26.295-51.807 74.962-128.34 104.79-175.44-31.79 36.107-71.822 88.7-104.79 116.56-33.36-27.866-70.253-78.103-101.26-111.86z" transform="matrix(-.035 -.043 -.041 .041 509.709 220.782)"/><path d="M332.03 604.94c1.177 0 21.194-164.84 21.194-164.84l17.66 164.84-20.015 28.258-18.84-28.258z" transform="matrix(-.031 -.046 -.045 .036 510.664 225.001)"/><path d="M248.44 462.47c29.436 48.274 77.71 121.28 101.26 170.73 26.295-51.807 74.962-128.34 104.79-175.44-31.79 36.107-71.822 88.7-104.79 116.56-33.36-27.866-70.253-78.103-101.26-111.86z" transform="matrix(-.031 -.047 -.043 .037 508.193 224.632)"/><path d="M332.03 604.94c1.177 0 21.194-164.84 21.194-164.84l17.66 164.84-20.015 28.258-18.84-28.258z" transform="matrix(-.041 -.035 -.033 .048 506.039 213.425)"/><path d="M248.44 462.47c29.436 48.274 77.71 121.28 101.26 170.73 26.295-51.807 74.962-128.34 104.79-175.44-31.79 36.107-71.822 88.7-104.79 116.56-33.36-27.866-70.253-78.103-101.26-111.86z" transform="matrix(-.043 -.042 -.041 .054 510.72 214.711)"/><path d="M332.03 604.94c1.177 0 21.194-164.84 21.194-164.84l17.66 164.84-20.015 28.258-18.84-28.258z" transform="matrix(-.045 -.039 -.039 .055 509.972 212.987)"/><path d="M248.44 462.47c29.436 48.274 77.71 121.28 101.26 170.73 26.295-51.807 74.962-128.34 104.79-175.44-31.79 36.107-71.822 88.7-104.79 116.56-33.36-27.866-70.253-78.103-101.26-111.86z" transform="matrix(-.045 -.039 -.039 .056 508.782 214.436)"/><path d="M332.03 604.94c1.177 0 21.194-164.84 21.194-164.84l17.66 164.84-20.015 28.258-18.84-28.258z" transform="matrix(-.051 -.029 -.031 .061 505.911 207.629)"/><path d="M248.44 462.47c29.436 48.274 77.71 121.28 101.26 170.73 26.295-51.807 74.962-128.34 104.79-175.44-31.79 36.107-71.822 88.7-104.79 116.56-33.36-27.866-70.253-78.103-101.26-111.86z" transform="matrix(-.045 -.039 -.039 .056 507.31 215.102)"/><path d="M332.03 604.94c1.177 0 21.194-164.84 21.194-164.84l17.66 164.84-20.015 28.258-18.84-28.258z" transform="matrix(-.041 -.044 -.043 .052 509.049 219.581)"/><path d="M248.44 462.47c29.436 48.274 77.71 121.28 101.26 170.73 26.295-51.807 74.962-128.34 104.79-175.44-31.79 36.107-71.822 88.7-104.79 116.56-33.36-27.866-70.253-78.103-101.26-111.86z" transform="matrix(-.053 -.026 -.027 .063 503.483 207.883)"/><path d="M332.03 604.94c1.177 0 21.194-164.84 21.194-164.84l17.66 164.84-20.015 28.258-18.84-28.258z" transform="matrix(-.058 -.008 -.012 .068 496.321 198.374)"/><path d="M248.44 462.47c29.436 48.274 77.71 121.28 101.26 170.73 26.295-51.807 74.962-128.34 104.79-175.44-31.79 36.107-71.822 88.7-104.79 116.56-33.36-27.866-70.253-78.103-101.26-111.86z" transform="matrix(-.052 -.026 -.027 .063 502.76 209.062)"/><path d="M332.03 604.94c1.177 0 21.194-164.84 21.194-164.84l17.66 164.84-20.015 28.258-18.84-28.258z" transform="matrix(-.054 -.023 -.024 .064 501.804 207.31)"/><path d="M248.44 462.47c29.436 48.274 77.71 121.28 101.26 170.73 26.295-51.807 74.962-128.34 104.79-175.44-31.79 36.107-71.822 88.7-104.79 116.56-33.36-27.866-70.253-78.103-101.26-111.86z" transform="matrix(-.057 -.02 -.021 .068 500.805 205.66)"/><path d="M332.03 604.94c1.177 0 21.194-164.84 21.194-164.84l17.66 164.84-20.015 28.258-18.84-28.258z" transform="matrix(-.06 -.008 -.011 .07 495.786 200.282)"/><path d="M248.44 462.47c29.436 48.274 77.71 121.28 101.26 170.73 26.295-51.807 74.962-128.34 104.79-175.44-31.79 36.107-71.822 88.7-104.79 116.56-33.36-27.866-70.253-78.103-101.26-111.86z" transform="matrix(-.055 -.026 -.026 .066 501.819 210.03)"/><path d="M332.03 604.94c1.177 0 21.194-164.84 21.194-164.84l17.66 164.84-20.015 28.258-18.84-28.258z" transform="matrix(-.052 -.032 -.031 .063 504.622 213.989)"/><path d="M248.44 462.47c29.436 48.274 77.71 121.28 101.26 170.73 26.295-51.807 74.962-128.34 104.79-175.44-31.79 36.107-71.822 88.7-104.79 116.56-33.36-27.866-70.253-78.103-101.26-111.86z" transform="matrix(-.054 -.02 -.02 .069 498.642 207.224)"/><path d="M332.03 604.94c1.177 0 21.194-164.84 21.194-164.84l17.66 164.84-20.015 28.258-18.84-28.258z" transform="matrix(-.061 -.001 -.005 .071 491.69 199.414)"/><path d="M248.44 462.47c29.436 48.274 77.71 121.28 101.26 170.73 26.295-51.807 74.962-128.34 104.79-175.44-31.79 36.107-71.822 88.7-104.79 116.56-33.36-27.866-70.253-78.103-101.26-111.86z" transform="matrix(-.055 -.02 -.018 .069 496.585 207.881)"/><path d="M332.03 604.94c1.177 0 21.194-164.84 21.194-164.84l17.66 164.84-20.015 28.258-18.84-28.258z" transform="matrix(-.055 -.016 -.015 .07 495.418 206.19)"/><path d="M248.44 462.47c29.436 48.274 77.71 121.28 101.26 170.73 26.295-51.807 74.962-128.34 104.79-175.44-31.79 36.107-71.822 88.7-104.79 116.56-33.36-27.866-70.253-78.103-101.26-111.86z" transform="matrix(-.056 -.014 -.013 .071 493.994 206.349)"/><path d="M332.03 604.94c1.177 0 21.194-164.84 21.194-164.84l17.66 164.84-20.015 28.258-18.84-28.258z" transform="matrix(-.057 -.002 -.003 .072 488.685 201.462)"/><path d="M248.44 462.47c29.436 48.274 77.71 121.28 101.26 170.73 26.295-51.807 74.962-128.34 104.79-175.44-31.79 36.107-71.822 88.7-104.79 116.56-33.36-27.866-70.253-78.103-101.26-111.86z" transform="matrix(-.057 -.012 -.009 .072 492.409 205.791)"/><path d="M332.03 604.94c1.177 0 21.194-164.84 21.194-164.84l17.66 164.84-20.015 28.258-18.84-28.258z" transform="matrix(-.056 -.018 -.015 .07 495.931 208.956)"/><path d="M248.44 462.47c29.436 48.274 77.71 121.28 101.26 170.73 26.295-51.807 74.962-128.34 104.79-175.44-31.79 36.107-71.822 88.7-104.79 116.56-33.36-27.866-70.253-78.103-101.26-111.86z" transform="matrix(-.058 -.003 -.003 .073 489.172 204.498)"/><path d="M332.03 604.94c1.177 0 21.194-164.84 21.194-164.84l17.66 164.84-20.015 28.258-18.84-28.258z" transform="matrix(-.056 .016 .013 .071 479.217 198.183)"/><path d="M248.44 462.47c29.436 48.274 77.71 121.28 101.26 170.73 26.295-51.807 74.962-128.34 104.79-175.44-31.79 36.107-71.822 88.7-104.79 116.56-33.36-27.866-70.253-78.103-101.26-111.86z" transform="matrix(-.059 -.003 -.003 .072 489.781 205.923)"/><path d="M332.03 604.94c1.177 0 21.194-164.84 21.194-164.84l17.66 164.84-20.015 28.258-18.84-28.258z" transform="matrix(-.059 0 -.001 .072 488.248 204.623)"/><path d="M248.44 462.47c29.436 48.274 77.71 121.28 101.26 170.73 26.295-51.807 74.962-128.34 104.79-175.44-31.79 36.107-71.822 88.7-104.79 116.56-33.36-27.866-70.253-78.103-101.26-111.86z" transform="matrix(-.059 -.005 -.005 .072 490.482 207.353)"/><path d="M332.03 604.94c1.177 0 21.194-164.84 21.194-164.84l17.66 164.84-20.015 28.258-18.84-28.258z" transform="matrix(-.059 .007 .005 .072 484.453 203.399)"/><path d="M248.44 462.47c29.436 48.274 77.71 121.28 101.26 170.73 26.295-51.807 74.962-128.34 104.79-175.44-31.79 36.107-71.822 88.7-104.79 116.56-33.36-27.866-70.253-78.103-101.26-111.86z" transform="matrix(-.059 -.009 -.008 .072 491.115 210.259)"/><path d="M332.03 604.94c1.177 0 21.194-164.84 21.194-164.84l17.66 164.84-20.015 28.258-18.84-28.258z" transform="matrix(-.058 -.016 -.014 .071 494.503 213.267)"/><path d="M248.44 462.47c29.436 48.274 77.71 121.28 101.26 170.73 26.295-51.807 74.962-128.34 104.79-175.44-31.79 36.107-71.822 88.7-104.79 116.56-33.36-27.866-70.253-78.103-101.26-111.86z" transform="matrix(-.059 -.001 -.001 .072 488.31 208.293)"/><path d="M332.03 604.94c1.177 0 21.194-164.84 21.194-164.84l17.66 164.84-20.015 28.258-18.84-28.258z" transform="matrix(-.057 .018 .014 .07 477.106 203.272)"/><path d="M248.44 462.47c29.436 48.274 77.71 121.28 101.26 170.73 26.295-51.807 74.962-128.34 104.79-175.44-31.79 36.107-71.822 88.7-104.79 116.56-33.36-27.866-70.253-78.103-101.26-111.86z" transform="matrix(-.058 .012 .009 .071 482.652 206.4)"/><path d="M332.03 604.94c1.177 0 21.194-164.84 21.194-164.84l17.66 164.84-20.015 28.258-18.84-28.258z" transform="matrix(-.057 .021 .016 .069 479.024 203.803)"/><path d="M248.44 462.47c29.436 48.274 77.71 121.28 101.26 170.73 26.295-51.807 74.962-128.34 104.79-175.44-31.79 36.107-71.822 88.7-104.79 116.56-33.36-27.866-70.253-78.103-101.26-111.86z" transform="matrix(-.058 .013 .01 .071 482.363 207.456)"/><path d="M332.03 604.94c1.177 0 21.194-164.84 21.194-164.84l17.66 164.84-20.015 28.258-18.84-28.258z" transform="matrix(-.054 .029 .023 .066 473.86 204.73)"/><path d="M248.44 462.47c29.436 48.274 77.71 121.28 101.26 170.73 26.295-51.807 74.962-128.34 104.79-175.44-31.79 36.107-71.822 88.7-104.79 116.56-33.36-27.866-70.253-78.103-101.26-111.86z" transform="matrix(-.057 .021 .018 .069 477.802 207.316)"/><path d="M332.03 604.94c1.177 0 21.194-164.84 21.194-164.84l17.66 164.84-20.015 28.258-18.84-28.258z" transform="matrix(-.059 .011 .009 .072 484.461 209.079)"/><path d="M248.44 462.47c29.436 48.274 77.71 121.28 101.26 170.73 26.295-51.807 74.962-128.34 104.79-175.44-31.79 36.107-71.822 88.7-104.79 116.56-33.36-27.866-70.253-78.103-101.26-111.86z" transform="matrix(-.054 .029 .024 .066 474.352 207.957)"/><path d="M332.03 604.94c1.177 0 21.194-164.84 21.194-164.84l17.66 164.84-20.015 28.258-18.84-28.258z" transform="matrix(-.046 .045 .038 .056 462.882 207.839)"/><path d="M248.44 462.47c29.436 48.274 77.71 121.28 101.26 170.73 26.295-51.807 74.962-128.34 104.79-175.44-31.79 36.107-71.822 88.7-104.79 116.56-33.36-27.866-70.253-78.103-101.26-111.86z" transform="matrix(-.054 .029 .024 .066 474.645 209.391)"/><path d="M332.03 604.94c1.177 0 21.194-164.84 21.194-164.84l17.66 164.84-20.015 28.258-18.84-28.258z" transform="matrix(-.053 .032 .027 .065 472.787 209.05)"/><path d="M248.44 462.47c29.436 48.274 77.71 121.28 101.26 170.73 26.295-51.807 74.962-128.34 104.79-175.44-31.79 36.107-71.822 88.7-104.79 116.56-33.36-27.866-70.253-78.103-101.26-111.86z" transform="matrix(-.053 .032 .027 .065 473.396 210.937)"/><path d="M332.03 604.94c1.177 0 21.194-164.84 21.194-164.84l17.66 164.84-20.015 28.258-18.84-28.258z" transform="matrix(-.048 .042 .035 .059 466.523 211.211)"/><path d="M248.44 462.47c29.436 48.274 77.71 121.28 101.26 170.73 26.295-51.807 74.962-128.34 104.79-175.44-31.79 36.107-71.822 88.7-104.79 116.56-33.36-27.866-70.253-78.103-101.26-111.86z" transform="matrix(-.053 .032 .027 .065 473.238 212.802)"/><path d="M332.03 604.94c1.177 0 21.194-164.84 21.194-164.84l17.66 164.84-20.015 28.258-18.84-28.258z" transform="matrix(-.055 .026 .022 .068 477.69 212.783)"/><path d="M248.44 462.47c29.436 48.274 77.71 121.28 101.26 170.73 26.295-51.807 74.962-128.34 104.79-175.44-31.79 36.107-71.822 88.7-104.79 116.56-33.36-27.866-70.253-78.103-101.26-111.86z" transform="matrix(-.05 .039 .033 .061 469.927 214.127)"/><path d="M332.03 604.94c1.177 0 21.194-164.84 21.194-164.84l17.66 164.84-20.015 28.258-18.84-28.258z" transform="matrix(-.034 .057 .049 .044 455.454 216.225)"/><path d="M248.44 462.47c29.436 48.274 77.71 121.28 101.26 170.73 26.295-51.807 74.962-128.34 104.79-175.44-31.79 36.107-71.822 88.7-104.79 116.56-33.36-27.866-70.253-78.103-101.26-111.86z" transform="matrix(-.048 .041 .036 .059 468.244 214.814)"/><path d="M332.03 604.94c1.177 0 21.194-164.84 21.194-164.84l17.66 164.84-20.015 28.258-18.84-28.258z" transform="matrix(-.046 .044 .038 .057 466.368 214.932)"/><path d="M248.44 462.47c29.436 48.274 77.71 121.28 101.26 170.73 26.295-51.807 74.962-128.34 104.79-175.44-31.79 36.107-71.822 88.7-104.79 116.56-33.36-27.866-70.253-78.103-101.26-111.86z" transform="matrix(-.046 .044 .038 .057 467.319 216.629)"/><path d="M332.03 604.94c1.177 0 21.194-164.84 21.194-164.84l17.66 164.84-20.015 28.258-18.84-28.258z" transform="matrix(-.035 .056 .048 .045 458.374 219.634)"/><path d="M248.44 462.47c29.436 48.274 77.71 121.28 101.26 170.73 26.295-51.807 74.962-128.34 104.79-175.44-31.79 36.107-71.822 88.7-104.79 116.56-33.36-27.866-70.253-78.103-101.26-111.86z" transform="matrix(-.042 .048 .042 .053 465.181 218.959)"/><path d="M332.03 604.94c1.177 0 21.194-164.84 21.194-164.84l17.66 164.84-20.015 28.258-18.84-28.258z" transform="matrix(-.046 .043 .037 .058 469.428 217.479)"/><path d="M248.44 462.47c29.436 48.274 77.71 121.28 101.26 170.73 26.295-51.807 74.962-128.34 104.79-175.44-31.79 36.107-71.822 88.7-104.79 116.56-33.36-27.866-70.253-78.103-101.26-111.86z" transform="matrix(-.038 .054 .046 .048 462.345 221.321)"/><path d="M332.03 604.94c1.177 0 21.194-164.84 21.194-164.84l17.66 164.84-20.015 28.258-18.84-28.258z" transform="matrix(-.013 .068 .059 .022 445.567 231.104)"/><path d="M248.44 462.47c29.436 48.274 77.71 121.28 101.26 170.73 26.295-51.807 74.962-128.34 104.79-175.44-31.79 36.107-71.822 88.7-104.79 116.56-33.36-27.866-70.253-78.103-101.26-111.86z" transform="matrix(-.038 .054 .046 .048 463.14 222.47)"/><path d="M332.03 604.94c1.177 0 21.194-164.84 21.194-164.84l17.66 164.84-20.015 28.258-18.84-28.258z" transform="matrix(-.026 .061 .055 .036 454.077 225.581)"/><path d="M248.44 462.47c29.436 48.274 77.71 121.28 101.26 170.73 26.295-51.807 74.962-128.34 104.79-175.44-31.79 36.107-71.822 88.7-104.79 116.56-33.36-27.866-70.253-78.103-101.26-111.86z" transform="matrix(-.026 .061 .055 .036 455.541 226.74)"/><path d="M332.03 604.94c1.177 0 21.194-164.84 21.194-164.84l17.66 164.84-20.015 28.258-18.84-28.258z" transform="matrix(-.016 .067 .058 .025 450.216 231.495)"/><path d="M248.44 462.47c29.436 48.274 77.71 121.28 101.26 170.73 26.295-51.807 74.962-128.34 104.79-175.44-31.79 36.107-71.822 88.7-104.79 116.56-33.36-27.866-70.253-78.103-101.26-111.86z" transform="matrix(-.025 .062 .055 .036 456.383 228.387)"/><path d="M332.03 604.94c1.177 0 21.194-164.84 21.194-164.84l17.66 164.84-20.015 28.258-18.84-28.258z" transform="matrix(-.03 .058 .052 .042 459.915 225.44)"/><path d="M248.44 462.47c29.436 48.274 77.71 121.28 101.26 170.73 26.295-51.807 74.962-128.34 104.79-175.44-31.79 36.107-71.822 88.7-104.79 116.56-33.36-27.866-70.253-78.103-101.26-111.86z" transform="matrix(-.019 .065 .058 .029 454.437 231.664)"/><path d="M332.03 604.94c1.177 0 21.194-164.84 21.194-164.84l17.66 164.84-20.015 28.258-18.84-28.258z" transform="matrix(-.003 .07 .061 .01 446.569 240.922)"/><path d="M332.03 604.94c1.177 0 21.194-164.84 21.194-164.84l17.66 164.84-20.015 28.258-18.84-28.258z" transform="matrix(.001 -.027 -.044 .004 514.276 227.826)"/><path d="M248.44 462.47c29.436 48.274 77.71 121.28 101.26 170.73 26.295-51.807 74.962-128.34 104.79-175.44-31.79 36.107-71.822 88.7-104.79 116.56-33.36-27.866-70.253-78.103-101.26-111.86z" transform="matrix(.001 -.028 -.044 .004 512.222 228.003)"/><path d="M332.03 604.94c1.177 0 21.194-164.84 21.194-164.84l17.66 164.84-20.015 28.258-18.84-28.258z" transform="matrix(-.006 -.026 -.043 .009 516.153 224.981)"/><path d="M248.44 462.47c29.436 48.274 77.71 121.28 101.26 170.73 26.295-51.807 74.962-128.34 104.79-175.44-31.79 36.107-71.822 88.7-104.79 116.56-33.36-27.866-70.253-78.103-101.26-111.86z" transform="matrix(-.014 -.033 -.042 .015 515.459 224.437)"/><path d="M332.03 604.94c1.177 0 21.194-164.84 21.194-164.84l17.66 164.84-20.015 28.258-18.84-28.258z" transform="matrix(.005 -.027 -.043 .002 509.93 230.116)"/><path d="M248.44 462.47c29.436 48.274 77.71 121.28 101.26 170.73 26.295-51.807 74.962-128.34 104.79-175.44-31.79 36.107-71.822 88.7-104.79 116.56-33.36-27.866-70.253-78.103-101.26-111.86z" transform="matrix(-.004 -.026 -.044 .007 511.815 226.826)"/><path d="M332.03 604.94c1.177 0 21.194-164.84 21.194-164.84l17.66 164.84-20.015 28.258-18.84-28.258z" transform="matrix(-.016 -.024 -.041 .014 514.524 221.311)"/><path d="M248.44 462.47c29.436 48.274 77.71 121.28 101.26 170.73 26.295-51.807 74.962-128.34 104.79-175.44-31.79 36.107-71.822 88.7-104.79 116.56-33.36-27.866-70.253-78.103-101.26-111.86z" transform="matrix(-.01 -.037 -.032 .007 507.825 230.585)"/><path d="M332.03 604.94c1.177 0 21.194-164.84 21.194-164.84l17.66 164.84-20.015 28.258-18.84-28.258z" transform="matrix(-.011 -.037 -.032 .009 507.895 229.486)"/><path d="M332.03 604.94c1.177 0 21.194-164.84 21.194-164.84l17.66 164.84-20.015 28.258-18.84-28.258z" transform="matrix(.003 .069 .063 .008 441.564 241.905)"/><path d="M332.03 604.94c1.177 0 21.194-164.84 21.194-164.84l17.66 164.84-20.015 28.258-18.84-28.258z" transform="matrix(-.011 .065 .062 .023 448.602 234.679)"/><path d="M332.03 604.94c1.177 0 21.194-164.84 21.194-164.84l17.66 164.84-20.015 28.258-18.84-28.258z" transform="matrix(0 .068 .063 .012 446.198 241.267)"/><path d="M248.44 462.47c29.436 48.274 77.71 121.28 101.26 170.73 26.295-51.807 74.962-128.34 104.79-175.44-31.79 36.107-71.822 88.7-104.79 116.56-33.36-27.866-70.253-78.103-101.26-111.86z" transform="matrix(-.01 .065 .062 .023 451.508 236.898)"/><path d="M332.03 604.94c1.177 0 21.194-164.84 21.194-164.84l17.66 164.84-20.015 28.258-18.84-28.258z" transform="matrix(-.016 .063 .061 .029 454.278 233.263)"/><path d="M248.44 462.47c29.436 48.274 77.71 121.28 101.26 170.73 26.295-51.807 74.962-128.34 104.79-175.44-31.79 36.107-71.822 88.7-104.79 116.56-33.36-27.866-70.253-78.103-101.26-111.86z" transform="matrix(-.003 .067 .063 .015 450.365 240.507)"/><path d="M332.03 604.94c1.177 0 21.194-164.84 21.194-164.84l17.66 164.84-20.015 28.258-18.84-28.258z" transform="matrix(.013 .069 .062 -.003 444.819 251.219)"/><path d="M332.03 604.94c1.177 0 21.194-164.84 21.194-164.84l17.66 164.84-20.015 28.258-18.84-28.258z" transform="matrix(.008 .068 .063 .004 443.357 246.683)"/><path d="M332.03 604.94c1.177 0 21.194-164.84 21.194-164.84l17.66 164.84-20.015 28.258-18.84-28.258z" transform="matrix(-.006 .066 .064 .019 449.85 238.99)"/><path d="M332.03 604.94c1.177 0 21.194-164.84 21.194-164.84l17.66 164.84-20.015 28.258-18.84-28.258z" transform="matrix(.005 .068 .064 .007 447.937 245.722)"/><path d="M248.44 462.47c29.436 48.274 77.71 121.28 101.26 170.73 26.295-51.807 74.962-128.34 104.79-175.44-31.79 36.107-71.822 88.7-104.79 116.56-33.36-27.866-70.253-78.103-101.26-111.86z" transform="matrix(-.006 .066 .064 .018 452.916 240.998)"/><path d="M332.03 604.94c1.177 0 21.194-164.84 21.194-164.84l17.66 164.84-20.015 28.258-18.84-28.258z" transform="matrix(-.012 .064 .063 .025 455.411 237.182)"/><path d="M248.44 462.47c29.436 48.274 77.71 121.28 101.26 170.73 26.295-51.807 74.962-128.34 104.79-175.44-31.79 36.107-71.822 88.7-104.79 116.56-33.36-27.866-70.253-78.103-101.26-111.86z" transform="matrix(.002 .067 .064 .011 452.041 244.673)"/><path d="M332.03 604.94c1.177 0 21.194-164.84 21.194-164.84l17.66 164.84-20.015 28.258-18.84-28.258z" transform="matrix(.018 .068 .061 -.007 447.297 255.735)"/></g><path d="M374.65 434.6c0 66.213-53.676 119.89-119.89 119.89-66.213 0-119.89-53.676-119.89-119.89 0-66.213 53.676-119.89 119.89-119.89 66.213 0 119.89 53.676 119.89 119.89z" fill-rule="evenodd" transform="matrix(.167 0 0 .173 453.914 172.157)" fill="#3d25ca"/><path d="M353.57 628.49l-130.85-89.51-130.85 89.51 49.07-143.21-114.5-89.51h147.21l49.07-143.21 49.068 143.21h147.21l-114.49 89.507 49.07 143.21z" fill-rule="evenodd" transform="matrix(.084 0 0 .077 478.368 211.218)" fill="#ffd900"/><path d="M230.32 237.4v194.88" fill="none" transform="matrix(.078 0 0 .078 479.22 212.197)"/><path d="M497.185 245.915v6.91" fill="none" stroke-width=".199134"/></g><g stroke-width="1pt"><path d="M536.85 248.012c0 22.533-18.288 40.82-40.82 40.82s-40.82-18.287-40.82-40.82c0-22.53 18.287-40.82 40.82-40.82 22.53 0 40.82 18.288 40.82 40.82zm13.605 0c0 30.042-24.382 54.424-54.424 54.424s-54.423-24.382-54.423-54.424 24.382-54.424 54.424-54.424 54.425 24.382 54.425 54.424z" fill-rule="evenodd" stroke="#000" fill="#d60000" stroke-width=".192pt"/><path d="M537.454 258.026l3.593 1.328 5.96-1.09-.448 1.21-3.106.537c-.58.097-1.152.175-1.717.235.36.388.758.847 1.195 1.373l1.955 2.378-.43 1.16-3.778-4.807-3.593-1.33.367-.994zM547.508 244.343l.114 1.055-5.196.564c-.904.1-1.632.085-2.183-.038-.552-.124-1.02-.405-1.408-.843-.382-.435-.615-1.037-.7-1.805-.08-.748 0-1.374.238-1.88.24-.507.62-.89 1.147-1.154.53-.262 1.272-.445 2.225-.548l5.197-.564.114 1.054-5.19.564c-.782.084-1.35.21-1.71.38-.354.168-.614.42-.78.754-.167.337-.225.732-.176 1.186.084.775.342 1.307.775 1.594.433.286 1.213.37 2.342.246l5.19-.563zM540.498 233.477l1.037-.21.68 3.317-3.28.667c-.56-.415-1.014-.87-1.357-1.364-.34-.496-.567-1.028-.683-1.598-.157-.77-.114-1.508.127-2.214.247-.703.69-1.286 1.327-1.75.637-.464 1.39-.784 2.26-.96.86-.176 1.694-.18 2.502-.015.813.168 1.46.514 1.945 1.04.483.524.805 1.177.963 1.958.116.566.115 1.098 0 1.597-.113.502-.327.92-.644 1.255-.317.336-.76.632-1.326.888l-.48-.876c.426-.21.75-.427.972-.654.222-.228.376-.518.463-.874.09-.356.096-.732.015-1.127-.096-.474-.262-.867-.497-1.18-.23-.313-.5-.55-.81-.71-.308-.155-.633-.26-.974-.313-.59-.088-1.202-.067-1.84.063-.79.16-1.424.414-1.906.76-.482.35-.804.782-.968 1.295-.163.512-.193 1.026-.088 1.542.092.45.277.868.557 1.257.284.388.56.67.825.846l1.647-.335-.47-2.303zM502.635 204.888l1.54-8.892 1.044.18-1.36 7.843 3.88.672-.18 1.05-4.925-.854zM493.92 204.484v-9.045h5.8v1.066h-4.738v2.77h4.436v1.062h-4.436v3.08h4.923v1.066h-5.984zM468.635 210.022l.997-.458c.47.887.652 1.714.55 2.48-.102.763-.47 1.414-1.1 1.955-.653.558-1.312.865-1.98.92-.665.046-1.35-.122-2.052-.507-.7-.386-1.33-.907-1.89-1.56-.61-.71-1.02-1.434-1.234-2.168-.213-.74-.216-1.436-.006-2.09.21-.66.58-1.218 1.115-1.676.607-.52 1.266-.783 1.977-.79.712-.005 1.42.237 2.123.73l-.61.885c-.566-.377-1.08-.564-1.542-.562-.462.002-.895.177-1.3.524-.466.4-.748.86-.846 1.38-.096.52-.024 1.046.214 1.58.236.532.548 1.023.934 1.473.498.582 1.008 1.026 1.53 1.334.522.302 1.033.425 1.534.368.5-.057.936-.244 1.305-.56.45-.386.704-.858.765-1.417.06-.56-.1-1.173-.483-1.843zM464.995 217.875l-6.733-6.013.705-.79 6.733 6.013-.705.79zM460.61 223.18l-7.144-5.5.645-.84 6.302 4.852 2.4-3.118.843.65-3.045 3.955zM447.23 228.538l.39-.982 4.84 1.93c.843.336 1.478.686 1.906 1.052.428.367.71.834.846 1.4.133.563.057 1.202-.228 1.918-.278.696-.64 1.21-1.087 1.546-.446.333-.963.494-1.55.48-.59-.017-1.327-.202-2.215-.556l-4.84-1.93.39-.982 4.836 1.928c.728.29 1.29.444 1.682.465.392.015.74-.085 1.04-.3.305-.22.54-.542.71-.963.287-.723.308-1.312.06-1.767-.246-.454-.895-.892-1.946-1.31l-4.835-1.93zM452.575 250.398l-9.046.05-.034-5.796 1.067-.006.027 4.737 2.77-.016-.025-4.436 1.062-.005.025 4.436 3.08-.016-.03-4.924 1.07-.006.033 5.984zM486.214 205.578l-1.8-8.84 2.7-.55c.61-.124 1.083-.176 1.42-.157.474.026.9.16 1.28.4.493.31.904.752 1.23 1.326.333.57.578 1.247.74 2.035.135.673.187 1.282.154 1.83-.034.546-.125 1.012-.272 1.398-.148.382-.333.698-.553.948-.218.245-.5.455-.846.63-.343.175-.75.31-1.226.407l-2.826.575zm.824-1.254l1.673-.34c.518-.106.91-.242 1.18-.41.276-.17.48-.37.614-.602.19-.328.304-.738.345-1.232.042-.5-.004-1.082-.14-1.75-.188-.924-.468-1.606-.84-2.045-.368-.444-.762-.712-1.18-.802-.304-.064-.763-.034-1.38.092l-1.646.335 1.374 6.754zM515.56 209.245l4.164-8.018 2.682 1.393c.47.245.82.457 1.04.637.315.247.543.525.682.834.14.305.197.66.167 1.066-.027.407-.144.81-.35 1.207-.354.682-.846 1.16-1.477 1.434-.63.27-1.446.145-2.45-.376l-1.824-.946-1.692 3.26-.94-.49zm3.126-3.717l1.837.954c.607.315 1.105.412 1.493.29.388-.123.702-.416.942-.88.175-.335.247-.66.22-.976-.025-.318-.14-.58-.346-.783-.133-.13-.414-.305-.84-.527l-1.82-.944-1.486 2.866zM520.197 211.58l8.306-4.685.85.76-3.57 8.914-.9-.805 1.125-2.66-2.496-2.23-2.476 1.454-.84-.75zm4.19-1.227l2.025 1.808 1.042-2.42c.317-.736.59-1.327.824-1.774-.462.363-.952.696-1.47.998l-2.42 1.39zM526.55 217.578l7.146-5.5 2.16 2.808c.435.565.7 1.044.797 1.438.1.39.054.8-.135 1.226-.19.425-.482.79-.875 1.092-.506.39-1.046.574-1.617.55-.572-.023-1.14-.302-1.7-.837.05.314.06.574.033.78-.066.44-.204.914-.416 1.426l-1.097 2.6-.81-1.055.84-1.982c.24-.575.414-1.03.52-1.363.105-.332.154-.598.147-.795-.004-.194-.038-.37-.102-.526-.05-.113-.158-.278-.325-.494l-.748-.97-3.173 2.44-.646-.838zm4.638-2.234l1.386 1.802c.295.382.57.648.824.797.257.146.526.2.808.162.284-.04.542-.15.772-.327.338-.26.532-.583.58-.97.052-.383-.103-.81-.464-1.28l-1.543-2.003-2.362 1.82zM531.546 223.783l9.368-1.743.56.993-6.26 7.273-.592-1.05 1.924-2.152-1.638-2.915-2.812.573-.55-.98zm4.36.196l1.328 2.363 1.77-1.952c.536-.593.986-1.064 1.35-1.41-.553.194-1.124.35-1.712.468l-2.737.53zM539.335 247.566l8.68 3.987-.118 1.136-9.33 2.337.124-1.202 2.82-.65.344-3.334-2.634-1.154.115-1.12zm3.457 2.68l-.278 2.702 2.576-.575c.783-.177 1.424-.3 1.923-.374-.566-.162-1.124-.364-1.673-.607l-2.548-1.148zM453.846 258.54l-8.79 1.953-.766-3.453c-.155-.695-.192-1.24-.112-1.637.075-.397.29-.747.64-1.052.352-.304.77-.51 1.253-.618.625-.138 1.19-.076 1.697.187.507.26.902.754 1.184 1.476.088-.306.188-.546.3-.72.245-.37.572-.742.98-1.115l2.09-1.885.288 1.296-1.6 1.438c-.46.418-.808.757-1.045 1.014-.236.256-.393.475-.47.656-.078.178-.122.35-.13.52-.002.123.026.317.085.583l.266 1.196 3.903-.867.23 1.03zm-5.14.06l-.492-2.216c-.104-.47-.24-.828-.407-1.07-.17-.24-.392-.402-.662-.488-.275-.084-.554-.094-.838-.03-.415.092-.727.302-.935.63-.21.326-.25.777-.12 1.355l.547 2.466 2.907-.646zM452.834 242.3l-8.994-.77.258-3.01c.045-.53.108-.93.19-1.204.107-.386.276-.7.507-.95.227-.246.534-.433.92-.56.386-.132.802-.178 1.248-.14.765.065 1.395.337 1.89.813.49.476.687 1.278.59 2.406l-.175 2.045 3.657.314-.09 1.055zm-4.627-1.46l.176-2.062c.06-.68-.043-1.177-.305-1.488-.262-.31-.652-.49-1.172-.533-.376-.033-.704.025-.985.172-.283.143-.48.35-.59.617-.068.174-.122.5-.163.978l-.175 2.04 3.215.275zM456.528 228.905l-7.504-4.986 1.658-2.496c.338-.508.684-.864 1.04-1.068.356-.208.75-.294 1.182-.255.43.034.818.166 1.162.395.32.213.572.49.753.832.18.343.254.727.22 1.155.4-.314.833-.472 1.296-.474.466-.004.917.138 1.354.428.35.234.635.518.85.853.214.33.338.645.373.947s-.002.63-.11.98c-.113.344-.31.728-.59 1.15l-1.685 2.538zm-3.766-3.77l.955-1.44c.26-.39.417-.69.47-.896.075-.275.062-.526-.038-.754-.1-.23-.28-.432-.542-.607-.25-.166-.502-.26-.76-.277-.26-.022-.492.044-.69.195-.203.15-.463.462-.78.94l-.884 1.33 2.268 1.506zm3.465 2.3l1.1-1.655c.19-.284.31-.492.363-.623.093-.23.137-.444.132-.644-.005-.2-.068-.403-.19-.61-.127-.21-.31-.396-.548-.554-.28-.187-.565-.285-.854-.294-.292-.01-.555.07-.788.242-.234.167-.49.463-.773.886l-1.022 1.538 2.58 1.714zM471.474 211.823l-2.172-9.285.968-.604 7.557 5.924-1.022.638-2.24-1.825-2.838 1.773.7 2.785-.953.595zm-.003-4.367l2.302-1.437-2.032-1.68c-.62-.51-1.11-.938-1.473-1.287.22.545.403 1.11.547 1.69l.657 2.713z" fill="#ffe600"/></g></g></svg>