<svg xmlns="http://www.w3.org/2000/svg" height="512" width="512"><defs><clipPath id="a"><path fill-opacity=".67" d="M248.03 0h496.06v496.06H248.03z"/></clipPath></defs><g clip-path="url(#a)" transform="translate(-256) scale(1.032)"><g fill-rule="evenodd" stroke-width="1pt"><path fill="#fff" d="M0 166.54h992.13v162.99H0z"/><path fill="#3d25ca" d="M0 329.53h992.13v166.54H0z"/><path fill="#d60000" d="M0 0h992.13v166.54H0z"/></g><path d="M744.14 567.26c0 192.48-157.09 348.52-350.87 348.52S42.4 759.74 42.4 567.26s157.09-348.52 350.87-348.52 350.87 156.04 350.87 348.52z" fill-rule="evenodd" transform="matrix(.18177 0 0 .183 424.577 144.226)" stroke="#000" stroke-width="12.5" fill="#fff"/><g stroke="#000" stroke-width="2.553"><g fill-rule="evenodd" fill="#006700"><path d="M259.03 105.71s400.32 70.645 414.45 395.62c14.13 324.97-188.39 367.36-259.03 419.16-70.645 51.807-113.03 113.03-146 113.03-32.968 0-80.065-14.13-80.065-14.13s9.42 51.81 75.355 47.1c65.936-4.71 127.16-113.03 164.84-131.87s277.88-98.9 259.04-428.58c-14.13-353.23-423.88-390.91-428.59-400.33z" transform="matrix(.06396 .01462 -.01593 .06642 489.764 207.555)"/><path d="M320.26 487.2c0 59.825-11.597 108.32-25.903 108.32s-25.903-48.498-25.903-108.32c0-59.825 11.597-108.32 25.903-108.32s25.903 48.498 25.903 108.32z" transform="matrix(.03112 -.0024 .00766 .03003 503.315 209.136)"/><path d="M320.26 487.2c0 59.825-11.597 108.32-25.903 108.32s-25.903-48.498-25.903-108.32c0-59.825 11.597-108.32 25.903-108.32s25.903 48.498 25.903 108.32z" transform="matrix(.02818 -.0103 .01418 .02864 500.23 212.573)"/><path d="M320.26 487.2c0 59.825-11.597 108.32-25.903 108.32s-25.903-48.498-25.903-108.32c0-59.825 11.597-108.32 25.903-108.32s25.903 48.498 25.903 108.32z" transform="matrix(.00295 -.03198 .029 .0085 498.636 230.953)"/><path d="M320.26 487.2c0 59.825-11.597 108.32-25.903 108.32s-25.903-48.498-25.903-108.32c0-59.825 11.597-108.32 25.903-108.32s25.903 48.498 25.903 108.32z" transform="matrix(.0136 -.02695 .02642 .01772 496.85 223.956)"/><path d="M320.26 487.2c0 59.825-11.597 108.32-25.903 108.32s-25.903-48.498-25.903-108.32c0-59.825 11.597-108.32 25.903-108.32s25.903 48.498 25.903 108.32z" transform="matrix(.02057 -.0211 .02244 .02332 497.59 218.92)"/><path d="M151.53 682.7c0 1.665-41.628-24.978-49.954-33.303-8.333-8.33-6.668-46.62-33.31-64.94s-54.95-9.99-68.27 1.66c-13.32 11.656-8.326 38.298 23.312 61.61s53.284 1.666 69.936 9.99c16.65 8.327 43.294 24.977 56.615 38.298 13.32-9.99 46.622-21.646 64.94-29.972 18.315-8.325 64.94 11.656 96.577-11.656 26.642-18.316 38.297-56.614 19.98-68.27-18.316-11.656-51.618-6.66-71.6 4.996-19.98 11.656-29.97 58.28-49.954 66.605-14.986 4.995-56.614 28.307-58.28 24.977z" transform="matrix(.01762 -.01806 .00845 .00878 508.382 223.345)"/><path d="M320.26 487.2c0 59.825-11.597 108.32-25.903 108.32s-25.903-48.498-25.903-108.32c0-59.825 11.597-108.32 25.903-108.32s25.903 48.498 25.903 108.32z" transform="matrix(.0439 .0105 .00066 .04644 510.02 203.124)"/><path d="M320.26 487.2c0 59.825-11.597 108.32-25.903 108.32s-25.903-48.498-25.903-108.32c0-59.825 11.597-108.32 25.903-108.32s25.903 48.498 25.903 108.32z" transform="matrix(.04243 -.00213 .01015 .04736 504.608 206.665)"/><path d="M320.26 487.2c0 59.825-11.597 108.32-25.903 108.32s-25.903-48.498-25.903-108.32c0-59.825 11.597-108.32 25.903-108.32s25.903 48.498 25.903 108.32z" transform="matrix(.01468 -.04448 .03737 .02515 496.315 232.274)"/><path d="M320.26 487.2c0 59.825-11.597 108.32-25.903 108.32s-25.903-48.498-25.903-108.32c0-59.825 11.597-108.32 25.903-108.32s25.903 48.498 25.903 108.32z" transform="matrix(.02774 -.0325 .03073 .0372 496.158 221.455)"/><path d="M320.26 487.2c0 59.825-11.597 108.32-25.903 108.32s-25.903-48.498-25.903-108.32c0-59.825 11.597-108.32 25.903-108.32s25.903 48.498 25.903 108.32z" transform="matrix(.03547 -.021 .02335 .04344 498.85 214.574)"/><path d="M151.53 682.7c0 1.665-41.628-24.978-49.954-33.303-8.333-8.33-6.668-46.62-33.31-64.94s-54.95-9.99-68.27 1.66c-13.32 11.656-8.326 38.298 23.312 61.61s53.284 1.666 69.936 9.99c16.65 8.327 43.294 24.977 56.615 38.298 13.32-9.99 46.622-21.646 64.94-29.972 18.315-8.325 64.94 11.656 96.577-11.656 26.642-18.316 38.297-56.614 19.98-68.27-18.316-11.656-51.618-6.66-71.6 4.996-19.98 11.656-29.97 58.28-49.954 66.605-14.986 4.995-56.614 28.307-58.28 24.977z" transform="matrix(.03038 -.01798 .0088 .01635 512.33 225.74)"/><g><path d="M320.26 487.2c0 59.825-11.597 108.32-25.903 108.32s-25.903-48.498-25.903-108.32c0-59.825 11.597-108.32 25.903-108.32s25.903 48.498 25.903 108.32z" transform="matrix(.041 .0188 -.00774 .046 519.023 210.826)"/><path d="M320.26 487.2c0 59.825-11.597 108.32-25.903 108.32s-25.903-48.498-25.903-108.32c0-59.825 11.597-108.32 25.903-108.32s25.903 48.498 25.903 108.32z" transform="matrix(.04186 .00605 .00138 .04873 513.095 213.285)"/><path d="M320.26 487.2c0 59.825-11.597 108.32-25.903 108.32s-25.903-48.498-25.903-108.32c0-59.825 11.597-108.32 25.903-108.32s25.903 48.498 25.903 108.32z" transform="matrix(.02237 -.0411 .032 .032 500.37 236.984)"/><path d="M320.26 487.2c0 59.825-11.597 108.32-25.903 108.32s-25.903-48.498-25.903-108.32c0-59.825 11.597-108.32 25.903-108.32s25.903 48.498 25.903 108.32z" transform="matrix(.03298 -.02678 .02332 .04264 502.167 226.268)"/><path d="M320.26 487.2c0 59.825-11.597 108.32-25.903 108.32s-25.903-48.498-25.903-108.32c0-59.825 11.597-108.32 25.903-108.32s25.903 48.498 25.903 108.32z" transform="matrix(.03846 -.01392 .015 .0474 506.04 219.99)"/><path d="M151.53 682.7c0 1.665-41.628-24.978-49.954-33.303-8.333-8.33-6.668-46.62-33.31-64.94s-54.95-9.99-68.27 1.66c-13.32 11.656-8.326 38.298 23.312 61.61s53.284 1.666 69.936 9.99c16.65 8.327 43.294 24.977 56.615 38.298 13.32-9.99 46.622-21.646 64.94-29.972 18.315-8.325 64.94 11.656 96.577-11.656 26.642-18.316 38.297-56.614 19.98-68.27-18.316-11.656-51.618-6.66-71.6 4.996-19.98 11.656-29.97 58.28-49.954 66.605-14.986 4.995-56.614 28.307-58.28 24.977z" transform="matrix(.03293 -.01192 .00564 .01784 517.203 233.608)"/></g><g><path d="M320.26 487.2c0 59.825-11.597 108.32-25.903 108.32s-25.903-48.498-25.903-108.32c0-59.825 11.597-108.32 25.903-108.32s25.903 48.498 25.903 108.32z" transform="matrix(.0298 .0344 -.02486 .03945 531.243 220.35)"/><path d="M320.26 487.2c0 59.825-11.597 108.32-25.903 108.32s-25.903-48.498-25.903-108.32c0-59.825 11.597-108.32 25.903-108.32s25.903 48.498 25.903 108.32z" transform="matrix(.03554 .0229 -.01767 .04575 524.922 220.178)"/><path d="M320.26 487.2c0 59.825-11.597 108.32-25.903 108.32s-25.903-48.498-25.903-108.32c0-59.825 11.597-108.32 25.903-108.32s25.903 48.498 25.903 108.32z" transform="matrix(.0362 -.02887 .01653 .0429 504.2 236.894)"/><path d="M320.26 487.2c0 59.825-11.597 108.32-25.903 108.32s-25.903-48.498-25.903-108.32c0-59.825 11.597-108.32 25.903-108.32s25.903 48.498 25.903 108.32z" transform="matrix(.04026 -.0112 .00455 .0492 509.99 227.7)"/><path d="M320.26 487.2c0 59.825-11.597 108.32-25.903 108.32s-25.903-48.498-25.903-108.32c0-59.825 11.597-108.32 25.903-108.32s25.903 48.498 25.903 108.32z" transform="matrix(.04022 .003 -.00483 .05014 515.932 223.48)"/><path d="M151.53 682.7c0 1.665-41.628-24.978-49.954-33.303-8.333-8.33-6.668-46.62-33.31-64.94s-54.95-9.99-68.27 1.66c-13.32 11.656-8.326 38.298 23.312 61.61s53.284 1.666 69.936 9.99c16.65 8.327 43.294 24.977 56.615 38.298 13.32-9.99 46.622-21.646 64.94-29.972 18.315-8.325 64.94 11.656 96.577-11.656 26.642-18.316 38.297-56.614 19.98-68.27-18.316-11.656-51.618-6.66-71.6 4.996-19.98 11.656-29.97 58.28-49.954 66.605-14.986 4.995-56.614 28.307-58.28 24.977z" transform="matrix(.03444 .00256 -.00182 .01887 520.75 240.722)"/></g><g><path d="M320.26 487.2c0 59.825-11.597 108.32-25.903 108.32s-25.903-48.498-25.903-108.32c0-59.825 11.597-108.32 25.903-108.32s25.903 48.498 25.903 108.32z" transform="matrix(.0215 .04875 -.04033 .03455 538.387 229.622)"/><path d="M320.26 487.2c0 59.825-11.597 108.32-25.903 108.32s-25.903-48.498-25.903-108.32c0-59.825 11.597-108.32 25.903-108.32s25.903 48.498 25.903 108.32z" transform="matrix(.0316 .03815 -.0345 .0441 531.485 227.146)"/><path d="M320.26 487.2c0 59.825-11.597 108.32-25.903 108.32s-25.903-48.498-25.903-108.32c0-59.825 11.597-108.32 25.903-108.32s25.903 48.498 25.903 108.32z" transform="matrix(.04935 -.01877 .0041 .05335 503.18 238.1)"/><path d="M320.26 487.2c0 59.825-11.597 108.32-25.903 108.32s-25.903-48.498-25.903-108.32c0-59.825 11.597-108.32 25.903-108.32s25.903 48.498 25.903 108.32z" transform="matrix(.048 .0022 -.01115 .05594 512.574 230.047)"/><path d="M320.26 487.2c0 59.825-11.597 108.32-25.903 108.32s-25.903-48.498-25.903-108.32c0-59.825 11.597-108.32 25.903-108.32s25.903 48.498 25.903 108.32z" transform="matrix(.0433 .01785 -.0218 .0536 520.503 227.537)"/><path d="M151.53 682.7c0 1.665-41.628-24.978-49.954-33.303-8.333-8.33-6.668-46.62-33.31-64.94s-54.95-9.99-68.27 1.66c-13.32 11.656-8.326 38.298 23.312 61.61s53.284 1.666 69.936 9.99c16.65 8.327 43.294 24.977 56.615 38.298 13.32-9.99 46.622-21.646 64.94-29.972 18.315-8.325 64.94 11.656 96.577-11.656 26.642-18.316 38.297-56.614 19.98-68.27-18.316-11.656-51.618-6.66-71.6 4.996-19.98 11.656-29.97 58.28-49.954 66.605-14.986 4.995-56.614 28.307-58.28 24.977z" transform="matrix(.03707 .0153 -.0082 .02018 520.14 248.314)"/></g><g><path d="M320.26 487.2c0 59.825-11.597 108.32-25.903 108.32s-25.903-48.498-25.903-108.32c0-59.825 11.597-108.32 25.903-108.32s25.903 48.498 25.903 108.32z" transform="matrix(-.00586 .0588 -.0578 .00953 547.793 248.637)"/><path d="M320.26 487.2c0 59.825-11.597 108.32-25.903 108.32s-25.903-48.498-25.903-108.32c0-59.825 11.597-108.32 25.903-108.32s25.903 48.498 25.903 108.32z" transform="matrix(.00966 .05455 -.05738 .022 542.484 242.29)"/><path d="M320.26 487.2c0 59.825-11.597 108.32-25.903 108.32s-25.903-48.498-25.903-108.32c0-59.825 11.597-108.32 25.903-108.32s25.903 48.498 25.903 108.32z" transform="matrix(.05788 .0107 -.0252 .0531 509.183 236.34)"/><path d="M320.26 487.2c0 59.825-11.597 108.32-25.903 108.32s-25.903-48.498-25.903-108.32c0-59.825 11.597-108.32 25.903-108.32s25.903 48.498 25.903 108.32z" transform="matrix(.04512 .02985 -.04132 .04675 522.648 234.112)"/><path d="M320.26 487.2c0 59.825-11.597 108.32-25.903 108.32s-25.903-48.498-25.903-108.32c0-59.825 11.597-108.32 25.903-108.32s25.903 48.498 25.903 108.32z" transform="matrix(.03203 .04202 -.0503 .03837 531.672 236.31)"/><path d="M151.53 682.7c0 1.665-41.628-24.978-49.954-33.303-8.333-8.33-6.668-46.62-33.31-64.94s-54.95-9.99-68.27 1.66c-13.32 11.656-8.326 38.298 23.312 61.61s53.284 1.666 69.936 9.99c16.65 8.327 43.294 24.977 56.615 38.298 13.32-9.99 46.622-21.646 64.94-29.972 18.315-8.325 64.94 11.656 96.577-11.656 26.642-18.316 38.297-56.614 19.98-68.27-18.316-11.656-51.618-6.66-71.6 4.996-19.98 11.656-29.97 58.28-49.954 66.605-14.986 4.995-56.614 28.307-58.28 24.977z" transform="matrix(.02743 .03598 -.01894 .01444 519.973 255.86)"/></g><g><path d="M314.71 506.2c0 45.062-10.064 81.59-22.48 81.59s-22.478-36.53-22.478-81.59c0-45.062 10.064-81.59 22.48-81.59s22.478 36.53 22.478 81.59z" transform="matrix(-.00023 .08224 -.07885 .00116 547.41 251.28)"/><path d="M314.71 506.2c0 45.062-10.064 81.59-22.48 81.59s-22.478-36.53-22.478-81.59c0-45.062 10.064-81.59 22.48-81.59s22.478 36.53 22.478 81.59z" transform="matrix(.061 .05102 -.04996 .0645 512.66 223.257)"/><path d="M314.71 506.2c0 45.062-10.064 81.59-22.48 81.59s-22.478-36.53-22.478-81.59c0-45.062 10.064-81.59 22.48-81.59s22.478 36.53 22.478 81.59z" transform="matrix(.02906 .07593 -.0733 .0316 535.44 235.024)"/></g><g><path d="M314.71 506.2c0 45.062-10.064 81.59-22.48 81.59s-22.478-36.53-22.478-81.59c0-45.062 10.064-81.59 22.48-81.59s22.478 36.53 22.478 81.59z" transform="matrix(.03374 -.01838 .0363 .0327 480.236 208.16)"/><path d="M314.71 506.2c0 45.062-10.064 81.59-22.48 81.59s-22.478-36.53-22.478-81.59c0-45.062 10.064-81.59 22.48-81.59s22.478 36.53 22.478 81.59z" transform="matrix(-.00685 -.03696 .0491 .00638 484.562 228.978)"/><path d="M314.71 506.2c0 45.062-10.064 81.59-22.48 81.59s-22.478-36.53-22.478-81.59c0-45.062 10.064-81.59 22.48-81.59s22.478 36.53 22.478 81.59z" transform="matrix(.01786 -.0292 .04623 .02353 479.025 216.814)"/></g></g><g fill-rule="evenodd" fill="#006700"><path d="M339.1 586.1s113.03 32.968 211.94 89.484c98.904 56.516 252.16 272.38 292.21 280.92 44.682-1.342 105.85-37.846 126.48-164.27-67.86 43.25-107.82 101.54-174.96 40.06-23.55-14.13-102.44-137.87-187.22-199.09-84.77-61.23-254.32-122.45-254.32-122.45L339.1 586.11z" transform="matrix(.04802 .00294 -.0011 .025 463.41 255.83)"/><path d="M332.03 604.94c1.177 0 21.194-164.84 21.194-164.84l17.66 164.84-20.015 28.258-18.84-28.258z" transform="matrix(-.0164 -.03923 -.03976 .01482 514.3 226.8)"/><path d="M248.44 462.47c29.436 48.274 77.71 121.28 101.26 170.73 26.295-51.807 74.962-128.34 104.79-175.44-31.79 36.107-71.822 88.7-104.79 116.56-33.36-27.866-70.253-78.103-101.26-111.86z" transform="matrix(-.01645 -.03922 -.03974 .01486 513.154 227.116)"/><path d="M332.03 604.94c1.177 0 21.194-164.84 21.194-164.84l17.66 164.84-20.015 28.258-18.84-28.258z" transform="matrix(-.0229 -.03615 -.0364 .02126 513.307 222.262)"/><path d="M248.44 462.47c29.436 48.274 77.71 121.28 101.26 170.73 26.295-51.807 74.962-128.34 104.79-175.44-31.79 36.107-71.822 88.7-104.79 116.56-33.36-27.866-70.253-78.103-101.26-111.86z" transform="matrix(-.01726 -.04058 -.0396 .01522 512.173 227.23)"/><path d="M332.03 604.94c1.177 0 21.194-164.84 21.194-164.84l17.66 164.84-20.015 28.258-18.84-28.258z" transform="matrix(-.01284 -.0404 -.04105 .0113 511.863 230.03)"/><path d="M248.44 462.47c29.436 48.274 77.71 121.28 101.26 170.73 26.295-51.807 74.962-128.34 104.79-175.44-31.79 36.107-71.822 88.7-104.79 116.56-33.36-27.866-70.253-78.103-101.26-111.86z" transform="matrix(-.02184 -.03937 -.03738 .01978 511.558 224.87)"/><path d="M332.03 604.94c1.177 0 21.194-164.84 21.194-164.84l17.66 164.84-20.015 28.258-18.84-28.258z" transform="matrix(-.03025 -.0307 -.03058 .02858 510.65 216.392)"/><path d="M248.44 462.47c29.436 48.274 77.71 121.28 101.26 170.73 26.295-51.807 74.962-128.34 104.79-175.44-31.79 36.107-71.822 88.7-104.79 116.56-33.36-27.866-70.253-78.103-101.26-111.86z" transform="matrix(-.02718 -.04143 -.03774 .02423 513.012 223.677)"/><path d="M332.03 604.94c1.177 0 21.194-164.84 21.194-164.84l17.66 164.84-20.015 28.258-18.84-28.258z" transform="matrix(-.02888 -.03988 -.03613 .02597 512.657 222.29)"/><path d="M248.44 462.47c29.436 48.274 77.71 121.28 101.26 170.73 26.295-51.807 74.962-128.34 104.79-175.44-31.79 36.107-71.822 88.7-104.79 116.56-33.36-27.866-70.253-78.103-101.26-111.86z" transform="matrix(-.02073 -.04496 -.04573 .02764 513.936 223.152)"/><path d="M332.03 604.94c1.177 0 21.194-164.84 21.194-164.84l17.66 164.84-20.015 28.258-18.84-28.258z" transform="matrix(-.0229 -.0432 -.04435 .02952 513.84 221.633)"/><path d="M248.44 462.47c29.436 48.274 77.71 121.28 101.26 170.73 26.295-51.807 74.962-128.34 104.79-175.44-31.79 36.107-71.822 88.7-104.79 116.56-33.36-27.866-70.253-78.103-101.26-111.86z" transform="matrix(-.02698 -.04094 -.04135 .0333 512.443 219.706)"/><path d="M332.03 604.94c1.177 0 21.194-164.84 21.194-164.84l17.66 164.84-20.015 28.258-18.84-28.258z" transform="matrix(-.03356 -.03475 -.03622 .03972 511.56 213.79)"/><path d="M248.44 462.47c29.436 48.274 77.71 121.28 101.26 170.73 26.295-51.807 74.962-128.34 104.79-175.44-31.79 36.107-71.822 88.7-104.79 116.56-33.36-27.866-70.253-78.103-101.26-111.86z" transform="matrix(-.02465 -.04223 -.04318 .03117 511.165 221.873)"/><path d="M332.03 604.94c1.177 0 21.194-164.84 21.194-164.84l17.66 164.84-20.015 28.258-18.84-28.258z" transform="matrix(-.0232 -.04375 -.0436 .02952 511.626 223.72)"/><path d="M248.44 462.47c29.436 48.274 77.71 121.28 101.26 170.73 26.295-51.807 74.962-128.34 104.79-175.44-31.79 36.107-71.822 88.7-104.79 116.56-33.36-27.866-70.253-78.103-101.26-111.86z" transform="matrix(-.02932 -.03848 -.04015 .0357 510.102 219.143)"/><path d="M332.03 604.94c1.177 0 21.194-164.84 21.194-164.84l17.66 164.84-20.015 28.258-18.84-28.258z" transform="matrix(-.0389 -.02765 -.03095 .04462 508.078 209.54)"/><path d="M248.44 462.47c29.436 48.274 77.71 121.28 101.26 170.73 26.295-51.807 74.962-128.34 104.79-175.44-31.79 36.107-71.822 88.7-104.79 116.56-33.36-27.866-70.253-78.103-101.26-111.86z" transform="matrix(-.0369 -.0417 -.03975 .04162 511.805 217.65)"/><path d="M332.03 604.94c1.177 0 21.194-164.84 21.194-164.84l17.66 164.84-20.015 28.258-18.84-28.258z" transform="matrix(-.03864 -.03927 -.03765 .04323 511.205 216.076)"/><path d="M248.44 462.47c29.436 48.274 77.71 121.28 101.26 170.73 26.295-51.807 74.962-128.34 104.79-175.44-31.79 36.107-71.822 88.7-104.79 116.56-33.36-27.866-70.253-78.103-101.26-111.86z" transform="matrix(-.03868 -.03922 -.0376 .04327 510.062 217.183)"/><path d="M332.03 604.94c1.177 0 21.194-164.84 21.194-164.84l17.66 164.84-20.015 28.258-18.84-28.258z" transform="matrix(-.04446 -.03137 -.03056 .04926 507.764 210.975)"/><path d="M248.44 462.47c29.436 48.274 77.71 121.28 101.26 170.73 26.295-51.807 74.962-128.34 104.79-175.44-31.79 36.107-71.822 88.7-104.79 116.56-33.36-27.866-70.253-78.103-101.26-111.86z" transform="matrix(-.03495 -.04226 -.04138 .04006 509.754 220.617)"/><path d="M332.03 604.94c1.177 0 21.194-164.84 21.194-164.84l17.66 164.84-20.015 28.258-18.84-28.258z" transform="matrix(-.0308 -.04592 -.04455 .0358 510.727 224.793)"/><path d="M248.44 462.47c29.436 48.274 77.71 121.28 101.26 170.73 26.295-51.807 74.962-128.34 104.79-175.44-31.79 36.107-71.822 88.7-104.79 116.56-33.36-27.866-70.253-78.103-101.26-111.86z" transform="matrix(-.03154 -.04647 -.04287 .03667 508.246 224.423)"/><path d="M332.03 604.94c1.177 0 21.194-164.84 21.194-164.84l17.66 164.84-20.015 28.258-18.84-28.258z" transform="matrix(-.04177 -.0351 -.033 .04767 506.045 213.33)"/><path d="M248.44 462.47c29.436 48.274 77.71 121.28 101.26 170.73 26.295-51.807 74.962-128.34 104.79-175.44-31.79 36.107-71.822 88.7-104.79 116.56-33.36-27.866-70.253-78.103-101.26-111.86z" transform="matrix(-.04314 -.04212 -.04123 .05334 510.747 214.612)"/><path d="M332.03 604.94c1.177 0 21.194-164.84 21.194-164.84l17.66 164.84-20.015 28.258-18.84-28.258z" transform="matrix(-.0449 -.0391 -.03883 .05486 509.99 212.905)"/><path d="M248.44 462.47c29.436 48.274 77.71 121.28 101.26 170.73 26.295-51.807 74.962-128.34 104.79-175.44-31.79 36.107-71.822 88.7-104.79 116.56-33.36-27.866-70.253-78.103-101.26-111.86z" transform="matrix(-.04494 -.03903 -.03878 .0549 508.8 214.336)"/><path d="M332.03 604.94c1.177 0 21.194-164.84 21.194-164.84l17.66 164.84-20.015 28.258-18.84-28.258z" transform="matrix(-.05083 -.02922 -.03066 .0607 505.897 207.596)"/><path d="M248.44 462.47c29.436 48.274 77.71 121.28 101.26 170.73 26.295-51.807 74.962-128.34 104.79-175.44-31.79 36.107-71.822 88.7-104.79 116.56-33.36-27.866-70.253-78.103-101.26-111.86z" transform="matrix(-.04522 -.03863 -.03845 .05518 507.326 214.992)"/><path d="M332.03 604.94c1.177 0 21.194-164.84 21.194-164.84l17.66 164.84-20.015 28.258-18.84-28.258z" transform="matrix(-.0413 -.04376 -.04263 .0512 509.087 219.427)"/><path d="M248.44 462.47c29.436 48.274 77.71 121.28 101.26 170.73 26.295-51.807 74.962-128.34 104.79-175.44-31.79 36.107-71.822 88.7-104.79 116.56-33.36-27.866-70.253-78.103-101.26-111.86z" transform="matrix(-.05275 -.0255 -.0267 .06255 503.462 207.842)"/><path d="M332.03 604.94c1.177 0 21.194-164.84 21.194-164.84l17.66 164.84-20.015 28.258-18.84-28.258z" transform="matrix(-.05794 -.00803 -.01177 .06707 496.24 198.42)"/><path d="M248.44 462.47c29.436 48.274 77.71 121.28 101.26 170.73 26.295-51.807 74.962-128.34 104.79-175.44-31.79 36.107-71.822 88.7-104.79 116.56-33.36-27.866-70.253-78.103-101.26-111.86z" transform="matrix(-.05263 -.0258 -.02695 .06243 502.74 209.007)"/><path d="M332.03 604.94c1.177 0 21.194-164.84 21.194-164.84l17.66 164.84-20.015 28.258-18.84-28.258z" transform="matrix(-.0539 -.0227 -.02432 .06362 501.774 207.273)"/><path d="M248.44 462.47c29.436 48.274 77.71 121.28 101.26 170.73 26.295-51.807 74.962-128.34 104.79-175.44-31.79 36.107-71.822 88.7-104.79 116.56-33.36-27.866-70.253-78.103-101.26-111.86z" transform="matrix(-.05723 -.02013 -.0209 .06724 500.767 205.638)"/><path d="M332.03 604.94c1.177 0 21.194-164.84 21.194-164.84l17.66 164.84-20.015 28.258-18.84-28.258z" transform="matrix(-.05993 -.00852 -.01096 .06967 495.71 200.308)"/><path d="M248.44 462.47c29.436 48.274 77.71 121.28 101.26 170.73 26.295-51.807 74.962-128.34 104.79-175.44-31.79 36.107-71.822 88.7-104.79 116.56-33.36-27.866-70.253-78.103-101.26-111.86z" transform="matrix(-.055 -.02602 -.02617 .06523 501.8 209.964)"/><path d="M332.03 604.94c1.177 0 21.194-164.84 21.194-164.84l17.66 164.84-20.015 28.258-18.84-28.258z" transform="matrix(-.05222 -.0322 -.03135 .06242 504.626 213.886)"/><path d="M248.44 462.47c29.436 48.274 77.71 121.28 101.26 170.73 26.295-51.807 74.962-128.34 104.79-175.44-31.79 36.107-71.822 88.7-104.79 116.56-33.36-27.866-70.253-78.103-101.26-111.86z" transform="matrix(-.05426 -.02025 -.01976 .06825 498.6 207.182)"/><path d="M332.03 604.94c1.177 0 21.194-164.84 21.194-164.84l17.66 164.84-20.015 28.258-18.84-28.258z" transform="matrix(-.0607 -.0012 -.0049 .07022 491.6 199.44)"/><path d="M248.44 462.47c29.436 48.274 77.71 121.28 101.26 170.73 26.295-51.807 74.962-128.34 104.79-175.44-31.79 36.107-71.822 88.7-104.79 116.56-33.36-27.866-70.253-78.103-101.26-111.86z" transform="matrix(-.05478 -.01982 -.01773 .06848 496.54 207.827)"/><path d="M332.03 604.94c1.177 0 21.194-164.84 21.194-164.84l17.66 164.84-20.015 28.258-18.84-28.258z" transform="matrix(-.0556 -.01642 -.015 .06938 495.363 206.153)"/><path d="M248.44 462.47c29.436 48.274 77.71 121.28 101.26 170.73 26.295-51.807 74.962-128.34 104.79-175.44-31.79 36.107-71.822 88.7-104.79 116.56-33.36-27.866-70.253-78.103-101.26-111.86z" transform="matrix(-.05617 -.01437 -.0125 .06984 493.935 206.308)"/><path d="M332.03 604.94c1.177 0 21.194-164.84 21.194-164.84l17.66 164.84-20.015 28.258-18.84-28.258z" transform="matrix(-.05747 -.0024 -.00285 .07126 488.59 201.462)"/><path d="M248.44 462.47c29.436 48.274 77.71 121.28 101.26 170.73 26.295-51.807 74.962-128.34 104.79-175.44-31.79 36.107-71.822 88.7-104.79 116.56-33.36-27.866-70.253-78.103-101.26-111.86z" transform="matrix(-.05717 -.01153 -.00902 .07098 492.343 205.752)"/><path d="M332.03 604.94c1.177 0 21.194-164.84 21.194-164.84l17.66 164.84-20.015 28.258-18.84-28.258z" transform="matrix(-.05603 -.0183 -.0145 .06954 495.887 208.89)"/><path d="M248.44 462.47c29.436 48.274 77.71 121.28 101.26 170.73 26.295-51.807 74.962-128.34 104.79-175.44-31.79 36.107-71.822 88.7-104.79 116.56-33.36-27.866-70.253-78.103-101.26-111.86z" transform="matrix(-.05782 -.0035 -.00257 .07183 489.09 204.467)"/><path d="M332.03 604.94c1.177 0 21.194-164.84 21.194-164.84l17.66 164.84-20.015 28.258-18.84-28.258z" transform="matrix(-.05643 .01564 .01284 .0702 479.078 198.2)"/><path d="M248.44 462.47c29.436 48.274 77.71 121.28 101.26 170.73 26.295-51.807 74.962-128.34 104.79-175.44-31.79 36.107-71.822 88.7-104.79 116.56-33.36-27.866-70.253-78.103-101.26-111.86z" transform="matrix(-.05938 -.0035 -.0032 .0716 489.706 205.878)"/><path d="M332.03 604.94c1.177 0 21.194-164.84 21.194-164.84l17.66 164.84-20.015 28.258-18.84-28.258z" transform="matrix(-.05947 .00003 -.00027 .0717 488.163 204.59)"/><path d="M248.44 462.47c29.436 48.274 77.71 121.28 101.26 170.73 26.295-51.807 74.962-128.34 104.79-175.44-31.79 36.107-71.822 88.7-104.79 116.56-33.36-27.866-70.253-78.103-101.26-111.86z" transform="matrix(-.0593 -.0049 -.00436 .07153 490.414 207.294)"/><path d="M332.03 604.94c1.177 0 21.194-164.84 21.194-164.84l17.66 164.84-20.015 28.258-18.84-28.258z" transform="matrix(-.0592 .00722 .0057 .07133 484.35 203.37)"/><path d="M248.44 462.47c29.436 48.274 77.71 121.28 101.26 170.73 26.295-51.807 74.962-128.34 104.79-175.44-31.79 36.107-71.822 88.7-104.79 116.56-33.36-27.866-70.253-78.103-101.26-111.86z" transform="matrix(-.05896 -.009 -.00776 .07113 491.06 210.17)"/><path d="M332.03 604.94c1.177 0 21.194-164.84 21.194-164.84l17.66 164.84-20.015 28.258-18.84-28.258z" transform="matrix(-.05794 -.0158 -.0134 .06993 494.47 213.153)"/><path d="M248.44 462.47c29.436 48.274 77.71 121.28 101.26 170.73 26.295-51.807 74.962-128.34 104.79-175.44-31.79 36.107-71.822 88.7-104.79 116.56-33.36-27.866-70.253-78.103-101.26-111.86z" transform="matrix(-.05946 -.00098 -.0011 .0717 488.238 208.22)"/><path d="M332.03 604.94c1.177 0 21.194-164.84 21.194-164.84l17.66 164.84-20.015 28.258-18.84-28.258z" transform="matrix(-.05763 .01804 .01467 .0694 476.978 203.232)"/><path d="M248.44 462.47c29.436 48.274 77.71 121.28 101.26 170.73 26.295-51.807 74.962-128.34 104.79-175.44-31.79 36.107-71.822 88.7-104.79 116.56-33.36-27.866-70.253-78.103-101.26-111.86z" transform="matrix(-.05867 .01203 .0097 .07068 482.554 206.337)"/><path d="M332.03 604.94c1.177 0 21.194-164.84 21.194-164.84l17.66 164.84-20.015 28.258-18.84-28.258z" transform="matrix(-.0571 .02032 .01657 .06876 478.905 203.76)"/><path d="M248.44 462.47c29.436 48.274 77.71 121.28 101.26 170.73 26.295-51.807 74.962-128.34 104.79-175.44-31.79 36.107-71.822 88.7-104.79 116.56-33.36-27.866-70.253-78.103-101.26-111.86z" transform="matrix(-.0586 .01264 .0102 .07057 482.268 207.38)"/><path d="M332.03 604.94c1.177 0 21.194-164.84 21.194-164.84l17.66 164.84-20.015 28.258-18.84-28.258z" transform="matrix(-.05452 .02897 .02376 .06558 473.726 204.67)"/><path d="M248.44 462.47c29.436 48.274 77.71 121.28 101.26 170.73 26.295-51.807 74.962-128.34 104.79-175.44-31.79 36.107-71.822 88.7-104.79 116.56-33.36-27.866-70.253-78.103-101.26-111.86z" transform="matrix(-.05667 .02093 .01823 .0685 477.69 207.235)"/><path d="M332.03 604.94c1.177 0 21.194-164.84 21.194-164.84l17.66 164.84-20.015 28.258-18.84-28.258z" transform="matrix(-.05878 .01124 .00903 .0708 484.38 208.99)"/><path d="M248.44 462.47c29.436 48.274 77.71 121.28 101.26 170.73 26.295-51.807 74.962-128.34 104.79-175.44-31.79 36.107-71.822 88.7-104.79 116.56-33.36-27.866-70.253-78.103-101.26-111.86z" transform="matrix(-.05427 .02847 .02446 .06573 474.232 207.863)"/><path d="M332.03 604.94c1.177 0 21.194-164.84 21.194-164.84l17.66 164.84-20.015 28.258-18.84-28.258z" transform="matrix(-.04585 .04486 .03796 .05584 462.722 207.724)"/><path d="M248.44 462.47c29.436 48.274 77.71 121.28 101.26 170.73 26.295-51.807 74.962-128.34 104.79-175.44-31.79 36.107-71.822 88.7-104.79 116.56-33.36-27.866-70.253-78.103-101.26-111.86z" transform="matrix(-.0544 .02816 .0242 .06586 474.53 209.282)"/><path d="M332.03 604.94c1.177 0 21.194-164.84 21.194-164.84l17.66 164.84-20.015 28.258-18.84-28.258z" transform="matrix(-.05313 .03137 .02685 .0644 472.665 208.94)"/><path d="M248.44 462.47c29.436 48.274 77.71 121.28 101.26 170.73 26.295-51.807 74.962-128.34 104.79-175.44-31.79 36.107-71.822 88.7-104.79 116.56-33.36-27.866-70.253-78.103-101.26-111.86z" transform="matrix(-.0531 .03144 .0269 .06436 473.283 210.81)"/><path d="M332.03 604.94c1.177 0 21.194-164.84 21.194-164.84l17.66 164.84-20.015 28.258-18.84-28.258z" transform="matrix(-.0478 .04183 .03547 .05815 466.387 211.068)"/><path d="M248.44 462.47c29.436 48.274 77.71 121.28 101.26 170.73 26.295-51.807 74.962-128.34 104.79-175.44-31.79 36.107-71.822 88.7-104.79 116.56-33.36-27.866-70.253-78.103-101.26-111.86z" transform="matrix(-.0529 .0319 .0273 .06413 473.13 212.654)"/><path d="M332.03 604.94c1.177 0 21.194-164.84 21.194-164.84l17.66 164.84-20.015 28.258-18.84-28.258z" transform="matrix(-.05528 .02558 .02207 .0669 477.597 212.644)"/><path d="M248.44 462.47c29.436 48.274 77.71 121.28 101.26 170.73 26.295-51.807 74.962-128.34 104.79-175.44-31.79 36.107-71.822 88.7-104.79 116.56-33.36-27.866-70.253-78.103-101.26-111.86z" transform="matrix(-.0495 .03888 .03304 .06016 469.813 213.96)"/><path d="M332.03 604.94c1.177 0 21.194-164.84 21.194-164.84l17.66 164.84-20.015 28.258-18.84-28.258z" transform="matrix(-.03442 .05642 .04887 .04375 455.298 216.01)"/><path d="M248.44 462.47c29.436 48.274 77.71 121.28 101.26 170.73 26.295-51.807 74.962-128.34 104.79-175.44-31.79 36.107-71.822 88.7-104.79 116.56-33.36-27.866-70.253-78.103-101.26-111.86z" transform="matrix(-.04755 .04062 .03623 .0587 468.127 214.636)"/><path d="M332.03 604.94c1.177 0 21.194-164.84 21.194-164.84l17.66 164.84-20.015 28.258-18.84-28.258z" transform="matrix(-.0457 .04347 .03853 .05664 466.244 214.75)"/><path d="M248.44 462.47c29.436 48.274 77.71 121.28 101.26 170.73 26.295-51.807 74.962-128.34 104.79-175.44-31.79 36.107-71.822 88.7-104.79 116.56-33.36-27.866-70.253-78.103-101.26-111.86z" transform="matrix(-.04566 .04353 .03858 .0566 467.205 216.43)"/><path d="M332.03 604.94c1.177 0 21.194-164.84 21.194-164.84l17.66 164.84-20.015 28.258-18.84-28.258z" transform="matrix(-.03512 .0558 .04838 .04455 458.24 219.387)"/><path d="M248.44 462.47c29.436 48.274 77.71 121.28 101.26 170.73 26.295-51.807 74.962-128.34 104.79-175.44-31.79 36.107-71.822 88.7-104.79 116.56-33.36-27.866-70.253-78.103-101.26-111.86z" transform="matrix(-.04246 .04788 .04208 .05296 465.068 218.732)"/><path d="M332.03 604.94c1.177 0 21.194-164.84 21.194-164.84l17.66 164.84-20.015 28.258-18.84-28.258z" transform="matrix(-.04632 .04255 .0378 .05733 469.324 217.275)"/><path d="M248.44 462.47c29.436 48.274 77.71 121.28 101.26 170.73 26.295-51.807 74.962-128.34 104.79-175.44-31.79 36.107-71.822 88.7-104.79 116.56-33.36-27.866-70.253-78.103-101.26-111.86z" transform="matrix(-.0375 .0535 .04657 .04727 462.23 221.064)"/><path d="M332.03 604.94c1.177 0 21.194-164.84 21.194-164.84l17.66 164.84-20.015 28.258-18.84-28.258z" transform="matrix(-.0127 .06704 .05948 .0217 445.43 230.712)"/><path d="M248.44 462.47c29.436 48.274 77.71 121.28 101.26 170.73 26.295-51.807 74.962-128.34 104.79-175.44-31.79 36.107-71.822 88.7-104.79 116.56-33.36-27.866-70.253-78.103-101.26-111.86z" transform="matrix(-.0377 .05328 .0464 .04753 463.032 222.2)"/><path d="M332.03 604.94c1.177 0 21.194-164.84 21.194-164.84l17.66 164.84-20.015 28.258-18.84-28.258z" transform="matrix(-.02557 .06056 .05518 .03603 453.95 225.263)"/><path d="M248.44 462.47c29.436 48.274 77.71 121.28 101.26 170.73 26.295-51.807 74.962-128.34 104.79-175.44-31.79 36.107-71.822 88.7-104.79 116.56-33.36-27.866-70.253-78.103-101.26-111.86z" transform="matrix(-.0255 .0606 .0552 .03596 455.422 226.413)"/><path d="M332.03 604.94c1.177 0 21.194-164.84 21.194-164.84l17.66 164.84-20.015 28.258-18.84-28.258z" transform="matrix(-.01585 .0658 .05872 .02524 450.096 231.107)"/><path d="M248.44 462.47c29.436 48.274 77.71 121.28 101.26 170.73 26.295-51.807 74.962-128.34 104.79-175.44-31.79 36.107-71.822 88.7-104.79 116.56-33.36-27.866-70.253-78.103-101.26-111.86z" transform="matrix(-.0251 .06086 .0554 .03552 456.274 228.044)"/><path d="M332.03 604.94c1.177 0 21.194-164.84 21.194-164.84l17.66 164.84-20.015 28.258-18.84-28.258z" transform="matrix(-.03033 .05715 .05272 .04122 459.807 225.134)"/><path d="M248.44 462.47c29.436 48.274 77.71 121.28 101.26 170.73 26.295-51.807 74.962-128.34 104.79-175.44-31.79 36.107-71.822 88.7-104.79 116.56-33.36-27.866-70.253-78.103-101.26-111.86z" transform="matrix(-.01876 .06445 .05786 .0285 454.332 231.283)"/><path d="M332.03 604.94c1.177 0 21.194-164.84 21.194-164.84l17.66 164.84-20.015 28.258-18.84-28.258z" transform="matrix(-.00276 .0697 .06076 .0104 446.47 240.43)"/><path d="M332.03 604.94c1.177 0 21.194-164.84 21.194-164.84l17.66 164.84-20.015 28.258-18.84-28.258z" transform="matrix(.00095 -.0268 -.04385 .0039 514.36 227.595)"/><path d="M248.44 462.47c29.436 48.274 77.71 121.28 101.26 170.73 26.295-51.807 74.962-128.34 104.79-175.44-31.79 36.107-71.822 88.7-104.79 116.56-33.36-27.866-70.253-78.103-101.26-111.86z" transform="matrix(.00064 -.02753 -.04395 .00362 512.3 227.766)"/><path d="M332.03 604.94c1.177 0 21.194-164.84 21.194-164.84l17.66 164.84-20.015 28.258-18.84-28.258z" transform="matrix(-.0065 -.02575 -.04338 .00838 516.235 224.783)"/><path d="M248.44 462.47c29.436 48.274 77.71 121.28 101.26 170.73 26.295-51.807 74.962-128.34 104.79-175.44-31.79 36.107-71.822 88.7-104.79 116.56-33.36-27.866-70.253-78.103-101.26-111.86z" transform="matrix(-.014 -.03224 -.04237 .01486 515.536 224.244)"/><path d="M332.03 604.94c1.177 0 21.194-164.84 21.194-164.84l17.66 164.84-20.015 28.258-18.84-28.258z" transform="matrix(.0048 -.02703 -.0436 .00152 510.01 229.853)"/><path d="M248.44 462.47c29.436 48.274 77.71 121.28 101.26 170.73 26.295-51.807 74.962-128.34 104.79-175.44-31.79 36.107-71.822 88.7-104.79 116.56-33.36-27.866-70.253-78.103-101.26-111.86z" transform="matrix(-.00433 -.02613 -.04365 .00708 511.89 226.6)"/><path d="M332.03 604.94c1.177 0 21.194-164.84 21.194-164.84l17.66 164.84-20.015 28.258-18.84-28.258z" transform="matrix(-.01573 -.02332 -.04094 .01375 514.587 221.15)"/><path d="M248.44 462.47c29.436 48.274 77.71 121.28 101.26 170.73 26.295-51.807 74.962-128.34 104.79-175.44-31.79 36.107-71.822 88.7-104.79 116.56-33.36-27.866-70.253-78.103-101.26-111.86z" transform="matrix(-.00986 -.03713 -.0325 .00673 507.898 230.314)"/><path d="M332.03 604.94c1.177 0 21.194-164.84 21.194-164.84l17.66 164.84-20.015 28.258-18.84-28.258z" transform="matrix(-.01143 -.0365 -.03175 .00843 507.965 229.226)"/><path d="M332.03 604.94c1.177 0 21.194-164.84 21.194-164.84l17.66 164.84-20.015 28.258-18.84-28.258z" transform="matrix(.00335 .06792 .06318 .00826 441.45 241.393)"/><path d="M332.03 604.94c1.177 0 21.194-164.84 21.194-164.84l17.66 164.84-20.015 28.258-18.84-28.258z" transform="matrix(-.01074 .0644 .06235 .0231 448.488 234.255)"/><path d="M332.03 604.94c1.177 0 21.194-164.84 21.194-164.84l17.66 164.84-20.015 28.258-18.84-28.258z" transform="matrix(0 .06738 .06327 .01185 446.1 240.77)"/><path d="M248.44 462.47c29.436 48.274 77.71 121.28 101.26 170.73 26.295-51.807 74.962-128.34 104.79-175.44-31.79 36.107-71.822 88.7-104.79 116.56-33.36-27.866-70.253-78.103-101.26-111.86z" transform="matrix(-.01022 .0646 .06244 .02257 451.412 236.457)"/><path d="M332.03 604.94c1.177 0 21.194-164.84 21.194-164.84l17.66 164.84-20.015 28.258-18.84-28.258z" transform="matrix(-.0162 .0621 .06117 .02868 454.178 232.864)"/><path d="M248.44 462.47c29.436 48.274 77.71 121.28 101.26 170.73 26.295-51.807 74.962-128.34 104.79-175.44-31.79 36.107-71.822 88.7-104.79 116.56-33.36-27.866-70.253-78.103-101.26-111.86z" transform="matrix(-.00317 .0667 .0632 .0152 450.277 240.025)"/><path d="M332.03 604.94c1.177 0 21.194-164.84 21.194-164.84l17.66 164.84-20.015 28.258-18.84-28.258z" transform="matrix(.01368 .06835 .06177 -.003 444.75 250.614)"/><path d="M332.03 604.94c1.177 0 21.194-164.84 21.194-164.84l17.66 164.84-20.015 28.258-18.84-28.258z" transform="matrix(.00844 .06746 .06368 .00387 443.267 246.123)"/><path d="M332.03 604.94c1.177 0 21.194-164.84 21.194-164.84l17.66 164.84-20.015 28.258-18.84-28.258z" transform="matrix(-.00588 .06493 .06397 .01872 449.755 238.523)"/><path d="M332.03 604.94c1.177 0 21.194-164.84 21.194-164.84l17.66 164.84-20.015 28.258-18.84-28.258z" transform="matrix(.00505 .06716 .06404 .00745 447.86 245.18)"/><path d="M248.44 462.47c29.436 48.274 77.71 121.28 101.26 170.73 26.295-51.807 74.962-128.34 104.79-175.44-31.79 36.107-71.822 88.7-104.79 116.56-33.36-27.866-70.253-78.103-101.26-111.86z" transform="matrix(-.00535 .06508 .06402 .01818 452.84 240.516)"/><path d="M332.03 604.94c1.177 0 21.194-164.84 21.194-164.84l17.66 164.84-20.015 28.258-18.84-28.258z" transform="matrix(-.0115 .06303 .0632 .02437 455.33 236.744)"/><path d="M248.44 462.47c29.436 48.274 77.71 121.28 101.26 170.73 26.295-51.807 74.962-128.34 104.79-175.44-31.79 36.107-71.822 88.7-104.79 116.56-33.36-27.866-70.253-78.103-101.26-111.86z" transform="matrix(.00185 .0667 .0642 .0108 451.974 244.15)"/><path d="M332.03 604.94c1.177 0 21.194-164.84 21.194-164.84l17.66 164.84-20.015 28.258-18.84-28.258z" transform="matrix(.0188 .06718 .06143 -.00727 447.252 255.087)"/></g><path d="M374.65 434.6c0 66.213-53.676 119.89-119.89 119.89-66.213 0-119.89-53.676-119.89-119.89 0-66.213 53.676-119.89 119.89-119.89 66.213 0 119.89 53.676 119.89 119.89z" fill-rule="evenodd" transform="matrix(.16813 0 0 .171 453.694 172.452)" fill="#3d25ca"/><path d="M353.57 628.49l-130.85-89.51-130.85 89.51 49.07-143.21-114.5-89.51h147.21l49.07-143.21 49.068 143.21h147.21l-114.49 89.507 49.07 143.21z" fill-rule="evenodd" transform="matrix(.085 0 0 .07634 478.293 211.082)" fill="#ffd900"/><path d="M17.716 379.13l212.6 53.15M230.32 237.4v194.88M230.32 432.28v88.583M230.32 432.28l88.583 35.434M177.16 379.13l53.15 53.15M230.32 432.28l53.15-53.15M442.91 379.13l-212.59 53.15M230.32 432.28l141.73 177.17M230.32 432.28L88.58 609.45M141.73 467.72l88.583-35.434" fill="none" transform="matrix(.07847 0 0 .07714 479.15 212.05)"/></g><g stroke-width="1pt"><path d="M536.9 248.04c0 22.542-18.293 40.836-40.836 40.836s-40.836-18.295-40.836-40.837 18.294-40.838 40.836-40.838c22.54 0 40.837 18.295 40.837 40.837zm13.613 0c0 30.054-24.392 54.447-54.447 54.447s-54.448-24.393-54.448-54.448 24.393-54.45 54.448-54.45 54.447 24.394 54.447 54.45z" fill-rule="evenodd" stroke="#000" fill="#d60000" stroke-width=".19208pt"/><path d="M537.564 257.8l3.586 1.327 5.95-1.087-.447 1.208-3.1.536a28.99 28.99 0 0 1-1.714.233c.358.388.756.846 1.19 1.37l1.952 2.376-.427 1.156-3.772-4.8-3.586-1.326.367-.993zM547.648 244.047l.115 1.052-5.184.567c-.903.1-1.63.086-2.18-.036a2.593 2.593 0 0 1-1.404-.84c-.382-.434-.615-1.034-.7-1.8-.08-.746-.002-1.37.236-1.876.238-.506.62-.89 1.143-1.152.53-.263 1.27-.446 2.22-.55l5.183-.568.115 1.052-5.178.567c-.78.085-1.347.212-1.704.38a1.63 1.63 0 0 0-.778.754c-.165.336-.223.73-.174 1.183.085.773.343 1.304.775 1.59.432.285 1.21.367 2.337.243l5.178-.566zM540.408 233.53l1.038-.21.68 3.32-3.283.665a5.908 5.908 0 0 1-1.358-1.367 4.332 4.332 0 0 1-.682-1.6 4.16 4.16 0 0 1 .13-2.214c.246-.703.688-1.286 1.327-1.75.64-.464 1.393-.784 2.262-.96a6.192 6.192 0 0 1 2.504-.01c.813.167 1.462.515 1.945 1.04.485.526.806 1.18.964 1.96.115.567.114 1.1-.003 1.6a2.61 2.61 0 0 1-.642 1.254c-.318.335-.76.63-1.328.887l-.48-.877c.427-.21.75-.427.973-.653a1.85 1.85 0 0 0 .464-.875 2.5 2.5 0 0 0 .016-1.127c-.096-.475-.26-.868-.496-1.18a2.35 2.35 0 0 0-.81-.71 3.26 3.26 0 0 0-.975-.315 5.255 5.255 0 0 0-1.84.06c-.79.16-1.425.415-1.907.76-.482.35-.805.782-.97 1.295a3.016 3.016 0 0 0-.088 1.543c.09.45.276.868.556 1.257.284.388.56.67.825.846l1.647-.335-.467-2.305zM502.567 205.01l1.558-8.892 1.042.183-1.374 7.842 3.88.68-.182 1.05-4.923-.863zM493.776 204.41v-9.025h5.785v1.065h-4.725v2.765h4.426v1.06h-4.425v3.07h4.91v1.066h-5.97zM468.776 210.08l1-.46c.47.89.65 1.72.548 2.49-.104.763-.472 1.416-1.105 1.957-.657.56-1.32.867-1.987.92-.668.046-1.353-.123-2.057-.51-.702-.39-1.332-.91-1.892-1.566-.61-.714-1.022-1.44-1.236-2.175-.212-.74-.213-1.44-.003-2.095a3.62 3.62 0 0 1 1.12-1.678c.61-.52 1.27-.783 1.984-.788.713-.006 1.42.24 2.126.732l-.612.888c-.567-.38-1.083-.567-1.546-.566-.463.002-.898.177-1.304.524-.467.4-.75.86-.85 1.383-.097.52-.026 1.048.212 1.584.235.532.547 1.024.934 1.477.5.583 1.01 1.03 1.532 1.34.523.302 1.035.426 1.537.37.5-.057.938-.244 1.308-.56.45-.386.707-.86.77-1.42.06-.56-.1-1.175-.482-1.847zM465 218.02l-6.715-6.03.708-.79 6.714 6.034-.708.787zM460.657 223.146l-7.155-5.5.645-.84 6.31 4.852 2.402-3.124.844.65-3.047 3.962zM447.232 228.47l.39-.985 4.848 1.92c.844.336 1.48.685 1.91 1.05.428.367.71.833.85 1.4.133.562.06 1.202-.225 1.92-.277.696-.638 1.212-1.085 1.548a2.412 2.412 0 0 1-1.55.483c-.59-.014-1.33-.198-2.218-.55l-4.848-1.922.39-.984 4.843 1.92c.728.288 1.29.442 1.684.462.393.014.74-.087 1.042-.304.304-.22.54-.542.706-.964.287-.724.307-1.314.06-1.77-.25-.453-.9-.89-1.953-1.306l-4.843-1.92zM452.503 250.31l-9.026.074-.048-5.785 1.065-.01.04 4.727 2.763-.023-.037-4.426 1.06-.01.037 4.427 3.072-.025-.042-4.912 1.065-.01.05 5.97zM486.21 205.69l-1.785-8.848 2.7-.546c.61-.123 1.084-.174 1.423-.155.473.028.898.16 1.278.403.493.31.904.754 1.23 1.328.33.57.576 1.25.735 2.04.136.67.187 1.28.153 1.827-.035.547-.126 1.014-.274 1.4-.15.38-.335.697-.556.947a2.81 2.81 0 0 1-.848.63c-.343.173-.752.308-1.226.404l-2.83.57zm.827-1.254l1.674-.338c.52-.105.912-.24 1.182-.408.275-.17.48-.37.615-.6.19-.33.305-.74.347-1.234.043-.498-.002-1.082-.137-1.75-.187-.925-.465-1.608-.836-2.048-.367-.445-.76-.713-1.18-.804-.303-.065-.762-.035-1.38.09l-1.647.332 1.364 6.76zM515.38 209.29l4.175-8.003 2.676 1.396c.472.246.82.46 1.04.64.314.247.54.524.68.833.14.305.195.66.164 1.065-.027.408-.145.81-.35 1.206-.356.68-.85 1.157-1.48 1.43-.63.27-1.445.142-2.448-.38l-1.82-.95-1.696 3.253-.94-.49zm3.13-3.708l1.833.956c.607.316 1.104.414 1.49.292.39-.122.703-.414.945-.876.174-.335.247-.66.22-.976a1.186 1.186 0 0 0-.343-.782c-.133-.13-.413-.306-.84-.528l-1.814-.947-1.49 2.862zM519.99 211.67l8.316-4.667.85.762-3.592 8.904-.898-.806 1.13-2.658-2.49-2.234-2.478 1.447-.837-.75zm4.194-1.218l2.02 1.812 1.047-2.42a27.17 27.17 0 0 1 .83-1.77c-.464.362-.954.694-1.473.995l-2.423 1.382zM526.442 217.736l7.16-5.495 2.16 2.815c.434.566.7 1.046.794 1.44.1.392.054.8-.137 1.227-.19.426-.484.79-.878 1.093-.508.39-1.048.572-1.62.548-.572-.024-1.14-.305-1.7-.84.05.314.06.573.032.78-.066.44-.206.915-.418 1.427l-1.102 2.6-.81-1.057.845-1.983c.24-.575.414-1.03.52-1.363.107-.333.156-.6.15-.796a1.477 1.477 0 0 0-.102-.526 2.822 2.822 0 0 0-.324-.494l-.748-.974-3.18 2.44-.644-.84zm4.645-2.23l1.385 1.806c.294.383.57.65.823.8.257.146.527.2.81.163.284-.04.542-.15.773-.326.338-.26.533-.584.583-.97.053-.385-.102-.812-.463-1.283l-1.54-2.008-2.37 1.817zM531.268 223.9l9.378-1.718.556.996-6.283 7.26-.59-1.053 1.933-2.148-1.632-2.92-2.814.565-.548-.98zm4.362.21l1.322 2.367 1.775-1.948c.54-.593.99-1.063 1.358-1.41-.555.194-1.127.35-1.716.465l-2.74.524zM539.207 247.266l8.657 3.995-.118 1.135-9.318 2.318.126-1.2 2.816-.643.348-3.328-2.628-1.158.117-1.118zm3.446 2.68l-.282 2.7 2.574-.57a26.126 26.126 0 0 1 1.92-.37 12.82 12.82 0 0 1-1.67-.61l-2.54-1.15zM453.928 258.605l-8.814 1.943-.763-3.464c-.153-.696-.19-1.243-.11-1.64.078-.398.292-.75.645-1.054.353-.305.773-.51 1.257-.618.626-.138 1.192-.075 1.7.19.508.264.903.758 1.185 1.482.087-.306.188-.546.3-.72.247-.37.575-.743.984-1.116l2.1-1.888.287 1.3-1.606 1.438c-.46.42-.81.757-1.05 1.014-.236.257-.394.477-.47.658-.08.177-.124.35-.133.52-.002.123.026.318.085.585l.264 1.2 3.914-.864.228 1.035zm-5.152.05l-.49-2.22c-.104-.473-.24-.83-.406-1.074a1.263 1.263 0 0 0-.663-.49 1.624 1.624 0 0 0-.84-.032c-.416.092-.73.302-.938.63-.21.327-.252.78-.125 1.36l.545 2.47 2.916-.642zM452.83 242.31l-8.994-.772.26-3.007c.045-.53.108-.93.19-1.204.107-.386.276-.7.507-.95.228-.245.534-.432.92-.56a3.03 3.03 0 0 1 1.248-.14c.766.067 1.395.34 1.89.815.49.478.687 1.28.59 2.407l-.176 2.045 3.656.314-.09 1.055zm-4.627-1.46l.177-2.06c.06-.682-.043-1.177-.304-1.49-.262-.31-.653-.488-1.172-.532-.376-.033-.704.025-.985.172-.285.144-.482.35-.592.617-.068.174-.123.5-.164.978l-.176 2.04 3.215.275zM456.6 228.97l-7.51-5.006 1.666-2.498c.34-.508.687-.864 1.045-1.068.357-.208.752-.293 1.184-.254.43.034.82.167 1.164.397.32.215.572.493.753.836.18.344.255.73.22 1.157.402-.314.835-.47 1.3-.472.466-.003.918.14 1.355.432.352.235.635.52.85.856.214.33.338.647.373.95s-.003.63-.114.98c-.11.346-.31.73-.59 1.154l-1.693 2.54zm-3.766-3.784l.96-1.44c.26-.39.418-.69.472-.897a1.113 1.113 0 0 0-.037-.754c-.1-.23-.28-.434-.542-.61a1.573 1.573 0 0 0-.762-.278.97.97 0 0 0-.692.195c-.203.15-.463.462-.782.94l-.887 1.33 2.27 1.513zm3.468 2.313l1.105-1.66c.19-.283.31-.49.364-.622.095-.23.14-.445.135-.645a1.266 1.266 0 0 0-.19-.613 1.76 1.76 0 0 0-.548-.555 1.625 1.625 0 0 0-.855-.294 1.21 1.21 0 0 0-.79.242c-.235.167-.493.462-.776.886l-1.026 1.54 2.582 1.72zM471.475 211.67l-2.197-9.278.966-.607 7.572 5.903-1.02.64-2.245-1.817-2.832 1.78.71 2.782-.953.598zm-.015-4.367l2.296-1.442-2.036-1.672a26.764 26.764 0 0 1-1.476-1.283c.222.544.406 1.107.55 1.69l.666 2.708z" fill="#ffe600"/></g></g></svg>