<svg xmlns="http://www.w3.org/2000/svg" height="512" width="512"><defs><clipPath id="a"><path fill-opacity=".67" d="M124.02 0h496.06v496.06H124.02z"/></clipPath></defs><g clip-path="url(#a)" fill-rule="evenodd" transform="matrix(1 0 0 1 -128 0)"><path fill="#199d00" d="M0 0h744.09v496.06H0z"/><path d="M187.52 140.62c-.86 11.59-1.89 31.983 7.957 34.075 11.91 1.145 5.343-20.158 9.654-24.02.816-1.91 2.32-1.92 2.443.488v18.07c-.11 5.876 3.754 7.607 6.755 8.82 3.123-.24 5.208-.136 6.432 2.903l1.465 31.257s7.243 2.073 7.588-17.58c.346-11.54-2.305-21.2-.75-23.446.054-2.206 2.87-2.338 4.825-1.263 3.113 2.196 4.5 4.908 9.338 3.823 7.362-2.028 11.787-5.61 11.896-11.262-.43-5.372-1.032-10.745-3.36-16.117.325-.977-1.42-3.508-1.097-4.485 1.323 2.072 3.336 1.9 3.794 0-1.254-4.13-3.198-8.085-6.35-9.797-2.605-2.295-6.417-1.826-7.813 2.96-.647 5.515 1.988 12.067 6.004 17.41.854 2.086 2.052 5.554 1.525 8.677-2.137 1.22-4.274.71-6.064-1.18 0 0-5.86-4.394-5.86-5.37 1.556-9.957.346-11.086-.516-13.85-.602-3.813-2.412-5.036-3.878-7.64-1.466-1.555-3.45-1.555-4.397 0-2.59 4.49-1.383 14.128.488 18.445 1.352 3.97 3.418 6.463 2.442 6.463-.804 2.245-2.466 1.727-3.675-.863-1.726-5.353-2.072-13.34-2.072-16.937-.518-4.46-1.087-13.97-4.022-16.387-1.79-2.438-4.443-1.25-5.37.976-.193 4.425-.213 8.85.285 12.93 2.013 7.153 2.645 13.443 3.622 20.77.27 9.812-5.674 4.257-5.402-.608 1.37-6.32 1.015-16.265-.203-18.786-.966-2.52-2.106-3.143-4.455-2.728-1.865-.114-6.664 5.126-8.01 13.818 0 0-1.15 4.474-1.64 8.446-.66 4.49-3.614 7.657-5.686-.63-1.79-6.025-2.89-20.855-5.89-17.382z" fill="#fff"/><path d="M219.88 188.16c-10.51 5.138-20.675 9.93-31.014 14.896.378-7.03 14.745-19.72 24.543-19.9 6.376.18 4.774 2.472 6.47 5.004z" fill="#fff"/><path d="M214.46 197.88c-16.345 42.133 38.275 48.004 44.38 1.726.574-1.9 2.877-3.8 3.28-.69-1.267 41.9-42.25 44.78-49.213 31.598-1.726-3.107-2.245-10.014-2.418-14.16-1.037-8.23-5.353-5.064-6.044 3.11-.69 4.546-.518 5.814-.518 10.188 2.187 33.096 54.97 18.88 63.545-8.46 4.547-15.14-.75-26.305 1.726-26.25 5.237 5.643 12.546.75 14.158-1.207.69-.98 2.42-1.61 3.627-.345 4.086 2.937 11.283 1.553 12.778-3.627.864-5.065 1.555-10.303 1.728-15.712-3.34 1.038-5.813 1.727-6.043 3.11l-.69 4.488c-.288 1.44-3.168 1.496-3.282-.346-1.266-5.756-6.504-6.504-9.67 2.42-2.13 1.725-5.986 2.07-6.39-.52.518-5.985-1.9-6.792-6.734-3.97-1.553-11.858-3.106-23.197-4.66-35.054 2.014-.058 3.857 1.438 5.7-.864-2.018-6.273-6.276-19.11-8.637-20.03-1.15-1.38-2.13-.518-3.626-.173-2.532.807-4.893 2.994-4.145 7.254 2.993 18.188 4.95 32.06 7.944 50.25.46 2.13-1.324 4.947-3.626 4.66-3.914-2.648-4.89-8-11.57-7.77-4.834.057-10.36 5.295-11.05 10.362-.806 4.027-1.095 8.4-.002 11.913 3.398 4.085 7.484 3.684 11.053 2.762 2.936-1.208 5.353-4.144 6.39-3.454.69.864.17 10.532-13.815 17.958-8.46 3.8-15.196 4.663-18.82-2.245-2.245-4.316.172-20.72-5.355-16.92z" fill="#fff"/><path d="M283.79 155.05c3.28-1.21 18.824-18.994 18.824-18.994-.807-.69-1.527-1.21-2.333-1.9-.863-.748-.776-1.496 0-2.245 3.857-2.243 2.62-7.165.606-9.41-3.34-1.496-6.246-1.007-8.376.087-2.705 2.59-3.337 6.734-1.207 9.324 2.073.98 4.144 3.08 2.762 4.232-6.36 6.792-23.77 18.505-21.756 18.908.43.576 11.136.547 11.48 0zM189.93 217.99c-5.83 9.286-6.336 23.16-3.12 27.295 1.71 1.954 4.517 2.81 6.594 2.198 3.662-1.588 5.265-9.008 4.396-11.722-1.222-1.912-2.185-2.215-3.405-.588-2.577 5.232-3.647 1.643-3.873-1.28-.395-5.546.127-10.653.73-14.697.64-4.145-.012-2.878-1.322-1.205zM439.02 203.12c-5.636-12.13-13.438-24.12-15.92-28.724-2.483-4.607-21.224-31.805-23.983-34.864-6.088-7.235 9.886 3.013-2.02-11.35-4.54-3.896-4.805-4.133-8.573-7.31-1.9-1.35-6.542-3.814-7.364.27-.413 3.6-.19 5.554.415 8.552.464 2 3.376 5.347 4.808 7.287 19.014 25.56 35.874 51.37 52.133 83.822 2.567-1.22 2.006-15.652.504-17.682z" fill="#fff"/><path d="M414.28 243.71c-1.108 1.244 2.736 6.565 7.732 6.56 8.355-.97 15.71-5.663 22.52-18.017 1.82-2.88 5.022-9.043 5.116-13.823.637-28.025-1.403-49.832-5.602-70.087-.27-1.973-.105-4.292.23-4.884.54-.647 2.375.002 3.348-1.594 1.428-1.458-3.792-13.535-6.768-18.187-1.057-2.078-1.425-3.465-3.174.243-1.84 3.014-3.076 8.273-2.93 13.187 3.985 27.595 5.21 51.736 7.814 79.332.212 2.67-.18 6.547-1.954 8.093-6.562 6.852-16.033 15.286-26.332 19.175zM527.14 243.56c-5.996 3.466-6.003 7.453-1.155 7.597 8.355-.97 18.227-1.664 25.037-11.945 1.822-2.88 3.986-10.672 4.08-15.452.637-28.025-.366-48.943-4.565-69.198-.27-1.973-1.142-6.514-.808-7.106.54-1.387 3.264.15 4.237-1.445 1.428-1.457-7.05-12.35-10.027-17-1.057-2.078-1.425-3.465-3.174.243-1.84 3.014-2.483 8.42-1.746 13.187 4.43 29.965 7.728 52.477 8.408 79.036-.38 2.52-.476 3.88-1.658 7.056-2.615 3.352-5.512 7.543-8.23 9.57-2.715 2.024-8.51 3.957-10.4 5.458z" fill="#fff"/><path d="M531.64 216.7c-.07-7.008.1-13.06-.132-18.286-.23-5.227-1.154-9.483-2.963-13.193-1.712-3.977-.65-7.174-1.453-11.41-.803-4.237-.605-10.58-1.82-15.608-.332-1.963-1.352-8.25-1.037-8.853.495-1.404 2.38.043 3.3-1.583 1.38-1.503-4.782-17.447-7.908-22-1.124-2.04-3.165-1.342-5.682 1.977-2.334 2.184-1.468 7.165-.577 11.904 5.995 31.286 10.467 59.603 9.49 89.385-.298 2.532 8.844-7.553 8.782-12.333zM487.34 177.89c-3.77-.07-11.67-7.338-13.974-11.597-.87-2.443-.312-4.826.456-6.222 1.396-.907 3.544-1.927 5.15-.95 0 0 1.665 2.33 1.343 2.627 2.06.986 2.933.42 3.142-.42.14-1.465-.61-2.34-.617-3.954.873-4.38 5.88-5.06 7.764-2.268 1.38 1.703 1.886 5.32 2.095 7.764-.023 1.247-2.044-.217-3.192.083-1.15.3-1.425 1.626-1.514 2.825-.208 3.176-.584 8.272-.654 12.112zM417.75 224.47c1.04-9.522-.384-26.48-.48-32.1-.38-13.273-2.548-38.91-3.58-43.194-1.163-8.074 3.32.886 2.7-3.807-1.454-8.064-5.926-13.53-11.183-20.914-1.695-2.402-1.638-2.892-4.255.59-2.896 6.57-.396 11.088.352 16.204 3.79 16.67 6.003 32.01 7.033 47.172 1.03 15.164 1.346 31.558.406 47.528 2.84.112 7.41-4.596 9.007-11.48z" fill="#fff"/><path d="M544.47 209.22c-6.65-11.157-16.683-23.24-19.364-27.733-2.68-4.494-25.352-33.746-28.24-36.682-8.295-8.713 3.803-1.418-1.59-8.148-4.56-5.007-5.89-6.58-9.792-9.59-1.957-1.265-3.143-3.68-3.786.436-.256 3.616-.523 7.8-.28 10.847-.014 1.694 1.75 4.877 3.265 6.753 20.11 24.706 42.042 49.933 59.7 81.646 2.51-1.332 1.676-15.567.087-17.53z" fill="#fff"/><path d="M242.79 188.63c-.48.84-1.544 1.926-1.187 3.05.747 1.013 1.343 1.218 2.587 1.273 1.08 0 2.587.255 2.91-.382.582-.64 1.024-1.945.54-3.178-1.124-2.81-4.263-1.762-4.85-.762z" fill="#1ba400"/><path d="M467.16 351.26c8.892.327 14.712.406 22.62 1.347 0 0 6.82-.674 9.257-1.042 10.295-.982 10.75 14.704 10.75 14.704-.112 9.2-3.663 9.68-8.196 10.652-2.59.33-3.95-1.55-5.31-3.554-1.71.715-4.032.818-6.846.428-3.705-.232-7.41-.217-11.116-.45-3.937-.346-6.03.41-9.968.064-.81 1.274-1.866 3.038-4.274 2.47-2.003-.22-4.376-5.845-3.677-10.12 1.445-3.066 1.048-2.08.897-3.427-36.357-.926-73.062-2.547-108.72-2.084-27.904.115-55.462 1.273-83.02 2.43-14.705-.23-25.936-2.547-33.694-13.894.695 0 37.515 2.084 48.284 1.39 19.915-.233 38.093-1.853 58.356-2.432 39.947.694 79.547.695 119.49 3.473-3.82-2.614-3.958-8.79 1.923-10.298.5-.345.758 3.07 1.638 3.005 4.705-.353 2.642 6.02 1.607 7.335zM306.78 131.07c-6.054 17.303 3.468 36.23 10.07 34.387 4.763 1.972 7.796-7.09 9.746-17.016 1.334-2.785 2.342-3.082 3.027-1.65-.176 13.2.948 16.125 4.342 20.132 7.57 5.84 13.834.746 14.325.254l5.895-5.895c1.312-1.38 3.06-1.46 4.912-.244 1.8 1.637 1.548 4.465 5.404 6.426 3.246 1.298 10.184.3 11.79-2.496 2.164-3.707 2.683-4.98 3.685-6.386 1.544-2.055 4.176-1.14 4.176-.492-.245 1.146-1.79 2.293-.736 4.357 1.836 1.377 2.26.49 3.346.185 3.84-1.836 6.725-10.19 6.725-10.19.17-3.11-1.572-2.852-2.702-2.212-1.474.9-1.57 1.19-3.044 2.09-1.88.28-5.522 1.524-7.323-1.265-1.84-3.353-1.864-8.03-3.27-11.413 0-.246-2.44-5.327-.17-5.652 1.147.213 3.592.86 3.98-1.2 1.203-2.006-2.573-7.69-5.157-10.56-2.243-2.463-5.35-2.76-8.35-.246-2.102 1.933-1.8 4.093-2.212 6.14-.535 2.35-.42 5.243 1.965 8.35 2.097 4.136 5.923 9.46 4.667 16.95 0 0-2.235 3.538-6.13 3.075-1.622-.354-4.254-1.043-5.66-11.427-1.064-7.86.25-18.857-3.085-24.013-1.205-3.113-2.085-6.12-5.02-.795-.79 2.09-4.176 5.264-1.72 11.79 2.01 4.138 2.827 10.872 1.915 18.364-1.392 2.13-1.7 2.85-3.526 4.98-2.564 2.756-5.346 2.052-7.477 1.023-1.99-1.343-3.55-2.037-4.46-6.3.165-6.795.544-17.918-.698-20.278-1.832-3.655-4.852-2.333-6.142-1.23-6.198 5.668-9.26 15.23-11.13 22.844-1.72 5.55-3.55 3.96-4.835 1.72-3.13-2.934-3.343-25.878-7.123-22.106z" fill="#fff"/><path d="M325.01 168.68c2.75-1.947 1.464-3.308 5.575.802 5.147 8.8 8.455 20.196 8.95 30.293-.216 2.488 1.538 4.063 2.34 3.522.477-5.84 14.68-13.98 27.706-15.17 1.993-.433 1.024-4.25 1.35-6.197-.782-7.23 4.062-13.814 10.852-14.34 9.24 1.367 12.317 6.3 12.473 13.832-.998 14.458-16.06 16.91-24.52 18.062-1.3.49-1.84 1.09 0 1.798l35.455.16 1.81 1.046c.216.845-.518.14-1.918 2.445-1.4 2.305-3.463 7.62-3.57 11.17-10.564 3.396-21.49 4.884-32.595 6.227-3.858 1.95-5.77 4.55-4.978 7.477 1.297 3.245 9.843 6.487 9.843 6.64 1.623 1.02 3.543 3.394-.46 8.26-17.294-.76-30.696-8.12-35.336-18.508-1.398-1.085-2.904-.007-3.87 1.397-6.75 8.704-13.395 16.543-24.907 20.704-6.865 1.716-13.893-1.052-17.212-5.548-2.222-2.56-2.137-5.384-2.953-5.996-3.71 1.64-35.64 15.208-31.593 8.888 7.77-8.317 21.224-14.427 33.105-22.636.857-2.75 2.416-12.055 7.11-15.085.27.023-.745 5.464-.643 7.76.053 1.883-.138 2.62.274 2.136.802-.512 15.218-11.84 16.332-15.314 1.406-1.992.422-7.037.422-7.19-2.704-6.968-6.496-7.56-7.902-11.022-1.266-4.6-.693-9.85 1.936-11.312 2.334-2.12 5.1-1.857 7.65.46 2.91 2.607 5.497 7.704 6.245 11.5-.5 1.503-3.81-.997-4.958-.252 2.033 2.105 2.982 4.533 3.716 7.504 1.878 7.953 1.305 11.045-.585 16.188-6.4 13.458-14.58 17.474-21.738 22.46-.19.067-.318 3.414 2.374 5.224.927.974 4.66 1.474 9.05.068 8.482-4.626 17.288-13.147 21.66-22.64 1.268-7.18-.492-14.795-2.36-21.435-2.812-6.49-6.125-15.757-6.125-15.91-.11-4.047.22-5.45 1.995-7.47zM232.18 131.25c4.08 1.946 11.753 1.118 11.43-5.462 0-.582-.15-2.55-.207-3.084-.833-1.94-3.106-1.46-3.62.542-.163.656.288 1.724-.306 2.054-.34.344-1.645.142-1.59-1.676 0-.58-.428-1.202-.685-1.57-.258-.168-.422-.215-.89-.215-.568.022-.56.17-.87.648-.133.487-.316.963-.316 1.515-.07.647-.315.878-.79.973-.533 0-.413.06-.844-.216-.256-.28-.576-.387-.576-.865 0-.495-.112-1.296-.26-1.623-.227-.298-.59-.436-1-.54-2.228.007-2.382 2.55-2.254 3.514-.167.182-.262 4.742 2.778 6.004z" fill="#fff"/><path d="M351.81 181.89c4.08 1.946 13.795.826 11.43-5.462 0-.582-.15-2.55-.207-3.084-.833-1.94-3.106-1.46-3.62.542-.163.656.288 1.724-.306 2.054-.34.344-1.645.142-1.59-1.676 0-.58-.428-1.202-.685-1.57-.258-.168-.422-.215-.89-.215-.568.022-.56.17-.87.648-.133.487-.316.963-.316 1.515-.07.647-.315.878-.79.973-.533 0-.413.06-.844-.216-.256-.28-.576-.387-.576-.865 0-.495-.112-1.296-.26-1.623-.227-.298-.59-.436-1-.54-2.228.007-2.382 2.55-2.254 3.514-.167.182-.262 4.742 2.778 6.004zM421.56 160.93c4.08 1.946 11.753 1.118 11.43-5.462 0-.582-.15-2.55-.207-3.084-.833-1.94-3.106-1.46-3.62.542-.163.656.288 1.724-.306 2.054-.34.344-1.645.142-1.59-1.676 0-.58-.428-1.202-.685-1.57-.258-.168-.422-.215-.89-.215-.568.022-.56.17-.87.648-.133.487-.316.963-.316 1.515-.07.647-.315.878-.79.973-.533 0-.413.06-.844-.216-.256-.28-.576-.387-.576-.865 0-.495-.112-1.296-.26-1.623-.227-.298-.59-.436-1-.54-2.228.007-2.382 2.55-2.254 3.514-.167.182-.262 4.742 2.778 6.004zM457.69 213.56c-7.112 8.015-3.976 21.272-2.37 24.128 2.345 4.69 4.233 7.7 8.796 10.02 4.156 3.06 7.394 1.147 9.18-.995 4.18-4.334 4.23-15.4 6.194-17.592 1.377-4.027 4.844-3.34 6.527-1.554 1.63 2.345 3.552 3.857 5.948 5.133 3.9 3.44 8.56 4.07 13.148.933 3.136-1.76 5.175-4.032 7.01-8.544 2.04-5.457.904-30.664.496-45.604-.158-1.172-4.055-20.545-4.055-20.76 0-.218-.515-9.888-.944-12.192-.074-.935-.306-1.204.674-1.085 1.04.873 1.18.928 1.83 1.216 1.05.192 1.988-1.593 1.355-3.236l-9.736-17.956c-.78-.77-1.79-1.614-3.03.217-1.183 1.04-2.444 2.918-2.405 5.333.287 4.255 1.035 8.585 1.323 12.84l3.895 21.85c1.226 15.576 1.533 28.323 2.76 43.9-.173 6.594-2.223 12.344-4.146 13.174 0 0-2.926 1.696-4.888-.177-1.427-.573-7.14-9.52-7.14-9.52-2.92-2.676-4.844-1.91-6.922 0-5.73 5.534-8.323 15.885-12.217 23.024-1.004 1.593-3.842 2.957-6.986-.116-7.986-10.91-3.306-26.43-4.3-22.438zM423.4 122.72c3.656 1.53 6.235 8.936 5.394 12.552-.728 4.473-2.667 9.304-4.06 8.675-1.516-.562 1.032-4.446-.424-8.522-.81-2.653-5.798-7.5-5.273-8.93-1.03-2.993 2.12-4.303 4.363-3.775z" fill="#fff"/><path d="M469.46 217.96c.77-8.893-.53-14.316-.76-19.543-.23-5.227-5.912-45.11-7.064-49.065-1.39-7.478 5.523-1.003 4.768-5.352-2.392-5.483-8.344-13.467-10.213-18.23-1.123-2.04-.65-3.856-3.168-.537-2.334 7.63-3.144 13.868-2.253 18.607 5.994 31.286 12.142 57.3 11.166 87.08 2.843.02 6.12-6.504 7.524-12.96zM531.93 135.33c3.333 1.657 5.285 10.938 4.917 13.59-.663 4.842-2.43 10.072-3.702 9.39-1.38-.607.277-7.18-.386-9.225-.738-2.872-5.286-8.12-4.808-9.667-.94-3.24 1.934-4.66 3.978-4.088zM284.22 201.14c3.188 1.217 5.057 8.037 4.705 9.986-.636 3.558-2.328 7.4-3.542 6.9-1.322-.446.265-5.277-.37-6.78-.27-3.642-4.694-5.528-4.6-7.102-.827-2.893 1.85-3.425 3.807-3.004z" fill="#fff"/><path d="M361.25 211.38c4.115.26 6.17 3.49 2.317 4.844-3.802 1.302-7.456 2.32-7.473 7.813 1.406 7.656-1.93 5.03-3.918 3.99-2.344-1.684-8.922-5.736-9.86-14.486-.14-2.087 1.488-3.844 4.11-3.832 3.947 1.073 9.772 1.15 14.824 1.672z" fill="#1b9d00"/><path d="M199.01 120.52c4.704 1.418 4.982 8.332 4.635 10.353-.627 3.69-2.293 7.673-3.49 7.154-1.302-.463-.05-5.47-.676-7.03-.698-2.187-4.673-6.184-4.222-7.362-.885-2.47 1.824-3.55 3.752-3.115zM291.9 153.12c-3.61 1.952-5.01 7.77-2.762 11.16 2.1 2.983 5.414 1.877 5.856 1.877 3.536.442 5.634-6.63 5.634-6.63s.11-1.987-4.088 1.77c-1.767.33-1.988-.332-2.43-1.327-.368-1.84-.295-3.682.552-5.524.626-1.767-.737-2.54-2.762-1.326zM318.97 117.84c-1.814 1.216-5.424 4.956-5.534 9.265-.11 2.43-.563 2.424 1.03 3.97 1.15 1.66 2.31 1.51 4.63.294 1.333-.983 1.784-1.635 2.233-3.282.552-2.762-2.92 1.31-3.363-1.764-.773-2.854 1.457-4.022 3.556-6.784.07-1.892.03-3.232-2.553-1.7zM340.78 121.72c-.782 1.727-1.72 10.748-1.563 10.748-.624 2.688 2.813 3.838 4.376.383 2.343-6.333 2.343-9.02 2.5-11.707-.73-4.093-3.49-3.965-5.313.577zM478.28 191.69c.47-.47 19.376-13.906 19.376-13.906 1.927-.677 1.51 6.927.625 6.875.365 1.51-18.645 14.426-20 13.905-.937.677-1.875-5.208 0-6.875zM495.52 191.58c3.333 1.657 4.66 11.407 4.292 14.058.118 5.156-3.212 9.292-4.483 8.61-1.382-.607.12-6.4-.543-8.444-.737-2.872-3.567-8.276-3.09-9.823-.938-3.24 1.78-4.97 3.823-4.4zM383.06 233.56c1.315-1.922 5.377-4.688 5.47-4.688 1.873-.938 3.704.735 3.593.625.312 1.875-1.186 3.62-.717 6.12.41 1.01.71 2.128 2.557 1.7 3.002-2.36 5.783-2.513 8.785-2.664 2.3.14 2.392 4.034.937 4.063-5.543 1.205-8.027 2.69-11.985 4.2-1.875 1.093-3.484-.294-3.484-.45s-1.097-1.064-.33-3.548c.135-1.992-.667-3.084-2.326-2.858-1.25.676-2.35 1.124-2.976-.313-.246-1.06-.326-1.577.476-2.187zM515.42 238.81c.81 1.03 1.334 1.985-.065 3.68-1.326 1.214-2.26 1.883-3.586 3.098-.627 1.068-1.027 2.688.888 3.204 3.536.994 11.712-4.31 11.712-4.42 1.326-.994.884-2.872.773-2.872-.773-.884-2.515-.36-3.687-.502-.558 0-2.388-.277-1.517-1.897.726-1.007.986-1.624 1.48-2.866.55-1.215.077-2.026-1.912-2.69-2.026-.367-2.835-.183-5.082 0-1.215.26-1.63.802-1.85 2.275.086 2.233 1.445 2.106 2.844 2.99z" fill="#fff"/><path d="M383.784 183.827c-.52.896-2.27.852-3.915-.098s-2.556-2.45-2.037-3.346 2.27-.852 3.914.098 2.555 2.448 2.037 3.345zM297.484 131.908c-.982.24-2.266-.635-2.867-1.955s-.293-2.586.69-2.827 2.266.635 2.867 1.956.293 2.586-.69 2.826z" fill="#259f00"/><path d="M468.2 363.3c9.06.442 17.572.103 26.632.545 1.64 1.395.47 4.82-.625 4.575-2.946-.074-4.643-.147-7.59-.22-.1-2.887-7.465-2.413-7.253.09-3.977.48-7.564-.138-11.54-.285-1.177-1.464-1.026-4.1.376-4.705z" fill="#209000"/></g></svg>