<svg xmlns="http://www.w3.org/2000/svg" height="512" width="512"><defs><clipPath id="a"><path fill-opacity=".67" d="M0 0h496.06v496.06H0z"/></clipPath></defs><g fill-rule="evenodd" clip-path="url(#a)" stroke-width="1pt"><path d="M0 491.39L956.69 0H0v491.39z" fill="#0000d6"/><path d="M992.13 0L26.33 496.06h965.8V0z" fill="#006000"/><path d="M992.163 0h-53.167L0 470.248v25.815h53.15l938.996-469.33V-.003z" fill="#fc0"/><path fill="#fff" d="M39.03 96.123l11.55-33.35-30.17-20.6 37.273.033L69.17 8.836l11.49 33.37 37.272-.024-30.175 20.592 11.546 33.354-30.137-20.64M224.223 96.123l11.55-33.35-30.168-20.6 37.272.033 11.488-33.37 11.488 33.37 37.273-.024-30.175 20.592 11.547 33.354-30.137-20.64M224.223 236.11l11.55-33.35-30.168-20.602 37.272.034 11.488-33.37 11.488 33.37 37.273-.024-30.175 20.592 11.547 33.354-30.137-20.64M132.17 166.934l11.55-33.35-30.17-20.6 37.273.033 11.488-33.37 11.49 33.37 37.272-.024-30.175 20.592 11.546 33.354-30.137-20.642M39.03 236.11l11.55-33.35-30.17-20.602 37.273.034 11.488-33.37 11.49 33.37 37.272-.024-30.175 20.592 11.546 33.354-30.137-20.64"/></g></svg>