<svg xmlns="http://www.w3.org/2000/svg" height="512" width="512" version="1"><defs><clipPath id="a"><path fill-opacity=".67" d="M27.682 0h708.66v708.66H27.682z"/></clipPath></defs><g fill-rule="evenodd" clip-path="url(#a)" transform="matrix(.7 0 0 .7 -20 0)"><path fill="#fff" d="M0 0h1063v708.66H0z"/><path fill="#df0000" d="M0 0h1063v354.33H0z"/><path d="M245.165 59.4c-49.08 11.252-85.548 47.593-95.86 97.003-14.008 67.128 29.72 132.855 96.976 146.885-67.95 19.373-138.17-19.688-157.364-87.013-19.193-67.323 19.868-137.54 87.193-156.736 23.633-6.74 45.39-6.784 69.055-.14z" fill="#fff"/><path fill="#fff" d="M202.056 162.445l-18.946-13.81 23.44-.202 7.28-22.303 7.43 22.248 23.457.037-18.854 13.94 7.226 22.32-19.094-13.628-19 13.756M227.986 239.305l-18.946-13.81 23.44-.202 7.28-22.303 7.43 22.248 23.457.037-18.854 13.94 7.226 22.32-19.094-13.628-19 13.756M314.246 238.735l-18.946-13.81 23.44-.202 7.28-22.303 7.43 22.248 23.457.037-18.854 13.94 7.226 22.32-19.094-13.628-19 13.756M339.966 162.505l-18.946-13.81 23.44-.202 7.28-22.303 7.43 22.248 23.457.037-18.854 13.94 7.226 22.32-19.094-13.628-19 13.756M271.676 111.925l-18.946-13.81 23.44-.202 7.28-22.303 7.43 22.248 23.457.037-18.854 13.94 7.226 22.32-19.094-13.628-19 13.756"/></g></svg>