<svg xmlns="http://www.w3.org/2000/svg" height="512" width="512" version="1"><defs><clipPath id="a"><path fill-opacity=".67" d="M0 0h512v512H0z"/></clipPath></defs><g clip-path="url(#a)"><path fill="#006" d="M1023.99 511.95V-.033H-.008V511.95H1023.99z"/><path d="M-.008 85.267h107.986L-.008 31.077V-.03h61.784L212.834 75.27V-.03h85.06V75.27L448.953-.03h62.317v31.108l-108.52 54.19h108.52v85.364H402.75l108.52 54.19v31.12H448.95l-151.057-75.315v75.314h-85.06v-75.313L61.774 255.94H-.007v-31.12l107.986-54.188H-.008V85.267z" fill="#fff"/><path fill="#ce1126" d="M471.07-.034L300.415 85.324h40.85L511.26-.034h-40.19zM511.28 255.94l-170.174-85.31h41.03L511.28 235.6v20.34zM170.967 85.303L-.015-.055V20.33l129.772 64.973h41.21zM170.61 170.604L-.017 255.916h40.83l170.653-85.312H170.61z"/><path fill="#ce1126" d="M-.008 102.975h230.96V-.035h49.984v103.01H511.27v49.986H280.935v102.977h-49.984V152.96H-.008v-49.985z"/><path d="M492.91 276.93c-.23 80.748-12.968 167.74-117.48 209.176C270.91 444.67 258.17 357.678 257.943 276.93H492.91z" stroke-width="4.988496" fill="#8fc5ff" stroke="#fff"/><path fill="#366cc9" d="M375.4 486.116c47.38-18.783 75.898-46.935 92.94-79.62-2.552.1-7.896-.054-10.205-.213-2.57-.168-100.21-9.977-111.774-14.22-10.06-3.687-48.442 3.136-66.357 9.538 16.714 34.768 45.664 64.8 95.396 84.516z" stroke="#000" stroke-width="4.944"/><path fill="#5d3100" d="M302.382 436.032c1.597-.52 4.647-.395 5.85-.178 1.412.257 1.67.386 2.184-1.157s1.67-1.157 2.57-.385 3.21.385 4.108-.9c.9-1.28 1.157-1.152 2.057-.257.9.9 1.286.642 2.186.385.9-.252 2.442-1.28 3.213-2.694s1.922-1.928 2.565-1.157 1.285 1.156 2.185 1.027 1.157.77 1.028 1.923c-.128 1.157.386 1.414 2.57-.38 1.93 1.923 2.567 1.152 2.567-.9 0-2.057-.51-9.636-1.28-10.665s-1.543-3.984-1.67-6.298c-.244-4.366-.26-4.623-5.528-7.322 0-1.543-.386-2.186-4.11-1.93.13-.513-.513-2.055-1.284-2.698s-.9-.9-.514-2.695c1.54.13 3.212-.128 4.112-1.414.895-1.285 3.85-1.028 5.65-.257s4.114.9 7.58.387c1.284-1.03 3.47-2.185 5.783-3.47 2.31-1.286 2.95-1.8 3.08-3.6.33-4.613-1.285-9.893-2.57-12.33-1.28-2.443-1.667-5.528-3.466-9.385-1.96-4.197-1.93-5.265-4.114-7.836-.598-.707-1.286-1.286-1.414-2.695-.13-1.413-.643-3.34-2.18-4.755-3.886-3.565-5.4-15.035-6.94-23.514-.886-4.86-.258-16.315-2.31-18.114-3.47-2.828-5.14-2.314-7.455-3.214-1.67-2.314-2.437-6.936-3.98-11.05-2.44.386-4.112 2.957-5.783 3.856s-1.928.9-1.928 3.214c0 2.31-1.286 5.523-3.594 9.122-2.314 3.594-6.17 2.57-9.378 7.965-7.07-8.61-7.198-11.05-7.712-13.494-.514-2.437-1.67-2.95-5.65-6.422 0-1.028-.515-5.137-.13-7.45-2.956-2.443-5.14-2.057-6.55-.258-1.413 1.8-2.442 4.494-4.627 5.523-1.31 1.665-5.26 5.867-8.493 10.87 2.942 44.715 13.03 89.103 43.37 124.602z" stroke-width=".618" stroke="#000"/><path d="M492.91 276.93c.088-30.415-1.603-59.946-.832-85.824-39.054-17.477-90.443-21.07-116.65-21.07-26.21 0-77.6 3.593-116.653 21.07.77 25.878-.915 55.41-.83 85.825h234.964z" stroke-width="4.84512" stroke="#fff" fill="#ff0"/><path d="M264.267 312.133c1.285 2.057 3.6 5.592 3.856 7.515.9-1.864 1.607-2.695 1.8-3.85s1.542-3.408 1.028-4.63-.9-2.184.515-1.285c1.41.9 1.137 2.458.83 4.757-.83 6.293-3.465 7.58-3.85 11.82 3.79 8.93.963 12.144 5.072 20.88.642.386 2.358-.302 2.872-.173 2.18-1.543 3.81-.984 6.89-.34 3.085.64 4.756 2.822 4.756 4.75s0 2.442.643 3.6 1.927 2.956 1.67 4.24c-.258 1.282.257 2.053.642 2.696s-.128 2.057-.514 2.956-.257 2.056 1.285 3.984c1.543 1.924 5.137 10.022 5.137 14.773 0 4.757.257 6.942 2.185 7.837 1.928.9 2.57 1.67 2.313 3.728s.9 12.72 1.157 14.392.9 1.285 1.67 2.185c.767.894 1.282 1.922 3.852 1.922s5.053-.34 6.724-.084c2.314 3.214 3.728 7.58 4.242 10.28s.47 6.382 1.37 6.382 1.8.13 1.542-3.214-.514-3.856-1.67-5.522c-1.158-1.67-1.8-2.443-1.158-3.47s.77-2.7.514-3.986-.642-3.21 1.543-.643c2.185 2.57 2.828 3.214 3.47 4.114s.895 2.57.77 4.112c-.127 1.538.125 2.18 1.025 1.41.9-.767 2.056.514 1.542 2.185s.13 2.7 1.67 3.213 2.186.9 2.572 2.057 1.67 1.666 1.67-.643c0-2.313-.9-7.198-1.542-8.736-.642-1.542-1.157-4.885-1.285-6.813s-.514-2.437-1.414-2.823-1.67-1.028-1.798-1.928-.9-1.22-1.48-1.22-1.086-.45-1.407-1.094-.643-.707-1.286-.77-1.672.32-1.993-.708-.77-2.507-1.414-3.342-1.22-1.093-1.285-3.98c-.065-2.893-.13-3.278-1.03-4.307s-2.44-3.723-3.083-4.88c-.638-1.157-1.28-2.313-1.28.13 0 2.436 0 3.722 1.537 4.622 1.542.9 1.928.9 1.285 2.185s0 2.185.257 3.085.77 1.8 0 2.695c-.77.9-1.542.642-1.414-.767.13-1.414-.385-3.085-1.023-4.242-.643-1.156-1.157-1.927-1.928-1.284s-1.415-.13-.9-.643.385-.9 0-1.285-.515-.772.128-1.543.642-1.157.257-2.952c-.386-1.8-3.214-10.793-4.5-12.85s-1.156-3.6.515-1.542 3.085 3.858 3.214 5.524c.128 1.67.514 2.7 1.028 3.342s.9.386 1.157-1.028 1.284-.9-.515-3.595c-1.8-2.7-5.142-7.198-6.427-15.292s-1.8-13.49-3.085-15.672c-1.28-2.185-1.666-2.7-1.795-4.756s0-4.113-.9-5.65c-.9-1.544-1.542-1.8-1.67.513-.13 2.31.128 7.45.77 8.35s.258 3.21.13 4.495-2.15 2.556 2.056 5.142c1.67 1.028 1.41 2.442 1.157 3.342-.256.895-.513.766-1.413-.643-.9-1.413-1.8-2.57-2.7-3.34s-1.027-1.286-.9-3.086.515-3.085 0-3.723c-.513-.642-.77-.128-1.027.896-.257 1.028-.514 3.856-1.028 4.628s-.772.257-1.157-1.414.128-4.238 1.028-7.194 1.414-6.042.643-9.893c-.772-3.857-.386-5.014-3.342-8.222-2.952-3.213-6.293-6.298-7.707-10.278-1.414-3.985-1.67-7.456-3.214-9.255-1.537-1.795-3.722-4.11-5.136-4.752v-5.908c0-1.414-.643-2.314-2.314-2.057s-2.7 1.67-3.722 3.595c-1.027 1.928-1.8 1.028-3.212 4.37s-3.47 5.01-3.47 8.608zM273.56 349.807c1.03.643 2.013 1.073 3.556.302s3.386-2.998 5.442-.812c2.052 2.18 3.21 5.78 3.21 8.607 0 2.824 0 8.094 3.212 11.05 3.214 2.952 4.88 6.037 5.008 9.894.13 3.85 1.542 9.763 1.928 11.306.386 1.537 1.285 3.337 2.314 4.365s1.8 3.986 1.928 7.067c.128 3.085-.386 5.27 0 6.813s0 2.828-1.157 2.056-1.413-1.157-2.056-2.442-1.414-1.028-.77.9 2.57 3.723 4.24 3.723 2.186.257 3.214 1.285c1.023 1.028 1.152 1.543 2.95 1.543s2.058 0 3.73.514 1.67.256 2.57 0 1.794.513 2.437 2.184 2.185 6.294 2.185 7.58 0 2.57.9 3.856.642 2.57-.386 1.8-1.028-.515-1.8-.386-1.285-.257-2.308-.9c-1.028-.643-.386-.514-1.414-2.057s-1.67-2.056-1.67-.9-.13 2.57-.9 1.93-1.158-.644-1.8 0-.9 1.156-1.67-.13-1.672-1.285-2.443-1.542-.772-.258-1.153-1.414c-.386-1.156-1.543-1.413-2.57-1.413s-1.543-.515-1.672-1.286c-.128-.765-.77-1.28-1.285-1.665s-.257-1.286-.386-2.185-.9-.515-1.414-.772-.9-.128-.9-1.414-.513-1.67-.9-2.57c-.38-.9 0-1.8.258-2.824.257-1.028.13-1.67-.638-2.57-.77-.9-.128-1.8-2.185-3.6s-3.085-.257-3.727-4.494c-.643-4.242-1.928-12.978-3.085-14.392s-1.923-2.443-3.08-2.828-1.928-.13-2.056-2.57c-.13-2.44-.9-5.524-2.443-7.066s-2.185-2.057-2.956-2.7-1.028-1.8 0-3.98c1.028-2.185.643-5.142.514-6.556-.128-1.41-.514-3.21-.257-4.75s.13-3.472-.257-4.5-.9-1.286-.257-2.057zM304.508 313.27c-1.74 2.24-3.594 4.114-5.992 5.824-2.397 1.716-5.482 3.085-3.772 5.997 1.716 2.914 3.085 3.26 3.426 5.484.346 2.225.86 4.114 2.57 4.628 1.716.51 2.4.168 2.4 3.768s0 4.968 1.54 6.338 1.37 2.74 2.058 5.997c.682 3.253.682 10.28 2.738 15.075s6.684 13.878 6.17 15.76-1.2 3.255.855 5.48c2.058 2.23 3.427 5.482 3.6 7.366.168 1.89.514 2.57 2.566 1.89 2.056-.688 3.085-1.376 3.772-2.23.682-.856 2.05-.683 3.94.34 1.883 1.03 4.795 2.057 6.506 1.03 1.715-1.03 2.57-2.567 4.113-2.567 2.397-1.717 3.253-5.316 3.767-6.34.514-1.028.173-1.028-.855-2.057s-.516-2.743-.69-4.454c-.167-1.717-.854-4.283-2.91-8.055-2.052-3.767-3.253-8.395-4.623-9.592-1.37-1.2-2.056-4.113-2.23-5.483-.167-1.37-1.71-2.57-2.738-3.6-1.03-1.022-2.058-2.565-3.254-8.562-1.2-5.997-2.056-10.28-2.056-11.307s-.173-1.2-1.202-1.542-1.542-2.057-1.196-2.912c.34-.855-.346-1.71-.687-2.74s0-2.91.687-3.94c.682-1.028.514-3.94-.173-6.338s-1.37-4.454-4.114-4.8c-2.74-.342-3.253-1.024-4.28-3.254-1.03-2.225-2.058-6.165-2.4-7.025-.34-.857-.854-1.03-2.91.686-2.057 1.71-2.74 2.28-2.74 5.483 0 2.056.342 2.738 1.024 3.94.687 1.196.86 1.542 1.374 4.795s3.426 8.395-.346 11.307c-3.767 2.912-3.253 3.6-3.08 5.65.168 2.058-1.028 3.428-1.715.516-.682-2.912 0-4.623 2.056-5.993 2.056-1.374 3.94-3.085 2.57-4.968-1.374-1.884-1.884-6.34-2.057-8.395s-.514-2.744-1.715-1.202z" fill="#cf6200"/><path d="M273.957 356.926c-.094 1.395.217 2.927.326 4.158.128 1.414.514 4.37-.514 6.556-1.03 2.18-.772 3.338 0 3.98.043.035.083.07.122.104 2.096-.702 2.368-3.04 1.805-4.173-.598-1.195-.425-2.654.257-3.85.687-1.202.687-1.884.09-2.744-.604-.855-.604-.855.083-3.253.603-2.11-.92-2.097-2.17-.777zM295.906 390.15c-.385-1.542-1.8-7.455-1.928-11.306-.128-3.857-1.794-6.942-5.008-9.893-2.506-2.308-3.055-6.016-3.174-8.88-1.883-1.15-2.68-.627-2.52 1.514.167 2.31 2.48 3.426 2.14 6.763-.34 3.343-.34 2.487 1.285 4.114s2.226 3.17 1.37 3.857c-.855.683-.944 1.884.258 2.31 1.196.43 1.285 1.715 1.112 2.91-.173 1.203.944 1.46 1.626 2.315.688.855.772 2.912.09 4.114-.688 1.196-.772 3.08.425 2.056 1.202-1.028 1.716-.09 2.655 1.538.816 1.404 1.498.964 2.383.54-.306-.65-.554-1.32-.712-1.95zM312.616 420.063c-.772 1.542-1.67 1.028-2.443.257s-1.67-.772-1.285-2.186.257-1.67-.77-2.442c-.12-.09-.238-.168-.357-.247-.32-.01-.696-.01-1.186-.01-1.8 0-1.928-.514-2.95-1.543-.233-.227-.436-.415-.634-.573-.02.246-.01.572-.01.958 0 1.414 0 1.157-1.413 1.543s-1.157-1.413-1.414-2.57c-.07-.297-.15-.515-.223-.692-1.547-.297-3.178-1.93-3.762-3.674-.643-1.928.13-2.185.77-.9s.9 1.67 2.058 2.443 1.542-.515 1.157-2.057c-.124-.495-.154-1.068-.14-1.706-.276-.5-.65-.905-1.146-1.122-2.056-.9-1.414-1.157-1.285-2.828.13-1.666-.257-1.666-1.542-.77-1.286.898-1.414-.13-1.414-2.696 0-2.57-1.67-2.57-2.052-.77-.385 1.798-1.028.64-1.8-1.93s-1.8-3.213-1.927-.77c-.11 2.066-.683 2.56-2.027 1.413.237 1.494.445 2.89.613 3.986.642 4.237 1.67 2.695 3.727 4.494s1.414 2.7 2.185 3.6c.767.9.895 1.542.638 2.57-.257 1.024-.638 1.924-.257 2.824.386.9.9 1.285.9 2.57s.385 1.158.9 1.415c.32.157.736.068 1.038.196.33-.435.632-.97 1.018-1.354 1.542-1.543 3.856.128 4.627 2.056s1.665 2.443 2.822.9.77-1.285 2.057.13 1.798 1.156 1.798 1.156 1.285-.514 2.185.257 1.414.644 3.08-1.8c1.67-2.44-.766-1.67-1.537-.127zM317.164 349.56c.51-3.768.168-7.535 1.71-8.91 1.543-1.37 3.426-4.108 3.253 1.716-.168 5.824-.34 5.483-1.537 6.853-1.202 1.368-2.23 1.71-1.03 3.94 1.198 2.224 1.37 2.397 1.198 5.823-.168 3.427-.168 4.796 1.2 6.512 1.37 1.71 1.71 1.883 2.057 3.767.342 1.884 1.538 4.455 3.08 5.824s3.258 5.31 3.426 8.054c.174 2.74 2.572 3.426 4.797 5.31 2.23 1.884-.51 3.253-2.225 2.398-1.71-.855-1.028 0-2.057 1.196-1.028 1.202-1.37 1.375-2.224-.682s-3.77-3.426-5.14-3.94-2.566-2.744-3.768-4.97c-1.028-1.912-3.065-3.312-4.923-3.455.513 1.444.79 2.576.64 3.115-.513 1.883-1.2 3.253.856 5.478 2.057 2.23 3.426 5.483 3.6 7.367.167 1.888.514 2.57 2.565 1.888 2.058-.687 3.086-1.374 3.773-2.23.682-.855 2.052-.682 3.94.342 1.884 1.028 4.795 2.056 6.506 1.028 1.714-1.028 2.57-2.566 4.112-2.566 2.398-1.717 3.253-5.316 3.767-6.34.513-1.028.172-1.028-.856-2.056s-.514-2.744-.687-4.455c-.168-1.716-.856-4.282-2.912-8.055-2.052-3.767-3.253-8.395-4.622-9.59-1.37-1.203-2.057-4.115-2.23-5.484-.168-1.37-1.71-2.57-2.74-3.6-1.027-1.022-2.055-2.565-3.252-8.562-.938-4.687-1.665-8.32-1.937-10.18-1.23 1.963-2.07 2.443-2.516 1.098-.514-1.538-1.2-2.398-1.883-1.37-.687 1.03-.86-.855-.86-1.71 0-.86-.17-1.03-1.03-1.03-.854 0-.167-1.368-.513-3.94-.34-2.57-.854-2.91-1.195.174-.34 3.08-2.057 4.964-1.37 5.65.683.688.34 2.058-.346 4.115-.683 2.05-.342 3.253.172 4.622s-.34 3.94-.687 6.17c-.34 2.225 1.374 4.45 1.89.683zM285.87 318.807c-1.27.094-2.14 1.207-1.413 5.098.455 2.408-1.37 1.884-2.052.682-.687-1.196-1.2-3.767-2.57-5.997-1.375-2.225-.688 1.543-.856 3.6-.174 2.056 1.196 2.056 2.397 3.767 1.196 1.715.168 2.402-1.2 2.402s-.684 2.74-.342 4.622-.342 2.23-1.375.687c-1.023-1.543-.34-3.94-.168-6.853.168-2.912.34-2.23-1.542-2.912-1.884-.687-1.543-1.03-.856-2.744.683-1.71 1.37-2.57.515-3.425-.862-.856-.69-1.37.68-1.543 1.37-.168.86-1.196 2.057-1.543 1.202-.342 1.716.173 1.884-2.052.144-1.86.767-3 2.16-2.438.842 2.863 1.934 7.318 2.68 8.647zM303.124 338.98c0 3.6 0 4.968 1.542 6.338s1.37 2.74 2.057 5.997c.682 3.253.682 10.28 2.74 15.075.612 1.428 1.457 3.243 2.322 5.13 1.137-.893 2.126-2.43 2.477-3.247.51-1.2-1.03-3.6-2.23-5.65-1.196-2.058.173-2.745 1.37-5.316 1.2-2.566-.17-2.74-2.052-3.426-1.888-.68-1.888-2.397-2.917-5.136s-.855-3.94-.168-5.483c.682-1.542.168-2.738-1.2-3.084-1.37-.34-1.03-1.37-.515-3.08.514-1.716.855-2.057-1.197-1.543-1.557.386-1.933.677-2.397 1.24.113.496.168 1.183.168 2.186z" fill="#00b800"/><path fill="#5d3100" d="M322.85 346.148c-.19 2.057-.174 3.085-.688 3.768-.51.687-.168 1.715.346 2.744s.855 2.398.34 4.28.342 3.428 1.37 3.942 1.543 0 1.2 2.398c-.345 2.398 1.03 4.968 2.226 5.997 1.2 1.028 2.057 2.74 1.884 3.767-.17 1.03.86 2.057 2.056 2.57 1.2.515 1.028.688 1.028 1.37 0 .688.515.688 1.884 1.03s2.398 1.2 3.94 3.084 3.767 2.912 3.426.856 0-3.427-2.057-4.455c-2.05-1.03-3.594-5.998-4.454-9.425-.854-3.426-3.593-8.05-5.135-8.904-.173-2.402.173-3.598-1.37-4.8-1.542-1.196-2.056-2.74-2.056-3.94 0-1.197-.856-2.74-1.544-3.08-.682-.346-1.028-1.202-1.028-2.23s-1.196-.855-1.37 1.028z"/><path d="M313.753 438.06c3.08-.258 11.434-2.7 12.33-3.472 2.055 1.414 5.654 3.343 7.197 3.343-2.957.643-4.885.258-5.656-.256.386.9 1.414 2.313 2.057 2.442-2.827-.13-6.035-.77-7.064-1.8-2.442 1.03-6.555 1.286-8.863-.257zM319.29 441.916c1.092.32 6.55 1.22 7.257 1.22-1.8 1.538-.257 3.017 2.763 2.76-1.478.192-3.09.75-1.992.964 2.635.514 9.763-1.414 11.177-2.186-2.442 3.15-14.32 6.042-19.206-2.758zM324.184 449.727c1.473-.77 5.136-.514 6.87.322-1.927.706-5.714.706-6.87-.323z" fill="#00d860"/><path d="M329.67 449.628c2.636-.45 10.086 1.35 12.72-.257-.9 2.38-5.59 2.7-7.197 2.187-1.602-.515-3.144-1.157-4.237-1.093.58-.32-.385-.386-1.285-.836z"/><path d="M332.39 453.287c1.992.316 9.12-.578 11.306-1.414 2.31.77 6.872 1.988 7.9 1.86-2.185 1.35-6.363.577-7.707 0-3.857 1.284-7.006 1.67-11.5-.446z" fill="#00d860"/><path d="M335.8 454.474c2.853.642 5.286.183 8.094-.757.875.376 2.936.836 4.874.742 1.29.735 3.026 1.764 4.696 1.892-1.735.707-8.097 0-9.378-.707-3.213.065-8.74.772-10.084 1.864-.065-.9.52-2.15 1.8-3.036z" fill="#00d860"/><path d="M332.39 439.987c2.225.742 10.278.386 14.386-1.542 1.62-.762 2.625.514.77 1.157-6.678 2.314-11.948 3.213-15.8 1.157-1.52-.812-1.67-1.544.644-.773z"/><path d="M371.84 429.06c-9.892 4.624-16.448 6.038-30.19 1.8-1.28-.395-2.186 0-.772.9 1.414.895 8.992 2.952 10.792 3.08s1.157.965.064 1.286-1.414 1.093.064.514 9.734-.796 13.106.964c1.473.772 1.86.643 1.73.065s.643-.966 1.735-1.094 1.735-.514.9-.836-.965-.514-.322-.835.707-.643-.257-.836-1.606-.45-.706-.9c.9-.446 2.25-.772 3.277-.895.26-.707-.19-2.57.58-3.214z" fill="#00d860"/><path d="M355.378 430.247c5.655.4 16.06-2.185 21.588-7.58 1.923 1.153 4.623 2.44 6.036 2.696s2.7 1.542.515 1.542-5.27-.9-6.68-1.542c-7.326 4.5-15.898 5.977-21.33 5.527-1.538-.128-1.924-.77-.13-.643z"/><path d="M338.668 399.396c1.928 1.35 5.334 3.595 9.764 3.273 2.185 1.735 5.59 3.213 7.134 3.534-2.957 1.222-6.17 2.25-7.006 3.214-1.35-1.285-3.08-1.093-3.53-1.735-1.285 1.028-1.092 1.67-.256 2.185s7.32 1.607 8.928 1.157 2.037.88.707 1.345c-3.472 1.22-10.215.064-12.528-3.66-2.314-3.727-4.306-5.14-10.6-1.734-.706-1.8-.706-2.25-1.927-2.25s-3.47-1.607-1.736-1.543 6.876-.707 11.048-3.787z" fill="#00d860"/><path d="M340.2 407.653c-1.072.267-4.112 1.928-5.2 2.057-1.092.128-3.02 1.67-1.028 1.735 1.987.064 4.558-2.12 5.972-2.314s1.542-1.798.257-1.477zM346.43 414.18c-.762.133-4.044.9-4.944.835s-1.8.193-1.735.835.322 1.03-1.027.9-2.507.386-2.828.77-.578.773.77.9 2.058.258 3.6-.45 3.02-1.798 4.692-1.863c1.666-.064 3.336-2.25 1.473-1.928z" fill="#00d860"/><path d="M341.832 418.134c1.404.91 8.35 3.278 10.856 3.086s2.037 1.003.13 1.414c-3.92.83-8.707-.876-11.95-3.47-1.606-1.287-.128-1.737.964-1.03z"/><path d="M374.707 421.546c-5.314 1.696-10.727 1.093-12.913.514s-4.177-.707-2.7.707c1.48 1.41 6.235 2.373 8.93 1.666-9.57 2.186-12.078 1.993-14.45 1.607-2.38-.386-6.843-.302-8.736-.128-1.414.128-3.342-.065-4.177-.58s-1.092-1.477 1.414-1.22c2.502.257 2.828-.257.643-.58s-5.206.58-2.25 2.444 9.443-.13 13.556 1.028c4.108 1.157 12.844 1.993 21.134-4.692.425-.34 1.157-1.28-.45-.766zM348.605 413.734c.193.643.193 1.35 0 1.8s-.193 1.028.643.385 1.35-1.415 2.185-.965 2.956.386 3.915.257c.97-.128 1.285-.32-.124-.9-1.413-.578-2.827-.77-3.6-.706s-1.734-.13-2.376-.386-.836-.13-.643.514z" fill="#00d860"/><path d="M362.3 416.206c-1.094.065-3.022-.642-4.05-1.092s-2.502-.515-1.41.964c1.09 1.478 5.844 2.314 7.515 1.607s.964-1.48 2.63-.45c1.67 1.028 3.406 1.735 4.627 1.735s1.67 0 .322-.77-1.992-.965-2.12-1.608-.322-1.028.9-.643 2.634 1.092 3.598.578 2.758-1.67 4.365-1.67l.385-.966c-2.313-.192-3.786.515-4.43.772s-1.798.385-3.02.193-2.827-.322-3.213-.643-.386-.58.642-.77 1.35-.9-.064-.644-5.2.128-7.193-.514c-1.993-.638-2.828-.702-3.664-.386-.834.32-.706 1.22.515 1.285s3.985.322 4.95 1.222.835.964-.258.514-3.085-.192-1.028 1.286z" fill="#00d860"/><path d="M379.058 413.883l-.386.964c2.378-.065 8.162.514 10.02 1.67 1.8-1.413 1.48-1.863 2.764-1.606s2.892.708 3.6.322 1.22-.32 1.99-.193c.768.128 2.438-.193 3.402-.772s2.957-1.35 4.114-1.35 2.565-.257.45-.578c-2.12-.32-5.335.32-6.427.707-1.088.386-4.365.643-6.293.643s-4.558.964-6.744.385-5.205-.192-6.49-.192z" fill="#00d860"/><path d="M408.818 412.745c-3.85 2.828-8.478 3.47-14 3.857-1.607.113-1.113.568.257.707 5.78.577 12.463-1.544 14.643-3.858.632-.667.563-1.775-.9-.707z"/><path d="M382.567 419.32c1.67.065 7.45 1.544 9.314 2.186 1.415-.128 1.8-.45 1.544-.964s-.45-1.092 2.12-.964c2.566.13 8.48.064 9.57.064.9-.385 2.888-1.928 3.788-1.992-2.31.128-11.944.643-13.165.514s-1.864 0-2.635.45-1.22.643-2.185.257-2.7-.9-3.658-.32c-.965.578-2.957.064-4.693.77z" fill="#00d860"/><path d="M405.11 419.618c.9-.386 2.887-1.93 3.787-1.993 1.67-.128 3.6.58 4.5.707s1.862-.064 1.22-.77-.064-1.93 2.57-1.608c2.63.32 3.98.77 6.55.514s3.728 1.67 8.608-.257c-.386 1.93.514 2.058 1.413 1.672s1.928-.257 3.47.9 10.92 1.286 13.106.9c2.18-.386 3.337.77 1.666 1.285-1.666.515-2.056 1.286-1.666 1.8.38.51.767 1.152-1.285.895-2.058-.257-2.443.386-3.47 1.157s-1.287 1.027-4.114.513c-2.823-.514-3.337-.128-4.88.13s-1.928.256-3.47-.258-4.88-1.03-6.936-.386-3.6 1.284-5.4.77-1.927-.257-.77-1.414 1.414-1.028 3.6-1.285c2.184-.25 3.855-.894 2.313-1.794s-2.057-.77-4.113.257-3.085 1.666-5.394.386c-2.313-1.287-3.47-1.03-5.013-.644s-4.108-.514-6.293-1.478zM412.822 423.474c-2.94.42-3.732-1.473-6.807-1.088-1.028.13-2.764 1.41-.386 1.217 2.372-.193 4.943 1.092 7.257.9s1.285-1.222-.065-1.03zM409.41 425.7c1.55-.565 4.757.513 6.107.256s2.634.578 1.22 1.028-4.82-.835-6.362-.385-3.08-.13-.964-.9zM378.71 434.005c2.122.07 9.765-.257 12.786-6.68.232-.494.45-.706 1.413-.064s4.498 2.765 11.113 3.343c1.854.164 3.856 1.093.128.836s-9.634-1.286-11.626-2.508c-3.342 5.266-9.344 5.89-13.813 5.78-2.693-.064-2.05-.77 0-.707z" fill="#00d860"/><path d="M395.223 425.254c-1.028 1.414-4.563 3.856-6.17 3.985-1.6.127-6.42-.322-7.642-.772s-2.7-.322-.963.9 6.04 2.056 7.77 1.67c1.736-.385 3.728-.964 5.078-.128s3.856 2.437 5.33 2.116c1.477-.316 4.498-.316 5.462.13.964.45 2.635 1.798.128 1.027s-4.562-.13-5.72-.643c1.286 1.8 4.203 4.692 6.684 4.692.578 0 .963 1.03-.258 1.607 1.22.578 4.044 1.027 5.522-.322-.385.514-.192.835.45 1.157s1.414.77.257.9-3.785.45-4.557.128c2.502 1.602 8.993 4.173 15.607 2.887 1.26-.242 1.928-.766-.128-.707-4.242.13-4.494.065-5.265-.38-.77-.455-.643-.836.578-1.222 1.216-.384 4.3-.834 5.587-.834s2.57-.514-.065-.514-5.843 0-7.128-.45-2.25-1.03-.9-1.928 2.762-.643 3.405-1.48c-4.242-.063-9.447-2.313-6.555-4.364.672-.48.45-.515-.643-.643s-4.3-1.028-5.65-1.8-.45-1.414.642-1.607c-2.507.45-7.52-.9-10.857-3.406zM432.893 425.155c-2.313 1.735-6.678 2.442-8.542 2.442s-2.12.643-.642.836 3.085.386 3.728.193 1.028-.257 1.987.193c.964.45 3.02.706 4.82.127s4.75-.835 5.972-.77 2.57.127.128-.58c-2.437-.707-6.42-.192-7.385.065s-3.6.064-2.185-.386 2.634-1.157 3.34-1.735c-.513-.128-.834-.256-1.22-.385zM431.707 430.15c-1.992 1.477-4.88 2.886-7.836 3.015 2.7.964 4.95 3.727 6.68 3.6-.835.513-1.86 1.284-2.95 1.413 1.67.45 4.492-.064 6.806-1.35 3.856 1.093 8.864.386 10.535-1.028-2.506 0-5.52-.9-6.87-2.057 1.22 0 2.372-.77 2.95-1.473-2.886.51-7.835-.9-9.313-2.12z" fill="#00d860"/><path d="M427.604 438.207c1.092-.128 2.116-.9 2.95-1.414-2.115.707-11.37-.77-14.128-3.213-2.763-2.438-2.763-.58-.835 1.157s5.33 4.37 12.014 3.47zM434.376 444.09c-1.156.644-6.678 1.03-8.478.644s-2.57-.193-2.12.514.642 1.35-.836 1.157-4.113.128-5.2.514c-1.093.385-2.443 1.35-.13.963 2.31-.386 4.43-.835 6.165-.386s7.9.58 9.12.065.387-.514-.192-.514-.835-.386 0-.772 1.48-1.478 1.67-2.185zM380.936 436.625c-2.314 1.03-10.02 3.086-12.077 3.214-2.572 1.156-4.623 1.8-5.91 1.8.9.77 4.366 1.536 5.78 1.156-.77.766-2.565 1.666-3.208 2.05 2.052-.256 4.494.26 5.522.387-2.7 1.543-6.422 2.057-8.35 1.8.643.9 1.543 1.8 2.7 1.8-2.443.642-5.4.642-6.94.128.64 1.286 1.284 2.058 2.184 2.186-2.057.257-4.628.643-6.808-.643 1.666 2.186 5.394 2.952 10.92 2.314 5.523-.642 10.15-3.085 11.435-4.113-2.313.257-5.398.385-6.94.128 3.084-.77 9.763-3.6 10.92-4.756-1.285 0-2.566-.385-3.47-1.028 1.8.257 8.097-.51 10.025-1.28-2.314-.515-3.727-1.93-4.37-2.83 8.093 2.572 17.1 1.732 21.455.644 1.028-.257 1.152-1.562-.9-1.414-3.6.257-10.534-.77-12.334-1.67 1.672 1.284 3.73 2.056 5.142 2.313-3.34.9-7.964 1.543-14.776-2.185z" fill="#00d860"/><path d="M365.512 444.882c.643-.386 2.437-1.285 3.208-2.052-1.413.38-4.88-.385-5.78-1.157 1.287 0 3.338-.642 5.91-1.8-4.623-.128-7.837-.128-9.508-1.028s-4.75-.642-5.907-.385-.77 2.185 4.108 1.67c-2.057 1.415-7.58 1.93-9.635 1.415.514 1.666.9 3.337.385 4.237 2.7 1.542 9.764 3.47 13.234 3.214-3.084-1.157-4.755-2.443-2.185-2.7s3.985-.77 6.17-1.414z" fill="#00d860"/><path d="M357.553 453.238c6.15-.515 14.386-.623 20.94-6.17 1.672-1.415 2.794-.94 1.158.514-3.465 3.085-12.076 7.322-20.298 7.45-3.347.055-4.88-1.542-1.8-1.794z"/><path d="M403.627 443.053c-1.542.578-5.848 1.285-7.128 1.092-1.287-.192-3.15-.257-4.18.386s-1.09 1.03.323 1.158 3.213.257 4.113.193c-1.157.643-1.928 1.543-2.185 1.93 2.057-.515 5.844.385 6.936 1.027-.835.257-1.8-.064-2.506-.45 3.47 3.664 13.748 3.664 15.42 3.02-.772.58-1.48 1.158-2.25 1.35 2.892.515 6.23.45 9.506-1.477-1.092.193-4.365-.13-5.2-.193.642-.643 1.6-1.22 2.5-1.478-1.28-.258-5.328-.13-6.292.384.385-.77 1.092-1.735 1.864-2.057-5.077 0-11.242-.064-13.49-1.285 3.597.386 7.582-1.735 9.248-1.735-2.823-.065-5.908-.707-6.68-1.864zM390.724 445.87c-2.506.515-6.293 1.543-7.32 2.122s-2.122.9.127.9 8.35.257 9.7.45c-3.405-.515-8.028-.643-8.927-.643s-1.928-.065-.257-.58 3.856-1.67 6.678-2.25zM385.632 451.853c.895 0 4.816 0 6.358-1.35 1.607 1.222 4.69 2.952 6.68 2.952 1.99 0 1.798.514.063.707-1.73.193-5.136-.83-6.872-2.116-2.312.836-4.235.13-6.228-.193zM355.872 469.158c3.98 1.542 9.25 2.7 13.1 1.414 2.186 1.928 6.684 2.056 9.122 1.542 2.442-.514 4.627-.77 7.326.13 2.694.9 8.22.963 9.764 2.243-1.414.07-4.435 0-5.142.198-.707.188-.32.638.964 1.345-4.365-.257-11.884 1.607-14.193 3.6.83-1.993 3.4-4.693 7.45-4.693-2.313-.83-9.7-.895-12.077.58-.707-.773-1.543-2.053-1.607-2.567-3.916 2.244-11.628-.964-14.708-3.792zM345.688 461.94c4.74-.678 7.97-2.186 9.383-3.6.837.77 4.302 1.542 8.094.386-.77.578-.836 1.67-.514 2.25-2.507.063-7.262 1.285-8.864 2.12-1.607.83-6.298 1.41-7.836.574-1.542-.83-1.606-1.538-.262-1.73z" fill="#00d860"/><path d="M362.645 461c-2.507.064-7.262 1.285-8.864 2.12.322.644.515 1.667.58 2.374 4.622-1.67 15.22-2.695 19.27-2.052-1.93.13-5.592 2.116-7.643 2.373 5.007-.385 9.892.643 11.172.964 1.284.32 1.542 1.285.578 2.185s-1.41 1.028.642 1.092c2.057.065 6.298-.192 8.226-2.056-.77-.835-2.763-.514-3.34-1.092 1.348-.45 2.89-1.414 3.47-2.12-3.47-.065-4.757-.13-5.914-.387-1.156-.25-1.992-.577-.578-1.343 1.414-.772 2.057-1.414 2.506-1.93-2.506.708-6.42 1.287-9.7-1.284 1.222.32 4.11.128 5.137-.32-1.092-.58-1.987-1.03-2.887-1.03 2.63-1.285 7.836-2.442 14.258.13 3.213-.258 6.683-.13 9.12.513 1.03-1.028 3.214-3.47 4.37-4.114-7.578.643-21.197-.77-20.94-4.75-2.442 3.208-8.093 5.007-10.535 4.493-.257 1.157.77 2.57 1.67 3.343-2.57.514-6.94.9-8.992.514 1.158 1.157 3.338 2.185 4.624 2.056-2.695 0-4.108.515-6.23.322z" fill="#00d860"/><path d="M378.365 470.048c2.057.064 6.3-.193 8.227-2.057-.772-.835-2.764-.513-3.342-1.092 1.35-.45 2.892-1.414 3.47-2.12 5.394-.446 10.214-.19 12.522-.896 2.314-.707 8.226-.32 9.383-.643-5.14.83-6.17 1.28-6.427 2.116s1.67 1.542 2.893 1.542c-2.313-.128-5.205 2.314-5.462 3.278-3.08-1.8-4.558.32-4.88 1.028-1.285-.514-5.526-.385-7.712 1.48-2.822-.837-4.686-1.287-7.514-.837 1.735-.385 1.414-1.542-1.157-1.8zM403.034 455.017c1.735-.064 5.522.13 6.872-.064-.9.45-2.052 1.286-2.31 1.67 4.366-.513 10.338-.834 12.073-.577-2.117-.322-4.302 1.028-5.394 1.735s-.45 1.158 1.028 1.35 3.47 1.35.77.965-8.027-.386-9.313-.193-1.99-.45-.127-.707 3.144-.9 4.044-1.414c-1.543.387-4.494.387-5.394.13s-1.478-.772-.45-1.03.322-.64-.77-.513-3.857 1.286-5.4 2.764c1.672-1.734 3.15-3.277 4.37-4.113z" fill="#00d860"/><path d="M383.457 457.934c2.12 2.38 4.623 3.728 8.607 3.857.836.026 2.393 1.148.386 1.222-5.4.193-8.093-1.093-10.47-4.563-.49-.713.414-1.707 1.477-.516zM415.64 412.993c2.838 1.34 8.543 2.506 12.977 2.313.77-.034 2.324.79.38.965-5.007.45-9.506-.252-13.678-2.57-1.158-.643-.772-1.222.32-.707z"/><path d="M418.507 412.943c4.366-.128 7.643-.064 8.993 1.22 2.5-.77 7-1.22 8.028-1.027s2.185-.257-.193-.836c-2.377-.573-7.9-.766-9.635-.445-1.735.317-7.133.51-8.928.317.77.128 1.28.257 1.735.77zM435.464 414.674c2.057-1.093 7.964-.065 9.764-.836-1.286 1.543 4.113 1.67 8.8.45-1.8 1.157-5.65 1.35-7.322 2.057s-2.57.193-3.856-.386-4.558-1.736-7.386-1.286z" fill="#00d860"/><path d="M454.052 414.278c-4.687 1.22-10.085 1.093-8.8-.45-1.8.77-7.707-.257-9.763.836 2.12-1.286 3.726-.257 5.264-2.893.964.2 3.213.328 3.984-.7 1.35.32 3.728.9 4.435 1.6.707.708 1.794-.192.894-1.28 2.12-.77.777.915 5.72-.32 1.028-.258 3.535-.708 4.37-.772-1.67 1.35-3.663 2.823-6.105 3.98z" fill="#00d860"/><path d="M362.842 392.722c-.084-9.72-1.023-91.08-1.023-109.888 0-4.5-2.314-3.6-2.314 0v109.374c1.062.192 2.496.385 3.336.514zM398.585 276.93l4.014 115.994-.703.93-2.328.035-2.538-116.96h1.553zM432.4 374.874c-.327-11.812-1.81-66.49-2.384-93.444-.074-3.594-2.215-2.966-2.18.13.232 21.708 1.523 82.427 1.76 93.378.84 0 2.29-.084 2.803-.064z" stroke-width=".618" stroke="#000" fill="#ff0"/><path fill="#fff" d="M378.86 296.213l-34.175-.514c-1.923 6.935 6.683 6.807 9.897 5.007 3.722 2.828 6.55 2.57 8.607.257 2.955 2.443 6.677 1.8 8.22.257 4.113 3.086 8.35 0 7.45-5.007zM381.43 313.418l-34.946-.128c-6.036 5.78 1.8 8.608 8.483 4.623.9 1.928 5.008 3.085 8.222 1.542 2.955 2.314 6.677.643 8.605-1.285 3.6 1.67 7.836 2.185 9.635-4.752zM380.442 335.27l-33.66-.256c-.644 6.037 6.168 5.266 8.863 3.728 2.57 3.98 8.226 3.08 10.41.766 3.21 2.186 6.166 1.672 7.836-.385 3.73 3.213 6.81-.895 6.552-3.852zM382.123 357.124l-37.64-.642c-2.058 6.422 3.72 7.58 6.42 6.036.9 3.728 5.908 2.443 7.194-.257 1.928 1.93 4.37.9 5.527-.384.514 3.47 4.88 3.6 8.22.642 6.808 4.756 13.235-.77 10.28-5.394zM415.492 348.126l-31.348-.257c1.414 6.42 4.494 8.092 9.507 4.365 3.728 3.856 9.893 2.442 11.436.514 6.807 5.526 10.534-.9 10.406-4.624zM412.278 326.67l-30.32-.9c.516 7.707 7.837 7.45 11.564 4.107 2.828 3.6 7.836 2.57 9.636 0 3.856 3.857 10.15 1.543 9.12-3.208zM416.283 302.492H383.65c.386 5.394 7.58 8.48 13.106 3.342 1.537 6.165 7.45 4.237 10.02 1.795 3.723 4.755 12.33-.64 9.507-5.138zM414.355 286.078l-29.162.385c-.515 4.75 6.42 6.808 8.992 2.952 1.414 2.442 6.293 2.185 7.707-.13 2.314 3.6 5.14 1.158 6.036 0 3.342 2.444 6.94 1.287 6.427-3.207zM448.515 296.707l-35.717-.385c-.13 3.723 3.727 5.265 6.036 3.723 0 3.6 5.013 4.756 8.226 1.928 2.185 3.085 8.607 3.985 11.177-.257 5.265 4.37 10.92 1.285 10.278-5.01zM448.02 326.026l-34.946-.13c.257 4.88 5.908 6.552 9.12 3.98.773 4.115 5.143 4.372 7.708 2.315 3.085 3.472 8.227 3.73 11.05-.127 4.24 1.542 7.454-2.057 7.07-6.037zM446.192 352.378l-27.625-.386c0 4.885 5.784 5.528 8.354 2.957 2.696 3.213 6.81 3.213 9.122.642 3.723 3.213 9.378 2.313 10.15-3.214z" stroke-width=".618" stroke="#000"/><path d="M401.897 393.86c-14.9.256-30.062.256-40.34-1.287s-13.516-2.986-20.555-7.193c-10.535-6.294-13.106-7.837-28.006-16.573-2.284-1.34-4.76.322-1.542 2.438 15.028 9.893 20.723 13.56 27.877 18.248 7.45 4.88 12.256 9.216 16.83 14.388 5.91 6.685 10.276 6.814 12.976 5.785s6.94-2.442 11.177-1.414c4.242 1.03 9.892 1.158 12.85.644 2.698 2.442 8.862 1.928 12.333 1.157 3.465-.77 6.036-1.156 8.478-.642s6.165.13 8.607-.257 8.865-1.027 13.364-.385c4.493.643 9.12.257 12.077-.642 2.952-.9 8.35-.643 10.15-.13 2.566-1.927 3.85-4.37 4.494-6.935 3.02-.386 4.024-.762 4.69-2.507 1.222-3.213 2.374-6.362 2.765-7.77h1.215l.385-2.894-2.5-2.892.9-5.522 2.693-.643c.128-1.672-.643-4.243-1.157-5.272-16.185.643-32.054 1.157-43.42 1.414-1.285 1.03-2.7 3.728-2.956 5.4-6.936 1.15-11.05 1.666-12.848 2.05s-2.803.53-4.237 2.444c-2.314 3.085-4.5 6.68-6.298 8.993z" stroke-width=".618" stroke="#000"/><path d="M453.904 374.23c.786-2.723 2.887-10.06 6.693-23.93.638-2.312-1.606-3.227-2.437-.256-4.528 16.192-6.24 22.264-6.812 24.286.87-.015 2.116-.11 2.556-.1z" stroke-width=".618" stroke="#000"/><path d="M478.968 347.088c-5.463 2.823-8.098 3.915-10.6 2.95-2.303-.884-5.69-1.383-7.672-.41-.005.21-.034.43-.104.668-2.343 8.54-4.04 14.595-5.18 18.63 4.043 1.43 11.01 1.62 12.635-.124 1.666-1.8 6.23-1.414 8.543-1.285 1.478-1.928 2.056-4.307 1.67-5.463s-.256-3.21.322-4.816 1.35-6.813.386-10.15z" stroke-width=".618" stroke="#000" fill="#fff"/><path d="M354.587 300.712c-6.04 17.473-26.982 56.664-39.618 69.287M324.678 375.714c14.34-11.094 50.603-47.107 56.767-62.266M346.776 335.024c-1.666 13.235-5.488 36.844-7.544 49.308M352.362 364.49c-4.88 4.757-11.8 13.058-16.942 17.557M398.338 338.09c-4.11 3.98-8.8 8.622-12.908 9.78M400.71 338.732c3.614 3.852 8.75 8.202 12.992 9.36M397.893 317.423c-3.723 3.21-9.25 6.986-14.258 8.4M400.018 318.165c3.214 2.7 6.635 6.635 10.743 8.434M384.397 302.492c3.98-1.157 9.907-4.242 12.99-7.45M399.178 294.433c3.485 3.98 10.164 7.194 13.506 8.094M385.188 286.473c4.108-.9 9.2-3.085 11.9-6.94M398.634 278.464c3.466 2.956 9.556 7.228 13.536 7.614M427.95 289.983c-2.23 2.314-7.693 6.472-11.158 6.408M430.224 289.786c1.606 2.57 5.655 6.506 7.97 6.827M414.454 325.878c4.493-1.543 10.792-5.22 13.94-9.014M430.866 317.176c1.315 2.373 6.328 7.737 9.156 8.83M419.793 351.982c2.056-.445 7.648-3.223 9.185-6.5M431.56 343.676c2.12 2.636 7.32 7.45 10.533 8.608M349.1 356.53c6.292-1.992 19.012-9.714 25.31-17.04M362.348 348.77c5.265 3.722 11.385 7.45 16.072 8.285M347.913 335.024c3.47-1.478 8.028-4 11.563-7.658M362.15 326.866c1.414 1.988 11.806 8.336 16.235 8.4M359.48 306.348c-2.698 2.18-9.184 6.1-12.333 6.937M361.953 306.497c3.6 2.5 10.712 6.92 15.592 6.92M359.48 286.275c-2.89 3.273-7.77 8.33-11.82 9.488M361.804 287.017c2.25 3.6 8.27 8.464 12.19 9.107M413.81 308.623c9.008 16.607 25.713 36.907 42.605 47.572M386.77 290.23c13.678 19.658 40.532 62.766 66.08 78.68M457.562 352.08c-4.113 5.722-11.5 14.65-23.705 22.78M456.03 357.52c-8.607-13.745-13.057-31.123-19.493-54.01M368.48 392.21h8.4M375.797 389.046h-7.92M374.907 386.574h-7.644M374.017 384.102h-7.292M373.028 381.432h-6.94M365.612 379.06h6.586M365.118 376.884h6.25M364.574 374.51h5.943M364.13 372.385h5.605M363.635 370.21h5.33M363.19 368.183h5.042M362.695 366.304h4.9M362.4 364.722h4.562M359.63 389.887h-9.507M359.63 387.266h-11M359.63 384.547h-10.358M359.63 381.976h-9.715M359.63 379.356h-9.087M359.63 376.44h-8.365M359.63 373.918h-7.757M359.63 371.347h-7.1M359.63 368.875h-6.506M359.63 366.7h-5.992M359.63 364.97h-5.542M359.63 392.16v-29.07M384.943 392.013h-12.528M385.932 388.354H374.27M386.476 385.388h-10.73M387.514 382.174h-10.15M388.008 379.603h-9.378M388.898 376.637h-8.835M389.788 373.176h-8M390.48 370.556h-7.356M391.222 367.54h-6.664M391.766 365.513H385.6M392.26 363.585h-5.65M392.755 361.607h-5.206M393.2 359.877h-4.786M393.645 358.146h-4.386M394.14 356.366h-3.956M394.535 354.735h-3.565M426.028 378.417H415.19M424.15 375.154h-9.983M422.32 371.89h-9.152M420.44 368.578h-8.344M418.612 365.315h-7.56M416.733 362.052h-6.724M414.904 358.79H409M413.025 355.476h-5.102M416.684 378.91h8.558M417.77 375.697h8.16M418.81 372.533h7.772M419.848 369.37h7.37M420.936 366.156h6.97M422.023 362.99h6.57M423.06 359.827h6.172M424.1 356.614h5.077M445.557 372.93h-8.1M444.617 370.358h-7.693M443.678 367.787h-7.372M442.74 365.216h-7.07M441.75 362.645h-6.714M440.81 360.074h-6.348M439.87 357.504h-6.02" stroke-width=".618" stroke="#000" fill="none"/><path d="M358.097 402.89c3.985-2.566 10.793-2.052 14.264.514 4.114-2.31 11.565-1.67 15.035 1.414 5.266-3.595 9.765-4.11 14.902-.643 3.985-2.823 10.15-3.08 14.906.257 4.622-2.185 9.764-3.98 14.258.77-2.693-1.927-8.478-3.598-14.257.9-4.5-4.498-12.335-2.827-14.906.258-3.343-3.985-10.407-4.627-14.65.257-4.622-3.856-11.56-3.985-15.286-1.028-2.956-2.315-7.32-4.238-14.263-2.7z" fill="#00b800"/><path d="M428.302 397.402c-20.43 3.53-64.95 1.028-74.714-1.414-3.357-.84-2.442-2.057.386-1.414 11.253 2.556 35.266 2.57 48.5 1.928 2.572-3.407 6.616-9.186 7.837-10.793s1.76-1.756 4.307-2.186c4.558-.77 7.164-1.187 11.114-1.864.065.514.065 1.157.065 1.542-.32.258-.642.707-.9.836 0 2.635.515 9.057 1.03 11.37.513-.063 1.156-.256 1.477-.32.9-.257 1.795 2.057.9 2.314zM461.773 398.39c.737-.02 2.274-.054 2.7-.064.835-.02 2.007-.593 2.52-1.88s2.107-6.035 2.685-8.028l-2.056-3.1c.45-2.556 1.028-6.02 1.092-6.728 1.03-.386 2.116-.772 2.63-.964.13-.58-.123-2.15-.642-2.665-8.8.337-35.137 1.252-39.958 1.316-1.156 0-1.676-.05-2.116 1.607-2.442 9.12.935 21.92 10.15 29.293.643.514 1.454.084.38-.9-1.536-1.414-3.915-4.306-5.52-7.164 1.798-.03 5.447-.09 6.54-.133.524 2.16 2.165 6.718 2.486 7.49s1.113.88.737-.273c-.884-2.7-1.35-5.775-1.734-7.253 1.67-.04 4.82-.01 6.748-.12.094 2.444.35 5.717.416 6.617s.835.965.85-.064c.02-1.028.04-5.374.025-6.654 2.175-.06 4.954-.154 5.982-.154-.143 1.39-.41 5.884-.51 6.596-.148 1.048.4 1.542.658.064s.77-4.934.915-6.684c.87-.025 3.16-.12 4.123-.144-.094 1.37-1.38 5.533-1.765 6.625s.237 1.127.673.094c.455-1.06 1.864-5.237 1.993-6.73z" fill="#cf6200"/><path d="M432.603 397.352c-.707-1.414-2.892-6.442-3.085-10.1 1.864-.035 6.526-.124 8.776-.173.33 2.757 1.182 8.7 1.63 10.11-2.63.063-5.842.147-7.32.162zM439.822 387.02c.242 2.105 1.344 9.338 1.522 10.174 1.91-.114 6.33-.13 7.095-.193-.08-1.927-.392-9.16-.426-10.188-1.998.054-7.19.182-8.192.207zM429.884 378.07c-.356 1.85-.42 5.8-.32 7.486 2.248.044 7.786-.09 8.552-.153-.188-1.92-.49-5.39-.682-7.555-1.835.08-6.33.188-7.55.223zM439.08 377.823c.064 1.8.465 6.2.593 7.545 1.943-.054 6.7-.153 8.306-.208-.085-1.646-.347-6.95-.377-7.594-2.58.07-6.887.233-8.523.257zM449.265 377.527c.08 1.67.29 6.387.227 7.61 2.062-.056 6.002-.095 7.223-.194.094-1.676.366-6.467.238-7.688-2.314.09-6.002.212-7.688.272zM458.362 377.18c0 1.415-.178 6.383-.243 7.733 2.04-.08 6.68-.242 7.885-.272.32-1.655.964-5.956 1.157-7.77-1.928.063-7.39.27-8.8.31zM466.32 386.327c-2.634.084-6.87.198-8.304.252-.223 3.252-.628 8.874-.82 10.16 2.318-.05 7.004-.2 8.033-.228.77-1.543 2.44-6.358 2.827-7.837-.58-.9-1.03-1.414-1.736-2.348zM449.56 386.772c0 1.157.204 9.438.253 10.145 1.508-.05 5.424-.104 6.002-.168.292-3.224.732-9.4.81-10.17-2.67.073-5.29.152-7.064.192zM415.448 384.794l-3.347.594c-1.542 2.49-7.257 10.2-7.964 11.1 3.98-.115 10.204-.233 11.702-.377-.11-2.065-.385-10.292-.39-11.316zM416.93 384.498c.08 2.635.332 9.655.396 11.52 1.973-.114 5.607-.352 7.085-.48-.34-3.313-.963-11.223-1.09-12.187-1.658.302-4.91.876-6.39 1.148z"/><path d="M382.422 356.762c.45.005.51.39-.005.386l-37.96-.47c-.514-.005-.445-.39.005-.386l37.96.47zM412.284 326.356c.45.015.504.4-.01.386l-30.075-.826c-.515-.015-.44-.4.01-.385l30.074.826zM380.543 335.058c.45.005.51.39-.005.385l-33.66-.247c-.513 0-.444-.385 0-.385l33.665.248zM381.532 313.205c.45 0 .514.386 0 .386l-35.206-.182c-.515 0-.445-.386.005-.38l35.202.177zM379.11 295.95c.45.006.504.396-.006.386l-34.207-.514c-.514-.01-.445-.395.005-.385l34.207.514z" stroke-width=".618" stroke="#000"/><path fill="#fff" d="M414.508 285.865c.45-.005.52.38.005.386l-29.357.282c-.514.005-.455-.38-.005-.385l29.358-.282z" stroke-width=".618" stroke="#000"/><path d="M416.338 302.28c.45 0 .514.385 0 .385h-32.443c-.514 0-.45-.386 0-.386h32.443zM448.177 325.664c.45 0 .514.386 0 .386h-34.964c-.514 0-.45-.386 0-.386h34.964zM448.67 296.445c.45.005.51.39-.004.386l-35.72-.35c-.514-.005-.445-.39.005-.386l35.72.35zM415.645 347.813c.45.005.51.39-.005.386l-31.424-.21c-.514-.004-.445-.39.005-.384l31.425.207zM446.348 352.065c.45.005.51.39-.005.386l-27.622-.365c-.514-.005-.44-.39.01-.386l27.618.365z" stroke-width=".618" stroke="#000"/><path d="M471.265 357.355c.777-1.725.885-5.69.44-7.193-1.196.242-2.21.188-3.198-.198-.52-.198-1.088-.376-1.686-.524-.108 1.987-.83 7.05-1.72 9.008-1.552.44-4.682-.074-6.462-.633-.47 1.686-.9 3.233-1.295 4.657 2.21.51 4.984.465 7.18-.044-.174 2.97-.565 5.675-2.172 7.544 2.627.06 4.975-.326 5.835-1.246.08-.09.168-.163.262-.237 1.212-2.028 1.246-4.668 1.538-6.448.895.064 2.052-.193 2.566-.707s1.35-.77 2.186-.707c.762.06 1.948-.1 3.456-.707.04-.91.218-1.897.53-2.758.167-.47.35-1.25.503-2.195-1.913.915-6.18 2.443-7.96 2.388z" stroke-width=".618" stroke="#000" fill="#ef072d"/><path d="M348.654 190c-3.91.115-12.424.194-14.214 1.197-1.785 1.01-2.57 1.454.56 2.012s8.423 2.046 11.326 3.836c2.902 1.785 5.334 4.95 4.533 9.463-2.4 13.56 4.69 26.602 14.965 31.522.993.474 1.23.835 1.008 2.68s-.895 4.92-1.453 5.7c-.56.786-.836 2.07.95 1.453-1.227 2.294-3.966 6.877-4.802 8.05-8.212-1.004-14.91.113-15.53 8.715-.058.84.23 2.18 1.51.06 1.285-2.126 2.738-4.138 6.253-4.697-2.065 3.184-2.733 6.037-2.396 7.88.33 1.845.835 2.962 1.73.614.895-2.344 2.54-4.54 4.3-5.87.67-.498 1.12-.612.614.842s.223 4.582 1.23 5.645c1.005 1.058 1.51.613 1.227-1.118-.276-1.735.16-5.36 2.29-6.486 3.07-1.616 5.695-.78 6.926 1.346 1.227 2.12 2.29.108.95-2.294s-2.74-4.08-4.973-4.247c1.957-3.466 4.247-7.658 4.75-8.494.5-.84 1.286-1.23 1.954-.726.673.505 1.118.445 1.79-.95.668-1.398 1.84-5.53 3.516-7.207.84-.228 2.18-.56 2.68-1.01 2.18 3.185 4.132 6.71 4.637 7.49.5.782 1.063 1.12.558 2.74s-2.233 6.764-2.51 7.88c-6.09.223-8.88.332-10.837 3.744-.856 1.49.504 2.067 1.957 1.286 1.45-.78 3.516-1.454 4.58-1.285 1.057.17 1.556.712.498 1.232-3.738 1.844-6.076 4.187-5.918 7.43.054 1.172.54 1.756 1.454.17 1.285-2.236 3.628-4.47 6.476-5.09-.168 2.74.45 6.765 2.12 7.605 1.677.836 1.796-.015 1.173-1.622-1.004-2.57.04-5.156 1.285-6.54 2.626-2.908 8.603 1.117 9.72 2.125 1.118 1.004 2.136 1.424 1.508-1.176-.84-3.46-5.755-5.473-9.942-6.032 1.17-5.646 4.3-17.047 5.977-20.958 2.458 1.34 4.376-2.195 8.49-.672 6.92 2.57 17.31 9.052 19.1 10.506 1.783 1.454 2.456 1.117 3.35.336.89-.78 2.458 0 3.684.223 1.23.222 2.348.558.78-2.57-1.56-3.13-5.358-8.61-11.726-12.856 3.797.338 8.94.338 8.94-.666 0-1.01-5.924-2.907-8.38-3.13 2.347-.558 5.92-1.903 7.592-3.802.994-1.122-.197-1.384-3.683-1.453-10.723-.224-16.083-.14-21.67-3.353-8.933-5.142-14.045-10.556-18.43-12.854-2.344-1.232-3.773-4.07-4.678-6.522-2.903-7.825-2.76-11.345-9.572-13.916s-14.65.578-18.224 3.817z" stroke-width=".618" stroke="#000"/><path d="M349.1 191.78c-1.736-.064-5.143-.474-7.966-.192-.642.064-1.414.385.13.578s5.714 1.216 7.192 1.73.836 1.286-.45.965-1.76.154-.706.9c5.463 3.857 6.04 5.335 4.627 18.565 1.03.707 1.864 1.22 2.764 1.67s.644 1.094-.32.837-1.864.32-.322.643 2.245 1.028.77.964c-1.477-.066-3.212 1.22-.32.898 2.887-.32 4.044 1.03.643 1.093-3.406.065-2.12 1.158-.32 1.158 3.208 0 2.244.9 1.413.9-.835 0-1.22 1.092.9.9 2.116-.193 2.952-.257 3.723-.13s1.093.767-.064.837c-1.157.06-1.093.894.642.894s2.458.524.9.835c-.642.13-1.532.45.322.707 3.213.45 3.342 1.22 2.313 1.35s-1.157.707.32.835c1.474.13 2.76.58 1.543.9-1.22.32-1.864 1.028-.326 1.157 1.543.13 2.828.707 1.67 1.093s-1.413 1.092.065 1.028 2.057.77 1.03 1.345c-1.03.578-1.737.964-2.38-.06-.637-1.028-1.023-1.35-1.216-.578-.192.766-.642.257-1.156-.9s-1.414-1.478-1.157-.578-.9 1.028-1.993.578c4.05 4.11 10.022 7.836 19.53 3.98.81-.326.963 0 1.606 1.35s2.442 4.306 3.085 5.4 1.153.107 1.474-.965c1.286-4.242 2.25-7.392 2.635-8.544.385-1.157 2.185-2.313 1.606 1.73 1.414-.963 7.678-1.873 12.528-.064 5.33 1.992 10.69 5.082 13.428 7.134.514.385 1.157.835 2.438.707 1.285-.128 1.606-.32-.836-2.57-2.437-2.25-1.41-3.342.13-2.25 1.54 1.093 2.377.45 1.22-.9s-3.916-3.98-4.816-4.622-1.028-.9-3.085-1.03-6.422-.127-7.708-.127-1.67.13 1.157 1.158c2.823 1.023 8.608 4.75 9.893 5.65s2.186 2.957-.642 1.158-11.693-7.322-17.6-9.38c-13.493.9-24.157 2.7-32.122-6.036-3.816-4.182-3.984-13.75 2.438-17.734-1.285-1.092-1.092-1.735-.578-1.992s.707-.514.193-1.157c-.51-.643-.45-1.216 0-1.474-1.41-.77-2.052-1.67-1.988-2.635-1.735-.385-2.507-2.442-4.82-1.8s-3.47.13-4.173-.45c-.712-.578-1.286-.835-2.57-.706s-2.315-.386-2.38-1.03 1.09-.953 2.83-.19c3.658 1.605 6.614 2.377 8.864-.644 2.25-3.016-.643-5.844-4.95-6.68-4.3-.835-7.45 2.314-9.057 3.793z" stroke-width=".618" stroke="#000" fill="#fff"/><path d="M370.704 190.644c-1.295-1.405-3.6-2.7-4.75-3.086-1.158-.385-1.286.772-.643 1.35-.514.77-.706 2.635.193 3.15s.91 1.245.065 1.666c-1.286.642-.85 4.054 1.087 3.085.643-.323 1.157-.194 1.03.32s.127 1.157.706 1.285.515.965.386 1.286.065.45.707.515.707 1.607-.45 2.12c1.414 0 1.8-.256 2.186.9.384 1.153 1.927 1.41 1.927 2.824s-.257 1.67-1.928 1.413-2.315.257-2.83.9-.642 1.285.643 1.35 1.543.642.257 1.22-3.4.193-3.722 1.415c-.322 1.216 0 1.794.96 1.344.963-.445 2.955-1.28 3.727-1.73s1.478-.514 2.12.514.13 2.18-.964 1.286c-1.09-.9-1.605-.07-2.248.445s-1.607.835-2.635.835c-1.024 0-1.73.134-1.602 2.442.386 6.942 5.78 12.08 15.672 11.95s14.778-.257 16.256-.064c-3.278-1.8-5.334-2.764-6.49-2.635s-2.122.32-1.608-.58-.064-.9-.578-1.284-1.152-.9-2.18.194-3.47 2.313-4.693 2.57-2.7.193-1.542-.964 3.728-1.542 4.5-2.056.77-.83.77-1.217-.193-1.478 1.286-.642c2.95 1.67 7.58 4.172 8.8 4.108s2.057-.578.964-1.285-1.414-1.73-1.093-2.116.514-.772 2.442.32c1.923 1.09 5.072 2.503 6.23 3.017s2.7.32.32-1.415c-2.378-1.73-9.764-6.615-11.82-8.158s-1.157.322-.965.9-1.414 1.286-2.25.58-1.413-1.48-.256-2.122 1.415-.707-.32-2.25c-1.73-1.538-2.245-1.41-1.86-.128.386 1.285.515 2.7-1.285 1.992s-2.7-1.544-1.543-2.25c1.157-.703 2.636-1.088.707-2.695s-1.35 0-1.8.9-1.928.9-2.764.193-1.22-1.414-.643-1.993.515-.9 1.35-.45 2.12.193.58-1.157-2.122-.77-1.8 0-.9 2.12-2.824.322c-.916-.85-.9-1.993.063-2.186.96-.192 1.053-.692.38-1.67-3.915-5.716-2.308-10.343-6.23-14.58z" stroke-width=".618" stroke="#000" fill="#fff"/><path d="M371.347 191.435c-.336.504-.46.484-1.083.9-.766.51-.94 1.967.347 1.794.89-.12 1.41-.65 1.76-1.08-.28-.543-.617-1.08-1.023-1.615zM367.343 188.22c-.99.96-1.162 1.39-.658 1.39.598 0 .34.084-.09.77-.424.69.86 1.03 1.375.516s.6-.688.856 0c.207.558 1.053.03 1.587-.51-.875-.845-2.052-1.626-3.07-2.165zM365.563 193.758c-1.286.643-.85 4.054 1.087 3.085.643-.32 1.157-.193 1.03.322-.07.272-.026.583.117.83.767-.32 1.533-.855 2.13-1.537 1.203-1.37.085-1.286-1.71-1.286-1.8 0-2.313-.34-.603-1.37 1.533-.92.534-1.557-1.587-1.26.307.435.154.91-.464 1.216zM372.93 201.323c-.945-1.03-.347-1.543.682-2.057.252-.124.425-.282.548-.47-.29-1.132-.524-2.22-.83-3.278-.54.154-1.167 1.355-1.345 1.948-.257.856-.514 1.37-1.37 1.113-.76-.23-1.522.627-1.68 1.54.118.05.3.085.543.11.356.035.534.52.426 1.033 2.318-.074 2.714 1.528 3.11 2.625.43 1.202.944 1.03 1.285.347.34-.688-.43-1.884-1.37-2.912z" fill="#cf6200"/><path d="M373.572 214.77c-.42.95-.43.856-1.8.94-1.37.09-3.095.32-3.85 1.117-.41.425-2.78.54-2.784 1.582-.01 1.047 0 1.927 1.028 1.99 1.023.066 1.152.194.77.966-.39.77-.642 2.056 1.153 2.185 1.8.13 3.084-.45 3.534.574.45 1.03-.035 2.67.32 3.278s1.574 1 3.457 1.582c1.257.39 5.998.613 7.457.445 1.453-.174.91-1.044-.55-1.173-1.452-.128-2.525-.34-2.866-1.41-.34-1.07-.642-1.63.174-2.525.81-.9 1.626-1.587 1.156-3.085-.474-1.498-1.245-3.258-2.956-3.728-1.716-.47-1.172-2.814-2.873-3.04-.64-.085-1.195-.085-1.368.3z" fill="#ff0"/><path d="M365.266 228.712c1.473.13 2.76.58 1.543.9-1.223.32-1.865 1.028-.328 1.157 1.543.128 2.828.706 1.67 1.092s-1.413 1.092.066 1.028 2.056.77 1.028 1.345c-1.028.578-1.735.964-2.378-.06-.638-1.028-1.023-1.35-1.216-.578-.193.766-.643.257-1.157-.9s-1.414-1.478-1.157-.578-.9 1.027-1.993.577c1.078 1.093 2.29 2.156 3.67 3.056 1.576-.54 3.316-.1 3.91-.04.642.064 2.635.514 3.727 1.093s1.8-.45 1.35-1.607c-.45-1.153-.514-.767-1.092-.13-.58.643-.707-.257-.643-1.602.054-1.137-.707-.835-.964-.128s-.836-.45-.514-1.157-.066-.964-.644-.77-.643 0-.707-1.287-.644-1.092-.837-.578-.707-.193-1.478-1.22c-.672-.9-1.45-.372-2.793.162.168.1.474.183.934.222z" fill="#cf6200"/><path d="M380.89 236.672c-7.02 2.848-12.084 1.582-15.896-.944 1.577-.54 3.352-.08 3.945-.02.642.064 2.635.514 3.727 1.093s1.8-.45 1.35-1.606c.964 1.22 1.67 2.057 2.823 1.992 1.157-.064 3.085-.257 4.05-.514zM365.91 204.338c-.43-1.453-.857-1.8-1.628-1.71-.77.084-1.112-.09-1.972-.43-.856-.34-1.968.084-2.14 1.626s-1.114 2.314-2.4 3.253c-1.284.945-2.056 1.716-2.056 3.258s-.34 1.968-1.196 3.086c-.38.495-.92 1.06-1.424 1.652.554.346 1.073.647 1.617.914.9.45.643 1.093-.32.836s-1.865.32-.322.643 2.244 1.028.77.964c-1.477-.065-3.212 1.22-.32.9 2.887-.323 4.044 1.027.643 1.09-3.406.066-2.12 1.158-.32 1.158 3.208 0 2.244.9 1.413.9-.835 0-1.22 1.093.9.9.03-.005.054-.01.09-.01.305-.317.533-.712.7-1.21.342-1.03.683-4.03 1.885-4.886 1.196-.855 1.8-2.057 1.8-2.912s1.794-4.623 2.995-5.567 1.716-2.996 1.286-4.455z" fill="#ff0"/><path d="M363.387 204.388c-1.216-.81-2.397-.34-2.397 1.2s-.772 1.97-1.8 2.483c-1.024.515-1.968 1.8-2.14 3.002-.17 1.197.172 1.968-.683 2.912-.86.94-.944 1.71-.34 2.225.597.513.597.602.854 1.368.258.772 1.712-.084 1.712-.94s.346-.854 1.285-1.368c.944-.515 2.487-3 2.14-3.684-.34-.687-1.196-1.285-.083-2.23 1.112-.94 2.314-1.028 2.314-1.967 0-.945.34-1.287.682-1.628.346-.346-.77-.86-1.543-1.374z" fill="#cf6200"/><path d="M363.387 203.152c-.8-.312-1.28 1.37-.168 1.626s1.285-1.2.167-1.626zM363.19 205.327c-.85.104-1.8 1.22-.386 1.03s1.992-1.223.386-1.03zM361.51 207.404c-.876.44-.708 1.606.577.77s1.607-1.863-.578-.77zM360.124 209.184c-.88.435-.707 1.6.58.77 1.284-.835 1.606-1.863-.58-.77z"/><path d="M358.344 210.024c-.875.44-.32 1.607.965.77s1.22-1.863-.966-.77zM359.432 211.112c-.875.44-.32 1.606.964.77s1.22-1.863-.964-.77z"/><path d="M357.9 211.557c-.876.44-.322 1.606.964.77s1.22-1.863-.964-.77zM358.888 212.793c-.88.44-.32 1.606.96.77 1.285-.835 1.22-1.863-.96-.77z"/><path d="M357.405 213.534c-.875.435-.32 1.602.964.767s1.22-1.858-.965-.766z"/><path d="M357.504 214.67c-.875.44-.32 1.608.964.773s1.22-1.864-.964-.772z"/><path d="M356.812 225.5c-.885.112-1.454 1.373-.34 1.63s1.368.34 1.368 1.197.346 2.056 1.543 2.14c1.2.09 2.23-1.285 1.2-1.71-1.027-.43-1.972-.77-2.056-1.716-.084-.938-1.028-1.625-1.715-1.54z" fill="#cf6200"/><path d="M388.355 218.132c.158.198.356.415.583.608.835.707 2.442 0 2.25-.578s-1.093-2.443.964-.9 9.443 6.427 11.82 8.158c2.38 1.735.836 1.928-.32 1.414s-4.307-1.93-6.23-3.016c-1.928-1.093-2.12-.707-2.442-.322-.272.322-.055 1.098.652 1.756-1.147.168-3.01-.085-3.545-1.306-.642-1.478-2.185-3.278-3.278-4.692-.406-.524-.525-.85-.455-1.122z" fill="#ff0"/><path d="M452.083 428.598c-1.602 1.093-3.723 3.02-2.314 5.716.167-.09.325-.193.488-.287 6.284-7.604 11.663-15.6 16.27-23.904.055-.287.105-.56.14-.796-1.8 1.542-4.628 3.08-5.785 3.465.77 2.057-2.823 4.756-4.75 5.528.77 1.285.513 3.213-1.158 3.6.386 1.15-.9 1.15-2.442 1.794s-2.314 1.156-2.823 1.928c.83-.45 1.987-.836 2.63-.643s.77 1.156-.386 1.413-1.923.9-2.314 1.414c1.67-.643 4.05-.32 2.443.77z" fill="#00d860"/><path d="M375.896 215.76c-1.9-1.657-2.378-.644-1.607.385s.192 1.542-1.48 1.8-4.177.578-5.205.578-2.245 1.414.192 1.285c2.443-.128 6.556-.964 7.65-1.414s1.986-1.285.45-2.635zM379.604 218.676c-1.568-1.41-2.12-1.028-1.736 0s-.32 1.22-1.344 1.543c-1.03.32-5.078 1.67-6.813 1.862s-2.12 1.414.45 1.35 7.516-2.12 8.094-2.506.77-1.157 1.414-.772 1.22-.32-.064-1.478zM380.79 222.78c-1.137.677-3.98 1.923-5.137 2.244s-2.12 1.607.322 1.414c2.437-.193 5.33-2.442 6.1-2.887.772-.45 1.158-.77 1.8-.706s1.8-.836-.32-1.993-3.407-.577-2.38.323.258 1.22-.385 1.607z" stroke-width=".618" stroke="#000"/><path d="M360.767 190.446c-3.14-2.062-6.724 2.26-3.253 4.627 3.04 2.077 6.254-2.655 3.253-4.627z"/><path d="M356.86 192.324l.93.065c-.192.958.772 2.406 2.25 2.05-1.186.9-3.5-.128-3.18-2.116zM369.024 239.144c.95.277 4.246.613 5.364.668-.56 1.176-1.063 1.957-1.4 2.798-.336.835-.5.895-.558-.39-.054-1.29-.78-2.127-1.45-.787-.67 1.345-1.007 1.844-1.338 2.403-.337.56-.84.786-.673-.613s.113-2.853.054-4.08z" fill="#fff"/><path d="M493.068 276.867c-.227 80.745-12.968 167.735-117.49 209.17-104.525-41.435-117.265-128.425-117.493-209.17h234.983zM493.068 276.867c.09-30.416-1.6-59.946-.83-85.823-39.058-17.477-90.45-21.07-116.66-21.07-26.212 0-77.605 3.593-116.662 21.07.77 25.877-.915 55.407-.83 85.823h234.982z" stroke="#000" stroke-width="1.236" fill="none"/></g></svg>