<svg xmlns="http://www.w3.org/2000/svg" height="512" width="512" version="1"><defs><clipPath id="a"><path fill-opacity=".67" d="M0 0h512v512H0z"/></clipPath></defs><g clip-path="url(#a)"><path fill="#006" d="M1023.99 511.95V-.033H-.008V511.95H1023.99z"/><path d="M-.008 85.267h107.986L-.008 31.077V-.03h61.784L212.834 75.27V-.03h85.06V75.27L448.953-.03h62.317v31.108l-108.52 54.19h108.52v85.364H402.75l108.52 54.19v31.12H448.95l-151.057-75.315v75.314h-85.06v-75.313L61.774 255.94H-.007v-31.12l107.986-54.188H-.008V85.267z" fill="#fff"/><path fill="#ce1126" d="M471.07-.034L300.415 85.324h40.85L511.26-.034h-40.19zM511.28 255.94l-170.174-85.31h41.03L511.28 235.6v20.34zM170.967 85.303L-.015-.055V20.33l129.772 64.973h41.21zM170.61 170.604L-.017 255.916h40.83l170.653-85.312H170.61z"/><path fill="#ce1126" d="M-.008 102.975h230.96V-.035h49.984v103.01H511.27v49.986H280.935v102.977h-49.984V152.96H-.008v-49.985z"/><path d="M399.67 640.77c-.046 16.332-2.623 33.927-23.764 42.308-21.142-8.38-23.72-25.976-23.765-42.308h47.53z" stroke-width="1.009" fill="#8fc5ff" transform="matrix(4.9436 0 0 4.944 -1482.9 -2891.1)" stroke="#fff"/><path fill="#366cc9" d="M375.9 683.08c9.584-3.8 15.353-9.493 18.8-16.104-.516.02-1.597-.01-2.064-.043-.52-.034-20.27-2.018-22.61-2.876-2.035-.746-9.8.634-13.423 1.93 3.38 7.03 9.237 13.105 19.297 17.093z" transform="matrix(4.9436 0 0 4.944 -1482.9 -2891.1)" stroke="#000"/><path fill="#5d3100" d="M361.13 672.95c.323-.105.94-.08 1.183-.036.286.052.338.078.442-.234s.338-.234.52-.078.65.078.83-.182c.183-.26.235-.233.417-.052.182.182.26.13.442.078.182-.05.494-.26.65-.545s.39-.39.52-.233.26.234.44.208.235.156.21.39c-.027.233.077.285.52-.078.39.39.518.233.518-.182 0-.416-.103-1.95-.26-2.157s-.31-.806-.337-1.274c-.05-.883-.052-.935-1.118-1.48 0-.313-.078-.443-.83-.39.025-.105-.105-.417-.26-.547s-.183-.182-.105-.545c.312.026.65-.026.832-.286.18-.26.78-.208 1.143-.052s.832.182 1.533.078c.26-.208.702-.442 1.17-.702.467-.26.597-.364.623-.728.067-.933-.26-2-.52-2.494-.26-.494-.337-1.118-.7-1.898-.397-.85-.39-1.065-.833-1.585-.12-.143-.26-.26-.286-.545-.026-.286-.13-.676-.44-.962-.787-.72-1.093-3.04-1.405-4.756-.18-.983-.053-3.3-.468-3.664-.702-.572-1.04-.468-1.508-.65-.338-.468-.493-1.403-.805-2.235-.495.078-.833.598-1.17.78s-.39.182-.39.65c0 .467-.26 1.117-.728 1.845-.468.727-1.248.52-1.897 1.61-1.43-1.74-1.456-2.234-1.56-2.728-.104-.493-.338-.597-1.143-1.3 0-.207-.104-1.038-.026-1.506-.598-.494-1.04-.416-1.325-.052-.285.364-.493.91-.935 1.117-.265.336-1.064 1.186-1.718 2.198.595 9.044 2.636 18.022 8.773 25.202z" transform="matrix(4.9436 0 0 4.944 -1482.9 -2891.1)" stroke-width=".125" stroke="#000"/><path d="M399.67 640.77c.018-6.152-.324-12.125-.168-17.36-7.9-3.534-18.295-4.26-23.596-4.26-5.302 0-15.697.726-23.597 4.26.155 5.235-.186 11.208-.17 17.36h47.53z" stroke-width=".98" transform="matrix(4.9436 0 0 4.944 -1482.9 -2891.1)" stroke="#fff" fill="#ff0"/><path d="M264.267 312.068c1.285 2.057 3.6 5.592 3.856 7.515.9-1.864 1.607-2.694 1.8-3.85s1.542-3.408 1.028-4.63-.9-2.184.515-1.284c1.41.898 1.137 2.456.83 4.755-.83 6.293-3.465 7.58-3.85 11.82 3.79 8.93.963 12.143 5.072 20.88.642.385 2.358-.302 2.872-.174 2.18-1.54 3.81-.983 6.89-.34 3.085.643 4.756 2.823 4.756 4.75s0 2.444.643 3.6 1.927 2.957 1.67 4.243c-.258 1.28.257 2.05.642 2.694s-.128 2.057-.514 2.957-.257 2.056 1.285 3.984c1.543 1.924 5.137 10.022 5.137 14.773 0 4.757.257 6.942 2.185 7.837 1.928.9 2.57 1.67 2.313 3.728s.9 12.72 1.157 14.392.9 1.286 1.67 2.185c.767.895 1.282 1.924 3.852 1.924s5.053-.342 6.724-.084c2.314 3.213 3.728 7.58 4.242 10.278s.47 6.383 1.37 6.383 1.8.128 1.542-3.214-.514-3.857-1.67-5.523c-1.158-1.67-1.8-2.443-1.158-3.47s.77-2.7.514-3.986-.642-3.207 1.543-.642c2.185 2.57 2.828 3.214 3.47 4.114s.895 2.57.77 4.113c-.127 1.538.125 2.18 1.025 1.41.9-.767 2.056.514 1.542 2.185s.13 2.7 1.67 3.213 2.186.9 2.572 2.057 1.67 1.666 1.67-.643c0-2.314-.9-7.198-1.542-8.736-.642-1.54-1.157-4.884-1.285-6.812s-.514-2.437-1.414-2.823-1.67-1.028-1.798-1.928-.9-1.22-1.48-1.22-1.086-.45-1.407-1.094-.643-.707-1.286-.77-1.672.32-1.993-.708-.77-2.507-1.414-3.342-1.22-1.093-1.285-3.98c-.065-2.892-.13-3.278-1.03-4.306s-2.44-3.723-3.083-4.88c-.638-1.157-1.28-2.314-1.28.13 0 2.436 0 3.72 1.537 4.62 1.542.9 1.928.9 1.285 2.186s0 2.186.257 3.086.77 1.798 0 2.693c-.77.9-1.542.643-1.414-.766.13-1.414-.385-3.085-1.023-4.242-.643-1.157-1.157-1.928-1.928-1.286s-1.415-.13-.9-.643.385-.9 0-1.286-.515-.77.128-1.54.642-1.158.257-2.953c-.386-1.8-3.214-10.793-4.5-12.85s-1.156-3.6.515-1.542 3.085 3.856 3.214 5.523c.128 1.67.514 2.7 1.028 3.342s.9.385 1.157-1.03 1.284-.9-.515-3.593c-1.8-2.7-5.142-7.198-6.427-15.292s-1.8-13.492-3.085-15.672c-1.28-2.186-1.666-2.7-1.795-4.756s0-4.114-.9-5.65c-.9-1.544-1.542-1.8-1.67.513-.13 2.31.128 7.45.77 8.35s.258 3.21.13 4.494-2.15 2.556 2.056 5.142c1.67 1.028 1.41 2.442 1.157 3.342-.256.895-.513.767-1.413-.643-.9-1.413-1.8-2.57-2.7-3.342s-1.027-1.285-.9-3.085.515-3.085 0-3.723c-.513-.642-.77-.128-1.027.895-.257 1.03-.514 3.857-1.028 4.628s-.772.257-1.157-1.414.128-4.237 1.028-7.194 1.414-6.04.643-9.893c-.772-3.856-.386-5.013-3.342-8.22-2.952-3.215-6.293-6.3-7.707-10.28-1.414-3.985-1.67-7.456-3.214-9.255-1.537-1.795-3.722-4.11-5.136-4.75v-5.91c0-1.413-.643-2.313-2.314-2.056s-2.7 1.67-3.722 3.594c-1.027 1.928-1.8 1.03-3.212 4.37s-3.47 5.01-3.47 8.608z" fill="#cf6200"/><path d="M273.56 349.74c1.03.644 2.013 1.074 3.556.303s3.386-2.996 5.442-.81c2.052 2.18 3.21 5.78 3.21 8.607 0 2.823 0 8.093 3.212 11.05 3.214 2.95 4.88 6.036 5.008 9.892.13 3.852 1.542 9.765 1.928 11.307.386 1.537 1.285 3.337 2.314 4.365s1.8 3.985 1.928 7.065c.128 3.085-.386 5.27 0 6.813s0 2.828-1.157 2.056-1.413-1.157-2.056-2.443-1.414-1.028-.77.9 2.57 3.723 4.24 3.723 2.186.257 3.214 1.285c1.023 1.03 1.152 1.543 2.95 1.543s2.058 0 3.73.514 1.67.257 2.57 0 1.794.514 2.437 2.185 2.185 6.294 2.185 7.58 0 2.57.9 3.856.642 2.57-.386 1.8-1.028-.515-1.8-.386-1.285-.257-2.308-.9c-1.028-.643-.386-.514-1.414-2.057s-1.67-2.057-1.67-.9-.13 2.57-.9 1.928-1.158-.642-1.8 0-.9 1.157-1.67-.128-1.672-1.286-2.443-1.543-.772-.257-1.153-1.414c-.386-1.156-1.543-1.414-2.57-1.414s-1.543-.515-1.672-1.286c-.128-.766-.77-1.28-1.285-1.666s-.257-1.286-.386-2.185-.9-.515-1.414-.772-.9-.127-.9-1.413-.513-1.67-.9-2.57c-.38-.9 0-1.8.258-2.824.257-1.028.13-1.67-.638-2.57-.77-.9-.128-1.8-2.185-3.6s-3.085-.257-3.727-4.494c-.643-4.243-1.928-12.98-3.085-14.393s-1.923-2.442-3.08-2.828-1.928-.13-2.056-2.572c-.13-2.437-.9-5.522-2.443-7.065s-2.185-2.056-2.956-2.7-1.028-1.8 0-3.98c1.028-2.184.643-5.14.514-6.555-.128-1.41-.514-3.208-.257-4.75s.13-3.472-.257-4.5-.9-1.285-.257-2.057zM304.508 313.205c-1.74 2.24-3.594 4.114-5.992 5.824-2.397 1.715-5.482 3.084-3.772 5.996 1.716 2.912 3.085 3.258 3.426 5.483.346 2.224.86 4.113 2.57 4.627 1.716.51 2.4.168 2.4 3.767s0 4.97 1.54 6.338 1.37 2.74 2.058 5.997c.682 3.253.682 10.278 2.738 15.074s6.684 13.878 6.17 15.76-1.2 3.254.855 5.48c2.058 2.23 3.427 5.482 3.6 7.366.168 1.888.514 2.57 2.566 1.888 2.056-.687 3.085-1.374 3.772-2.23.682-.855 2.05-.682 3.94.342 1.883 1.028 4.795 2.056 6.506 1.028 1.715-1.028 2.57-2.566 4.113-2.566 2.397-1.715 3.253-5.315 3.767-6.338.514-1.028.173-1.028-.855-2.057s-.516-2.744-.69-4.454c-.167-1.716-.854-4.282-2.91-8.054-2.052-3.768-3.253-8.396-4.623-9.592-1.37-1.202-2.056-4.114-2.23-5.483-.167-1.37-1.71-2.57-2.738-3.6-1.03-1.023-2.058-2.566-3.254-8.563-1.2-5.997-2.056-10.278-2.056-11.307s-.173-1.2-1.202-1.542-1.542-2.057-1.196-2.912c.34-.854-.346-1.71-.687-2.738s0-2.912.687-3.94c.682-1.03.514-3.94-.173-6.34s-1.37-4.453-4.114-4.8c-2.74-.34-3.253-1.023-4.28-3.252-1.03-2.225-2.058-6.166-2.4-7.026-.34-.855-.854-1.028-2.91.687-2.057 1.712-2.74 2.28-2.74 5.484 0 2.057.342 2.74 1.024 3.94.687 1.197.86 1.543 1.374 4.796s3.426 8.395-.346 11.307c-3.767 2.912-3.253 3.6-3.08 5.65.168 2.058-1.028 3.427-1.715.515-.682-2.912 0-4.622 2.056-5.992 2.056-1.374 3.94-3.085 2.57-4.968-1.374-1.884-1.884-6.34-2.057-8.395s-.514-2.744-1.715-1.202z" fill="#cf6200"/><path d="M273.957 356.86c-.094 1.395.217 2.928.326 4.16.128 1.413.514 4.37-.514 6.554-1.03 2.18-.772 3.338 0 3.98.043.035.083.07.122.104 2.096-.702 2.368-3.04 1.805-4.173-.598-1.196-.425-2.654.257-3.85.687-1.202.687-1.885.09-2.745-.604-.855-.604-.855.083-3.253.603-2.11-.92-2.096-2.17-.776zM295.906 390.084c-.385-1.542-1.8-7.455-1.928-11.306-.128-3.857-1.794-6.942-5.008-9.893-2.506-2.31-3.055-6.017-3.174-8.88-1.883-1.152-2.68-.628-2.52 1.513.167 2.31 2.48 3.426 2.14 6.763-.34 3.344-.34 2.488 1.285 4.115s2.226 3.17 1.37 3.856c-.855.683-.944 1.885.258 2.31 1.196.43 1.285 1.716 1.112 2.912-.173 1.2.944 1.46 1.626 2.314.688.855.772 2.912.09 4.113-.688 1.196-.772 3.08.425 2.056 1.202-1.028 1.716-.09 2.655 1.538.816 1.404 1.498.964 2.383.538a10.838 10.838 0 0 1-.712-1.948zM312.616 419.996c-.772 1.542-1.67 1.028-2.443.257s-1.67-.77-1.285-2.185.257-1.672-.77-2.443a7.71 7.71 0 0 0-.357-.247c-.32-.01-.696-.01-1.186-.01-1.8 0-1.928-.514-2.95-1.542a8.638 8.638 0 0 0-.634-.574c-.02.247-.01.574-.01.96 0 1.413 0 1.156-1.413 1.542s-1.157-1.414-1.414-2.57a4.247 4.247 0 0 0-.223-.693c-1.547-.296-3.178-1.927-3.762-3.673-.643-1.928.13-2.185.77-.9s.9 1.672 2.058 2.443 1.542-.514 1.157-2.057c-.124-.494-.154-1.068-.14-1.706-.276-.5-.65-.904-1.146-1.122-2.056-.9-1.414-1.157-1.285-2.828.13-1.666-.257-1.666-1.542-.77-1.286.9-1.414-.13-1.414-2.696 0-2.57-1.67-2.57-2.052-.77-.385 1.8-1.028.643-1.8-1.928s-1.8-3.214-1.927-.77c-.11 2.065-.683 2.56-2.027 1.413.237 1.493.445 2.887.613 3.985.642 4.237 1.67 2.694 3.727 4.494s1.414 2.7 2.185 3.6c.767.9.895 1.54.638 2.57-.257 1.023-.638 1.923-.257 2.823.386.9.9 1.285.9 2.57s.385 1.158.9 1.415c.32.158.736.07 1.038.197.33-.436.632-.97 1.018-1.355 1.542-1.543 3.856.128 4.627 2.057s1.665 2.442 2.822.9.77-1.286 2.057.128 1.798 1.157 1.798 1.157 1.285-.514 2.185.257 1.414.643 3.08-1.8c1.67-2.442-.766-1.67-1.537-.128zM317.164 349.494c.51-3.767.168-7.534 1.71-8.91 1.543-1.368 3.426-4.107 3.253 1.717-.168 5.825-.34 5.484-1.537 6.853-1.202 1.37-2.23 1.71-1.03 3.94 1.198 2.225 1.37 2.398 1.198 5.825-.168 3.426-.168 4.795 1.2 6.51 1.37 1.71 1.71 1.884 2.057 3.768.342 1.884 1.538 4.455 3.08 5.824s3.258 5.31 3.426 8.054c.174 2.74 2.572 3.426 4.797 5.31 2.23 1.883-.51 3.253-2.225 2.398-1.71-.856-1.028 0-2.057 1.196-1.028 1.2-1.37 1.374-2.224-.682s-3.77-3.426-5.14-3.94-2.566-2.745-3.768-4.97c-1.028-1.913-3.065-3.312-4.923-3.455.513 1.444.79 2.577.64 3.116-.513 1.883-1.2 3.253.856 5.477 2.057 2.23 3.426 5.483 3.6 7.367.167 1.89.514 2.57 2.565 1.89 2.058-.69 3.086-1.376 3.773-2.23.682-.856 2.052-.683 3.94.34 1.884 1.028 4.795 2.057 6.506 1.028 1.714-1.028 2.57-2.566 4.112-2.566 2.398-1.715 3.253-5.314 3.767-6.338.513-1.028.172-1.028-.856-2.056s-.514-2.744-.687-4.455c-.168-1.716-.856-4.28-2.912-8.054-2.052-3.768-3.253-8.396-4.622-9.592-1.37-1.202-2.057-4.114-2.23-5.483-.168-1.37-1.71-2.57-2.74-3.6-1.027-1.023-2.055-2.565-3.252-8.562-.938-4.687-1.665-8.32-1.937-10.18-1.23 1.963-2.07 2.442-2.516 1.098-.514-1.537-1.2-2.397-1.883-1.37-.687 1.03-.86-.854-.86-1.71 0-.86-.17-1.028-1.03-1.028-.854 0-.167-1.37-.513-3.94-.34-2.57-.854-2.912-1.195.173-.34 3.08-2.057 4.964-1.37 5.65.683.688.34 2.058-.346 4.114-.683 2.05-.342 3.252.172 4.622s-.34 3.94-.687 6.17c-.34 2.225 1.374 4.45 1.89.682zM285.87 318.743c-1.27.093-2.14 1.206-1.413 5.097.455 2.408-1.37 1.883-2.052.682-.687-1.196-1.2-3.767-2.57-5.997-1.375-2.225-.688 1.543-.856 3.6-.174 2.056 1.196 2.056 2.397 3.767 1.196 1.715.168 2.402-1.2 2.402s-.684 2.74-.342 4.623-.342 2.23-1.375.687c-1.023-1.542-.34-3.94-.168-6.852.168-2.912.34-2.23-1.542-2.912-1.884-.687-1.543-1.03-.856-2.744.683-1.71 1.37-2.57.515-3.426-.862-.856-.69-1.37.68-1.543 1.37-.168.86-1.196 2.057-1.542 1.202-.34 1.716.173 1.884-2.052.144-1.86.767-3 2.16-2.437.842 2.862 1.934 7.317 2.68 8.647zM303.124 338.914c0 3.6 0 4.97 1.542 6.338s1.37 2.74 2.057 5.997c.682 3.253.682 10.278 2.74 15.074.612 1.428 1.457 3.243 2.322 5.13 1.137-.893 2.126-2.43 2.477-3.247.51-1.2-1.03-3.6-2.23-5.65-1.196-2.057.173-2.745 1.37-5.316 1.2-2.564-.17-2.737-2.052-3.425-1.888-.682-1.888-2.398-2.917-5.137s-.855-3.94-.168-5.482c.682-1.543.168-2.74-1.2-3.085-1.37-.34-1.03-1.37-.515-3.08.514-1.715.855-2.056-1.197-1.542-1.557.386-1.933.677-2.397 1.24.113.495.168 1.182.168 2.186z" fill="#00b800"/><path fill="#5d3100" d="M322.85 346.083c-.19 2.057-.174 3.085-.688 3.767-.51.687-.168 1.716.346 2.744s.855 2.398.34 4.282.342 3.426 1.37 3.94 1.543 0 1.2 2.398c-.345 2.398 1.03 4.97 2.226 5.997 1.2 1.03 2.057 2.74 1.884 3.768-.17 1.03.86 2.057 2.056 2.57 1.2.515 1.028.688 1.028 1.37 0 .688.515.688 1.884 1.03s2.398 1.2 3.94 3.084 3.767 2.912 3.426.855 0-3.426-2.057-4.454c-2.05-1.03-3.594-5.997-4.454-9.423-.854-3.427-3.593-8.05-5.135-8.905-.173-2.402.173-3.6-1.37-4.8-1.542-1.197-2.056-2.74-2.056-3.94 0-1.197-.856-2.74-1.544-3.08-.682-.347-1.028-1.202-1.028-2.23s-1.196-.856-1.37 1.028z"/><path d="M313.753 437.992c3.08-.257 11.434-2.7 12.33-3.47 2.055 1.413 5.654 3.34 7.197 3.34-2.957.644-4.885.258-5.656-.256.386.9 1.414 2.314 2.057 2.443-2.827-.13-6.035-.773-7.064-1.8-2.442 1.027-6.555 1.284-8.863-.258zM319.29 441.848c1.092.322 6.55 1.22 7.257 1.22-1.8 1.54-.257 3.017 2.763 2.76-1.478.193-3.09.752-1.992.964 2.635.514 9.763-1.414 11.177-2.185-2.442 3.15-14.32 6.04-19.206-2.76zM324.184 449.66c1.473-.772 5.136-.514 6.87.32-1.927.708-5.714.708-6.87-.32z" fill="#00d860"/><path d="M329.67 449.56c2.636-.45 10.086 1.35 12.72-.256-.9 2.378-5.59 2.7-7.197 2.185-1.602-.515-3.144-1.158-4.237-1.094.58-.32-.385-.385-1.285-.835z"/><path d="M332.39 453.22c1.992.316 9.12-.58 11.306-1.415 2.31.772 6.872 1.988 7.9 1.86-2.185 1.35-6.363.578-7.707 0-3.857 1.285-7.006 1.67-11.5-.446z" fill="#00d860"/><path d="M335.8 454.406c2.853.643 5.286.183 8.094-.757.875.375 2.936.835 4.874.74 1.29.738 3.026 1.766 4.696 1.895-1.735.707-8.097 0-9.378-.707-3.213.064-8.74.77-10.084 1.864-.065-.9.52-2.15 1.8-3.036z" fill="#00d860"/><path d="M332.39 439.92c2.225.742 10.278.386 14.386-1.543 1.62-.76 2.625.515.77 1.157-6.678 2.314-11.948 3.214-15.8 1.157-1.52-.81-1.67-1.54.644-.77z"/><path d="M371.84 428.994c-9.892 4.622-16.448 6.036-30.19 1.8-1.28-.396-2.186 0-.772.9 1.414.894 8.992 2.95 10.792 3.08s1.157.963.064 1.285-1.414 1.09.064.513 9.734-.796 13.106.964c1.473.77 1.86.643 1.73.064s.643-.963 1.735-1.09 1.735-.516.9-.837-.965-.514-.322-.835.707-.643-.257-.836-1.606-.45-.706-.9c.9-.445 2.25-.77 3.277-.895.26-.707-.19-2.57.58-3.213z" fill="#00d860"/><path d="M355.378 430.18c5.655.4 16.06-2.185 21.588-7.58 1.923 1.153 4.623 2.44 6.036 2.696s2.7 1.542.515 1.542-5.27-.9-6.68-1.542c-7.326 4.5-15.898 5.977-21.33 5.527-1.538-.13-1.924-.77-.13-.643z"/><path d="M338.668 399.33c1.928 1.35 5.334 3.594 9.764 3.273 2.185 1.735 5.59 3.213 7.134 3.535-2.957 1.22-6.17 2.25-7.006 3.213-1.35-1.284-3.08-1.09-3.53-1.734-1.285 1.028-1.092 1.67-.256 2.185s7.32 1.608 8.928 1.158 2.037.88.707 1.345c-3.472 1.22-10.215.064-12.528-3.66-2.314-3.727-4.306-5.14-10.6-1.734-.706-1.8-.706-2.25-1.927-2.25s-3.47-1.607-1.736-1.543 6.876-.707 11.048-3.787z" fill="#00d860"/><path d="M340.2 407.586c-1.072.267-4.112 1.928-5.2 2.057-1.092.128-3.02 1.67-1.028 1.735 1.987.065 4.558-2.12 5.972-2.314s1.542-1.8.257-1.478zM346.43 414.112c-.762.134-4.044.9-4.944.836s-1.8.193-1.735.835.322 1.03-1.027.9-2.507.386-2.828.77-.578.773.77.9 2.058.258 3.6-.45 3.02-1.798 4.692-1.863c1.666-.064 3.336-2.25 1.473-1.928z" fill="#00d860"/><path d="M341.832 418.068c1.404.91 8.35 3.277 10.856 3.085s2.037 1.003.13 1.414c-3.92.83-8.707-.876-11.95-3.47-1.606-1.287-.128-1.736.964-1.03z"/><path d="M374.707 421.48c-5.314 1.695-10.727 1.092-12.913.513s-4.177-.707-2.7.707c1.48 1.41 6.235 2.373 8.93 1.666-9.57 2.185-12.078 1.993-14.45 1.607-2.38-.386-6.843-.302-8.736-.13-1.414.13-3.342-.063-4.177-.577s-1.092-1.478 1.414-1.22c2.502.256 2.828-.258.643-.58s-5.206.58-2.25 2.443 9.443-.13 13.556 1.027c4.108 1.157 12.844 1.992 21.134-4.692.425-.34 1.157-1.28-.45-.766zM348.605 413.667c.193.643.193 1.35 0 1.8s-.193 1.028.643.386 1.35-1.414 2.185-.964 2.956.384 3.915.256c.97-.13 1.285-.322-.124-.9-1.413-.58-2.827-.77-3.6-.707s-1.734-.13-2.376-.387-.836-.128-.643.514z" fill="#00d860"/><path d="M362.3 416.14c-1.094.064-3.022-.643-4.05-1.093s-2.502-.514-1.41.964c1.09 1.48 5.844 2.315 7.515 1.608s.964-1.48 2.63-.45c1.67 1.028 3.406 1.735 4.627 1.735s1.67 0 .322-.77-1.992-.965-2.12-1.608-.322-1.028.9-.643 2.634 1.093 3.598.58 2.758-1.672 4.365-1.672l.385-.964c-2.313-.193-3.786.514-4.43.77s-1.798.386-3.02.194-2.827-.322-3.213-.643-.386-.58.642-.77 1.35-.9-.064-.644-5.2.128-7.193-.514c-1.993-.64-2.828-.703-3.664-.387-.834.32-.706 1.22.515 1.286s3.985.32 4.95 1.22.835.964-.258.514-3.085-.193-1.028 1.285z" fill="#00d860"/><path d="M379.058 413.816l-.386.964c2.378-.065 8.162.514 10.02 1.67 1.8-1.413 1.48-1.863 2.764-1.606s2.892.707 3.6.32 1.22-.32 1.99-.19c.768.127 2.438-.194 3.402-.773s2.957-1.348 4.114-1.348 2.565-.257.45-.58c-2.12-.32-5.335.323-6.427.708-1.088.386-4.365.643-6.293.643s-4.558.964-6.744.385-5.205-.192-6.49-.192z" fill="#00d860"/><path d="M408.818 412.68c-3.85 2.827-8.478 3.47-14 3.855-1.607.114-1.113.568.257.707 5.78.578 12.463-1.543 14.643-3.856.632-.668.563-1.775-.9-.707z"/><path d="M382.567 419.254c1.67.064 7.45 1.543 9.314 2.185 1.415-.13 1.8-.45 1.544-.965s-.45-1.092 2.12-.964c2.566.13 8.48.065 9.57.065.9-.385 2.888-1.928 3.788-1.992-2.31.13-11.944.643-13.165.514s-1.864 0-2.635.45-1.22.643-2.185.257-2.7-.9-3.658-.32c-.965.577-2.957.063-4.693.77z" fill="#00d860"/><path d="M405.11 419.55c.9-.385 2.887-1.927 3.787-1.992 1.67-.128 3.6.58 4.5.707s1.862-.064 1.22-.77-.064-1.93 2.57-1.608c2.63.322 3.98.77 6.55.514s3.728 1.672 8.608-.256c-.386 1.928.514 2.057 1.413 1.67s1.928-.256 3.47.9 10.92 1.287 13.106.9c2.18-.385 3.337.772 1.666 1.286-1.666.515-2.056 1.286-1.666 1.8.38.51.767 1.152-1.285.895-2.058-.257-2.443.386-3.47 1.157s-1.287 1.028-4.114.514c-2.823-.514-3.337-.13-4.88.13s-1.928.256-3.47-.26-4.88-1.027-6.936-.384-3.6 1.285-5.4.77-1.927-.256-.77-1.413 1.414-1.03 3.6-1.286c2.184-.252 3.855-.895 2.313-1.795s-2.057-.772-4.113.256-3.085 1.666-5.394.386c-2.313-1.286-3.47-1.03-5.013-.643s-4.108-.515-6.293-1.48zM412.822 423.407c-2.94.42-3.732-1.473-6.807-1.088-1.028.128-2.764 1.408-.386 1.216 2.372-.193 4.943 1.092 7.257.9s1.285-1.222-.065-1.03zM409.41 425.632c1.55-.564 4.757.514 6.107.257s2.634.577 1.22 1.027-4.82-.835-6.362-.385-3.08-.13-.964-.9zM378.71 433.938c2.122.07 9.765-.257 12.786-6.68.232-.494.45-.707 1.413-.064s4.498 2.764 11.113 3.342c1.854.163 3.856 1.093.128.836s-9.634-1.286-11.626-2.507c-3.342 5.266-9.344 5.89-13.813 5.78-2.693-.065-2.05-.772 0-.707z" fill="#00d860"/><path d="M395.223 425.187c-1.028 1.414-4.563 3.856-6.17 3.985-1.6.128-6.42-.322-7.642-.772s-2.7-.32-.963.9 6.04 2.057 7.77 1.67c1.736-.384 3.728-.963 5.078-.127s3.856 2.437 5.33 2.116c1.477-.318 4.498-.318 5.462.127.964.45 2.635 1.8.128 1.03s-4.562-.13-5.72-.644c1.286 1.8 4.203 4.692 6.684 4.692.578 0 .963 1.028-.258 1.607 1.22.578 4.044 1.028 5.522-.322-.385.514-.192.836.45 1.157s1.414.77.257.9-3.785.45-4.557.13c2.502 1.6 8.993 4.17 15.607 2.886 1.26-.242 1.928-.766-.128-.707-4.242.128-4.494.064-5.265-.38-.77-.456-.643-.836.578-1.222 1.216-.386 4.3-.836 5.587-.836s2.57-.514-.065-.514-5.843 0-7.128-.45-2.25-1.028-.9-1.928 2.762-.642 3.405-1.478c-4.242-.064-9.447-2.314-6.555-4.366.672-.48.45-.514-.643-.642s-4.3-1.03-5.65-1.8-.45-1.414.642-1.607c-2.507.45-7.52-.9-10.857-3.406zM432.893 425.088c-2.313 1.735-6.678 2.442-8.542 2.442s-2.12.643-.642.836 3.085.386 3.728.193 1.028-.258 1.987.192c.964.45 3.02.706 4.82.128s4.75-.835 5.972-.77 2.57.127.128-.58c-2.437-.707-6.42-.192-7.385.065s-3.6.064-2.185-.386 2.634-1.158 3.34-1.736c-.513-.13-.834-.257-1.22-.386zM431.707 430.08c-1.992 1.48-4.88 2.89-7.836 3.017 2.7.964 4.95 3.728 6.68 3.6-.835.514-1.86 1.285-2.95 1.413 1.67.45 4.492-.064 6.806-1.35 3.856 1.093 8.864.386 10.535-1.028-2.506 0-5.52-.9-6.87-2.056 1.22 0 2.372-.772 2.95-1.474-2.886.51-7.835-.9-9.313-2.12z" fill="#00d860"/><path d="M427.604 438.14c1.092-.128 2.116-.9 2.95-1.414-2.115.707-11.37-.77-14.128-3.213-2.763-2.438-2.763-.58-.835 1.156s5.33 4.37 12.014 3.47zM434.376 444.024c-1.156.642-6.678 1.028-8.478.642s-2.57-.193-2.12.514.642 1.35-.836 1.157-4.113.13-5.2.514c-1.093.387-2.443 1.35-.13.966 2.31-.386 4.43-.836 6.165-.386s7.9.578 9.12.064.387-.514-.192-.514-.835-.386 0-.77 1.48-1.48 1.67-2.186zM380.936 436.558c-2.314 1.028-10.02 3.085-12.077 3.214-2.572 1.157-4.623 1.8-5.91 1.8.9.77 4.366 1.537 5.78 1.156-.77.767-2.565 1.666-3.208 2.052 2.052-.257 4.494.257 5.522.386-2.7 1.542-6.422 2.056-8.35 1.8.643.9 1.543 1.8 2.7 1.8-2.443.642-5.4.642-6.94.127.64 1.286 1.284 2.057 2.184 2.186-2.057.256-4.628.64-6.808-.644 1.666 2.185 5.394 2.95 10.92 2.314 5.523-.643 10.15-3.085 11.435-4.114-2.313.257-5.398.386-6.94.13 3.084-.772 9.763-3.6 10.92-4.757-1.285 0-2.566-.387-3.47-1.03 1.8.257 8.097-.51 10.025-1.28-2.314-.514-3.727-1.928-4.37-2.828 8.093 2.57 17.1 1.73 21.455.643 1.028-.257 1.152-1.563-.9-1.414-3.6.258-10.534-.77-12.334-1.67 1.672 1.285 3.73 2.056 5.142 2.313-3.34.9-7.964 1.543-14.776-2.185z" fill="#00d860"/><path d="M365.512 444.815c.643-.386 2.437-1.286 3.208-2.052-1.413.38-4.88-.386-5.78-1.157 1.287 0 3.338-.643 5.91-1.8-4.623-.128-7.837-.128-9.508-1.028s-4.75-.643-5.907-.386-.77 2.186 4.108 1.67c-2.057 1.415-7.58 1.93-9.635 1.415.514 1.666.9 3.338.385 4.237 2.7 1.543 9.764 3.47 13.234 3.214-3.084-1.157-4.755-2.442-2.185-2.7s3.985-.77 6.17-1.413z" fill="#00d860"/><path d="M357.553 453.17c6.15-.514 14.386-.623 20.94-6.17 1.672-1.414 2.794-.94 1.158.514-3.465 3.085-12.076 7.322-20.298 7.45-3.347.055-4.88-1.542-1.8-1.794z"/><path d="M403.627 442.985c-1.542.58-5.848 1.286-7.128 1.093-1.287-.193-3.15-.257-4.18.386s-1.09 1.028.323 1.156 3.213.258 4.113.193c-1.157.643-1.928 1.543-2.185 1.928 2.057-.513 5.844.387 6.936 1.03-.835.257-1.8-.065-2.506-.45 3.47 3.663 13.748 3.663 15.42 3.02-.772.58-1.48 1.158-2.25 1.35 2.892.515 6.23.45 9.506-1.478-1.092.193-4.365-.128-5.2-.193.642-.643 1.6-1.222 2.5-1.48-1.28-.256-5.328-.128-6.292.387.385-.772 1.092-1.736 1.864-2.057-5.077 0-11.242-.064-13.49-1.285 3.597.385 7.582-1.736 9.248-1.736-2.823-.065-5.908-.708-6.68-1.865zM390.724 445.803c-2.506.515-6.293 1.543-7.32 2.12s-2.122.9.127.9 8.35.258 9.7.45c-3.405-.513-8.028-.642-8.927-.642s-1.928-.063-.257-.577 3.856-1.67 6.678-2.25zM385.632 451.786c.895 0 4.816 0 6.358-1.35 1.607 1.22 4.69 2.95 6.68 2.95 1.99 0 1.798.516.063.708-1.73.193-5.136-.83-6.872-2.116-2.312.836-4.235.13-6.228-.192zM355.872 469.09c3.98 1.542 9.25 2.7 13.1 1.414 2.186 1.928 6.684 2.056 9.122 1.542 2.442-.514 4.627-.77 7.326.13 2.694.898 8.22.963 9.764 2.243-1.414.068-4.435 0-5.142.197-.707.188-.32.638.964 1.345-4.365-.257-11.884 1.607-14.193 3.6.83-1.993 3.4-4.693 7.45-4.693-2.313-.83-9.7-.896-12.077.578-.707-.772-1.543-2.052-1.607-2.566-3.916 2.244-11.628-.964-14.708-3.792zM345.688 461.87c4.74-.676 7.97-2.184 9.383-3.598.837.77 4.302 1.543 8.094.386-.77.578-.836 1.67-.514 2.25-2.507.064-7.262 1.285-8.864 2.12-1.607.83-6.298 1.41-7.836.574-1.542-.83-1.606-1.538-.262-1.73z" fill="#00d860"/><path d="M362.645 460.932c-2.507.064-7.262 1.285-8.864 2.12.322.644.515 1.667.58 2.374 4.622-1.67 15.22-2.694 19.27-2.052-1.93.13-5.592 2.116-7.643 2.373 5.007-.385 9.892.643 11.172.965 1.284.32 1.542 1.285.578 2.185s-1.41 1.028.642 1.092c2.057.064 6.298-.193 8.226-2.057-.77-.836-2.763-.514-3.34-1.093 1.348-.45 2.89-1.414 3.47-2.12-3.47-.065-4.757-.13-5.914-.387-1.156-.252-1.992-.578-.578-1.344 1.414-.773 2.057-1.415 2.506-1.93-2.506.708-6.42 1.286-9.7-1.285 1.222.32 4.11.13 5.137-.32-1.092-.58-1.987-1.03-2.887-1.03 2.63-1.285 7.836-2.442 14.258.13 3.213-.258 6.683-.13 9.12.513 1.03-1.028 3.214-3.47 4.37-4.113-7.578.642-21.197-.772-20.94-4.75-2.442 3.207-8.093 5.007-10.535 4.493-.257 1.157.77 2.57 1.67 3.342-2.57.514-6.94.9-8.992.514 1.158 1.157 3.338 2.185 4.624 2.057-2.695 0-4.108.515-6.23.322z" fill="#00d860"/><path d="M378.365 469.98c2.057.064 6.3-.193 8.227-2.057-.772-.836-2.764-.514-3.342-1.093 1.35-.45 2.892-1.414 3.47-2.12 5.394-.446 10.214-.19 12.522-.896 2.314-.707 8.226-.32 9.383-.642-5.14.83-6.17 1.28-6.427 2.116s1.67 1.542 2.893 1.542c-2.313-.128-5.205 2.314-5.462 3.278-3.08-1.8-4.558.32-4.88 1.028-1.285-.514-5.526-.385-7.712 1.48-2.822-.837-4.686-1.287-7.514-.837 1.735-.386 1.414-1.543-1.157-1.8zM403.034 454.95c1.735-.065 5.522.128 6.872-.065-.9.45-2.052 1.286-2.31 1.672 4.366-.515 10.338-.836 12.073-.58-2.117-.32-4.302 1.03-5.394 1.736s-.45 1.157 1.028 1.35 3.47 1.35.77.964-8.027-.385-9.313-.193-1.99-.45-.127-.707 3.144-.9 4.044-1.414c-1.543.386-4.494.386-5.394.13s-1.478-.772-.45-1.03.322-.642-.77-.514-3.857 1.285-5.4 2.763c1.672-1.735 3.15-3.278 4.37-4.113z" fill="#00d860"/><path d="M383.457 457.867c2.12 2.378 4.623 3.727 8.607 3.856.836.025 2.393 1.147.386 1.22-5.4.194-8.093-1.09-10.47-4.562-.49-.71.414-1.705 1.477-.513zM415.64 412.926c2.838 1.34 8.543 2.506 12.977 2.314.77-.035 2.324.79.38.964-5.007.45-9.506-.253-13.678-2.57-1.158-.644-.772-1.222.32-.708z"/><path d="M418.507 412.876c4.366-.128 7.643-.064 8.993 1.22 2.5-.77 7-1.22 8.028-1.027s2.185-.258-.193-.836c-2.377-.574-7.9-.767-9.635-.445-1.735.315-7.133.508-8.928.315.77.13 1.28.257 1.735.77zM435.464 414.607c2.057-1.093 7.964-.065 9.764-.836-1.286 1.544 4.113 1.672 8.8.45-1.8 1.158-5.65 1.35-7.322 2.058s-2.57.193-3.856-.386-4.558-1.735-7.386-1.285z" fill="#00d860"/><path d="M454.052 414.21c-4.687 1.222-10.085 1.094-8.8-.45-1.8.773-7.707-.256-9.763.837 2.12-1.286 3.726-.257 5.264-2.892.964.197 3.213.326 3.984-.702 1.35.32 3.728.9 4.435 1.6.707.708 1.794-.19.894-1.28 2.12-.77.777.916 5.72-.32 1.028-.258 3.535-.707 4.37-.772-1.67 1.35-3.663 2.824-6.105 3.98z" fill="#00d860"/><path d="M373.36 664.19c-.017-1.966-.207-18.422-.207-22.226 0-.91-.468-.728-.468 0v22.122c.215.04.505.078.675.104zM380.59 640.77l.812 23.46-.142.19-.47.006-.514-23.656h.314zM387.43 660.58c-.066-2.39-.366-13.448-.482-18.9-.015-.727-.448-.6-.44.026.046 4.39.307 16.672.355 18.887.17 0 .463-.017.567-.013z" transform="matrix(4.9436 0 0 4.944 -1482.9 -2891.1)" stroke-width=".125" stroke="#000" fill="#ff0"/><path fill="#fff" d="M376.6 644.67l-6.913-.104c-.39 1.403 1.352 1.377 2.002 1.013.752.57 1.324.52 1.74.05.598.495 1.35.365 1.663.053.832.624 1.69 0 1.507-1.013zM377.12 648.15l-7.07-.026c-1.22 1.17.365 1.74 1.717.935.182.39 1.013.623 1.663.31.598.47 1.35.13 1.74-.26.73.34 1.586.443 1.95-.96zM376.92 652.57l-6.81-.052c-.13 1.22 1.25 1.065 1.794.754.52.805 1.664.623 2.106.155.65.442 1.247.338 1.585-.078.754.65 1.377-.182 1.325-.78zM377.26 656.99l-7.614-.13c-.416 1.3.753 1.533 1.3 1.22.18.755 1.194.495 1.454-.05.39.39.884.18 1.118-.08.104.703.987.73 1.663.13 1.378.963 2.678-.155 2.08-1.09zM384.01 655.17l-6.34-.052c.285 1.3.908 1.637 1.922.883.754.78 2 .495 2.313.105 1.377 1.118 2.13-.182 2.105-.935zM383.36 650.83l-6.133-.182c.104 1.56 1.585 1.507 2.34.83.57.73 1.584.52 1.948 0 .78.78 2.053.313 1.845-.648zM384.17 645.94h-6.6c.077 1.09 1.532 1.715 2.65.676.31 1.247 1.507.857 2.027.363.753.96 2.494-.13 1.923-1.04zM383.78 642.62l-5.9.078c-.103.96 1.3 1.377 1.82.597.286.494 1.273.442 1.56-.026.467.727 1.04.233 1.22 0 .676.493 1.404.26 1.3-.65zM390.69 644.77l-7.225-.078c-.026.753.754 1.065 1.22.753 0 .728 1.015.962 1.665.39.442.624 1.74.806 2.26-.052 1.066.884 2.21.26 2.08-1.013zM390.59 650.7l-7.07-.026c.053.987 1.196 1.325 1.846.805.156.83 1.04.883 1.56.467.623.702 1.663.754 2.234-.026.858.313 1.508-.415 1.43-1.22zM390.22 656.03l-5.588-.078c0 .988 1.17 1.118 1.69.598.545.65 1.377.65 1.845.13.753.65 1.897.468 2.053-.65z" transform="matrix(4.9436 0 0 4.944 -1482.9 -2891.1)" stroke-width=".125" stroke="#000"/><path d="M381.26 664.42c-3.014.052-6.08.052-8.16-.26s-2.734-.604-4.158-1.455c-2.13-1.273-2.65-1.585-5.665-3.352-.462-.27-.963.065-.312.493 3.04 2 4.192 2.743 5.64 3.69 1.506.988 2.478 1.865 3.403 2.91 1.196 1.353 2.08 1.38 2.625 1.17s1.404-.493 2.26-.285c.86.21 2.002.235 2.6.13.546.495 1.793.39 2.495.235.7-.156 1.22-.234 1.715-.13s1.247.026 1.74-.052 1.794-.208 2.704-.078c.91.13 1.845.052 2.443-.13.597-.182 1.69-.13 2.053-.026.52-.39.78-.885.91-1.404.61-.078.813-.154.948-.507.248-.65.48-1.288.56-1.573h.246l.078-.585-.506-.585.182-1.117.545-.13c.026-.338-.13-.858-.234-1.066-3.273.13-6.483.234-8.782.286-.26.208-.546.754-.598 1.092-1.403.233-2.235.337-2.6.415s-.566.107-.856.494c-.468.625-.91 1.352-1.274 1.82z" transform="matrix(4.9436 0 0 4.944 -1482.9 -2891.1)" stroke-width=".125" stroke="#000"/><path d="M391.78 660.45c.16-.55.584-2.035 1.354-4.84.13-.468-.325-.653-.493-.052-.915 3.275-1.26 4.503-1.377 4.912.176-.003.428-.022.517-.02z" transform="matrix(4.9436 0 0 4.944 -1482.9 -2891.1)" stroke-width=".125" stroke="#000"/><path d="M396.85 654.96c-1.105.57-1.638.792-2.144.597-.466-.18-1.15-.28-1.552-.083a.523.523 0 0 1-.02.135 493.286 493.286 0 0 1-1.05 3.767c.82.29 2.228.328 2.557-.025.338-.364 1.26-.286 1.73-.26.298-.39.415-.87.337-1.105s-.052-.65.065-.974.273-1.378.078-2.053z" transform="matrix(4.9436 0 0 4.944 -1482.9 -2891.1)" stroke-width=".125" stroke="#000" fill="#fff"/><path d="M371.69 645.58c-1.222 3.534-5.458 11.46-8.014 14.014M365.64 660.75c2.9-2.244 10.236-9.528 11.483-12.594M370.11 652.52c-.337 2.677-1.11 7.452-1.526 9.973M371.24 658.48c-.987.962-2.387 2.64-3.427 3.55M380.54 653.14c-.83.805-1.78 1.744-2.61 1.978M381.02 653.27c.73.78 1.77 1.66 2.628 1.893M380.45 648.96c-.753.65-1.87 1.413-2.884 1.7M380.88 649.11c.65.546 1.342 1.342 2.173 1.706M377.72 645.94c.805-.234 2.004-.858 2.628-1.507M380.71 644.31c.705.805 2.056 1.455 2.732 1.637M377.88 642.7c.83-.182 1.86-.624 2.407-1.404M380.6 641.08c.7.598 1.933 1.462 2.738 1.54M386.53 643.41c-.45.468-1.556 1.31-2.257 1.296M386.99 643.37c.325.52 1.144 1.316 1.612 1.38M383.8 650.67c.91-.312 2.183-1.056 2.82-1.823M387.12 648.91c.266.48 1.28 1.565 1.852 1.786M384.88 655.95c.416-.09 1.547-.652 1.858-1.315M387.26 654.27c.43.533 1.48 1.507 2.13 1.74M370.58 656.87c1.273-.403 3.846-1.965 5.12-3.447M373.26 655.3c1.065.753 2.303 1.507 3.25 1.676M370.34 652.52c.702-.3 1.624-.81 2.34-1.55M373.22 650.87c.286.402 2.388 1.686 3.284 1.7M372.68 646.72c-.546.44-1.858 1.234-2.495 1.403M373.18 646.75c.728.506 2.167 1.4 3.154 1.4M372.68 642.66c-.585.662-1.572 1.685-2.39 1.92M373.15 642.81c.455.728 1.673 1.712 2.466 1.842M383.67 647.18c1.822 3.36 5.2 7.465 8.618 9.622M378.2 643.46c2.767 3.976 8.2 12.695 13.367 15.914M392.52 655.97a18.428 18.428 0 0 1-4.795 4.607M392.21 657.07c-1.74-2.78-2.64-6.295-3.943-10.924M374.15 658.51l2.144 5.9M373.75 658.37l1.896 6.017M373.34 658.09l1.76 6.262M373.16 658.19l1.36 6.128M374.47 664.1h1.7M375.95 663.46h-1.602M375.77 662.96h-1.546M375.59 662.46h-1.475M375.39 661.92h-1.404M373.89 661.44h1.332M373.79 661h1.264M373.68 660.52h1.202M373.59 660.09h1.134M373.49 659.65h1.078M373.4 659.24h1.02M373.3 658.86h.99M373.24 658.54h.923M371.57 658.55l-1.208 4.932M371.92 658.46l-1.037 5.21M372.2 658.27l-.84 5.55M372.56 658.16l-.61 5.803M372.68 663.63h-1.923M372.68 663.1h-2.225M372.68 662.55h-2.095M372.68 662.03h-1.965M372.68 661.5h-1.838M372.68 660.91h-1.692M372.68 660.4h-1.57M372.68 659.88h-1.436M372.68 659.38h-1.316M372.68 658.94h-1.212M372.68 658.59h-1.12M372.68 664.09v-5.88M379.15 656.27l-4.03 8.08M379.4 656.14l-3.43 8.254M379.65 656.05l-2.72 8.383M379.82 656.2l-2.116 8.238M377.8 664.06h-2.534M378 663.32h-2.36M378.11 662.72h-2.17M378.32 662.07h-2.053M378.42 661.55h-1.897M378.6 660.95h-1.787M378.78 660.25h-1.618M378.92 659.72h-1.488M379.07 659.11h-1.348M379.18 658.7h-1.247M379.28 658.31h-1.143M379.38 657.91h-1.053M379.47 657.56h-.968M379.56 657.21h-.887M379.66 656.85h-.8M379.74 656.52h-.72M382.36 656.4l1.763 5.58M382.7 656.52l2.14 5.355M383 656.53l2.505 5.237M386.11 661.32l-2.763-4.888M386.11 661.31h-2.192M385.73 660.65h-2.02M385.36 659.99h-1.85M384.98 659.32h-1.688M384.61 658.66h-1.53M384.23 658h-1.36M383.86 657.34h-1.194M383.48 656.67h-1.032M385.74 656.83l-1.725 5.173M386.26 656.6l-1.6 5.303M385.4 661.78l1.174-4.992M386.88 656.96l-.988 4.75M384.22 661.41h1.73M384.44 660.76h1.65M384.65 660.12h1.572M384.86 659.48h1.49M385.08 658.83h1.41M385.3 658.19h1.33M385.51 657.55h1.248M385.72 656.9h1.027M387.67 657.01l.846 3.547M387.98 656.84l1.17 3.697M388.38 656.83l1.275 3.702M388.9 657.03l1.277 3.477M390.06 660.2h-1.638M389.87 659.68h-1.556M389.68 659.16h-1.49M389.49 658.64h-1.43M389.29 658.12h-1.358M389.1 657.6h-1.284M388.91 657.08h-1.218" transform="matrix(4.9436 0 0 4.944 -1482.9 -2891.1)" stroke-width=".125" stroke="#000" fill="none"/><path d="M357.948 402.89c3.985-2.566 10.792-2.052 14.263.514 4.114-2.31 11.564-1.67 15.034 1.414 5.265-3.595 9.764-4.11 14.9-.643 3.985-2.823 10.15-3.08 14.905.257 4.62-2.185 9.763-3.98 14.256.77-2.694-1.927-8.478-3.598-14.257.9-4.5-4.498-12.335-2.827-14.906.258-3.342-3.985-10.406-4.627-14.648.257-4.622-3.856-11.558-3.985-15.285-1.028-2.956-2.315-7.32-4.238-14.262-2.7z" fill="#00b800"/><path d="M428.147 397.402c-20.427 3.53-64.944 1.028-74.707-1.414-3.357-.84-2.442-2.057.385-1.414 11.252 2.556 35.263 2.57 48.497 1.928 2.57-3.407 6.615-9.186 7.836-10.793s1.76-1.756 4.306-2.186c4.558-.77 7.163-1.187 11.113-1.864.064.514.064 1.157.064 1.542-.32.258-.642.707-.9.836 0 2.635.515 9.057 1.03 11.37.514-.063 1.156-.256 1.478-.32.9-.257 1.794 2.057.9 2.314z" fill="#cf6200"/><path d="M461.616 398.39c.736-.02 2.274-.054 2.7-.064.834-.02 2.006-.593 2.52-1.88s2.106-6.035 2.684-8.028l-2.056-3.1c.45-2.556 1.028-6.02 1.092-6.728 1.03-.386 2.116-.772 2.63-.964.13-.58-.123-2.15-.642-2.665-8.8.337-35.134 1.252-39.954 1.316-1.157 0-1.676-.05-2.116 1.607-2.442 9.12.934 21.92 10.15 29.293.642.514 1.452.084.38-.9-1.538-1.414-3.916-4.306-5.522-7.164 1.8-.03 5.447-.09 6.54-.133.524 2.16 2.165 6.718 2.487 7.49s1.11.88.735-.273c-.885-2.7-1.35-5.775-1.735-7.253 1.67-.04 4.82-.01 6.748-.12.094 2.444.35 5.717.415 6.617s.836.965.85-.064c.02-1.028.04-5.374.025-6.654 2.175-.06 4.954-.154 5.982-.154-.143 1.39-.41 5.884-.51 6.596-.147 1.048.4 1.542.658.064s.772-4.934.915-6.684c.87-.025 3.16-.12 4.123-.144-.094 1.37-1.38 5.533-1.765 6.625s.238 1.127.673.094c.455-1.06 1.864-5.237 1.993-6.73z" fill="#cf6200"/><path d="M432.448 397.352c-.707-1.414-2.892-6.442-3.084-10.1 1.863-.035 6.525-.124 8.774-.173.332 2.757 1.182 8.7 1.632 10.11-2.63.063-5.843.147-7.322.162zM439.666 387.02c.242 2.105 1.345 9.338 1.523 10.174 1.907-.114 6.326-.13 7.093-.193-.08-1.927-.39-9.16-.425-10.188-1.998.054-7.188.182-8.192.207zM429.73 378.07c-.357 1.85-.42 5.8-.322 7.486 2.25.044 7.786-.09 8.552-.153-.187-1.92-.49-5.39-.682-7.555-1.834.08-6.328.188-7.55.223zM438.924 377.823c.065 1.8.465 6.2.594 7.545 1.943-.054 6.698-.153 8.305-.208-.084-1.646-.346-6.95-.376-7.594-2.58.07-6.886.233-8.523.257zM449.108 377.527c.08 1.67.292 6.387.228 7.61 2.06-.056 6-.095 7.222-.194.094-1.676.366-6.467.238-7.688-2.314.09-6.002.212-7.688.272zM458.205 377.18c0 1.415-.178 6.383-.243 7.733 2.042-.08 6.68-.242 7.885-.272.322-1.655.964-5.956 1.157-7.77-1.928.063-7.39.27-8.8.31zM466.164 386.327c-2.635.084-6.872.198-8.306.252-.222 3.252-.627 8.874-.82 10.16 2.318-.05 7.005-.2 8.033-.228.772-1.543 2.443-6.358 2.83-7.837-.58-.9-1.03-1.414-1.736-2.348zM449.405 386.772c0 1.157.203 9.438.252 10.145 1.508-.05 5.423-.104 6.002-.168.29-3.224.73-9.4.81-10.17-2.67.073-5.29.152-7.065.192zM415.294 384.794l-3.347.594c-1.542 2.49-7.257 10.2-7.964 11.1 3.98-.115 10.204-.233 11.702-.377-.11-2.065-.386-10.292-.39-11.316zM416.777 384.498c.08 2.635.33 9.655.396 11.52 1.972-.114 5.606-.352 7.084-.48-.34-3.313-.964-11.223-1.093-12.187-1.656.302-4.91.876-6.387 1.148z"/><path d="M377.29 656.93c.09 0 .103.08 0 .078l-7.68-.095c-.103 0-.09-.08.002-.078l7.678.095zM383.33 650.78c.09.003.102.08-.002.078l-6.083-.167c-.104-.002-.09-.08.002-.077l6.083.167zM376.91 652.54c.09 0 .103.08 0 .078l-6.81-.05c-.103 0-.09-.078 0-.078l6.81.05zM377.11 648.12c.09 0 .104.078 0 .078l-7.12-.037c-.105 0-.09-.077 0-.076l7.12.036zM376.62 644.63c.09 0 .102.08 0 .078l-6.92-.104c-.104-.002-.09-.08 0-.078l6.92.104z" transform="matrix(4.9436 0 0 4.944 -1482.9 -2891.1)" stroke-width=".125" stroke="#000"/><path fill="#fff" d="M383.78 642.59c.09 0 .105.077 0 .078l-5.937.057c-.104 0-.092-.077 0-.078l5.937-.057z" transform="matrix(4.9436 0 0 4.944 -1482.9 -2891.1)" stroke-width=".125" stroke="#000"/><path d="M384.15 645.91c.09 0 .104.078 0 .078h-6.562c-.104 0-.09-.078 0-.078h6.562zM390.59 650.64c.09 0 .104.078 0 .078h-7.072c-.104 0-.09-.078 0-.078h7.072zM390.69 644.73c.09 0 .103.08 0 .078l-7.226-.07c-.104-.002-.09-.08 0-.08l7.226.072zM384.01 655.12c.09 0 .103.08 0 .078l-6.357-.042c-.104 0-.09-.08 0-.078l6.357.042zM390.22 655.98c.09 0 .103.08 0 .078l-5.588-.074c-.104 0-.09-.08.002-.078l5.586.074z" transform="matrix(4.9436 0 0 4.944 -1482.9 -2891.1)" stroke-width=".125" stroke="#000"/><path d="M395.26 657.05c.157-.35.18-1.15.09-1.455-.243.05-.448.038-.648-.04a2.973 2.973 0 0 0-.34-.106c-.023.4-.17 1.425-.35 1.82-.313.09-.946-.014-1.306-.127l-.262.942a3.45 3.45 0 0 0 1.452-.01c-.035.602-.114 1.15-.44 1.527.532.012 1.007-.066 1.18-.252a.403.403 0 0 1 .054-.048c.245-.41.252-.944.31-1.304.182.013.416-.04.52-.143s.273-.156.442-.143c.154.012.394-.02.7-.143.007-.185.043-.385.106-.56.034-.094.07-.252.102-.443-.387.185-1.25.494-1.61.483z" transform="matrix(4.9436 0 0 4.944 -1482.9 -2891.1)" stroke-width=".125" stroke="#000" fill="#ef072d"/><path d="M370.46 623.2c-.79.023-2.513.04-2.875.242-.36.204-.52.294.113.407s1.704.413 2.29.775c.588.36 1.08 1 .918 1.914-.485 2.742.95 5.38 3.027 6.375.2.096.25.17.204.542s-.18.995-.294 1.153c-.113.16-.17.42.192.294-.248.464-.802 1.39-.97 1.628-1.662-.203-3.017.023-3.142 1.763-.012.17.046.44.305.012.26-.43.554-.837 1.265-.95-.418.644-.553 1.22-.485 1.594.067.374.17.6.35.125a2.8 2.8 0 0 1 .87-1.187c.135-.1.226-.124.124.17s.045.927.25 1.142c.202.214.304.124.247-.226-.057-.35.03-1.084.462-1.312.62-.327 1.152-.158 1.4.272.25.43.464.022.193-.464s-.554-.825-1.006-.86c.395-.7.858-1.548.96-1.717.1-.17.26-.25.395-.147.136.102.226.09.362-.192.135-.283.372-1.12.71-1.458.17-.046.442-.113.543-.204.44.644.836 1.357.938 1.515.1.158.215.226.113.554s-.45 1.37-.507 1.595c-1.232.045-1.796.067-2.192.757-.172.3.103.418.397.26.293-.158.71-.294.926-.26.214.034.315.144.1.25-.755.372-1.228.846-1.196 1.502.01.237.11.355.294.034.26-.452.735-.904 1.31-1.03-.033.555.092 1.37.43 1.54.34.168.363-.004.237-.33-.203-.52.008-1.042.26-1.322.53-.588 1.74.226 1.966.43.226.203.432.288.305-.238-.17-.7-1.164-1.107-2.01-1.22.236-1.142.87-3.448 1.208-4.24.497.272.885-.443 1.717-.135 1.4.52 3.5 1.83 3.863 2.125.36.294.497.226.678.068.18-.158.497 0 .745.045.248.046.474.114.157-.52-.316-.632-1.084-1.74-2.372-2.6.768.07 1.808.07 1.808-.134 0-.204-1.198-.588-1.695-.633.475-.113 1.198-.385 1.536-.77.2-.226-.04-.28-.745-.293-2.17-.045-3.254-.028-4.384-.678-1.807-1.04-2.84-2.135-3.728-2.6-.474-.25-.763-.823-.946-1.32-.587-1.582-.558-2.294-1.936-2.814s-2.963.117-3.686.772z" transform="matrix(4.9436 0 0 4.944 -1482.9 -2891.1)" stroke-width=".125" stroke="#000"/><path d="M370.55 623.56c-.35-.013-1.04-.096-1.61-.04-.13.014-.287.08.025.118s1.156.246 1.455.35.17.26-.09.195-.357.03-.144.182c1.105.78 1.222 1.08.936 3.755.208.143.377.247.56.338s.13.22-.066.17-.377.064-.065.13.455.207.157.194c-.3-.013-.65.247-.065.182.584-.065.818.208.13.22-.69.014-.43.235-.065.235.65 0 .454.18.286.18-.17 0-.247.222.182.183.428-.04.597-.052.753-.026s.22.155-.013.17c-.234.01-.22.18.13.18s.497.106.182.17c-.13.025-.31.09.065.142.65.09.676.246.468.272s-.234.143.065.17c.298.025.558.116.312.18-.247.066-.377.21-.066.235.313.026.573.143.34.22s-.287.222.012.21.416.155.208.27c-.208.118-.35.196-.48-.01-.13-.21-.208-.274-.247-.118-.04.154-.13.05-.234-.183s-.287-.3-.235-.117-.182.208-.403.117c.82.83 2.027 1.585 3.95.805.164-.066.195 0 .325.273s.494.87.624 1.092.234.022.3-.195a98.1 98.1 0 0 1 .532-1.728c.078-.234.442-.468.325.35.286-.195 1.553-.38 2.534-.013 1.08.404 2.163 1.03 2.717 1.444.104.078.234.17.493.143.26-.026.325-.065-.17-.52-.492-.455-.284-.676.027-.455.312.22.48.09.247-.182s-.792-.805-.974-.935-.208-.182-.624-.208-1.3-.026-1.56-.026-.337.027.235.235c.572.207 1.742.96 2.002 1.143s.442.598-.13.234-2.365-1.48-3.56-1.897c-2.73.182-4.886.546-6.497-1.22-.772-.847-.806-2.782.493-3.588-.26-.22-.22-.35-.117-.403s.144-.104.04-.234c-.103-.13-.09-.246 0-.298-.285-.156-.415-.338-.402-.533-.35-.08-.507-.495-.975-.365s-.702.026-.844-.09c-.145-.118-.26-.17-.52-.144s-.47-.077-.482-.207.22-.193.572-.04c.74.326 1.338.482 1.793-.13.455-.61-.13-1.18-1-1.35-.87-.17-1.508.468-1.833.767z" transform="matrix(4.9436 0 0 4.944 -1482.9 -2891.1)" stroke-width=".125" stroke="#000" fill="#fff"/><path d="M374.92 623.33c-.262-.284-.728-.546-.96-.624-.235-.078-.26.156-.13.273-.105.155-.144.532.038.636s.184.252.013.337c-.26.13-.17.82.22.624.13-.065.235-.04.21.065s.025.234.142.26.104.195.078.26.013.09.143.104.143.325-.09.43c.285 0 .363-.053.44.18.08.234.39.286.39.572s-.05.338-.39.286-.467.052-.57.182-.13.26.13.273.31.13.05.246-.687.04-.752.286c-.064.246 0 .363.195.272.195-.09.598-.26.754-.35s.298-.104.428.104.026.44-.195.26c-.22-.182-.325-.014-.455.09s-.325.17-.533.17c-.207 0-.35.026-.324.493.08 1.405 1.17 2.444 3.17 2.418s2.99-.052 3.29-.013c-.664-.364-1.08-.56-1.314-.533s-.43.065-.325-.117-.012-.182-.116-.26-.233-.182-.44.04-.703.467-.95.52-.546.038-.312-.196.754-.313.91-.417.156-.168.156-.246-.04-.3.26-.13c.597.338 1.533.844 1.78.83s.416-.116.195-.26-.286-.35-.22-.427.103-.156.493.065c.39.22 1.026.506 1.26.61s.546.065.065-.286c-.48-.35-1.974-1.34-2.39-1.65s-.234.064-.195.18-.286.26-.455.118-.286-.3-.052-.43.286-.142-.065-.454c-.35-.31-.454-.285-.376-.026.078.26.104.546-.26.403s-.546-.31-.312-.454c.234-.142.533-.22.143-.545s-.273 0-.364.183-.39.182-.56.04-.246-.287-.13-.404.105-.183.274-.092.43.04.117-.234-.43-.156-.364 0-.18.43-.57.065c-.185-.173-.182-.404.013-.443.194-.04.213-.14.077-.338-.792-1.157-.467-2.093-1.26-2.95z" transform="matrix(4.9436 0 0 4.944 -1482.9 -2891.1)" stroke-width=".125" stroke="#000" fill="#fff"/><path d="M371.197 191.435c-.336.504-.46.484-1.082.9-.767.51-.94 1.967.346 1.794.89-.12 1.41-.65 1.76-1.08a11.137 11.137 0 0 0-1.023-1.615zM367.193 188.22c-.99.96-1.162 1.39-.658 1.39.6 0 .34.084-.09.77-.424.69.862 1.03 1.376.516s.6-.688.856 0c.208.558 1.053.03 1.587-.51-.875-.845-2.052-1.626-3.07-2.165zM365.413 193.758c-1.285.643-.85 4.054 1.088 3.085.643-.32 1.158-.193 1.03.322-.07.272-.026.583.118.83a5.956 5.956 0 0 0 2.13-1.537c1.202-1.37.084-1.286-1.71-1.286-1.8 0-2.314-.34-.603-1.37 1.532-.92.534-1.557-1.587-1.26.306.435.153.91-.465 1.216zM372.78 201.323c-.945-1.03-.347-1.543.68-2.057.253-.124.426-.282.55-.47-.292-1.132-.524-2.22-.83-3.278-.54.154-1.167 1.355-1.345 1.948-.257.856-.514 1.37-1.37 1.113-.76-.23-1.522.627-1.68 1.54.118.05.3.085.543.11.356.035.534.52.426 1.033 2.318-.074 2.714 1.528 3.11 2.625.43 1.202.943 1.03 1.285.347.34-.688-.432-1.884-1.37-2.912z" fill="#cf6200"/><path d="M373.422 214.77c-.42.95-.43.856-1.8.94-1.37.09-3.094.32-3.85 1.117-.41.425-2.78.54-2.784 1.582-.01 1.047 0 1.927 1.028 1.99 1.024.066 1.152.194.77.966-.39.77-.64 2.056 1.153 2.185 1.8.13 3.084-.45 3.534.574.45 1.03-.035 2.67.32 3.278s1.573 1 3.457 1.582c1.257.39 5.998.613 7.456.445 1.453-.174.91-1.044-.55-1.173-1.452-.128-2.525-.34-2.866-1.41-.34-1.07-.643-1.63.173-2.525.81-.9 1.626-1.587 1.157-3.085-.475-1.498-1.246-3.258-2.957-3.728-1.715-.47-1.17-2.814-2.872-3.04-.64-.085-1.195-.085-1.368.3z" fill="#ff0"/><path d="M365.117 228.712c1.473.13 2.758.58 1.542.9-1.222.32-1.865 1.028-.327 1.157 1.542.128 2.827.706 1.67 1.092s-1.413 1.092.065 1.028 2.056.77 1.028 1.345c-1.028.578-1.735.964-2.378-.06-.637-1.028-1.023-1.35-1.216-.578-.193.766-.643.257-1.157-.9s-1.414-1.478-1.156-.578-.9 1.027-1.994.577c1.078 1.093 2.29 2.156 3.668 3.056 1.577-.54 3.318-.1 3.91-.04.643.064 2.636.514 3.728 1.093s1.8-.45 1.35-1.607c-.45-1.153-.514-.767-1.093-.13-.58.643-.708-.257-.643-1.602.054-1.137-.707-.835-.964-.128s-.836-.45-.514-1.157-.066-.964-.644-.77-.643 0-.707-1.287-.644-1.092-.837-.578-.706-.193-1.478-1.22c-.672-.9-1.448-.372-2.793.162.168.1.475.183.935.222z" fill="#cf6200"/><path d="M380.738 236.672c-7.02 2.848-12.082 1.582-15.893-.944 1.577-.54 3.35-.08 3.945-.02.642.064 2.635.514 3.727 1.093s1.8-.45 1.35-1.606c.964 1.22 1.67 2.057 2.823 1.992 1.156-.064 3.084-.257 4.048-.514zM365.76 204.338c-.43-1.453-.856-1.8-1.627-1.71-.77.084-1.113-.09-1.973-.43-.855-.34-1.967.084-2.14 1.626s-1.113 2.314-2.398 3.253c-1.285.945-2.056 1.716-2.056 3.258s-.342 1.968-1.197 3.086c-.38.495-.92 1.06-1.425 1.652a17.98 17.98 0 0 0 1.617.914c.9.45.643 1.093-.32.836s-1.865.32-.323.643 2.244 1.028.77.964c-1.478-.065-3.213 1.22-.32.9 2.886-.323 4.043 1.027.642 1.09-3.406.066-2.12 1.158-.322 1.158 3.21 0 2.245.9 1.414.9-.835 0-1.22 1.093.9.9.03-.005.054-.01.09-.01.306-.317.533-.712.7-1.21.342-1.03.683-4.03 1.885-4.886 1.195-.855 1.798-2.057 1.798-2.912s1.795-4.623 2.996-5.567 1.715-2.996 1.285-4.455z" fill="#ff0"/><path d="M363.238 204.388c-1.216-.81-2.398-.34-2.398 1.2s-.77 1.97-1.8 2.483c-1.022.515-1.967 1.8-2.14 3.002-.168 1.197.173 1.968-.682 2.912-.86.94-.944 1.71-.34 2.225.597.513.597.602.854 1.368.257.772 1.71-.084 1.71-.94s.347-.854 1.286-1.368c.944-.515 2.487-3 2.14-3.684-.34-.687-1.196-1.285-.083-2.23 1.112-.94 2.313-1.028 2.313-1.967 0-.945.34-1.287.682-1.628.346-.346-.77-.86-1.542-1.374z" fill="#cf6200"/><path d="M363.238 203.152c-.8-.312-1.28 1.37-.168 1.626s1.285-1.2.168-1.626zM363.04 205.327c-.85.104-1.8 1.22-.385 1.03s1.992-1.223.385-1.03zM361.36 207.404c-.876.44-.708 1.606.578.77s1.606-1.863-.58-.77zM359.975 209.184c-.88.435-.707 1.6.58.77 1.284-.835 1.605-1.863-.58-.77z"/><path d="M358.196 210.024c-.876.44-.322 1.607.964.77s1.22-1.863-.964-.77zM359.283 211.112c-.875.44-.32 1.606.964.77s1.22-1.863-.964-.77z"/><path d="M357.75 211.557c-.874.44-.32 1.606.965.77s1.22-1.863-.964-.77zM358.74 212.793c-.88.44-.322 1.606.958.77 1.286-.835 1.22-1.863-.96-.77z"/><path d="M357.256 213.534c-.875.435-.32 1.602.964.767s1.22-1.858-.964-.766z"/><path d="M357.355 214.67c-.875.44-.32 1.608.964.773s1.22-1.864-.965-.772z"/><path d="M356.663 225.5c-.885.112-1.453 1.373-.34 1.63s1.368.34 1.368 1.197.347 2.056 1.544 2.14c1.2.09 2.23-1.285 1.2-1.71-1.027-.43-1.972-.77-2.056-1.716-.084-.938-1.028-1.625-1.715-1.54z" fill="#cf6200"/><path d="M388.203 218.132c.158.198.356.415.584.608.835.707 2.442 0 2.25-.578s-1.094-2.443.963-.9 9.442 6.427 11.82 8.158c2.378 1.735.835 1.928-.32 1.414s-4.307-1.93-6.23-3.016c-1.928-1.093-2.12-.707-2.442-.322-.272.322-.055 1.098.652 1.756-1.147.168-3.01-.085-3.544-1.306-.643-1.478-2.185-3.278-3.278-4.692-.405-.524-.524-.85-.455-1.122z" fill="#ff0"/><path d="M451.926 428.598c-1.602 1.093-3.722 3.02-2.313 5.716.168-.09.326-.193.49-.287 6.282-7.604 11.66-15.6 16.268-23.904.056-.287.105-.56.14-.796-1.8 1.542-4.627 3.08-5.784 3.465.77 2.057-2.823 4.756-4.75 5.528.77 1.285.513 3.213-1.158 3.6.386 1.15-.9 1.15-2.442 1.794s-2.314 1.156-2.823 1.928c.83-.45 1.988-.836 2.63-.643s.77 1.156-.385 1.413-1.923.9-2.314 1.414c1.67-.643 4.05-.32 2.442.77z" fill="#00d860"/><path d="M375.97 628.41c-.384-.335-.48-.13-.325.078s.04.312-.3.364-.844.117-1.052.117-.454.285.04.26c.493-.027 1.325-.196 1.546-.287s.4-.26.09-.533zM376.72 629c-.317-.285-.43-.208-.35 0s-.066.247-.273.312c-.208.065-1.027.338-1.378.377s-.43.285.09.272 1.52-.43 1.637-.507.156-.234.286-.156.247-.066-.013-.3zM376.96 629.83c-.23.137-.805.39-1.04.454s-.428.325.066.286c.493-.04 1.078-.494 1.234-.584.156-.09.234-.156.364-.143s.364-.17-.065-.403-.69-.117-.482.065.052.247-.078.325z" transform="matrix(4.9436 0 0 4.944 -1482.9 -2891.1)" stroke-width=".125" stroke="#000"/><path d="M360.618 190.446c-3.14-2.062-6.723 2.26-3.253 4.627 3.04 2.077 6.254-2.655 3.253-4.627z"/><path d="M356.712 192.324l.93.065c-.193.958.77 2.406 2.25 2.05-1.187.9-3.5-.128-3.18-2.116zM368.874 239.144c.95.277 4.246.613 5.363.668-.558 1.176-1.062 1.957-1.4 2.798-.335.835-.498.895-.557-.39-.055-1.29-.78-2.127-1.45-.787-.67 1.345-1.007 1.844-1.338 2.403-.337.56-.84.786-.673-.613s.113-2.853.054-4.08z" fill="#fff"/><path d="M399.67 640.77c-.046 16.332-2.623 33.927-23.764 42.308-21.142-8.38-23.72-25.976-23.765-42.308h47.53zM399.67 640.77c.018-6.152-.324-12.125-.168-17.36-7.9-3.534-18.295-4.26-23.596-4.26-5.302 0-15.697.726-23.597 4.26.155 5.235-.186 11.208-.17 17.36h47.53z" transform="matrix(4.9436 0 0 4.944 -1482.9 -2891.1)" stroke="#000" stroke-width=".25" fill="none"/></g></svg>