<svg xmlns="http://www.w3.org/2000/svg" height="512" width="512" version="1"><defs><clipPath id="a"><path fill-opacity=".67" d="M0 0h512v512H0z"/></clipPath></defs><g clip-path="url(#a)"><path fill="#006" d="M1023.99 511.95V-.033H-.008V511.95H1023.99z"/><path d="M-.008 85.267h107.986L-.008 31.077V-.03h61.784L212.834 75.27V-.03h85.06V75.27L448.953-.03h62.317v31.108l-108.52 54.19h108.52v85.364H402.75l108.52 54.19v31.12H448.95l-151.057-75.315v75.314h-85.06v-75.313L61.774 255.94H-.007v-31.12l107.986-54.188H-.008V85.267z" fill="#fff"/><path fill="#ce1126" d="M471.07-.034L300.415 85.324h40.85L511.26-.034h-40.19zM511.28 255.94l-170.174-85.31h41.03L511.28 235.6v20.34zM170.967 85.303L-.015-.055V20.33l129.772 64.973h41.21zM170.61 170.604L-.017 255.916h40.83l170.653-85.312H170.61z"/><path fill="#ce1126" d="M-.008 102.975h230.96V-.035h49.984v103.01H511.27v49.986H280.935v102.977h-49.984V152.96H-.008v-49.985z"/><path d="M399.67 640.77c-.046 16.332-2.623 33.927-23.764 42.308-21.142-8.38-23.72-25.976-23.765-42.308h47.53z" stroke-width="1.009" fill="#8fc5ff" transform="matrix(4.9 0 0 4.9 -1482.9 -2891.1)" stroke="#fff"/><path fill="#366cc9" d="M359.01 455.992c46.962-18.615 75.23-46.516 92.12-78.91-2.528.098-7.825-.053-10.114-.21-2.548-.167-99.328-9.888-110.79-14.093-9.97-3.656-48.014 3.106-65.77 9.45 16.566 34.458 45.26 64.22 94.554 83.762z" stroke="#000" stroke-width="4.9"/><path fill="#5d3100" d="M286.637 406.355c1.583-.514 4.606-.392 5.797-.176 1.4.253 1.656.38 2.165-1.148s1.656-1.147 2.547-.382 3.18.382 4.072-.892c.89-1.27 1.146-1.142 2.038-.255.892.892 1.274.637 2.166.382.89-.25 2.42-1.27 3.185-2.67s1.905-1.91 2.542-1.147 1.274 1.147 2.165 1.02 1.147.764 1.02 1.906c-.128 1.146.382 1.4 2.548-.378 1.91 1.906 2.543 1.142 2.543-.89 0-2.04-.505-9.552-1.27-10.57s-1.528-3.95-1.656-6.243c-.24-4.327-.254-4.582-5.478-7.257 0-1.53-.382-2.166-4.072-1.91.128-.51-.51-2.04-1.274-2.677s-.89-.892-.51-2.67c1.53.126 3.186-.13 4.078-1.403.886-1.274 3.817-1.02 5.6-.254s4.077.89 7.512.382c1.274-1.02 3.44-2.166 5.733-3.44 2.29-1.274 2.926-1.784 3.054-3.567.328-4.572-1.274-9.805-2.548-12.22-1.27-2.42-1.652-5.48-3.435-9.3-1.94-4.16-1.91-5.22-4.076-7.767-.593-.7-1.274-1.273-1.4-2.67-.13-1.4-.638-3.312-2.162-4.714-3.852-3.533-5.35-14.9-6.88-23.304-.877-4.817-.255-16.17-2.288-17.954-3.44-2.803-5.096-2.293-7.39-3.185-1.656-2.293-2.415-6.874-3.944-10.95-2.42.38-4.077 2.93-5.733 3.82s-1.91.893-1.91 3.186c0 2.287-1.275 5.472-3.563 9.04-2.293 3.562-6.115 2.547-9.296 7.893-7.007-8.53-7.134-10.95-7.644-13.372-.51-2.415-1.656-2.924-5.6-6.364 0-1.02-.51-5.09-.128-7.384-2.93-2.42-5.096-2.04-6.492-.255-1.402 1.783-2.42 4.454-4.587 5.473-1.298 1.65-5.213 5.816-8.418 10.775 2.915 44.316 12.916 88.308 42.987 123.49z" stroke-width=".6125" stroke="#000"/><path d="M475.483 248.673c.088-30.145-1.588-59.412-.823-85.06-38.71-17.32-89.646-20.883-115.62-20.883-25.98 0-76.916 3.562-115.626 20.884.765 25.647-.906 54.914-.823 85.06h232.893z" stroke-width="4.8020000000000005" stroke="#fff" fill="#ff0"/><path d="M248.858 283.56c1.274 2.04 3.567 5.543 3.822 7.45.892-1.848 1.593-2.67 1.784-3.818s1.528-3.376 1.02-4.586-.893-2.166.508-1.274c1.397.89 1.127 2.435.824 4.713-.824 6.238-3.435 7.512-3.817 11.716 3.757 8.85.954 12.036 5.026 20.694.637.382 2.337-.3 2.847-.172 2.16-1.528 3.778-.975 6.83-.338 3.058.637 4.714 2.798 4.714 4.71s0 2.42.637 3.566 1.91 2.93 1.656 4.205c-.254 1.27.255 2.033.637 2.67s-.127 2.04-.51 2.93-.254 2.04 1.275 3.95c1.53 1.906 5.09 9.932 5.09 14.64 0 4.715.256 6.88 2.167 7.767 1.91.892 2.547 1.657 2.292 3.695s.892 12.608 1.147 14.264.89 1.275 1.655 2.167c.76.887 1.27 1.906 3.817 1.906s5.008-.338 6.664-.083c2.293 3.185 3.694 7.51 4.204 10.187s.466 6.326 1.357 6.326 1.784.127 1.53-3.185-.51-3.822-1.657-5.474c-1.147-1.656-1.784-2.42-1.147-3.44s.765-2.675.51-3.95-.637-3.18 1.53-.636c2.165 2.548 2.802 3.185 3.44 4.077s.885 2.548.763 4.077c-.127 1.524.122 2.16 1.014 1.396.892-.76 2.04.51 1.53 2.166s.126 2.675 1.655 3.185 2.166.89 2.548 2.037 1.656 1.652 1.656-.637c0-2.293-.892-7.134-1.53-8.658-.636-1.53-1.146-4.84-1.273-6.752s-.51-2.416-1.402-2.798-1.656-1.02-1.783-1.91-.892-1.21-1.465-1.21-1.078-.447-1.397-1.084-.637-.7-1.274-.765-1.656.32-1.975-.7-.763-2.485-1.4-3.313-1.21-1.083-1.274-3.944c-.064-2.867-.127-3.25-1.02-4.268s-2.42-3.69-3.057-4.837c-.633-1.145-1.27-2.292-1.27.13 0 2.415 0 3.69 1.524 4.58 1.53.892 1.91.892 1.274 2.166s0 2.166.255 3.058.764 1.783 0 2.67c-.765.892-1.53.637-1.402-.76.13-1.4-.38-3.057-1.013-4.203-.637-1.146-1.147-1.91-1.91-1.273s-1.402-.128-.893-.637.382-.892 0-1.274-.51-.765.128-1.53.637-1.146.254-2.925c-.382-1.782-3.185-10.695-4.46-12.734s-1.145-3.567.51-1.528 3.06 3.822 3.186 5.473c.127 1.657.51 2.676 1.02 3.313s.89.383 1.146-1.02 1.274-.89-.51-3.56c-1.783-2.677-5.096-7.136-6.37-15.157s-1.783-13.372-3.057-15.533c-1.268-2.166-1.65-2.675-1.778-4.714s0-4.077-.892-5.6c-.892-1.53-1.53-1.785-1.656.508-.127 2.288.127 7.384.764 8.276s.255 3.18.128 4.454-2.132 2.534 2.038 5.096c1.656 1.02 1.397 2.42 1.147 3.313-.254.887-.51.76-1.4-.637-.892-1.402-1.784-2.548-2.676-3.313s-1.02-1.274-.892-3.057.51-3.058 0-3.69c-.51-.637-.764-.127-1.02.887-.254 1.02-.51 3.822-1.018 4.586s-.765.255-1.147-1.4.128-4.2 1.02-7.13 1.4-5.988.636-9.805c-.764-3.822-.382-4.97-3.312-8.15-2.924-3.184-6.237-6.242-7.638-10.186-1.402-3.95-1.656-7.39-3.185-9.173-1.524-1.78-3.69-4.073-5.09-4.71v-5.855c0-1.402-.638-2.294-2.294-2.04s-2.676 1.657-3.69 3.563c-1.02 1.91-1.784 1.02-3.185 4.332s-3.44 4.964-3.44 8.53z" fill="#cf6200"/><path d="M258.07 320.9c1.02.636 1.994 1.062 3.523.298s3.357-2.97 5.395-.804c2.034 2.16 3.18 5.728 3.18 8.53 0 2.8 0 8.023 3.185 10.953 3.185 2.925 4.836 5.983 4.964 9.805.127 3.817 1.53 9.677 1.91 11.206.383 1.524 1.275 3.307 2.294 4.327s1.785 3.95 1.912 7.002c.127 3.057-.382 5.223 0 6.752s0 2.802-1.147 2.037-1.4-1.146-2.038-2.42-1.4-1.02-.764.892 2.548 3.688 4.204 3.688 2.166.255 3.185 1.274c1.014 1.02 1.142 1.53 2.925 1.53s2.04 0 3.695.51 1.656.253 2.548 0 1.778.508 2.415 2.164 2.166 6.238 2.166 7.512 0 2.548.893 3.822.637 2.548-.382 1.784-1.018-.51-1.783-.382-1.274-.255-2.288-.892c-1.02-.637-.383-.51-1.402-2.04s-1.657-2.037-1.657-.89-.126 2.548-.89 1.91-1.147-.636-1.784 0-.892 1.147-1.656-.127-1.656-1.274-2.42-1.53-.765-.253-1.143-1.4c-.382-1.147-1.528-1.4-2.548-1.4s-1.53-.51-1.657-1.275c-.127-.76-.764-1.27-1.274-1.652s-.256-1.274-.383-2.166-.892-.51-1.4-.764-.893-.127-.893-1.4-.51-1.658-.892-2.55c-.377-.89 0-1.783.255-2.797.255-1.02.127-1.657-.632-2.55-.765-.89-.128-1.783-2.166-3.566s-3.06-.255-3.696-4.455c-.637-4.205-1.91-12.863-3.057-14.264s-1.906-2.42-3.053-2.803-1.91-.128-2.038-2.548c-.128-2.416-.892-5.474-2.42-7.002s-2.167-2.04-2.93-2.676-1.02-1.783 0-3.944c1.018-2.166.636-5.096.508-6.498-.127-1.396-.51-3.18-.254-4.71s.127-3.438-.255-4.458-.892-1.274-.255-2.038zM288.744 284.688c-1.725 2.22-3.562 4.077-5.94 5.772-2.375 1.7-5.433 3.058-3.737 5.944 1.7 2.886 3.057 3.23 3.395 5.434.343 2.205.853 4.077 2.548 4.586 1.7.505 2.377.167 2.377 3.734s0 4.925 1.53 6.282 1.356 2.715 2.037 5.944c.676 3.224.676 10.187 2.715 14.94s6.623 13.754 6.114 15.62-1.19 3.225.847 5.43c2.04 2.21 3.397 5.434 3.57 7.3.165 1.873.508 2.55 2.542 1.873 2.038-.68 3.057-1.362 3.738-2.21.677-.848 2.034-.676 3.906.338 1.867 1.02 4.753 2.04 6.448 1.02 1.7-1.02 2.548-2.544 4.077-2.544 2.377-1.7 3.225-5.266 3.735-6.28.51-1.02.17-1.02-.848-2.04s-.51-2.718-.68-4.414c-.168-1.7-.85-4.243-2.887-7.982-2.034-3.734-3.224-8.32-4.582-9.506-1.357-1.19-2.038-4.077-2.21-5.434-.166-1.357-1.695-2.548-2.714-3.567-1.02-1.014-2.04-2.543-3.224-8.487-1.19-5.944-2.04-10.187-2.04-11.206s-.17-1.19-1.19-1.53-1.528-2.037-1.185-2.885c.338-.85-.343-1.697-.68-2.716s0-2.886.68-3.905c.676-1.02.51-3.906-.172-6.283s-1.357-4.415-4.077-4.758c-2.714-.34-3.224-1.015-4.243-3.225-1.02-2.205-2.038-6.11-2.376-6.963-.34-.848-.848-1.02-2.887.68-2.038 1.697-2.714 2.26-2.714 5.435 0 2.04.338 2.715 1.014 3.906.68 1.185.853 1.528 1.362 4.753s3.396 8.32-.343 11.206c-3.734 2.886-3.225 3.567-3.053 5.6.166 2.04-1.02 3.396-1.7.51-.677-2.886 0-4.58 2.038-5.94 2.038-1.36 3.905-3.056 2.548-4.923-1.362-1.868-1.867-6.283-2.04-8.32s-.508-2.72-1.7-1.192z" fill="#cf6200"/><path d="M258.462 327.955c-.093 1.382.216 2.9.323 4.12.128 1.402.51 4.333-.51 6.498-1.018 2.16-.764 3.308 0 3.945.045.034.084.068.123.103 2.078-.695 2.347-3.013 1.79-4.135-.594-1.186-.423-2.63.254-3.817.68-1.19.68-1.867.088-2.72-.598-.847-.598-.847.083-3.224.598-2.092-.91-2.077-2.15-.77zM280.218 360.883c-.382-1.53-1.784-7.39-1.91-11.206-.128-3.822-1.78-6.88-4.965-9.805-2.484-2.288-3.028-5.963-3.145-8.8-1.867-1.142-2.656-.623-2.5 1.5.167 2.287 2.46 3.395 2.122 6.702-.338 3.312-.338 2.465 1.274 4.077s2.205 3.142 1.358 3.823c-.848.676-.936 1.867.254 2.288 1.186.427 1.274 1.7 1.103 2.887-.173 1.19.935 1.446 1.61 2.293.682.848.765 2.887.09 4.077-.682 1.186-.765 3.053.42 2.04 1.19-1.02 1.7-.09 2.632 1.523.808 1.39 1.484.955 2.362.534-.304-.642-.55-1.31-.706-1.93zM296.78 390.528c-.764 1.53-1.656 1.02-2.42.255s-1.657-.765-1.275-2.166.255-1.656-.764-2.42c-.117-.09-.234-.167-.352-.246-.318-.008-.69-.008-1.176-.008-1.783 0-1.91-.51-2.925-1.53-.23-.225-.43-.41-.627-.568-.02.245-.01.57-.01.95 0 1.402 0 1.148-1.402 1.53s-1.146-1.402-1.4-2.548c-.07-.294-.148-.51-.22-.686-1.535-.294-3.152-1.91-3.73-3.64-.637-1.912.127-2.167.764-.893s.892 1.657 2.038 2.42 1.53-.51 1.147-2.037c-.122-.49-.152-1.06-.137-1.69-.275-.496-.647-.898-1.137-1.113-2.038-.892-1.4-1.147-1.274-2.803.126-1.65-.256-1.65-1.53-.764-1.274.89-1.4-.128-1.4-2.67 0-2.55-1.657-2.55-2.035-.765-.382 1.783-1.02.637-1.783-1.91s-1.784-3.186-1.91-.766c-.11 2.047-.677 2.537-2.01 1.4.235 1.48.44 2.862.607 3.95.636 4.2 1.656 2.67 3.694 4.454s1.4 2.676 2.166 3.567c.76.893.887 1.53.632 2.55-.255 1.014-.632 1.905-.255 2.797.382.892.892 1.274.892 2.548s.38 1.147.89 1.402c.32.156.73.068 1.03.196.328-.432.627-.96 1.01-1.343 1.528-1.53 3.82.127 4.585 2.038s1.652 2.42 2.798.892.765-1.274 2.04.128 1.782 1.146 1.782 1.146 1.274-.51 2.166.255 1.403.636 3.054-1.785c1.656-2.42-.76-1.656-1.524-.127zM301.288 320.654c.505-3.734.167-7.468 1.695-8.83 1.53-1.357 3.396-4.072 3.225 1.7-.167 5.773-.34 5.435-1.524 6.792-1.19 1.357-2.21 1.695-1.02 3.905 1.186 2.206 1.358 2.378 1.186 5.773-.166 3.396-.166 4.753 1.19 6.454 1.358 1.695 1.696 1.867 2.04 3.734.337 1.867 1.523 4.415 3.052 5.773s3.23 5.262 3.396 7.982c.17 2.714 2.548 3.396 4.753 5.262 2.21 1.867-.504 3.225-2.204 2.377-1.696-.848-1.02 0-2.04 1.186-1.018 1.19-1.356 1.362-2.204-.676s-3.738-3.396-5.096-3.906-2.543-2.72-3.733-4.924c-1.02-1.897-3.038-3.283-4.88-3.425.51 1.43.783 2.552.636 3.086-.51 1.867-1.192 3.224.847 5.43 2.038 2.21 3.396 5.433 3.567 7.3.167 1.872.51 2.548 2.543 1.872 2.04-.68 3.058-1.363 3.74-2.21.675-.848 2.032-.676 3.904.338 1.868 1.02 4.754 2.038 6.45 1.02 1.7-1.02 2.548-2.544 4.076-2.544 2.377-1.7 3.225-5.268 3.734-6.282.51-1.02.172-1.02-.848-2.038s-.51-2.72-.68-4.415c-.167-1.7-.848-4.244-2.887-7.982-2.033-3.734-3.224-8.32-4.58-9.506-1.36-1.192-2.04-4.078-2.21-5.435-.168-1.358-1.697-2.548-2.716-3.568-1.02-1.014-2.04-2.543-3.225-8.486-.93-4.645-1.65-8.246-1.92-10.088-1.22 1.945-2.054 2.42-2.495 1.087-.51-1.525-1.19-2.377-1.867-1.358-.68 1.02-.852-.848-.852-1.695 0-.853-.166-1.02-1.02-1.02-.846 0-.165-1.357-.508-3.905-.338-2.548-.848-2.886-1.186.172-.338 3.052-2.038 4.92-1.357 5.6.675.68.337 2.04-.344 4.077-.676 2.035-.338 3.225.17 4.583s-.337 3.905-.68 6.115c-.338 2.205 1.362 4.41 1.872.676zM270.27 290.176c-1.258.093-2.12 1.196-1.4 5.052.45 2.386-1.358 1.867-2.034.676-.68-1.186-1.19-3.734-2.548-5.944-1.362-2.205-.68 1.53-.848 3.568-.17 2.038 1.186 2.038 2.377 3.733 1.186 1.702.167 2.383-1.19 2.383s-.677 2.714-.34 4.58-.337 2.21-1.36.682c-1.015-1.528-.34-3.905-.168-6.79.166-2.887.337-2.21-1.53-2.887-1.866-.68-1.528-1.02-.847-2.72.676-1.695 1.357-2.548.51-3.395-.853-.848-.682-1.358.676-1.53 1.356-.166.85-1.185 2.037-1.528 1.19-.338 1.7.172 1.867-2.033.142-1.843.76-2.975 2.14-2.416.834 2.837 1.917 7.252 2.657 8.57zM287.372 310.168c0 3.567 0 4.925 1.53 6.282s1.356 2.714 2.037 5.944c.675 3.224.675 10.187 2.714 14.94.607 1.416 1.445 3.214 2.303 5.086 1.127-.887 2.107-2.41 2.455-3.22.504-1.19-1.02-3.567-2.21-5.6-1.186-2.04.17-2.72 1.357-5.268 1.19-2.543-.168-2.714-2.034-3.395-1.872-.677-1.872-2.377-2.89-5.09s-.85-3.907-.168-5.436c.676-1.527.167-2.713-1.19-3.056-1.358-.338-1.02-1.357-.51-3.053.51-1.7.847-2.037-1.186-1.528-1.544.383-1.916.672-2.377 1.23.113.49.167 1.17.167 2.166z" fill="#00b800"/><path fill="#5d3100" d="M306.923 317.273c-.186 2.038-.172 3.058-.68 3.734-.506.68-.168 1.7.342 2.72s.848 2.376.338 4.243.338 3.395 1.357 3.905 1.53 0 1.19 2.377c-.342 2.376 1.02 4.924 2.206 5.943 1.19 1.02 2.038 2.715 1.867 3.734-.167 1.018.852 2.037 2.038 2.547 1.192.51 1.02.68 1.02 1.357 0 .68.51.68 1.867 1.02s2.377 1.19 3.906 3.057 3.734 2.887 3.395.85 0-3.397-2.038-4.416c-2.034-1.02-3.562-5.944-4.415-9.34-.848-3.395-3.562-7.977-5.09-8.824-.173-2.382.17-3.568-1.358-4.758-1.53-1.186-2.04-2.715-2.04-3.906 0-1.185-.846-2.714-1.528-3.052-.677-.343-1.02-1.19-1.02-2.21s-1.186-.848-1.357 1.02z"/><path d="M297.907 408.364c3.053-.255 11.334-2.675 12.22-3.44 2.04 1.402 5.606 3.313 7.135 3.313-2.93.637-4.84.254-5.606-.255.383.892 1.402 2.293 2.04 2.42-2.804-.127-5.984-.764-7.003-1.783-2.42 1.018-6.498 1.273-8.786-.256zM303.395 412.186c1.083.32 6.493 1.21 7.193 1.21-1.783 1.524-.255 2.99 2.74 2.735-1.466.192-3.063.745-1.975.956 2.61.51 9.677-1.4 11.078-2.166-2.42 3.122-14.194 5.988-19.035-2.734zM308.246 419.928c1.46-.764 5.09-.51 6.81.32-1.91.7-5.663.7-6.81-.32z" fill="#00d860"/><path d="M313.685 419.83c2.612-.446 9.996 1.338 12.608-.255-.892 2.357-5.542 2.676-7.135 2.166-1.587-.51-3.116-1.146-4.2-1.082.574-.318-.38-.382-1.273-.828z"/><path d="M316.38 423.456c1.975.314 9.04-.573 11.206-1.4 2.29.763 6.81 1.968 7.83 1.84-2.165 1.34-6.306.574-7.64 0-3.82 1.275-6.942 1.657-11.396-.44z" fill="#00d860"/><path d="M319.76 424.632c2.828.637 5.24.18 8.022-.75.868.373 2.91.828 4.832.735 1.28.73 2.998 1.75 4.655 1.877-1.72.7-8.028 0-9.297-.7-3.185.063-8.663.764-9.996 1.847-.063-.89.515-2.13 1.784-3.008z" fill="#00d860"/><path d="M316.38 410.275c2.205.735 10.187.382 14.26-1.53 1.606-.753 2.6.51.763 1.148-6.62 2.293-11.843 3.185-15.66 1.146-1.51-.804-1.656-1.53.637-.765z"/><path d="M355.482 399.446c-9.805 4.582-16.302 5.983-29.924 1.784-1.27-.392-2.166 0-.765.89 1.402.888 8.913 2.927 10.697 3.054s1.147.956.064 1.274-1.402 1.083.063.51 9.648-.79 12.99.955c1.46.765 1.843.637 1.715.064s.637-.956 1.72-1.083 1.72-.51.892-.828-.956-.51-.32-.828.702-.637-.253-.828-1.592-.446-.7-.892c.892-.44 2.23-.764 3.25-.887.253-.7-.192-2.547.572-3.184z" fill="#00d860"/><path d="M339.165 400.622c5.606.397 15.92-2.166 21.398-7.512 1.906 1.142 4.582 2.416 5.983 2.67s2.676 1.53.51 1.53-5.224-.892-6.62-1.53c-7.262 4.46-15.758 5.925-21.144 5.48-1.523-.128-1.906-.765-.127-.638z"/><path d="M322.603 370.046c1.91 1.338 5.287 3.562 9.678 3.244 2.166 1.72 5.542 3.185 7.07 3.503-2.93 1.21-6.114 2.23-6.942 3.185-1.338-1.274-3.053-1.083-3.5-1.72-1.273 1.02-1.082 1.657-.253 2.166s7.256 1.593 8.85 1.147 2.018.873.7 1.334c-3.44 1.21-10.124.063-12.417-3.626-2.293-3.695-4.268-5.096-10.506-1.72-.7-1.784-.7-2.23-1.91-2.23s-3.44-1.592-1.72-1.53 6.815-.7 10.95-3.752z" fill="#00d860"/><path d="M324.122 378.23c-1.063.264-4.077 1.91-5.155 2.037-1.083.128-2.994 1.657-1.02 1.72 1.97.064 4.52-2.102 5.92-2.293s1.53-1.783.255-1.465zM330.296 384.697c-.755.132-4.008.892-4.9.828s-1.784.19-1.72.828.32 1.02-1.02.892-2.483.382-2.802.764-.573.764.765.89 2.037.256 3.566-.445 2.994-1.783 4.65-1.847c1.65-.064 3.307-2.23 1.46-1.91z" fill="#00d860"/><path d="M325.74 388.617c1.39.902 8.275 3.25 10.76 3.058s2.018.994.127 1.4c-3.886.824-8.63-.866-11.843-3.44-1.593-1.273-.128-1.72.955-1.018z"/><path d="M358.324 391.998c-5.267 1.68-10.633 1.083-12.8.51s-4.14-.7-2.674.7c1.465 1.397 6.18 2.352 8.85 1.652-9.487 2.165-11.97 1.974-14.323 1.592-2.357-.382-6.782-.3-8.66-.127-1.4.127-3.31-.064-4.14-.574s-1.082-1.464 1.402-1.21c2.48.256 2.802-.254.636-.572s-5.16.573-2.23 2.42 9.36-.127 13.436 1.02c4.072 1.146 12.73 1.974 20.948-4.65.42-.34 1.147-1.27-.446-.76zM332.452 384.256c.19.637.19 1.338 0 1.784s-.19 1.02.637.382 1.337-1.402 2.165-.956 2.93.383 3.88.255c.96-.126 1.275-.317-.122-.89-1.4-.574-2.803-.765-3.567-.7s-1.72-.13-2.357-.384-.83-.127-.638.51z" fill="#00d860"/><path d="M346.025 386.706c-1.083.064-2.994-.637-4.013-1.083s-2.48-.51-1.397.956c1.078 1.464 5.792 2.292 7.448 1.59s.956-1.464 2.607-.445c1.656 1.02 3.376 1.72 4.587 1.72s1.656 0 .318-.764-1.975-.955-2.102-1.592-.318-1.02.892-.637 2.612 1.084 3.567.575 2.734-1.657 4.327-1.657l.38-.955c-2.292-.19-3.752.51-4.39.764s-1.783.382-2.993.19-2.803-.317-3.185-.636-.383-.572.637-.763 1.336-.892-.065-.637-5.155.127-7.13-.51c-1.974-.632-2.802-.695-3.63-.382-.83.32-.7 1.21.51 1.274s3.95.32 4.904 1.21.827.956-.256.51-3.057-.19-1.02 1.274z" fill="#00d860"/><path d="M362.636 384.403l-.382.956c2.357-.065 8.09.508 9.932 1.655 1.784-1.402 1.465-1.848 2.74-1.593s2.866.7 3.566.32 1.21-.32 1.975-.192c.76.127 2.416-.19 3.37-.765s2.93-1.337 4.078-1.337 2.543-.255.446-.574c-2.1-.318-5.286.32-6.37.7-1.077.383-4.326.638-6.237.638s-4.518.955-6.683.382-5.16-.19-6.434-.19z" fill="#00d860"/><path d="M392.134 383.276c-3.817 2.803-8.403 3.44-13.877 3.822-1.592.113-1.102.564.255.7 5.728.574 12.353-1.528 14.514-3.82.627-.663.558-1.76-.892-.702z"/><path d="M366.115 389.793c1.656.064 7.384 1.53 9.232 2.166 1.4-.13 1.783-.447 1.528-.957s-.445-1.083 2.103-.955c2.543.127 8.403.064 9.486.064.892-.383 2.862-1.91 3.753-1.975-2.288.127-11.838.637-13.048.51s-1.85 0-2.613.445-1.21.637-2.166.255-2.674-.892-3.625-.318c-.955.572-2.93.062-4.65.763z" fill="#00d860"/><path d="M388.46 390.087c.89-.382 2.86-1.91 3.752-1.975 1.657-.127 3.568.574 4.46.7s1.847-.063 1.21-.763-.064-1.912 2.548-1.594c2.607.32 3.944.765 6.492.51s3.695 1.656 8.53-.255c-.38 1.912.51 2.04 1.403 1.657s1.91-.255 3.44.892 10.823 1.273 12.99.89c2.16-.38 3.307.765 1.65 1.275-1.65.51-2.038 1.274-1.65 1.783.377.505.76 1.142-1.275.887-2.038-.255-2.42.382-3.44 1.147s-1.274 1.02-4.076.51c-2.798-.51-3.308-.128-4.837.127s-1.91.254-3.44-.256-4.836-1.02-6.874-.382-3.567 1.274-5.35.764-1.912-.255-.765-1.4 1.4-1.02 3.567-1.275c2.166-.25 3.822-.886 2.293-1.778s-2.038-.764-4.077.255-3.056 1.65-5.345.382c-2.293-1.275-3.44-1.02-4.968-.638s-4.072-.51-6.238-1.465zM396.103 393.91c-2.915.416-3.7-1.46-6.747-1.08-1.02.128-2.74 1.398-.382 1.206 2.352-.19 4.9 1.083 7.193.892s1.274-1.21-.064-1.02zM392.722 396.114c1.534-.56 4.714.51 6.052.255s2.61.572 1.21 1.018-4.778-.828-6.307-.382-3.052-.128-.955-.892zM362.293 404.346c2.102.07 9.678-.255 12.67-6.62.232-.49.447-.7 1.403-.064s4.46 2.74 11.015 3.313c1.84.162 3.823 1.083.128.828s-9.55-1.274-11.524-2.484c-3.313 5.217-9.26 5.835-13.69 5.727-2.67-.064-2.034-.765 0-.7z" fill="#00d860"/><path d="M378.66 395.673c-1.02 1.4-4.524 3.822-6.116 3.95-1.588.127-6.365-.32-7.576-.765s-2.675-.318-.955.892 5.988 2.038 7.703 1.656c1.72-.382 3.694-.955 5.032-.127s3.822 2.414 5.282 2.096c1.465-.314 4.46-.314 5.415.127.955.446 2.61 1.784.127 1.02s-4.523-.128-5.67-.638c1.275 1.784 4.166 4.65 6.626 4.65.573 0 .955 1.02-.255 1.593 1.21.573 4.008 1.02 5.473-.318-.382.51-.19.828.446 1.146s1.4.765.255.892-3.754.446-4.518.127c2.478 1.588 8.912 4.136 15.468 2.862 1.25-.24 1.91-.76-.127-.7-4.203.127-4.453.063-5.218-.378-.764-.452-.637-.83.574-1.21 1.205-.384 4.263-.83 5.537-.83s2.548-.51-.064-.51-5.793 0-7.067-.445-2.23-1.02-.892-1.91 2.74-.638 3.378-1.466c-4.205-.065-9.364-2.294-6.498-4.328.667-.475.446-.51-.637-.637s-4.263-1.02-5.6-1.783-.447-1.402.636-1.593c-2.485.445-7.454-.893-10.76-3.377zM415.997 395.575c-2.293 1.72-6.62 2.42-8.467 2.42s-2.102.638-.637.83 3.057.38 3.694.19 1.02-.255 1.97.19c.956.447 2.994.702 4.778.128s4.71-.828 5.92-.764 2.547.126.126-.574c-2.414-.7-6.364-.19-7.32.063s-3.567.063-2.165-.383 2.612-1.146 3.312-1.72c-.51-.127-.828-.255-1.21-.382zM414.82 400.524c-1.974 1.465-4.835 2.862-7.765 2.99 2.675.955 4.904 3.694 6.62 3.566-.83.51-1.843 1.274-2.926 1.402 1.655.446 4.453-.064 6.746-1.338 3.822 1.083 8.786.382 10.442-1.02-2.484 0-5.473-.89-6.81-2.038 1.21 0 2.35-.764 2.925-1.46-2.862.505-7.767-.892-9.232-2.102z" fill="#00d860"/><path d="M410.754 408.51c1.083-.126 2.097-.89 2.925-1.4-2.098.7-11.27-.765-14.005-3.185-2.74-2.416-2.74-.574-.828 1.146s5.282 4.333 11.907 3.44zM417.467 414.342c-1.147.637-6.62 1.02-8.404.637s-2.548-.192-2.102.51.638 1.336-.827 1.145-4.077.128-5.155.51c-1.082.382-2.42 1.338-.127.955 2.29-.382 4.39-.828 6.11-.382s7.832.573 9.042.064.382-.51-.19-.51-.83-.382 0-.764 1.464-1.465 1.655-2.166zM364.498 406.943c-2.293 1.02-9.932 3.058-11.97 3.185-2.55 1.147-4.582 1.784-5.856 1.784.892.764 4.326 1.524 5.728 1.146-.764.76-2.543 1.652-3.18 2.034 2.033-.255 4.454.255 5.473.382-2.675 1.53-6.365 2.038-8.276 1.784.637.89 1.53 1.783 2.675 1.783-2.42.638-5.35.638-6.88.13.638 1.273 1.275 2.037 2.167 2.164-2.04.255-4.588.637-6.75-.637 1.653 2.166 5.347 2.926 10.825 2.294 5.474-.636 10.06-3.057 11.334-4.076-2.294.255-5.352.382-6.88.127 3.057-.763 9.677-3.566 10.824-4.713-1.274 0-2.543-.382-3.44-1.02 1.783.256 8.026-.504 9.937-1.268-2.292-.51-3.694-1.912-4.33-2.804 8.02 2.548 16.95 1.715 21.265.637 1.02-.255 1.142-1.548-.89-1.4-3.57.254-10.443-.766-12.227-1.657 1.656 1.274 3.695 2.038 5.096 2.293-3.312.89-7.894 1.528-14.646-2.167z" fill="#00d860"/><path d="M349.21 415.126c.637-.382 2.416-1.274 3.18-2.033-1.4.377-4.836-.383-5.728-1.147 1.274 0 3.308-.637 5.856-1.784-4.582-.127-7.767-.127-9.423-1.02s-4.71-.636-5.856-.38-.765 2.165 4.07 1.655c-2.037 1.402-7.51 1.91-9.55 1.402.51 1.65.893 3.306.383 4.198 2.676 1.53 9.678 3.44 13.118 3.185-3.057-1.147-4.713-2.42-2.165-2.676s3.95-.764 6.115-1.4z" fill="#00d860"/><path d="M341.32 423.407c6.097-.51 14.26-.617 20.757-6.115 1.657-1.402 2.77-.93 1.147.51-3.435 3.057-11.97 7.256-20.12 7.384-3.317.054-4.836-1.53-1.783-1.78z"/><path d="M386.99 413.313c-1.53.573-5.798 1.274-7.067 1.083-1.274-.19-3.12-.255-4.14.382s-1.083 1.02.318 1.147 3.186.255 4.078.19c-1.147.638-1.91 1.53-2.166 1.912 2.04-.51 5.792.382 6.875 1.02-.828.254-1.784-.065-2.484-.447 3.44 3.63 13.626 3.63 15.283 2.994-.765.573-1.465 1.147-2.23 1.338 2.867.51 6.174.446 9.423-1.465-1.084.19-4.328-.128-5.156-.19.637-.638 1.588-1.212 2.48-1.467-1.27-.254-5.283-.127-6.238.383.382-.765 1.083-1.72 1.847-2.04-5.032 0-11.142-.062-13.372-1.273 3.568.382 7.518-1.72 9.17-1.72-2.8-.063-5.857-.7-6.62-1.847zM374.2 416.106c-2.484.51-6.238 1.53-7.257 2.102s-2.102.892.128.892 8.277.255 9.614.446c-3.376-.51-7.957-.637-8.85-.637s-1.91-.065-.254-.574 3.822-1.657 6.62-2.23zM369.153 422.035c.887 0 4.773 0 6.3-1.338 1.594 1.21 4.652 2.926 6.62 2.926 1.976 0 1.785.51.065.7-1.715.19-5.09-.823-6.81-2.097-2.294.828-4.2.128-6.175-.19zM339.655 439.185c3.945 1.53 9.168 2.675 12.985 1.4 2.166 1.912 6.625 2.04 9.04 1.53 2.42-.51 4.587-.764 7.262.128 2.67.89 8.15.955 9.678 2.224-1.402.07-4.396 0-5.096.196-.7.186-.32.632.955 1.333-4.327-.255-11.78 1.593-14.07 3.567.825-1.974 3.373-4.65 7.386-4.65-2.294-.823-9.614-.887-11.97.573-.702-.764-1.53-2.033-1.594-2.543-3.88 2.225-11.524-.955-14.577-3.758zM329.56 432.03c4.7-.67 7.9-2.165 9.3-3.566.83.764 4.264 1.53 8.022.382-.764.573-.828 1.656-.51 2.23-2.483.063-7.197 1.274-8.785 2.102-1.592.823-6.242 1.396-7.766.568-1.528-.823-1.592-1.524-.26-1.715z" fill="#00d860"/><path d="M346.368 431.1c-2.484.064-7.198 1.274-8.786 2.102.32.637.51 1.65.574 2.352 4.58-1.656 15.087-2.67 19.1-2.033-1.91.128-5.542 2.098-7.576 2.353 4.964-.383 9.805.637 11.074.955 1.274.32 1.53 1.274.574 2.166s-1.397 1.02.637 1.083c2.038.064 6.242-.19 8.153-2.04-.764-.827-2.74-.508-3.312-1.08 1.338-.447 2.866-1.403 3.44-2.104-3.44-.063-4.714-.127-5.86-.382-1.147-.25-1.975-.572-.574-1.332 1.4-.764 2.038-1.4 2.484-1.91-2.484.7-6.365 1.273-9.614-1.275 1.21.32 4.072.128 5.092-.318-1.083-.573-1.97-1.02-2.862-1.02 2.607-1.273 7.766-2.42 14.132.128 3.185-.255 6.624-.127 9.04.51 1.02-1.02 3.185-3.44 4.332-4.077-7.512.637-21.012-.764-20.757-4.71-2.42 3.18-8.022 4.965-10.443 4.455-.254 1.148.765 2.55 1.657 3.314-2.548.51-6.88.89-8.914.51 1.147 1.146 3.308 2.165 4.582 2.038-2.67 0-4.072.51-6.174.318z" fill="#00d860"/><path d="M361.95 440.067c2.038.064 6.243-.19 8.154-2.038-.765-.83-2.74-.51-3.313-1.084 1.34-.446 2.868-1.402 3.44-2.102 5.347-.44 10.124-.187 12.413-.887 2.293-.7 8.153-.32 9.3-.637-5.096.823-6.115 1.27-6.37 2.097s1.656 1.53 2.866 1.53c-2.294-.13-5.16 2.292-5.415 3.247-3.053-1.783-4.518.32-4.836 1.02-1.275-.51-5.48-.383-7.645 1.465-2.798-.83-4.646-1.275-7.448-.83 1.72-.382 1.4-1.528-1.147-1.783zM386.4 425.17c1.72-.063 5.474.128 6.812-.063-.892.446-2.033 1.274-2.288 1.657 4.326-.51 10.246-.83 11.966-.574-2.098-.318-4.263 1.02-5.346 1.72s-.446 1.147 1.02 1.338 3.44 1.338.763.955-7.957-.382-9.23-.19-1.976-.447-.13-.7 3.118-.893 4.01-1.403c-1.53.382-4.455.382-5.346.128s-1.465-.765-.445-1.02.318-.637-.765-.51-3.822 1.275-5.35 2.74c1.656-1.72 3.12-3.25 4.33-4.077z" fill="#00d860"/><path d="M366.997 428.062c2.102 2.357 4.58 3.695 8.53 3.822.83.025 2.372 1.137.383 1.21-5.35.19-8.02-1.083-10.378-4.522-.485-.706.41-1.69 1.465-.51zM398.896 383.52c2.813 1.33 8.467 2.485 12.863 2.294.763-.034 2.302.784.376.956-4.964.446-9.423-.25-13.558-2.548-1.147-.637-.765-1.21.318-.7z"/><path d="M401.738 383.472c4.327-.127 7.575-.064 8.913 1.21 2.48-.764 6.94-1.21 7.96-1.02s2.165-.254-.192-.827c-2.357-.568-7.83-.76-9.55-.44-1.72.313-7.07.504-8.85.313.765.127 1.27.254 1.72.764zM418.545 385.187c2.038-1.083 7.894-.064 9.678-.828-1.274 1.528 4.076 1.655 8.722.445-1.784 1.146-5.6 1.338-7.257 2.038s-2.548.19-3.822-.382-4.518-1.72-7.32-1.273z" fill="#00d860"/><path d="M436.97 384.795c-4.646 1.21-9.997 1.083-8.723-.446-1.784.764-7.64-.256-9.677.827 2.102-1.274 3.694-.255 5.218-2.866.956.197 3.185.324 3.95-.695 1.337.318 3.694.892 4.395 1.588.7.7 1.778-.192.887-1.27 2.102-.764.77.907 5.67-.318 1.018-.255 3.502-.7 4.33-.764-1.656 1.338-3.63 2.798-6.05 3.945z" fill="#00d860"/><path d="M346.564 363.43c-.083-9.632-1.014-90.267-1.014-108.906 0-4.46-2.293-3.568-2.293 0V362.92c1.053.193 2.474.384 3.307.51zM381.99 248.673l3.98 114.96-.696.92-2.308.034-2.514-115.914h1.54zM415.507 345.742c-.323-11.706-1.793-65.895-2.362-92.61-.073-3.562-2.195-2.94-2.16.127.23 21.515 1.51 81.692 1.744 92.546.832 0 2.267-.084 2.777-.064z" stroke-width=".6125" stroke="#000" fill="#ff0"/><path fill="#fff" d="M362.44 267.783l-33.874-.51c-1.906 6.875 6.625 6.748 9.81 4.964 3.69 2.803 6.493 2.548 8.53.255 2.93 2.42 6.62 1.783 8.15.255 4.077 3.057 8.276 0 7.384-4.964zM364.988 284.835l-34.638-.127c-5.983 5.728 1.784 8.53 8.408 4.58.892 1.912 4.964 3.06 8.15 1.53 2.93 2.293 6.62.637 8.53-1.274 3.567 1.656 7.766 2.166 9.55-4.71zM364.008 306.493l-33.364-.255c-.637 5.983 6.115 5.22 8.786 3.695 2.548 3.944 8.153 3.053 10.32.76 3.18 2.165 6.11 1.656 7.766-.383 3.694 3.185 6.747-.887 6.492-3.817zM365.674 328.15l-37.31-.636c-2.037 6.365 3.69 7.512 6.366 5.983.892 3.695 5.856 2.42 7.13-.255 1.91 1.91 4.332.892 5.478-.382.51 3.44 4.836 3.567 8.15.637 6.746 4.714 13.116-.764 10.186-5.346zM398.75 319.233l-31.072-.255c1.402 6.365 4.454 8.022 9.423 4.327 3.695 3.822 9.806 2.42 11.335.51 6.747 5.478 10.44-.892 10.314-4.582zM395.564 297.967l-30.052-.892c.51 7.64 7.767 7.385 11.46 4.072 2.804 3.567 7.768 2.548 9.552 0 3.822 3.822 10.06 1.53 9.04-3.18zM399.533 274.006h-32.345c.382 5.346 7.512 8.404 12.99 3.312 1.524 6.11 7.384 4.2 9.932 1.78 3.69 4.713 12.22-.633 9.423-5.092zM397.622 257.738l-28.905.382c-.51 4.71 6.365 6.748 8.913 2.926 1.4 2.42 6.238 2.165 7.64-.128 2.292 3.567 5.095 1.147 5.982 0 3.312 2.42 6.88 1.274 6.37-3.18zM431.48 268.273l-35.402-.382c-.127 3.69 3.695 5.22 5.983 3.69 0 3.568 4.97 4.714 8.155 1.912 2.166 3.057 8.53 3.95 11.08-.255 5.217 4.33 10.823 1.274 10.186-4.964zM430.99 297.33l-34.637-.127c.255 4.836 5.855 6.492 9.04 3.944.765 4.077 5.096 4.332 7.64 2.293 3.057 3.44 8.153 3.695 10.95-.127 4.205 1.53 7.39-2.038 7.008-5.983zM429.178 323.447l-27.38-.382c0 4.84 5.732 5.478 8.28 2.93 2.67 3.185 6.747 3.185 9.04.637 3.69 3.185 9.296 2.293 10.06-3.185z" stroke-width=".6125" stroke="#000"/><path d="M385.274 364.558c-14.77.255-29.797.255-39.984-1.274s-13.397-2.96-20.374-7.13c-10.442-6.237-12.99-7.766-27.76-16.424-2.263-1.328-4.717.318-1.528 2.415 14.896 9.805 20.54 13.44 27.632 18.086 7.384 4.838 12.147 9.135 16.68 14.26 5.86 6.625 10.186 6.752 12.862 5.733s6.88-2.42 11.08-1.4c4.203 1.018 9.803 1.145 12.734.636 2.675 2.42 8.785 1.91 12.225 1.145 3.436-.764 5.984-1.146 8.405-.637s6.11.128 8.53-.254 8.786-1.02 13.245-.383c4.454.638 9.04.256 11.97-.636 2.926-.89 8.277-.637 10.06-.127 2.544-1.91 3.818-4.332 4.455-6.875 2.994-.382 3.988-.754 4.65-2.484 1.21-3.185 2.352-6.306 2.74-7.703h1.204l.382-2.866-2.48-2.868.892-5.473 2.67-.638c.128-1.656-.637-4.204-1.146-5.223-16.043.636-31.772 1.145-43.037 1.4-1.273 1.02-2.674 3.695-2.93 5.35-6.874 1.142-10.95 1.652-12.734 2.034s-2.778.525-4.2 2.42c-2.293 3.058-4.458 6.62-6.242 8.914z" stroke-width=".6125" stroke="#000"/><path d="M436.822 345.105c.78-2.7 2.862-9.97 6.635-23.716.632-2.294-1.593-3.2-2.416-.256-4.488 16.048-6.183 22.065-6.75 24.07.86-.016 2.096-.11 2.532-.1z" stroke-width=".6125" stroke="#000"/><path d="M461.665 318.204c-5.414 2.798-8.026 3.88-10.506 2.925-2.284-.878-5.64-1.373-7.605-.407-.005.205-.035.426-.103.66-2.323 8.463-4.004 14.466-5.135 18.464 4.008 1.416 10.912 1.608 12.524-.122 1.652-1.784 6.175-1.402 8.468-1.274 1.465-1.91 2.04-4.267 1.656-5.414s-.254-3.18.32-4.772 1.337-6.752.38-10.06z" stroke-width=".6125" stroke="#000" fill="#fff"/><path d="M338.38 272.242c-5.987 17.317-26.743 56.16-39.268 68.67M308.736 346.575c14.215-10.996 50.156-46.687 56.267-61.71M330.64 306.248c-1.652 13.117-5.44 36.515-7.478 48.868M336.176 335.452c-4.836 4.714-11.696 12.94-16.792 17.4M381.746 309.286c-4.072 3.945-8.722 8.546-12.794 9.692M384.098 309.923c3.582 3.817 8.673 8.13 12.877 9.276M381.305 288.804c-3.69 3.18-9.168 6.924-14.132 8.325M383.412 289.54c3.185 2.674 6.576 6.575 10.648 8.358M367.928 274.006c3.945-1.147 9.82-4.204 12.877-7.384M382.58 266.02c3.453 3.944 10.073 7.13 13.386 8.02M368.712 258.13c4.072-.892 9.12-3.058 11.794-6.88M382.04 250.192c3.435 2.93 9.472 7.164 13.416 7.546M411.097 261.61c-2.21 2.292-7.624 6.413-11.06 6.35M413.35 261.413c1.594 2.548 5.607 6.448 7.9 6.767M397.72 297.183c4.454-1.53 10.697-5.174 13.818-8.933M413.988 288.56c1.303 2.35 6.272 7.668 9.075 8.75M403.012 323.055c2.038-.44 7.58-3.195 9.104-6.443M414.674 314.823c2.102 2.612 7.257 7.384 10.442 8.53M332.942 327.563c6.238-1.975 18.845-9.628 25.088-16.89M346.074 319.87c5.22 3.69 11.285 7.384 15.93 8.212M331.766 306.248c3.44-1.465 7.958-3.964 11.46-7.59M345.878 298.163c1.4 1.97 11.7 8.26 16.092 8.325M343.232 277.828c-2.675 2.16-9.104 6.047-12.226 6.875M345.682 277.975c3.567 2.48 10.618 6.86 15.455 6.86M343.232 257.934c-2.867 3.244-7.703 8.257-11.716 9.403M345.535 258.67c2.23 3.566 8.198 8.388 12.083 9.025M397.083 280.082c8.928 16.46 25.485 36.578 42.228 47.148M370.28 261.854c13.558 19.482 40.175 62.206 65.498 77.98M440.448 323.153c-4.077 5.67-11.397 14.52-23.496 22.574M438.93 328.543c-8.532-13.622-12.942-30.845-19.322-53.528M350.435 335.6l10.506 28.904M348.475 334.913l9.29 29.483M346.466 333.54l8.624 30.685M345.584 334.03l6.66 30.028M352.003 362.99h8.325M359.255 359.854h-7.85M358.373 357.404h-7.575M357.49 354.954h-7.227M356.51 352.308h-6.88M349.16 349.956h6.528M348.67 347.8h6.195M348.132 345.448h5.89M347.69 343.34h5.558M347.2 341.185h5.283M346.76 339.176h4.998M346.27 337.314h4.856M345.976 335.746h4.523M337.793 335.795l-5.92 24.167M339.508 335.354l-5.08 25.53M340.88 334.423l-4.11 27.19M342.644 333.884l-2.984 28.435M343.232 360.687h-9.423M343.232 358.09H332.33M343.232 355.395h-10.266M343.232 352.847h-9.63M343.232 350.25h-9.006M343.232 347.36h-8.29M343.232 344.86h-7.688M343.232 342.312h-7.036M343.232 339.862h-6.448M343.232 337.706h-5.94M343.232 335.99h-5.493M343.232 362.94v-28.81M374.935 324.623l-19.742 39.592M376.16 323.986l-16.807 40.445M377.385 323.545l-13.333 41.077M378.218 324.28l-10.368 40.366M368.32 362.794h-12.417M369.3 359.168h-11.56M369.84 356.228h-10.634M370.868 353.043h-10.06M371.358 350.495h-9.295M372.24 347.555h-8.756M373.122 344.125h-7.928M373.808 341.528h-7.29M374.543 338.54h-6.605M375.082 336.53h-6.11M375.572 334.62h-5.6M376.062 332.66h-5.16M376.503 330.944h-4.743M376.944 329.23h-4.346M377.434 327.465h-3.92M377.826 325.848h-3.533M390.664 325.26l8.64 27.342M392.33 325.848l10.48 26.24M393.8 325.897l12.274 25.66M409.04 349.368l-13.54-23.95M409.04 349.32h-10.742M407.177 346.085h-9.893M405.364 342.85h-9.07M403.502 339.568h-8.27M401.69 336.334h-7.493M399.827 333.1h-6.664M398.014 329.866h-5.85M396.152 326.583h-5.057M407.226 327.367l-8.452 25.348M409.774 326.24l-7.84 25.985M405.56 351.622l5.753-24.46M412.812 328.004l-4.84 23.275M399.778 349.81h8.482M400.856 346.624h8.085M401.885 343.488h7.703M402.914 340.352h7.306M403.992 337.167h6.91M405.07 334.03h6.512M406.1 330.895h6.114M407.128 327.71h5.032M416.683 328.25l4.145 17.38M418.202 327.416l5.728 18.115M420.162 327.367l6.248 18.14M422.71 328.347l6.257 17.037M428.394 343.88h-8.026M427.463 341.332h-7.624M426.532 338.784h-7.306M425.6 336.236h-7.006M424.62 333.688h-6.653M423.69 331.14h-6.292M422.76 328.592h-5.97" stroke-width=".6125" stroke="#000" fill="none"/><path d="M341.713 373.574c3.95-2.543 10.697-2.033 14.136.51 4.076-2.29 11.46-1.657 14.9 1.4 5.22-3.56 9.678-4.07 14.77-.636 3.948-2.798 10.06-3.053 14.772.255 4.582-2.166 9.678-3.945 14.132.764-2.67-1.91-8.403-3.567-14.132.892-4.46-4.46-12.225-2.804-14.773.254-3.313-3.95-10.316-4.587-14.52.255-4.58-3.823-11.456-3.95-15.15-1.02-2.93-2.294-7.257-4.2-14.137-2.676z" fill="#00b800"/><path d="M411.293 368.135c-20.247 3.5-64.37 1.02-74.05-1.4-3.326-.834-2.42-2.04.383-1.403 11.153 2.534 34.952 2.548 48.07 1.91 2.547-3.375 6.556-9.103 7.766-10.695s1.744-1.74 4.268-2.166c4.518-.764 7.1-1.175 11.015-1.847.064.51.064 1.147.064 1.53-.32.254-.638.7-.893.827 0 2.612.51 8.977 1.02 11.27.51-.063 1.146-.254 1.464-.318.893-.255 1.78 2.038.893 2.293z" fill="#cf6200"/><path d="M444.466 369.115c.73-.02 2.254-.054 2.675-.064.83-.018 1.99-.587 2.5-1.86s2.088-5.984 2.66-7.958l-2.037-3.073c.446-2.534 1.02-5.97 1.083-6.67 1.02-.382 2.097-.764 2.606-.955.128-.573-.122-2.13-.637-2.64-8.722.332-34.824 1.24-39.6 1.302-1.148 0-1.663-.05-2.1 1.593-2.42 9.04.927 21.726 10.06 29.032.638.51 1.442.084.378-.89-1.524-1.403-3.88-4.27-5.473-7.102 1.784-.03 5.4-.088 6.483-.132.52 2.14 2.146 6.66 2.464 7.424s1.103.872.73-.27c-.877-2.675-1.337-5.723-1.72-7.188 1.657-.04 4.778-.01 6.69-.118.092 2.42.347 5.665.41 6.556s.83.956.844-.063c.02-1.02.04-5.328.025-6.597 2.156-.058 4.91-.152 5.93-.152-.143 1.378-.408 5.832-.506 6.538-.148 1.04.396 1.53.65.064s.765-4.89.908-6.625c.862-.025 3.13-.118 4.086-.142-.093 1.357-1.367 5.483-1.75 6.566s.236 1.118.667.094c.452-1.05 1.85-5.19 1.976-6.67z" fill="#cf6200"/><path d="M415.556 368.086c-.7-1.4-2.866-6.385-3.058-10.01 1.848-.035 6.468-.123 8.698-.172.328 2.734 1.17 8.624 1.617 10.02-2.607.064-5.792.147-7.257.162zM422.71 357.845c.24 2.087 1.333 9.256 1.51 10.084 1.89-.113 6.27-.128 7.03-.192-.078-1.91-.386-9.08-.42-10.1-1.98.055-7.125.183-8.12.207zM412.86 348.976c-.352 1.833-.416 5.748-.318 7.42 2.23.043 7.718-.09 8.477-.153-.187-1.9-.486-5.34-.677-7.487-1.818.078-6.272.186-7.482.22zM421.975 348.73c.064 1.785.46 6.146.588 7.478 1.926-.053 6.64-.15 8.232-.205-.083-1.632-.343-6.89-.372-7.527-2.558.07-6.826.23-8.448.255zM432.07 348.437c.077 1.656.288 6.33.224 7.54 2.044-.053 5.95-.092 7.16-.19.092-1.66.362-6.41.234-7.62-2.293.09-5.948.21-7.62.27zM441.085 348.094c0 1.4-.176 6.326-.24 7.664 2.024-.08 6.62-.24 7.815-.27.32-1.64.956-5.904 1.147-7.703-1.91.064-7.326.27-8.722.31zM448.974 357.16c-2.612.082-6.81.195-8.232.25-.22 3.223-.622 8.794-.813 10.068 2.297-.05 6.942-.196 7.96-.225.765-1.53 2.422-6.3 2.804-7.766-.573-.892-1.02-1.402-1.72-2.328zM432.363 357.6c0 1.147.2 9.354.25 10.055 1.494-.05 5.375-.103 5.95-.167.288-3.195.724-9.315.802-10.08-2.646.074-5.243.153-7.002.192zM398.553 355.64l-3.317.588c-1.53 2.47-7.193 10.11-7.894 11 3.944-.112 10.113-.23 11.598-.372-.108-2.048-.382-10.202-.387-11.216zM400.023 355.346c.078 2.612.328 9.57.392 11.417 1.955-.113 5.557-.348 7.022-.475-.338-3.283-.956-11.123-1.083-12.08-1.642.3-4.866.868-6.33 1.138z"/><path d="M365.82 327.857c.447.005.506.387-.004.382l-37.622-.466c-.51-.005-.44-.387.005-.383l37.62.467zM395.417 297.722c.446.015.5.397-.01.382l-29.807-.818c-.51-.015-.436-.397.01-.382l29.807.818zM363.96 306.346c.445.005.504.387-.006.382l-33.36-.245c-.51 0-.44-.382 0-.382l33.365.246zM364.94 284.688c.445 0 .51.382 0 .382l-34.894-.18c-.51 0-.44-.383.005-.378l34.89.176zM362.538 267.587c.446.005.5.392-.005.382l-33.903-.51c-.51-.01-.44-.392.005-.383l33.903.51z" stroke-width=".6125" stroke="#000"/><path fill="#fff" d="M397.622 257.59c.446-.004.514.378.005.383l-29.096.28c-.51.004-.45-.378-.004-.383l29.096-.28z" stroke-width=".6125" stroke="#000"/><path d="M399.435 273.86c.446 0 .51.38 0 .38H367.28c-.508 0-.445-.38 0-.38h32.155zM430.99 297.036c.447 0 .51.382 0 .382H396.34c-.51 0-.446-.382 0-.382h34.653zM431.48 268.077c.447.005.506.387-.004.382l-35.402-.35c-.51-.004-.44-.386.004-.38l35.403.347zM398.75 318.988c.445.005.504.387-.006.382l-31.144-.206c-.51-.004-.44-.387.005-.382l31.144.206zM429.178 323.202c.446.005.505.387-.005.382l-27.376-.362c-.51-.005-.436-.387.01-.383l27.37.362z" stroke-width=".6125" stroke="#000"/><path d="M453.874 328.445c.77-1.71.877-5.64.436-7.13-1.186.24-2.19.187-3.17-.195-.515-.196-1.078-.373-1.67-.52-.11 1.97-.824 6.988-1.706 8.928-1.54.436-4.64-.074-6.405-.627l-1.284 4.617c2.19.504 4.94.46 7.114-.045-.17 2.945-.558 5.626-2.15 7.478 2.6.06 4.93-.324 5.78-1.235.08-.088.168-.162.26-.235 1.202-2.01 1.236-4.626 1.525-6.39.887.064 2.033-.19 2.543-.7s1.338-.765 2.166-.7c.754.058 1.93-.1 3.425-.702.038-.9.215-1.88.523-2.734.167-.466.348-1.24.5-2.176-1.896.907-6.125 2.42-7.89 2.367z" stroke-width=".6125" stroke="#000" fill="#ef072d"/><path d="M332.354 162.58c-3.876.113-12.314.19-14.087 1.186-1.77 1-2.548 1.44.553 1.994s8.35 2.03 11.226 3.803c2.876 1.768 5.287 4.904 4.493 9.378-2.377 13.442 4.65 26.368 14.832 31.244.985.47 1.22.828 1 2.655s-.888 4.875-1.44 5.65c-.555.778-.83 2.052.94 1.44-1.216 2.273-3.93 6.816-4.758 7.977-8.14-.995-14.78.113-15.39 8.64-.06.832.224 2.16 1.493.057 1.274-2.107 2.715-4.1 6.2-4.655-2.05 3.155-2.71 5.982-2.378 7.81.328 1.828.827 2.935 1.714.608.887-2.323 2.52-4.5 4.263-5.817.662-.494 1.108-.606.608.834s.22 4.543 1.22 5.596c.995 1.05 1.494.608 1.215-1.107-.274-1.72.157-5.312 2.27-6.43 3.042-1.6 5.644-.773 6.864 1.334 1.215 2.102 2.268.107.94-2.274s-2.714-4.042-4.93-4.21c1.942-3.434 4.21-7.59 4.71-8.417.495-.833 1.274-1.22 1.936-.72.666.5 1.107.44 1.773-.94.662-1.388 1.823-5.484 3.484-7.146.833-.225 2.16-.553 2.656-1 2.16 3.156 4.096 6.65 4.596 7.424.494.775 1.053 1.108.553 2.715s-2.215 6.702-2.49 7.81c-6.036.22-8.8.328-10.74 3.71-.848 1.474.5 2.047 1.94 1.273 1.436-.774 3.484-1.44 4.538-1.274 1.05.165 1.544.704.496 1.22-3.705 1.827-6.023 4.15-5.866 7.364.054 1.16.534 1.74 1.44.166 1.275-2.215 3.598-4.43 6.42-5.042-.167 2.715.446 6.703 2.102 7.536 1.66.828 1.78-.014 1.16-1.607-.993-2.548.04-5.11 1.275-6.483 2.602-2.88 8.526 1.108 9.634 2.107 1.108.996 2.117 1.413 1.495-1.165-.833-3.43-5.703-5.424-9.854-5.978 1.163-5.596 4.264-16.895 5.925-20.77 2.436 1.327 4.337-2.176 8.414-.667 6.86 2.548 17.154 8.972 18.927 10.412 1.77 1.44 2.436 1.108 3.323.333.882-.774 2.435 0 3.65.22 1.22.22 2.328.555.774-2.547-1.548-3.102-5.31-8.53-11.622-12.74 3.763.333 8.86.333 8.86-.662 0-1-5.87-2.88-8.307-3.1 2.328-.555 5.87-1.888 7.527-3.77.985-1.112-.196-1.37-3.65-1.44-10.63-.22-15.94-.137-21.478-3.322-8.854-5.096-13.92-10.462-18.267-12.74-2.322-1.22-3.738-4.033-4.635-6.463-2.876-7.756-2.734-11.245-9.487-13.793s-14.518.574-18.06 3.783z" stroke-width=".6125" stroke="#000"/><path d="M332.795 164.344c-1.72-.064-5.096-.47-7.894-.19-.636.063-1.4.38.13.572s5.663 1.206 7.128 1.715.828 1.275-.446.957-1.744.152-.7.892c5.414 3.82 5.987 5.286 4.586 18.398 1.02.7 1.847 1.21 2.74 1.656s.636 1.083-.32.828-1.847.32-.318.637 2.225 1.02.764.955c-1.465-.064-3.185 1.21-.318.892 2.86-.32 4.008 1.02.637 1.083-3.376.063-2.102 1.146-.32 1.146 3.18 0 2.226.892 1.403.892-.828 0-1.21 1.083.892.892 2.097-.19 2.925-.255 3.69-.128s1.082.76-.064.828c-1.147.06-1.083.887.637.887s2.436.52.892.828c-.637.128-1.52.446.32.7 3.184.447 3.31 1.21 2.292 1.34s-1.147.7.32.827c1.46.127 2.733.573 1.527.892-1.21.318-1.846 1.02-.322 1.146 1.53.128 2.803.7 1.656 1.083s-1.4 1.083.064 1.02 2.038.764 1.02 1.332c-1.02.574-1.72.956-2.358-.06-.632-1.018-1.014-1.336-1.205-.572-.19.76-.637.255-1.147-.892s-1.4-1.464-1.146-.572-.892 1.02-1.975.573c4.013 4.073 9.932 7.768 19.355 3.946.803-.324.955 0 1.592 1.338s2.42 4.267 3.058 5.35 1.142.108 1.46-.955c1.274-4.205 2.23-7.327 2.612-8.468.382-1.147 2.166-2.294 1.592 1.715 1.402-.956 7.61-1.857 12.417-.064 5.282 1.975 10.594 5.037 13.308 7.07.51.383 1.148.83 2.417.7 1.274-.126 1.593-.317-.828-2.547-2.417-2.23-1.398-3.312.126-2.23 1.53 1.084 2.357.447 1.21-.89s-3.88-3.945-4.772-4.582-1.02-.892-3.058-1.02-6.365-.127-7.64-.127-1.655.127 1.148 1.147c2.798 1.014 8.53 4.708 9.805 5.6s2.165 2.93-.638 1.147-11.59-7.256-17.444-9.294c-13.372.89-23.942 2.675-31.835-5.983-3.783-4.146-3.95-13.627 2.415-17.577-1.274-1.083-1.083-1.72-.573-1.974s.7-.51.19-1.147c-.504-.637-.445-1.205 0-1.46-1.395-.765-2.032-1.656-1.97-2.612-1.72-.382-2.483-2.42-4.776-1.783s-3.44.127-4.137-.446c-.705-.574-1.274-.828-2.548-.7s-2.293-.383-2.357-1.02 1.078-.946 2.803-.19c3.627 1.59 6.557 2.356 8.787-.638 2.23-2.99-.637-5.792-4.905-6.62-4.263-.828-7.384 2.293-8.977 3.758z" stroke-width=".6125" stroke="#000" fill="#fff"/><path d="M354.208 163.217c-1.284-1.392-3.567-2.675-4.71-3.058-1.145-.383-1.273.764-.636 1.337-.51.765-.7 2.612.19 3.12s.903 1.236.065 1.653c-1.274.637-.843 4.018 1.078 3.057.637-.318 1.147-.19 1.02.32s.127 1.145.7 1.273.51.955.382 1.274.064.446.7.51.7 1.592-.445 2.102c1.4 0 1.783-.255 2.166.89.382 1.143 1.91 1.398 1.91 2.8s-.254 1.655-1.91 1.4-2.294.255-2.803.892-.637 1.274.637 1.338 1.53.637.255 1.21-3.372.192-3.69 1.402c-.32 1.205 0 1.78.95 1.333.956-.44 2.93-1.268 3.695-1.714s1.465-.51 2.102.51.128 2.16-.955 1.273c-1.084-.893-1.594-.07-2.23.44s-1.593.828-2.612.828c-1.015 0-1.715.133-1.588 2.42.382 6.88 5.728 11.972 15.533 11.844s14.646-.255 16.11-.063c-3.248-1.785-5.286-2.74-6.433-2.613s-2.102.318-1.592-.573-.064-.892-.573-1.274-1.142-.892-2.16.19-3.44 2.294-4.65 2.55-2.677.19-1.53-.957 3.694-1.53 4.46-2.038.763-.823.763-1.206-.19-1.466 1.274-.638c2.926 1.657 7.512 4.136 8.722 4.072s2.04-.573.956-1.274-1.402-1.715-1.083-2.097.51-.764 2.42.32c1.907 1.077 5.028 2.478 6.174 2.988s2.677.32.32-1.4c-2.357-1.716-9.678-6.557-11.716-8.086s-1.147.32-.955.892-1.403 1.274-2.23.573-1.402-1.466-.256-2.103 1.402-.7-.318-2.23c-1.715-1.523-2.225-1.396-1.843-.127.383 1.274.51 2.676-1.274 1.975s-2.676-1.53-1.53-2.23c1.147-.695 2.612-1.078.7-2.67s-1.336 0-1.782.892-1.91.892-2.74.19-1.21-1.4-.636-1.974.51-.892 1.337-.446 2.1.19.573-1.146-2.103-.764-1.784 0-.893 2.103-2.8.32c-.905-.844-.89-1.976.065-2.167.95-.19 1.043-.686.377-1.656-3.88-5.664-2.288-10.25-6.174-14.45z" stroke-width=".6125" stroke="#000" fill="#fff"/><path d="M354.845 164c-.333.5-.456.48-1.073.893-.76.505-.93 1.95.343 1.78.882-.12 1.396-.643 1.744-1.07-.28-.54-.613-1.073-1.015-1.602zM350.876 160.816c-.98.95-1.151 1.377-.652 1.377.593 0 .338.083-.088.764-.42.68.853 1.02 1.362.51s.593-.68.848 0c.206.554 1.044.03 1.573-.505-.868-.838-2.035-1.612-3.044-2.146zM349.112 166.304c-1.274.637-.843 4.018 1.078 3.058.637-.32 1.147-.19 1.02.318-.07.27-.025.578.117.823.76-.318 1.52-.847 2.112-1.524 1.19-1.358.082-1.275-1.697-1.275-1.783 0-2.293-.338-.597-1.357 1.52-.91.53-1.543-1.573-1.25.303.432.152.902-.46 1.206zM356.413 173.8c-.936-1.018-.343-1.528.676-2.037.25-.123.42-.28.543-.466-.29-1.122-.52-2.2-.823-3.25-.534.153-1.156 1.344-1.333 1.932-.255.847-.51 1.356-1.357 1.102-.755-.226-1.51.622-1.666 1.528.117.05.3.084.54.108.352.034.528.515.42 1.024 2.298-.073 2.69 1.514 3.082 2.602.427 1.19.936 1.02 1.274.343.338-.68-.426-1.867-1.357-2.886z" fill="#cf6200"/><path d="M357.05 187.13c-.417.94-.426.847-1.784.93-1.357.088-3.067.32-3.817 1.107-.407.422-2.754.535-2.76 1.568-.01 1.04 0 1.91 1.02 1.975 1.014.064 1.142.19.764.956-.387.764-.637 2.038 1.142 2.165 1.784.13 3.058-.444 3.503.57.445 1.02-.035 2.646.318 3.25s1.558.988 3.425 1.567c1.245.387 5.944.607 7.39.44 1.44-.17.9-1.033-.545-1.16-1.44-.128-2.504-.34-2.842-1.397-.338-1.064-.637-1.617.172-2.504.803-.892 1.612-1.573 1.146-3.058-.47-1.484-1.234-3.23-2.93-3.694-1.7-.466-1.16-2.788-2.847-3.014-.637-.083-1.186-.083-1.357.3z" fill="#ff0"/><path d="M348.818 200.947c1.46.127 2.734.573 1.53.892-1.212.317-1.85 1.018-.325 1.145 1.53.128 2.803.7 1.657 1.083s-1.402 1.083.063 1.02 2.04.764 1.02 1.332c-1.02.574-1.72.956-2.357-.058-.633-1.02-1.015-1.338-1.206-.574-.19.76-.637.255-1.146-.892s-1.402-1.465-1.147-.573-.892 1.02-1.975.573c1.07 1.083 2.27 2.137 3.636 3.03 1.563-.535 3.288-.1 3.876-.04.637.063 2.612.51 3.695 1.082s1.782-.446 1.336-1.592c-.446-1.142-.51-.76-1.083-.128-.573.637-.7-.254-.637-1.587.054-1.126-.7-.827-.955-.127s-.827-.445-.51-1.146-.062-.956-.636-.765-.637 0-.7-1.274-.637-1.082-.828-.573-.7-.19-1.466-1.21c-.666-.892-1.435-.368-2.768.162.167.098.47.18.926.22z" fill="#cf6200"/><path d="M364.302 208.836c-6.958 2.822-11.976 1.568-15.753-.936 1.562-.534 3.32-.078 3.91-.02.636.064 2.61.51 3.693 1.083s1.784-.445 1.338-1.592c.957 1.21 1.657 2.04 2.8 1.976 1.146-.064 3.057-.255 4.012-.51zM349.455 176.79c-.426-1.44-.848-1.784-1.612-1.695-.765.083-1.103-.09-1.955-.427-.848-.338-1.95.084-2.122 1.612s-1.102 2.294-2.376 3.225c-1.274.936-2.04 1.7-2.04 3.23s-.337 1.95-1.185 3.056c-.377.49-.91 1.05-1.41 1.638.548.343 1.062.642 1.6.906.893.446.638 1.083-.317.83s-1.847.317-.32.636 2.226 1.02.766.955c-1.465-.064-3.185 1.21-.32.892 2.863-.32 4.01 1.02.638 1.083-3.376.063-2.102 1.146-.318 1.146 3.18 0 2.225.892 1.4.892-.827 0-1.21 1.083.893.892.03-.005.054-.01.088-.01.304-.313.53-.705.696-1.2.34-1.02.677-3.994 1.868-4.842 1.186-.847 1.784-2.038 1.784-2.886s1.778-4.58 2.97-5.517 1.7-2.97 1.273-4.415z" fill="#ff0"/><path d="M346.956 176.84c-1.205-.805-2.376-.34-2.376 1.19s-.765 1.95-1.784 2.46c-1.014.51-1.95 1.783-2.122 2.974-.166 1.186.172 1.95-.676 2.886-.853.93-.936 1.695-.338 2.205.593.51.593.598.848 1.357.254.765 1.695-.083 1.695-.93s.343-.848 1.274-1.358c.936-.51 2.465-2.974 2.122-3.65-.34-.682-1.187-1.275-.085-2.21 1.103-.93 2.294-1.02 2.294-1.95 0-.937.337-1.275.675-1.613.343-.342-.765-.85-1.53-1.36z" fill="#cf6200"/><path d="M346.956 175.614c-.794-.31-1.27 1.357-.167 1.612s1.273-1.19.166-1.612zM346.76 177.77c-.843.103-1.784 1.21-.382 1.02s1.974-1.21.382-1.02zM345.094 179.828c-.867.436-.7 1.593.573.764s1.593-1.847-.573-.764zM343.722 181.592c-.872.43-.7 1.588.573.764 1.274-.828 1.593-1.847-.573-.764z"/><path d="M341.958 182.425c-.867.436-.318 1.593.956.764s1.21-1.848-.956-.765zM343.036 183.503c-.867.436-.318 1.593.956.764s1.21-1.847-.956-.764z"/><path d="M341.517 183.944c-.867.436-.318 1.592.956.764s1.21-1.847-.956-.764zM342.497 185.17c-.872.435-.32 1.59.95.763 1.275-.828 1.21-1.847-.95-.764z"/><path d="M341.027 185.904c-.867.43-.318 1.588.956.76s1.21-1.843-.956-.76z"/><path d="M341.125 187.03c-.867.437-.32 1.594.956.765s1.21-1.847-.955-.764z"/><path d="M340.44 197.762c-.878.113-1.442 1.362-.34 1.617s1.358.337 1.358 1.185.343 2.038 1.53 2.122c1.19.088 2.21-1.274 1.19-1.696-1.02-.425-1.955-.763-2.04-1.7-.082-.93-1.018-1.61-1.7-1.528z" fill="#cf6200"/><path d="M371.7 190.46c.158.197.354.413.58.604.827.7 2.42 0 2.23-.574s-1.084-2.42.954-.89 9.36 6.37 11.716 8.084c2.357 1.72.828 1.91-.318 1.4s-4.268-1.91-6.174-2.988c-1.91-1.083-2.103-.7-2.42-.318-.27.318-.055 1.087.646 1.74-1.137.166-2.984-.084-3.514-1.295-.637-1.465-2.165-3.248-3.248-4.65-.402-.52-.52-.842-.45-1.112z" fill="#ff0"/><path d="M434.862 399.054c-1.588 1.083-3.69 2.994-2.293 5.664.165-.088.322-.19.484-.284 6.228-7.536 11.56-15.46 16.126-23.69.054-.285.103-.555.137-.79-1.784 1.53-4.586 3.053-5.733 3.435.764 2.037-2.798 4.713-4.71 5.477.766 1.274.51 3.185-1.145 3.567.38 1.142-.893 1.142-2.422 1.78s-2.293 1.145-2.798 1.91c.823-.446 1.97-.828 2.607-.637s.764 1.146-.382 1.4-1.906.893-2.294 1.403c1.658-.637 4.015-.32 2.422.764z" fill="#00d860"/><path d="M359.353 188.11c-1.882-1.642-2.357-.638-1.592.38s.192 1.53-1.465 1.785-4.14.573-5.16.573-2.224 1.402.192 1.274c2.42-.127 6.497-.955 7.58-1.4s1.97-1.275.446-2.613zM363.028 191c-1.553-1.396-2.102-1.02-1.72 0s-.318 1.21-1.333 1.53c-1.02.317-5.032 1.655-6.752 1.846s-2.102 1.402.446 1.338 7.447-2.102 8.02-2.484.765-1.147 1.402-.765 1.21-.318-.064-1.465zM364.204 195.067c-1.127.67-3.945 1.906-5.09 2.225s-2.103 1.592.317 1.4c2.417-.19 5.284-2.42 6.048-2.86.764-.446 1.147-.765 1.784-.7s1.783-.83-.32-1.976-3.375-.573-2.356.32.255 1.21-.382 1.59z" stroke-width=".6125" stroke="#000"/><path d="M344.36 163.02c-3.112-2.042-6.665 2.24-3.225 4.587 3.013 2.058 6.198-2.63 3.224-4.586z"/><path d="M340.488 164.883l.92.064c-.19.95.766 2.386 2.23 2.033-1.175.892-3.468-.127-3.15-2.097zM352.542 211.286c.94.274 4.21.608 5.316.662-.553 1.166-1.053 1.94-1.386 2.773-.333.83-.495.888-.554-.386-.054-1.28-.774-2.107-1.436-.78-.666 1.334-1 1.828-1.328 2.382-.333.554-.833.78-.666-.607s.113-2.83.054-4.044z" fill="#fff"/><path d="M475.483 248.673c-.225 80.027-12.853 166.242-116.444 207.31-103.596-41.068-116.224-127.283-116.45-207.31h232.893z" stroke="#000" stroke-width="1.225" fill="none"/><path d="M475.483 248.673c.088-30.145-1.588-59.412-.823-85.06-38.71-17.32-89.646-20.883-115.62-20.883-25.98 0-76.916 3.562-115.626 20.884.765 25.647-.906 54.914-.823 85.06h232.893z" stroke="#000" stroke-width="1.225" fill="none"/></g></svg>