<svg xmlns="http://www.w3.org/2000/svg" height="512" width="512"><defs><clipPath id="a"><path fill-opacity=".67" d="M60.224 0h497.33v497.33H60.224z"/></clipPath></defs><g fill-rule="evenodd" clip-path="url(#a)" transform="matrix(1 0 0 1 -62 0)" stroke-width="1pt"><path fill="#fff" d="M0 0h994.66v497.33H0z"/><path fill="#de2918" d="M0 331.55h994.66v165.78H0z"/><path fill="#08399c" d="M0 165.78h994.66v165.78H0z"/><path d="M282.04 90.314c-3.905 59.885-6.142 92.702-15.26 107.88-9.86 16.308-19.45 28.248-57.92 42.625-38.47-14.378-48.063-26.318-57.922-42.626-9.118-15.183-11.355-48-15.26-107.88l5.686-1.915c11.445-3.49 19.984-6.3 26.3-7.545 9.047-1.915 16.735-4.08 41.046-4.587 24.312.418 32.038 2.717 41.084 4.632 6.264 1.336 15.17 3.964 26.53 7.522l5.715 1.892z" fill="#de2918"/><path d="M276.435 88.353c-3.693 59.757-6.782 87.123-11.6 100.28-9.35 22.53-24.154 34.88-56.013 46.662-31.858-11.78-46.66-24.133-56.01-46.66-4.82-13.158-7.863-40.446-11.45-100.342 11.203-3.5 19.986-6.233 26.303-7.48 9.046-1.915 16.734-4.17 41.045-4.588 24.312.418 32.09 2.673 41.136 4.588 6.317 1.247 15.282 3.98 26.59 7.54z" fill="#08399c"/><path d="M208.79 106.642l1.528 3.616 6.712.92-4.35 2.623 4.206 2.812-6.116 1.025-1.862 3.277-2.093-3.375-5.823-.827 3.963-2.872-4.08-2.613 6.445-.988 1.47-3.598z" fill="#fc0"/><path d="M262.537 174.474l-3.72-2.94-2.69-4.425-5.267-4.57-2.745-4.617-5.267-4.713-2.577-4.616-2.8-2.26-1.848-1.78-4.758 4.172-2.593 4.53-3.23 2.93-3.55-2.772-2.685-4.727-9.964-17.695-9.965 17.695-2.684 4.727-3.55 2.773-3.23-2.93-2.594-4.53-4.757-4.173-1.85 1.78-2.8 2.26-2.578 4.616-5.267 4.713-2.745 4.617-5.267 4.57-2.688 4.423-3.712 3.01c1.927 16.402 12.383 29.253 18.08 35.132 6.357 6.173 19.464 14.432 35.492 19.9 16.074-5.35 29.363-13.727 35.72-19.9 5.697-5.88 16.153-18.73 18.092-35.2z" fill="#fff"/><path d="M224.814 81.486l1.527 3.616 6.713.92-4.35 2.622 4.206 2.812-6.117 1.025-1.862 3.277-2.092-3.374-5.823-.826 3.963-2.873-4.08-2.614 6.445-.988 1.47-3.596zM192.78 81.43l1.528 3.617 6.712.92-4.35 2.622 4.206 2.81-6.116 1.026-1.862 3.276-2.093-3.374-5.823-.826 3.963-2.873-4.08-2.615 6.445-.988 1.47-3.596z" fill="#fc0"/><path d="M254.22 197.214l-7.256.022-6.694-.498-8.108-3.977-9.14.056-7.915 3.867-6.243.552-6.243-.552-7.914-3.867-9.14-.055-8.108 3.978-6.694.498-7.345-.1-3.55-6.01.133-.138 10.852 1.795 6.694-.498 8.107-3.977 9.14.055 7.915 3.867 6.243.552 6.243-.552 7.915-3.867 9.14-.055 8.108 3.977 6.695.498 10.562-1.852.14.28-3.538 6.004zM170.224 206.452l7.18-.498 8.11-3.977 9.14.055 7.914 3.867 6.243.55 6.244-.55 7.915-3.868 9.14-.055 8.107 3.977 7.28.498 4.695-5.79-.158-.13-5.032 1.467-6.694-.5-8.11-3.976-9.138.055-7.915 3.866-6.243.552-6.243-.552-7.916-3.867-9.14-.056-8.108 3.977-6.694.5-4.932-1.244-.06.242 4.414 5.454z" fill="#08399c"/></g></svg>