<svg xmlns="http://www.w3.org/2000/svg" height="512" width="512"><defs><clipPath id="a"><path fill-opacity=".67" d="M60.224 0h497.33v497.33H60.224z"/></clipPath></defs><g fill-rule="evenodd" clip-path="url(#a)" transform="matrix(1.03 0 0 1.03 -62 0)" stroke-width="1pt"><path fill="#fff" d="M0 0h994.66v497.33H0z"/><path fill="#de2918" d="M0 331.55h994.66v165.78H0z"/><path fill="#08399c" d="M0 165.78h994.66v165.78H0z"/><path d="M282.04 90.314c-3.905 59.885-6.142 92.702-15.26 107.88-9.86 16.308-19.45 28.248-57.92 42.625-38.47-14.378-48.063-26.318-57.922-42.626-9.118-15.183-11.355-48-15.26-107.88l5.686-1.915c11.445-3.49 19.984-6.3 26.3-7.545 9.047-1.915 16.735-4.08 41.046-4.587 24.312.418 32.038 2.717 41.084 4.632 6.264 1.336 15.17 3.964 26.53 7.522l5.715 1.892z" fill="#de2918"/><path d="M276.435 88.353c-3.693 59.757-6.782 87.123-11.6 100.28-9.35 22.53-24.154 34.88-56.013 46.662-31.858-11.78-46.66-24.133-56.01-46.66-4.82-13.158-7.863-40.446-11.45-100.342 11.203-3.5 19.986-6.233 26.303-7.48 9.046-1.915 16.734-4.17 41.045-4.588 24.312.418 32.09 2.673 41.136 4.588 6.317 1.247 15.282 3.98 26.59 7.54z" fill="#08399c"/><path d="M262.537 174.474l-3.72-2.94-2.69-4.425-5.267-4.57-2.745-4.617-5.267-4.713-2.577-4.616-2.8-2.26-1.848-1.78-4.758 4.172-2.593 4.53-3.23 2.93-3.55-2.772-2.685-4.727-9.964-17.695-9.965 17.695-2.684 4.727-3.55 2.773-3.23-2.93-2.594-4.53-4.757-4.173-1.85 1.78-2.8 2.26-2.578 4.616-5.267 4.713-2.745 4.617-5.267 4.57-2.688 4.423-3.712 3.01c1.927 16.402 12.383 29.253 18.08 35.132 6.357 6.173 19.464 14.432 35.492 19.9 16.074-5.35 29.363-13.727 35.72-19.9 5.697-5.88 16.153-18.73 18.092-35.2z" fill="#fff"/></g></svg>