<svg xmlns="http://www.w3.org/2000/svg" height="512" width="512"><g fill-rule="evenodd" stroke-width="1pt"><path fill="#19b6ef" d="M0 256h512v255.998H0z"/><path fill="#fff" d="M0 0h512v256H0z"/></g><path d="M252.86 361.822c55.944-41.854 116.22-127.256 45.588-172.166-13.158-2.548-27.846-1.784-34.893 3.82-3.734-2.123-6.707-1.953-10.44 2.038-2.633-3.227-5.266-4.67-10.7-3.056-10.865-5.52-20.712-6.707-33.616-3.312-61.464 36.93-23.857 124.54 44.06 172.676z" fill-rule="evenodd" stroke="#7d6c00" stroke-width="1.7767pt" fill="#fd0"/><g stroke="#3a9d4f"><path stroke-linejoin="round" d="M356.335 266.768s6.296-8.467 6.513-8.467c6.297-3.69 6.95-8.467 6.95-8.467 6.295-1.955 4.34-7.166 4.774-7.816 3.042-3.257 1.955-6.515 1.52-7.6 0-.868 2.172-8.902-.868-9.987.144-8.54-5.138-7.745-9.336-2.172-4.488 1.303-5.5 4.995-3.91 9.12-5.862 0-6.08 8.468-4.34 13.244-7.817-.217-3.475 8.468-3.693 8.903-2.605 1.302 1.954 13.68 2.39 13.243zM307.03 339.506l3.91 2.388c.796 2.967 3.546 4.85 5.646 4.344 1.013 4.56 5.934 3.91 9.554 1.303 2.894 4.2 6.442 4.272 11.29 2.824 4.343 3.184 9.99 1.81 13.68-1.52 3.98 3.256 6.658.868 8.684-2.606 3.11.796 5.572.29 6.73-2.823 6.08-.506 3.04-6.224-1.953-8.684 3.98-3.475 8.396-10.64 2.172-11.726-1.954-1.446-5.644-1.156-8.467.22-.723-3.187-5.14-3.983-9.99-.436-1.664-3.547-7.454-1.882-10.204.652-3.473-3.04-7.598-3.04-13.678.433l-17.37 15.633zM307.03 330.18c.724-3.98-2.026-11.22 2.172-11.942-.796-6.66.363-14.186 8.035-13.462 1.23-6.297.94-12.16 8.25-13.03 0 0 5.864-20.408 11.944-6.296 2.388 4.128 1.955 10.856-2.823 9.554.942 5.067-.723 9.48-6.296 9.336 2.46 3.547 1.665 8.397-1.085 10.64l-20.194 15.2zM342.423 304.772c2.098-.434 4.198-.87 6.297-1.302 6.513-4.343 9.12-6.08 12.376-1.304 5.428-1.16 10.64-.58 10.422 3.692 6.443.433 6.37 4.56 5.647 7.815 1.012 5.718-1.448 13.173-5.43 4.126-12.593-7.673-19.76-6.66-39.734-2.172 3.474-3.62 6.95-7.237 10.423-10.856zM345.692 298.465c.22-.217 18.673-4.995 16.72-10.64 5.21-.868 6.297-6.08 6.514-6.08 10.856-3.473 10.204-9.77 10.204-9.77 3.112-3.33 8.613-6.66 7.384-12.594.362-6.73.94-10.855-8.035-6.513-6.733-.652-9.12 3.257-11.075 9.12-3.184-3.763-8.322 2.244-8.9 7.6 0 0-8.252 8.033-8.252 8.25s-6.95 12.81-6.95 12.81l2.39 7.818z" fill-rule="evenodd" stroke-width="1.7767pt" fill="#4fd46b"/><path stroke-linejoin="round" d="M346.12 284.144c-4.417-3.33-6.877-7.31-6.08-11.29-2.896-3.91-4.923-6.297-2.172-9.77 0 0-2.172-7.818-2.172-8.035-5.644-2.172-3.256-6.948-1.737-8.685-2.68-3.692-2.752-7.6-.218-11.074-.073-6.948 4.85-4.342 8.9 0 0 0 6.733 4.778 1.74 9.12 4.993 1.738 6.514 6.078 3.69 7.816 4.343 1.954 4.993 5.863 2.606 8.47 4.415 3.546 2.75 7.96 4.125 11.94-2.894 3.837-5.79 7.673-8.684 11.508z" fill-rule="evenodd" stroke-width="1.7767pt" fill="#4fd46b"/><path stroke-linejoin="round" d="M353.936 251.79c-.217-.216-7.382-9.336-5.428-9.988-.433-2.823-2.604-5.863-1.302-8.684-3.546-3.547-3.62-7.743-.87-11.073-2.387-3.256-1.3-7.6 1.955-10.422-1.01-5.357 2.752-6.586 6.08-7.6 2.462-8.614 6.442-6.37 8.686.216 3.402 2.966 2.896 7.454 1.737 10.857 4.053 2.75 1.592 6.15-.216 7.6-3.547 9.698-7.095 19.395-10.64 29.094z" fill-rule="evenodd" stroke-width="1.7767pt" fill="#4fd46b"/><path stroke-linejoin="round" d="M352.852 205.97l-6.08-6.08c1.57-3.22 2.836-8.9-1.735-11.508-2.522-6.14-15.127-13.752-17.154.87-1.92-4.413-5.935-8.758-8.902-3.69-6.585-5.646-10.13-3.91-6.73 3.255 0 0-3.04 4.776 4.994 8.468.652.65-2.605 8.685 6.948 8.9-1.808 2.752 1.16 6.588 4.995 6.298-2.75 3.402 1.88 7.022 4.775 5.646-1.23 3.762-1.158 5.573 4.126 6.08 1.954 2.243 3.91 4.485 5.863 6.73 1.593 2.17 3.185 4.342 4.777 6.513l4.125-31.483z" fill-rule="evenodd" stroke-width="1.7767pt" fill="#4fd46b"/><path d="M356.548 262.93c.307-.307 11.667-26.406 13.202-34.39M357.774 216.577s1.842 21.187-3.378 36.847M322.773 195.078s23.337 22.415 25.485 31.628M339.047 192.627s1.535 18.424 7.983 36.54M380.196 259.555s-23.337 19.652-34.7 36.847M358.076 328.35s-30.707 4.298-44.217 4.606M347.95 341.55s-38.078-.922-40.842-3.685M328.902 292.104c0 .306-19.344 32.24-19.96 42.682" stroke-linecap="round" stroke-width="2.220875" fill="none"/></g><path d="M252.646 355.657c-40.285-38-81.548-109.312-40.5-145.35 7.294 4.138 15.895.435 27.763-4.247 3.592 3.92 8.163 4.9 12.736 1.96 5.117 2.178 8.928.435 11.433-2.287 11.65 6.752 26.565 10.236 30.05 3.595 40.392 38.323-.547 109.965-41.484 146.33z" fill-rule="evenodd" stroke="#7d6c00" stroke-width="1.7767pt" fill="#65c7ff"/><path d="M252.877 354.555c-17.3-17.394-33.084-36.676-45.17-61.502 2.07-1.74 3.03-2.28 4.12-5.33 6.206.872 9.47 1.09 17.637-.327 1.633 6.097 1.96 11.214 5.88 16.33l8.165-16.003c5.55 1.307 12.41 1.634 17.636 0 3.376 4.573 2.178 11.433 8.166 16.658 3.592-10.56 7.187-11.322 10.78-16.984 5.334 1.85 8.71 1.09 13.065-.327 2.287 2.612 1.144 2.57 5.307 6.406-10.914 21.674-25.88 43.442-45.587 61.08z" fill-rule="evenodd" fill="#8fc753"/><path d="M205.48 175.248c0 1.97-1.598 3.57-3.57 3.57s-3.568-1.6-3.568-3.57 1.598-3.57 3.57-3.57 3.568 1.6 3.568 3.57zM201.756 167.024c0 1.97-1.598 3.57-3.57 3.57s-3.568-1.6-3.568-3.57 1.598-3.57 3.57-3.57 3.568 1.6 3.568 3.57zM197.41 159.42c0 1.972-1.597 3.57-3.568 3.57s-3.57-1.598-3.57-3.57 1.6-3.568 3.57-3.568 3.57 1.598 3.57 3.57zM194.463 151.972c0 1.97-1.598 3.57-3.57 3.57s-3.568-1.6-3.568-3.57 1.598-3.57 3.57-3.57 3.568 1.6 3.568 3.57zM194.928 143.904c0 1.97-1.598 3.57-3.57 3.57s-3.568-1.6-3.568-3.57 1.598-3.57 3.57-3.57 3.568 1.6 3.568 3.57zM213.767 130.56c0 1.97-1.597 3.568-3.568 3.568s-3.57-1.598-3.57-3.57 1.598-3.567 3.57-3.567 3.567 1.598 3.567 3.57z" fill-rule="evenodd" stroke="#000" stroke-width="1.1104375" fill="#fff"/><path d="M206.72 131.8c0 1.972-1.597 3.57-3.568 3.57s-3.57-1.598-3.57-3.57 1.6-3.568 3.57-3.568 3.57 1.598 3.57 3.57zM198.963 136.456c0 1.97-1.598 3.57-3.57 3.57s-3.568-1.6-3.568-3.57 1.598-3.57 3.57-3.57 3.568 1.6 3.568 3.57zM222.86 130.714c0 1.97-1.6 3.57-3.57 3.57s-3.57-1.6-3.57-3.57 1.6-3.57 3.57-3.57 3.57 1.6 3.57 3.57zM232.79 131.49c0 1.97-1.598 3.57-3.57 3.57s-3.568-1.6-3.568-3.57 1.598-3.568 3.57-3.568 3.568 1.597 3.568 3.568zM241.634 131.025c0 1.97-1.597 3.57-3.568 3.57s-3.57-1.6-3.57-3.57 1.6-3.57 3.57-3.57 3.568 1.6 3.568 3.57z" fill-rule="evenodd" stroke="#000" stroke-width="1.1104375" fill="#fff"/><path d="M262.25 125.33c0 5.056-4.098 9.154-9.154 9.154s-9.155-4.098-9.155-9.155 4.1-9.155 9.156-9.155 9.155 4.098 9.155 9.154z" fill-rule="evenodd" stroke="#7d6c00" stroke-width="1.11205196" fill="#fd0"/><path d="M271.892 130.87c0 1.97-1.598 3.57-3.57 3.57s-3.568-1.6-3.568-3.57 1.598-3.57 3.57-3.57 3.568 1.6 3.568 3.57zM281.203 131.645c0 1.97-1.598 3.57-3.57 3.57s-3.567-1.6-3.567-3.57 1.597-3.57 3.568-3.57 3.57 1.6 3.57 3.57zM290.202 131.18c0 1.97-1.598 3.568-3.57 3.568s-3.567-1.598-3.567-3.57 1.597-3.567 3.568-3.567 3.57 1.598 3.57 3.57zM297.805 130.87c0 1.97-1.598 3.57-3.57 3.57s-3.568-1.6-3.568-3.57 1.598-3.57 3.57-3.57 3.568 1.6 3.568 3.57zM307.27 131.956c0 1.97-1.597 3.57-3.568 3.57s-3.57-1.6-3.57-3.57 1.6-3.57 3.57-3.57 3.57 1.6 3.57 3.57zM314.72 136.61c0 1.972-1.6 3.57-3.57 3.57s-3.57-1.598-3.57-3.57 1.6-3.568 3.57-3.568 3.57 1.598 3.57 3.57z" fill-rule="evenodd" stroke="#000" stroke-width="1.1104375" fill="#fff"/><path d="M202.028 161.8c3.04 5.782 6.078 11.788 9.118 17.57h84.51c3.26-5.635 6.523-11.27 9.785-16.903-5.708-3.928-9.636-6.968-17.79-5.115-4.597-6.597-9.638-7.857-17.125-7.116-2.224-2.297-4.226-3.706-8.007-4.225-5.93.15-11.86.298-17.79.446-4.67.444-8.23 4.002-8.452 4.002-7.562-.89-14.455-.668-16.234 6.672-6.893-1.706-11.786.15-18.014 4.67z" fill-rule="evenodd" stroke="#ac0000" stroke-width="1.7767pt" fill="#e40000"/><path d="M317.823 144.37c0 1.97-1.598 3.57-3.57 3.57s-3.568-1.6-3.568-3.57 1.598-3.57 3.57-3.57 3.568 1.6 3.568 3.57zM318.443 152.75c0 1.97-1.598 3.567-3.57 3.567s-3.568-1.597-3.568-3.568 1.598-3.57 3.57-3.57 3.568 1.598 3.568 3.57zM315.805 160.507c0 1.97-1.598 3.57-3.57 3.57s-3.568-1.6-3.568-3.57 1.598-3.57 3.57-3.57 3.568 1.6 3.568 3.57zM312.546 166.87c0 1.97-1.598 3.568-3.57 3.568s-3.568-1.598-3.568-3.57 1.598-3.568 3.57-3.568 3.568 1.598 3.568 3.57zM308.668 174.938c0 1.97-1.598 3.57-3.57 3.57s-3.568-1.6-3.568-3.57 1.598-3.57 3.57-3.57 3.568 1.6 3.568 3.57z" fill-rule="evenodd" stroke="#000" stroke-width="1.1104375" fill="#fff"/><path d="M258.722 164.71c0 2.914-2.362 5.276-5.276 5.276s-5.276-2.363-5.276-5.276 2.362-5.276 5.276-5.276 5.276 2.362 5.276 5.276z" fill-rule="evenodd" stroke="#000" stroke-width="1.1110095" fill="#fff"/><path d="M259.767 152.573c0 3.514-2.848 6.362-6.362 6.362s-6.36-2.848-6.36-6.362 2.847-6.362 6.36-6.362 6.362 2.85 6.362 6.363z" fill-rule="evenodd" stroke="#000" stroke-width="1.1116696499999998" fill="#fff"/><path d="M258.85 140.786c0 3.17-2.572 5.74-5.742 5.74s-5.742-2.57-5.742-5.74 2.57-5.74 5.742-5.74 5.74 2.57 5.74 5.74z" fill-rule="evenodd" stroke="#000" stroke-width="1.11183202" fill="#fff"/><path d="M251.172 116.317c0-.987-.03-4.44.04-4.58l-3.81-.07.108-3.386 3.306-.038.04-2.96h4.688v2.713h3.7l-.075 3.603-3.843-.04-.03 4.83-4.125-.07z" fill-rule="evenodd" stroke="#7d6c00" stroke-width="1.1104375" fill="#fd0"/><path d="M210.716 179.372c-7.563-12.824-18.676-30.257-11.788-37.806 9.55-10.818 31.948-1.038 46.256-7.34 1.038 12.233-2.372 32.47 3.115 36.696-1.707 1.482-3.412 2.966-5.116 4.448-3.115-4.003-8.98-9.367-16.234.222-4.152-3.63-8.87-2.992-11.094 1.835-2.114.284-1.99 1.13-5.14 1.945zM296.176 178.928c7.563-12.824 18.676-30.257 11.788-37.806-9.552-10.818-31.95-1.038-46.256-7.34-1.038 12.233 2.37 32.47-3.115 36.696 1.706 1.482 3.41 2.966 5.115 4.447 4.922-6.92 11.064-7.144 16.234.222 4.152-3.63 8.453-3.132 11.094 1.836 2.114.284 1.99 1.13 5.14 1.945z" stroke="#fd0" stroke-width="3.3313125" fill="none"/><path d="M210.485 188.93c30.394-3.112 58.564-2 84.51 0 1.113-3.186 2.223-6.375 3.336-9.563-29.503-5.337-49.89-6.003-88.51-.666.22 3.41.443 6.822.665 10.23z" fill-rule="evenodd" stroke="#7d6c00" stroke-width="1.7767pt" fill="#fd0"/><path d="M249.715 351.32c.218-1.523.435-2.944.654-4.47 3.02.815 5.327.5 7.837-.427.87-1.308 1.743-2.613 2.614-3.92-.653-.763-1.305-1.524-1.96-2.286-1.722.37-3.136 1.972-4.245 3.37-1.736.08-3.267-.758-4.9-1.085-.544-2.287-1.09-4.57-1.633-6.858-1.62-1.915-4.982-1.78-4.246 1.633l.327 2.613c.653 1.633.897 3.88 1.96 5.103v2.68l3.592 3.648zM251.012 331.813c-2.273 1.127-4.97-.833-7.84-1.96-2.613-.18-4.713 1.998-7.838 1.307.57-1.697 1.96-1.96 2.94-2.94-.717-4.407 1.633-5.88 2.287-5.88.653 0 3.267.654 3.267.654l2.613.327c1.525 2.83 3.662 5.356 4.572 8.493z" fill-rule="evenodd" fill="#c76e2e"/><path d="M235.483 390.48c7.537-12.236 60.008-36.808 109.248-89.866-50.12 48.26-81.445 60.106-122.462 89.57 4.405.1 8.81.198 13.215.296z" fill-rule="evenodd" stroke="#e9bf00" stroke-width="1.7767pt" fill="#ffe100"/><path d="M307.617 334.052c0 2.11-1.71 3.82-3.82 3.82s-3.82-1.71-3.82-3.82 1.71-3.82 3.82-3.82 3.82 1.71 3.82 3.82zM344.29 296.866c0 2.39-1.94 4.33-4.33 4.33-2.392 0-4.33-1.94-4.33-4.33s1.938-4.33 4.33-4.33 4.33 1.938 4.33 4.33zM356.518 265.282c0 2.11-1.71 3.82-3.82 3.82s-3.82-1.71-3.82-3.82 1.71-3.82 3.82-3.82 3.82 1.71 3.82 3.82zM344.537 224.287c0 2.11-1.71 3.82-3.82 3.82s-3.82-1.71-3.82-3.82 1.71-3.82 3.82-3.82 3.82 1.71 3.82 3.82z" fill-rule="evenodd" stroke="#68300e" stroke-width="1.1104375" fill="#9d4916"/><path d="M212.386 287.556v-16.158l-1.643-1.368v-3.834l3.013-.273.547-18.075-1.917-1.096-.273-3.01s2.19.82 2.19.272.548-3.56.548-3.56-1.367-.274-1.367-.82 1.64-1.918 1.64-1.918-.82-.823-1.093-1.37-.82-3.012-.82-3.012l.82-3.013-.547-1.642-1.37-2.465 1.917-1.917s-.547-2.464-.547-3.01 1.368-2.74 1.64-3.014c.277-.274 2.467-3.286 2.467-3.286l4.655-1.096 5.478.823 3.01 1.917.55 4.928s-.55 3.012-.822 3.012-2.464 1.096-2.464 1.096-2.74.274-3.013 0 .823 3.287.823 3.287v3.285l-.274 4.108s0 1.917-.275 2.19c-.274.274-.82 1.097-.82 1.097l-.275 4.108 4.382 1.095-.274 2.466-3.013.275.55 16.704 4.38.82v4.657l-1.917 1.094-.547 16.706h-15.337zM278.942 287.84v-16.157l-1.644-1.368v-3.834l3.013-.273.55-18.074-1.918-1.097-.274-3.01s2.19.82 2.19.272.548-3.56.548-3.56-1.368-.274-1.368-.82 1.64-1.918 1.64-1.918-.82-.823-1.093-1.37-.82-3.01-.82-3.01l.82-3.015-.547-1.643-1.37-2.464 1.917-1.917s-.547-2.464-.547-3.01 1.368-2.74 1.64-3.014c.277-.274 2.467-3.285 2.467-3.285l4.655-1.096 5.478.823 3.012 1.917.547 4.93s-.547 3.01-.82 3.01-2.465 1.096-2.465 1.096-2.74.274-3.014 0 .823 3.287.823 3.287v3.285l-.273 4.108s0 1.917-.275 2.19c-.274.274-.82 1.097-.82 1.097l-.274 4.108 4.38 1.094-.273 2.465-3.013.274.55 16.703 4.38.82v4.658l-1.917 1.095-.547 16.705h-15.336zM245.255 288.39v-16.157l-1.643-1.368v-3.834l3.013-.272.547-18.075-1.917-1.096-.273-3.01s2.19.82 2.19.272.548-3.56.548-3.56-1.368-.275-1.368-.822 1.64-1.917 1.64-1.917-.82-.822-1.093-1.37-.822-3.01-.822-3.01l.82-3.014-.546-1.643-1.37-2.465 1.917-1.917s-.548-2.463-.548-3.01 1.368-2.738 1.64-3.013c.277-.274 2.467-3.286 2.467-3.286l4.654-1.095 5.478.823 3.01 1.917.55 4.928s-.55 3.012-.822 3.012-2.465 1.096-2.465 1.096-2.74.275-3.013 0 .823 3.288.823 3.288v3.285l-.274 4.108s0 1.918-.274 2.192c-.274.273-.82 1.096-.82 1.096l-.275 4.108 4.383 1.094-.274 2.466-3.014.274.55 16.704 4.38.82v4.658l-1.917 1.094-.548 16.705h-15.337z" fill-rule="evenodd" stroke="#a9a9a9" stroke-width="1.1104375" fill="#fff"/><path d="M216.437 287.45v-12.734h7.132v13.243l-7.133-.51zM250.052 288.462l.254-12.99h6.368v12.734l-6.622.256zM283.17 288.213l-.51-12.224 6.878-.256v12.735l-6.368-.257zM218.214 249.748h4.074v6.62h-4.074zM250.568 250.014h5.603v6.368h-5.602zM283.668 250.512h4.84v6.11h-4.84z" fill-rule="evenodd"/><path d="M220.328 220.752c4.382 4.928 4.655 4.928 4.655 4.928M252.913 220.752c.82 1.64 2.19 5.202 3.834 5.476M287.967 221.57s1.37 3.833 3.287 4.38" stroke="#a8a8a8" stroke-width="1.1104375" fill="none"/><path d="M215.673 206.947c12.812-4.142-2.993-12.425-5.618 0-4.145.67-4.68 3.745-13.64 2.41-21.668 35.307-5.62 92.283 57.777 151.266-113.55-96.632-67.404-168.107-35.96-165.41 17.102 1.168 8.475 22.5-2.56 11.734z" fill-rule="evenodd" fill="#b97700"/><path d="M219.244 188.842s10.433 2.81 10.433 7.223M229.674 188.043s7.222 3.208 8.826 6.017M286.652 189.25s-9.23 1.206-11.235 4.013M272.6 190.05s-5.216 4.414-4.816 5.617M271.408 209.31c-.803-.402-4.413-5.217-3.612-11.236M236.088 206.112s2.407-2.81 2.407-8.026M252.948 196.073l.402 11.636M263.378 206.112c0-.803 3.21-8.425-.402-12.037M241.31 192.467s-2.808 7.624-.8 14.043M261.78 199.29s-4.415 1.202-6.422 3.21M242.91 200.48c0-.4 4.815-1.203 6.42 1.606" stroke="#7d6c00" stroke-width="1.7767pt" fill="none"/><path d="M235.324 321.97c.204.103 3.995-.717 3.995-2.562 1.947-1.23.51-4.713.51-4.713l-3.584-.718-4.92-5.533c-.238-1.707.343-3.31-.716-5.122-3.38.89-5.328 3.722-6.457 6.967.82 1.024.924 2.15 2.46 3.072 1.606.274 2.698-.682 4.2-.408.787 1.366.547 2.528.82 3.79 2.05 1.435 2.46 3.485 3.69 5.226zM230.917 298.305v-6.558c-1.57-.07-3.143-.137-4.713-.206-.58.992-1.674 1.47-2.358 2.36-1.093.546-2.185 1.09-3.278 1.638 1.366 1.64 3.04 2.562 4.1 3.382 2.39.717 4.37.717 6.25-.615zM216.153 308.04c-.855-1.434-1.707-2.868-2.562-4.304 1.572-.512 3.553-.307 5.022.308 0 0 1.128 2.665.307 3.688-.41.922-2.87.513-2.767.31zM255.098 312.447c1.367-.682 2.63-1.878 2.87-3.585-1.57-1.81-3.143-3.62-4.714-5.43-1.434-.035-2.87-.07-4.303-.103-.99-1.026-2.595-1.23-3.892-1.23 0 0 1.333 2.048 3.074 2.46 1.23 2.763 6.558 7.887 6.966 7.887zM259.718 313.05c0-.1 4.2-1.535 6.454-1.33-.204-1.742 3.177-5.738 3.177-5.738l5.942 7.787c-1.092.92-3.006.614-4.51.92 0 0-2.868 2.768-3.176 2.87s-5.532 1.33-8.094-.204c-1.127-2.15.307-4.612.206-4.305zM263.093 299.424c.718-2.493.922-4.987 0-8.095 0 0-6.764-.104-6.764 0 0 .1-4.508 2.048-4.508 2.15s1.436 4.407 3.177 3.997c.784 2.288 3.106 1.707 4.2 2.562 1.298-.205 2.595-.412 3.893-.616zM289.637 292.566c-.922 2.836-1.434 5.876-.103 8.608 1.23.204 2.665 1.024 3.792.82l5.43-9.838c-3.757-1.196-6.797-1.06-9.12.41z" fill-rule="evenodd" fill="#c76e2e"/><path d="M291.307 206.06c-12.81-4.143 2.994-12.426 5.618 0 4.145.668 4.682 3.744 13.642 2.408 21.667 35.308 5.618 92.283-57.778 151.266 113.55-96.63 67.403-168.106 35.96-165.41-17.104 1.168-8.476 22.5 2.557 11.735z" fill-rule="evenodd" fill="#b97700"/><path d="M292.604 303.635c-.204 0-3.278 2.253-3.278 2.253-1.47.58-2.937 1.162-4.406 1.743l-4.713.102-1.026-3.278 3.59-3.177c-3.04-.444-6.08.752-8.507 2.973 0 0 0 3.585 2.05 5.328 1.23 1.535 4.816 4.303 4.816 4.303 2.253.445 4.405.07 5.84-1.127 1.877-3.04 3.756-6.078 5.634-9.118zM267.802 335.81c1.538.41 12.092-13.626 12.092-13.626-.922-2.63-2.973-4.543-5.227-5.74 0 0-5.124 6.045-5.225 8.096-.82 1.844-3.175 8.913-2.152 9.837-.103.204-.512 3.072.512 1.434z" fill-rule="evenodd" fill="#c76e2e"/><path stroke-linejoin="round" d="M198.777 338.547c-15.804-13.746-37.128-21.324-66.895-11.04 8.01 3.464 16.67 4.655 24.03 8.442l42.865 2.597z" fill-rule="evenodd" stroke="#004100" stroke-width="1.7767pt" fill="#006800"/><path d="M152.99 328.793c31.175.648 40.268 8.44 38.644 7.142" stroke="#00a400" stroke-linecap="round" stroke-width="2.220875" fill="none"/><path stroke-linejoin="round" d="M199.416 340.164c-9.31 1.84-22.19 10.83-25.978 10.39-10.176-1.183-19.685-5.307-29.55-8.443-4.1-1.3-8.228 0-12.34 0 34.962-16.56 46.87-14.287 67.868-1.946z" fill-rule="evenodd" stroke="#004100" stroke-width="2.220875" fill="#006800"/><path stroke-linejoin="round" d="M176.373 315.805s-11.69 1.622-16.886 1.948c-5.197-.324-12.75-5.165-21.107-13.964-4.362-4.778-14.29-4.222-14.29-4.222 21.976-4.655 39.076-.217 52.283 16.237zM160.453 293.08c-15.913-.974-35.722-15.26-40.267-32.146 0 .215 5.844 3.68 4.87 4.546 26.088 6.602 27.82 11.906 35.397 27.6zM187.086 320.354c2.273-14.397 2.923-23.922-3.896-32.473-5.63-6.495-7.036-10.39-11.04-19.484-1.19 18.943-5.306 34.638 14.936 51.958zM162.07 280.413c11.797-17.21 13.855-30.2 12.014-50.66-.325 1.625-4.22 11.692-4.545 11.692-17.537 11.04-9.742 28.253-7.47 38.968z" fill-rule="evenodd" stroke="#004100" stroke-width="1.7767pt" fill="#006800"/><path stroke-linejoin="round" d="M151.694 197.282c11.798 17.21 9.96 33.448 8.118 53.906-.325-1.623-4.22-11.69-4.545-11.69-17.536-11.04-5.845-31.5-3.573-42.216z" fill-rule="evenodd" stroke="#004100" stroke-width="1.7767pt" fill="#006800"/><path stroke-linejoin="round" d="M161.43 223.914c28.577-14.396 17.535-32.69 22.732-46.76-19.81 14.72-22.406 30.415-22.73 46.76z" fill-rule="evenodd" stroke="#004100" stroke-width="1.7767pt" fill="#006800"/><path d="M165.322 220.343c3.573-10.067 10.717-27.278 11.365-27.278M156.882 241.45c-.648-7.146-4.22-26.305-4.545-28.253" stroke="#00a400" stroke-linecap="round" stroke-width="2.220875" fill="none"/><path stroke-linejoin="round" d="M158.18 273.59c-15.915-.975-33.126-22.73-37.67-39.616-.002.215 5.843 3.68 4.87 4.547 22.84 10.174 25.222 19.376 32.8 35.07zM153.453 258.65c-11.797-17.212-13.854-30.202-12.014-50.66.324 1.624 4.22 11.69 4.544 11.69 17.536 11.04 9.742 28.254 7.47 38.97zM164.025 228.463c29.55-13.098 20.457-26.844 29.225-41.24-19.81 14.72-28.9 24.894-29.225 41.24z" fill-rule="evenodd" stroke="#004100" stroke-width="1.7767pt" fill="#006800"/><path d="M165.322 225.53c12.015-12.015 16.237-22.08 16.237-22.08" stroke="#00a400" stroke-linecap="round" stroke-width="2.220875" fill="none"/><g fill-rule="evenodd"><path d="M270.45 390.764l14.388.293c-47.772-44.737-139.302-64.217-126.575-146.545-13.118 89.28 74.79 97.5 112.186 146.252z" stroke="#e9bf00" stroke-width="1.7767pt" fill="#ffe100"/><path d="M165.766 226.828c0 2.532-2.053 4.584-4.584 4.584s-4.585-2.052-4.585-4.584 2.053-4.584 4.585-4.584 4.584 2.052 4.584 4.584zM162.96 252.04c0 2.39-1.94 4.33-4.33 4.33-2.392 0-4.33-1.94-4.33-4.33 0-2.392 1.938-4.33 4.33-4.33 2.39 0 4.33 1.938 4.33 4.33zM167.027 287.964c0 2.11-1.71 3.82-3.82 3.82s-3.82-1.71-3.82-3.82 1.71-3.82 3.82-3.82 3.82 1.71 3.82 3.82zM200.388 327.69c0 2.11-1.71 3.822-3.82 3.822s-3.82-1.71-3.82-3.82 1.71-3.82 3.82-3.82 3.82 1.71 3.82 3.82zM205.226 339.087c0 2.11-1.71 3.82-3.82 3.82s-3.82-1.71-3.82-3.82 1.71-3.82 3.82-3.82 3.82 1.71 3.82 3.82z" stroke="#68300e" stroke-width="1.1104375" fill="#9d4916"/></g><g fill-rule="evenodd" fill="#fff"><g stroke="#000" stroke-width=".625"><path d="M222.07 372.287c-2.513-2.276-4.11-3.737-5.096-6.217l-14.98-1.63c-.067 2.854-.135 5.706-.204 8.56 6.76-.24 13.52-.475 20.28-.713z" stroke-width="1.1104375"/><path stroke-linejoin="round" d="M112.323 362.195c8.7 1.606 21.82-.803 26.103 4.818 5.143 5.83-16.1 14.797-13.057 19.84 6.57 6.95 13.33 4.085 20.685.24 1.732-3.757 3.07-10.457 4.017-12.45-2.677-6.157-9.87-9.174-8.032-18.473 12.13-4.532 35.445-4.157 37.955-2.41 1.97 3.865.2 5.626.6 8.705-2.007 3.882-7.175 10.463-7.186 13.945 12.724 4.483 16.078-.69 27.526-.387 13.412.165 21.572 3.767 24.484-1.565-1.995-4.602-14.297-.858-18.966-3.815-2.335-.79-3.843-2.667-5.86-4.737s-7.693-2.174-8.542-7.27c2.374-10.895 18.096-9.23 20.667-10.898l40.962 2.81c7.42-.21 11.618 13.145 1.597 17.164-10.02 4.017-39.658-5.96-52.514.897-.665-2.798-9.902-7.028-10.568-7.16-3.936 1.177-11.606.745-11.606.745-1.874 3.48-4.013 6.028-5.888 9.51-8.507-3.73-16.548 2.895-25.838.932 0 0-14.056 1.606-14.457 1.606s-9.237-.803-9.237-.803c-4.685 1.337-9.37 2.677-14.055 4.015 3.346-2.946 6.693-5.89 10.038-8.836-2.944-2.14-5.89-4.284-8.833-6.425z" stroke-width="1.1104375"/><path d="M111.703 360.47c0 2.14-1.733 3.873-3.872 3.873-2.137 0-3.87-1.734-3.87-3.873s1.733-3.872 3.87-3.872c2.14 0 3.873 1.734 3.873 3.872zM110.688 379.624c0 2.14-1.734 3.872-3.872 3.872s-3.872-1.733-3.872-3.872c0-2.138 1.733-3.872 3.872-3.872 2.138 0 3.872 1.734 3.872 3.872z" stroke-width="1.1104375"/></g><g stroke="#000" stroke-width=".625"><path d="M283.987 372.356c2.513-2.276 4.11-3.736 5.096-6.217l14.98-1.63c.067 2.853.134 5.705.204 8.558l-20.28-.712z" stroke-width="1.1104375"/><path stroke-linejoin="round" d="M393.734 362.264c-8.7 1.606-21.82-.803-26.103 4.82-5.143 5.828 16.1 14.795 13.058 19.837-6.57 6.954-13.333 4.088-20.686.243-1.733-3.758-3.07-10.458-4.017-12.45 2.677-6.157 9.87-9.174 8.032-18.473-12.13-4.533-35.445-4.158-37.956-2.41-1.97 3.865-.198 5.625-.6 8.704 2.01 3.882 7.177 10.463 7.188 13.946-12.725 4.482-16.08-.69-27.527-.388-13.41.166-21.57 3.767-24.483-1.565 1.995-4.602 14.297-.858 18.966-3.814 2.334-.79 3.843-2.667 5.86-4.737s7.692-2.175 8.542-7.27c-2.374-10.895-18.096-9.23-20.667-10.9-13.654.938-27.31 1.876-40.963 2.812-7.422-.21-11.618 13.144-1.598 17.163 10.02 4.018 39.658-5.96 52.514.898.666-2.796 9.903-7.027 10.57-7.16 3.934 1.178 11.604.746 11.604.746 1.875 3.48 4.014 6.03 5.888 9.51 8.507-3.73 16.55 2.895 25.84.932 0 0 14.054 1.606 14.456 1.606s9.235-.803 9.235-.803c4.685 1.337 9.37 2.677 14.056 4.014l-10.04-8.835 8.834-6.426z" stroke-width="1.1104375"/><path d="M394.353 360.54c0 2.138 1.734 3.872 3.872 3.872 2.14 0 3.873-1.733 3.873-3.872s-1.734-3.872-3.873-3.872c-2.138 0-3.872 1.733-3.872 3.872zM395.37 379.694c0 2.138 1.732 3.872 3.87 3.872s3.873-1.734 3.873-3.872c0-2.14-1.734-3.872-3.872-3.872s-3.87 1.733-3.87 3.872z" stroke-width="1.1104375"/></g><path d="M252.77 351.286c-3.446-.647-4.672-.462-7.008-.693-1.83 5.622-3.655 11.243-5.483 16.864 8.467.764 16.307.764 16.307.695-5.136-1.04-3.886-16.797-3.816-16.866z"/></g><g font-size="9" font-family="Trebuchet MS" font-weight="bold"><text y="344.274" x="448.605" transform="matrix(1.8 0 0 1.8 -581.2 -248.8)"><tspan y="344.274" x="448.605">L</tspan></text><text y="344.622" x="453.64" transform="matrix(1.8 0 0 1.8 -581.2 -248.8)"><tspan y="344.622" x="453.64">I</tspan></text><text y="345.056" x="456.678" transform="matrix(1.8 0 0 1.8 -581.2 -248.8)"><tspan y="345.056" x="456.678">B</tspan></text><text y="345.49" x="462.58" transform="matrix(1.8 0 0 1.8 -581.2 -248.8)"><tspan y="345.49" x="462.58">E</tspan></text><text y="345.576" x="468.309" transform="matrix(1.8 0 0 1.8 -581.2 -248.8)"><tspan y="345.576" x="468.309">R</tspan></text><text y="345.403" x="473.952" transform="matrix(1.8 0 0 1.8 -581.2 -248.8)"><tspan y="345.403" x="473.952">T</tspan></text><text y="344.535" x="479.247" transform="matrix(1.8 0 0 1.8 -581.2 -248.8)"><tspan y="344.535" x="479.247">A</tspan></text><text y="344.274" x="485.497" transform="matrix(1.8 0 0 1.8 -581.2 -248.8)"><tspan y="344.274" x="485.497">S</tspan></text></g><path d="M171.2 347.594c10.858 1.316 25.992.328 32.57-.002M154.748 310.406c9.212 7.238 29.28 11.513 28.95 11.513M195.212 323.906c-2.96-15.133-6.25-18.752-8.88-28.294M139.286 278.492c15.464 6.908 17.766 11.513 27.635 18.42M172.514 281.786c1.318-18.754 3.95-23.69 8.555-27.967M139.286 251.528c5.594 6.25 24.017 25.66 24.017 25.66M155.738 234.41c6.91 4.934 6.91 22.698 6.91 22.698" stroke="#00a400" stroke-linecap="round" stroke-width="2.25" fill="none"/></svg>