<svg xmlns="http://www.w3.org/2000/svg" height="512" width="512"><defs><clipPath id="a"><path fill-opacity=".67" d="M0 0h512v512H0z"/></clipPath></defs><g fill-rule="evenodd" clip-path="url(#a)"><path fill="#ff0" d="M0 0h1024v504.3H0z"/><path fill="#009d00" d="M0 0h1024v146.29H0zM0 365.71h1024V512H0z"/><path d="M.708 0c1.417 0 255.29 253.03 255.29 253.03L-.002 512 .708 0z" fill="#f10600"/><g stroke-width="1pt"><path d="M463.797 307.188l-31.956-23.924-31.956 23.918 12.248-38.653-31.99-23.88 39.523.04 12.18-38.675 12.182 38.676 39.524-.028-31.995 23.867M266.88 307.188l-31.957-23.924-31.957 23.918 12.248-38.653-31.99-23.88 39.523.04 12.18-38.675 12.182 38.676 39.523-.028-31.996 23.867"/></g></g></svg>