<svg xmlns="http://www.w3.org/2000/svg" height="512" width="512"><defs><clipPath id="a"><path fill-opacity=".67" d="M164.71 0h496.06v496.06H164.71z"/></clipPath></defs><g clip-path="url(#a)" transform="matrix(1.032 0 0 1.032 -170 0)"><path fill-rule="evenodd" fill="#5387f4" d="M0 329.53h825.59v166.54H0zM0 0h825.59v166.54H0z"/><path fill-rule="evenodd" fill="#fff" d="M0 166.54h825.59v162.99H0z"/><g stroke="#000" fill-rule="evenodd"><path d="M490.58 234.24c0 .846-.823 1.53-1.837 1.53s-1.838-.684-1.838-1.53.823-1.53 1.838-1.53 1.837.684 1.837 1.53z" transform="matrix(-.475 -.298 -.372 .582 692.289 232.048)" stroke-width=".529" fill="red"/><path d="M490.58 234.24c0 .846-.823 1.53-1.837 1.53s-1.838-.684-1.838-1.53.823-1.53 1.838-1.53 1.837.684 1.837 1.53z" transform="matrix(-.475 -.298 -.372 .582 695.899 234.882)" stroke-width=".529" fill="red"/><path d="M259.03 105.71s400.32 70.645 414.45 395.62c14.13 324.97-188.39 367.36-259.03 419.16-70.645 51.807-113.03 113.03-146 113.03-32.968 0-80.065-14.13-80.065-14.13s9.42 51.81 75.355 47.1c65.936-4.71 127.16-113.03 164.84-131.87s277.88-98.9 259.04-428.58c-14.13-353.23-423.88-390.91-428.59-400.33z" transform="matrix(-.103 .024 .025 .11 418.701 192.87)" stroke-width="2.553" fill="#006700"/><path d="M320.26 487.2c0 59.825-11.597 108.32-25.903 108.32s-25.903-48.498-25.903-108.32c0-59.825 11.597-108.32 25.903-108.32s25.903 48.498 25.903 108.32z" transform="matrix(-.05 -.004 -.013 .05 396.733 195.482)" stroke-width="2.553" fill="#006700"/><path d="M320.26 487.2c0 59.825-11.597 108.32-25.903 108.32s-25.903-48.498-25.903-108.32c0-59.825 11.597-108.32 25.903-108.32s25.903 48.498 25.903 108.32z" transform="matrix(-.046 -.017 -.023 .047 401.737 201.173)" stroke-width="2.553" fill="#006700"/><path d="M320.26 487.2c0 59.825-11.597 108.32-25.903 108.32s-25.903-48.498-25.903-108.32c0-59.825 11.597-108.32 25.903-108.32s25.903 48.498 25.903 108.32z" transform="matrix(-.004 -.053 -.047 .014 404.321 231.603)" stroke-width="2.553" fill="#006700"/><path d="M320.26 487.2c0 59.825-11.597 108.32-25.903 108.32s-25.903-48.498-25.903-108.32c0-59.825 11.597-108.32 25.903-108.32s25.903 48.498 25.903 108.32z" transform="matrix(-.022 -.045 -.043 .03 407.212 220.02)" stroke-width="2.553" fill="#006700"/><path d="M320.26 487.2c0 59.825-11.597 108.32-25.903 108.32s-25.903-48.498-25.903-108.32c0-59.825 11.597-108.32 25.903-108.32s25.903 48.498 25.903 108.32z" transform="matrix(-.034 -.035 -.037 .039 406.013 211.688)" stroke-width="2.553" fill="#006700"/><path d="M490.58 234.24c0 .846-.823 1.53-1.837 1.53s-1.838-.684-1.838-1.53.823-1.53 1.838-1.53 1.837.684 1.837 1.53z" transform="matrix(-.534 -.173 -.216 .655 673.855 167.717)" stroke-width=".529" fill="red"/><path d="M490.58 234.24c0 .846-.823 1.53-1.837 1.53s-1.838-.684-1.838-1.53.823-1.53 1.838-1.53 1.837.684 1.837 1.53z" transform="matrix(-.534 -.173 -.216 .655 678.058 169.586)" stroke-width=".529" fill="red"/><path d="M320.26 487.2c0 59.825-11.597 108.32-25.903 108.32s-25.903-48.498-25.903-108.32c0-59.825 11.597-108.32 25.903-108.32s25.903 48.498 25.903 108.32z" transform="matrix(-.071 .017 -.001 .077 385.858 185.532)" stroke-width="2.553" fill="#006700"/><path d="M320.26 487.2c0 59.825-11.597 108.32-25.903 108.32s-25.903-48.498-25.903-108.32c0-59.825 11.597-108.32 25.903-108.32s25.903 48.498 25.903 108.32z" transform="matrix(-.069 -.004 -.016 .079 394.636 191.394)" stroke-width="2.553" fill="#006700"/><path d="M320.26 487.2c0 59.825-11.597 108.32-25.903 108.32s-25.903-48.498-25.903-108.32c0-59.825 11.597-108.32 25.903-108.32s25.903 48.498 25.903 108.32z" transform="matrix(-.024 -.073 -.061 .042 408.081 233.792)" stroke-width="2.553" fill="#006700"/><path d="M320.26 487.2c0 59.825-11.597 108.32-25.903 108.32s-25.903-48.498-25.903-108.32c0-59.825 11.597-108.32 25.903-108.32s25.903 48.498 25.903 108.32z" transform="matrix(-.045 -.054 -.05 .062 408.335 215.88)" stroke-width="2.553" fill="#006700"/><path d="M320.26 487.2c0 59.825-11.597 108.32-25.903 108.32s-25.903-48.498-25.903-108.32c0-59.825 11.597-108.32 25.903-108.32s25.903 48.498 25.903 108.32z" transform="matrix(-.058 -.035 -.038 .072 403.969 204.49)" stroke-width="2.553" fill="#006700"/><path d="M320.26 487.2c0 59.825-11.597 108.32-25.903 108.32s-25.903-48.498-25.903-108.32c0-59.825 11.597-108.32 25.903-108.32s25.903 48.498 25.903 108.32z" transform="matrix(-.067 .031 .013 .076 371.26 198.28)" stroke-width="2.553" fill="#006700"/><path d="M320.26 487.2c0 59.825-11.597 108.32-25.903 108.32s-25.903-48.498-25.903-108.32c0-59.825 11.597-108.32 25.903-108.32s25.903 48.498 25.903 108.32z" transform="matrix(-.068 .01 -.002 .081 380.877 202.353)" stroke-width="2.553" fill="#006700"/><path d="M320.26 487.2c0 59.825-11.597 108.32-25.903 108.32s-25.903-48.498-25.903-108.32c0-59.825 11.597-108.32 25.903-108.32s25.903 48.498 25.903 108.32z" transform="matrix(-.036 -.068 -.052 .053 401.504 241.59)" stroke-width="2.553" fill="#006700"/><path d="M320.26 487.2c0 59.825-11.597 108.32-25.903 108.32s-25.903-48.498-25.903-108.32c0-59.825 11.597-108.32 25.903-108.32s25.903 48.498 25.903 108.32z" transform="matrix(-.053 -.045 -.037 .07 398.591 223.849)" stroke-width="2.553" fill="#006700"/><path d="M320.26 487.2c0 59.825-11.597 108.32-25.903 108.32s-25.903-48.498-25.903-108.32c0-59.825 11.597-108.32 25.903-108.32s25.903 48.498 25.903 108.32z" transform="matrix(-.062 -.023 -.024 .079 392.314 213.453)" stroke-width="2.553" fill="#006700"/><path d="M320.26 487.2c0 59.825-11.597 108.32-25.903 108.32s-25.903-48.498-25.903-108.32c0-59.825 11.597-108.32 25.903-108.32s25.903 48.498 25.903 108.32z" transform="matrix(-.049 .057 .04 .065 351.449 214.047)" stroke-width="2.553" fill="#006700"/><path d="M320.26 487.2c0 59.825-11.597 108.32-25.903 108.32s-25.903-48.498-25.903-108.32c0-59.825 11.597-108.32 25.903-108.32s25.903 48.498 25.903 108.32z" transform="matrix(-.058 .038 .028 .076 361.695 213.765)" stroke-width="2.553" fill="#006700"/><path d="M363.45 260.657c-1.614 4.247-2.24 8.247-1.395 8.934s2.838-2.2 4.453-6.447c1.615-4.247 2.24-8.247 1.396-8.934s-2.838 2.2-4.453 6.447z" stroke-width=".19402799999999998" fill="#006700"/><path d="M320.26 487.2c0 59.825-11.597 108.32-25.903 108.32s-25.903-48.498-25.903-108.32c0-59.825 11.597-108.32 25.903-108.32s25.903 48.498 25.903 108.32z" transform="matrix(-.065 -.019 -.007 .082 385.91 226.216)" stroke-width="2.553" fill="#006700"/><path d="M320.26 487.2c0 59.825-11.597 108.32-25.903 108.32s-25.903-48.498-25.903-108.32c0-59.825 11.597-108.32 25.903-108.32s25.903 48.498 25.903 108.32z" transform="matrix(-.065 .005 .007 .083 376.271 219.234)" stroke-width="2.553" fill="#006700"/><path d="M320.26 487.2c0 59.825-11.597 108.32-25.903 108.32s-25.903-48.498-25.903-108.32c0-59.825 11.597-108.32 25.903-108.32s25.903 48.498 25.903 108.32z" transform="matrix(-.035 .081 .065 .057 339.862 229.399)" stroke-width="2.553" fill="#006700"/><path d="M490.58 234.24c0 .846-.823 1.53-1.837 1.53s-1.838-.684-1.838-1.53.823-1.53 1.838-1.53 1.837.684 1.837 1.53z" transform="matrix(-.219 -.315 -.416 .224 597.45 312.073)" stroke-width=".529" fill="red"/><path d="M490.58 234.24c0 .846-.823 1.53-1.837 1.53s-1.838-.684-1.838-1.53.823-1.53 1.838-1.53 1.837.684 1.837 1.53z" transform="matrix(-.219 -.315 -.416 .224 598.956 314.803)" stroke-width=".529" fill="red"/><path d="M320.26 487.2c0 59.825-11.597 108.32-25.903 108.32s-25.903-48.498-25.903-108.32c0-59.825 11.597-108.32 25.903-108.32s25.903 48.498 25.903 108.32z" transform="matrix(-.051 .063 .056 .073 351.052 225.303)" stroke-width="2.553" fill="#006700"/><path d="M320.26 487.2c0 59.825-11.597 108.32-25.903 108.32s-25.903-48.498-25.903-108.32c0-59.825 11.597-108.32 25.903-108.32s25.903 48.498 25.903 108.32z" transform="matrix(-.08 -.031 -.007 .088 396.95 243.438)" stroke-width="2.553" fill="#006700"/><path d="M320.26 487.2c0 59.825-11.597 108.32-25.903 108.32s-25.903-48.498-25.903-108.32c0-59.825 11.597-108.32 25.903-108.32s25.903 48.498 25.903 108.32z" transform="matrix(-.078 .004 .018 .093 381.716 230.104)" stroke-width="2.553" fill="#006700"/><path d="M320.26 487.2c0 59.825-11.597 108.32-25.903 108.32s-25.903-48.498-25.903-108.32c0-59.825 11.597-108.32 25.903-108.32s25.903 48.498 25.903 108.32z" transform="matrix(-.07 .03 .035 .089 368.863 225.949)" stroke-width="2.553" fill="#006700"/><path d="M320.26 487.2c0 59.825-11.597 108.32-25.903 108.32s-25.903-48.498-25.903-108.32c0-59.825 11.597-108.32 25.903-108.32s25.903 48.498 25.903 108.32z" transform="matrix(.01 .097 .094 .016 324.612 260.882)" stroke-width="2.553" fill="#006700"/><path d="M490.58 234.24c0 .846-.823 1.53-1.837 1.53s-1.838-.684-1.838-1.53.823-1.53 1.838-1.53 1.837.684 1.837 1.53z" transform="matrix(-.339 .444 .555 .416 402.665 -25.893)" stroke-width=".529" fill="red"/><path d="M490.58 234.24c0 .846-.823 1.53-1.837 1.53s-1.838-.684-1.838-1.53.823-1.53 1.838-1.53 1.837.684 1.837 1.53z" transform="matrix(-.339 .444 .555 .416 405.819 -29.218)" stroke-width=".529" fill="red"/><path d="M320.26 487.2c0 59.825-11.597 108.32-25.903 108.32s-25.903-48.498-25.903-108.32c0-59.825 11.597-108.32 25.903-108.32s25.903 48.498 25.903 108.32z" transform="matrix(-.016 .091 .093 .036 333.218 250.375)" stroke-width="2.553" fill="#006700"/><path d="M320.26 487.2c0 59.825-11.597 108.32-25.903 108.32s-25.903-48.498-25.903-108.32c0-59.825 11.597-108.32 25.903-108.32s25.903 48.498 25.903 108.32z" transform="matrix(-.094 .018 .041 .088 387.214 240.522)" stroke-width="2.553" fill="#006700"/><path d="M320.26 487.2c0 59.825-11.597 108.32-25.903 108.32s-25.903-48.498-25.903-108.32c0-59.825 11.597-108.32 25.903-108.32s25.903 48.498 25.903 108.32z" transform="matrix(-.073 .05 .067 .077 365.38 236.834)" stroke-width="2.553" fill="#006700"/><path d="M320.26 487.2c0 59.825-11.597 108.32-25.903 108.32s-25.903-48.498-25.903-108.32c0-59.825 11.597-108.32 25.903-108.32s25.903 48.498 25.903 108.32z" transform="matrix(-.052 .07 .082 .064 350.752 240.477)" stroke-width="2.553" fill="#006700"/><g stroke-width="2.553" fill="#006700"><path d="M314.71 506.2c0 45.062-10.064 81.59-22.48 81.59s-22.478-36.53-22.478-81.59c0-45.062 10.064-81.59 22.48-81.59s22.478 36.53 22.478 81.59z" transform="matrix(0 .136 .128 .003 325.253 265.04)"/><path d="M314.71 506.2c0 45.062-10.064 81.59-22.48 81.59s-22.478-36.53-22.478-81.59c0-45.062 10.064-81.59 22.48-81.59s22.478 36.53 22.478 81.59z" transform="matrix(-.099 .083 .081 .107 381.582 219.178)"/><path d="M314.71 506.2c0 45.062-10.064 81.59-22.48 81.59s-22.478-36.53-22.478-81.59c0-45.062 10.064-81.59 22.48-81.59s22.478 36.53 22.478 81.59z" transform="matrix(-.047 .125 .119 .053 344.644 238.343)"/></g><g stroke-width="2.553" fill="#006700"><path d="M314.71 506.2c0 45.062-10.064 81.59-22.48 81.59s-22.478-36.53-22.478-81.59c0-45.062 10.064-81.59 22.48-81.59s22.478 36.53 22.478 81.59z" transform="matrix(-.055 -.03 -.059 .054 434.138 193.954)"/><path d="M314.71 506.2c0 45.062-10.064 81.59-22.48 81.59s-22.478-36.53-22.478-81.59c0-45.062 10.064-81.59 22.48-81.59s22.478 36.53 22.478 81.59z" transform="matrix(.011 -.061 -.08 .011 427.137 228.262)"/><path d="M314.71 506.2c0 45.062-10.064 81.59-22.48 81.59s-22.478-36.53-22.478-81.59c0-45.062 10.064-81.59 22.48-81.59s22.478 36.53 22.478 81.59z" transform="matrix(-.029 -.048 -.075 .039 436.11 208.201)"/></g><path d="M490.58 234.24c0 .846-.823 1.53-1.837 1.53s-1.838-.684-1.838-1.53.823-1.53 1.838-1.53 1.837.684 1.837 1.53z" transform="matrix(-.562 0 0 .689 632.249 91.475)" stroke-width=".529" fill="red"/><path d="M490.58 234.24c0 .846-.823 1.53-1.837 1.53s-1.838-.684-1.838-1.53.823-1.53 1.838-1.53 1.837.684 1.837 1.53z" transform="matrix(-.562 0 0 .689 636.833 91.957)" stroke-width=".529" fill="red"/><path d="M490.58 234.24c0 .846-.823 1.53-1.837 1.53s-1.838-.684-1.838-1.53.823-1.53 1.838-1.53 1.837.684 1.837 1.53z" transform="matrix(-.486 .279 .348 .597 516.154 -4.657)" stroke-width=".529" fill="red"/><path d="M490.58 234.24c0 .846-.823 1.53-1.837 1.53s-1.838-.684-1.838-1.53.823-1.53 1.838-1.53 1.837.684 1.837 1.53z" transform="matrix(-.486 .279 .348 .597 520.363 -6.512)" stroke-width=".529" fill="red"/><path d="M490.58 234.24c0 .846-.823 1.53-1.837 1.53s-1.838-.684-1.838-1.53.823-1.53 1.838-1.53 1.837.684 1.837 1.53z" transform="matrix(-.302 -.239 -.333 .333 607.876 254.634)" stroke-width=".529" fill="red"/><path d="M490.58 234.24c0 .846-.823 1.53-1.837 1.53s-1.838-.684-1.838-1.53.823-1.53 1.838-1.53 1.837.684 1.837 1.53z" transform="matrix(-.302 -.239 -.333 .333 610.108 256.816)" stroke-width=".529" fill="red"/><g><path d="M490.58 234.24c0 .846-.823 1.53-1.837 1.53s-1.838-.684-1.838-1.53.823-1.53 1.838-1.53 1.837.684 1.837 1.53z" transform="matrix(.475 -.298 .372 .582 132.78 232.502)" stroke-width=".529" fill="red"/><path d="M490.58 234.24c0 .846-.823 1.53-1.837 1.53s-1.838-.684-1.838-1.53.823-1.53 1.838-1.53 1.837.684 1.837 1.53z" transform="matrix(.475 -.298 .372 .582 129.17 235.336)" stroke-width=".529" fill="red"/><path d="M259.03 105.71s400.32 70.645 414.45 395.62c14.13 324.97-188.39 367.36-259.03 419.16-70.645 51.807-113.03 113.03-146 113.03-32.968 0-80.065-14.13-80.065-14.13s9.42 51.81 75.355 47.1c65.936-4.71 127.16-113.03 164.84-131.87s277.88-98.9 259.04-428.58c-14.13-353.23-423.88-390.91-428.59-400.33z" transform="matrix(.103 .024 -.025 .11 406.368 193.324)" stroke-width="2.553" fill="#006700"/><path d="M320.26 487.2c0 59.825-11.597 108.32-25.903 108.32s-25.903-48.498-25.903-108.32c0-59.825 11.597-108.32 25.903-108.32s25.903 48.498 25.903 108.32z" transform="matrix(.05 -.004 .013 .05 428.336 195.936)" stroke-width="2.553" fill="#006700"/><path d="M320.26 487.2c0 59.825-11.597 108.32-25.903 108.32s-25.903-48.498-25.903-108.32c0-59.825 11.597-108.32 25.903-108.32s25.903 48.498 25.903 108.32z" transform="matrix(.046 -.017 .023 .047 423.332 201.627)" stroke-width="2.553" fill="#006700"/><path d="M320.26 487.2c0 59.825-11.597 108.32-25.903 108.32s-25.903-48.498-25.903-108.32c0-59.825 11.597-108.32 25.903-108.32s25.903 48.498 25.903 108.32z" transform="matrix(.004 -.053 .047 .014 420.748 232.057)" stroke-width="2.553" fill="#006700"/><path d="M320.26 487.2c0 59.825-11.597 108.32-25.903 108.32s-25.903-48.498-25.903-108.32c0-59.825 11.597-108.32 25.903-108.32s25.903 48.498 25.903 108.32z" transform="matrix(.022 -.045 .043 .03 417.857 220.474)" stroke-width="2.553" fill="#006700"/><path d="M320.26 487.2c0 59.825-11.597 108.32-25.903 108.32s-25.903-48.498-25.903-108.32c0-59.825 11.597-108.32 25.903-108.32s25.903 48.498 25.903 108.32z" transform="matrix(.034 -.035 .037 .039 419.056 212.142)" stroke-width="2.553" fill="#006700"/><path d="M490.58 234.24c0 .846-.823 1.53-1.837 1.53s-1.838-.684-1.838-1.53.823-1.53 1.838-1.53 1.837.684 1.837 1.53z" transform="matrix(.534 -.173 .216 .655 151.214 168.171)" stroke-width=".529" fill="red"/><path d="M490.58 234.24c0 .846-.823 1.53-1.837 1.53s-1.838-.684-1.838-1.53.823-1.53 1.838-1.53 1.837.684 1.837 1.53z" transform="matrix(.534 -.173 .216 .655 147.011 170.04)" stroke-width=".529" fill="red"/><path d="M320.26 487.2c0 59.825-11.597 108.32-25.903 108.32s-25.903-48.498-25.903-108.32c0-59.825 11.597-108.32 25.903-108.32s25.903 48.498 25.903 108.32z" transform="matrix(.071 .017 .001 .077 439.211 185.986)" stroke-width="2.553" fill="#006700"/><path d="M320.26 487.2c0 59.825-11.597 108.32-25.903 108.32s-25.903-48.498-25.903-108.32c0-59.825 11.597-108.32 25.903-108.32s25.903 48.498 25.903 108.32z" transform="matrix(.069 -.004 .016 .079 430.433 191.848)" stroke-width="2.553" fill="#006700"/><path d="M320.26 487.2c0 59.825-11.597 108.32-25.903 108.32s-25.903-48.498-25.903-108.32c0-59.825 11.597-108.32 25.903-108.32s25.903 48.498 25.903 108.32z" transform="matrix(.024 -.073 .061 .042 416.988 234.246)" stroke-width="2.553" fill="#006700"/><path d="M320.26 487.2c0 59.825-11.597 108.32-25.903 108.32s-25.903-48.498-25.903-108.32c0-59.825 11.597-108.32 25.903-108.32s25.903 48.498 25.903 108.32z" transform="matrix(.045 -.054 .05 .062 416.734 216.334)" stroke-width="2.553" fill="#006700"/><path d="M320.26 487.2c0 59.825-11.597 108.32-25.903 108.32s-25.903-48.498-25.903-108.32c0-59.825 11.597-108.32 25.903-108.32s25.903 48.498 25.903 108.32z" transform="matrix(.058 -.035 .038 .072 421.1 204.944)" stroke-width="2.553" fill="#006700"/><path d="M320.26 487.2c0 59.825-11.597 108.32-25.903 108.32s-25.903-48.498-25.903-108.32c0-59.825 11.597-108.32 25.903-108.32s25.903 48.498 25.903 108.32z" transform="matrix(.067 .031 -.013 .076 453.809 198.734)" stroke-width="2.553" fill="#006700"/><path d="M320.26 487.2c0 59.825-11.597 108.32-25.903 108.32s-25.903-48.498-25.903-108.32c0-59.825 11.597-108.32 25.903-108.32s25.903 48.498 25.903 108.32z" transform="matrix(.068 .01 .002 .081 444.192 202.807)" stroke-width="2.553" fill="#006700"/><path d="M320.26 487.2c0 59.825-11.597 108.32-25.903 108.32s-25.903-48.498-25.903-108.32c0-59.825 11.597-108.32 25.903-108.32s25.903 48.498 25.903 108.32z" transform="matrix(.036 -.068 .052 .053 423.565 242.044)" stroke-width="2.553" fill="#006700"/><path d="M320.26 487.2c0 59.825-11.597 108.32-25.903 108.32s-25.903-48.498-25.903-108.32c0-59.825 11.597-108.32 25.903-108.32s25.903 48.498 25.903 108.32z" transform="matrix(.053 -.045 .037 .07 426.478 224.303)" stroke-width="2.553" fill="#006700"/><path d="M320.26 487.2c0 59.825-11.597 108.32-25.903 108.32s-25.903-48.498-25.903-108.32c0-59.825 11.597-108.32 25.903-108.32s25.903 48.498 25.903 108.32z" transform="matrix(.062 -.023 .024 .079 432.755 213.907)" stroke-width="2.553" fill="#006700"/><path d="M320.26 487.2c0 59.825-11.597 108.32-25.903 108.32s-25.903-48.498-25.903-108.32c0-59.825 11.597-108.32 25.903-108.32s25.903 48.498 25.903 108.32z" transform="matrix(.049 .057 -.04 .065 473.62 214.501)" stroke-width="2.553" fill="#006700"/><path d="M320.26 487.2c0 59.825-11.597 108.32-25.903 108.32s-25.903-48.498-25.903-108.32c0-59.825 11.597-108.32 25.903-108.32s25.903 48.498 25.903 108.32z" transform="matrix(.058 .038 -.028 .076 463.374 214.219)" stroke-width="2.553" fill="#006700"/><path d="M461.823 261.11c1.615 4.248 2.24 8.248 1.396 8.935s-2.84-2.2-4.454-6.448c-1.615-4.247-2.24-8.247-1.396-8.934s2.838 2.2 4.453 6.448z" stroke-width=".19402799999999998" fill="#006700"/><path d="M320.26 487.2c0 59.825-11.597 108.32-25.903 108.32s-25.903-48.498-25.903-108.32c0-59.825 11.597-108.32 25.903-108.32s25.903 48.498 25.903 108.32z" transform="matrix(.065 -.019 .007 .082 439.159 226.67)" stroke-width="2.553" fill="#006700"/><path d="M320.26 487.2c0 59.825-11.597 108.32-25.903 108.32s-25.903-48.498-25.903-108.32c0-59.825 11.597-108.32 25.903-108.32s25.903 48.498 25.903 108.32z" transform="matrix(.065 .005 -.007 .083 448.798 219.688)" stroke-width="2.553" fill="#006700"/><path d="M320.26 487.2c0 59.825-11.597 108.32-25.903 108.32s-25.903-48.498-25.903-108.32c0-59.825 11.597-108.32 25.903-108.32s25.903 48.498 25.903 108.32z" transform="matrix(.035 .081 -.065 .057 485.207 229.853)" stroke-width="2.553" fill="#006700"/><path d="M490.58 234.24c0 .846-.823 1.53-1.837 1.53s-1.838-.684-1.838-1.53.823-1.53 1.838-1.53 1.837.684 1.837 1.53z" transform="matrix(.219 -.315 .416 .224 227.619 312.527)" stroke-width=".529" fill="red"/><path d="M490.58 234.24c0 .846-.823 1.53-1.837 1.53s-1.838-.684-1.838-1.53.823-1.53 1.838-1.53 1.837.684 1.837 1.53z" transform="matrix(.219 -.315 .416 .224 226.113 315.257)" stroke-width=".529" fill="red"/><path d="M320.26 487.2c0 59.825-11.597 108.32-25.903 108.32s-25.903-48.498-25.903-108.32c0-59.825 11.597-108.32 25.903-108.32s25.903 48.498 25.903 108.32z" transform="matrix(.051 .063 -.056 .073 474.017 225.757)" stroke-width="2.553" fill="#006700"/><path d="M320.26 487.2c0 59.825-11.597 108.32-25.903 108.32s-25.903-48.498-25.903-108.32c0-59.825 11.597-108.32 25.903-108.32s25.903 48.498 25.903 108.32z" transform="matrix(.08 -.031 .007 .088 428.119 243.892)" stroke-width="2.553" fill="#006700"/><path d="M320.26 487.2c0 59.825-11.597 108.32-25.903 108.32s-25.903-48.498-25.903-108.32c0-59.825 11.597-108.32 25.903-108.32s25.903 48.498 25.903 108.32z" transform="matrix(.078 .004 -.018 .093 443.353 230.558)" stroke-width="2.553" fill="#006700"/><path d="M320.26 487.2c0 59.825-11.597 108.32-25.903 108.32s-25.903-48.498-25.903-108.32c0-59.825 11.597-108.32 25.903-108.32s25.903 48.498 25.903 108.32z" transform="matrix(.07 .03 -.035 .089 456.206 226.403)" stroke-width="2.553" fill="#006700"/><path d="M320.26 487.2c0 59.825-11.597 108.32-25.903 108.32s-25.903-48.498-25.903-108.32c0-59.825 11.597-108.32 25.903-108.32s25.903 48.498 25.903 108.32z" transform="matrix(-.01 .097 -.094 .016 500.457 261.336)" stroke-width="2.553" fill="#006700"/><path d="M490.58 234.24c0 .846-.823 1.53-1.837 1.53s-1.838-.684-1.838-1.53.823-1.53 1.838-1.53 1.837.684 1.837 1.53z" transform="matrix(.339 .444 -.555 .416 422.404 -25.439)" stroke-width=".529" fill="red"/><path d="M490.58 234.24c0 .846-.823 1.53-1.837 1.53s-1.838-.684-1.838-1.53.823-1.53 1.838-1.53 1.837.684 1.837 1.53z" transform="matrix(.339 .444 -.555 .416 419.25 -28.764)" stroke-width=".529" fill="red"/><path d="M320.26 487.2c0 59.825-11.597 108.32-25.903 108.32s-25.903-48.498-25.903-108.32c0-59.825 11.597-108.32 25.903-108.32s25.903 48.498 25.903 108.32z" transform="matrix(.016 .091 -.093 .036 491.851 250.829)" stroke-width="2.553" fill="#006700"/><path d="M320.26 487.2c0 59.825-11.597 108.32-25.903 108.32s-25.903-48.498-25.903-108.32c0-59.825 11.597-108.32 25.903-108.32s25.903 48.498 25.903 108.32z" transform="matrix(.094 .018 -.041 .088 437.856 240.976)" stroke-width="2.553" fill="#006700"/><path d="M320.26 487.2c0 59.825-11.597 108.32-25.903 108.32s-25.903-48.498-25.903-108.32c0-59.825 11.597-108.32 25.903-108.32s25.903 48.498 25.903 108.32z" transform="matrix(.073 .05 -.067 .077 459.689 237.288)" stroke-width="2.553" fill="#006700"/><path d="M320.26 487.2c0 59.825-11.597 108.32-25.903 108.32s-25.903-48.498-25.903-108.32c0-59.825 11.597-108.32 25.903-108.32s25.903 48.498 25.903 108.32z" transform="matrix(.052 .07 -.082 .064 474.317 240.931)" stroke-width="2.553" fill="#006700"/><g stroke-width="2.553" fill="#006700"><path d="M314.71 506.2c0 45.062-10.064 81.59-22.48 81.59s-22.478-36.53-22.478-81.59c0-45.062 10.064-81.59 22.48-81.59s22.478 36.53 22.478 81.59z" transform="matrix(0 .136 -.128 .003 499.816 265.494)"/><path d="M314.71 506.2c0 45.062-10.064 81.59-22.48 81.59s-22.478-36.53-22.478-81.59c0-45.062 10.064-81.59 22.48-81.59s22.478 36.53 22.478 81.59z" transform="matrix(.099 .083 -.081 .107 443.487 219.632)"/><path d="M314.71 506.2c0 45.062-10.064 81.59-22.48 81.59s-22.478-36.53-22.478-81.59c0-45.062 10.064-81.59 22.48-81.59s22.478 36.53 22.478 81.59z" transform="matrix(.047 .125 -.119 .053 480.425 238.797)"/></g><g stroke-width="2.553" fill="#006700"><path d="M314.71 506.2c0 45.062-10.064 81.59-22.48 81.59s-22.478-36.53-22.478-81.59c0-45.062 10.064-81.59 22.48-81.59s22.478 36.53 22.478 81.59z" transform="matrix(.055 -.03 .059 .054 390.931 194.408)"/><path d="M314.71 506.2c0 45.062-10.064 81.59-22.48 81.59s-22.478-36.53-22.478-81.59c0-45.062 10.064-81.59 22.48-81.59s22.478 36.53 22.478 81.59z" transform="matrix(-.011 -.061 .08 .011 397.932 228.716)"/><path d="M314.71 506.2c0 45.062-10.064 81.59-22.48 81.59s-22.478-36.53-22.478-81.59c0-45.062 10.064-81.59 22.48-81.59s22.478 36.53 22.478 81.59z" transform="matrix(.029 -.048 .075 .039 388.959 208.655)"/></g><path d="M490.58 234.24c0 .846-.823 1.53-1.837 1.53s-1.838-.684-1.838-1.53.823-1.53 1.838-1.53 1.837.684 1.837 1.53z" transform="matrix(.562 0 0 .689 192.82 91.929)" stroke-width=".529" fill="red"/><path d="M490.58 234.24c0 .846-.823 1.53-1.837 1.53s-1.838-.684-1.838-1.53.823-1.53 1.838-1.53 1.837.684 1.837 1.53z" transform="matrix(.562 0 0 .689 188.236 92.411)" stroke-width=".529" fill="red"/><path d="M490.58 234.24c0 .846-.823 1.53-1.837 1.53s-1.838-.684-1.838-1.53.823-1.53 1.838-1.53 1.837.684 1.837 1.53z" transform="matrix(.486 .279 -.348 .597 308.915 -4.203)" stroke-width=".529" fill="red"/><path d="M490.58 234.24c0 .846-.823 1.53-1.837 1.53s-1.838-.684-1.838-1.53.823-1.53 1.838-1.53 1.837.684 1.837 1.53z" transform="matrix(.486 .279 -.348 .597 304.706 -6.058)" stroke-width=".529" fill="red"/><path d="M490.58 234.24c0 .846-.823 1.53-1.837 1.53s-1.838-.684-1.838-1.53.823-1.53 1.838-1.53 1.837.684 1.837 1.53z" transform="matrix(.302 -.239 .333 .333 217.193 255.088)" stroke-width=".529" fill="red"/><path d="M490.58 234.24c0 .846-.823 1.53-1.837 1.53s-1.838-.684-1.838-1.53.823-1.53 1.838-1.53 1.837.684 1.837 1.53z" transform="matrix(.302 -.239 .333 .333 214.961 257.27)" stroke-width=".529" fill="red"/></g><g stroke-width=".375" fill="#5387f4"><path d="M411.36 319.5l.037 5.258c10.21-.517 5.263 6.977 7.03 11.223l2.254-2.826 3.123 2.803c-.25-4.908 2.748-17.395-12.443-16.457z" transform="matrix(.749 0 0 .742 103.171 73.972)"/><path d="M411.36 319.5l.037 5.258c10.21-.517 5.263 6.977 7.03 11.223l2.254-2.826 3.123 2.803c-.25-4.908 2.748-17.395-12.443-16.457z" transform="matrix(-.749 0 0 .742 722.12 74.133)"/><path d="M427.88 303.13c.325 1.9-.45 11.372-.865 13.64-.537 1.924-.447 6.71-10.395 7.148-4.776.21-3.898-4.548-3.68-4.548.215 0 1.948 1.733 3.897 0 1.948-1.732-.444-17.53 1.515-19.488 2.156-2.155 9.985 1.496 9.528 3.248z" transform="matrix(.672 .329 -.332 .666 240.918 -37.313)"/><path d="M427.88 303.13c-2.057-.264-3.16-.732-3.68 1.516-2.053 9.068 2.368 17.1-7.58 19.272-4.665 1.04-3.898-4.548-3.68-4.548.215 0 1.948 1.733 3.897 0 1.948-1.732-.444-17.53 1.515-19.488 2.156-2.155 9.985 1.496 9.528 3.248z" transform="matrix(.672 .329 -.332 .666 240.918 -37.313)"/><path d="M427.88 303.13c.325 1.9-.45 11.372-.865 13.64-.537 1.924-.447 6.71-10.395 7.148-4.776.21-3.898-4.548-3.68-4.548.215 0 1.948 1.733 3.897 0 1.948-1.732-.444-17.53 1.515-19.488 2.156-2.155 9.985 1.496 9.528 3.248z" transform="matrix(-.672 .329 .332 .666 585.585 -37.313)"/><path d="M427.88 303.13c-2.057-.264-3.16-.732-3.68 1.516-2.053 9.068 2.368 17.1-7.58 19.272-4.665 1.04-3.898-4.548-3.68-4.548.215 0 1.948 1.733 3.897 0 1.948-1.732-.444-17.53 1.515-19.488 2.156-2.155 9.985 1.496 9.528 3.248z" transform="matrix(-.672 .329 .332 .666 585.585 -37.313)"/><path d="M411.57 319.06l-.18 6.774 5.08-.037.613-6.737h-5.513z" transform="matrix(.749 0 0 .742 102.847 73.972)"/></g></g><path d="M409.69 276.93s-14.322 12.064-14.322 20.725c.306 3.457 3.17 6.98 8.407 9.52-2.418-3.586-2.747-6.52-2.747-9.93.306-5.86 8.46-12.932 8.46-12.932l.202-7.383z" fill-rule="evenodd" transform="matrix(-.557 0 0 .561 640.36 115.47)" stroke="#000" stroke-width=".375" fill="#5387f4"/><g stroke="#000" fill-rule="evenodd"><path transform="matrix(.001 -.799 -.669 -.102 128.901 338.569)" stroke-width=".28" fill="#ffd200" d="M172.65-427.57h49.93v2.055h-49.93z"/><path d="M368.98-419.45s-40.71-27.717-40.71.866c0 28.582 39.844.866 40.71-.866zm-7.795-.18s-28.583-19.343-28.583.603c0 19.945 27.975.604 28.583-.604z" transform="matrix(-.091 -.007 .003 .065 448.398 234.626)" stroke-width="2.684"/><path d="M368.98-419.45s-40.71-27.717-40.71.866c0 28.582 39.844.866 40.71-.866zm-7.795-.18s-28.583-19.343-28.583.603c0 19.945 27.975.604 28.583-.604z" transform="matrix(.088 -.01 -.012 -.065 376.711 181.761)" stroke-width="2.684"/><path d="M422.29-165.7l2.45-.306s1.766 2.602 3.675 6.737c1.68 4.332 3.368 11.33 4.9 27.256-4.594-.307-21.437 1.53-21.437 1.53s.236-19.168 6.125-26.028c2.757-2.906 4.593-8.575 4.287-9.188z" transform="matrix(.674 0 0 .799 128.901 338.569)" stroke-width=".279" fill="#5387f4"/><path d="M422.29-165.7l2.45-.306s1.766 2.602 3.675 6.737c1.68 4.332-4.9 11.637-3.37 27.562-4.592-.307-13.167 1.225-13.167 1.225s.236-19.17 6.125-26.03c2.757-2.905 4.593-8.574 4.287-9.187z" transform="matrix(.674 0 0 .799 128.901 338.569)" stroke-width=".279" fill="#fff"/><path d="M422.29-165.7l2.45-.306s-.613 7.962-2.756 11.943c-2.144 3.98-3.37 22.967-3.063 22.967.308 0-7.042.613-7.042.613s.236-19.17 6.125-26.03c2.757-2.905 4.593-8.574 4.287-9.187z" transform="matrix(.674 0 0 .799 128.901 338.569)" stroke-width=".279" fill="#5387f4"/></g><path d="M409.69 276.93s-14.322 12.064-14.322 20.725c.306 3.457 3.17 6.98 8.407 9.52-2.418-3.586-2.747-6.52-2.747-9.93.306-5.86 8.46-12.932 8.46-12.932l.202-7.383z" fill-rule="evenodd" transform="matrix(.573 0 0 .546 180.32 119.86)" stroke="#000" stroke-width=".375" fill="#5387f4"/><g stroke="#000" fill-rule="evenodd"><path d="M407.48-248.03l106.3-106.3s-27.516 220.02-88.583 265.75c0 0-53.15 24.117-53.15-.135l35.433-159.31z" transform="matrix(-.268 0 0 .195 512.17 287.48)" stroke-width="1pt" fill="#5387f4"/><path d="M407.48-248.03l70.866-70.867s-35.433 230.31-106.3 230.31v-.135l35.433-159.31z" transform="matrix(-.268 0 0 .195 512.17 287.48)" stroke-width="1pt" fill="#fff"/><path d="M407.48-248.03l35.433-35.434s-35.433 194.88-70.866 194.88v-.135l35.433-159.31z" transform="matrix(-.268 0 0 .195 512.17 287.48)" stroke-width="1pt" fill="#5387f4"/><path transform="matrix(-.193 -.135 -.186 .14 512.17 346.21)" stroke-width="1.3" fill="#ffd200" d="M678.85-116.49h177.17v7.323H678.85z"/><path d="M368.98-419.45s-40.71-27.717-40.71.866c0 28.582 39.844.866 40.71-.866zm-7.795-.18s-28.583-19.343-28.583.603c0 19.945 27.975.604 28.583-.604z" transform="matrix(-.104 .051 .044 .048 425.472 216.303)" stroke-width="1pt"/><path d="M368.98-419.45s-40.71-27.717-40.71.866c0 28.582 39.844.866 40.71-.866zm-7.795-.18s-28.583-19.343-28.583.603c0 19.945 27.975.604 28.583-.604z" transform="matrix(.09 -.063 -.055 -.042 313.113 221.043)" stroke-width="1pt"/><path d="M407.48-248.03l106.3-53.15S496.063-79.79 407.48-79.79c-53.15 0-70.866-70.866-70.866-70.866l70.866-97.378z" transform="matrix(-.268 0 0 .195 507.422 296.128)" stroke-width="1pt" fill="#5387f4"/><path d="M407.48-248.03l70.866-35.434c0 35.434-17.716 185.96-70.866 185.96-35.433 0-70.866-53.15-70.866-53.15l70.866-97.378z" transform="matrix(-.268 0 0 .195 507.422 296.128)" stroke-width="1pt" fill="#fff"/><path d="M407.48-248.03l35.433-17.717c0 79.662-17.716 150.53-53.15 150.53-17.716 0-53.15-35.433-53.15-35.433l70.867-97.378z" transform="matrix(-.268 0 0 .195 507.422 296.128)" stroke-width="1pt" fill="#5387f4"/><path transform="matrix(-.24 -.087 -.12 .174 512.17 346.21)" stroke-width="1.3" fill="#ffd200" d="M569.18-267.74h177.17v7.323H569.18z"/><path d="M368.98-419.45s-40.71-27.717-40.71.866c0 28.582 39.844.866 40.71-.866zm-7.795-.18s-28.583-19.343-28.583.603c0 19.945 27.975.604 28.583-.604z" transform="matrix(-.078 .072 .062 .036 420.257 224.397)" stroke-width="1pt"/><path d="M368.98-419.45s-40.71-27.717-40.71.866c0 28.582 39.844.866 40.71-.866zm-7.795-.18s-28.583-19.343-28.583.603c0 19.945 27.975.604 28.583-.604z" transform="matrix(.06 -.08 -.069 -.027 315.04 253.47)" stroke-width="1pt"/></g><g stroke="#000" fill-rule="evenodd"><path d="M407.48-248.03l106.3-106.3s-27.516 220.02-88.583 265.75c0 0-53.15 24.117-53.15-.135l35.433-159.31z" transform="matrix(.264 0 0 .195 316.86 287.48)" stroke-width="1pt" fill="#5387f4"/><path d="M407.48-248.03l70.866-70.867s-35.433 230.31-106.3 230.31v-.135l35.433-159.31z" transform="matrix(.264 0 0 .195 316.86 287.48)" stroke-width="1pt" fill="#fff"/><path d="M407.48-248.03l35.433-35.434s-35.433 194.88-70.866 194.88v-.135l35.433-159.31z" transform="matrix(.264 0 0 .195 316.86 287.48)" stroke-width="1pt" fill="#5387f4"/><path transform="matrix(.19 -.135 .183 .14 316.86 346.21)" stroke-width="1.3" fill="#ffd200" d="M678.85-116.49h177.17v7.323H678.85z"/><path d="M368.98-419.45s-40.71-27.717-40.71.866c0 28.582 39.844.866 40.71-.866zm-7.795-.18s-28.583-19.343-28.583.603c0 19.945 27.975.604 28.583-.604z" transform="matrix(.102 .051 -.044 .048 402.264 216.303)" stroke-width="1pt"/><path d="M368.98-419.45s-40.71-27.717-40.71.866c0 28.582 39.844.866 40.71-.866zm-7.795-.18s-28.583-19.343-28.583.603c0 19.945 27.975.604 28.583-.604z" transform="matrix(-.089 -.063 .054 -.042 512.946 221.043)" stroke-width="1pt"/><path d="M407.48-248.03l106.3-53.15S496.063-79.79 407.48-79.79c-53.15 0-70.866-70.866-70.866-70.866l70.866-97.378z" transform="matrix(.264 0 0 .195 321.537 296.128)" stroke-width="1pt" fill="#5387f4"/><path d="M407.48-248.03l70.866-35.434c0 35.434-17.716 185.96-70.866 185.96-35.433 0-70.866-53.15-70.866-53.15l70.866-97.378z" transform="matrix(.264 0 0 .195 321.537 296.128)" stroke-width="1pt" fill="#fff"/><path d="M407.48-248.03l35.433-17.717c0 79.662-17.716 150.53-53.15 150.53-17.716 0-53.15-35.433-53.15-35.433l70.867-97.378z" transform="matrix(.264 0 0 .195 321.537 296.128)" stroke-width="1pt" fill="#5387f4"/><path transform="matrix(.236 -.087 .118 .174 316.86 346.21)" stroke-width="1.3" fill="#ffd200" d="M569.18-267.74h177.17v7.323H569.18z"/><path d="M368.98-419.45s-40.71-27.717-40.71.866c0 28.582 39.844.866 40.71-.866zm-7.795-.18s-28.583-19.343-28.583.603c0 19.945 27.975.604 28.583-.604z" transform="matrix(.077 .072 -.061 .036 407.401 224.397)" stroke-width="1pt"/><path d="M368.98-419.45s-40.71-27.717-40.71.866c0 28.582 39.844.866 40.71-.866zm-7.795-.18s-28.583-19.343-28.583.603c0 19.945 27.975.604 28.583-.604z" transform="matrix(-.059 -.08 .068 -.027 511.048 253.47)" stroke-width="1pt"/></g><g stroke-linejoin="bevel" stroke="#000" stroke-width=".168"><path d="M496.06 627.16l17.717-17.716 17.716 17.716H496.06z" fill-rule="evenodd" transform="matrix(2.013 0 0 3.436 -619.997 -1879.193)" fill="#ffd200"/><path d="M496.06 627.16l17.717-17.716 17.716 17.716H496.06z" fill-rule="evenodd" transform="matrix(1.813 0 0 3.114 -517.706 -1678.63)" fill="#0ff"/><path d="M419.84 239.14c0 3.89-3.222 7.043-7.196 7.043-3.975 0-7.197-3.153-7.197-7.043s3.222-7.043 7.197-7.043c3.974 0 7.196 3.153 7.196 7.043z" fill-rule="evenodd" fill="#ffd200" transform="matrix(.749 0 0 .742 105.14 70.338)"/><path d="M462.73 583.74v34.146" transform="matrix(.181 0 0 .18 330.334 145.354)" fill="none"/><g fill-rule="evenodd"><path d="M460.63 219.69c-35.433 0-61.25 6.505-83.044 14.145l5.54-9.58 5.53-9.594 5.54-9.595 5.54-9.578 5.53-9.595 5.54-9.58 6.13-9.768c8.26-7.257 25.98-10.652 43.69-10.652 17.72 0 35.44 3.586 44.3 10.826l5.54 9.595 5.53 9.58 5.54 9.594 5.54 9.578 5.53 9.596 5.54 9.596 5.53 9.58c-22.972-7.64-47.613-14.146-83.046-14.146z" transform="matrix(.181 0 0 .18 330.567 202.851)" fill="#c453d7"/><path d="M460.63 212.93c-35.548-.05-75.28 10.597-77.504 11.33l5.53-9.596 5.54-9.596 5.54-9.578 5.53-9.595 5.54-9.58 6.13-9.768c8.26-7.257 25.98-10.652 43.69-10.652 17.72 0 35.44 3.586 44.3 10.826l5.54 9.596 5.53 9.58 5.54 9.594 5.54 9.578 5.53 9.596 5.54 9.595s-42.083-11.33-77.516-11.33z" transform="matrix(.181 0 0 .18 330.569 202.852)" fill="#5000c1"/><path d="M460.63 205.27c-26.248-.11-68.686 7.14-71.68 8.504l5.246-8.713 5.54-9.577 5.53-9.595 5.54-9.58 6.13-9.768c8.26-7.257 25.98-10.652 43.69-10.652 17.72 0 35.44 3.586 44.3 10.826l5.54 9.595 5.53 9.578 5.54 9.595 5.54 9.578 5.53 9.597s-36.543-9.387-71.976-9.387z" transform="matrix(.181 0 0 .18 330.567 202.851)" fill="#0053d7"/><path d="M460.63 197.32c-34.802-.07-63.717 6.63-66.434 7.74l5.54-9.58 5.53-9.594 5.54-9.58 6.13-9.768c8.26-7.257 25.98-10.652 43.69-10.652 17.72 0 35.44 3.586 44.3 10.826l5.54 9.595 5.53 9.58 5.54 9.594 5.54 9.58s-31.013-7.74-66.446-7.74z" transform="matrix(.181 0 0 .18 330.564 202.851)" fill="#009f9f"/><path d="M460.63 190.56c-35.605-.123-57.963 4.465-60.894 4.93l5.53-9.594 5.54-9.58 6.13-9.768c8.26-7.257 25.98-10.652 43.69-10.652 17.72 0 35.44 3.586 44.3 10.826l5.54 9.595 5.53 9.58 5.54 9.594s-25.473-4.93-60.906-4.93z" transform="matrix(.181 0 0 .18 330.567 202.85)" fill="#ff0"/><path d="M460.34 181.72c-31.014-.67-53.786 4.25-55.07 4.167l5.54-9.58 6.13-9.768c8.26-7.258 25.98-10.653 43.69-10.653 17.72 0 35.44 3.586 44.3 10.826l5.54 9.595 5.53 9.58s-20.227-4.168-55.66-4.168z" transform="matrix(.181 0 0 .18 330.564 202.85)" fill="#f50"/><path d="M461.51 171.42c-31.13.257-47.247 4.34-50.707 4.89l6.13-9.768c8.26-7.257 25.98-10.652 43.69-10.652 17.72 0 35.44 3.586 44.3 10.826l5.54 9.595s-13.52-4.89-48.953-4.89z" transform="matrix(.181 0 0 .18 330.562 202.853)" fill="#ff0b00"/></g><path d="M496.06 627.16l4.983-4.983h25.467l4.983 4.983H496.06z" fill-rule="evenodd" transform="matrix(1.813 0 0 3.114 -517.706 -1678.63)" fill="#4363ff"/><path d="M438.01 565.49c.41 0 .727-1.87 1.766-3.532 2.222-1.61 4.568-2.87 7.653-3.533 1.664-.832 5.08-.588 7.652-.588 3.61.324 3.837 1.865 5.888 4.12.902 1.838 3.038 4.39 4.12 7.065 1.173 1.42 2.108 3.626 2.944 5.3.855 1.803 1.765 4.525 2.944 7.063.605 2.824 1.177 5.028 1.177 8.242 0 3.352-.554 4.78-1.177 7.065-1.794.598-5.29.888-7.065 0-1.9-1.7-5.162-.617-6.475-2.355-3.386-.474-4.208-4.46-5.888-6.475-1.175-1.73-1.156-3.032-2.355-4.71-1.857-1.327-2.108-2.945-2.943-5.3.736-2.516 2.015-3.067 4.12-4.12 1.128-1.644 1.767-2.304 1.767-5.298-.425-3.334-1.626-2.982-4.71-3.533-3.815 0-5.77.394-9.42.59z" fill-rule="evenodd" transform="matrix(.122 0 0 .094 358.826 193.896)" fill="red"/><g fill-rule="evenodd" fill="#6da700"><path d="M334.69 674.38s28.307-4.996 46.624-19.982c18.316-14.986 18.317-39.964 26.642-39.964 8.326 0 9.99 28.308 29.973 38.3 19.98 9.99 51.62 23.31 51.62 23.31l-154.86-1.664z" transform="matrix(.078 -.009 .026 .105 380.128 203.249)"/><path d="M334.69 674.38s28.307-4.996 46.624-19.982c18.316-14.986 18.317-39.964 26.642-39.964 8.326 0 9.99 28.308 29.973 38.3 19.98 9.99 51.62 23.31 51.62 23.31l-154.86-1.664z" transform="matrix(.078 -.009 .026 .105 379.002 203.38)"/><path d="M334.69 674.38s28.307-4.996 46.624-19.982c18.316-14.986 18.317-39.964 26.642-39.964 8.326 0 9.99 28.308 29.973 38.3 19.98 9.99 51.62 23.31 51.62 23.31l-154.86-1.664z" transform="matrix(.091 -.011 .029 .116 369.217 196.82)"/><path d="M334.69 674.38s28.307-4.996 46.624-19.982c18.316-14.986 18.317-39.964 26.642-39.964 8.326 0 9.99 28.308 29.973 38.3 19.98 9.99 51.62 23.31 51.62 23.31l-154.86-1.664z" transform="matrix(.102 -.013 .034 .136 360.132 184.836)"/><path d="M334.69 674.38s28.307-4.996 46.624-19.982c18.316-14.986 18.317-39.964 26.642-39.964 8.326 0 9.99 28.308 29.973 38.3 19.98 9.99 51.62 23.31 51.62 23.31l-154.86-1.664z" transform="matrix(.115 -.014 .038 .151 349.758 175.562)"/><path d="M334.69 674.38s28.307-4.996 46.624-19.982c18.316-14.986 18.317-39.964 26.642-39.964 8.326 0 9.99 28.308 29.973 38.3 19.98 9.99 51.62 23.31 51.62 23.31l-154.86-1.664z" transform="matrix(.122 -.015 .042 .17 341.267 163.267)"/><path d="M334.69 674.38s28.307-4.996 46.624-19.982c18.316-14.986 18.317-39.964 26.642-39.964 8.326 0 9.99 28.308 29.973 38.3 19.98 9.99 51.62 23.31 51.62 23.31l-154.86-1.664z" transform="matrix(.14 -.006 .03 .167 339.181 161.298)"/><path d="M334.69 674.38s28.307-4.996 46.624-19.982c18.316-14.986 18.317-39.964 26.642-39.964 8.326 0 9.99 28.308 29.973 38.3 19.98 9.99 51.62 23.31 51.62 23.31l-154.86-1.664z" transform="matrix(.14 -.006 .03 .167 337.135 161.379)"/><path d="M334.69 674.38s28.307-4.996 46.624-19.982c18.316-14.986 18.317-39.964 26.642-39.964 8.326 0 9.99 28.308 29.973 38.3 19.98 9.99 51.62 23.31 51.62 23.31l-154.86-1.664z" transform="matrix(.167 -.007 .034 .185 320.577 150.01)"/><path d="M334.69 674.38s28.307-4.996 46.624-19.982c18.316-14.986 18.317-39.964 26.642-39.964 8.326 0 9.99 28.308 29.973 38.3 19.98 9.99 51.62 23.31 51.62 23.31l-154.86-1.664z" transform="matrix(.184 -.007 .039 .215 306.165 130.305)"/><path d="M334.69 674.38s28.307-4.996 46.624-19.982c18.316-14.986 18.317-39.964 26.642-39.964 8.326 0 9.99 28.308 29.973 38.3 19.98 9.99 51.62 23.31 51.62 23.31l-154.86-1.664z" transform="matrix(.209 -.008 .043 .239 288.996 114.661)"/><path d="M334.69 674.38s28.307-4.996 46.624-19.982c18.316-14.986 18.317-39.964 26.642-39.964 8.326 0 9.99 28.308 29.973 38.3 19.98 9.99 51.62 23.31 51.62 23.31l-154.86-1.664z" transform="matrix(.222 -.009 .049 .27 275.696 94.533)"/></g></g><path d="M380.34 293.64l5.82-4.9s7.96 6.43 23.578 6.125c14.71-.283 19.906-5.513 22.05-6.126l5.817 5.205c-3.37.92-15.31 6.737-28.785 7.35-14.087-.612-26.642-5.817-28.48-7.655z" fill-rule="evenodd" transform="matrix(.749 0 0 .742 106.501 70.642)" stroke="#000" stroke-width=".375" fill="#ffc200"/><path d="M426.717 289.905l-.65-1.8-.764.27-.087-.24 1.84-.647.086.24-.767.27.65 1.8-.308.107zM421.3 291.805l-.566-2.093 1.72-.45.066.246-1.405.368.174.64 1.314-.343.067.245-1.315.345.193.713 1.46-.383.067.247-1.775.465zM418.148 292.504l-.567-2.093.316-.08.566 2.092-.314.082zM415.673 292.255l-.27-2.147.323-.04.238 1.895 1.202-.146.032.253-1.525.185zM411.925 293.067l-.06-2.167.332-.008 1.34 1.667-.048-1.7.31-.01.062 2.167-.334.01-1.34-1.67.05 1.702-.313.007zM408.225 292.605l.223-2.155.324.033-.224 2.155-.323-.033zM405.142 292.178l.405-2.128.327.062.95 1.91.318-1.67.306.058-.405 2.128-.327-.062-.95-1.912-.318 1.672-.306-.058zM405.18 289.997l.314.082-.32 1.21c-.054.21-.125.37-.212.48-.087.11-.21.186-.373.228-.162.04-.357.03-.586-.028-.223-.058-.396-.14-.52-.244-.124-.104-.2-.23-.227-.372-.026-.144-.01-.328.048-.55l.318-1.21.315.08-.318 1.21c-.048.183-.064.322-.05.42.017.095.066.178.147.25s.19.123.325.158c.23.06.408.057.53-.01.124-.067.22-.232.29-.495l.317-1.21zM399.84 289.912l.302.063c-.014.108-.005.203.028.285.034.08.098.158.195.23.097.072.213.128.348.166.12.035.23.05.33.044s.18-.028.24-.07c.06-.042.098-.095.115-.16.018-.064.012-.127-.02-.188-.03-.062-.09-.124-.18-.185-.057-.04-.188-.114-.394-.222-.206-.11-.347-.197-.423-.263-.1-.084-.166-.173-.2-.266-.035-.094-.04-.188-.013-.284.028-.105.09-.194.18-.265.094-.073.212-.114.355-.124.144-.01.295.008.455.054.176.05.324.12.445.208.12.088.205.19.25.31s.057.237.03.36l-.307-.066c.02-.137-.01-.252-.085-.347-.075-.094-.203-.167-.386-.22-.19-.054-.337-.063-.44-.026-.103.035-.166.097-.19.183-.02.075-.006.145.043.212.047.065.192.16.432.285.24.123.405.217.49.283.122.095.206.196.248.3.043.105.05.213.02.325-.03.11-.096.206-.194.283-.1.077-.224.124-.375.14-.15.015-.31-.002-.48-.05-.214-.062-.387-.14-.517-.237-.13-.096-.222-.21-.275-.345-.053-.135-.062-.272-.028-.413zM396.332 289.042l.74-2.028.305.117-.74 2.028-.305-.116zM393.748 287.325l1.37-1.677.648.543c.147.123.252.225.316.305.09.113.15.23.178.35.04.16.035.317-.01.475-.046.157-.13.31-.252.46-.104.127-.212.226-.326.297-.113.07-.223.116-.328.137-.105.02-.204.023-.297.008-.09-.015-.19-.05-.293-.104-.103-.055-.212-.13-.326-.224l-.68-.57zm.41.01l.404.337c.124.104.23.175.317.213.087.04.167.057.24.055.102-.003.205-.035.31-.097.106-.06.21-.155.314-.282.143-.174.22-.336.232-.484.013-.148-.014-.277-.08-.387-.05-.08-.147-.18-.295-.305l-.395-.33-1.046 1.28zM397.44 288.515c.124-.337.323-.56.597-.673.275-.11.575-.106.9.02.212.08.387.198.525.353s.222.33.252.525c.032.193.01.392-.063.595-.074.205-.188.37-.342.497-.153.127-.33.2-.535.217-.203.015-.404-.015-.604-.092-.218-.083-.395-.203-.532-.36-.137-.158-.22-.334-.25-.526-.03-.194-.012-.38.053-.557zm.314.124c-.09.243-.086.465.012.663.098.198.26.34.485.425.23.088.445.09.644.004.2-.085.348-.258.444-.52.06-.164.08-.32.06-.467-.016-.148-.074-.28-.172-.393-.097-.115-.22-.202-.373-.26-.215-.082-.425-.088-.63-.017-.2.07-.358.26-.47.564zM409.243 291.59c.037-.357.175-.625.414-.805.24-.18.53-.252.876-.216.225.022.424.09.595.205s.296.262.373.442c.08.18.106.377.084.592-.023.218-.093.408-.21.57-.12.162-.274.278-.467.35-.193.067-.395.09-.607.07-.23-.025-.43-.096-.602-.213-.17-.117-.295-.265-.37-.444-.076-.18-.104-.364-.085-.553zm.334.04c-.027.26.03.472.173.64.143.165.334.26.573.284.244.026.452-.028.624-.163.174-.133.275-.34.304-.617.02-.175 0-.332-.053-.47-.053-.137-.14-.25-.264-.334-.122-.087-.263-.14-.424-.156-.23-.023-.435.026-.615.148-.18.12-.285.343-.318.668zM429.833 288.87l-.956-1.947.762-.364c.172-.083.307-.137.407-.16.14-.036.27-.04.392-.017.16.03.3.1.424.21.125.105.23.246.315.42.072.147.116.287.133.42s.013.252-.012.357c-.023.103-.06.194-.114.273-.05.077-.124.15-.216.223-.092.07-.205.14-.338.203l-.8.38zm.18-.37l.473-.225c.146-.07.254-.136.325-.2.072-.064.122-.13.15-.196.04-.095.053-.203.04-.324-.01-.122-.053-.257-.125-.404-.1-.203-.215-.342-.345-.414-.13-.073-.257-.103-.384-.088-.092.01-.225.058-.4.14l-.463.223.73 1.487zM423.623 291.116l-.566-2.093 1.054-.276c.213-.056.38-.08.5-.07.12.008.226.05.318.13.09.077.153.173.184.29.04.147.02.287-.062.417s-.233.24-.453.326c.092.014.165.033.217.055.112.05.225.12.337.21l.57.462-.397.104-.433-.352c-.126-.102-.227-.18-.305-.23s-.143-.083-.198-.097c-.054-.014-.107-.02-.158-.018-.038.003-.098.015-.18.036l-.364.096.252.93-.315.082zm-.002-1.252l.678-.177c.143-.038.252-.08.327-.127.073-.048.124-.107.15-.175.027-.068.03-.137.013-.204-.027-.098-.09-.17-.19-.21-.098-.044-.235-.042-.412.004l-.753.197.188.694zM427.563 289.473l.05-2.356.325-.13 1.758 1.63-.344.138-.515-.5-.954.382v.707l-.32.13zm.318-1.088l.774-.31-.466-.46c-.142-.138-.253-.256-.333-.35.024.14.036.284.035.432l-.01.688zM418.496 291.892l-.458-2.117.902-.19c.183-.038.335-.048.455-.028s.222.067.304.143c.08.075.133.162.154.26.02.09.01.18-.028.272s-.11.174-.21.246c.153.007.278.048.376.122.098.074.16.172.187.296.02.1.017.196-.013.292-.028.094-.073.172-.133.233-.06.062-.14.116-.242.162-.1.046-.226.084-.38.117l-.916.192zm.053-1.295l.518-.11c.14-.03.24-.06.3-.087.075-.04.128-.087.158-.144.03-.058.038-.124.022-.198-.015-.07-.048-.128-.097-.173-.05-.046-.112-.07-.187-.075-.075-.005-.2.01-.372.046l-.48.1.14.64zm.21.978l.6-.126c.102-.023.174-.042.213-.057.07-.027.128-.06.172-.097.043-.037.075-.084.096-.142.02-.06.024-.12.01-.19-.018-.078-.055-.14-.114-.19-.06-.05-.132-.076-.218-.082-.087-.007-.206.006-.36.038l-.555.117.158.728z"/><g stroke="#000" fill="#ffc200" stroke-width=".375"><path d="M658.63 787.09v-8.59h1.136v7.577h4.23v1.013h-5.366z" transform="matrix(-1.083 .426 -.436 -1.058 1500.165 868.902)"/><path d="M636.87 787.09v-7.576h-2.83V778.5h6.81v1.014h-2.843v7.576h-1.137z" transform="matrix(-.815 .816 -.836 -.796 1640.089 410.588)"/><path d="M472.36 294.666l6.984 7.036-.978.925-9.264-1.94 5.483 5.523-.912.864-6.984-7.035.976-.927 9.268 1.947-5.488-5.528.914-.866z" stroke-width=".43274999999999997"/><path d="M618.03 787.09v-8.59h6.21v1.014h-5.073v2.63h4.752v1.01h-4.753v2.923h5.273v1.013h-6.41zM615.47 784.08l1.136.287c-.238.933-.668 1.646-1.29 2.138-.616.49-1.372.733-2.266.733-.926 0-1.68-.188-2.262-.563-.578-.38-1.02-.926-1.324-1.64-.3-.715-.45-1.483-.45-2.303 0-.895.168-1.674.508-2.338.344-.668.83-1.174 1.46-1.518.632-.347 1.327-.52 2.085-.52.86 0 1.582.218 2.168.655.586.44.994 1.054 1.225 1.847l-1.12.264c-.2-.624-.488-1.08-.867-1.365-.378-.285-.855-.427-1.43-.427-.66 0-1.212.158-1.657.474-.442.317-.752.742-.932 1.278-.18.53-.27 1.08-.27 1.646 0 .73.106 1.37.317 1.916.216.543.548.95.997 1.22.45.268.935.403 1.46.403.636 0 1.175-.183 1.616-.55.44-.368.74-.913.897-1.635z" transform="matrix(-.629 .961 -.984 -.614 1638.221 177.036)"/><path d="M595.47 784.08l1.136.287c-.238.933-.668 1.646-1.29 2.138-.616.49-1.372.733-2.266.733-.926 0-1.68-.188-2.262-.563-.578-.38-1.02-.926-1.324-1.64-.3-.715-.45-1.483-.45-2.303 0-.895.17-1.674.508-2.338.344-.668.83-1.174 1.46-1.518.632-.347 1.328-.52 2.085-.52.86 0 1.582.218 2.168.655.586.44.994 1.054 1.225 1.847l-1.12.264c-.198-.624-.488-1.08-.866-1.365-.38-.285-.856-.427-1.43-.427-.66 0-1.213.158-1.658.474-.442.317-.752.742-.932 1.278-.18.53-.27 1.08-.27 1.646 0 .73.106 1.37.317 1.916.216.543.548.95.997 1.22.45.268.936.403 1.46.403.636 0 1.175-.183 1.616-.55.442-.368.74-.913.897-1.635z" transform="matrix(.048 1.139 -1.166 .047 1374.713 -455.721)"/><path d="M586.2 787.09v-8.59h1.137v8.59H586.2z" transform="matrix(.074 1.138 -1.165 .072 1359.658 -474.531)"/><path d="M569.36 787.09v-8.59h6.21v1.014h-5.073v2.63h4.752v1.01h-4.753v2.923h5.273v1.013h-6.41z" transform="matrix(.326 1.094 -1.12 .318 1177.957 -645.822)"/><path d="M559.31 787.09v-8.59h1.71l2.034 6.082c.187.567.324.99.41 1.272.098-.313.25-.772.457-1.377l2.058-5.977h1.53v8.59h-1.097v-7.19l-2.495 7.19h-1.025l-2.485-7.312v7.312h-1.095z" transform="matrix(.464 1.045 -1.07 .454 1058.631 -724.604)"/><path d="M533.28 787.09v-8.59h1.137v7.577h4.23v1.013h-5.367z" transform="matrix(.962 .646 -.662 .939 462.049 -889.776)"/><path d="M521.31 787.09v-8.59h1.166l4.512 6.745V778.5h1.09v8.59h-1.166l-4.512-6.75v6.75h-1.09z" transform="matrix(1.058 .479 -.49 1.034 275.76 -876.518)"/><path d="M513.34 787.09v-8.59h6.21v1.014h-5.074v2.63h4.752v1.01h-4.752v2.923h5.274v1.013h-6.41z" transform="matrix(1.081 .43 -.44 1.056 224.879 -867.831)"/><path d="M469.77 787.09l-3.328-8.59h1.23l2.233 6.24c.18.5.33.97.45 1.407.134-.47.29-.938.464-1.406l2.32-6.24h1.16l-3.363 8.59h-1.167z" transform="matrix(1.118 -.328 .336 1.092 -408.148 -517.384)"/><path d="M460.59 787.09v-8.59h1.136v7.577h4.23v1.013h-5.366z" transform="matrix(1.018 -.559 .572 .994 -545.562 -333.08)"/><path d="M444.24 784.33l1.072-.094c.05.43.168.783.352 1.06.187.274.476.496.867.668.392.168.83.252 1.32.252.433 0 .816-.064 1.148-.193s.578-.305.738-.527c.164-.227.246-.473.246-.74 0-.268-.078-.503-.234-.702-.156-.203-.414-.373-.774-.51-.23-.09-.74-.228-1.53-.416-.788-.19-1.34-.37-1.657-.54-.41-.214-.717-.48-.92-.796-.2-.32-.3-.677-.3-1.072 0-.433.124-.838.37-1.213.246-.38.606-.666 1.078-.86.473-.196.998-.294 1.577-.294.636 0 1.197.103 1.68.31.49.204.865.504 1.126.903.262.398.403.85.422 1.353l-1.09.08c-.058-.542-.258-.952-.597-1.23-.336-.276-.834-.415-1.495-.415-.687 0-1.19.127-1.505.38-.313.25-.47.553-.47.91 0 .308.112.56.335.76.22.2.79.405 1.71.616.927.208 1.56.39 1.905.546.5.23.87.523 1.108.88.24.35.358.757.358 1.217 0 .458-.13.89-.393 1.295-.26.403-.638.717-1.13.944-.49.222-1.04.334-1.653.334-.777 0-1.43-.114-1.957-.34-.523-.227-.935-.566-1.236-1.02-.298-.457-.454-.972-.47-1.546z" transform="matrix(.871 -.759 .777 .85 -640.778 -127.447)"/><path d="M434.58 787.09v-8.59h1.137v7.577h4.23v1.013h-5.367z" transform="matrix(.686 -.922 .944 .67 -692.278 89.256)"/><path d="M426.64 787.09v-8.59h6.21v1.014h-5.073v2.63h4.752v1.01h-4.753v2.923h5.274v1.013h-6.41z" transform="matrix(.565 -.997 1.021 .552 -700.318 215.511)"/><path d="M415.31 787.09v-8.59h6.21v1.014h-5.074v2.63h4.752v1.01h-4.752v2.923h5.274v1.013h-6.41z" transform="matrix(.252 -1.113 1.139 .246 -661.352 507.864)"/><path d="M392.74 784.08l1.137.287c-.238.933-.668 1.646-1.29 2.138-.616.49-1.372.733-2.267.733-.926 0-1.68-.188-2.26-.563-.58-.38-1.02-.926-1.326-1.64-.3-.715-.45-1.483-.45-2.303 0-.895.17-1.674.51-2.338.343-.668.83-1.174 1.458-1.518.633-.347 1.328-.52 2.086-.52.86 0 1.582.218 2.168.655.586.44.994 1.054 1.224 1.847l-1.12.264c-.198-.624-.487-1.08-.866-1.365s-.855-.427-1.43-.427c-.66 0-1.213.158-1.658.474-.44.317-.752.742-.93 1.278-.18.53-.27 1.08-.27 1.646 0 .73.104 1.37.315 1.916.216.543.548.95.997 1.22.45.268.936.403 1.46.403.636 0 1.175-.183 1.617-.55.44-.368.74-.913.896-1.635z" transform="matrix(-.357 -1.085 1.111 -.349 -393.572 970.59)"/><path d="M383.47 787.09v-8.59h1.136v8.59h-1.136z" transform="matrix(-.518 -1.021 1.046 -.506 -280.093 1069.998)"/><path d="M376.56 787.09v-8.59h1.136v7.577h4.23v1.013h-5.366z" transform="matrix(-.46 -1.048 1.072 -.449 -323.307 1034.772)"/><path d="M365.57 778.5h1.137v4.963c0 .864-.098 1.55-.293 2.057s-.55.922-1.06 1.242c-.508.317-1.176.475-2.004.475-.805 0-1.463-.14-1.975-.416-.512-.277-.877-.677-1.096-1.2-.22-.528-.33-1.247-.33-2.157V778.5h1.138v4.957c0 .747.068 1.297.205 1.653.14.35.38.623.715.814.34.192.754.287 1.242.287.836 0 1.432-.188 1.787-.567s.533-1.107.533-2.186V778.5z" transform="matrix(-.759 -.866 .887 -.741 -66.57 1196.652)"/><path d="M343.95 787.09v-8.59h6.21v1.014h-5.073v2.63h4.752v1.01h-4.753v2.923h5.273v1.013h-6.41z" transform="matrix(-.915 -.707 .724 -.894 116.722 1259.466)"/><path d="M649.73 787.09l3.3-8.59h1.224l3.515 8.59h-1.296l-1-2.6h-3.593l-.943 2.6h-1.207zm2.48-3.527h2.91l-.896-2.38c-.273-.722-.476-1.315-.61-1.78-.108.55-.263 1.097-.462 1.64l-.943 2.52z" transform="matrix(-1.001 .585 -.599 -.978 1575.787 701.778)"/><path d="M642.03 787.09v-8.59h3.81c.764 0 1.347.08 1.745.235.398.152.717.424.955.814.238.39.357.822.357 1.294 0 .61-.197 1.123-.59 1.54-.396.42-1.005.685-1.83.798.3.145.53.287.686.428.332.304.647.685.943 1.142l1.495 2.338h-1.43l-1.136-1.787c-.332-.515-.605-.91-.82-1.183-.215-.274-.408-.465-.58-.575-.168-.11-.34-.185-.516-.228-.13-.028-.34-.04-.633-.04h-1.318v3.813h-1.137zm1.137-4.8h2.443c.52 0 .926-.05 1.22-.157.292-.11.515-.28.667-.515.152-.24.23-.496.23-.774 0-.406-.15-.74-.447-1.002-.293-.26-.758-.392-1.394-.392h-2.72v2.84z" transform="matrix(-.888 .74 -.757 -.868 1627.251 513.564)"/><path d="M597.06 787.09l3.3-8.59h1.224l3.515 8.59h-1.295l-1.002-2.6h-3.592l-.943 2.6h-1.207zm2.48-3.527h2.91l-.895-2.38c-.274-.722-.477-1.315-.61-1.78-.11.55-.263 1.097-.463 1.64l-.943 2.52z" transform="matrix(-.356 1.085 -1.111 -.348 1572.869 -113.333)"/><path d="M577.36 787.09v-8.59h3.81c.765 0 1.347.08 1.745.235.398.152.717.424.955.814.238.39.358.822.358 1.294 0 .61-.198 1.123-.592 1.54-.395.42-1.004.685-1.828.798.3.145.53.287.685.428.332.304.647.685.944 1.142l1.494 2.338h-1.43l-1.136-1.787c-.332-.515-.605-.91-.82-1.183-.215-.274-.408-.465-.58-.575-.168-.11-.34-.185-.516-.228-.13-.028-.34-.04-.633-.04h-1.318v3.813h-1.137zm1.137-4.8h2.443c.52 0 .926-.05 1.22-.157.292-.11.515-.28.667-.515.152-.24.23-.496.23-.774 0-.406-.15-.74-.447-1.002-.293-.26-.757-.392-1.394-.392h-2.72v2.84z" transform="matrix(.106 1.135 -1.162 .104 1337.369 -500.363)"/><path d="M550.39 787.09l3.3-8.59h1.224l3.516 8.59h-1.295l-1.002-2.6h-3.592l-.942 2.6h-1.208zm2.48-3.527h2.91l-.895-2.38c-.274-.722-.477-1.315-.61-1.78-.11.55-.263 1.097-.463 1.64l-.943 2.52z" transform="matrix(.675 .93 -.952 .659 847.754 -821.65)"/><path d="M539.06 787.09l3.298-8.59h1.225l3.516 8.59h-1.296l-1.002-2.6h-3.592l-.943 2.6h-1.207zm2.478-3.527h2.912l-.896-2.38c-.274-.722-.477-1.315-.61-1.78-.11.55-.263 1.097-.463 1.64l-.942 2.52z" transform="matrix(.852 .779 -.797 .832 626.479 -877.361)"/><path d="M501.34 787.09v-8.59h3.808c.766 0 1.348.08 1.746.235.4.152.717.424.956.814.238.39.357.822.357 1.294 0 .61-.197 1.123-.592 1.54-.394.42-1.004.685-1.828.798.3.145.53.287.686.428.332.304.646.685.943 1.142l1.494 2.338h-1.43l-1.136-1.787c-.332-.515-.606-.91-.82-1.183-.215-.274-.41-.465-.58-.575-.17-.11-.34-.185-.516-.228-.13-.028-.34-.04-.633-.04h-1.318v3.813h-1.137zm1.137-4.8h2.443c.52 0 .926-.05 1.22-.157.292-.11.514-.28.667-.515.152-.24.228-.496.228-.774 0-.406-.148-.74-.445-1.002-.293-.26-.758-.392-1.395-.392h-2.718v2.84z" transform="matrix(1.161 .113 -.116 1.134 -74.955 -768.616)"/><path d="M491.64 782.91c0-1.426.382-2.54 1.148-3.346.766-.81 1.754-1.213 2.965-1.213.793 0 1.508.19 2.144.57.637.378 1.12.908 1.453 1.587.336.676.504 1.444.504 2.303 0 .87-.175 1.65-.527 2.338-.352.687-.85 1.21-1.494 1.564-.645.352-1.34.528-2.086.528-.81 0-1.53-.196-2.168-.586-.638-.39-1.12-.924-1.448-1.6s-.492-1.39-.492-2.144zm1.17.017c0 1.035.28 1.852.833 2.45.56.593 1.258.89 2.098.89.857 0 1.56-.3 2.11-.902.555-.602.833-1.455.833-2.56 0-.7-.12-1.31-.358-1.83-.234-.522-.58-.927-1.037-1.212-.453-.29-.963-.433-1.53-.433-.804 0-1.497.277-2.08.832-.578.55-.867 1.472-.867 2.765z" transform="matrix(1.161 .113 -.116 1.134 -76.011 -768.222)"/><path d="M483.32 787.09v-8.59h2.96c.667 0 1.177.04 1.53.123.49.114.91.32 1.258.616.453.382.79.872 1.014 1.47.227.593.34 1.273.34 2.038 0 .653-.076 1.23-.23 1.735-.15.504-.346.922-.585 1.254-.238.328-.5.588-.785.78-.28.187-.623.33-1.025.427-.4.097-.858.146-1.377.146h-3.1zm1.137-1.013h1.834c.567 0 1.01-.053 1.33-.16.325-.104.583-.253.774-.444.27-.27.48-.63.627-1.084.154-.458.23-1.01.23-1.66 0-.898-.15-1.587-.445-2.067-.293-.485-.65-.81-1.073-.973-.304-.117-.795-.176-1.47-.176h-1.805v6.563z" transform="matrix(1.146 -.217 .222 1.119 -332.025 -593.627)"/><path d="M474.37 787.09l3.3-8.59h1.223l3.516 8.59h-1.296l-1.002-2.6h-3.592l-.943 2.6h-1.207zm2.478-3.527h2.913l-.896-2.38c-.273-.722-.476-1.315-.61-1.78-.11.55-.263 1.097-.462 1.64l-.944 2.52z" transform="matrix(1.137 -.258 .264 1.11 -360.43 -566.552)"/><path d="M451.69 787.09l3.3-8.59h1.224l3.515 8.59h-1.296l-1-2.6h-3.593l-.943 2.6h-1.207zm2.48-3.527h2.91l-.896-2.38c-.273-.722-.476-1.315-.61-1.78-.108.55-.263 1.097-.462 1.64l-.943 2.52z" transform="matrix(.977 -.625 .64 .954 -579.779 -270.722)"/><path d="M406.62 787.09v-8.59h2.96c.667 0 1.177.04 1.528.123.493.114.913.32 1.26.616.453.382.79.872 1.014 1.47.226.593.34 1.273.34 2.038 0 .653-.076 1.23-.23 1.735-.15.504-.346.922-.585 1.254-.238.328-.5.588-.785.78-.28.187-.623.33-1.025.427-.4.097-.858.146-1.377.146h-3.1zm1.137-1.013h1.834c.567 0 1.01-.053 1.33-.16.325-.104.583-.253.774-.444.27-.27.48-.63.627-1.084.154-.458.23-1.01.23-1.66 0-.898-.15-1.587-.445-2.067-.293-.485-.65-.81-1.073-.973-.304-.117-.795-.176-1.47-.176h-1.805v6.563z" transform="matrix(.107 -1.135 1.162 .105 -619.013 627.564)"/><path d="M394.34 787.09l3.3-8.59h1.223l3.516 8.59h-1.296l-1.002-2.6h-3.592l-.943 2.6h-1.207zm2.478-3.527h2.913l-.896-2.38c-.273-.722-.477-1.315-.61-1.78-.11.55-.263 1.097-.462 1.64l-.944 2.52z" transform="matrix(-.088 -1.137 1.163 -.085 -541.42 783.516)"/><path d="M368.55 787.09v-8.59h3.222c.657 0 1.182.088 1.576.264.4.172.71.44.932.803.227.36.34.736.34 1.13 0 .368-.1.714-.3 1.038s-.5.586-.9.785c.518.152.917.412 1.194.78.28.366.422.8.422 1.3 0 .402-.086.777-.258 1.125-.168.344-.377.61-.627.797-.25.187-.563.33-.942.428-.375.093-.836.14-1.383.14h-3.275zm1.136-4.98h1.858c.504 0 .865-.033 1.084-.1.29-.086.506-.228.65-.428.15-.2.223-.45.223-.75 0-.285-.068-.535-.204-.75-.137-.218-.332-.367-.586-.445-.254-.082-.69-.123-1.307-.123h-1.717v2.596zm0 3.967h2.14c.366 0 .624-.014.772-.04.262-.048.48-.126.657-.236.176-.108.32-.266.433-.473.114-.21.17-.454.17-.727 0-.32-.082-.598-.246-.832-.164-.238-.392-.404-.685-.498-.29-.098-.707-.147-1.254-.147h-1.987v2.954z" transform="matrix(-.668 -.935 .957 -.652 -154.505 1152.306)"/><path d="M351.93 787.09v-8.59h3.24c.57 0 1.006.028 1.306.082.422.07.776.206 1.06.405.286.195.515.47.687.826.175.355.263.746.263 1.172 0 .73-.232 1.35-.697 1.857-.466.504-1.306.756-2.52.756h-2.204v3.492h-1.136zm1.136-4.506h2.22c.735 0 1.257-.136 1.565-.41.31-.273.464-.658.464-1.154 0-.36-.09-.666-.275-.92-.18-.258-.42-.428-.716-.51-.19-.05-.545-.076-1.06-.076h-2.198v3.07z" transform="matrix(-.869 -.76 .778 -.849 57.158 1243.278)"/><path d="M335.28 787.09v-8.59h3.81c.764 0 1.347.08 1.745.235.398.152.717.424.955.814.238.39.357.822.357 1.294 0 .61-.197 1.123-.59 1.54-.396.42-1.005.685-1.83.798.3.145.53.287.686.428.332.304.647.685.943 1.142l1.495 2.338h-1.43l-1.136-1.787c-.332-.515-.605-.91-.82-1.183-.215-.274-.408-.465-.58-.575-.168-.11-.34-.185-.516-.228-.13-.028-.34-.04-.633-.04h-1.318v3.813h-1.137zm1.137-4.8h2.443c.52 0 .926-.05 1.22-.157.292-.11.515-.28.667-.515.152-.24.23-.496.23-.774 0-.406-.15-.74-.447-1.002-.293-.26-.758-.392-1.394-.392h-2.72v2.84z" transform="matrix(-.999 -.589 .603 -.976 240.12 1283.178)"/></g></g></svg>