<svg xmlns="http://www.w3.org/2000/svg" height="512" width="512"><defs><clipPath id="a"><path fill-opacity=".67" d="M164.71 0h496.06v496.06H164.71z"/></clipPath></defs><g clip-path="url(#a)" transform="matrix(1 0 0 1 -170 0)"><path fill-rule="evenodd" fill="#5387f4" d="M0 329.53h825.59v166.54H0zM0 0h825.59v166.54H0z"/><path fill-rule="evenodd" fill="#fff" d="M0 166.54h825.59v162.99H0z"/><g stroke="#000" fill-rule="evenodd"><path d="M490.58 234.24c0 .846-.823 1.53-1.837 1.53s-1.838-.684-1.838-1.53.823-1.53 1.838-1.53 1.837.684 1.837 1.53z" transform="matrix(-.5 -.3 -.4 .6 692.5 232)" stroke-width=".529" fill="red"/><path d="M490.58 234.24c0 .846-.823 1.53-1.837 1.53s-1.838-.684-1.838-1.53.823-1.53 1.838-1.53 1.837.684 1.837 1.53z" transform="matrix(-.5 -.3 -.4 .6 696.1 234.8)" stroke-width=".529" fill="red"/><path d="M259.03 105.71s400.32 70.645 414.45 395.62c14.13 324.97-188.39 367.36-259.03 419.16-70.645 51.807-113.03 113.03-146 113.03-32.968 0-80.065-14.13-80.065-14.13s9.42 51.81 75.355 47.1c65.936-4.71 127.16-113.03 164.84-131.87s277.88-98.9 259.04-428.58c-14.13-353.23-423.88-390.91-428.59-400.33z" transform="matrix(-.1 0 0 .1 418.8 192.8)" stroke-width="2.553" fill="#006700"/><path d="M320.26 487.2c0 59.825-11.597 108.32-25.903 108.32s-25.903-48.498-25.903-108.32c0-59.825 11.597-108.32 25.903-108.32s25.903 48.498 25.903 108.32z" transform="matrix(-.1 0 0 0 396.8 195.4)" stroke-width="2.553" fill="#006700"/><path d="M320.26 487.2c0 59.825-11.597 108.32-25.903 108.32s-25.903-48.498-25.903-108.32c0-59.825 11.597-108.32 25.903-108.32s25.903 48.498 25.903 108.32z" transform="matrix(0 0 0 0 401.8 201.1)" stroke-width="2.553" fill="#006700"/><path d="M320.26 487.2c0 59.825-11.597 108.32-25.903 108.32s-25.903-48.498-25.903-108.32c0-59.825 11.597-108.32 25.903-108.32s25.903 48.498 25.903 108.32z" transform="matrix(0 -.1 0 0 404.4 231.5)" stroke-width="2.553" fill="#006700"/><path d="M320.26 487.2c0 59.825-11.597 108.32-25.903 108.32s-25.903-48.498-25.903-108.32c0-59.825 11.597-108.32 25.903-108.32s25.903 48.498 25.903 108.32z" transform="matrix(0 0 0 0 407.3 219.9)" stroke-width="2.553" fill="#006700"/><path d="M320.26 487.2c0 59.825-11.597 108.32-25.903 108.32s-25.903-48.498-25.903-108.32c0-59.825 11.597-108.32 25.903-108.32s25.903 48.498 25.903 108.32z" transform="matrix(0 0 0 0 406.1 211.6)" stroke-width="2.553" fill="#006700"/><path d="M490.58 234.24c0 .846-.823 1.53-1.837 1.53s-1.838-.684-1.838-1.53.823-1.53 1.838-1.53 1.837.684 1.837 1.53z" transform="matrix(-.5 -.2 -.2 .7 674 167.7)" stroke-width=".529" fill="red"/><path d="M490.58 234.24c0 .846-.823 1.53-1.837 1.53s-1.838-.684-1.838-1.53.823-1.53 1.838-1.53 1.837.684 1.837 1.53z" transform="matrix(-.5 -.2 -.2 .7 678.3 169.5)" stroke-width=".529" fill="red"/><path d="M320.26 487.2c0 59.825-11.597 108.32-25.903 108.32s-25.903-48.498-25.903-108.32c0-59.825 11.597-108.32 25.903-108.32s25.903 48.498 25.903 108.32z" transform="matrix(-.1 0 0 .1 385.9 185.5)" stroke-width="2.553" fill="#006700"/><path d="M320.26 487.2c0 59.825-11.597 108.32-25.903 108.32s-25.903-48.498-25.903-108.32c0-59.825 11.597-108.32 25.903-108.32s25.903 48.498 25.903 108.32z" transform="matrix(-.1 0 0 .1 394.7 191.3)" stroke-width="2.553" fill="#006700"/><path d="M320.26 487.2c0 59.825-11.597 108.32-25.903 108.32s-25.903-48.498-25.903-108.32c0-59.825 11.597-108.32 25.903-108.32s25.903 48.498 25.903 108.32z" transform="matrix(0 -.1 -.1 0 408.2 233.7)" stroke-width="2.553" fill="#006700"/><path d="M320.26 487.2c0 59.825-11.597 108.32-25.903 108.32s-25.903-48.498-25.903-108.32c0-59.825 11.597-108.32 25.903-108.32s25.903 48.498 25.903 108.32z" transform="matrix(0 -.1 0 .1 408.4 215.8)" stroke-width="2.553" fill="#006700"/><path d="M320.26 487.2c0 59.825-11.597 108.32-25.903 108.32s-25.903-48.498-25.903-108.32c0-59.825 11.597-108.32 25.903-108.32s25.903 48.498 25.903 108.32z" transform="matrix(-.1 0 0 .1 404.1 204.4)" stroke-width="2.553" fill="#006700"/><path d="M320.26 487.2c0 59.825-11.597 108.32-25.903 108.32s-25.903-48.498-25.903-108.32c0-59.825 11.597-108.32 25.903-108.32s25.903 48.498 25.903 108.32z" transform="matrix(-.1 0 0 .1 371.4 198.2)" stroke-width="2.553" fill="#006700"/><path d="M320.26 487.2c0 59.825-11.597 108.32-25.903 108.32s-25.903-48.498-25.903-108.32c0-59.825 11.597-108.32 25.903-108.32s25.903 48.498 25.903 108.32z" transform="matrix(-.1 0 0 .1 381 202.3)" stroke-width="2.553" fill="#006700"/><path d="M320.26 487.2c0 59.825-11.597 108.32-25.903 108.32s-25.903-48.498-25.903-108.32c0-59.825 11.597-108.32 25.903-108.32s25.903 48.498 25.903 108.32z" transform="matrix(0 -.1 -.1 .1 401.6 241.5)" stroke-width="2.553" fill="#006700"/><path d="M320.26 487.2c0 59.825-11.597 108.32-25.903 108.32s-25.903-48.498-25.903-108.32c0-59.825 11.597-108.32 25.903-108.32s25.903 48.498 25.903 108.32z" transform="matrix(-.1 0 0 .1 398.7 223.8)" stroke-width="2.553" fill="#006700"/><path d="M320.26 487.2c0 59.825-11.597 108.32-25.903 108.32s-25.903-48.498-25.903-108.32c0-59.825 11.597-108.32 25.903-108.32s25.903 48.498 25.903 108.32z" transform="matrix(-.1 0 0 .1 392.4 213.4)" stroke-width="2.553" fill="#006700"/><path d="M320.26 487.2c0 59.825-11.597 108.32-25.903 108.32s-25.903-48.498-25.903-108.32c0-59.825 11.597-108.32 25.903-108.32s25.903 48.498 25.903 108.32z" transform="matrix(0 .1 0 .1 351.5 214)" stroke-width="2.553" fill="#006700"/><path d="M320.26 487.2c0 59.825-11.597 108.32-25.903 108.32s-25.903-48.498-25.903-108.32c0-59.825 11.597-108.32 25.903-108.32s25.903 48.498 25.903 108.32z" transform="matrix(-.1 0 0 .1 361.8 213.7)" stroke-width="2.553" fill="#006700"/><path d="M320.26 487.2c0 59.825-11.597 108.32-25.903 108.32s-25.903-48.498-25.903-108.32c0-59.825 11.597-108.32 25.903-108.32s25.903 48.498 25.903 108.32z" transform="matrix(-.1 0 0 .1 395.4 241.3)" stroke-width="2.553" fill="#006700"/><path d="M320.26 487.2c0 59.825-11.597 108.32-25.903 108.32s-25.903-48.498-25.903-108.32c0-59.825 11.597-108.32 25.903-108.32s25.903 48.498 25.903 108.32z" transform="matrix(-.1 0 0 .1 386 226.1)" stroke-width="2.553" fill="#006700"/><path d="M320.26 487.2c0 59.825-11.597 108.32-25.903 108.32s-25.903-48.498-25.903-108.32c0-59.825 11.597-108.32 25.903-108.32s25.903 48.498 25.903 108.32z" transform="matrix(-.1 0 0 .1 376.4 219.2)" stroke-width="2.553" fill="#006700"/><path d="M320.26 487.2c0 59.825-11.597 108.32-25.903 108.32s-25.903-48.498-25.903-108.32c0-59.825 11.597-108.32 25.903-108.32s25.903 48.498 25.903 108.32z" transform="matrix(0 .1 .1 .1 339.9 229.3)" stroke-width="2.553" fill="#006700"/><path d="M490.58 234.24c0 .846-.823 1.53-1.837 1.53s-1.838-.684-1.838-1.53.823-1.53 1.838-1.53 1.837.684 1.837 1.53z" transform="matrix(-.2 -.3 -.4 .2 597.6 311.9)" stroke-width=".529" fill="red"/><path d="M490.58 234.24c0 .846-.823 1.53-1.837 1.53s-1.838-.684-1.838-1.53.823-1.53 1.838-1.53 1.837.684 1.837 1.53z" transform="matrix(-.2 -.3 -.4 .2 599.1 314.7)" stroke-width=".529" fill="red"/><path d="M320.26 487.2c0 59.825-11.597 108.32-25.903 108.32s-25.903-48.498-25.903-108.32c0-59.825 11.597-108.32 25.903-108.32s25.903 48.498 25.903 108.32z" transform="matrix(-.1 .1 .1 .1 351.1 225.2)" stroke-width="2.553" fill="#006700"/><path d="M320.26 487.2c0 59.825-11.597 108.32-25.903 108.32s-25.903-48.498-25.903-108.32c0-59.825 11.597-108.32 25.903-108.32s25.903 48.498 25.903 108.32z" transform="matrix(-.1 0 0 .1 397 243.3)" stroke-width="2.553" fill="#006700"/><path d="M320.26 487.2c0 59.825-11.597 108.32-25.903 108.32s-25.903-48.498-25.903-108.32c0-59.825 11.597-108.32 25.903-108.32s25.903 48.498 25.903 108.32z" transform="matrix(-.1 0 0 .1 381.8 230)" stroke-width="2.553" fill="#006700"/><path d="M320.26 487.2c0 59.825-11.597 108.32-25.903 108.32s-25.903-48.498-25.903-108.32c0-59.825 11.597-108.32 25.903-108.32s25.903 48.498 25.903 108.32z" transform="matrix(-.1 0 0 .1 368.9 225.9)" stroke-width="2.553" fill="#006700"/><path d="M320.26 487.2c0 59.825-11.597 108.32-25.903 108.32s-25.903-48.498-25.903-108.32c0-59.825 11.597-108.32 25.903-108.32s25.903 48.498 25.903 108.32z" transform="matrix(0 .1 .1 0 324.7 260.8)" stroke-width="2.553" fill="#006700"/><path d="M490.58 234.24c0 .846-.823 1.53-1.837 1.53s-1.838-.684-1.838-1.53.823-1.53 1.838-1.53 1.837.684 1.837 1.53z" transform="matrix(-.3 .4 .6 .4 402.8 -25.8)" stroke-width=".529" fill="red"/><path d="M490.58 234.24c0 .846-.823 1.53-1.837 1.53s-1.838-.684-1.838-1.53.823-1.53 1.838-1.53 1.837.684 1.837 1.53z" transform="matrix(-.3 .4 .6 .4 405.9 -29.2)" stroke-width=".529" fill="red"/><path d="M320.26 487.2c0 59.825-11.597 108.32-25.903 108.32s-25.903-48.498-25.903-108.32c0-59.825 11.597-108.32 25.903-108.32s25.903 48.498 25.903 108.32z" transform="matrix(0 .1 .1 0 333.3 250.3)" stroke-width="2.553" fill="#006700"/><path d="M320.26 487.2c0 59.825-11.597 108.32-25.903 108.32s-25.903-48.498-25.903-108.32c0-59.825 11.597-108.32 25.903-108.32s25.903 48.498 25.903 108.32z" transform="matrix(-.1 0 0 .1 387.3 240.4)" stroke-width="2.553" fill="#006700"/><path d="M320.26 487.2c0 59.825-11.597 108.32-25.903 108.32s-25.903-48.498-25.903-108.32c0-59.825 11.597-108.32 25.903-108.32s25.903 48.498 25.903 108.32z" transform="matrix(-.1 0 .1 .1 365.5 236.7)" stroke-width="2.553" fill="#006700"/><path d="M320.26 487.2c0 59.825-11.597 108.32-25.903 108.32s-25.903-48.498-25.903-108.32c0-59.825 11.597-108.32 25.903-108.32s25.903 48.498 25.903 108.32z" transform="matrix(-.1 .1 .1 .1 350.8 240.4)" stroke-width="2.553" fill="#006700"/><g stroke-width="2.553" fill="#006700"><path d="M314.71 506.2c0 45.062-10.064 81.59-22.48 81.59s-22.478-36.53-22.478-81.59c0-45.062 10.064-81.59 22.48-81.59s22.478 36.53 22.478 81.59z" transform="matrix(0 .1 .1 0 325.3 265.1)"/><path d="M314.71 506.2c0 45.062-10.064 81.59-22.48 81.59s-22.478-36.53-22.478-81.59c0-45.062 10.064-81.59 22.48-81.59s22.478 36.53 22.478 81.59z" transform="matrix(-.1 .1 .1 .1 381.7 218.8)"/><path d="M314.71 506.2c0 45.062-10.064 81.59-22.48 81.59s-22.478-36.53-22.478-81.59c0-45.062 10.064-81.59 22.48-81.59s22.478 36.53 22.478 81.59z" transform="matrix(0 .1 .1 .1 344.7 238.3)"/></g><g stroke-width="2.553" fill="#006700"><path d="M314.71 506.2c0 45.062-10.064 81.59-22.48 81.59s-22.478-36.53-22.478-81.59c0-45.062 10.064-81.59 22.48-81.59s22.478 36.53 22.478 81.59z" transform="matrix(-.1 0 -.1 .1 434.3 193.8)"/><path d="M314.71 506.2c0 45.062-10.064 81.59-22.48 81.59s-22.478-36.53-22.478-81.59c0-45.062 10.064-81.59 22.48-81.59s22.478 36.53 22.478 81.59z" transform="matrix(0 -.1 -.1 0 427.2 228.3)"/><path d="M314.71 506.2c0 45.062-10.064 81.59-22.48 81.59s-22.478-36.53-22.478-81.59c0-45.062 10.064-81.59 22.48-81.59s22.478 36.53 22.478 81.59z" transform="matrix(0 0 -.1 0 436.2 208.1)"/></g><path d="M490.58 234.24c0 .846-.823 1.53-1.837 1.53s-1.838-.684-1.838-1.53.823-1.53 1.838-1.53 1.837.684 1.837 1.53z" transform="matrix(-.6 0 0 .7 632.4 91.5)" stroke-width=".529" fill="red"/><path d="M490.58 234.24c0 .846-.823 1.53-1.837 1.53s-1.838-.684-1.838-1.53.823-1.53 1.838-1.53 1.837.684 1.837 1.53z" transform="matrix(-.6 0 0 .7 637 91.9)" stroke-width=".529" fill="red"/><path d="M490.58 234.24c0 .846-.823 1.53-1.837 1.53s-1.838-.684-1.838-1.53.823-1.53 1.838-1.53 1.837.684 1.837 1.53z" transform="matrix(-.5 .3 .3 .6 516.3 -4.6)" stroke-width=".529" fill="red"/><path d="M490.58 234.24c0 .846-.823 1.53-1.837 1.53s-1.838-.684-1.838-1.53.823-1.53 1.838-1.53 1.837.684 1.837 1.53z" transform="matrix(-.5 .3 .3 .6 520.5 -6.5)" stroke-width=".529" fill="red"/><path d="M490.58 234.24c0 .846-.823 1.53-1.837 1.53s-1.838-.684-1.838-1.53.823-1.53 1.838-1.53 1.837.684 1.837 1.53z" transform="matrix(-.3 -.2 -.3 .3 608 254.5)" stroke-width=".529" fill="red"/><path d="M490.58 234.24c0 .846-.823 1.53-1.837 1.53s-1.838-.684-1.838-1.53.823-1.53 1.838-1.53 1.837.684 1.837 1.53z" transform="matrix(-.3 -.2 -.3 .3 610.3 256.7)" stroke-width=".529" fill="red"/><g><path d="M490.58 234.24c0 .846-.823 1.53-1.837 1.53s-1.838-.684-1.838-1.53.823-1.53 1.838-1.53 1.837.684 1.837 1.53z" transform="matrix(.5 -.3 .4 .6 132.8 232.4)" stroke-width=".529" fill="red"/><path d="M490.58 234.24c0 .846-.823 1.53-1.837 1.53s-1.838-.684-1.838-1.53.823-1.53 1.838-1.53 1.837.684 1.837 1.53z" transform="matrix(.5 -.3 .4 .6 129.2 235.3)" stroke-width=".529" fill="red"/><path d="M259.03 105.71s400.32 70.645 414.45 395.62c14.13 324.97-188.39 367.36-259.03 419.16-70.645 51.807-113.03 113.03-146 113.03-32.968 0-80.065-14.13-80.065-14.13s9.42 51.81 75.355 47.1c65.936-4.71 127.16-113.03 164.84-131.87s277.88-98.9 259.04-428.58c-14.13-353.23-423.88-390.91-428.59-400.33z" transform="matrix(.1 0 0 .1 406.5 193.3)" stroke-width="2.553" fill="#006700"/><path d="M320.26 487.2c0 59.825-11.597 108.32-25.903 108.32s-25.903-48.498-25.903-108.32c0-59.825 11.597-108.32 25.903-108.32s25.903 48.498 25.903 108.32z" transform="matrix(.1 0 0 0 428.4 195.9)" stroke-width="2.553" fill="#006700"/><path d="M320.26 487.2c0 59.825-11.597 108.32-25.903 108.32s-25.903-48.498-25.903-108.32c0-59.825 11.597-108.32 25.903-108.32s25.903 48.498 25.903 108.32z" transform="matrix(0 0 0 0 423.4 201.6)" stroke-width="2.553" fill="#006700"/><path d="M320.26 487.2c0 59.825-11.597 108.32-25.903 108.32s-25.903-48.498-25.903-108.32c0-59.825 11.597-108.32 25.903-108.32s25.903 48.498 25.903 108.32z" transform="matrix(0 -.1 0 0 420.9 232)" stroke-width="2.553" fill="#006700"/><path d="M320.26 487.2c0 59.825-11.597 108.32-25.903 108.32s-25.903-48.498-25.903-108.32c0-59.825 11.597-108.32 25.903-108.32s25.903 48.498 25.903 108.32z" transform="matrix(0 0 0 0 418 220.4)" stroke-width="2.553" fill="#006700"/><path d="M320.26 487.2c0 59.825-11.597 108.32-25.903 108.32s-25.903-48.498-25.903-108.32c0-59.825 11.597-108.32 25.903-108.32s25.903 48.498 25.903 108.32z" transform="matrix(0 0 0 0 419.2 212.1)" stroke-width="2.553" fill="#006700"/><path d="M490.58 234.24c0 .846-.823 1.53-1.837 1.53s-1.838-.684-1.838-1.53.823-1.53 1.838-1.53 1.837.684 1.837 1.53z" transform="matrix(.5 -.2 .2 .7 151.2 168.1)" stroke-width=".529" fill="red"/><path d="M490.58 234.24c0 .846-.823 1.53-1.837 1.53s-1.838-.684-1.838-1.53.823-1.53 1.838-1.53 1.837.684 1.837 1.53z" transform="matrix(.5 -.2 .2 .7 147 170)" stroke-width=".529" fill="red"/><path d="M320.26 487.2c0 59.825-11.597 108.32-25.903 108.32s-25.903-48.498-25.903-108.32c0-59.825 11.597-108.32 25.903-108.32s25.903 48.498 25.903 108.32z" transform="matrix(.1 0 0 .1 439.3 185.9)" stroke-width="2.553" fill="#006700"/><path d="M320.26 487.2c0 59.825-11.597 108.32-25.903 108.32s-25.903-48.498-25.903-108.32c0-59.825 11.597-108.32 25.903-108.32s25.903 48.498 25.903 108.32z" transform="matrix(.1 0 0 .1 430.5 191.8)" stroke-width="2.553" fill="#006700"/><path d="M320.26 487.2c0 59.825-11.597 108.32-25.903 108.32s-25.903-48.498-25.903-108.32c0-59.825 11.597-108.32 25.903-108.32s25.903 48.498 25.903 108.32z" transform="matrix(0 -.1 .1 0 417.1 234.2)" stroke-width="2.553" fill="#006700"/><path d="M320.26 487.2c0 59.825-11.597 108.32-25.903 108.32s-25.903-48.498-25.903-108.32c0-59.825 11.597-108.32 25.903-108.32s25.903 48.498 25.903 108.32z" transform="matrix(0 -.1 0 .1 416.8 216.3)" stroke-width="2.553" fill="#006700"/><path d="M320.26 487.2c0 59.825-11.597 108.32-25.903 108.32s-25.903-48.498-25.903-108.32c0-59.825 11.597-108.32 25.903-108.32s25.903 48.498 25.903 108.32z" transform="matrix(.1 0 0 .1 421.2 204.9)" stroke-width="2.553" fill="#006700"/><path d="M320.26 487.2c0 59.825-11.597 108.32-25.903 108.32s-25.903-48.498-25.903-108.32c0-59.825 11.597-108.32 25.903-108.32s25.903 48.498 25.903 108.32z" transform="matrix(.1 0 0 .1 453.9 198.7)" stroke-width="2.553" fill="#006700"/><path d="M320.26 487.2c0 59.825-11.597 108.32-25.903 108.32s-25.903-48.498-25.903-108.32c0-59.825 11.597-108.32 25.903-108.32s25.903 48.498 25.903 108.32z" transform="matrix(.1 0 0 .1 444.3 202.7)" stroke-width="2.553" fill="#006700"/><path d="M320.26 487.2c0 59.825-11.597 108.32-25.903 108.32s-25.903-48.498-25.903-108.32c0-59.825 11.597-108.32 25.903-108.32s25.903 48.498 25.903 108.32z" transform="matrix(0 -.1 .1 .1 423.7 242)" stroke-width="2.553" fill="#006700"/><path d="M320.26 487.2c0 59.825-11.597 108.32-25.903 108.32s-25.903-48.498-25.903-108.32c0-59.825 11.597-108.32 25.903-108.32s25.903 48.498 25.903 108.32z" transform="matrix(.1 0 0 .1 426.6 224.2)" stroke-width="2.553" fill="#006700"/><path d="M320.26 487.2c0 59.825-11.597 108.32-25.903 108.32s-25.903-48.498-25.903-108.32c0-59.825 11.597-108.32 25.903-108.32s25.903 48.498 25.903 108.32z" transform="matrix(.1 0 0 .1 432.9 213.8)" stroke-width="2.553" fill="#006700"/><path d="M320.26 487.2c0 59.825-11.597 108.32-25.903 108.32s-25.903-48.498-25.903-108.32c0-59.825 11.597-108.32 25.903-108.32s25.903 48.498 25.903 108.32z" transform="matrix(0 .1 0 .1 473.7 214.4)" stroke-width="2.553" fill="#006700"/><path d="M320.26 487.2c0 59.825-11.597 108.32-25.903 108.32s-25.903-48.498-25.903-108.32c0-59.825 11.597-108.32 25.903-108.32s25.903 48.498 25.903 108.32z" transform="matrix(.1 0 0 .1 463.5 214.1)" stroke-width="2.553" fill="#006700"/><path d="M320.26 487.2c0 59.825-11.597 108.32-25.903 108.32s-25.903-48.498-25.903-108.32c0-59.825 11.597-108.32 25.903-108.32s25.903 48.498 25.903 108.32z" transform="matrix(.1 0 0 .1 429.9 241.8)" stroke-width="2.553" fill="#006700"/><path d="M320.26 487.2c0 59.825-11.597 108.32-25.903 108.32s-25.903-48.498-25.903-108.32c0-59.825 11.597-108.32 25.903-108.32s25.903 48.498 25.903 108.32z" transform="matrix(.1 0 0 .1 439.3 226.6)" stroke-width="2.553" fill="#006700"/><path d="M320.26 487.2c0 59.825-11.597 108.32-25.903 108.32s-25.903-48.498-25.903-108.32c0-59.825 11.597-108.32 25.903-108.32s25.903 48.498 25.903 108.32z" transform="matrix(.1 0 0 .1 448.9 219.6)" stroke-width="2.553" fill="#006700"/><path d="M320.26 487.2c0 59.825-11.597 108.32-25.903 108.32s-25.903-48.498-25.903-108.32c0-59.825 11.597-108.32 25.903-108.32s25.903 48.498 25.903 108.32z" transform="matrix(0 .1 -.1 .1 485.3 229.8)" stroke-width="2.553" fill="#006700"/><path d="M490.58 234.24c0 .846-.823 1.53-1.837 1.53s-1.838-.684-1.838-1.53.823-1.53 1.838-1.53 1.837.684 1.837 1.53z" transform="matrix(.2 -.3 .4 .2 227.7 312.4)" stroke-width=".529" fill="red"/><path d="M490.58 234.24c0 .846-.823 1.53-1.837 1.53s-1.838-.684-1.838-1.53.823-1.53 1.838-1.53 1.837.684 1.837 1.53z" transform="matrix(.2 -.3 .4 .2 226.2 315.1)" stroke-width=".529" fill="red"/><path d="M320.26 487.2c0 59.825-11.597 108.32-25.903 108.32s-25.903-48.498-25.903-108.32c0-59.825 11.597-108.32 25.903-108.32s25.903 48.498 25.903 108.32z" transform="matrix(.1 .1 -.1 .1 474.1 225.7)" stroke-width="2.553" fill="#006700"/><path d="M320.26 487.2c0 59.825-11.597 108.32-25.903 108.32s-25.903-48.498-25.903-108.32c0-59.825 11.597-108.32 25.903-108.32s25.903 48.498 25.903 108.32z" transform="matrix(.1 0 0 .1 428.2 243.8)" stroke-width="2.553" fill="#006700"/><path d="M320.26 487.2c0 59.825-11.597 108.32-25.903 108.32s-25.903-48.498-25.903-108.32c0-59.825 11.597-108.32 25.903-108.32s25.903 48.498 25.903 108.32z" transform="matrix(.1 0 0 .1 443.5 230.5)" stroke-width="2.553" fill="#006700"/><path d="M320.26 487.2c0 59.825-11.597 108.32-25.903 108.32s-25.903-48.498-25.903-108.32c0-59.825 11.597-108.32 25.903-108.32s25.903 48.498 25.903 108.32z" transform="matrix(.1 0 0 .1 456.3 226.3)" stroke-width="2.553" fill="#006700"/><path d="M320.26 487.2c0 59.825-11.597 108.32-25.903 108.32s-25.903-48.498-25.903-108.32c0-59.825 11.597-108.32 25.903-108.32s25.903 48.498 25.903 108.32z" transform="matrix(0 .1 -.1 0 500.6 261.2)" stroke-width="2.553" fill="#006700"/><path d="M490.58 234.24c0 .846-.823 1.53-1.837 1.53s-1.838-.684-1.838-1.53.823-1.53 1.838-1.53 1.837.684 1.837 1.53z" transform="matrix(.3 .4 -.6 .4 422.5 -25.4)" stroke-width=".529" fill="red"/><path d="M490.58 234.24c0 .846-.823 1.53-1.837 1.53s-1.838-.684-1.838-1.53.823-1.53 1.838-1.53 1.837.684 1.837 1.53z" transform="matrix(.3 .4 -.6 .4 419.4 -28.7)" stroke-width=".529" fill="red"/><path d="M320.26 487.2c0 59.825-11.597 108.32-25.903 108.32s-25.903-48.498-25.903-108.32c0-59.825 11.597-108.32 25.903-108.32s25.903 48.498 25.903 108.32z" transform="matrix(0 .1 -.1 0 492 250.7)" stroke-width="2.553" fill="#006700"/><path d="M320.26 487.2c0 59.825-11.597 108.32-25.903 108.32s-25.903-48.498-25.903-108.32c0-59.825 11.597-108.32 25.903-108.32s25.903 48.498 25.903 108.32z" transform="matrix(.1 0 0 .1 438 240.9)" stroke-width="2.553" fill="#006700"/><path d="M320.26 487.2c0 59.825-11.597 108.32-25.903 108.32s-25.903-48.498-25.903-108.32c0-59.825 11.597-108.32 25.903-108.32s25.903 48.498 25.903 108.32z" transform="matrix(.1 0 -.1 .1 459.8 237.2)" stroke-width="2.553" fill="#006700"/><path d="M320.26 487.2c0 59.825-11.597 108.32-25.903 108.32s-25.903-48.498-25.903-108.32c0-59.825 11.597-108.32 25.903-108.32s25.903 48.498 25.903 108.32z" transform="matrix(.1 .1 -.1 .1 474.4 240.8)" stroke-width="2.553" fill="#006700"/><g stroke-width="2.553" fill="#006700"><path d="M314.71 506.2c0 45.062-10.064 81.59-22.48 81.59s-22.478-36.53-22.478-81.59c0-45.062 10.064-81.59 22.48-81.59s22.478 36.53 22.478 81.59z" transform="matrix(0 .1 -.1 0 500 265.6)"/><path d="M314.71 506.2c0 45.062-10.064 81.59-22.48 81.59s-22.478-36.53-22.478-81.59c0-45.062 10.064-81.59 22.48-81.59s22.478 36.53 22.478 81.59z" transform="matrix(.1 .1 -.1 .1 443.6 219.2)"/><path d="M314.71 506.2c0 45.062-10.064 81.59-22.48 81.59s-22.478-36.53-22.478-81.59c0-45.062 10.064-81.59 22.48-81.59s22.478 36.53 22.478 81.59z" transform="matrix(0 .1 -.1 .1 480.6 238.7)"/></g><g stroke-width="2.553" fill="#006700"><path d="M314.71 506.2c0 45.062-10.064 81.59-22.48 81.59s-22.478-36.53-22.478-81.59c0-45.062 10.064-81.59 22.48-81.59s22.478 36.53 22.478 81.59z" transform="matrix(.1 0 .1 .1 391 194.3)"/><path d="M314.71 506.2c0 45.062-10.064 81.59-22.48 81.59s-22.478-36.53-22.478-81.59c0-45.062 10.064-81.59 22.48-81.59s22.478 36.53 22.478 81.59z" transform="matrix(0 -.1 .1 0 398 228.7)"/><path d="M314.71 506.2c0 45.062-10.064 81.59-22.48 81.59s-22.478-36.53-22.478-81.59c0-45.062 10.064-81.59 22.48-81.59s22.478 36.53 22.478 81.59z" transform="matrix(0 0 .1 0 389.1 208.6)"/></g><path d="M490.58 234.24c0 .846-.823 1.53-1.837 1.53s-1.838-.684-1.838-1.53.823-1.53 1.838-1.53 1.837.684 1.837 1.53z" transform="matrix(.6 0 0 .7 192.8 91.9)" stroke-width=".529" fill="red"/><path d="M490.58 234.24c0 .846-.823 1.53-1.837 1.53s-1.838-.684-1.838-1.53.823-1.53 1.838-1.53 1.837.684 1.837 1.53z" transform="matrix(.6 0 0 .7 188.3 92.4)" stroke-width=".529" fill="red"/><path d="M490.58 234.24c0 .846-.823 1.53-1.837 1.53s-1.838-.684-1.838-1.53.823-1.53 1.838-1.53 1.837.684 1.837 1.53z" transform="matrix(.5 .3 -.3 .6 309 -4.2)" stroke-width=".529" fill="red"/><path d="M490.58 234.24c0 .846-.823 1.53-1.837 1.53s-1.838-.684-1.838-1.53.823-1.53 1.838-1.53 1.837.684 1.837 1.53z" transform="matrix(.5 .3 -.3 .6 304.8 -6)" stroke-width=".529" fill="red"/><path d="M490.58 234.24c0 .846-.823 1.53-1.837 1.53s-1.838-.684-1.838-1.53.823-1.53 1.838-1.53 1.837.684 1.837 1.53z" transform="matrix(.3 -.2 .3 .3 217.2 255)" stroke-width=".529" fill="red"/><path d="M490.58 234.24c0 .846-.823 1.53-1.837 1.53s-1.838-.684-1.838-1.53.823-1.53 1.838-1.53 1.837.684 1.837 1.53z" transform="matrix(.3 -.2 .3 .3 215 257.2)" stroke-width=".529" fill="red"/></g><g stroke-width=".375" fill="#5387f4"><path d="M411.36 319.5l.037 5.258c10.21-.517 5.263 6.977 7.03 11.223l2.254-2.826 3.123 2.803c-.25-4.908 2.748-17.395-12.443-16.457z" transform="matrix(.7 0 0 .7 103.2 74)"/><path d="M411.36 319.5l.037 5.258c10.21-.517 5.263 6.977 7.03 11.223l2.254-2.826 3.123 2.803c-.25-4.908 2.748-17.395-12.443-16.457z" transform="matrix(-.7 0 0 .7 722.3 74.1)"/><path d="M427.88 303.13c.325 1.9-.45 11.372-.865 13.64-.537 1.924-.447 6.71-10.395 7.148-4.776.21-3.898-4.548-3.68-4.548.215 0 1.948 1.733 3.897 0 1.948-1.732-.444-17.53 1.515-19.488 2.156-2.155 9.985 1.496 9.528 3.248z" transform="matrix(.7 .3 -.3 .7 241 -37.3)"/><path d="M449.577 303.255c-1.36-.802-1.992-1.46-3.03-.043-4.158 5.732-3.474 12.68-11.088 11.217-3.58-.672-1.366-4.354-1.214-4.29.15.065.845 1.798 2.73 1.17 1.882-.628 4.947-12.404 6.906-13.187 2.155-.862 6.54 4.043 5.695 5.132z" stroke-width=".2855925"/><path d="M427.88 303.13c.325 1.9-.45 11.372-.865 13.64-.537 1.924-.447 6.71-10.395 7.148-4.776.21-3.898-4.548-3.68-4.548.215 0 1.948 1.733 3.897 0 1.948-1.732-.444-17.53 1.515-19.488 2.156-2.155 9.985 1.496 9.528 3.248z" transform="matrix(-.7 .3 .3 .7 585.7 -37.3)"/><path d="M377.123 303.255c1.36-.802 1.992-1.46 3.03-.043 4.158 5.732 3.474 12.68 11.088 11.217 3.58-.672 1.366-4.354 1.214-4.29-.15.065-.845 1.798-2.73 1.17-1.882-.628-4.947-12.404-6.906-13.187-2.155-.862-6.54 4.043-5.695 5.132z" stroke-width=".2855925"/><path d="M411.57 319.06l-.18 6.774 5.08-.037.613-6.737h-5.513z" transform="matrix(.7 0 0 .7 102.8 74)"/></g></g><path d="M409.69 276.93s-14.322 12.064-14.322 20.725c.306 3.457 3.17 6.98 8.407 9.52-2.418-3.586-2.747-6.52-2.747-9.93.306-5.86 8.46-12.932 8.46-12.932l.202-7.383z" fill-rule="evenodd" transform="matrix(-.6 0 0 .6 640.4 115.5)" stroke="#000" stroke-width=".375" fill="#5387f4"/><g stroke="#000" fill-rule="evenodd"><path transform="matrix(0 -.8 -.7 -.1 128.9 338.5)" stroke-width=".28" fill="#ffd200" d="M172.65-427.57h49.93v2.055h-49.93z"/><path d="M283.46-389.76l-17.717 70.866 17.717 25.037 17.716-25.037-17.716-70.866z" transform="matrix(-.1 0 0 .1 447.1 248.3)" stroke-width="1.698" fill="#ffd200"/><path d="M368.98-419.45s-40.71-27.717-40.71.866c0 28.582 39.844.866 40.71-.866zm-7.795-.18s-28.583-19.343-28.583.603c0 19.945 27.975.604 28.583-.604z" transform="matrix(-.1 0 0 .1 448.5 234.6)" stroke-width="2.684"/><path d="M368.98-419.45s-40.71-27.717-40.71.866c0 28.582 39.844.866 40.71-.866zm-7.795-.18s-28.583-19.343-28.583.603c0 19.945 27.975.604 28.583-.604z" transform="matrix(.1 0 0 -.1 376.8 181.8)" stroke-width="2.684"/><path d="M422.29-165.7l2.45-.306s1.766 2.602 3.675 6.737c1.68 4.332 3.368 11.33 4.9 27.256-4.594-.307-21.437 1.53-21.437 1.53s.236-19.168 6.125-26.028c2.757-2.906 4.593-8.575 4.287-9.188z" transform="matrix(.7 0 0 .8 128.9 338.5)" stroke-width=".279" fill="#5387f4"/><path d="M422.29-165.7l2.45-.306s1.766 2.602 3.675 6.737c1.68 4.332-4.9 11.637-3.37 27.562-4.592-.307-13.167 1.225-13.167 1.225s.236-19.17 6.125-26.03c2.757-2.905 4.593-8.574 4.287-9.187z" transform="matrix(.7 0 0 .8 128.9 338.5)" stroke-width=".279" fill="#fff"/><path d="M422.29-165.7l2.45-.306s-.613 7.962-2.756 11.943c-2.144 3.98-3.37 22.967-3.063 22.967.308 0-7.042.613-7.042.613s.236-19.17 6.125-26.03c2.757-2.905 4.593-8.574 4.287-9.187z" transform="matrix(.7 0 0 .8 128.9 338.5)" stroke-width=".279" fill="#5387f4"/></g><path d="M409.69 276.93s-14.322 12.064-14.322 20.725c.306 3.457 3.17 6.98 8.407 9.52-2.418-3.586-2.747-6.52-2.747-9.93.306-5.86 8.46-12.932 8.46-12.932l.202-7.383z" fill-rule="evenodd" transform="matrix(.6 0 0 .5 180.3 119.9)" stroke="#000" stroke-width=".375" fill="#5387f4"/><g stroke="#000" fill-rule="evenodd"><path d="M407.48-248.03l106.3-106.3s-27.516 220.02-88.583 265.75c0 0-53.15 24.117-53.15-.135l35.433-159.31z" transform="matrix(-.3 0 0 .2 512.2 287.5)" stroke-width="1pt" fill="#5387f4"/><path d="M407.48-248.03l70.866-70.867s-35.433 230.31-106.3 230.31v-.135l35.433-159.31z" transform="matrix(-.3 0 0 .2 512.2 287.5)" stroke-width="1pt" fill="#fff"/><path d="M407.48-248.03l35.433-35.434s-35.433 194.88-70.866 194.88v-.135l35.433-159.31z" transform="matrix(-.3 0 0 .2 512.2 287.5)" stroke-width="1pt" fill="#5387f4"/><path transform="matrix(-.2 -.1 -.2 .1 512.2 346.2)" stroke-width="1.3" fill="#ffd200" d="M678.85-116.49h177.17v7.323H678.85z"/><path d="M283.46-389.76l-17.717 70.866 17.717 25.037 17.716-25.037-17.716-70.866z" transform="matrix(-.1 .1 .1 .1 434.4 213.7)" stroke-width="2.753" fill="#ffd200"/><path d="M368.98-419.45s-40.71-27.717-40.71.866c0 28.582 39.844.866 40.71-.866zm-7.795-.18s-28.583-19.343-28.583.603c0 19.945 27.975.604 28.583-.604z" transform="matrix(-.1 .1 0 0 425.5 216.3)" stroke-width="1pt"/><path d="M368.98-419.45s-40.71-27.717-40.71.866c0 28.582 39.844.866 40.71-.866zm-7.795-.18s-28.583-19.343-28.583.603c0 19.945 27.975.604 28.583-.604z" transform="matrix(.1 -.1 -.1 0 313.2 221)" stroke-width="1pt"/><path d="M407.48-248.03l106.3-53.15S496.063-79.79 407.48-79.79c-53.15 0-70.866-70.866-70.866-70.866l70.866-97.378z" transform="matrix(-.3 0 0 .2 507.4 296.1)" stroke-width="1pt" fill="#5387f4"/><path d="M407.48-248.03l70.866-35.434c0 35.434-17.716 185.96-70.866 185.96-35.433 0-70.866-53.15-70.866-53.15l70.866-97.378z" transform="matrix(-.3 0 0 .2 507.4 296.1)" stroke-width="1pt" fill="#fff"/><path d="M407.48-248.03l35.433-17.717c0 79.662-17.716 150.53-53.15 150.53-17.716 0-53.15-35.433-53.15-35.433l70.867-97.378z" transform="matrix(-.3 0 0 .2 507.4 296.1)" stroke-width="1pt" fill="#5387f4"/><path transform="matrix(-.2 -.1 -.1 .2 512.2 346.2)" stroke-width="1.3" fill="#ffd200" d="M569.18-267.74h177.17v7.323H569.18z"/><path d="M283.46-389.76l-17.717 70.866 17.717 25.037 17.716-25.037-17.716-70.866z" transform="matrix(-.1 .1 .1 0 427.7 219.9)" stroke-width="2.753" fill="#ffd200"/><path d="M368.98-419.45s-40.71-27.717-40.71.866c0 28.582 39.844.866 40.71-.866zm-7.795-.18s-28.583-19.343-28.583.603c0 19.945 27.975.604 28.583-.604z" transform="matrix(-.1 .1 .1 0 420.3 224.4)" stroke-width="1pt"/><path d="M368.98-419.45s-40.71-27.717-40.71.866c0 28.582 39.844.866 40.71-.866zm-7.795-.18s-28.583-19.343-28.583.603c0 19.945 27.975.604 28.583-.604z" transform="matrix(.1 -.1 -.1 0 315.1 253.5)" stroke-width="1pt"/></g><g stroke="#000" fill-rule="evenodd"><path d="M407.48-248.03l106.3-106.3s-27.516 220.02-88.583 265.75c0 0-53.15 24.117-53.15-.135l35.433-159.31z" transform="matrix(.3 0 0 .2 316.9 287.5)" stroke-width="1pt" fill="#5387f4"/><path d="M407.48-248.03l70.866-70.867s-35.433 230.31-106.3 230.31v-.135l35.433-159.31z" transform="matrix(.3 0 0 .2 316.9 287.5)" stroke-width="1pt" fill="#fff"/><path d="M407.48-248.03l35.433-35.434s-35.433 194.88-70.866 194.88v-.135l35.433-159.31z" transform="matrix(.3 0 0 .2 316.9 287.5)" stroke-width="1pt" fill="#5387f4"/><path transform="matrix(.2 -.1 .2 .1 316.9 346.2)" stroke-width="1.3" fill="#ffd200" d="M678.85-116.49h177.17v7.323H678.85z"/><path d="M283.46-389.76l-17.717 70.866 17.717 25.037 17.716-25.037-17.716-70.866z" transform="matrix(.1 .1 -.1 .1 393.6 213.7)" stroke-width="2.753" fill="#ffd200"/><path d="M368.98-419.45s-40.71-27.717-40.71.866c0 28.582 39.844.866 40.71-.866zm-7.795-.18s-28.583-19.343-28.583.603c0 19.945 27.975.604 28.583-.604z" transform="matrix(.1 .1 0 0 402.3 216.3)" stroke-width="1pt"/><path d="M368.98-419.45s-40.71-27.717-40.71.866c0 28.582 39.844.866 40.71-.866zm-7.795-.18s-28.583-19.343-28.583.603c0 19.945 27.975.604 28.583-.604z" transform="matrix(-.1 -.1 .1 0 513 221)" stroke-width="1pt"/><path d="M407.48-248.03l106.3-53.15S496.063-79.79 407.48-79.79c-53.15 0-70.866-70.866-70.866-70.866l70.866-97.378z" transform="matrix(.3 0 0 .2 321.5 296.1)" stroke-width="1pt" fill="#5387f4"/><path d="M407.48-248.03l70.866-35.434c0 35.434-17.716 185.96-70.866 185.96-35.433 0-70.866-53.15-70.866-53.15l70.866-97.378z" transform="matrix(.3 0 0 .2 321.5 296.1)" stroke-width="1pt" fill="#fff"/><path d="M407.48-248.03l35.433-17.717c0 79.662-17.716 150.53-53.15 150.53-17.716 0-53.15-35.433-53.15-35.433l70.867-97.378z" transform="matrix(.3 0 0 .2 321.5 296.1)" stroke-width="1pt" fill="#5387f4"/><path transform="matrix(.2 -.1 .1 .2 316.9 346.2)" stroke-width="1.3" fill="#ffd200" d="M569.18-267.74h177.17v7.323H569.18z"/><path d="M283.46-389.76l-17.717 70.866 17.717 25.037 17.716-25.037-17.716-70.866z" transform="matrix(.1 .1 -.1 0 400.2 219.9)" stroke-width="2.753" fill="#ffd200"/><path d="M368.98-419.45s-40.71-27.717-40.71.866c0 28.582 39.844.866 40.71-.866zm-7.795-.18s-28.583-19.343-28.583.603c0 19.945 27.975.604 28.583-.604z" transform="matrix(.1 .1 -.1 0 407.4 224.4)" stroke-width="1pt"/><path d="M368.98-419.45s-40.71-27.717-40.71.866c0 28.582 39.844.866 40.71-.866zm-7.795-.18s-28.583-19.343-28.583.603c0 19.945 27.975.604 28.583-.604z" transform="matrix(-.1 -.1 .1 0 511.1 253.4)" stroke-width="1pt"/></g><g stroke-linejoin="bevel" stroke="#000" stroke-width=".168"><path d="M496.06 627.16l17.717-17.716 17.716 17.716H496.06z" fill-rule="evenodd" transform="matrix(2 0 0 3.4 -620.2 -1878.1)" fill="#ffd200"/><path d="M496.06 627.16l17.717-17.716 17.716 17.716H496.06z" fill-rule="evenodd" transform="matrix(1.8 0 0 3.1 -517.9 -1677.7)" fill="#0ff"/><path d="M419.84 239.14c0 3.89-3.222 7.043-7.196 7.043-3.975 0-7.197-3.153-7.197-7.043s3.222-7.043 7.197-7.043c3.974 0 7.196 3.153 7.196 7.043z" fill-rule="evenodd" fill="#ffd200" transform="matrix(.7 0 0 .7 105.1 70.3)"/><g fill="none"><path d="M462.73 556.66l-1.18-108.32" transform="matrix(.2 0 0 .2 330.4 145.3)"/><path d="M424.124 258.046l7.77-10.832M425.302 259.222l12.48-5.18M426.244 260.872l14.6.47" stroke-width=".033600000000000005"/><path d="M474.51 587.28l42.388 37.677" transform="matrix(.2 0 0 .2 330.4 145.3)"/><path d="M422.946 262.048v6.83M420.356 260.4l-11.068 9.655M421.534 261.106l-4.945 9.184M419.65 259.222l-18.368 6.358M419.414 258.28l-12.952-.47M409.052 252.864l11.303 3.768M414.468 243.21l6.83 13.187" stroke-width=".033600000000000005"/></g><g fill-rule="evenodd"><path d="M460.63 219.69c-35.433 0-61.25 6.505-83.044 14.145l5.54-9.58 5.53-9.594 5.54-9.595 5.54-9.578 5.53-9.595 5.54-9.58 6.13-9.768c8.26-7.257 25.98-10.652 43.69-10.652 17.72 0 35.44 3.586 44.3 10.826l5.54 9.595 5.53 9.58 5.54 9.594 5.54 9.578 5.53 9.596 5.54 9.596 5.53 9.58c-22.972-7.64-47.613-14.146-83.046-14.146z" transform="matrix(.2 0 0 .2 330.6 202.8)" fill="#c453d7"/><path d="M460.63 212.93c-35.548-.05-75.28 10.597-77.504 11.33l5.53-9.596 5.54-9.596 5.54-9.578 5.53-9.595 5.54-9.58 6.13-9.768c8.26-7.257 25.98-10.652 43.69-10.652 17.72 0 35.44 3.586 44.3 10.826l5.54 9.596 5.53 9.58 5.54 9.594 5.54 9.578 5.53 9.596 5.54 9.595s-42.083-11.33-77.516-11.33z" transform="matrix(.2 0 0 .2 330.6 202.8)" fill="#5000c1"/><path d="M460.63 205.27c-26.248-.11-68.686 7.14-71.68 8.504l5.246-8.713 5.54-9.577 5.53-9.595 5.54-9.58 6.13-9.768c8.26-7.257 25.98-10.652 43.69-10.652 17.72 0 35.44 3.586 44.3 10.826l5.54 9.595 5.53 9.578 5.54 9.595 5.54 9.578 5.53 9.597s-36.543-9.387-71.976-9.387z" transform="matrix(.2 0 0 .2 330.6 202.8)" fill="#0053d7"/><path d="M460.63 197.32c-34.802-.07-63.717 6.63-66.434 7.74l5.54-9.58 5.53-9.594 5.54-9.58 6.13-9.768c8.26-7.257 25.98-10.652 43.69-10.652 17.72 0 35.44 3.586 44.3 10.826l5.54 9.595 5.53 9.58 5.54 9.594 5.54 9.58s-31.013-7.74-66.446-7.74z" transform="matrix(.2 0 0 .2 330.6 202.8)" fill="#009f9f"/><path d="M460.63 190.56c-35.605-.123-57.963 4.465-60.894 4.93l5.53-9.594 5.54-9.58 6.13-9.768c8.26-7.257 25.98-10.652 43.69-10.652 17.72 0 35.44 3.586 44.3 10.826l5.54 9.595 5.53 9.58 5.54 9.594s-25.473-4.93-60.906-4.93z" transform="matrix(.2 0 0 .2 330.6 202.8)" fill="#ff0"/><path d="M460.34 181.72c-31.014-.67-53.786 4.25-55.07 4.167l5.54-9.58 6.13-9.768c8.26-7.258 25.98-10.653 43.69-10.653 17.72 0 35.44 3.586 44.3 10.826l5.54 9.595 5.53 9.58s-20.227-4.168-55.66-4.168z" transform="matrix(.2 0 0 .2 330.6 202.8)" fill="#f50"/><path d="M461.51 171.42c-31.13.257-47.247 4.34-50.707 4.89l6.13-9.768c8.26-7.257 25.98-10.652 43.69-10.652 17.72 0 35.44 3.586 44.3 10.826l5.54 9.595s-13.52-4.89-48.953-4.89z" transform="matrix(.2 0 0 .2 330.6 202.8)" fill="#ff0b00"/></g><path d="M496.06 627.16l4.983-4.983h25.467l4.983 4.983H496.06z" fill-rule="evenodd" transform="matrix(1.8 0 0 3.1 -517.9 -1677.7)" fill="#4363ff"/><path d="M438.01 565.49c.41 0 .727-1.87 1.766-3.532 2.222-1.61 4.568-2.87 7.653-3.533 1.664-.832 5.08-.588 7.652-.588 3.61.324 3.837 1.865 5.888 4.12.902 1.838 3.038 4.39 4.12 7.065 1.173 1.42 2.108 3.626 2.944 5.3.855 1.803 1.765 4.525 2.944 7.063.605 2.824 1.177 5.028 1.177 8.242 0 3.352-.554 4.78-1.177 7.065-1.794.598-5.29.888-7.065 0-1.9-1.7-5.162-.617-6.475-2.355-3.386-.474-4.208-4.46-5.888-6.475-1.175-1.73-1.156-3.032-2.355-4.71-1.857-1.327-2.108-2.945-2.943-5.3.736-2.516 2.015-3.067 4.12-4.12 1.128-1.644 1.767-2.304 1.767-5.298-.425-3.334-1.626-2.982-4.71-3.533-3.815 0-5.77.394-9.42.59z" fill-rule="evenodd" transform="matrix(.1 0 0 .1 358.9 193.8)" fill="red"/><g fill-rule="evenodd" fill="#6da700"><path d="M334.69 674.38s28.307-4.996 46.624-19.982c18.316-14.986 18.317-39.964 26.642-39.964 8.326 0 9.99 28.308 29.973 38.3 19.98 9.99 51.62 23.31 51.62 23.31l-154.86-1.664z" transform="matrix(.1 0 0 .1 380.1 203)"/><path d="M334.69 674.38s28.307-4.996 46.624-19.982c18.316-14.986 18.317-39.964 26.642-39.964 8.326 0 9.99 28.308 29.973 38.3 19.98 9.99 51.62 23.31 51.62 23.31l-154.86-1.664z" transform="matrix(.1 0 0 .1 379 203.1)"/><path d="M334.69 674.38s28.307-4.996 46.624-19.982c18.316-14.986 18.317-39.964 26.642-39.964 8.326 0 9.99 28.308 29.973 38.3 19.98 9.99 51.62 23.31 51.62 23.31l-154.86-1.664z" transform="matrix(.1 0 0 .1 369.2 196.6)"/><path d="M334.69 674.38s28.307-4.996 46.624-19.982c18.316-14.986 18.317-39.964 26.642-39.964 8.326 0 9.99 28.308 29.973 38.3 19.98 9.99 51.62 23.31 51.62 23.31l-154.86-1.664z" transform="matrix(.1 0 0 .1 360.1 184.6)"/><path d="M334.69 674.38s28.307-4.996 46.624-19.982c18.316-14.986 18.317-39.964 26.642-39.964 8.326 0 9.99 28.308 29.973 38.3 19.98 9.99 51.62 23.31 51.62 23.31l-154.86-1.664z" transform="matrix(.1 0 0 .2 349.8 175.3)"/><path d="M334.69 674.38s28.307-4.996 46.624-19.982c18.316-14.986 18.317-39.964 26.642-39.964 8.326 0 9.99 28.308 29.973 38.3 19.98 9.99 51.62 23.31 51.62 23.31l-154.86-1.664z" transform="matrix(.1 0 0 .2 341.3 163.1)"/><path d="M334.69 674.38s28.307-4.996 46.624-19.982c18.316-14.986 18.317-39.964 26.642-39.964 8.326 0 9.99 28.308 29.973 38.3 19.98 9.99 51.62 23.31 51.62 23.31l-154.86-1.664z" transform="matrix(.1 0 0 .2 339.2 161.1)"/><path d="M334.69 674.38s28.307-4.996 46.624-19.982c18.316-14.986 18.317-39.964 26.642-39.964 8.326 0 9.99 28.308 29.973 38.3 19.98 9.99 51.62 23.31 51.62 23.31l-154.86-1.664z" transform="matrix(.1 0 0 .2 337.1 161.2)"/><path d="M334.69 674.38s28.307-4.996 46.624-19.982c18.316-14.986 18.317-39.964 26.642-39.964 8.326 0 9.99 28.308 29.973 38.3 19.98 9.99 51.62 23.31 51.62 23.31l-154.86-1.664z" transform="matrix(.2 0 0 .2 320.6 149.8)"/><path d="M334.69 674.38s28.307-4.996 46.624-19.982c18.316-14.986 18.317-39.964 26.642-39.964 8.326 0 9.99 28.308 29.973 38.3 19.98 9.99 51.62 23.31 51.62 23.31l-154.86-1.664z" transform="matrix(.2 0 0 .2 306.2 130.1)"/><path d="M334.69 674.38s28.307-4.996 46.624-19.982c18.316-14.986 18.317-39.964 26.642-39.964 8.326 0 9.99 28.308 29.973 38.3 19.98 9.99 51.62 23.31 51.62 23.31l-154.86-1.664z" transform="matrix(.2 0 0 .2 289 114.5)"/><path d="M334.69 674.38s28.307-4.996 46.624-19.982c18.316-14.986 18.317-39.964 26.642-39.964 8.326 0 9.99 28.308 29.973 38.3 19.98 9.99 51.62 23.31 51.62 23.31l-154.86-1.664z" transform="matrix(.2 0 0 .3 275.7 94.4)"/></g></g><path d="M380.34 293.64l5.82-4.9s7.96 6.43 23.578 6.125c14.71-.283 19.906-5.513 22.05-6.126l5.817 5.205c-3.37.92-15.31 6.737-28.785 7.35-14.087-.612-26.642-5.817-28.48-7.655z" fill-rule="evenodd" transform="matrix(.7 0 0 .7 106.5 70.5)" stroke="#000" stroke-width=".375" fill="#ffc200"/><path d="M426.59 289.99l-.65-1.798-.765.268-.087-.24 1.837-.645.087.24-.766.27.65 1.798-.307.108zM421.052 291.61l-.565-2.09 1.72-.452.065.247-1.404.368.173.64 1.316-.344.066.244-1.315.345.193.71 1.46-.38.066.246-1.774.465zM417.9 292.31l-.565-2.092.315-.082.565 2.092-.315.082zM415.79 292.57l-.27-2.15.322-.038.238 1.895 1.203-.145.032.254-1.526.184zM412.024 292.768l-.063-2.165.335-.01 1.34 1.667-.05-1.7.313-.007.062 2.165-.333.008-1.34-1.668.048 1.702-.31.008zM408.162 292.55l.225-2.154.323.034-.225 2.154-.323-.033zM405.503 292.082l.404-2.13.328.063.952 1.91.316-1.67.307.056-.404 2.13-.328-.062-.95-1.912-.318 1.673-.307-.058zM405.324 289.88l.314.082-.318 1.21c-.055.212-.126.372-.212.482-.087.11-.21.185-.374.226-.16.04-.356.032-.585-.028-.223-.058-.397-.14-.52-.244-.125-.104-.2-.228-.227-.372-.027-.144-.01-.327.047-.55l.318-1.21.315.082-.318 1.21c-.048.18-.064.32-.05.417.017.096.066.18.147.25s.19.125.325.16c.232.06.41.057.532-.01.12-.067.217-.232.286-.495l.318-1.21zM399.876 289.768l.303.062c-.016.11-.006.203.026.285.034.08.1.16.196.23.096.073.213.128.347.167.12.034.23.05.33.044s.18-.028.238-.07c.06-.042.098-.095.116-.16.017-.065.01-.128-.02-.19-.03-.06-.09-.122-.18-.183-.057-.04-.19-.115-.394-.222-.206-.11-.347-.196-.423-.262-.1-.084-.167-.173-.202-.266-.034-.094-.038-.188-.012-.284.028-.105.09-.194.18-.265.093-.072.21-.114.355-.124.143-.01.294.007.454.053.176.05.324.12.444.21.122.087.205.19.252.307s.056.238.028.362l-.306-.067c.02-.136-.01-.25-.085-.346-.075-.094-.203-.168-.385-.22-.19-.055-.337-.064-.44-.027-.104.036-.166.097-.19.183-.02.075-.006.145.043.212.047.065.19.16.432.285.242.123.405.217.49.282.123.096.206.196.248.302.043.104.05.212.02.324-.03.112-.095.206-.194.284-.1.076-.224.123-.375.14-.15.014-.31-.002-.478-.05-.215-.063-.387-.142-.518-.238-.13-.097-.222-.212-.275-.346-.053-.134-.062-.27-.03-.412zM396.22 289.09l.743-2.03.305.117-.742 2.028-.305-.116zM393.767 287.523l1.37-1.678.65.543c.146.123.252.224.315.305.09.112.15.23.18.35.038.16.034.317-.013.475-.045.157-.13.31-.25.46-.105.128-.214.227-.328.297-.113.07-.223.117-.328.138-.105.02-.204.023-.297.008-.092-.014-.19-.05-.293-.104-.104-.054-.212-.128-.326-.224l-.68-.57zm.41.01l.404.338c.125.104.23.175.318.214.088.038.168.057.242.054.1-.003.205-.035.31-.096.106-.06.21-.156.314-.282.143-.176.22-.338.232-.486.013-.148-.014-.277-.08-.387-.05-.08-.147-.18-.295-.304l-.395-.33-1.047 1.28zM397.332 288.562c.123-.337.322-.56.596-.673.276-.112.575-.107.9.017.213.082.388.2.526.355s.222.33.253.524c.03.194.01.393-.064.595-.075.207-.19.373-.344.5-.154.126-.333.198-.536.216-.203.016-.405-.014-.605-.09-.218-.083-.395-.203-.532-.36-.137-.16-.22-.334-.25-.527-.03-.195-.01-.38.054-.558zm.312.124c-.09.244-.085.466.012.664.098.198.26.34.485.425.23.088.445.09.645.004s.35-.26.444-.52c.06-.165.08-.322.06-.47-.017-.146-.074-.277-.173-.392-.096-.114-.22-.2-.372-.26-.215-.082-.426-.087-.63-.016-.202.07-.36.26-.47.564zM409.18 291.537c.038-.358.176-.626.415-.805.24-.18.53-.252.876-.216.226.024.425.093.596.207s.296.26.373.44c.077.18.104.378.082.593-.023.22-.093.41-.212.57-.117.163-.273.28-.466.35-.192.068-.395.09-.607.07-.23-.025-.43-.095-.602-.212-.17-.117-.295-.266-.37-.444-.076-.18-.104-.364-.084-.553zm.334.04c-.027.26.03.472.173.638.143.166.334.26.574.286.244.026.452-.028.625-.162.173-.135.275-.34.304-.617.017-.175 0-.332-.056-.47-.053-.137-.14-.25-.263-.334-.12-.086-.262-.137-.423-.154-.23-.024-.434.025-.614.147-.18.12-.285.342-.32.666zM430.142 288.758l-.957-1.948.762-.364c.173-.083.31-.137.41-.16.138-.037.27-.042.392-.017.158.03.3.1.424.207.124.107.23.247.315.42.07.15.116.29.133.422s.013.25-.012.356c-.024.103-.062.194-.114.273-.05.076-.124.15-.216.222-.092.072-.206.14-.34.204l-.798.382zm.18-.37l.473-.226c.146-.07.254-.137.325-.2.072-.064.12-.13.15-.197.04-.094.053-.202.04-.323-.012-.122-.053-.257-.126-.404-.1-.203-.215-.342-.345-.414-.13-.073-.258-.103-.385-.088-.092.01-.225.058-.4.14l-.464.223.732 1.488zM423.375 290.92l-.565-2.09 1.053-.277c.213-.056.38-.08.5-.07.12.008.225.05.317.13.092.076.153.173.184.288.04.15.02.29-.062.42s-.233.24-.453.326c.09.013.164.032.216.054.112.05.224.12.337.21l.567.462-.396.104-.432-.353c-.126-.102-.227-.178-.305-.23s-.144-.083-.198-.097c-.055-.015-.108-.02-.16-.018-.036.002-.095.014-.177.036l-.365.095.25.928-.313.083zm-.002-1.25l.677-.178c.143-.037.252-.08.327-.127.073-.047.124-.106.15-.174.027-.068.03-.136.013-.204-.027-.1-.09-.17-.19-.21-.098-.044-.235-.042-.41.004l-.754.197.187.692zM427.64 289.732l.05-2.356.325-.13 1.76 1.632-.345.138-.516-.5-.953.38v.708l-.32.128zm.32-1.087l.772-.31-.467-.46c-.142-.14-.252-.256-.333-.35.024.14.036.284.035.432l-.008.688zM418.704 292.058l-.46-2.117.903-.19c.184-.037.336-.047.456-.027s.22.067.304.143c.082.075.134.162.155.26.02.09.01.18-.028.272s-.11.174-.21.247c.153.007.278.047.376.122.098.074.16.172.188.295.02.1.017.197-.012.293-.03.094-.073.172-.134.233-.06.06-.14.114-.24.16-.1.047-.227.085-.38.117l-.918.193zm.052-1.295l.52-.11c.14-.03.24-.058.3-.087.074-.038.128-.086.158-.144.03-.058.038-.124.022-.198-.015-.07-.048-.128-.098-.172-.05-.047-.112-.07-.187-.076-.075-.005-.2.01-.372.046l-.48.1.138.64zm.213.978l.598-.124c.102-.022.174-.04.214-.056.07-.027.127-.06.17-.097.044-.037.076-.084.097-.142.02-.058.023-.12.008-.188-.017-.08-.055-.143-.114-.19-.058-.05-.132-.077-.218-.083-.087-.008-.206.004-.36.036l-.555.117.16.728z"/><g stroke="#000" fill="#ffc200" stroke-width=".375"><path d="M658.63 787.09v-8.59h1.136v7.577h4.23v1.013h-5.366z" transform="matrix(-1.1 .4 -.4 -1.1 1500.8 869.2)"/><path d="M636.87 787.09v-7.576h-2.83V778.5h6.81v1.014h-2.843v7.576h-1.137z" transform="matrix(-.8 .8 -.8 -.8 1640.8 410.8)"/><path d="M626 787.09v-8.59h1.166l4.512 6.745V778.5h1.09v8.59H631.6l-4.51-6.75v6.75H626z" transform="matrix(-.8 .8 -.8 -.8 1636.9 442.3)"/><path d="M618.03 787.09v-8.59h6.21v1.014h-5.073v2.63h4.752v1.01h-4.753v2.923h5.273v1.013h-6.41zM615.47 784.08l1.136.287c-.238.933-.668 1.646-1.29 2.138-.616.49-1.372.733-2.266.733-.926 0-1.68-.188-2.262-.563-.578-.38-1.02-.926-1.324-1.64-.3-.715-.45-1.483-.45-2.303 0-.895.168-1.674.508-2.338.344-.668.83-1.174 1.46-1.518.632-.347 1.327-.52 2.085-.52.86 0 1.582.218 2.168.655.586.44.994 1.054 1.225 1.847l-1.12.264c-.2-.624-.488-1.08-.867-1.365-.378-.285-.855-.427-1.43-.427-.66 0-1.212.158-1.657.474-.442.317-.752.742-.932 1.278-.18.53-.27 1.08-.27 1.646 0 .73.106 1.37.317 1.916.216.543.548.95.997 1.22.45.268.935.403 1.46.403.636 0 1.175-.183 1.616-.55.44-.368.74-.913.897-1.635z" transform="matrix(-.6 1 -1 -.6 1639 177.2)"/><path d="M595.47 784.08l1.136.287c-.238.933-.668 1.646-1.29 2.138-.616.49-1.372.733-2.266.733-.926 0-1.68-.188-2.262-.563-.578-.38-1.02-.926-1.324-1.64-.3-.715-.45-1.483-.45-2.303 0-.895.17-1.674.508-2.338.344-.668.83-1.174 1.46-1.518.632-.347 1.328-.52 2.085-.52.86 0 1.582.218 2.168.655.586.44.994 1.054 1.225 1.847l-1.12.264c-.198-.624-.488-1.08-.866-1.365-.38-.285-.856-.427-1.43-.427-.66 0-1.213.158-1.658.474-.442.317-.752.742-.932 1.278-.18.53-.27 1.08-.27 1.646 0 .73.106 1.37.317 1.916.216.543.548.95.997 1.22.45.268.936.403 1.46.403.636 0 1.175-.183 1.616-.55.442-.368.74-.913.897-1.635z" transform="matrix(0 1.1 -1.2 0 1375.3 -455.7)"/><path d="M586.2 787.09v-8.59h1.137v8.59H586.2z" transform="matrix(.1 1.1 -1.2 .1 1360.3 -474.5)"/><path d="M569.36 787.09v-8.59h6.21v1.014h-5.073v2.63h4.752v1.01h-4.753v2.923h5.273v1.013h-6.41z" transform="matrix(.3 1.1 -1.1 .3 1178.5 -645.8)"/><path d="M559.31 787.09v-8.59h1.71l2.034 6.082c.187.567.324.99.41 1.272.098-.313.25-.772.457-1.377l2.058-5.977h1.53v8.59h-1.097v-7.19l-2.495 7.19h-1.025l-2.485-7.312v7.312h-1.095z" transform="matrix(.5 1 -1.1 .5 1059.1 -724.6)"/><path d="M533.28 787.09v-8.59h1.137v7.577h4.23v1.013h-5.367z" transform="matrix(1 .6 -.7 .9 462.3 -889.8)"/><path d="M521.31 787.09v-8.59h1.166l4.512 6.745V778.5h1.09v8.59h-1.166l-4.512-6.75v6.75h-1.09z" transform="matrix(1.1 .5 -.5 1 275.9 -876.6)"/><path d="M513.34 787.09v-8.59h6.21v1.014h-5.074v2.63h4.752v1.01h-4.752v2.923h5.274v1.013h-6.41z" transform="matrix(1.1 .4 -.4 1.1 225 -867.9)"/><path d="M469.77 787.09l-3.328-8.59h1.23l2.233 6.24c.18.5.33.97.45 1.407.134-.47.29-.938.464-1.406l2.32-6.24h1.16l-3.363 8.59h-1.167z" transform="matrix(1.1 -.3 .3 1.1 -408.3 -517.4)"/><path d="M460.59 787.09v-8.59h1.136v7.577h4.23v1.013h-5.366z" transform="matrix(1 -.6 .6 1 -545.8 -333)"/><path d="M444.24 784.33l1.072-.094c.05.43.168.783.352 1.06.187.274.476.496.867.668.392.168.83.252 1.32.252.433 0 .816-.064 1.148-.193s.578-.305.738-.527c.164-.227.246-.473.246-.74 0-.268-.078-.503-.234-.702-.156-.203-.414-.373-.774-.51-.23-.09-.74-.228-1.53-.416-.788-.19-1.34-.37-1.657-.54-.41-.214-.717-.48-.92-.796-.2-.32-.3-.677-.3-1.072 0-.433.124-.838.37-1.213.246-.38.606-.666 1.078-.86.473-.196.998-.294 1.577-.294.636 0 1.197.103 1.68.31.49.204.865.504 1.126.903.262.398.403.85.422 1.353l-1.09.08c-.058-.542-.258-.952-.597-1.23-.336-.276-.834-.415-1.495-.415-.687 0-1.19.127-1.505.38-.313.25-.47.553-.47.91 0 .308.112.56.335.76.22.2.79.405 1.71.616.927.208 1.56.39 1.905.546.5.23.87.523 1.108.88.24.35.358.757.358 1.217 0 .458-.13.89-.393 1.295-.26.403-.638.717-1.13.944-.49.222-1.04.334-1.653.334-.777 0-1.43-.114-1.957-.34-.523-.227-.935-.566-1.236-1.02-.298-.457-.454-.972-.47-1.546z" transform="matrix(.9 -.8 .8 .9 -641 -127.3)"/><path d="M434.58 787.09v-8.59h1.137v7.577h4.23v1.013h-5.367z" transform="matrix(.7 -.9 .9 .7 -692.5 89.4)"/><path d="M426.64 787.09v-8.59h6.21v1.014h-5.073v2.63h4.752v1.01h-4.753v2.923h5.274v1.013h-6.41z" transform="matrix(.6 -1 1 .6 -700.6 215.7)"/><path d="M415.31 787.09v-8.59h6.21v1.014h-5.074v2.63h4.752v1.01h-4.752v2.923h5.274v1.013h-6.41z" transform="matrix(.3 -1.1 1.1 .2 -661.6 508.1)"/><path d="M392.74 784.08l1.137.287c-.238.933-.668 1.646-1.29 2.138-.616.49-1.372.733-2.267.733-.926 0-1.68-.188-2.26-.563-.58-.38-1.02-.926-1.326-1.64-.3-.715-.45-1.483-.45-2.303 0-.895.17-1.674.51-2.338.343-.668.83-1.174 1.458-1.518.633-.347 1.328-.52 2.086-.52.86 0 1.582.218 2.168.655.586.44.994 1.054 1.224 1.847l-1.12.264c-.198-.624-.487-1.08-.866-1.365s-.855-.427-1.43-.427c-.66 0-1.213.158-1.658.474-.44.317-.752.742-.93 1.278-.18.53-.27 1.08-.27 1.646 0 .73.104 1.37.315 1.916.216.543.548.95.997 1.22.45.268.936.403 1.46.403.636 0 1.175-.183 1.617-.55.44-.368.74-.913.896-1.635z" transform="matrix(-.4 -1.1 1.1 -.3 -393.7 970.9)"/><path d="M383.47 787.09v-8.59h1.136v8.59h-1.136z" transform="matrix(-.5 -1 1 -.5 -280.2 1070.3)"/><path d="M376.56 787.09v-8.59h1.136v7.577h4.23v1.013h-5.366z" transform="matrix(-.5 -1 1.1 -.4 -323.4 1035.1)"/><path d="M365.57 778.5h1.137v4.963c0 .864-.098 1.55-.293 2.057s-.55.922-1.06 1.242c-.508.317-1.176.475-2.004.475-.805 0-1.463-.14-1.975-.416-.512-.277-.877-.677-1.096-1.2-.22-.528-.33-1.247-.33-2.157V778.5h1.138v4.957c0 .747.068 1.297.205 1.653.14.35.38.623.715.814.34.192.754.287 1.242.287.836 0 1.432-.188 1.787-.567s.533-1.107.533-2.186V778.5z" transform="matrix(-.8 -.9 .9 -.7 -66.6 1197)"/><path d="M343.95 787.09v-8.59h6.21v1.014h-5.073v2.63h4.752v1.01h-4.753v2.923h5.273v1.013h-6.41z" transform="matrix(-.9 -.7 .7 -.9 116.8 1259.8)"/><path d="M649.73 787.09l3.3-8.59h1.224l3.515 8.59h-1.296l-1-2.6h-3.593l-.943 2.6h-1.207zm2.48-3.527h2.91l-.896-2.38c-.273-.722-.476-1.315-.61-1.78-.108.55-.263 1.097-.462 1.64l-.943 2.52z" transform="matrix(-1 .6 -.6 -1 1576.5 702)"/><path d="M642.03 787.09v-8.59h3.81c.764 0 1.347.08 1.745.235.398.152.717.424.955.814.238.39.357.822.357 1.294 0 .61-.197 1.123-.59 1.54-.396.42-1.005.685-1.83.798.3.145.53.287.686.428.332.304.647.685.943 1.142l1.495 2.338h-1.43l-1.136-1.787c-.332-.515-.605-.91-.82-1.183-.215-.274-.408-.465-.58-.575-.168-.11-.34-.185-.516-.228-.13-.028-.34-.04-.633-.04h-1.318v3.813h-1.137zm1.137-4.8h2.443c.52 0 .926-.05 1.22-.157.292-.11.515-.28.667-.515.152-.24.23-.496.23-.774 0-.406-.15-.74-.447-1.002-.293-.26-.758-.392-1.394-.392h-2.72v2.84z" transform="matrix(-.9 .7 -.8 -.9 1628 513.8)"/><path d="M597.06 787.09l3.3-8.59h1.224l3.515 8.59h-1.295l-1.002-2.6h-3.592l-.943 2.6h-1.207zm2.48-3.527h2.91l-.895-2.38c-.274-.722-.477-1.315-.61-1.78-.11.55-.263 1.097-.463 1.64l-.943 2.52z" transform="matrix(-.4 1.1 -1.1 -.3 1573.6 -113.2)"/><path d="M577.36 787.09v-8.59h3.81c.765 0 1.347.08 1.745.235.398.152.717.424.955.814.238.39.358.822.358 1.294 0 .61-.198 1.123-.592 1.54-.395.42-1.004.685-1.828.798.3.145.53.287.685.428.332.304.647.685.944 1.142l1.494 2.338h-1.43l-1.136-1.787c-.332-.515-.605-.91-.82-1.183-.215-.274-.408-.465-.58-.575-.168-.11-.34-.185-.516-.228-.13-.028-.34-.04-.633-.04h-1.318v3.813h-1.137zm1.137-4.8h2.443c.52 0 .926-.05 1.22-.157.292-.11.515-.28.667-.515.152-.24.23-.496.23-.774 0-.406-.15-.74-.447-1.002-.293-.26-.757-.392-1.394-.392h-2.72v2.84z" transform="matrix(.1 1.1 -1.2 .1 1338 -500.3)"/><path d="M550.39 787.09l3.3-8.59h1.224l3.516 8.59h-1.295l-1.002-2.6h-3.592l-.942 2.6h-1.208zm2.48-3.527h2.91l-.895-2.38c-.274-.722-.477-1.315-.61-1.78-.11.55-.263 1.097-.463 1.64l-.943 2.52z" transform="matrix(.7 .9 -1 .7 848.1 -821.7)"/><path d="M539.06 787.09l3.298-8.59h1.225l3.516 8.59h-1.296l-1.002-2.6h-3.592l-.943 2.6h-1.207zm2.478-3.527h2.912l-.896-2.38c-.274-.722-.477-1.315-.61-1.78-.11.55-.263 1.097-.463 1.64l-.942 2.52z" transform="matrix(.9 .8 -.8 .8 626.8 -877.4)"/><path d="M501.34 787.09v-8.59h3.808c.766 0 1.348.08 1.746.235.4.152.717.424.956.814.238.39.357.822.357 1.294 0 .61-.197 1.123-.592 1.54-.394.42-1.004.685-1.828.798.3.145.53.287.686.428.332.304.646.685.943 1.142l1.494 2.338h-1.43l-1.136-1.787c-.332-.515-.606-.91-.82-1.183-.215-.274-.41-.465-.58-.575-.17-.11-.34-.185-.516-.228-.13-.028-.34-.04-.633-.04h-1.318v3.813h-1.137zm1.137-4.8h2.443c.52 0 .926-.05 1.22-.157.292-.11.514-.28.667-.515.152-.24.228-.496.228-.774 0-.406-.148-.74-.445-1.002-.293-.26-.758-.392-1.395-.392h-2.718v2.84z" transform="matrix(1.2 .1 -.1 1.1 -75 -768.6)"/><path d="M491.64 782.91c0-1.426.382-2.54 1.148-3.346.766-.81 1.754-1.213 2.965-1.213.793 0 1.508.19 2.144.57.637.378 1.12.908 1.453 1.587.336.676.504 1.444.504 2.303 0 .87-.175 1.65-.527 2.338-.352.687-.85 1.21-1.494 1.564-.645.352-1.34.528-2.086.528-.81 0-1.53-.196-2.168-.586-.638-.39-1.12-.924-1.448-1.6s-.492-1.39-.492-2.144zm1.17.017c0 1.035.28 1.852.833 2.45.56.593 1.258.89 2.098.89.857 0 1.56-.3 2.11-.902.555-.602.833-1.455.833-2.56 0-.7-.12-1.31-.358-1.83-.234-.522-.58-.927-1.037-1.212-.453-.29-.963-.433-1.53-.433-.804 0-1.497.277-2.08.832-.578.55-.867 1.472-.867 2.765z" transform="matrix(1.2 .1 -.1 1.1 -76 -768.2)"/><path d="M483.32 787.09v-8.59h2.96c.667 0 1.177.04 1.53.123.49.114.91.32 1.258.616.453.382.79.872 1.014 1.47.227.593.34 1.273.34 2.038 0 .653-.076 1.23-.23 1.735-.15.504-.346.922-.585 1.254-.238.328-.5.588-.785.78-.28.187-.623.33-1.025.427-.4.097-.858.146-1.377.146h-3.1zm1.137-1.013h1.834c.567 0 1.01-.053 1.33-.16.325-.104.583-.253.774-.444.27-.27.48-.63.627-1.084.154-.458.23-1.01.23-1.66 0-.898-.15-1.587-.445-2.067-.293-.485-.65-.81-1.073-.973-.304-.117-.795-.176-1.47-.176h-1.805v6.563z" transform="matrix(1.1 -.2 .2 1.1 -332.1 -593.6)"/><path d="M474.37 787.09l3.3-8.59h1.223l3.516 8.59h-1.296l-1.002-2.6h-3.592l-.943 2.6h-1.207zm2.478-3.527h2.913l-.896-2.38c-.273-.722-.476-1.315-.61-1.78-.11.55-.263 1.097-.462 1.64l-.944 2.52z" transform="matrix(1.1 -.3 .3 1.1 -360.6 -566.5)"/><path d="M451.69 787.09l3.3-8.59h1.224l3.515 8.59h-1.296l-1-2.6h-3.593l-.943 2.6h-1.207zm2.48-3.527h2.91l-.896-2.38c-.273-.722-.476-1.315-.61-1.78-.108.55-.263 1.097-.462 1.64l-.943 2.52z" transform="matrix(1 -.6 .6 1 -580 -270.6)"/><path d="M406.62 787.09v-8.59h2.96c.667 0 1.177.04 1.528.123.493.114.913.32 1.26.616.453.382.79.872 1.014 1.47.226.593.34 1.273.34 2.038 0 .653-.076 1.23-.23 1.735-.15.504-.346.922-.585 1.254-.238.328-.5.588-.785.78-.28.187-.623.33-1.025.427-.4.097-.858.146-1.377.146h-3.1zm1.137-1.013h1.834c.567 0 1.01-.053 1.33-.16.325-.104.583-.253.774-.444.27-.27.48-.63.627-1.084.154-.458.23-1.01.23-1.66 0-.898-.15-1.587-.445-2.067-.293-.485-.65-.81-1.073-.973-.304-.117-.795-.176-1.47-.176h-1.805v6.563z" transform="matrix(.1 -1.1 1.2 .1 -619.3 627.8)"/><path d="M394.34 787.09l3.3-8.59h1.223l3.516 8.59h-1.296l-1.002-2.6h-3.592l-.943 2.6h-1.207zm2.478-3.527h2.913l-.896-2.38c-.273-.722-.477-1.315-.61-1.78-.11.55-.263 1.097-.462 1.64l-.944 2.52z" transform="matrix(-.1 -1.1 1.2 -.1 -541.6 783.8)"/><path d="M368.55 787.09v-8.59h3.222c.657 0 1.182.088 1.576.264.4.172.71.44.932.803.227.36.34.736.34 1.13 0 .368-.1.714-.3 1.038s-.5.586-.9.785c.518.152.917.412 1.194.78.28.366.422.8.422 1.3 0 .402-.086.777-.258 1.125-.168.344-.377.61-.627.797-.25.187-.563.33-.942.428-.375.093-.836.14-1.383.14h-3.275zm1.136-4.98h1.858c.504 0 .865-.033 1.084-.1.29-.086.506-.228.65-.428.15-.2.223-.45.223-.75 0-.285-.068-.535-.204-.75-.137-.218-.332-.367-.586-.445-.254-.082-.69-.123-1.307-.123h-1.717v2.596zm0 3.967h2.14c.366 0 .624-.014.772-.04.262-.048.48-.126.657-.236.176-.108.32-.266.433-.473.114-.21.17-.454.17-.727 0-.32-.082-.598-.246-.832-.164-.238-.392-.404-.685-.498-.29-.098-.707-.147-1.254-.147h-1.987v2.954z" transform="matrix(-.7 -.9 1 -.7 -154.5 1152.6)"/><path d="M351.93 787.09v-8.59h3.24c.57 0 1.006.028 1.306.082.422.07.776.206 1.06.405.286.195.515.47.687.826.175.355.263.746.263 1.172 0 .73-.232 1.35-.697 1.857-.466.504-1.306.756-2.52.756h-2.204v3.492h-1.136zm1.136-4.506h2.22c.735 0 1.257-.136 1.565-.41.31-.273.464-.658.464-1.154 0-.36-.09-.666-.275-.92-.18-.258-.42-.428-.716-.51-.19-.05-.545-.076-1.06-.076h-2.198v3.07z" transform="matrix(-.9 -.8 .8 -.8 57.2 1243.6)"/><path d="M335.28 787.09v-8.59h3.81c.764 0 1.347.08 1.745.235.398.152.717.424.955.814.238.39.357.822.357 1.294 0 .61-.197 1.123-.59 1.54-.396.42-1.005.685-1.83.798.3.145.53.287.686.428.332.304.647.685.943 1.142l1.495 2.338h-1.43l-1.136-1.787c-.332-.515-.605-.91-.82-1.183-.215-.274-.408-.465-.58-.575-.168-.11-.34-.185-.516-.228-.13-.028-.34-.04-.633-.04h-1.318v3.813h-1.137zm1.137-4.8h2.443c.52 0 .926-.05 1.22-.157.292-.11.515-.28.667-.515.152-.24.23-.496.23-.774 0-.406-.15-.74-.447-1.002-.293-.26-.758-.392-1.394-.392h-2.72v2.84z" transform="matrix(-1 -.6 .6 -1 240.3 1283.5)"/></g></g></svg>