<svg xmlns="http://www.w3.org/2000/svg" height="512" width="512"><defs><clipPath id="a"><path fill-opacity=".67" d="M164.71 0h496.06v496.06H164.71z"/></clipPath></defs><g clip-path="url(#a)" transform="translate(-170) scale(1.032)"><path fill-rule="evenodd" fill="#5387f4" d="M0 329.53h825.59v166.54H0zM0 0h825.59v166.54H0z"/><path fill-rule="evenodd" fill="#fff" d="M0 166.54h825.59v162.99H0z"/><g stroke="#000" fill-rule="evenodd"><path d="M490.58 234.24c0 .846-.823 1.53-1.837 1.53s-1.838-.684-1.838-1.53.823-1.53 1.838-1.53 1.837.684 1.837 1.53z" transform="matrix(-.4748 -.29748 -.3724 .5823 692.485 231.962)" stroke-width=".529" fill="red"/><path d="M490.58 234.24c0 .846-.823 1.53-1.837 1.53s-1.838-.684-1.838-1.53.823-1.53 1.838-1.53 1.837.684 1.837 1.53z" transform="matrix(-.4748 -.29748 -.3724 .5823 696.096 234.795)" stroke-width=".529" fill="red"/><path d="M259.03 105.71s400.32 70.645 414.45 395.62c14.13 324.97-188.39 367.36-259.03 419.16-70.645 51.807-113.03 113.03-146 113.03-32.968 0-80.065-14.13-80.065-14.13s9.42 51.81 75.355 47.1c65.936-4.71 127.16-113.03 164.84-131.87s277.88-98.9 259.04-428.58c-14.13-353.23-423.88-390.91-428.59-400.33z" transform="matrix(-.10373 .0242 .02584 .1099 418.806 192.805)" stroke-width="2.553" fill="#006700"/><path d="M320.26 487.2c0 59.825-11.597 108.32-25.903 108.32s-25.903-48.498-25.903-108.32c0-59.825 11.597-108.32 25.903-108.32s25.903 48.498 25.903 108.32z" transform="matrix(-.05047 -.00395 -.01242 .0497 396.83 195.416)" stroke-width="2.553" fill="#006700"/><path d="M320.26 487.2c0 59.825-11.597 108.32-25.903 108.32s-25.903-48.498-25.903-108.32c0-59.825 11.597-108.32 25.903-108.32s25.903 48.498 25.903 108.32z" transform="matrix(-.0457 -.01703 -.023 .0474 401.836 201.104)" stroke-width="2.553" fill="#006700"/><path d="M320.26 487.2c0 59.825-11.597 108.32-25.903 108.32s-25.903-48.498-25.903-108.32c0-59.825 11.597-108.32 25.903-108.32s25.903 48.498 25.903 108.32z" transform="matrix(-.0048 -.0529 -.04706 .01405 404.42 231.517)" stroke-width="2.553" fill="#006700"/><path d="M320.26 487.2c0 59.825-11.597 108.32-25.903 108.32s-25.903-48.498-25.903-108.32c0-59.825 11.597-108.32 25.903-108.32s25.903 48.498 25.903 108.32z" transform="matrix(-.02204 -.0446 -.04286 .02932 407.313 219.94)" stroke-width="2.553" fill="#006700"/><path d="M320.26 487.2c0 59.825-11.597 108.32-25.903 108.32s-25.903-48.498-25.903-108.32c0-59.825 11.597-108.32 25.903-108.32s25.903 48.498 25.903 108.32z" transform="matrix(-.03337 -.0349 -.0364 .0386 406.114 211.612)" stroke-width="2.553" fill="#006700"/><path d="M490.58 234.24c0 .846-.823 1.53-1.837 1.53s-1.838-.684-1.838-1.53.823-1.53 1.838-1.53 1.837.684 1.837 1.53z" transform="matrix(-.5342 -.17257 -.21603 .65515 674.045 167.665)" stroke-width=".529" fill="red"/><path d="M490.58 234.24c0 .846-.823 1.53-1.837 1.53s-1.838-.684-1.838-1.53.823-1.53 1.838-1.53 1.837.684 1.837 1.53z" transform="matrix(-.5342 -.17257 -.21603 .65515 678.25 169.534)" stroke-width=".529" fill="red"/><path d="M320.26 487.2c0 59.825-11.597 108.32-25.903 108.32s-25.903-48.498-25.903-108.32c0-59.825 11.597-108.32 25.903-108.32s25.903 48.498 25.903 108.32z" transform="matrix(-.07118 .0174 -.00106 .07684 385.95 185.47)" stroke-width="2.553" fill="#006700"/><path d="M320.26 487.2c0 59.825-11.597 108.32-25.903 108.32s-25.903-48.498-25.903-108.32c0-59.825 11.597-108.32 25.903-108.32s25.903 48.498 25.903 108.32z" transform="matrix(-.06882 -.00353 -.01646 .07836 394.733 191.33)" stroke-width="2.553" fill="#006700"/><path d="M320.26 487.2c0 59.825-11.597 108.32-25.903 108.32s-25.903-48.498-25.903-108.32c0-59.825 11.597-108.32 25.903-108.32s25.903 48.498 25.903 108.32z" transform="matrix(-.0238 -.0736 -.0606 .0416 408.182 233.704)" stroke-width="2.553" fill="#006700"/><path d="M320.26 487.2c0 59.825-11.597 108.32-25.903 108.32s-25.903-48.498-25.903-108.32c0-59.825 11.597-108.32 25.903-108.32s25.903 48.498 25.903 108.32z" transform="matrix(-.045 -.0538 -.04984 .06155 408.436 215.802)" stroke-width="2.553" fill="#006700"/><path d="M320.26 487.2c0 59.825-11.597 108.32-25.903 108.32s-25.903-48.498-25.903-108.32c0-59.825 11.597-108.32 25.903-108.32s25.903 48.498 25.903 108.32z" transform="matrix(-.05753 -.03473 -.03788 .07188 404.068 204.42)" stroke-width="2.553" fill="#006700"/><path d="M320.26 487.2c0 59.825-11.597 108.32-25.903 108.32s-25.903-48.498-25.903-108.32c0-59.825 11.597-108.32 25.903-108.32s25.903 48.498 25.903 108.32z" transform="matrix(-.0665 .03112 .01255 .0761 371.35 198.21)" stroke-width="2.553" fill="#006700"/><path d="M320.26 487.2c0 59.825-11.597 108.32-25.903 108.32s-25.903-48.498-25.903-108.32c0-59.825 11.597-108.32 25.903-108.32s25.903 48.498 25.903 108.32z" transform="matrix(-.0679 .01 -.00223 .08062 380.97 202.283)" stroke-width="2.553" fill="#006700"/><path d="M320.26 487.2c0 59.825-11.597 108.32-25.903 108.32s-25.903-48.498-25.903-108.32c0-59.825 11.597-108.32 25.903-108.32s25.903 48.498 25.903 108.32z" transform="matrix(-.0363 -.06802 -.05188 .05297 401.603 241.5)" stroke-width="2.553" fill="#006700"/><path d="M320.26 487.2c0 59.825-11.597 108.32-25.903 108.32s-25.903-48.498-25.903-108.32c0-59.825 11.597-108.32 25.903-108.32s25.903 48.498 25.903 108.32z" transform="matrix(-.0535 -.04432 -.03783 .07056 398.69 223.767)" stroke-width="2.553" fill="#006700"/><path d="M320.26 487.2c0 59.825-11.597 108.32-25.903 108.32s-25.903-48.498-25.903-108.32c0-59.825 11.597-108.32 25.903-108.32s25.903 48.498 25.903 108.32z" transform="matrix(-.06238 -.02303 -.0243 .07842 392.41 213.377)" stroke-width="2.553" fill="#006700"/><path d="M320.26 487.2c0 59.825-11.597 108.32-25.903 108.32s-25.903-48.498-25.903-108.32c0-59.825 11.597-108.32 25.903-108.32s25.903 48.498 25.903 108.32z" transform="matrix(-.04836 .0569 .04032 .06528 351.53 213.97)" stroke-width="2.553" fill="#006700"/><path d="M320.26 487.2c0 59.825-11.597 108.32-25.903 108.32s-25.903-48.498-25.903-108.32c0-59.825 11.597-108.32 25.903-108.32s25.903 48.498 25.903 108.32z" transform="matrix(-.05765 .0379 .02866 .0757 361.78 213.69)" stroke-width="2.553" fill="#006700"/><path d="M320.26 487.2c0 59.825-11.597 108.32-25.903 108.32s-25.903-48.498-25.903-108.32c0-59.825 11.597-108.32 25.903-108.32s25.903 48.498 25.903 108.32z" transform="matrix(-.05874 -.04777 -.0268 .071 395.392 241.35)" stroke-width="2.553" fill="#006700"/><path d="M320.26 487.2c0 59.825-11.597 108.32-25.903 108.32s-25.903-48.498-25.903-108.32c0-59.825 11.597-108.32 25.903-108.32s25.903 48.498 25.903 108.32z" transform="matrix(-.0653 -.01853 -.0074 .08138 386.004 226.133)" stroke-width="2.553" fill="#006700"/><path d="M320.26 487.2c0 59.825-11.597 108.32-25.903 108.32s-25.903-48.498-25.903-108.32c0-59.825 11.597-108.32 25.903-108.32s25.903 48.498 25.903 108.32z" transform="matrix(-.06523 .00495 .00784 .08297 376.36 219.154)" stroke-width="2.553" fill="#006700"/><path d="M320.26 487.2c0 59.825-11.597 108.32-25.903 108.32s-25.903-48.498-25.903-108.32c0-59.825 11.597-108.32 25.903-108.32s25.903 48.498 25.903 108.32z" transform="matrix(-.0349 .08066 .0654 .05717 339.94 229.314)" stroke-width="2.553" fill="#006700"/><path d="M490.58 234.24c0 .846-.823 1.53-1.837 1.53s-1.838-.684-1.838-1.53.823-1.53 1.838-1.53 1.837.684 1.837 1.53z" transform="matrix(-.21956 -.31497 -.41547 .2241 597.615 311.943)" stroke-width=".529" fill="red"/><path d="M490.58 234.24c0 .846-.823 1.53-1.837 1.53s-1.838-.684-1.838-1.53.823-1.53 1.838-1.53 1.837.684 1.837 1.53z" transform="matrix(-.21956 -.31497 -.41547 .2241 599.12 314.672)" stroke-width=".529" fill="red"/><path d="M320.26 487.2c0 59.825-11.597 108.32-25.903 108.32s-25.903-48.498-25.903-108.32c0-59.825 11.597-108.32 25.903-108.32s25.903 48.498 25.903 108.32z" transform="matrix(-.05125 .06312 .05594 .07298 351.134 225.22)" stroke-width="2.553" fill="#006700"/><path d="M320.26 487.2c0 59.825-11.597 108.32-25.903 108.32s-25.903-48.498-25.903-108.32c0-59.825 11.597-108.32 25.903-108.32s25.903 48.498 25.903 108.32z" transform="matrix(-.08004 -.03105 -.00664 .08827 397.048 243.345)" stroke-width="2.553" fill="#006700"/><path d="M320.26 487.2c0 59.825-11.597 108.32-25.903 108.32s-25.903-48.498-25.903-108.32c0-59.825 11.597-108.32 25.903-108.32s25.903 48.498 25.903 108.32z" transform="matrix(-.07785 .00364 .0181 .09256 381.808 230.02)" stroke-width="2.553" fill="#006700"/><path d="M320.26 487.2c0 59.825-11.597 108.32-25.903 108.32s-25.903-48.498-25.903-108.32c0-59.825 11.597-108.32 25.903-108.32s25.903 48.498 25.903 108.32z" transform="matrix(-.0702 .02954 .03535 .0887 368.95 225.866)" stroke-width="2.553" fill="#006700"/><path d="M320.26 487.2c0 59.825-11.597 108.32-25.903 108.32s-25.903-48.498-25.903-108.32c0-59.825 11.597-108.32 25.903-108.32s25.903 48.498 25.903 108.32z" transform="matrix(.0095 .0973 .09375 .01578 324.685 260.78)" stroke-width="2.553" fill="#006700"/><path d="M490.58 234.24c0 .846-.823 1.53-1.837 1.53s-1.838-.684-1.838-1.53.823-1.53 1.838-1.53 1.837.684 1.837 1.53z" transform="matrix(-.33885 .4437 .55544 .41556 402.765 -25.84)" stroke-width=".529" fill="red"/><path d="M490.58 234.24c0 .846-.823 1.53-1.837 1.53s-1.838-.684-1.838-1.53.823-1.53 1.838-1.53 1.837.684 1.837 1.53z" transform="matrix(-.33885 .4437 .55544 .41556 405.92 -29.163)" stroke-width=".529" fill="red"/><path d="M320.26 487.2c0 59.825-11.597 108.32-25.903 108.32s-25.903-48.498-25.903-108.32c0-59.825 11.597-108.32 25.903-108.32s25.903 48.498 25.903 108.32z" transform="matrix(-.01567 .09027 .09307 .0364 333.294 250.28)" stroke-width="2.553" fill="#006700"/><path d="M320.26 487.2c0 59.825-11.597 108.32-25.903 108.32s-25.903-48.498-25.903-108.32c0-59.825 11.597-108.32 25.903-108.32s25.903 48.498 25.903 108.32z" transform="matrix(-.09388 .0177 .04085 .08786 387.308 240.43)" stroke-width="2.553" fill="#006700"/><path d="M320.26 487.2c0 59.825-11.597 108.32-25.903 108.32s-25.903-48.498-25.903-108.32c0-59.825 11.597-108.32 25.903-108.32s25.903 48.498 25.903 108.32z" transform="matrix(-.0732 .0494 .067 .07736 365.467 236.745)" stroke-width="2.553" fill="#006700"/><path d="M320.26 487.2c0 59.825-11.597 108.32-25.903 108.32s-25.903-48.498-25.903-108.32c0-59.825 11.597-108.32 25.903-108.32s25.903 48.498 25.903 108.32z" transform="matrix(-.05195 .06952 .0816 .0635 350.834 240.386)" stroke-width="2.553" fill="#006700"/><g stroke-width="2.553" fill="#006700"><path d="M314.71 506.2c0 45.062-10.064 81.59-22.48 81.59s-22.478-36.53-22.478-81.59c0-45.062 10.064-81.59 22.48-81.59s22.478 36.53 22.478 81.59z" transform="matrix(.00038 .13607 .1279 .00192 325.305 265.148)"/><path d="M314.71 506.2c0 45.062-10.064 81.59-22.48 81.59s-22.478-36.53-22.478-81.59c0-45.062 10.064-81.59 22.48-81.59s22.478 36.53 22.478 81.59z" transform="matrix(-.09895 .0844 .08103 .10674 381.667 218.78)"/><path d="M314.71 506.2c0 45.062-10.064 81.59-22.48 81.59s-22.478-36.53-22.478-81.59c0-45.062 10.064-81.59 22.48-81.59s22.478 36.53 22.478 81.59z" transform="matrix(-.04713 .12563 .1189 .0523 344.72 238.25)"/></g><g stroke-width="2.553" fill="#006700"><path d="M314.71 506.2c0 45.062-10.064 81.59-22.48 81.59s-22.478-36.53-22.478-81.59c0-45.062 10.064-81.59 22.48-81.59s22.478 36.53 22.478 81.59z" transform="matrix(-.05473 -.03042 -.05888 .0541 434.258 193.802)"/><path d="M314.71 506.2c0 45.062-10.064 81.59-22.48 81.59s-22.478-36.53-22.478-81.59c0-45.062 10.064-81.59 22.48-81.59s22.478 36.53 22.478 81.59z" transform="matrix(.0111 -.06115 -.07962 .01055 427.24 228.25)"/><path d="M314.71 506.2c0 45.062-10.064 81.59-22.48 81.59s-22.478-36.53-22.478-81.59c0-45.062 10.064-81.59 22.48-81.59s22.478 36.53 22.478 81.59z" transform="matrix(-.02896 -.04832 -.075 .03893 436.22 208.123)"/></g><path d="M490.58 234.24c0 .846-.823 1.53-1.837 1.53s-1.838-.684-1.838-1.53.823-1.53 1.838-1.53 1.837.684 1.837 1.53z" transform="matrix(-.56194 0 0 .68916 632.425 91.464)" stroke-width=".529" fill="red"/><path d="M490.58 234.24c0 .846-.823 1.53-1.837 1.53s-1.838-.684-1.838-1.53.823-1.53 1.838-1.53 1.837.684 1.837 1.53z" transform="matrix(-.56194 0 0 .68916 637.01 91.946)" stroke-width=".529" fill="red"/><path d="M490.58 234.24c0 .846-.823 1.53-1.837 1.53s-1.838-.684-1.838-1.53.823-1.53 1.838-1.53 1.837.684 1.837 1.53z" transform="matrix(-.4864 .27854 .3487 .5965 516.29 -4.616)" stroke-width=".529" fill="red"/><path d="M490.58 234.24c0 .846-.823 1.53-1.837 1.53s-1.838-.684-1.838-1.53.823-1.53 1.838-1.53 1.837.684 1.837 1.53z" transform="matrix(-.4864 .27854 .3487 .5965 520.502 -6.47)" stroke-width=".529" fill="red"/><path d="M490.58 234.24c0 .846-.823 1.53-1.837 1.53s-1.838-.684-1.838-1.53.823-1.53 1.838-1.53 1.837.684 1.837 1.53z" transform="matrix(-.30194 -.239 -.3326 .33308 608.044 254.536)" stroke-width=".529" fill="red"/><path d="M490.58 234.24c0 .846-.823 1.53-1.837 1.53s-1.838-.684-1.838-1.53.823-1.53 1.838-1.53 1.837.684 1.837 1.53z" transform="matrix(-.30194 -.239 -.3326 .33308 610.277 256.716)" stroke-width=".529" fill="red"/><g><path d="M490.58 234.24c0 .846-.823 1.53-1.837 1.53s-1.838-.684-1.838-1.53.823-1.53 1.838-1.53 1.837.684 1.837 1.53z" transform="matrix(.4748 -.29748 .3724 .5823 132.79 232.416)" stroke-width=".529" fill="red"/><path d="M490.58 234.24c0 .846-.823 1.53-1.837 1.53s-1.838-.684-1.838-1.53.823-1.53 1.838-1.53 1.837.684 1.837 1.53z" transform="matrix(.4748 -.29748 .3724 .5823 129.178 235.25)" stroke-width=".529" fill="red"/><path d="M259.03 105.71s400.32 70.645 414.45 395.62c14.13 324.97-188.39 367.36-259.03 419.16-70.645 51.807-113.03 113.03-146 113.03-32.968 0-80.065-14.13-80.065-14.13s9.42 51.81 75.355 47.1c65.936-4.71 127.16-113.03 164.84-131.87s277.88-98.9 259.04-428.58c-14.13-353.23-423.88-390.91-428.59-400.33z" transform="matrix(.10373 .0242 -.02584 .1099 406.468 193.26)" stroke-width="2.553" fill="#006700"/><path d="M320.26 487.2c0 59.825-11.597 108.32-25.903 108.32s-25.903-48.498-25.903-108.32c0-59.825 11.597-108.32 25.903-108.32s25.903 48.498 25.903 108.32z" transform="matrix(.05047 -.00395 .01242 .0497 428.443 195.87)" stroke-width="2.553" fill="#006700"/><path d="M320.26 487.2c0 59.825-11.597 108.32-25.903 108.32s-25.903-48.498-25.903-108.32c0-59.825 11.597-108.32 25.903-108.32s25.903 48.498 25.903 108.32z" transform="matrix(.0457 -.01703 .023 .0474 423.438 201.558)" stroke-width="2.553" fill="#006700"/><path d="M320.26 487.2c0 59.825-11.597 108.32-25.903 108.32s-25.903-48.498-25.903-108.32c0-59.825 11.597-108.32 25.903-108.32s25.903 48.498 25.903 108.32z" transform="matrix(.0048 -.0529 .04706 .01405 420.854 231.97)" stroke-width="2.553" fill="#006700"/><path d="M320.26 487.2c0 59.825-11.597 108.32-25.903 108.32s-25.903-48.498-25.903-108.32c0-59.825 11.597-108.32 25.903-108.32s25.903 48.498 25.903 108.32z" transform="matrix(.02204 -.0446 .04286 .02932 417.96 220.395)" stroke-width="2.553" fill="#006700"/><path d="M320.26 487.2c0 59.825-11.597 108.32-25.903 108.32s-25.903-48.498-25.903-108.32c0-59.825 11.597-108.32 25.903-108.32s25.903 48.498 25.903 108.32z" transform="matrix(.03337 -.0349 .0364 .0386 419.16 212.066)" stroke-width="2.553" fill="#006700"/><path d="M490.58 234.24c0 .846-.823 1.53-1.837 1.53s-1.838-.684-1.838-1.53.823-1.53 1.838-1.53 1.837.684 1.837 1.53z" transform="matrix(.5342 -.17257 .21603 .65515 151.23 168.12)" stroke-width=".529" fill="red"/><path d="M490.58 234.24c0 .846-.823 1.53-1.837 1.53s-1.838-.684-1.838-1.53.823-1.53 1.838-1.53 1.837.684 1.837 1.53z" transform="matrix(.5342 -.17257 .21603 .65515 147.024 169.988)" stroke-width=".529" fill="red"/><path d="M320.26 487.2c0 59.825-11.597 108.32-25.903 108.32s-25.903-48.498-25.903-108.32c0-59.825 11.597-108.32 25.903-108.32s25.903 48.498 25.903 108.32z" transform="matrix(.07118 .0174 .00106 .07684 439.323 185.925)" stroke-width="2.553" fill="#006700"/><path d="M320.26 487.2c0 59.825-11.597 108.32-25.903 108.32s-25.903-48.498-25.903-108.32c0-59.825 11.597-108.32 25.903-108.32s25.903 48.498 25.903 108.32z" transform="matrix(.06882 -.00353 .01646 .07836 430.54 191.784)" stroke-width="2.553" fill="#006700"/><path d="M320.26 487.2c0 59.825-11.597 108.32-25.903 108.32s-25.903-48.498-25.903-108.32c0-59.825 11.597-108.32 25.903-108.32s25.903 48.498 25.903 108.32z" transform="matrix(.0238 -.0736 .0606 .0416 417.092 234.16)" stroke-width="2.553" fill="#006700"/><path d="M320.26 487.2c0 59.825-11.597 108.32-25.903 108.32s-25.903-48.498-25.903-108.32c0-59.825 11.597-108.32 25.903-108.32s25.903 48.498 25.903 108.32z" transform="matrix(.045 -.0538 .04984 .06155 416.838 216.256)" stroke-width="2.553" fill="#006700"/><path d="M320.26 487.2c0 59.825-11.597 108.32-25.903 108.32s-25.903-48.498-25.903-108.32c0-59.825 11.597-108.32 25.903-108.32s25.903 48.498 25.903 108.32z" transform="matrix(.05753 -.03473 .03788 .07188 421.206 204.873)" stroke-width="2.553" fill="#006700"/><path d="M320.26 487.2c0 59.825-11.597 108.32-25.903 108.32s-25.903-48.498-25.903-108.32c0-59.825 11.597-108.32 25.903-108.32s25.903 48.498 25.903 108.32z" transform="matrix(.0665 .03112 -.01255 .0761 453.925 198.666)" stroke-width="2.553" fill="#006700"/><path d="M320.26 487.2c0 59.825-11.597 108.32-25.903 108.32s-25.903-48.498-25.903-108.32c0-59.825 11.597-108.32 25.903-108.32s25.903 48.498 25.903 108.32z" transform="matrix(.0679 .01 .00223 .08062 444.305 202.737)" stroke-width="2.553" fill="#006700"/><path d="M320.26 487.2c0 59.825-11.597 108.32-25.903 108.32s-25.903-48.498-25.903-108.32c0-59.825 11.597-108.32 25.903-108.32s25.903 48.498 25.903 108.32z" transform="matrix(.0363 -.06802 .05188 .05297 423.67 241.953)" stroke-width="2.553" fill="#006700"/><path d="M320.26 487.2c0 59.825-11.597 108.32-25.903 108.32s-25.903-48.498-25.903-108.32c0-59.825 11.597-108.32 25.903-108.32s25.903 48.498 25.903 108.32z" transform="matrix(.0535 -.04432 .03783 .07056 426.585 224.22)" stroke-width="2.553" fill="#006700"/><path d="M320.26 487.2c0 59.825-11.597 108.32-25.903 108.32s-25.903-48.498-25.903-108.32c0-59.825 11.597-108.32 25.903-108.32s25.903 48.498 25.903 108.32z" transform="matrix(.06238 -.02303 .0243 .07842 432.864 213.83)" stroke-width="2.553" fill="#006700"/><path d="M320.26 487.2c0 59.825-11.597 108.32-25.903 108.32s-25.903-48.498-25.903-108.32c0-59.825 11.597-108.32 25.903-108.32s25.903 48.498 25.903 108.32z" transform="matrix(.04836 .0569 -.04032 .06528 473.743 214.425)" stroke-width="2.553" fill="#006700"/><path d="M320.26 487.2c0 59.825-11.597 108.32-25.903 108.32s-25.903-48.498-25.903-108.32c0-59.825 11.597-108.32 25.903-108.32s25.903 48.498 25.903 108.32z" transform="matrix(.05765 .0379 -.02866 .0757 463.493 214.143)" stroke-width="2.553" fill="#006700"/><path d="M320.26 487.2c0 59.825-11.597 108.32-25.903 108.32s-25.903-48.498-25.903-108.32c0-59.825 11.597-108.32 25.903-108.32s25.903 48.498 25.903 108.32z" transform="matrix(.05874 -.04777 .0268 .071 429.882 241.805)" stroke-width="2.553" fill="#006700"/><path d="M320.26 487.2c0 59.825-11.597 108.32-25.903 108.32s-25.903-48.498-25.903-108.32c0-59.825 11.597-108.32 25.903-108.32s25.903 48.498 25.903 108.32z" transform="matrix(.0653 -.01853 .0074 .08138 439.27 226.587)" stroke-width="2.553" fill="#006700"/><path d="M320.26 487.2c0 59.825-11.597 108.32-25.903 108.32s-25.903-48.498-25.903-108.32c0-59.825 11.597-108.32 25.903-108.32s25.903 48.498 25.903 108.32z" transform="matrix(.06523 .00495 -.00784 .08297 448.913 219.608)" stroke-width="2.553" fill="#006700"/><path d="M320.26 487.2c0 59.825-11.597 108.32-25.903 108.32s-25.903-48.498-25.903-108.32c0-59.825 11.597-108.32 25.903-108.32s25.903 48.498 25.903 108.32z" transform="matrix(.0349 .08066 -.0654 .05717 485.334 229.768)" stroke-width="2.553" fill="#006700"/><path d="M490.58 234.24c0 .846-.823 1.53-1.837 1.53s-1.838-.684-1.838-1.53.823-1.53 1.838-1.53 1.837.684 1.837 1.53z" transform="matrix(.21956 -.31497 .41547 .2241 227.66 312.397)" stroke-width=".529" fill="red"/><path d="M490.58 234.24c0 .846-.823 1.53-1.837 1.53s-1.838-.684-1.838-1.53.823-1.53 1.838-1.53 1.837.684 1.837 1.53z" transform="matrix(.21956 -.31497 .41547 .2241 226.153 315.127)" stroke-width=".529" fill="red"/><path d="M320.26 487.2c0 59.825-11.597 108.32-25.903 108.32s-25.903-48.498-25.903-108.32c0-59.825 11.597-108.32 25.903-108.32s25.903 48.498 25.903 108.32z" transform="matrix(.05125 .06312 -.05594 .07298 474.14 225.675)" stroke-width="2.553" fill="#006700"/><path d="M320.26 487.2c0 59.825-11.597 108.32-25.903 108.32s-25.903-48.498-25.903-108.32c0-59.825 11.597-108.32 25.903-108.32s25.903 48.498 25.903 108.32z" transform="matrix(.08004 -.03105 .00664 .08827 428.226 243.8)" stroke-width="2.553" fill="#006700"/><path d="M320.26 487.2c0 59.825-11.597 108.32-25.903 108.32s-25.903-48.498-25.903-108.32c0-59.825 11.597-108.32 25.903-108.32s25.903 48.498 25.903 108.32z" transform="matrix(.07785 .00364 -.0181 .09256 443.466 230.473)" stroke-width="2.553" fill="#006700"/><path d="M320.26 487.2c0 59.825-11.597 108.32-25.903 108.32s-25.903-48.498-25.903-108.32c0-59.825 11.597-108.32 25.903-108.32s25.903 48.498 25.903 108.32z" transform="matrix(.0702 .02954 -.03535 .0887 456.323 226.32)" stroke-width="2.553" fill="#006700"/><path d="M320.26 487.2c0 59.825-11.597 108.32-25.903 108.32s-25.903-48.498-25.903-108.32c0-59.825 11.597-108.32 25.903-108.32s25.903 48.498 25.903 108.32z" transform="matrix(-.0095 .0973 -.09375 .01578 500.59 261.234)" stroke-width="2.553" fill="#006700"/><path d="M490.58 234.24c0 .846-.823 1.53-1.837 1.53s-1.838-.684-1.838-1.53.823-1.53 1.838-1.53 1.837.684 1.837 1.53z" transform="matrix(.33885 .4437 -.55544 .41556 422.51 -25.387)" stroke-width=".529" fill="red"/><path d="M490.58 234.24c0 .846-.823 1.53-1.837 1.53s-1.838-.684-1.838-1.53.823-1.53 1.838-1.53 1.837.684 1.837 1.53z" transform="matrix(.33885 .4437 -.55544 .41556 419.355 -28.71)" stroke-width=".529" fill="red"/><path d="M320.26 487.2c0 59.825-11.597 108.32-25.903 108.32s-25.903-48.498-25.903-108.32c0-59.825 11.597-108.32 25.903-108.32s25.903 48.498 25.903 108.32z" transform="matrix(.01567 .09027 -.09307 .0364 491.98 250.733)" stroke-width="2.553" fill="#006700"/><path d="M320.26 487.2c0 59.825-11.597 108.32-25.903 108.32s-25.903-48.498-25.903-108.32c0-59.825 11.597-108.32 25.903-108.32s25.903 48.498 25.903 108.32z" transform="matrix(.09388 .0177 -.04085 .08786 437.966 240.885)" stroke-width="2.553" fill="#006700"/><path d="M320.26 487.2c0 59.825-11.597 108.32-25.903 108.32s-25.903-48.498-25.903-108.32c0-59.825 11.597-108.32 25.903-108.32s25.903 48.498 25.903 108.32z" transform="matrix(.0732 .0494 -.067 .07736 459.807 237.2)" stroke-width="2.553" fill="#006700"/><path d="M320.26 487.2c0 59.825-11.597 108.32-25.903 108.32s-25.903-48.498-25.903-108.32c0-59.825 11.597-108.32 25.903-108.32s25.903 48.498 25.903 108.32z" transform="matrix(.05195 .06952 -.0816 .0635 474.44 240.84)" stroke-width="2.553" fill="#006700"/><g stroke-width="2.553" fill="#006700"><path d="M314.71 506.2c0 45.062-10.064 81.59-22.48 81.59s-22.478-36.53-22.478-81.59c0-45.062 10.064-81.59 22.48-81.59s22.478 36.53 22.478 81.59z" transform="matrix(-.00038 .13607 -.1279 .00192 499.97 265.602)"/><path d="M314.71 506.2c0 45.062-10.064 81.59-22.48 81.59s-22.478-36.53-22.478-81.59c0-45.062 10.064-81.59 22.48-81.59s22.478 36.53 22.478 81.59z" transform="matrix(.09895 .0844 -.08103 .10674 443.607 219.234)"/><path d="M314.71 506.2c0 45.062-10.064 81.59-22.48 81.59s-22.478-36.53-22.478-81.59c0-45.062 10.064-81.59 22.48-81.59s22.478 36.53 22.478 81.59z" transform="matrix(.04713 .12563 -.1189 .0523 480.554 238.704)"/></g><g stroke-width="2.553" fill="#006700"><path d="M314.71 506.2c0 45.062-10.064 81.59-22.48 81.59s-22.478-36.53-22.478-81.59c0-45.062 10.064-81.59 22.48-81.59s22.478 36.53 22.478 81.59z" transform="matrix(.05473 -.03042 .05888 .0541 391.016 194.257)"/><path d="M314.71 506.2c0 45.062-10.064 81.59-22.48 81.59s-22.478-36.53-22.478-81.59c0-45.062 10.064-81.59 22.48-81.59s22.478 36.53 22.478 81.59z" transform="matrix(-.0111 -.06115 .07962 .01055 398.033 228.703)"/><path d="M314.71 506.2c0 45.062-10.064 81.59-22.48 81.59s-22.478-36.53-22.478-81.59c0-45.062 10.064-81.59 22.48-81.59s22.478 36.53 22.478 81.59z" transform="matrix(.02896 -.04832 .075 .03893 389.053 208.578)"/></g><path d="M490.58 234.24c0 .846-.823 1.53-1.837 1.53s-1.838-.684-1.838-1.53.823-1.53 1.838-1.53 1.837.684 1.837 1.53z" transform="matrix(.56194 0 0 .68916 192.85 91.918)" stroke-width=".529" fill="red"/><path d="M490.58 234.24c0 .846-.823 1.53-1.837 1.53s-1.838-.684-1.838-1.53.823-1.53 1.838-1.53 1.837.684 1.837 1.53z" transform="matrix(.56194 0 0 .68916 188.264 92.4)" stroke-width=".529" fill="red"/><path d="M490.58 234.24c0 .846-.823 1.53-1.837 1.53s-1.838-.684-1.838-1.53.823-1.53 1.838-1.53 1.837.684 1.837 1.53z" transform="matrix(.4864 .27854 -.3487 .5965 308.983 -4.162)" stroke-width=".529" fill="red"/><path d="M490.58 234.24c0 .846-.823 1.53-1.837 1.53s-1.838-.684-1.838-1.53.823-1.53 1.838-1.53 1.837.684 1.837 1.53z" transform="matrix(.4864 .27854 -.3487 .5965 304.772 -6.016)" stroke-width=".529" fill="red"/><path d="M490.58 234.24c0 .846-.823 1.53-1.837 1.53s-1.838-.684-1.838-1.53.823-1.53 1.838-1.53 1.837.684 1.837 1.53z" transform="matrix(.30194 -.239 .3326 .33308 217.23 254.99)" stroke-width=".529" fill="red"/><path d="M490.58 234.24c0 .846-.823 1.53-1.837 1.53s-1.838-.684-1.838-1.53.823-1.53 1.838-1.53 1.837.684 1.837 1.53z" transform="matrix(.30194 -.239 .3326 .33308 214.997 257.17)" stroke-width=".529" fill="red"/></g><g stroke-width=".375" fill="#5387f4"><path d="M411.36 319.5l.037 5.258c10.21-.517 5.263 6.977 7.03 11.223l2.254-2.826 3.123 2.803c-.25-4.908 2.748-17.395-12.443-16.457z" transform="matrix(.74925 0 0 .7416 103.17 73.972)"/><path d="M411.36 319.5l.037 5.258c10.21-.517 5.263 6.977 7.03 11.223l2.254-2.826 3.123 2.803c-.25-4.908 2.748-17.395-12.443-16.457z" transform="matrix(-.74925 0 0 .7416 722.325 74.132)"/><path d="M427.88 303.13c.325 1.9-.45 11.372-.865 13.64-.537 1.924-.447 6.71-10.395 7.148-4.776.21-3.898-4.548-3.68-4.548.215 0 1.948 1.733 3.897 0 1.948-1.732-.444-17.53 1.515-19.488 2.156-2.155 9.985 1.496 9.528 3.248z" transform="scale(.74925 .7416) rotate(26.278 268.406 663.777)"/><path d="M427.88 303.13c-2.057-.264-3.16-.732-3.68 1.516-2.053 9.068 2.368 17.1-7.58 19.272-4.665 1.04-3.898-4.548-3.68-4.548.215 0 1.948 1.733 3.897 0 1.948-1.732-.444-17.53 1.515-19.488 2.156-2.155 9.985 1.496 9.528 3.248z" transform="scale(.74925 .7416) rotate(26.278 268.406 663.777)"/><path d="M427.88 303.13c.325 1.9-.45 11.372-.865 13.64-.537 1.924-.447 6.71-10.395 7.148-4.776.21-3.898-4.548-3.68-4.548.215 0 1.948 1.733 3.897 0 1.948-1.732-.444-17.53 1.515-19.488 2.156-2.155 9.985 1.496 9.528 3.248z" transform="scale(.74925 .7416) rotate(153.722 396.75 66.124)"/><path d="M427.88 303.13c-2.057-.264-3.16-.732-3.68 1.516-2.053 9.068 2.368 17.1-7.58 19.272-4.665 1.04-3.898-4.548-3.68-4.548.215 0 1.948 1.733 3.897 0 1.948-1.732-.444-17.53 1.515-19.488 2.156-2.155 9.985 1.496 9.528 3.248z" transform="scale(.74925 .7416) rotate(153.722 396.75 66.124)"/><path d="M411.57 319.06l-.18 6.774 5.08-.037.613-6.737h-5.513z" transform="matrix(.74925 0 0 .7416 102.846 73.972)"/></g></g><path d="M409.69 276.93s-14.322 12.064-14.322 20.725c.306 3.457 3.17 6.98 8.407 9.52-2.418-3.586-2.747-6.52-2.747-9.93.306-5.86 8.46-12.932 8.46-12.932l.202-7.383z" fill-rule="evenodd" transform="matrix(-.557 0 0 .5614 640.36 115.47)" stroke="#000" stroke-width=".375" fill="#5387f4"/><g stroke="#000" fill-rule="evenodd"><path transform="matrix(.001 -.799 -.6689 -.10126 128.895 338.53)" stroke-width=".28" fill="#ffd200" d="M172.65-427.57h49.93v2.055h-49.93z"/><path d="M283.46-389.76l-17.717 70.866 17.717 25.037 17.716-25.037-17.716-70.866z" transform="matrix(-.11664 -.0225 -.00118 .12467 447.105 248.27)" stroke-width="1.698" fill="#ffd200"/><path d="M368.98-419.45s-40.71-27.717-40.71.866c0 28.582 39.844.866 40.71-.866zm-7.795-.18s-28.583-19.343-28.583.603c0 19.945 27.975.604 28.583-.604z" transform="matrix(-.09057 -.00714 .00276 .06464 448.5 234.645)" stroke-width="2.684"/><path d="M368.98-419.45s-40.71-27.717-40.71.866c0 28.582 39.844.866 40.71-.866zm-7.795-.18s-28.583-19.343-28.583.603c0 19.945 27.975.604 28.583-.604z" transform="matrix(.08856 -.0101 -.01226 -.06448 376.788 181.808)" stroke-width="2.684"/><path d="M422.29-165.7l2.45-.306s1.766 2.602 3.675 6.737c1.68 4.332 3.368 11.33 4.9 27.256-4.594-.307-21.437 1.53-21.437 1.53s.236-19.168 6.125-26.028c2.757-2.906 4.593-8.575 4.287-9.188z" transform="matrix(.67432 0 0 .799 128.895 338.53)" stroke-width=".279" fill="#5387f4"/><path d="M422.29-165.7l2.45-.306s1.766 2.602 3.675 6.737c1.68 4.332-4.9 11.637-3.37 27.562-4.592-.307-13.167 1.225-13.167 1.225s.236-19.17 6.125-26.03c2.757-2.905 4.593-8.574 4.287-9.187z" transform="matrix(.67432 0 0 .799 128.895 338.53)" stroke-width=".279" fill="#fff"/><path d="M422.29-165.7l2.45-.306s-.613 7.962-2.756 11.943c-2.144 3.98-3.37 22.967-3.063 22.967.308 0-7.042.613-7.042.613s.236-19.17 6.125-26.03c2.757-2.905 4.593-8.574 4.287-9.187z" transform="matrix(.67432 0 0 .799 128.895 338.53)" stroke-width=".279" fill="#5387f4"/></g><path d="M409.69 276.93s-14.322 12.064-14.322 20.725c.306 3.457 3.17 6.98 8.407 9.52-2.418-3.586-2.747-6.52-2.747-9.93.306-5.86 8.46-12.932 8.46-12.932l.202-7.383z" fill-rule="evenodd" transform="matrix(.57303 0 0 .54638 180.32 119.86)" stroke="#000" stroke-width=".375" fill="#5387f4"/><g stroke="#000" fill-rule="evenodd"><path d="M407.48-248.03l106.3-106.3s-27.516 220.02-88.583 265.75c0 0-53.15 24.117-53.15-.135l35.433-159.31z" transform="matrix(-.26793 0 0 .19503 512.17 287.47)" stroke-width="1pt" fill="#5387f4"/><path d="M407.48-248.03l70.866-70.867s-35.433 230.31-106.3 230.31v-.135l35.433-159.31z" transform="matrix(-.26793 0 0 .19503 512.17 287.47)" stroke-width="1pt" fill="#fff"/><path d="M407.48-248.03l35.433-35.434s-35.433 194.88-70.866 194.88v-.135l35.433-159.31z" transform="matrix(-.26793 0 0 .19503 512.17 287.47)" stroke-width="1pt" fill="#5387f4"/><path transform="matrix(-.19276 -.13546 -.1861 .1403 512.17 346.21)" stroke-width="1.3" fill="#ffd200" d="M678.85-116.49h177.17v7.323H678.85z"/><path d="M283.46-389.76l-17.717 70.866 17.717 25.037 17.716-25.037-17.716-70.866z" transform="matrix(-.11982 .0843 .10584 .07585 434.37 213.672)" stroke-width="2.753" fill="#ffd200"/><path d="M368.98-419.45s-40.71-27.717-40.71.866c0 28.582 39.844.866 40.71-.866zm-7.795-.18s-28.583-19.343-28.583.603c0 19.945 27.975.604 28.583-.604z" transform="matrix(-.10364 .0514 .0445 .04753 425.495 216.283)" stroke-width="1pt"/><path d="M368.98-419.45s-40.71-27.717-40.71.866c0 28.582 39.844.866 40.71-.866zm-7.795-.18s-28.583-19.343-28.583.603c0 19.945 27.975.604 28.583-.604z" transform="matrix(.09038 -.0633 -.05478 -.04145 313.165 221.024)" stroke-width="1pt"/><path d="M407.48-248.03l106.3-53.15S496.063-79.79 407.48-79.79c-53.15 0-70.866-70.866-70.866-70.866l70.866-97.378z" transform="matrix(-.26793 0 0 .19503 507.423 296.12)" stroke-width="1pt" fill="#5387f4"/><path d="M407.48-248.03l70.866-35.434c0 35.434-17.716 185.96-70.866 185.96-35.433 0-70.866-53.15-70.866-53.15l70.866-97.378z" transform="matrix(-.26793 0 0 .19503 507.423 296.12)" stroke-width="1pt" fill="#fff"/><path d="M407.48-248.03l35.433-17.717c0 79.662-17.716 150.53-53.15 150.53-17.716 0-53.15-35.433-53.15-35.433l70.867-97.378z" transform="matrix(-.26793 0 0 .19503 507.423 296.12)" stroke-width="1pt" fill="#5387f4"/><path transform="matrix(-.23974 -.08707 -.11962 .1745 512.17 346.21)" stroke-width="1.3" fill="#ffd200" d="M569.18-267.74h177.17v7.323H569.18z"/><path d="M283.46-389.76l-17.717 70.866 17.717 25.037 17.716-25.037-17.716-70.866z" transform="matrix(-.07952 .1066 .13225 .04922 427.67 219.95)" stroke-width="2.753" fill="#ffd200"/><path d="M368.98-419.45s-40.71-27.717-40.71.866c0 28.582 39.844.866 40.71-.866zm-7.795-.18s-28.583-19.343-28.583.603c0 19.945 27.975.604 28.583-.604z" transform="matrix(-.07765 .0717 .06205 .0356 420.28 224.38)" stroke-width="1pt"/><path d="M368.98-419.45s-40.71-27.717-40.71.866c0 28.582 39.844.866 40.71-.866zm-7.795-.18s-28.583-19.343-28.583.603c0 19.945 27.975.604 28.583-.604z" transform="matrix(.0601 -.08013 -.06935 -.02756 315.09 253.456)" stroke-width="1pt"/></g><g stroke="#000" fill-rule="evenodd"><path d="M407.48-248.03l106.3-106.3s-27.516 220.02-88.583 265.75c0 0-53.15 24.117-53.15-.135l35.433-159.31z" transform="matrix(.26414 0 0 .19504 316.86 287.468)" stroke-width="1pt" fill="#5387f4"/><path d="M407.48-248.03l70.866-70.867s-35.433 230.31-106.3 230.31v-.135l35.433-159.31z" transform="matrix(.26414 0 0 .19504 316.86 287.468)" stroke-width="1pt" fill="#fff"/><path d="M407.48-248.03l35.433-35.434s-35.433 194.88-70.866 194.88v-.135l35.433-159.31z" transform="matrix(.26414 0 0 .19504 316.86 287.468)" stroke-width="1pt" fill="#5387f4"/><path transform="matrix(.19003 -.13547 .18346 .14032 316.86 346.21)" stroke-width="1.3" fill="#ffd200" d="M678.85-116.49h177.17v7.323H678.85z"/><path d="M283.46-389.76l-17.717 70.866 17.717 25.037 17.716-25.037-17.716-70.866z" transform="matrix(.11813 .0843 -.10435 .07586 393.558 213.665)" stroke-width="2.753" fill="#ffd200"/><path d="M368.98-419.45s-40.71-27.717-40.71.866c0 28.582 39.844.866 40.71-.866zm-7.795-.18s-28.583-19.343-28.583.603c0 19.945 27.975.604 28.583-.604z" transform="matrix(.10217 .0514 -.04386 .04753 402.31 216.276)" stroke-width="1pt"/><path d="M368.98-419.45s-40.71-27.717-40.71.866c0 28.582 39.844.866 40.71-.866zm-7.795-.18s-28.583-19.343-28.583.603c0 19.945 27.975.604 28.583-.604z" transform="matrix(-.0891 -.0633 .054 -.04145 513.05 221.018)" stroke-width="1pt"/><path d="M407.48-248.03l106.3-53.15S496.063-79.79 407.48-79.79c-53.15 0-70.866-70.866-70.866-70.866l70.866-97.378z" transform="matrix(.26414 0 0 .19504 321.54 296.118)" stroke-width="1pt" fill="#5387f4"/><path d="M407.48-248.03l70.866-35.434c0 35.434-17.716 185.96-70.866 185.96-35.433 0-70.866-53.15-70.866-53.15l70.866-97.378z" transform="matrix(.26414 0 0 .19504 321.54 296.118)" stroke-width="1pt" fill="#fff"/><path d="M407.48-248.03l35.433-17.717c0 79.662-17.716 150.53-53.15 150.53-17.716 0-53.15-35.433-53.15-35.433l70.867-97.378z" transform="matrix(.26414 0 0 .19504 321.54 296.118)" stroke-width="1pt" fill="#5387f4"/><path transform="matrix(.23635 -.08708 .11793 .17452 316.86 346.21)" stroke-width="1.3" fill="#ffd200" d="M569.18-267.74h177.17v7.323H569.18z"/><path d="M283.46-389.76l-17.717 70.866 17.717 25.037 17.716-25.037-17.716-70.866z" transform="matrix(.0784 .1066 -.13038 .04922 400.164 219.943)" stroke-width="2.753" fill="#ffd200"/><path d="M368.98-419.45s-40.71-27.717-40.71.866c0 28.582 39.844.866 40.71-.866zm-7.795-.18s-28.583-19.343-28.583.603c0 19.945 27.975.604 28.583-.604z" transform="matrix(.07655 .0717 -.06117 .0356 407.45 224.372)" stroke-width="1pt"/><path d="M368.98-419.45s-40.71-27.717-40.71.866c0 28.582 39.844.866 40.71-.866zm-7.795-.18s-28.583-19.343-28.583.603c0 19.945 27.975.604 28.583-.604z" transform="matrix(-.05925 -.08013 .06837 -.02756 511.15 253.45)" stroke-width="1pt"/></g><g stroke-linejoin="bevel" stroke="#000" stroke-width=".168"><path d="M496.06 627.16l17.717-17.716 17.716 17.716H496.06z" fill-rule="evenodd" transform="matrix(2.01316 0 0 3.43457 -620.24 -1878.142)" fill="#ffd200"/><path d="M496.06 627.16l17.717-17.716 17.716 17.716H496.06z" fill-rule="evenodd" transform="matrix(1.81423 0 0 3.1122 -517.914 -1677.687)" fill="#0ff"/><path d="M419.84 239.14c0 3.89-3.222 7.043-7.196 7.043-3.975 0-7.197-3.153-7.197-7.043s3.222-7.043 7.197-7.043c3.974 0 7.196 3.153 7.196 7.043z" fill-rule="evenodd" fill="#ffd200" transform="matrix(.74925 0 0 .7416 105.14 70.338)"/><g fill="none"><path d="M462.73 556.66l-1.18-108.32M468.62 563.73l38.855-54.162M474.51 569.61l62.4-25.9M479.22 577.86l73 2.355M474.51 587.28l42.388 37.677M462.73 583.74v34.146M449.78 575.5l-55.34 48.275M455.67 579.03l-24.726 45.92M446.25 569.61l-91.84 31.79M445.07 564.9l-64.76-2.355M393.26 537.82l56.517 18.84M420.34 489.55l34.146 65.936" transform="matrix(.18142 0 0 .17968 330.41 145.314)"/></g><g fill-rule="evenodd"><path d="M460.63 219.69c-35.433 0-61.25 6.505-83.044 14.145l5.54-9.58 5.53-9.594 5.54-9.595 5.54-9.578 5.53-9.595 5.54-9.58 6.13-9.768c8.26-7.257 25.98-10.652 43.69-10.652 17.72 0 35.44 3.586 44.3 10.826l5.54 9.595 5.53 9.58 5.54 9.594 5.54 9.578 5.53 9.596 5.54 9.596 5.53 9.58c-22.972-7.64-47.613-14.146-83.046-14.146z" transform="matrix(.18142 0 0 .17968 330.642 202.78)" fill="#c453d7"/><path d="M460.63 212.93c-35.548-.05-75.28 10.597-77.504 11.33l5.53-9.596 5.54-9.596 5.54-9.578 5.53-9.595 5.54-9.58 6.13-9.768c8.26-7.257 25.98-10.652 43.69-10.652 17.72 0 35.44 3.586 44.3 10.826l5.54 9.596 5.53 9.58 5.54 9.594 5.54 9.578 5.53 9.596 5.54 9.595s-42.083-11.33-77.516-11.33z" transform="matrix(.18142 0 0 .17968 330.644 202.78)" fill="#5000c1"/><path d="M460.63 205.27c-26.248-.11-68.686 7.14-71.68 8.504l5.246-8.713 5.54-9.577 5.53-9.595 5.54-9.58 6.13-9.768c8.26-7.257 25.98-10.652 43.69-10.652 17.72 0 35.44 3.586 44.3 10.826l5.54 9.595 5.53 9.578 5.54 9.595 5.54 9.578 5.53 9.597s-36.543-9.387-71.976-9.387z" transform="matrix(.18142 0 0 .17968 330.642 202.78)" fill="#0053d7"/><path d="M460.63 197.32c-34.802-.07-63.717 6.63-66.434 7.74l5.54-9.58 5.53-9.594 5.54-9.58 6.13-9.768c8.26-7.257 25.98-10.652 43.69-10.652 17.72 0 35.44 3.586 44.3 10.826l5.54 9.595 5.53 9.58 5.54 9.594 5.54 9.58s-31.013-7.74-66.446-7.74z" transform="matrix(.18142 0 0 .17968 330.64 202.78)" fill="#009f9f"/><path d="M460.63 190.56c-35.605-.123-57.963 4.465-60.894 4.93l5.53-9.594 5.54-9.58 6.13-9.768c8.26-7.257 25.98-10.652 43.69-10.652 17.72 0 35.44 3.586 44.3 10.826l5.54 9.595 5.53 9.58 5.54 9.594s-25.473-4.93-60.906-4.93z" transform="matrix(.18142 0 0 .17968 330.642 202.778)" fill="#ff0"/><path d="M460.34 181.72c-31.014-.67-53.786 4.25-55.07 4.167l5.54-9.58 6.13-9.768c8.26-7.258 25.98-10.653 43.69-10.653 17.72 0 35.44 3.586 44.3 10.826l5.54 9.595 5.53 9.58s-20.227-4.168-55.66-4.168z" transform="matrix(.18142 0 0 .17968 330.64 202.778)" fill="#f50"/><path d="M461.51 171.42c-31.13.257-47.247 4.34-50.707 4.89l6.13-9.768c8.26-7.257 25.98-10.652 43.69-10.652 17.72 0 35.44 3.586 44.3 10.826l5.54 9.595s-13.52-4.89-48.953-4.89z" transform="matrix(.18142 0 0 .17968 330.636 202.78)" fill="#ff0b00"/></g><path d="M496.06 627.16l4.983-4.983h25.467l4.983 4.983H496.06z" fill-rule="evenodd" transform="matrix(1.81423 0 0 3.1122 -517.914 -1677.687)" fill="#4363ff"/><path d="M438.01 565.49c.41 0 .727-1.87 1.766-3.532 2.222-1.61 4.568-2.87 7.653-3.533 1.664-.832 5.08-.588 7.652-.588 3.61.324 3.837 1.865 5.888 4.12.902 1.838 3.038 4.39 4.12 7.065 1.173 1.42 2.108 3.626 2.944 5.3.855 1.803 1.765 4.525 2.944 7.063.605 2.824 1.177 5.028 1.177 8.242 0 3.352-.554 4.78-1.177 7.065-1.794.598-5.29.888-7.065 0-1.9-1.7-5.162-.617-6.475-2.355-3.386-.474-4.208-4.46-5.888-6.475-1.175-1.73-1.156-3.032-2.355-4.71-1.857-1.327-2.108-2.945-2.943-5.3.736-2.516 2.015-3.067 4.12-4.12 1.128-1.644 1.767-2.304 1.767-5.298-.425-3.334-1.626-2.982-4.71-3.533-3.815 0-5.77.394-9.42.59z" fill-rule="evenodd" transform="matrix(.122 0 0 .09388 358.91 193.83)" fill="red"/><g fill-rule="evenodd" fill="#6da700"><path d="M334.69 674.38s28.307-4.996 46.624-19.982c18.316-14.986 18.317-39.964 26.642-39.964 8.326 0 9.99 28.308 29.973 38.3 19.98 9.99 51.62 23.31 51.62 23.31l-154.86-1.664z" transform="matrix(.0772 -.00942 .0262 .10508 380.134 203)"/><path d="M334.69 674.38s28.307-4.996 46.624-19.982c18.316-14.986 18.317-39.964 26.642-39.964 8.326 0 9.99 28.308 29.973 38.3 19.98 9.99 51.62 23.31 51.62 23.31l-154.86-1.664z" transform="matrix(.0772 -.00942 .0262 .10508 379.008 203.132)"/><path d="M334.69 674.38s28.307-4.996 46.624-19.982c18.316-14.986 18.317-39.964 26.642-39.964 8.326 0 9.99 28.308 29.973 38.3 19.98 9.99 51.62 23.31 51.62 23.31l-154.86-1.664z" transform="matrix(.09172 -.0112 .02905 .11656 369.223 196.58)"/><path d="M334.69 674.38s28.307-4.996 46.624-19.982c18.316-14.986 18.317-39.964 26.642-39.964 8.326 0 9.99 28.308 29.973 38.3 19.98 9.99 51.62 23.31 51.62 23.31l-154.86-1.664z" transform="matrix(.1014 -.01237 .03382 .1357 360.14 184.606)"/><path d="M334.69 674.38s28.307-4.996 46.624-19.982c18.316-14.986 18.317-39.964 26.642-39.964 8.326 0 9.99 28.308 29.973 38.3 19.98 9.99 51.62 23.31 51.62 23.31l-154.86-1.664z" transform="matrix(.11474 -.014 .03763 .151 349.766 175.342)"/><path d="M334.69 674.38s28.307-4.996 46.624-19.982c18.316-14.986 18.317-39.964 26.642-39.964 8.326 0 9.99 28.308 29.973 38.3 19.98 9.99 51.62 23.31 51.62 23.31l-154.86-1.664z" transform="matrix(.122 -.0149 .0424 .17012 341.277 163.056)"/><path d="M334.69 674.38s28.307-4.996 46.624-19.982c18.316-14.986 18.317-39.964 26.642-39.964 8.326 0 9.99 28.308 29.973 38.3 19.98 9.99 51.62 23.31 51.62 23.31l-154.86-1.664z" transform="matrix(.1403 -.0056 .03028 .16657 339.19 161.09)"/><path d="M334.69 674.38s28.307-4.996 46.624-19.982c18.316-14.986 18.317-39.964 26.642-39.964 8.326 0 9.99 28.308 29.973 38.3 19.98 9.99 51.62 23.31 51.62 23.31l-154.86-1.664z" transform="matrix(.1403 -.0056 .03028 .16657 337.144 161.17)"/><path d="M334.69 674.38s28.307-4.996 46.624-19.982c18.316-14.986 18.317-39.964 26.642-39.964 8.326 0 9.99 28.308 29.973 38.3 19.98 9.99 51.62 23.31 51.62 23.31l-154.86-1.664z" transform="matrix(.16673 -.00667 .03358 .18476 320.586 149.816)"/><path d="M334.69 674.38s28.307-4.996 46.624-19.982c18.316-14.986 18.317-39.964 26.642-39.964 8.326 0 9.99 28.308 29.973 38.3 19.98 9.99 51.62 23.31 51.62 23.31l-154.86-1.664z" transform="matrix(.18434 -.00737 .0391 .21507 306.176 130.126)"/><path d="M334.69 674.38s28.307-4.996 46.624-19.982c18.316-14.986 18.317-39.964 26.642-39.964 8.326 0 9.99 28.308 29.973 38.3 19.98 9.99 51.62 23.31 51.62 23.31l-154.86-1.664z" transform="matrix(.20855 -.00834 .0435 .23933 289.008 114.498)"/><path d="M334.69 674.38s28.307-4.996 46.624-19.982c18.316-14.986 18.317-39.964 26.642-39.964 8.326 0 9.99 28.308 29.973 38.3 19.98 9.99 51.62 23.31 51.62 23.31l-154.86-1.664z" transform="matrix(.22176 -.00887 .049 .26964 275.71 94.385)"/></g></g><path d="M380.34 293.64l5.82-4.9s7.96 6.43 23.578 6.125c14.71-.283 19.906-5.513 22.05-6.126l5.817 5.205c-3.37.92-15.31 6.737-28.785 7.35-14.087-.612-26.642-5.817-28.48-7.655z" fill-rule="evenodd" transform="matrix(.74925 0 0 .7416 106.5 70.55)" stroke="#000" stroke-width=".375" fill="#ffc200"/><path d="M426.59 289.99l-.65-1.798-.765.268-.087-.24 1.837-.645.087.24-.766.27.65 1.798-.307.108zM421.052 291.61l-.565-2.09 1.72-.452.065.247-1.404.368.173.64 1.316-.344.066.244-1.315.345.193.71 1.46-.38.066.246-1.774.465zM417.9 292.31l-.565-2.092.315-.082.565 2.092-.315.082zM415.79 292.57l-.27-2.15.322-.038.238 1.895 1.203-.145.032.254-1.526.184zM412.024 292.768l-.063-2.165.335-.01 1.34 1.667-.05-1.7.313-.007.062 2.165-.333.008-1.34-1.668.048 1.702-.31.008zM408.162 292.55l.225-2.154.323.034-.225 2.154-.323-.033zM405.503 292.082l.404-2.13.328.063.952 1.91.316-1.67.307.056-.404 2.13-.328-.062-.95-1.912-.318 1.673-.307-.058zM405.324 289.88l.314.082-.318 1.21c-.055.212-.126.372-.212.482a.67.67 0 0 1-.374.226c-.16.04-.356.032-.585-.028a1.306 1.306 0 0 1-.52-.244.63.63 0 0 1-.227-.372c-.027-.144-.01-.327.047-.55l.318-1.21.315.082-.318 1.21c-.048.18-.064.32-.05.417.017.096.066.18.147.25s.19.125.325.16c.232.06.41.057.532-.01.12-.067.217-.232.286-.495l.318-1.21zM399.876 289.768l.303.062a.563.563 0 0 0 .026.285c.034.08.1.16.196.23.096.073.213.128.347.167.12.034.23.05.33.044s.18-.028.238-.07c.06-.042.098-.095.116-.16a.26.26 0 0 0-.02-.19.515.515 0 0 0-.18-.183 4.634 4.634 0 0 0-.394-.222 2.55 2.55 0 0 1-.423-.262.667.667 0 0 1-.202-.266.456.456 0 0 1-.012-.284.49.49 0 0 1 .18-.265.63.63 0 0 1 .355-.124c.143-.01.294.007.454.053.176.05.324.12.444.21.122.087.205.19.252.307s.056.238.028.362l-.306-.067a.434.434 0 0 0-.085-.346c-.075-.094-.203-.168-.385-.22-.19-.055-.337-.064-.44-.027-.104.036-.166.097-.19.183a.238.238 0 0 0 .043.212c.047.065.19.16.432.285.242.123.405.217.49.282a.754.754 0 0 1 .248.302c.043.104.05.212.02.324a.533.533 0 0 1-.194.284.718.718 0 0 1-.375.14c-.15.014-.31-.002-.478-.05a1.626 1.626 0 0 1-.518-.238.795.795 0 0 1-.275-.346.68.68 0 0 1-.03-.412zM396.22 289.09l.743-2.03.305.117-.742 2.028-.305-.116zM393.767 287.523l1.37-1.678.65.543c.146.123.252.224.315.305.09.112.15.23.18.35a.895.895 0 0 1-.013.475 1.29 1.29 0 0 1-.25.46 1.328 1.328 0 0 1-.328.297c-.113.07-.223.117-.328.138a.855.855 0 0 1-.297.008.977.977 0 0 1-.293-.104 1.87 1.87 0 0 1-.326-.224l-.68-.57zm.41.01l.404.338c.125.104.23.175.318.214.088.038.168.057.242.054a.647.647 0 0 0 .31-.096c.106-.06.21-.156.314-.282.143-.176.22-.338.232-.486a.624.624 0 0 0-.08-.387 1.45 1.45 0 0 0-.295-.304l-.395-.33-1.047 1.28zM397.332 288.562c.123-.337.322-.56.596-.673.276-.112.575-.107.9.017.213.082.388.2.526.355s.222.33.253.524c.03.194.01.393-.064.595-.075.207-.19.373-.344.5a.954.954 0 0 1-.536.216 1.366 1.366 0 0 1-.605-.09 1.303 1.303 0 0 1-.532-.36 1.03 1.03 0 0 1-.25-.527 1.11 1.11 0 0 1 .054-.558zm.312.124c-.09.244-.085.466.012.664a.86.86 0 0 0 .485.425c.23.088.445.09.645.004s.35-.26.444-.52a.983.983 0 0 0 .06-.47.72.72 0 0 0-.173-.392.892.892 0 0 0-.372-.26.89.89 0 0 0-.63-.016c-.202.07-.36.26-.47.564zM409.18 291.537c.038-.358.176-.626.415-.805.24-.18.53-.252.876-.216.226.024.425.093.596.207s.296.26.373.44c.077.18.104.378.082.593-.023.22-.093.41-.212.57a.972.972 0 0 1-.466.35c-.192.068-.395.09-.607.07a1.28 1.28 0 0 1-.602-.212 1.01 1.01 0 0 1-.37-.444 1.107 1.107 0 0 1-.084-.553zm.334.04c-.027.26.03.472.173.638a.84.84 0 0 0 .574.286.835.835 0 0 0 .625-.162c.173-.135.275-.34.304-.617a.987.987 0 0 0-.056-.47.705.705 0 0 0-.263-.334.876.876 0 0 0-.423-.154.895.895 0 0 0-.614.147c-.18.12-.285.342-.32.666zM430.142 288.758l-.957-1.948.762-.364c.173-.083.31-.137.41-.16a.876.876 0 0 1 .817.19c.124.108.23.248.315.422.07.148.116.288.133.42s.013.253-.012.358a.845.845 0 0 1-.114.273.974.974 0 0 1-.216.222c-.092.072-.206.14-.34.204l-.798.382zm.18-.37l.473-.226a1.42 1.42 0 0 0 .325-.2.555.555 0 0 0 .15-.197.645.645 0 0 0 .04-.323 1.19 1.19 0 0 0-.126-.404c-.1-.203-.215-.342-.345-.414a.624.624 0 0 0-.385-.088c-.092.01-.225.058-.4.14l-.464.223.732 1.488zM423.375 290.92l-.565-2.09 1.053-.277a1.62 1.62 0 0 1 .5-.07.565.565 0 0 1 .502.418.51.51 0 0 1-.063.418c-.082.13-.233.24-.453.326a.92.92 0 0 1 .216.054c.112.05.224.12.337.21l.567.462-.396.104-.432-.353c-.126-.102-.227-.178-.305-.23s-.144-.083-.198-.097a.505.505 0 0 0-.16-.018 1.13 1.13 0 0 0-.177.036l-.365.095.25.928-.313.083zm-.002-1.25l.677-.178c.143-.037.252-.08.327-.127a.37.37 0 0 0 .15-.174.32.32 0 0 0-.176-.415c-.098-.043-.235-.04-.41.005l-.754.197.187.692zM427.64 289.732l.05-2.356.325-.13 1.76 1.632-.345.138-.516-.5-.953.38v.708l-.32.128zm.32-1.087l.772-.31-.467-.46a5.547 5.547 0 0 1-.333-.35c.024.14.036.284.035.432l-.008.688zM418.704 292.058l-.46-2.117.903-.19c.184-.037.336-.047.456-.027s.22.067.304.143a.49.49 0 0 1 .155.26c.02.09.01.18-.028.272s-.11.174-.21.247a.66.66 0 0 1 .376.122.49.49 0 0 1 .188.295c.02.1.017.197-.012.293a.548.548 0 0 1-.134.233.797.797 0 0 1-.24.16c-.1.047-.227.085-.38.117l-.918.193zm.052-1.295l.52-.11c.14-.03.24-.058.3-.087a.347.347 0 0 0 .158-.144.284.284 0 0 0 .022-.198.316.316 0 0 0-.098-.172.29.29 0 0 0-.187-.076c-.075-.005-.2.01-.372.046l-.48.1.138.64zm.213.978l.598-.124c.102-.022.174-.04.214-.056a.578.578 0 0 0 .17-.097.333.333 0 0 0 .106-.33.33.33 0 0 0-.114-.192.37.37 0 0 0-.218-.08 1.33 1.33 0 0 0-.36.036l-.555.117.16.728z"/><g stroke="#000" fill="#ffc200" stroke-width=".375"><path d="M658.63 787.09v-8.59h1.136v7.577h4.23v1.013h-5.366z" transform="matrix(-1.08296 .426 -.4362 -1.05764 1500.838 869.174)"/><path d="M636.87 787.09v-7.576h-2.83V778.5h6.81v1.014h-2.843v7.576h-1.137z" transform="scale(1.1675 1.1402) rotate(134.3 626.8 476.25)"/><path d="M626 787.09v-8.59h1.166l4.512 6.745V778.5h1.09v8.59H631.6l-4.51-6.75v6.75H626z" transform="matrix(-.83815 .79375 -.81276 -.81855 1636.852 442.25)"/><path d="M618.03 787.09v-8.59h6.21v1.014h-5.073v2.63h4.752v1.01h-4.753v2.923h5.273v1.013h-6.41zM615.47 784.08l1.136.287c-.238.933-.668 1.646-1.29 2.138-.616.49-1.372.733-2.266.733-.926 0-1.68-.188-2.262-.563-.578-.38-1.02-.926-1.324-1.64a5.875 5.875 0 0 1-.45-2.303c0-.895.168-1.674.508-2.338a3.517 3.517 0 0 1 1.46-1.518 4.267 4.267 0 0 1 2.085-.52c.86 0 1.582.218 2.168.655.586.44.994 1.054 1.225 1.847l-1.12.264c-.2-.624-.488-1.08-.867-1.365-.378-.285-.855-.427-1.43-.427-.66 0-1.212.158-1.657.474a2.51 2.51 0 0 0-.932 1.278c-.18.53-.27 1.08-.27 1.646 0 .73.106 1.37.317 1.916.216.543.548.95.997 1.22.45.268.935.403 1.46.403.636 0 1.175-.183 1.616-.55.44-.368.74-.913.897-1.635z" transform="matrix(-.62885 .96066 -.98367 -.61415 1638.953 177.186)"/><path d="M595.47 784.08l1.136.287c-.238.933-.668 1.646-1.29 2.138-.616.49-1.372.733-2.266.733-.926 0-1.68-.188-2.262-.563-.578-.38-1.02-.926-1.324-1.64a5.875 5.875 0 0 1-.45-2.303c0-.895.17-1.674.508-2.338a3.517 3.517 0 0 1 1.46-1.518 4.27 4.27 0 0 1 2.085-.52c.86 0 1.582.218 2.168.655.586.44.994 1.054 1.225 1.847l-1.12.264c-.198-.624-.488-1.08-.866-1.365-.38-.285-.856-.427-1.43-.427-.66 0-1.213.158-1.658.474a2.51 2.51 0 0 0-.932 1.278c-.18.53-.27 1.08-.27 1.646 0 .73.106 1.37.317 1.916.216.543.548.95.997 1.22.45.268.936.403 1.46.403.636 0 1.175-.183 1.616-.55.442-.368.74-.913.897-1.635z" transform="scale(1.1675 1.1402) rotate(87.648 797.207 413.873)"/><path d="M586.2 787.09v-8.59h1.137v8.59H586.2z" transform="scale(1.1675 1.1402) rotate(86.413 804.086 412.147)"/><path d="M569.36 787.09v-8.59h6.21v1.014h-5.073v2.63h4.752v1.01h-4.753v2.923h5.273v1.013h-6.41z" transform="scale(1.1675 1.1402) rotate(73.804 881.873 388.955)"/><path d="M559.31 787.09v-8.59h1.71l2.034 6.082c.187.567.324.99.41 1.272.098-.313.25-.772.457-1.377l2.058-5.977h1.53v8.59h-1.097v-7.19l-2.495 7.19h-1.025l-2.485-7.312v7.312h-1.095z" transform="matrix(.46504 1.04585 -1.0709 .45416 1059.114 -724.61)"/><path d="M533.28 787.09v-8.59h1.137v7.577h4.23v1.013h-5.367z" transform="scale(1.1675 1.1402) rotate(34.55 1452.68 246.404)"/><path d="M521.31 787.09v-8.59h1.166l4.512 6.745V778.5h1.09v8.59h-1.166l-4.512-6.75v6.75h-1.09z" transform="scale(1.1675 1.1402) rotate(24.855 1862.47 151.826)"/><path d="M513.34 787.09v-8.59h6.21v1.014h-5.074v2.63h4.752v1.01h-4.752v2.923h5.274v1.013h-6.41z" transform="matrix(1.08134 .4299 -.4402 1.05605 225.006 -867.864)"/><path d="M469.77 787.09l-3.328-8.59h1.23l2.233 6.24c.18.5.33.97.45 1.407.134-.47.29-.938.464-1.406l2.32-6.24h1.16l-3.363 8.59h-1.167z" transform="scale(1.1675 1.1402) rotate(-16.737 -1717.08 961.783)"/><path d="M460.59 787.09v-8.59h1.136v7.577h4.23v1.013h-5.366z" transform="scale(1.1675 1.1402) rotate(-29.33 -791.786 747.143)"/><path d="M444.24 784.33l1.072-.094c.05.43.168.783.352 1.06.187.274.476.496.867.668.392.168.83.252 1.32.252.433 0 .816-.064 1.148-.193s.578-.305.738-.527c.164-.227.246-.473.246-.74 0-.268-.078-.503-.234-.702-.156-.203-.414-.373-.774-.51-.23-.09-.74-.228-1.53-.416-.788-.19-1.34-.37-1.657-.54-.41-.214-.717-.48-.92-.796-.2-.32-.3-.677-.3-1.072 0-.433.124-.838.37-1.213.246-.38.606-.666 1.078-.86a4.098 4.098 0 0 1 1.577-.294c.636 0 1.197.103 1.68.31.49.204.865.504 1.126.903.262.398.403.85.422 1.353l-1.09.08c-.058-.542-.258-.952-.597-1.23-.336-.276-.834-.415-1.495-.415-.687 0-1.19.127-1.505.38-.313.25-.47.553-.47.91 0 .308.112.56.335.76.22.2.79.405 1.71.616.927.208 1.56.39 1.905.546.5.23.87.523 1.108.88.24.35.358.757.358 1.217 0 .458-.13.89-.393 1.295-.26.403-.638.717-1.13.944-.49.222-1.04.334-1.653.334-.777 0-1.43-.114-1.957-.34a2.765 2.765 0 0 1-1.236-1.02 2.93 2.93 0 0 1-.47-1.546z" transform="matrix(.87056 -.75974 .77793 .8502 -641.022 -127.35)"/><path d="M434.58 787.09v-8.59h1.137v7.577h4.23v1.013h-5.367z" transform="matrix(.68612 -.92254 .94462 .67007 -692.544 89.39)"/><path d="M426.64 787.09v-8.59h6.21v1.014h-5.073v2.63h4.752v1.01h-4.753v2.923h5.274v1.013h-6.41z" transform="matrix(.56496 -.9978 1.0217 .55175 -700.588 215.668)"/><path d="M415.31 787.09v-8.59h6.21v1.014h-5.074v2.63h4.752v1.01h-4.752v2.923h5.274v1.013h-6.41z" transform="matrix(.2522 -1.11328 1.13994 .2463 -661.606 508.073)"/><path d="M392.74 784.08l1.137.287c-.238.933-.668 1.646-1.29 2.138-.616.49-1.372.733-2.267.733-.926 0-1.68-.188-2.26-.563-.58-.38-1.02-.926-1.326-1.64a5.893 5.893 0 0 1-.45-2.303c0-.895.17-1.674.51-2.338a3.517 3.517 0 0 1 1.458-1.518 4.267 4.267 0 0 1 2.086-.52c.86 0 1.582.218 2.168.655.586.44.994 1.054 1.224 1.847l-1.12.264c-.198-.624-.487-1.08-.866-1.365s-.855-.427-1.43-.427c-.66 0-1.213.158-1.658.474a2.51 2.51 0 0 0-.93 1.278c-.18.53-.27 1.08-.27 1.646 0 .73.104 1.37.315 1.916.216.543.548.95.997 1.22.45.268.936.403 1.46.403.636 0 1.175-.183 1.617-.55.44-.368.74-.913.896-1.635z" transform="matrix(-.35716 -1.08554 1.11153 -.3488 -393.71 970.88)"/><path d="M383.47 787.09v-8.59h1.136v8.59h-1.136z" transform="scale(1.1675 1.1402) rotate(-116.338 171.37 543.84)"/><path d="M376.56 787.09v-8.59h1.136v7.577h4.23v1.013h-5.366z" transform="scale(1.1675 1.1402) rotate(-113.205 160.756 545.22)"/><path d="M365.57 778.5h1.137v4.963c0 .864-.098 1.55-.293 2.057s-.55.922-1.06 1.242c-.508.317-1.176.475-2.004.475-.805 0-1.463-.14-1.975-.416a2.38 2.38 0 0 1-1.096-1.2c-.22-.528-.33-1.247-.33-2.157V778.5h1.138v4.957c0 .747.068 1.297.205 1.653.14.35.38.623.715.814.34.192.754.287 1.242.287.836 0 1.432-.188 1.787-.567s.533-1.107.533-2.186V778.5z" transform="scale(1.1675 1.1402) rotate(-130.532 213.297 538.03)"/><path d="M343.95 787.09v-8.59h6.21v1.014h-5.073v2.63h4.752v1.01h-4.753v2.923h5.273v1.013h-6.41z" transform="scale(1.1675 1.1402) rotate(-141.658 242.093 535.057)"/><path d="M649.73 787.09l3.3-8.59h1.224l3.515 8.59h-1.296l-1-2.6h-3.593l-.943 2.6h-1.207zm2.48-3.527h2.91l-.896-2.38a23.793 23.793 0 0 1-.61-1.78c-.108.55-.263 1.097-.462 1.64l-.943 2.52z" transform="matrix(-1.00218 .5849 -.5989 -.97875 1576.492 702.02)"/><path d="M642.03 787.09v-8.59h3.81c.764 0 1.347.08 1.745.235.398.152.717.424.955.814.238.39.357.822.357 1.294 0 .61-.197 1.123-.59 1.54-.396.42-1.005.685-1.83.798.3.145.53.287.686.428.332.304.647.685.943 1.142l1.495 2.338h-1.43l-1.136-1.787a16.25 16.25 0 0 0-.82-1.183c-.215-.274-.408-.465-.58-.575a1.68 1.68 0 0 0-.516-.228 3.36 3.36 0 0 0-.633-.04h-1.318v3.813h-1.137zm1.137-4.8h2.443c.52 0 .926-.05 1.22-.157.292-.11.515-.28.667-.515.152-.24.23-.496.23-.774 0-.406-.15-.74-.447-1.002-.293-.26-.758-.392-1.394-.392h-2.72v2.84z" transform="scale(1.1675 1.1402) rotate(139.512 614.117 482.43)"/><path d="M597.06 787.09l3.3-8.59h1.224l3.515 8.59h-1.295l-1.002-2.6h-3.592l-.943 2.6h-1.207zm2.48-3.527h2.91l-.895-2.38a23.418 23.418 0 0 1-.61-1.78c-.11.55-.263 1.097-.463 1.64l-.943 2.52z" transform="scale(1.1675 1.1402) rotate(107.758 710.146 442.144)"/><path d="M577.36 787.09v-8.59h3.81c.765 0 1.347.08 1.745.235.398.152.717.424.955.814.238.39.358.822.358 1.294 0 .61-.198 1.123-.592 1.54-.395.42-1.004.685-1.828.798.3.145.53.287.685.428.332.304.647.685.944 1.142l1.494 2.338h-1.43l-1.136-1.787a16.25 16.25 0 0 0-.82-1.183c-.215-.274-.408-.465-.58-.575a1.68 1.68 0 0 0-.516-.228 3.36 3.36 0 0 0-.633-.04h-1.318v3.813h-1.137zm1.137-4.8h2.443c.52 0 .926-.05 1.22-.157.292-.11.515-.28.667-.515.152-.24.23-.496.23-.774 0-.406-.15-.74-.447-1.002-.293-.26-.757-.392-1.394-.392h-2.72v2.84z" transform="scale(1.1675 1.1402) rotate(84.76 813.455 408.555)"/><path d="M550.39 787.09l3.3-8.59h1.224l3.516 8.59h-1.295l-1.002-2.6h-3.592l-.942 2.6h-1.208zm2.48-3.527h2.91l-.895-2.38a23.418 23.418 0 0 1-.61-1.78c-.11.55-.263 1.097-.463 1.64l-.943 2.52z" transform="matrix(.67486 .9304 -.9527 .65908 848.147 -821.674)"/><path d="M539.06 787.09l3.298-8.59h1.225l3.516 8.59h-1.296l-1.002-2.6h-3.592l-.943 2.6h-1.207zm2.478-3.527h2.912l-.896-2.38a23.418 23.418 0 0 1-.61-1.78c-.11.55-.263 1.097-.463 1.64l-.942 2.52z" transform="matrix(.85284 .7787 -.79733 .8329 626.777 -877.396)"/><path d="M501.34 787.09v-8.59h3.808c.766 0 1.348.08 1.746.235.4.152.717.424.956.814.238.39.357.822.357 1.294 0 .61-.197 1.123-.592 1.54-.394.42-1.004.685-1.828.798.3.145.53.287.686.428.332.304.646.685.943 1.142l1.494 2.338h-1.43l-1.136-1.787c-.332-.515-.606-.91-.82-1.183-.215-.274-.41-.465-.58-.575a1.684 1.684 0 0 0-.516-.228 3.36 3.36 0 0 0-.633-.04h-1.318v3.813h-1.137zm1.137-4.8h2.443c.52 0 .926-.05 1.22-.157.292-.11.514-.28.667-.515.152-.24.228-.496.228-.774 0-.406-.148-.74-.445-1.002-.293-.26-.758-.392-1.395-.392h-2.718v2.84z" transform="scale(1.1675 1.1402) rotate(5.7 6740.25 -982.057)"/><path d="M491.64 782.91c0-1.426.382-2.54 1.148-3.346.766-.81 1.754-1.213 2.965-1.213.793 0 1.508.19 2.144.57.637.378 1.12.908 1.453 1.587.336.676.504 1.444.504 2.303 0 .87-.175 1.65-.527 2.338a3.622 3.622 0 0 1-1.494 1.564 4.285 4.285 0 0 1-2.086.528c-.81 0-1.53-.196-2.168-.586-.638-.39-1.12-.924-1.448-1.6s-.492-1.39-.492-2.144zm1.17.017c0 1.035.28 1.852.833 2.45.56.593 1.258.89 2.098.89.857 0 1.56-.3 2.11-.902.555-.602.833-1.455.833-2.56 0-.7-.12-1.31-.358-1.83a2.68 2.68 0 0 0-1.037-1.212 2.783 2.783 0 0 0-1.53-.433 2.91 2.91 0 0 0-2.08.832c-.578.55-.867 1.472-.867 2.765z" transform="scale(1.1675 1.1402) rotate(5.7 6736.33 -990.974)"/><path d="M483.32 787.09v-8.59h2.96c.667 0 1.177.04 1.53.123.49.114.91.32 1.258.616.453.382.79.872 1.014 1.47.227.593.34 1.273.34 2.038 0 .653-.076 1.23-.23 1.735-.15.504-.346.922-.585 1.254-.238.328-.5.588-.785.78-.28.187-.623.33-1.025.427-.4.097-.858.146-1.377.146h-3.1zm1.137-1.013h1.834c.567 0 1.01-.053 1.33-.16.325-.104.583-.253.774-.444.27-.27.48-.63.627-1.084.154-.458.23-1.01.23-1.66 0-.898-.15-1.587-.445-2.067-.293-.485-.65-.81-1.073-.973-.304-.117-.795-.176-1.47-.176h-1.805v6.563z" transform="matrix(1.14622 -.2167 .2219 1.1194 -332.137 -593.612)"/><path d="M474.37 787.09l3.3-8.59h1.223l3.516 8.59h-1.296l-1.002-2.6h-3.592l-.943 2.6h-1.207zm2.478-3.527h2.913l-.896-2.38a23.793 23.793 0 0 1-.61-1.78c-.11.55-.263 1.097-.462 1.64l-.944 2.52z" transform="scale(1.1675 1.1402) rotate(-13.068 -2323.43 1099.698)"/><path d="M451.69 787.09l3.3-8.59h1.224l3.515 8.59h-1.296l-1-2.6h-3.593l-.943 2.6h-1.207zm2.48-3.527h2.91l-.896-2.38a23.793 23.793 0 0 1-.61-1.78c-.108.55-.263 1.097-.462 1.64l-.943 2.52z" transform="matrix(.97685 -.62444 .6394 .954 -579.997 -270.65)"/><path d="M406.62 787.09v-8.59h2.96c.667 0 1.177.04 1.528.123.493.114.913.32 1.26.616.453.382.79.872 1.014 1.47.226.593.34 1.273.34 2.038 0 .653-.076 1.23-.23 1.735-.15.504-.346.922-.585 1.254-.238.328-.5.588-.785.78-.28.187-.623.33-1.025.427-.4.097-.858.146-1.377.146h-3.1zm1.137-1.013h1.834c.567 0 1.01-.053 1.33-.16.325-.104.583-.253.774-.444.27-.27.48-.63.627-1.084.154-.458.23-1.01.23-1.66 0-.898-.15-1.587-.445-2.067-.293-.485-.65-.81-1.073-.973-.304-.117-.795-.176-1.47-.176h-1.805v6.563z" transform="scale(1.1675 1.1402) rotate(-84.71 36.76 566.19)"/><path d="M394.34 787.09l3.3-8.59h1.223l3.516 8.59h-1.296l-1.002-2.6h-3.592l-.943 2.6h-1.207zm2.478-3.527h2.913l-.896-2.38a23.342 23.342 0 0 1-.61-1.78c-.11.55-.263 1.097-.462 1.64l-.944 2.52z" transform="scale(1.1675 1.1402) rotate(-94.28 86.974 558.942)"/><path d="M368.55 787.09v-8.59h3.222c.657 0 1.182.088 1.576.264.4.172.71.44.932.803.227.36.34.736.34 1.13 0 .368-.1.714-.3 1.038s-.5.586-.9.785c.518.152.917.412 1.194.78.28.366.422.8.422 1.3 0 .402-.086.777-.258 1.125-.168.344-.377.61-.627.797-.25.187-.563.33-.942.428-.375.093-.836.14-1.383.14h-3.275zm1.136-4.98h1.858c.504 0 .865-.033 1.084-.1.29-.086.506-.228.65-.428.15-.2.223-.45.223-.75 0-.285-.068-.535-.204-.75a1.024 1.024 0 0 0-.586-.445c-.254-.082-.69-.123-1.307-.123h-1.717v2.596zm0 3.967h2.14c.366 0 .624-.014.772-.04.262-.048.48-.126.657-.236.176-.108.32-.266.433-.473.114-.21.17-.454.17-.727 0-.32-.082-.598-.246-.832a1.28 1.28 0 0 0-.685-.498c-.29-.098-.707-.147-1.254-.147h-1.987v2.954z" transform="scale(1.1675 1.1402) rotate(-124.905 197.47 539.977)"/><path d="M351.93 787.09v-8.59h3.24c.57 0 1.006.028 1.306.082.422.07.776.206 1.06.405.286.195.515.47.687.826.175.355.263.746.263 1.172 0 .73-.232 1.35-.697 1.857-.466.504-1.306.756-2.52.756h-2.204v3.492h-1.136zm1.136-4.506h2.22c.735 0 1.257-.136 1.565-.41.31-.273.464-.658.464-1.154 0-.36-.09-.666-.275-.92a1.257 1.257 0 0 0-.716-.51c-.19-.05-.545-.076-1.06-.076h-2.198v3.07z" transform="matrix(-.86945 -.76096 .77918 -.84912 57.213 1243.616)"/><path d="M335.28 787.09v-8.59h3.81c.764 0 1.347.08 1.745.235.398.152.717.424.955.814.238.39.357.822.357 1.294 0 .61-.197 1.123-.59 1.54-.396.42-1.005.685-1.83.798.3.145.53.287.686.428.332.304.647.685.943 1.142l1.495 2.338h-1.43l-1.136-1.787a16.25 16.25 0 0 0-.82-1.183c-.215-.274-.408-.465-.58-.575a1.68 1.68 0 0 0-.516-.228 3.36 3.36 0 0 0-.633-.04h-1.318v3.813h-1.137zm1.137-4.8h2.443c.52 0 .926-.05 1.22-.157.292-.11.515-.28.667-.515.152-.24.23-.496.23-.774 0-.406-.15-.74-.447-1.002-.293-.26-.758-.392-1.394-.392h-2.72v2.84z" transform="scale(1.1675 1.1402) rotate(-148.85 259.78 534.173)"/></g></g></svg>