<svg xmlns="http://www.w3.org/2000/svg" height="512" width="512" version="1"><defs><clipPath id="a"><path fill-opacity=".67" d="M0 0h450v450H0z"/></clipPath></defs><g clip-path="url(#a)" transform="scale(1.1378)"><path d="M0 0h675v225H300L0 0z" fill-rule="evenodd" fill="#ed2939"/><path d="M0 450h675V225H300L0 450z" fill-rule="evenodd" fill="#002395"/><path d="M0 0l300 225L0 450V0z" fill-rule="evenodd" fill="#fff"/><path fill="#ff0" d="M151.42 169.85l.09-3.485s-1.87-2.98.3-6.18c0 0-4.61-2.44-3.537-6.262 0 0-4.17-1.067-3.864-5.654 0 0-4.503-.314-4.97-4.146 0 0-4.5.74-6.482-2.993 0 0-4.39.86-5.63-2.22 0 0-4.268 1.48-6.8-2.14 0 0-4.51 1.822-6.398-1.594-1.864 3.404-6.372 1.594-6.372 1.594-2.502 3.606-6.802 2.11-6.802 2.11-1.196 3.09-5.575 2.214-5.575 2.214-1.973 3.735-6.47 2.992-6.47 2.992-.44 3.82-4.936 4.134-4.936 4.134.356 4.6-3.808 5.642-3.808 5.642 1.097 3.82-3.51 6.254-3.51 6.254 2.228 3.22.376 6.176.376 6.176l-.105 3.213 74.504.344"/><path d="M377.17 843.11l.09-3.458s-1.855-2.958.3-6.136c0 0-4.578-2.422-3.513-6.215 0 0-4.14-1.058-3.835-5.612 0 0-4.468-.31-4.93-4.114 0 0-4.47.736-6.435-2.97 0 0-4.358.85-5.588-2.205 0 0-4.238 1.467-6.752-2.126 0 0-4.474 1.808-6.35-1.582-1.85 3.38-6.324 1.582-6.324 1.582-2.484 3.58-6.75 2.094-6.75 2.094-1.188 3.068-5.534 2.198-5.534 2.198-1.96 3.708-6.422 2.97-6.422 2.97-.44 3.794-4.9 4.103-4.9 4.103.352 4.565-3.78 5.6-3.78 5.6 1.09 3.793-3.483 6.21-3.483 6.21 2.21 3.195.372 6.13.372 6.13l-.104 3.19 73.95.34h-.013z" stroke="#000" stroke-width=".271" fill="none" transform="matrix(1.0075 0 0 1.0074 -228.58 -679.5)"/><path fill="red" d="M149.686 165.497c-11.702-1.17-25.177-3.95-35.578 1.908-6.973-4.11-16.682-3.858-24.95-3.054-4.488.804-9.77.804-14.46 1.57l-.736.104c-8.513.565-16.234-1.95-23.63-5.255 2.348 13.33 4.954 26.994 6.236 40.952 2.79 20.672-9.782 38.027-4.624 58.448 3.078 9.8 13.854 15.496 23.716 16.625 9.55.564 19.43 2.128 28.268 4.047 1.68.35 3.673 1.13 4.832 1.63 2.435 1.02 4.22 2.516 5.784 4.117 5.336-5.558 13.155-7.103 20.87-7.92 13.904-1.624 31.045-.74 39.558-13.336v-.712c4.624-6.966 4.01-17.593 2.005-25.486-.135-2.753-.87-5.182-1.27-7.806-8.494-22.433-1.22-47.66 2.436-70.272-4.465 2.44-9.445 3.593-14.413 4.814-3.962.528-8.377.29-12.388.073l-1.662-.447"/><path fill="#80cfe1" d="M167.156 229.88c-.055 1.477.742 2.637 1.03 4.004 1.626 9.806 3.196 22.794-6.9 28.878-11.168 7.1-25.814 4.06-38.736 7.818-2.582.718-6.14 3.09-7.954 4.77-1.166-.765-2.337-1.943-3.84-2.635-10.634-5.654-24.458-3.76-36.46-6.814-6.03-1.906-12.315-6.603-13.842-12.773-3.925-16.19 5.477-29.987 4.367-46.047-.717-12.265-2.778-24.04-5.61-35.537 9.383 4.372 20.244 5.102 30.793 3.005 7.814-1.092 16.91-1.116 24.232 2.19 4.035-1.737 8.758-2.516 13.106-2.994 8.27.804 17.155 2.3 25.668 2.24 5.686-.296 10.85-1.94 15.793-4.13-2.93 19.006-8.56 38.912-1.65 58.026"/><path fill="#fff" d="M150.28 233.668l-.092-17.87h2.202l-27.316-17.643-.05-9.168h2.638l-13.66-9.78-13.59 9.774h2.63l.05 9.163-27.17 17.62 2.172.01.092 17.86 72.088.048"/><path d="M376.04 906.46l-.09-17.74h2.184L351.02 871.21l-.048-9.1h2.618l-13.557-9.71-13.49 9.704h2.611l.05 9.094-26.968 17.49 2.155.01.092 17.728 71.55.05.007-.014z" stroke="#000" stroke-width="1.164" fill="none" transform="matrix(1.0075 0 0 1.0074 -228.58 -679.5)"/><path fill="#fff" d="M158.683 257.14l.006 5.592-88.003-.098-.037-5.568 88.04.074"/><path d="M384.38 929.76l.006 5.55-87.347-.096-.038-5.528 87.384.074h-.006z" stroke="#000" stroke-width="1.164" fill="none" transform="matrix(1.0075 0 0 1.0074 -228.58 -679.5)"/><path fill="#fff" d="M76.53 256.808l-.072-18.925 3.563-.007-.195 19.145.214-18.99-5.134-.147v-4.06l78.65.086.036 4.022h-4.85l.09 19.164-.17-19.164h3.612l.08 18.948"/><path d="M302.84 929.43l-.073-18.786 3.536-.007-.194 19.005.212-18.852-5.095-.146v-4.03l78.064.085.037 3.993h-4.815l.09 19.023-.17-19.023h3.586l.08 18.81" stroke="#000" stroke-width="1.164" fill="none" transform="matrix(1.0075 0 0 1.0074 -228.58 -679.5)"/><path d="M319.62 924.8l-.055-13.1h-10.482l.06 13.087 10.477.013" stroke="#000" stroke-width="1.164" fill="none" transform="matrix(1.0075 0 0 1.0074 -228.58 -679.5)"/><path d="M311.94 914.43l.03 7.61h4.797l-.024-7.61h-4.803M370.86 924.84l-.06-13.087-10.447-.012.05 13.1h10.457" stroke="#000" stroke-width="1.164" fill="none" transform="matrix(1.0075 0 0 1.0074 -228.58 -679.5)"/><path d="M363.18 914.48l.055 7.585h4.79l-.042-7.585h-4.803M370.78 903.51l-.06-13.1h-10.46l.038 13.1h10.488-.006z" stroke="#000" stroke-width="1.164" fill="none" transform="matrix(1.0075 0 0 1.0074 -228.58 -679.5)"/><path d="M363.1 893.16l.03 7.597h4.79l-.005-7.597H363.1M319.53 903.46l-.073-13.076-10.464-.013.05 13.083h10.487v.007z" stroke="#000" stroke-width="1.164" fill="none" transform="matrix(1.0075 0 0 1.0074 -228.58 -679.5)"/><path d="M311.85 893.11l.024 7.585 4.803.012-.036-7.597h-4.79M338.5 903.48l-.05-13.076-10.47-.012.044 13.087H338.5" stroke="#000" stroke-width="1.164" fill="none" transform="matrix(1.0075 0 0 1.0074 -228.58 -679.5)"/><path d="M330.83 893.13l.024 7.585 4.797.024-.03-7.61h-4.79M353.12 903.51l-.073-13.1-10.464-.013.05 13.087 10.487.025" stroke="#000" stroke-width="1.164" fill="none" transform="matrix(1.0075 0 0 1.0074 -228.58 -679.5)"/><path d="M345.44 893.14l.036 7.61h4.797l-.024-7.61h-4.81" stroke="#000" stroke-width="1.164" fill="none" transform="matrix(1.0075 0 0 1.0074 -228.58 -679.5)"/><path fill="#fff" d="M129.808 226.646l.116 30.423-30.56-.05-.11-30.398 30.548.024"/><path d="M355.72 899.49l.116 30.2-30.333-.05-.11-30.174 30.32.024h.007zM325.21 908.11l30.54.024M329.02 929.68l-.103-21.342M352.14 929.69l-.103-21.33M366.79 886.63l-17.08-12.474-19.194-.024-16.947 12.45 53.22.047M331.99 863.8l.03 7.61 16.144.01-.03-7.608-16.144-.012" stroke="#000" stroke-width="1.164" fill="none" transform="matrix(1.0075 0 0 1.0074 -228.58 -679.5)"/><path d="M336.37 865.69l.024 3.792h7.415l-.025-3.792h-7.415M340.04 855.14l8.98 6.348-17.892-.023 8.912-6.325" stroke="#000" stroke-width="1.164" fill="none" transform="matrix(1.0075 0 0 1.0074 -228.58 -679.5)"/><path fill="#fff" d="M150.583 177.636c2.57-.06 3.232 10.585 3.238 15.86 2.21.618 7.103 3.697 9.268 6.48l-24.827-.036c2.135-2.747 6.993-5.838 9.182-6.457 0-5.28.54-15.92 3.14-15.858"/><path d="M376.34 850.84c2.55-.06 3.208 10.507 3.214 15.742 2.19.615 7.05 3.67 9.198 6.434l-24.642-.036c2.118-2.727 6.94-5.795 9.113-6.41 0-5.24.536-15.803 3.117-15.742M326.81 900.33h2.21l-.646 1.186s1.066 1.37.02 2.94l.577 1.09h-2.13l.58-1.035s-1.09-1.818.047-2.994l-.657-1.186M331.31 900.33h2.21l-.64 1.186s1.066 1.334.007 2.94l.572 1.09h-2.126l.572-1.035s-1.065-1.818.055-2.994l-.65-1.186M336.23 900.33h2.204l-.658 1.186s1.078 1.37.018 2.94l.58 1.115-2.114-.023.567-1.036s-1.078-1.806.042-2.994l-.646-1.186h.006zM341.77 900.35h2.222l-.65 1.2s1.064 1.345.005 2.92l.596 1.11H341.8l.573-1.036s-1.066-1.832.073-2.995l-.67-1.2h-.006zM346.7 900.35h2.204l-.652 1.2s1.072 1.345.012 2.915l.585 1.114h-2.126l.554-1.036s-1.07-1.82.085-2.995l-.663-1.2M351.6 900.36l2.204-.012-.652 1.2s1.09 1.345.03 2.92l.555 1.11h-2.13l.57-1.036s-1.064-1.82.074-2.995l-.65-1.187" stroke="#000" stroke-width="1.164" fill="none" transform="matrix(1.0075 0 0 1.0074 -228.58 -679.5)"/><path fill="#ff0" d="M114.675 296.066c11.444.037 25.52-2.3 32.112-5.708l14.48-1.283.288 17.668c-12.266 6.763-40.588 8.217-46.82 8.168-6.236.05-34.908-1.428-47.23-8.216l.16-17.68 14.51 1.306c6.594 3.392 21.098 5.746 32.53 5.746h-.03"/><path d="M340.7 968.4c11.36.036 25.33-2.283 31.873-5.667l14.372-1.273.286 17.538c-12.174 6.714-40.285 8.157-46.47 8.108-6.19.05-34.65-1.418-46.88-8.156l.16-17.55 14.402 1.296c6.544 3.367 20.94 5.704 32.287 5.704h-.03" stroke="#000" stroke-width=".271" fill="none" transform="matrix(1.0075 0 0 1.0074 -228.58 -679.5)"/><path fill="#ff0" d="M30.227 220.703l12.757 4.06-3.858 20.654-12.076 1.876s-2.036-10.86 3.177-26.603"/><path d="M256.88 893.59l12.662 4.03-3.83 20.503-11.985 1.862s-2.02-10.78 3.153-26.407v.012z" stroke="#000" stroke-width=".271" fill="none" transform="matrix(1.0075 0 0 1.0074 -228.58 -679.5)"/><path fill="#7e7e7e" d="M39.123 245.192l-12.07 2.104 7.636-10.86 4.433 8.756"/><path d="M265.71 917.9l-11.98 2.088 7.58-10.78 4.4 8.692" stroke="#000" stroke-width=".271" fill="none" transform="matrix(1.0075 0 0 1.0074 -228.58 -679.5)"/><path fill="#ff0" d="M22.6 235.582l12.296.888c.276 10.42 1.54 50.182 49.02 52.34l-1.477 14.467c-57.798.6-62.19-48.77-59.84-67.695"/><path d="M249.31 908.36l12.205.882c.274 10.343 1.528 49.813 48.656 51.956l-1.466 14.36c-57.367.596-61.726-48.413-59.394-67.198zM294.11 978.5l14.384-3.14" stroke="#000" stroke-width=".271" fill="none" transform="matrix(1.0075 0 0 1.0074 -228.58 -679.5)"/><path fill="#ff0" d="M198.116 220.854l-12.707 4.023 4.028 20.623 12.1 1.943s1.944-10.853-3.422-26.6"/><path d="M423.52 893.74l-12.613 3.993 4 20.472 12.01 1.93s1.93-10.775-3.397-26.407v.012z" stroke="#000" stroke-width=".271" fill="none" transform="matrix(1.0075 0 0 1.0074 -228.58 -679.5)"/><path fill="#7e7e7e" d="M189.432 245.283l12.1 2.17-7.74-10.865-4.36 8.695"/><path d="M414.9 917.99l12.01 2.155-7.682-10.786-4.328 8.63" stroke="#000" stroke-width=".271" fill="none" transform="matrix(1.0075 0 0 1.0074 -228.58 -679.5)"/><path fill="#ff0" d="M205.884 235.743l-12.314.84c-.178 10.407-1.086 50.187-48.568 52.297l1.613 14.454c57.785.668 61.76-48.68 59.27-67.597"/><path d="M431.23 908.52l-12.223.835c-.177 10.33-1.077 49.818-48.206 51.912l1.602 14.348c57.355.662 61.3-48.322 58.828-67.1v.004zM387.04 978.57l-14.42-3.15" stroke="#000" stroke-width=".271" fill="none" transform="matrix(1.0075 0 0 1.0074 -228.58 -679.5)"/><path fill="#009fc5" d="M106.988 304.77c-.325.21-.767.264-1.276.24l-2.293-.117.195-2.863 2.275.122c.448.03.804.117 1.024.25.46.24.663.682.62 1.295-.03.527-.215.87-.552 1.073m-3.852 4.508l.227-3.49 2.674.185c.866.067 1.51-.16 1.945-.602.454-.428.687-.992.718-1.63.055-.742-.135-1.35-.577-1.797-.423-.43-1.024-.656-1.778-.73l-3.82-.238-.528 8.217 1.134.074M111.45 302.403l2.798.03c.405.037.724.086.957.197.43.202.63.607.63 1.195 0 .553-.158.92-.47 1.142-.3.2-.737.293-1.258.293l-2.686-.03.025-2.827m-.043 7.28l.025-3.51 2.625.038c.466 0 .81.038 1.048.154.387.178.577.553.595 1.067l.068 1.38c.018.332.024.535.043.67.036.097.055.202.104.276h1.41l-.024-.18c-.16-.084-.288-.25-.344-.5-.05-.16-.073-.4-.085-.7l-.025-1.098c-.018-.497-.104-.84-.294-1.03a1.47 1.47 0 0 0-.742-.528c.392-.208.687-.447.9-.742.204-.325.308-.736.308-1.238 0-.944-.387-1.59-1.172-1.938-.423-.19-.962-.29-1.6-.3l-3.944-.038-.03 8.242h1.134M120.156 307.964c-.503-.613-.773-1.38-.834-2.287-.055-1.14.166-2.012.687-2.6.526-.64 1.207-.945 2.096-.994.896-.05 1.632.24 2.178.803.558.552.877 1.32.932 2.276.03.92-.13 1.735-.552 2.452-.417.73-1.11 1.14-2.134 1.165-1.068.055-1.865-.196-2.374-.816m-1.35-5.188c-.527.815-.74 1.76-.686 2.9.08 1.233.46 2.25 1.177 3.018.798.766 1.853 1.152 3.153 1.08 1.392-.063 2.44-.59 3.152-1.558.577-.877.853-1.896.79-3.153-.078-1.122-.403-2.036-1.01-2.717-.767-.913-1.89-1.318-3.41-1.256-1.436.09-2.49.618-3.17 1.686M157.534 290.918c.79-.135 1.478-.097 2.104.117.92.288 1.54.97 1.926 2.01l-1.135.16c-.246-.563-.596-.95-1.068-1.164-.46-.2-1.037-.25-1.7-.152a2.645 2.645 0 0 0-1.827 1.122c-.43.662-.558 1.545-.368 2.673.16.933.503 1.723 1.068 2.25.52.54 1.288.73 2.287.59.748-.123 1.35-.423 1.773-.94.44-.49.57-1.23.423-2.188l-2.643.405-.135-.907 3.68-.565.717 4.36-.73.11-.454-1.005c-.306.454-.613.804-.883 1.005-.454.357-1.067.584-1.834.694-.993.153-1.9-.025-2.723-.552-.9-.67-1.484-1.662-1.705-3.042-.24-1.355-.024-2.514.6-3.428.596-.883 1.46-1.398 2.626-1.564M165.856 290.284l2.637-.957c.362-.134.675-.178.945-.147.484.037.84.325 1.043.9.19.492.19.92-.024 1.222-.227.312-.583.54-1.098.73l-2.477.89-1.024-2.638m2.638 6.813l-1.288-3.305 2.453-.884c.46-.147.778-.227 1.017-.202.435.055.767.32.987.822l.558 1.257c.123.313.22.503.3.59.038.11.117.177.18.25l1.33-.49-.074-.178c-.196 0-.386-.11-.527-.326-.104-.15-.202-.372-.343-.63l-.435-1.03c-.197-.448-.4-.723-.632-.89a2.104 2.104 0 0 0-.877-.238c.27-.314.466-.626.54-.994.08-.374.043-.79-.135-1.257-.338-.876-.957-1.354-1.828-1.415-.46-.037-.987.06-1.594.275l-3.705 1.32 2.994 7.75 1.086-.4M178.138 293.014l-4.704-6.863 5.164-3.292.57.828-4.232 2.704 1.448 2.097 3.906-2.514.534.803-3.907 2.515 1.595 2.313 4.305-2.754.57.81-5.256 3.354M182.258 280.875l1.35-1.484c.625-.662 1.287-.962 2.01-.876.725.06 1.46.44 2.246 1.128.215.166.405.38.6.62.344.447.547.84.676 1.232.11.49.085.94-.086 1.368-.105.214-.29.466-.565.767l-1.356 1.47-4.876-4.237m7.127 3.23c.957-1.053 1.165-2.188.607-3.47a5.86 5.86 0 0 0-1.51-1.956c-.863-.767-1.765-1.16-2.716-1.232-1.054-.08-1.95.3-2.73 1.152l-2.3 2.465 6.343 5.532 2.3-2.477M194.298 277.7L187 273.416l.595-.944 7.31 4.263-.6.98M197.16 272.725l-7.882-3.153 2.325-5.544.957.368-1.896 4.57 2.374.932 1.772-4.208.908.375-1.754 4.2 2.656 1.08 1.944-4.624.956.362-2.367 5.643M200.776 263.044l-8.292-1.834.276-1.282 7.66-2.588-6.727-1.484.245-1.005 8.292 1.785-.264 1.244-7.672 2.643 6.728 1.454-.24 1.067M200.12 252.516l.106-1.042c.478.013.883-.062 1.19-.226.6-.326.95-.945 1.042-1.86.037-.428.018-.803-.08-1.158-.178-.686-.564-1.067-1.183-1.13-.46-.048-.792.063-1.03.315-.215.288-.442.704-.614 1.294l-.38 1.084c-.245.71-.472 1.2-.717 1.477-.392.517-.944.695-1.65.646-.754-.08-1.367-.38-1.803-.957-.448-.528-.63-1.282-.52-2.215.072-.852.355-1.57.858-2.146.466-.528 1.19-.78 2.115-.682l-.085 1.042c-.454 0-.816.08-1.08.264-.478.264-.742.822-.822 1.637-.067.676.025 1.13.282 1.474.258.288.583.47.963.502.406.037.725-.092.946-.404.16-.215.35-.682.607-1.436l.374-1.14c.184-.528.405-.932.662-1.22.46-.48 1.06-.68 1.815-.626.92.098 1.576.48 1.913 1.178.33.705.46 1.484.38 2.367-.104 1-.43 1.784-1.03 2.312-.6.54-1.35.723-2.257.65M28.232 252.013l.19 1.03c-.46.09-.828.276-1.098.515-.484.453-.65 1.134-.484 2.06.073.392.214.78.392 1.086.368.625.846.876 1.454.778.447-.08.742-.25.883-.57.134-.313.232-.79.262-1.404l.056-1.16c.036-.717.116-1.28.276-1.594.25-.564.723-.914 1.43-1.03.753-.135 1.415.037 1.986.466.576.4.957 1.092 1.098 2.01.177.842.098 1.596-.233 2.276-.32.663-.933 1.067-1.87 1.24l-.185-1.043c.435-.16.76-.313.975-.527.368-.412.48-1.006.337-1.82-.11-.664-.337-1.094-.68-1.308-.338-.252-.675-.35-1.043-.288-.412.062-.682.288-.81.656-.08.245-.14.754-.197 1.533l-.055 1.2c-.03.565-.116 1.032-.307 1.35-.3.59-.808.95-1.55 1.067-.94.16-1.662-.055-2.177-.656-.528-.588-.853-1.293-1.018-2.17-.184-1.043-.05-1.852.368-2.502.423-.668 1.09-1.054 2-1.183M27.708 262.882l8.108-2.44 1.89 5.708-.99.313-1.544-4.69-2.466.74 1.43 4.336-.945.3-1.416-4.347-2.747.82 1.57 4.796-.97.276-1.92-5.814M31.305 272.785l7.457-3.955.798 1.392-5.128 5.42 7.49-1.28.772 1.38-7.44 3.93-.527-.914 4.39-2.31c.16-.094.406-.23.76-.418.35-.16.744-.375 1.136-.577l-7.458 1.27-.545-.97 5.09-5.402-.245.124c-.16.09-.436.227-.81.44a6.133 6.133 0 0 1-.822.442l-4.38 2.35-.538-.932M45.198 283.766c-.374-.085-.742-.3-1.104-.675l-1.576-1.624 2.122-1.944 1.588 1.62c.307.3.503.594.608.846.147.484 0 .926-.448 1.342-.405.374-.81.528-1.19.436m-5.992.754l2.6-2.385 1.847 1.87c.595.607 1.202.883 1.84.87a2.595 2.595 0 0 0 1.698-.74c.553-.492.817-1.068.817-1.687-.006-.602-.282-1.165-.79-1.693l-2.65-2.705-6.17 5.667.797.803M46.65 291.14l4.47-7.01 5.286 3.214-.55.835-4.344-2.6-1.343 2.12 3.992 2.422-.515.804-4-2.41-1.52 2.373 4.397 2.642-.527.828-5.348-3.22M59.877 289.79l2.687.853c.38.116.656.263.84.43.343.324.435.79.233 1.354-.166.49-.417.81-.81.945-.35.06-.79.06-1.306-.1l-2.532-.808.89-2.674m-2.32 6.887l1.117-3.342 2.503.815c.447.117.772.277.932.442.306.276.398.687.245 1.196l-.374 1.33c-.085.325-.128.54-.165.638 0 .105 0 .215.02.288l1.317.43.08-.19c-.14-.11-.22-.313-.215-.564.03-.154.074-.4.16-.682l.32-1.067c.128-.465.177-.814.06-1.065a1.683 1.683 0 0 0-.54-.73c.418-.074.78-.203 1.086-.43.288-.25.534-.6.68-1.09.3-.89.136-1.632-.527-2.197-.33-.293-.803-.545-1.423-.778l-3.753-1.16-2.625 7.82 1.098.337"/><path fill="#bc715f" d="M68.955 154.385c.97-2.337 9.948-8.708 39.41-5.918 0 0 4.98 3.042 7.906 2.65 1.67-.215-.98.103-3.158-1.706-2.22-1.807-2.692-5.517 2.38-5.42 5.047.13 23.943 1.197 24.3 2.895.33 1.717-9.992 2.434-13.83 2.336-3.86-.102-3.41 1.848.428 1.7 11.996-.43 25.09-4.655 38.92 5.127 1.65 1.19-4.17 1.38-8.672-.534 0 0-12.2.632-17.473-.232 0 0-4.054 3.3-9.335 2.975.687 1.71-1.95 8.095-18.552 3.292-2.74.84-12.732 2.515-11.64-.453-2.632 0-7.244.847-7.93-.65-.663-1.472 8.12-3.698 9.66-5.292 0 0-18.578.178-22.098-1.104 0 0-10.96 2.46-10.316.325"/><path fill="#008737" d="M74.91 180.396c.398-.54.557-1.508 1.404-1.483 1.84.49 3.09 3.857 5.354 1.674.803-.178 1.11.914 1.772 1.043.423 1.87 1.926-.38 3.048-.252 2.398-1.067 5.367-1.32 8.206-.79.086 1.832-1.35 3.856-3.152 4.898.037 1.847 1.71 3.03 1.68 4.888-.288.693-.05 1.784-1.098 2.01-1.33-.238-2.643-.38-3.747-1.12-.135-.136-.245-.4-.527-.314-.135.62.834 1.233 1.214 1.865-.668 1.14-1.778.098-2.71.11-.277.656-.013 1.484-.688 1.907-1.177-.037-1.416-1.318-2.14-1.956-.742.803.52 1.282.7 1.92-.455 2.415-.393 4.776-2.81 6.36l-1.62.802c-.44-1.214-.165-3.054-.46-4.323-.956 1.557-1.704 2.92-3.108 4.237-1.644-.54-2.6-2.477-2.963-4.084-.686-1.87-.294-4.11 1.184-5.464-.504-.98-2.227-.754-2.472-2.152-2.583-1.68-4.01 2.944-5.68.54-.54-2.245.105-5.036 1.73-6.71-.362-.92-1.564-.68-2.276-1.207-1.625-1.38-3.968-2.84-3.85-5.33 4.445-1.68 9.763-.447 12.995 2.93"/><path fill="#ff0" d="M77.216 180.145c-.104 2.035 1.374.55 2.472 1.784-.86-.34-1.484 1.483-2.324.44l-.528.504c.307.698.902.79.282 1.557-.92.35-1.104-.802-1.533-1.257-.074-.2.14-.582-.196-.717-.522.44-1.068.6-1.786.528-.196-.393-.576-.908-.19-1.208.705-.95 1.797.343 2.33-.325.086-.588-.43-1.305.24-1.71.46.08 1.048-.172 1.24.405M82.717 181.817c.056.393-.202.944.313 1.22.67-.362 1.38-.086 1.766.577-.006.355.105.82-.36.993l-1.044-.195c.074-.203-.258-.332-.386-.528-.46-.14-.73.233-1.074.46.258.392.853.607.712 1.11-.613.613-.914-.527-1.59-.24-.46-.177.167-1.134-.557-1.422-.858 0-.288 1.41-1.386.86-.39-.443-.778-1.038-.354-1.534.46-.308 1.238-.228 1.63.17.67-.74.737-3.605 2.338-1.47M75.866 184.77c.448.643-.098 1.52.473 2.237.894-1.674 1.76.362 2.826.202.325.398.11.95.172 1.404-1.32.35-2.907.766-4.073-.29l-.325.375c.693.644 1.35 1.373.798 2.452-.988.215-2.515.24-3.012-.778-.257-.84.6-1.447-.306-2.122-.657.815-.626 1.908-1.994 1.165-.846-.466-1.097-1.428-.674-2.238.883-1.393 2.428.042 3.385-.64.135-1.195-.307-2.237.79-2.9.94-.165 1.375.54 1.945 1.13"/><path fill="#fff" d="M79.604 185.504c-.44 2.036-1.975-.104-2.692-.19.957-1.698 1.558.552 2.692.19M84.38 187.72c-1.067.3-.902-1.03-1.43-1.552l.412-.374c.386.466.68 1.307 1.018 1.926"/><path fill="#ff0" d="M82.94 187.307c.306.705-.694 1.27.158 1.785.27-.227.6-.54.743-.67.73.217 1.577.345 2.086 1.068.546 1.497-.97 1.46-1.828 1.877l-.852-.037c.202-.417-.368-.595-.51-.882-.392-.098-.717.024-.938.355.19.95 1.35 1.692.154 2.54-1.012-.068-2.582.324-2.49-1.075-.38-.79 1.03-2.01-.48-2.06-.496 1.068-1.04 2.097-2.335 1.086l.16-1.52c1.238.035 2.704.25 3.262-1.135.354-1.007-.62-1.933.25-2.73 1.264-.29 1.975.558 2.62 1.397"/><path d="M82.032 189.594c.32.755-.54.804-.944 1.178-.546.043-.926-.172-1.257-.54-.245-.914.436-1.006.957-1.367.607-.252.86.453 1.245.73"/><path fill="#fff" d="M81.287 190.088c-.135.178-.325.123-.528.17l-.19-.912c.404.036.93.165.717.742"/></g></svg>