<svg xmlns="http://www.w3.org/2000/svg" height="512" width="512" version="1"><defs><clipPath id="a"><path fill-opacity=".67" d="M0 0h450v450H0z"/></clipPath></defs><g clip-path="url(#a)" transform="matrix(1.138 0 0 1.138 0 0)"><path d="M0 0h675v225H300L0 0z" fill-rule="evenodd" fill="#ed2939"/><path d="M0 450h675V225H300L0 450z" fill-rule="evenodd" fill="#002395"/><path d="M0 0l300 225L0 450V0z" fill-rule="evenodd" fill="#fff"/><path fill="#ff0" d="M151.42 169.85l.09-3.485s-1.87-2.98.3-6.18c0 0-4.61-2.44-3.537-6.262 0 0-4.17-1.067-3.864-5.654 0 0-4.503-.314-4.97-4.146 0 0-4.5.74-6.482-2.993 0 0-4.39.86-5.63-2.22 0 0-4.268 1.48-6.8-2.14 0 0-4.51 1.822-6.398-1.594-1.864 3.404-6.372 1.594-6.372 1.594-2.502 3.606-6.802 2.11-6.802 2.11-1.196 3.09-5.575 2.214-5.575 2.214-1.973 3.735-6.47 2.992-6.47 2.992-.44 3.82-4.936 4.134-4.936 4.134.356 4.6-3.808 5.642-3.808 5.642 1.097 3.82-3.51 6.254-3.51 6.254 2.228 3.22.376 6.176.376 6.176l-.105 3.213 74.504.344"/><path d="M377.17 843.11l.09-3.458s-1.855-2.958.3-6.136c0 0-4.578-2.422-3.513-6.215 0 0-4.14-1.058-3.835-5.612 0 0-4.468-.31-4.93-4.114 0 0-4.47.736-6.435-2.97 0 0-4.358.85-5.588-2.205 0 0-4.238 1.467-6.752-2.126 0 0-4.474 1.808-6.35-1.582-1.85 3.38-6.324 1.582-6.324 1.582-2.484 3.58-6.75 2.094-6.75 2.094-1.188 3.068-5.534 2.198-5.534 2.198-1.96 3.708-6.422 2.97-6.422 2.97-.44 3.794-4.9 4.103-4.9 4.103.352 4.565-3.78 5.6-3.78 5.6 1.09 3.793-3.483 6.21-3.483 6.21 2.21 3.195.372 6.13.372 6.13l-.104 3.19 73.95.34h-.013z" stroke="#000" stroke-width=".271" fill="none" transform="matrix(1.008 0 0 1.007 -228.58 -679.5)"/><path fill="red" d="M149.874 165.162c-11.708-1.17-25.19-3.948-35.596 1.907-6.977-4.11-16.69-3.858-24.96-3.054-4.493.803-9.776.803-14.47 1.57l-.736.103c-8.517.563-16.242-1.95-23.643-5.255 2.35 13.327 4.957 26.985 6.24 40.937 2.79 20.664-9.787 38.012-4.627 58.425 3.08 9.795 13.86 15.49 23.728 16.62 9.555.562 19.44 2.126 28.283 4.044 1.68.35 3.675 1.13 4.835 1.63 2.436 1.02 4.22 2.515 5.786 4.115 5.34-5.554 13.162-7.1 20.88-7.914 13.91-1.624 31.06-.74 39.578-13.33v-.713c4.627-6.963 4.013-17.586 2.007-25.476-.136-2.75-.873-5.18-1.272-7.802-8.498-22.423-1.22-47.642 2.436-70.244-4.467 2.44-9.45 3.592-14.42 4.813-3.963.527-8.38.288-12.393.073l-1.662-.448"/><path fill="#80cfe1" d="M167.352 229.52c-.055 1.476.743 2.635 1.03 4 1.627 9.803 3.198 22.787-6.902 28.868-11.174 7.098-25.827 4.058-38.755 7.815-2.584.717-6.143 3.09-7.96 4.77-1.165-.767-2.337-1.944-3.84-2.636-10.64-5.652-24.47-3.76-36.48-6.81-6.03-1.907-12.32-6.603-13.848-12.77-3.927-16.183 5.48-29.975 4.37-46.03-.72-12.26-2.78-24.028-5.615-35.522 9.388 4.37 20.255 5.1 30.81 3.004 7.817-1.093 16.917-1.117 24.243 2.187 4.037-1.735 8.762-2.514 13.113-2.992 8.27.804 17.162 2.3 25.68 2.238 5.688-.295 10.855-1.937 15.8-4.126-2.933 18.997-8.566 38.895-1.65 58.002"/><path fill="#fff" d="M150.468 233.305l-.092-17.863h2.203l-27.33-17.636-.05-9.164h2.64l-13.667-9.777-13.598 9.772h2.633l.05 9.157-27.184 17.613 2.172.01.092 17.852 72.124.048"/><path d="M376.04 906.46l-.09-17.74h2.184L351.02 871.21l-.048-9.1h2.618l-13.557-9.71-13.49 9.704h2.611l.05 9.094-26.968 17.49 2.155.01.092 17.728 71.55.05.007-.014zM384.38 929.76l.006 5.55-87.347-.096-.038-5.528 87.384.074h-.006z" stroke="#000" stroke-width="1.164" fill="none" transform="matrix(1.008 0 0 1.007 -228.58 -679.5)"/><path fill="#fff" d="M76.683 256.436l-.074-18.917 3.564-.01-.196 19.14.214-18.984-5.135-.148v-4.058l78.688.086.037 4.02h-4.854l.092 19.158-.17-19.157h3.613l.08 18.94"/><path d="M302.84 929.43l-.073-18.786 3.536-.007-.194 19.005.212-18.852-5.095-.146v-4.03l78.064.085.037 3.993h-4.815l.09 19.023-.17-19.023h3.586l.08 18.81" stroke="#000" stroke-width="1.164" fill="none" transform="matrix(1.008 0 0 1.007 -228.58 -679.5)"/><path d="M319.62 924.8l-.055-13.1h-10.482l.06 13.087 10.477.013" stroke="#000" stroke-width="1.164" fill="none" transform="matrix(1.008 0 0 1.007 -228.58 -679.5)"/><path d="M311.94 914.43l.03 7.61h4.797l-.024-7.61h-4.803M370.86 924.84l-.06-13.087-10.447-.012.05 13.1h10.457" stroke="#000" stroke-width="1.164" fill="none" transform="matrix(1.008 0 0 1.007 -228.58 -679.5)"/><path d="M363.18 914.48l.055 7.585h4.79l-.042-7.585h-4.803M370.78 903.51l-.06-13.1h-10.46l.038 13.1h10.488-.006z" stroke="#000" stroke-width="1.164" fill="none" transform="matrix(1.008 0 0 1.007 -228.58 -679.5)"/><path d="M363.1 893.16l.03 7.597h4.79l-.005-7.597H363.1M319.53 903.46l-.073-13.076-10.464-.013.05 13.083h10.487v.007z" stroke="#000" stroke-width="1.164" fill="none" transform="matrix(1.008 0 0 1.007 -228.58 -679.5)"/><path d="M311.85 893.11l.024 7.585 4.803.012-.036-7.597h-4.79M338.5 903.48l-.05-13.076-10.47-.012.044 13.087H338.5" stroke="#000" stroke-width="1.164" fill="none" transform="matrix(1.008 0 0 1.007 -228.58 -679.5)"/><path d="M330.83 893.13l.024 7.585 4.797.024-.03-7.61h-4.79M345.44 893.14l.036 7.61h4.797l-.024-7.61h-4.81" stroke="#000" stroke-width="1.164" fill="none" transform="matrix(1.008 0 0 1.007 -228.58 -679.5)"/><path d="M355.72 899.49l.116 30.2-30.333-.05-.11-30.174 30.32.024h.007zM336.37 865.69l.024 3.792h7.415l-.025-3.792h-7.415" stroke="#000" stroke-width="1.164" fill="none" transform="matrix(1.008 0 0 1.007 -228.58 -679.5)"/><path fill="#fff" d="M150.77 177.296c2.572-.06 3.234 10.58 3.24 15.852 2.21.62 7.106 3.697 9.272 6.48l-24.84-.037c2.136-2.745 6.996-5.835 9.187-6.454 0-5.278.54-15.913 3.14-15.852"/><path d="M376.34 850.84c2.55-.06 3.208 10.507 3.214 15.742 2.19.615 7.05 3.67 9.198 6.434l-24.642-.036c2.118-2.727 6.94-5.795 9.113-6.41 0-5.24.536-15.803 3.117-15.742M326.81 900.33h2.21l-.646 1.186s1.066 1.37.02 2.94l.577 1.09h-2.13l.58-1.035s-1.09-1.818.047-2.994l-.657-1.186M331.31 900.33h2.21l-.64 1.186s1.066 1.334.007 2.94l.572 1.09h-2.126l.572-1.035s-1.065-1.818.055-2.994l-.65-1.186M336.23 900.33h2.204l-.658 1.186s1.078 1.37.018 2.94l.58 1.115-2.114-.023.567-1.036s-1.078-1.806.042-2.994l-.646-1.186h.006zM341.77 900.35h2.222l-.65 1.2s1.064 1.345.005 2.92l.596 1.11H341.8l.573-1.036s-1.066-1.832.073-2.995l-.67-1.2h-.006zM346.7 900.35h2.204l-.652 1.2s1.072 1.345.012 2.915l.585 1.114h-2.126l.554-1.036s-1.07-1.82.085-2.995l-.663-1.2M351.6 900.36l2.204-.012-.652 1.2s1.09 1.345.03 2.92l.555 1.11h-2.13l.57-1.036s-1.064-1.82.074-2.995l-.65-1.187" stroke="#000" stroke-width="1.164" fill="none" transform="matrix(1.008 0 0 1.007 -228.58 -679.5)"/><path fill="#ff0" d="M114.846 295.68c11.45.036 25.53-2.3 32.128-5.708l14.487-1.28.29 17.66c-12.273 6.76-40.61 8.213-46.844 8.164-6.24.05-34.926-1.428-47.254-8.214l.16-17.673 14.518 1.305c6.596 3.39 21.107 5.744 32.545 5.744h-.03"/><path d="M340.7 968.4c11.36.036 25.33-2.283 31.873-5.667l14.372-1.273.286 17.538c-12.174 6.714-40.285 8.157-46.47 8.108-6.19.05-34.65-1.418-46.88-8.156l.16-17.55 14.402 1.296c6.544 3.367 20.94 5.704 32.287 5.704h-.03" stroke="#000" stroke-width=".271" fill="none" transform="matrix(1.008 0 0 1.007 -228.58 -679.5)"/><path fill="#ff0" d="M30.355 220.345l12.763 4.058-3.86 20.647-12.08 1.875s-2.038-10.857 3.177-26.592"/><path d="M256.88 893.59l12.662 4.03-3.83 20.503-11.985 1.862s-2.02-10.78 3.153-26.407v.012z" stroke="#000" stroke-width=".271" fill="none" transform="matrix(1.008 0 0 1.007 -228.58 -679.5)"/><path fill="#ff0" d="M22.724 235.22l12.303.887c.276 10.415 1.54 50.16 49.045 52.32l-1.478 14.46c-57.826.6-62.22-48.752-59.87-67.668"/><path d="M249.31 908.36l12.205.882c.274 10.343 1.528 49.813 48.656 51.956l-1.466 14.36c-57.367.596-61.726-48.413-59.394-67.198z" stroke="#000" stroke-width=".271" fill="none" transform="matrix(1.008 0 0 1.007 -228.58 -679.5)"/><path fill="#ff0" d="M198.328 220.496l-12.714 4.02 4.032 20.617 12.106 1.942s1.945-10.85-3.424-26.59"/><path d="M423.52 893.74l-12.613 3.993 4 20.472 12.01 1.93s1.93-10.775-3.397-26.407v.012z" stroke="#000" stroke-width=".271" fill="none" transform="matrix(1.008 0 0 1.007 -228.58 -679.5)"/><path fill="#ff0" d="M206.1 235.38l-12.32.84c-.18 10.402-1.087 50.167-48.593 52.275l1.614 14.45c57.815.666 61.792-48.66 59.3-67.572"/><path d="M431.23 908.52l-12.223.835c-.177 10.33-1.077 49.818-48.206 51.912l1.602 14.348c57.355.662 61.3-48.322 58.828-67.1v.004z" stroke="#000" stroke-width=".271" fill="none" transform="matrix(1.008 0 0 1.007 -228.58 -679.5)"/><path fill="#009fc5" d="M107.155 304.38c-.326.208-.767.263-1.277.238l-2.295-.116.197-2.862 2.276.122c.448.03.804.117 1.025.25.46.24.664.682.62 1.294-.03.528-.214.872-.552 1.073m-3.853 4.505l.227-3.488 2.675.184c.865.07 1.51-.158 1.945-.6.454-.43.688-.992.718-1.63.056-.742-.135-1.35-.576-1.797-.424-.43-1.025-.656-1.78-.728l-3.823-.24-.526 8.214 1.135.073M111.62 302.013l2.798.03c.405.037.724.086.957.197.43.202.632.606.632 1.195 0 .552-.16.92-.472 1.14-.3.202-.737.294-1.258.294l-2.688-.03.024-2.827m-.043 7.276l.025-3.507 2.627.037c.466 0 .81.036 1.05.153.385.177.576.552.594 1.066l.068 1.38c.018.33.024.532.042.667.037.098.056.202.105.276h1.412l-.024-.178c-.16-.086-.29-.25-.344-.503-.05-.16-.074-.398-.086-.7l-.024-1.096c-.02-.496-.105-.84-.295-1.03-.167-.22-.394-.41-.743-.527.392-.21.687-.448.902-.743.2-.325.305-.735.305-1.237 0-.944-.386-1.59-1.172-1.937-.423-.19-.963-.29-1.6-.3l-3.947-.038-.03 8.24h1.135M120.33 307.57c-.504-.61-.774-1.377-.835-2.284-.056-1.14.165-2.01.687-2.6.528-.638 1.21-.943 2.098-.993.896-.05 1.633.24 2.18.803.557.552.876 1.318.93 2.275.032.92-.127 1.735-.55 2.452-.418.73-1.11 1.14-2.136 1.165-1.068.056-1.866-.196-2.375-.816m-1.35-5.185c-.528.816-.743 1.76-.688 2.9.08 1.232.46 2.25 1.178 3.017.798.766 1.853 1.15 3.154 1.078 1.393-.062 2.442-.59 3.154-1.557.577-.876.853-1.894.792-3.15-.08-1.123-.405-2.036-1.013-2.717-.767-.913-1.89-1.317-3.412-1.256-1.435.092-2.49.62-3.172 1.685M157.726 290.533c.79-.135 1.48-.097 2.105.116.92.288 1.54.97 1.927 2.01l-1.135.16c-.245-.564-.595-.95-1.068-1.165-.46-.202-1.037-.252-1.7-.153-.772.117-1.392.502-1.828 1.122-.43.66-.558 1.545-.368 2.672.16.932.503 1.723 1.068 2.25.52.54 1.288.73 2.288.588.75-.122 1.35-.422 1.774-.938.442-.49.57-1.232.423-2.188l-2.643.405-.135-.907 3.68-.565.72 4.36-.73.11-.455-1.005c-.307.454-.614.803-.884 1.005-.454.356-1.067.583-1.834.693-.995.153-1.904-.025-2.726-.552-.902-.667-1.485-1.66-1.706-3.04-.24-1.354-.024-2.513.602-3.426.595-.882 1.46-1.397 2.626-1.563M166.052 289.9l2.64-.958c.36-.134.674-.177.943-.146.485.036.84.324 1.044.9.19.49.19.92-.026 1.22-.227.313-.583.54-1.098.73l-2.48.89-1.024-2.637m2.64 6.81l-1.29-3.305 2.454-.883c.46-.147.78-.227 1.02-.202.435.055.766.32.987.82l.558 1.26c.124.31.222.5.302.587.037.11.117.178.178.25l1.33-.49-.072-.177c-.197 0-.387-.11-.528-.325-.104-.153-.202-.374-.344-.63l-.435-1.032c-.196-.447-.398-.722-.63-.888-.234-.13-.53-.215-.88-.24.27-.312.468-.625.54-.993.08-.373.044-.79-.134-1.256-.337-.876-.957-1.354-1.828-1.416-.46-.036-.988.062-1.596.276l-3.706 1.318 2.995 7.748 1.087-.4M182.462 280.493l1.35-1.483c.626-.662 1.29-.963 2.013-.877.724.062 1.46.442 2.246 1.128.215.167.406.38.602.62.343.448.546.84.675 1.232.11.49.086.94-.086 1.368-.103.214-.287.465-.564.766l-1.356 1.472-4.878-4.236m7.13 3.23c.958-1.054 1.166-2.188.608-3.47-.325-.693-.822-1.367-1.51-1.955-.865-.767-1.767-1.16-2.718-1.232-1.055-.08-1.95.3-2.73 1.152l-2.302 2.464 6.345 5.53 2.3-2.476M200.334 252.146l.104-1.042c.48.013.884-.06 1.19-.226.602-.326.952-.944 1.044-1.858.037-.43.018-.803-.08-1.16-.178-.685-.564-1.065-1.184-1.127-.46-.05-.792.062-1.03.314-.216.288-.443.704-.615 1.293l-.38 1.085c-.245.71-.473 1.2-.718 1.477-.393.515-.945.693-1.65.644-.755-.08-1.37-.38-1.805-.956-.448-.527-.632-1.28-.52-2.214.072-.85.355-1.568.858-2.145.466-.526 1.19-.778 2.117-.68l-.086 1.042c-.455 0-.817.08-1.08.264-.48.264-.744.82-.823 1.637-.068.675.024 1.128.282 1.47.257.29.582.473.962.504.405.036.724-.092.945-.404.16-.216.35-.68.608-1.435l.374-1.14c.183-.528.404-.932.662-1.22.46-.48 1.06-.68 1.816-.625.92.097 1.577.478 1.914 1.177.332.705.46 1.483.38 2.366-.103 1-.43 1.784-1.03 2.31-.6.54-1.35.724-2.258.65M28.36 251.643l.19 1.03c-.46.09-.83.275-1.1.514-.484.453-.65 1.135-.484 2.06.074.392.215.778.393 1.085.367.625.846.876 1.453.778.448-.08.743-.25.884-.57.135-.313.233-.79.264-1.403l.056-1.16c.037-.716.117-1.28.276-1.593.252-.564.724-.913 1.43-1.03.755-.135 1.417.037 1.988.466.577.398.957 1.09 1.098 2.01.178.84.098 1.595-.233 2.275-.32.662-.933 1.066-1.87 1.238l-.185-1.04c.435-.16.76-.315.975-.53.368-.41.48-1.004.338-1.82-.11-.662-.338-1.09-.68-1.305-.34-.252-.676-.35-1.045-.288-.41.06-.68.288-.81.656-.08.245-.14.753-.196 1.532l-.055 1.2c-.03.565-.117 1.032-.307 1.35-.3.588-.81.95-1.552 1.066-.94.16-1.663-.055-2.18-.656-.526-.588-.852-1.293-1.017-2.17-.183-1.042-.048-1.85.37-2.5.422-.668 1.09-1.054 2-1.183M31.434 272.407l7.46-3.953.8 1.39-5.13 5.42 7.49-1.282.774 1.38-7.443 3.93-.528-.914 4.394-2.31c.16-.093.406-.228.762-.418.35-.16.742-.374 1.135-.576l-7.462 1.268-.546-.968 5.092-5.4-.245.123c-.16.09-.436.226-.81.44-.368.228-.644.368-.822.442l-4.382 2.347-.54-.932M45.334 283.383c-.374-.085-.743-.3-1.105-.674l-1.577-1.625 2.123-1.944 1.59 1.62c.306.3.502.594.606.846.148.484 0 .926-.448 1.342-.405.374-.81.527-1.19.435m-5.995.754l2.6-2.384 1.848 1.87c.595.606 1.202.882 1.84.87.65-.037 1.21-.276 1.7-.742.552-.49.816-1.066.816-1.684-.006-.6-.282-1.165-.79-1.692L44.7 277.67l-6.173 5.664.797.803M60.02 289.405l2.688.853c.38.116.657.263.84.43.344.324.436.79.234 1.353-.166.49-.417.81-.81.946-.35.06-.792.06-1.307-.1l-2.534-.808.89-2.673m-2.32 6.884l1.118-3.342 2.503.816c.45.117.774.276.934.44.307.277.4.688.245 1.197l-.375 1.33c-.086.325-.13.54-.166.638 0 .105 0 .215.018.288l1.32.43.08-.19c-.142-.11-.222-.313-.216-.564.03-.154.074-.4.16-.68l.32-1.068c.128-.466.177-.815.06-1.066-.098-.264-.264-.503-.54-.73.417-.074.78-.202 1.086-.43.29-.25.534-.6.68-1.09.302-.89.136-1.63-.526-2.195-.332-.293-.804-.545-1.424-.778l-3.755-1.158-2.626 7.815 1.098.337"/><path fill="#bc715f" d="M69.103 154.054c.97-2.336 9.952-8.705 39.43-5.916 0 0 4.982 3.04 7.91 2.65 1.668-.216-.983.103-3.16-1.706-2.222-1.808-2.695-5.516 2.38-5.418 5.05.13 23.955 1.195 24.31 2.893.332 1.716-9.995 2.433-13.836 2.335-3.86-.103-3.412 1.846.43 1.7 12-.43 25.1-4.654 38.938 5.123 1.65 1.19-4.172 1.38-8.676-.533 0 0-12.206.632-17.483-.233 0 0-4.056 3.297-9.34 2.972.688 1.71-1.95 8.092-18.56 3.29-2.743.842-12.738 2.515-11.647-.452-2.632 0-7.246.846-7.933-.65-.663-1.47 8.124-3.696 9.664-5.29 0 0-18.586.178-22.108-1.103 0 0-10.965 2.458-10.32.325"/><path fill="#008737" d="M75.06 180.055c.4-.54.558-1.508 1.405-1.483 1.84.49 3.093 3.855 5.357 1.673.804-.178 1.11.914 1.773 1.043.423 1.87 1.927-.38 3.05-.252 2.4-1.067 5.37-1.318 8.21-.79.086 1.832-1.35 3.855-3.154 4.897.038 1.846 1.713 3.03 1.682 4.885-.288.694-.05 1.784-1.098 2.01-1.332-.238-2.645-.38-3.75-1.12-.135-.136-.245-.4-.527-.313-.135.62.834 1.232 1.215 1.863-.67 1.14-1.78.098-2.712.11-.277.656-.013 1.484-.688 1.907-1.178-.037-1.417-1.317-2.14-1.956-.744.802.52 1.28.698 1.918-.454 2.415-.392 4.775-2.81 6.357l-1.62.803c-.442-1.213-.166-3.053-.46-4.322-.957 1.557-1.706 2.92-3.11 4.236-1.646-.54-2.603-2.476-2.965-4.082-.687-1.87-.294-4.108 1.184-5.462-.504-.98-2.228-.754-2.473-2.15-2.584-1.68-4.013 2.94-5.682.538-.54-2.243.104-5.033 1.73-6.707-.362-.92-1.565-.68-2.276-1.208-1.627-1.38-3.97-2.838-3.855-5.327 4.45-1.68 9.77-.447 13.002 2.93"/><path fill="#ff0" d="M77.368 179.803c-.104 2.035 1.375.55 2.473 1.784-.858-.338-1.484 1.483-2.325.44l-.527.504c.307.7.902.79.282 1.558-.92.35-1.104-.803-1.534-1.257-.074-.2.14-.58-.196-.716-.522.44-1.068.6-1.786.527-.196-.39-.577-.906-.19-1.206.706-.95 1.798.343 2.332-.325.085-.59-.43-1.307.24-1.712.46.08 1.048-.17 1.238.405M82.872 181.475c.055.393-.203.944.313 1.22.67-.362 1.38-.086 1.767.577-.006.355.104.82-.362.992l-1.043-.195c.073-.204-.258-.332-.387-.53-.46-.14-.73.234-1.074.46.258.393.853.607.712 1.11-.613.613-.914-.527-1.59-.24-.46-.176.167-1.133-.557-1.42-.858 0-.288 1.41-1.386.858-.393-.442-.78-1.036-.356-1.533.46-.307 1.24-.227 1.632.17.67-.74.737-3.603 2.338-1.47M76.017 184.425c.448.645-.098 1.52.473 2.238.896-1.673 1.76.362 2.83.202.324.4.11.95.17 1.404-1.32.348-2.908.765-4.074-.29l-.325.375c.694.644 1.35 1.373.8 2.452-.99.214-2.517.24-3.014-.78-.258-.838.6-1.445-.307-2.12-.658.816-.627 1.907-1.995 1.165-.847-.466-1.1-1.428-.675-2.238.883-1.39 2.43.044 3.387-.637.135-1.195-.307-2.237.79-2.9.94-.165 1.376.54 1.947 1.128"/><path fill="#fff" d="M79.757 185.16c-.442 2.036-1.976-.104-2.694-.19.958-1.697 1.56.553 2.694.19M84.535 187.376c-1.068.3-.902-1.03-1.43-1.552l.41-.373c.388.466.683 1.307 1.02 1.926"/><path fill="#ff0" d="M83.094 186.963c.306.705-.694 1.27.16 1.784.27-.226.6-.54.742-.668.73.214 1.577.343 2.086 1.065.546 1.497-.97 1.46-1.83 1.876l-.852-.036c.203-.417-.368-.594-.51-.882-.392-.098-.717.024-.938.355.19.95 1.35 1.692.154 2.538-1.013-.067-2.584.325-2.492-1.073-.38-.79 1.03-2.01-.478-2.06-.497 1.068-1.043 2.097-2.338 1.086l.16-1.52c1.24.036 2.705.25 3.264-1.134.356-1.005-.62-1.93.252-2.728 1.264-.288 1.975.558 2.62 1.397"/><path d="M82.186 189.25c.32.754-.54.803-.945 1.176-.545.043-.925-.172-1.256-.54-.246-.913.435-1.005.957-1.366.608-.252.86.453 1.246.73"/><path fill="#fff" d="M81.44 189.742c-.135.178-.325.124-.527.172l-.19-.913c.405.037.932.166.717.742"/></g></svg>