<svg xmlns="http://www.w3.org/2000/svg" height="512" width="512" version="1"><defs><clipPath id="a"><path fill-opacity=".67" d="M0 0h450v450H0z"/></clipPath></defs><g clip-path="url(#a)" transform="matrix(1.1 0 0 1.1 0 0)"><path d="M0 0h675v225H300L0 0z" fill-rule="evenodd" fill="#ed2939"/><path d="M0 450h675V225H300L0 450z" fill-rule="evenodd" fill="#002395"/><path d="M0 0l300 225L0 450V0z" fill-rule="evenodd" fill="#fff"/><path fill="#ff0" d="M151.42 169.85l.09-3.485s-1.87-2.98.3-6.18c0 0-4.61-2.44-3.537-6.262 0 0-4.17-1.067-3.864-5.654 0 0-4.503-.314-4.97-4.146 0 0-4.5.74-6.482-2.993 0 0-4.39.86-5.63-2.22 0 0-4.268 1.48-6.8-2.14 0 0-4.51 1.822-6.398-1.594-1.864 3.404-6.372 1.594-6.372 1.594-2.502 3.606-6.802 2.11-6.802 2.11-1.196 3.09-5.575 2.214-5.575 2.214-1.973 3.735-6.47 2.992-6.47 2.992-.44 3.82-4.936 4.134-4.936 4.134.356 4.6-3.808 5.642-3.808 5.642 1.097 3.82-3.51 6.254-3.51 6.254 2.228 3.22.376 6.176.376 6.176l-.105 3.213 74.504.344"/><path d="M377.17 843.11l.09-3.458s-1.855-2.958.3-6.136c0 0-4.578-2.422-3.513-6.215 0 0-4.14-1.058-3.835-5.612 0 0-4.468-.31-4.93-4.114 0 0-4.47.736-6.435-2.97 0 0-4.358.85-5.588-2.205 0 0-4.238 1.467-6.752-2.126 0 0-4.474 1.808-6.35-1.582-1.85 3.38-6.324 1.582-6.324 1.582-2.484 3.58-6.75 2.094-6.75 2.094-1.188 3.068-5.534 2.198-5.534 2.198-1.96 3.708-6.422 2.97-6.422 2.97-.44 3.794-4.9 4.103-4.9 4.103.352 4.565-3.78 5.6-3.78 5.6 1.09 3.793-3.483 6.21-3.483 6.21 2.21 3.195.372 6.13.372 6.13l-.104 3.19 73.95.34h-.013z" stroke="#000" stroke-width=".271" fill="none" transform="translate(-228.6 -679.5)"/><path fill="red" d="M146.85 159.29c-11.615-1.163-24.99-3.92-35.313 1.894-6.92-4.08-16.558-3.83-24.763-3.032-4.456.798-9.697.798-14.354 1.56l-.73.102c-8.45.56-16.113-1.936-23.455-5.217 2.33 13.234 4.918 26.797 6.19 40.652 2.77 20.52-9.71 37.747-4.59 58.018 3.056 9.727 13.75 15.382 23.54 16.503 9.478.56 19.285 2.113 28.057 4.018 1.668.347 3.647 1.12 4.797 1.62 2.416 1.01 4.187 2.495 5.74 4.084 5.296-5.516 13.057-7.05 20.715-7.86 13.8-1.612 30.814-.735 39.263-13.238v-.707c4.59-6.915 3.98-17.464 1.99-25.3-.134-2.732-.864-5.143-1.26-7.748-8.43-22.27-1.21-47.312 2.417-69.757-4.432 2.423-9.375 3.568-14.305 4.78-3.933.523-8.315.286-12.296.072l-1.65-.444"/><path fill="#80cfe1" d="M164.19 223.2c-.055 1.466.737 2.618 1.023 3.974 1.613 9.734 3.17 22.627-6.85 28.666-11.084 7.05-25.62 4.03-38.447 7.76-2.562.713-6.093 3.07-7.895 4.737-1.155-.76-2.318-1.93-3.81-2.617-10.555-5.612-24.276-3.732-36.19-6.763-5.982-1.893-12.222-6.556-13.738-12.68-3.896-16.07 5.436-29.767 4.335-45.71-.713-12.175-2.758-23.862-5.57-35.276 9.313 4.34 20.094 5.066 30.565 2.984 7.755-1.084 16.783-1.108 24.05 2.173 4.006-1.723 8.693-2.496 13.01-2.97 8.206.797 17.026 2.282 25.476 2.222 5.643-.294 10.77-1.925 15.675-4.1-2.91 18.866-8.498 38.626-1.638 57.6"/><path fill="#fff" d="M147.44 226.96l-.09-17.74h2.184L122.42 191.71l-.048-9.1h2.618l-13.557-9.71-13.49 9.704h2.612l.048 9.094-26.967 17.49 2.155.01.092 17.728 71.55.05"/><path d="M147.44 226.96l-.09-17.74h2.184L122.42 191.71l-.048-9.1h2.618l-13.557-9.71-13.49 9.704h2.612l.048 9.094-26.967 17.49 2.155.01.092 17.728 71.55.05.007-.014z" stroke="#000" stroke-width="1.164" fill="none"/><path fill="#fff" d="M155.78 250.26l.006 5.55-87.347-.096-.037-5.528 87.383.074"/><path d="M155.78 250.26l.006 5.55-87.347-.096-.037-5.528 87.383.074h-.006z" stroke="#000" stroke-width="1.164" fill="none"/><path fill="#fff" d="M74.24 249.93l-.073-18.786 3.536-.007-.194 19.005.212-18.852-5.095-.146v-4.03l78.064.085.037 3.993h-4.815l.09 19.023-.17-19.023h3.586l.08 18.81"/><path d="M74.24 249.93l-.073-18.786 3.536-.007-.194 19.005.212-18.852-5.095-.146v-4.03l78.064.085.037 3.993h-4.815l.09 19.023-.17-19.023h3.586l.08 18.81" stroke="#000" stroke-width="1.164" fill="none"/><path d="M91.02 245.3l-.055-13.1H80.483l.06 13.087 10.477.013" stroke="#000" stroke-width="1.164" fill="none"/><path d="M83.34 234.93l.03 7.61h4.797l-.024-7.61H83.34M142.26 245.34l-.06-13.087-10.447-.012.05 13.1h10.457" stroke="#000" stroke-width="1.164" fill="none"/><path d="M134.58 234.98l.055 7.585h4.79l-.042-7.585h-4.803M142.18 224.01l-.06-13.1h-10.46l.038 13.1h10.488-.006z" stroke="#000" stroke-width="1.164" fill="none"/><path d="M134.5 213.66l.03 7.597h4.79l-.005-7.597H134.5M90.93 223.96l-.073-13.076-10.464-.013.05 13.083H90.93v.007z" stroke="#000" stroke-width="1.164" fill="none"/><path d="M83.25 213.61l.024 7.585 4.803.012-.036-7.597h-4.79M109.9 223.98l-.05-13.076-10.47-.012.044 13.087H109.9" stroke="#000" stroke-width="1.164" fill="none"/><path d="M102.23 213.63l.024 7.585 4.797.024-.03-7.61h-4.79M124.52 224.01l-.073-13.1-10.464-.013.05 13.087 10.487.025" stroke="#000" stroke-width="1.164" fill="none"/><path d="M116.84 213.64l.036 7.61h4.797l-.024-7.61h-4.81" stroke="#000" stroke-width="1.164" fill="none"/><path fill="#fff" d="M127.12 219.99l.116 30.2-30.333-.05-.11-30.174 30.32.024"/><path d="M127.12 219.99l.116 30.2-30.333-.05-.11-30.174 30.32.024h.007zM96.61 228.61l30.54.024M100.42 250.18l-.103-21.342M123.54 250.19l-.103-21.33M138.19 207.13l-17.08-12.474-19.194-.024-16.947 12.45 53.22.047M103.39 184.3l.03 7.61 16.144.01-.03-7.608-16.144-.012" stroke="#000" stroke-width="1.164" fill="none"/><path d="M107.77 186.19l.024 3.792h7.415l-.025-3.792h-7.415M111.44 175.64l8.98 6.348-17.892-.023 8.912-6.325" stroke="#000" stroke-width="1.164" fill="none"/><path fill="#fff" d="M147.74 171.34c2.55-.06 3.208 10.507 3.214 15.742 2.19.615 7.05 3.67 9.198 6.434l-24.642-.036c2.12-2.727 6.94-5.795 9.113-6.41 0-5.24.536-15.803 3.117-15.742"/><path d="M147.74 171.34c2.55-.06 3.208 10.507 3.214 15.742 2.19.615 7.05 3.67 9.198 6.434l-24.642-.036c2.12-2.727 6.94-5.795 9.113-6.41 0-5.24.536-15.803 3.117-15.742M98.21 220.83h2.21l-.646 1.186s1.066 1.37.02 2.94l.577 1.09h-2.13l.58-1.035s-1.09-1.818.047-2.994l-.657-1.186M102.71 220.83h2.21l-.64 1.186s1.066 1.334.007 2.94l.572 1.09h-2.126l.572-1.035s-1.065-1.818.055-2.994l-.65-1.186M107.63 220.83h2.204l-.658 1.186s1.078 1.37.018 2.94l.58 1.115-2.114-.023.567-1.036s-1.078-1.806.042-2.994l-.646-1.186h.006zM113.17 220.85h2.222l-.65 1.2s1.064 1.345.005 2.92l.596 1.11H113.2l.573-1.036s-1.066-1.832.073-2.995l-.67-1.2h-.006zM118.1 220.85h2.204l-.652 1.2s1.072 1.345.012 2.915l.585 1.114h-2.126l.554-1.036s-1.07-1.82.085-2.995l-.663-1.2M123 220.86l2.204-.012-.652 1.2s1.09 1.345.03 2.92l.555 1.11h-2.13l.57-1.036s-1.064-1.82.074-2.995l-.65-1.187" stroke="#000" stroke-width="1.164" fill="none"/><path fill="#ff0" d="M112.1 288.9c11.36.036 25.33-2.283 31.873-5.667l14.372-1.273.286 17.538c-12.174 6.714-40.285 8.157-46.47 8.108-6.19.05-34.65-1.418-46.88-8.156l.16-17.55 14.402 1.296c6.544 3.367 20.94 5.704 32.287 5.704h-.03"/><path d="M112.1 288.9c11.36.036 25.33-2.283 31.873-5.667l14.372-1.273.286 17.538c-12.174 6.714-40.285 8.157-46.47 8.108-6.19.05-34.65-1.418-46.88-8.156l.16-17.55 14.402 1.296c6.544 3.367 20.94 5.704 32.287 5.704h-.03" stroke="#000" stroke-width=".271" fill="none"/><path fill="#ff0" d="M28.28 214.09l12.662 4.03-3.83 20.503-11.985 1.862s-2.02-10.78 3.153-26.407"/><path d="M28.28 214.09l12.662 4.03-3.83 20.503-11.985 1.862s-2.02-10.78 3.153-26.407v.012z" stroke="#000" stroke-width=".271" fill="none"/><path fill="#7e7e7e" d="M37.11 238.4l-11.98 2.088 7.58-10.78 4.4 8.692"/><path d="M37.11 238.4l-11.98 2.088 7.58-10.78 4.4 8.692" stroke="#000" stroke-width=".271" fill="none"/><path fill="#ff0" d="M20.71 228.86l12.205.882c.274 10.343 1.528 49.813 48.656 51.956l-1.466 14.36c-57.367.596-61.726-48.413-59.394-67.198"/><path d="M20.71 228.86l12.205.882c.274 10.343 1.528 49.813 48.656 51.956l-1.466 14.36c-57.367.596-61.726-48.413-59.394-67.198zM65.51 299l14.384-3.14" stroke="#000" stroke-width=".271" fill="none"/><path fill="#ff0" d="M194.92 214.24l-12.613 3.993 4 20.472 12.01 1.93s1.93-10.775-3.397-26.407"/><path d="M194.92 214.24l-12.613 3.993 4 20.472 12.01 1.93s1.93-10.775-3.397-26.407v.012z" stroke="#000" stroke-width=".271" fill="none"/><path fill="#7e7e7e" d="M186.3 238.49l12.01 2.155-7.682-10.786-4.328 8.63"/><path d="M186.3 238.49l12.01 2.155-7.682-10.786-4.328 8.63" stroke="#000" stroke-width=".271" fill="none"/><path fill="#ff0" d="M202.63 229.02l-12.223.835c-.177 10.33-1.077 49.818-48.206 51.912l1.602 14.348c57.355.662 61.3-48.322 58.828-67.1"/><path d="M202.63 229.02l-12.223.835c-.177 10.33-1.077 49.818-48.206 51.912l1.602 14.348c57.355.662 61.3-48.322 58.828-67.1v.004zM158.44 299.07l-14.42-3.15" stroke="#000" stroke-width=".271" fill="none"/><path fill="#009fc5" d="M104.47 297.54c-.323.207-.76.262-1.266.237l-2.277-.115.195-2.842 2.258.12c.445.03.798.117 1.017.25.456.238.657.677.615 1.285-.03.523-.213.865-.548 1.065m-3.823 4.475l.226-3.465 2.654.184c.86.067 1.498-.16 1.93-.597.45-.427.682-.986.712-1.62.055-.736-.134-1.34-.572-1.783-.42-.426-1.017-.652-1.765-.724l-3.793-.237-.523 8.156 1.125.073M108.9 295.19l2.776.03c.402.037.718.086.95.195.426.2.626.603.626 1.187 0 .55-.158.914-.468 1.133-.3.2-.73.292-1.248.292l-2.667-.03.024-2.807m-.043 7.226l.025-3.482 2.606.037c.464 0 .804.037 1.042.152.383.177.572.55.59 1.06l.067 1.37c.018.328.024.53.042.663.036.097.055.2.103.274h1.4l-.024-.178c-.157-.085-.285-.25-.34-.5-.048-.157-.073-.395-.085-.693l-.024-1.09c-.018-.494-.103-.834-.29-1.023-.166-.22-.39-.408-.738-.524.39-.206.682-.444.895-.736.2-.323.304-.73.304-1.23 0-.937-.382-1.577-1.16-1.923-.422-.19-.957-.287-1.59-.298l-3.914-.037-.03 8.18h1.125M117.54 300.71c-.5-.608-.767-1.37-.828-2.27-.055-1.133.164-1.997.682-2.582.523-.633 1.2-.936 2.082-.985.89-.05 1.62.237 2.16.797.555.548.87 1.31.926 2.26.03.91-.128 1.72-.548 2.433-.414.725-1.102 1.133-2.118 1.157-1.06.055-1.85-.195-2.356-.81m-1.34-5.15c-.523.81-.736 1.747-.68 2.88.078 1.223.456 2.234 1.168 2.995.79.76 1.838 1.144 3.13 1.07 1.38-.06 2.422-.584 3.128-1.545.572-.87.846-1.88.785-3.13-.078-1.113-.4-2.02-1.003-2.696-.76-.907-1.875-1.308-3.385-1.247-1.424.09-2.472.614-3.147 1.673M154.64 283.79c.785-.134 1.467-.097 2.088.116.913.286 1.528.962 1.91 1.996l-1.125.16c-.243-.56-.59-.944-1.06-1.158-.456-.2-1.028-.25-1.685-.152-.767.116-1.382.5-1.814 1.114-.426.657-.554 1.534-.365 2.654.157.926.498 1.71 1.058 2.234.517.536 1.278.724 2.27.584.743-.12 1.34-.42 1.76-.93.438-.487.566-1.225.42-2.174l-2.624.402-.134-.9 3.652-.56.713 4.327-.725.11-.45-1c-.305.452-.61.8-.877 1-.45.353-1.06.578-1.82.688-.986.152-1.887-.024-2.703-.548-.895-.663-1.473-1.65-1.692-3.018-.237-1.346-.024-2.497.597-3.404.59-.876 1.448-1.387 2.605-1.552M162.9 283.16l2.618-.95c.36-.133.67-.176.937-.145.48.036.834.322 1.035.894.19.486.19.912-.024 1.21-.226.31-.58.537-1.09.725l-2.46.883-1.016-2.618m2.618 6.764l-1.28-3.282 2.436-.877c.457-.146.773-.225 1.01-.2.433.054.762.317.98.815l.555 1.25c.12.308.218.497.297.583.037.11.116.177.177.25l1.32-.487-.073-.177c-.193 0-.382-.11-.522-.324-.104-.152-.2-.37-.34-.627l-.433-1.024c-.195-.444-.396-.718-.627-.883-.23-.127-.524-.213-.87-.236.267-.31.462-.622.535-.987.08-.37.043-.785-.134-1.247-.336-.87-.95-1.346-1.815-1.407-.456-.036-.98.06-1.583.274l-3.676 1.31 2.97 7.693 1.078-.396M175.09 285.87l-4.67-6.812 5.127-3.27.566.823-4.2 2.685 1.436 2.082 3.877-2.496.53.8-3.878 2.495 1.58 2.295 4.275-2.734.566.804-5.216 3.33M179.18 273.82l1.34-1.473c.62-.658 1.277-.956 1.996-.87.718.06 1.45.438 2.228 1.12.213.164.402.377.596.614.34.446.542.836.67 1.225.11.488.085.932-.085 1.358-.104.212-.286.462-.56.76l-1.346 1.462-4.84-4.206m7.074 3.206c.95-1.046 1.156-2.173.602-3.445-.322-.687-.816-1.357-1.497-1.94-.86-.762-1.755-1.152-2.698-1.224-1.047-.08-1.936.298-2.71 1.143l-2.282 2.447 6.295 5.49 2.282-2.458M191.13 270.67l-7.244-4.255.59-.937 7.257 4.23-.597.974M193.97 265.73l-7.822-3.13 2.307-5.503.95.366-1.88 4.535 2.354.926 1.76-4.177.9.372-1.742 4.17 2.636 1.07 1.93-4.59.95.36-2.35 5.6M197.56 256.12l-8.23-1.82.274-1.272 7.603-2.57-6.678-1.472.243-1 8.23 1.772-.262 1.236-7.614 2.624 6.677 1.443-.237 1.06M196.91 245.67l.103-1.035c.475.013.877-.06 1.18-.224.598-.323.945-.937 1.036-1.845.036-.425.018-.797-.08-1.15-.176-.68-.56-1.06-1.175-1.12-.456-.05-.785.06-1.022.31-.213.287-.44.7-.61 1.285l-.377 1.078c-.243.705-.468 1.192-.712 1.466-.39.512-.937.69-1.637.64-.75-.08-1.358-.377-1.79-.95-.444-.523-.627-1.272-.517-2.198.073-.845.353-1.558.852-2.13.462-.523 1.18-.773 2.1-.676l-.085 1.035c-.45 0-.81.08-1.072.262-.475.26-.736.815-.815 1.625-.067.67.024 1.12.28 1.46.255.288.578.47.955.5.402.037.72-.09.938-.4.158-.215.347-.677.602-1.426l.372-1.132c.182-.524.402-.926.657-1.212.457-.475 1.053-.675 1.802-.62.913.097 1.565.475 1.9 1.17.328.7.456 1.472.377 2.348-.104.992-.426 1.772-1.023 2.295-.597.535-1.34.718-2.24.645M26.3 245.17l.19 1.022c-.458.09-.823.275-1.09.512-.482.45-.646 1.126-.482 2.045.073.388.213.772.39 1.077.365.62.84.87 1.442.772.445-.08.737-.25.877-.566.134-.31.23-.786.262-1.394l.054-1.15c.036-.713.115-1.273.274-1.584.25-.56.718-.907 1.418-1.022.75-.135 1.406.036 1.972.462.572.396.95 1.084 1.09 1.997.176.834.097 1.583-.23 2.258-.318.66-.927 1.06-1.858 1.23l-.183-1.034c.433-.158.755-.31.968-.523.365-.41.475-.998.335-1.808-.11-.658-.335-1.084-.676-1.297-.334-.25-.67-.347-1.034-.286-.408.06-.676.286-.804.652-.08.243-.14.748-.195 1.52l-.054 1.194c-.03.56-.115 1.023-.304 1.34-.298.584-.804.943-1.54 1.058-.93.16-1.65-.054-2.16-.65-.525-.585-.847-1.285-1.012-2.156-.182-1.035-.048-1.838.366-2.483.42-.663 1.083-1.047 1.984-1.175M25.78 255.96l8.047-2.423 1.875 5.667-.98.31-1.534-4.656-2.447.737 1.42 4.303-.938.298-1.406-4.315-2.727.816 1.557 4.76-.962.275-1.905-5.77M29.35 265.79l7.402-3.926.792 1.38-5.09 5.383 7.433-1.273.767 1.37-7.384 3.903-.523-.908 4.358-2.295c.158-.092.402-.226.755-.414.347-.157.737-.37 1.126-.572l-7.402 1.26-.542-.962 5.053-5.363-.244.123c-.157.09-.43.225-.802.437-.366.226-.64.366-.816.44l-4.346 2.33-.536-.925M43.14 276.69c-.37-.085-.737-.298-1.096-.67l-1.564-1.613 2.106-1.93 1.577 1.608c.304.298.5.59.602.84.146.48 0 .92-.444 1.333-.4.37-.803.523-1.18.432m-5.947.75l2.58-2.37 1.833 1.857c.59.603 1.193.877 1.826.865.646-.037 1.2-.274 1.686-.737.548-.487.81-1.06.81-1.673-.006-.597-.28-1.157-.785-1.68l-2.63-2.685-6.124 5.624.79.8M44.58 284.01l4.438-6.958 5.247 3.19-.548.828-4.31-2.58-1.333 2.106L52.037 283l-.51.798-3.97-2.393-1.51 2.356 4.365 2.625-.524.822-5.308-3.197M57.71 282.67l2.666.847c.378.115.652.26.834.426.34.322.432.785.232 1.345-.165.487-.414.803-.804.938-.347.06-.785.06-1.297-.098l-2.513-.803.883-2.655m-2.3 6.836l1.107-3.317 2.484.808c.445.116.768.275.926.438.304.274.395.682.243 1.188l-.372 1.32c-.085.323-.128.536-.164.633 0 .104 0 .214.018.286l1.31.427.078-.19c-.14-.11-.22-.31-.213-.56.03-.15.073-.394.158-.675l.317-1.06c.127-.462.176-.81.06-1.058-.097-.262-.26-.5-.535-.724.414-.074.773-.202 1.077-.427.286-.25.53-.596.676-1.083.298-.883.134-1.62-.524-2.18-.328-.29-.797-.54-1.412-.773l-3.725-1.15-2.607 7.76 1.09.336"/><path fill="#bc715f" d="M66.72 148.26c.962-2.32 9.874-8.645 39.117-5.875 0 0 4.943 3.02 7.847 2.63 1.655-.213-.974.103-3.135-1.692-2.205-1.796-2.674-5.48 2.36-5.38 5.01.127 23.765 1.186 24.118 2.87.33 1.706-9.916 2.418-13.727 2.32-3.827-.102-3.383 1.834.428 1.688 11.907-.426 24.903-4.62 38.63 5.09 1.637 1.18-4.14 1.37-8.608-.53 0 0-12.108.627-17.343-.23 0 0-4.024 3.273-9.265 2.95.682 1.7-1.936 8.036-18.414 3.27-2.72.834-12.637 2.495-11.554-.45-2.61 0-7.19.84-7.87-.646-.658-1.46 8.06-3.67 9.587-5.253 0 0-18.438.177-21.932-1.095 0 0-10.878 2.44-10.24.323"/><path fill="#008737" d="M72.63 174.08c.396-.535.554-1.497 1.394-1.472 1.826.486 3.068 3.828 5.314 1.66.798-.176 1.102.908 1.76 1.036.42 1.857 1.91-.377 3.025-.25 2.38-1.06 5.326-1.31 8.145-.785.085 1.82-1.34 3.828-3.13 4.862.037 1.833 1.7 3.008 1.67 4.852-.287.69-.05 1.77-1.09 1.997-1.322-.237-2.624-.377-3.72-1.113-.134-.134-.244-.396-.524-.31-.134.614.828 1.223 1.205 1.85-.664 1.132-1.766.097-2.69.11-.275.65-.013 1.472-.683 1.893-1.17-.037-1.406-1.31-2.124-1.942-.737.797.517 1.272.694 1.905-.45 2.398-.39 4.742-2.788 6.313l-1.61.798c-.437-1.206-.163-3.032-.455-4.293-.95 1.548-1.692 2.9-3.086 4.208-1.633-.536-2.582-2.46-2.942-4.054-.68-1.857-.292-4.08 1.175-5.424-.5-.974-2.21-.75-2.453-2.136-2.563-1.67-3.98 2.922-5.637.535-.535-2.23.104-5 1.717-6.66-.36-.913-1.552-.676-2.26-1.2-1.612-1.37-3.937-2.818-3.82-5.29 4.412-1.667 9.69-.444 12.898 2.91"/><path fill="#ff0" d="M74.92 173.83c-.103 2.02 1.364.547 2.453 1.77-.852-.334-1.473 1.474-2.307.44l-.523.5c.304.692.894.784.28 1.544-.913.347-1.096-.796-1.522-1.247-.072-.2.14-.58-.194-.713-.517.44-1.06.597-1.77.524-.196-.39-.574-.9-.19-1.2.7-.943 1.784.342 2.313-.32.084-.586-.427-1.298.237-1.7.456.08 1.04-.17 1.23.402M80.38 175.49c.055.39-.2.937.31 1.212.664-.36 1.37-.086 1.754.572-.006.353.103.815-.36.986l-1.034-.194c.073-.202-.256-.33-.384-.524-.456-.14-.724.23-1.065.456.257.39.847.603.707 1.102-.61.61-.907-.523-1.577-.238-.456-.176.165-1.125-.554-1.41-.852 0-.286 1.398-1.375.85-.39-.438-.772-1.028-.352-1.52.456-.306 1.23-.227 1.62.17.662-.737.73-3.58 2.318-1.462M73.58 178.42c.444.64-.097 1.51.47 2.222.887-1.66 1.746.36 2.805.2.323.396.11.945.17 1.395-1.308.347-2.885.76-4.042-.286l-.322.372c.69.64 1.34 1.364.792 2.435-.98.213-2.496.237-2.99-.773-.254-.834.598-1.436-.303-2.106-.652.81-.622 1.893-1.98 1.156-.84-.462-1.09-1.418-.67-2.222.877-1.38 2.412.044 3.36-.633.135-1.188-.303-2.223.786-2.88.932-.164 1.364.536 1.93 1.12"/><path fill="#fff" d="M77.29 179.15c-.438 2.02-1.96-.103-2.672-.19.95-1.684 1.546.55 2.672.19M82.03 181.35c-1.06.298-.895-1.023-1.418-1.54l.407-.372c.383.463.675 1.297 1.01 1.912"/><path fill="#ff0" d="M80.6 180.94c.304.7-.688 1.26.158 1.77.268-.223.597-.534.737-.662.724.214 1.564.34 2.07 1.06.54 1.485-.962 1.448-1.814 1.862l-.846-.037c.2-.414-.365-.59-.505-.876-.39-.097-.713.024-.932.353.188.944 1.34 1.68.152 2.52-1.004-.066-2.563.323-2.472-1.065-.377-.786 1.023-1.997-.474-2.045-.493 1.06-1.035 2.08-2.32 1.077l.16-1.51c1.228.037 2.683.25 3.237-1.125.354-1-.614-1.918.25-2.71 1.255-.285 1.96.555 2.6 1.388"/><path d="M79.7 183.21c.317.75-.536.798-.937 1.17-.542.042-.92-.172-1.248-.537-.244-.907.432-.998.95-1.357.602-.25.852.45 1.235.724"/><path fill="#fff" d="M78.96 183.7c-.134.177-.323.122-.524.17l-.188-.906c.402.036.925.164.712.736"/></g></svg>