<svg xmlns="http://www.w3.org/2000/svg" height="512" width="512"><defs><clipPath id="a"><path fill-opacity=".67" d="M124.02 0h496.06v496.06H124.02z"/></clipPath></defs><g clip-path="url(#a)" transform="matrix(1.032 0 0 1.032 -128 0)"><path fill-rule="evenodd" fill="#3e5eb9" d="M0 0h744.09v496.06H0z"/><path fill-rule="evenodd" fill="#ffd900" d="M0 88.583h744.09v318.9H0z"/><path fill-rule="evenodd" fill="#b10c0c" d="M0 124.02h744.09v248.03H0z"/><rect fill-rule="evenodd" rx="5.238" ry="5.315" height="10.63" width="602.36" stroke="#000" y="242.72" x="74.178" stroke-width="1.339" fill="#ffd900"/><g stroke="#000" transform="translate(-609.45 -24.803)"><rect fill-rule="evenodd" rx="3.851" ry="3.543" height="7.087" width="442.91" y="223.23" x="761.81" stroke-width="1.25" fill="#ffd900"/><path d="M1194.088 230.314c1.77 0 3.545-1.772 3.545-3.543s-1.775-3.543-3.545-3.543" stroke-width="1.25" fill="none"/><path d="M1190.588 230.314c1.77 0 3.545-1.772 3.545-3.543s-1.775-3.543-3.545-3.543M1186.988 230.315c1.77 0 3.545-1.772 3.545-3.543s-1.775-3.544-3.545-3.544" stroke-width="1.25" fill="none"/></g><g stroke="#000" transform="translate(-637.8 -3.543)"><rect fill-rule="evenodd" rx="3.851" ry="3.543" height="7.087" width="442.91" y="223.23" x="761.81" stroke-width="1.25" fill="#ffd900"/><path d="M1194.088 230.314c1.77 0 3.545-1.772 3.545-3.543s-1.775-3.543-3.545-3.543" stroke-width="1.25" fill="none"/><path d="M1190.588 230.314c1.77 0 3.545-1.772 3.545-3.543s-1.775-3.543-3.545-3.543M1186.988 230.315c1.77 0 3.545-1.772 3.545-3.543s-1.775-3.544-3.545-3.544" stroke-width="1.25" fill="none"/></g><g stroke-width="1pt" fill-rule="evenodd"><path d="M338.07-.416c-5.57 12.442 4.275-4.138 28.3 16.69 4.45 3.87 8.34 14.09 8.34 21.178-1.13-.975-1.968-3.145-3.213-4.553-1.743 2.252 1.664 12.576 2.162 17.456-3.757-2.71-3.395-3.993-4.643-7.324.25 4.026-.645 15.116.85 19.386-2.96-1.09-2.765-4.163-4.31-4.78 1.05 4.834-.917 10.094-.395 15.528-1.73-2.208-3.573-3.937-4.376-4.83-.135 2.59-3.327 9.39-3.4 11.836-1.468-1.143-1.866-2.926-2.11-4.126-1.825 2.955-8.31 13.872-8.725 17.202-4.995-5.69-17.792-19.545-19.458-26.9-1.473 4.176-3.604 5.584-7.817 8.632-1.665-11.656-7.89-24.756-4.56-34.747-2.36 1.804-4.303 3.608-6.66 5.828C310.287 29.18 321.68 9.388 338.07-.415z" transform="matrix(.964 0 0 .747 308.455 244.123)" stroke="#000" fill="#3d5da7"/><path d="M614.283 289.97c2.22-4.464 4.267-5.88 5.702-8.754 2.533-5.05 2.89-9.07 5.104-8.48 2.214.588 2.215 2.656-.646 7.623-2.86 4.966-4.222 6.026-10.16 9.61zM629.155 300.56c-.28-3.398.704-4.817.528-7.006-.3-3.85-1.865-6.494.176-6.682 2.04-.188 2.993 1.125 2.993 5.005s-.6 4.9-3.698 8.683zM640.573 306.995c-.886-4.725-.216-6.822-.783-9.867-.987-5.358-2.947-8.882-1.055-9.374 1.89-.493 3.03 1.24 3.74 6.672.71 5.433.33 6.927-1.902 12.57zM652.553 273.822c-2.795-2.11-4.425-2.25-6.227-3.607-3.175-2.38-4.783-4.93-5.8-3.66-1.02 1.268-.293 2.653 3.033 4.848 3.325 2.195 4.45 2.367 8.993 2.42zM650.55 289.69c-1.472-3.06-3.02-3.836-3.972-5.805-1.682-3.46-1.685-6.452-3.51-5.685-1.823.767-1.97 2.334-.018 5.682 1.95 3.35 2.972 3.955 7.5 5.808z" fill="#a70000"/></g><g stroke-width="1pt" fill-rule="evenodd"><path d="M329.6 20.703c-.272-2.662.253-2.98-1.258-4.99 2.2.998 2.284 3.65 4.96 1.768.982-.55 1.41-.568.216-3.525 2.79.14 11.927 3.535 13.39 3.614 3.842.19 10.855-4.374 15.723 1.238 4.673 5.118 3.113 10.43 3.113 17.516-1.877-.975-.973-1.455-2.965-3.99 1.494 6.196-.08 17.365-.08 23.935-.767-1.585-.654-.897-1.404-2.538-1.992 5.997-4.38 7.23-4.38 14.318-.72-2.78-.025-2.19-.825-3.653-1.937 4.552-14.926 8.443-9.92 13.033-4.52-2.87-6.5-2.57-8.55-5.15-.88.617-1.583 1.785-2.403 3.386-7.943-3.96-5.103-12.5-11.326-18.206-1.076 2.393-.585 2.045-1.75 5.94-1.26-5.41-1.603-8.845-3.02-12.82-1.223 2.203-1.113 1.36-3.333 4.69-.918-6.588-2.413-8.143-1.822-12.502-2.36 1.804-.815 1.073-3.173 3.293 2.234-16.88 11.884-29.35 18.808-25.357z" transform="matrix(1.103 0 0 1.016 -263.129 231.728)" stroke="#000" fill="#3d5da7"/><path d="M89.533 280.756c2.247-5.524 4.276-7.26 5.728-10.815 2.564-6.25 2.977-11.247 5.14-10.484 2.16.762 2.13 3.336-.754 9.478-2.883 6.142-4.234 7.444-10.113 11.822zM98.046 294.675c.898-4.96 2.322-6.767 2.905-9.96 1.036-5.62.452-9.802 2.46-9.58 2.007.22 2.463 2.343 1.133 7.93-1.33 5.588-2.25 6.91-6.497 11.61zM108.3 304.328c.247-4.81 1.368-6.69 1.53-9.786.295-5.45-.76-9.348 1.156-9.372 1.916-.025 2.6 1.934 2.025 7.39-.576 5.454-1.282 6.816-4.71 11.768zM130.02 272.69c-4.188-4.168-6.72-4.945-9.422-7.625-4.76-4.708-7.06-9.128-8.755-7.56-1.693 1.57-.674 3.918 4.337 8.397 5.012 4.48 6.754 5.13 13.84 6.787zM127.537 288.88c-2.732-4.188-4.735-5.272-6.5-7.967-3.11-4.736-4.18-8.807-5.94-7.798-1.762 1.01-1.366 3.136 2.004 7.727 3.372 4.59 4.727 5.433 10.437 8.04z" fill="#a70000"/></g><g fill-rule="evenodd"><path d="M637.8 230.32c-53.15 59.05-124.02 177.16-265.75 177.16-124.02 0-212.6-118.11-265.75-177.16 53.15-59.06 141.73-177.17 265.75-177.17 141.73 0 212.6 118.11 265.75 177.17z" transform="matrix(.667 0 0 .6 124.02 109.84)" stroke="#000" stroke-width="1.976" fill="#fff"/><path d="M359.688 178.708c9.427 10.603 1.555 14.877 11.533 15.573 10.524.774 4.56 11.204 13.41 11.567 6.19.27-.617 24.99 5.34 33.148 6.068 8.504 11.15 2.492 11.257 8.636.105 6.355-16.516 5.714-16.807 25.288-.487 11.28-14.026 12.003-14.672 19.26-.803 6.828 26.672 10.66 26.306 16.772-.377 6.093-29.667 5.14-30.943 12.088-.653 6.24 40.24 11.356 43.53 29.407-6.103 1.996-23.464 3.875-36.586 3.885-82.674.066-141.734-70.866-177.168-106.296 35.434-35.436 94.487-106.302 177.168-106.302 0 0-24.542 22.424-12.366 36.976z"/><g stroke-width="1pt" fill="#fff"><path d="M261.03 210.24h8.59v28.346h-8.59zM261.03 257.484h8.59v28.346h-8.59zM278.208 210.24h8.59v28.346h-8.59zM278.208 257.484h8.59v28.346h-8.59zM295.386 210.24h8.59v28.346h-8.59zM295.386 257.484h8.59v28.346h-8.59zM312.57 210.24h8.59v28.346h-8.59zM312.57 257.484h8.59v28.346h-8.59zM329.747 210.24h8.59v28.346h-8.59zM329.747 257.484h8.59v28.346h-8.59zM346.925 210.24h8.59v28.346h-8.59zM346.925 257.484h8.59v28.346h-8.59z"/></g><g stroke-width="1pt"><path d="M390.95 210.24h8.59v28.346h-8.59zM390.95 257.484h8.59v28.346h-8.59zM408.128 210.24h8.59v28.346h-8.59zM408.128 257.484h8.59v28.346h-8.59zM425.306 210.24h8.59v28.346h-8.59zM425.306 257.484h8.59v28.346h-8.59zM442.49 210.24h8.59v28.346h-8.59zM442.49 257.484h8.59v28.346h-8.59zM459.667 210.24h8.59v28.346h-8.59zM459.667 257.484h8.59v28.346h-8.59zM476.845 210.24h8.59v28.346h-8.59zM476.845 257.484h8.59v28.346h-8.59z"/></g></g><g stroke-width="1pt" fill-rule="evenodd"><path d="M338.07-.416c-5.57 12.442 9.754-4.138 33.778 16.69 4.452 3.87 10.833 19.16 10.833 26.246-5.114-1.257-14.172-7.087-14.172-7.087s10.63 12.295 10.63 26.468c-3.756-2.71-5.635-2.303-6.883-5.633 0 4.588 3.34 7.512 3.34 14.6-2.71-2.5-5.006-4.164-7.3-5.626 3.543 7.087-6.457 20.835-1.452 25.424-8.752-1.462-17.707-7.92-21.25-15.006-1.878 1.462-2.082 3.756-2.155 6.203.276.265-13.322-11.655-12.073-16.234-1.824 2.955-2.08 4.58-2.497 7.91-4.996-5.69-9.574-11.38-11.24-18.734-2.22 3.33-2.36 3.33-4.58 6.66-1.664-11.655-1.664-11.24 1.666-21.23-2.36 1.804-4.302 3.608-6.66 5.828 2.234-16.88 13.628-36.674 30.016-46.477z" transform="matrix(.881 0 0 .763 16.912 160.923)" stroke="#000" fill="#3d5da7"/><path d="M302.524 206.893c.794-6.534 2.508-8.996 3.025-13.203.92-7.4-.153-12.808 2.472-12.673 2.625.135 3.378 2.865 2.07 10.25-1.31 7.383-2.406 9.177-7.568 15.626zM316.325 219.023c-.53-5.522.49-7.874.154-11.43-.58-6.26-2.51-10.5-.222-10.89 2.287-.39 3.442 1.708 3.686 8.028.244 6.32-.368 8.005-3.62 14.293zM337.672 228.598c-2.322-4.766-4.318-6.186-5.817-9.254-2.647-5.393-3.197-9.798-5.243-8.997-2.046.8-1.936 3.08 1.014 8.358 2.95 5.278 4.283 6.353 10.046 9.893zM345.25 185.94c-5.934-3.118-8.98-3.157-12.804-5.16-6.732-3.512-10.652-7.482-12.042-5.296-1.39 2.186.468 4.36 7.41 7.552 6.94 3.193 9.072 3.343 17.435 2.903zM347.296 203.798c-4.315-3.587-6.865-4.115-9.647-6.42-4.902-4.05-7.343-8.025-8.98-6.413-1.635 1.61-.54 3.74 4.604 7.555 5.145 3.813 6.903 4.287 14.022 5.278z" fill="#a70000"/></g></g></svg>