<svg xmlns="http://www.w3.org/2000/svg" height="512" width="512" version="1"><defs><clipPath id="a"><path fill-opacity=".67" d="M0 0h512v512H0z"/></clipPath></defs><g clip-path="url(#a)"><path fill="#006" d="M1024 512V0H0v512h1024z"/><path fill-rule="evenodd" fill="#006" d="M0 0h512v256H0z"/><g stroke-width="1pt"><path fill="#fff" d="M0 0v28.622L454.757 256h57.24v-28.62L57.242 0H0zm511.998 0v28.62L57.24 256H0v-28.622L454.757 0h57.24z"/><path fill="#fff" d="M213.332 0v256h85.333V0h-85.333zM0 85.333v85.333h511.998V85.333H0z"/><path fill="#c00" d="M0 102.4v51.2h511.998v-51.2H0zM230.4 0v256h51.2V0h-51.2zM0 256l170.666-85.334h38.16L38.162 256H0zM0 0l170.666 85.333h-38.16L0 19.08V0zm303.17 85.333L473.838 0h38.16L341.333 85.333h-38.16zM512 256l-170.666-85.334h38.16L512 236.92V256z"/></g><g><path fill-opacity=".996" fill="#fff" d="M493.562 140.875V257.36c0 95.634-37.564 183.177-149 236.39-111.39-53.213-148.96-140.753-148.96-236.39V140.876h298.014z"/><path fill-opacity=".996" fill="#fdc300" d="M483.578 152.746v108.648c0 89.2-35.036 170.854-138.975 220.484-103.943-49.63-138.976-131.284-138.976-220.484V152.746h277.965z"/><g stroke="#000" stroke-width=".063"><path d="M205.96 52.847c-.353-.265-.736-.427-1.265-.44.117-1.296-.824-1.855-1.5-2.09-.677-.236-.913-.5-1.03-1.03-.118-.53-.47-.853-1.09-1.03-.617-.176-1.147-.794-1.382-1.088-.235-.296-.324-.237-.5.263-.177.5-.883 1.442-.236 1.472-.47.382-.735.823-.44 1.412-.325.265-.56.647-.12.794.443.148.56.266.59.384-.397 0-.5.794.44.97-.205.03-.293.677.09.677-.53 0-.972.796-1.648.796-.678 0-1.03.147-1.06.44-.03.295-.383.648-.56.795.5.06.824 0 1.09-.205s.705-.264 1-.03c.294.236.912.354 1.206.295-.647.442-1.118 1.03-1.177 1.59-.06.558-.442 1.205-.884 1.382-.44.176-1.03.647-1.235 1.206.56 1.383 1.353 1.725 2.148 2.09 1.413.646 2.295 1.117 2.884 1.764.588.648.824.177 1.706 1.295.883 1.118 1.707 3.236 2.59 3.59.882.353 2 .117 2.647-1 .648-1.12 1.06-12.417-2.265-14.3z" fill="#ff9e3d" transform="matrix(5.7 0 0 5.7 -893.7 -100.8)"/><path d="M288.822 173.592c-4.697 5.032-10.74 10.063-9.73 19.12s2.012 23.814-6.372 28.845c-8.385 5.03-12.41 17.777-2.35 25.155 10.062 7.38 10.398 16.436 12.074 24.822 1.68 8.385 6.042 15.093 12.75 9.39 6.704 1.007 10.397-1.676 10.397-7.042s.338-8.386 5.365-10.063c5.033-1.678 6.373-3.356 8.72-7.883 2.35-4.528 3.69-6.54 2.35-9.225-1.34-2.683-1.847-8.217-.838-12.242 1.01-4.025-1.34-6.205-2.685-8.72-1.34-2.516-1.84-4.696-1.174-8.05.672-3.355-1.003-5.535-3.352-7.212-2.348-1.677-3.357-3.354-2.85-6.038.502-2.683-1.68-4.36-4.195-6.372s-4.36-4.696-4.36-8.72c0-4.026-7.712-13.418-13.748-15.766z" fill="#ff927f" stroke-width=".35910000000000003"/><path d="M290.703 283.106c11.235-2.85 10.232-21.298 8.556-29.013-1.683-7.715-5.992-18.764-2.686-27.504 4.697-12.41-5.706-24.15-3.02-28.846 2.684-4.696 2.347-7.212 2.01-8.72-.33-1.51-2.85-2.684-3.014.502-.17 3.186-1.01 4.36-3.02 6.373s-1.512 6.37 0 11.235c1.51 4.863 4.696 12.243-.338 21.97-5.027 9.727-2.958 14.06-1.003 18.615 3.015 7.044 10.23 31.53 2.513 35.386z" fill="#ff9ee1" stroke-width=".35910000000000003"/><path d="M240.372 177.953c1.26 0 3.694-.504 3.694 1.173M237.864 186c1.51-1.09 4.195.17 6.874-1.424M240.543 192.71c2.012 0 4.697-.084 7.21-2.096M243.05 198.245c1.848 0 5.285-1.174 6.123-3.605M243.564 202.104c3.602-.168 8.385 1.174 9.052-.084M243.735 214.01c2.514-2.347 8.47-3.94 9.81-6.372M250.12 176.613c4.188 1.343 2.456 3.934 4.525 5.535 3.693 2.85.336 6.037 3.357 6.876 3.015.838 2.964 1.348 2.177 4.696-.924 3.94 2.85 4.108 1.51 6.708M273.09 197.914c-1.676 0-6.623.168-8.72 4.612M237.294 246.296c1.932.336 2.896-.763 3.437-1.845.588-1.173.84-2.01 2.6-2.095 1.762-.085 4.446-.587 5.033-1.93.587-1.34 2.685-.083 4.446-3.605 1.76-3.52 2.935-7.714 7.626-9.224" fill="none" stroke-width=".35910000000000003"/></g><g stroke="#000" stroke-width=".063"><path d="M221.76 73.75c.333.484-.012 1.007.553 1.216.662.245.084 1.116.865 1.422.692.273.005 1.105.753 1.48.67.333-.11 1.114.782 1.56.892.447-.168 1.45.502 1.84.67.392-.223 1.396.558 1.787.78.39-.335 1.17.39 1.73.725.557-.167 1.393.558 1.895s-.445 1.173.28 1.897c.557.558-.202 1.104.222 1.953.28.557-.28 2.79-1.84 2.566-.56.948-2.734 1.785-3.515 1.506-.78.558-3.29 1.34-4.575.11-1.282 1.23-3.793.448-4.574-.11-.78.28-2.956-.558-3.514-1.506-1.562.223-2.12-2.01-1.84-2.566.423-.85-.336-1.395.222-1.953.724-.724-.446-1.394.28-1.897s-.168-1.338.557-1.896c.725-.558-.39-1.34.39-1.73.78-.39-.11-1.394.558-1.785.67-.39-.39-1.395.503-1.84.893-.448.112-1.23.78-1.563.75-.374.062-1.206.754-1.48.78-.305.203-1.176.865-1.42.574-.214.208-.75.57-1.24 1.66.653 6.803 1.122 8.918.023z" fill="#00a728" transform="matrix(5.7 0 0 5.7 -893.7 -100.8)"/><g fill-opacity=".996" fill="#fdc300"><path d="M323.307 336.208c.006 1.427-.03 2.85-1.35 4.61-2.862 3.816 1.27 5.724-1.91 9.857-3.175 4.134.638 6.678-2.862 10.175-3.494 3.498.64 6.678-2.86 10.494-3.495 3.815.637 6.358-2.863 9.856-3.494 3.498.64 7.314-2.86 10.81-3.495 3.5.637 7.95-3.182 12.084-3.813 4.133.64 7.313-2.542 10.493-3.18 3.18-.32 6.36-2.542 8.584 3.813-2.86 3.813-7.31 6.675-9.537 2.862-2.226-.95-5.406.64-6.996s.318-8.267 3.18-11.446c2.86-3.18.32-9.538 2.86-11.764s.634-8.903 3.814-11.13 0-7.63 2.543-10.492c2.547-2.86 0-7.313 2.547-10.81 2.543-3.498.115-6.674 1.904-9.54.798-1.27.798-10.492-1.19-5.246zM332.484 340.18c-2.223 4.134 1.59 5.088-1.27 9.22s1.59 7.314-1.59 11.448 1.59 6.36-1.273 10.493c-2.86 4.134 1.273 6.36-1.27 9.54-2.548 3.18 1.904 6.36-1.27 10.175-3.18 3.816 1.27 6.677-1.278 10.175-2.542 3.497.958 7.313-1.27 10.174-2.224 2.862 1.59 6.996-1.59 10.81s.637 6.36-1.272 8.905c3.82-1.273 2.388-6.52 3.82-7.632 1.43-1.114-.48-8.427 1.743-10.334 2.23-1.908-1.43-7.793.64-10.334 3.498-4.293.477-7.155 2.54-10.493 2.07-3.34-.786-7.625.8-9.857 2.7-3.816-1.198-7.255.79-10.016 2.862-3.975-.552-7.248 1.432-9.857 3.02-3.975-.32-7.95.957-10.016 1.27-2.066 3.335-10.97-.638-12.4zM344.853 343.652c-2.223 5.54 1.59 7.756.32 12.188-1.272 4.432 1.59 7.757-.32 12.558-1.904 4.8 2.548 8.494 0 14.774-2.542 6.28 1.642 7.842 0 14.035-1.904 7.203 3.18 11.018 0 16.106-3.175 5.087 3.642 6.772.32 12.082-1.59 2.544.16 9.063 2.7 1.273 2.55-7.79-1.903-8.744.32-11.924 2.23-3.18-.792-11.606.16-16.058.957-4.45-2.223-10.493-.16-15.262 2.07-4.77-3.18-9.856-1.11-13.99 2.068-4.134-.953-9.22.95-12.56 1.91-3.338-1.43-7.79-.632-9.698.793-1.908-.797-8.956-2.547-3.524z" stroke-width=".35910000000000003"/></g><path d="M368.68 323.326c0-35.93-5.085-48.33-23.85-48.33-18.758 0-23.843 12.4-23.843 48.33h47.692z" fill="#ef072d" stroke-width=".35910000000000003"/><g fill="none"><path d="M327.98 320.464c-3.5 3.498.64 6.042-2.86 10.175-3.5 4.133-.32 6.358-3.18 10.174s1.27 5.724-1.91 9.857c-3.175 4.134.638 6.678-2.862 10.176-3.494 3.497.638 6.677-2.86 10.493-3.495 3.815.637 6.358-2.863 9.855-3.494 3.5.64 7.314-2.86 10.81-3.495 3.5.637 7.95-3.182 12.084-3.813 4.133.64 7.312-2.542 10.492-3.18 3.18-.318 6.36-2.54 8.585-2.23 2.226-2.543 5.326-1.59 6.677M334.65 321.735c-3.175 4.134 1.59 6.042-1.27 9.54-2.862 3.497 1.27 4.77-.953 8.903s1.59 5.087-1.27 9.22 1.59 7.314-1.59 11.447 1.59 6.36-1.272 10.493 1.27 6.36-1.272 9.54c-2.547 3.18 1.904 6.358-1.27 10.174-3.18 3.816 1.27 6.677-1.277 10.175-2.543 3.497.957 7.313-1.272 10.174-2.223 2.863 1.59 6.997-1.59 10.813s.64 6.36-1.27 8.903c-1.91 2.543-3.415 6.28-1.59 7.313M344.853 325.554c-1.585 6.648 2.23 12.558 0 18.098-2.223 5.54 1.59 7.756.32 12.188-1.272 4.432 1.59 7.757-.32 12.558-1.904 4.8 2.548 8.494 0 14.774-2.542 6.28 1.642 7.842 0 14.035-1.904 7.203 3.18 11.018 0 16.106-3.175 5.087 2.867 6.36.32 12.082-2.543 5.724 1.59 7.95-.32 13.674M361.725 320.464c3.5 3.498-.638 6.042 2.86 10.175 3.5 4.133.32 6.358 3.182 10.174s-1.27 5.724 1.91 9.857c3.174 4.134-.64 6.678 2.86 10.176 3.495 3.497-.638 6.677 2.862 10.493 3.493 3.815-.64 6.358 2.86 9.855 3.495 3.5-.638 7.314 2.862 10.81 3.494 3.5-.638 7.95 3.18 12.084 3.814 4.133-.638 7.312 2.543 10.492 3.18 3.18.32 6.36 2.542 8.585 2.23 2.226 2.548 5.326 1.59 6.677M355.056 321.735c3.175 4.134-1.59 6.042 1.27 9.54 2.863 3.497-1.27 4.77.953 8.903 2.228 4.133-1.59 5.087 1.27 9.22s-1.59 7.314 1.59 11.447-1.59 6.36 1.272 10.493c2.86 4.133-1.272 6.36 1.27 9.54 2.55 3.18-1.903 6.358 1.277 10.174 3.174 3.816-1.277 6.677 1.27 10.175 2.543 3.497-.957 7.313 1.272 10.174 2.223 2.863-1.59 6.997 1.59 10.813s-.638 6.36 1.27 8.903c1.91 2.543 3.42 6.28 1.59 7.313" stroke-width=".35910000000000003"/></g><path d="M321.027 323.326c0-35.93 5.084-48.33 23.843-48.33-8.584 0-13.828 6.676-15.26 11.127s-.637 4.134 1.272 2.385.952 2.067-.632 4.134c-1.59 2.067-3.18 7.95-.958 6.04 2.23-1.906 3.973.32 1.59 3.658s-4.45 11.13-2.07 8.426c2.39-2.703 2.863 1.75 1.438 3.975-1.437 2.227-1.277 4.134 0 3.18 1.27-.953 1.11 3.657-.16 5.406h-9.063zM365.03 321.262c0-28.14-3.493-36.566-10.487-39.427-3.96-1.623-4.075-1.272-2.183 1.27s1.602 6.202-.148 3.658c-1.744-2.543-2.326-3.02-3.055-1.907-.73 1.112 2.034 6.36 4.075 11.128 1.642 3.837.58 5.723-1.892 1.908s-2.474-.36-.302 2.862c2.787 4.133 2.7 16.693 2.7 21.94l11.293-1.432z" stroke-width=".35910000000000003"/><path d="M344.853 328.575c7.473 0 15.652-1.33 21.147-3.465 6.52-2.53 6.868-4.755 4.61-7.595-1.59-2-5.09-.8-8.423.666-3.34 1.467-12.563 2.4-17.334 2.4-4.765 0-13.988-.933-17.328-2.4-3.335-1.464-6.834-2.664-8.425-.665-2.257 2.84-1.91 5.064 4.612 7.595 5.49 2.134 13.674 3.465 21.14 3.465z" fill="#ef072d" stroke-width=".35910000000000003"/></g><g fill-rule="evenodd" fill="#b95a1e"><path d="M779.41 912.6s-.12 103.6 0 179.24c.12 75.63 19.822 104.91 54.262 103.59 34.44-1.33 41.108-58.83 34.53-92.08-6.576-33.26-53.24-198.97-53.24-198.97l-35.552 8.222z" transform="matrix(.1 0 0 .1 313.5 245.5)" stroke="#000" stroke-width="4.375"/><path d="M779.41 912.6s-.12 103.6 0 179.24c.12 75.63 19.822 104.91 54.262 103.59 34.44-1.33 41.108-58.83 34.53-92.08-6.576-33.26-53.24-198.97-53.24-198.97l-35.552 8.222z" transform="matrix(.1 0 0 .1 329.5 211.7)" stroke="#000" stroke-width="4.375"/><path d="M779.41 912.6s-.12 103.6 0 179.24c.12 75.63 19.822 104.91 54.262 103.59 34.44-1.33 41.108-58.83 34.53-92.08-6.576-33.26-53.24-198.97-53.24-198.97l-35.552 8.222z" transform="matrix(.1 0 0 .1 343.1 194.7)" stroke="#000" stroke-width="4.375"/><path d="M779.53 255.12c159.57-1.394 177.16-35.432 177.16-35.432s35.43-70.866 17.716-88.584c-17.717-17.716-194.88-17.716-194.88-17.716v141.73z" transform="matrix(.1 0 0 .1 369.9 257.3)" stroke="#000" stroke-width="5.554"/><path d="M779.53 255.12c106.3 0 124.02-35.432 124.02-35.432s35.43-70.866 17.716-88.584c-17.717-17.716-141.73-17.716-141.73-17.716v141.73z" transform="matrix(.1 0 0 .1 343.1 250.5)" stroke="#000" stroke-width="4.375"/><path d="M779.53 255.12c88.583 0 141.73-35.433 141.73-35.433s35.43-70.866 17.716-88.584c-17.72-17.72-159.45-17.71-159.45-17.71v141.73z" transform="matrix(.1 0 0 .1 343.1 243.8)" stroke="#000" stroke-width="4.375"/><path d="M832.68 113.39s70.866-88.583 194.88-177.17c124.01-88.582 213.73-156.72 230.31-141.73 0 17.717-106.3 106.3-194.88 177.17C974.4 42.52 868.1 148.82 868.1 148.82l-35.433-35.433z" transform="matrix(.1 0 0 .1 325.5 194.9)" stroke="#000" stroke-width="3.927"/><path d="M832.68 113.39s70.05-52.025 204.38-124.02c132.23-63.918 318.89-53.15 318.89-35.433-17.71 17.716-177.16 17.716-283.46 70.866-101.48 50.73-204.39 124.01-204.39 124.01l-35.433-35.433z" transform="matrix(.1 0 0 .1 326.4 201.7)" stroke="#000" stroke-width="3.927"/><path d="M832.68 113.39s61.675-35.068 204.38-88.583c141.72-53.15 329.87-17.717 329.87 0-17.7 17.713-170.4 6.944-276.7 35.43-109.99 27.757-222.09 88.583-222.09 88.583l-35.433-35.433z" transform="matrix(.1 0 0 .1 326.5 213.3)" stroke="#000" stroke-width="3.927"/><path d="M832.68 113.39s71.08-70.976 222.47-88.583c152.3-17.72 276.3 88.583 276.3 106.29-17.7 17.72-159.5-77.972-265.7-64.286-112.67 13.655-197.69 82.007-197.69 82.007l-35.433-35.433z" transform="matrix(.1 0 0 .1 327.3 225.1)" stroke="#000" stroke-width="3.927"/><path d="M779.53 255.12c159.57-1.394 159.45-45.508 159.45-45.508s35.43-70.866 17.716-88.584c-17.717-17.716-177.16-7.64-177.16-7.64v141.73z" transform="matrix(.1 0 0 .1 343.1 235.3)" stroke="#000" stroke-width="4.375"/><path d="M779.53 255.12c159.57-1.394 177.16-35.432 177.16-35.432s35.43-70.866 17.716-88.584c-17.717-17.716-194.88-17.716-194.88-17.716v141.73z" transform="matrix(.1 0 0 .1 343.1 228.5)" stroke="#000" stroke-width="4.375"/><path d="M779.53 255.12c159.57-1.394 194.88-35.433 194.88-35.433s35.43-70.866 17.716-88.583c-17.717-17.716-212.6-17.716-212.6-17.716v141.73z" transform="matrix(.1 0 0 .1 343.1 220.1)" stroke="#000" stroke-width="4.375"/><path d="M779.53 255.12c159.57-1.394 212.6-35.433 212.6-35.433s17.714-70.866 0-88.583c-17.717-17.716-212.6-17.716-212.6-17.716v141.73z" transform="matrix(.1 0 0 .1 343.1 211.6)" stroke="#000" stroke-width="4.375"/><path d="M832.68 113.39S946.89 24.807 946.89-46.06c0-70.866-50.35-141.73-64.625-177.17 28.552 0 93.176 106.3 93.176 177.17 0 77.444-107.32 194.88-107.32 194.88l-35.432-35.433z" transform="matrix(.1 0 0 .1 323.3 187.9)" stroke="#000" stroke-width="3.927"/><path d="M832.68 113.39s-14.276-53.15-14.276-159.45c0-124.02 63-202.89 85.654-230.32 5.898 27.422-57.102 124.02-57.102 230.32 0 77.444 21.157 194.88 21.157 194.88l-35.433-35.433z" transform="matrix(.1 0 0 .1 323.3 187.9)" stroke="#000" stroke-width="3.927"/><path d="M779.53 255.12c159.57-1.394 212.6-35.433 212.6-35.433s0-70.866-17.716-88.583c-17.717-17.716-194.88-17.716-194.88-17.716v141.73z" transform="matrix(.1 0 0 .1 343.1 203.1)" stroke="#000" stroke-width="4.375"/><path d="M779.53 255.12c159.57-1.394 194.88-35.433 194.88-35.433s0-70.866-17.716-88.583c-17.717-17.716-177.16-17.716-177.16-17.716v141.73z" transform="matrix(.1 0 0 .1 343.1 194.7)" stroke="#000" stroke-width="4.375"/><path d="M318.9 1318.1c55.065-122.32 70.866-336.61 70.866-372.05 0-99.782-32.948-585.11-35.433-779.53s124.02-301.18 248.03-301.18c106.3 0 177.17 70.866 177.17 177.17h-53.15c0-70.866-53.15-124.02-124.02-124.02-106.3 0-187.99 83.74-194.88 248.03-7.605 189.89 21.316 682.94 17.717 814.96s-51.234 249.72-106.3 336.61z" transform="matrix(-.1 0 0 .1 484.3 194.7)" stroke="#fdc301" stroke-width="11.026"/><path d="M779.41 912.6s-.12 103.6 0 179.24c.12 75.63 19.822 104.91 54.262 103.59 34.44-1.33 41.108-58.83 34.53-92.08-6.576-33.26-53.24-198.97-53.24-198.97l-35.552 8.222z" transform="matrix(-.1 0 0 .1 513.9 245.5)" stroke="#000" stroke-width="4.375"/><path d="M779.53 32.884c124.13.14 177.77 102.39 177.46 100.31l-35.734 33.347c-18.985 17.718-141.73 17.718-140.21 17.627l-1.52-151.29z" transform="matrix(.1 0 0 .1 343.1 194.7)" stroke="#000" stroke-width="4.375"/><path d="M779.41 912.6s-.12 103.6 0 179.24c.12 75.63 19.822 104.91 54.262 103.59 34.44-1.33 41.108-58.83 34.53-92.08-6.576-33.26-53.24-198.97-53.24-198.97l-35.552 8.222z" transform="matrix(-.1 0 0 .1 497.9 211.7)" stroke="#000" stroke-width="4.375"/><path d="M779.41 912.6s-.12 103.6 0 179.24c.12 75.63 19.822 104.91 54.262 103.59 34.44-1.33 41.108-58.83 34.53-92.08-6.576-33.26-53.24-198.97-53.24-198.97l-35.552 8.222z" transform="matrix(-.1 0 0 .1 484.3 194.7)" stroke="#000" stroke-width="4.375"/><path d="M779.53 255.12c159.57-1.394 177.16-35.432 177.16-35.432s35.43-70.866 17.716-88.584c-17.717-17.716-194.88-17.716-194.88-17.716v141.73z" transform="matrix(-.1 0 0 .1 457.5 257.3)" stroke="#000" stroke-width="5.554"/><path d="M779.53 255.12c106.3 0 124.02-35.432 124.02-35.432s35.43-70.866 17.716-88.584c-17.717-17.716-141.73-17.716-141.73-17.716v141.73z" transform="matrix(-.1 0 0 .1 484.3 250.5)" stroke="#000" stroke-width="4.375"/><path d="M779.53 255.12c88.583 0 141.73-35.433 141.73-35.433s35.43-70.866 17.716-88.584c-17.72-17.72-159.45-17.71-159.45-17.71v141.73z" transform="matrix(-.1 0 0 .1 484.3 243.8)" stroke="#000" stroke-width="4.375"/><path d="M832.68 113.39s70.866-88.583 194.88-177.17c124.01-88.582 213.73-156.72 230.31-141.73 0 17.717-106.3 106.3-194.88 177.17C974.4 42.52 868.1 148.82 868.1 148.82l-35.433-35.433z" transform="matrix(-.1 0 0 .1 501.9 194.9)" stroke="#000" stroke-width="3.927"/><path d="M832.68 113.39s70.05-52.025 204.38-124.02c132.23-63.918 318.89-53.15 318.89-35.433-17.71 17.716-177.16 17.716-283.46 70.866-101.48 50.73-204.39 124.01-204.39 124.01l-35.433-35.433z" transform="matrix(-.1 0 0 .1 501 201.7)" stroke="#000" stroke-width="3.927"/><path d="M832.68 113.39s61.675-35.068 204.38-88.583c141.72-53.15 329.87-17.717 329.87 0-17.7 17.713-170.4 6.944-276.7 35.43-109.99 27.757-222.09 88.583-222.09 88.583l-35.433-35.433z" transform="matrix(-.1 0 0 .1 500.9 213.3)" stroke="#000" stroke-width="3.927"/><path d="M832.68 113.39s71.08-70.976 222.47-88.583c152.3-17.72 276.3 88.583 276.3 106.29-17.7 17.72-159.5-77.972-265.7-64.286-112.67 13.655-197.69 82.007-197.69 82.007l-35.433-35.433z" transform="matrix(-.1 0 0 .1 500.1 225.1)" stroke="#000" stroke-width="3.927"/><path d="M779.53 255.12c159.57-1.394 159.45-45.508 159.45-45.508s35.43-70.866 17.716-88.584c-17.717-17.716-177.16-7.64-177.16-7.64v141.73z" transform="matrix(-.1 0 0 .1 484.3 235.3)" stroke="#000" stroke-width="4.375"/><path d="M779.53 255.12c159.57-1.394 177.16-35.432 177.16-35.432s35.43-70.866 17.716-88.584c-17.717-17.716-194.88-17.716-194.88-17.716v141.73z" transform="matrix(-.1 0 0 .1 484.3 228.5)" stroke="#000" stroke-width="4.375"/><path d="M779.53 255.12c159.57-1.394 194.88-35.433 194.88-35.433s35.43-70.866 17.716-88.583c-17.717-17.716-212.6-17.716-212.6-17.716v141.73z" transform="matrix(-.1 0 0 .1 484.3 220.1)" stroke="#000" stroke-width="4.375"/><path d="M779.53 255.12c159.57-1.394 212.6-35.433 212.6-35.433s17.714-70.866 0-88.583c-17.717-17.716-212.6-17.716-212.6-17.716v141.73z" transform="matrix(-.1 0 0 .1 484.3 211.6)" stroke="#000" stroke-width="4.375"/><path d="M832.68 113.39S946.89 24.807 946.89-46.06c0-70.866-50.35-141.73-64.625-177.17 28.552 0 93.176 106.3 93.176 177.17 0 77.444-107.32 194.88-107.32 194.88l-35.432-35.433z" transform="matrix(-.1 0 0 .1 504.1 187.9)" stroke="#000" stroke-width="3.927"/><path d="M832.68 113.39s-14.276-53.15-14.276-159.45c0-124.02 63-202.89 85.654-230.32 5.898 27.422-57.102 124.02-57.102 230.32 0 77.444 21.157 194.88 21.157 194.88l-35.433-35.433z" transform="matrix(-.1 0 0 .1 504.1 187.9)" stroke="#000" stroke-width="3.927"/><path d="M779.53 255.12c159.57-1.394 212.6-35.433 212.6-35.433s0-70.866-17.716-88.583c-17.717-17.716-194.88-17.716-194.88-17.716v141.73z" transform="matrix(-.1 0 0 .1 484.3 203.1)" stroke="#000" stroke-width="4.375"/><path d="M779.53 255.12c159.57-1.394 194.88-35.433 194.88-35.433s0-70.866-17.716-88.583c-17.717-17.716-177.16-17.716-177.16-17.716v141.73z" transform="matrix(-.1 0 0 .1 484.3 194.7)" stroke="#000" stroke-width="4.375"/><path d="M318.9 1318.1c55.065-122.32 70.866-336.61 70.866-372.05 0-99.782-32.948-585.11-35.433-779.53s124.02-301.18 248.03-301.18c106.3 0 177.17 70.866 177.17 177.17h-53.15c0-70.866-53.15-124.02-124.02-124.02-106.3 0-187.99 83.74-194.88 248.03-7.605 189.89 21.316 682.94 17.717 814.96s-51.234 249.72-106.3 336.61z" transform="matrix(.1 0 0 .1 343.1 194.7)" stroke="#fdc301" stroke-width="11.026"/><path d="M779.53 32.884c124.13.14 177.77 102.39 177.46 100.31l-35.734 33.347c-18.985 17.718-141.73 17.718-140.21 17.627l-1.52-151.29z" transform="matrix(-.1 0 0 .1 484.3 194.7)" stroke="#000" stroke-width="4.375"/></g></g></g></svg>