<svg xmlns="http://www.w3.org/2000/svg" height="512" width="512"><defs><clipPath id="a"><path fill-opacity=".67" d="M0-.24h496.3v496.3H0z"/></clipPath></defs><g clip-path="url(#a)" fill-rule="evenodd" transform="matrix(1 0 0 1 0 .2)"><path fill="#ffe300" d="M0-.24h744.09v496.3H0z"/><path fill="#118600" d="M0 201.52h744.09v99.66H0zM0 0h744.09v99.66H0z"/><path fill="#d80000" d="M0 0h297.12v301.18H0z"/><path d="M130.3 124.25c0-.83 18.26-51.456 18.26-51.456l16.598 50.626s55.606 1.66 55.606.83-43.987 33.198-43.987 33.198 20.748 58.096 19.92 56.436c-.83-1.66-48.138-34.858-48.138-34.858s-48.137 33.198-47.307 33.198 18.258-54.776 18.258-54.776l-43.155-32.37 53.946-.83z" fill="#fff"/><path fill="#118600" d="M0 396.4h744.09v99.66H0z"/></g></svg>