<svg xmlns="http://www.w3.org/2000/svg" height="512" width="512"><defs><clipPath id="a"><path fill-opacity=".67" d="M248.38 0h496.76v496.76H248.38z"/></clipPath></defs><g clip-path="url(#a)" fill-rule="evenodd" transform="matrix(1 0 0 1 -256 0)"><path fill="#fff" d="M0 0h992.91v496.76H0z"/><path fill="#239f40" d="M0 361.35h992.16v134.98H0z"/><path fill="#cd1738" d="M0 0h992.16v134.98H0z"/><path fill="#ff0" d="M403.492 205.936l3.57 11.758 11.56-.26-9.59 7.185 3.81 11.423-9.49-7.312-9.21 7.313 3.72-11.706-9.5-6.904 11.79.083M392.002 256.318l3.57 11.758 11.56-.26-9.59 7.185 3.81 11.425-9.49-7.312-9.21 7.312 3.72-11.706-9.5-6.905 11.79.083M442.383 164.836l3.57 11.758 11.56-.26-9.59 7.185 3.81 11.423-9.49-7.312-9.21 7.313 3.72-11.706-9.5-6.904 11.79.083M494.75 151.136l3.57 11.758 11.56-.26-9.59 7.185 3.81 11.423-9.49-7.312-9.21 7.313 3.72-11.706-9.5-6.904 11.79.083M547.57 164.836l3.57 11.758 11.56-.26-9.59 7.185 3.81 11.423-9.49-7.312-9.21 7.313 3.72-11.706-9.5-6.904 11.79.083M586.46 206.157l3.57 11.758 11.56-.26-9.59 7.185 3.81 11.424-9.49-7.312-9.21 7.312 3.72-11.706-9.5-6.904 11.79.083M597.73 256.318l3.57 11.758 11.56-.26-9.59 7.185 3.81 11.425-9.49-7.312-9.21 7.312 3.72-11.706-9.5-6.905 11.79.083M514.916 228.833c0 8.35-8.972 15.118-20.038 15.118s-20.04-6.767-20.04-15.117c0-8.35 8.973-15.117 20.04-15.117s20.038 6.768 20.038 15.117z"/><path fill="#ff0" d="M489.1 239.5h11.445v53.28H489.1z"/><path d="M595.32 288.76c-4.98 10.57-11.684 14.32-22.625 14.028-19.148.454-23.475-13.61-25.97-19.82-6.77 8.92-10.616 12.467-21.85 12.252-16.008.358-24.09-8.753-30.056-25.98-5.968 17.117-14.05 26.228-30.056 25.87-11.235.215-15.082-3.33-21.85-12.25-2.496 6.208-6.823 20.272-25.97 19.818-10.942.293-17.645-3.458-22.13-14.175 5.206 14.967 10.362 23.342 26.345 23.864 14.475.174 21.104-8.21 24.24-13.944 10.43 5.54 11.502 6.77 26.288 6.423 11.037-.355 17.377-7.566 23.09-14.427 5.71 6.86 12.05 14.07 23.088 14.426 14.786.347 15.858-.883 26.287-6.423 3.137 5.734 9.766 14.118 24.242 13.944 15.983-.522 21.14-8.897 26.925-23.607z" fill="#ff0"/><path d="M446.47 304.18l5.225 7.24 10.02-.293-7.733 8.762-15.137.386-4.735-6.342 8.743-1.413 3.67-8.32M542.97 304.18l-5.225 7.24-10.02-.293 7.733 8.762 15.137.386 4.735-6.342-8.743-1.413-3.67-8.32M482.23 308.84c0-.04 6.875.04 6.875.04l5.78-4.61 5.645 4.55 6.817.1-6.133 9.06h-12.89l-6.094-9.14zM569.2 341.11c-26.73-5.52-44.622-8.234-74.413-8.234s-47.682 2.715-74.244 8.168l-.037-11.525c26.6-5.504 44.49-8.22 74.28-8.22s47.683 2.716 74.282 8.22l.132 11.59z" fill="#ff0"/><path d="M505.31 228.88c0 3.28-4.687 5.938-10.47 5.938-5.78 0-10.468-2.66-10.468-5.938s4.687-5.938 10.47-5.938c5.78 0 10.468 2.66 10.468 5.938z" fill="#fff"/></g></svg>