<svg xmlns="http://www.w3.org/2000/svg" height="512" width="512"><defs><clipPath id="a"><path fill-opacity=".67" d="M0 0h512v512H0z"/></clipPath></defs><g clip-path="url(#a)"><path fill="#006" d="M0 0h1024v512H0z"/><path d="M0 0v28.622l454.76 227.38H512v-28.62L57.24.002H0zm512 0v28.62L57.24 256H0v-28.62L454.76 0H512z" fill="#fff"/><path d="M213.33 0v256h85.333V0H213.33zM0 85.333v85.333h512V85.333H0z" fill="#fff"/><path d="M0 102.4v51.2h512v-51.2H0zM230.4 0v256h51.2V0h-51.2zM0 256l170.67-85.333h38.162l-170.67 85.33H.002zM0 0l170.67 85.333h-38.162L-.002 19.08V0zm303.17 85.333L473.84 0H512L341.33 85.333h-38.162zM512 256.003l-170.67-85.33h38.162l132.51 66.25v19.08z" fill="#c00"/><path d="M356.076 224.49l5.33 16.4h17.243l-13.952 10.137 5.33 16.4-13.95-10.127-13.952 10.136 5.328-16.4-13.95-10.137h17.244z" fill="#fff"/><path d="M356.076 229.532l4.197 12.917h13.582l-10.988 7.982 4.197 12.917-10.987-7.984-10.988 7.983 4.195-12.92-10.987-7.983h13.582z" fill="#c00"/><path d="M273.918 307.156l5.33 16.4h17.243l-13.95 10.137 5.33 16.4-13.95-10.128-13.953 10.136 5.33-16.4-13.952-10.135h17.245z" fill="#fff"/><path d="M273.918 312.197l4.197 12.917h13.582l-10.988 7.983 4.196 12.917-10.987-7.983-10.99 7.984 4.197-12.92-10.987-7.982h13.582z" fill="#c00"/><path d="M426.498 289.58l4.46 13.727h14.434l-11.677 8.484 4.46 13.728-11.687-8.486-11.677 8.484 4.462-13.728-11.678-8.484h14.434z" fill="#fff"/><path d="M426.498 293.864l3.497 10.764h11.318l-9.157 6.653 3.498 10.765-9.156-6.65-9.157 6.654 3.5-10.765-9.158-6.653H423z" fill="#c00"/><path d="M356.078 435.474l5.86 18.033h18.96l-15.34 11.145 5.86 18.034-15.34-11.154-15.34 11.145 5.858-18.033-15.34-11.145h18.96z" fill-rule="evenodd" fill="#fff"/><path d="M356.078 439.766l4.897 15.07h15.845L364 464.15l4.897 15.07-12.82-9.314-12.82 9.314 4.897-15.07-12.82-9.313h15.846z" fill-rule="evenodd" fill="#c00"/></g></svg>