<svg xmlns="http://www.w3.org/2000/svg" height="512" width="512"><defs><clipPath id="a"><path fill-opacity=".67" d="M0 0h512v512H0z"/></clipPath></defs><g clip-path="url(#a)"><path fill="#006" d="M0 0h1024v512H0z"/><path d="M0 0v28.622l454.76 227.38H512v-28.62L57.24.002H0zm512 0v28.62L57.24 256H0v-28.62L454.76 0H512z" fill="#fff"/><path d="M213.33 0v256h85.333V0H213.33zM0 85.333v85.333h512V85.333H0z" fill="#fff"/><path d="M0 102.4v51.2h512v-51.2H0zM230.4 0v256h51.2V0h-51.2zM0 256l170.67-85.333h38.162l-170.67 85.33H.002zM0 0l170.67 85.333h-38.162L-.002 19.08V0zm303.17 85.333L473.84 0H512L341.33 85.333h-38.162zM512 256.003l-170.67-85.33h38.162l132.51 66.25v19.08z" fill="#c00"/><path d="M356.05 224.488l5.33 16.4h17.242l-13.95 10.136 5.328 16.4-13.95-10.128-13.95 10.136 5.33-16.4-13.952-10.136h17.244z" fill="#fff"/><path d="M356.05 229.53l4.197 12.915h13.58l-10.986 7.983 4.197 12.917-10.986-7.983-10.986 7.983 4.195-12.92-10.987-7.98h13.58z" fill="#c00"/><path d="M273.892 307.153l5.33 16.4h17.242l-13.95 10.136 5.328 16.398-13.95-10.127-13.95 10.137 5.33-16.4-13.952-10.136h17.244z" fill="#fff"/><path d="M273.892 312.194l4.197 12.916h13.58l-10.987 7.983 4.196 12.917-10.987-7.983-10.987 7.983 4.195-12.92-10.985-7.98h13.58z" fill="#c00"/><path d="M426.47 289.573l4.46 13.727h14.434l-11.676 8.484 4.46 13.727-11.686-8.485-11.677 8.483 4.46-13.727-11.676-8.482H422z" fill="#fff"/><path d="M426.47 293.858l3.498 10.764h11.318l-9.156 6.652 3.497 10.764-9.156-6.65-9.155 6.654 3.497-10.764-9.156-6.653h11.318z" fill="#c00"/><path d="M356.078 435.474l5.86 18.033h18.96l-15.34 11.145 5.86 18.034-15.34-11.154-15.34 11.145 5.858-18.033-15.34-11.145h18.96z" fill-rule="evenodd" fill="#fff"/><path d="M356.078 439.766l4.897 15.07h15.845L364 464.15l4.897 15.07-12.82-9.314-12.82 9.314 4.897-15.07-12.82-9.313h15.846z" fill-rule="evenodd" fill="#c00"/></g></svg>