<svg xmlns="http://www.w3.org/2000/svg" height="512" width="512" version="1"><defs><clipPath id="a"><path fill-opacity=".67" d="M0 0h496.06v496.06H0z"/></clipPath></defs><g fill-rule="evenodd" clip-path="url(#a)" transform="matrix(1.032 0 0 1.032 0 0)"><path fill="#004e00" d="M0 0h744.09v496.06H0z"/><g stroke-width="1pt"><path d="M252.47 166.54h13.68" fill="#ffef00"/><path d="M255.117 133.217c27.032 13.035 59.22-.06 70.864-18.056 11.94-16.793 13.407-44.992-7.235-70.865 32.04 26.572 39.123 56.693 23.183 81.497-21.262 28.344-68.43 27.524-86.81 7.425z" fill="#fff"/><path fill="#feffff" d="M296.92 76.18l1.535-5.37-4.36-3.344 5.436-.162L301.277 62l1.83 5.272 5.44.07-4.306 3.418 1.614 5.347-4.49-3.16M270.07 109.842l1.535-5.37-4.36-3.345 5.436-.162 1.746-5.304 1.83 5.273 5.44.07-4.306 3.418 1.614 5.348-4.49-3.16M271.84 83.275l1.535-5.37-4.36-3.345 5.436-.162 1.746-5.304 1.83 5.272 5.44.07-4.306 3.418 1.614 5.347-4.49-3.16M271.84 56.693l1.535-5.37-4.36-3.346 5.436-.16 1.746-5.305 1.83 5.27 5.44.07-4.306 3.42 1.614 5.347-4.49-3.162M242 90.36l1.535-5.37-4.36-3.344 5.436-.162 1.746-5.304 1.83 5.272 5.44.07-4.306 3.418 1.614 5.347-4.49-3.16"/></g><path fill="#980000" d="M46.063 0h159.45v496.06H46.063z"/><g stroke-width="1pt" fill="#e69900"><path d="M46.064 129.33v-3.543l6.59-8.86-1.328-1.77 3.986-5.315-1.328-1.772-2.658 3.543-1.33-1.77L59.3 97.44l1.327 1.772-1.328 1.772 2.738 3.58 6.562-8.895-6.673-8.62-2.628 3.304 1.327 1.77-1.328 1.773-9.303-12.402 1.33-1.77 2.657 3.542 1.328-1.772-3.986-5.315 1.33-1.77-6.592-8.86v-3.543l9.248 12.402-1.328 1.77 3.986 5.315-2.658 3.544 2.658 3.542 3.986-5.315L71.31 95.88l-9.354 12.19-3.986-5.315-2.658 3.544 2.658 3.542-3.986 5.315 1.328 1.77-9.248 12.403zM46.063 85.04l1.33 3.543v5.315h3.985l2.657 1.772-2.657 1.772h-3.986v5.315l-1.33 3.543V85.04z"/></g><g stroke-width="1pt" fill="#e69900"><path d="M46.064 214.368v-3.543l6.59-8.858-1.328-1.772 3.986-5.315-1.328-1.772-2.658 3.543-1.33-1.77 9.303-12.402 1.327 1.772-1.328 1.772 2.738 3.58 6.562-8.895-6.673-8.62-2.628 3.305 1.327 1.772-1.328 1.77-9.303-12.4 1.33-1.772 2.657 3.543 1.328-1.772-3.986-5.314 1.33-1.773-6.592-8.858v-3.545l9.248 12.402-1.328 1.772 3.986 5.314-2.658 3.543 2.658 3.543 3.986-5.314 9.354 12.612-9.354 12.19-3.986-5.315-2.658 3.544 2.658 3.543-3.986 5.315 1.328 1.772-9.248 12.4z"/><path d="M46.063 170.078l1.33 3.543v5.316h3.985l2.657 1.772-2.657 1.772h-3.986v5.315l-1.33 3.543v-21.26z"/></g><g stroke-width="1pt" fill="#e69900"><path d="M46.065 299.41v-3.544l6.59-8.858-1.328-1.772 3.986-5.315-1.328-1.77-2.658 3.543-1.33-1.772 9.303-12.4 1.328 1.77-1.328 1.773 2.74 3.58 6.56-8.895-6.672-8.62-2.628 3.305 1.328 1.772-1.328 1.77-9.302-12.4 1.33-1.772 2.657 3.543 1.328-1.772-3.986-5.315 1.33-1.772-6.592-8.858v-3.543l9.248 12.4-1.328 1.773 3.986 5.315-2.657 3.543 2.658 3.543 3.987-5.314 9.354 12.613-9.353 12.19-3.986-5.315-2.657 3.543 2.658 3.543-3.985 5.316 1.328 1.772-9.248 12.4z"/><path d="M46.064 255.12l1.33 3.542v5.315h3.985l2.656 1.772-2.657 1.77h-3.987v5.316l-1.33 3.543v-21.26z"/></g><g stroke-width="1pt" fill="#e69900"><path d="M46.065 379.13v-3.543l6.59-8.858-1.328-1.773 3.986-5.315-1.328-1.772-2.658 3.543-1.33-1.77L59.3 347.24l1.328 1.772-1.328 1.772 2.74 3.58 6.56-8.895-6.672-8.62-2.628 3.304 1.328 1.772-1.328 1.77-9.302-12.4 1.33-1.772 2.657 3.543 1.328-1.772-3.986-5.315 1.33-1.77-6.592-8.86v-3.543l9.248 12.402-1.328 1.77 3.986 5.315-2.657 3.544 2.658 3.542 3.987-5.314 9.354 12.612-9.353 12.19-3.986-5.315-2.657 3.544 2.658 3.542-3.985 5.315 1.328 1.772-9.248 12.4z"/><path d="M46.064 334.84l1.33 3.543v5.315h3.985l2.656 1.772-2.657 1.772h-3.987v5.315l-1.33 3.543v-21.26z"/></g><g stroke-width="1pt" fill="#e69900"><path d="M205.51 129.33v-3.543l-6.592-8.86 1.33-1.77-3.987-5.315 1.33-1.772 2.657 3.543 1.328-1.77-9.3-12.403-1.33 1.772 1.33 1.772-2.74 3.58-6.562-8.895 6.673-8.62 2.628 3.304-1.328 1.77 1.328 1.773 9.3-12.402-1.327-1.77-2.658 3.542-1.33-1.772 3.987-5.315-1.33-1.77 6.592-8.86v-3.543l-9.25 12.402 1.33 1.77-3.987 5.315 2.658 3.544-2.657 3.542-3.986-5.315-9.354 12.613 9.354 12.19 3.986-5.315 2.658 3.544-2.657 3.542 3.986 5.315-1.33 1.77 9.25 12.403z"/><path d="M205.51 85.04l-1.33 3.543v5.315h-3.985l-2.657 1.772 2.657 1.772h3.986v5.315l1.33 3.543V85.04z"/></g><g stroke-width="1pt" fill="#e69900"><path d="M205.95 214.37v-3.544l-6.592-8.86 1.33-1.77-3.987-5.315 1.33-1.77 2.657 3.542 1.328-1.77-9.3-12.403-1.33 1.77 1.33 1.773-2.74 3.58-6.562-8.895 6.673-8.62 2.628 3.305-1.328 1.77 1.328 1.773 9.3-12.402-1.327-1.77-2.658 3.542-1.33-1.772 3.987-5.315-1.33-1.772 6.592-8.858v-3.544l-9.25 12.402 1.33 1.77-3.987 5.316 2.658 3.544-2.657 3.543-3.986-5.314-9.354 12.613 9.354 12.19 3.986-5.316 2.658 3.544-2.657 3.543 3.986 5.316-1.33 1.77 9.25 12.403zM205.95 170.08l-1.33 3.542v5.315h-3.985l-2.657 1.772 2.657 1.77h3.986v5.316l1.33 3.543v-21.26z"/></g><g stroke-width="1pt" fill="#e69900"><path d="M205.51 299.41v-3.544l-6.592-8.858 1.33-1.772-3.987-5.315 1.33-1.77 2.657 3.543 1.328-1.772-9.3-12.4-1.33 1.77 1.33 1.773-2.74 3.58-6.562-8.895 6.673-8.62 2.628 3.305-1.328 1.772 1.328 1.77 9.3-12.4-1.327-1.772-2.658 3.543-1.33-1.772 3.987-5.315-1.33-1.772 6.592-8.858v-3.543l-9.25 12.4 1.33 1.773-3.987 5.315 2.658 3.543-2.657 3.543-3.986-5.314-9.354 12.613 9.354 12.19 3.986-5.315 2.658 3.543-2.657 3.543 3.986 5.316-1.33 1.772 9.25 12.4zM205.51 255.12l-1.33 3.542v5.315h-3.985l-2.657 1.772 2.657 1.77h3.986v5.316l1.33 3.543v-21.26z"/></g><g stroke-width="1pt" fill="#e69900"><path d="M205.51 379.13v-3.543l-6.592-8.858 1.33-1.773-3.987-5.315 1.33-1.772 2.657 3.543 1.328-1.77-9.3-12.402-1.33 1.772 1.33 1.772-2.74 3.58-6.562-8.895 6.673-8.62 2.628 3.304-1.328 1.772 1.328 1.77 9.3-12.4-1.327-1.772-2.658 3.543-1.33-1.772 3.987-5.315-1.33-1.77 6.592-8.86v-3.543l-9.25 12.402 1.33 1.77-3.987 5.315 2.658 3.544-2.657 3.542-3.986-5.314-9.354 12.612 9.354 12.19 3.986-5.315 2.658 3.544-2.657 3.542 3.986 5.315-1.33 1.772 9.25 12.4z"/><path d="M205.51 334.84l-1.33 3.543v5.315h-3.985l-2.657 1.772 2.657 1.772h3.986v5.315l1.33 3.543v-21.26z"/></g><g stroke-width="1pt" fill="#e69900"><path d="M46.067 33.66v-3.543l6.59-8.86-1.328-1.77 3.985-5.315-1.328-1.772-2.658 3.543-1.33-1.77L59.302 1.77l1.328 1.772-1.328 1.772 2.74 3.58L68.6-.002l2.71-.002L61.96 12.4l-3.987-5.315-2.658 3.544 2.658 3.542-3.986 5.315 1.328 1.77-9.248 12.403zM46.067 0h7.972L51.38 1.772h-3.986v5.315l-1.33 3.543V0z"/></g><g stroke-width="1pt" fill="#e69900"><path d="M205.506 33.66v-3.543l-6.59-8.86 1.328-1.77-3.986-5.315 1.328-1.772 2.658 3.543 1.328-1.77-9.3-12.403-1.33 1.772 1.33 1.772-2.74 3.58-6.562-8.895-2.71-.002 9.354 12.402 3.986-5.315 2.658 3.544-2.658 3.542 3.986 5.315-1.328 1.77 9.248 12.403zM205.506 0h-7.972l2.657 1.772h3.987v5.315l1.33 3.543V0z"/></g><path d="M112.51 488.996s5.72-10.044 20.136-13.087c14.416-3.045 16.933 6.695 25.17 6.695 8.238 0 21.28-6.696 21.28-6.696s-13.042 12.782-23.11 12.477c-10.068-.303-13.5-6.695-23.797-5.782-10.298.913-19.68 6.696-19.68 6.39z" fill="#e69900"/><path d="M140.34 488.996s-5.72-10.044-20.136-13.087c-14.416-3.045-16.933 6.695-25.17 6.695-8.238 0-21.28-6.696-21.28-6.696s13.042 12.782 23.11 12.477c10.068-.303 13.5-6.695 23.797-5.782 10.298.913 19.68 6.696 19.68 6.39z" fill="#e69900"/><g stroke-width="1pt" fill="#e69900"><path d="M93.29 472.558c-1.27-2.66-4.445-14.263-2.752-15.714 2.54-.966 9.315 10.88 8.68 21.516-4.445 2.417-19.475-.967-19.264-4.11 1.06-4.35 9.526-2.9 13.337-1.692z"/><path d="M83.877 462.394c-.827-2.95-2.127-15.175-.247-16.127 2.633-.246 7.41 13.207 5.137 23.435-4.72 1.14-18.878-6.313-18.183-9.328 1.71-3.965 9.758-.212 13.293 2.02z"/><path d="M76.51 451.084c-.558-3.06-.76-15.41 1.19-16.058 2.636.172 6.184 14.29 3.017 24.09-4.788.387-18.185-9.25-17.227-12.137 2.05-3.668 9.71 1.33 13.02 4.104z"/><path d="M71.02 438.724c-.2-3.138 1.02-15.367 3.022-15.605 2.584.714 4.466 15.38.21 24.4-4.775-.607-16.904-12.89-15.625-15.54 2.448-3.196 9.44 3.32 12.393 6.744z"/><path d="M67.127 426.233c.138-3.145 2.657-15.022 4.665-14.875 2.482 1.2 2.772 16.084-2.41 24.203-4.66-1.513-15.35-15.99-13.8-18.37 2.766-2.697 8.99 5.09 11.545 9.043z"/><path d="M67.944 411.947c-.356 12.594-2.642 12.745-6.808 3.443-1.844-3.513-2.057-18.118-.392-18.665 2.407-.054 7.14 10.354 7.2 15.222z"/></g><g stroke-width="1pt" fill="#e69900"><path d="M158.842 473.884c1.27-2.66 4.446-14.263 2.753-15.714-2.54-.966-9.315 10.88-8.68 21.516 4.445 2.417 19.475-.967 19.264-4.11-1.06-4.35-9.527-2.9-13.338-1.692zM168.256 463.72c.827-2.95 2.127-15.175.247-16.127-2.633-.246-7.41 13.207-5.137 23.435 4.72 1.14 18.878-6.313 18.183-9.328-1.71-3.965-9.76-.212-13.294 2.02z"/><path d="M175.622 452.41c.56-3.06.762-15.41-1.19-16.058-2.635.172-6.183 14.29-3.016 24.09 4.788.387 18.185-9.25 17.227-12.137-2.05-3.667-9.71 1.33-13.02 4.105z"/><path d="M181.113 440.05c.2-3.138-1.02-15.367-3.022-15.605-2.583.715-4.465 15.382-.208 24.402 4.774-.608 16.903-12.89 15.624-15.54-2.448-3.197-9.44 3.32-12.393 6.743zM185.006 427.56c-.138-3.146-2.657-15.023-4.665-14.876-2.48 1.2-2.77 16.084 2.41 24.203 4.662-1.514 15.352-15.99 13.8-18.37-2.765-2.698-8.988 5.088-11.544 9.042z"/><path d="M184.19 413.273c.355 12.594 2.64 12.745 6.807 3.443 1.844-3.513 2.057-18.118.392-18.665-2.408-.053-7.14 10.355-7.2 15.223z"/></g><g transform="matrix(.969 0 0 1.226 182.42 -74.639)"><path d="M-3.543 290.55h-5.315v3.543h-5.315v3.543h-21.26l-3.543 3.544 1.77 1.77h8.86l1.77-1.77h-8.857l1.772-1.772h12.4l-5.314 5.315h-12.402l-3.544-1.772-3.543 1.772h-12.402l-5.315-5.316 12.402.002 1.77 1.772-8.857-.002 1.772 1.773h8.858l1.772-1.77-3.544-3.544h-19.488v-3.543h-5.315v-3.543h-5.315v-15.945h5.315v-3.543h5.315v-3.543h19.488l3.544-3.545-1.772-1.77h-8.858l-1.772 1.772 8.858-.002-1.77 1.772-12.403.002 5.315-5.318h12.402l3.543 1.772 3.544-1.772h12.402l5.315 5.315h-12.4l-1.773-1.772h8.858l-1.772-1.77h-8.858l-1.77 1.77 3.542 3.544h21.26v3.542h5.315v3.543h5.315v15.945z" transform="matrix(1.488 0 0 1.24 3.502 -39.474)" stroke="#000" stroke-width=".125" fill="#980000"/><path d="M375.59 499.67v24.803h10.63v7.02h10.63v7.086h35.432l14.174 10.63 14.173-10.63h38.975v-7.02l10.63-.068v-7.087h10.63v-24.803h-10.63v-7.086l-10.63.068v-7.155H460.63l-14.174-10.63-14.174 10.63H396.85v7.154h-10.63v7.086h-10.63z" transform="matrix(.744 0 0 .62 -392.03 -6.521)" stroke="#e69900" stroke-width="1pt" fill="#004e00"/><path d="M-75.6 296.644l-15.822 10.984v-10.984H-75.6zM-43.97 296.644l15.822 10.985v-10.986H-43.97zM-75.6 325.208l-15.822-10.984v10.984H-75.6zM-43.965 325.208l15.82-10.985v10.985h-15.82zM-38.69 303.233l-5.272 4.394h10.547l-5.274-4.394zM-80.877 303.233l-5.273 4.394h10.547l-5.274-4.394zM-80.877 318.622l-5.273-4.394h10.547l-5.274 4.394zM-38.687 318.622l-5.273-4.394h10.547l-5.274 4.394z" fill="#980000"/><path d="M-59.787 329.602l-5.273-4.394h10.547l-5.274 4.394zM-59.787 307.632l-5.273-4.394h10.547l-5.274 4.394zM-59.787 292.25l-5.273 4.393h10.547l-5.274-4.394zM-59.787 314.217l-5.273 4.394h10.547l-5.274-4.393z" fill="#e69900"/><path transform="matrix(.744 0 0 .62 -392.03 -6.521)" stroke="#000" stroke-width=".125" fill="#e69900" d="M467.72 506.69h14.173v3.543H467.72z"/><path transform="matrix(.744 0 0 .62 -392.03 -6.521)" stroke="#000" stroke-width=".125" fill="#c00" d="M414.57 510.24h7.087v3.543h-7.087zM471.26 510.24h7.087v3.543h-7.087z"/><path transform="matrix(.744 0 0 .62 -392.03 -6.521)" stroke="#000" stroke-width=".125" fill="#900" d="M439.37 488.98h14.173v3.543H439.37zM439.37 496.06h14.173v3.543H439.37z"/><path transform="matrix(.744 0 0 .62 -392.03 -6.521)" stroke="#000" stroke-width=".125" fill="#900" d="M435.83 492.52h21.26v3.543h-21.26zM439.37 524.41h14.173v3.543H439.37zM439.37 531.5h14.173v3.543H439.37z"/><path transform="matrix(.744 0 0 .62 -392.03 -6.521)" stroke="#000" stroke-width=".125" fill="#900" d="M435.83 527.95h21.26v3.543h-21.26z"/><path transform="matrix(.744 0 0 .62 -392.03 -6.521)" stroke="#000" stroke-width=".125" fill="#e69900" d="M467.72 513.78h14.173v3.543H467.72zM411.02 506.69h14.173v3.543H411.02zM411.02 513.78h14.173v3.543H411.02z"/><path transform="matrix(.744 0 0 .62 -392.03 -6.521)" stroke="#000" stroke-width=".125" fill="#e69900" d="M407.48 510.24h7.087v3.543h-7.087zM421.65 510.24h7.087v3.543h-7.087zM464.17 510.24h7.087v3.543h-7.087zM478.35 510.24h7.087v3.543h-7.087z"/><ellipse fill="#fff" transform="matrix(.744 0 0 .62 -374.14 -38.912)" cx="413.68" rx=".886" cy="581.99" ry=".886"/><ellipse fill="#fff" transform="matrix(.744 0 0 .62 -367.57 -38.912)" cx="413.68" rx=".886" cy="581.99" ry=".886"/><ellipse fill="#fff" transform="matrix(.744 0 0 .62 -361 -38.958)" cx="413.68" rx=".886" cy="581.99" ry=".886"/><ellipse fill="#fff" transform="matrix(.744 0 0 .62 -371.51 -41.102)" cx="413.68" rx=".886" cy="581.99" ry=".886"/><ellipse fill="#fff" transform="matrix(.744 0 0 .62 -363.68 -41.148)" cx="413.68" rx=".886" cy="581.99" ry=".886"/><ellipse fill="#fff" transform="matrix(.744 0 0 .62 -371.57 -36.768)" cx="413.68" rx=".886" cy="581.99" ry=".886"/><ellipse fill="#fff" transform="matrix(.744 0 0 .62 -363.68 -36.677)" cx="413.68" rx=".886" cy="581.99" ry=".886"/><ellipse fill="#fff" transform="matrix(.744 0 0 .62 -353.17 -49.999)" cx="413.68" rx=".886" cy="581.99" ry=".886"/><ellipse fill="#fff" transform="matrix(.744 0 0 .62 -346.59 -49.999)" cx="413.68" rx=".886" cy="581.99" ry=".886"/><ellipse fill="#fff" transform="matrix(.744 0 0 .62 -340.02 -50.045)" cx="413.68" rx=".886" cy="581.99" ry=".886"/><ellipse fill="#fff" transform="matrix(.744 0 0 .62 -350.54 -52.189)" cx="413.68" rx=".886" cy="581.99" ry=".886"/><ellipse fill="#fff" transform="matrix(.744 0 0 .62 -342.71 -52.235)" cx="413.68" rx=".886" cy="581.99" ry=".886"/><ellipse fill="#fff" transform="matrix(.744 0 0 .62 -350.59 -47.855)" cx="413.68" rx=".886" cy="581.99" ry=".886"/><ellipse fill="#fff" transform="matrix(.744 0 0 .62 -342.71 -47.764)" cx="413.68" rx=".886" cy="581.99" ry=".886"/><ellipse fill="#fff" transform="matrix(.744 0 0 .62 -374.2 -60.904)" cx="413.68" rx=".886" cy="581.99" ry=".886"/><ellipse fill="#fff" transform="matrix(.744 0 0 .62 -367.62 -60.904)" cx="413.68" rx=".886" cy="581.99" ry=".886"/><ellipse fill="#fff" transform="matrix(.744 0 0 .62 -361.05 -60.949)" cx="413.68" rx=".886" cy="581.99" ry=".886"/><ellipse fill="#fff" transform="matrix(.744 0 0 .62 -371.57 -63.094)" cx="413.68" rx=".886" cy="581.99" ry=".886"/><ellipse fill="#fff" transform="matrix(.744 0 0 .62 -363.74 -63.139)" cx="413.68" rx=".886" cy="581.99" ry=".886"/><ellipse fill="#fff" transform="matrix(.744 0 0 .62 -371.62 -58.759)" cx="413.68" rx=".886" cy="581.99" ry=".886"/><ellipse fill="#fff" transform="matrix(.744 0 0 .62 -363.74 -58.668)" cx="413.68" rx=".886" cy="581.99" ry=".886"/><ellipse fill="#fff" transform="matrix(.744 0 0 .62 -395.28 -49.817)" cx="413.68" rx=".886" cy="581.99" ry=".886"/><ellipse fill="#fff" transform="matrix(.744 0 0 .62 -388.71 -49.817)" cx="413.68" rx=".886" cy="581.99" ry=".886"/><ellipse fill="#fff" transform="matrix(.744 0 0 .62 -382.14 -49.862)" cx="413.68" rx=".886" cy="581.99" ry=".886"/><ellipse fill="#fff" transform="matrix(.744 0 0 .62 -392.65 -52.007)" cx="413.68" rx=".886" cy="581.99" ry=".886"/><ellipse fill="#fff" transform="matrix(.744 0 0 .62 -384.82 -52.052)" cx="413.68" rx=".886" cy="581.99" ry=".886"/><ellipse fill="#fff" transform="matrix(.744 0 0 .62 -392.71 -47.672)" cx="413.68" rx=".886" cy="581.99" ry=".886"/><ellipse fill="#fff" transform="matrix(.744 0 0 .62 -384.82 -47.581)" cx="413.68" rx=".886" cy="581.99" ry=".886"/></g><path d="M134.575 247.808l4.394-2.058 4.393 2.058h-8.788zM121.394 247.808l4.394-2.058 4.394 2.058h-8.788zM108.213 247.808l4.394-2.058 4.394 2.058h-8.787zM134.575 200.443l4.394 2.058 4.393-2.057h-8.788zM121.394 200.443l4.394 2.058 4.394-2.057h-8.788zM108.213 200.443l4.394 2.058 4.394-2.057h-8.787z" fill="#fff"/><path d="M130.95 254.01l-5.123 4.117-5.124-4.118-5.123 4.117-5.123-4.118v2.057l3.415 2.06-1.708 2.058v2.06h1.708l1.708-2.06 1.707 2.06h1.71v-2.06l-1.71-2.058 3.416-2.06 3.416 2.06-1.71 2.058v2.06h1.71l1.707-2.06 1.708 2.06h1.708v-2.06l-1.708-2.058 3.416-2.06 3.417 2.06-1.708 2.058v2.06h1.707l1.708-2.06 1.707 2.06h1.708v-2.06l-1.708-2.06 3.416-2.058v-2.058l-5.123 4.116-5.124-4.117zM130.952 194.232l-5.124-4.118-5.124 4.118-5.123-4.118-5.122 4.118v-2.058l3.415-2.06-1.708-2.058v-2.06h1.708l1.708 2.06 1.708-2.06h1.71v2.06l-1.71 2.058 3.416 2.06 3.416-2.06-1.708-2.058v-2.06h1.708l1.708 2.06 1.708-2.06h1.708v2.06l-1.708 2.058 3.416 2.06 3.416-2.06-1.708-2.058v-2.06h1.708l1.708 2.06 1.707-2.06h1.708v2.06l-1.707 2.06 3.416 2.058v2.058l-5.124-4.117-5.124 4.117zM169.716 228.615l5.493-4.46-5.494-4.458 5.493-4.46-5.494-4.458h2.745l2.75 2.97 2.744-1.486h2.747v1.487l-2.746 1.487 2.747 1.487v1.486h-2.746l-2.745-1.486-2.747 2.973 2.746 2.973 2.744-1.487h2.747v1.487l-2.746 1.486 2.747 1.486v1.487h-2.746l-2.745-1.488-2.747 2.973 2.745 2.973 2.746-1.486h2.747v1.486l-2.746 1.487 2.747 1.486v1.487h-2.746l-2.746-1.486-2.747 2.974h-2.744l5.492-4.46-5.492-4.46zM81.864 228.615l-5.493-4.46 5.494-4.458-5.493-4.46 5.494-4.458H79.12l-2.75 2.97-2.744-1.486H70.88v1.487l2.746 1.487-2.747 1.487v1.486h2.746l2.745-1.486 2.747 2.973-2.746 2.973-2.744-1.487H70.88v1.487l2.746 1.486-2.747 1.486v1.487h2.746l2.745-1.488 2.747 2.973-2.745 2.973-2.746-1.486H70.88v1.486l2.746 1.487-2.747 1.486v1.487h2.746l2.746-1.486 2.747 2.974h2.744l-5.492-4.46 5.492-4.46z" fill="#004e00"/><path transform="matrix(1.24 0 0 1.162 204.874 -5.463)" stroke="#000" stroke-width=".25" fill="#004e00" d="M-26.575 214.37h1.772v1.772h-1.772z"/><path transform="matrix(1.24 0 0 1.162 204.874 -5.463)" stroke="#000" stroke-width=".25" fill="#004e00" d="M-28.346 216.14h1.772v1.772h-1.772zM-37.205 225h1.772v1.772h-1.772zM-35.433 223.23h1.772v1.772h-1.773zM-93.898 223.23h1.772v1.772h-1.772zM-102.76 214.37h1.772v1.772h-1.772zM-100.98 216.14h1.772v1.772h-1.772zM-100.98 177.17h1.772v1.772h-1.772zM-102.76 178.94h1.772v1.772h-1.772zM-92.126 168.31h1.772v1.772h-1.772z"/><path transform="matrix(1.24 0 0 1.162 204.874 -5.463)" stroke="#000" stroke-width=".25" fill="#004e00" d="M-93.898 170.08h1.772v1.772h-1.772zM-37.205 168.31h1.772v1.772h-1.772zM-35.433 170.08h1.772v1.772h-1.773zM-28.346 177.17h1.772v1.772h-1.772z"/><path transform="matrix(1.24 0 0 1.162 204.874 -5.463)" stroke="#000" stroke-width=".25" fill="#004e00" d="M-26.575 178.94h1.772v1.772h-1.772zM-92.126 225h1.772v1.772h-1.772z"/><path d="M119.01 224.253h-6.474V220.2l4.315.003v-3.8h4.316v-3.487h4.316v4.36c-3.573 0-6.473 2.954-6.473 6.977z" fill="#fff"/><path d="M132.11 224.253h6.474V220.2l-4.315.003v-3.8h-4.316v-3.487h-4.316v4.36c3.573 0 6.473 2.954 6.473 6.977z" fill="#e69900"/><path d="M132.11 223.987h6.474v4.052l-4.315-.003v3.8h-4.316v3.487h-4.316v-4.36c3.573 0 6.473-2.954 6.473-6.977z" fill="#fff"/><path d="M119.01 223.987h-6.474v4.052l4.315-.003v3.8h4.316v3.487h4.316v-4.36c-3.573 0-6.473-2.954-6.473-6.977z" fill="#e69900"/><path d="M131.956 224.183h-6.474v-6.972c3.574 0 6.474 3.125 6.474 6.973z" fill="#004e00"/><path d="M131.956 224.056h-6.474v6.972c3.574 0 6.474-3.124 6.474-6.972z" fill="#980000"/><path d="M119.164 224.056h6.474v6.972c-3.574 0-6.474-3.124-6.474-6.972z" fill="#004e00"/><path d="M119.164 224.183h6.474v-6.972c-3.574 0-6.474 3.125-6.474 6.973z" fill="#980000"/><path d="M132.378 249.81l-6.59-4.117-6.59 4.118-6.592-4.117-6.59 4.118v-2.057l4.393-2.06-2.198-2.058v-2.06h2.197l2.196 2.06 2.197-2.06H117v2.06l-2.197 2.058 4.394 2.06 4.394-2.06-2.196-2.058v-2.06h2.197l2.197 2.06 2.197-2.06h2.197v2.06l-2.196 2.058 4.394 2.06 4.394-2.06-2.197-2.058v-2.06h2.197l2.197 2.06 2.195-2.06h2.197v2.06l-2.197 2.06 4.394 2.058v2.058l-6.59-4.116-6.592 4.117zM132.378 198.433l-6.59 4.118-6.59-4.117-6.592 4.118-6.59-4.117v2.058l4.393 2.06-2.198 2.06v2.058h2.197l2.196-2.06 2.197 2.06H117v-2.06l-2.197-2.057 4.394-2.058 4.394 2.06-2.196 2.057v2.058h2.197l2.197-2.06 2.197 2.06h2.197v-2.06l-2.196-2.057 4.394-2.058 4.394 2.058-2.197 2.06v2.058h2.197l2.197-2.06 2.195 2.06h2.197v-2.06l-2.197-2.058 4.394-2.06v-2.057l-6.59 4.117-6.592-4.117zM156.532 229.226l-3.296-5.15 3.296-5.15-3.296-5.15 3.296-5.15h-1.647l-1.65 3.433-1.646-1.718h-1.65v1.717l1.65 1.716-1.65 1.716v1.717h1.65l1.646-1.718 1.648 3.434-1.648 3.434-1.647-1.717h-1.65v1.717l1.65 1.716-1.65 1.717v1.717h1.65l1.646-1.717 1.648 3.433-1.647 3.434-1.648-1.717h-1.65v1.717l1.65 1.717-1.65 1.716v1.717h1.65l1.647-1.717 1.648 3.434h1.647l-3.295-5.15 3.295-5.15z" fill="#004e00"/><path d="M-100.98 177.17l-7.087 7.086v26.575l7.087 7.088h31.89l7.086-7.087v-26.574l-7.087-7.086h-31.89zm-1.772-5.316l-17.717 17.716v15.945l17.718 17.717h35.433l17.717-17.717V189.57l-17.716-17.716h-35.432z" transform="matrix(1.24 0 0 1.162 231.237 -5.462)" stroke="#000" stroke-width=".4" fill="#004e00"/><path d="M-93.898 147.05l3.543 5.315 3.544-5.315H-93.9z" transform="matrix(.992 0 0 .775 208.389 135.903)" stroke="#000" stroke-width=".25" fill="#e69900"/><path d="M-93.898 147.05l3.543 5.315 3.544-5.315H-93.9z" transform="matrix(.992 0 0 -.775 208.389 312.259)" stroke="#000" stroke-width=".25" fill="#e69900"/><path d="M-93.898 147.05l3.543 5.315 3.544-5.315H-93.9z" transform="matrix(.992 0 0 -.775 222.449 312.259)" stroke="#000" stroke-width=".25" fill="#e69900"/><path d="M-93.898 147.05l3.543 5.315 3.544-5.315H-93.9z" transform="matrix(.992 0 0 .775 222.449 135.903)" stroke="#000" stroke-width=".25" fill="#e69900"/><path d="M-93.898 147.05l3.543 5.315 3.544-5.315H-93.9z" transform="matrix(.992 0 0 -.775 201.359 312.259)" stroke="#000" stroke-width=".25" fill="#980000"/><path d="M-93.898 147.05l3.543 5.315 3.544-5.315H-93.9z" transform="matrix(.992 0 0 -.775 215.419 312.259)" stroke="#000" stroke-width=".25" fill="#980000"/><path d="M-93.898 147.05l3.543 5.315 3.544-5.315H-93.9z" transform="matrix(.992 0 0 -.775 229.479 312.259)" stroke="#000" stroke-width=".25" fill="#980000"/><path d="M-104.53 180.71l3.544-3.544h-3.544v3.544z" transform="matrix(1.86 0 0 -1.743 293.83 558.592)" stroke="#000" stroke-width=".25" fill="#980000"/><path d="M95.038 229.226l3.296-5.15-3.296-5.15 3.296-5.15-3.296-5.15h1.647l1.65 3.433 1.646-1.718h1.65v1.717l-1.65 1.716 1.65 1.716v1.717h-1.65l-1.646-1.718-1.648 3.434 1.648 3.434 1.647-1.717h1.65v1.717l-1.65 1.716 1.65 1.717v1.717h-1.65l-1.646-1.717-1.648 3.433 1.647 3.434 1.648-1.717h1.65v1.717l-1.65 1.717 1.65 1.716v1.717h-1.65l-1.647-1.717-1.648 3.434h-1.647l3.295-5.15-3.295-5.15z" fill="#004e00"/><path d="M-76.18 154.13h7.086l1.77 1.772-1.77 1.77h-7.087v-3.542z" transform="matrix(1.24 0 0 1.046 253.205 57.323)" stroke="#000" stroke-width=".25" fill="#980000"/><path d="M-99.213 180.71l-3.543 3.544v26.575l3.543 3.542h-5.316l.002-33.662h5.315z" transform="matrix(1.24 0 0 1.162 222.449 -5.462)" stroke="#000" stroke-width=".375" fill="#980000"/><path d="M-93.898 147.05l3.543 5.315 3.544-5.315H-93.9z" transform="matrix(.992 0 0 .775 201.359 135.903)" stroke="#000" stroke-width=".25" fill="#980000"/><path d="M-93.898 147.05l3.543 5.315 3.544-5.315H-93.9z" transform="matrix(.992 0 0 .775 215.419 135.903)" stroke="#000" stroke-width=".25" fill="#980000"/><path d="M-93.898 147.05l3.543 5.315 3.544-5.315H-93.9z" transform="matrix(.992 0 0 .775 229.479 135.903)" stroke="#000" stroke-width=".25" fill="#980000"/><path d="M-99.212 180.71l-3.544 3.544v26.575l3.544 3.542h-5.315V180.71h5.315z" transform="matrix(-1.24 0 0 1.162 29.13 -5.462)" stroke="#000" stroke-width=".375" fill="#980000"/><path d="M-104.53 180.71l3.544-3.544h-3.544v3.544z" transform="matrix(-1.86 0 0 -1.743 -42.26 558.592)" stroke="#000" stroke-width=".25" fill="#980000"/><path d="M-104.53 180.71l3.544-3.544h-3.544v3.544z" transform="matrix(-1.86 0 0 1.743 -42.26 -110.435)" stroke="#000" stroke-width=".25" fill="#980000"/><path d="M-104.53 180.71l3.544-3.544h-3.544v3.544z" transform="matrix(1.86 0 0 1.743 293.83 -110.435)" stroke="#000" stroke-width=".25" fill="#980000"/><path d="M-100.98 177.17l-7.087 7.086v26.575l7.087 7.088h31.89l7.086-7.087v-26.574l-7.087-7.086h-31.89zm0-1.773l-8.86 8.858v26.575l8.86 8.858h31.89l8.857-8.858v-26.575l-8.86-8.858h-31.888z" transform="matrix(1.24 0 0 1.162 231.237 -5.462)" stroke="#000" stroke-width=".4" fill="#004e00"/><path d="M-76.18 154.13h7.086l1.77 1.772-1.77 1.77h-7.087v-3.542z" transform="matrix(1.24 0 0 1.046 253.204 61.016)" stroke="#000" stroke-width=".25" fill="#e69900"/><path d="M-76.18 154.13h7.086l1.77 1.772-1.77 1.77h-7.087v-3.542z" transform="matrix(1.24 0 0 1.046 253.205 64.735)" stroke="#000" stroke-width=".25" fill="#980000"/><path d="M-76.18 154.13h7.086l1.77 1.772-1.77 1.77h-7.087v-3.542z" transform="matrix(1.24 0 0 1.046 253.205 68.428)" stroke="#000" stroke-width=".25" fill="#e69900"/><path d="M-76.18 154.13h7.086l1.77 1.772-1.77 1.77h-7.087v-3.542z" transform="matrix(1.24 0 0 1.046 253.205 53.605)" stroke="#000" stroke-width=".25" fill="#e69900"/><path d="M-76.18 154.13h7.086l1.77 1.772-1.77 1.77h-7.087v-3.542z" transform="matrix(-1.24 0 0 1.046 -1.63 57.323)" stroke="#000" stroke-width=".25" fill="#980000"/><path d="M-76.18 154.13h7.086l1.77 1.772-1.77 1.77h-7.087v-3.542z" transform="matrix(-1.24 0 0 1.046 -1.63 61.017)" stroke="#000" stroke-width=".25" fill="#e69900"/><path d="M-76.18 154.13h7.086l1.77 1.772-1.77 1.77h-7.087v-3.542z" transform="matrix(-1.24 0 0 1.046 -1.63 64.735)" stroke="#000" stroke-width=".25" fill="#980000"/><path d="M-76.18 154.13h7.086l1.77 1.772-1.77 1.77h-7.087v-3.542z" transform="matrix(-1.24 0 0 1.046 -1.63 68.429)" stroke="#000" stroke-width=".25" fill="#e69900"/><path d="M-76.18 154.13h7.086l1.77 1.772-1.77 1.77h-7.087v-3.542z" transform="matrix(-1.24 0 0 1.046 -1.63 53.606)" stroke="#000" stroke-width=".25" fill="#e69900"/><path d="M-100.98 178.94v37.205h8.858v8.858h56.693v-8.858h8.86V178.94h-8.86v-8.858H-92.12v8.858h-8.858zm1.77 1.772v33.66h8.86v8.86h53.15v-8.86h8.858v-33.66H-37.2v-8.86h-53.15v8.86h-8.86z" transform="matrix(1.24 0 0 1.162 204.874 -5.463)" stroke="#000" stroke-width=".25" fill="#970000"/><g><path d="M-28.347 69.094l-5.315-7.087v-5.315l-5.315-5.314h-10.63l-8.858-5.315H-86.81l-8.86 5.315h-10.63l-5.315 5.315v5.315l-5.315 7.086v14.173l5.315 7.087v5.315l5.315 5.314h10.63l8.86 5.315h28.345l8.858-5.316h10.63l5.315-5.315v-5.316l5.315-7.087V69.093z" transform="matrix(1.24 0 0 1.118 215.855 -35.546)" stroke="#000" stroke-width=".25" fill="#980000"/><path d="M73.1 49.706v5.943l6.59 7.92v5.943l6.59 5.942h13.182l10.985 5.942h15.38l-.002-31.69H73.1z" fill="#e69900"/><path d="M107.103 63.39l-8.02 5.09h-4.79l1.596 1.695-3.194 3.393 1.596 1.696 4.79-1.696 1.598 1.696.737-4.533 8.844-5.364-3.157-1.977z" fill="#980000"/><path d="M98.32 59.43l-8.02 5.09h-4.79l1.596 1.695-3.193 3.393 1.596 1.696 4.79-1.696 1.597 1.696.737-4.533 8.844-5.364-3.158-1.977zM93.923 51.513l-8.02 5.09h-4.79l1.596 1.696-3.194 3.392 1.596 1.696 4.79-1.696 1.598 1.696.737-4.533 8.844-5.365-3.157-1.977z" fill="#980000"/><path d="M178.476 49.506v-5.943l-6.59-7.922V29.7l-6.59-5.943h-13.182l-10.985-5.942h-15.38v31.69h52.726z" fill="#e69900"/><path d="M125.796 81.265h-4.068l-4.72-3.96h-7.485l-4.068-1.982 2.034-1.98 4.067 1.98h4.07l4.067-5.942 6.102 1.982v3.96h-6.102l6.102 5.943z" fill="#980000"/><path d="M73.1 49.506v-5.943l6.59-7.922V29.7l6.59-5.943h13.182l10.985-5.942h15.38l-.002 31.69H73.1z" fill="#fff"/><path d="M125.796 17.943h-4.068l-4.72 3.96h-7.485l-4.068 1.982 2.034 1.98 4.067-1.98h4.07l4.067 5.942 6.102-1.98v-3.962h-6.102l6.102-5.942z" fill="#980000"/><path d="M125.785 17.943h4.068l4.72 3.96h7.485l4.068 1.982-2.034 1.98-4.068-1.98h-4.07l-4.067 5.942-6.102-1.98v-3.962h6.102l-6.102-5.942z" fill="#980000"/><path d="M178.476 49.706v5.943l-6.59 7.92v5.943l-6.59 5.942h-13.182l-10.985 5.942h-15.38v-31.69h52.726z" fill="#fff"/><path d="M125.785 81.265h4.068l4.72-3.96h7.485l4.068-1.982-2.034-1.98-4.068 1.98h-4.07l-4.067-5.942-6.102 1.982v3.96h6.102l-6.102 5.943zM98.32 39.775l-8.02-5.09h-4.79l1.596-1.696-3.193-3.394L85.51 27.9l4.79 1.696 1.597-1.696.737 4.533 8.844 5.365-3.158 1.977zM144.472 35.82l8.02-5.09h4.79l-1.596-1.697 3.193-3.393-1.597-1.696-4.79 1.696-1.598-1.696-.737 4.533-8.844 5.365 3.158 1.977z" fill="#980000"/><path d="M107.103 35.82l-8.02-5.09h-4.79l1.596-1.697-3.194-3.393 1.596-1.696 4.79 1.696 1.598-1.696.737 4.533 8.844 5.365-3.157 1.977zM93.923 47.7l-8.02-5.09h-4.79l1.596-1.697-3.194-3.393 1.596-1.696 4.79 1.696 1.598-1.696.737 4.533 8.844 5.365-3.157 1.977z" fill="#980000"/><path d="M77.038 49.668h2.035l2.034 1.98 2.035-1.98h42.72v27.725h-2.034l2.034 1.98v1.98l-6.102-5.94v-1.98h2.034v1.98h2.034v-1.98l-16.518-8.747H93.395v-8.583l-6.185-4.455h-4.068l-2.035 1.98 2.035 1.98h-2.035l-4.07-5.94z" fill="#fff"/><path d="M77.038 49.545h2.035l2.034-1.98 2.035 1.98h42.72V21.82h-2.034l2.034-1.98v-1.98l-6.102 5.94v1.98h2.034V23.8h2.034v1.98l-16.518 8.747H93.395v8.583l-6.185 4.455h-4.068l-2.035-1.98 2.035-1.98h-2.035l-4.07 5.94z" fill="#e69900"/><path d="M86.273 49.703h39.544v23.77l-17.575-9.904h-13.18v-7.925l-8.79-5.942z" fill="#004e00"/><path d="M153.255 39.775l8.02-5.09h4.79l-1.596-1.696 3.192-3.394-1.596-1.696-4.79 1.696-1.598-1.696-.737 4.533-8.843 5.365 3.158 1.977zM157.652 47.7l8.02-5.09h4.79l-1.596-1.697 3.193-3.393-1.597-1.696-4.79 1.696-1.598-1.696-.737 4.533-8.844 5.365 3.158 1.977z" fill="#980000"/><path d="M174.538 49.545h-2.035l-2.034-1.98-2.036 1.98h-42.72V21.82h2.034l-2.034-1.98v-1.98l6.102 5.94v1.98h-2.034V23.8h-2.034v1.98l16.518 8.747h13.915v8.583l6.186 4.455h4.068l2.035-1.98-2.036-1.98h2.035l4.068 5.94z" fill="#fff"/><path d="M165.302 49.51h-39.544V25.74l17.575 9.904h13.18v7.924l8.79 5.942z" fill="#004e00"/><path d="M144.472 63.39l8.02 5.09h4.79l-1.596 1.695 3.193 3.393-1.597 1.696-4.79-1.696-1.598 1.696-.737-4.533-8.844-5.364 3.158-1.977zM153.255 59.43l8.02 5.09h4.79l-1.596 1.695 3.192 3.393-1.596 1.696-4.79-1.696-1.598 1.696-.737-4.533-8.843-5.364 3.158-1.977zM157.652 51.513l8.02 5.09h4.79l-1.596 1.696 3.193 3.392-1.597 1.696-4.79-1.696-1.598 1.696-.737-4.533-8.844-5.365 3.158-1.977z" fill="#980000"/><path d="M174.538 49.668h-2.035l-2.034 1.98-2.036-1.98h-42.72v27.725h2.034l-2.034 1.98v1.98l6.102-5.94v-1.98h-2.034v1.98h-2.034v-1.98l16.518-8.747h13.915v-8.583l6.186-4.455h4.068l2.035 1.98-2.036 1.98h2.035l4.068-5.94z" fill="#e69900"/><path d="M165.302 49.703h-39.544v23.77l17.575-9.904h13.18v-7.925l8.79-5.942zM86.273 49.51h39.544V25.74l-17.575 9.904h-13.18v7.924l-8.79 5.942zM130.133 49.56l11.033-5.94h6.59l-2.196-1.98 4.393-3.962-2.196-1.98-6.59 1.98-2.198-1.98-1.016 5.29-12.166 6.265 4.345 2.308z" fill="#980000"/><path d="M121.442 49.64l-11.033 5.943h-6.592l2.197 1.98-4.393 3.96 2.196 1.982 6.59-1.98 2.198 1.98 1.015-5.292 12.167-6.264-4.345-2.31z" fill="#980000"/><path d="M121.442 49.56l-11.033-5.94h-6.592l2.197-1.98-4.393-3.962 2.196-1.98 6.59 1.98 2.198-1.98 1.015 5.29 12.167 6.265-4.345 2.308zM130.133 49.64l11.033 5.943h6.59l-2.196 1.98 4.393 3.96-2.196 1.982-6.59-1.98-2.198 1.98-1.016-5.292-12.166-6.264 4.345-2.31z" fill="#004e00"/><path d="M83.078 53.54l2.034 1.982-2.034 1.98h-2.034l-6.102-7.922h2.034l4.068 5.942h2.034l-2.034-1.98 2.034-1.98h4.068v1.98h-4.068z" fill="#980000"/><path d="M83.078 45.665l2.034-1.98-2.034-1.982h-2.034l-6.102 7.923h2.034l4.068-5.942h2.034l-2.034 1.98 2.034 1.98h4.068v-1.98h-4.068zM168.5 53.54l-2.033 1.982 2.034 1.98h2.035l6.102-7.922h-2.034l-4.068 5.942H168.5l2.035-1.98-2.034-1.98h-4.067v1.98h4.068z" fill="#980000"/><path d="M168.5 45.665l-2.033-1.98 2.034-1.982h2.035l6.102 7.923h-2.034l-4.068-5.942H168.5l2.035 1.98-2.034 1.98h-4.067v-1.98h4.068zM123.754 41.684h4.068v15.84h-4.068z" fill="#980000"/><path fill="#980000" d="M117.652 45.644h16.272v7.92h-16.272z"/></g><g><path d="M333.07 170.08l-10.63 5.315v8.858l10.63 5.315h10.63l10.63-5.315v-8.858l-10.63-5.315h-10.63z" transform="matrix(3.444 0 0 3.727 -1039.78 -283.145)" stroke="#000" stroke-width=".066" fill="#004e00"/><path d="M84.428 383.944h2.213v-4.06h4.43v4.06h2.215v-9.474H91.07v4.06h-4.43v-4.06H84.43v9.474zM140.528 415.524h2.213v-4.06h4.43v4.06h2.215v-9.474h-2.214v4.06h-4.43v-4.06h-2.213v9.474zM105.098 368.154h2.213v-4.06h4.43v4.06h2.215v-9.474h-2.214v4.06h-4.43v-4.06H105.1v9.474zM137.577 368.154h2.214v-4.06h4.43v4.06h2.215v-9.474h-2.214v4.06h-4.43v-4.06h-2.213v9.474zM158.238 383.944h2.213v-4.06h4.43v4.06h2.215v-9.474h-2.214v4.06h-4.43v-4.06h-2.212v9.474zM158.238 399.734h2.213v-4.06h4.43v4.06h2.215v-9.474h-2.214v4.06h-4.43v-4.06h-2.212v9.474z" fill="#c00"/><path d="M125.79 421.95v-34.727h53.15v15.786l-35.434 18.94H125.79zM125.79 352.26v34.727H72.64V371.2l35.433-18.94h17.717z" fill="#e69900"/><path d="M125.79 352.26v34.727h53.15V371.2l-35.434-18.94H125.79zM125.79 421.95v-34.726H72.64v15.785l35.433 18.94h17.717z" fill="#fff"/><path d="M-177.16 368.5h21.26l-21.26-10.63v10.63zm24.803-1.772v17.717h-33.662v-14.173h-7.085l-8.858-5.315v-12.402l5.314-5.315h-7.085v17.717h-1.772v-19.49h17.717l35.433 21.26z" transform="matrix(1 0 0 .891 331.299 44.446)" stroke="#000" stroke-width=".125" fill="#e69900"/><path d="M107.942 375.992v22.103h5.313l12.402 6.317 12.402-6.317h5.312v-22.103h-5.313l-12.403-6.317-12.402 6.317h-5.313z" fill="#980000"/><path d="M-177.16 368.5h21.26l-21.26-10.63v10.63zm24.803-1.772v17.717h-33.662v-14.173h-7.085l-8.858-5.315v-12.402l5.314-5.315h-7.085v17.717h-1.772v-19.49h17.717l35.433 21.26z" transform="matrix(-1 0 0 -.891 -79.72 729.765)" stroke="#000" stroke-width=".125" fill="#e69900"/><path d="M-177.16 368.5h21.26l-21.26-10.63v10.63zm24.803-1.772v17.717h-33.662v-14.173h-7.085l-8.858-5.315v-12.402l5.314-5.315h-7.085v17.717h-1.772v-19.49h17.717l35.433 21.26z" transform="matrix(-1 0 0 .891 -79.72 44.446)" stroke="#000" stroke-width=".125" fill="#fff"/><path d="M-177.16 368.5h21.26l-21.26-10.63v10.63zm24.803-1.772v17.717h-33.662v-14.173h-7.085l-8.858-5.315v-12.402l5.314-5.315h-7.085v17.717h-1.772v-19.49h17.717l35.433 21.26z" transform="matrix(1 0 0 -.891 331.3 729.765)" stroke="#000" stroke-width=".125" fill="#fff"/><path d="M83.248 399.664h2.213v-4.735h4.43v4.734h2.215v-11.05H89.89v4.737h-4.43v-4.735H83.25v11.05zM104.498 415.454h2.213v-4.735h4.43v4.734h2.215v-11.05h-2.214v4.737h-4.43v-4.735H104.5v11.05zM83.248 374.556h2.213v4.735h4.43v-4.734h2.215v11.05H89.89v-4.737h-4.43v4.735H83.25v-11.05zM104.498 358.766h2.213v4.735h4.43v-4.734h2.215v11.05h-2.214v-4.737h-4.43v4.735H104.5v-11.05zM138.167 415.454h2.214v-4.735h4.43v4.734h2.215v-11.05h-2.214v4.737h-4.43v-4.735h-2.213v11.05zM159.428 385.444h2.213v-4.735h4.43v4.734h2.215v-11.05h-2.214v4.737h-4.43v-4.735h-2.212v11.05z" fill="#980000"/><path d="M138.167 415.454h2.214v-4.735h4.43v4.734h2.215v-11.05h-2.214v4.737h-4.43v-4.735h-2.213v11.05z" fill="#980000"/><path d="M138.167 415.454h2.214v-4.735h4.43v4.734h2.215v-11.05h-2.214v4.737h-4.43v-4.735h-2.213v11.05zM159.428 399.654h2.213v-4.735h4.43v4.734h2.215v-11.05h-2.214v4.737h-4.43v-4.735h-2.212v11.05zM138.167 369.654h2.214v-4.735h4.43v4.734h2.215v-11.05h-2.214v4.737h-4.43v-4.735h-2.213v11.05z" fill="#980000"/><path d="M127.563 386.945l7.087-5.755h3.543v2.877h-3.543v1.438h5.314v-5.753h-5.314v-4.316h-7.087v4.315h1.772v-2.877h3.543v2.878l-7.086 5.755-7.087-5.753v-2.877h3.543v2.877h1.772v-4.316h-7.087v4.316h-5.315v5.755h5.315v-1.44h-3.544v-2.877h3.543l7.087 5.754-7.087 5.754h-3.543v-2.877h3.543v-1.438h-5.314v5.755h5.313v4.315l7.087.002v-4.317h-1.77v2.878h-3.544v-2.878l7.085-5.754 7.09 5.756v2.876h-3.544v-2.877h-1.772v4.314h7.086v-4.315l5.315-.003v-5.754h-5.315v1.44h3.544v2.877h-3.544l-7.087-5.755z" fill="#004e00"/></g><g transform="matrix(1 0 0 .929 198.43 17.59)"><path d="M-122.352 134.285l3.43-3.73h20.573l15.43-16.784h20.575l15.43 16.785h20.575l3.43 3.73-3.43 3.73h-20.574l-15.43 16.783H-82.92l-15.43-16.784h-20.573l-3.43-3.73z" fill="#980000"/><path d="M372.05 391.54l1.903-1.95h22.834l17.126-19.488h19.03l17.125 19.49h22.835l1.903 1.948-1.903 1.948h-22.835l-15.223 17.54H412.01l-15.223-17.54h-22.834l-1.903-1.948z" transform="matrix(.931 0 0 .909 -466.86 -221.29)" stroke="#000" stroke-width=".272" fill="#980000"/><path d="M-64.07 136.148l6.857 7.458-3.428 3.73-1.716-1.865h-1.714v1.866l1.714 1.865h3.43l3.428-3.73v-3.73l-6.857-7.457 6.857-7.46v-3.73l-3.43-3.73h-3.427l-1.715 1.865v1.865h1.715l1.714-1.865 3.427 3.73-6.857 7.46-6.86-7.46 6.86-7.46v-1.863h-1.715l-6.857 7.458-6.86-7.46h-1.714v1.865l6.86 7.46-6.86 7.46-6.858-7.46 3.43-3.73 1.714 1.865h1.714v-1.865l-1.714-1.864h-3.43l-3.43 3.73v3.73l6.86 7.46-6.86 7.458v3.73l3.43 3.73h3.43l1.714-1.865v-1.865h-1.714l-1.715 1.865-3.43-3.73 6.86-7.46 6.857 7.46-6.858 7.46v1.864h1.714l6.86-7.458 6.857 7.46h1.714v-1.866l-6.86-7.46 6.86-7.458zm-8.573-9.325l-6.86 7.46 6.86 7.46 6.858-7.46-6.858-7.46zM-82.917 154.79v14.918l1.715-1.865 1.715 1.865 1.714-1.865 1.714 1.865 1.716-1.865 1.714 1.865 1.715-1.865 1.715 1.865 1.714-1.865 1.715 1.865 1.712-1.865 1.715 1.865V154.79h-20.574zM-62.353 113.79V98.872l-1.715 1.865-1.715-1.865-1.714 1.865-1.714-1.865-1.716 1.865-1.714-1.865-1.715 1.865-1.715-1.865-1.714 1.865-1.715-1.865-1.712 1.865-1.715-1.865v14.918h20.574zM-33.205 130.58v-14.918l-1.715 1.865-1.713-1.865-1.715 1.865-1.715-1.865-1.714 1.865-1.715-1.865-1.714 1.865-1.714-1.865v14.918h13.715zM-98.355 130.58v-14.918l-1.715 1.865-1.713-1.865-1.715 1.865-1.715-1.865-1.714 1.865-1.715-1.865-1.714 1.865-1.714-1.865v14.918h13.715zM-33.205 138.01v14.918l-1.715-1.865-1.713 1.865-1.715-1.865-1.715 1.865-1.714-1.865-1.715 1.865-1.714-1.865-1.714 1.865V138.01h13.715zM-98.355 138.01v14.918l-1.715-1.865-1.713 1.865-1.715-1.865-1.715 1.865-1.714-1.865-1.715 1.865-1.714-1.865-1.714 1.865V138.01h13.715z" fill="#e69900"/><path d="M-62.347 154.79v9.324l1.714-1.866 1.715 1.866 1.714-1.866 1.714 1.866 1.715-1.866 1.714 1.866 1.714-1.866 1.714 1.866 1.715-1.866v-24.242l-15.43 16.784zM-82.933 154.79v9.325l-1.715-1.866-1.715 1.865-1.714-1.866-1.714 1.865-1.716-1.866-1.714 1.865-1.715-1.866-1.714 1.865-1.714-1.866v-24.244l15.43 16.784zM-82.933 113.79v-9.324l-1.714 1.866-1.715-1.866-1.714 1.866-1.714-1.866-1.715 1.866-1.714-1.866-1.714 1.866-1.714-1.866-1.715 1.866v24.242l15.43-16.784zM-62.347 113.79v-9.324l1.714 1.866 1.715-1.866 1.714 1.866 1.714-1.866 1.715 1.866 1.714-1.866 1.714 1.866 1.714-1.866 1.715 1.866v24.242l-15.43-16.784zM-112.078 149.206l-1.715-1.865-1.713 1.866-1.714-1.865-1.715 1.866-1.715-1.865-1.715 1.866-1.713-1.865-1.715 1.866v-29.838l1.714 1.866 1.715-1.866 1.715 1.866 1.714-1.866 1.715 1.866 1.713-1.866 1.714 1.866 1.715-1.866v11.19h-6.857l-3.43 3.73 3.43 3.73h6.857v11.188zM-33.202 149.206l1.715-1.865 1.713 1.866 1.714-1.865 1.715 1.866 1.715-1.865 1.715 1.866 1.713-1.865 1.715 1.866v-29.838l-1.714 1.866-1.715-1.866-1.715 1.866-1.714-1.866-1.715 1.866-1.713-1.866-1.714 1.866-1.715-1.866v11.19h6.857l3.43 3.73-3.43 3.73h-6.857v11.188z" fill="#004e00"/><path d="M-91.36 155.978s-1.428 1.474-1.428 2.21c-.028.687 1.524 2.227 2.143 2.21.81.017 2.143-1.473 2.143-2.21 0-.736-1.43-2.21-1.43-2.21v-2.948s3.104 5.068 3.104 2.857c0-1.586-3.103-4.33-3.103-4.33h-1.43s-3.103 3.213-3.103 4.33c0 2.21 3.103-2.857 3.103-2.857v2.948z" fill="#fff"/><path d="M-73.497 161.67s-1.715 2.062-1.715 3.094c-.034.962 1.83 3.118 2.572 3.095.97.022 2.572-2.064 2.572-3.096s-1.715-3.095-1.715-3.095v-4.128s3.037 6.75 3.037 3.656c0-2-3.037-5.72-3.037-5.72h-1.714s-3.506 4.656-3.037 5.72c0 3.095 3.037-3.656 3.037-3.656v4.127z" fill="#980000"/><ellipse fill="#004e00" transform="matrix(.968 0 0 1.053 -482.4 -277.85)" cx="403.94" rx="3.543" cy="391.54" ry="1.772"/><ellipse fill="#004e00" transform="matrix(.968 0 0 1.053 -463.54 -277.85)" cx="403.94" rx="3.543" cy="391.54" ry="1.772"/><ellipse fill="#004e00" transform="matrix(.968 0 0 1.053 -444.69 -277.85)" cx="403.94" rx="3.543" cy="391.54" ry="1.772"/><path d="M-91.72 112.76s-1.428-1.474-1.428-2.21c-.028-.688 1.524-2.228 2.143-2.21.81-.018 2.143 1.472 2.143 2.21 0 .736-1.43 2.21-1.43 2.21v2.948s3.104-5.068 3.104-2.857c0 1.587-3.103 4.332-3.103 4.332h-1.43s-3.103-3.214-3.103-4.33c0-2.212 3.103 2.856 3.103 2.856v-2.948z" fill="#fff"/><path d="M-73.857 107.062s-1.715-2.063-1.715-3.095c-.034-.962 1.83-3.118 2.572-3.095.97-.023 2.572 2.063 2.572 3.095s-1.715 3.095-1.715 3.095v4.127s3.037-6.752 3.037-3.657c0 2-3.037 5.72-3.037 5.72h-1.714s-3.506-4.656-3.037-5.72c0-3.095 3.037 3.656 3.037 3.656v-4.128z" fill="#980000"/><path d="M-54.86 155.978s-1.428 1.474-1.428 2.21c-.028.687 1.524 2.227 2.143 2.21.81.017 2.143-1.473 2.143-2.21 0-.736-1.43-2.21-1.43-2.21v-2.948s3.104 5.068 3.104 2.857c0-1.586-3.103-4.33-3.103-4.33h-1.43s-3.103 3.213-3.103 4.33c0 2.21 3.103-2.857 3.103-2.857v2.948zM-55.22 112.76s-1.428-1.474-1.428-2.21c-.028-.688 1.524-2.228 2.143-2.21.81-.018 2.143 1.472 2.143 2.21 0 .736-1.43 2.21-1.43 2.21v2.948s3.104-5.068 3.104-2.857c0 1.587-3.103 4.332-3.103 4.332h-1.43s-3.103-3.214-3.103-4.33c0-2.212 3.103 2.856 3.103 2.856v-2.948z" fill="#fff"/><path d="M-106.273 145.593s-1.9 1.383-1.9 2.074c-.037.644 2.026 2.09 2.85 2.074 1.076.016 2.85-1.382 2.85-2.073 0-.69-1.9-2.074-1.9-2.074v-2.765s3.364 4.523 3.364 2.45c0-1.342-3.364-3.833-3.364-3.833h-1.9s-3.882 3.12-3.363 3.832c0 2.074 3.364-2.45 3.364-2.45v2.766zM-106.673 124.47s-1.9-1.382-1.9-2.073c-.037-.644 2.026-2.09 2.85-2.074 1.076-.015 2.85 1.383 2.85 2.074 0 .69-1.9 2.074-1.9 2.074v2.766s3.364-4.524 3.364-2.45c0 1.342-3.364 3.833-3.364 3.833h-1.9s-3.882-3.12-3.363-3.833c0-2.074 3.364 2.45 3.364 2.45v-2.766zM-40.423 145.15s-1.9 1.384-1.9 2.075c-.037.644 2.026 2.09 2.85 2.074 1.076.014 2.85-1.384 2.85-2.075 0-.69-1.9-2.074-1.9-2.074v-2.764s3.364 4.523 3.364 2.45c0-1.342-3.364-3.833-3.364-3.833h-1.9s-3.882 3.12-3.363 3.832c0 2.074 3.364-2.45 3.364-2.45v2.766zM-40.823 124.03s-1.9-1.382-1.9-2.073c-.037-.644 2.026-2.09 2.85-2.074 1.076-.015 2.85 1.383 2.85 2.074 0 .69-1.9 2.074-1.9 2.074v2.766s3.364-4.524 3.364-2.45c0 1.342-3.364 3.833-3.364 3.833h-1.9s-3.882-3.12-3.363-3.833c0-2.074 3.364 2.45 3.364 2.45v-2.766z" fill="#980000"/><path d="M-120.285 145.363c-.615-1.277-.453-1.86-.453-2.597-.028-.687 1.716-2.025 2.336-2.01.81-.015 2.143 1.475 2.143 2.212 0 .736.035 1.373-.297 2.643l-.893-2.153c-1.084 3.056-1.143 3.127-1.787-.074l-1.048 1.98zM-120.225 123.93c-.615 1.278-.453 1.862-.453 2.598-.028.687 1.716 2.025 2.336 2.01.81.015 2.143-1.475 2.143-2.212 0-.736.035-1.373-.297-2.643l-.893 2.154c-1.084-3.056-1.143-3.127-1.787.074l-1.048-1.98zM-27.805 145.093c-.615-1.277-.453-1.86-.453-2.597-.028-.687 1.716-2.025 2.336-2.01.81-.015 2.143 1.475 2.143 2.212 0 .736.035 1.373-.297 2.643l-.893-2.153c-1.084 3.056-1.143 3.127-1.787-.074l-1.048 1.98zM-27.755 123.655c-.615 1.277-.453 1.86-.453 2.597-.028.687 1.716 2.025 2.336 2.01.81.015 2.143-1.475 2.143-2.212 0-.736.035-1.373-.297-2.643l-.893 2.154c-1.084-3.055-1.143-3.126-1.787.075l-1.048-1.98z" fill="#fff"/><path d="M-83.27 170.073v-5.315h-15.944v-10.63h-14.173v-3.543h-12.402v-31.89h12.403v-3.543h14.173v-10.63h15.944V99.21h21.26v5.315h15.945v10.63h14.173v3.542h12.402v31.89h-12.402v3.543h-14.173v10.63H-62.01v5.315h-21.26zm-1.772 1.772v-5.315h-15.944V155.9h-14.173v-3.543h-12.4v-35.433h12.4v-3.544h14.174v-10.63h15.945v-5.314h24.802v5.315h15.945v10.63h14.173v3.544h12.402v35.433H-30.12v3.543h-14.173v10.63h-15.945v5.315h-24.804z" stroke="#000" stroke-width=".125" fill="#980000"/></g></g></svg>