<svg xmlns="http://www.w3.org/2000/svg" height="512" width="512" version="1"><defs><clipPath id="a"><path fill-opacity=".67" d="M0 0h496.06v496.06H0z"/></clipPath></defs><g fill-rule="evenodd" clip-path="url(#a)"><path fill="#004e00" d="M0 0h744.09v496.06H0z"/><g stroke-width="1pt"><path d="M252.47 166.54h13.68" fill="#ffef00"/><path d="M255.117 133.217c27.032 13.035 59.22-.06 70.864-18.056 11.94-16.793 13.407-44.992-7.235-70.865 32.04 26.572 39.123 56.693 23.183 81.497-21.262 28.344-68.43 27.524-86.81 7.425z" fill="#fff"/><path fill="#feffff" d="M296.92 76.18l1.535-5.37-4.36-3.344 5.436-.162L301.277 62l1.83 5.272 5.44.07-4.306 3.418 1.614 5.347-4.49-3.16M270.07 109.842l1.535-5.37-4.36-3.345 5.436-.162 1.746-5.304 1.83 5.273 5.44.07-4.306 3.418 1.614 5.348-4.49-3.16M271.84 83.275l1.535-5.37-4.36-3.345 5.436-.162 1.746-5.304 1.83 5.272 5.44.07-4.306 3.418 1.614 5.347-4.49-3.16M271.84 56.693l1.535-5.37-4.36-3.346 5.436-.16 1.746-5.305 1.83 5.27 5.44.07-4.306 3.42 1.614 5.347-4.49-3.162M242 90.36l1.535-5.37-4.36-3.344 5.436-.162 1.746-5.304 1.83 5.272 5.44.07-4.306 3.418 1.614 5.347-4.49-3.16"/></g><path fill="#980000" d="M46.063 0h159.45v496.06H46.063z"/><g stroke-width="1pt" fill="#e69900"><path d="M46.064 129.33v-3.544l6.59-8.858-1.328-1.772 3.986-5.315-1.328-1.77-2.658 3.543-1.33-1.772 9.303-12.4 1.327 1.772-1.328 1.77 2.738 3.58L68.6 95.67l-6.673-8.622-2.628 3.305 1.327 1.772-1.328 1.772-9.303-12.402 1.33-1.772 2.657 3.544 1.328-1.772-3.986-5.315 1.33-1.772-6.592-8.858v-3.543l9.248 12.4-1.328 1.773 3.986 5.315-2.658 3.543 2.658 3.543 3.986-5.313L71.31 95.88l-9.354 12.19-3.986-5.315-2.658 3.543 2.658 3.543-3.986 5.316 1.328 1.772-9.248 12.402z"/><path d="M46.063 85.04l1.33 3.543v5.315h3.985l2.657 1.772-2.657 1.77h-3.986v5.316l-1.33 3.544V85.04z"/></g><g stroke-width="1pt" fill="#e69900"><path d="M46.064 214.368v-3.543l6.59-8.858-1.328-1.772 3.986-5.315-1.328-1.77-2.658 3.542-1.33-1.772 9.303-12.4 1.327 1.77-1.328 1.772 2.738 3.58 6.562-8.895-6.673-8.62-2.628 3.305 1.327 1.772-1.328 1.772-9.303-12.402 1.33-1.772 2.657 3.544 1.328-1.772-3.986-5.315 1.33-1.773-6.592-8.858v-3.544l9.248 12.402-1.328 1.77 3.986 5.316-2.658 3.543 2.658 3.543 3.986-5.314 9.354 12.612-9.354 12.19-3.986-5.314-2.658 3.543 2.658 3.543-3.986 5.315 1.328 1.772-9.248 12.4z"/><path d="M46.063 170.08l1.33 3.542v5.315h3.985l2.657 1.772-2.657 1.77h-3.986v5.315l-1.33 3.544v-21.26z"/></g><g stroke-width="1pt" fill="#e69900"><path d="M46.065 299.409v-3.545l6.59-8.858-1.328-1.772 3.986-5.315-1.328-1.77-2.658 3.542-1.33-1.772 9.303-12.4 1.328 1.77-1.328 1.772 2.74 3.58 6.56-8.895-6.672-8.62-2.628 3.305 1.328 1.772-1.328 1.772-9.302-12.402 1.33-1.772 2.657 3.544 1.328-1.772-3.986-5.315 1.33-1.772-6.592-8.858v-3.544l9.248 12.402-1.328 1.77 3.986 5.316-2.657 3.543 2.658 3.544 3.987-5.314 9.354 12.613-9.353 12.19-3.986-5.316-2.657 3.543 2.658 3.543-3.985 5.315 1.328 1.772-9.248 12.402z"/><path d="M46.064 255.12l1.33 3.542v5.315h3.985l2.656 1.772-2.657 1.77h-3.987v5.315l-1.33 3.544v-21.26z"/></g><g stroke-width="1pt" fill="#e69900"><path d="M46.065 379.13v-3.543l6.59-8.86-1.328-1.77 3.986-5.315-1.328-1.772-2.658 3.543-1.33-1.772 9.303-12.4 1.328 1.772-1.328 1.772 2.74 3.58 6.56-8.895-6.672-8.622-2.628 3.305 1.328 1.772-1.328 1.772-9.302-12.402 1.33-1.772 2.657 3.544 1.328-1.772-3.986-5.315 1.33-1.772-6.592-8.858v-3.543l9.248 12.402-1.328 1.77 3.986 5.315-2.657 3.543 2.658 3.543 3.987-5.313 9.354 12.613-9.353 12.19-3.986-5.315-2.657 3.543 2.658 3.543-3.985 5.317 1.328 1.77-9.248 12.403z"/><path d="M46.064 334.84l1.33 3.543v5.315h3.985l2.656 1.772-2.657 1.77h-3.987v5.316l-1.33 3.544v-21.26z"/></g><g stroke-width="1pt" fill="#e69900"><path d="M205.51 129.33v-3.544l-6.592-8.858 1.33-1.772-3.987-5.315 1.33-1.77 2.657 3.543 1.33-1.772-9.303-12.4-1.328 1.772 1.328 1.77-2.74 3.58-6.56-8.893 6.672-8.622 2.628 3.305-1.328 1.772 1.328 1.772 9.302-12.402-1.33-1.772-2.657 3.544-1.33-1.772 3.987-5.315-1.33-1.772 6.592-8.858v-3.543l-9.25 12.4 1.33 1.773-3.987 5.315 2.658 3.543-2.657 3.543-3.986-5.313-9.354 12.613 9.354 12.19 3.986-5.315 2.658 3.543-2.657 3.543 3.986 5.316-1.33 1.772 9.25 12.402z"/><path d="M205.51 85.04l-1.33 3.543v5.315h-3.985l-2.657 1.772 2.657 1.77h3.986v5.316l1.33 3.544V85.04z"/></g><g stroke-width="1pt" fill="#e69900"><path d="M205.95 214.37v-3.544l-6.592-8.858 1.33-1.772-3.987-5.315 1.33-1.77 2.657 3.543 1.33-1.772-9.303-12.4-1.328 1.772 1.328 1.77-2.74 3.58-6.56-8.894 6.672-8.62 2.628 3.305-1.328 1.772 1.328 1.772 9.302-12.402-1.33-1.772-2.657 3.544-1.33-1.772 3.987-5.315-1.33-1.772 6.592-8.858v-3.543l-9.25 12.402 1.33 1.77-3.987 5.315 2.658 3.543-2.657 3.543-3.986-5.313-9.354 12.613 9.354 12.19 3.986-5.315 2.658 3.544-2.657 3.542 3.986 5.315-1.33 1.77 9.25 12.403z"/><path d="M205.95 170.08l-1.33 3.543v5.315h-3.985l-2.657 1.772 2.657 1.77h3.986v5.316l1.33 3.544v-21.26z"/></g><g stroke-width="1pt" fill="#e69900"><path d="M205.51 299.409v-3.545l-6.592-8.858 1.33-1.772-3.987-5.315 1.33-1.77 2.657 3.542 1.33-1.772-9.303-12.4-1.328 1.77 1.328 1.772-2.74 3.58-6.56-8.895 6.672-8.62 2.628 3.305-1.328 1.772 1.328 1.772 9.302-12.402-1.33-1.772-2.657 3.544-1.33-1.772 3.987-5.315-1.33-1.772 6.592-8.858v-3.544l-9.25 12.402 1.33 1.77-3.987 5.316 2.658 3.543-2.657 3.544-3.986-5.314-9.354 12.613 9.354 12.19 3.986-5.316 2.658 3.543-2.657 3.543 3.986 5.315-1.33 1.772 9.25 12.402z"/><path d="M205.51 255.12l-1.33 3.542v5.315h-3.985l-2.657 1.772 2.657 1.77h3.986v5.315l1.33 3.544v-21.26z"/></g><g stroke-width="1pt" fill="#e69900"><path d="M205.51 379.13v-3.543l-6.592-8.86 1.33-1.77-3.987-5.315 1.33-1.772 2.657 3.543 1.33-1.772-9.303-12.4-1.328 1.772 1.328 1.772-2.74 3.58-6.56-8.895 6.672-8.622 2.628 3.305-1.328 1.772 1.328 1.772 9.302-12.402-1.33-1.772-2.657 3.544-1.33-1.772 3.987-5.315-1.33-1.772 6.592-8.858v-3.543l-9.25 12.402 1.33 1.77-3.987 5.315 2.658 3.543-2.657 3.543-3.986-5.313-9.354 12.613 9.354 12.19 3.986-5.315 2.658 3.543-2.657 3.543 3.986 5.317-1.33 1.77 9.25 12.403z"/><path d="M205.51 334.84l-1.33 3.543v5.315h-3.985l-2.657 1.772 2.657 1.77h3.986v5.316l1.33 3.544v-21.26z"/></g><g stroke-width="1pt" fill="#e69900"><path d="M46.067 33.66v-3.543l6.59-8.858-1.328-1.773 3.985-5.315-1.328-1.77-2.658 3.542L50 14.172l9.302-12.4 1.328 1.77-1.328 1.772 2.74 3.58L68.6 0h2.71L61.96 12.4l-3.987-5.314-2.658 3.543 2.658 3.542-3.986 5.315 1.328 1.772-9.248 12.4zM46.067 0h7.972L51.38 1.772h-3.986v5.315l-1.33 3.543V0z"/></g><g stroke-width="1pt" fill="#e69900"><path d="M205.506 33.66v-3.543l-6.59-8.858 1.328-1.773-3.986-5.315 1.328-1.77 2.658 3.542 1.328-1.772-9.3-12.4-1.33 1.77 1.33 1.772-2.74 3.58L182.97 0h-2.71l9.354 12.4 3.986-5.314 2.658 3.543-2.658 3.542 3.986 5.315-1.328 1.772 9.248 12.4zM205.506 0h-7.972l2.657 1.772h3.987v5.315l1.33 3.543V0z"/></g><path d="M112.51 488.996s5.72-10.044 20.136-13.087c14.416-3.045 16.933 6.695 25.17 6.695 8.238 0 21.28-6.696 21.28-6.696s-13.042 12.782-23.11 12.477c-10.068-.303-13.5-6.695-23.797-5.782-10.298.913-19.68 6.696-19.68 6.39z" fill="#e69900"/><path d="M140.34 488.996s-5.72-10.044-20.136-13.087c-14.416-3.045-16.933 6.695-25.17 6.695-8.238 0-21.28-6.696-21.28-6.696s13.042 12.782 23.11 12.477c10.068-.303 13.5-6.695 23.797-5.782 10.298.913 19.68 6.696 19.68 6.39z" fill="#e69900"/><g stroke-width="1pt" fill="#e69900"><path d="M93.2 472.38c-1.268-2.657-4.44-14.25-2.75-15.7 2.54-.967 9.308 10.87 8.674 21.498-4.442 2.416-19.46-.966-19.25-4.107 1.058-4.347 9.52-2.897 13.327-1.69z"/><path d="M84.124 462.247c-.83-2.95-2.14-15.168-.26-16.12 2.633-.247 7.424 13.198 5.158 23.423-4.72 1.14-18.892-6.302-18.2-9.317 1.71-3.963 9.763-.216 13.302 2.014z"/><path d="M76.75 450.91c-.564-3.06-.776-15.4 1.175-16.048 2.637.172 6.197 14.28 3.037 24.074-4.79.386-18.198-9.247-17.242-12.13 2.05-3.666 9.713 1.33 13.03 4.103z"/><path d="M70.933 438.835c-.2-3.14 1.024-15.373 3.028-15.61 2.586.715 4.463 15.388.202 24.41-4.775-.608-16.903-12.895-15.623-15.547 2.45-3.197 9.44 3.322 12.393 6.747z"/><path d="M66.89 426.187c.14-3.144 2.668-15.017 4.676-14.868 2.48 1.202 2.76 16.082-2.43 24.195-4.66-1.517-15.34-16-13.786-18.378 2.77-2.695 8.985 5.095 11.54 9.05z"/><path d="M68.018 411.796c-.344 12.593-2.633 12.74-6.81 3.432-1.85-3.517-2.08-18.122-.413-18.666 2.41-.05 7.157 10.365 7.223 15.234z"/></g><g stroke-width="1pt" fill="#e69900"><path d="M158.932 473.706c1.27-2.657 4.442-14.252 2.75-15.7-2.538-.967-9.307 10.87-8.673 21.498 4.44 2.415 19.46-.966 19.25-4.107-1.06-4.348-9.52-2.898-13.328-1.69z"/><path d="M168.01 463.572c.83-2.95 2.14-15.167.26-16.12-2.634-.246-7.425 13.2-5.16 23.424 4.72 1.14 18.893-6.302 18.2-9.317-1.708-3.964-9.762-.217-13.3 2.012z"/><path d="M175.384 452.235c.563-3.06.775-15.4-1.176-16.047-2.637.172-6.197 14.28-3.037 24.074 4.79.386 18.2-9.247 17.243-12.13-2.05-3.666-9.713 1.33-13.03 4.103z"/><path d="M181.2 440.16c.2-3.138-1.024-15.372-3.028-15.61-2.585.716-4.462 15.39-.2 24.412 4.774-.61 16.902-12.896 15.622-15.548-2.45-3.197-9.44 3.322-12.394 6.747z"/><path d="M185.244 427.513c-.14-3.144-2.67-15.017-4.677-14.868-2.48 1.202-2.76 16.083 2.43 24.196 4.66-1.516 15.34-15.998 13.786-18.377-2.77-2.695-8.985 5.095-11.54 9.05z"/><path d="M184.115 413.122c.344 12.593 2.633 12.74 6.81 3.432 1.85-3.517 2.08-18.122.413-18.666-2.41-.05-7.157 10.365-7.223 15.234z"/></g><g transform="matrix(1 0 0 1.2 182.4 -74.6)"><path d="M-3.543 290.55h-5.315v3.543h-5.315v3.543h-21.26l-3.543 3.544 1.77 1.77h8.86l1.77-1.77h-8.857l1.772-1.772h12.4l-5.314 5.315h-12.402l-3.544-1.772-3.543 1.772h-12.402l-5.315-5.316 12.402.002 1.77 1.772-8.857-.002 1.772 1.773h8.858l1.772-1.77-3.544-3.544h-19.488v-3.543h-5.315v-3.543h-5.315v-15.945h5.315v-3.543h5.315v-3.543h19.488l3.544-3.545-1.772-1.77h-8.858l-1.772 1.772 8.858-.002-1.77 1.772-12.403.002 5.315-5.318h12.402l3.543 1.772 3.544-1.772h12.402l5.315 5.315h-12.4l-1.773-1.772h8.858l-1.772-1.77h-8.858l-1.77 1.77 3.542 3.544h21.26v3.542h5.315v3.543h5.315v15.945z" transform="matrix(1.5 0 0 1.2 3.5 -39.5)" stroke="#000" stroke-width=".125" fill="#980000"/><path d="M375.59 499.67v24.803h10.63v7.02h10.63v7.086h35.432l14.174 10.63 14.173-10.63h38.975v-7.02l10.63-.068v-7.087h10.63v-24.803h-10.63v-7.086l-10.63.068v-7.155H460.63l-14.174-10.63-14.174 10.63H396.85v7.154h-10.63v7.086h-10.63z" transform="matrix(.7 0 0 .6 -392 -6.5)" stroke="#e69900" stroke-width="1pt" fill="#004e00"/><path d="M-75.6 296.644l-15.822 10.984v-10.984H-75.6zM-43.97 296.644l15.822 10.985v-10.986H-43.97zM-75.6 325.208l-15.822-10.984v10.984H-75.6zM-43.965 325.208l15.82-10.985v10.985h-15.82zM-38.69 303.233l-5.272 4.394h10.547l-5.274-4.394zM-80.877 303.233l-5.273 4.394h10.547l-5.274-4.394zM-80.877 318.622l-5.273-4.394h10.547l-5.274 4.394zM-38.687 318.622l-5.273-4.394h10.547l-5.274 4.394z" fill="#980000"/><path d="M-59.787 329.602l-5.273-4.394h10.547l-5.274 4.394zM-59.787 307.632l-5.273-4.394h10.547l-5.274 4.394zM-59.787 292.25l-5.273 4.393h10.547l-5.274-4.394zM-59.787 314.217l-5.273 4.394h10.547l-5.274-4.393z" fill="#e69900"/><path transform="matrix(.7 0 0 .6 -392 -6.5)" stroke="#000" stroke-width=".125" fill="#e69900" d="M467.72 506.69h14.173v3.543H467.72z"/><path transform="matrix(.7 0 0 .6 -392 -6.5)" stroke="#000" stroke-width=".125" fill="#c00" d="M414.57 510.24h7.087v3.543h-7.087zM471.26 510.24h7.087v3.543h-7.087z"/><path transform="matrix(.7 0 0 .6 -392 -6.5)" stroke="#000" stroke-width=".125" fill="#900" d="M439.37 488.98h14.173v3.543H439.37zM439.37 496.06h14.173v3.543H439.37z"/><path transform="matrix(.7 0 0 .6 -392 -6.5)" stroke="#000" stroke-width=".125" fill="#900" d="M435.83 492.52h21.26v3.543h-21.26zM439.37 524.41h14.173v3.543H439.37zM439.37 531.5h14.173v3.543H439.37z"/><path transform="matrix(.7 0 0 .6 -392 -6.5)" stroke="#000" stroke-width=".125" fill="#900" d="M435.83 527.95h21.26v3.543h-21.26z"/><path transform="matrix(.7 0 0 .6 -392 -6.5)" stroke="#000" stroke-width=".125" fill="#e69900" d="M467.72 513.78h14.173v3.543H467.72zM411.02 506.69h14.173v3.543H411.02zM411.02 513.78h14.173v3.543H411.02z"/><path transform="matrix(.7 0 0 .6 -392 -6.5)" stroke="#000" stroke-width=".125" fill="#e69900" d="M407.48 510.24h7.087v3.543h-7.087zM421.65 510.24h7.087v3.543h-7.087zM464.17 510.24h7.087v3.543h-7.087zM478.35 510.24h7.087v3.543h-7.087z"/><ellipse fill="#fff" transform="matrix(.7 0 0 .6 -374.1 -38.9)" cx="413.68" rx=".886" cy="581.99" ry=".886"/><ellipse fill="#fff" transform="matrix(.7 0 0 .6 -367.6 -38.9)" cx="413.68" rx=".886" cy="581.99" ry=".886"/><ellipse fill="#fff" transform="matrix(.7 0 0 .6 -361 -39)" cx="413.68" rx=".886" cy="581.99" ry=".886"/><ellipse fill="#fff" transform="matrix(.7 0 0 .6 -371.5 -41.1)" cx="413.68" rx=".886" cy="581.99" ry=".886"/><ellipse fill="#fff" transform="matrix(.7 0 0 .6 -363.7 -41.1)" cx="413.68" rx=".886" cy="581.99" ry=".886"/><ellipse fill="#fff" transform="matrix(.7 0 0 .6 -371.6 -36.8)" cx="413.68" rx=".886" cy="581.99" ry=".886"/><ellipse fill="#fff" transform="matrix(.7 0 0 .6 -363.7 -36.7)" cx="413.68" rx=".886" cy="581.99" ry=".886"/><ellipse fill="#fff" transform="matrix(.7 0 0 .6 -353.2 -50)" cx="413.68" rx=".886" cy="581.99" ry=".886"/><ellipse fill="#fff" transform="matrix(.7 0 0 .6 -346.6 -50)" cx="413.68" rx=".886" cy="581.99" ry=".886"/><ellipse fill="#fff" transform="matrix(.7 0 0 .6 -340 -50)" cx="413.68" rx=".886" cy="581.99" ry=".886"/><ellipse fill="#fff" transform="matrix(.7 0 0 .6 -350.5 -52.2)" cx="413.68" rx=".886" cy="581.99" ry=".886"/><ellipse fill="#fff" transform="matrix(.7 0 0 .6 -342.7 -52.2)" cx="413.68" rx=".886" cy="581.99" ry=".886"/><ellipse fill="#fff" transform="matrix(.7 0 0 .6 -350.6 -47.9)" cx="413.68" rx=".886" cy="581.99" ry=".886"/><ellipse fill="#fff" transform="matrix(.7 0 0 .6 -342.7 -47.8)" cx="413.68" rx=".886" cy="581.99" ry=".886"/><ellipse fill="#fff" transform="matrix(.7 0 0 .6 -374.2 -60.9)" cx="413.68" rx=".886" cy="581.99" ry=".886"/><ellipse fill="#fff" transform="matrix(.7 0 0 .6 -367.6 -60.9)" cx="413.68" rx=".886" cy="581.99" ry=".886"/><ellipse fill="#fff" transform="matrix(.7 0 0 .6 -361.1 -61)" cx="413.68" rx=".886" cy="581.99" ry=".886"/><ellipse fill="#fff" transform="matrix(.7 0 0 .6 -371.6 -63.1)" cx="413.68" rx=".886" cy="581.99" ry=".886"/><ellipse fill="#fff" transform="matrix(.7 0 0 .6 -363.7 -63.1)" cx="413.68" rx=".886" cy="581.99" ry=".886"/><ellipse fill="#fff" transform="matrix(.7 0 0 .6 -371.6 -58.8)" cx="413.68" rx=".886" cy="581.99" ry=".886"/><ellipse fill="#fff" transform="matrix(.7 0 0 .6 -363.7 -58.7)" cx="413.68" rx=".886" cy="581.99" ry=".886"/><ellipse fill="#fff" transform="matrix(.7 0 0 .6 -395.3 -49.8)" cx="413.68" rx=".886" cy="581.99" ry=".886"/><ellipse fill="#fff" transform="matrix(.7 0 0 .6 -388.7 -49.8)" cx="413.68" rx=".886" cy="581.99" ry=".886"/><ellipse fill="#fff" transform="matrix(.7 0 0 .6 -382.1 -49.9)" cx="413.68" rx=".886" cy="581.99" ry=".886"/><ellipse fill="#fff" transform="matrix(.7 0 0 .6 -392.6 -52)" cx="413.68" rx=".886" cy="581.99" ry=".886"/><ellipse fill="#fff" transform="matrix(.7 0 0 .6 -384.8 -52.1)" cx="413.68" rx=".886" cy="581.99" ry=".886"/><ellipse fill="#fff" transform="matrix(.7 0 0 .6 -392.7 -47.7)" cx="413.68" rx=".886" cy="581.99" ry=".886"/><ellipse fill="#fff" transform="matrix(.7 0 0 .6 -384.8 -47.6)" cx="413.68" rx=".886" cy="581.99" ry=".886"/></g><path d="M134.575 247.8l4.394-2.058 4.393 2.058h-8.788zM121.394 247.8l4.394-2.058 4.394 2.058h-8.788zM108.213 247.8l4.394-2.058L117 247.8h-8.787zM134.575 200.45l4.394 2.06 4.393-2.06h-8.788zM121.394 200.45l4.394 2.06 4.394-2.06h-8.788zM108.213 200.45l4.394 2.06 4.394-2.06h-8.787z" fill="#fff"/><path d="M130.912 253.98l-5.126 4.12-5.126-4.12-5.126 4.12-5.125-4.12v2.058l3.416 2.06-1.71 2.06v2.058h1.71l1.708-2.06 1.71 2.06h1.708v-2.06l-1.71-2.057 3.418-2.06 3.418 2.06-1.71 2.057v2.06h1.71l1.708-2.06 1.71 2.06h1.708v-2.06l-1.71-2.058 3.418-2.06 3.418 2.058-1.71 2.06v2.058h1.71l1.71-2.06 1.707 2.06h1.71v-2.06l-1.71-2.058 3.417-2.06v-2.058l-5.125 4.118-5.128-4.118zM130.913 194.26l-5.126-4.117-5.126 4.118-5.125-4.117-5.125 4.118v-2.057l3.417-2.06-1.71-2.058v-2.06h1.71l1.708 2.06 1.71-2.06h1.708v2.06l-1.71 2.058 3.418 2.06 3.42-2.06-1.71-2.058v-2.06h1.71l1.707 2.06 1.71-2.06h1.708v2.06l-1.71 2.058 3.418 2.06 3.418-2.06-1.708-2.058v-2.06h1.71l1.708 2.06 1.708-2.06h1.71v2.06l-1.71 2.06 3.417 2.058v2.058l-5.125-4.116-5.127 4.117zM169.738 228.583l5.493-4.46-5.492-4.463 5.493-4.46-5.492-4.462h2.745l2.748 2.974 2.746-1.487h2.746v1.487l-2.746 1.487 2.746 1.486v1.487h-2.746l-2.745-1.487-2.746 2.974 2.747 2.975 2.746-1.487h2.746v1.487l-2.746 1.487 2.746 1.487v1.486h-2.746l-2.745-1.487-2.746 2.973 2.745 2.975 2.746-1.488h2.746v1.488l-2.746 1.487 2.746 1.486v1.49h-2.746l-2.747-1.49-2.747 2.976h-2.745l5.49-4.46-5.49-4.463zM81.842 228.583l-5.493-4.46 5.492-4.463-5.493-4.46 5.492-4.462h-2.745l-2.748 2.974-2.746-1.487h-2.746v1.487l2.746 1.487-2.746 1.486v1.487h2.746l2.745-1.487 2.746 2.974-2.747 2.975-2.746-1.487h-2.746v1.487l2.746 1.487-2.746 1.487v1.486h2.746l2.745-1.487 2.746 2.973-2.745 2.975-2.746-1.488h-2.746v1.488l2.746 1.487-2.746 1.486v1.49h2.746l2.747-1.49 2.747 2.976h2.745l-5.49-4.46 5.49-4.463z" fill="#004e00"/><path transform="matrix(1.2 0 0 1.2 204.9 -5.5)" stroke="#000" stroke-width=".25" fill="#004e00" d="M-26.575 214.37h1.772v1.772h-1.772z"/><path transform="matrix(1.2 0 0 1.2 204.9 -5.5)" stroke="#000" stroke-width=".25" fill="#004e00" d="M-28.346 216.14h1.772v1.772h-1.772zM-37.205 225h1.772v1.772h-1.772z"/><path transform="matrix(1.2 0 0 1.2 204.9 -5.5)" stroke="#000" stroke-width=".25" fill="#004e00" d="M-35.433 223.23h1.772v1.772h-1.773zM-93.898 223.23h1.772v1.772h-1.772zM-102.76 214.37h1.772v1.772h-1.772zM-100.98 216.14h1.772v1.772h-1.772zM-100.98 177.17h1.772v1.772h-1.772zM-102.76 178.94h1.772v1.772h-1.772zM-92.126 168.31h1.772v1.772h-1.772z"/><path transform="matrix(1.2 0 0 1.2 204.9 -5.5)" stroke="#000" stroke-width=".25" fill="#004e00" d="M-93.898 170.08h1.772v1.772h-1.772zM-37.205 168.31h1.772v1.772h-1.772z"/><path transform="matrix(1.2 0 0 1.2 204.9 -5.5)" stroke="#000" stroke-width=".25" fill="#004e00" d="M-35.433 170.08h1.772v1.772h-1.773zM-28.346 177.17h1.772v1.772h-1.772z"/><path transform="matrix(1.2 0 0 1.2 204.9 -5.5)" stroke="#000" stroke-width=".25" fill="#004e00" d="M-26.575 178.94h1.772v1.772h-1.772zM-92.126 225h1.772v1.772h-1.772z"/><path d="M119.085 224.12h-6.476l-.002-4.048 4.318.002v-3.794h4.318v-3.485h4.317v4.356c-3.574 0-6.475 2.95-6.475 6.97z" fill="#fff"/><path d="M132.035 224.12h6.476l.002-4.048-4.318.002v-3.794h-4.318v-3.485h-4.317v4.356c3.574 0 6.475 2.95 6.475 6.97z" fill="#e69900"/><path d="M132.035 224.12h6.476l.002 4.047-4.318-.002v3.794h-4.318v3.484h-4.317v-4.356c3.574 0 6.475-2.95 6.475-6.97z" fill="#fff"/><path d="M119.085 224.12h-6.476l-.002 4.047 4.318-.002v3.794h4.318v3.484h4.317v-4.356c-3.574 0-6.475-2.95-6.475-6.97z" fill="#e69900"/><path d="M132.034 224.123h-6.476v-6.97c3.575 0 6.476 3.123 6.476 6.97z" fill="#004e00"/><path d="M132.034 224.117h-6.476v6.97c3.575 0 6.476-3.124 6.476-6.97z" fill="#980000"/><path d="M119.086 224.117h6.476v6.97c-3.575 0-6.476-3.124-6.476-6.97z" fill="#004e00"/><path d="M119.086 224.123h6.476v-6.97c-3.575 0-6.476 3.123-6.476 6.97z" fill="#980000"/><path d="M132.378 249.855l-6.59-4.12-6.59 4.12-6.592-4.12-6.59 4.12v-2.058l4.393-2.06-2.198-2.06v-2.058h2.197l2.196 2.058 2.197-2.06H117v2.06l-2.197 2.058 4.394 2.06 4.394-2.06-2.196-2.058v-2.06h2.197l2.197 2.06 2.197-2.06h2.197v2.06l-2.196 2.058 4.394 2.06 4.394-2.058-2.197-2.06v-2.06h2.197l2.197 2.06 2.195-2.06h2.197v2.06l-2.197 2.06 4.394 2.06v2.057l-6.59-4.117-6.592 4.117zM132.378 198.388l-6.59 4.12-6.59-4.12-6.592 4.12-6.59-4.12v2.06l4.393 2.06-2.198 2.058v2.06h2.197l2.196-2.06 2.197 2.06H117v-2.06l-2.197-2.06 4.394-2.058 4.394 2.06-2.196 2.058v2.06h2.197l2.197-2.06 2.197 2.06h2.197v-2.06l-2.196-2.06 4.394-2.058 4.394 2.058-2.197 2.06v2.06h2.197l2.197-2.06 2.195 2.06h2.197v-2.06l-2.197-2.06 4.394-2.06v-2.058l-6.59 4.118-6.592-4.118zM156.537 229.266l-3.296-5.147 3.297-5.15-3.296-5.146 3.297-5.148h-1.647l-1.65 3.432-1.646-1.716h-1.648v1.716l1.648 1.716-1.648 1.715v1.715h1.648l1.647-1.716 1.65 3.43-1.65 3.433-1.646-1.716h-1.648v1.716l1.648 1.716-1.648 1.715v1.716h1.648l1.647-1.715 1.65 3.43-1.648 3.434-1.648-1.717h-1.648v1.716l1.648 1.714-1.648 1.716v1.716h1.648l1.648-1.716 1.648 3.432h1.647l-3.295-5.148 3.295-5.148z" fill="#004e00"/><path d="M-100.98 177.17l-7.087 7.086v26.575l7.087 7.088h31.89l7.086-7.087v-26.574l-7.087-7.086h-31.89zm-1.772-5.316l-17.717 17.716v15.945l17.718 17.717h35.433l17.717-17.717V189.57l-17.716-17.716h-35.432z" transform="matrix(1.2 0 0 1.2 231.2 -5.5)" stroke="#000" stroke-width=".4" fill="#004e00"/><path d="M-93.898 147.05l3.543 5.315 3.544-5.315H-93.9z" transform="matrix(1 0 0 .8 208.4 135.9)" stroke="#000" stroke-width=".25" fill="#e69900"/><path d="M-93.898 147.05l3.543 5.315 3.544-5.315H-93.9z" transform="matrix(1 0 0 -.8 208.4 312.3)" stroke="#000" stroke-width=".25" fill="#e69900"/><path d="M-93.898 147.05l3.543 5.315 3.544-5.315H-93.9z" transform="matrix(1 0 0 -.8 222.4 312.3)" stroke="#000" stroke-width=".25" fill="#e69900"/><path d="M-93.898 147.05l3.543 5.315 3.544-5.315H-93.9z" transform="matrix(1 0 0 .8 222.4 135.9)" stroke="#000" stroke-width=".25" fill="#e69900"/><path d="M-93.898 147.05l3.543 5.315 3.544-5.315H-93.9z" transform="matrix(1 0 0 -.8 201.4 312.3)" stroke="#000" stroke-width=".25" fill="#980000"/><path d="M-93.898 147.05l3.543 5.315 3.544-5.315H-93.9z" transform="matrix(1 0 0 -.8 215.4 312.3)" stroke="#000" stroke-width=".25" fill="#980000"/><path d="M-93.898 147.05l3.543 5.315 3.544-5.315H-93.9z" transform="matrix(1 0 0 -.8 229.5 312.3)" stroke="#000" stroke-width=".25" fill="#980000"/><path d="M-104.53 180.71l3.544-3.544h-3.544v3.544z" transform="matrix(1.9 0 0 -1.7 293.8 558.7)" stroke="#000" stroke-width=".25" fill="#980000"/><path d="M95.033 229.266l3.296-5.147-3.297-5.15 3.296-5.146-3.297-5.148h1.647l1.65 3.432 1.646-1.716h1.648v1.716l-1.648 1.716 1.648 1.715v1.715h-1.648l-1.647-1.716-1.65 3.43 1.65 3.433 1.646-1.716h1.648v1.716l-1.648 1.716 1.648 1.715v1.716h-1.648l-1.647-1.715-1.65 3.43 1.648 3.434 1.648-1.717h1.648v1.716l-1.648 1.714 1.648 1.716v1.716h-1.648l-1.648-1.716-1.648 3.432h-1.647l3.295-5.148-3.295-5.148z" fill="#004e00"/><path d="M-76.18 154.13h7.086l1.77 1.772-1.77 1.77h-7.087v-3.542z" transform="matrix(1.2 0 0 1 253.2 57.3)" stroke="#000" stroke-width=".25" fill="#980000"/><path d="M-99.213 180.71l-3.543 3.544v26.575l3.543 3.542h-5.316l.002-33.662h5.315z" transform="matrix(1.2 0 0 1.2 222.4 -5.5)" stroke="#000" stroke-width=".375" fill="#980000"/><path d="M-93.898 147.05l3.543 5.315 3.544-5.315H-93.9z" transform="matrix(1 0 0 .8 201.4 135.9)" stroke="#000" stroke-width=".25" fill="#980000"/><path d="M-93.898 147.05l3.543 5.315 3.544-5.315H-93.9z" transform="matrix(1 0 0 .8 215.4 135.9)" stroke="#000" stroke-width=".25" fill="#980000"/><path d="M-93.898 147.05l3.543 5.315 3.544-5.315H-93.9z" transform="matrix(1 0 0 .8 229.5 135.9)" stroke="#000" stroke-width=".25" fill="#980000"/><path d="M-99.212 180.71l-3.544 3.544v26.575l3.544 3.542h-5.315V180.71h5.315z" transform="matrix(-1.2 0 0 1.2 29.1 -5.5)" stroke="#000" stroke-width=".375" fill="#980000"/><path d="M-104.53 180.71l3.544-3.544h-3.544v3.544z" transform="matrix(-1.9 0 0 -1.7 -42.3 558.7)" stroke="#000" stroke-width=".25" fill="#980000"/><path d="M-104.53 180.71l3.544-3.544h-3.544v3.544z" transform="matrix(-1.9 0 0 1.7 -42.3 -110.4)" stroke="#000" stroke-width=".25" fill="#980000"/><path d="M-104.53 180.71l3.544-3.544h-3.544v3.544z" transform="matrix(1.9 0 0 1.7 293.8 -110.4)" stroke="#000" stroke-width=".25" fill="#980000"/><path d="M-100.98 177.17l-7.087 7.086v26.575l7.087 7.088h31.89l7.086-7.087v-26.574l-7.087-7.086h-31.89zm0-1.773l-8.86 8.858v26.575l8.86 8.858h31.89l8.857-8.858v-26.575l-8.86-8.858h-31.888z" transform="matrix(1.2 0 0 1.2 231.2 -5.5)" stroke="#000" stroke-width=".4" fill="#004e00"/><path d="M-76.18 154.13h7.086l1.77 1.772-1.77 1.77h-7.087v-3.542z" transform="matrix(1.2 0 0 1 253.2 61)" stroke="#000" stroke-width=".25" fill="#e69900"/><path d="M-76.18 154.13h7.086l1.77 1.772-1.77 1.77h-7.087v-3.542z" transform="matrix(1.2 0 0 1 253.2 64.8)" stroke="#000" stroke-width=".25" fill="#980000"/><path d="M-76.18 154.13h7.086l1.77 1.772-1.77 1.77h-7.087v-3.542z" transform="matrix(1.2 0 0 1 253.2 68.4)" stroke="#000" stroke-width=".25" fill="#e69900"/><path d="M-76.18 154.13h7.086l1.77 1.772-1.77 1.77h-7.087v-3.542z" transform="matrix(1.2 0 0 1 253.2 53.6)" stroke="#000" stroke-width=".25" fill="#e69900"/><path d="M-76.18 154.13h7.086l1.77 1.772-1.77 1.77h-7.087v-3.542z" transform="matrix(-1.2 0 0 1 -1.6 57.3)" stroke="#000" stroke-width=".25" fill="#980000"/><path d="M-76.18 154.13h7.086l1.77 1.772-1.77 1.77h-7.087v-3.542z" transform="matrix(-1.2 0 0 1 -1.6 61)" stroke="#000" stroke-width=".25" fill="#e69900"/><path d="M-76.18 154.13h7.086l1.77 1.772-1.77 1.77h-7.087v-3.542z" transform="matrix(-1.2 0 0 1 -1.6 64.8)" stroke="#000" stroke-width=".25" fill="#980000"/><path d="M-76.18 154.13h7.086l1.77 1.772-1.77 1.77h-7.087v-3.542z" transform="matrix(-1.2 0 0 1 -1.6 68.4)" stroke="#000" stroke-width=".25" fill="#e69900"/><path d="M-76.18 154.13h7.086l1.77 1.772-1.77 1.77h-7.087v-3.542z" transform="matrix(-1.2 0 0 1 -1.6 53.6)" stroke="#000" stroke-width=".25" fill="#e69900"/><path d="M-100.98 178.94v37.205h8.858v8.858h56.693v-8.858h8.86V178.94h-8.86v-8.858H-92.12v8.858h-8.858zm1.77 1.772v33.66h8.86v8.86h53.15v-8.86h8.858v-33.66H-37.2v-8.86h-53.15v8.86h-8.86z" transform="matrix(1.2 0 0 1.2 204.9 -5.5)" stroke="#000" stroke-width=".25" fill="#970000"/><g><path d="M-28.347 69.094l-5.315-7.087v-5.315l-5.315-5.314h-10.63l-8.858-5.315H-86.81l-8.86 5.315h-10.63l-5.315 5.315v5.315l-5.315 7.086v14.173l5.315 7.087v5.315l5.315 5.314h10.63l8.86 5.315h28.345l8.858-5.316h10.63l5.315-5.315v-5.316l5.315-7.087V69.093z" transform="matrix(1.2 0 0 1.1 215.9 -35.5)" stroke="#000" stroke-width=".25" fill="#980000"/><path d="M73.08 49.606v5.94l6.592 7.92v5.94l6.59 5.94h13.18l10.985 5.94h15.378v-31.68H73.08z" fill="#e69900"/><path d="M107.248 63.46l-8.024 5.093H94.43l1.6 1.696-3.196 3.394 1.597 1.697 4.794-1.696 1.598 1.697.737-4.534 8.847-5.368-3.16-1.977z" fill="#980000"/><path d="M98.465 59.5l-8.024 5.093H85.65l1.598 1.697-3.195 3.394 1.598 1.697 4.793-1.696 1.6 1.697.737-4.534 8.847-5.368-3.16-1.977zM94.068 51.585l-8.025 5.092H81.25l1.598 1.697-3.195 3.394 1.597 1.697 4.793-1.697 1.598 1.697.74-4.535 8.847-5.368-3.16-1.977z" fill="#980000"/><path d="M178.494 49.606v-5.94l-6.59-7.92v-5.94l-6.59-5.94h-13.18l-10.986-5.94H125.77v31.68h52.724z" fill="#e69900"/><path d="M125.792 81.285h-4.068l-4.72-3.96h-7.484l-4.068-1.98 2.034-1.98 4.068 1.98h4.068l4.068-5.94 6.102 1.98v3.96h-6.102l6.102 5.94z" fill="#980000"/><path d="M73.08 49.606v-5.94l6.592-7.92v-5.94l6.59-5.94h13.18l10.985-5.94h15.378v31.68H73.08z" fill="#fff"/><path d="M125.792 17.923h-4.068l-4.72 3.96h-7.484l-4.068 1.98 2.034 1.98 4.068-1.98h4.068l4.068 5.94 6.102-1.98v-3.96h-6.102l6.102-5.94z" fill="#980000"/><path d="M125.788 17.923h4.07l4.717 3.96h7.486l4.07 1.98-2.035 1.98-4.068-1.98h-4.068l-4.07 5.94-6.102-1.98v-3.96h6.103l-6.102-5.94z" fill="#980000"/><path d="M178.494 49.606v5.94l-6.59 7.92v5.94l-6.59 5.94h-13.18l-10.986 5.94H125.77v-31.68h52.724z" fill="#fff"/><path d="M125.788 81.285h4.07l4.717-3.96h7.486l4.07-1.98-2.035-1.98-4.068 1.98h-4.068l-4.07-5.94-6.102 1.98v3.96h6.103l-6.102 5.94zM98.465 39.703l-8.024-5.09H85.65l1.598-1.698-3.195-3.395 1.598-1.697 4.793 1.697 1.6-1.697.737 4.535 8.847 5.368-3.16 1.977zM144.328 35.747l8.024-5.092h4.793l-1.598-1.696 3.195-3.396-1.597-1.697-4.793 1.697-1.598-1.697-.738 4.535-8.848 5.368 3.16 1.977z" fill="#980000"/><path d="M107.248 35.747l-8.024-5.092H94.43l1.6-1.696-3.196-3.396 1.597-1.697 4.794 1.697 1.598-1.697.737 4.535 8.847 5.368-3.16 1.977zM94.068 47.627l-8.025-5.092H81.25l1.598-1.696-3.195-3.396 1.597-1.697 4.793 1.697 1.598-1.697.74 4.535 8.847 5.368-3.16 1.977z" fill="#980000"/><path d="M76.982 49.616h2.035l2.034 1.98 2.035-1.98H125.8v27.72h-2.034l2.034 1.98v1.98l-6.102-5.94v-1.98h2.034v1.98h2.034v-1.98l-16.516-8.745H93.337v-8.58l-6.184-4.454h-4.068l-2.034 1.98 2.035 1.98H81.05l-4.068-5.94z" fill="#fff"/><path d="M76.982 49.596h2.035l2.034-1.98 2.035 1.98 42.715.002V21.876h-2.034l2.034-1.98v-1.98l-6.102 5.94v1.98h2.034v-1.98h2.034v1.98L107.25 34.58H93.337v8.582l-6.184 4.455h-4.068l-2.034-1.98 2.035-1.98H81.05l-4.068 5.94z" fill="#e69900"/><path d="M86.256 49.595h39.542v23.76l-17.574-9.9h-13.18v-7.92l-8.788-5.94z" fill="#004e00"/><path d="M153.11 39.703l8.025-5.09h4.793l-1.598-1.698 3.195-3.395-1.597-1.697-4.793 1.697-1.598-1.697-.738 4.535-8.85 5.368 3.16 1.977zM157.508 47.627l8.024-5.092h4.793l-1.598-1.696 3.195-3.396-1.597-1.697-4.793 1.697-1.598-1.697-.738 4.535-8.848 5.368 3.16 1.977z" fill="#980000"/><path d="M174.593 49.596h-2.035l-2.034-1.98-2.034 1.98-42.715.002V21.876h2.034l-2.035-1.98v-1.98l6.102 5.94v1.98h-2.034v-1.98h-2.034v1.98l16.515 8.745h13.913v8.582l6.185 4.455h4.067l2.034-1.98-2.034-1.98h2.034l4.07 5.94z" fill="#fff"/><path d="M165.32 49.617h-39.543v-23.76l17.574 9.9h13.182v7.92l8.787 5.94z" fill="#004e00"/><path d="M144.328 63.46l8.024 5.093h4.793l-1.598 1.696 3.195 3.394-1.597 1.697-4.793-1.696-1.598 1.697-.738-4.534-8.848-5.368 3.16-1.977z" fill="#980000"/><path d="M153.11 59.5l8.025 5.093h4.793l-1.598 1.697 3.195 3.394-1.597 1.697-4.793-1.696-1.598 1.697-.738-4.534-8.85-5.368 3.16-1.977zM157.508 51.585l8.024 5.092h4.793l-1.598 1.697 3.195 3.394-1.597 1.697-4.793-1.697-1.598 1.697-.738-4.535-8.848-5.368 3.16-1.977z" fill="#980000"/><path d="M174.593 49.616h-2.035l-2.034 1.98-2.034-1.98h-42.715v27.72h2.034l-2.035 1.98v1.98l6.102-5.94v-1.98h-2.034v1.98h-2.034v-1.98l16.515-8.745h13.913v-8.58l6.185-4.454h4.067l2.034 1.98-2.034 1.98h2.034l4.07-5.94z" fill="#e69900"/><path d="M165.32 49.595h-39.543v23.76l17.574-9.9h13.182v-7.92l8.787-5.94z" fill="#980000"/><path d="M86.256 49.617h39.542v-23.76l-17.574 9.9h-13.18v7.92l-8.788 5.94z" fill="#980000"/><path d="M130.128 49.606l11.034-5.94h6.59l-2.197-1.98 4.393-3.96-2.196-1.98-6.59 1.98-2.197-1.98-1.015 5.29-12.166 6.263 4.344 2.306zM121.447 49.595l-11.033 5.94h-6.59l2.196 1.98-4.393 3.96 2.196 1.98 6.59-1.98 2.198 1.98 1.016-5.29 12.166-6.263-4.345-2.307z" fill="#980000"/><path d="M121.447 49.606l-11.033-5.94h-6.59l2.196-1.98-4.393-3.96 2.196-1.98 6.59 1.98 2.198-1.98 1.016 5.29 12.166 6.263-4.345 2.306zM130.128 49.595l11.034 5.94h6.59l-2.197 1.98 4.393 3.96-2.196 1.98-6.59-1.98-2.197 1.98-1.015-5.29-12.166-6.263 4.344-2.307z" fill="#004e00"/><path d="M112.608 49.607l13.18-9.9 13.182 9.9-13.18 9.9-13.182-9.9z" fill="#fff"/><path d="M83.075 53.562l2.034 1.98-2.035 1.98H81.04l-6.1-7.92h2.033l4.068 5.94h2.035l-2.034-1.98 2.035-1.98h4.068v1.98h-4.068z" fill="#980000"/><path d="M83.075 45.644l2.034-1.98-2.035-1.98H81.04l-6.1 7.92h2.033l4.068-5.94h2.035l-2.034 1.98 2.035 1.98h4.068v-1.98h-4.068zM168.504 53.562l-2.034 1.98 2.034 1.98h2.034l6.102-7.92h-2.034l-4.068 5.94h-2.034l2.034-1.98-2.034-1.98h-4.068v1.98h4.068z" fill="#980000"/><path d="M168.504 45.644l-2.034-1.98 2.034-1.98h2.034l6.102 7.92h-2.034l-4.068-5.94h-2.034l2.034 1.98-2.034 1.98h-4.068v-1.98h4.068zM123.754 41.684h4.068v15.84h-4.068z" fill="#980000"/><path fill="#980000" d="M117.652 45.644h16.272v7.92h-16.272z"/></g><g><path d="M333.07 170.08l-10.63 5.315v8.858l10.63 5.315h10.63l10.63-5.315v-8.858l-10.63-5.315h-10.63z" transform="matrix(3.4 0 0 3.7 -1039.8 -283.1)" stroke="#000" stroke-width=".066" fill="#004e00"/><path d="M84.458 383.946h2.214v-4.06h4.43v4.06h2.214v-9.474h-2.214v4.06h-4.43v-4.06h-2.214v9.474zM140.558 415.526h2.214v-4.06h4.43v4.06h2.214v-9.474h-2.214v4.06h-4.43v-4.06h-2.214v9.474zM105.128 368.156h2.214v-4.06h4.43v4.06h2.214v-9.474h-2.214v4.06h-4.43v-4.06h-2.214v9.474zM137.608 368.156h2.214v-4.06h4.43v4.06h2.214v-9.474h-2.214v4.06h-4.43v-4.06h-2.214v9.474zM158.268 383.946h2.214v-4.06h4.43v4.06h2.214v-9.474h-2.214v4.06h-4.43v-4.06h-2.214v9.474zM158.268 399.736h2.214v-4.06h4.43v4.06h2.214v-9.474h-2.214v4.06h-4.43v-4.06h-2.214v9.474z" fill="#c00"/><path d="M125.79 421.848v-34.74h53.15v15.79l-35.434 18.95H125.79zM125.79 352.363v34.74H72.64v-15.79l35.433-18.95h17.717z" fill="#e69900"/><path d="M125.79 352.363v34.74h53.15v-15.79l-35.434-18.95H125.79zM125.79 421.848v-34.74H72.64v15.79l35.433 18.95h17.717z" fill="#fff"/><path d="M-177.16 368.5h21.26l-21.26-10.63v10.63zm24.803-1.772v17.717h-33.662v-14.173h-7.085l-8.858-5.315v-12.402l5.314-5.315h-7.085v17.717h-1.772v-19.49h17.717l35.433 21.26z" transform="matrix(1 0 0 .9 331.3 44.4)" stroke="#000" stroke-width=".125" fill="#e69900"/><path d="M108.042 376.045v22.105h5.314l12.403 6.317 12.402-6.317h5.313v-22.105h-5.313l-12.403-6.318-12.404 6.318h-5.314z" fill="#980000"/><path d="M-177.16 368.5h21.26l-21.26-10.63v10.63zm24.803-1.772v17.717h-33.662v-14.173h-7.085l-8.858-5.315v-12.402l5.314-5.315h-7.085v17.717h-1.772v-19.49h17.717l35.433 21.26z" transform="matrix(-1 0 0 -.9 -79.7 729.8)" stroke="#000" stroke-width=".125" fill="#e69900"/><path d="M-177.16 368.5h21.26l-21.26-10.63v10.63zm24.803-1.772v17.717h-33.662v-14.173h-7.085l-8.858-5.315v-12.402l5.314-5.315h-7.085v17.717h-1.772v-19.49h17.717l35.433 21.26z" transform="matrix(-1 0 0 .9 -79.7 44.4)" stroke="#000" stroke-width=".125" fill="#fff"/><path d="M-177.16 368.5h21.26l-21.26-10.63v10.63zm24.803-1.772v17.717h-33.662v-14.173h-7.085l-8.858-5.315v-12.402l5.314-5.315h-7.085v17.717h-1.772v-19.49h17.717l35.433 21.26z" transform="matrix(1 0 0 -.9 331.3 729.8)" stroke="#000" stroke-width=".125" fill="#fff"/><path d="M83.278 399.746h2.214v-4.737h4.43v4.736h2.214v-11.053h-2.214v4.737h-4.43v-4.737h-2.214v11.053zM104.528 415.536h2.214V410.8h4.43v4.736h2.214v-11.053h-2.214v4.737h-4.43v-4.737h-2.214v11.053zM83.278 374.476h2.214v4.738h4.43v-4.738h2.214v11.054h-2.214v-4.738h-4.43v4.738h-2.214v-11.054zM104.528 358.684h2.214v4.738h4.43v-4.738h2.214v11.054h-2.214V365h-4.43v4.738h-2.214v-11.054zM138.198 415.536h2.214V410.8h4.43v4.736h2.214v-11.053h-2.214v4.737h-4.43v-4.737h-2.214v11.053zM159.458 385.526h2.214v-4.737h4.43v4.736h2.214v-11.053h-2.214v4.737h-4.43v-4.737h-2.214v11.053z" fill="#980000"/><path d="M138.198 415.536h2.214V410.8h4.43v4.736h2.214v-11.053h-2.214v4.737h-4.43v-4.737h-2.214v11.053z" fill="#980000"/><path d="M138.198 415.536h2.214V410.8h4.43v4.736h2.214v-11.053h-2.214v4.737h-4.43v-4.737h-2.214v11.053zM159.458 399.736h2.214V395h4.43v4.736h2.214v-11.053h-2.214v4.737h-4.43v-4.737h-2.214v11.053zM138.198 369.736h2.214V365h4.43v4.736h2.214v-11.053h-2.214v4.737h-4.43v-4.737h-2.214v11.053z" fill="#980000"/><path d="M127.563 387.106l7.087-5.76h3.543v2.88h-3.543v1.44h5.314v-5.758h-5.314v-4.318h-7.087v4.317h1.772v-2.88h3.543v2.88l-7.086 5.758-7.087-5.757v-2.878h3.543v2.878h1.772v-4.318h-7.087v4.318h-5.315v5.76h5.315v-1.44h-3.544v-2.88h3.543l7.087 5.757-7.087 5.757h-3.543v-2.878h3.543v-1.44h-5.314v5.758h5.313v4.318h7.087v-4.318h-1.77v2.88h-3.544v-2.88l7.085-5.757 7.09 5.76v2.877h-3.544v-2.878h-1.772v4.317h7.086v-4.316l5.315-.002v-5.757h-5.315v1.44h3.544v2.88h-3.544l-7.087-5.76z" fill="#004e00"/></g><g transform="matrix(1 0 0 .9 198.4 17.6)"><path d="M-122.352 134.285l3.43-3.73h20.573l15.43-16.784h20.575l15.43 16.785h20.575l3.43 3.73-3.43 3.73h-20.574l-15.43 16.783H-82.92l-15.43-16.784h-20.573l-3.43-3.73z" fill="#980000"/><path d="M372.05 391.54l1.903-1.95h22.834l17.126-19.488h19.03l17.125 19.49h22.835l1.903 1.948-1.903 1.948h-22.835l-15.223 17.54H412.01l-15.223-17.54h-22.834l-1.903-1.948z" transform="matrix(.9 0 0 .9 -466.9 -221.3)" stroke="#000" stroke-width=".272" fill="#980000"/><path d="M-64.07 136.148l6.857 7.458-3.428 3.73-1.716-1.865h-1.714v1.866l1.714 1.865h3.43l3.428-3.73v-3.73l-6.857-7.457 6.857-7.46v-3.73l-3.43-3.73h-3.427l-1.715 1.865v1.865h1.715l1.714-1.865 3.427 3.73-6.857 7.46-6.86-7.46 6.86-7.46v-1.863h-1.715l-6.857 7.458-6.86-7.46h-1.714v1.865l6.86 7.46-6.86 7.46-6.858-7.46 3.43-3.73 1.714 1.865h1.714v-1.865l-1.714-1.864h-3.43l-3.43 3.73v3.73l6.86 7.46-6.86 7.458v3.73l3.43 3.73h3.43l1.714-1.865v-1.865h-1.714l-1.715 1.865-3.43-3.73 6.86-7.46 6.857 7.46-6.858 7.46v1.864h1.714l6.86-7.458 6.857 7.46h1.714v-1.866l-6.86-7.46 6.86-7.458zm-8.573-9.325l-6.86 7.46 6.86 7.46 6.858-7.46-6.858-7.46zM-82.917 154.79v14.918l1.715-1.865 1.715 1.865 1.714-1.865 1.714 1.865 1.716-1.865 1.714 1.865 1.715-1.865 1.715 1.865 1.714-1.865 1.715 1.865 1.712-1.865 1.715 1.865V154.79h-20.574zM-62.353 113.79V98.872l-1.715 1.865-1.715-1.865-1.714 1.865-1.714-1.865-1.716 1.865-1.714-1.865-1.715 1.865-1.715-1.865-1.714 1.865-1.715-1.865-1.712 1.865-1.715-1.865v14.918h20.574zM-33.205 130.58v-14.918l-1.715 1.865-1.713-1.865-1.715 1.865-1.715-1.865-1.714 1.865-1.715-1.865-1.714 1.865-1.714-1.865v14.918h13.715zM-98.355 130.58v-14.918l-1.715 1.865-1.713-1.865-1.715 1.865-1.715-1.865-1.714 1.865-1.715-1.865-1.714 1.865-1.714-1.865v14.918h13.715zM-33.205 138.01v14.918l-1.715-1.865-1.713 1.865-1.715-1.865-1.715 1.865-1.714-1.865-1.715 1.865-1.714-1.865-1.714 1.865V138.01h13.715zM-98.355 138.01v14.918l-1.715-1.865-1.713 1.865-1.715-1.865-1.715 1.865-1.714-1.865-1.715 1.865-1.714-1.865-1.714 1.865V138.01h13.715z" fill="#e69900"/><path d="M-62.347 154.79v9.324l1.714-1.866 1.715 1.866 1.714-1.866 1.714 1.866 1.715-1.866 1.714 1.866 1.714-1.866 1.714 1.866 1.715-1.866v-24.242l-15.43 16.784zM-82.933 154.79v9.325l-1.715-1.866-1.715 1.865-1.714-1.866-1.714 1.865-1.716-1.866-1.714 1.865-1.715-1.866-1.714 1.865-1.714-1.866v-24.244l15.43 16.784zM-82.933 113.79v-9.324l-1.714 1.866-1.715-1.866-1.714 1.866-1.714-1.866-1.715 1.866-1.714-1.866-1.714 1.866-1.714-1.866-1.715 1.866v24.242l15.43-16.784zM-62.347 113.79v-9.324l1.714 1.866 1.715-1.866 1.714 1.866 1.714-1.866 1.715 1.866 1.714-1.866 1.714 1.866 1.714-1.866 1.715 1.866v24.242l-15.43-16.784zM-112.078 149.206l-1.715-1.865-1.713 1.866-1.714-1.865-1.715 1.866-1.715-1.865-1.715 1.866-1.713-1.865-1.715 1.866v-29.838l1.714 1.866 1.715-1.866 1.715 1.866 1.714-1.866 1.715 1.866 1.713-1.866 1.714 1.866 1.715-1.866v11.19h-6.857l-3.43 3.73 3.43 3.73h6.857v11.188zM-33.202 149.206l1.715-1.865 1.713 1.866 1.714-1.865 1.715 1.866 1.715-1.865 1.715 1.866 1.713-1.865 1.715 1.866v-29.838l-1.714 1.866-1.715-1.866-1.715 1.866-1.714-1.866-1.715 1.866-1.713-1.866-1.714 1.866-1.715-1.866v11.19h6.857l3.43 3.73-3.43 3.73h-6.857v11.188z" fill="#004e00"/><path d="M-91.36 155.978s-1.428 1.474-1.428 2.21c-.028.687 1.524 2.227 2.143 2.21.81.017 2.143-1.473 2.143-2.21 0-.736-1.43-2.21-1.43-2.21v-2.948s3.104 5.068 3.104 2.857c0-1.586-3.103-4.33-3.103-4.33h-1.43s-3.103 3.213-3.103 4.33c0 2.21 3.103-2.857 3.103-2.857v2.948z" fill="#fff"/><path d="M-73.497 161.67s-1.715 2.062-1.715 3.094c-.034.962 1.83 3.118 2.572 3.095.97.022 2.572-2.064 2.572-3.096s-1.715-3.095-1.715-3.095v-4.128s3.037 6.75 3.037 3.656c0-2-3.037-5.72-3.037-5.72h-1.714s-3.506 4.656-3.037 5.72c0 3.095 3.037-3.656 3.037-3.656v4.127z" fill="#980000"/><ellipse fill="#004e00" transform="matrix(1 0 0 1.1 -482.4 -277.9)" cx="403.94" rx="3.543" cy="391.54" ry="1.772"/><ellipse fill="#004e00" transform="matrix(1 0 0 1.1 -463.5 -277.9)" cx="403.94" rx="3.543" cy="391.54" ry="1.772"/><ellipse fill="#004e00" transform="matrix(1 0 0 1.1 -444.7 -277.9)" cx="403.94" rx="3.543" cy="391.54" ry="1.772"/><path d="M-91.72 112.76s-1.428-1.474-1.428-2.21c-.028-.688 1.524-2.228 2.143-2.21.81-.018 2.143 1.472 2.143 2.21 0 .736-1.43 2.21-1.43 2.21v2.948s3.104-5.068 3.104-2.857c0 1.587-3.103 4.332-3.103 4.332h-1.43s-3.103-3.214-3.103-4.33c0-2.212 3.103 2.856 3.103 2.856v-2.948z" fill="#fff"/><path d="M-73.857 107.062s-1.715-2.063-1.715-3.095c-.034-.962 1.83-3.118 2.572-3.095.97-.023 2.572 2.063 2.572 3.095s-1.715 3.095-1.715 3.095v4.127s3.037-6.752 3.037-3.657c0 2-3.037 5.72-3.037 5.72h-1.714s-3.506-4.656-3.037-5.72c0-3.095 3.037 3.656 3.037 3.656v-4.128z" fill="#980000"/><path d="M-54.86 155.978s-1.428 1.474-1.428 2.21c-.028.687 1.524 2.227 2.143 2.21.81.017 2.143-1.473 2.143-2.21 0-.736-1.43-2.21-1.43-2.21v-2.948s3.104 5.068 3.104 2.857c0-1.586-3.103-4.33-3.103-4.33h-1.43s-3.103 3.213-3.103 4.33c0 2.21 3.103-2.857 3.103-2.857v2.948zM-55.22 112.76s-1.428-1.474-1.428-2.21c-.028-.688 1.524-2.228 2.143-2.21.81-.018 2.143 1.472 2.143 2.21 0 .736-1.43 2.21-1.43 2.21v2.948s3.104-5.068 3.104-2.857c0 1.587-3.103 4.332-3.103 4.332h-1.43s-3.103-3.214-3.103-4.33c0-2.212 3.103 2.856 3.103 2.856v-2.948z" fill="#fff"/><path d="M-106.273 145.593s-1.9 1.383-1.9 2.074c-.037.644 2.026 2.09 2.85 2.074 1.076.016 2.85-1.382 2.85-2.073 0-.69-1.9-2.074-1.9-2.074v-2.765s3.364 4.523 3.364 2.45c0-1.342-3.364-3.833-3.364-3.833h-1.9s-3.882 3.12-3.363 3.832c0 2.074 3.364-2.45 3.364-2.45v2.766zM-106.673 124.47s-1.9-1.382-1.9-2.073c-.037-.644 2.026-2.09 2.85-2.074 1.076-.015 2.85 1.383 2.85 2.074 0 .69-1.9 2.074-1.9 2.074v2.766s3.364-4.524 3.364-2.45c0 1.342-3.364 3.833-3.364 3.833h-1.9s-3.882-3.12-3.363-3.833c0-2.074 3.364 2.45 3.364 2.45v-2.766zM-40.423 145.15s-1.9 1.384-1.9 2.075c-.037.644 2.026 2.09 2.85 2.074 1.076.014 2.85-1.384 2.85-2.075 0-.69-1.9-2.074-1.9-2.074v-2.764s3.364 4.523 3.364 2.45c0-1.342-3.364-3.833-3.364-3.833h-1.9s-3.882 3.12-3.363 3.832c0 2.074 3.364-2.45 3.364-2.45v2.766zM-40.823 124.03s-1.9-1.382-1.9-2.073c-.037-.644 2.026-2.09 2.85-2.074 1.076-.015 2.85 1.383 2.85 2.074 0 .69-1.9 2.074-1.9 2.074v2.766s3.364-4.524 3.364-2.45c0 1.342-3.364 3.833-3.364 3.833h-1.9s-3.882-3.12-3.363-3.833c0-2.074 3.364 2.45 3.364 2.45v-2.766z" fill="#980000"/><path d="M-120.285 145.363c-.615-1.277-.453-1.86-.453-2.597-.028-.687 1.716-2.025 2.336-2.01.81-.015 2.143 1.475 2.143 2.212 0 .736.035 1.373-.297 2.643l-.893-2.153c-1.084 3.056-1.143 3.127-1.787-.074l-1.048 1.98zM-120.225 123.93c-.615 1.278-.453 1.862-.453 2.598-.028.687 1.716 2.025 2.336 2.01.81.015 2.143-1.475 2.143-2.212 0-.736.035-1.373-.297-2.643l-.893 2.154c-1.084-3.056-1.143-3.127-1.787.074l-1.048-1.98zM-27.805 145.093c-.615-1.277-.453-1.86-.453-2.597-.028-.687 1.716-2.025 2.336-2.01.81-.015 2.143 1.475 2.143 2.212 0 .736.035 1.373-.297 2.643l-.893-2.153c-1.084 3.056-1.143 3.127-1.787-.074l-1.048 1.98zM-27.755 123.655c-.615 1.277-.453 1.86-.453 2.597-.028.687 1.716 2.025 2.336 2.01.81.015 2.143-1.475 2.143-2.212 0-.736.035-1.373-.297-2.643l-.893 2.154c-1.084-3.055-1.143-3.126-1.787.075l-1.048-1.98z" fill="#fff"/><path d="M115.16 177.16v-5.315H99.216v-10.63H85.043v-3.543H72.64v-31.89h12.403v-3.543h14.173v-10.63h15.944v-5.316h21.26v5.315h15.945v10.63h14.173v3.542h12.402v31.89h-12.402v3.543h-14.173v10.63H136.42v5.315h-21.26zm-1.772 1.772v-5.315H97.444v-10.63H83.27v-3.543h-12.4V124.01h12.4v-3.543h14.174v-10.63h15.945v-5.315h24.802v5.315h15.945v10.63h14.173v3.544h12.402v35.434H168.31v3.543h-14.173v10.63h-15.945v5.315h-24.804z" transform="translate(-198.4 -7.1)" stroke="#000" stroke-width=".125" fill="#980000"/></g></g></svg>