<svg xmlns="http://www.w3.org/2000/svg" height="512" width="512" version="1"><defs><clipPath id="a"><path fill-opacity=".67" d="M124.02 0h496.06v496.06H124.02z"/></clipPath></defs><g fill-rule="evenodd" clip-path="url(#a)" transform="matrix(1 0 0 1 -128 0)"><path fill="#e70013" d="M0 0h744.09v496.06H0z"/><path d="M497.81 247.81c0 69.096-56.014 125.11-125.11 125.11s-125.108-56.015-125.108-125.11c0-69.097 56.013-125.11 125.11-125.11 69.095 0 125.108 56.014 125.108 125.11z" fill="#fff"/><path d="M372.705 330.782c-45.8 0-82.97-37.17-82.97-82.97s37.17-82.97 82.97-82.97c11.45 0 24.483 2.635 33.336 9.137-60.68 2.283-76.028 53.75-76.028 74.49s9.813 67.002 76.028 73.834c-7.535 4.857-21.885 8.478-33.335 8.478z" fill="#e70013"/><path fill="#e70013" d="M445.8 282.71l-37.68-13.74-24.92 31.41 1.43-40.07-37.58-14 38.56-11.02 1.69-40.07 22.4 33.27 38.63-10.77-24.71 31.58"/></g></svg>