<svg xmlns="http://www.w3.org/2000/svg" height="512" width="512"><defs><clipPath id="a"><path fill-opacity=".67" d="M0 0h512v512H0z"/></clipPath></defs><g clip-path="url(#a)"><path fill-rule="evenodd" fill="#fff" d="M.003-2.23h257.784v128.028H.003z"/><path d="M26.342-2.23l74.58 38.957V-2.23h-74.58z" fill="#006"/><path fill="#c00" d="M110.875-2.23v49.732H.01v28.42h110.865v49.73h34.114v-49.73h110.863V47.5H144.99V-2.23h-34.115z"/><path d="M154.933-2.23v36.707l72.963-36.423-72.963-.283zM.003 84.21v27.234l51.17-26.953-51.17-.284zM256.93 9.017l-60.89 30.196 60.08.225v44.996h-51.17l50.698 27.47.744 13.973-27.08-.323-74.11-36.384v36.707h-54.013V89.17l-69.52 36.61-31.4.097v127.878h511.7V-2.01l-254.5-.21M.27 12.213L0 38.774l53.87.673L.27 12.214z" fill="#006"/><g fill-rule="evenodd" stroke-width="1pt" fill="#009fca"><path d="M255.963-2.23H511.93v255.967H255.963z"/><path d="M-.004 125.753h270.12v127.984H-.003z"/></g><g fill-rule="evenodd" transform="matrix(.516 0 0 .516 -.004 258.81)" stroke-width="1pt" fill="#009fca"><path d="M505.97-19.81h486.16v515.87H505.97z"/><rect ry="0" height="521.41" width="523.49" y="-25.343"/></g><g fill-rule="evenodd" stroke-width="1pt" fill="#fff40d"><path d="M477.985 226.31l7.065 20.408-18.44-12.63-18.442 12.627 7.068-20.404-18.46-12.603 22.807.02 7.03-20.415 7.028 20.416 22.81-.015M420.762 389.03l7.065 20.408-18.44-12.63-18.442 12.627 7.068-20.404-18.46-12.603 22.807.02 7.03-20.415 7.028 20.416 22.808-.015M477.985 352.196l7.065 20.407-18.44-12.63-18.442 12.627 7.068-20.404-18.46-12.604 22.807.02 7.03-20.415 7.028 20.416 22.81-.015M231.935 470.212L239 490.62l-18.44-12.63-18.442 12.626 7.068-20.404-18.46-12.604 22.807.02 7.03-20.415 7.028 20.416 22.81-.016M274.866 381.756L267.8 361.35l18.442 12.628 18.44-12.626-7.067 20.404 18.46 12.604-22.807-.02-7.03 20.415-7.028-20.416-22.808.014M342.1 288.774l-7.066-20.407 18.44 12.63 18.442-12.627-7.068 20.404 18.46 12.604-22.807-.02-7.028 20.415-7.03-20.416-22.807.015M398.607 269.457l-7.065-20.407 18.44 12.63 18.442-12.627-7.068 20.404 18.46 12.604-22.807-.02-7.03 20.416-7.03-20.416-22.807.015M342.1 430.388l-7.066-20.407 18.44 12.63 18.442-12.626-7.068 20.404 18.46 12.604-22.807-.02-7.028 20.415-7.03-20.416-22.807.016M274.866 446.842l-7.065-20.407 18.442 12.63 18.44-12.627-7.067 20.404 18.46 12.604-22.807-.02-7.03 20.415-7.028-20.415-22.808.015"/></g></g></svg>