<svg xmlns="http://www.w3.org/2000/svg" height="512" width="512"><defs><clipPath id="a"><path fill-opacity=".67" d="M0 0h512v512H0z"/></clipPath></defs><g clip-path="url(#a)"><path fill-rule="evenodd" fill="#fff" d="M.003-2.23h257.784v128.028H.003z"/><path d="M.003-2.23l-.01 9.61L61.51 38.99l23.147.67L.003-2.23z" fill="#c00"/><path d="M26.342-2.23l74.58 38.957V-2.23h-74.58z" fill="#006"/><path fill="#c00" d="M110.875-2.23v49.732H.01v28.42h110.865v49.73h34.114v-49.73h110.863V47.5H144.99V-2.23h-34.115z"/><path d="M154.933-2.23v36.707l72.963-36.423-72.963-.283z" fill="#006"/><path d="M157.243 38.48l20.518-.167 79.712-40.26-21.15.346-79.08 40.08z" fill="#c00"/><path d="M.003 84.21v27.234l51.17-26.953-51.17-.284z" fill="#006"/><path d="M197.044 85.334l-21.332-.166 80.41 40.034-.53-9.16-58.548-30.708zM19.986 125.878L95.38 86.293l-19.802.13L.004 125.82" fill="#c00"/><path d="M256.93 9.017l-60.89 30.196 60.08.225v44.996h-51.17l50.698 27.47.744 13.973-27.08-.323-74.11-36.384v36.707h-54.013V89.17l-69.52 36.61-31.4.097v127.878h511.7V-2.01l-254.5-.21M.27 12.213L0 38.774l53.87.673L.27 12.214z" fill="#006"/><g fill-rule="evenodd" stroke-width="1pt" fill="#009fca"><path d="M255.983-2.23H511.97v255.987H255.982z"/><path d="M-.004 125.763h270.142v127.994H-.004z"/></g><g fill-rule="evenodd" transform="matrix(.5 0 0 .5 0 258.9)" stroke-width="1pt" fill="#009fca"><path d="M505.97-19.81h486.16v515.87H505.97z"/><rect ry="0" height="521.41" width="523.49" y="-25.343"/></g><g fill-rule="evenodd" stroke-width="1pt" fill="#fff40d"><path d="M478.056 226.298l7.064 20.407-18.44-12.63-18.437 12.627 7.067-20.404-18.458-12.605 22.804.02 7.028-20.415 7.03 20.416 22.803-.015M420.82 389.054l7.064 20.407-18.44-12.628-18.438 12.626 7.067-20.404-18.457-12.605 22.804.02 7.028-20.416 7.03 20.416 22.803-.015M478.056 352.21l7.064 20.408-18.44-12.63-18.437 12.627 7.067-20.404-18.458-12.604 22.804.022 7.028-20.417 7.03 20.418 22.803-.016M231.95 470.254l7.065 20.407-18.44-12.628-18.437 12.626 7.067-20.404-18.458-12.605 22.804.02 7.03-20.416 7.028 20.416 22.804-.015M275.02 381.825l-7.065-20.407 18.44 12.63 18.437-12.627-7.067 20.405 18.458 12.605-22.804-.02-7.03 20.415-7.028-20.416-22.804.014M342.267 288.823l-7.063-20.408 18.438 12.63 18.44-12.627-7.068 20.405 18.458 12.604-22.805-.02-7.028 20.416-7.03-20.417-22.804.015M398.787 269.5l-7.063-20.406 18.438 12.63 18.44-12.627-7.068 20.404 18.458 12.606-22.805-.02-7.028 20.415-7.03-20.415-22.804.015M342.267 430.468l-7.063-20.407 18.438 12.63 18.44-12.626-7.068 20.404 18.458 12.605-22.805-.02-7.028 20.415-7.03-20.416-22.804.015M275.02 446.925l-7.065-20.407 18.44 12.63 18.437-12.627-7.067 20.405 18.458 12.605-22.804-.02-7.03 20.415-7.028-20.416-22.804.014"/></g></g></svg>