<svg xmlns="http://www.w3.org/2000/svg" height="512" width="512"><defs><clipPath id="a"><path fill-opacity=".67" d="M0 0h496.06v496.06H0z"/></clipPath></defs><g fill-rule="evenodd" clip-path="url(#a)" stroke-width="1pt"><path fill="#de2110" d="M0 0h744.09v496.06H0z"/><path fill="#08399c" d="M0 0h373.69v248.03H0z"/><path fill="#fff" d="M273.324 173l-45.86-9.43 9.77 45.79-35.01-31.09-14.44 44.54-14.77-44.44-34.77 31.36 9.43-45.86-45.79 9.76 31.09-35-44.54-14.44 44.43-14.77-31.35-34.772 45.86 9.427-9.76-45.792 35 31.095 14.44-44.54 14.77 44.432 34.77-31.354-9.43 45.863 45.79-9.768-31.09 35.01 44.54 14.43-44.43 14.77"/><path fill="#005387" d="M231.045 169.48l-14.47 7.684-14.117 8.34-16.39-.564-16.393.19-13.914-8.662-14.297-8.017-7.706-14.44-8.362-14.07.556-16.347-.18-16.358 8.685-13.874 8.04-14.257 14.47-7.687 14.116-8.34 16.392.562 16.402-.186 13.914 8.66 14.288 8.018 7.706 14.438 8.362 14.07-.556 16.346.182 16.358-8.686 13.877"/><path d="M237.028 124.29c0 27.755-22.5 50.254-50.253 50.254s-50.253-22.5-50.253-50.253 22.5-50.252 50.253-50.252 50.253 22.5 50.253 50.253z" fill="#fff"/></g></svg>