<svg xmlns="http://www.w3.org/2000/svg" height="512" width="512"><defs><clipPath id="a"><path fill-opacity=".67" d="M124.02 0h496.06v496.06H124.02z"/></clipPath></defs><g clip-path="url(#a)" transform="matrix(1 0 0 1 -128 0)"><path fill-rule="evenodd" fill="#ffe700" d="M0 330.73h744.09v82.665H0z"/><path fill-rule="evenodd" d="M0 248.03h744.09v82.665H0z"/><path fill-rule="evenodd" fill="#de3908" d="M0 165.37h744.09v82.665H0z"/><path fill-rule="evenodd" fill="#ffe700" d="M0 82.7h744.09v82.666H0z"/><path fill-rule="evenodd" d="M0 0h744.09v82.665H0z"/><path d="M449.276 248.03c0 42.653-34.577 77.23-77.23 77.23s-77.23-34.577-77.23-77.23 34.577-77.23 77.23-77.23 77.23 34.577 77.23 77.23z" fill-rule="evenodd" stroke="#000" stroke-width=".67156pt" fill="#fffdff"/><path d="M358.42 188.825l-5.014-9.235c1.935-1.935 5.19-3.43 10.38-3.43 0 .352-.53 10.115-.53 10.115l-4.836 2.55z" fill-rule="evenodd" stroke="#000" stroke-width=".67156pt" fill="#de3108"/><path d="M363.255 186.368l.704-10.203s10.378-.616 16.007 6.156c.088-.087-5.54 7.917-5.54 7.917l-11.172-3.87z" fill-rule="evenodd" stroke="#000" stroke-width=".67156pt" fill="#ffe700"/><path d="M374.605 190.148l5.1-7.915c3.43 3.606 4.838 6.157 5.366 10.027.09.088-8.09 2.023-8.09 1.935s-2.287-3.96-2.375-4.047z" fill-rule="evenodd" stroke="#000" stroke-width=".67156pt" fill="#de3108"/><path stroke-linejoin="round" d="M360.972 320.847s9.587-10.994 28.234-8.62c-2.815-4.573-11.874-4.045-11.874-4.045s-2.814-21.373-.616-22.43 11.522.09 11.522.09c1.23 0 3.343-3.343 1.672-5.454-1.672-2.11-6.597-10.203-4.574-11.787 2.023-1.58 13.017.88 13.017.88l-31.048-39.755s-3.166-14.952 3.166-22.164c7.654-6.332 6.862-13.193 6.598-13.105-1.056-6.948-11.61-11.962-18.734-5.54-4.222 5.1-1.408 8.97-1.408 8.97s-11.082 2.99-11.522 4.926c-.44 1.936 12.49-.35 12.49-.35l-1.232 8.883S331.507 234.21 350.77 254c.175-.087.615-.88.615-.88s6.773 8.358 13.897 10.204c6.684 6.86 6.07 5.805 6.07 5.805s1.318 10.818.087 12.93c-1.672-.53-18.735-1.144-21.287-.177-2.286.704-11.082.264-8.883 14.6 1.67-3.87 3.166-7.3 3.166-7.3s-.264 5.19 1.848 7.037c-.352-5.454 2.023-9.147 2.023-9.147s.44 5.98 1.758 6.86c1.32.88 1.32-9.675 8.62-8.796 7.3.88 12.578.616 12.578.616s2.463 20.67 1.67 22.605c-5.277-1.232-17.854.528-18.646 3.694 7.388-.44 10.82.44 10.82.44s-5.982 5.277-4.135 8.355z" fill-rule="evenodd" stroke="#000" stroke-linecap="round" stroke-width=".83945"/><path stroke-linejoin="round" d="M363.934 208.066s-18.304 20.175-10.407 35.613c.42-2.154.237-3.506.5-3.418-.44-.264 2.27 1.857 2.064 1.444.06-1.116-.824-3.508-.824-3.508l2.477.62-1.446-2.684 3.51.413s-1.24-3.303-.826-3.303c.413 0 2.89.207 2.89.207-5.205-9.34-.295-17.1 2.064-25.384z" fill-rule="evenodd" stroke="#9ca69c" stroke-linecap="round" stroke-width=".83945" fill="#9ca69c"/><path d="M370.293 190.76s.968 6.948-2.814 8.97c-.617.44-2.992 1.233-2.64 2.64.44 1.935 1.495 1.583 2.99 1.23 3.958-.703 8.532-9.146 2.463-12.84z" fill-rule="evenodd" stroke="#9ca69c" stroke-width=".67156pt" fill="#9ca69c"/><path d="M363.524 196.743c0 .826-.67 1.495-1.495 1.495-.827 0-1.496-.67-1.496-1.495 0-.826.67-1.495 1.495-1.495.825 0 1.494.67 1.494 1.495z" fill-rule="evenodd" fill="#fff"/><path d="M357.628 202.545c-.968.792-6.07 6.07-1.056 8.005 5.19-1.408 3.782-2.375 4.926-3.52.03-2.373-2.58-2.99-3.87-4.485z" fill-rule="evenodd" stroke="#000" stroke-width=".67156pt" fill="#de3108"/><path stroke-linejoin="round" d="M368.71 252.422c-.265 1.144-1.408 5.365.174 8.62 4.4-1.847 6.42-1.32 7.917-.352-3.605-2.903-5.012-4.134-8.09-8.268z" fill-rule="evenodd" stroke="#9ca69c" stroke-linecap="round" stroke-width=".83945" fill="#9ca69c"/><path stroke-linejoin="round" d="M376.277 272.388l.264 9.85s3.43.617 5.014 0c1.584-.615-.088-6.86-5.277-9.85z" fill-rule="evenodd" stroke="#fff" stroke-linecap="round" stroke-width=".83945" fill="#fff"/><path d="M401.165 273.617s-6.333-15.305-22.517-19.175-14.073-21.11-12.753-22.165c.704-1.495 1.23-3.782 5.893-1.582 4.662 2.198 26.123 13.016 29.2 13.544s.44 29.73.177 29.377z" fill-rule="evenodd" stroke="#000" stroke-width=".67156pt" fill="#9ca69c"/><path stroke-linejoin="round" d="M385.773 254.356c-.264.176 21.637 12.93 15.04 23.924 6.246-4.134 4.222-11.346 4.222-11.346s5.1 13.28-7.3 19.79c1.32 1.144 2.2.88 2.2.88l-2.112 2.11s-.968 1.583 7.388-2.463c-2.286 1.85-2.46 3.168-2.46 3.168s.614 1.76 6.067-2.99c-4.398 4.75-5.365 7.212-5.365 7.124 11.874-1.056 37.733-39.668-8.18-51.103 2.463 2.55 2.11 2.2 2.11 2.2l-11.61 8.706z" fill-rule="evenodd" stroke="#000" stroke-width=".83945" fill="#de3108"/><path stroke-linejoin="round" d="M386.74 250.575c2.99 2.11 4.045 2.815 4.397 3.87-2.726-.615-5.19-.44-5.19-.44s-5.892-5.628-6.947-6.068c-.792 0-5.366-2.903-5.366-2.903-2.286-1.143-4.397-9.06 4.047-6.772 8.707 4.133 9.94 4.486 9.94 4.486l10.378 3.254 5.98 6.685s-10.64-5.278-11.96-5.366c2.902 2.376 4.573 5.63 4.573 5.63-3.37-.968-6.302-1.847-9.85-2.375z" fill-rule="evenodd" stroke="#000" stroke-linecap="round" stroke-width=".83945" fill="#fff"/><path d="M345.318 203.338s10.203-2.463 11.434-2.11" stroke="#fff" stroke-linecap="round" stroke-width=".83945" fill="none"/><path fill-rule="evenodd" fill="#de3908" d="M0 413.4h744.09v82.665H0z"/></g></svg>