<svg xmlns="http://www.w3.org/2000/svg" height="512" width="512"><desc>The United States of America flag, produced by Daniel McRae</desc><defs><clipPath id="a"><path fill-opacity=".67" d="M0 0h130v130H0z"/></clipPath></defs><g fill-rule="evenodd" clip-path="url(#a)" transform="matrix(3.9 0 0 3.9 0 0)"><g stroke-width="1pt"><g fill="#bd3d44"><path d="M0 0h247v10H0zM0 20h247v10H0zM0 40h247v10H0zM0 60h247v10H0zM0 80h247v10H0zM0 100h247v10H0zM0 120h247v10H0z"/></g><g fill="#fff"><path d="M0 10h247v10H0zM0 30h247v10H0zM0 50h247v10H0zM0 70h247v10H0zM0 90h247v10H0zM0 110h247v10H0z"/></g></g><path fill="#192f5d" d="M0 0h98.8v70H0z"/><g fill="#fff"><path d="M8.233 2.996l.9 2.767h2.908L9.69 7.473l.9 2.766-2.355-1.71-2.353 1.71.9-2.767-2.355-1.71h2.91M24.7 2.996l.9 2.767h2.908l-2.353 1.71.898 2.766L24.7 8.53l-2.353 1.71.898-2.767-2.353-1.71h2.91M41.167 2.996l.9 2.767h2.908l-2.353 1.71.9 2.766-2.355-1.71-2.353 1.71.9-2.767-2.355-1.71h2.908M57.633 2.996l.9 2.767h2.908l-2.352 1.71.9 2.766-2.355-1.71-2.353 1.71.9-2.767-2.355-1.71h2.91M74.1 2.996l.9 2.767h2.908l-2.354 1.71.9 2.766L74.1 8.53l-2.353 1.71.898-2.767-2.353-1.71h2.91M90.567 2.996l.9 2.767h2.908l-2.354 1.71.9 2.766-2.353-1.71-2.353 1.71.898-2.767-2.353-1.71h2.908"/><g><path d="M16.467 9.996l.9 2.767h2.908l-2.353 1.71.898 2.766-2.353-1.71-2.353 1.71.898-2.767-2.353-1.71h2.908M32.933 9.996l.9 2.767h2.908l-2.353 1.71.9 2.766-2.354-1.71-2.353 1.71.9-2.767-2.355-1.71h2.91M49.4 9.996l.9 2.767h2.908l-2.353 1.71.9 2.766-2.355-1.71-2.353 1.71.9-2.767-2.355-1.71h2.91M65.867 9.996l.9 2.767h2.908l-2.353 1.71.898 2.766-2.353-1.71-2.353 1.71.9-2.767-2.355-1.71h2.908M82.333 9.996l.9 2.767h2.908l-2.353 1.71.9 2.766-2.354-1.71-2.353 1.71.898-2.767-2.353-1.71h2.91"/></g><g><path d="M8.233 16.996l.9 2.767h2.908l-2.352 1.71.9 2.766-2.355-1.71-2.353 1.71.9-2.767-2.355-1.71h2.91M24.7 16.996l.9 2.767h2.908l-2.353 1.71.898 2.766-2.353-1.71-2.353 1.71.898-2.767-2.353-1.71h2.91M41.167 16.996l.9 2.767h2.908l-2.353 1.71.9 2.766-2.355-1.71-2.353 1.71.9-2.767-2.355-1.71h2.908M57.633 16.996l.9 2.767h2.908l-2.352 1.71.9 2.766-2.355-1.71-2.353 1.71.9-2.767-2.355-1.71h2.91M74.1 16.996l.9 2.767h2.908l-2.354 1.71.9 2.766-2.354-1.71-2.353 1.71.898-2.767-2.353-1.71h2.91M90.567 16.996l.9 2.767h2.908l-2.354 1.71.9 2.766-2.353-1.71-2.353 1.71.898-2.767-2.353-1.71h2.908"/><g><path d="M16.467 23.996l.9 2.767h2.908l-2.353 1.71.898 2.766-2.353-1.71-2.353 1.71.898-2.767-2.353-1.71h2.908M32.933 23.996l.9 2.767h2.908l-2.353 1.71.9 2.766-2.354-1.71-2.353 1.71.9-2.767-2.355-1.71h2.91M49.4 23.996l.9 2.767h2.908l-2.353 1.71.9 2.766-2.355-1.71-2.353 1.71.9-2.767-2.355-1.71h2.91M65.867 23.996l.9 2.767h2.908l-2.353 1.71.898 2.766-2.353-1.71-2.353 1.71.9-2.767-2.355-1.71h2.908M82.333 23.996l.9 2.767h2.908l-2.353 1.71.9 2.766-2.354-1.71-2.353 1.71.898-2.767-2.353-1.71h2.91"/></g></g><g><path d="M8.233 30.996l.9 2.767h2.908l-2.352 1.71.9 2.766-2.355-1.71-2.353 1.71.9-2.767-2.355-1.71h2.91M24.7 30.996l.9 2.767h2.908l-2.353 1.71.898 2.766-2.353-1.71-2.353 1.71.898-2.767-2.353-1.71h2.91M41.167 30.996l.9 2.767h2.908l-2.353 1.71.9 2.766-2.355-1.71-2.353 1.71.9-2.767-2.355-1.71h2.908M57.633 30.996l.9 2.767h2.908l-2.352 1.71.9 2.766-2.355-1.71-2.353 1.71.9-2.767-2.355-1.71h2.91M74.1 30.996l.9 2.767h2.908l-2.354 1.71.9 2.766-2.354-1.71-2.353 1.71.898-2.767-2.353-1.71h2.91M90.567 30.996l.9 2.767h2.908l-2.354 1.71.9 2.766-2.353-1.71-2.353 1.71.898-2.767-2.353-1.71h2.908"/><g><path d="M16.467 37.996l.9 2.767h2.908l-2.353 1.71.898 2.766-2.353-1.71-2.353 1.71.898-2.767-2.353-1.71h2.908M32.933 37.996l.9 2.767h2.908l-2.353 1.71.9 2.766-2.354-1.71-2.353 1.71.9-2.767-2.355-1.71h2.91M49.4 37.996l.9 2.767h2.908l-2.353 1.71.9 2.766-2.355-1.71-2.353 1.71.9-2.767-2.355-1.71h2.91M65.867 37.996l.9 2.767h2.908l-2.353 1.71.898 2.766-2.353-1.71-2.353 1.71.9-2.767-2.355-1.71h2.908M82.333 37.996l.9 2.767h2.908l-2.353 1.71.9 2.766-2.354-1.71-2.353 1.71.898-2.767-2.353-1.71h2.91"/></g></g><g><path d="M8.233 44.996l.9 2.767h2.908l-2.352 1.71.9 2.766-2.355-1.71-2.353 1.71.9-2.767-2.355-1.71h2.91M24.7 44.996l.9 2.767h2.908l-2.353 1.71.898 2.766-2.353-1.71-2.353 1.71.898-2.767-2.353-1.71h2.91M41.167 44.996l.9 2.767h2.908l-2.353 1.71.9 2.766-2.355-1.71-2.353 1.71.9-2.767-2.355-1.71h2.908M57.633 44.996l.9 2.767h2.908l-2.352 1.71.9 2.766-2.355-1.71-2.353 1.71.9-2.767-2.355-1.71h2.91M74.1 44.996l.9 2.767h2.908l-2.354 1.71.9 2.766-2.354-1.71-2.353 1.71.898-2.767-2.353-1.71h2.91M90.567 44.996l.9 2.767h2.908l-2.354 1.71.9 2.766-2.353-1.71-2.353 1.71.898-2.767-2.353-1.71h2.908"/><g><path d="M16.467 51.996l.9 2.767h2.908l-2.353 1.71.898 2.766-2.353-1.71-2.353 1.71.898-2.767-2.353-1.71h2.908M32.933 51.996l.9 2.767h2.908l-2.353 1.71.9 2.766-2.354-1.71-2.353 1.71.9-2.767-2.355-1.71h2.91M49.4 51.996l.9 2.767h2.908l-2.353 1.71.9 2.766-2.355-1.71-2.353 1.71.9-2.767-2.355-1.71h2.91M65.867 51.996l.9 2.767h2.908l-2.353 1.71.898 2.766-2.353-1.71-2.353 1.71.9-2.767-2.355-1.71h2.908M82.333 51.996l.9 2.767h2.908l-2.353 1.71.9 2.766-2.354-1.71-2.353 1.71.898-2.767-2.353-1.71h2.91"/></g></g><g><path d="M8.233 58.996l.9 2.767h2.908l-2.352 1.71.9 2.766-2.355-1.71-2.353 1.71.9-2.767-2.355-1.71h2.91M24.7 58.996l.9 2.767h2.908l-2.353 1.71.898 2.766-2.353-1.71-2.353 1.71.898-2.767-2.353-1.71h2.91M41.167 58.996l.9 2.767h2.908l-2.353 1.71.9 2.766-2.355-1.71-2.353 1.71.9-2.767-2.355-1.71h2.908M57.633 58.996l.9 2.767h2.908l-2.352 1.71.9 2.766-2.355-1.71-2.353 1.71.9-2.767-2.355-1.71h2.91M74.1 58.996l.9 2.767h2.908l-2.354 1.71.9 2.766-2.354-1.71-2.353 1.71.898-2.767-2.353-1.71h2.91M90.567 58.996l.9 2.767h2.908l-2.354 1.71.9 2.766-2.353-1.71-2.353 1.71.898-2.767-2.353-1.71h2.908"/></g></g></g></svg>