<svg xmlns="http://www.w3.org/2000/svg" height="512" width="512" version="1" xmlns:xlink="http://www.w3.org/1999/xlink"><defs><linearGradient id="a"><stop stop-color="#faff00" offset="0"/><stop stop-color="#f5c402" offset="1"/></linearGradient><linearGradient id="c" y2="459.27" xlink:href="#a" gradientUnits="userSpaceOnUse" x2="123.79" gradientTransform="scale(.7 1.4)" y1="360.52" x1="123.79"/><clipPath id="b"><path fill-opacity=".67" d="M-.143-.34h496.74V496.4H-.143z"/></clipPath></defs><g clip-path="url(#b)" transform="matrix(1 0 0 1 .1 .3)"><g fill-rule="evenodd" transform="matrix(.5 0 0 .5 112.7 -59.9)"><path fill="#fff" d="M-240.65 126.95h1587v1059h-1587z"/><path d="M101.66 488.82c9.64 18.113 21.855 33.027 30.418 58.686 1.846 34.313-2.07 40.85 4.635 57.06 2.696 5.928 6.544 8.377 7.285 22.122-1.146 19.675-9.645 20.9-18 20.36-1.5-6.044-.002-9.947-10.648-20.358-5.765-6.16-12.613-16.348-16.234-29.493-1.127-12.074-1.758-27.767-7.786-40.892-8.675-14.17-9.97-21.07-18.21-28.49-8.487-9.874-8.003-13.337-12.65-24.095 11.39-18.45 22.186-20.33 41.19-14.9z" fill-opacity=".561" transform="rotate(135.2 53.5 425)" stroke="#cbaa19" stroke-width="3.125" fill="url(#c)"/><path d="M101.66 488.82c9.64 18.113 21.855 33.027 30.418 58.686 1.846 34.313-2.07 40.85 4.635 57.06 2.696 5.928 6.544 8.377 7.285 22.122-1.146 19.675-9.645 20.9-18 20.36-1.5-6.044-.002-9.947-10.648-20.358-5.765-6.16-12.613-16.348-16.234-29.493-1.127-12.074-1.758-27.767-7.786-40.892-8.675-14.17-9.97-21.07-18.21-28.49-8.487-9.874-8.003-13.337-12.65-24.095 11.39-18.45 22.186-20.33 41.19-14.9z" fill-opacity=".561" transform="rotate(-179.3 53.5 425)" stroke="#cbaa19" stroke-width="3.125" fill="url(#c)"/><path d="M101.66 488.82c9.64 18.113 21.855 33.027 30.418 58.686 1.846 34.313-2.07 40.85 4.635 57.06 2.696 5.928 6.544 8.377 7.285 22.122-1.146 19.675-9.645 20.9-18 20.36-1.5-6.044-.002-9.947-10.648-20.358-5.765-6.16-12.613-16.348-16.234-29.493-1.127-12.074-1.758-27.767-7.786-40.892-8.675-14.17-9.97-21.07-18.21-28.49-8.487-9.874-8.003-13.337-12.65-24.095 11.39-18.45 22.186-20.33 41.19-14.9z" fill-opacity=".561" transform="rotate(-134.4 53.5 425)" stroke="#cbaa19" stroke-width="3.125" fill="url(#c)"/><path d="M101.66 488.82c9.64 18.113 21.855 33.027 30.418 58.686 1.846 34.313-2.07 40.85 4.635 57.06 2.696 5.928 6.544 8.377 7.285 22.122-1.146 19.675-9.645 20.9-18 20.36-1.5-6.044-.002-9.947-10.648-20.358-5.765-6.16-12.613-16.348-16.234-29.493-1.127-12.074-1.758-27.767-7.786-40.892-8.675-14.17-9.97-21.07-18.21-28.49-8.487-9.874-8.003-13.337-12.65-24.095 11.39-18.45 22.186-20.33 41.19-14.9z" fill-opacity=".561" transform="rotate(-89.6 53.5 425)" stroke="#cbaa19" stroke-width="3.125" fill="url(#c)"/><path d="M101.66 488.82c9.64 18.113 21.855 33.027 30.418 58.686 1.846 34.313-2.07 40.85 4.635 57.06 2.696 5.928 6.544 8.377 7.285 22.122-1.146 19.675-9.645 20.9-18 20.36-1.5-6.044-.002-9.947-10.648-20.358-5.765-6.16-12.613-16.348-16.234-29.493-1.127-12.074-1.758-27.767-7.786-40.892-8.675-14.17-9.97-21.07-18.21-28.49-8.487-9.874-8.003-13.337-12.65-24.095 11.39-18.45 22.186-20.33 41.19-14.9z" fill-opacity=".561" transform="rotate(-44.7 53.5 425)" stroke="#cbaa19" stroke-width="3.125" fill="url(#c)"/><path d="M101.66 488.82c9.64 18.113 21.855 33.027 30.418 58.686 1.846 34.313-2.07 40.85 4.635 57.06 2.696 5.928 6.544 8.377 7.285 22.122-1.146 19.675-9.645 20.9-18 20.36-1.5-6.044-.002-9.947-10.648-20.358-5.765-6.16-12.613-16.348-16.234-29.493-1.127-12.074-1.758-27.767-7.786-40.892-8.675-14.17-9.97-21.07-18.21-28.49-8.487-9.874-8.003-13.337-12.65-24.095 11.39-18.45 22.186-20.33 41.19-14.9z" fill-opacity=".561" transform="rotate(45.3 53.5 425)" stroke="#cbaa19" stroke-width="3.125" fill="url(#c)"/><path d="M101.66 488.82c9.64 18.113 21.855 33.027 30.418 58.686 1.846 34.313-2.07 40.85 4.635 57.06 2.696 5.928 6.544 8.377 7.285 22.122-1.146 19.675-9.645 20.9-18 20.36-1.5-6.044-.002-9.947-10.648-20.358-5.765-6.16-12.613-16.348-16.234-29.493-1.127-12.074-1.758-27.767-7.786-40.892-8.675-14.17-9.97-21.07-18.21-28.49-8.487-9.874-8.003-13.337-12.65-24.095 11.39-18.45 22.186-20.33 41.19-14.9z" fill-opacity=".561" transform="rotate(90.2 53.5 425)" stroke="#cbaa19" stroke-width="3.125" fill="url(#c)"/><path fill="#002993" d="M345.13 247.98h1001.2V368.5H345.13zM345.13 482.62h1001.2v120.52H345.13z"/><path d="M101.66 488.82c9.64 18.113 21.855 33.027 30.418 58.686 1.846 34.313-2.07 40.85 4.635 57.06 2.696 5.928 6.544 8.377 7.285 22.122-1.146 19.675-9.645 20.9-18 20.36-1.5-6.044-.002-9.947-10.648-20.358-5.765-6.16-12.613-16.348-16.234-29.493-1.127-12.074-1.758-27.767-7.786-40.892-8.675-14.17-9.97-21.07-18.21-28.49-8.487-9.874-8.003-13.337-12.65-24.095 11.39-18.45 22.186-20.33 41.19-14.9z" fill-opacity=".561" stroke="#cbaa19" stroke-width="3.125" fill="url(#c)"/><path fill="#002993" d="M-240.65 714.54h1587v120.52h-1587zM-240.65 947.82h1587v120.52h-1587z"/><path d="M82.66 496.87L53.54 656.23V496.87h29.12z" stroke="#cbaa19" stroke-linecap="round" stroke-width="3.125" fill="#faff00"/><path d="M24.42 496.87l29.12 159.36V496.87H24.42z" stroke="#cbaa19" stroke-width="3.125" fill="#f5c402"/><path d="M124.995 455.1l92.338 133.105-112.89-112.478 20.552-20.628z" stroke="#cbaa19" stroke-linecap="round" stroke-width="3.125" fill="#faff00"/><path d="M83.89 496.356l133.444 91.85-112.89-112.478-20.554 20.628z" stroke="#cbaa19" stroke-width="3.125" fill="#f5c402"/><path d="M125.34 395.752l159.417 28.812-159.36.307-.056-29.118z" stroke="#cbaa19" stroke-linecap="round" stroke-width="3.125" fill="#faff00"/><path d="M125.46 453.992l159.303-29.426-159.36.307.056 29.12z" stroke="#cbaa19" stroke-width="3.125" fill="#f5c402"/><path d="M83.925 353.68l133.49-91.78-112.948 112.42-20.542-20.64z" stroke="#cbaa19" stroke-linecap="round" stroke-width="3.125" fill="#faff00"/><path d="M125.008 394.955l92.408-133.058-112.95 112.42 20.542 20.638z" stroke="#cbaa19" stroke-width="3.125" fill="#f5c402"/><path d="M24.278 353.212l28.808-159.417.31 159.36-29.118.057z" stroke="#cbaa19" stroke-linecap="round" stroke-width="3.125" fill="#faff00"/><path d="M82.52 353.098L53.09 193.795l.31 159.36 29.12-.057z" stroke="#cbaa19" stroke-width="3.125" fill="#f5c402"/><path d="M-17.922 394.924l-92.345-133.1L2.63 374.293l-20.552 20.63z" stroke="#cbaa19" stroke-linecap="round" stroke-width="3.125" fill="#faff00"/><path d="M23.186 353.664l-133.448-91.842L2.635 374.292l20.55-20.628z" stroke="#cbaa19" stroke-width="3.125" fill="#f5c402"/><path d="M-17.996 454.92l-159.673-27.356 159.352-1.762.322 29.117z" stroke="#cbaa19" stroke-linecap="round" stroke-width="3.125" fill="#faff00"/><path d="M-18.634 396.69l-159.03 30.878 159.352-1.762-.322-29.117z" stroke="#cbaa19" stroke-width="3.125" fill="#f5c402"/><path d="M23.85 496.635l-132.585 93.084L3.107 476.197l20.743 20.437z" stroke="#cbaa19" stroke-linecap="round" stroke-width="3.125" fill="#faff00"/><path d="M-17.636 455.763l-91.1 133.956L3.108 476.2l-20.743-20.437z" stroke="#cbaa19" stroke-width="3.125" fill="#f5c402"/><ellipse fill="#faff00" transform="translate(1 2.9)" cx="52.585" rx="82.224" cy="422.29" ry="81.268" stroke="#cbaa19" stroke-width="3.125"/></g></g></svg>