<svg xmlns="http://www.w3.org/2000/svg" height="512" width="512"><defs><clipPath id="a"><path fill-opacity=".67" d="M0 0h496.06v496.06H0z"/></clipPath></defs><g clip-path="url(#a)" fill-rule="evenodd"><path fill="#fff" d="M0 0h992.13v496.06H0z"/><path fill="#94acd4" d="M0 0h992.13v171.7H0z"/><path fill="#b73000" d="M0 160.33h992.13v11.374H0z"/><path fill="#00a900" d="M0 335.73h992.13v160.33H0z"/><path fill="#b73000" d="M0 335.73h992.13v11.374H0z"/><path fill="#feffff" d="M261.108 51.04l-9.238-6.355-9.146 6.505 3.156-10.802-8.97-6.728 11.185-.325 3.59-10.667 3.765 10.602 11.195.14-8.86 6.876M217.538 136.765l-9.238-6.356-9.146 6.504 3.156-10.802-8.97-6.728 11.185-.325 3.59-10.668 3.765 10.602 11.195.14-8.86 6.876M261.526 136.765l-9.238-6.356-9.146 6.504 3.156-10.802-8.97-6.728 11.185-.325 3.59-10.668 3.765 10.602 11.195.14-8.86 6.876M302.168 136.765l-9.238-6.356-9.146 6.504 3.156-10.802-8.97-6.728 11.185-.325 3.59-10.668 3.765 10.602 11.195.14-8.86 6.876M339.868 136.765l-9.238-6.356-9.146 6.504 3.156-10.802-8.97-6.728 11.185-.325 3.59-10.668 3.765 10.602 11.195.14-8.86 6.876M171.456 136.765l-9.238-6.356-9.146 6.504 3.156-10.802-8.97-6.728 11.185-.325 3.59-10.668 3.765 10.602 11.195.14-8.86 6.876M216.7 94.22l-9.238-6.357-9.146 6.505 3.156-10.802-8.97-6.728 11.185-.325 3.59-10.667 3.765 10.602 11.195.14-8.86 6.876M261.108 94.22l-9.238-6.357-9.146 6.505 3.156-10.802-8.97-6.728 11.185-.325 3.59-10.667 3.765 10.602 11.195.14-8.86 6.876M302.998 94.22l-9.238-6.357-9.146 6.505 3.156-10.802-8.97-6.728 11.185-.325 3.59-10.667 3.765 10.602 11.195.14-8.86 6.876M339.448 94.22l-9.238-6.357-9.146 6.505 3.156-10.802-8.97-6.728 11.185-.325 3.59-10.667 3.765 10.602 11.195.14-8.86 6.876M339.028 51.04l-9.238-6.355-9.146 6.505 3.156-10.802-8.97-6.728 11.185-.325 3.59-10.667 3.765 10.602 11.195.14-8.86 6.876M302.578 51.04l-9.238-6.355-9.146 6.505 3.156-10.802-8.97-6.728 11.185-.325 3.59-10.667 3.765 10.602 11.195.14-8.86 6.876"/><path d="M142.44 25.95C93.004 12.4 61.688 47.4 62.16 78.763c.47 31.366 29.377 64.577 73.99 56.292-70.098 32.85-105.95-18.893-104.52-59.978 2.462-48.56 57.045-88.16 110.81-49.127z" fill="#fff"/></g></svg>