<svg xmlns="http://www.w3.org/2000/svg" height="512" width="512" version="1" xmlns:xlink="http://www.w3.org/1999/xlink"><defs><linearGradient id="a"><stop stop-color="red" offset="0"/><stop stop-color="#ff0" offset="1"/></linearGradient><linearGradient id="c" y2="107.76" xlink:href="#a" gradientUnits="userSpaceOnUse" x2="92.551" gradientTransform="matrix(.7 0 0 1.5 -3.7 -.7)" y1="111.28" x1="103.08"/><linearGradient id="d" y2="107.76" xlink:href="#a" gradientUnits="userSpaceOnUse" x2="92.551" gradientTransform="matrix(.7 0 0 1.5 -3.7 -.5)" y1="111.28" x1="103.08"/><linearGradient id="e" y2="107.76" xlink:href="#a" gradientUnits="userSpaceOnUse" x2="92.551" gradientTransform="matrix(.7 0 0 1.5 -4.5 -.3)" y1="111.28" x1="103.08"/><linearGradient id="f" y2="107.76" xlink:href="#a" gradientUnits="userSpaceOnUse" x2="92.551" gradientTransform="matrix(.7 0 0 1.5 -3.7 0)" y1="111.28" x1="103.08"/><linearGradient id="g" y2="107.76" xlink:href="#a" gradientUnits="userSpaceOnUse" x2="92.551" gradientTransform="matrix(.7 0 0 1.5 -3.7 .2)" y1="111.28" x1="103.08"/><linearGradient id="h" y2="107.76" xlink:href="#a" gradientUnits="userSpaceOnUse" x2="92.551" gradientTransform="matrix(.7 0 0 1.5 -3.7 .4)" y1="111.28" x1="103.08"/><linearGradient id="i" y2="107.76" xlink:href="#a" gradientUnits="userSpaceOnUse" x2="92.551" gradientTransform="matrix(.7 0 0 1.5 -4.5 .4)" y1="111.28" x1="103.08"/><linearGradient id="j" y2="107.76" xlink:href="#a" gradientUnits="userSpaceOnUse" x2="92.551" gradientTransform="matrix(.7 0 0 1.5 -4.5 .2)" y1="111.28" x1="103.08"/><linearGradient id="k" y2="107.76" xlink:href="#a" gradientUnits="userSpaceOnUse" x2="92.551" gradientTransform="matrix(.7 0 0 1.5 -4.4 0)" y1="111.28" x1="103.08"/><linearGradient id="m" y2="107.76" xlink:href="#a" gradientUnits="userSpaceOnUse" x2="92.551" gradientTransform="matrix(.7 0 0 1.5 -4.5 -.5)" y1="111.28" x1="103.08"/><linearGradient id="n" y2="107.76" xlink:href="#a" gradientUnits="userSpaceOnUse" x2="92.551" gradientTransform="matrix(.7 0 0 1.5 -3.8 -.3)" y1="111.28" x1="103.08"/><linearGradient id="l" y2="107.76" xlink:href="#a" gradientUnits="userSpaceOnUse" x2="92.551" gradientTransform="matrix(.9 0 0 1.9 723.3 109.7)" y1="111.28" x1="103.08"/><clipPath id="b"><path fill-opacity=".67" d="M0 0h512v512H0z"/></clipPath></defs><g clip-path="url(#b)"><path fill="#006" d="M0 0h1024v512H0z"/><path fill-rule="evenodd" fill="#006" d="M0 0h512v256H0z"/><g stroke-width="1pt"><path d="M0 0v28.622L454.757 256h57.24v-28.62L57.242 0H0zm511.998 0v28.62L57.24 256H0v-28.622L454.757 0h57.24z" fill="#fff"/><path d="M213.333 0v256h85.333V0h-85.333zM0 85.333v85.333h511.998V85.333H0z" fill="#fff"/><path d="M0 102.4v51.2h511.998v-51.2H0zM230.4 0v256h51.2V0h-51.2zM0 256l170.666-85.334h38.16L38.162 256H0zM0 0l170.666 85.333h-38.16L0 19.08V0zm303.17 85.333L473.838 0h38.16L341.333 85.333h-38.16zM512 256l-170.666-85.334h38.16L512 236.92V256z" fill="#c00"/></g><path d="M256.39 193.617l213.68-.793-.396 190.29s7.532 28.94-89.593 72.943c34.887-3.568 72.944-40.832 72.944-40.832s15.46-19.82 22.993-8.72c7.532 11.1 14.668 16.65 20.218 21.01 5.55 4.36 9.91 16.254 1.585 24.975-8.325 8.72-21.407 9.91-24.975-.793-5.55 2.775-39.643 44.004-109.41 45.986-70.96-1.19-109.81-46.382-109.81-46.382s-9.514 15.065-22.993 3.172c-13.082-15.46-3.17-25.372-3.17-25.372s11.1-6.342 14.27-10.704c5.153-5.946 6.74-13.875 15.46-13.875 10.308.794 14.272 9.12 14.272 9.12s35.68 37.66 74.132 42.417c-86.818-41.625-89.99-67.393-89.593-73.736l.396-188.7z" fill-rule="evenodd" fill="#fff"/><path d="M261.54 198.767l203.76-1.19v183.15c.396 23.787-39.643 47.97-102.28 78.89-64.61-33.3-101.87-53.52-102.27-79.28l.793-181.56z" fill-rule="evenodd" stroke="#000" stroke-width="1.718" fill="#006129"/><path d="M286.042 400.578l12.028-17.665 12.086 17.702" stroke="#f7c600" stroke-width="1.2884pt" fill="none"/><path d="M300.486 393.966c0 1.32-1.07 2.39-2.388 2.39-1.32 0-2.39-1.07-2.39-2.39s1.07-2.39 2.39-2.39 2.39 1.07 2.388 2.39z" fill-rule="evenodd" stroke="#000" stroke-width=".8052817499999999" fill="#f7c600"/><path d="M288.303 413.63l18.647.052s.293-2.42-1.947-3.89c9.766-1.343 7.23-9.958 15.41-10.447 1.586.245-4.274 3.663-4.274 3.663s-4.933 3.48-2.687 5.25c1.783 1.404 2.564-.855 2.808-2.564.245-1.71 7.937-2.808 6.838-7.69-1.83-4.03-12.575 2.684-12.575 2.684l-7.665-.042c-.477-.86-2.59-4.31-4.77-4.326-2.59.094-4.412 4.368-4.412 4.368H276.34s-.595 4.448 8.195 5.303c1.98 2.586 3.514 3.308 5.234 3.977-1.148.956-1.47 2.112-1.466 3.662z" fill-rule="evenodd" stroke="#000" stroke-width=".80525" fill="#f7c600"/><path d="M289.646 409.84l15.532-.052M282.533 400.68s1.242 7.265 6.977 8.985" stroke="#000" stroke-width=".80525" fill="none"/><path d="M66.32 170.54c.445-2.15 1.26-2.522 2.15-5.267.15-2.67-2.15-2.374-1.482-4.08 1.187-1.855.593-3.635-1.632-5.045.445 2.448-2.894 4.748-2.894 6.75 0 2.004 1.707 1.56 1.484 4.6.148 1.78-.445 1.336-.593 3.042h2.967z" fill-rule="evenodd" stroke="#000" stroke-width=".625" fill="url(#c)" transform="matrix(1.3 0 0 1.3 196.1 180.9)"/><path d="M300.294 383.358c0 1.214-.983 2.2-2.197 2.2s-2.198-.986-2.198-2.2c0-1.213.983-2.198 2.197-2.198s2.198.985 2.197 2.198z" fill-rule="evenodd" stroke="#000" stroke-width=".80525" fill="#f7c600"/><path d="M285.362 364.22l12.028-17.666 12.086 17.702" stroke="#f7c600" stroke-width="1.2884pt" fill="none"/><path d="M299.806 357.607c0 1.32-1.07 2.39-2.388 2.39-1.32 0-2.39-1.07-2.39-2.39s1.07-2.39 2.39-2.39 2.39 1.07 2.388 2.39z" fill-rule="evenodd" stroke="#000" stroke-width=".8052817499999999" fill="#f7c600"/><path d="M287.623 377.27l18.647.053s.293-2.42-1.947-3.89c9.766-1.343 7.23-9.958 15.41-10.447 1.586.245-4.274 3.663-4.274 3.663s-4.933 3.48-2.687 5.248c1.783 1.405 2.564-.854 2.808-2.563.245-1.71 7.937-2.808 6.838-7.69-1.83-4.03-12.575 2.684-12.575 2.684l-7.665-.043c-.477-.86-2.59-4.31-4.77-4.326-2.59.095-4.412 4.37-4.412 4.37H275.66s-.595 4.447 8.195 5.302c1.98 2.585 3.514 3.307 5.234 3.976-1.148.956-1.47 2.112-1.466 3.662z" fill-rule="evenodd" stroke="#000" stroke-width=".80525" fill="#f7c600"/><path d="M288.966 373.482l15.532-.053M281.853 364.322s1.242 7.264 6.977 8.984" stroke="#000" stroke-width=".80525" fill="none"/><path d="M66.32 170.54c.445-2.15 1.26-2.522 2.15-5.267.15-2.67-2.15-2.374-1.482-4.08 1.187-1.855.593-3.635-1.632-5.045.445 2.448-2.894 4.748-2.894 6.75 0 2.004 1.707 1.56 1.484 4.6.148 1.78-.445 1.336-.593 3.042h2.967z" fill-rule="evenodd" stroke="#000" stroke-width=".625" fill="url(#d)" transform="matrix(1.3 0 0 1.3 195.4 144.5)"/><path d="M299.614 347c0 1.213-.983 2.198-2.197 2.198s-2.198-.985-2.198-2.2c0-1.212.983-2.197 2.197-2.197s2.198.986 2.197 2.2z" fill-rule="evenodd" stroke="#000" stroke-width=".80525" fill="#f7c600"/><path d="M413.142 331.167l12.028-17.665 12.086 17.702" stroke="#f7c600" stroke-width="1.2884pt" fill="none"/><path d="M427.586 324.555c0 1.32-1.07 2.39-2.388 2.39-1.32 0-2.39-1.07-2.39-2.39s1.07-2.39 2.39-2.39 2.39 1.07 2.388 2.39z" fill-rule="evenodd" stroke="#000" stroke-width=".8052817499999999" fill="#f7c600"/><path d="M415.403 344.218l18.647.053s.293-2.42-1.947-3.89c9.766-1.342 7.23-9.957 15.41-10.446 1.586.245-4.274 3.663-4.274 3.663s-4.933 3.48-2.687 5.25c1.783 1.404 2.564-.855 2.808-2.564.245-1.71 7.937-2.808 6.838-7.69-1.83-4.03-12.575 2.684-12.575 2.684l-7.665-.042c-.477-.86-2.59-4.31-4.77-4.326-2.59.093-4.412 4.367-4.412 4.367H403.44s-.595 4.448 8.195 5.303c1.98 2.585 3.514 3.307 5.234 3.976-1.148.956-1.47 2.112-1.466 3.662z" fill-rule="evenodd" stroke="#000" stroke-width=".80525" fill="#f7c600"/><path d="M416.746 340.43l15.532-.053M409.633 331.27s1.242 7.264 6.977 8.984" stroke="#000" stroke-width=".80525" fill="none"/><path d="M66.32 170.54c.445-2.15 1.26-2.522 2.15-5.267.15-2.67-2.15-2.374-1.482-4.08 1.187-1.855.593-3.635-1.632-5.045.445 2.448-2.894 4.748-2.894 6.75 0 2.004 1.707 1.56 1.484 4.6.148 1.78-.445 1.336-.593 3.042h2.967z" fill-rule="evenodd" stroke="#000" stroke-width=".625" fill="url(#e)" transform="matrix(1.3 0 0 1.3 323.2 111.5)"/><path d="M427.394 313.947c0 1.214-.983 2.2-2.197 2.2s-2.198-.986-2.198-2.2c0-1.213.983-2.198 2.197-2.198s2.198.984 2.197 2.197z" fill-rule="evenodd" stroke="#000" stroke-width=".80525" fill="#f7c600"/><path d="M288.342 295.823l12.028-17.665 12.086 17.703" stroke="#f7c600" stroke-width="1.2884pt" fill="none"/><path d="M302.786 289.212c0 1.32-1.07 2.39-2.388 2.39-1.32 0-2.39-1.07-2.39-2.39s1.07-2.39 2.39-2.39 2.39 1.07 2.388 2.39z" fill-rule="evenodd" stroke="#000" stroke-width=".8052817499999999" fill="#f7c600"/><path d="M290.603 308.875l18.647.053s.293-2.42-1.947-3.89c9.766-1.344 7.23-9.96 15.41-10.447 1.586.245-4.274 3.663-4.274 3.663s-4.933 3.48-2.687 5.25c1.783 1.405 2.564-.855 2.808-2.564.245-1.71 7.937-2.81 6.838-7.692-1.83-4.03-12.575 2.686-12.575 2.686l-7.665-.043c-.477-.86-2.59-4.31-4.77-4.325-2.59.095-4.412 4.37-4.412 4.37H278.64s-.595 4.447 8.195 5.3c1.98 2.586 3.514 3.308 5.234 3.977-1.148.956-1.47 2.112-1.466 3.663z" fill-rule="evenodd" stroke="#000" stroke-width=".80525" fill="#f7c600"/><path d="M291.946 305.087l15.532-.053M284.833 295.926s1.242 7.264 6.977 8.985" stroke="#000" stroke-width=".80525" fill="none"/><path d="M66.32 170.54c.445-2.15 1.26-2.522 2.15-5.267.15-2.67-2.15-2.374-1.482-4.08 1.187-1.855.593-3.635-1.632-5.045.445 2.448-2.894 4.748-2.894 6.75 0 2.004 1.707 1.56 1.484 4.6.148 1.78-.445 1.336-.593 3.042h2.967z" fill-rule="evenodd" stroke="#000" stroke-width=".625" fill="url(#f)" transform="matrix(1.3 0 0 1.3 198.4 76.1)"/><path d="M302.594 278.604c0 1.214-.983 2.198-2.197 2.198s-2.198-.984-2.198-2.198.983-2.198 2.197-2.198 2.198.984 2.197 2.198z" fill-rule="evenodd" stroke="#000" stroke-width=".80525" fill="#f7c600"/><g><path d="M288.612 261.085l12.028-17.665 12.086 17.702" stroke="#f7c600" stroke-width="1.2884pt" fill="none"/><path d="M303.056 254.473c0 1.32-1.07 2.39-2.388 2.39-1.32 0-2.39-1.07-2.39-2.39s1.07-2.39 2.39-2.39 2.39 1.07 2.388 2.39z" fill-rule="evenodd" stroke="#000" stroke-width=".8052817499999999" fill="#f7c600"/><path d="M290.873 274.136l18.647.053s.293-2.42-1.947-3.89c9.766-1.344 7.23-9.96 15.41-10.448 1.586.245-4.274 3.663-4.274 3.663s-4.933 3.48-2.687 5.25c1.783 1.404 2.564-.855 2.808-2.564.245-1.708 7.937-2.807 6.838-7.69-1.83-4.03-12.575 2.685-12.575 2.685l-7.665-.042c-.477-.86-2.59-4.31-4.77-4.326-2.59.094-4.412 4.368-4.412 4.368H278.91s-.595 4.448 8.195 5.303c1.98 2.585 3.514 3.307 5.234 3.976-1.148.956-1.47 2.112-1.466 3.662z" fill-rule="evenodd" stroke="#000" stroke-width=".80525" fill="#f7c600"/><path d="M292.216 270.348l15.532-.053M285.103 261.188s1.242 7.264 6.977 8.984" stroke="#000" stroke-width=".80525" fill="none"/><path d="M66.32 170.54c.445-2.15 1.26-2.522 2.15-5.267.15-2.67-2.15-2.374-1.482-4.08 1.187-1.855.593-3.635-1.632-5.045.445 2.448-2.894 4.748-2.894 6.75 0 2.004 1.707 1.56 1.484 4.6.148 1.78-.445 1.336-.593 3.042h2.967z" fill-rule="evenodd" stroke="#000" stroke-width=".625" fill="url(#g)" transform="matrix(1.3 0 0 1.3 198.7 41.4)"/><path d="M302.864 243.865c0 1.214-.983 2.2-2.197 2.2s-2.198-.986-2.198-2.2c0-1.213.983-2.198 2.197-2.198s2.198.985 2.197 2.198z" fill-rule="evenodd" stroke="#000" stroke-width=".80525" fill="#f7c600"/></g><g><path d="M289.272 225.84l12.028-17.666 12.086 17.702" stroke="#f7c600" stroke-width="1.2884pt" fill="none"/><path d="M303.716 219.227c0 1.32-1.07 2.39-2.388 2.39-1.32 0-2.39-1.07-2.39-2.39s1.07-2.39 2.39-2.39 2.39 1.07 2.388 2.39z" fill-rule="evenodd" stroke="#000" stroke-width=".8052817499999999" fill="#f7c600"/><path d="M291.533 238.89l18.647.053s.293-2.42-1.947-3.89c9.766-1.343 7.23-9.958 15.41-10.447 1.586.245-4.274 3.663-4.274 3.663s-4.933 3.48-2.687 5.248c1.783 1.405 2.564-.854 2.808-2.563.245-1.71 7.937-2.808 6.838-7.69-1.83-4.03-12.575 2.684-12.575 2.684l-7.665-.043c-.477-.86-2.59-4.31-4.77-4.326-2.59.095-4.412 4.37-4.412 4.37H279.57s-.595 4.447 8.195 5.302c1.98 2.585 3.514 3.307 5.234 3.976-1.148.956-1.47 2.112-1.466 3.662z" fill-rule="evenodd" stroke="#000" stroke-width=".80525" fill="#f7c600"/><path d="M292.876 235.102l15.532-.053M285.763 225.942s1.242 7.264 6.977 8.984" stroke="#000" stroke-width=".80525" fill="none"/><path d="M66.32 170.54c.445-2.15 1.26-2.522 2.15-5.267.15-2.67-2.15-2.374-1.482-4.08 1.187-1.855.593-3.635-1.632-5.045.445 2.448-2.894 4.748-2.894 6.75 0 2.004 1.707 1.56 1.484 4.6.148 1.78-.445 1.336-.593 3.042h2.967z" fill-rule="evenodd" stroke="#000" stroke-width=".625" fill="url(#h)" transform="matrix(1.3 0 0 1.3 199.4 6.1)"/><path d="M303.524 208.62c0 1.213-.983 2.198-2.197 2.198s-2.198-.985-2.198-2.2c0-1.212.983-2.197 2.197-2.197s2.198.986 2.197 2.2z" fill-rule="evenodd" stroke="#000" stroke-width=".80525" fill="#f7c600"/></g><g><path d="M414.092 226.413l12.028-17.665 12.086 17.702" stroke="#f7c600" stroke-width="1.2884pt" fill="none"/><path d="M428.536 219.8c0 1.32-1.07 2.39-2.388 2.39-1.32 0-2.39-1.07-2.39-2.39 0-1.318 1.07-2.388 2.39-2.388s2.39 1.07 2.388 2.39z" fill-rule="evenodd" stroke="#000" stroke-width=".8052817499999999" fill="#f7c600"/><path d="M416.353 239.464l18.647.053s.293-2.42-1.947-3.89c9.766-1.343 7.23-9.958 15.41-10.447 1.586.245-4.274 3.663-4.274 3.663s-4.933 3.48-2.687 5.25c1.783 1.404 2.564-.855 2.808-2.564.245-1.71 7.937-2.81 6.838-7.692-1.83-4.03-12.575 2.685-12.575 2.685l-7.665-.042c-.477-.86-2.59-4.31-4.77-4.325-2.59.094-4.412 4.368-4.412 4.368H404.39s-.595 4.448 8.195 5.303c1.98 2.585 3.514 3.307 5.234 3.976-1.148.956-1.47 2.112-1.466 3.662z" fill-rule="evenodd" stroke="#000" stroke-width=".80525" fill="#f7c600"/><path d="M417.696 235.676l15.532-.053M410.583 226.516s1.242 7.264 6.977 8.984" stroke="#000" stroke-width=".80525" fill="none"/><path d="M66.32 170.54c.445-2.15 1.26-2.522 2.15-5.267.15-2.67-2.15-2.374-1.482-4.08 1.187-1.855.593-3.635-1.632-5.045.445 2.448-2.894 4.748-2.894 6.75 0 2.004 1.707 1.56 1.484 4.6.148 1.78-.445 1.336-.593 3.042h2.967z" fill-rule="evenodd" stroke="#000" stroke-width=".625" fill="url(#i)" transform="matrix(1.3 0 0 1.3 324.2 6.7)"/><path d="M428.344 209.193c0 1.214-.983 2.2-2.197 2.2s-2.198-.986-2.198-2.2c0-1.213.983-2.198 2.197-2.198s2.198.985 2.197 2.198z" fill-rule="evenodd" stroke="#000" stroke-width=".80525" fill="#f7c600"/></g><g><path d="M412.952 261.012l12.028-17.665 12.086 17.702" stroke="#f7c600" stroke-width="1.2884pt" fill="none"/><path d="M427.396 254.4c0 1.32-1.07 2.39-2.388 2.39-1.32 0-2.39-1.07-2.39-2.39s1.07-2.39 2.39-2.39 2.39 1.07 2.388 2.39z" fill-rule="evenodd" stroke="#000" stroke-width=".8052817499999999" fill="#f7c600"/><path d="M415.213 274.063l18.647.053s.293-2.42-1.947-3.89c9.766-1.343 7.23-9.958 15.41-10.447 1.586.244-4.274 3.662-4.274 3.662s-4.933 3.48-2.687 5.25c1.783 1.404 2.564-.855 2.808-2.564.245-1.71 7.937-2.808 6.838-7.69-1.83-4.03-12.575 2.684-12.575 2.684l-7.665-.042c-.477-.86-2.59-4.31-4.77-4.326-2.59.094-4.412 4.368-4.412 4.368H403.25s-.595 4.448 8.195 5.303c1.98 2.585 3.514 3.307 5.234 3.976-1.148.957-1.47 2.113-1.466 3.663z" fill-rule="evenodd" stroke="#000" stroke-width=".80525" fill="#f7c600"/><path d="M416.556 270.275l15.532-.053M409.443 261.115s1.242 7.264 6.977 8.984" stroke="#000" stroke-width=".80525" fill="none"/><path d="M66.32 170.54c.445-2.15 1.26-2.522 2.15-5.267.15-2.67-2.15-2.374-1.482-4.08 1.187-1.855.593-3.635-1.632-5.045.445 2.448-2.894 4.748-2.894 6.75 0 2.004 1.707 1.56 1.484 4.6.148 1.78-.445 1.336-.593 3.042h2.967z" fill-rule="evenodd" stroke="#000" stroke-width=".625" fill="url(#j)" transform="matrix(1.3 0 0 1.3 323 41.3)"/><path d="M427.204 243.792c0 1.214-.983 2.2-2.197 2.2s-2.198-.986-2.198-2.2c0-1.213.983-2.198 2.197-2.198s2.198.985 2.197 2.198z" fill-rule="evenodd" stroke="#000" stroke-width=".80525" fill="#f7c600"/></g><g><path d="M411.422 296.376l12.028-17.665 12.086 17.704" stroke="#f7c600" stroke-width="1.2884pt" fill="none"/><path d="M425.866 289.765c0 1.32-1.07 2.39-2.388 2.39-1.32 0-2.39-1.07-2.39-2.39s1.07-2.39 2.39-2.39 2.39 1.07 2.388 2.39z" fill-rule="evenodd" stroke="#000" stroke-width=".8052817499999999" fill="#f7c600"/><path d="M413.683 309.428l18.647.053s.293-2.42-1.947-3.89c9.766-1.343 7.23-9.958 15.41-10.446 1.586.244-4.274 3.662-4.274 3.662s-4.933 3.48-2.687 5.25c1.783 1.405 2.564-.855 2.808-2.564.245-1.71 7.937-2.808 6.838-7.69-1.83-4.03-12.575 2.685-12.575 2.685l-7.665-.043c-.477-.86-2.59-4.31-4.77-4.326-2.59.095-4.412 4.37-4.412 4.37H401.72s-.595 4.447 8.195 5.3c1.98 2.586 3.514 3.308 5.234 3.977-1.148.956-1.47 2.112-1.466 3.663z" fill-rule="evenodd" stroke="#000" stroke-width=".80525" fill="#f7c600"/><path d="M415.026 305.64l15.532-.053M407.913 296.48s1.242 7.263 6.977 8.984" stroke="#000" stroke-width=".80525" fill="none"/><path d="M66.32 170.54c.445-2.15 1.26-2.522 2.15-5.267.15-2.67-2.15-2.374-1.482-4.08 1.187-1.855.593-3.635-1.632-5.045.445 2.448-2.894 4.748-2.894 6.75 0 2.004 1.707 1.56 1.484 4.6.148 1.78-.445 1.336-.593 3.042h2.967z" fill-rule="evenodd" stroke="#000" stroke-width=".625" fill="url(#k)" transform="matrix(1.3 0 0 1.3 321.5 76.7)"/><path d="M425.674 279.157c0 1.214-.983 2.198-2.197 2.198s-2.198-.984-2.198-2.198.983-2.198 2.197-2.198 2.198.983 2.197 2.197z" fill-rule="evenodd" stroke="#000" stroke-width=".80525" fill="#f7c600"/></g><path d="M412.95 400.937l12.028-17.665 12.086 17.702" stroke="#f7c600" stroke-width="1.288" fill="none"/><path d="M427.39 394.337c0 1.32-1.07 2.39-2.39 2.39s-2.388-1.07-2.387-2.39c0-1.32 1.07-2.39 2.388-2.39 1.32 0 2.39 1.07 2.39 2.39z" fill-rule="evenodd" stroke="#000" stroke-width=".805" fill="#f7c600"/><path d="M415.21 413.987l18.647.053s.292-2.42-1.948-3.89c9.766-1.344 7.23-9.96 15.408-10.447 1.587.244-4.273 3.663-4.273 3.663s-4.93 3.48-2.685 5.25c1.783 1.404 2.563-.855 2.808-2.564.244-1.71 7.935-2.808 6.836-7.692-1.83-4.028-12.575 2.686-12.575 2.686l-7.666-.042c-.478-.86-2.59-4.31-4.77-4.326-2.59.094-4.412 4.368-4.412 4.368h-17.337s-.594 4.448 8.196 5.303c1.98 2.583 3.514 3.305 5.235 3.975-1.147.955-1.47 2.112-1.465 3.662z" fill-rule="evenodd" stroke="#000" stroke-width=".805" fill="#f7c600"/><path d="M416.55 410.197l15.53-.053M409.44 401.047s1.243 7.264 6.977 8.985" stroke="#000" stroke-width=".805" fill="none"/><path d="M814.5 330.27c.573-2.772 1.625-3.25 2.772-6.786.19-3.44-2.772-3.06-1.912-5.257 1.53-2.39.765-4.683-2.103-6.5.574 3.155-3.727 6.118-3.727 8.698s2.198 2.008 1.91 5.926c.193 2.295-.572 1.722-.763 3.92h3.823z" fill-rule="evenodd" stroke="#000" stroke-width=".805" fill="url(#l)" transform="translate(-406 70.7)"/><path d="M427.22 383.75c0 1.214-.984 2.198-2.197 2.198-1.214 0-2.198-.984-2.198-2.198s.984-2.198 2.198-2.198 2.197.984 2.197 2.198z" fill-rule="evenodd" stroke="#000" stroke-width=".805" fill="#f7c600"/><g><path d="M412.762 365.957l12.028-17.665 12.086 17.702" stroke="#f7c600" stroke-width="1.2884pt" fill="none"/><path d="M427.206 359.345c0 1.32-1.07 2.39-2.388 2.39-1.32 0-2.39-1.07-2.39-2.39s1.07-2.39 2.39-2.39 2.39 1.07 2.388 2.39z" fill-rule="evenodd" stroke="#000" stroke-width=".8052817499999999" fill="#f7c600"/><path d="M415.023 379.008l18.647.053s.293-2.42-1.947-3.89c9.766-1.342 7.23-9.957 15.41-10.446 1.586.245-4.274 3.663-4.274 3.663s-4.933 3.48-2.687 5.25c1.783 1.404 2.564-.855 2.808-2.564.245-1.71 7.937-2.808 6.838-7.69-1.83-4.03-12.575 2.684-12.575 2.684l-7.665-.042c-.477-.86-2.59-4.31-4.77-4.326-2.59.093-4.412 4.367-4.412 4.367H403.06s-.595 4.448 8.195 5.303c1.98 2.585 3.514 3.307 5.234 3.976-1.148.956-1.47 2.112-1.466 3.662z" fill-rule="evenodd" stroke="#000" stroke-width=".80525" fill="#f7c600"/><path d="M416.366 375.22l15.532-.053M409.253 366.06s1.242 7.264 6.977 8.984" stroke="#000" stroke-width=".80525" fill="none"/><path d="M66.32 170.54c.445-2.15 1.26-2.522 2.15-5.267.15-2.67-2.15-2.374-1.482-4.08 1.187-1.855.593-3.635-1.632-5.045.445 2.448-2.894 4.748-2.894 6.75 0 2.004 1.707 1.56 1.484 4.6.148 1.78-.445 1.336-.593 3.042h2.967z" fill-rule="evenodd" stroke="#000" stroke-width=".625" fill="url(#m)" transform="matrix(1.3 0 0 1.3 322.9 146.2)"/><path d="M427.014 348.737c0 1.214-.983 2.2-2.197 2.2s-2.198-.986-2.198-2.2c0-1.213.983-2.198 2.197-2.198s2.198.984 2.197 2.197z" fill-rule="evenodd" stroke="#000" stroke-width=".80525" fill="#f7c600"/></g><g><path d="M311.142 333.444l12.028-17.665 12.086 17.7" stroke="#f7c600" stroke-width="1.2884pt" fill="none"/><path d="M325.586 326.832c0 1.32-1.07 2.39-2.388 2.39-1.32 0-2.39-1.07-2.39-2.39s1.07-2.39 2.39-2.39 2.39 1.07 2.388 2.39z" fill-rule="evenodd" stroke="#000" stroke-width=".8052817499999999" fill="#f7c600"/><path d="M313.403 346.495l18.647.053s.293-2.42-1.947-3.89c9.766-1.343 7.23-9.958 15.41-10.447 1.586.246-4.274 3.664-4.274 3.664s-4.933 3.48-2.687 5.25c1.783 1.404 2.564-.855 2.808-2.564.245-1.71 7.937-2.808 6.838-7.69-1.83-4.03-12.575 2.684-12.575 2.684l-7.665-.042c-.477-.86-2.59-4.31-4.77-4.326-2.59.094-4.412 4.368-4.412 4.368H301.44s-.595 4.448 8.195 5.303c1.98 2.585 3.514 3.307 5.234 3.976-1.148.956-1.47 2.112-1.466 3.662z" fill-rule="evenodd" stroke="#000" stroke-width=".80525" fill="#f7c600"/><path d="M314.746 342.707l15.532-.053M307.633 333.547s1.242 7.264 6.977 8.984" stroke="#000" stroke-width=".80525" fill="none"/><path d="M66.32 170.54c.445-2.15 1.26-2.522 2.15-5.267.15-2.67-2.15-2.374-1.482-4.08 1.187-1.855.593-3.635-1.632-5.045.445 2.448-2.894 4.748-2.894 6.75 0 2.004 1.707 1.56 1.484 4.6.148 1.78-.445 1.336-.593 3.042h2.967z" fill-rule="evenodd" stroke="#000" stroke-width=".625" fill="url(#n)" transform="matrix(1.3 0 0 1.3 221.2 113.7)"/><path d="M325.394 316.224c0 1.214-.983 2.2-2.197 2.2s-2.198-.986-2.198-2.2c0-1.213.983-2.198 2.197-2.198s2.198.985 2.197 2.198z" fill-rule="evenodd" stroke="#000" stroke-width=".80525" fill="#f7c600"/></g><g stroke="#000"><path d="M375.5 417.404s4.867 11.22 10.41 4.325 3.513-9.868 3.513-9.868l-12.435-6.76-3.65 7.706 2.163 4.596z" fill-rule="evenodd" stroke-width=".80525" fill="#f7c600"/><path d="M386.182 415.922s.81.135 1.487-1.08-1.488-1.76-2.434-3.11l-1.082 2.163 2.028 2.027zM358.056 412.946l-10.95 5.947s-5.405 1.082-5.81 0c-.406-1.08.134-2.027 2.973-2.162 2.837-.135 10.542-7.163 10.542-7.163l3.244 3.38zM358.198 218.436s.27 2.568.405 3.92-2.162 4.19-2.298 4.055-1.216.136-1.08.947 1.756 1.082 1.756 1.082-.675 2.837 0 2.972c.677.135-1.756 3.65 0 4.596 1.758.946 4.732 2.163 6.084 1.892 1.352-.27 0 5.272 0 5.272l-3.785 8.11 20.815-2.163-4.326-6.894s-2.028-1.352-1.488-5.272-.27-21.627-.27-21.627l-14.868-2.028-.946 5.136zM354.41 249.255s-6.758 3.11-6.488 11.49c-1.757 8.11-2.704 16.22-2.704 16.22s-7.974 9.055-10.407 12.3c-2.432 3.243-6.082 9.866-7.434 11.623s-6.623 7.57-6.488 9.733c.135 2.163-1.216 11.76 4.055 12.842 1.352.54 5.677-11.084 5.677-11.084s.27-5-1.216-5.948 3.244-4.19 3.244-4.19 9.056-6.623 11.084-8.245 7.57-7.84 7.57-7.84l3.108-36.9z" fill-rule="evenodd" stroke-width=".80525" fill="#ffc6b5"/><path d="M362.115 242.902s1.757 4.73 5.677 3.92c3.92-.812 8.515-4.46 8.515-4.46s3.65-.136 4.19.404c.54.54 9.868 9.597 9.597 12.436-.27 2.838-4.325 2.027-5.812 3.92s-3.92 6.623-3.244 10.137 2.704 8.11 2.433 9.867-1.756 2.297-1.756 3.244c0 .947 1.217 2.57 1.217 4.326s-1.62 4.325-1.35 6.083c.27 1.756.404 6.892.404 6.892l-.405 23.79s1.35.81 1.486 2.163c.135 1.352 9.19 40.685 9.19 40.685s-.404 1.217-1.35 1.082 3.65 6.082 3.784 7.84 4.73 15.544 4.596 17.437c-.135 1.89-.81 6.08-1.217 6.216-.406.135 2.973 8.65 2.432 10.003-.54 1.35-6.082 1.215-6.082 1.215l-1.487-.27s.135 1.757-.946 1.892-9.056-.405-9.056-.405-2.297 3.514-3.65 3.38c-1.35-.136-3.108-2.57-3.513-2.164-.406.406 1.216 2.704.81 3.38-.405.675-7.298 2.162-8.65-1.082-1.352-3.244.81-2.433.405-3.11-.405-.675-3.514-2.432-4.46-1.89s2.433 1.35 2.298 2.702c-.135 1.352-2.974 3.38-4.055 3.38s-3.65-5.002-7.435-4.46c-3.784.54-6.217 1.486-6.217 1.486s-4.46 1.892-6.353 1.487c-1.893-.405-2.704-1.892-2.704-2.703 0-.81 1.352-4.325 1.217-5.406s-1.217-2.162-1.217-3.784c0-1.622 3.11-7.164 3.11-7.164l-.136-24.87s-2.84-.002-2.974-1.76 4.326-39.332 5-41.766c.677-2.433 2.435-11.084 2.435-11.084s-2.027.946-2.162 0 6.082-22.437 6.082-22.437 1.082-10.68 1.082-13.517c0-2.838-.54-6.758-.54-6.758s-5.55-2.35-5.678-5.948c-.508-5.725 5.272-8.92 5.947-10.813l2.705-7.57s2.974-5.137 7.84-5.948z" fill-rule="evenodd" stroke-width=".80525" fill="#fff"/><path d="M360.092 414.57s-13.11 6.893-15.004 7.434c-1.892.54-3.11-2.298-1.216-2.84 1.892-.54 4.866-.81 4.866-.81s-4.46-3.514-4.326-3.65c.136-.135 6.083-2.297 6.218-2.297s1.893 3.514 3.11 3.244 4.73-2.973 4.73-2.973 1.892 2.163 1.622 1.892z" fill-rule="evenodd" stroke-width=".80525" fill="#f7c600"/><path d="M378.567 418.344c1.24 1.6 1.725 4.372 4.563 2.75 2.84-1.622-1.454-4.632-1.454-4.632l-3.11 1.882z" fill-rule="evenodd" stroke-width=".80525" fill="#ffc6b5"/><path d="M383.747 418.074s1.35 1.08 2.568-.135-2.433-3.786-2.433-3.786l-1.757 2.027 1.622 1.894z" fill-rule="evenodd" stroke-width=".80525" fill="#ffc6b5"/><path d="M379.688 248.172s-12.03 7.705-11.76 10.408M382.394 249.524s-2.703 2.974-2.838 2.974M386.04 252.768s-5.947 4.866-5 7.975M357.927 247.497s-1.757 3.65-1.35 4.866c.404 1.217 3.378 5.813 3.783 8.65.406 2.84 0 4.867 0 4.867M354.822 254.255s.54 4.325 1.352 5.136c.81.812 2.974 4.462 3.244 5.95M353.74 272.232s3.514 1.757 6.758-5M365.76 262.5c-.134 0-2.567 6.624 1.758 9.057s7.57 2.163 9.462 1.487c1.892-.676 3.92-1.892 3.92-1.892M363.88 270.61s.27 8.922 13.38 17.71M364.42 278.99s-.134 7.84 5.002 11.355M361.715 269.8s-3.92 11.624-7.03 12.84M360.49 278.316s-.134 8.38-1.215 11.354M358.198 291.697s2.703 3.38 5.677 3.11c2.974-.27 4.19-3.786 6.218-3.245 2.027.54 3.92 2.163 8.65 1.757M371.984 296.833s0 6.893 1.216 7.57.676 7.028.676 7.028M355.492 293.59s-.135 6.488-.946 8.786c-.81 2.298-2.433 6.218-2.163 9.597M347.246 315.762c.676-.27 2.974-2.298 2.974-2.298M351.434 314.95s-5.813 24.87-4.19 39.74M352.787 316.16s-2.974 18.655-1.623 22.17M351.305 315.62c.135 0 11.354.81 11.354.81M364.28 314.95s3.108 1.622 7.433 1.352M362.926 324.008s-.54 31.9-1.35 38.93M379.56 331.3s3.514 27.98 5.54 30.548M372.795 334.817s2.163 24.736 3.38 26.9M342.12 370.364s4.19-1.352 7.973-5.406c4.326 5.812 10.95.27 10.95.27s10.272 7.03 14.867-.81c7.03 4.595 10.543-.677 10.543-.677s2.57 3.92 4.46 3.515M379.688 369.965s5.272 24.736 13.11 31.764M352.516 367.388s.676 20.68 1.892 35.28M351.575 390.773s-.675 13.516-1.486 14.463M343.6 406.594s1.487 5.812 8.92.406c7.436-5.407 7.57 2.027 7.84 2.838.27.81 1.488 6.623 4.326 1.757M370.63 403.618s-1.216 12.03 9.463 3.244c10.678-8.786 12.435-.135 12.705 2.568" stroke-width=".80525" fill="none"/><path d="M357.786 217.624s2.973.406 4.595-.54c1.623-.946 3.516-1.352 4.867.54s2.298 1.758 2.298 1.758-2.027 5 0 5.54c2.028.542 2.974.542 3.11 1.218.134.676-1.758 2.163-1.217 2.838.54.676 1.487 1.487 1.622 2.028.135.54-1.217 2.84-.81 3.38.404.54 1.62 2.703 2.432 2.703.81 0 .27 3.378 2.703 2.567s2.298-2.974 2.298-2.974 2.568-.405 3.244-2.703c.676-2.298 2.298-2.84 2.298-2.84s3.244-1.756-1.08-4.46c0-18.923-12.437-16.895-12.437-16.895s-1.487-3.38-3.92-2.974c-2.433.407-2.568 3.245-4.325 2.975-1.757-.27-2.163-1.487-2.298-1.352-.135.135-1.622 2.838-1.622 3.514 0 .676-4.73-.946-4.326 2.57s2.704 3.378 2.57 3.107z" fill-rule="evenodd" stroke-width=".80525" fill="#9c5100"/><path d="M370.773 213.03s-.947 5.946 5.406 5.406c-.812 3.244 1.62 4.325 1.62 4.325M382.523 226.41c.135 0 2.838 1.757-.135 3.92M373.337 231.14s1.35 1.623 2.838 1.218c1.487-.406 3.92 1.486 3.92 1.486s2.027.676 2.298.27M365.09 236.278s4.596 1.757 7.57-5.542M356.574 228.573l2.704.135" stroke-width=".80525" fill="none"/><path stroke-linejoin="round" d="M356.987 231.276h2.433l-2.163.947" stroke-width=".80525" fill="none"/><path stroke-linejoin="round" d="M360.362 223.707c.406 0 1.893-.54 2.163-.135.27.405-1.622.676-2.163.135z" stroke-width="1.44945" fill="none"/><path d="M389.557 255.822c.136 0 4.46 13.38 5.002 16.76.54 3.38 2.297 16.897 1.62 18.79-.675 1.892-7.57 10.948-8.38 13.245-.81 2.298-5.677 11.084-5.677 11.084s-1.216 8.652-1.757 9.057c-.54.406 1.395 2.53 1.217 3.245-.27.804-3.92 4.595-5.542 4.19-1.62-.406-4.19-2.298-4.325-4.055s.135-7.57 1.352-9.057 7.57-16.49 7.975-17.437c.405-.946 5.812-12.706 5.947-14.733.134-2.027-1.683-6.716-3.594-8.436-4.255-12.52-2.583-20.072 6.16-22.653z" fill-rule="evenodd" stroke-width=".80525" fill="#ffc6b5"/><path d="M326.58 313.816l.212 5.924M321.03 313.378s3.798 6.352 3.48 9.737" stroke-width=".80525" fill="none"/><path stroke-linejoin="round" d="M371.932 326.65s2.84-.3 2.75 4.44c1.814-5.888 5.5-6.028 5.5-6.028" stroke-width=".80525" fill="none"/></g><path d="M362.25 462.02c57.086-1.586 93.954-42.814 93.557-43.21-.396-.397 7.532-11.497 13.875-9.912 6.343 1.586 15.46 20.218 26.56 24.182 5.55 8.722-1.585 16.65-3.963 18.236-2.38 1.586-13.083 5.947-14.67-.396-1.585-6.343-4.757-5.154-4.757-5.154s-50.743 49.554-109.41 47.572c-60.65.4-110.6-47.57-110.6-47.57l-4.36 4.757s-4.758 5.154-7.136 4.758c-2.38-.397-12.686-7.136-13.48-13.875-.792-6.74 6.344-11.1 6.344-11.1s17.444-13.48 19.426-20.614c3.964-3.965 11.496 2.774 11.496 2.774s45.986 52.725 97.125 49.554z" fill-rule="evenodd" stroke="#000" stroke-width="1.718" fill="#f7c600"/><path d="M233.02 431.36s4.717-1.258 6.447.708c1.73 1.965 13.6 13.6 13.6 13.6" stroke="#000" stroke-width="1.718" fill="none"/><path d="M243.79 436.86l-4.717 3.538s11.87 2.358 9.198 10.142M491.99 430.96s-2.36-1.258-6.054 1.494c-3.695 2.75-13.05 13.208-13.05 13.208" stroke="#000" stroke-width="1.718" fill="none"/><path d="M481.38 436.55l5.11 3.93s-10.692.708-8.333 10.85" stroke="#000" stroke-width="1.718" fill="none"/><path d="M293.45 443.94l-.344.482c-.717-.354-1.535-.42-2.453-.197-.675.174-1.945.807-3.812 1.9l-15.707 9.157-.43-.307 3.958-18.363c.48-2.213.697-3.558.656-4.032-.032-.47-.364-.987-.994-1.555l.344-.482 8.467 6.04-.344.48-.287-.204c-.765-.546-1.354-.822-1.768-.83-.293-.01-.53.11-.708.36-.112.157-.21.37-.296.635-.078.258-.25.994-.512 2.208l-2.506 11.478 9.074-5.338c1.092-.65 1.8-1.1 2.125-1.354.326-.253.57-.492.73-.718.185-.26.28-.54.284-.84.003-.298-.093-.596-.287-.892-.27-.414-.71-.84-1.328-1.28l.343-.482 5.797 4.134m5.64 27.295l-.283.52-9.953-5.444.284-.518.632.345c.552.302 1.05.447 1.494.435.315.002.625-.12.93-.367.226-.168.6-.73 1.122-1.684l6.848-12.52c.532-.975.814-1.61.844-1.91.03-.3-.066-.626-.287-.978-.205-.356-.575-.68-1.108-.972l-.632-.345.284-.52 9.953 5.444-.284.518-.632-.346c-.55-.3-1.05-.446-1.494-.434-.315-.002-.63.118-.944.36-.226.167-.6.73-1.122 1.683l-6.848 12.523c-.532.974-.813 1.61-.843 1.91-.022.304.07.635.277.99.22.353.6.675 1.132.966l.63.345m36.36-8.528l-2.565 7.204-.558-.197c.028-2.21-.448-4.067-1.43-5.57-.98-1.506-2.27-2.542-3.868-3.11-1.53-.545-2.954-.566-4.276-.063-1.32.492-2.464 1.432-3.434 2.82-.97 1.386-1.742 2.89-2.318 4.506-.698 1.96-1.08 3.76-1.143 5.402s.292 2.992 1.07 4.05c.788 1.062 1.89 1.846 3.307 2.35.493.175 1.013.304 1.56.386.563.076 1.15.11 1.765.102l1.514-4.25c.287-.804.416-1.34.387-1.612-.024-.28-.178-.58-.462-.895-.273-.314-.656-.558-1.148-.733l-.528-.188.2-.558 9.932 3.537-.2.557c-.77-.218-1.336-.3-1.694-.247-.345.047-.663.223-.952.527-.16.16-.37.61-.635 1.353l-1.514 4.25c-1.513.118-3.03.07-4.55-.143-1.515-.2-3.03-.57-4.548-1.11-1.94-.69-3.46-1.526-4.56-2.507-1.085-.987-1.97-2.083-2.65-3.288-.666-1.21-1.085-2.453-1.254-3.725-.21-1.637-.008-3.315.604-5.033 1.095-3.075 3.1-5.288 6.016-6.638 2.915-1.35 6.01-1.443 9.287-.276 1.015.36 1.9.767 2.657 1.218.413.238 1.045.723 1.893 1.456.863.726 1.384 1.12 1.565 1.186.28.1.578.092.89-.023.317-.125.678-.438 1.083-.94l.558.2m15.32 24.586l-.09.586-11.216-1.7.09-.586.71.108c.623.095 1.14.06 1.554-.104.296-.106.546-.328.748-.664.154-.235.313-.89.476-1.967l2.137-14.11c.165-1.097.21-1.792.137-2.084-.075-.29-.276-.565-.604-.82-.316-.263-.775-.44-1.376-.53l-.712-.11.09-.584 11.215 1.698-.09.585-.71-.108c-.623-.094-1.14-.06-1.554.105-.297.106-.55.326-.764.66-.154.236-.313.892-.476 1.968l-2.137 14.11c-.167 1.097-.213 1.792-.14 2.083.086.295.287.573.603.837.328.255.793.428 1.394.52l.712.106m29.113-7.072l-.427 7.65-19.24.98-.03-.59.72-.037c.628-.032 1.13-.17 1.5-.413.27-.164.47-.43.6-.8.105-.262.13-.936.074-2.022l-.728-14.253c-.056-1.108-.15-1.797-.28-2.068-.133-.27-.385-.5-.757-.683-.363-.195-.847-.277-1.455-.246l-.72.037-.03-.592 11.554-.59.03.592-.942.048c-.63.032-1.13.17-1.5.413-.27.164-.476.43-.617.8-.104.262-.13.936-.073 2.023l.704 13.805c.057 1.108.157 1.813.3 2.116.143.292.405.503.786.633.27.083.918.098 1.94.046l1.806-.094c1.15-.058 2.1-.31 2.845-.754.747-.444 1.374-1.116 1.884-2.018.52-.903.987-2.22 1.4-3.95l.656-.032m21.045-3.65l-7.344 2.192-.27 2.285c-.084.76-.06 1.36.07 1.798.175.583.538.942 1.09 1.077.326.082 1.042 0 2.15-.24l.17.567-6.915 2.065-.17-.567c.712-.336 1.234-.825 1.565-1.47.327-.654.607-1.88.84-3.674l2.48-18.81.29-.086 12.59 14.808c1.197 1.4 2.09 2.243 2.674 2.524.44.214.986.25 1.635.113l.17.567-10.057 3.004-.17-.567.414-.125c.808-.24 1.34-.523 1.6-.845.177-.23.22-.5.128-.806-.055-.184-.142-.364-.262-.54-.048-.086-.315-.423-.803-1.012l-1.878-2.26m-.86-.98l-5.236-6.234-1.05 8.112 6.287-1.878m27.726-28.253l2.78 5.17-.507.274c-.942-1.032-1.735-1.708-2.38-2.027-.65-.33-1.376-.477-2.18-.444-.45.023-1.12.274-2.012.754l-1.423.765 7.926 14.74c.525.978.905 1.56 1.14 1.75.244.184.57.286.982.307.416.006.896-.137 1.44-.43l.635-.34.28.52-10.006 5.38-.28-.52.634-.342c.555-.298.95-.637 1.18-1.016.174-.263.246-.592.215-.987-.018-.28-.284-.9-.8-1.86l-7.925-14.74-1.38.742c-1.288.692-2.076 1.467-2.366 2.325-.408 1.2-.34 2.564.2 4.09l-.535.287-2.782-5.173 17.164-9.228m13.014-7.717l5.32 7.05.344-.26c1.098-.828 1.634-1.773 1.608-2.836s-.48-2.317-1.358-3.766l.486-.365 6.84 9.07-.485.366c-.846-.91-1.673-1.555-2.48-1.935-.8-.386-1.497-.522-2.092-.407-.6.106-1.315.47-2.14 1.094l3.68 4.88c.72.953 1.198 1.508 1.435 1.663.246.148.53.207.855.176.324-.03.733-.23 1.227-.604l1.035-.78c1.618-1.22 2.63-2.57 3.035-4.053.414-1.488.256-3.16-.475-5.013l.473-.357 3.374 6.093-14.97 11.292-.358-.472.574-.434c.502-.38.84-.773 1.01-1.183.133-.288.15-.62.05-1-.06-.275-.42-.847-1.074-1.715l-8.595-11.394c-.59-.783-.975-1.248-1.152-1.395-.31-.233-.64-.344-.993-.333-.503.006-1.036.22-1.598.645l-.575.433-.357-.473 14.498-10.936 3.864 5.124-.485.366c-1.19-1.066-2.218-1.7-3.08-1.905-.855-.21-1.787-.136-2.797.225-.592.206-1.544.804-2.856 1.794l-1.788 1.348"/><path d="M258.42 445.57c70.91 57.515 140.41 58.57 208.41 0" fill="none"/></g></svg>