<svg xmlns="http://www.w3.org/2000/svg" height="512" width="512" version="1" xmlns:xlink="http://www.w3.org/1999/xlink"><defs><linearGradient id="a"><stop stop-color="red" offset="0"/><stop stop-color="#ff0" offset="1"/></linearGradient><linearGradient id="c" y2="107.76" xlink:href="#a" gradientUnits="userSpaceOnUse" x2="92.551" gradientTransform="matrix(.66 0 0 1.492 -3.68 -.673)" y1="111.28" x1="103.08"/><linearGradient id="d" y2="107.76" xlink:href="#a" gradientUnits="userSpaceOnUse" x2="92.551" gradientTransform="matrix(.66 0 0 1.492 -3.676 -.451)" y1="111.28" x1="103.08"/><linearGradient id="e" y2="107.76" xlink:href="#a" gradientUnits="userSpaceOnUse" x2="92.551" gradientTransform="matrix(.66 0 0 1.492 -4.457 -.249)" y1="111.28" x1="103.08"/><linearGradient id="f" y2="107.76" xlink:href="#a" gradientUnits="userSpaceOnUse" x2="92.551" gradientTransform="matrix(.66 0 0 1.492 -3.694 -.033)" y1="111.28" x1="103.08"/><linearGradient id="g" y2="107.76" xlink:href="#a" gradientUnits="userSpaceOnUse" x2="92.551" gradientTransform="matrix(.66 0 0 1.492 -3.696 .179)" y1="111.28" x1="103.08"/><linearGradient id="h" y2="107.76" xlink:href="#a" gradientUnits="userSpaceOnUse" x2="92.551" gradientTransform="matrix(.66 0 0 1.492 -3.7 .395)" y1="111.28" x1="103.08"/><linearGradient id="i" y2="107.76" xlink:href="#a" gradientUnits="userSpaceOnUse" x2="92.551" gradientTransform="matrix(.66 0 0 1.492 -4.463 .391)" y1="111.28" x1="103.08"/><linearGradient id="j" y2="107.76" xlink:href="#a" gradientUnits="userSpaceOnUse" x2="92.551" gradientTransform="matrix(.66 0 0 1.492 -4.456 .18)" y1="111.28" x1="103.08"/><linearGradient id="k" y2="107.76" xlink:href="#a" gradientUnits="userSpaceOnUse" x2="92.551" gradientTransform="matrix(.66 0 0 1.492 -4.446 -.036)" y1="111.28" x1="103.08"/><linearGradient id="m" y2="107.76" xlink:href="#a" gradientUnits="userSpaceOnUse" x2="92.551" gradientTransform="matrix(.66 0 0 1.492 -4.455 -.462)" y1="111.28" x1="103.08"/><linearGradient id="n" y2="107.76" xlink:href="#a" gradientUnits="userSpaceOnUse" x2="92.551" gradientTransform="matrix(.66 0 0 1.492 -3.833 -.263)" y1="111.28" x1="103.08"/><linearGradient id="l" y2="107.76" xlink:href="#a" gradientUnits="userSpaceOnUse" x2="92.551" gradientTransform="matrix(.85 0 0 1.922 723.32 109.68)" y1="111.28" x1="103.08"/><clipPath id="b"><path fill-opacity=".67" d="M0 0h512v512H0z"/></clipPath></defs><g clip-path="url(#b)"><path fill="#006" d="M0 0h1024v512H0z"/><path fill-rule="evenodd" fill="#006" d="M0 0h512v256H0z"/><g stroke-width="1pt"><path d="M0 0v28.622L454.757 256h57.24v-28.62L57.242 0H0zm511.998 0v28.62L57.24 256H0v-28.622L454.757 0h57.24z" fill="#fff"/><path d="M213.333 0v256h85.333V0h-85.333zM0 85.333v85.333h511.998V85.333H0z" fill="#fff"/><path d="M0 102.4v51.2h511.998v-51.2H0zM230.4 0v256h51.2V0h-51.2zM0 256l170.666-85.334h38.16L38.162 256H0zM0 0l170.666 85.333h-38.16L0 19.08V0zm303.17 85.333L473.838 0h38.16L341.333 85.333h-38.16zM512 256l-170.666-85.334h38.16L512 236.92V256z" fill="#c00"/></g><path d="M256.39 193.617l213.68-.793-.396 190.29s7.532 28.94-89.593 72.943c34.887-3.568 72.944-40.832 72.944-40.832s15.46-19.82 22.993-8.72c7.532 11.1 14.668 16.65 20.218 21.01 5.55 4.36 9.91 16.254 1.585 24.975-8.325 8.72-21.407 9.91-24.975-.793-5.55 2.775-39.643 44.004-109.41 45.986-70.96-1.19-109.81-46.382-109.81-46.382s-9.514 15.065-22.993 3.172c-13.082-15.46-3.17-25.372-3.17-25.372s11.1-6.342 14.27-10.704c5.153-5.946 6.74-13.875 15.46-13.875 10.308.794 14.272 9.12 14.272 9.12s35.68 37.66 74.132 42.417c-86.818-41.625-89.99-67.393-89.593-73.736l.396-188.7z" fill-rule="evenodd" fill="#fff"/><path d="M261.54 198.767l203.76-1.19v183.15c.396 23.787-39.643 47.97-102.28 78.89-64.61-33.3-101.87-53.52-102.27-79.28l.793-181.56z" fill-rule="evenodd" stroke="#000" stroke-width="1.718" fill="#006129"/><g stroke="#000"><path d="M300.45 393.89c0 1.32-1.07 2.39-2.388 2.39-1.32 0-2.388-1.07-2.388-2.39 0-1.318 1.07-2.388 2.388-2.388 1.32 0 2.388 1.07 2.388 2.39z" fill-rule="evenodd" stroke-width=".8049999999999999" fill="#f7c600"/><path d="M288.275 413.557l18.64.053s.293-2.42-1.946-3.89c9.763-1.342 7.226-9.954 15.403-10.442 1.587.244-4.27 3.66-4.27 3.66s-4.93 3.48-2.686 5.25c1.782 1.403 2.563-.855 2.807-2.564.244-1.71 7.933-2.807 6.835-7.69-1.832-4.026-12.572 2.686-12.572 2.686l-7.663-.042c-.477-.86-2.59-4.31-4.77-4.325-2.587.094-4.41 4.367-4.41 4.367h-17.331s-.594 4.447 8.193 5.3c1.978 2.585 3.512 3.307 5.232 3.976-1.147.955-1.47 2.11-1.465 3.66z" fill-rule="evenodd" stroke-width=".805" fill="#f7c600"/><path d="M282.506 400.613s1.242 7.262 6.975 8.98" stroke-width=".805" fill="none"/><path d="M66.32 170.54c.445-2.15 1.26-2.522 2.15-5.267.15-2.67-2.15-2.374-1.482-4.08 1.187-1.855.593-3.635-1.632-5.045.445 2.448-2.894 4.748-2.894 6.75 0 2.004 1.707 1.56 1.484 4.6.148 1.78-.445 1.336-.593 3.042h2.967z" fill-rule="evenodd" stroke-width=".625" fill="url(#c)" transform="matrix(1.288 0 0 1.288 196.13 180.867)"/><path d="M300.262 383.295c0 1.214-.984 2.198-2.197 2.198-1.214 0-2.197-.984-2.197-2.198 0-1.213.983-2.197 2.197-2.197 1.213 0 2.197.984 2.197 2.197z" fill-rule="evenodd" stroke-width=".805" fill="#f7c600"/></g><g stroke="#000"><path d="M299.77 357.532c0 1.32-1.07 2.39-2.388 2.39-1.32 0-2.388-1.07-2.388-2.39s1.07-2.39 2.388-2.39c1.32 0 2.388 1.07 2.388 2.39z" fill-rule="evenodd" stroke-width=".8049999999999999" fill="#f7c600"/><path d="M287.595 377.198l18.64.053s.293-2.418-1.946-3.888c9.763-1.343 7.226-9.955 15.403-10.443 1.587.243-4.27 3.66-4.27 3.66s-4.93 3.48-2.686 5.248c1.782 1.404 2.563-.854 2.807-2.563.244-1.71 7.933-2.807 6.835-7.69-1.832-4.026-12.572 2.686-12.572 2.686l-7.663-.04c-.477-.86-2.59-4.31-4.77-4.326-2.587.094-4.41 4.367-4.41 4.367h-17.331s-.594 4.448 8.193 5.302c1.978 2.584 3.512 3.306 5.232 3.975-1.147.955-1.47 2.11-1.465 3.66z" fill-rule="evenodd" stroke-width=".805" fill="#f7c600"/><path d="M281.826 364.254s1.242 7.262 6.975 8.98" stroke-width=".805" fill="none"/><path d="M66.32 170.54c.445-2.15 1.26-2.522 2.15-5.267.15-2.67-2.15-2.374-1.482-4.08 1.187-1.855.593-3.635-1.632-5.045.445 2.448-2.894 4.748-2.894 6.75 0 2.004 1.707 1.56 1.484 4.6.148 1.78-.445 1.336-.593 3.042h2.967z" fill-rule="evenodd" stroke-width=".625" fill="url(#d)" transform="matrix(1.288 0 0 1.288 195.45 144.508)"/><path d="M299.582 346.936c0 1.214-.984 2.198-2.197 2.198-1.214 0-2.197-.984-2.197-2.198 0-1.213.983-2.197 2.197-2.197 1.213 0 2.197.983 2.197 2.196z" fill-rule="evenodd" stroke-width=".805" fill="#f7c600"/></g><g stroke="#000"><path d="M427.55 324.48c0 1.32-1.07 2.39-2.388 2.39-1.32 0-2.388-1.07-2.388-2.39s1.07-2.39 2.388-2.39c1.32 0 2.388 1.07 2.388 2.39z" fill-rule="evenodd" stroke-width=".8049999999999999" fill="#f7c600"/><path d="M415.375 344.146l18.64.053s.293-2.42-1.946-3.89c9.763-1.343 7.226-9.955 15.403-10.443 1.587.244-4.27 3.66-4.27 3.66s-4.93 3.48-2.686 5.25c1.782 1.403 2.563-.855 2.807-2.564.244-1.71 7.933-2.807 6.835-7.69-1.832-4.026-12.572 2.686-12.572 2.686l-7.663-.043c-.477-.86-2.59-4.31-4.77-4.325-2.587.094-4.41 4.367-4.41 4.367h-17.331s-.594 4.446 8.193 5.3c1.978 2.584 3.512 3.306 5.232 3.975-1.147.955-1.47 2.11-1.465 3.66z" fill-rule="evenodd" stroke-width=".805" fill="#f7c600"/><path d="M409.606 331.202s1.242 7.262 6.975 8.98" stroke-width=".805" fill="none"/><path d="M66.32 170.54c.445-2.15 1.26-2.522 2.15-5.267.15-2.67-2.15-2.374-1.482-4.08 1.187-1.855.593-3.635-1.632-5.045.445 2.448-2.894 4.748-2.894 6.75 0 2.004 1.707 1.56 1.484 4.6.148 1.78-.445 1.336-.593 3.042h2.967z" fill-rule="evenodd" stroke-width=".625" fill="url(#e)" transform="matrix(1.288 0 0 1.288 323.23 111.456)"/><path d="M427.362 313.884c0 1.214-.984 2.198-2.197 2.198-1.214 0-2.197-.984-2.197-2.198 0-1.213.983-2.197 2.197-2.197 1.213 0 2.197.984 2.197 2.197z" fill-rule="evenodd" stroke-width=".805" fill="#f7c600"/></g><g stroke="#000"><path d="M302.75 289.136c0 1.32-1.07 2.39-2.388 2.39-1.32 0-2.388-1.07-2.388-2.39s1.07-2.39 2.388-2.39c1.32 0 2.388 1.07 2.388 2.39z" fill-rule="evenodd" stroke-width=".8049999999999999" fill="#f7c600"/><path d="M290.575 308.802l18.64.053s.293-2.42-1.946-3.89c9.763-1.342 7.226-9.954 15.403-10.442 1.587.244-4.27 3.66-4.27 3.66s-4.93 3.48-2.686 5.25c1.782 1.403 2.563-.855 2.807-2.564.244-1.71 7.933-2.808 6.835-7.69-1.832-4.027-12.572 2.685-12.572 2.685l-7.663-.042c-.477-.86-2.59-4.31-4.77-4.325-2.587.094-4.41 4.367-4.41 4.367h-17.331s-.594 4.447 8.193 5.3c1.978 2.585 3.512 3.307 5.232 3.976-1.147.956-1.47 2.112-1.465 3.662z" fill-rule="evenodd" stroke-width=".805" fill="#f7c600"/><path d="M284.806 295.858s1.242 7.262 6.975 8.98" stroke-width=".805" fill="none"/><path d="M66.32 170.54c.445-2.15 1.26-2.522 2.15-5.267.15-2.67-2.15-2.374-1.482-4.08 1.187-1.855.593-3.635-1.632-5.045.445 2.448-2.894 4.748-2.894 6.75 0 2.004 1.707 1.56 1.484 4.6.148 1.78-.445 1.336-.593 3.042h2.967z" fill-rule="evenodd" stroke-width=".625" fill="url(#f)" transform="matrix(1.288 0 0 1.288 198.43 76.112)"/><path d="M302.562 278.54c0 1.214-.984 2.198-2.197 2.198-1.214 0-2.197-.984-2.197-2.198 0-1.213.983-2.197 2.197-2.197 1.213 0 2.197.984 2.197 2.197z" fill-rule="evenodd" stroke-width=".805" fill="#f7c600"/></g><g stroke="#000"><path d="M303.02 254.398c0 1.32-1.07 2.39-2.388 2.39-1.32 0-2.388-1.07-2.388-2.39s1.07-2.39 2.388-2.39c1.32 0 2.388 1.07 2.388 2.39z" fill-rule="evenodd" stroke-width=".8049999999999999" fill="#f7c600"/><path d="M290.845 274.064l18.64.053s.293-2.42-1.946-3.89c9.763-1.342 7.226-9.954 15.403-10.442 1.587.244-4.27 3.66-4.27 3.66s-4.93 3.48-2.686 5.25c1.782 1.403 2.563-.855 2.807-2.564.244-1.708 7.933-2.806 6.835-7.688-1.832-4.027-12.572 2.685-12.572 2.685l-7.663-.042c-.477-.86-2.59-4.31-4.77-4.325-2.587.094-4.41 4.367-4.41 4.367h-17.331s-.594 4.447 8.193 5.3c1.978 2.585 3.512 3.307 5.232 3.976-1.147.955-1.47 2.11-1.465 3.66z" fill-rule="evenodd" stroke-width=".805" fill="#f7c600"/><path d="M285.076 261.12s1.242 7.262 6.975 8.98" stroke-width=".805" fill="none"/><path d="M66.32 170.54c.445-2.15 1.26-2.522 2.15-5.267.15-2.67-2.15-2.374-1.482-4.08 1.187-1.855.593-3.635-1.632-5.045.445 2.448-2.894 4.748-2.894 6.75 0 2.004 1.707 1.56 1.484 4.6.148 1.78-.445 1.336-.593 3.042h2.967z" fill-rule="evenodd" stroke-width=".625" fill="url(#g)" transform="matrix(1.288 0 0 1.288 198.7 41.374)"/><path d="M302.832 243.802c0 1.214-.984 2.198-2.197 2.198-1.214 0-2.197-.984-2.197-2.198 0-1.213.983-2.197 2.197-2.197 1.213 0 2.197.984 2.197 2.197z" fill-rule="evenodd" stroke-width=".805" fill="#f7c600"/></g><g stroke="#000"><path d="M303.68 219.152c0 1.32-1.07 2.39-2.388 2.39-1.32 0-2.388-1.07-2.388-2.39s1.07-2.39 2.388-2.39c1.32 0 2.388 1.07 2.388 2.39z" fill-rule="evenodd" stroke-width=".8049999999999999" fill="#f7c600"/><path d="M291.505 238.818l18.64.053s.293-2.418-1.946-3.888c9.763-1.343 7.226-9.955 15.403-10.443 1.587.243-4.27 3.66-4.27 3.66s-4.93 3.48-2.686 5.248c1.782 1.404 2.563-.854 2.807-2.563.244-1.71 7.933-2.807 6.835-7.69-1.832-4.026-12.572 2.686-12.572 2.686l-7.663-.04c-.477-.86-2.59-4.31-4.77-4.326-2.587.094-4.41 4.367-4.41 4.367h-17.331s-.594 4.448 8.193 5.302c1.978 2.584 3.512 3.306 5.232 3.975-1.147.955-1.47 2.11-1.465 3.66z" fill-rule="evenodd" stroke-width=".805" fill="#f7c600"/><path d="M285.736 225.874s1.242 7.262 6.975 8.98" stroke-width=".805" fill="none"/><path d="M66.32 170.54c.445-2.15 1.26-2.522 2.15-5.267.15-2.67-2.15-2.374-1.482-4.08 1.187-1.855.593-3.635-1.632-5.045.445 2.448-2.894 4.748-2.894 6.75 0 2.004 1.707 1.56 1.484 4.6.148 1.78-.445 1.336-.593 3.042h2.967z" fill-rule="evenodd" stroke-width=".625" fill="url(#h)" transform="matrix(1.288 0 0 1.288 199.36 6.128)"/><path d="M303.492 208.556c0 1.214-.984 2.198-2.197 2.198-1.214 0-2.197-.984-2.197-2.198 0-1.213.983-2.197 2.197-2.197 1.213 0 2.197.983 2.197 2.196z" fill-rule="evenodd" stroke-width=".805" fill="#f7c600"/></g><g stroke="#000"><path d="M428.5 219.726c0 1.32-1.07 2.39-2.388 2.39-1.32 0-2.388-1.07-2.388-2.39s1.07-2.39 2.388-2.39c1.32 0 2.388 1.07 2.388 2.39z" fill-rule="evenodd" stroke-width=".8049999999999999" fill="#f7c600"/><path d="M416.325 239.392l18.64.053s.293-2.42-1.946-3.89c9.763-1.342 7.226-9.954 15.403-10.442 1.587.244-4.27 3.66-4.27 3.66s-4.93 3.48-2.686 5.25c1.782 1.403 2.563-.855 2.807-2.564.244-1.71 7.933-2.808 6.835-7.69-1.832-4.027-12.572 2.685-12.572 2.685l-7.663-.042c-.477-.86-2.59-4.31-4.77-4.325-2.587.094-4.41 4.367-4.41 4.367h-17.331s-.594 4.447 8.193 5.3c1.978 2.585 3.512 3.307 5.232 3.976-1.147.956-1.47 2.112-1.465 3.662z" fill-rule="evenodd" stroke-width=".805" fill="#f7c600"/><path d="M410.556 226.448s1.242 7.262 6.975 8.98" stroke-width=".805" fill="none"/><path d="M66.32 170.54c.445-2.15 1.26-2.522 2.15-5.267.15-2.67-2.15-2.374-1.482-4.08 1.187-1.855.593-3.635-1.632-5.045.445 2.448-2.894 4.748-2.894 6.75 0 2.004 1.707 1.56 1.484 4.6.148 1.78-.445 1.336-.593 3.042h2.967z" fill-rule="evenodd" stroke-width=".625" fill="url(#i)" transform="matrix(1.288 0 0 1.288 324.18 6.702)"/><path d="M428.312 209.13c0 1.214-.984 2.198-2.197 2.198-1.214 0-2.197-.984-2.197-2.198 0-1.213.983-2.197 2.197-2.197 1.213 0 2.197.984 2.197 2.197z" fill-rule="evenodd" stroke-width=".805" fill="#f7c600"/></g><g stroke="#000"><path d="M427.36 254.325c0 1.32-1.07 2.39-2.388 2.39-1.32 0-2.388-1.07-2.388-2.39s1.07-2.39 2.388-2.39c1.32 0 2.388 1.07 2.388 2.39z" fill-rule="evenodd" stroke-width=".8049999999999999" fill="#f7c600"/><path d="M415.185 273.99l18.64.054s.293-2.42-1.946-3.89c9.763-1.342 7.226-9.954 15.403-10.442 1.587.244-4.27 3.66-4.27 3.66s-4.93 3.48-2.686 5.25c1.782 1.403 2.563-.855 2.807-2.564.244-1.71 7.933-2.807 6.835-7.69-1.832-4.026-12.572 2.686-12.572 2.686l-7.663-.042c-.477-.86-2.59-4.31-4.77-4.325-2.587.094-4.41 4.367-4.41 4.367h-17.331s-.594 4.447 8.193 5.3c1.978 2.585 3.512 3.307 5.232 3.976-1.147.955-1.47 2.11-1.465 3.66z" fill-rule="evenodd" stroke-width=".805" fill="#f7c600"/><path d="M409.416 261.047s1.242 7.262 6.975 8.98" stroke-width=".805" fill="none"/><path d="M66.32 170.54c.445-2.15 1.26-2.522 2.15-5.267.15-2.67-2.15-2.374-1.482-4.08 1.187-1.855.593-3.635-1.632-5.045.445 2.448-2.894 4.748-2.894 6.75 0 2.004 1.707 1.56 1.484 4.6.148 1.78-.445 1.336-.593 3.042h2.967z" fill-rule="evenodd" stroke-width=".625" fill="url(#j)" transform="matrix(1.288 0 0 1.288 323.04 41.301)"/><path d="M427.172 243.73c0 1.213-.984 2.197-2.197 2.197-1.214 0-2.197-.984-2.197-2.198s.983-2.198 2.197-2.198c1.213 0 2.197.984 2.197 2.197z" fill-rule="evenodd" stroke-width=".805" fill="#f7c600"/></g><g stroke="#000"><path d="M425.83 289.69c0 1.318-1.07 2.388-2.388 2.388-1.32 0-2.388-1.07-2.388-2.39 0-1.318 1.07-2.388 2.388-2.388 1.32 0 2.388 1.07 2.388 2.39z" fill-rule="evenodd" stroke-width=".8049999999999999" fill="#f7c600"/><path d="M413.655 309.355l18.64.053s.293-2.42-1.946-3.89c9.763-1.342 7.226-9.954 15.403-10.442 1.587.244-4.27 3.66-4.27 3.66s-4.93 3.48-2.686 5.25c1.782 1.403 2.563-.855 2.807-2.564.244-1.71 7.933-2.807 6.835-7.69-1.832-4.026-12.572 2.686-12.572 2.686l-7.663-.042c-.477-.86-2.59-4.31-4.77-4.325-2.587.095-4.41 4.368-4.41 4.368h-17.331s-.594 4.447 8.193 5.3c1.978 2.585 3.512 3.307 5.232 3.976-1.147.955-1.47 2.11-1.465 3.66z" fill-rule="evenodd" stroke-width=".805" fill="#f7c600"/><path d="M407.886 296.41s1.242 7.263 6.975 8.982" stroke-width=".805" fill="none"/><path d="M66.32 170.54c.445-2.15 1.26-2.522 2.15-5.267.15-2.67-2.15-2.374-1.482-4.08 1.187-1.855.593-3.635-1.632-5.045.445 2.448-2.894 4.748-2.894 6.75 0 2.004 1.707 1.56 1.484 4.6.148 1.78-.445 1.336-.593 3.042h2.967z" fill-rule="evenodd" stroke-width=".625" fill="url(#k)" transform="matrix(1.288 0 0 1.288 321.51 76.665)"/><path d="M425.642 279.093c0 1.214-.984 2.198-2.197 2.198-1.214 0-2.197-.983-2.197-2.197 0-1.213.983-2.197 2.197-2.197 1.213 0 2.197.984 2.197 2.197z" fill-rule="evenodd" stroke-width=".805" fill="#f7c600"/></g><path d="M427.39 394.337c0 1.32-1.07 2.39-2.39 2.39s-2.388-1.07-2.387-2.39c0-1.32 1.07-2.39 2.388-2.39 1.32 0 2.39 1.07 2.39 2.39zM415.21 413.987l18.647.053s.292-2.42-1.948-3.89c9.766-1.344 7.23-9.96 15.408-10.447 1.587.244-4.273 3.663-4.273 3.663s-4.93 3.48-2.685 5.25c1.783 1.404 2.563-.855 2.808-2.564.244-1.71 7.935-2.808 6.836-7.692-1.83-4.028-12.575 2.686-12.575 2.686l-7.666-.042c-.478-.86-2.59-4.31-4.77-4.326-2.59.094-4.412 4.368-4.412 4.368h-17.337s-.594 4.448 8.196 5.303c1.98 2.583 3.514 3.305 5.235 3.975-1.147.955-1.47 2.112-1.465 3.662z" fill-rule="evenodd" stroke="#000" stroke-width=".805" fill="#f7c600"/><path d="M409.44 401.047s1.243 7.264 6.977 8.985" stroke="#000" stroke-width=".805" fill="none"/><path d="M814.5 330.27c.573-2.772 1.625-3.25 2.772-6.786.19-3.44-2.772-3.06-1.912-5.257 1.53-2.39.765-4.683-2.103-6.5.574 3.155-3.727 6.118-3.727 8.698s2.198 2.008 1.91 5.926c.193 2.295-.572 1.722-.763 3.92h3.823z" fill-rule="evenodd" stroke="#000" stroke-width=".805" fill="url(#l)" transform="translate(-406.02 70.677)"/><path d="M427.2 383.727c0 1.214-.984 2.198-2.197 2.198-1.214 0-2.198-.984-2.198-2.198s.984-2.198 2.198-2.198 2.197.983 2.197 2.197z" fill-rule="evenodd" stroke="#000" stroke-width=".805" fill="#f7c600"/><g stroke="#000"><path d="M427.17 359.27c0 1.32-1.07 2.39-2.388 2.39-1.32 0-2.388-1.07-2.388-2.39s1.07-2.39 2.388-2.39c1.32 0 2.388 1.07 2.388 2.39z" fill-rule="evenodd" stroke-width=".8049999999999999" fill="#f7c600"/><path d="M414.995 378.936l18.64.053s.293-2.42-1.946-3.89c9.763-1.343 7.226-9.955 15.403-10.443 1.587.244-4.27 3.66-4.27 3.66s-4.93 3.48-2.686 5.25c1.782 1.403 2.563-.855 2.807-2.564.244-1.71 7.933-2.807 6.835-7.69-1.832-4.026-12.572 2.686-12.572 2.686l-7.663-.043c-.477-.86-2.59-4.31-4.77-4.325-2.587.094-4.41 4.367-4.41 4.367h-17.331s-.594 4.446 8.193 5.3c1.978 2.584 3.512 3.306 5.232 3.975-1.147.955-1.47 2.11-1.465 3.66z" fill-rule="evenodd" stroke-width=".805" fill="#f7c600"/><path d="M409.226 365.992s1.242 7.262 6.975 8.98" stroke-width=".805" fill="none"/><path d="M66.32 170.54c.445-2.15 1.26-2.522 2.15-5.267.15-2.67-2.15-2.374-1.482-4.08 1.187-1.855.593-3.635-1.632-5.045.445 2.448-2.894 4.748-2.894 6.75 0 2.004 1.707 1.56 1.484 4.6.148 1.78-.445 1.336-.593 3.042h2.967z" fill-rule="evenodd" stroke-width=".625" fill="url(#m)" transform="matrix(1.288 0 0 1.288 322.85 146.246)"/><path d="M426.982 348.674c0 1.214-.984 2.198-2.197 2.198-1.214 0-2.197-.984-2.197-2.198 0-1.213.983-2.197 2.197-2.197 1.213 0 2.197.984 2.197 2.197z" fill-rule="evenodd" stroke-width=".805" fill="#f7c600"/></g><g stroke="#000"><path d="M325.55 326.757c0 1.32-1.07 2.39-2.388 2.39-1.32 0-2.388-1.07-2.388-2.39s1.07-2.39 2.388-2.39c1.32 0 2.388 1.07 2.388 2.39z" fill-rule="evenodd" stroke-width=".8049999999999999" fill="#f7c600"/><path d="M313.375 346.423l18.64.053s.293-2.42-1.946-3.89c9.763-1.342 7.226-9.954 15.403-10.442 1.587.244-4.27 3.66-4.27 3.66s-4.93 3.48-2.686 5.25c1.782 1.403 2.563-.855 2.807-2.564.244-1.71 7.933-2.807 6.835-7.69-1.832-4.026-12.572 2.686-12.572 2.686l-7.663-.042c-.477-.86-2.59-4.31-4.77-4.325-2.587.093-4.41 4.366-4.41 4.366h-17.331s-.594 4.447 8.193 5.3c1.978 2.585 3.512 3.307 5.232 3.976-1.147.955-1.47 2.11-1.465 3.66z" fill-rule="evenodd" stroke-width=".805" fill="#f7c600"/><path d="M307.606 333.48s1.242 7.26 6.975 8.98" stroke-width=".805" fill="none"/><path d="M66.32 170.54c.445-2.15 1.26-2.522 2.15-5.267.15-2.67-2.15-2.374-1.482-4.08 1.187-1.855.593-3.635-1.632-5.045.445 2.448-2.894 4.748-2.894 6.75 0 2.004 1.707 1.56 1.484 4.6.148 1.78-.445 1.336-.593 3.042h2.967z" fill-rule="evenodd" stroke-width=".625" fill="url(#n)" transform="matrix(1.288 0 0 1.288 221.23 113.733)"/><path d="M325.362 316.16c0 1.215-.984 2.2-2.197 2.2-1.214 0-2.197-.985-2.197-2.2 0-1.212.983-2.196 2.197-2.196 1.213 0 2.197.984 2.197 2.197z" fill-rule="evenodd" stroke-width=".805" fill="#f7c600"/></g><g stroke="#000"><path d="M375.445 417.33s4.865 11.216 10.405 4.324 3.513-9.864 3.513-9.864l-12.43-6.756-3.65 7.702 2.162 4.594z" fill-rule="evenodd" stroke-width=".805" fill="#f7c600"/><path d="M386.123 415.85s.81.134 1.486-1.082-1.487-1.757-2.433-3.108l-1.08 2.162 2.026 2.027zM358.006 412.874l-10.945 5.945s-5.405 1.08-5.81 0c-.405-1.082.135-2.028 2.973-2.163 2.838-.135 10.54-7.162 10.54-7.162l3.243 3.38zM358.148 218.424s.27 2.568.405 3.92-2.162 4.188-2.297 4.053-1.216.135-1.08.946 1.755 1.08 1.755 1.08-.674 2.838 0 2.973c.677.136-1.755 3.65 0 4.595 1.758.947 4.73 2.163 6.082 1.892 1.35-.27 0 5.27 0 5.27l-3.783 8.108 20.807-2.162-4.324-6.89s-2.026-1.353-1.486-5.27c.54-3.92-.27-21.622-.27-21.622l-14.864-2.027-.946 5.134zM354.36 249.233s-6.756 3.108-6.485 11.486c-1.757 8.107-2.703 16.214-2.703 16.214s-7.972 9.053-10.405 12.296c-2.432 3.243-6.08 9.864-7.432 11.62s-6.62 7.568-6.486 9.73c.134 2.162-1.217 11.756 4.053 12.837 1.35.54 5.676-11.08 5.676-11.08s.27-5-1.218-5.946 3.243-4.188 3.243-4.188 9.054-6.62 11.08-8.242 7.568-7.838 7.568-7.838l3.108-36.89z" fill-rule="evenodd" stroke-width=".805" fill="#ffc6b5"/><path d="M362.063 242.882s1.757 4.73 5.675 3.92c3.92-.812 8.513-4.46 8.513-4.46s3.65-.136 4.19.405c.54.54 9.865 9.594 9.594 12.432-.27 2.836-4.324 2.025-5.81 3.917s-3.92 6.62-3.243 10.135 2.703 8.107 2.433 9.864-1.757 2.297-1.757 3.243c0 .945 1.217 2.566 1.217 4.323s-1.622 4.324-1.352 6.08c.272 1.757.407 6.892.407 6.892l-.406 23.783s1.353.81 1.488 2.162c.135 1.35 9.188 40.673 9.188 40.673s-.405 1.216-1.35 1.08 3.647 6.08 3.783 7.838 4.728 15.54 4.593 17.433c-.135 1.89-.81 6.08-1.216 6.215-.406.136 2.973 8.65 2.432 10-.54 1.35-6.082 1.216-6.082 1.216l-1.486-.27s.135 1.756-.946 1.892-9.053-.406-9.053-.406-2.298 3.513-3.65 3.378c-1.35-.135-3.107-2.567-3.512-2.162-.405.406 1.217 2.703.812 3.378-.406.676-7.297 2.163-8.65-1.08-1.35-3.244.812-2.433.407-3.108-.407-.676-3.514-2.433-4.46-1.892s2.432 1.35 2.297 2.702c-.135 1.352-2.973 3.378-4.054 3.378s-3.648-5-7.432-4.46c-3.782.542-6.215 1.488-6.215 1.488s-4.46 1.89-6.35 1.486c-1.892-.405-2.703-1.892-2.703-2.702s1.35-4.325 1.216-5.406-1.216-2.162-1.216-3.783c0-1.622 3.108-7.162 3.108-7.162l-.135-24.863s-2.838 0-2.973-1.757 4.324-39.32 5-41.754c.675-2.432 2.432-11.08 2.432-11.08s-2.027.946-2.162 0 6.08-22.43 6.08-22.43 1.08-10.675 1.08-13.513c0-2.837-.54-6.756-.54-6.756s-5.547-2.348-5.674-5.945c-.508-5.723 5.27-8.918 5.945-10.81l2.703-7.567s2.973-5.135 7.837-5.946z" fill-rule="evenodd" stroke-width=".805" fill="#fff"/><path d="M360.04 414.497s-13.106 6.89-14.998 7.432c-1.892.54-3.108-2.3-1.216-2.84 1.892-.54 4.865-.81 4.865-.81s-4.46-3.513-4.324-3.648c.136-.135 6.08-2.297 6.216-2.297s1.892 3.513 3.108 3.243 4.73-2.973 4.73-2.973 1.89 2.162 1.62 1.892z" fill-rule="evenodd" stroke-width=".805" fill="#f7c600"/><path d="M378.51 418.27c1.24 1.6 1.725 4.37 4.562 2.75 2.838-1.622-1.453-4.632-1.453-4.632l-3.11 1.882z" fill-rule="evenodd" stroke-width=".805" fill="#ffc6b5"/><path d="M383.69 418s1.35 1.08 2.566-.135-2.432-3.784-2.432-3.784l-1.757 2.028L383.69 418z" fill-rule="evenodd" stroke-width=".805" fill="#ffc6b5"/><path d="M379.63 248.15s-12.025 7.704-11.755 10.406M382.336 249.503s-2.702 2.972-2.837 2.972M385.98 252.746s-5.944 4.864-5 7.972M357.877 247.476s-1.757 3.65-1.35 4.865c.404 1.217 3.377 5.812 3.782 8.65.405 2.837 0 4.864 0 4.864M354.773 254.232s.54 4.324 1.35 5.135c.812.81 2.974 4.46 3.244 5.945M353.69 272.204s3.514 1.756 6.757-5M365.708 262.475c-.135 0-2.567 6.62 1.757 9.054s7.567 2.16 9.46 1.485c1.89-.676 3.917-1.892 3.917-1.892M363.828 270.583s.27 8.92 13.377 17.702M364.37 278.96s-.137 7.838 4.998 11.35M361.664 269.772s-3.92 11.62-7.027 12.837M360.44 278.285s-.135 8.378-1.216 11.35M358.148 291.663s2.702 3.378 5.675 3.108 4.19-3.783 6.216-3.242c2.026.54 3.917 2.162 8.647 1.756M371.93 296.797s0 6.89 1.215 7.567.676 7.026.676 7.026M355.443 293.555s-.135 6.486-.946 8.783c-.81 2.297-2.432 6.216-2.162 9.594M347.2 315.72c.675-.27 2.972-2.297 2.972-2.297M351.386 314.908s-5.81 24.864-4.19 39.728M352.738 316.12s-2.973 18.647-1.622 22.16M351.257 315.578c.135 0 11.35.81 11.35.81M364.227 314.908s3.108 1.622 7.432 1.352M362.874 323.963s-.54 31.89-1.35 38.917M379.503 331.253s3.513 27.972 5.54 30.54M372.74 334.77s2.163 24.728 3.38 26.89M342.073 370.305s4.19-1.35 7.973-5.405c4.324 5.81 10.945.27 10.945.27s10.27 7.027 14.864-.81c7.027 4.594 10.54-.676 10.54-.676s2.568 3.92 4.46 3.513M379.63 369.906s5.27 24.728 13.108 31.754M352.467 367.33s.676 20.675 1.892 35.268M351.527 390.707s-.675 13.513-1.486 14.46M343.554 406.524s1.487 5.81 8.92.405c7.43-5.406 7.566 2.026 7.836 2.837.27.81 1.487 6.62 4.324 1.757M370.577 403.55s-1.216 12.025 9.46 3.242c10.674-8.784 12.43-.135 12.7 2.567" stroke-width=".805" fill="none"/><path d="M357.735 217.613s2.973.405 4.595-.54c1.62-.946 3.513-1.352 4.864.54s2.297 1.756 2.297 1.756-2.025 5 0 5.54c2.028.54 2.974.54 3.11 1.216.135.676-1.757 2.162-1.217 2.837.54.676 1.487 1.487 1.622 2.027s-1.216 2.838-.81 3.38c.404.54 1.62 2.7 2.43 2.7.812 0 .272 3.38 2.704 2.57s2.296-2.974 2.296-2.974 2.567-.406 3.243-2.703c.675-2.297 2.296-2.837 2.296-2.837s3.243-1.757-1.08-4.46c0-18.918-12.433-16.89-12.433-16.89s-1.486-3.38-3.918-2.973c-2.433.405-2.568 3.243-4.324 2.973-1.756-.27-2.16-1.487-2.296-1.352-.136.135-1.622 2.838-1.622 3.514 0 .675-4.73-.946-4.324 2.567s2.702 3.378 2.567 3.108z" fill-rule="evenodd" stroke-width=".805" fill="#9c5100"/><path d="M370.718 213.02s-.946 5.944 5.405 5.404c-.81 3.243 1.622 4.324 1.622 4.324M382.465 226.396c.135 0 2.838 1.756-.135 3.918M373.282 231.125s1.35 1.622 2.837 1.217c1.485-.406 3.918 1.486 3.918 1.486s2.027.676 2.297.27M365.038 236.26s4.595 1.757 7.567-5.54" stroke-width=".805" fill="none"/><path stroke-linejoin="round" d="M356.937 231.26h2.432l-2.163.946" stroke-width=".805" fill="none"/><path stroke-linejoin="round" d="M360.31 223.694c.407 0 1.893-.54 2.163-.136.27.406-1.62.676-2.162.136z" stroke-width="1.449" fill="none"/><path d="M389.497 255.798c.136 0 4.46 13.377 5 16.756.54 3.378 2.297 16.89 1.622 18.783-.677 1.892-7.568 10.945-8.38 13.242-.81 2.296-5.675 11.08-5.675 11.08s-1.216 8.647-1.756 9.053c-.542.405 1.394 2.528 1.215 3.243-.268.804-3.92 4.594-5.54 4.19-1.622-.407-4.19-2.3-4.324-4.055s.136-7.566 1.352-9.053 7.567-16.485 7.972-17.43c.406-.947 5.81-12.703 5.946-14.73.135-2.027-1.68-6.714-3.592-8.434-4.253-12.517-2.582-20.065 6.16-22.645z" fill-rule="evenodd" stroke-width=".805" fill="#ffc6b5"/><path d="M320.99 313.337s3.798 6.35 3.48 9.733" stroke-width=".805" fill="none"/><path stroke-linejoin="round" d="M371.878 326.603s2.838-.298 2.75 4.442c1.812-5.888 5.498-6.028 5.498-6.028" stroke-width=".805" fill="none"/></g><path d="M362.23 461.997c57.086-1.586 93.954-42.814 93.557-43.21-.396-.397 7.532-11.497 13.875-9.912 6.343 1.586 15.46 20.218 26.56 24.182 5.55 8.722-1.585 16.65-3.963 18.236-2.38 1.586-13.083 5.947-14.67-.396-1.585-6.343-4.757-5.154-4.757-5.154s-50.743 49.554-109.41 47.572c-60.65.4-110.6-47.57-110.6-47.57l-4.36 4.757s-4.758 5.154-7.136 4.758c-2.38-.397-12.686-7.136-13.48-13.875-.792-6.74 6.344-11.1 6.344-11.1s17.444-13.48 19.426-20.614c3.964-3.964 11.496 2.775 11.496 2.775S311.098 465.17 362.237 462z" fill-rule="evenodd" stroke="#000" stroke-width="1.718" fill="#f7c600"/><path d="M233 431.337s4.717-1.258 6.447.708c1.73 1.965 13.6 13.6 13.6 13.6M243.77 436.837l-4.717 3.538s11.87 2.358 9.198 10.142M491.97 430.937s-2.36-1.258-6.054 1.494c-3.695 2.752-13.05 13.21-13.05 13.21M481.36 436.527l5.11 3.93s-10.692.708-8.333 10.85" stroke="#000" stroke-width="1.718" fill="none"/><path d="M293.43 443.917l-.344.482c-.717-.355-1.535-.42-2.453-.198-.675.174-1.945.807-3.812 1.9l-15.707 9.157-.43-.308 3.958-18.363c.48-2.214.697-3.56.656-4.033-.032-.47-.364-.987-.994-1.555l.344-.482 8.467 6.04-.344.48-.287-.204c-.765-.545-1.354-.82-1.768-.828-.293-.012-.53.108-.708.36-.112.156-.21.368-.296.634-.078.258-.25.994-.512 2.208l-2.506 11.478 9.074-5.34c1.092-.648 1.8-1.1 2.125-1.353.326-.253.57-.492.73-.718.185-.26.28-.54.284-.84.003-.298-.093-.596-.287-.892-.27-.414-.71-.84-1.328-1.28l.343-.482 5.797 4.134m5.64 27.295l-.283.52-9.953-5.444.284-.52.632.346c.552.302 1.05.447 1.494.435.315 0 .625-.12.93-.368.226-.168.6-.73 1.122-1.684l6.848-12.522c.532-.974.814-1.61.844-1.91.03-.3-.066-.625-.287-.977-.205-.357-.575-.68-1.108-.973l-.632-.345.284-.52 9.953 5.444-.284.52-.632-.347c-.55-.302-1.05-.447-1.494-.435-.315-.002-.63.118-.944.36-.226.167-.6.73-1.122 1.683L297.872 467c-.532.974-.813 1.61-.843 1.91-.022.304.07.635.277.99.22.353.6.675 1.132.966l.63.346m36.36-8.528l-2.565 7.204-.558-.198c.028-2.21-.448-4.067-1.43-5.57-.98-1.506-2.27-2.542-3.868-3.11-1.53-.545-2.954-.566-4.276-.063-1.32.492-2.464 1.432-3.434 2.82-.97 1.386-1.742 2.89-2.318 4.506-.698 1.96-1.08 3.76-1.143 5.402s.292 2.992 1.07 4.05c.788 1.062 1.89 1.846 3.307 2.35.493.175 1.013.304 1.56.386.563.077 1.15.11 1.765.103l1.514-4.25c.287-.804.416-1.34.387-1.612-.024-.28-.178-.578-.462-.894-.273-.313-.656-.557-1.148-.732l-.528-.188.2-.557 9.932 3.536-.2.558c-.77-.218-1.336-.3-1.694-.247-.345.047-.663.223-.952.527-.16.16-.37.61-.635 1.353l-1.514 4.25c-1.513.118-3.03.07-4.55-.143-1.515-.2-3.03-.57-4.548-1.11-1.94-.69-3.46-1.526-4.56-2.507-1.085-.987-1.97-2.083-2.65-3.288-.666-1.212-1.085-2.454-1.254-3.726-.21-1.637-.008-3.315.604-5.033 1.095-3.074 3.1-5.287 6.016-6.637 2.915-1.35 6.01-1.443 9.287-.276 1.015.36 1.9.767 2.657 1.218.413.238 1.045.723 1.893 1.456.863.727 1.384 1.122 1.565 1.187.28.1.578.092.89-.023.317-.125.678-.438 1.083-.94l.558.2m15.32 24.586l-.09.586-11.216-1.7.09-.585.71.11c.623.094 1.14.06 1.554-.105.296-.106.546-.328.748-.664.154-.234.313-.89.476-1.966l2.137-14.11c.165-1.097.21-1.792.137-2.084-.075-.29-.276-.565-.604-.82-.316-.263-.775-.44-1.376-.53l-.712-.11.09-.584 11.215 1.7-.09.584-.71-.108c-.623-.094-1.14-.06-1.554.105-.297.106-.55.326-.764.66-.154.236-.313.892-.476 1.968l-2.137 14.11c-.167 1.097-.213 1.792-.14 2.083.086.294.287.572.603.836.328.255.793.428 1.394.52l.712.106m29.113-7.072l-.427 7.648-19.24.982-.03-.592.72-.036c.628-.032 1.13-.17 1.5-.413.27-.164.47-.43.6-.8.105-.262.13-.936.074-2.022l-.728-14.253c-.056-1.108-.15-1.797-.28-2.068-.133-.27-.385-.5-.757-.683-.363-.194-.847-.276-1.455-.245l-.72.037-.03-.592 11.554-.59.03.592-.942.048c-.63.032-1.13.17-1.5.413-.27.164-.476.43-.617.8-.104.262-.13.936-.073 2.023l.704 13.806c.057 1.108.157 1.813.3 2.116.143.29.405.502.786.632.27.083.918.098 1.94.046l1.806-.093c1.15-.058 2.1-.31 2.845-.754.747-.445 1.374-1.117 1.884-2.02.52-.902.987-2.218 1.4-3.948l.656-.033m21.045-3.652l-7.344 2.193-.27 2.286c-.084.76-.06 1.36.07 1.8.175.582.538.94 1.09 1.076.326.082 1.042 0 2.15-.24l.17.567-6.915 2.064-.17-.567c.712-.336 1.234-.825 1.565-1.47.327-.654.607-1.88.84-3.674l2.48-18.81.29-.086 12.59 14.808c1.197 1.4 2.09 2.243 2.674 2.524.44.213.986.25 1.635.112l.17.567-10.057 3.003-.17-.567.414-.124c.808-.24 1.34-.523 1.6-.845.177-.23.22-.5.128-.806-.055-.183-.142-.363-.262-.54-.048-.085-.315-.422-.803-1.01l-1.878-2.262m-.86-.98l-5.236-6.233-1.05 8.112 6.287-1.878m27.726-28.254l2.78 5.172-.507.273c-.942-1.03-1.735-1.707-2.38-2.026-.65-.33-1.376-.477-2.18-.444-.45.023-1.12.274-2.012.754l-1.423.765 7.926 14.74c.525.977.905 1.56 1.14 1.75.244.183.57.285.982.306.416.007.896-.136 1.44-.43l.635-.34.28.522-10.006 5.38-.28-.522.634-.34c.555-.3.95-.638 1.18-1.017.174-.264.246-.593.215-.988-.018-.28-.284-.9-.8-1.86l-7.925-14.74-1.38.742c-1.288.692-2.076 1.467-2.366 2.325-.408 1.2-.34 2.563.2 4.088l-.535.288-2.782-5.172 17.164-9.228m13.014-7.716l5.32 7.05.344-.26c1.098-.828 1.634-1.773 1.608-2.836s-.48-2.317-1.358-3.766l.486-.366 6.84 9.07-.485.366c-.846-.91-1.673-1.556-2.48-1.936-.8-.386-1.497-.522-2.092-.407-.6.106-1.315.47-2.14 1.094l3.68 4.878c.72.954 1.198 1.51 1.435 1.664.246.148.53.207.855.176.324-.03.733-.232 1.227-.605l1.035-.78c1.618-1.22 2.63-2.57 3.035-4.053.414-1.488.256-3.16-.475-5.013l.473-.357 3.374 6.093-14.97 11.292-.358-.472.574-.434c.502-.38.84-.774 1.01-1.184.133-.287.15-.62.05-1-.06-.274-.42-.846-1.074-1.714l-8.595-11.394c-.59-.784-.975-1.25-1.152-1.396-.31-.233-.64-.344-.993-.333-.503.005-1.036.22-1.598.644l-.575.433-.357-.473 14.498-10.936 3.864 5.123-.485.367c-1.19-1.066-2.218-1.7-3.08-1.905-.855-.21-1.787-.136-2.797.225-.592.206-1.544.804-2.856 1.794l-1.788 1.35"/><path d="M258.4 445.547c70.91 57.515 140.41 58.57 208.41 0" fill="none"/></g></svg>