<svg xmlns="http://www.w3.org/2000/svg" height="512" width="512"><defs><clipPath id="a"><path fill-opacity=".67" d="M0 0h496.06v496.06H0z"/></clipPath></defs><g clip-path="url(#a)"><g fill-rule="evenodd"><path d="M0 0l336.61 212.6h407.48v70.867H336.61L0 496.057V-.003z"/><path d="M0 478.35l343.7-219.68h400.39v-21.26H343.7L0 17.72v31.887l322.44 198.42L0 446.457v31.89z" fill="#ff0"/><path d="M0 496.06l343.7-219.68h400.39v219.68H0z" fill="#40aa40"/><path d="M0 0l343.7 219.68h400.39V0H0z" fill="#ce0000"/><path d="M92.826 258.33c1.19.262 1.502.602 2.68-1.126.253-.868.99-2.084 1.634-3.162.86-1.41 1.236-1.977 2.045-.903.523.61 2.606-.52 3.47.074 1.336.888.532.76 1.627-.2.84-1.79.1-1.58-1.085-2.394-.832-.57-2.956.607-3.788.036.29-1.79.86-1.98 1.89-2.328.778.535 3.046-.407 3.748-.392.99.207 1.872.318 2.184-1.137.49-1.03.276-.32-.117-1.07-.83-.57-2.956.607-3.787.036-1.08-.818-.903-1.122-.272-2.493.845-.464 1.474-.24 2.518.41 1.075.738 2.767-.696 3.71-.748.848-.965 1.848-1.286 1.216-2.46-.353-.894-.62-.995-1.782-1.224-1.19-.816-2.74.68-3.192-.543.944-1.35 1.296-1.062 2.44-.302.736.252 2.96-1.065 3.672-1.105 1.06-.306.546.885 1.293-1.748-.258-1.142-2.172.7-3.252.403-1.037.138-1.863-.23-1.96-1.346.015-1.503.76-1.606 1.827-1.383.94.17 3.06-1 3.85-.982 1.123.597 1.48.374 2.363-1.014.65-1.64-.072-.96-1.186-1.802-.83-.57-2.956.607-3.788.036.146-.605.41-1.342.976-1.637.82.162 1.525.125 2.556.766 1.015.444 2.686-1.516 3.555-2.173-.164-.934-1.824.395-2.834-.298-.64-.44-1.442-.9-1.642-1.458.573-1.636.294-1.554 1.866-1.025.837-.218 2.256-.207 1.294-1.75-.154-.25-.982-.16-1.705-.51-.872-.6-1.71-1.203-2.635-1.48-.666-.102-1.634-.318-2.16-.165-.057.972.188 1.59.13 2.727.435.71 1.255.726 1.427.98-.872.765-1.343.372-2.262.423-1.095-.75-.467-3.08-1.76-2.525.3.684.19 3.27.746 3.806.584.402 1.33.794 1.464 1.335-.93 1.433-1.284 1.353-2.4.66-.935-.642-.642-2.745-1.443-2.638-.984.744-1 .71-.797 1.76.052 1.373-.496 3.284.605 4.04 1.324.94 1.492.828.45 2.616-.718.87-1.12.71-1.945.313-.886-.608-.694-2.85-1.38-3.583-1.297-.775-.545-.747-1.626.202-.334 1.216-.09 1.536.45 2.614.44.67.412 2.957 1.163 3.106 1.212.693 1.254.554-.124 1.892-1.083.043-1.548.34-2.378-.644-1.007-.76-.378-3.102-1.658-3.116-1.186.097-1.444.128-1.294 1.75.205 1.426-.325 3.67.822 4.518 1.073.49 1.723.458 2.1 1.112-.335.293-.964 1.2-1.333 1.392-.75.054-1.527-.466-2.378-.644-1.012-.466-.554-1.37-1.363-1.925-.935.303-.95-1.004-1.448.324.192 1.09-.177 2.513.845 3.215.832.57 1.563 1.732 2.394 2.303.955 1.13.58 1.326-.006 2.96-.796.024-1.73-.526-2.595-1.12-.833-.572-.69-2.78-1.52-3.35-.72-.71-.51-1.312-1.627.2-.105 1.073.095 1.15.372 1.904.032 1.096-.262 3.116.745 3.807 1.017.204 2.114.736 2.912 1.01.766.897.1.722-.758 2.115-.54 1.395-.545 1.642-1.394 2.34-.736.98-1.028 1.41-.364 2.716z" fill="#ff0"/><path d="M117.158 259.518c.712-1.158 1.15-1.354.032-3.296-.697-.616-1.52-1.886-2.253-3-.953-1.475-1.323-2.102-.015-2.532.77-.31.562-2.974 1.45-3.655 1.347-1.063.91-.26.463-1.808-1.308-1.608-1.41-.738-2.628.196-.855.655-.62 3.382-1.475 4.037-1.527-1.024-1.476-1.705-1.385-2.937.8-.613.84-3.4 1.132-4.138.584-.97 1.036-1.86-.175-2.774-.75-.93-.183-.42-1.028-.303-.855.655-.62 3.382-1.474 4.037-1.18.82-1.39.51-2.397-.708-.09-1.082.367-1.66 1.378-2.51 1.106-.846.463-3.216.79-4.24-.548-1.285-.445-2.475-1.775-2.273-.962.018-1.16.26-1.834 1.403-1.223.937-.467 3.18-1.77 3.172-.864-1.542-.46-1.8.695-2.712.525-.68.2-3.568.448-4.34.14-1.248 1.03-.226-1.09-2.073-1.152-.18-.222 2.588-.925 3.616-.286 1.156-.952 1.886-2.016 1.543-1.372-.616-1.17-1.45-.54-2.493.528-.93.3-3.65.63-4.48.995-.955.93-1.422.01-2.915-1.247-1.348-.913-.31-2.128.538-.856.655-.62 3.382-1.476 4.037-.497-.397-1.07-.97-1.114-1.69.475-.806.72-1.57 1.72-2.41.812-.9-.322-3.458-.58-4.643-.923-.198-.363 2.096-1.402 2.892-.658.503-1.4 1.17-1.99 1.16-1.275-1.262-1.31-.933-.2-2.392.134-.975.71-2.477-1.09-2.072-.29.063-.54.978-1.148 1.606-.896.686-1.784 1.336-2.406 2.206-.36.666-.943 1.608-1.012 2.23.87.447 1.534.434 2.557.948.823-.177 1.164-1.04 1.464-1.122.356 1.232-.19 1.575-.51 2.57-1.126.864-3.014-.734-3.02.86.748-.043 3.08 1.106 3.792.73.6-.46 1.258-1.095 1.808-1.02.944 1.56.73 1.902-.35 2.812-.96.736-2.776-.417-2.996.477.29 1.342.253 1.346 1.298 1.55 1.282.493 2.818 1.84 3.95.972 1.39-1.03 1.354-1.253 2.58.568.514 1.11.207 1.475-.486 2.19-.91.698-2.893-.402-3.84.033-1.228 1.068-.902.28-.46 1.808.983.84 1.374.712 2.58.568.79-.2 2.877.744 3.312.006 1.12-1.01 1.008-1.11 1.69.888-.393 1.167-.306 1.78-1.54 2.268-1.098.766-2.998-.838-3.52.516-.383 1.298-.457 1.583 1.09 2.072 1.392.353 3.24 1.812 4.477.933.876-.944 1.105-1.646 1.855-1.785.136.472.72 1.504.748 1.97-.25.82-1.036 1.437-1.538 2.27-.83.888-1.477.04-2.31.678-.094 1.115-1.3.61-.28 1.668 1.08.232 2.24 1.193 3.29.388.855-.655 2.212-.967 3.067-1.622 1.416-.56 1.448-.085 2.716 1.19-.297.855-1.173 1.626-2.064 2.31-.855.653-2.825-.382-3.68.273-.936.48-1.406.02-.462 1.808.943.54 1.094.36 1.895.365 1.02.405 2.757 1.524 3.79.73.595-.997 1.52-1.95 2.09-2.688 1.127-.455.7.183 1.64 1.652 1.065 1.13 1.29 1.234 1.59 2.414.61 1.174.89 1.656 2.35 1.472z" fill="#ff0"/><path d="M94.96 304.722c0-5.154-.8-10.307 0-10.307 45.353 0 56.69-30.924 56.69-51.54 0-20.617-15.754-41.232-45.353-41.232-34.016 0-45.354 20.14-45.354 41.23 0 20.617 17.008 36.08 34.016 36.08 22.676 0 28.346-5.154 45.353-25.77-5.67 25.77-34.016 36.08-45.354 36.08-22.678 0-45.354-15.463-45.354-46.387 0-25.77 17.008-51.538 56.694-51.538 34.016 0 56.69 25.77 56.69 51.538 0 36.08-28.345 61.848-68.03 61.848z" fill="#ff0"/></g></g></svg>