<svg xmlns="http://www.w3.org/2000/svg" height="512" width="512"><g fill-rule="evenodd" stroke-width="1pt"><path fill="red" d="M0 0h512v512H0z"/><path fill="#00006b" d="M0-1h256v128H0z"/><g fill="#fff"><path d="M132.416 116.64l-10.135-6.86-9.715 6.973 3.086-12.23-9.325-7.54 12.046-.7 3.954-11.633 4.355 11.8 11.768.347-9.352 7.995M130.887 35.28l-8.128-5.215-7.982 5.177 2.216-9.727-7.155-6.362 9.5-.795 3.55-9.108 3.66 9.235 9.353.733-7.242 6.503M94.795 64.543l-7.9-5.423-8.072 5.422 2.513-9.505-7.442-6.326 9.444-.45 3.476-9.33 3.33 9.225 9.585.56-7.39 6.152M166.762 58.026l-7.578-4.897-7.375 4.956 2.12-9.032-6.792-5.783 8.89-.684 3.17-8.53 3.372 8.608 8.757.51-6.804 6.006M145.584 79.362l-5.052-3.146-5.036 3.178 1.313-5.976-4.462-4.006 5.865-.547 2.28-5.653 2.313 5.638 5.87.51-4.438 4.033"/></g></g></svg>