<svg xmlns="http://www.w3.org/2000/svg" height="512" width="512"><g fill-rule="evenodd" stroke-width="1pt"><path fill="red" d="M0 0h512v512H0z"/><path fill="#00006b" d="M0-1h256v128H0z"/><g fill="#fff"><path d="M132.524 116.574l-10.15-6.852-9.73 6.966 3.09-12.22-9.34-7.53 12.063-.7 3.96-11.622 4.36 11.788 11.788.347-9.366 7.988M130.786 35.293l-8.122-5.22-7.975 5.18 2.213-9.73-7.15-6.366 9.494-.795 3.548-9.113 3.656 9.24 9.348.732-7.237 6.506M94.892 64.54l-7.904-5.422-8.08 5.422 2.516-9.504-7.447-6.325 9.45-.45 3.48-9.33 3.33 9.224 9.593.56-7.393 6.152M166.856 58.006l-7.585-4.892-7.38 4.952 2.125-9.024-6.8-5.777 8.897-.685 3.175-8.524 3.373 8.602 8.764.51-6.81 6M145.644 79.378l-5.056-3.15-5.04 3.18 1.314-5.98-4.464-4.01 5.87-.548 2.283-5.66 2.314 5.645 5.873.512-4.44 4.035"/></g></g></svg>