<svg xmlns="http://www.w3.org/2000/svg" height="512" width="512" version="1"><defs><clipPath id="a"><path fill-opacity=".67" d="M70.133 0h499.61v499.61H70.133z"/></clipPath></defs><g transform="matrix(1 0 0 1 -71.9 0)" clip-path="url(#a)"><g fill-rule="evenodd" stroke-width="1pt"><path d="M0 397.908V101.846L220.375 249.8 0 397.92z"/><path d="M150.37 499.667l247.41-166.512h351.662v166.512h-599.07z" fill="#00c"/><path d="M134.465.007L749.422.02v166.54h-351.66S137.76-1.64 134.464.006z" fill="red"/><path d="M0 62.47v39.352l220.374 147.955L0 397.894v39.35l277.565-187.467L0 62.47z" fill="#fc0"/><path d="M0 62.47V.007h92.6L386.627 198.95H749.42v101.737H386.628L92.598 499.6H.002v-62.355l277.565-187.468L0 62.47z" fill="#093"/><path d="M92.6.007h57.76l247.41 166.54h351.662v32.403H386.64L92.61.007zM92.6 499.667h57.76l247.41-166.512h351.662v-32.402H386.64L92.61 499.667z" fill="#fff"/></g></g></svg>