<svg xmlns="http://www.w3.org/2000/svg" height="512" width="512"><defs><clipPath id="a"><path fill-opacity=".67" d="M248.03 0h496.06v496.06H248.03z"/></clipPath></defs><g fill-rule="evenodd" clip-path="url(#a)" transform="matrix(1.032 0 0 1.032 -256 0)"><path fill="#198a00" d="M0 0h744.09v496.06H0z"/><path fill="#ef7d00" d="M656.77 178.21h87.32v317.82h-87.32z"/><path d="M569.56 178.06h87.227v317.89H569.56z"/><path fill="#de2010" d="M480.51 178.26h89.074v317.81H480.51z"/><g stroke="#000" fill="#ef7d00"><path stroke-linejoin="round" d="M685.637 63.56s32.87-14.046 36.054-16.942c1.45 1.737-13.176 19.402-41.555 25.918 25.773-6.08 47.783-25.194 52.27-24.615 1.304.29 1.014 18.68-58.062 34.607 40.832-10.715 64.58-30.407 64.29-28.235.29.434-4.055 15.493-39.82 27.22 9.992-2.316 37.068-18.822 36.78-15.636.867 1.303-26.21 36.053-75.147 24.76C699.54 100.77 724.88 76.3 728.5 76.736c.724.144-7.24 21.43-56.47 22.732 23.602-2.46 16.796-.145 16.796-.145s-13.9 10.86-30.697 3.476c13.176 3.62 14.623 3.763 14.913 4.92-.87 1.45-11.73 3.62-22.153-2.026 8.397 3.475 15.927 4.055 16.07 5.358-.143.434-5.5 3.475-10.28 1.303-4.777-2.172-48.795-29.25-48.795-29.25l75-20.56 2.752 1.014zM597.46 136.803c-6.596 0-6.778 5.87-6.778 5.87s-.544.423-.18 3.268c1.087-1.936 1.633-2.54 1.633-2.54.726.12 3.75 1.028 8.53-2.724-4.356 4.538-1.753 6.233-1.753 6.233s-1.03 3.57 2.3 4.295c-1.03-1.452-.424-2.723-.424-2.723s4.66-.484 4.356-6.172c.182 5.143 2.966 6.414 2.966 6.414s0 2.844 3.025 3.086c-1.633-1.452-1.27-3.69-1.27-3.69s3.932-2.845.604-7.686c1.996-1.15 3.63-4.357 3.63-4.357s-2.723-1.15-3.993-2.117c-.606-1.272-.06-8.23-.06-8.23l-1.635-9.017-4.66 14.04c.182-1.998.303 6.05-6.293 6.05zM630.036 116.55c.144.146 4.923 5.504 9.556 5.214 1.738-1.447-3.62-4.633-3.62-5.357 1.883 1.738 9.846 8.543 14.915 6.08 2.026-2.895-3.62-2.46-9.847-10.28 4.344 2.897 15.204 9.268 20.272 6.806 2.172-2.317-11.295-9.557-15.783-15.203l-11.584-5.937-15.783 12.887 11.873 5.79z" stroke-width=".9025"/><path stroke-linejoin="round" d="M612.224 72.536s5.357-3.185 26.787-1.593c2.318.29 14.625-4.2 18.535-5.502 6.226-1.157 26.063-5.5 31.42-9.555 3.765-.435-1.014 6.95-5.79 8.688-5.07 2.316-23.458 8.687-29.974 7.82 7.82.144 3.476 6.515-9.556 3.474 6.227 3.475 3.91 4.054 3.91 4.054s-11.004.58-13.9-1.88c7.385 2.75 4.343 3.764 4.343 3.764s-7.53.723-11.004-.87c5.357 1.593 2.606 2.607 2.606 2.607s-4.344.725-7.964-.578-9.122-10.425-9.412-10.425z" stroke-linecap="round" stroke-width=".9025"/><path stroke-linejoin="round" d="M620.816 119.555l.787 14.16s-.424.726-.787 1.15c-.363.423-10.045-1.513-8.714 5.87 0 3.025.06 3.81 2.12 5.506-.547-1.996-.365-3.388-.365-3.388s2.723 1.634 5.386-2.844c-1.815 4.418-.545 5.99-.12 6.112.422.787-.727 4.357 2.903 4.296-1.39-1.33-.725-3.268-.725-3.268s3.813-.604 2.48-7.503c1.393-1.392 1.938-.06 1.938-.06s.423 4.114 3.75 3.267c1.515.847-.24 3.086-.24 3.086s2.42.06 3.146-1.997c.726-2.056 1.573-5.747-2.42-7.26-.485-1.452 1.573-1.573 1.573-1.573s2.54.847 3.267 2.117c.726 1.27.484-3.327-2.662-3.812-3.873-.12-4.115-.907-4.115-1.09 0-.18-.665-10.286-.968-13.19l-6.234.423z" stroke-width=".9025"/><path stroke-linejoin="round" d="M634.29 131.62c.046-.65-6.608-9.61-4.92-10.767 1.688.347 4.455 4.422 6.697 3.1-.68-1.59-2.682-.694-4.957-4.76-2.273-4.598-2.605-11.498-10.57-19.026 5.157 7.966 16.852 12.635 17.348 10.312s-10.3-11.106-9.746-13.223c2.147 4.347 12.985 14.033 20.97 13.23.547-1.864-6.54-5.628-8.363-9.142-5.102-3.427-18.753-15.194-19.026-17.923-4.968-7.244-8.07-9.436-9.513-10.27-.557-.658-.697-1.287-.806-1.686-3.084-7.27 1-9.63 3.39-9.98 1.97-.218 2.54.076 3.956-.61-1.677-.655-3.353-1.268-5.028-1.924 2.185 1.603 7.768.19 6.558 4.81 2.447-.932 7.655-7.128-5.903-8.526-4.412-5.062-22.552-7.97-27.093 14.12.363.31.553.565 1.706 1.426-5.732-2.77-21.183-4.912-26.75-5.81-15.046-4.342-30.67-14.802-32.172-13.516-2.01.89 9.09 11.217 8.512 11.446-9.623-5.61-18.414-9.586-26.594-13.204-5.755-2.15-11.52-7.16-12.155-6.207-2.116 4.388 9.228 15.418 11.338 16.714 2.11 1.24 18.707 8.94 18.462 9.036-24.997-11.346-29.188-13.403-30.442-14.71-2.204-.497-7.57-7.743-9.066-7.278-.82.805.823 12.255 12.752 17.395 1.944 1.417 25.57 9.892 25.337 10.556-.057.166-27.058-11.144-28.107-11.548-5.205-2.042-11.593-9.197-12.787-8.392-1.14.73 2.945 8.475 8.205 10.904 2.758 1.216 13.334 6.455 22.863 9.788.608.22-17.127-6.725-25.655-10.29-3.866-2.145-5.687-4.82-6.276-4.244-.87.577 1.408 12.017 28.81 18.473.72.307 9.645-2.114 9.204-1.793-.11.08-8.86 1.985-9.713 1.92-.758-.116-5.552.568-5.64.816-.29.774 1.738 4.87 15.886 4.016 1.808-.108 11.624-3.574 10.8-2.83-.413.374-13.367 4.584-14.353 4.667-.857.12-5.408.596-5.576 1.08-.205.66 3.37 3.575 10.967 4.042 6.728.358 19.51-4.11 19.254-3.82-.255.29-12.322 4.424-12.638 4.676-.437.247-4.855.487-5.01.826-.36.844 6.374 7.14 26.29.42-2 2.703-11.655 4.552-11.64 5.038-.046.353 2.126 2.45 5.5 3.202 1.688.376 4 .3 6.11-.034 3.79-.76 7.784-2.26 12.86-6.95.607 1.472-12.68 8.196-12.055 8.837 2.88 2.67 12.45-.344 13.077-.695.627-.35 18.427-10.388 18.366-11.55.276 1.49-22.95 14.11-22.698 14.627 1.49 2.378 9.425-.126 9.804-.345.378-.218 10.125-5.483 10.392-5.64.267-.154-11.455 6.862-10.41 7.93-.506 4.555 18.305-3.145 19.78-4.104.737-.478-9.037 4.3-9.063 6.568 3.147 5.32 13.225 3.633 14.78 2.463.777-.585-.915 3.954-.37 3.54.19-.084 2.192-2.45 2.96-4.164-.244 1.486-1.35 3.828-1.994 6.516-.644 2.687-.83 5.72-1.715 8.94-.203 1.416 6.21-2.766 5.28-12.763.548 5.2-2.026 14.922-1.353 15.428 1.347 1.01 5.072-4.843 5.448-8.8 1.107 1.998 3.428 6.172 5.425 7.132-.217-3.025.038-2.886-.86-5.858.518-3.947.59-9.41.715-15.576 5.427 10.395 7.592 14.785 6.075 22.746 1.614.673 4.192-5.557 3.984-8.763 2.07 8.908 11.015 10.244 11.157 9.985z" stroke-linecap="round" stroke-width=".722pt"/><path stroke-linejoin="round" d="M543.9 65.623s-3.693 2.79-8.29 2.626c1.15 4.596 10.67 1.067 10.67 1.067s-4.595 5.088-7.88 5.91c1.97 1.64 10.26 1.066 11.656.245 1.395-.82 3.858-4.02 3.858-4.02s-8.536 9.848-9.768 9.766c-.164 1.15 8.947.738 10.835-.985 1.89-1.724 6.65-4.268 6.65-4.268s-12.477 8.7-13.052 8.7c4.68 1.23 14.036-1.478 20.028-5.17-8.865 5.91-9.685 6.976-14.2 8.945 4.023.903 6.074 3.612 19.7-2.298 7.797-3.694 12.23-10.424 12.23-10.424-4.844 6.484-12.477 11.983-20.93 17.4-.494.985 9.027 5.007 21.175-7.633" stroke-linecap="round" stroke-width=".722pt"/><path d="M609.892 93.036s.82 3.857 4.104 6.813c3.284 2.953 3.53 5.826 3.53 5.826M608.253 67.92s1.15 3.448 4.514 5.664c3.448 2.217 8.62 9.193 9.03 10.425.397 1.49 2.38 12.23 2.215 13.377M587.322 73.256c.247 1.313-4.843 7.96 2.134 15.76-6.32 7.714-6.32 8.7-6.32 8.7s3.53 1.97 9.85-3.448c10.423 12.804 6.95 18.664 6.95 18.664" stroke-linecap="round" stroke-width=".722pt"/><path stroke-linejoin="round" d="M599.106 103.895s-.96-1.376.75-6.512c1.543 1.857 3.257 2.253 4.008 3.005.75.752 8.622 1.89 9.122 7.15" stroke-linecap="round" stroke-width=".722pt"/><path d="M608.354 55.682c0-.386-1.584-3.787-7.497.464 3.17.193 6.3 2.01 7.497-.464z" stroke-width=".722pt"/><path stroke-linejoin="round" d="M664.786 71.233c.29.145 17.665 3.91 23.457 2.027-7.385 9.846-22.154 3.185-22.154 3.185 7.24 2.172 7.53 2.028 9.845 4.055.724 1.882-13.32 1.013-17.955-1.593 12.887 4.054 13.177 3.765 13.61 5.357.58 2.172-21.14-.58-23.02-3.475 5.79 4.488 8.976 5.357 12.162 7.384-3.91 1.738-11.15 3.475-24.47-5.937 17.52 15.928 33.302 14.914 35.764 17.81-6.08 8.977-29.684-5.357-40.543-12.598-10.86-7.24 23.746 17.52 26.933 17.085-1.594 2.46-13.032.29-13.757-.87" stroke-width=".722pt"/><path d="M669.277 87.884c-2.027.29-8.108.29-8.977.145" stroke-linecap="round" stroke-width=".722pt"/><path stroke-linejoin="round" d="M538.812 62.996s13.215 6.977 18.796 6.484c-1.477 1.396-3.694 1.97-3.694 1.97 1.396.575 5.253 2.627 11.08 1.314-1.394 1.395-3.2 2.955-3.2 2.955s5.007 1.886 10.67-1.07c-1.723 2.135-2.71 3.695-2.71 3.695l3.94.246" stroke-linecap="round" stroke-width=".722pt"/></g></g></svg>