<svg xmlns="http://www.w3.org/2000/svg" height="512" width="512"><defs><clipPath id="a"><path fill-opacity=".67" d="M248.03 0h496.06v496.06H248.03z"/></clipPath></defs><g fill-rule="evenodd" clip-path="url(#a)" transform="matrix(1 0 0 1 -256 0)"><path fill="#198a00" d="M0 0h744.09v496.06H0z"/><path fill="#ef7d00" d="M656.77 178.21h87.32v317.82h-87.32z"/><path d="M569.56 178.06h87.227v317.89H569.56z"/><path fill="#de2010" d="M480.51 178.26h89.074v317.81H480.51z"/><g stroke="#000" fill="#ef7d00"><path stroke-linejoin="round" d="M685.586 63.548s32.86-14.042 36.045-16.937c1.45 1.738-13.172 19.4-41.545 25.913 25.767-6.08 47.77-25.188 52.26-24.61 1.302.29 1.01 18.675-58.05 34.6 40.822-10.714 64.562-30.4 64.273-28.23.29.434-4.053 15.49-39.81 27.215 9.99-2.316 37.06-18.82 36.77-15.634.87 1.303-26.2 36.045-75.127 24.754 39.086 10.133 64.42-14.33 68.038-13.897.724.146-7.24 21.426-56.456 22.73 23.596-2.462 16.792-.147 16.792-.147s-13.898 10.857-30.69 3.475c13.174 3.62 14.62 3.764 14.91 4.922-.868 1.447-11.725 3.62-22.147-2.027 8.395 3.474 15.923 4.054 16.067 5.357-.144.433-5.5 3.474-10.277 1.302-4.777-2.172-48.785-29.24-48.785-29.24l74.984-20.558 2.75 1.014zM597.43 136.775c-6.595 0-6.776 5.868-6.776 5.868s-.545.423-.182 3.267c1.09-1.936 1.634-2.54 1.634-2.54.726.12 3.75 1.027 8.53-2.723-4.357 4.536-1.754 6.23-1.754 6.23s-1.03 3.57 2.298 4.296c-1.028-1.452-.423-2.723-.423-2.723s4.658-.483 4.355-6.17c.182 5.142 2.965 6.412 2.965 6.412s0 2.844 3.024 3.086c-1.63-1.452-1.27-3.69-1.27-3.69s3.934-2.844.606-7.684c1.996-1.15 3.63-4.355 3.63-4.355s-2.722-1.15-3.992-2.118c-.606-1.272-.06-8.228-.06-8.228l-1.635-9.015-4.66 14.035c.182-1.996.303 6.05-6.29 6.05z" stroke-width=".9022874999999999"/><path stroke-linejoin="round" d="M629.998 116.528c.144.145 4.922 5.5 9.554 5.21 1.737-1.446-3.62-4.63-3.62-5.355 1.883 1.738 9.845 8.54 14.912 6.08 2.026-2.895-3.62-2.46-9.845-10.278 4.342 2.895 15.2 9.265 20.266 6.804 2.172-2.317-11.29-9.556-15.78-15.2l-11.58-5.936-15.778 12.884 11.87 5.79z" stroke-width=".9022874999999999"/><path stroke-linejoin="round" d="M612.19 72.523s5.357-3.185 26.78-1.592c2.317.29 14.622-4.197 18.53-5.5 6.225-1.158 26.057-5.5 31.414-9.554 3.763-.435-1.015 6.948-5.79 8.685-5.068 2.318-23.452 8.687-29.967 7.82 7.818.144 3.475 6.513-9.554 3.473 6.225 3.474 3.91 4.053 3.91 4.053s-11.003.58-13.898-1.882c7.383 2.75 4.343 3.764 4.343 3.764s-7.528.724-11.002-.868c5.356 1.592 2.605 2.605 2.605 2.605s-4.34.724-7.96-.58c-3.62-1.302-9.12-10.42-9.41-10.42z" stroke-linecap="round" stroke-width=".9022874999999999"/><path stroke-linejoin="round" d="M620.78 119.53l.787 14.157s-.424.726-.787 1.15c-.363.423-10.042-1.513-8.71 5.868 0 3.025.06 3.81 2.117 5.505-.545-1.997-.364-3.388-.364-3.388s2.722 1.634 5.385-2.843c-1.815 4.415-.545 5.988-.122 6.11.424.786-.725 4.355 2.904 4.294-1.39-1.33-.725-3.267-.725-3.267s3.81-.604 2.48-7.5c1.392-1.393 1.936-.062 1.936-.062s.424 4.114 3.75 3.267c1.514.847-.24 3.085-.24 3.085s2.42.06 3.145-1.996c.727-2.056 1.573-5.746-2.42-7.26-.484-1.45 1.574-1.57 1.574-1.57s2.54.845 3.265 2.116c.726 1.27.484-3.327-2.66-3.812-3.873-.12-4.115-.907-4.115-1.088 0-.182-.666-10.285-.968-13.19l-6.232.424z" stroke-width=".9022874999999999"/><path stroke-linejoin="round" d="M634.25 131.592c.047-.65-6.605-9.606-4.917-10.764 1.686.348 4.453 4.422 6.695 3.1-.68-1.59-2.682-.695-4.956-4.76-2.273-4.596-2.605-11.495-10.567-19.02 5.155 7.963 16.848 12.63 17.343 10.31s-10.296-11.104-9.743-13.22c2.146 4.346 12.98 14.03 20.964 13.228.547-1.865-6.538-5.628-8.36-9.14-5.1-3.427-18.75-15.192-19.022-17.92-4.966-7.242-8.067-9.434-9.51-10.268-.558-.657-.698-1.286-.807-1.685-3.082-7.268 1-9.628 3.39-9.977 1.968-.22 2.54.076 3.955-.61-1.677-.655-3.352-1.268-5.027-1.924 2.185 1.603 7.766.192 6.556 4.808 2.447-.93 7.654-7.125-5.9-8.523-4.412-5.06-22.548-7.97-27.087 14.117.362.31.552.564 1.705 1.426-5.73-2.77-21.178-4.91-26.743-5.81-15.044-4.34-30.665-14.798-32.166-13.512-2.008.89 9.087 11.215 8.51 11.443-9.62-5.608-18.41-9.583-26.587-13.2-5.754-2.15-11.516-7.158-12.152-6.205-2.117 4.386 9.224 15.413 11.334 16.71 2.11 1.24 18.7 8.937 18.457 9.033-24.99-11.344-29.182-13.4-30.435-14.707-2.203-.496-7.57-7.74-9.064-7.275-.82.805.823 12.252 12.748 17.39 1.944 1.417 25.563 9.89 25.332 10.554-.058.165-27.052-11.142-28.1-11.546-5.206-2.042-11.592-9.195-12.785-8.39-1.14.73 2.943 8.473 8.202 10.9 2.757 1.217 13.33 6.454 22.857 9.787.608.22-17.123-6.723-25.65-10.285-3.864-2.146-5.684-4.82-6.273-4.244-.872.576 1.406 12.014 28.8 18.468.723.307 9.645-2.114 9.204-1.793-.11.08-8.86 1.985-9.71 1.92-.76-.115-5.552.568-5.64.816-.288.775 1.738 4.87 15.883 4.016 1.808-.108 11.62-3.573 10.797-2.828-.412.373-13.363 4.58-14.35 4.664-.856.12-5.405.597-5.574 1.08-.205.66 3.368 3.576 10.964 4.043 6.726.357 19.506-4.11 19.25-3.82-.257.29-12.32 4.423-12.636 4.675-.437.247-4.855.486-5.01.826-.36.844 6.373 7.14 26.283.42-2 2.702-11.65 4.55-11.636 5.037-.045.353 2.127 2.45 5.5 3.2 1.688.376 3.997.3 6.107-.034 3.79-.76 7.785-2.258 12.86-6.948.606 1.472-12.677 8.193-12.053 8.834 2.88 2.67 12.447-.344 13.074-.694.628-.35 18.424-10.386 18.362-11.547.277 1.488-22.943 14.105-22.692 14.623 1.49 2.378 9.422-.125 9.8-.344.38-.218 10.124-5.482 10.39-5.638.268-.155-11.45 6.86-10.407 7.927-.505 4.555 18.3-3.144 19.775-4.102.737-.48-9.034 4.297-9.06 6.566 3.147 5.32 13.222 3.632 14.776 2.462.777-.586-.915 3.952-.37 3.54.19-.085 2.192-2.452 2.96-4.165-.244 1.486-1.35 3.828-1.993 6.514-.645 2.687-.83 5.72-1.715 8.94-.203 1.414 6.208-2.767 5.277-12.76.55 5.198-2.024 14.918-1.35 15.424 1.346 1.01 5.07-4.84 5.446-8.798 1.106 2 3.426 6.17 5.423 7.13-.216-3.023.04-2.884-.86-5.856.52-3.945.59-9.406.717-15.572 5.425 10.393 7.59 14.782 6.073 22.74 1.613.673 4.19-5.554 3.982-8.76 2.072 8.907 11.014 10.243 11.156 9.984z" stroke-linecap="round" stroke-width=".72183pt"/><path stroke-linejoin="round" d="M543.884 65.612s-3.693 2.79-8.288 2.625c1.148 4.596 10.667 1.067 10.667 1.067s-4.595 5.088-7.878 5.908c1.97 1.642 10.258 1.067 11.653.247 1.394-.822 3.857-4.022 3.857-4.022s-8.535 9.847-9.766 9.765c-.165 1.148 8.944.738 10.83-.985 1.888-1.723 6.648-4.267 6.648-4.267s-12.473 8.7-13.048 8.7c4.678 1.23 14.033-1.478 20.023-5.17-8.863 5.907-9.683 6.974-14.196 8.943 4.02.903 6.072 3.61 19.694-2.297 7.797-3.693 12.227-10.422 12.227-10.422-4.84 6.483-12.473 11.98-20.924 17.397-.493.985 9.026 5.006 21.17-7.63" stroke-linecap="round" stroke-width=".72183pt"/><path d="M609.86 93.018s.82 3.857 4.102 6.81c3.283 2.955 3.53 5.827 3.53 5.827M608.22 67.91s1.15 3.446 4.513 5.66c3.447 2.217 8.618 9.19 9.028 10.423.398 1.49 2.38 12.227 2.216 13.375M587.295 73.243c.246 1.313-4.842 7.96 2.133 15.755-6.32 7.713-6.318 8.698-6.318 8.698s3.528 1.97 9.847-3.447c10.42 12.8 6.948 18.66 6.948 18.66" stroke-linecap="round" stroke-width=".72183pt"/><path stroke-linejoin="round" d="M599.075 103.874s-.96-1.375.75-6.51c1.543 1.856 3.256 2.253 4.008 3.004.75.752 8.62 1.89 9.12 7.15" stroke-linecap="round" stroke-width=".72183pt"/><path d="M608.322 55.673c0-.386-1.585-3.786-7.496.464 3.168.193 6.297 2.01 7.496-.464z" stroke-width=".72183pt"/><path stroke-linejoin="round" d="M664.74 71.22c.29.145 17.66 3.91 23.45 2.027-7.382 9.843-22.148 3.184-22.148 3.184 7.238 2.173 7.528 2.028 9.844 4.055.724 1.882-13.318 1.013-17.95-1.593 12.884 4.054 13.173 3.764 13.608 5.356.58 2.172-21.136-.58-23.017-3.474 5.79 4.488 8.975 5.356 12.16 7.383-3.91 1.737-11.147 3.474-24.465-5.935 17.516 15.923 33.295 14.91 35.756 17.805-6.08 8.975-29.676-5.356-40.533-12.594-10.857-7.238 23.74 17.516 26.926 17.08-1.592 2.462-13.028.29-13.752-.867" stroke-width=".72183pt"/><path d="M669.23 87.868c-2.027.29-8.107.29-8.975.144" stroke-linecap="round" stroke-width=".72183pt"/><path stroke-linejoin="round" d="M538.796 62.986s13.212 6.975 18.79 6.482c-1.475 1.395-3.69 1.97-3.69 1.97 1.394.574 5.25 2.626 11.077 1.313-1.395 1.396-3.2 2.955-3.2 2.955s5.005 1.887 10.667-1.067c-1.723 2.133-2.708 3.693-2.708 3.693l3.94.247" stroke-linecap="round" stroke-width=".72183pt"/></g></g></svg>