<svg xmlns="http://www.w3.org/2000/svg" height="512" width="512"><defs><clipPath id="a"><path fill-opacity=".67" d="M0 0h496.06v496.06H0z"/></clipPath></defs><g stroke-width="1pt" clip-path="url(#a)"><path fill-rule="evenodd" fill="#319208" d="M0 425.2h992.13v70.866H0z"/><path fill-rule="evenodd" fill="#de2010" d="M0 283.46h992.13v70.866H0z"/><path fill-rule="evenodd" fill="#ffd200" d="M0 354.33h992.13v70.866H0z"/><path fill-rule="evenodd" fill="#de2010" d="M0 141.73h992.13v70.866H0z"/><path fill-rule="evenodd" fill="#ffd200" d="M0 70.866h992.13v70.866H0z"/><path fill-rule="evenodd" fill="#319208" d="M0 0h992.13v70.866H0z"/><path d="M27.992 0v496.06l333.07-248.03L27.992 0z" fill-rule="evenodd"/><path fill-rule="evenodd" d="M0 0h28.346v496.06H0z"/><path d="M0 0v496.06l361.42-248.03L0 0z" fill-rule="evenodd"/><path fill-rule="evenodd" d="M0 212.6h992.13v70.866H0z"/><path d="M0 0v496.06l333.07-248.03L0 0z" fill-rule="evenodd" fill="#fff"/><path fill="#d62419" fill-rule="evenodd" d="M127.868 111.096l26.423 87.555 94.376.83-75.112 52.187 28.385 89.997-72.84-55.306-76.83 54.808 30.088-86.37-75.874-56.13 91.45 1.924"/><path d="M48.5 161.056c1.606-2.892 1.927-4.5 10.282-8.034 10.925-31.81 38.88-19.28 54.305 24.743 14.138 6.105 98.648 69.085 97.363 72.62-.643 3.213-11.247.643-11.247.643s-16.71 71.335-17.03 71.335c-31.17-4.177-79.69-4.82-112.79-4.177.32-5.463-8.997-41.13-8.997-41.13s-8.034-2.57 5.462-29.884c14.46-34.382 17.352-90.294-17.35-86.116z" fill-rule="evenodd" stroke="#000" fill="#f7df00"/><path d="M77.09 148.196c0 1.952-1.582 3.535-3.535 3.535s-3.534-1.582-3.534-3.534 1.583-3.535 3.535-3.535 3.535 1.584 3.535 3.536zM112.12 177.766S84.485 193.51 76.452 193.19M199.2 251.026c-1.928-1.607-102.5-6.427-98.327-40.488M116.94 251.666s10.925 6.427 20.243-10.282M129.15 251.346s7.712 7.07 18.96-8.354M60.71 277.056s7.07.964 8.355-3.213M94.12 318.506c0-.32-7.07-45.63-7.07-45.63 34.92 3.107 71.122 3.322 104.75 9.32" stroke="#000" fill="none"/><path d="M90.59 273.516l9.64 11.246 9.96-9.64 8.355 8.998M121.12 284.446l8.354-7.39 8.998 8.675M140.07 285.726l9.32-8.354 7.068 8.355M160.32 286.056l8.355-5.784 7.39 7.07M181.85 287.016l6.105-5.784" stroke="#000" fill="none"/><path d="M88.98 283.796l10.283 11.89 10.282-9.32 8.997 9.64 10.283-8.996 8.676 10.282 10.605-8.997s8.033 9.96 8.997 9.96 10.604-8.353 10.604-8.353l9.32 10.282 12.85-10.282M90.59 295.366s82.903 3.214 96.398 6.427M104.41 257.776s78.725 4.177 91.257 8.997" stroke="#000" fill="none"/><path d="M88.34 224.996c.643 4.82-5.14 21.53-11.246 27.313-8.355 6.747-7.39 20.885-7.39 20.885.963 5.784 13.495 5.14 15.102 2.25 1.285-13.175 15.423-16.067 15.423-16.067s19.6-5.462 27.955-21.85M127.86 266.766c0 2.307-1.87 4.177-4.177 4.177s-4.178-1.87-4.178-4.177c0-2.307 1.87-4.177 4.178-4.177s4.177 1.87 4.177 4.176zM146.5 268.376c0 2.307-1.87 4.177-4.177 4.177s-4.177-1.87-4.177-4.177c0-2.307 1.87-4.177 4.177-4.177s4.177 1.87 4.177 4.176z" stroke="#000" fill="none"/></g></svg>